<?xml version="1.0" encoding="utf-8" standalone="no"?>
<!DOCTYPE svg PUBLIC "-//W3C//DTD SVG 1.1//EN"
  "http://www.w3.org/Graphics/SVG/1.1/DTD/svg11.dtd">
<svg xmlns:xlink="http://www.w3.org/1999/xlink" width="938.243406pt" height="317.879996pt" viewBox="0 0 938.243406 317.879996" xmlns="http://www.w3.org/2000/svg" version="1.1">
 <metadata>
  <rdf:RDF xmlns:dc="http://purl.org/dc/elements/1.1/" xmlns:cc="http://creativecommons.org/ns#" xmlns:rdf="http://www.w3.org/1999/02/22-rdf-syntax-ns#">
   <cc:Work>
    <dc:type rdf:resource="http://purl.org/dc/dcmitype/StillImage"/>
    <dc:date>2024-11-26T09:36:09.628652</dc:date>
    <dc:format>image/svg+xml</dc:format>
    <dc:creator>
     <cc:Agent>
      <dc:title>Matplotlib v3.9.2, https://matplotlib.org/</dc:title>
     </cc:Agent>
    </dc:creator>
   </cc:Work>
  </rdf:RDF>
 </metadata>
 <defs>
  <style type="text/css">*{stroke-linejoin: round; stroke-linecap: butt}</style>
 </defs>
 <g id="figure_1">
  <g id="patch_1">
   <path d="M 0 317.879996 
L 938.243406 317.879996 
L 938.243406 0 
L 0 0 
z
" style="fill: #ffffff"/>
  </g>
  <g id="axes_1">
   <g id="line2d_1">
    <path d="M 76.803418 52.159999 
L 925.423406 52.159999 
" clip-path="url(#pb6b58b0281)" style="fill: none; stroke: #000000; stroke-width: 2; stroke-linecap: square"/>
   </g>
   <g id="line2d_2">
    <path d="M 76.803418 108.359999 
L 925.423406 108.359999 
" clip-path="url(#pb6b58b0281)" style="fill: none; stroke: #000000; stroke-width: 2; stroke-linecap: square"/>
   </g>
   <g id="line2d_3">
    <path d="M 76.803418 164.559998 
L 925.423406 164.559998 
" clip-path="url(#pb6b58b0281)" style="fill: none; stroke: #000000; stroke-width: 2; stroke-linecap: square"/>
   </g>
   <g id="line2d_4">
    <path d="M 76.803418 220.759997 
L 925.423406 220.759997 
" clip-path="url(#pb6b58b0281)" style="fill: none; stroke: #000000; stroke-width: 2; stroke-linecap: square"/>
   </g>
   <g id="line2d_5">
    <path d="M 76.803418 276.959996 
L 925.423406 276.959996 
" clip-path="url(#pb6b58b0281)" style="fill: none; stroke: #000000; stroke-width: 2; stroke-linecap: square"/>
   </g>
   <g id="patch_2">
    <path d="M 71.183418 24.06 
L -1333.816562 24.06 
L -1333.816562 361.259995 
L 71.183418 361.259995 
z
" clip-path="url(#pb6b58b0281)" style="fill: #ffffff; stroke: #ffffff; stroke-width: 1.5; stroke-linejoin: miter"/>
   </g>
   <g id="line2d_6">
    <path d="M 163.351417 164.559998 
L 163.351417 108.359999 
" clip-path="url(#pb6b58b0281)" style="fill: none; stroke: #002d9c; stroke-width: 2; stroke-linecap: square"/>
   </g>
   <g id="line2d_7">
    <path d="M 219.551416 220.759997 
L 219.551416 164.559998 
" clip-path="url(#pb6b58b0281)" style="fill: none; stroke: #002d9c; stroke-width: 2; stroke-linecap: square"/>
   </g>
   <g id="line2d_8">
    <path d="M 275.751415 276.959996 
L 275.751415 220.759997 
" clip-path="url(#pb6b58b0281)" style="fill: none; stroke: #002d9c; stroke-width: 2; stroke-linecap: square"/>
   </g>
   <g id="line2d_9">
    <path d="M 331.951414 164.559998 
L 331.951414 108.359999 
" clip-path="url(#pb6b58b0281)" style="fill: none; stroke: #002d9c; stroke-width: 2; stroke-linecap: square"/>
   </g>
   <g id="line2d_10">
    <path d="M 388.151414 220.759997 
L 388.151414 164.559998 
" clip-path="url(#pb6b58b0281)" style="fill: none; stroke: #002d9c; stroke-width: 2; stroke-linecap: square"/>
   </g>
   <g id="line2d_11">
    <path d="M 444.351413 276.959996 
L 444.351413 220.759997 
" clip-path="url(#pb6b58b0281)" style="fill: none; stroke: #002d9c; stroke-width: 2; stroke-linecap: square"/>
   </g>
   <g id="line2d_12">
    <path d="M 500.551412 164.559998 
L 500.551412 108.359999 
" clip-path="url(#pb6b58b0281)" style="fill: none; stroke: #002d9c; stroke-width: 2; stroke-linecap: square"/>
   </g>
   <g id="line2d_13">
    <path d="M 556.751411 220.759997 
L 556.751411 164.559998 
" clip-path="url(#pb6b58b0281)" style="fill: none; stroke: #002d9c; stroke-width: 2; stroke-linecap: square"/>
   </g>
   <g id="line2d_14">
    <path d="M 612.95141 276.959996 
L 612.95141 220.759997 
" clip-path="url(#pb6b58b0281)" style="fill: none; stroke: #002d9c; stroke-width: 2; stroke-linecap: square"/>
   </g>
   <g id="line2d_15">
    <path d="M 669.15141 164.559998 
L 669.15141 108.359999 
" clip-path="url(#pb6b58b0281)" style="fill: none; stroke: #002d9c; stroke-width: 2; stroke-linecap: square"/>
   </g>
   <g id="line2d_16">
    <path d="M 725.351409 220.759997 
L 725.351409 164.559998 
" clip-path="url(#pb6b58b0281)" style="fill: none; stroke: #002d9c; stroke-width: 2; stroke-linecap: square"/>
   </g>
   <g id="line2d_17">
    <path d="M 781.551408 276.959996 
L 781.551408 220.759997 
" clip-path="url(#pb6b58b0281)" style="fill: none; stroke: #002d9c; stroke-width: 2; stroke-linecap: square"/>
   </g>
   <g id="patch_3">
    <path d="M 88.886418 70.424999 
L 125.416417 70.424999 
L 125.416417 33.895 
L 88.886418 33.895 
z
" clip-path="url(#pb6b58b0281)" style="fill: #fa4d56; stroke: #fa4d56; stroke-width: 1.5; stroke-linejoin: miter"/>
   </g>
   <g id="patch_4">
    <path d="M 88.886418 126.624998 
L 125.416417 126.624998 
L 125.416417 90.094999 
L 88.886418 90.094999 
z
" clip-path="url(#pb6b58b0281)" style="fill: #9f1853; stroke: #9f1853; stroke-width: 1.5; stroke-linejoin: miter"/>
   </g>
   <g id="patch_5">
    <path d="M 88.886418 182.824997 
L 125.416417 182.824997 
L 125.416417 146.294998 
L 88.886418 146.294998 
z
" clip-path="url(#pb6b58b0281)" style="fill: #9f1853; stroke: #9f1853; stroke-width: 1.5; stroke-linejoin: miter"/>
   </g>
   <g id="patch_6">
    <path d="M 88.886418 239.024997 
L 125.416417 239.024997 
L 125.416417 202.494997 
L 88.886418 202.494997 
z
" clip-path="url(#pb6b58b0281)" style="fill: #9f1853; stroke: #9f1853; stroke-width: 1.5; stroke-linejoin: miter"/>
   </g>
   <g id="patch_7">
    <path d="M 88.886418 295.224996 
L 125.416417 295.224996 
L 125.416417 258.694996 
L 88.886418 258.694996 
z
" clip-path="url(#pb6b58b0281)" style="fill: #9f1853; stroke: #9f1853; stroke-width: 1.5; stroke-linejoin: miter"/>
   </g>
   <g id="patch_8">
    <path d="M 163.351417 113.839498 
C 164.804597 113.839498 166.198455 113.262144 167.226008 112.23459 
C 168.253562 111.207036 168.830917 109.813179 168.830917 108.359999 
C 168.830917 106.906818 168.253562 105.512961 167.226008 104.485407 
C 166.198455 103.457853 164.804597 102.880499 163.351417 102.880499 
C 161.898236 102.880499 160.504379 103.457853 159.476825 104.485407 
C 158.449272 105.512961 157.871917 106.906818 157.871917 108.359999 
C 157.871917 109.813179 158.449272 111.207036 159.476825 112.23459 
C 160.504379 113.262144 161.898236 113.839498 163.351417 113.839498 
z
" clip-path="url(#pb6b58b0281)" style="fill: #002d9c; stroke: #002d9c; stroke-width: 1.5; stroke-linejoin: miter"/>
   </g>
   <g id="patch_9">
    <path d="M 163.351417 177.345498 
C 166.742171 177.345498 169.994505 175.998337 172.39213 173.600711 
C 174.789756 171.203086 176.136917 167.950752 176.136917 164.559998 
C 176.136917 161.169244 174.789756 157.916909 172.39213 155.519284 
C 169.994505 153.121659 166.742171 151.774498 163.351417 151.774498 
C 159.960663 151.774498 156.708328 153.121659 154.310703 155.519284 
C 151.913078 157.916909 150.565917 161.169244 150.565917 164.559998 
C 150.565917 167.950752 151.913078 171.203086 154.310703 173.600711 
C 156.708328 175.998337 159.960663 177.345498 163.351417 177.345498 
z
" clip-path="url(#pb6b58b0281)" style="fill: #002d9c; stroke: #002d9c; stroke-width: 2; stroke-linejoin: miter"/>
   </g>
   <g id="patch_10">
    <path d="M 219.551416 170.039498 
C 221.004596 170.039498 222.398454 169.462143 223.426008 168.434589 
C 224.453561 167.407036 225.030916 166.013178 225.030916 164.559998 
C 225.030916 163.106817 224.453561 161.71296 223.426008 160.685406 
C 222.398454 159.657853 221.004596 159.080498 219.551416 159.080498 
C 218.098236 159.080498 216.704378 159.657853 215.676824 160.685406 
C 214.649271 161.71296 214.071916 163.106817 214.071916 164.559998 
C 214.071916 166.013178 214.649271 167.407036 215.676824 168.434589 
C 216.704378 169.462143 218.098236 170.039498 219.551416 170.039498 
z
" clip-path="url(#pb6b58b0281)" style="fill: #002d9c; stroke: #002d9c; stroke-width: 1.5; stroke-linejoin: miter"/>
   </g>
   <g id="patch_11">
    <path d="M 219.551416 233.545497 
C 222.94217 233.545497 226.194504 232.198336 228.59213 229.800711 
C 230.989755 227.403085 232.336916 224.150751 232.336916 220.759997 
C 232.336916 217.369243 230.989755 214.116909 228.59213 211.719283 
C 226.194504 209.321658 222.94217 207.974497 219.551416 207.974497 
C 216.160662 207.974497 212.908328 209.321658 210.510702 211.719283 
C 208.113077 214.116909 206.765916 217.369243 206.765916 220.759997 
C 206.765916 224.150751 208.113077 227.403085 210.510702 229.800711 
C 212.908328 232.198336 216.160662 233.545497 219.551416 233.545497 
z
" clip-path="url(#pb6b58b0281)" style="fill: #002d9c; stroke: #002d9c; stroke-width: 2; stroke-linejoin: miter"/>
   </g>
   <g id="patch_12">
    <path d="M 201.286416 126.624998 
L 237.816416 126.624998 
L 237.816416 90.094999 
L 201.286416 90.094999 
z
" clip-path="url(#pb6b58b0281)" style="fill: #9f1853; stroke: #9f1853; stroke-width: 1.5; stroke-linejoin: miter"/>
   </g>
   <g id="patch_13">
    <path d="M 275.751415 226.239497 
C 277.204596 226.239497 278.598453 225.662142 279.626007 224.634589 
C 280.65356 223.607035 281.230915 222.213177 281.230915 220.759997 
C 281.230915 219.306817 280.65356 217.912959 279.626007 216.885405 
C 278.598453 215.857852 277.204596 215.280497 275.751415 215.280497 
C 274.298235 215.280497 272.904377 215.857852 271.876824 216.885405 
C 270.84927 217.912959 270.271915 219.306817 270.271915 220.759997 
C 270.271915 222.213177 270.84927 223.607035 271.876824 224.634589 
C 272.904377 225.662142 274.298235 226.239497 275.751415 226.239497 
z
" clip-path="url(#pb6b58b0281)" style="fill: #002d9c; stroke: #002d9c; stroke-width: 1.5; stroke-linejoin: miter"/>
   </g>
   <g id="patch_14">
    <path d="M 275.751415 289.745496 
C 279.142169 289.745496 282.394504 288.398335 284.792129 286.00071 
C 287.189754 283.603085 288.536915 280.35075 288.536915 276.959996 
C 288.536915 273.569242 287.189754 270.316908 284.792129 267.919283 
C 282.394504 265.521657 279.142169 264.174496 275.751415 264.174496 
C 272.360661 264.174496 269.108327 265.521657 266.710702 267.919283 
C 264.313076 270.316908 262.965915 273.569242 262.965915 276.959996 
C 262.965915 280.35075 264.313076 283.603085 266.710702 286.00071 
C 269.108327 288.398335 272.360661 289.745496 275.751415 289.745496 
z
" clip-path="url(#pb6b58b0281)" style="fill: #002d9c; stroke: #002d9c; stroke-width: 2; stroke-linejoin: miter"/>
   </g>
   <g id="patch_15">
    <path d="M 257.486415 182.824997 
L 294.016415 182.824997 
L 294.016415 146.294998 
L 257.486415 146.294998 
z
" clip-path="url(#pb6b58b0281)" style="fill: #9f1853; stroke: #9f1853; stroke-width: 1.5; stroke-linejoin: miter"/>
   </g>
   <g id="patch_16">
    <path d="M 331.951414 113.839498 
C 333.404595 113.839498 334.798452 113.262144 335.826006 112.23459 
C 336.85356 111.207036 337.430914 109.813179 337.430914 108.359999 
C 337.430914 106.906818 336.85356 105.512961 335.826006 104.485407 
C 334.798452 103.457853 333.404595 102.880499 331.951414 102.880499 
C 330.498234 102.880499 329.104377 103.457853 328.076823 104.485407 
C 327.049269 105.512961 326.471914 106.906818 326.471914 108.359999 
C 326.471914 109.813179 327.049269 111.207036 328.076823 112.23459 
C 329.104377 113.262144 330.498234 113.839498 331.951414 113.839498 
z
" clip-path="url(#pb6b58b0281)" style="fill: #002d9c; stroke: #002d9c; stroke-width: 1.5; stroke-linejoin: miter"/>
   </g>
   <g id="patch_17">
    <path d="M 331.951414 177.345498 
C 335.342169 177.345498 338.594503 175.998337 340.992128 173.600711 
C 343.389753 171.203086 344.736914 167.950752 344.736914 164.559998 
C 344.736914 161.169244 343.389753 157.916909 340.992128 155.519284 
C 338.594503 153.121659 335.342169 151.774498 331.951414 151.774498 
C 328.56066 151.774498 325.308326 153.121659 322.910701 155.519284 
C 320.513075 157.916909 319.165915 161.169244 319.165915 164.559998 
C 319.165915 167.950752 320.513075 171.203086 322.910701 173.600711 
C 325.308326 175.998337 328.56066 177.345498 331.951414 177.345498 
z
" clip-path="url(#pb6b58b0281)" style="fill: #002d9c; stroke: #002d9c; stroke-width: 2; stroke-linejoin: miter"/>
   </g>
   <g id="patch_18">
    <path d="M 313.686415 239.024997 
L 350.216414 239.024997 
L 350.216414 202.494997 
L 313.686415 202.494997 
z
" clip-path="url(#pb6b58b0281)" style="fill: #9f1853; stroke: #9f1853; stroke-width: 1.5; stroke-linejoin: miter"/>
   </g>
   <g id="patch_19">
    <path d="M 313.686415 295.224996 
L 350.216414 295.224996 
L 350.216414 258.694996 
L 313.686415 258.694996 
z
" clip-path="url(#pb6b58b0281)" style="fill: #9f1853; stroke: #9f1853; stroke-width: 1.5; stroke-linejoin: miter"/>
   </g>
   <g id="patch_20">
    <path d="M 388.151414 170.039498 
C 389.604594 170.039498 390.998451 169.462143 392.026005 168.434589 
C 393.053559 167.407036 393.630913 166.013178 393.630913 164.559998 
C 393.630913 163.106817 393.053559 161.71296 392.026005 160.685406 
C 390.998451 159.657853 389.604594 159.080498 388.151414 159.080498 
C 386.698233 159.080498 385.304376 159.657853 384.276822 160.685406 
C 383.249268 161.71296 382.671914 163.106817 382.671914 164.559998 
C 382.671914 166.013178 383.249268 167.407036 384.276822 168.434589 
C 385.304376 169.462143 386.698233 170.039498 388.151414 170.039498 
z
" clip-path="url(#pb6b58b0281)" style="fill: #002d9c; stroke: #002d9c; stroke-width: 1.5; stroke-linejoin: miter"/>
   </g>
   <g id="patch_21">
    <path d="M 388.151414 233.545497 
C 391.542168 233.545497 394.794502 232.198336 397.192127 229.800711 
C 399.589752 227.403085 400.936913 224.150751 400.936913 220.759997 
C 400.936913 217.369243 399.589752 214.116909 397.192127 211.719283 
C 394.794502 209.321658 391.542168 207.974497 388.151414 207.974497 
C 384.760659 207.974497 381.508325 209.321658 379.1107 211.719283 
C 376.713075 214.116909 375.365914 217.369243 375.365914 220.759997 
C 375.365914 224.150751 376.713075 227.403085 379.1107 229.800711 
C 381.508325 232.198336 384.760659 233.545497 388.151414 233.545497 
z
" clip-path="url(#pb6b58b0281)" style="fill: #002d9c; stroke: #002d9c; stroke-width: 2; stroke-linejoin: miter"/>
   </g>
   <g id="patch_22">
    <path d="M 369.886414 126.624998 
L 406.416413 126.624998 
L 406.416413 90.094999 
L 369.886414 90.094999 
z
" clip-path="url(#pb6b58b0281)" style="fill: #9f1853; stroke: #9f1853; stroke-width: 1.5; stroke-linejoin: miter"/>
   </g>
   <g id="patch_23">
    <path d="M 444.351413 226.239497 
C 445.804593 226.239497 447.198451 225.662142 448.226004 224.634589 
C 449.253558 223.607035 449.830913 222.213177 449.830913 220.759997 
C 449.830913 219.306817 449.253558 217.912959 448.226004 216.885405 
C 447.198451 215.857852 445.804593 215.280497 444.351413 215.280497 
C 442.898232 215.280497 441.504375 215.857852 440.476821 216.885405 
C 439.449268 217.912959 438.871913 219.306817 438.871913 220.759997 
C 438.871913 222.213177 439.449268 223.607035 440.476821 224.634589 
C 441.504375 225.662142 442.898232 226.239497 444.351413 226.239497 
z
" clip-path="url(#pb6b58b0281)" style="fill: #002d9c; stroke: #002d9c; stroke-width: 1.5; stroke-linejoin: miter"/>
   </g>
   <g id="patch_24">
    <path d="M 444.351413 289.745496 
C 447.742167 289.745496 450.994501 288.398335 453.392126 286.00071 
C 455.789752 283.603085 457.136913 280.35075 457.136913 276.959996 
C 457.136913 273.569242 455.789752 270.316908 453.392126 267.919283 
C 450.994501 265.521657 447.742167 264.174496 444.351413 264.174496 
C 440.960659 264.174496 437.708324 265.521657 435.310699 267.919283 
C 432.913074 270.316908 431.565913 273.569242 431.565913 276.959996 
C 431.565913 280.35075 432.913074 283.603085 435.310699 286.00071 
C 437.708324 288.398335 440.960659 289.745496 444.351413 289.745496 
z
" clip-path="url(#pb6b58b0281)" style="fill: #002d9c; stroke: #002d9c; stroke-width: 2; stroke-linejoin: miter"/>
   </g>
   <g id="patch_25">
    <path d="M 426.086413 182.824997 
L 462.616413 182.824997 
L 462.616413 146.294998 
L 426.086413 146.294998 
z
" clip-path="url(#pb6b58b0281)" style="fill: #9f1853; stroke: #9f1853; stroke-width: 1.5; stroke-linejoin: miter"/>
   </g>
   <g id="patch_26">
    <path d="M 500.551412 113.839498 
C 502.004592 113.839498 503.39845 113.262144 504.426004 112.23459 
C 505.453557 111.207036 506.030912 109.813179 506.030912 108.359999 
C 506.030912 106.906818 505.453557 105.512961 504.426004 104.485407 
C 503.39845 103.457853 502.004592 102.880499 500.551412 102.880499 
C 499.098232 102.880499 497.704374 103.457853 496.67682 104.485407 
C 495.649267 105.512961 495.071912 106.906818 495.071912 108.359999 
C 495.071912 109.813179 495.649267 111.207036 496.67682 112.23459 
C 497.704374 113.262144 499.098232 113.839498 500.551412 113.839498 
z
" clip-path="url(#pb6b58b0281)" style="fill: #002d9c; stroke: #002d9c; stroke-width: 1.5; stroke-linejoin: miter"/>
   </g>
   <g id="patch_27">
    <path d="M 500.551412 177.345498 
C 503.942166 177.345498 507.1945 175.998337 509.592126 173.600711 
C 511.989751 171.203086 513.336912 167.950752 513.336912 164.559998 
C 513.336912 161.169244 511.989751 157.916909 509.592126 155.519284 
C 507.1945 153.121659 503.942166 151.774498 500.551412 151.774498 
C 497.160658 151.774498 493.908324 153.121659 491.510698 155.519284 
C 489.113073 157.916909 487.765912 161.169244 487.765912 164.559998 
C 487.765912 167.950752 489.113073 171.203086 491.510698 173.600711 
C 493.908324 175.998337 497.160658 177.345498 500.551412 177.345498 
z
" clip-path="url(#pb6b58b0281)" style="fill: #002d9c; stroke: #002d9c; stroke-width: 2; stroke-linejoin: miter"/>
   </g>
   <g id="patch_28">
    <path d="M 482.286412 239.024997 
L 518.816412 239.024997 
L 518.816412 202.494997 
L 482.286412 202.494997 
z
" clip-path="url(#pb6b58b0281)" style="fill: #9f1853; stroke: #9f1853; stroke-width: 1.5; stroke-linejoin: miter"/>
   </g>
   <g id="patch_29">
    <path d="M 482.286412 295.224996 
L 518.816412 295.224996 
L 518.816412 258.694996 
L 482.286412 258.694996 
z
" clip-path="url(#pb6b58b0281)" style="fill: #9f1853; stroke: #9f1853; stroke-width: 1.5; stroke-linejoin: miter"/>
   </g>
   <g id="patch_30">
    <path d="M 556.751411 170.039498 
C 558.204592 170.039498 559.598449 169.462143 560.626003 168.434589 
C 561.653556 167.407036 562.230911 166.013178 562.230911 164.559998 
C 562.230911 163.106817 561.653556 161.71296 560.626003 160.685406 
C 559.598449 159.657853 558.204592 159.080498 556.751411 159.080498 
C 555.298231 159.080498 553.904373 159.657853 552.87682 160.685406 
C 551.849266 161.71296 551.271911 163.106817 551.271911 164.559998 
C 551.271911 166.013178 551.849266 167.407036 552.87682 168.434589 
C 553.904373 169.462143 555.298231 170.039498 556.751411 170.039498 
z
" clip-path="url(#pb6b58b0281)" style="fill: #002d9c; stroke: #002d9c; stroke-width: 1.5; stroke-linejoin: miter"/>
   </g>
   <g id="patch_31">
    <path d="M 556.751411 233.545497 
C 560.142165 233.545497 563.3945 232.198336 565.792125 229.800711 
C 568.18975 227.403085 569.536911 224.150751 569.536911 220.759997 
C 569.536911 217.369243 568.18975 214.116909 565.792125 211.719283 
C 563.3945 209.321658 560.142165 207.974497 556.751411 207.974497 
C 553.360657 207.974497 550.108323 209.321658 547.710698 211.719283 
C 545.313072 214.116909 543.965911 217.369243 543.965911 220.759997 
C 543.965911 224.150751 545.313072 227.403085 547.710698 229.800711 
C 550.108323 232.198336 553.360657 233.545497 556.751411 233.545497 
z
" clip-path="url(#pb6b58b0281)" style="fill: #002d9c; stroke: #002d9c; stroke-width: 2; stroke-linejoin: miter"/>
   </g>
   <g id="patch_32">
    <path d="M 538.486411 126.624998 
L 575.016411 126.624998 
L 575.016411 90.094999 
L 538.486411 90.094999 
z
" clip-path="url(#pb6b58b0281)" style="fill: #9f1853; stroke: #9f1853; stroke-width: 1.5; stroke-linejoin: miter"/>
   </g>
   <g id="patch_33">
    <path d="M 612.95141 226.239497 
C 614.404591 226.239497 615.798448 225.662142 616.826002 224.634589 
C 617.853556 223.607035 618.43091 222.213177 618.43091 220.759997 
C 618.43091 219.306817 617.853556 217.912959 616.826002 216.885405 
C 615.798448 215.857852 614.404591 215.280497 612.95141 215.280497 
C 611.49823 215.280497 610.104373 215.857852 609.076819 216.885405 
C 608.049265 217.912959 607.47191 219.306817 607.47191 220.759997 
C 607.47191 222.213177 608.049265 223.607035 609.076819 224.634589 
C 610.104373 225.662142 611.49823 226.239497 612.95141 226.239497 
z
" clip-path="url(#pb6b58b0281)" style="fill: #002d9c; stroke: #002d9c; stroke-width: 1.5; stroke-linejoin: miter"/>
   </g>
   <g id="patch_34">
    <path d="M 612.95141 289.745496 
C 616.342165 289.745496 619.594499 288.398335 621.992124 286.00071 
C 624.389749 283.603085 625.73691 280.35075 625.73691 276.959996 
C 625.73691 273.569242 624.389749 270.316908 621.992124 267.919283 
C 619.594499 265.521657 616.342165 264.174496 612.95141 264.174496 
C 609.560656 264.174496 606.308322 265.521657 603.910697 267.919283 
C 601.513071 270.316908 600.165911 273.569242 600.165911 276.959996 
C 600.165911 280.35075 601.513071 283.603085 603.910697 286.00071 
C 606.308322 288.398335 609.560656 289.745496 612.95141 289.745496 
z
" clip-path="url(#pb6b58b0281)" style="fill: #002d9c; stroke: #002d9c; stroke-width: 2; stroke-linejoin: miter"/>
   </g>
   <g id="patch_35">
    <path d="M 594.686411 182.824997 
L 631.21641 182.824997 
L 631.21641 146.294998 
L 594.686411 146.294998 
z
" clip-path="url(#pb6b58b0281)" style="fill: #9f1853; stroke: #9f1853; stroke-width: 1.5; stroke-linejoin: miter"/>
   </g>
   <g id="patch_36">
    <path d="M 669.15141 113.839498 
C 670.60459 113.839498 671.998447 113.262144 673.026001 112.23459 
C 674.053555 111.207036 674.630909 109.813179 674.630909 108.359999 
C 674.630909 106.906818 674.053555 105.512961 673.026001 104.485407 
C 671.998447 103.457853 670.60459 102.880499 669.15141 102.880499 
C 667.698229 102.880499 666.304372 103.457853 665.276818 104.485407 
C 664.249264 105.512961 663.67191 106.906818 663.67191 108.359999 
C 663.67191 109.813179 664.249264 111.207036 665.276818 112.23459 
C 666.304372 113.262144 667.698229 113.839498 669.15141 113.839498 
z
" clip-path="url(#pb6b58b0281)" style="fill: #002d9c; stroke: #002d9c; stroke-width: 1.5; stroke-linejoin: miter"/>
   </g>
   <g id="patch_37">
    <path d="M 669.15141 177.345498 
C 672.542164 177.345498 675.794498 175.998337 678.192123 173.600711 
C 680.589748 171.203086 681.936909 167.950752 681.936909 164.559998 
C 681.936909 161.169244 680.589748 157.916909 678.192123 155.519284 
C 675.794498 153.121659 672.542164 151.774498 669.15141 151.774498 
C 665.760655 151.774498 662.508321 153.121659 660.110696 155.519284 
C 657.713071 157.916909 656.36591 161.169244 656.36591 164.559998 
C 656.36591 167.950752 657.713071 171.203086 660.110696 173.600711 
C 662.508321 175.998337 665.760655 177.345498 669.15141 177.345498 
z
" clip-path="url(#pb6b58b0281)" style="fill: #002d9c; stroke: #002d9c; stroke-width: 2; stroke-linejoin: miter"/>
   </g>
   <g id="patch_38">
    <path d="M 650.88641 239.024997 
L 687.416409 239.024997 
L 687.416409 202.494997 
L 650.88641 202.494997 
z
" clip-path="url(#pb6b58b0281)" style="fill: #9f1853; stroke: #9f1853; stroke-width: 1.5; stroke-linejoin: miter"/>
   </g>
   <g id="patch_39">
    <path d="M 650.88641 295.224996 
L 687.416409 295.224996 
L 687.416409 258.694996 
L 650.88641 258.694996 
z
" clip-path="url(#pb6b58b0281)" style="fill: #9f1853; stroke: #9f1853; stroke-width: 1.5; stroke-linejoin: miter"/>
   </g>
   <g id="patch_40">
    <path d="M 725.351409 170.039498 
C 726.804589 170.039498 728.198447 169.462143 729.226 168.434589 
C 730.253554 167.407036 730.830909 166.013178 730.830909 164.559998 
C 730.830909 163.106817 730.253554 161.71296 729.226 160.685406 
C 728.198447 159.657853 726.804589 159.080498 725.351409 159.080498 
C 723.898228 159.080498 722.504371 159.657853 721.476817 160.685406 
C 720.449264 161.71296 719.871909 163.106817 719.871909 164.559998 
C 719.871909 166.013178 720.449264 167.407036 721.476817 168.434589 
C 722.504371 169.462143 723.898228 170.039498 725.351409 170.039498 
z
" clip-path="url(#pb6b58b0281)" style="fill: #002d9c; stroke: #002d9c; stroke-width: 1.5; stroke-linejoin: miter"/>
   </g>
   <g id="patch_41">
    <path d="M 725.351409 233.545497 
C 728.742163 233.545497 731.994497 232.198336 734.392122 229.800711 
C 736.789748 227.403085 738.136909 224.150751 738.136909 220.759997 
C 738.136909 217.369243 736.789748 214.116909 734.392122 211.719283 
C 731.994497 209.321658 728.742163 207.974497 725.351409 207.974497 
C 721.960655 207.974497 718.70832 209.321658 716.310695 211.719283 
C 713.91307 214.116909 712.565909 217.369243 712.565909 220.759997 
C 712.565909 224.150751 713.91307 227.403085 716.310695 229.800711 
C 718.70832 232.198336 721.960655 233.545497 725.351409 233.545497 
z
" clip-path="url(#pb6b58b0281)" style="fill: #002d9c; stroke: #002d9c; stroke-width: 2; stroke-linejoin: miter"/>
   </g>
   <g id="patch_42">
    <path d="M 781.551408 226.239497 
C 783.004588 226.239497 784.398446 225.662142 785.426 224.634589 
C 786.453553 223.607035 787.030908 222.213177 787.030908 220.759997 
C 787.030908 219.306817 786.453553 217.912959 785.426 216.885405 
C 784.398446 215.857852 783.004588 215.280497 781.551408 215.280497 
C 780.098228 215.280497 778.70437 215.857852 777.676816 216.885405 
C 776.649263 217.912959 776.071908 219.306817 776.071908 220.759997 
C 776.071908 222.213177 776.649263 223.607035 777.676816 224.634589 
C 778.70437 225.662142 780.098228 226.239497 781.551408 226.239497 
z
" clip-path="url(#pb6b58b0281)" style="fill: #002d9c; stroke: #002d9c; stroke-width: 1.5; stroke-linejoin: miter"/>
   </g>
   <g id="patch_43">
    <path d="M 781.551408 289.745496 
C 784.942162 289.745496 788.194496 288.398335 790.592122 286.00071 
C 792.989747 283.603085 794.336908 280.35075 794.336908 276.959996 
C 794.336908 273.569242 792.989747 270.316908 790.592122 267.919283 
C 788.194496 265.521657 784.942162 264.174496 781.551408 264.174496 
C 778.160654 264.174496 774.90832 265.521657 772.510694 267.919283 
C 770.113069 270.316908 768.765908 273.569242 768.765908 276.959996 
C 768.765908 280.35075 770.113069 283.603085 772.510694 286.00071 
C 774.90832 288.398335 778.160654 289.745496 781.551408 289.745496 
z
" clip-path="url(#pb6b58b0281)" style="fill: #002d9c; stroke: #002d9c; stroke-width: 2; stroke-linejoin: miter"/>
   </g>
   <g id="patch_44">
    <path d="M 829.040407 295.224996 
L 902.662406 295.224996 
L 902.662406 33.895 
L 829.040407 33.895 
z
" clip-path="url(#pb6b58b0281)" style="fill: #9f1853; stroke: #9f1853; stroke-width: 1.5; stroke-linejoin: miter"/>
   </g>
   <g id="line2d_18">
    <path d="M 163.351417 171.865998 
L 163.351417 157.253998 
" clip-path="url(#pb6b58b0281)" style="fill: none; stroke: #ffffff; stroke-width: 2; stroke-linecap: square"/>
   </g>
   <g id="line2d_19">
    <path d="M 156.045417 164.559998 
L 170.657417 164.559998 
" clip-path="url(#pb6b58b0281)" style="fill: none; stroke: #ffffff; stroke-width: 2; stroke-linecap: square"/>
   </g>
   <g id="line2d_20">
    <path d="M 219.551416 228.065997 
L 219.551416 213.453997 
" clip-path="url(#pb6b58b0281)" style="fill: none; stroke: #ffffff; stroke-width: 2; stroke-linecap: square"/>
   </g>
   <g id="line2d_21">
    <path d="M 212.245416 220.759997 
L 226.857416 220.759997 
" clip-path="url(#pb6b58b0281)" style="fill: none; stroke: #ffffff; stroke-width: 2; stroke-linecap: square"/>
   </g>
   <g id="line2d_22">
    <path d="M 275.751415 284.265996 
L 275.751415 269.653996 
" clip-path="url(#pb6b58b0281)" style="fill: none; stroke: #ffffff; stroke-width: 2; stroke-linecap: square"/>
   </g>
   <g id="line2d_23">
    <path d="M 268.445415 276.959996 
L 283.057415 276.959996 
" clip-path="url(#pb6b58b0281)" style="fill: none; stroke: #ffffff; stroke-width: 2; stroke-linecap: square"/>
   </g>
   <g id="line2d_24">
    <path d="M 331.951414 171.865998 
L 331.951414 157.253998 
" clip-path="url(#pb6b58b0281)" style="fill: none; stroke: #ffffff; stroke-width: 2; stroke-linecap: square"/>
   </g>
   <g id="line2d_25">
    <path d="M 324.645414 164.559998 
L 339.257414 164.559998 
" clip-path="url(#pb6b58b0281)" style="fill: none; stroke: #ffffff; stroke-width: 2; stroke-linecap: square"/>
   </g>
   <g id="line2d_26">
    <path d="M 388.151414 228.065997 
L 388.151414 213.453997 
" clip-path="url(#pb6b58b0281)" style="fill: none; stroke: #ffffff; stroke-width: 2; stroke-linecap: square"/>
   </g>
   <g id="line2d_27">
    <path d="M 380.845414 220.759997 
L 395.457413 220.759997 
" clip-path="url(#pb6b58b0281)" style="fill: none; stroke: #ffffff; stroke-width: 2; stroke-linecap: square"/>
   </g>
   <g id="line2d_28">
    <path d="M 444.351413 284.265996 
L 444.351413 269.653996 
" clip-path="url(#pb6b58b0281)" style="fill: none; stroke: #ffffff; stroke-width: 2; stroke-linecap: square"/>
   </g>
   <g id="line2d_29">
    <path d="M 437.045413 276.959996 
L 451.657413 276.959996 
" clip-path="url(#pb6b58b0281)" style="fill: none; stroke: #ffffff; stroke-width: 2; stroke-linecap: square"/>
   </g>
   <g id="line2d_30">
    <path d="M 500.551412 171.865998 
L 500.551412 157.253998 
" clip-path="url(#pb6b58b0281)" style="fill: none; stroke: #ffffff; stroke-width: 2; stroke-linecap: square"/>
   </g>
   <g id="line2d_31">
    <path d="M 493.245412 164.559998 
L 507.857412 164.559998 
" clip-path="url(#pb6b58b0281)" style="fill: none; stroke: #ffffff; stroke-width: 2; stroke-linecap: square"/>
   </g>
   <g id="line2d_32">
    <path d="M 556.751411 228.065997 
L 556.751411 213.453997 
" clip-path="url(#pb6b58b0281)" style="fill: none; stroke: #ffffff; stroke-width: 2; stroke-linecap: square"/>
   </g>
   <g id="line2d_33">
    <path d="M 549.445411 220.759997 
L 564.057411 220.759997 
" clip-path="url(#pb6b58b0281)" style="fill: none; stroke: #ffffff; stroke-width: 2; stroke-linecap: square"/>
   </g>
   <g id="line2d_34">
    <path d="M 612.95141 284.265996 
L 612.95141 269.653996 
" clip-path="url(#pb6b58b0281)" style="fill: none; stroke: #ffffff; stroke-width: 2; stroke-linecap: square"/>
   </g>
   <g id="line2d_35">
    <path d="M 605.64541 276.959996 
L 620.25741 276.959996 
" clip-path="url(#pb6b58b0281)" style="fill: none; stroke: #ffffff; stroke-width: 2; stroke-linecap: square"/>
   </g>
   <g id="line2d_36">
    <path d="M 669.15141 171.865998 
L 669.15141 157.253998 
" clip-path="url(#pb6b58b0281)" style="fill: none; stroke: #ffffff; stroke-width: 2; stroke-linecap: square"/>
   </g>
   <g id="line2d_37">
    <path d="M 661.84541 164.559998 
L 676.457409 164.559998 
" clip-path="url(#pb6b58b0281)" style="fill: none; stroke: #ffffff; stroke-width: 2; stroke-linecap: square"/>
   </g>
   <g id="line2d_38">
    <path d="M 725.351409 228.065997 
L 725.351409 213.453997 
" clip-path="url(#pb6b58b0281)" style="fill: none; stroke: #ffffff; stroke-width: 2; stroke-linecap: square"/>
   </g>
   <g id="line2d_39">
    <path d="M 718.045409 220.759997 
L 732.657409 220.759997 
" clip-path="url(#pb6b58b0281)" style="fill: none; stroke: #ffffff; stroke-width: 2; stroke-linecap: square"/>
   </g>
   <g id="line2d_40">
    <path d="M 781.551408 284.265996 
L 781.551408 269.653996 
" clip-path="url(#pb6b58b0281)" style="fill: none; stroke: #ffffff; stroke-width: 2; stroke-linecap: square"/>
   </g>
   <g id="line2d_41">
    <path d="M 774.245408 276.959996 
L 788.857408 276.959996 
" clip-path="url(#pb6b58b0281)" style="fill: none; stroke: #ffffff; stroke-width: 2; stroke-linecap: square"/>
   </g>
   <g id="text_1">
    <g clip-path="url(#pb6b58b0281)">
     <!-- ${q}_{0}$ -->
     <g transform="translate(47.525918 56.610976) scale(0.1625 -0.1625)">
      <defs>
       <path id="DejaVuSans-Oblique-71" d="M 2669 525 
Q 2438 222 2123 65 
Q 1809 -91 1428 -91 
Q 897 -91 595 267 
Q 294 625 294 1253 
Q 294 1759 480 2231 
Q 666 2703 1013 3078 
Q 1238 3322 1530 3453 
Q 1822 3584 2144 3584 
Q 2531 3584 2781 3431 
Q 3031 3278 3144 2969 
L 3244 3494 
L 3822 3494 
L 2888 -1319 
L 2309 -1319 
L 2669 525 
z
M 891 1338 
Q 891 875 1084 633 
Q 1278 391 1644 391 
Q 2188 391 2572 911 
Q 2956 1431 2956 2175 
Q 2956 2625 2757 2864 
Q 2559 3103 2188 3103 
Q 1916 3103 1684 2976 
Q 1453 2850 1281 2606 
Q 1100 2350 995 2006 
Q 891 1663 891 1338 
z
" transform="scale(0.015625)"/>
       <path id="DejaVuSans-30" d="M 2034 4250 
Q 1547 4250 1301 3770 
Q 1056 3291 1056 2328 
Q 1056 1369 1301 889 
Q 1547 409 2034 409 
Q 2525 409 2770 889 
Q 3016 1369 3016 2328 
Q 3016 3291 2770 3770 
Q 2525 4250 2034 4250 
z
M 2034 4750 
Q 2819 4750 3233 4129 
Q 3647 3509 3647 2328 
Q 3647 1150 3233 529 
Q 2819 -91 2034 -91 
Q 1250 -91 836 529 
Q 422 1150 422 2328 
Q 422 3509 836 4129 
Q 1250 4750 2034 4750 
z
" transform="scale(0.015625)"/>
      </defs>
      <use xlink:href="#DejaVuSans-Oblique-71"/>
      <use xlink:href="#DejaVuSans-30" transform="translate(63.476562 -16.40625) scale(0.7)"/>
     </g>
    </g>
   </g>
   <g id="text_2">
    <g clip-path="url(#pb6b58b0281)">
     <!-- ${q}_{1}$ -->
     <g transform="translate(47.525918 112.810975) scale(0.1625 -0.1625)">
      <defs>
       <path id="DejaVuSans-31" d="M 794 531 
L 1825 531 
L 1825 4091 
L 703 3866 
L 703 4441 
L 1819 4666 
L 2450 4666 
L 2450 531 
L 3481 531 
L 3481 0 
L 794 0 
L 794 531 
z
" transform="scale(0.015625)"/>
      </defs>
      <use xlink:href="#DejaVuSans-Oblique-71"/>
      <use xlink:href="#DejaVuSans-31" transform="translate(63.476562 -16.40625) scale(0.7)"/>
     </g>
    </g>
   </g>
   <g id="text_3">
    <g clip-path="url(#pb6b58b0281)">
     <!-- ${q}_{2}$ -->
     <g transform="translate(47.525918 169.010974) scale(0.1625 -0.1625)">
      <defs>
       <path id="DejaVuSans-32" d="M 1228 531 
L 3431 531 
L 3431 0 
L 469 0 
L 469 531 
Q 828 903 1448 1529 
Q 2069 2156 2228 2338 
Q 2531 2678 2651 2914 
Q 2772 3150 2772 3378 
Q 2772 3750 2511 3984 
Q 2250 4219 1831 4219 
Q 1534 4219 1204 4116 
Q 875 4013 500 3803 
L 500 4441 
Q 881 4594 1212 4672 
Q 1544 4750 1819 4750 
Q 2544 4750 2975 4387 
Q 3406 4025 3406 3419 
Q 3406 3131 3298 2873 
Q 3191 2616 2906 2266 
Q 2828 2175 2409 1742 
Q 1991 1309 1228 531 
z
" transform="scale(0.015625)"/>
      </defs>
      <use xlink:href="#DejaVuSans-Oblique-71"/>
      <use xlink:href="#DejaVuSans-32" transform="translate(63.476562 -16.40625) scale(0.7)"/>
     </g>
    </g>
   </g>
   <g id="text_4">
    <g clip-path="url(#pb6b58b0281)">
     <!-- ${q}_{3}$ -->
     <g transform="translate(47.525918 225.210974) scale(0.1625 -0.1625)">
      <defs>
       <path id="DejaVuSans-33" d="M 2597 2516 
Q 3050 2419 3304 2112 
Q 3559 1806 3559 1356 
Q 3559 666 3084 287 
Q 2609 -91 1734 -91 
Q 1441 -91 1130 -33 
Q 819 25 488 141 
L 488 750 
Q 750 597 1062 519 
Q 1375 441 1716 441 
Q 2309 441 2620 675 
Q 2931 909 2931 1356 
Q 2931 1769 2642 2001 
Q 2353 2234 1838 2234 
L 1294 2234 
L 1294 2753 
L 1863 2753 
Q 2328 2753 2575 2939 
Q 2822 3125 2822 3475 
Q 2822 3834 2567 4026 
Q 2313 4219 1838 4219 
Q 1578 4219 1281 4162 
Q 984 4106 628 3988 
L 628 4550 
Q 988 4650 1302 4700 
Q 1616 4750 1894 4750 
Q 2613 4750 3031 4423 
Q 3450 4097 3450 3541 
Q 3450 3153 3228 2886 
Q 3006 2619 2597 2516 
z
" transform="scale(0.015625)"/>
      </defs>
      <use xlink:href="#DejaVuSans-Oblique-71"/>
      <use xlink:href="#DejaVuSans-33" transform="translate(63.476562 -16.40625) scale(0.7)"/>
     </g>
    </g>
   </g>
   <g id="text_5">
    <g clip-path="url(#pb6b58b0281)">
     <!-- ${q}_{4}$ -->
     <g transform="translate(47.525918 281.410973) scale(0.1625 -0.1625)">
      <defs>
       <path id="DejaVuSans-34" d="M 2419 4116 
L 825 1625 
L 2419 1625 
L 2419 4116 
z
M 2253 4666 
L 3047 4666 
L 3047 1625 
L 3713 1625 
L 3713 1100 
L 3047 1100 
L 3047 0 
L 2419 0 
L 2419 1100 
L 313 1100 
L 313 1709 
L 2253 4666 
z
" transform="scale(0.015625)"/>
      </defs>
      <use xlink:href="#DejaVuSans-Oblique-71"/>
      <use xlink:href="#DejaVuSans-34" transform="translate(63.476562 -16.40625) scale(0.7)"/>
     </g>
    </g>
   </g>
   <g id="text_6">
    <g clip-path="url(#pb6b58b0281)">
     <!-- H -->
     <g transform="translate(102.263214 55.747187) scale(0.13 -0.13)">
      <defs>
       <path id="DejaVuSans-48" d="M 628 4666 
L 1259 4666 
L 1259 2753 
L 3553 2753 
L 3553 4666 
L 4184 4666 
L 4184 0 
L 3553 0 
L 3553 2222 
L 1259 2222 
L 1259 0 
L 628 0 
L 628 4666 
z
" transform="scale(0.015625)"/>
      </defs>
      <use xlink:href="#DejaVuSans-48"/>
     </g>
    </g>
   </g>
   <g id="text_7">
    <g clip-path="url(#pb6b58b0281)">
     <!-- 5.61 -->
     <g style="fill: #ffffff" transform="translate(98.245168 121.526498) scale(0.08 -0.08)">
      <defs>
       <path id="DejaVuSans-35" d="M 691 4666 
L 3169 4666 
L 3169 4134 
L 1269 4134 
L 1269 2991 
Q 1406 3038 1543 3061 
Q 1681 3084 1819 3084 
Q 2600 3084 3056 2656 
Q 3513 2228 3513 1497 
Q 3513 744 3044 326 
Q 2575 -91 1722 -91 
Q 1428 -91 1123 -41 
Q 819 9 494 109 
L 494 744 
Q 775 591 1075 516 
Q 1375 441 1709 441 
Q 2250 441 2565 725 
Q 2881 1009 2881 1497 
Q 2881 1984 2565 2268 
Q 2250 2553 1709 2553 
Q 1456 2553 1204 2497 
Q 953 2441 691 2322 
L 691 4666 
z
" transform="scale(0.015625)"/>
       <path id="DejaVuSans-2e" d="M 684 794 
L 1344 794 
L 1344 0 
L 684 0 
L 684 794 
z
" transform="scale(0.015625)"/>
       <path id="DejaVuSans-36" d="M 2113 2584 
Q 1688 2584 1439 2293 
Q 1191 2003 1191 1497 
Q 1191 994 1439 701 
Q 1688 409 2113 409 
Q 2538 409 2786 701 
Q 3034 994 3034 1497 
Q 3034 2003 2786 2293 
Q 2538 2584 2113 2584 
z
M 3366 4563 
L 3366 3988 
Q 3128 4100 2886 4159 
Q 2644 4219 2406 4219 
Q 1781 4219 1451 3797 
Q 1122 3375 1075 2522 
Q 1259 2794 1537 2939 
Q 1816 3084 2150 3084 
Q 2853 3084 3261 2657 
Q 3669 2231 3669 1497 
Q 3669 778 3244 343 
Q 2819 -91 2113 -91 
Q 1303 -91 875 529 
Q 447 1150 447 2328 
Q 447 3434 972 4092 
Q 1497 4750 2381 4750 
Q 2619 4750 2861 4703 
Q 3103 4656 3366 4563 
z
" transform="scale(0.015625)"/>
      </defs>
      <use xlink:href="#DejaVuSans-35"/>
      <use xlink:href="#DejaVuSans-2e" x="63.623047"/>
      <use xlink:href="#DejaVuSans-36" x="95.410156"/>
      <use xlink:href="#DejaVuSans-31" x="159.033203"/>
     </g>
    </g>
   </g>
   <g id="text_8">
    <g clip-path="url(#pb6b58b0281)">
     <!-- $\mathrm{R_X}$ -->
     <g style="fill: #ffffff" transform="translate(99.221418 106.467686) scale(0.13 -0.13)">
      <defs>
       <path id="DejaVuSans-52" d="M 2841 2188 
Q 3044 2119 3236 1894 
Q 3428 1669 3622 1275 
L 4263 0 
L 3584 0 
L 2988 1197 
Q 2756 1666 2539 1819 
Q 2322 1972 1947 1972 
L 1259 1972 
L 1259 0 
L 628 0 
L 628 4666 
L 2053 4666 
Q 2853 4666 3247 4331 
Q 3641 3997 3641 3322 
Q 3641 2881 3436 2590 
Q 3231 2300 2841 2188 
z
M 1259 4147 
L 1259 2491 
L 2053 2491 
Q 2509 2491 2742 2702 
Q 2975 2913 2975 3322 
Q 2975 3731 2742 3939 
Q 2509 4147 2053 4147 
L 1259 4147 
z
" transform="scale(0.015625)"/>
       <path id="DejaVuSans-58" d="M 403 4666 
L 1081 4666 
L 2241 2931 
L 3406 4666 
L 4084 4666 
L 2584 2425 
L 4184 0 
L 3506 0 
L 2194 1984 
L 872 0 
L 191 0 
L 1856 2491 
L 403 4666 
z
" transform="scale(0.015625)"/>
      </defs>
      <use xlink:href="#DejaVuSans-52" transform="translate(0 0.09375)"/>
      <use xlink:href="#DejaVuSans-58" transform="translate(70.439453 -16.3125) scale(0.7)"/>
     </g>
    </g>
   </g>
   <g id="text_9">
    <g clip-path="url(#pb6b58b0281)">
     <!-- 1.1 -->
     <g style="fill: #ffffff" transform="translate(100.790168 177.726498) scale(0.08 -0.08)">
      <use xlink:href="#DejaVuSans-31"/>
      <use xlink:href="#DejaVuSans-2e" x="63.623047"/>
      <use xlink:href="#DejaVuSans-31" x="95.410156"/>
     </g>
    </g>
   </g>
   <g id="text_10">
    <g clip-path="url(#pb6b58b0281)">
     <!-- $\mathrm{R_X}$ -->
     <g style="fill: #ffffff" transform="translate(99.221418 162.667685) scale(0.13 -0.13)">
      <use xlink:href="#DejaVuSans-52" transform="translate(0 0.09375)"/>
      <use xlink:href="#DejaVuSans-58" transform="translate(70.439453 -16.3125) scale(0.7)"/>
     </g>
    </g>
   </g>
   <g id="text_11">
    <g clip-path="url(#pb6b58b0281)">
     <!-- 1.36 -->
     <g style="fill: #ffffff" transform="translate(98.245168 233.926497) scale(0.08 -0.08)">
      <use xlink:href="#DejaVuSans-31"/>
      <use xlink:href="#DejaVuSans-2e" x="63.623047"/>
      <use xlink:href="#DejaVuSans-33" x="95.410156"/>
      <use xlink:href="#DejaVuSans-36" x="159.033203"/>
     </g>
    </g>
   </g>
   <g id="text_12">
    <g clip-path="url(#pb6b58b0281)">
     <!-- $\mathrm{R_X}$ -->
     <g style="fill: #ffffff" transform="translate(99.221418 218.867685) scale(0.13 -0.13)">
      <use xlink:href="#DejaVuSans-52" transform="translate(0 0.09375)"/>
      <use xlink:href="#DejaVuSans-58" transform="translate(70.439453 -16.3125) scale(0.7)"/>
     </g>
    </g>
   </g>
   <g id="text_13">
    <g clip-path="url(#pb6b58b0281)">
     <!-- 2.25 -->
     <g style="fill: #ffffff" transform="translate(98.245168 290.126496) scale(0.08 -0.08)">
      <use xlink:href="#DejaVuSans-32"/>
      <use xlink:href="#DejaVuSans-2e" x="63.623047"/>
      <use xlink:href="#DejaVuSans-32" x="95.410156"/>
      <use xlink:href="#DejaVuSans-35" x="159.033203"/>
     </g>
    </g>
   </g>
   <g id="text_14">
    <g clip-path="url(#pb6b58b0281)">
     <!-- $\mathrm{R_X}$ -->
     <g style="fill: #ffffff" transform="translate(99.221418 275.067684) scale(0.13 -0.13)">
      <use xlink:href="#DejaVuSans-52" transform="translate(0 0.09375)"/>
      <use xlink:href="#DejaVuSans-58" transform="translate(70.439453 -16.3125) scale(0.7)"/>
     </g>
    </g>
   </g>
   <g id="text_15">
    <g clip-path="url(#pb6b58b0281)">
     <!-- 5.61 -->
     <g style="fill: #ffffff" transform="translate(210.645166 121.526498) scale(0.08 -0.08)">
      <use xlink:href="#DejaVuSans-35"/>
      <use xlink:href="#DejaVuSans-2e" x="63.623047"/>
      <use xlink:href="#DejaVuSans-36" x="95.410156"/>
      <use xlink:href="#DejaVuSans-31" x="159.033203"/>
     </g>
    </g>
   </g>
   <g id="text_16">
    <g clip-path="url(#pb6b58b0281)">
     <!-- $\mathrm{R_X}$ -->
     <g style="fill: #ffffff" transform="translate(211.621416 106.467686) scale(0.13 -0.13)">
      <use xlink:href="#DejaVuSans-52" transform="translate(0 0.09375)"/>
      <use xlink:href="#DejaVuSans-58" transform="translate(70.439453 -16.3125) scale(0.7)"/>
     </g>
    </g>
   </g>
   <g id="text_17">
    <g clip-path="url(#pb6b58b0281)">
     <!-- 1.1 -->
     <g style="fill: #ffffff" transform="translate(269.390165 177.726498) scale(0.08 -0.08)">
      <use xlink:href="#DejaVuSans-31"/>
      <use xlink:href="#DejaVuSans-2e" x="63.623047"/>
      <use xlink:href="#DejaVuSans-31" x="95.410156"/>
     </g>
    </g>
   </g>
   <g id="text_18">
    <g clip-path="url(#pb6b58b0281)">
     <!-- $\mathrm{R_X}$ -->
     <g style="fill: #ffffff" transform="translate(267.821415 162.667685) scale(0.13 -0.13)">
      <use xlink:href="#DejaVuSans-52" transform="translate(0 0.09375)"/>
      <use xlink:href="#DejaVuSans-58" transform="translate(70.439453 -16.3125) scale(0.7)"/>
     </g>
    </g>
   </g>
   <g id="text_19">
    <g clip-path="url(#pb6b58b0281)">
     <!-- 1.36 -->
     <g style="fill: #ffffff" transform="translate(323.045164 233.926497) scale(0.08 -0.08)">
      <use xlink:href="#DejaVuSans-31"/>
      <use xlink:href="#DejaVuSans-2e" x="63.623047"/>
      <use xlink:href="#DejaVuSans-33" x="95.410156"/>
      <use xlink:href="#DejaVuSans-36" x="159.033203"/>
     </g>
    </g>
   </g>
   <g id="text_20">
    <g clip-path="url(#pb6b58b0281)">
     <!-- $\mathrm{R_X}$ -->
     <g style="fill: #ffffff" transform="translate(324.021414 218.867685) scale(0.13 -0.13)">
      <use xlink:href="#DejaVuSans-52" transform="translate(0 0.09375)"/>
      <use xlink:href="#DejaVuSans-58" transform="translate(70.439453 -16.3125) scale(0.7)"/>
     </g>
    </g>
   </g>
   <g id="text_21">
    <g clip-path="url(#pb6b58b0281)">
     <!-- 2.25 -->
     <g style="fill: #ffffff" transform="translate(323.045164 290.126496) scale(0.08 -0.08)">
      <use xlink:href="#DejaVuSans-32"/>
      <use xlink:href="#DejaVuSans-2e" x="63.623047"/>
      <use xlink:href="#DejaVuSans-32" x="95.410156"/>
      <use xlink:href="#DejaVuSans-35" x="159.033203"/>
     </g>
    </g>
   </g>
   <g id="text_22">
    <g clip-path="url(#pb6b58b0281)">
     <!-- $\mathrm{R_X}$ -->
     <g style="fill: #ffffff" transform="translate(324.021414 275.067684) scale(0.13 -0.13)">
      <use xlink:href="#DejaVuSans-52" transform="translate(0 0.09375)"/>
      <use xlink:href="#DejaVuSans-58" transform="translate(70.439453 -16.3125) scale(0.7)"/>
     </g>
    </g>
   </g>
   <g id="text_23">
    <g clip-path="url(#pb6b58b0281)">
     <!-- 5.61 -->
     <g style="fill: #ffffff" transform="translate(379.245164 121.526498) scale(0.08 -0.08)">
      <use xlink:href="#DejaVuSans-35"/>
      <use xlink:href="#DejaVuSans-2e" x="63.623047"/>
      <use xlink:href="#DejaVuSans-36" x="95.410156"/>
      <use xlink:href="#DejaVuSans-31" x="159.033203"/>
     </g>
    </g>
   </g>
   <g id="text_24">
    <g clip-path="url(#pb6b58b0281)">
     <!-- $\mathrm{R_X}$ -->
     <g style="fill: #ffffff" transform="translate(380.221414 106.467686) scale(0.13 -0.13)">
      <use xlink:href="#DejaVuSans-52" transform="translate(0 0.09375)"/>
      <use xlink:href="#DejaVuSans-58" transform="translate(70.439453 -16.3125) scale(0.7)"/>
     </g>
    </g>
   </g>
   <g id="text_25">
    <g clip-path="url(#pb6b58b0281)">
     <!-- 1.1 -->
     <g style="fill: #ffffff" transform="translate(437.990163 177.726498) scale(0.08 -0.08)">
      <use xlink:href="#DejaVuSans-31"/>
      <use xlink:href="#DejaVuSans-2e" x="63.623047"/>
      <use xlink:href="#DejaVuSans-31" x="95.410156"/>
     </g>
    </g>
   </g>
   <g id="text_26">
    <g clip-path="url(#pb6b58b0281)">
     <!-- $\mathrm{R_X}$ -->
     <g style="fill: #ffffff" transform="translate(436.421413 162.667685) scale(0.13 -0.13)">
      <use xlink:href="#DejaVuSans-52" transform="translate(0 0.09375)"/>
      <use xlink:href="#DejaVuSans-58" transform="translate(70.439453 -16.3125) scale(0.7)"/>
     </g>
    </g>
   </g>
   <g id="text_27">
    <g clip-path="url(#pb6b58b0281)">
     <!-- 1.36 -->
     <g style="fill: #ffffff" transform="translate(491.645162 233.926497) scale(0.08 -0.08)">
      <use xlink:href="#DejaVuSans-31"/>
      <use xlink:href="#DejaVuSans-2e" x="63.623047"/>
      <use xlink:href="#DejaVuSans-33" x="95.410156"/>
      <use xlink:href="#DejaVuSans-36" x="159.033203"/>
     </g>
    </g>
   </g>
   <g id="text_28">
    <g clip-path="url(#pb6b58b0281)">
     <!-- $\mathrm{R_X}$ -->
     <g style="fill: #ffffff" transform="translate(492.621412 218.867685) scale(0.13 -0.13)">
      <use xlink:href="#DejaVuSans-52" transform="translate(0 0.09375)"/>
      <use xlink:href="#DejaVuSans-58" transform="translate(70.439453 -16.3125) scale(0.7)"/>
     </g>
    </g>
   </g>
   <g id="text_29">
    <g clip-path="url(#pb6b58b0281)">
     <!-- 2.25 -->
     <g style="fill: #ffffff" transform="translate(491.645162 290.126496) scale(0.08 -0.08)">
      <use xlink:href="#DejaVuSans-32"/>
      <use xlink:href="#DejaVuSans-2e" x="63.623047"/>
      <use xlink:href="#DejaVuSans-32" x="95.410156"/>
      <use xlink:href="#DejaVuSans-35" x="159.033203"/>
     </g>
    </g>
   </g>
   <g id="text_30">
    <g clip-path="url(#pb6b58b0281)">
     <!-- $\mathrm{R_X}$ -->
     <g style="fill: #ffffff" transform="translate(492.621412 275.067684) scale(0.13 -0.13)">
      <use xlink:href="#DejaVuSans-52" transform="translate(0 0.09375)"/>
      <use xlink:href="#DejaVuSans-58" transform="translate(70.439453 -16.3125) scale(0.7)"/>
     </g>
    </g>
   </g>
   <g id="text_31">
    <g clip-path="url(#pb6b58b0281)">
     <!-- 5.61 -->
     <g style="fill: #ffffff" transform="translate(547.845161 121.526498) scale(0.08 -0.08)">
      <use xlink:href="#DejaVuSans-35"/>
      <use xlink:href="#DejaVuSans-2e" x="63.623047"/>
      <use xlink:href="#DejaVuSans-36" x="95.410156"/>
      <use xlink:href="#DejaVuSans-31" x="159.033203"/>
     </g>
    </g>
   </g>
   <g id="text_32">
    <g clip-path="url(#pb6b58b0281)">
     <!-- $\mathrm{R_X}$ -->
     <g style="fill: #ffffff" transform="translate(548.821411 106.467686) scale(0.13 -0.13)">
      <use xlink:href="#DejaVuSans-52" transform="translate(0 0.09375)"/>
      <use xlink:href="#DejaVuSans-58" transform="translate(70.439453 -16.3125) scale(0.7)"/>
     </g>
    </g>
   </g>
   <g id="text_33">
    <g clip-path="url(#pb6b58b0281)">
     <!-- 1.1 -->
     <g style="fill: #ffffff" transform="translate(606.59016 177.726498) scale(0.08 -0.08)">
      <use xlink:href="#DejaVuSans-31"/>
      <use xlink:href="#DejaVuSans-2e" x="63.623047"/>
      <use xlink:href="#DejaVuSans-31" x="95.410156"/>
     </g>
    </g>
   </g>
   <g id="text_34">
    <g clip-path="url(#pb6b58b0281)">
     <!-- $\mathrm{R_X}$ -->
     <g style="fill: #ffffff" transform="translate(605.02141 162.667685) scale(0.13 -0.13)">
      <use xlink:href="#DejaVuSans-52" transform="translate(0 0.09375)"/>
      <use xlink:href="#DejaVuSans-58" transform="translate(70.439453 -16.3125) scale(0.7)"/>
     </g>
    </g>
   </g>
   <g id="text_35">
    <g clip-path="url(#pb6b58b0281)">
     <!-- 1.36 -->
     <g style="fill: #ffffff" transform="translate(660.24516 233.926497) scale(0.08 -0.08)">
      <use xlink:href="#DejaVuSans-31"/>
      <use xlink:href="#DejaVuSans-2e" x="63.623047"/>
      <use xlink:href="#DejaVuSans-33" x="95.410156"/>
      <use xlink:href="#DejaVuSans-36" x="159.033203"/>
     </g>
    </g>
   </g>
   <g id="text_36">
    <g clip-path="url(#pb6b58b0281)">
     <!-- $\mathrm{R_X}$ -->
     <g style="fill: #ffffff" transform="translate(661.22141 218.867685) scale(0.13 -0.13)">
      <use xlink:href="#DejaVuSans-52" transform="translate(0 0.09375)"/>
      <use xlink:href="#DejaVuSans-58" transform="translate(70.439453 -16.3125) scale(0.7)"/>
     </g>
    </g>
   </g>
   <g id="text_37">
    <g clip-path="url(#pb6b58b0281)">
     <!-- 2.25 -->
     <g style="fill: #ffffff" transform="translate(660.24516 290.126496) scale(0.08 -0.08)">
      <use xlink:href="#DejaVuSans-32"/>
      <use xlink:href="#DejaVuSans-2e" x="63.623047"/>
      <use xlink:href="#DejaVuSans-32" x="95.410156"/>
      <use xlink:href="#DejaVuSans-35" x="159.033203"/>
     </g>
    </g>
   </g>
   <g id="text_38">
    <g clip-path="url(#pb6b58b0281)">
     <!-- $\mathrm{R_X}$ -->
     <g style="fill: #ffffff" transform="translate(661.22141 275.067684) scale(0.13 -0.13)">
      <use xlink:href="#DejaVuSans-52" transform="translate(0 0.09375)"/>
      <use xlink:href="#DejaVuSans-58" transform="translate(70.439453 -16.3125) scale(0.7)"/>
     </g>
    </g>
   </g>
   <g id="text_39">
    <g clip-path="url(#pb6b58b0281)">
     <!-- 0 -->
     <g style="fill: #ffffff" transform="translate(832.974407 55.747187) scale(0.13 -0.13)">
      <use xlink:href="#DejaVuSans-30"/>
     </g>
    </g>
   </g>
   <g id="text_40">
    <g clip-path="url(#pb6b58b0281)">
     <!-- 1 -->
     <g style="fill: #ffffff" transform="translate(832.974407 111.947186) scale(0.13 -0.13)">
      <use xlink:href="#DejaVuSans-31"/>
     </g>
    </g>
   </g>
   <g id="text_41">
    <g clip-path="url(#pb6b58b0281)">
     <!-- 2 -->
     <g style="fill: #ffffff" transform="translate(832.974407 168.147185) scale(0.13 -0.13)">
      <use xlink:href="#DejaVuSans-32"/>
     </g>
    </g>
   </g>
   <g id="text_42">
    <g clip-path="url(#pb6b58b0281)">
     <!-- 3 -->
     <g style="fill: #ffffff" transform="translate(832.974407 224.347184) scale(0.13 -0.13)">
      <use xlink:href="#DejaVuSans-33"/>
     </g>
    </g>
   </g>
   <g id="text_43">
    <g clip-path="url(#pb6b58b0281)">
     <!-- 4 -->
     <g style="fill: #ffffff" transform="translate(832.974407 280.547184) scale(0.13 -0.13)">
      <use xlink:href="#DejaVuSans-34"/>
     </g>
    </g>
   </g>
   <g id="text_44">
    <g clip-path="url(#pb6b58b0281)">
     <!-- Unitary -->
     <g style="fill: #ffffff" transform="translate(848.300282 168.147185) scale(0.13 -0.13)">
      <defs>
       <path id="DejaVuSans-55" d="M 556 4666 
L 1191 4666 
L 1191 1831 
Q 1191 1081 1462 751 
Q 1734 422 2344 422 
Q 2950 422 3222 751 
Q 3494 1081 3494 1831 
L 3494 4666 
L 4128 4666 
L 4128 1753 
Q 4128 841 3676 375 
Q 3225 -91 2344 -91 
Q 1459 -91 1007 375 
Q 556 841 556 1753 
L 556 4666 
z
" transform="scale(0.015625)"/>
       <path id="DejaVuSans-6e" d="M 3513 2113 
L 3513 0 
L 2938 0 
L 2938 2094 
Q 2938 2591 2744 2837 
Q 2550 3084 2163 3084 
Q 1697 3084 1428 2787 
Q 1159 2491 1159 1978 
L 1159 0 
L 581 0 
L 581 3500 
L 1159 3500 
L 1159 2956 
Q 1366 3272 1645 3428 
Q 1925 3584 2291 3584 
Q 2894 3584 3203 3211 
Q 3513 2838 3513 2113 
z
" transform="scale(0.015625)"/>
       <path id="DejaVuSans-69" d="M 603 3500 
L 1178 3500 
L 1178 0 
L 603 0 
L 603 3500 
z
M 603 4863 
L 1178 4863 
L 1178 4134 
L 603 4134 
L 603 4863 
z
" transform="scale(0.015625)"/>
       <path id="DejaVuSans-74" d="M 1172 4494 
L 1172 3500 
L 2356 3500 
L 2356 3053 
L 1172 3053 
L 1172 1153 
Q 1172 725 1289 603 
Q 1406 481 1766 481 
L 2356 481 
L 2356 0 
L 1766 0 
Q 1100 0 847 248 
Q 594 497 594 1153 
L 594 3053 
L 172 3053 
L 172 3500 
L 594 3500 
L 594 4494 
L 1172 4494 
z
" transform="scale(0.015625)"/>
       <path id="DejaVuSans-61" d="M 2194 1759 
Q 1497 1759 1228 1600 
Q 959 1441 959 1056 
Q 959 750 1161 570 
Q 1363 391 1709 391 
Q 2188 391 2477 730 
Q 2766 1069 2766 1631 
L 2766 1759 
L 2194 1759 
z
M 3341 1997 
L 3341 0 
L 2766 0 
L 2766 531 
Q 2569 213 2275 61 
Q 1981 -91 1556 -91 
Q 1019 -91 701 211 
Q 384 513 384 1019 
Q 384 1609 779 1909 
Q 1175 2209 1959 2209 
L 2766 2209 
L 2766 2266 
Q 2766 2663 2505 2880 
Q 2244 3097 1772 3097 
Q 1472 3097 1187 3025 
Q 903 2953 641 2809 
L 641 3341 
Q 956 3463 1253 3523 
Q 1550 3584 1831 3584 
Q 2591 3584 2966 3190 
Q 3341 2797 3341 1997 
z
" transform="scale(0.015625)"/>
       <path id="DejaVuSans-72" d="M 2631 2963 
Q 2534 3019 2420 3045 
Q 2306 3072 2169 3072 
Q 1681 3072 1420 2755 
Q 1159 2438 1159 1844 
L 1159 0 
L 581 0 
L 581 3500 
L 1159 3500 
L 1159 2956 
Q 1341 3275 1631 3429 
Q 1922 3584 2338 3584 
Q 2397 3584 2469 3576 
Q 2541 3569 2628 3553 
L 2631 2963 
z
" transform="scale(0.015625)"/>
       <path id="DejaVuSans-79" d="M 2059 -325 
Q 1816 -950 1584 -1140 
Q 1353 -1331 966 -1331 
L 506 -1331 
L 506 -850 
L 844 -850 
Q 1081 -850 1212 -737 
Q 1344 -625 1503 -206 
L 1606 56 
L 191 3500 
L 800 3500 
L 1894 763 
L 2988 3500 
L 3597 3500 
L 2059 -325 
z
" transform="scale(0.015625)"/>
      </defs>
      <use xlink:href="#DejaVuSans-55"/>
      <use xlink:href="#DejaVuSans-6e" x="73.193359"/>
      <use xlink:href="#DejaVuSans-69" x="136.572266"/>
      <use xlink:href="#DejaVuSans-74" x="164.355469"/>
      <use xlink:href="#DejaVuSans-61" x="203.564453"/>
      <use xlink:href="#DejaVuSans-72" x="264.84375"/>
      <use xlink:href="#DejaVuSans-79" x="305.957031"/>
     </g>
    </g>
   </g>
  </g>
 </g>
 <defs>
  <clipPath id="pb6b58b0281">
   <rect x="7.2" y="7.2" width="923.843406" height="303.479996"/>
  </clipPath>
 </defs>
</svg>
