<?xml version="1.0" encoding="utf-8" standalone="no"?>
<!DOCTYPE svg PUBLIC "-//W3C//DTD SVG 1.1//EN"
  "http://www.w3.org/Graphics/SVG/1.1/DTD/svg11.dtd">
<svg xmlns:xlink="http://www.w3.org/1999/xlink" width="1459.942458pt" height="378.079995pt" viewBox="0 0 1459.942458 378.079995" xmlns="http://www.w3.org/2000/svg" version="1.1">
 <metadata>
  <rdf:RDF xmlns:dc="http://purl.org/dc/elements/1.1/" xmlns:cc="http://creativecommons.org/ns#" xmlns:rdf="http://www.w3.org/1999/02/22-rdf-syntax-ns#">
   <cc:Work>
    <dc:type rdf:resource="http://purl.org/dc/dcmitype/StillImage"/>
    <dc:date>2025-10-13T22:13:36.717651</dc:date>
    <dc:format>image/svg+xml</dc:format>
    <dc:creator>
     <cc:Agent>
      <dc:title>Matplotlib v3.9.2, https://matplotlib.org/</dc:title>
     </cc:Agent>
    </dc:creator>
   </cc:Work>
  </rdf:RDF>
 </metadata>
 <defs>
  <style type="text/css">*{stroke-linejoin: round; stroke-linecap: butt}</style>
 </defs>
 <g id="figure_1">
  <g id="patch_1">
   <path d="M 0 378.079995 
L 1459.942458 378.079995 
L 1459.942458 0 
L 0 0 
z
" style="fill: #ffffff"/>
  </g>
  <g id="axes_1">
   <g id="line2d_1">
    <path d="M 77.577477 52.659999 
L 1447.059958 52.659999 
" clip-path="url(#p7d9013cb9f)" style="fill: none; stroke: #000000; stroke-width: 2; stroke-linecap: square"/>
   </g>
   <g id="line2d_2">
    <path d="M 77.577477 109.484999 
L 1447.059958 109.484999 
" clip-path="url(#p7d9013cb9f)" style="fill: none; stroke: #000000; stroke-width: 2; stroke-linecap: square"/>
   </g>
   <g id="line2d_3">
    <path d="M 77.577477 166.309998 
L 1447.059958 166.309998 
" clip-path="url(#p7d9013cb9f)" style="fill: none; stroke: #000000; stroke-width: 2; stroke-linecap: square"/>
   </g>
   <g id="line2d_4">
    <path d="M 77.577477 223.134997 
L 1447.059958 223.134997 
" clip-path="url(#p7d9013cb9f)" style="fill: none; stroke: #000000; stroke-width: 2; stroke-linecap: square"/>
   </g>
   <g id="line2d_5">
    <path d="M 77.577477 279.959996 
L 1447.059958 279.959996 
" clip-path="url(#p7d9013cb9f)" style="fill: none; stroke: #000000; stroke-width: 2; stroke-linecap: square"/>
   </g>
   <g id="line2d_6">
    <path d="M 88.942477 342.467495 
L 94.624977 331.102495 
" clip-path="url(#p7d9013cb9f)" style="fill: none; stroke: #778899; stroke-width: 1.5; stroke-linecap: square"/>
   </g>
   <g id="line2d_7">
    <path d="M 77.577477 334.938183 
L 1447.059958 334.938183 
" clip-path="url(#p7d9013cb9f)" style="fill: none; stroke: #778899; stroke-width: 2; stroke-linecap: square"/>
   </g>
   <g id="line2d_8">
    <path d="M 77.577477 338.631808 
L 1447.059958 338.631808 
" clip-path="url(#p7d9013cb9f)" style="fill: none; stroke: #778899; stroke-width: 2; stroke-linecap: square"/>
   </g>
   <g id="patch_2">
    <path d="M 71.894977 24.2475 
L -1348.730003 24.2475 
L -1348.730003 422.022494 
L 71.894977 422.022494 
z
" clip-path="url(#p7d9013cb9f)" style="fill: #ffffff; stroke: #ffffff; stroke-width: 1.5; stroke-linejoin: miter"/>
   </g>
   <g id="patch_3">
    <path d="M 89.794852 71.128124 
L 126.731102 71.128124 
L 126.731102 34.191875 
L 89.794852 34.191875 
z
" clip-path="url(#p7d9013cb9f)" style="fill: #fa4d56; stroke: #fa4d56; stroke-width: 1.5; stroke-linejoin: miter"/>
   </g>
   <g id="patch_4">
    <path d="M 89.794852 127.953123 
L 126.731102 127.953123 
L 126.731102 91.016874 
L 89.794852 91.016874 
z
" clip-path="url(#p7d9013cb9f)" style="fill: #fa4d56; stroke: #fa4d56; stroke-width: 1.5; stroke-linejoin: miter"/>
   </g>
   <g id="patch_5">
    <path d="M 89.794852 184.778122 
L 126.731102 184.778122 
L 126.731102 147.841873 
L 89.794852 147.841873 
z
" clip-path="url(#p7d9013cb9f)" style="fill: #fa4d56; stroke: #fa4d56; stroke-width: 1.5; stroke-linejoin: miter"/>
   </g>
   <g id="patch_6">
    <path d="M 89.794852 241.603122 
L 126.731102 241.603122 
L 126.731102 204.666872 
L 89.794852 204.666872 
z
" clip-path="url(#p7d9013cb9f)" style="fill: #fa4d56; stroke: #fa4d56; stroke-width: 1.5; stroke-linejoin: miter"/>
   </g>
   <g id="patch_7">
    <path d="M 89.794852 298.428121 
L 126.731102 298.428121 
L 126.731102 261.491871 
L 89.794852 261.491871 
z
" clip-path="url(#p7d9013cb9f)" style="fill: #fa4d56; stroke: #fa4d56; stroke-width: 1.5; stroke-linejoin: miter"/>
   </g>
   <g id="patch_8">
    <path d="M 137.18406 298.428121 
L 761.241884 298.428121 
L 761.241884 34.191875 
L 137.18406 34.191875 
z
" clip-path="url(#p7d9013cb9f)" style="fill: #9f1853; stroke: #9f1853; stroke-width: 1.5; stroke-linejoin: miter"/>
   </g>
   <g id="patch_9">
    <path d="M 769.18886 298.428121 
L 1379.387067 298.428121 
L 1379.387067 34.191875 
L 769.18886 34.191875 
z
" clip-path="url(#p7d9013cb9f)" style="fill: #9f1853; stroke: #9f1853; stroke-width: 1.5; stroke-linejoin: miter"/>
   </g>
   <g id="patch_10">
    <path d="M 1396.769834 298.428121 
L 1433.706083 298.428121 
L 1433.706083 261.491871 
L 1396.769834 261.491871 
z
" clip-path="url(#p7d9013cb9f)" style="fill: #fa4d56; stroke: #fa4d56; stroke-width: 1.5; stroke-linejoin: miter"/>
   </g>
   <g id="patch_11">
    <path d="M 1396.769834 241.603122 
L 1433.706083 241.603122 
L 1433.706083 204.666872 
L 1396.769834 204.666872 
z
" clip-path="url(#p7d9013cb9f)" style="fill: #fa4d56; stroke: #fa4d56; stroke-width: 1.5; stroke-linejoin: miter"/>
   </g>
   <g id="patch_12">
    <path d="M 1396.769834 184.778122 
L 1433.706083 184.778122 
L 1433.706083 147.841873 
L 1396.769834 147.841873 
z
" clip-path="url(#p7d9013cb9f)" style="fill: #fa4d56; stroke: #fa4d56; stroke-width: 1.5; stroke-linejoin: miter"/>
   </g>
   <g id="patch_13">
    <path d="M 1396.769834 127.953123 
L 1433.706083 127.953123 
L 1433.706083 91.016874 
L 1396.769834 91.016874 
z
" clip-path="url(#p7d9013cb9f)" style="fill: #fa4d56; stroke: #fa4d56; stroke-width: 1.5; stroke-linejoin: miter"/>
   </g>
   <g id="patch_14">
    <path d="M 1396.769834 71.128124 
L 1433.706083 71.128124 
L 1433.706083 34.191875 
L 1396.769834 34.191875 
z
" clip-path="url(#p7d9013cb9f)" style="fill: #fa4d56; stroke: #fa4d56; stroke-width: 1.5; stroke-linejoin: miter"/>
   </g>
   <g id="text_1">
    <g clip-path="url(#p7d9013cb9f)">
     <!-- ${q}_{0}$ -->
     <g transform="translate(48.174978 57.110976) scale(0.1625 -0.1625)">
      <defs>
       <path id="DejaVuSans-Oblique-71" d="M 2669 525 
Q 2438 222 2123 65 
Q 1809 -91 1428 -91 
Q 897 -91 595 267 
Q 294 625 294 1253 
Q 294 1759 480 2231 
Q 666 2703 1013 3078 
Q 1238 3322 1530 3453 
Q 1822 3584 2144 3584 
Q 2531 3584 2781 3431 
Q 3031 3278 3144 2969 
L 3244 3494 
L 3822 3494 
L 2888 -1319 
L 2309 -1319 
L 2669 525 
z
M 891 1338 
Q 891 875 1084 633 
Q 1278 391 1644 391 
Q 2188 391 2572 911 
Q 2956 1431 2956 2175 
Q 2956 2625 2757 2864 
Q 2559 3103 2188 3103 
Q 1916 3103 1684 2976 
Q 1453 2850 1281 2606 
Q 1100 2350 995 2006 
Q 891 1663 891 1338 
z
" transform="scale(0.015625)"/>
       <path id="DejaVuSans-30" d="M 2034 4250 
Q 1547 4250 1301 3770 
Q 1056 3291 1056 2328 
Q 1056 1369 1301 889 
Q 1547 409 2034 409 
Q 2525 409 2770 889 
Q 3016 1369 3016 2328 
Q 3016 3291 2770 3770 
Q 2525 4250 2034 4250 
z
M 2034 4750 
Q 2819 4750 3233 4129 
Q 3647 3509 3647 2328 
Q 3647 1150 3233 529 
Q 2819 -91 2034 -91 
Q 1250 -91 836 529 
Q 422 1150 422 2328 
Q 422 3509 836 4129 
Q 1250 4750 2034 4750 
z
" transform="scale(0.015625)"/>
      </defs>
      <use xlink:href="#DejaVuSans-Oblique-71"/>
      <use xlink:href="#DejaVuSans-30" transform="translate(63.476562 -16.40625) scale(0.7)"/>
     </g>
    </g>
   </g>
   <g id="text_2">
    <g clip-path="url(#p7d9013cb9f)">
     <!-- ${q}_{1}$ -->
     <g transform="translate(48.174978 113.935975) scale(0.1625 -0.1625)">
      <defs>
       <path id="DejaVuSans-31" d="M 794 531 
L 1825 531 
L 1825 4091 
L 703 3866 
L 703 4441 
L 1819 4666 
L 2450 4666 
L 2450 531 
L 3481 531 
L 3481 0 
L 794 0 
L 794 531 
z
" transform="scale(0.015625)"/>
      </defs>
      <use xlink:href="#DejaVuSans-Oblique-71"/>
      <use xlink:href="#DejaVuSans-31" transform="translate(63.476562 -16.40625) scale(0.7)"/>
     </g>
    </g>
   </g>
   <g id="text_3">
    <g clip-path="url(#p7d9013cb9f)">
     <!-- ${q}_{2}$ -->
     <g transform="translate(48.174978 170.760974) scale(0.1625 -0.1625)">
      <defs>
       <path id="DejaVuSans-32" d="M 1228 531 
L 3431 531 
L 3431 0 
L 469 0 
L 469 531 
Q 828 903 1448 1529 
Q 2069 2156 2228 2338 
Q 2531 2678 2651 2914 
Q 2772 3150 2772 3378 
Q 2772 3750 2511 3984 
Q 2250 4219 1831 4219 
Q 1534 4219 1204 4116 
Q 875 4013 500 3803 
L 500 4441 
Q 881 4594 1212 4672 
Q 1544 4750 1819 4750 
Q 2544 4750 2975 4387 
Q 3406 4025 3406 3419 
Q 3406 3131 3298 2873 
Q 3191 2616 2906 2266 
Q 2828 2175 2409 1742 
Q 1991 1309 1228 531 
z
" transform="scale(0.015625)"/>
      </defs>
      <use xlink:href="#DejaVuSans-Oblique-71"/>
      <use xlink:href="#DejaVuSans-32" transform="translate(63.476562 -16.40625) scale(0.7)"/>
     </g>
    </g>
   </g>
   <g id="text_4">
    <g clip-path="url(#p7d9013cb9f)">
     <!-- ${q}_{3}$ -->
     <g transform="translate(48.174978 227.585974) scale(0.1625 -0.1625)">
      <defs>
       <path id="DejaVuSans-33" d="M 2597 2516 
Q 3050 2419 3304 2112 
Q 3559 1806 3559 1356 
Q 3559 666 3084 287 
Q 2609 -91 1734 -91 
Q 1441 -91 1130 -33 
Q 819 25 488 141 
L 488 750 
Q 750 597 1062 519 
Q 1375 441 1716 441 
Q 2309 441 2620 675 
Q 2931 909 2931 1356 
Q 2931 1769 2642 2001 
Q 2353 2234 1838 2234 
L 1294 2234 
L 1294 2753 
L 1863 2753 
Q 2328 2753 2575 2939 
Q 2822 3125 2822 3475 
Q 2822 3834 2567 4026 
Q 2313 4219 1838 4219 
Q 1578 4219 1281 4162 
Q 984 4106 628 3988 
L 628 4550 
Q 988 4650 1302 4700 
Q 1616 4750 1894 4750 
Q 2613 4750 3031 4423 
Q 3450 4097 3450 3541 
Q 3450 3153 3228 2886 
Q 3006 2619 2597 2516 
z
" transform="scale(0.015625)"/>
      </defs>
      <use xlink:href="#DejaVuSans-Oblique-71"/>
      <use xlink:href="#DejaVuSans-33" transform="translate(63.476562 -16.40625) scale(0.7)"/>
     </g>
    </g>
   </g>
   <g id="text_5">
    <g clip-path="url(#p7d9013cb9f)">
     <!-- ${q}_{4}$ -->
     <g transform="translate(48.174978 284.410973) scale(0.1625 -0.1625)">
      <defs>
       <path id="DejaVuSans-34" d="M 2419 4116 
L 825 1625 
L 2419 1625 
L 2419 4116 
z
M 2253 4666 
L 3047 4666 
L 3047 1625 
L 3713 1625 
L 3713 1100 
L 3047 1100 
L 3047 0 
L 2419 0 
L 2419 1100 
L 313 1100 
L 313 1709 
L 2253 4666 
z
" transform="scale(0.015625)"/>
      </defs>
      <use xlink:href="#DejaVuSans-Oblique-71"/>
      <use xlink:href="#DejaVuSans-34" transform="translate(63.476562 -16.40625) scale(0.7)"/>
     </g>
    </g>
   </g>
   <g id="text_6">
    <g clip-path="url(#p7d9013cb9f)">
     <!-- 1 -->
     <g transform="translate(83.259977 328.93962) scale(0.104 -0.104)">
      <use xlink:href="#DejaVuSans-31"/>
     </g>
    </g>
   </g>
   <g id="text_7">
    <g clip-path="url(#p7d9013cb9f)">
     <!-- c -->
     <g transform="translate(57.277517 341.26898) scale(0.1625 -0.1625)">
      <defs>
       <path id="DejaVuSans-63" d="M 3122 3366 
L 3122 2828 
Q 2878 2963 2633 3030 
Q 2388 3097 2138 3097 
Q 1578 3097 1268 2742 
Q 959 2388 959 1747 
Q 959 1106 1268 751 
Q 1578 397 2138 397 
Q 2388 397 2633 464 
Q 2878 531 3122 666 
L 3122 134 
Q 2881 22 2623 -34 
Q 2366 -91 2075 -91 
Q 1284 -91 818 406 
Q 353 903 353 1747 
Q 353 2603 823 3093 
Q 1294 3584 2113 3584 
Q 2378 3584 2631 3529 
Q 2884 3475 3122 3366 
z
" transform="scale(0.015625)"/>
      </defs>
      <use xlink:href="#DejaVuSans-63"/>
     </g>
    </g>
   </g>
   <g id="text_8">
    <g clip-path="url(#p7d9013cb9f)">
     <!-- H -->
     <g transform="translate(103.374774 56.247187) scale(0.13 -0.13)">
      <defs>
       <path id="DejaVuSans-48" d="M 628 4666 
L 1259 4666 
L 1259 2753 
L 3553 2753 
L 3553 4666 
L 4184 4666 
L 4184 0 
L 3553 0 
L 3553 2222 
L 1259 2222 
L 1259 0 
L 628 0 
L 628 4666 
z
" transform="scale(0.015625)"/>
      </defs>
      <use xlink:href="#DejaVuSans-48"/>
     </g>
    </g>
   </g>
   <g id="text_9">
    <g clip-path="url(#p7d9013cb9f)">
     <!-- H -->
     <g transform="translate(103.374774 113.072186) scale(0.13 -0.13)">
      <use xlink:href="#DejaVuSans-48"/>
     </g>
    </g>
   </g>
   <g id="text_10">
    <g clip-path="url(#p7d9013cb9f)">
     <!-- H -->
     <g transform="translate(103.374774 169.897185) scale(0.13 -0.13)">
      <use xlink:href="#DejaVuSans-48"/>
     </g>
    </g>
   </g>
   <g id="text_11">
    <g clip-path="url(#p7d9013cb9f)">
     <!-- H -->
     <g transform="translate(103.374774 226.722184) scale(0.13 -0.13)">
      <use xlink:href="#DejaVuSans-48"/>
     </g>
    </g>
   </g>
   <g id="text_12">
    <g clip-path="url(#p7d9013cb9f)">
     <!-- H -->
     <g transform="translate(103.374774 283.547184) scale(0.13 -0.13)">
      <use xlink:href="#DejaVuSans-48"/>
     </g>
    </g>
   </g>
   <g id="text_13">
    <g clip-path="url(#p7d9013cb9f)">
     <!-- 0 -->
     <g style="fill: #ffffff" transform="translate(141.16181 56.247187) scale(0.13 -0.13)">
      <use xlink:href="#DejaVuSans-30"/>
     </g>
    </g>
   </g>
   <g id="text_14">
    <g clip-path="url(#p7d9013cb9f)">
     <!-- 1 -->
     <g style="fill: #ffffff" transform="translate(141.16181 113.072186) scale(0.13 -0.13)">
      <use xlink:href="#DejaVuSans-31"/>
     </g>
    </g>
   </g>
   <g id="text_15">
    <g clip-path="url(#p7d9013cb9f)">
     <!-- 2 -->
     <g style="fill: #ffffff" transform="translate(141.16181 169.897185) scale(0.13 -0.13)">
      <use xlink:href="#DejaVuSans-32"/>
     </g>
    </g>
   </g>
   <g id="text_16">
    <g clip-path="url(#p7d9013cb9f)">
     <!-- 3 -->
     <g style="fill: #ffffff" transform="translate(141.16181 226.722184) scale(0.13 -0.13)">
      <use xlink:href="#DejaVuSans-33"/>
     </g>
    </g>
   </g>
   <g id="text_17">
    <g clip-path="url(#p7d9013cb9f)">
     <!-- 4 -->
     <g style="fill: #ffffff" transform="translate(141.16181 283.547184) scale(0.13 -0.13)">
      <use xlink:href="#DejaVuSans-34"/>
     </g>
    </g>
   </g>
   <g id="text_18">
    <g clip-path="url(#p7d9013cb9f)">
     <!-- 0.288, 0.783, 0.54, 0.774, 0.529, 0.612, 0.0339, 0.187, 0.675, 0.571, 0.251, 0.0752, 0.963, 0.0265, 0.447, 0.223, ... -->
     <g style="fill: #ffffff" transform="translate(222.659972 229.320247) scale(0.08 -0.08)">
      <defs>
       <path id="DejaVuSans-2e" d="M 684 794 
L 1344 794 
L 1344 0 
L 684 0 
L 684 794 
z
" transform="scale(0.015625)"/>
       <path id="DejaVuSans-38" d="M 2034 2216 
Q 1584 2216 1326 1975 
Q 1069 1734 1069 1313 
Q 1069 891 1326 650 
Q 1584 409 2034 409 
Q 2484 409 2743 651 
Q 3003 894 3003 1313 
Q 3003 1734 2745 1975 
Q 2488 2216 2034 2216 
z
M 1403 2484 
Q 997 2584 770 2862 
Q 544 3141 544 3541 
Q 544 4100 942 4425 
Q 1341 4750 2034 4750 
Q 2731 4750 3128 4425 
Q 3525 4100 3525 3541 
Q 3525 3141 3298 2862 
Q 3072 2584 2669 2484 
Q 3125 2378 3379 2068 
Q 3634 1759 3634 1313 
Q 3634 634 3220 271 
Q 2806 -91 2034 -91 
Q 1263 -91 848 271 
Q 434 634 434 1313 
Q 434 1759 690 2068 
Q 947 2378 1403 2484 
z
M 1172 3481 
Q 1172 3119 1398 2916 
Q 1625 2713 2034 2713 
Q 2441 2713 2670 2916 
Q 2900 3119 2900 3481 
Q 2900 3844 2670 4047 
Q 2441 4250 2034 4250 
Q 1625 4250 1398 4047 
Q 1172 3844 1172 3481 
z
" transform="scale(0.015625)"/>
       <path id="DejaVuSans-2c" d="M 750 794 
L 1409 794 
L 1409 256 
L 897 -744 
L 494 -744 
L 750 256 
L 750 794 
z
" transform="scale(0.015625)"/>
       <path id="DejaVuSans-20" transform="scale(0.015625)"/>
       <path id="DejaVuSans-37" d="M 525 4666 
L 3525 4666 
L 3525 4397 
L 1831 0 
L 1172 0 
L 2766 4134 
L 525 4134 
L 525 4666 
z
" transform="scale(0.015625)"/>
       <path id="DejaVuSans-35" d="M 691 4666 
L 3169 4666 
L 3169 4134 
L 1269 4134 
L 1269 2991 
Q 1406 3038 1543 3061 
Q 1681 3084 1819 3084 
Q 2600 3084 3056 2656 
Q 3513 2228 3513 1497 
Q 3513 744 3044 326 
Q 2575 -91 1722 -91 
Q 1428 -91 1123 -41 
Q 819 9 494 109 
L 494 744 
Q 775 591 1075 516 
Q 1375 441 1709 441 
Q 2250 441 2565 725 
Q 2881 1009 2881 1497 
Q 2881 1984 2565 2268 
Q 2250 2553 1709 2553 
Q 1456 2553 1204 2497 
Q 953 2441 691 2322 
L 691 4666 
z
" transform="scale(0.015625)"/>
       <path id="DejaVuSans-39" d="M 703 97 
L 703 672 
Q 941 559 1184 500 
Q 1428 441 1663 441 
Q 2288 441 2617 861 
Q 2947 1281 2994 2138 
Q 2813 1869 2534 1725 
Q 2256 1581 1919 1581 
Q 1219 1581 811 2004 
Q 403 2428 403 3163 
Q 403 3881 828 4315 
Q 1253 4750 1959 4750 
Q 2769 4750 3195 4129 
Q 3622 3509 3622 2328 
Q 3622 1225 3098 567 
Q 2575 -91 1691 -91 
Q 1453 -91 1209 -44 
Q 966 3 703 97 
z
M 1959 2075 
Q 2384 2075 2632 2365 
Q 2881 2656 2881 3163 
Q 2881 3666 2632 3958 
Q 2384 4250 1959 4250 
Q 1534 4250 1286 3958 
Q 1038 3666 1038 3163 
Q 1038 2656 1286 2365 
Q 1534 2075 1959 2075 
z
" transform="scale(0.015625)"/>
       <path id="DejaVuSans-36" d="M 2113 2584 
Q 1688 2584 1439 2293 
Q 1191 2003 1191 1497 
Q 1191 994 1439 701 
Q 1688 409 2113 409 
Q 2538 409 2786 701 
Q 3034 994 3034 1497 
Q 3034 2003 2786 2293 
Q 2538 2584 2113 2584 
z
M 3366 4563 
L 3366 3988 
Q 3128 4100 2886 4159 
Q 2644 4219 2406 4219 
Q 1781 4219 1451 3797 
Q 1122 3375 1075 2522 
Q 1259 2794 1537 2939 
Q 1816 3084 2150 3084 
Q 2853 3084 3261 2657 
Q 3669 2231 3669 1497 
Q 3669 778 3244 343 
Q 2819 -91 2113 -91 
Q 1303 -91 875 529 
Q 447 1150 447 2328 
Q 447 3434 972 4092 
Q 1497 4750 2381 4750 
Q 2619 4750 2861 4703 
Q 3103 4656 3366 4563 
z
" transform="scale(0.015625)"/>
      </defs>
      <use xlink:href="#DejaVuSans-30"/>
      <use xlink:href="#DejaVuSans-2e" x="63.623047"/>
      <use xlink:href="#DejaVuSans-32" x="95.410156"/>
      <use xlink:href="#DejaVuSans-38" x="159.033203"/>
      <use xlink:href="#DejaVuSans-38" x="222.65625"/>
      <use xlink:href="#DejaVuSans-2c" x="286.279297"/>
      <use xlink:href="#DejaVuSans-20" x="318.066406"/>
      <use xlink:href="#DejaVuSans-30" x="349.853516"/>
      <use xlink:href="#DejaVuSans-2e" x="413.476562"/>
      <use xlink:href="#DejaVuSans-37" x="445.263672"/>
      <use xlink:href="#DejaVuSans-38" x="508.886719"/>
      <use xlink:href="#DejaVuSans-33" x="572.509766"/>
      <use xlink:href="#DejaVuSans-2c" x="636.132812"/>
      <use xlink:href="#DejaVuSans-20" x="667.919922"/>
      <use xlink:href="#DejaVuSans-30" x="699.707031"/>
      <use xlink:href="#DejaVuSans-2e" x="763.330078"/>
      <use xlink:href="#DejaVuSans-35" x="795.117188"/>
      <use xlink:href="#DejaVuSans-34" x="858.740234"/>
      <use xlink:href="#DejaVuSans-2c" x="922.363281"/>
      <use xlink:href="#DejaVuSans-20" x="954.150391"/>
      <use xlink:href="#DejaVuSans-30" x="985.9375"/>
      <use xlink:href="#DejaVuSans-2e" x="1049.560547"/>
      <use xlink:href="#DejaVuSans-37" x="1081.347656"/>
      <use xlink:href="#DejaVuSans-37" x="1144.970703"/>
      <use xlink:href="#DejaVuSans-34" x="1208.59375"/>
      <use xlink:href="#DejaVuSans-2c" x="1272.216797"/>
      <use xlink:href="#DejaVuSans-20" x="1304.003906"/>
      <use xlink:href="#DejaVuSans-30" x="1335.791016"/>
      <use xlink:href="#DejaVuSans-2e" x="1399.414062"/>
      <use xlink:href="#DejaVuSans-35" x="1431.201172"/>
      <use xlink:href="#DejaVuSans-32" x="1494.824219"/>
      <use xlink:href="#DejaVuSans-39" x="1558.447266"/>
      <use xlink:href="#DejaVuSans-2c" x="1622.070312"/>
      <use xlink:href="#DejaVuSans-20" x="1653.857422"/>
      <use xlink:href="#DejaVuSans-30" x="1685.644531"/>
      <use xlink:href="#DejaVuSans-2e" x="1749.267578"/>
      <use xlink:href="#DejaVuSans-36" x="1781.054688"/>
      <use xlink:href="#DejaVuSans-31" x="1844.677734"/>
      <use xlink:href="#DejaVuSans-32" x="1908.300781"/>
      <use xlink:href="#DejaVuSans-2c" x="1971.923828"/>
      <use xlink:href="#DejaVuSans-20" x="2003.710938"/>
      <use xlink:href="#DejaVuSans-30" x="2035.498047"/>
      <use xlink:href="#DejaVuSans-2e" x="2099.121094"/>
      <use xlink:href="#DejaVuSans-30" x="2130.908203"/>
      <use xlink:href="#DejaVuSans-33" x="2194.53125"/>
      <use xlink:href="#DejaVuSans-33" x="2258.154297"/>
      <use xlink:href="#DejaVuSans-39" x="2321.777344"/>
      <use xlink:href="#DejaVuSans-2c" x="2385.400391"/>
      <use xlink:href="#DejaVuSans-20" x="2417.1875"/>
      <use xlink:href="#DejaVuSans-30" x="2448.974609"/>
      <use xlink:href="#DejaVuSans-2e" x="2512.597656"/>
      <use xlink:href="#DejaVuSans-31" x="2544.384766"/>
      <use xlink:href="#DejaVuSans-38" x="2608.007812"/>
      <use xlink:href="#DejaVuSans-37" x="2671.630859"/>
      <use xlink:href="#DejaVuSans-2c" x="2735.253906"/>
      <use xlink:href="#DejaVuSans-20" x="2767.041016"/>
      <use xlink:href="#DejaVuSans-30" x="2798.828125"/>
      <use xlink:href="#DejaVuSans-2e" x="2862.451172"/>
      <use xlink:href="#DejaVuSans-36" x="2894.238281"/>
      <use xlink:href="#DejaVuSans-37" x="2957.861328"/>
      <use xlink:href="#DejaVuSans-35" x="3021.484375"/>
      <use xlink:href="#DejaVuSans-2c" x="3085.107422"/>
      <use xlink:href="#DejaVuSans-20" x="3116.894531"/>
      <use xlink:href="#DejaVuSans-30" x="3148.681641"/>
      <use xlink:href="#DejaVuSans-2e" x="3212.304688"/>
      <use xlink:href="#DejaVuSans-35" x="3244.091797"/>
      <use xlink:href="#DejaVuSans-37" x="3307.714844"/>
      <use xlink:href="#DejaVuSans-31" x="3371.337891"/>
      <use xlink:href="#DejaVuSans-2c" x="3434.960938"/>
      <use xlink:href="#DejaVuSans-20" x="3466.748047"/>
      <use xlink:href="#DejaVuSans-30" x="3498.535156"/>
      <use xlink:href="#DejaVuSans-2e" x="3562.158203"/>
      <use xlink:href="#DejaVuSans-32" x="3593.945312"/>
      <use xlink:href="#DejaVuSans-35" x="3657.568359"/>
      <use xlink:href="#DejaVuSans-31" x="3721.191406"/>
      <use xlink:href="#DejaVuSans-2c" x="3784.814453"/>
      <use xlink:href="#DejaVuSans-20" x="3816.601562"/>
      <use xlink:href="#DejaVuSans-30" x="3848.388672"/>
      <use xlink:href="#DejaVuSans-2e" x="3912.011719"/>
      <use xlink:href="#DejaVuSans-30" x="3943.798828"/>
      <use xlink:href="#DejaVuSans-37" x="4007.421875"/>
      <use xlink:href="#DejaVuSans-35" x="4071.044922"/>
      <use xlink:href="#DejaVuSans-32" x="4134.667969"/>
      <use xlink:href="#DejaVuSans-2c" x="4198.291016"/>
      <use xlink:href="#DejaVuSans-20" x="4230.078125"/>
      <use xlink:href="#DejaVuSans-30" x="4261.865234"/>
      <use xlink:href="#DejaVuSans-2e" x="4325.488281"/>
      <use xlink:href="#DejaVuSans-39" x="4357.275391"/>
      <use xlink:href="#DejaVuSans-36" x="4420.898438"/>
      <use xlink:href="#DejaVuSans-33" x="4484.521484"/>
      <use xlink:href="#DejaVuSans-2c" x="4548.144531"/>
      <use xlink:href="#DejaVuSans-20" x="4579.931641"/>
      <use xlink:href="#DejaVuSans-30" x="4611.71875"/>
      <use xlink:href="#DejaVuSans-2e" x="4675.341797"/>
      <use xlink:href="#DejaVuSans-30" x="4707.128906"/>
      <use xlink:href="#DejaVuSans-32" x="4770.751953"/>
      <use xlink:href="#DejaVuSans-36" x="4834.375"/>
      <use xlink:href="#DejaVuSans-35" x="4897.998047"/>
      <use xlink:href="#DejaVuSans-2c" x="4961.621094"/>
      <use xlink:href="#DejaVuSans-20" x="4993.408203"/>
      <use xlink:href="#DejaVuSans-30" x="5025.195312"/>
      <use xlink:href="#DejaVuSans-2e" x="5088.818359"/>
      <use xlink:href="#DejaVuSans-34" x="5120.605469"/>
      <use xlink:href="#DejaVuSans-34" x="5184.228516"/>
      <use xlink:href="#DejaVuSans-37" x="5247.851562"/>
      <use xlink:href="#DejaVuSans-2c" x="5311.474609"/>
      <use xlink:href="#DejaVuSans-20" x="5343.261719"/>
      <use xlink:href="#DejaVuSans-30" x="5375.048828"/>
      <use xlink:href="#DejaVuSans-2e" x="5438.671875"/>
      <use xlink:href="#DejaVuSans-32" x="5470.458984"/>
      <use xlink:href="#DejaVuSans-32" x="5534.082031"/>
      <use xlink:href="#DejaVuSans-33" x="5597.705078"/>
      <use xlink:href="#DejaVuSans-2c" x="5661.328125"/>
      <use xlink:href="#DejaVuSans-20" x="5693.115234"/>
      <use xlink:href="#DejaVuSans-2e" x="5724.902344"/>
      <use xlink:href="#DejaVuSans-2e" x="5756.689453"/>
      <use xlink:href="#DejaVuSans-2e" x="5788.476562"/>
     </g>
    </g>
   </g>
   <g id="text_19">
    <g clip-path="url(#p7d9013cb9f)">
     <!-- U_iqc -->
     <g style="fill: #ffffff" transform="translate(437.950285 177.671904) scale(0.13 -0.13)">
      <defs>
       <path id="DejaVuSans-55" d="M 556 4666 
L 1191 4666 
L 1191 1831 
Q 1191 1081 1462 751 
Q 1734 422 2344 422 
Q 2950 422 3222 751 
Q 3494 1081 3494 1831 
L 3494 4666 
L 4128 4666 
L 4128 1753 
Q 4128 841 3676 375 
Q 3225 -91 2344 -91 
Q 1459 -91 1007 375 
Q 556 841 556 1753 
L 556 4666 
z
" transform="scale(0.015625)"/>
       <path id="DejaVuSans-5f" d="M 3263 -1063 
L 3263 -1509 
L -63 -1509 
L -63 -1063 
L 3263 -1063 
z
" transform="scale(0.015625)"/>
       <path id="DejaVuSans-69" d="M 603 3500 
L 1178 3500 
L 1178 0 
L 603 0 
L 603 3500 
z
M 603 4863 
L 1178 4863 
L 1178 4134 
L 603 4134 
L 603 4863 
z
" transform="scale(0.015625)"/>
       <path id="DejaVuSans-71" d="M 947 1747 
Q 947 1113 1208 752 
Q 1469 391 1925 391 
Q 2381 391 2643 752 
Q 2906 1113 2906 1747 
Q 2906 2381 2643 2742 
Q 2381 3103 1925 3103 
Q 1469 3103 1208 2742 
Q 947 2381 947 1747 
z
M 2906 525 
Q 2725 213 2448 61 
Q 2172 -91 1784 -91 
Q 1150 -91 751 415 
Q 353 922 353 1747 
Q 353 2572 751 3078 
Q 1150 3584 1784 3584 
Q 2172 3584 2448 3432 
Q 2725 3281 2906 2969 
L 2906 3500 
L 3481 3500 
L 3481 -1331 
L 2906 -1331 
L 2906 525 
z
" transform="scale(0.015625)"/>
      </defs>
      <use xlink:href="#DejaVuSans-55"/>
      <use xlink:href="#DejaVuSans-5f" x="73.193359"/>
      <use xlink:href="#DejaVuSans-69" x="123.193359"/>
      <use xlink:href="#DejaVuSans-71" x="150.976562"/>
      <use xlink:href="#DejaVuSans-63" x="214.453125"/>
     </g>
    </g>
   </g>
   <g id="text_20">
    <g clip-path="url(#p7d9013cb9f)">
     <!-- 0 -->
     <g style="fill: #ffffff" transform="translate(773.16661 56.247187) scale(0.13 -0.13)">
      <use xlink:href="#DejaVuSans-30"/>
     </g>
    </g>
   </g>
   <g id="text_21">
    <g clip-path="url(#p7d9013cb9f)">
     <!-- 1 -->
     <g style="fill: #ffffff" transform="translate(773.16661 113.072186) scale(0.13 -0.13)">
      <use xlink:href="#DejaVuSans-31"/>
     </g>
    </g>
   </g>
   <g id="text_22">
    <g clip-path="url(#p7d9013cb9f)">
     <!-- 2 -->
     <g style="fill: #ffffff" transform="translate(773.16661 169.897185) scale(0.13 -0.13)">
      <use xlink:href="#DejaVuSans-32"/>
     </g>
    </g>
   </g>
   <g id="text_23">
    <g clip-path="url(#p7d9013cb9f)">
     <!-- 3 -->
     <g style="fill: #ffffff" transform="translate(773.16661 226.722184) scale(0.13 -0.13)">
      <use xlink:href="#DejaVuSans-33"/>
     </g>
    </g>
   </g>
   <g id="text_24">
    <g clip-path="url(#p7d9013cb9f)">
     <!-- 4 -->
     <g style="fill: #ffffff" transform="translate(773.16661 283.547184) scale(0.13 -0.13)">
      <use xlink:href="#DejaVuSans-34"/>
     </g>
    </g>
   </g>
   <g id="text_25">
    <g clip-path="url(#p7d9013cb9f)">
     <!-- 0.443, 0.209, 0.999, 0.262, 0.849, 0.606, 0.806, 0.63, 0.363, 0.761, 0.905, 0.0168, 0.304, 0.201, 0.988, 0.381, ... -->
     <g style="fill: #ffffff" transform="translate(852.824963 229.320247) scale(0.08 -0.08)">
      <use xlink:href="#DejaVuSans-30"/>
      <use xlink:href="#DejaVuSans-2e" x="63.623047"/>
      <use xlink:href="#DejaVuSans-34" x="95.410156"/>
      <use xlink:href="#DejaVuSans-34" x="159.033203"/>
      <use xlink:href="#DejaVuSans-33" x="222.65625"/>
      <use xlink:href="#DejaVuSans-2c" x="286.279297"/>
      <use xlink:href="#DejaVuSans-20" x="318.066406"/>
      <use xlink:href="#DejaVuSans-30" x="349.853516"/>
      <use xlink:href="#DejaVuSans-2e" x="413.476562"/>
      <use xlink:href="#DejaVuSans-32" x="445.263672"/>
      <use xlink:href="#DejaVuSans-30" x="508.886719"/>
      <use xlink:href="#DejaVuSans-39" x="572.509766"/>
      <use xlink:href="#DejaVuSans-2c" x="636.132812"/>
      <use xlink:href="#DejaVuSans-20" x="667.919922"/>
      <use xlink:href="#DejaVuSans-30" x="699.707031"/>
      <use xlink:href="#DejaVuSans-2e" x="763.330078"/>
      <use xlink:href="#DejaVuSans-39" x="795.117188"/>
      <use xlink:href="#DejaVuSans-39" x="858.740234"/>
      <use xlink:href="#DejaVuSans-39" x="922.363281"/>
      <use xlink:href="#DejaVuSans-2c" x="985.986328"/>
      <use xlink:href="#DejaVuSans-20" x="1017.773438"/>
      <use xlink:href="#DejaVuSans-30" x="1049.560547"/>
      <use xlink:href="#DejaVuSans-2e" x="1113.183594"/>
      <use xlink:href="#DejaVuSans-32" x="1144.970703"/>
      <use xlink:href="#DejaVuSans-36" x="1208.59375"/>
      <use xlink:href="#DejaVuSans-32" x="1272.216797"/>
      <use xlink:href="#DejaVuSans-2c" x="1335.839844"/>
      <use xlink:href="#DejaVuSans-20" x="1367.626953"/>
      <use xlink:href="#DejaVuSans-30" x="1399.414062"/>
      <use xlink:href="#DejaVuSans-2e" x="1463.037109"/>
      <use xlink:href="#DejaVuSans-38" x="1494.824219"/>
      <use xlink:href="#DejaVuSans-34" x="1558.447266"/>
      <use xlink:href="#DejaVuSans-39" x="1622.070312"/>
      <use xlink:href="#DejaVuSans-2c" x="1685.693359"/>
      <use xlink:href="#DejaVuSans-20" x="1717.480469"/>
      <use xlink:href="#DejaVuSans-30" x="1749.267578"/>
      <use xlink:href="#DejaVuSans-2e" x="1812.890625"/>
      <use xlink:href="#DejaVuSans-36" x="1844.677734"/>
      <use xlink:href="#DejaVuSans-30" x="1908.300781"/>
      <use xlink:href="#DejaVuSans-36" x="1971.923828"/>
      <use xlink:href="#DejaVuSans-2c" x="2035.546875"/>
      <use xlink:href="#DejaVuSans-20" x="2067.333984"/>
      <use xlink:href="#DejaVuSans-30" x="2099.121094"/>
      <use xlink:href="#DejaVuSans-2e" x="2162.744141"/>
      <use xlink:href="#DejaVuSans-38" x="2194.53125"/>
      <use xlink:href="#DejaVuSans-30" x="2258.154297"/>
      <use xlink:href="#DejaVuSans-36" x="2321.777344"/>
      <use xlink:href="#DejaVuSans-2c" x="2385.400391"/>
      <use xlink:href="#DejaVuSans-20" x="2417.1875"/>
      <use xlink:href="#DejaVuSans-30" x="2448.974609"/>
      <use xlink:href="#DejaVuSans-2e" x="2512.597656"/>
      <use xlink:href="#DejaVuSans-36" x="2544.384766"/>
      <use xlink:href="#DejaVuSans-33" x="2608.007812"/>
      <use xlink:href="#DejaVuSans-2c" x="2671.630859"/>
      <use xlink:href="#DejaVuSans-20" x="2703.417969"/>
      <use xlink:href="#DejaVuSans-30" x="2735.205078"/>
      <use xlink:href="#DejaVuSans-2e" x="2798.828125"/>
      <use xlink:href="#DejaVuSans-33" x="2830.615234"/>
      <use xlink:href="#DejaVuSans-36" x="2894.238281"/>
      <use xlink:href="#DejaVuSans-33" x="2957.861328"/>
      <use xlink:href="#DejaVuSans-2c" x="3021.484375"/>
      <use xlink:href="#DejaVuSans-20" x="3053.271484"/>
      <use xlink:href="#DejaVuSans-30" x="3085.058594"/>
      <use xlink:href="#DejaVuSans-2e" x="3148.681641"/>
      <use xlink:href="#DejaVuSans-37" x="3180.46875"/>
      <use xlink:href="#DejaVuSans-36" x="3244.091797"/>
      <use xlink:href="#DejaVuSans-31" x="3307.714844"/>
      <use xlink:href="#DejaVuSans-2c" x="3371.337891"/>
      <use xlink:href="#DejaVuSans-20" x="3403.125"/>
      <use xlink:href="#DejaVuSans-30" x="3434.912109"/>
      <use xlink:href="#DejaVuSans-2e" x="3498.535156"/>
      <use xlink:href="#DejaVuSans-39" x="3530.322266"/>
      <use xlink:href="#DejaVuSans-30" x="3593.945312"/>
      <use xlink:href="#DejaVuSans-35" x="3657.568359"/>
      <use xlink:href="#DejaVuSans-2c" x="3721.191406"/>
      <use xlink:href="#DejaVuSans-20" x="3752.978516"/>
      <use xlink:href="#DejaVuSans-30" x="3784.765625"/>
      <use xlink:href="#DejaVuSans-2e" x="3848.388672"/>
      <use xlink:href="#DejaVuSans-30" x="3880.175781"/>
      <use xlink:href="#DejaVuSans-31" x="3943.798828"/>
      <use xlink:href="#DejaVuSans-36" x="4007.421875"/>
      <use xlink:href="#DejaVuSans-38" x="4071.044922"/>
      <use xlink:href="#DejaVuSans-2c" x="4134.667969"/>
      <use xlink:href="#DejaVuSans-20" x="4166.455078"/>
      <use xlink:href="#DejaVuSans-30" x="4198.242188"/>
      <use xlink:href="#DejaVuSans-2e" x="4261.865234"/>
      <use xlink:href="#DejaVuSans-33" x="4293.652344"/>
      <use xlink:href="#DejaVuSans-30" x="4357.275391"/>
      <use xlink:href="#DejaVuSans-34" x="4420.898438"/>
      <use xlink:href="#DejaVuSans-2c" x="4484.521484"/>
      <use xlink:href="#DejaVuSans-20" x="4516.308594"/>
      <use xlink:href="#DejaVuSans-30" x="4548.095703"/>
      <use xlink:href="#DejaVuSans-2e" x="4611.71875"/>
      <use xlink:href="#DejaVuSans-32" x="4643.505859"/>
      <use xlink:href="#DejaVuSans-30" x="4707.128906"/>
      <use xlink:href="#DejaVuSans-31" x="4770.751953"/>
      <use xlink:href="#DejaVuSans-2c" x="4834.375"/>
      <use xlink:href="#DejaVuSans-20" x="4866.162109"/>
      <use xlink:href="#DejaVuSans-30" x="4897.949219"/>
      <use xlink:href="#DejaVuSans-2e" x="4961.572266"/>
      <use xlink:href="#DejaVuSans-39" x="4993.359375"/>
      <use xlink:href="#DejaVuSans-38" x="5056.982422"/>
      <use xlink:href="#DejaVuSans-38" x="5120.605469"/>
      <use xlink:href="#DejaVuSans-2c" x="5184.228516"/>
      <use xlink:href="#DejaVuSans-20" x="5216.015625"/>
      <use xlink:href="#DejaVuSans-30" x="5247.802734"/>
      <use xlink:href="#DejaVuSans-2e" x="5311.425781"/>
      <use xlink:href="#DejaVuSans-33" x="5343.212891"/>
      <use xlink:href="#DejaVuSans-38" x="5406.835938"/>
      <use xlink:href="#DejaVuSans-31" x="5470.458984"/>
      <use xlink:href="#DejaVuSans-2c" x="5534.082031"/>
      <use xlink:href="#DejaVuSans-20" x="5565.869141"/>
      <use xlink:href="#DejaVuSans-2e" x="5597.65625"/>
      <use xlink:href="#DejaVuSans-2e" x="5629.443359"/>
      <use xlink:href="#DejaVuSans-2e" x="5661.230469"/>
     </g>
    </g>
   </g>
   <g id="text_26">
    <g clip-path="url(#p7d9013cb9f)">
     <!-- U_iqc -->
     <g style="fill: #ffffff" transform="translate(1063.025276 177.671904) scale(0.13 -0.13)">
      <use xlink:href="#DejaVuSans-55"/>
      <use xlink:href="#DejaVuSans-5f" x="73.193359"/>
      <use xlink:href="#DejaVuSans-69" x="123.193359"/>
      <use xlink:href="#DejaVuSans-71" x="150.976562"/>
      <use xlink:href="#DejaVuSans-63" x="214.453125"/>
     </g>
    </g>
   </g>
   <g id="text_27">
    <g clip-path="url(#p7d9013cb9f)">
     <!-- H -->
     <g transform="translate(1410.349755 283.547184) scale(0.13 -0.13)">
      <use xlink:href="#DejaVuSans-48"/>
     </g>
    </g>
   </g>
   <g id="text_28">
    <g clip-path="url(#p7d9013cb9f)">
     <!-- H -->
     <g transform="translate(1410.349755 226.722184) scale(0.13 -0.13)">
      <use xlink:href="#DejaVuSans-48"/>
     </g>
    </g>
   </g>
   <g id="text_29">
    <g clip-path="url(#p7d9013cb9f)">
     <!-- H -->
     <g transform="translate(1410.349755 169.897185) scale(0.13 -0.13)">
      <use xlink:href="#DejaVuSans-48"/>
     </g>
    </g>
   </g>
   <g id="text_30">
    <g clip-path="url(#p7d9013cb9f)">
     <!-- H -->
     <g transform="translate(1410.349755 113.072186) scale(0.13 -0.13)">
      <use xlink:href="#DejaVuSans-48"/>
     </g>
    </g>
   </g>
   <g id="text_31">
    <g clip-path="url(#p7d9013cb9f)">
     <!-- H -->
     <g transform="translate(1410.349755 56.247187) scale(0.13 -0.13)">
      <use xlink:href="#DejaVuSans-48"/>
     </g>
    </g>
   </g>
  </g>
 </g>
 <defs>
  <clipPath id="p7d9013cb9f">
   <rect x="7.2" y="7.2" width="1445.542458" height="363.679995"/>
  </clipPath>
 </defs>
</svg>
