<?xml version="1.0" encoding="utf-8" standalone="no"?>
<!DOCTYPE svg PUBLIC "-//W3C//DTD SVG 1.1//EN"
  "http://www.w3.org/Graphics/SVG/1.1/DTD/svg11.dtd">
<svg xmlns:xlink="http://www.w3.org/1999/xlink" width="1152pt" height="576pt" viewBox="0 0 1152 576" xmlns="http://www.w3.org/2000/svg" version="1.1">
 <metadata>
  <rdf:RDF xmlns:dc="http://purl.org/dc/elements/1.1/" xmlns:cc="http://creativecommons.org/ns#" xmlns:rdf="http://www.w3.org/1999/02/22-rdf-syntax-ns#">
   <cc:Work>
    <dc:type rdf:resource="http://purl.org/dc/dcmitype/StillImage"/>
    <dc:date>2024-11-04T22:03:13.986100</dc:date>
    <dc:format>image/svg+xml</dc:format>
    <dc:creator>
     <cc:Agent>
      <dc:title>Matplotlib v3.9.2, https://matplotlib.org/</dc:title>
     </cc:Agent>
    </dc:creator>
   </cc:Work>
  </rdf:RDF>
 </metadata>
 <defs>
  <style type="text/css">*{stroke-linejoin: round; stroke-linecap: butt}</style>
 </defs>
 <g id="figure_1">
  <g id="patch_1">
   <path d="M 0 576 
L 1152 576 
L 1152 0 
L 0 0 
z
" style="fill: #ffffff"/>
  </g>
  <g id="patch_2">
   <path d="M 28.8 576 
L 547.2 576 
L 547.2 57.6 
L 28.8 57.6 
z
" style="fill: #ffffff"/>
  </g>
  <g id="pane3d_1">
   <g id="patch_3">
    <path d="M 130.07018 436.456468 
L 253.494133 330.550231 
L 251.743197 126.70673 
L 122.643358 223.613571 
" style="fill: #f2f2f2; opacity: 0.5; stroke: #f2f2f2; stroke-linejoin: miter"/>
   </g>
  </g>
  <g id="pane3d_2">
   <g id="patch_4">
    <path d="M 253.494133 330.550231 
L 455.554898 390.069341 
L 462.583588 181.103065 
L 251.743197 126.70673 
" style="fill: #e6e6e6; opacity: 0.5; stroke: #e6e6e6; stroke-linejoin: miter"/>
   </g>
  </g>
  <g id="pane3d_3">
   <g id="patch_5">
    <path d="M 130.07018 436.456468 
L 340.912731 504.076731 
L 455.554898 390.069341 
L 253.494133 330.550231 
" style="fill: #ececec; opacity: 0.5; stroke: #ececec; stroke-linejoin: miter"/>
   </g>
  </g>
  <g id="grid3d_1">
   <g id="Line3DCollection_1">
    <path d="M 158.635886 445.617904 
L 280.925726 338.630493 
L 280.328796 134.081748 
" style="fill: none; stroke: #b0b0b0; stroke-width: 0.8"/>
    <path d="M 208.310046 461.549127 
L 328.58611 352.669358 
L 330.022474 146.902603 
" style="fill: none; stroke: #b0b0b0; stroke-width: 0.8"/>
    <path d="M 258.89502 477.772462 
L 377.066152 366.949661 
L 380.607663 159.953465 
" style="fill: none; stroke: #b0b0b0; stroke-width: 0.8"/>
    <path d="M 310.41609 494.296016 
L 426.38718 381.477685 
L 432.108569 173.24058 
" style="fill: none; stroke: #b0b0b0; stroke-width: 0.8"/>
   </g>
  </g>
  <g id="grid3d_2">
   <g id="Line3DCollection_2">
    <path d="M 141.757365 209.265931 
L 148.301379 420.812846 
L 357.880707 487.202708 
" style="fill: none; stroke: #b0b0b0; stroke-width: 0.8"/>
    <path d="M 173.704273 185.285468 
L 178.805664 394.638072 
L 386.24502 458.995448 
" style="fill: none; stroke: #b0b0b0; stroke-width: 0.8"/>
    <path d="M 204.65707 162.051218 
L 208.400054 369.24405 
L 413.731787 431.660877 
" style="fill: none; stroke: #b0b0b0; stroke-width: 0.8"/>
    <path d="M 234.661448 139.528886 
L 237.124663 344.596362 
L 440.38111 405.159111 
" style="fill: none; stroke: #b0b0b0; stroke-width: 0.8"/>
   </g>
  </g>
  <g id="grid3d_3">
   <g id="Line3DCollection_3">
    <path d="M 456.049917 375.352176 
L 253.370641 316.173379 
L 129.547702 421.482944 
" style="fill: none; stroke: #b0b0b0; stroke-width: 0.8"/>
    <path d="M 456.905355 349.919622 
L 253.1573 291.336239 
L 128.644607 395.601433 
" style="fill: none; stroke: #b0b0b0; stroke-width: 0.8"/>
    <path d="M 457.769928 324.21544 
L 252.941761 266.243251 
L 127.731599 369.435841 
" style="fill: none; stroke: #b0b0b0; stroke-width: 0.8"/>
    <path d="M 458.643785 298.235254 
L 252.72399 240.890442 
L 126.808515 342.981464 
" style="fill: none; stroke: #b0b0b0; stroke-width: 0.8"/>
    <path d="M 459.527076 271.974595 
L 252.503953 215.273755 
L 125.875186 316.233495 
" style="fill: none; stroke: #b0b0b0; stroke-width: 0.8"/>
    <path d="M 460.419955 245.428897 
L 252.281613 189.389049 
L 124.931442 289.187019 
" style="fill: none; stroke: #b0b0b0; stroke-width: 0.8"/>
    <path d="M 461.322578 218.593494 
L 252.056935 163.232095 
L 123.977105 261.837011 
" style="fill: none; stroke: #b0b0b0; stroke-width: 0.8"/>
    <path d="M 462.235105 191.463616 
L 251.829882 136.798576 
L 123.011999 234.178333 
" style="fill: none; stroke: #b0b0b0; stroke-width: 0.8"/>
   </g>
  </g>
  <g id="axis3d_1">
   <g id="line2d_1">
    <path d="M 130.07018 436.456468 
L 340.912731 504.076731 
" style="fill: none; stroke: #000000; stroke-width: 0.8; stroke-linecap: square"/>
   </g>
   <g id="xtick_1">
    <g id="line2d_2">
     <path d="M 159.677227 444.706868 
L 156.549953 447.442819 
" style="fill: none; stroke: #000000; stroke-width: 0.8; stroke-linecap: square"/>
    </g>
    <g id="text_1">
     <!-- 00 -->
     <g transform="translate(131.351686 489.365693) rotate(-45) scale(0.21 -0.21)">
      <defs>
       <path id="DejaVuSans-30" d="M 2034 4250 
Q 1547 4250 1301 3770 
Q 1056 3291 1056 2328 
Q 1056 1369 1301 889 
Q 1547 409 2034 409 
Q 2525 409 2770 889 
Q 3016 1369 3016 2328 
Q 3016 3291 2770 3770 
Q 2525 4250 2034 4250 
z
M 2034 4750 
Q 2819 4750 3233 4129 
Q 3647 3509 3647 2328 
Q 3647 1150 3233 529 
Q 2819 -91 2034 -91 
Q 1250 -91 836 529 
Q 422 1150 422 2328 
Q 422 3509 836 4129 
Q 1250 4750 2034 4750 
z
" transform="scale(0.015625)"/>
      </defs>
      <use xlink:href="#DejaVuSans-30"/>
      <use xlink:href="#DejaVuSans-30" x="63.623047"/>
     </g>
    </g>
   </g>
   <g id="xtick_2">
    <g id="line2d_3">
     <path d="M 209.334802 460.621468 
L 206.257306 463.407368 
" style="fill: none; stroke: #000000; stroke-width: 0.8; stroke-linecap: square"/>
    </g>
    <g id="text_2">
     <!-- 01 -->
     <g transform="translate(181.023931 505.435143) rotate(-45) scale(0.21 -0.21)">
      <defs>
       <path id="DejaVuSans-31" d="M 794 531 
L 1825 531 
L 1825 4091 
L 703 3866 
L 703 4441 
L 1819 4666 
L 2450 4666 
L 2450 531 
L 3481 531 
L 3481 0 
L 794 0 
L 794 531 
z
" transform="scale(0.015625)"/>
      </defs>
      <use xlink:href="#DejaVuSans-30"/>
      <use xlink:href="#DejaVuSans-31" x="63.623047"/>
     </g>
    </g>
   </g>
   <g id="xtick_3">
    <g id="line2d_4">
     <path d="M 259.902405 476.82772 
L 256.877048 479.664949 
" style="fill: none; stroke: #000000; stroke-width: 0.8; stroke-linecap: square"/>
    </g>
    <g id="text_3">
     <!-- 10 -->
     <g transform="translate(231.60781 521.799516) rotate(-45) scale(0.21 -0.21)">
      <use xlink:href="#DejaVuSans-31"/>
      <use xlink:href="#DejaVuSans-30" x="63.623047"/>
     </g>
    </g>
   </g>
   <g id="xtick_4">
    <g id="line2d_5">
     <path d="M 311.405283 493.333715 
L 308.434531 496.223705 
" style="fill: none; stroke: #000000; stroke-width: 0.8; stroke-linecap: square"/>
    </g>
    <g id="text_4">
     <!-- 11 -->
     <g transform="translate(283.128654 538.467006) rotate(-45) scale(0.21 -0.21)">
      <use xlink:href="#DejaVuSans-31"/>
      <use xlink:href="#DejaVuSans-31" x="63.623047"/>
     </g>
    </g>
   </g>
  </g>
  <g id="axis3d_2">
   <g id="line2d_6">
    <path d="M 455.554898 390.069341 
L 340.912731 504.076731 
" style="fill: none; stroke: #000000; stroke-width: 0.8; stroke-linecap: square"/>
   </g>
   <g id="xtick_5">
    <g id="line2d_7">
     <path d="M 356.140222 486.651363 
L 361.364886 488.306415 
" style="fill: none; stroke: #000000; stroke-width: 0.8; stroke-linecap: square"/>
    </g>
    <g id="text_5">
     <!-- 00 -->
     <g transform="translate(368.70027 499.207917) rotate(-337.5) scale(0.21 -0.21)">
      <use xlink:href="#DejaVuSans-30"/>
      <use xlink:href="#DejaVuSans-30" x="63.623047"/>
     </g>
    </g>
   </g>
   <g id="xtick_6">
    <g id="line2d_8">
     <path d="M 384.5233 458.46129 
L 389.691587 460.064734 
" style="fill: none; stroke: #000000; stroke-width: 0.8; stroke-linecap: square"/>
    </g>
    <g id="text_6">
     <!-- 01 -->
     <g transform="translate(396.913817 470.822876) rotate(-337.5) scale(0.21 -0.21)">
      <use xlink:href="#DejaVuSans-30"/>
      <use xlink:href="#DejaVuSans-31" x="63.623047"/>
     </g>
    </g>
   </g>
   <g id="xtick_7">
    <g id="line2d_9">
     <path d="M 412.028511 431.143114 
L 417.141381 432.697327 
" style="fill: none; stroke: #000000; stroke-width: 0.8; stroke-linecap: square"/>
    </g>
    <g id="text_7">
     <!-- 10 -->
     <g transform="translate(424.254695 443.315808) rotate(-337.5) scale(0.21 -0.21)">
      <use xlink:href="#DejaVuSans-31"/>
      <use xlink:href="#DejaVuSans-30" x="63.623047"/>
     </g>
    </g>
   </g>
   <g id="xtick_8">
    <g id="line2d_10">
     <path d="M 438.695964 404.657001 
L 443.754368 406.164215 
" style="fill: none; stroke: #000000; stroke-width: 0.8; stroke-linecap: square"/>
    </g>
    <g id="text_8">
     <!-- 11 -->
     <g transform="translate(450.762776 416.646599) rotate(-337.5) scale(0.21 -0.21)">
      <use xlink:href="#DejaVuSans-31"/>
      <use xlink:href="#DejaVuSans-31" x="63.623047"/>
     </g>
    </g>
   </g>
  </g>
  <g id="axis3d_3">
   <g id="line2d_11">
    <path d="M 455.554898 390.069341 
L 462.583588 181.103065 
" style="fill: none; stroke: #000000; stroke-width: 0.8; stroke-linecap: square"/>
   </g>
   <g id="xtick_9">
    <g id="line2d_12">
     <path d="M 454.369895 374.861639 
L 459.412902 376.334108 
" style="fill: none; stroke: #000000; stroke-width: 0.8; stroke-linecap: square"/>
    </g>
    <g id="text_9">
     <!-- −0.3 -->
     <g transform="translate(469.570209 369.07458) scale(0.21 -0.21)">
      <defs>
       <path id="DejaVuSans-2212" d="M 678 2272 
L 4684 2272 
L 4684 1741 
L 678 1741 
L 678 2272 
z
" transform="scale(0.015625)"/>
       <path id="DejaVuSans-2e" d="M 684 794 
L 1344 794 
L 1344 0 
L 684 0 
L 684 794 
z
" transform="scale(0.015625)"/>
       <path id="DejaVuSans-33" d="M 2597 2516 
Q 3050 2419 3304 2112 
Q 3559 1806 3559 1356 
Q 3559 666 3084 287 
Q 2609 -91 1734 -91 
Q 1441 -91 1130 -33 
Q 819 25 488 141 
L 488 750 
Q 750 597 1062 519 
Q 1375 441 1716 441 
Q 2309 441 2620 675 
Q 2931 909 2931 1356 
Q 2931 1769 2642 2001 
Q 2353 2234 1838 2234 
L 1294 2234 
L 1294 2753 
L 1863 2753 
Q 2328 2753 2575 2939 
Q 2822 3125 2822 3475 
Q 2822 3834 2567 4026 
Q 2313 4219 1838 4219 
Q 1578 4219 1281 4162 
Q 984 4106 628 3988 
L 628 4550 
Q 988 4650 1302 4700 
Q 1616 4750 1894 4750 
Q 2613 4750 3031 4423 
Q 3450 4097 3450 3541 
Q 3450 3153 3228 2886 
Q 3006 2619 2597 2516 
z
" transform="scale(0.015625)"/>
      </defs>
      <use xlink:href="#DejaVuSans-2212"/>
      <use xlink:href="#DejaVuSans-30" x="83.789062"/>
      <use xlink:href="#DejaVuSans-2e" x="147.412109"/>
      <use xlink:href="#DejaVuSans-33" x="179.199219"/>
     </g>
    </g>
   </g>
   <g id="xtick_10">
    <g id="line2d_13">
     <path d="M 455.21616 349.43393 
L 460.286715 350.89186 
" style="fill: none; stroke: #000000; stroke-width: 0.8; stroke-linecap: square"/>
    </g>
    <g id="text_10">
     <!-- −0.2 -->
     <g transform="translate(470.496405 343.660904) scale(0.21 -0.21)">
      <defs>
       <path id="DejaVuSans-32" d="M 1228 531 
L 3431 531 
L 3431 0 
L 469 0 
L 469 531 
Q 828 903 1448 1529 
Q 2069 2156 2228 2338 
Q 2531 2678 2651 2914 
Q 2772 3150 2772 3378 
Q 2772 3750 2511 3984 
Q 2250 4219 1831 4219 
Q 1534 4219 1204 4116 
Q 875 4013 500 3803 
L 500 4441 
Q 881 4594 1212 4672 
Q 1544 4750 1819 4750 
Q 2544 4750 2975 4387 
Q 3406 4025 3406 3419 
Q 3406 3131 3298 2873 
Q 3191 2616 2906 2266 
Q 2828 2175 2409 1742 
Q 1991 1309 1228 531 
z
" transform="scale(0.015625)"/>
      </defs>
      <use xlink:href="#DejaVuSans-2212"/>
      <use xlink:href="#DejaVuSans-30" x="83.789062"/>
      <use xlink:href="#DejaVuSans-2e" x="147.412109"/>
      <use xlink:href="#DejaVuSans-32" x="179.199219"/>
     </g>
    </g>
   </g>
   <g id="xtick_11">
    <g id="line2d_14">
     <path d="M 456.071462 323.734725 
L 461.169866 325.177719 
" style="fill: none; stroke: #000000; stroke-width: 0.8; stroke-linecap: square"/>
    </g>
    <g id="text_11">
     <!-- −0.1 -->
     <g transform="translate(471.432483 317.976113) scale(0.21 -0.21)">
      <use xlink:href="#DejaVuSans-2212"/>
      <use xlink:href="#DejaVuSans-30" x="83.789062"/>
      <use xlink:href="#DejaVuSans-2e" x="147.412109"/>
      <use xlink:href="#DejaVuSans-31" x="179.199219"/>
     </g>
    </g>
   </g>
   <g id="xtick_12">
    <g id="line2d_15">
     <path d="M 456.935944 297.759652 
L 462.062505 299.187303 
" style="fill: none; stroke: #000000; stroke-width: 0.8; stroke-linecap: square"/>
    </g>
    <g id="text_12">
     <!-- 0.0 -->
     <g transform="translate(472.3786 292.015844) scale(0.21 -0.21)">
      <use xlink:href="#DejaVuSans-30"/>
      <use xlink:href="#DejaVuSans-2e" x="63.623047"/>
      <use xlink:href="#DejaVuSans-30" x="95.410156"/>
     </g>
    </g>
   </g>
   <g id="xtick_13">
    <g id="line2d_16">
     <path d="M 457.809756 271.504244 
L 462.964787 272.916138 
" style="fill: none; stroke: #000000; stroke-width: 0.8; stroke-linecap: square"/>
    </g>
    <g id="text_13">
     <!-- 0.1 -->
     <g transform="translate(473.334919 265.775642) scale(0.21 -0.21)">
      <use xlink:href="#DejaVuSans-30"/>
      <use xlink:href="#DejaVuSans-2e" x="63.623047"/>
      <use xlink:href="#DejaVuSans-31" x="95.410156"/>
     </g>
    </g>
   </g>
   <g id="xtick_14">
    <g id="line2d_17">
     <path d="M 458.69305 244.96394 
L 463.876869 246.359648 
" style="fill: none; stroke: #000000; stroke-width: 0.8; stroke-linecap: square"/>
    </g>
    <g id="text_14">
     <!-- 0.2 -->
     <g transform="translate(474.301606 239.250955) scale(0.21 -0.21)">
      <use xlink:href="#DejaVuSans-30"/>
      <use xlink:href="#DejaVuSans-2e" x="63.623047"/>
      <use xlink:href="#DejaVuSans-32" x="95.410156"/>
     </g>
    </g>
   </g>
   <g id="xtick_15">
    <g id="line2d_18">
     <path d="M 459.585981 218.134076 
L 464.79891 219.513161 
" style="fill: none; stroke: #000000; stroke-width: 0.8; stroke-linecap: square"/>
    </g>
    <g id="text_15">
     <!-- 0.3 -->
     <g transform="translate(475.278831 212.437131) scale(0.21 -0.21)">
      <use xlink:href="#DejaVuSans-30"/>
      <use xlink:href="#DejaVuSans-2e" x="63.623047"/>
      <use xlink:href="#DejaVuSans-33" x="95.410156"/>
     </g>
    </g>
   </g>
   <g id="xtick_16">
    <g id="line2d_19">
     <path d="M 460.488707 191.009887 
L 465.731075 192.371899 
" style="fill: none; stroke: #000000; stroke-width: 0.8; stroke-linecap: square"/>
    </g>
    <g id="text_16">
     <!-- 0.4 -->
     <g transform="translate(476.266766 185.329416) scale(0.21 -0.21)">
      <defs>
       <path id="DejaVuSans-34" d="M 2419 4116 
L 825 1625 
L 2419 1625 
L 2419 4116 
z
M 2253 4666 
L 3047 4666 
L 3047 1625 
L 3713 1625 
L 3713 1100 
L 3047 1100 
L 3047 0 
L 2419 0 
L 2419 1100 
L 313 1100 
L 313 1709 
L 2253 4666 
z
" transform="scale(0.015625)"/>
      </defs>
      <use xlink:href="#DejaVuSans-30"/>
      <use xlink:href="#DejaVuSans-2e" x="63.623047"/>
      <use xlink:href="#DejaVuSans-34" x="95.410156"/>
     </g>
    </g>
   </g>
  </g>
  <g id="axes_1">
   <g id="Poly3DCollection_1">
    <path d="M 307.715771 266.669956 
L 307.661585 287.545234 
L 332.127451 294.495096 
L 332.287083 273.558387 
z
" clip-path="url(#pfbe7acd3da)" style="fill: #648fff"/>
    <path d="M 293.61276 278.639398 
L 293.618742 299.621254 
L 307.661585 287.545234 
L 307.715771 266.669956 
z
" clip-path="url(#pfbe7acd3da)" style="fill: #324880"/>
    <path d="M 293.618742 299.621254 
L 318.208958 306.676946 
L 332.127451 294.495096 
L 307.661585 287.545234 
z
" clip-path="url(#pfbe7acd3da)" style="fill: #577ddf"/>
    <path d="M 293.61276 278.639398 
L 307.715771 266.669956 
L 332.287083 273.558387 
L 318.309499 285.633177 
z
" clip-path="url(#pfbe7acd3da)" style="fill: #3f599f"/>
    <path d="M 318.309499 285.633177 
L 332.287083 273.558387 
L 332.127451 294.495096 
L 318.208958 306.676946 
z
" clip-path="url(#pfbe7acd3da)" style="fill: #648fff"/>
    <path d="M 293.61276 278.639398 
L 318.309499 285.633177 
L 318.208958 306.676946 
L 293.618742 299.621254 
z
" clip-path="url(#pfbe7acd3da)" style="fill: #324880"/>
    <path d="M 187.342974 406.120684 
L 211.635283 413.696335 
L 226.459863 400.617052 
L 202.286551 393.155814 
z
" clip-path="url(#pfbe7acd3da)" style="fill: #577ddf"/>
    <path d="M 200.499384 301.211084 
L 202.286551 393.155814 
L 226.459863 400.617052 
L 225.132732 308.405714 
z
" clip-path="url(#pfbe7acd3da)" style="fill: #648fff"/>
    <path d="M 279.293711 290.792194 
L 279.370659 314.655318 
L 304.072028 321.827422 
L 304.116848 297.893759 
z
" clip-path="url(#pfbe7acd3da)" style="fill: #648fff"/>
    <path d="M 185.251645 313.713468 
L 187.342974 406.120684 
L 202.286551 393.155814 
L 200.499384 301.211084 
z
" clip-path="url(#pfbe7acd3da)" style="fill: #324880"/>
    <path d="M 264.902917 327.11809 
L 289.730406 334.401031 
L 304.072028 321.827422 
L 279.370659 314.655318 
z
" clip-path="url(#pfbe7acd3da)" style="fill: #577ddf"/>
    <path d="M 264.753621 303.132591 
L 264.902917 327.11809 
L 279.370659 314.655318 
L 279.293711 290.792194 
z
" clip-path="url(#pfbe7acd3da)" style="fill: #324880"/>
    <path d="M 210.008533 321.020578 
L 225.132732 308.405714 
L 226.459863 400.617052 
L 211.635283 413.696335 
z
" clip-path="url(#pfbe7acd3da)" style="fill: #648fff"/>
    <path d="M 289.704127 310.344451 
L 304.116848 297.893759 
L 304.072028 321.827422 
L 289.730406 334.401031 
z
" clip-path="url(#pfbe7acd3da)" style="fill: #648fff"/>
    <path d="M 264.753621 303.132591 
L 279.293711 290.792194 
L 304.116848 297.893759 
L 289.704127 310.344451 
z
" clip-path="url(#pfbe7acd3da)" style="fill: #3f599f"/>
    <path d="M 185.251645 313.713468 
L 210.008533 321.020578 
L 211.635283 413.696335 
L 187.342974 406.120684 
z
" clip-path="url(#pfbe7acd3da)" style="fill: #324880"/>
    <path d="M 264.753621 303.132591 
L 289.704127 310.344451 
L 289.730406 334.401031 
L 264.902917 327.11809 
z
" clip-path="url(#pfbe7acd3da)" style="fill: #324880"/>
    <path d="M 185.251645 313.713468 
L 200.499384 301.211084 
L 225.132732 308.405714 
L 210.008533 321.020578 
z
" clip-path="url(#pfbe7acd3da)" style="fill: #3f599f"/>
    <path d="M 206.048618 448.347906 
L 231.02678 456.302263 
L 246.064427 442.570234 
L 221.212532 434.738939 
z
" clip-path="url(#pfbe7acd3da)" style="fill: #577ddf"/>
    <path d="M 219.754712 341.323853 
L 221.212532 434.738939 
L 246.064427 442.570234 
L 245.093139 348.882469 
z
" clip-path="url(#pfbe7acd3da)" style="fill: #648fff"/>
    <path d="M 300.372316 330.380843 
L 300.345384 354.633216 
L 325.753072 362.163888 
L 325.908854 337.839267 
z
" clip-path="url(#pfbe7acd3da)" style="fill: #648fff"/>
    <path d="M 204.277229 354.459829 
L 206.048618 448.347906 
L 221.212532 434.738939 
L 219.754712 341.323853 
z
" clip-path="url(#pfbe7acd3da)" style="fill: #324880"/>
    <path d="M 285.683491 367.720114 
L 311.225143 375.370074 
L 325.753072 362.163888 
L 300.345384 354.633216 
z
" clip-path="url(#pfbe7acd3da)" style="fill: #577ddf"/>
    <path d="M 285.636104 343.342406 
L 285.683491 367.720114 
L 300.345384 354.633216 
L 300.372316 330.380843 
z
" clip-path="url(#pfbe7acd3da)" style="fill: #324880"/>
    <path d="M 229.746894 362.139603 
L 245.093139 348.882469 
L 246.064427 442.570234 
L 231.02678 456.302263 
z
" clip-path="url(#pfbe7acd3da)" style="fill: #648fff"/>
    <path d="M 311.307973 350.919577 
L 325.908854 337.839267 
L 325.753072 362.163888 
L 311.225143 375.370074 
z
" clip-path="url(#pfbe7acd3da)" style="fill: #648fff"/>
    <path d="M 285.636104 343.342406 
L 300.372316 330.380843 
L 325.908854 337.839267 
L 311.307973 350.919577 
z
" clip-path="url(#pfbe7acd3da)" style="fill: #3f599f"/>
    <path d="M 204.277229 354.459829 
L 229.746894 362.139603 
L 231.02678 456.302263 
L 206.048618 448.347906 
z
" clip-path="url(#pfbe7acd3da)" style="fill: #324880"/>
    <path d="M 285.636104 343.342406 
L 311.307973 350.919577 
L 311.225143 375.370074 
L 285.683491 367.720114 
z
" clip-path="url(#pfbe7acd3da)" style="fill: #324880"/>
    <path d="M 351.67895 345.365906 
L 351.425318 366.92757 
L 377.314112 374.587825 
L 377.685824 352.9617 
z
" clip-path="url(#pfbe7acd3da)" style="fill: #648fff"/>
    <path d="M 337.216513 358.566603 
L 337.026104 380.240091 
L 351.425318 366.92757 
L 351.67895 345.365906 
z
" clip-path="url(#pfbe7acd3da)" style="fill: #324880"/>
    <path d="M 337.026104 380.240091 
L 363.05523 388.02288 
L 377.314112 374.587825 
L 351.425318 366.92757 
z
" clip-path="url(#pfbe7acd3da)" style="fill: #577ddf"/>
    <path d="M 204.277229 354.459829 
L 219.754712 341.323853 
L 245.093139 348.882469 
L 229.746894 362.139603 
z
" clip-path="url(#pfbe7acd3da)" style="fill: #3f599f"/>
    <path d="M 337.216513 358.566603 
L 351.67895 345.365906 
L 377.685824 352.9617 
L 363.365013 366.284454 
z
" clip-path="url(#pfbe7acd3da)" style="fill: #3f599f"/>
    <path d="M 363.365013 366.284454 
L 377.685824 352.9617 
L 377.314112 374.587825 
L 363.05523 388.02288 
z
" clip-path="url(#pfbe7acd3da)" style="fill: #648fff"/>
    <path d="M 337.216513 358.566603 
L 363.365013 366.284454 
L 363.05523 388.02288 
L 337.026104 380.240091 
z
" clip-path="url(#pfbe7acd3da)" style="fill: #324880"/>
   </g>
   <g id="Poly3DCollection_2">
    <path d="M 133.626302 342.062122 
L 339.885428 404.592144 
L 452.183448 299.106396 
L 254.335912 243.917863 
z
" clip-path="url(#pfbe7acd3da)" style="fill-opacity: 0.25"/>
   </g>
   <g id="Poly3DCollection_3">
    <path d="M 244.863911 264.834388 
L 259.209707 253.071551 
L 283.357566 259.841269 
L 269.131836 271.706733 
z
" clip-path="url(#pfbe7acd3da)" style="fill: #3f599f"/>
    <path d="M 259.209707 253.071551 
L 258.938974 215.934228 
L 283.269086 222.593102 
L 283.357566 259.841269 
z
" clip-path="url(#pfbe7acd3da)" style="fill: #324880"/>
    <path d="M 244.863911 264.834388 
L 244.481797 227.504746 
L 258.938974 215.934228 
L 259.209707 253.071551 
z
" clip-path="url(#pfbe7acd3da)" style="fill: #648fff"/>
    <path d="M 269.131836 271.706733 
L 283.357566 259.841269 
L 283.269086 222.593102 
L 268.933793 234.265341 
z
" clip-path="url(#pfbe7acd3da)" style="fill: #324880"/>
    <path d="M 244.863911 264.834388 
L 269.131836 271.706733 
L 268.933793 234.265341 
L 244.481797 227.504746 
z
" clip-path="url(#pfbe7acd3da)" style="fill: #648fff"/>
    <path d="M 244.481797 227.504746 
L 268.933793 234.265341 
L 283.269086 222.593102 
L 258.938974 215.934228 
z
" clip-path="url(#pfbe7acd3da)" style="fill: #577ddf"/>
    <path d="M 215.513825 288.899992 
L 230.300283 276.775835 
L 254.689147 283.75316 
L 240.024498 295.98472 
z
" clip-path="url(#pfbe7acd3da)" style="fill: #3f599f"/>
    <path d="M 357.07431 280.507348 
L 357.306881 262.211684 
L 382.408024 269.167318 
L 382.08031 287.517641 
z
" clip-path="url(#pfbe7acd3da)" style="fill: #324880"/>
    <path d="M 230.300283 276.775835 
L 229.737165 234.249403 
L 254.336723 241.098856 
L 254.689147 283.75316 
z
" clip-path="url(#pfbe7acd3da)" style="fill: #324880"/>
    <path d="M 343.22492 292.688885 
L 343.406989 274.298389 
L 357.306881 262.211684 
L 357.07431 280.507348 
z
" clip-path="url(#pfbe7acd3da)" style="fill: #648fff"/>
    <path d="M 215.513825 288.899992 
L 214.816685 246.151699 
L 229.737165 234.249403 
L 230.300283 276.775835 
z
" clip-path="url(#pfbe7acd3da)" style="fill: #648fff"/>
    <path d="M 343.22492 292.688885 
L 357.07431 280.507348 
L 382.08031 287.517641 
L 368.361941 299.807347 
z
" clip-path="url(#pfbe7acd3da)" style="fill: #3f599f"/>
    <path d="M 343.406989 274.298389 
L 368.640158 281.361756 
L 382.408024 269.167318 
L 357.306881 262.211684 
z
" clip-path="url(#pfbe7acd3da)" style="fill: #577ddf"/>
    <path d="M 368.361941 299.807347 
L 382.08031 287.517641 
L 382.408024 269.167318 
L 368.640158 281.361756 
z
" clip-path="url(#pfbe7acd3da)" style="fill: #324880"/>
    <path d="M 240.024498 295.98472 
L 254.689147 283.75316 
L 254.336723 241.098856 
L 239.540158 253.107517 
z
" clip-path="url(#pfbe7acd3da)" style="fill: #324880"/>
    <path d="M 343.22492 292.688885 
L 368.361941 299.807347 
L 368.640158 281.361756 
L 343.406989 274.298389 
z
" clip-path="url(#pfbe7acd3da)" style="fill: #648fff"/>
    <path d="M 215.513825 288.899992 
L 240.024498 295.98472 
L 239.540158 253.107517 
L 214.816685 246.151699 
z
" clip-path="url(#pfbe7acd3da)" style="fill: #648fff"/>
    <path d="M 214.816685 246.151699 
L 239.540158 253.107517 
L 254.336723 241.098856 
L 229.737165 234.249403 
z
" clip-path="url(#pfbe7acd3da)" style="fill: #577ddf"/>
    <path d="M 407.307994 294.590082 
L 407.682806 278.34075 
L 433.222135 285.4275 
L 432.760322 301.7255 
z
" clip-path="url(#pfbe7acd3da)" style="fill: #324880"/>
    <path d="M 393.72353 306.989403 
L 394.05556 290.655634 
L 407.682806 278.34075 
L 407.307994 294.590082 
z
" clip-path="url(#pfbe7acd3da)" style="fill: #648fff"/>
    <path d="M 393.72353 306.989403 
L 407.307994 294.590082 
L 432.760322 301.7255 
L 419.31271 314.23591 
z
" clip-path="url(#pfbe7acd3da)" style="fill: #3f599f"/>
    <path d="M 394.05556 290.655634 
L 419.732691 297.853087 
L 433.222135 285.4275 
L 407.682806 278.34075 
z
" clip-path="url(#pfbe7acd3da)" style="fill: #577ddf"/>
    <path d="M 419.31271 314.23591 
L 432.760322 301.7255 
L 433.222135 285.4275 
L 419.732691 297.853087 
z
" clip-path="url(#pfbe7acd3da)" style="fill: #324880"/>
    <path d="M 329.161485 305.058691 
L 329.308706 284.118647 
L 354.687889 291.284849 
L 354.4306 312.287844 
z
" clip-path="url(#pfbe7acd3da)" style="fill: #324880"/>
    <path d="M 393.72353 306.989403 
L 419.31271 314.23591 
L 419.732691 297.853087 
L 394.05556 290.655634 
z
" clip-path="url(#pfbe7acd3da)" style="fill: #648fff"/>
    <path d="M 314.879003 317.621165 
L 314.965333 296.571906 
L 329.308706 284.118647 
L 329.161485 305.058691 
z
" clip-path="url(#pfbe7acd3da)" style="fill: #648fff"/>
    <path d="M 314.879003 317.621165 
L 329.161485 305.058691 
L 354.4306 312.287844 
L 340.281289 324.963611 
z
" clip-path="url(#pfbe7acd3da)" style="fill: #3f599f"/>
    <path d="M 314.965333 296.571906 
L 340.478857 303.850906 
L 354.687889 291.284849 
L 329.308706 284.118647 
z
" clip-path="url(#pfbe7acd3da)" style="fill: #577ddf"/>
    <path d="M 340.281289 324.963611 
L 354.4306 312.287844 
L 354.687889 291.284849 
L 340.478857 303.850906 
z
" clip-path="url(#pfbe7acd3da)" style="fill: #324880"/>
    <path d="M 314.879003 317.621165 
L 340.281289 324.963611 
L 340.478857 303.850906 
L 314.965333 296.571906 
z
" clip-path="url(#pfbe7acd3da)" style="fill: #648fff"/>
    <path d="M 234.989525 328.393834 
L 249.987332 315.664966 
L 275.066177 322.989712 
L 260.197678 335.834137 
z
" clip-path="url(#pfbe7acd3da)" style="fill: #3f599f"/>
    <path d="M 379.927223 319.582084 
L 380.253281 300.984686 
L 406.081208 308.288861 
L 405.654442 326.942294 
z
" clip-path="url(#pfbe7acd3da)" style="fill: #324880"/>
    <path d="M 365.914081 332.372684 
L 366.188483 313.67807 
L 380.253281 300.984686 
L 379.927223 319.582084 
z
" clip-path="url(#pfbe7acd3da)" style="fill: #648fff"/>
    <path d="M 365.914081 332.372684 
L 379.927223 319.582084 
L 405.654442 326.942294 
L 391.78053 339.849295 
z
" clip-path="url(#pfbe7acd3da)" style="fill: #3f599f"/>
    <path d="M 366.188483 313.67807 
L 392.156743 321.098209 
L 406.081208 308.288861 
L 380.253281 300.984686 
z
" clip-path="url(#pfbe7acd3da)" style="fill: #577ddf"/>
    <path d="M 391.78053 339.849295 
L 405.654442 326.942294 
L 406.081208 308.288861 
L 392.156743 321.098209 
z
" clip-path="url(#pfbe7acd3da)" style="fill: #324880"/>
    <path d="M 154.034183 339.310228 
L 169.765129 326.411638 
L 194.646416 333.833886 
L 179.040721 346.850358 
z
" clip-path="url(#pfbe7acd3da)" style="fill: #3f599f"/>
    <path d="M 249.987332 315.664966 
L 248.891417 197.655135 
L 274.578536 204.613639 
L 275.066177 322.989712 
z
" clip-path="url(#pfbe7acd3da)" style="fill: #324880"/>
    <path d="M 365.914081 332.372684 
L 391.78053 339.849295 
L 392.156743 321.098209 
L 366.188483 313.67807 
z
" clip-path="url(#pfbe7acd3da)" style="fill: #648fff"/>
    <path d="M 234.989525 328.393834 
L 233.516771 209.748531 
L 248.891417 197.655135 
L 249.987332 315.664966 
z
" clip-path="url(#pfbe7acd3da)" style="fill: #648fff"/>
    <path d="M 169.765129 326.411638 
L 166.821178 212.71412 
L 192.276369 219.783141 
L 194.646416 333.833886 
z
" clip-path="url(#pfbe7acd3da)" style="fill: #324880"/>
    <path d="M 260.197678 335.834137 
L 275.066177 322.989712 
L 274.578536 204.613639 
L 259.339537 216.819525 
z
" clip-path="url(#pfbe7acd3da)" style="fill: #324880"/>
    <path d="M 154.034183 339.310228 
L 150.693683 224.999829 
L 166.821178 212.71412 
L 169.765129 326.411638 
z
" clip-path="url(#pfbe7acd3da)" style="fill: #648fff"/>
    <path d="M 234.989525 328.393834 
L 260.197678 335.834137 
L 259.339537 216.819525 
L 233.516771 209.748531 
z
" clip-path="url(#pfbe7acd3da)" style="fill: #648fff"/>
    <path d="M 179.040721 346.850358 
L 194.646416 333.833886 
L 192.276369 219.783141 
L 176.279907 232.183798 
z
" clip-path="url(#pfbe7acd3da)" style="fill: #324880"/>
    <path d="M 154.034183 339.310228 
L 179.040721 346.850358 
L 176.279907 232.183798 
L 150.693683 224.999829 
z
" clip-path="url(#pfbe7acd3da)" style="fill: #648fff"/>
    <path d="M 233.516771 209.748531 
L 259.339537 216.819525 
L 274.578536 204.613639 
L 248.891417 197.655135 
z
" clip-path="url(#pfbe7acd3da)" style="fill: #577ddf"/>
    <path d="M 255.452961 369.890658 
L 270.664874 356.510683 
L 296.473157 364.20946 
L 281.398738 377.713993 
z
" clip-path="url(#pfbe7acd3da)" style="fill: #3f599f"/>
    <path d="M 270.664874 356.510683 
L 270.442288 312.554249 
L 296.486641 320.118585 
L 296.473157 364.20946 
z
" clip-path="url(#pfbe7acd3da)" style="fill: #324880"/>
    <path d="M 255.452961 369.890658 
L 255.088332 325.700984 
L 270.442288 312.554249 
L 270.664874 356.510683 
z
" clip-path="url(#pfbe7acd3da)" style="fill: #648fff"/>
    <path d="M 150.693683 224.999829 
L 176.279907 232.183798 
L 192.276369 219.783141 
L 166.821178 212.71412 
z
" clip-path="url(#pfbe7acd3da)" style="fill: #577ddf"/>
    <path d="M 281.398738 377.713993 
L 296.473157 364.20946 
L 296.486641 320.118585 
L 281.272709 333.388838 
z
" clip-path="url(#pfbe7acd3da)" style="fill: #324880"/>
    <path d="M 255.452961 369.890658 
L 281.398738 377.713993 
L 281.272709 333.388838 
L 255.088332 325.700984 
z
" clip-path="url(#pfbe7acd3da)" style="fill: #648fff"/>
    <path d="M 255.088332 325.700984 
L 281.272709 333.388838 
L 296.486641 320.118585 
L 270.442288 312.554249 
z
" clip-path="url(#pfbe7acd3da)" style="fill: #577ddf"/>
    <path d="M 307.587592 385.610621 
L 322.521283 371.979784 
L 348.812612 379.822657 
L 334.022957 393.581579 
z
" clip-path="url(#pfbe7acd3da)" style="fill: #3f599f"/>
    <path d="M 322.521283 371.979784 
L 322.745374 332.959099 
L 349.252884 340.682494 
L 348.812612 379.822657 
z
" clip-path="url(#pfbe7acd3da)" style="fill: #324880"/>
    <path d="M 307.587592 385.610621 
L 307.6909 346.382661 
L 322.745374 332.959099 
L 322.521283 371.979784 
z
" clip-path="url(#pfbe7acd3da)" style="fill: #648fff"/>
    <path d="M 334.022957 393.581579 
L 348.812612 379.822657 
L 349.252884 340.682494 
L 334.344838 354.233231 
z
" clip-path="url(#pfbe7acd3da)" style="fill: #324880"/>
    <path d="M 307.587592 385.610621 
L 334.022957 393.581579 
L 334.344838 354.233231 
L 307.6909 346.382661 
z
" clip-path="url(#pfbe7acd3da)" style="fill: #648fff"/>
    <path d="M 307.6909 346.382661 
L 334.344838 354.233231 
L 349.252884 340.682494 
L 322.745374 332.959099 
z
" clip-path="url(#pfbe7acd3da)" style="fill: #577ddf"/>
   </g>
   <g id="text_17">
    <!-- Real Amplitude (ρ) -->
    <g transform="translate(190.023516 51.6) scale(0.21 -0.21)">
     <defs>
      <path id="DejaVuSans-52" d="M 2841 2188 
Q 3044 2119 3236 1894 
Q 3428 1669 3622 1275 
L 4263 0 
L 3584 0 
L 2988 1197 
Q 2756 1666 2539 1819 
Q 2322 1972 1947 1972 
L 1259 1972 
L 1259 0 
L 628 0 
L 628 4666 
L 2053 4666 
Q 2853 4666 3247 4331 
Q 3641 3997 3641 3322 
Q 3641 2881 3436 2590 
Q 3231 2300 2841 2188 
z
M 1259 4147 
L 1259 2491 
L 2053 2491 
Q 2509 2491 2742 2702 
Q 2975 2913 2975 3322 
Q 2975 3731 2742 3939 
Q 2509 4147 2053 4147 
L 1259 4147 
z
" transform="scale(0.015625)"/>
      <path id="DejaVuSans-65" d="M 3597 1894 
L 3597 1613 
L 953 1613 
Q 991 1019 1311 708 
Q 1631 397 2203 397 
Q 2534 397 2845 478 
Q 3156 559 3463 722 
L 3463 178 
Q 3153 47 2828 -22 
Q 2503 -91 2169 -91 
Q 1331 -91 842 396 
Q 353 884 353 1716 
Q 353 2575 817 3079 
Q 1281 3584 2069 3584 
Q 2775 3584 3186 3129 
Q 3597 2675 3597 1894 
z
M 3022 2063 
Q 3016 2534 2758 2815 
Q 2500 3097 2075 3097 
Q 1594 3097 1305 2825 
Q 1016 2553 972 2059 
L 3022 2063 
z
" transform="scale(0.015625)"/>
      <path id="DejaVuSans-61" d="M 2194 1759 
Q 1497 1759 1228 1600 
Q 959 1441 959 1056 
Q 959 750 1161 570 
Q 1363 391 1709 391 
Q 2188 391 2477 730 
Q 2766 1069 2766 1631 
L 2766 1759 
L 2194 1759 
z
M 3341 1997 
L 3341 0 
L 2766 0 
L 2766 531 
Q 2569 213 2275 61 
Q 1981 -91 1556 -91 
Q 1019 -91 701 211 
Q 384 513 384 1019 
Q 384 1609 779 1909 
Q 1175 2209 1959 2209 
L 2766 2209 
L 2766 2266 
Q 2766 2663 2505 2880 
Q 2244 3097 1772 3097 
Q 1472 3097 1187 3025 
Q 903 2953 641 2809 
L 641 3341 
Q 956 3463 1253 3523 
Q 1550 3584 1831 3584 
Q 2591 3584 2966 3190 
Q 3341 2797 3341 1997 
z
" transform="scale(0.015625)"/>
      <path id="DejaVuSans-6c" d="M 603 4863 
L 1178 4863 
L 1178 0 
L 603 0 
L 603 4863 
z
" transform="scale(0.015625)"/>
      <path id="DejaVuSans-20" transform="scale(0.015625)"/>
      <path id="DejaVuSans-41" d="M 2188 4044 
L 1331 1722 
L 3047 1722 
L 2188 4044 
z
M 1831 4666 
L 2547 4666 
L 4325 0 
L 3669 0 
L 3244 1197 
L 1141 1197 
L 716 0 
L 50 0 
L 1831 4666 
z
" transform="scale(0.015625)"/>
      <path id="DejaVuSans-6d" d="M 3328 2828 
Q 3544 3216 3844 3400 
Q 4144 3584 4550 3584 
Q 5097 3584 5394 3201 
Q 5691 2819 5691 2113 
L 5691 0 
L 5113 0 
L 5113 2094 
Q 5113 2597 4934 2840 
Q 4756 3084 4391 3084 
Q 3944 3084 3684 2787 
Q 3425 2491 3425 1978 
L 3425 0 
L 2847 0 
L 2847 2094 
Q 2847 2600 2669 2842 
Q 2491 3084 2119 3084 
Q 1678 3084 1418 2786 
Q 1159 2488 1159 1978 
L 1159 0 
L 581 0 
L 581 3500 
L 1159 3500 
L 1159 2956 
Q 1356 3278 1631 3431 
Q 1906 3584 2284 3584 
Q 2666 3584 2933 3390 
Q 3200 3197 3328 2828 
z
" transform="scale(0.015625)"/>
      <path id="DejaVuSans-70" d="M 1159 525 
L 1159 -1331 
L 581 -1331 
L 581 3500 
L 1159 3500 
L 1159 2969 
Q 1341 3281 1617 3432 
Q 1894 3584 2278 3584 
Q 2916 3584 3314 3078 
Q 3713 2572 3713 1747 
Q 3713 922 3314 415 
Q 2916 -91 2278 -91 
Q 1894 -91 1617 61 
Q 1341 213 1159 525 
z
M 3116 1747 
Q 3116 2381 2855 2742 
Q 2594 3103 2138 3103 
Q 1681 3103 1420 2742 
Q 1159 2381 1159 1747 
Q 1159 1113 1420 752 
Q 1681 391 2138 391 
Q 2594 391 2855 752 
Q 3116 1113 3116 1747 
z
" transform="scale(0.015625)"/>
      <path id="DejaVuSans-69" d="M 603 3500 
L 1178 3500 
L 1178 0 
L 603 0 
L 603 3500 
z
M 603 4863 
L 1178 4863 
L 1178 4134 
L 603 4134 
L 603 4863 
z
" transform="scale(0.015625)"/>
      <path id="DejaVuSans-74" d="M 1172 4494 
L 1172 3500 
L 2356 3500 
L 2356 3053 
L 1172 3053 
L 1172 1153 
Q 1172 725 1289 603 
Q 1406 481 1766 481 
L 2356 481 
L 2356 0 
L 1766 0 
Q 1100 0 847 248 
Q 594 497 594 1153 
L 594 3053 
L 172 3053 
L 172 3500 
L 594 3500 
L 594 4494 
L 1172 4494 
z
" transform="scale(0.015625)"/>
      <path id="DejaVuSans-75" d="M 544 1381 
L 544 3500 
L 1119 3500 
L 1119 1403 
Q 1119 906 1312 657 
Q 1506 409 1894 409 
Q 2359 409 2629 706 
Q 2900 1003 2900 1516 
L 2900 3500 
L 3475 3500 
L 3475 0 
L 2900 0 
L 2900 538 
Q 2691 219 2414 64 
Q 2138 -91 1772 -91 
Q 1169 -91 856 284 
Q 544 659 544 1381 
z
M 1991 3584 
L 1991 3584 
z
" transform="scale(0.015625)"/>
      <path id="DejaVuSans-64" d="M 2906 2969 
L 2906 4863 
L 3481 4863 
L 3481 0 
L 2906 0 
L 2906 525 
Q 2725 213 2448 61 
Q 2172 -91 1784 -91 
Q 1150 -91 751 415 
Q 353 922 353 1747 
Q 353 2572 751 3078 
Q 1150 3584 1784 3584 
Q 2172 3584 2448 3432 
Q 2725 3281 2906 2969 
z
M 947 1747 
Q 947 1113 1208 752 
Q 1469 391 1925 391 
Q 2381 391 2643 752 
Q 2906 1113 2906 1747 
Q 2906 2381 2643 2742 
Q 2381 3103 1925 3103 
Q 1469 3103 1208 2742 
Q 947 2381 947 1747 
z
" transform="scale(0.015625)"/>
      <path id="DejaVuSans-28" d="M 1984 4856 
Q 1566 4138 1362 3434 
Q 1159 2731 1159 2009 
Q 1159 1288 1364 580 
Q 1569 -128 1984 -844 
L 1484 -844 
Q 1016 -109 783 600 
Q 550 1309 550 2009 
Q 550 2706 781 3412 
Q 1013 4119 1484 4856 
L 1984 4856 
z
" transform="scale(0.015625)"/>
      <path id="DejaVuSans-3c1" d="M 863 2875 
Q 1053 3194 1525 3475 
Q 1709 3584 2278 3584 
Q 2916 3584 3314 3078 
Q 3713 2572 3713 1747 
Q 3713 922 3314 415 
Q 2916 -91 2278 -91 
Q 1894 -91 1617 61 
Q 1341 213 1159 525 
L 1159 -1331 
L 581 -1331 
L 581 1716 
Q 581 2438 863 2875 
z
M 3116 1747 
Q 3116 2381 2855 2742 
Q 2594 3103 2138 3103 
Q 1681 3103 1420 2742 
Q 1159 2381 1159 1747 
Q 1159 1113 1420 752 
Q 1681 391 2138 391 
Q 2594 391 2855 752 
Q 3116 1113 3116 1747 
z
" transform="scale(0.015625)"/>
      <path id="DejaVuSans-29" d="M 513 4856 
L 1013 4856 
Q 1481 4119 1714 3412 
Q 1947 2706 1947 2009 
Q 1947 1309 1714 600 
Q 1481 -109 1013 -844 
L 513 -844 
Q 928 -128 1133 580 
Q 1338 1288 1338 2009 
Q 1338 2731 1133 3434 
Q 928 4138 513 4856 
z
" transform="scale(0.015625)"/>
     </defs>
     <use xlink:href="#DejaVuSans-52"/>
     <use xlink:href="#DejaVuSans-65" x="64.982422"/>
     <use xlink:href="#DejaVuSans-61" x="126.505859"/>
     <use xlink:href="#DejaVuSans-6c" x="187.785156"/>
     <use xlink:href="#DejaVuSans-20" x="215.568359"/>
     <use xlink:href="#DejaVuSans-41" x="247.355469"/>
     <use xlink:href="#DejaVuSans-6d" x="315.763672"/>
     <use xlink:href="#DejaVuSans-70" x="413.175781"/>
     <use xlink:href="#DejaVuSans-6c" x="476.652344"/>
     <use xlink:href="#DejaVuSans-69" x="504.435547"/>
     <use xlink:href="#DejaVuSans-74" x="532.21875"/>
     <use xlink:href="#DejaVuSans-75" x="571.427734"/>
     <use xlink:href="#DejaVuSans-64" x="634.806641"/>
     <use xlink:href="#DejaVuSans-65" x="698.283203"/>
     <use xlink:href="#DejaVuSans-20" x="759.806641"/>
     <use xlink:href="#DejaVuSans-28" x="791.59375"/>
     <use xlink:href="#DejaVuSans-3c1" x="830.607422"/>
     <use xlink:href="#DejaVuSans-29" x="894.083984"/>
    </g>
   </g>
  </g>
  <g id="patch_6">
   <path d="M 604.8 576 
L 1123.2 576 
L 1123.2 57.6 
L 604.8 57.6 
z
" style="fill: #ffffff"/>
  </g>
  <g id="pane3d_4">
   <g id="patch_7">
    <path d="M 706.07018 436.456468 
L 829.494133 330.550231 
L 827.743197 126.70673 
L 698.643358 223.613571 
" style="fill: #f2f2f2; opacity: 0.5; stroke: #f2f2f2; stroke-linejoin: miter"/>
   </g>
  </g>
  <g id="pane3d_5">
   <g id="patch_8">
    <path d="M 829.494133 330.550231 
L 1031.554898 390.069341 
L 1038.583588 181.103065 
L 827.743197 126.70673 
" style="fill: #e6e6e6; opacity: 0.5; stroke: #e6e6e6; stroke-linejoin: miter"/>
   </g>
  </g>
  <g id="pane3d_6">
   <g id="patch_9">
    <path d="M 706.07018 436.456468 
L 916.912731 504.076731 
L 1031.554898 390.069341 
L 829.494133 330.550231 
" style="fill: #ececec; opacity: 0.5; stroke: #ececec; stroke-linejoin: miter"/>
   </g>
  </g>
  <g id="grid3d_4">
   <g id="Line3DCollection_4">
    <path d="M 734.635886 445.617904 
L 856.925726 338.630493 
L 856.328796 134.081748 
" style="fill: none; stroke: #b0b0b0; stroke-width: 0.8"/>
    <path d="M 784.310046 461.549127 
L 904.58611 352.669358 
L 906.022474 146.902603 
" style="fill: none; stroke: #b0b0b0; stroke-width: 0.8"/>
    <path d="M 834.89502 477.772462 
L 953.066152 366.949661 
L 956.607663 159.953465 
" style="fill: none; stroke: #b0b0b0; stroke-width: 0.8"/>
    <path d="M 886.41609 494.296016 
L 1002.38718 381.477685 
L 1008.108569 173.24058 
" style="fill: none; stroke: #b0b0b0; stroke-width: 0.8"/>
   </g>
  </g>
  <g id="grid3d_5">
   <g id="Line3DCollection_5">
    <path d="M 717.757365 209.265931 
L 724.301379 420.812846 
L 933.880707 487.202708 
" style="fill: none; stroke: #b0b0b0; stroke-width: 0.8"/>
    <path d="M 749.704273 185.285468 
L 754.805664 394.638072 
L 962.24502 458.995448 
" style="fill: none; stroke: #b0b0b0; stroke-width: 0.8"/>
    <path d="M 780.65707 162.051218 
L 784.400054 369.24405 
L 989.731787 431.660877 
" style="fill: none; stroke: #b0b0b0; stroke-width: 0.8"/>
    <path d="M 810.661448 139.528886 
L 813.124663 344.596362 
L 1016.38111 405.159111 
" style="fill: none; stroke: #b0b0b0; stroke-width: 0.8"/>
   </g>
  </g>
  <g id="grid3d_6">
   <g id="Line3DCollection_6">
    <path d="M 1031.915033 379.362343 
L 829.404288 320.090509 
L 705.690077 425.563214 
" style="fill: none; stroke: #b0b0b0; stroke-width: 0.8"/>
    <path d="M 1032.925124 349.331863 
L 829.15237 290.76235 
L 704.623733 395.00321 
" style="fill: none; stroke: #b0b0b0; stroke-width: 0.8"/>
    <path d="M 1033.947977 318.921977 
L 828.897383 261.076832 
L 703.543543 364.0464 
" style="fill: none; stroke: #b0b0b0; stroke-width: 0.8"/>
    <path d="M 1034.983834 288.125447 
L 828.63927 231.027382 
L 702.449236 332.685005 
" style="fill: none; stroke: #b0b0b0; stroke-width: 0.8"/>
    <path d="M 1036.032946 256.934853 
L 828.377974 200.607267 
L 701.340533 300.911042 
" style="fill: none; stroke: #b0b0b0; stroke-width: 0.8"/>
    <path d="M 1037.095568 225.342583 
L 828.113433 169.809586 
L 700.217148 268.716315 
" style="fill: none; stroke: #b0b0b0; stroke-width: 0.8"/>
    <path d="M 1038.171964 193.340828 
L 827.84559 138.627265 
L 699.078788 236.092411 
" style="fill: none; stroke: #b0b0b0; stroke-width: 0.8"/>
   </g>
  </g>
  <g id="axis3d_4">
   <g id="line2d_20">
    <path d="M 706.07018 436.456468 
L 916.912731 504.076731 
" style="fill: none; stroke: #000000; stroke-width: 0.8; stroke-linecap: square"/>
   </g>
   <g id="xtick_17">
    <g id="line2d_21">
     <path d="M 735.677227 444.706868 
L 732.549953 447.442819 
" style="fill: none; stroke: #000000; stroke-width: 0.8; stroke-linecap: square"/>
    </g>
    <g id="text_18">
     <!-- 00 -->
     <g transform="translate(707.351686 489.365693) rotate(-45) scale(0.21 -0.21)">
      <use xlink:href="#DejaVuSans-30"/>
      <use xlink:href="#DejaVuSans-30" x="63.623047"/>
     </g>
    </g>
   </g>
   <g id="xtick_18">
    <g id="line2d_22">
     <path d="M 785.334802 460.621468 
L 782.257306 463.407368 
" style="fill: none; stroke: #000000; stroke-width: 0.8; stroke-linecap: square"/>
    </g>
    <g id="text_19">
     <!-- 01 -->
     <g transform="translate(757.023931 505.435143) rotate(-45) scale(0.21 -0.21)">
      <use xlink:href="#DejaVuSans-30"/>
      <use xlink:href="#DejaVuSans-31" x="63.623047"/>
     </g>
    </g>
   </g>
   <g id="xtick_19">
    <g id="line2d_23">
     <path d="M 835.902405 476.82772 
L 832.877048 479.664949 
" style="fill: none; stroke: #000000; stroke-width: 0.8; stroke-linecap: square"/>
    </g>
    <g id="text_20">
     <!-- 10 -->
     <g transform="translate(807.60781 521.799516) rotate(-45) scale(0.21 -0.21)">
      <use xlink:href="#DejaVuSans-31"/>
      <use xlink:href="#DejaVuSans-30" x="63.623047"/>
     </g>
    </g>
   </g>
   <g id="xtick_20">
    <g id="line2d_24">
     <path d="M 887.405283 493.333715 
L 884.434531 496.223705 
" style="fill: none; stroke: #000000; stroke-width: 0.8; stroke-linecap: square"/>
    </g>
    <g id="text_21">
     <!-- 11 -->
     <g transform="translate(859.128654 538.467006) rotate(-45) scale(0.21 -0.21)">
      <use xlink:href="#DejaVuSans-31"/>
      <use xlink:href="#DejaVuSans-31" x="63.623047"/>
     </g>
    </g>
   </g>
  </g>
  <g id="axis3d_5">
   <g id="line2d_25">
    <path d="M 1031.554898 390.069341 
L 916.912731 504.076731 
" style="fill: none; stroke: #000000; stroke-width: 0.8; stroke-linecap: square"/>
   </g>
   <g id="xtick_21">
    <g id="line2d_26">
     <path d="M 932.140222 486.651363 
L 937.364886 488.306415 
" style="fill: none; stroke: #000000; stroke-width: 0.8; stroke-linecap: square"/>
    </g>
    <g id="text_22">
     <!-- 00 -->
     <g transform="translate(944.70027 499.207917) rotate(-337.5) scale(0.21 -0.21)">
      <use xlink:href="#DejaVuSans-30"/>
      <use xlink:href="#DejaVuSans-30" x="63.623047"/>
     </g>
    </g>
   </g>
   <g id="xtick_22">
    <g id="line2d_27">
     <path d="M 960.5233 458.46129 
L 965.691587 460.064734 
" style="fill: none; stroke: #000000; stroke-width: 0.8; stroke-linecap: square"/>
    </g>
    <g id="text_23">
     <!-- 01 -->
     <g transform="translate(972.913817 470.822876) rotate(-337.5) scale(0.21 -0.21)">
      <use xlink:href="#DejaVuSans-30"/>
      <use xlink:href="#DejaVuSans-31" x="63.623047"/>
     </g>
    </g>
   </g>
   <g id="xtick_23">
    <g id="line2d_28">
     <path d="M 988.028511 431.143114 
L 993.141381 432.697327 
" style="fill: none; stroke: #000000; stroke-width: 0.8; stroke-linecap: square"/>
    </g>
    <g id="text_24">
     <!-- 10 -->
     <g transform="translate(1000.254695 443.315808) rotate(-337.5) scale(0.21 -0.21)">
      <use xlink:href="#DejaVuSans-31"/>
      <use xlink:href="#DejaVuSans-30" x="63.623047"/>
     </g>
    </g>
   </g>
   <g id="xtick_24">
    <g id="line2d_29">
     <path d="M 1014.695964 404.657001 
L 1019.754368 406.164215 
" style="fill: none; stroke: #000000; stroke-width: 0.8; stroke-linecap: square"/>
    </g>
    <g id="text_25">
     <!-- 11 -->
     <g transform="translate(1026.762776 416.646599) rotate(-337.5) scale(0.21 -0.21)">
      <use xlink:href="#DejaVuSans-31"/>
      <use xlink:href="#DejaVuSans-31" x="63.623047"/>
     </g>
    </g>
   </g>
  </g>
  <g id="axis3d_6">
   <g id="line2d_30">
    <path d="M 1031.554898 390.069341 
L 1038.583588 181.103065 
" style="fill: none; stroke: #000000; stroke-width: 0.8; stroke-linecap: square"/>
   </g>
   <g id="xtick_25">
    <g id="line2d_31">
     <path d="M 1030.236457 378.871049 
L 1035.275121 380.345789 
" style="fill: none; stroke: #000000; stroke-width: 0.8; stroke-linecap: square"/>
    </g>
    <g id="text_26">
     <!-- −0.2 -->
     <g transform="translate(1045.424166 373.081799) scale(0.21 -0.21)">
      <use xlink:href="#DejaVuSans-2212"/>
      <use xlink:href="#DejaVuSans-30" x="83.789062"/>
      <use xlink:href="#DejaVuSans-2e" x="147.412109"/>
      <use xlink:href="#DejaVuSans-32" x="179.199219"/>
     </g>
    </g>
   </g>
   <g id="xtick_26">
    <g id="line2d_32">
     <path d="M 1031.235718 348.846285 
L 1036.306909 350.303875 
" style="fill: none; stroke: #000000; stroke-width: 0.8; stroke-linecap: square"/>
    </g>
    <g id="text_27">
     <!-- −0.1 -->
     <g transform="translate(1046.51781 343.073585) scale(0.21 -0.21)">
      <use xlink:href="#DejaVuSans-2212"/>
      <use xlink:href="#DejaVuSans-30" x="83.789062"/>
      <use xlink:href="#DejaVuSans-2e" x="147.412109"/>
      <use xlink:href="#DejaVuSans-31" x="179.199219"/>
     </g>
    </g>
   </g>
   <g id="xtick_27">
    <g id="line2d_33">
     <path d="M 1032.2476 318.442297 
L 1037.351741 319.882185 
" style="fill: none; stroke: #000000; stroke-width: 0.8; stroke-linecap: square"/>
    </g>
    <g id="text_28">
     <!-- 0.0 -->
     <g transform="translate(1047.625255 312.686682) scale(0.21 -0.21)">
      <use xlink:href="#DejaVuSans-30"/>
      <use xlink:href="#DejaVuSans-2e" x="63.623047"/>
      <use xlink:href="#DejaVuSans-30" x="95.410156"/>
     </g>
    </g>
   </g>
   <g id="xtick_28">
    <g id="line2d_34">
     <path d="M 1033.272344 287.651857 
L 1038.409864 289.073472 
" style="fill: none; stroke: #000000; stroke-width: 0.8; stroke-linecap: square"/>
    </g>
    <g id="text_29">
     <!-- 0.1 -->
     <g transform="translate(1048.746764 281.913874) scale(0.21 -0.21)">
      <use xlink:href="#DejaVuSans-30"/>
      <use xlink:href="#DejaVuSans-2e" x="63.623047"/>
      <use xlink:href="#DejaVuSans-31" x="95.410156"/>
     </g>
    </g>
   </g>
   <g id="xtick_29">
    <g id="line2d_35">
     <path d="M 1034.310196 256.467548 
L 1039.481536 257.870303 
" style="fill: none; stroke: #000000; stroke-width: 0.8; stroke-linecap: square"/>
    </g>
    <g id="text_30">
     <!-- 0.2 -->
     <g transform="translate(1049.882607 250.747763) scale(0.21 -0.21)">
      <use xlink:href="#DejaVuSans-30"/>
      <use xlink:href="#DejaVuSans-2e" x="63.623047"/>
      <use xlink:href="#DejaVuSans-32" x="95.410156"/>
     </g>
    </g>
   </g>
   <g id="xtick_30">
    <g id="line2d_36">
     <path d="M 1035.361409 224.881764 
L 1040.567017 226.265054 
" style="fill: none; stroke: #000000; stroke-width: 0.8; stroke-linecap: square"/>
    </g>
    <g id="text_31">
     <!-- 0.3 -->
     <g transform="translate(1051.03306 219.180761) scale(0.21 -0.21)">
      <use xlink:href="#DejaVuSans-30"/>
      <use xlink:href="#DejaVuSans-2e" x="63.623047"/>
      <use xlink:href="#DejaVuSans-33" x="95.410156"/>
     </g>
    </g>
   </g>
   <g id="xtick_31">
    <g id="line2d_37">
     <path d="M 1036.426244 192.886702 
L 1041.666575 194.249903 
" style="fill: none; stroke: #000000; stroke-width: 0.8; stroke-linecap: square"/>
    </g>
    <g id="text_32">
     <!-- 0.4 -->
     <g transform="translate(1052.198408 187.205083) scale(0.21 -0.21)">
      <use xlink:href="#DejaVuSans-30"/>
      <use xlink:href="#DejaVuSans-2e" x="63.623047"/>
      <use xlink:href="#DejaVuSans-34" x="95.410156"/>
     </g>
    </g>
   </g>
  </g>
  <g id="axes_2">
   <g id="Poly3DCollection_4">
    <path d="M 835.357653 273.36569 
L 835.517927 295.351012 
L 859.458292 302.243947 
L 859.405915 280.194948 
z
" clip-path="url(#p479006ed2d)" style="fill: #648fff"/>
    <path d="M 821.29888 307.327617 
L 845.357257 314.324137 
L 859.458292 302.243947 
L 835.517927 295.351012 
z
" clip-path="url(#p479006ed2d)" style="fill: #577ddf"/>
    <path d="M 821.072703 285.231824 
L 821.29888 307.327617 
L 835.517927 295.351012 
L 835.357653 273.36569 
z
" clip-path="url(#p479006ed2d)" style="fill: #324880"/>
    <path d="M 845.240044 292.164178 
L 859.405915 280.194948 
L 859.458292 302.243947 
L 845.357257 314.324137 
z
" clip-path="url(#p479006ed2d)" style="fill: #648fff"/>
    <path d="M 821.072703 285.231824 
L 835.357653 273.36569 
L 859.405915 280.194948 
L 845.240044 292.164178 
z
" clip-path="url(#p479006ed2d)" style="fill: #3f599f"/>
    <path d="M 821.072703 285.231824 
L 845.240044 292.164178 
L 845.357257 314.324137 
L 821.29888 307.327617 
z
" clip-path="url(#p479006ed2d)" style="fill: #324880"/>
    <path d="M 806.571756 297.277381 
L 806.90448 322.404595 
L 831.06725 329.515486 
L 830.859037 304.315184 
z
" clip-path="url(#p479006ed2d)" style="fill: #648fff"/>
    <path d="M 792.261719 334.760468 
L 816.544057 341.979783 
L 831.06725 329.515486 
L 806.90448 322.404595 
z
" clip-path="url(#p479006ed2d)" style="fill: #577ddf"/>
    <path d="M 791.849876 309.506461 
L 792.261719 334.760468 
L 806.90448 322.404595 
L 806.571756 297.277381 
z
" clip-path="url(#p479006ed2d)" style="fill: #324880"/>
    <path d="M 932.813286 301.04127 
L 932.813286 301.04127 
L 957.712518 308.112187 
L 957.712518 308.112187 
z
" clip-path="url(#p479006ed2d)" style="fill: #648fff"/>
    <path d="M 816.257957 316.652138 
L 830.859037 304.315184 
L 831.06725 329.515486 
L 816.544057 341.979783 
z
" clip-path="url(#p479006ed2d)" style="fill: #648fff"/>
    <path d="M 791.849876 309.506461 
L 806.571756 297.277381 
L 830.859037 304.315184 
L 816.257957 316.652138 
z
" clip-path="url(#p479006ed2d)" style="fill: #3f599f"/>
    <path d="M 919.020591 313.327983 
L 919.020591 313.327983 
L 932.813286 301.04127 
L 932.813286 301.04127 
z
" clip-path="url(#p479006ed2d)" style="fill: #324880"/>
    <path d="M 763.342974 406.120684 
L 787.635283 413.696335 
L 802.459863 400.617052 
L 778.286551 393.155814 
z
" clip-path="url(#p479006ed2d)" style="fill: #577ddf"/>
    <path d="M 791.849876 309.506461 
L 816.257957 316.652138 
L 816.544057 341.979783 
L 792.261719 334.760468 
z
" clip-path="url(#p479006ed2d)" style="fill: #324880"/>
    <path d="M 919.020591 313.327983 
L 944.049716 320.507538 
L 957.712518 308.112187 
L 932.813286 301.04127 
z
" clip-path="url(#p479006ed2d)" style="fill: #577ddf"/>
    <path d="M 919.020591 313.327983 
L 932.813286 301.04127 
L 957.712518 308.112187 
L 944.049716 320.507538 
z
" clip-path="url(#p479006ed2d)" style="fill: #3f599f"/>
    <path d="M 776.901975 321.923291 
L 778.286551 393.155814 
L 802.459863 400.617052 
L 801.431712 329.179341 
z
" clip-path="url(#p479006ed2d)" style="fill: #648fff"/>
    <path d="M 944.049716 320.507538 
L 957.712518 308.112187 
L 957.712518 308.112187 
L 944.049716 320.507538 
z
" clip-path="url(#p479006ed2d)" style="fill: #648fff"/>
    <path d="M 761.722808 334.532228 
L 763.342974 406.120684 
L 778.286551 393.155814 
L 776.901975 321.923291 
z
" clip-path="url(#p479006ed2d)" style="fill: #324880"/>
    <path d="M 919.020591 313.327983 
L 944.049716 320.507538 
L 944.049716 320.507538 
L 919.020591 313.327983 
z
" clip-path="url(#p479006ed2d)" style="fill: #324880"/>
    <path d="M 786.375054 341.901228 
L 801.431712 329.179341 
L 802.459863 400.617052 
L 787.635283 413.696335 
z
" clip-path="url(#p479006ed2d)" style="fill: #648fff"/>
    <path d="M 761.722808 334.532228 
L 786.375054 341.901228 
L 787.635283 413.696335 
L 763.342974 406.120684 
z
" clip-path="url(#p479006ed2d)" style="fill: #324880"/>
    <path d="M 905.015636 325.803779 
L 905.015636 325.803779 
L 930.175716 333.094496 
L 930.175716 333.094496 
z
" clip-path="url(#p479006ed2d)" style="fill: #648fff"/>
    <path d="M 761.722808 334.532228 
L 776.901975 321.923291 
L 801.431712 329.179341 
L 786.375054 341.901228 
z
" clip-path="url(#p479006ed2d)" style="fill: #3f599f"/>
    <path d="M 890.793483 338.473058 
L 890.793483 338.473058 
L 905.015636 325.803779 
L 905.015636 325.803779 
z
" clip-path="url(#p479006ed2d)" style="fill: #324880"/>
    <path d="M 890.793483 338.473058 
L 905.015636 325.803779 
L 930.175716 333.094496 
L 916.085582 345.877539 
z
" clip-path="url(#p479006ed2d)" style="fill: #3f599f"/>
    <path d="M 890.793483 338.473058 
L 916.085582 345.877539 
L 930.175716 333.094496 
L 905.015636 325.803779 
z
" clip-path="url(#p479006ed2d)" style="fill: #577ddf"/>
    <path d="M 916.085582 345.877539 
L 930.175716 333.094496 
L 930.175716 333.094496 
L 916.085582 345.877539 
z
" clip-path="url(#p479006ed2d)" style="fill: #648fff"/>
    <path d="M 890.793483 338.473058 
L 916.085582 345.877539 
L 916.085582 345.877539 
L 890.793483 338.473058 
z
" clip-path="url(#p479006ed2d)" style="fill: #324880"/>
    <path d="M 861.774406 414.490735 
L 887.066239 422.277168 
L 901.454178 408.834952 
L 876.293707 401.168762 
z
" clip-path="url(#p479006ed2d)" style="fill: #577ddf"/>
    <path d="M 876.349041 351.340355 
L 876.293707 401.168762 
L 901.454178 408.834952 
L 901.774223 358.861283 
z
" clip-path="url(#p479006ed2d)" style="fill: #648fff"/>
    <path d="M 861.677057 364.410349 
L 861.774406 414.490735 
L 876.293707 401.168762 
L 876.349041 351.340355 
z
" clip-path="url(#p479006ed2d)" style="fill: #324880"/>
    <path d="M 746.306966 347.337765 
L 746.306966 347.337765 
L 771.08257 354.822372 
L 771.08257 354.822372 
z
" clip-path="url(#p479006ed2d)" style="fill: #648fff"/>
    <path d="M 730.64887 360.344536 
L 730.64887 360.344536 
L 746.306966 347.337765 
L 746.306966 347.337765 
z
" clip-path="url(#p479006ed2d)" style="fill: #324880"/>
    <path d="M 887.236389 372.050493 
L 901.774223 358.861283 
L 901.454178 408.834952 
L 887.066239 422.277168 
z
" clip-path="url(#p479006ed2d)" style="fill: #648fff"/>
    <path d="M 730.64887 360.344536 
L 746.306966 347.337765 
L 771.08257 354.822372 
L 755.548675 367.947493 
z
" clip-path="url(#p479006ed2d)" style="fill: #3f599f"/>
    <path d="M 730.64887 360.344536 
L 755.548675 367.947493 
L 771.08257 354.822372 
L 746.306966 347.337765 
z
" clip-path="url(#p479006ed2d)" style="fill: #577ddf"/>
    <path d="M 861.677057 364.410349 
L 887.236389 372.050493 
L 887.066239 422.277168 
L 861.774406 414.490735 
z
" clip-path="url(#p479006ed2d)" style="fill: #324880"/>
    <path d="M 912.638951 424.308189 
L 938.425396 432.220214 
L 952.558284 418.561644 
L 926.90956 410.773051 
z
" clip-path="url(#p479006ed2d)" style="fill: #577ddf"/>
    <path d="M 755.548675 367.947493 
L 771.08257 354.822372 
L 771.08257 354.822372 
L 755.548675 367.947493 
z
" clip-path="url(#p479006ed2d)" style="fill: #648fff"/>
    <path d="M 861.677057 364.410349 
L 876.349041 351.340355 
L 901.774223 358.861283 
L 887.236389 372.050493 
z
" clip-path="url(#p479006ed2d)" style="fill: #3f599f"/>
    <path d="M 927.430928 366.450696 
L 926.90956 410.773051 
L 952.558284 418.561644 
L 953.322333 374.109536 
z
" clip-path="url(#p479006ed2d)" style="fill: #648fff"/>
    <path d="M 730.64887 360.344536 
L 755.548675 367.947493 
L 755.548675 367.947493 
L 730.64887 360.344536 
z
" clip-path="url(#p479006ed2d)" style="fill: #324880"/>
    <path d="M 913.030315 379.760761 
L 912.638951 424.308189 
L 926.90956 410.773051 
L 927.430928 366.450696 
z
" clip-path="url(#p479006ed2d)" style="fill: #324880"/>
    <path d="M 939.062081 387.542123 
L 953.322333 374.109536 
L 952.558284 418.561644 
L 938.425396 432.220214 
z
" clip-path="url(#p479006ed2d)" style="fill: #648fff"/>
    <path d="M 913.030315 379.760761 
L 939.062081 387.542123 
L 938.425396 432.220214 
L 912.638951 424.308189 
z
" clip-path="url(#p479006ed2d)" style="fill: #324880"/>
    <path d="M 913.030315 379.760761 
L 927.430928 366.450696 
L 953.322333 374.109536 
L 939.062081 387.542123 
z
" clip-path="url(#p479006ed2d)" style="fill: #3f599f"/>
   </g>
   <g id="Poly3DCollection_5">
    <path d="M 710.331145 363.119395 
L 915.682015 426.16035 
L 1027.514748 319.800584 
L 830.50302 264.131106 
z
" clip-path="url(#p479006ed2d)" style="fill-opacity: 0.25"/>
   </g>
   <g id="Poly3DCollection_6">
    <path d="M 869.61861 299.157122 
L 883.662783 287.083445 
L 908.130982 294.031957 
L 894.211182 306.211453 
z
" clip-path="url(#p479006ed2d)" style="fill: #3f599f"/>
    <path d="M 883.662783 287.083445 
L 883.77624 243.374705 
L 908.465227 250.19366 
L 908.130982 294.031957 
z
" clip-path="url(#p479006ed2d)" style="fill: #324880"/>
    <path d="M 869.61861 299.157122 
L 869.606084 255.223607 
L 883.77624 243.374705 
L 883.662783 287.083445 
z
" clip-path="url(#p479006ed2d)" style="fill: #648fff"/>
    <path d="M 894.211182 306.211453 
L 908.130982 294.031957 
L 908.465227 250.19366 
L 894.421708 262.147353 
z
" clip-path="url(#p479006ed2d)" style="fill: #324880"/>
    <path d="M 869.61861 299.157122 
L 894.211182 306.211453 
L 894.421708 262.147353 
L 869.606084 255.223607 
z
" clip-path="url(#p479006ed2d)" style="fill: #648fff"/>
    <path d="M 869.606084 255.223607 
L 894.421708 262.147353 
L 908.465227 250.19366 
L 883.77624 243.374705 
z
" clip-path="url(#p479006ed2d)" style="fill: #577ddf"/>
    <path d="M 982.83155 315.245523 
L 982.83155 315.245523 
L 1008.173305 322.442109 
L 1008.173305 322.442109 
z
" clip-path="url(#p479006ed2d)" style="fill: #324880"/>
    <path d="M 840.882645 323.861229 
L 855.36021 311.414968 
L 880.078114 318.577554 
L 865.726838 331.134581 
z
" clip-path="url(#p479006ed2d)" style="fill: #3f599f"/>
    <path d="M 969.301491 327.75096 
L 969.301491 327.75096 
L 982.83155 315.245523 
L 982.83155 315.245523 
z
" clip-path="url(#p479006ed2d)" style="fill: #324880"/>
    <path d="M 855.36021 311.414968 
L 855.198797 261.357742 
L 880.172136 268.370865 
L 880.078114 318.577554 
z
" clip-path="url(#p479006ed2d)" style="fill: #324880"/>
    <path d="M 969.301491 327.75096 
L 982.83155 315.245523 
L 1008.173305 322.442109 
L 994.778899 335.059105 
z
" clip-path="url(#p479006ed2d)" style="fill: #3f599f"/>
    <path d="M 969.301491 327.75096 
L 994.778899 335.059105 
L 1008.173305 322.442109 
L 982.83155 315.245523 
z
" clip-path="url(#p479006ed2d)" style="fill: #577ddf"/>
    <path d="M 840.882645 323.861229 
L 840.569452 273.544695 
L 855.198797 261.357742 
L 855.36021 311.414968 
z
" clip-path="url(#p479006ed2d)" style="fill: #648fff"/>
    <path d="M 994.778899 335.059105 
L 1008.173305 322.442109 
L 1008.173305 322.442109 
L 994.778899 335.059105 
z
" clip-path="url(#p479006ed2d)" style="fill: #324880"/>
    <path d="M 969.301491 327.75096 
L 994.778899 335.059105 
L 994.778899 335.059105 
L 969.301491 327.75096 
z
" clip-path="url(#p479006ed2d)" style="fill: #324880"/>
    <path d="M 865.726838 331.134581 
L 880.078114 318.577554 
L 880.172136 268.370865 
L 865.671708 280.667408 
z
" clip-path="url(#p479006ed2d)" style="fill: #324880"/>
    <path d="M 840.882645 323.861229 
L 865.726838 331.134581 
L 865.671708 280.667408 
L 840.569452 273.544695 
z
" clip-path="url(#p479006ed2d)" style="fill: #648fff"/>
    <path d="M 840.569452 273.544695 
L 865.671708 280.667408 
L 880.172136 268.370865 
L 855.198797 261.357742 
z
" clip-path="url(#p479006ed2d)" style="fill: #577ddf"/>
    <path d="M 826.180822 336.500282 
L 826.180822 336.500282 
L 851.152262 343.88699 
L 851.152262 343.88699 
z
" clip-path="url(#p479006ed2d)" style="fill: #324880"/>
    <path d="M 811.24949 349.336643 
L 811.24949 349.336643 
L 826.180822 336.500282 
L 826.180822 336.500282 
z
" clip-path="url(#p479006ed2d)" style="fill: #648fff"/>
    <path d="M 955.561348 340.450572 
L 955.561348 340.450572 
L 981.175578 347.87289 
L 981.175578 347.87289 
z
" clip-path="url(#p479006ed2d)" style="fill: #324880"/>
    <path d="M 811.24949 349.336643 
L 836.349133 356.839378 
L 851.152262 343.88699 
L 826.180822 336.500282 
z
" clip-path="url(#p479006ed2d)" style="fill: #577ddf"/>
    <path d="M 811.24949 349.336643 
L 826.180822 336.500282 
L 851.152262 343.88699 
L 836.349133 356.839378 
z
" clip-path="url(#p479006ed2d)" style="fill: #3f599f"/>
    <path d="M 941.606189 353.348917 
L 941.606189 353.348917 
L 955.561348 340.450572 
L 955.561348 340.450572 
z
" clip-path="url(#p479006ed2d)" style="fill: #648fff"/>
    <path d="M 836.349133 356.839378 
L 851.152262 343.88699 
L 851.152262 343.88699 
L 836.349133 356.839378 
z
" clip-path="url(#p479006ed2d)" style="fill: #324880"/>
    <path d="M 941.606189 353.348917 
L 955.561348 340.450572 
L 981.175578 347.87289 
L 967.358417 360.888104 
z
" clip-path="url(#p479006ed2d)" style="fill: #3f599f"/>
    <path d="M 941.606189 353.348917 
L 967.358417 360.888104 
L 981.175578 347.87289 
L 955.561348 340.450572 
z
" clip-path="url(#p479006ed2d)" style="fill: #577ddf"/>
    <path d="M 811.24949 349.336643 
L 836.349133 356.839378 
L 836.349133 356.839378 
L 811.24949 349.336643 
z
" clip-path="url(#p479006ed2d)" style="fill: #648fff"/>
    <path d="M 967.358417 360.888104 
L 981.175578 347.87289 
L 981.175578 347.87289 
L 967.358417 360.888104 
z
" clip-path="url(#p479006ed2d)" style="fill: #324880"/>
    <path d="M 941.606189 353.348917 
L 967.358417 360.888104 
L 967.358417 360.888104 
L 941.606189 353.348917 
z
" clip-path="url(#p479006ed2d)" style="fill: #648fff"/>
    <path d="M 780.67646 375.620062 
L 796.083232 362.374969 
L 821.312034 369.996485 
L 806.035371 383.363203 
z
" clip-path="url(#p479006ed2d)" style="fill: #3f599f"/>
    <path d="M 796.083232 362.374969 
L 794.91883 287.76171 
L 820.536146 295.156474 
L 821.312034 369.996485 
z
" clip-path="url(#p479006ed2d)" style="fill: #324880"/>
    <path d="M 780.67646 375.620062 
L 779.261308 300.613414 
L 794.91883 287.76171 
L 796.083232 362.374969 
z
" clip-path="url(#p479006ed2d)" style="fill: #648fff"/>
    <path d="M 846.772111 377.687869 
L 846.639301 351.460398 
L 872.474706 359.143919 
L 872.46666 385.450085 
z
" clip-path="url(#p479006ed2d)" style="fill: #324880"/>
    <path d="M 831.628612 391.177895 
L 846.772111 377.687869 
L 872.46666 385.450085 
L 857.459445 399.065134 
z
" clip-path="url(#p479006ed2d)" style="fill: #3f599f"/>
    <path d="M 831.628612 391.177895 
L 831.411071 364.813907 
L 846.639301 351.460398 
L 846.772111 377.687869 
z
" clip-path="url(#p479006ed2d)" style="fill: #648fff"/>
    <path d="M 806.035371 383.363203 
L 821.312034 369.996485 
L 820.536146 295.156474 
L 805.012753 308.128045 
z
" clip-path="url(#p479006ed2d)" style="fill: #324880"/>
    <path d="M 780.67646 375.620062 
L 806.035371 383.363203 
L 805.012753 308.128045 
L 779.261308 300.613414 
z
" clip-path="url(#p479006ed2d)" style="fill: #648fff"/>
    <path d="M 857.459445 399.065134 
L 872.46666 385.450085 
L 872.474706 359.143919 
L 857.384259 372.62187 
z
" clip-path="url(#p479006ed2d)" style="fill: #324880"/>
    <path d="M 831.411071 364.813907 
L 857.384259 372.62187 
L 872.474706 359.143919 
L 846.639301 351.460398 
z
" clip-path="url(#p479006ed2d)" style="fill: #577ddf"/>
    <path d="M 779.261308 300.613414 
L 805.012753 308.128045 
L 820.536146 295.156474 
L 794.91883 287.76171 
z
" clip-path="url(#p479006ed2d)" style="fill: #577ddf"/>
    <path d="M 831.628612 391.177895 
L 857.459445 399.065134 
L 857.384259 372.62187 
L 831.411071 364.813907 
z
" clip-path="url(#p479006ed2d)" style="fill: #648fff"/>
    <path d="M 898.398935 393.284118 
L 898.532685 369.994317 
L 924.835013 377.831183 
L 924.572248 401.190967 
z
" clip-path="url(#p479006ed2d)" style="fill: #324880"/>
    <path d="M 883.531194 407.025935 
L 898.398935 393.284118 
L 924.572248 401.190967 
L 909.847246 415.061332 
z
" clip-path="url(#p479006ed2d)" style="fill: #3f599f"/>
    <path d="M 883.531194 407.025935 
L 883.592848 383.614733 
L 898.532685 369.994317 
L 898.398935 393.284118 
z
" clip-path="url(#p479006ed2d)" style="fill: #648fff"/>
    <path d="M 909.847246 415.061332 
L 924.572248 401.190967 
L 924.835013 377.831183 
L 910.039333 391.579639 
z
" clip-path="url(#p479006ed2d)" style="fill: #324880"/>
    <path d="M 883.592848 383.614733 
L 910.039333 391.579639 
L 924.835013 377.831183 
L 898.532685 369.994317 
z
" clip-path="url(#p479006ed2d)" style="fill: #577ddf"/>
    <path d="M 883.531194 407.025935 
L 909.847246 415.061332 
L 910.039333 391.579639 
L 883.592848 383.614733 
z
" clip-path="url(#p479006ed2d)" style="fill: #648fff"/>
   </g>
   <g id="text_33">
    <!-- Imaginary Amplitude (ρ) -->
    <g transform="translate(735.696563 51.6) scale(0.21 -0.21)">
     <defs>
      <path id="DejaVuSans-49" d="M 628 4666 
L 1259 4666 
L 1259 0 
L 628 0 
L 628 4666 
z
" transform="scale(0.015625)"/>
      <path id="DejaVuSans-67" d="M 2906 1791 
Q 2906 2416 2648 2759 
Q 2391 3103 1925 3103 
Q 1463 3103 1205 2759 
Q 947 2416 947 1791 
Q 947 1169 1205 825 
Q 1463 481 1925 481 
Q 2391 481 2648 825 
Q 2906 1169 2906 1791 
z
M 3481 434 
Q 3481 -459 3084 -895 
Q 2688 -1331 1869 -1331 
Q 1566 -1331 1297 -1286 
Q 1028 -1241 775 -1147 
L 775 -588 
Q 1028 -725 1275 -790 
Q 1522 -856 1778 -856 
Q 2344 -856 2625 -561 
Q 2906 -266 2906 331 
L 2906 616 
Q 2728 306 2450 153 
Q 2172 0 1784 0 
Q 1141 0 747 490 
Q 353 981 353 1791 
Q 353 2603 747 3093 
Q 1141 3584 1784 3584 
Q 2172 3584 2450 3431 
Q 2728 3278 2906 2969 
L 2906 3500 
L 3481 3500 
L 3481 434 
z
" transform="scale(0.015625)"/>
      <path id="DejaVuSans-6e" d="M 3513 2113 
L 3513 0 
L 2938 0 
L 2938 2094 
Q 2938 2591 2744 2837 
Q 2550 3084 2163 3084 
Q 1697 3084 1428 2787 
Q 1159 2491 1159 1978 
L 1159 0 
L 581 0 
L 581 3500 
L 1159 3500 
L 1159 2956 
Q 1366 3272 1645 3428 
Q 1925 3584 2291 3584 
Q 2894 3584 3203 3211 
Q 3513 2838 3513 2113 
z
" transform="scale(0.015625)"/>
      <path id="DejaVuSans-72" d="M 2631 2963 
Q 2534 3019 2420 3045 
Q 2306 3072 2169 3072 
Q 1681 3072 1420 2755 
Q 1159 2438 1159 1844 
L 1159 0 
L 581 0 
L 581 3500 
L 1159 3500 
L 1159 2956 
Q 1341 3275 1631 3429 
Q 1922 3584 2338 3584 
Q 2397 3584 2469 3576 
Q 2541 3569 2628 3553 
L 2631 2963 
z
" transform="scale(0.015625)"/>
      <path id="DejaVuSans-79" d="M 2059 -325 
Q 1816 -950 1584 -1140 
Q 1353 -1331 966 -1331 
L 506 -1331 
L 506 -850 
L 844 -850 
Q 1081 -850 1212 -737 
Q 1344 -625 1503 -206 
L 1606 56 
L 191 3500 
L 800 3500 
L 1894 763 
L 2988 3500 
L 3597 3500 
L 2059 -325 
z
" transform="scale(0.015625)"/>
     </defs>
     <use xlink:href="#DejaVuSans-49"/>
     <use xlink:href="#DejaVuSans-6d" x="29.492188"/>
     <use xlink:href="#DejaVuSans-61" x="126.904297"/>
     <use xlink:href="#DejaVuSans-67" x="188.183594"/>
     <use xlink:href="#DejaVuSans-69" x="251.660156"/>
     <use xlink:href="#DejaVuSans-6e" x="279.443359"/>
     <use xlink:href="#DejaVuSans-61" x="342.822266"/>
     <use xlink:href="#DejaVuSans-72" x="404.101562"/>
     <use xlink:href="#DejaVuSans-79" x="445.214844"/>
     <use xlink:href="#DejaVuSans-20" x="504.394531"/>
     <use xlink:href="#DejaVuSans-41" x="536.181641"/>
     <use xlink:href="#DejaVuSans-6d" x="604.589844"/>
     <use xlink:href="#DejaVuSans-70" x="702.001953"/>
     <use xlink:href="#DejaVuSans-6c" x="765.478516"/>
     <use xlink:href="#DejaVuSans-69" x="793.261719"/>
     <use xlink:href="#DejaVuSans-74" x="821.044922"/>
     <use xlink:href="#DejaVuSans-75" x="860.253906"/>
     <use xlink:href="#DejaVuSans-64" x="923.632812"/>
     <use xlink:href="#DejaVuSans-65" x="987.109375"/>
     <use xlink:href="#DejaVuSans-20" x="1048.632812"/>
     <use xlink:href="#DejaVuSans-28" x="1080.419922"/>
     <use xlink:href="#DejaVuSans-3c1" x="1119.433594"/>
     <use xlink:href="#DejaVuSans-29" x="1182.910156"/>
    </g>
   </g>
  </g>
 </g>
 <defs>
  <clipPath id="pfbe7acd3da">
   <rect x="28.8" y="57.6" width="518.4" height="518.4"/>
  </clipPath>
  <clipPath id="p479006ed2d">
   <rect x="604.8" y="57.6" width="518.4" height="518.4"/>
  </clipPath>
 </defs>
</svg>
