<?xml version="1.0" encoding="utf-8" standalone="no"?>
<!DOCTYPE svg PUBLIC "-//W3C//DTD SVG 1.1//EN"
  "http://www.w3.org/Graphics/SVG/1.1/DTD/svg11.dtd">
<svg xmlns:xlink="http://www.w3.org/1999/xlink" width="1152pt" height="576pt" viewBox="0 0 1152 576" xmlns="http://www.w3.org/2000/svg" version="1.1">
 <metadata>
  <rdf:RDF xmlns:dc="http://purl.org/dc/elements/1.1/" xmlns:cc="http://creativecommons.org/ns#" xmlns:rdf="http://www.w3.org/1999/02/22-rdf-syntax-ns#">
   <cc:Work>
    <dc:type rdf:resource="http://purl.org/dc/dcmitype/StillImage"/>
    <dc:date>2024-11-04T21:57:45.651481</dc:date>
    <dc:format>image/svg+xml</dc:format>
    <dc:creator>
     <cc:Agent>
      <dc:title>Matplotlib v3.9.2, https://matplotlib.org/</dc:title>
     </cc:Agent>
    </dc:creator>
   </cc:Work>
  </rdf:RDF>
 </metadata>
 <defs>
  <style type="text/css">*{stroke-linejoin: round; stroke-linecap: butt}</style>
 </defs>
 <g id="figure_1">
  <g id="patch_1">
   <path d="M 0 576 
L 1152 576 
L 1152 0 
L 0 0 
z
" style="fill: #ffffff"/>
  </g>
  <g id="patch_2">
   <path d="M 28.8 576 
L 547.2 576 
L 547.2 57.6 
L 28.8 57.6 
z
" style="fill: #ffffff"/>
  </g>
  <g id="pane3d_1">
   <g id="patch_3">
    <path d="M 130.07018 436.456468 
L 253.494133 330.550231 
L 251.743197 126.70673 
L 122.643358 223.613571 
" style="fill: #f2f2f2; opacity: 0.5; stroke: #f2f2f2; stroke-linejoin: miter"/>
   </g>
  </g>
  <g id="pane3d_2">
   <g id="patch_4">
    <path d="M 253.494133 330.550231 
L 455.554898 390.069341 
L 462.583588 181.103065 
L 251.743197 126.70673 
" style="fill: #e6e6e6; opacity: 0.5; stroke: #e6e6e6; stroke-linejoin: miter"/>
   </g>
  </g>
  <g id="pane3d_3">
   <g id="patch_5">
    <path d="M 130.07018 436.456468 
L 340.912731 504.076731 
L 455.554898 390.069341 
L 253.494133 330.550231 
" style="fill: #ececec; opacity: 0.5; stroke: #ececec; stroke-linejoin: miter"/>
   </g>
  </g>
  <g id="grid3d_1">
   <g id="Line3DCollection_1">
    <path d="M 158.635886 445.617904 
L 280.925726 338.630493 
L 280.328796 134.081748 
" style="fill: none; stroke: #b0b0b0; stroke-width: 0.8"/>
    <path d="M 208.310046 461.549127 
L 328.58611 352.669358 
L 330.022474 146.902603 
" style="fill: none; stroke: #b0b0b0; stroke-width: 0.8"/>
    <path d="M 258.89502 477.772462 
L 377.066152 366.949661 
L 380.607663 159.953465 
" style="fill: none; stroke: #b0b0b0; stroke-width: 0.8"/>
    <path d="M 310.41609 494.296016 
L 426.38718 381.477685 
L 432.108569 173.24058 
" style="fill: none; stroke: #b0b0b0; stroke-width: 0.8"/>
   </g>
  </g>
  <g id="grid3d_2">
   <g id="Line3DCollection_2">
    <path d="M 141.757365 209.265931 
L 148.301379 420.812846 
L 357.880707 487.202708 
" style="fill: none; stroke: #b0b0b0; stroke-width: 0.8"/>
    <path d="M 173.704273 185.285468 
L 178.805664 394.638072 
L 386.24502 458.995448 
" style="fill: none; stroke: #b0b0b0; stroke-width: 0.8"/>
    <path d="M 204.65707 162.051218 
L 208.400054 369.24405 
L 413.731787 431.660877 
" style="fill: none; stroke: #b0b0b0; stroke-width: 0.8"/>
    <path d="M 234.661448 139.528886 
L 237.124663 344.596362 
L 440.38111 405.159111 
" style="fill: none; stroke: #b0b0b0; stroke-width: 0.8"/>
   </g>
  </g>
  <g id="grid3d_3">
   <g id="Line3DCollection_3">
    <path d="M 455.747722 384.336597 
L 253.446026 324.949679 
L 129.866671 430.624165 
" style="fill: none; stroke: #b0b0b0; stroke-width: 0.8"/>
    <path d="M 456.657832 357.278592 
L 253.219022 298.521971 
L 128.905947 403.091085 
" style="fill: none; stroke: #b0b0b0; stroke-width: 0.8"/>
    <path d="M 457.578307 329.912442 
L 252.989525 271.803973 
L 127.933979 375.235773 
" style="fill: none; stroke: #b0b0b0; stroke-width: 0.8"/>
    <path d="M 458.509324 302.232852 
L 252.757493 244.790876 
L 126.950569 347.052539 
" style="fill: none; stroke: #b0b0b0; stroke-width: 0.8"/>
    <path d="M 459.451066 274.234408 
L 252.522884 217.477764 
L 125.955513 318.535558 
" style="fill: none; stroke: #b0b0b0; stroke-width: 0.8"/>
    <path d="M 460.40372 245.911566 
L 252.285655 189.859609 
L 124.948604 289.678867 
" style="fill: none; stroke: #b0b0b0; stroke-width: 0.8"/>
    <path d="M 461.367475 217.258657 
L 252.045762 161.931275 
L 123.929628 260.476358 
" style="fill: none; stroke: #b0b0b0; stroke-width: 0.8"/>
    <path d="M 462.342528 188.269878 
L 251.803159 133.687505 
L 122.898366 230.921778 
" style="fill: none; stroke: #b0b0b0; stroke-width: 0.8"/>
   </g>
  </g>
  <g id="axis3d_1">
   <g id="line2d_1">
    <path d="M 130.07018 436.456468 
L 340.912731 504.076731 
" style="fill: none; stroke: #000000; stroke-width: 0.8; stroke-linecap: square"/>
   </g>
   <g id="xtick_1">
    <g id="line2d_2">
     <path d="M 159.677227 444.706868 
L 156.549953 447.442819 
" style="fill: none; stroke: #000000; stroke-width: 0.8; stroke-linecap: square"/>
    </g>
    <g id="text_1">
     <!-- 00 -->
     <g transform="translate(131.351686 489.365693) rotate(-45) scale(0.21 -0.21)">
      <defs>
       <path id="DejaVuSans-30" d="M 2034 4250 
Q 1547 4250 1301 3770 
Q 1056 3291 1056 2328 
Q 1056 1369 1301 889 
Q 1547 409 2034 409 
Q 2525 409 2770 889 
Q 3016 1369 3016 2328 
Q 3016 3291 2770 3770 
Q 2525 4250 2034 4250 
z
M 2034 4750 
Q 2819 4750 3233 4129 
Q 3647 3509 3647 2328 
Q 3647 1150 3233 529 
Q 2819 -91 2034 -91 
Q 1250 -91 836 529 
Q 422 1150 422 2328 
Q 422 3509 836 4129 
Q 1250 4750 2034 4750 
z
" transform="scale(0.015625)"/>
      </defs>
      <use xlink:href="#DejaVuSans-30"/>
      <use xlink:href="#DejaVuSans-30" x="63.623047"/>
     </g>
    </g>
   </g>
   <g id="xtick_2">
    <g id="line2d_3">
     <path d="M 209.334802 460.621468 
L 206.257306 463.407368 
" style="fill: none; stroke: #000000; stroke-width: 0.8; stroke-linecap: square"/>
    </g>
    <g id="text_2">
     <!-- 01 -->
     <g transform="translate(181.023931 505.435143) rotate(-45) scale(0.21 -0.21)">
      <defs>
       <path id="DejaVuSans-31" d="M 794 531 
L 1825 531 
L 1825 4091 
L 703 3866 
L 703 4441 
L 1819 4666 
L 2450 4666 
L 2450 531 
L 3481 531 
L 3481 0 
L 794 0 
L 794 531 
z
" transform="scale(0.015625)"/>
      </defs>
      <use xlink:href="#DejaVuSans-30"/>
      <use xlink:href="#DejaVuSans-31" x="63.623047"/>
     </g>
    </g>
   </g>
   <g id="xtick_3">
    <g id="line2d_4">
     <path d="M 259.902405 476.82772 
L 256.877048 479.664949 
" style="fill: none; stroke: #000000; stroke-width: 0.8; stroke-linecap: square"/>
    </g>
    <g id="text_3">
     <!-- 10 -->
     <g transform="translate(231.60781 521.799516) rotate(-45) scale(0.21 -0.21)">
      <use xlink:href="#DejaVuSans-31"/>
      <use xlink:href="#DejaVuSans-30" x="63.623047"/>
     </g>
    </g>
   </g>
   <g id="xtick_4">
    <g id="line2d_5">
     <path d="M 311.405283 493.333715 
L 308.434531 496.223705 
" style="fill: none; stroke: #000000; stroke-width: 0.8; stroke-linecap: square"/>
    </g>
    <g id="text_4">
     <!-- 11 -->
     <g transform="translate(283.128654 538.467006) rotate(-45) scale(0.21 -0.21)">
      <use xlink:href="#DejaVuSans-31"/>
      <use xlink:href="#DejaVuSans-31" x="63.623047"/>
     </g>
    </g>
   </g>
  </g>
  <g id="axis3d_2">
   <g id="line2d_6">
    <path d="M 455.554898 390.069341 
L 340.912731 504.076731 
" style="fill: none; stroke: #000000; stroke-width: 0.8; stroke-linecap: square"/>
   </g>
   <g id="xtick_5">
    <g id="line2d_7">
     <path d="M 356.140222 486.651363 
L 361.364886 488.306415 
" style="fill: none; stroke: #000000; stroke-width: 0.8; stroke-linecap: square"/>
    </g>
    <g id="text_5">
     <!-- 00 -->
     <g transform="translate(368.70027 499.207917) rotate(-337.5) scale(0.21 -0.21)">
      <use xlink:href="#DejaVuSans-30"/>
      <use xlink:href="#DejaVuSans-30" x="63.623047"/>
     </g>
    </g>
   </g>
   <g id="xtick_6">
    <g id="line2d_8">
     <path d="M 384.5233 458.46129 
L 389.691587 460.064734 
" style="fill: none; stroke: #000000; stroke-width: 0.8; stroke-linecap: square"/>
    </g>
    <g id="text_6">
     <!-- 01 -->
     <g transform="translate(396.913817 470.822876) rotate(-337.5) scale(0.21 -0.21)">
      <use xlink:href="#DejaVuSans-30"/>
      <use xlink:href="#DejaVuSans-31" x="63.623047"/>
     </g>
    </g>
   </g>
   <g id="xtick_7">
    <g id="line2d_9">
     <path d="M 412.028511 431.143114 
L 417.141381 432.697327 
" style="fill: none; stroke: #000000; stroke-width: 0.8; stroke-linecap: square"/>
    </g>
    <g id="text_7">
     <!-- 10 -->
     <g transform="translate(424.254695 443.315808) rotate(-337.5) scale(0.21 -0.21)">
      <use xlink:href="#DejaVuSans-31"/>
      <use xlink:href="#DejaVuSans-30" x="63.623047"/>
     </g>
    </g>
   </g>
   <g id="xtick_8">
    <g id="line2d_10">
     <path d="M 438.695964 404.657001 
L 443.754368 406.164215 
" style="fill: none; stroke: #000000; stroke-width: 0.8; stroke-linecap: square"/>
    </g>
    <g id="text_8">
     <!-- 11 -->
     <g transform="translate(450.762776 416.646599) rotate(-337.5) scale(0.21 -0.21)">
      <use xlink:href="#DejaVuSans-31"/>
      <use xlink:href="#DejaVuSans-31" x="63.623047"/>
     </g>
    </g>
   </g>
  </g>
  <g id="axis3d_3">
   <g id="line2d_11">
    <path d="M 455.554898 390.069341 
L 462.583588 181.103065 
" style="fill: none; stroke: #000000; stroke-width: 0.8; stroke-linecap: square"/>
   </g>
   <g id="xtick_9">
    <g id="line2d_12">
     <path d="M 454.070939 383.844367 
L 459.104216 385.321917 
" style="fill: none; stroke: #000000; stroke-width: 0.8; stroke-linecap: square"/>
    </g>
    <g id="text_9">
     <!-- −0.05 -->
     <g transform="translate(469.243013 378.052406) scale(0.21 -0.21)">
      <defs>
       <path id="DejaVuSans-2212" d="M 678 2272 
L 4684 2272 
L 4684 1741 
L 678 1741 
L 678 2272 
z
" transform="scale(0.015625)"/>
       <path id="DejaVuSans-2e" d="M 684 794 
L 1344 794 
L 1344 0 
L 684 0 
L 684 794 
z
" transform="scale(0.015625)"/>
       <path id="DejaVuSans-35" d="M 691 4666 
L 3169 4666 
L 3169 4134 
L 1269 4134 
L 1269 2991 
Q 1406 3038 1543 3061 
Q 1681 3084 1819 3084 
Q 2600 3084 3056 2656 
Q 3513 2228 3513 1497 
Q 3513 744 3044 326 
Q 2575 -91 1722 -91 
Q 1428 -91 1123 -41 
Q 819 9 494 109 
L 494 744 
Q 775 591 1075 516 
Q 1375 441 1709 441 
Q 2250 441 2565 725 
Q 2881 1009 2881 1497 
Q 2881 1984 2565 2268 
Q 2250 2553 1709 2553 
Q 1456 2553 1204 2497 
Q 953 2441 691 2322 
L 691 4666 
z
" transform="scale(0.015625)"/>
      </defs>
      <use xlink:href="#DejaVuSans-2212"/>
      <use xlink:href="#DejaVuSans-30" x="83.789062"/>
      <use xlink:href="#DejaVuSans-2e" x="147.412109"/>
      <use xlink:href="#DejaVuSans-30" x="179.199219"/>
      <use xlink:href="#DejaVuSans-35" x="242.822266"/>
     </g>
    </g>
   </g>
   <g id="xtick_10">
    <g id="line2d_13">
     <path d="M 454.971292 356.79149 
L 460.033874 358.253651 
" style="fill: none; stroke: #000000; stroke-width: 0.8; stroke-linecap: square"/>
    </g>
    <g id="text_10">
     <!-- 0.00 -->
     <g transform="translate(470.228409 351.014381) scale(0.21 -0.21)">
      <use xlink:href="#DejaVuSans-30"/>
      <use xlink:href="#DejaVuSans-2e" x="63.623047"/>
      <use xlink:href="#DejaVuSans-30" x="95.410156"/>
      <use xlink:href="#DejaVuSans-30" x="159.033203"/>
     </g>
    </g>
   </g>
   <g id="xtick_11">
    <g id="line2d_14">
     <path d="M 455.881895 329.430617 
L 460.974126 330.876942 
" style="fill: none; stroke: #000000; stroke-width: 0.8; stroke-linecap: square"/>
    </g>
    <g id="text_11">
     <!-- 0.05 -->
     <g transform="translate(471.225014 323.66879) scale(0.21 -0.21)">
      <use xlink:href="#DejaVuSans-30"/>
      <use xlink:href="#DejaVuSans-2e" x="63.623047"/>
      <use xlink:href="#DejaVuSans-30" x="95.410156"/>
      <use xlink:href="#DejaVuSans-35" x="159.033203"/>
     </g>
    </g>
   </g>
   <g id="xtick_12">
    <g id="line2d_15">
     <path d="M 456.802925 301.756458 
L 461.925154 303.186487 
" style="fill: none; stroke: #000000; stroke-width: 0.8; stroke-linecap: square"/>
    </g>
    <g id="text_12">
     <!-- 0.10 -->
     <g transform="translate(472.23302 296.010357) scale(0.21 -0.21)">
      <use xlink:href="#DejaVuSans-30"/>
      <use xlink:href="#DejaVuSans-2e" x="63.623047"/>
      <use xlink:href="#DejaVuSans-31" x="95.410156"/>
      <use xlink:href="#DejaVuSans-30" x="159.033203"/>
     </g>
    </g>
   </g>
   <g id="xtick_13">
    <g id="line2d_16">
     <path d="M 457.734562 273.763602 
L 462.887143 275.176861 
" style="fill: none; stroke: #000000; stroke-width: 0.8; stroke-linecap: square"/>
    </g>
    <g id="text_13">
     <!-- 0.15 -->
     <g transform="translate(473.252625 268.033681) scale(0.21 -0.21)">
      <use xlink:href="#DejaVuSans-30"/>
      <use xlink:href="#DejaVuSans-2e" x="63.623047"/>
      <use xlink:href="#DejaVuSans-31" x="95.410156"/>
      <use xlink:href="#DejaVuSans-35" x="159.033203"/>
     </g>
    </g>
   </g>
   <g id="xtick_14">
    <g id="line2d_17">
     <path d="M 458.676989 245.44651 
L 463.860285 246.842515 
" style="fill: none; stroke: #000000; stroke-width: 0.8; stroke-linecap: square"/>
    </g>
    <g id="text_14">
     <!-- 0.20 -->
     <g transform="translate(474.284029 239.733239) scale(0.21 -0.21)">
      <defs>
       <path id="DejaVuSans-32" d="M 1228 531 
L 3431 531 
L 3431 0 
L 469 0 
L 469 531 
Q 828 903 1448 1529 
Q 2069 2156 2228 2338 
Q 2531 2678 2651 2914 
Q 2772 3150 2772 3378 
Q 2772 3750 2511 3984 
Q 2250 4219 1831 4219 
Q 1534 4219 1204 4116 
Q 875 4013 500 3803 
L 500 4441 
Q 881 4594 1212 4672 
Q 1544 4750 1819 4750 
Q 2544 4750 2975 4387 
Q 3406 4025 3406 3419 
Q 3406 3131 3298 2873 
Q 3191 2616 2906 2266 
Q 2828 2175 2409 1742 
Q 1991 1309 1228 531 
z
" transform="scale(0.015625)"/>
      </defs>
      <use xlink:href="#DejaVuSans-30"/>
      <use xlink:href="#DejaVuSans-2e" x="63.623047"/>
      <use xlink:href="#DejaVuSans-32" x="95.410156"/>
      <use xlink:href="#DejaVuSans-30" x="159.033203"/>
     </g>
    </g>
   </g>
   <g id="xtick_15">
    <g id="line2d_18">
     <path d="M 459.630396 216.799517 
L 464.844774 218.177768 
" style="fill: none; stroke: #000000; stroke-width: 0.8; stroke-linecap: square"/>
    </g>
    <g id="text_15">
     <!-- 0.25 -->
     <g transform="translate(475.327439 211.103377) scale(0.21 -0.21)">
      <use xlink:href="#DejaVuSans-30"/>
      <use xlink:href="#DejaVuSans-2e" x="63.623047"/>
      <use xlink:href="#DejaVuSans-32" x="95.410156"/>
      <use xlink:href="#DejaVuSans-35" x="159.033203"/>
     </g>
    </g>
   </g>
   <g id="xtick_16">
    <g id="line2d_19">
     <path d="M 460.594976 187.816824 
L 465.840811 189.176808 
" style="fill: none; stroke: #000000; stroke-width: 0.8; stroke-linecap: square"/>
    </g>
    <g id="text_16">
     <!-- 0.30 -->
     <g transform="translate(476.383065 182.13831) scale(0.21 -0.21)">
      <defs>
       <path id="DejaVuSans-33" d="M 2597 2516 
Q 3050 2419 3304 2112 
Q 3559 1806 3559 1356 
Q 3559 666 3084 287 
Q 2609 -91 1734 -91 
Q 1441 -91 1130 -33 
Q 819 25 488 141 
L 488 750 
Q 750 597 1062 519 
Q 1375 441 1716 441 
Q 2309 441 2620 675 
Q 2931 909 2931 1356 
Q 2931 1769 2642 2001 
Q 2353 2234 1838 2234 
L 1294 2234 
L 1294 2753 
L 1863 2753 
Q 2328 2753 2575 2939 
Q 2822 3125 2822 3475 
Q 2822 3834 2567 4026 
Q 2313 4219 1838 4219 
Q 1578 4219 1281 4162 
Q 984 4106 628 3988 
L 628 4550 
Q 988 4650 1302 4700 
Q 1616 4750 1894 4750 
Q 2613 4750 3031 4423 
Q 3450 4097 3450 3541 
Q 3450 3153 3228 2886 
Q 3006 2619 2597 2516 
z
" transform="scale(0.015625)"/>
      </defs>
      <use xlink:href="#DejaVuSans-30"/>
      <use xlink:href="#DejaVuSans-2e" x="63.623047"/>
      <use xlink:href="#DejaVuSans-33" x="95.410156"/>
      <use xlink:href="#DejaVuSans-30" x="159.033203"/>
     </g>
    </g>
   </g>
  </g>
  <g id="axes_1">
   <g id="Poly3DCollection_1">
    <path d="M 307.564511 324.942469 
L 307.496111 351.293197 
L 331.640011 358.425823 
L 331.841492 332.000431 
z
" clip-path="url(#p8d1c35eb0d)" style="fill: #648fff"/>
    <path d="M 293.637008 363.686265 
L 317.901993 370.926065 
L 331.640011 358.425823 
L 307.496111 351.293197 
z
" clip-path="url(#p8d1c35eb0d)" style="fill: #577ddf"/>
    <path d="M 293.629458 337.20602 
L 293.637008 363.686265 
L 307.496111 351.293197 
L 307.564511 324.942469 
z
" clip-path="url(#p8d1c35eb0d)" style="fill: #324880"/>
    <path d="M 318.028868 344.370622 
L 331.841492 332.000431 
L 331.640011 358.425823 
L 317.901993 370.926065 
z
" clip-path="url(#p8d1c35eb0d)" style="fill: #648fff"/>
    <path d="M 293.629458 337.20602 
L 307.564511 324.942469 
L 331.841492 332.000431 
L 318.028868 344.370622 
z
" clip-path="url(#p8d1c35eb0d)" style="fill: #3f599f"/>
    <path d="M 293.629458 337.20602 
L 318.028868 344.370622 
L 317.901993 370.926065 
L 293.637008 363.686265 
z
" clip-path="url(#p8d1c35eb0d)" style="fill: #324880"/>
    <path d="M 279.483519 349.655162 
L 279.588941 382.348599 
L 303.944894 389.715135 
L 304.006293 356.92884 
z
" clip-path="url(#p8d1c35eb0d)" style="fill: #648fff"/>
    <path d="M 265.326371 395.148648 
L 289.804936 402.627416 
L 303.944894 389.715135 
L 279.588941 382.348599 
z
" clip-path="url(#p8d1c35eb0d)" style="fill: #577ddf"/>
    <path d="M 265.121869 362.29414 
L 265.326371 395.148648 
L 279.588941 382.348599 
L 279.483519 349.655162 
z
" clip-path="url(#p8d1c35eb0d)" style="fill: #324880"/>
    <path d="M 289.768944 369.679403 
L 304.006293 356.92884 
L 303.944894 389.715135 
L 289.804936 402.627416 
z
" clip-path="url(#p8d1c35eb0d)" style="fill: #648fff"/>
    <path d="M 265.121869 362.29414 
L 279.483519 349.655162 
L 304.006293 356.92884 
L 289.768944 369.679403 
z
" clip-path="url(#p8d1c35eb0d)" style="fill: #3f599f"/>
    <path d="M 265.121869 362.29414 
L 289.768944 369.679403 
L 289.804936 402.627416 
L 265.326371 395.148648 
z
" clip-path="url(#p8d1c35eb0d)" style="fill: #324880"/>
    <path d="M 300.305895 390.19333 
L 300.269021 423.398695 
L 325.311406 431.128178 
L 325.52467 397.827927 
z
" clip-path="url(#p8d1c35eb0d)" style="fill: #648fff"/>
    <path d="M 285.817832 436.830448 
L 310.990344 444.680593 
L 325.311406 431.128178 
L 300.269021 423.398695 
z
" clip-path="url(#p8d1c35eb0d)" style="fill: #577ddf"/>
    <path d="M 285.752965 403.460502 
L 285.817832 436.830448 
L 300.269021 423.398695 
L 300.305895 390.19333 
z
" clip-path="url(#p8d1c35eb0d)" style="fill: #324880"/>
    <path d="M 311.103713 411.215126 
L 325.52467 397.827927 
L 325.311406 431.128178 
L 310.990344 444.680593 
z
" clip-path="url(#p8d1c35eb0d)" style="fill: #648fff"/>
    <path d="M 285.752965 403.460502 
L 300.305895 390.19333 
L 325.52467 397.827927 
L 311.103713 411.215126 
z
" clip-path="url(#p8d1c35eb0d)" style="fill: #3f599f"/>
    <path d="M 285.752965 403.460502 
L 311.103713 411.215126 
L 310.990344 444.680593 
L 285.817832 436.830448 
z
" clip-path="url(#p8d1c35eb0d)" style="fill: #324880"/>
    <path d="M 350.971217 405.531478 
L 350.651458 432.714767 
L 376.180066 440.566205 
L 376.648637 413.304923 
z
" clip-path="url(#p8d1c35eb0d)" style="fill: #648fff"/>
    <path d="M 336.445227 446.358907 
L 362.110261 454.33419 
L 376.180066 440.566205 
L 350.651458 432.714767 
z
" clip-path="url(#p8d1c35eb0d)" style="fill: #577ddf"/>
    <path d="M 336.68523 419.040341 
L 336.445227 446.358907 
L 350.651458 432.714767 
L 350.971217 405.531478 
z
" clip-path="url(#p8d1c35eb0d)" style="fill: #324880"/>
    <path d="M 362.500683 426.937115 
L 376.648637 413.304923 
L 376.180066 440.566205 
L 362.110261 454.33419 
z
" clip-path="url(#p8d1c35eb0d)" style="fill: #648fff"/>
    <path d="M 336.68523 419.040341 
L 350.971217 405.531478 
L 376.648637 413.304923 
L 362.500683 426.937115 
z
" clip-path="url(#p8d1c35eb0d)" style="fill: #3f599f"/>
    <path d="M 336.68523 419.040341 
L 362.500683 426.937115 
L 362.110261 454.33419 
L 336.445227 446.358907 
z
" clip-path="url(#p8d1c35eb0d)" style="fill: #324880"/>
   </g>
   <g id="Poly3DCollection_2">
    <path d="M 135.637609 402.150147 
L 339.305156 466.119272 
L 450.274876 358.170789 
L 254.812992 301.6252 
z
" clip-path="url(#p8d1c35eb0d)" style="fill-opacity: 0.25"/>
   </g>
   <g id="Poly3DCollection_3">
    <path d="M 259.632062 311.007235 
L 259.506244 293.748487 
L 283.454474 300.63681 
L 283.495588 317.944995 
z
" clip-path="url(#p8d1c35eb0d)" style="fill: #324880"/>
    <path d="M 245.459936 323.061601 
L 245.282394 305.717091 
L 259.506244 293.748487 
L 259.632062 311.007235 
z
" clip-path="url(#p8d1c35eb0d)" style="fill: #648fff"/>
    <path d="M 245.459936 323.061601 
L 259.632062 311.007235 
L 283.495588 317.944995 
L 269.44072 330.103279 
z
" clip-path="url(#p8d1c35eb0d)" style="fill: #3f599f"/>
    <path d="M 245.282394 305.717091 
L 269.348714 312.708963 
L 283.454474 300.63681 
L 259.506244 293.748487 
z
" clip-path="url(#p8d1c35eb0d)" style="fill: #577ddf"/>
    <path d="M 269.44072 330.103279 
L 283.495588 317.944995 
L 283.454474 300.63681 
L 269.348714 312.708963 
z
" clip-path="url(#p8d1c35eb0d)" style="fill: #324880"/>
    <path d="M 245.459936 323.061601 
L 269.44072 330.103279 
L 269.348714 312.708963 
L 245.282394 305.717091 
z
" clip-path="url(#p8d1c35eb0d)" style="fill: #648fff"/>
    <path d="M 231.075194 335.296812 
L 230.791024 313.836413 
L 254.996252 320.92251 
L 255.174076 342.44476 
z
" clip-path="url(#p8d1c35eb0d)" style="fill: #324880"/>
    <path d="M 216.473014 347.716969 
L 231.075194 335.296812 
L 255.174076 342.44476 
L 240.690835 354.973611 
z
" clip-path="url(#p8d1c35eb0d)" style="fill: #3f599f"/>
    <path d="M 216.473014 347.716969 
L 216.121288 326.149274 
L 230.791024 313.836413 
L 231.075194 335.296812 
z
" clip-path="url(#p8d1c35eb0d)" style="fill: #648fff"/>
    <path d="M 342.641713 351.597898 
L 356.329241 339.119669 
L 381.030515 346.300984 
L 367.470808 358.888672 
z
" clip-path="url(#p8d1c35eb0d)" style="fill: #3f599f"/>
    <path d="M 240.690835 354.973611 
L 255.174076 342.44476 
L 254.996252 320.92251 
L 240.446503 333.34361 
z
" clip-path="url(#p8d1c35eb0d)" style="fill: #324880"/>
    <path d="M 216.121288 326.149274 
L 240.446503 333.34361 
L 254.996252 320.92251 
L 230.791024 313.836413 
z
" clip-path="url(#p8d1c35eb0d)" style="fill: #577ddf"/>
    <path d="M 216.473014 347.716969 
L 240.690835 354.973611 
L 240.446503 333.34361 
L 216.121288 326.149274 
z
" clip-path="url(#p8d1c35eb0d)" style="fill: #648fff"/>
    <path d="M 392.519014 366.243786 
L 405.948119 353.545193 
L 431.084908 360.853123 
L 417.789244 373.664094 
z
" clip-path="url(#p8d1c35eb0d)" style="fill: #3f599f"/>
    <path d="M 356.329241 339.119669 
L 357.95752 211.027803 
L 383.324891 217.827297 
L 381.030515 346.300984 
z
" clip-path="url(#p8d1c35eb0d)" style="fill: #324880"/>
    <path d="M 342.641713 351.597898 
L 343.916398 222.84359 
L 357.95752 211.027803 
L 356.329241 339.119669 
z
" clip-path="url(#p8d1c35eb0d)" style="fill: #648fff"/>
    <path d="M 186.596321 373.129149 
L 201.64843 360.326296 
L 225.986027 367.69413 
L 211.054528 380.610751 
z
" clip-path="url(#p8d1c35eb0d)" style="fill: #3f599f"/>
    <path d="M 314.634937 377.130264 
L 328.74522 364.266631 
L 353.70317 371.669386 
L 339.72278 384.647599 
z
" clip-path="url(#p8d1c35eb0d)" style="fill: #3f599f"/>
    <path d="M 367.470808 358.888672 
L 381.030515 346.300984 
L 383.324891 217.827297 
L 369.418634 229.749514 
z
" clip-path="url(#p8d1c35eb0d)" style="fill: #324880"/>
    <path d="M 405.948119 353.545193 
L 408.352251 249.318055 
L 434.047006 256.316672 
L 431.084908 360.853123 
z
" clip-path="url(#p8d1c35eb0d)" style="fill: #324880"/>
    <path d="M 342.641713 351.597898 
L 367.470808 358.888672 
L 369.418634 229.749514 
L 343.916398 222.84359 
z
" clip-path="url(#p8d1c35eb0d)" style="fill: #648fff"/>
    <path d="M 392.519014 366.243786 
L 394.648639 261.480026 
L 408.352251 249.318055 
L 405.948119 353.545193 
z
" clip-path="url(#p8d1c35eb0d)" style="fill: #648fff"/>
    <path d="M 235.731398 388.15924 
L 250.539538 375.127329 
L 275.311848 382.626765 
L 260.629878 395.775518 
z
" clip-path="url(#p8d1c35eb0d)" style="fill: #3f599f"/>
    <path d="M 417.789244 373.664094 
L 431.084908 360.853123 
L 434.047006 256.316672 
L 420.482897 268.58863 
z
" clip-path="url(#p8d1c35eb0d)" style="fill: #324880"/>
    <path d="M 201.64843 360.326296 
L 199.007565 224.461146 
L 224.024752 231.421287 
L 225.986027 367.69413 
z
" clip-path="url(#p8d1c35eb0d)" style="fill: #324880"/>
    <path d="M 392.519014 366.243786 
L 417.789244 373.664094 
L 420.482897 268.58863 
L 394.648639 261.480026 
z
" clip-path="url(#p8d1c35eb0d)" style="fill: #648fff"/>
    <path d="M 365.035454 392.232303 
L 378.883064 379.137971 
L 404.287877 386.67327 
L 390.575995 399.885286 
z
" clip-path="url(#p8d1c35eb0d)" style="fill: #3f599f"/>
    <path d="M 186.596321 373.129149 
L 183.505459 236.556679 
L 199.007565 224.461146 
L 201.64843 360.326296 
z
" clip-path="url(#p8d1c35eb0d)" style="fill: #648fff"/>
    <path d="M 343.916398 222.84359 
L 369.418634 229.749514 
L 383.324891 217.827297 
L 357.95752 211.027803 
z
" clip-path="url(#p8d1c35eb0d)" style="fill: #577ddf"/>
    <path d="M 328.74522 364.266631 
L 329.871533 204.064335 
L 355.671602 210.982394 
L 353.70317 371.669386 
z
" clip-path="url(#p8d1c35eb0d)" style="fill: #324880"/>
    <path d="M 155.788248 399.333532 
L 171.311407 386.130018 
L 195.891054 393.728043 
L 180.490159 407.050718 
z
" clip-path="url(#p8d1c35eb0d)" style="fill: #3f599f"/>
    <path d="M 211.054528 380.610751 
L 225.986027 367.69413 
L 224.024752 231.421287 
L 208.65004 243.627375 
z
" clip-path="url(#p8d1c35eb0d)" style="fill: #324880"/>
    <path d="M 314.634937 377.130264 
L 315.295427 216.087032 
L 329.871533 204.064335 
L 328.74522 364.266631 
z
" clip-path="url(#p8d1c35eb0d)" style="fill: #648fff"/>
    <path d="M 394.648639 261.480026 
L 420.482897 268.58863 
L 434.047006 256.316672 
L 408.352251 249.318055 
z
" clip-path="url(#p8d1c35eb0d)" style="fill: #577ddf"/>
    <path d="M 186.596321 373.129149 
L 211.054528 380.610751 
L 208.65004 243.627375 
L 183.505459 236.556679 
z
" clip-path="url(#p8d1c35eb0d)" style="fill: #648fff"/>
    <path d="M 378.883064 379.137971 
L 381.165778 248.938456 
L 407.275624 256.082368 
L 404.287877 386.67327 
z
" clip-path="url(#p8d1c35eb0d)" style="fill: #324880"/>
    <path d="M 339.72278 384.647599 
L 353.70317 371.669386 
L 355.671602 210.982394 
L 341.234358 223.115795 
z
" clip-path="url(#p8d1c35eb0d)" style="fill: #324880"/>
    <path d="M 365.035454 392.232303 
L 366.956505 261.353776 
L 381.165778 248.938456 
L 378.883064 379.137971 
z
" clip-path="url(#p8d1c35eb0d)" style="fill: #648fff"/>
    <path d="M 314.634937 377.130264 
L 339.72278 384.647599 
L 341.234358 223.115795 
L 315.295427 216.087032 
z
" clip-path="url(#p8d1c35eb0d)" style="fill: #648fff"/>
    <path d="M 250.539538 375.127329 
L 248.891417 197.655136 
L 274.578536 204.613639 
L 275.311848 382.626765 
z
" clip-path="url(#p8d1c35eb0d)" style="fill: #324880"/>
    <path d="M 171.311407 386.130018 
L 168.15618 264.272855 
L 193.351183 271.505072 
L 195.891054 393.728043 
z
" clip-path="url(#p8d1c35eb0d)" style="fill: #324880"/>
    <path d="M 205.416386 414.837984 
L 220.692165 401.394526 
L 245.717746 409.130397 
L 230.569998 422.696288 
z
" clip-path="url(#p8d1c35eb0d)" style="fill: #3f599f"/>
    <path d="M 235.731398 388.15924 
L 233.516771 209.748531 
L 248.891417 197.655136 
L 250.539538 375.127329 
z
" clip-path="url(#p8d1c35eb0d)" style="fill: #648fff"/>
    <path d="M 155.788248 399.333532 
L 152.208662 276.841745 
L 168.15618 264.272855 
L 171.311407 386.130018 
z
" clip-path="url(#p8d1c35eb0d)" style="fill: #648fff"/>
    <path d="M 390.575995 399.885286 
L 404.287877 386.67327 
L 407.275624 256.082368 
L 393.209795 268.61234 
z
" clip-path="url(#p8d1c35eb0d)" style="fill: #324880"/>
    <path d="M 183.505459 236.556679 
L 208.65004 243.627375 
L 224.024752 231.421287 
L 199.007565 224.461146 
z
" clip-path="url(#p8d1c35eb0d)" style="fill: #577ddf"/>
    <path d="M 365.035454 392.232303 
L 390.575995 399.885286 
L 393.209795 268.61234 
L 366.956505 261.353776 
z
" clip-path="url(#p8d1c35eb0d)" style="fill: #648fff"/>
    <path d="M 260.629878 395.775518 
L 275.311848 382.626765 
L 274.578536 204.613639 
L 259.339537 216.819525 
z
" clip-path="url(#p8d1c35eb0d)" style="fill: #324880"/>
    <path d="M 180.490159 407.050718 
L 195.891054 393.728043 
L 193.351183 271.505072 
L 177.532063 284.190322 
z
" clip-path="url(#p8d1c35eb0d)" style="fill: #324880"/>
    <path d="M 235.731398 388.15924 
L 260.629878 395.775518 
L 259.339537 216.819525 
L 233.516771 209.748531 
z
" clip-path="url(#p8d1c35eb0d)" style="fill: #648fff"/>
    <path d="M 270.970859 416.936603 
L 270.858693 394.786089 
L 296.461416 402.598894 
L 296.454621 424.814107 
z
" clip-path="url(#p8d1c35eb0d)" style="fill: #324880"/>
    <path d="M 155.788248 399.333532 
L 180.490159 407.050718 
L 177.532063 284.190322 
L 152.208662 276.841745 
z
" clip-path="url(#p8d1c35eb0d)" style="fill: #648fff"/>
    <path d="M 255.954121 430.626607 
L 270.970859 416.936603 
L 296.454621 424.814107 
L 281.571938 438.629934 
z
" clip-path="url(#p8d1c35eb0d)" style="fill: #3f599f"/>
    <path d="M 255.954121 430.626607 
L 255.770421 408.363869 
L 270.858693 394.786089 
L 270.970859 416.936603 
z
" clip-path="url(#p8d1c35eb0d)" style="fill: #648fff"/>
    <path d="M 220.692165 401.394526 
L 218.536758 263.279084 
L 244.281532 270.597132 
L 245.717746 409.130397 
z
" clip-path="url(#p8d1c35eb0d)" style="fill: #324880"/>
    <path d="M 315.295427 216.087032 
L 341.234358 223.115795 
L 355.671602 210.982394 
L 329.871533 204.064335 
z
" clip-path="url(#p8d1c35eb0d)" style="fill: #577ddf"/>
    <path d="M 205.416386 414.837984 
L 202.796882 275.997677 
L 218.536758 263.279084 
L 220.692165 401.394526 
z
" clip-path="url(#p8d1c35eb0d)" style="fill: #648fff"/>
    <path d="M 281.571938 438.629934 
L 296.454621 424.814107 
L 296.461416 402.598894 
L 281.508454 416.302056 
z
" clip-path="url(#p8d1c35eb0d)" style="fill: #324880"/>
    <path d="M 255.770421 408.363869 
L 281.508454 416.302056 
L 296.461416 402.598894 
L 270.858693 394.786089 
z
" clip-path="url(#p8d1c35eb0d)" style="fill: #577ddf"/>
    <path d="M 366.956505 261.353776 
L 393.209795 268.61234 
L 407.275624 256.082368 
L 381.165778 248.938456 
z
" clip-path="url(#p8d1c35eb0d)" style="fill: #577ddf"/>
    <path d="M 255.954121 430.626607 
L 281.571938 438.629934 
L 281.508454 416.302056 
L 255.770421 408.363869 
z
" clip-path="url(#p8d1c35eb0d)" style="fill: #648fff"/>
    <path d="M 322.172207 432.76389 
L 322.276129 414.66803 
L 348.330997 422.638203 
L 348.126849 440.786951 
z
" clip-path="url(#p8d1c35eb0d)" style="fill: #324880"/>
    <path d="M 152.208662 276.841745 
L 177.532063 284.190322 
L 193.351183 271.505072 
L 168.15618 264.272855 
z
" clip-path="url(#p8d1c35eb0d)" style="fill: #577ddf"/>
    <path d="M 230.569998 422.696288 
L 245.717746 409.130397 
L 244.281532 270.597132 
L 228.677118 283.434953 
z
" clip-path="url(#p8d1c35eb0d)" style="fill: #324880"/>
    <path d="M 307.426692 446.707283 
L 307.474589 428.519688 
L 322.276129 414.66803 
L 322.172207 432.76389 
z
" clip-path="url(#p8d1c35eb0d)" style="fill: #648fff"/>
    <path d="M 307.426692 446.707283 
L 322.172207 432.76389 
L 348.126849 440.786951 
L 333.521684 454.859686 
z
" clip-path="url(#p8d1c35eb0d)" style="fill: #3f599f"/>
    <path d="M 205.416386 414.837984 
L 230.569998 422.696288 
L 228.677118 283.434953 
L 202.796882 275.997677 
z
" clip-path="url(#p8d1c35eb0d)" style="fill: #648fff"/>
    <path d="M 233.516771 209.748531 
L 259.339537 216.819525 
L 274.578536 204.613639 
L 248.891417 197.655136 
z
" clip-path="url(#p8d1c35eb0d)" style="fill: #577ddf"/>
    <path d="M 307.474589 428.519688 
L 333.670899 436.618848 
L 348.330997 422.638203 
L 322.276129 414.66803 
z
" clip-path="url(#p8d1c35eb0d)" style="fill: #577ddf"/>
    <path d="M 333.521684 454.859686 
L 348.126849 440.786951 
L 348.330997 422.638203 
L 333.670899 436.618848 
z
" clip-path="url(#p8d1c35eb0d)" style="fill: #324880"/>
    <path d="M 307.426692 446.707283 
L 333.521684 454.859686 
L 333.670899 436.618848 
L 307.474589 428.519688 
z
" clip-path="url(#p8d1c35eb0d)" style="fill: #648fff"/>
    <path d="M 202.796882 275.997677 
L 228.677118 283.434953 
L 244.281532 270.597132 
L 218.536758 263.279084 
z
" clip-path="url(#p8d1c35eb0d)" style="fill: #577ddf"/>
   </g>
   <g id="text_17">
    <!-- Real Amplitude (ρ) -->
    <g transform="translate(190.023516 51.6) scale(0.21 -0.21)">
     <defs>
      <path id="DejaVuSans-52" d="M 2841 2188 
Q 3044 2119 3236 1894 
Q 3428 1669 3622 1275 
L 4263 0 
L 3584 0 
L 2988 1197 
Q 2756 1666 2539 1819 
Q 2322 1972 1947 1972 
L 1259 1972 
L 1259 0 
L 628 0 
L 628 4666 
L 2053 4666 
Q 2853 4666 3247 4331 
Q 3641 3997 3641 3322 
Q 3641 2881 3436 2590 
Q 3231 2300 2841 2188 
z
M 1259 4147 
L 1259 2491 
L 2053 2491 
Q 2509 2491 2742 2702 
Q 2975 2913 2975 3322 
Q 2975 3731 2742 3939 
Q 2509 4147 2053 4147 
L 1259 4147 
z
" transform="scale(0.015625)"/>
      <path id="DejaVuSans-65" d="M 3597 1894 
L 3597 1613 
L 953 1613 
Q 991 1019 1311 708 
Q 1631 397 2203 397 
Q 2534 397 2845 478 
Q 3156 559 3463 722 
L 3463 178 
Q 3153 47 2828 -22 
Q 2503 -91 2169 -91 
Q 1331 -91 842 396 
Q 353 884 353 1716 
Q 353 2575 817 3079 
Q 1281 3584 2069 3584 
Q 2775 3584 3186 3129 
Q 3597 2675 3597 1894 
z
M 3022 2063 
Q 3016 2534 2758 2815 
Q 2500 3097 2075 3097 
Q 1594 3097 1305 2825 
Q 1016 2553 972 2059 
L 3022 2063 
z
" transform="scale(0.015625)"/>
      <path id="DejaVuSans-61" d="M 2194 1759 
Q 1497 1759 1228 1600 
Q 959 1441 959 1056 
Q 959 750 1161 570 
Q 1363 391 1709 391 
Q 2188 391 2477 730 
Q 2766 1069 2766 1631 
L 2766 1759 
L 2194 1759 
z
M 3341 1997 
L 3341 0 
L 2766 0 
L 2766 531 
Q 2569 213 2275 61 
Q 1981 -91 1556 -91 
Q 1019 -91 701 211 
Q 384 513 384 1019 
Q 384 1609 779 1909 
Q 1175 2209 1959 2209 
L 2766 2209 
L 2766 2266 
Q 2766 2663 2505 2880 
Q 2244 3097 1772 3097 
Q 1472 3097 1187 3025 
Q 903 2953 641 2809 
L 641 3341 
Q 956 3463 1253 3523 
Q 1550 3584 1831 3584 
Q 2591 3584 2966 3190 
Q 3341 2797 3341 1997 
z
" transform="scale(0.015625)"/>
      <path id="DejaVuSans-6c" d="M 603 4863 
L 1178 4863 
L 1178 0 
L 603 0 
L 603 4863 
z
" transform="scale(0.015625)"/>
      <path id="DejaVuSans-20" transform="scale(0.015625)"/>
      <path id="DejaVuSans-41" d="M 2188 4044 
L 1331 1722 
L 3047 1722 
L 2188 4044 
z
M 1831 4666 
L 2547 4666 
L 4325 0 
L 3669 0 
L 3244 1197 
L 1141 1197 
L 716 0 
L 50 0 
L 1831 4666 
z
" transform="scale(0.015625)"/>
      <path id="DejaVuSans-6d" d="M 3328 2828 
Q 3544 3216 3844 3400 
Q 4144 3584 4550 3584 
Q 5097 3584 5394 3201 
Q 5691 2819 5691 2113 
L 5691 0 
L 5113 0 
L 5113 2094 
Q 5113 2597 4934 2840 
Q 4756 3084 4391 3084 
Q 3944 3084 3684 2787 
Q 3425 2491 3425 1978 
L 3425 0 
L 2847 0 
L 2847 2094 
Q 2847 2600 2669 2842 
Q 2491 3084 2119 3084 
Q 1678 3084 1418 2786 
Q 1159 2488 1159 1978 
L 1159 0 
L 581 0 
L 581 3500 
L 1159 3500 
L 1159 2956 
Q 1356 3278 1631 3431 
Q 1906 3584 2284 3584 
Q 2666 3584 2933 3390 
Q 3200 3197 3328 2828 
z
" transform="scale(0.015625)"/>
      <path id="DejaVuSans-70" d="M 1159 525 
L 1159 -1331 
L 581 -1331 
L 581 3500 
L 1159 3500 
L 1159 2969 
Q 1341 3281 1617 3432 
Q 1894 3584 2278 3584 
Q 2916 3584 3314 3078 
Q 3713 2572 3713 1747 
Q 3713 922 3314 415 
Q 2916 -91 2278 -91 
Q 1894 -91 1617 61 
Q 1341 213 1159 525 
z
M 3116 1747 
Q 3116 2381 2855 2742 
Q 2594 3103 2138 3103 
Q 1681 3103 1420 2742 
Q 1159 2381 1159 1747 
Q 1159 1113 1420 752 
Q 1681 391 2138 391 
Q 2594 391 2855 752 
Q 3116 1113 3116 1747 
z
" transform="scale(0.015625)"/>
      <path id="DejaVuSans-69" d="M 603 3500 
L 1178 3500 
L 1178 0 
L 603 0 
L 603 3500 
z
M 603 4863 
L 1178 4863 
L 1178 4134 
L 603 4134 
L 603 4863 
z
" transform="scale(0.015625)"/>
      <path id="DejaVuSans-74" d="M 1172 4494 
L 1172 3500 
L 2356 3500 
L 2356 3053 
L 1172 3053 
L 1172 1153 
Q 1172 725 1289 603 
Q 1406 481 1766 481 
L 2356 481 
L 2356 0 
L 1766 0 
Q 1100 0 847 248 
Q 594 497 594 1153 
L 594 3053 
L 172 3053 
L 172 3500 
L 594 3500 
L 594 4494 
L 1172 4494 
z
" transform="scale(0.015625)"/>
      <path id="DejaVuSans-75" d="M 544 1381 
L 544 3500 
L 1119 3500 
L 1119 1403 
Q 1119 906 1312 657 
Q 1506 409 1894 409 
Q 2359 409 2629 706 
Q 2900 1003 2900 1516 
L 2900 3500 
L 3475 3500 
L 3475 0 
L 2900 0 
L 2900 538 
Q 2691 219 2414 64 
Q 2138 -91 1772 -91 
Q 1169 -91 856 284 
Q 544 659 544 1381 
z
M 1991 3584 
L 1991 3584 
z
" transform="scale(0.015625)"/>
      <path id="DejaVuSans-64" d="M 2906 2969 
L 2906 4863 
L 3481 4863 
L 3481 0 
L 2906 0 
L 2906 525 
Q 2725 213 2448 61 
Q 2172 -91 1784 -91 
Q 1150 -91 751 415 
Q 353 922 353 1747 
Q 353 2572 751 3078 
Q 1150 3584 1784 3584 
Q 2172 3584 2448 3432 
Q 2725 3281 2906 2969 
z
M 947 1747 
Q 947 1113 1208 752 
Q 1469 391 1925 391 
Q 2381 391 2643 752 
Q 2906 1113 2906 1747 
Q 2906 2381 2643 2742 
Q 2381 3103 1925 3103 
Q 1469 3103 1208 2742 
Q 947 2381 947 1747 
z
" transform="scale(0.015625)"/>
      <path id="DejaVuSans-28" d="M 1984 4856 
Q 1566 4138 1362 3434 
Q 1159 2731 1159 2009 
Q 1159 1288 1364 580 
Q 1569 -128 1984 -844 
L 1484 -844 
Q 1016 -109 783 600 
Q 550 1309 550 2009 
Q 550 2706 781 3412 
Q 1013 4119 1484 4856 
L 1984 4856 
z
" transform="scale(0.015625)"/>
      <path id="DejaVuSans-3c1" d="M 863 2875 
Q 1053 3194 1525 3475 
Q 1709 3584 2278 3584 
Q 2916 3584 3314 3078 
Q 3713 2572 3713 1747 
Q 3713 922 3314 415 
Q 2916 -91 2278 -91 
Q 1894 -91 1617 61 
Q 1341 213 1159 525 
L 1159 -1331 
L 581 -1331 
L 581 1716 
Q 581 2438 863 2875 
z
M 3116 1747 
Q 3116 2381 2855 2742 
Q 2594 3103 2138 3103 
Q 1681 3103 1420 2742 
Q 1159 2381 1159 1747 
Q 1159 1113 1420 752 
Q 1681 391 2138 391 
Q 2594 391 2855 752 
Q 3116 1113 3116 1747 
z
" transform="scale(0.015625)"/>
      <path id="DejaVuSans-29" d="M 513 4856 
L 1013 4856 
Q 1481 4119 1714 3412 
Q 1947 2706 1947 2009 
Q 1947 1309 1714 600 
Q 1481 -109 1013 -844 
L 513 -844 
Q 928 -128 1133 580 
Q 1338 1288 1338 2009 
Q 1338 2731 1133 3434 
Q 928 4138 513 4856 
z
" transform="scale(0.015625)"/>
     </defs>
     <use xlink:href="#DejaVuSans-52"/>
     <use xlink:href="#DejaVuSans-65" x="64.982422"/>
     <use xlink:href="#DejaVuSans-61" x="126.505859"/>
     <use xlink:href="#DejaVuSans-6c" x="187.785156"/>
     <use xlink:href="#DejaVuSans-20" x="215.568359"/>
     <use xlink:href="#DejaVuSans-41" x="247.355469"/>
     <use xlink:href="#DejaVuSans-6d" x="315.763672"/>
     <use xlink:href="#DejaVuSans-70" x="413.175781"/>
     <use xlink:href="#DejaVuSans-6c" x="476.652344"/>
     <use xlink:href="#DejaVuSans-69" x="504.435547"/>
     <use xlink:href="#DejaVuSans-74" x="532.21875"/>
     <use xlink:href="#DejaVuSans-75" x="571.427734"/>
     <use xlink:href="#DejaVuSans-64" x="634.806641"/>
     <use xlink:href="#DejaVuSans-65" x="698.283203"/>
     <use xlink:href="#DejaVuSans-20" x="759.806641"/>
     <use xlink:href="#DejaVuSans-28" x="791.59375"/>
     <use xlink:href="#DejaVuSans-3c1" x="830.607422"/>
     <use xlink:href="#DejaVuSans-29" x="894.083984"/>
    </g>
   </g>
  </g>
  <g id="patch_6">
   <path d="M 604.8 576 
L 1123.2 576 
L 1123.2 57.6 
L 604.8 57.6 
z
" style="fill: #ffffff"/>
  </g>
  <g id="pane3d_4">
   <g id="patch_7">
    <path d="M 706.07018 436.456468 
L 829.494133 330.550231 
L 827.743197 126.70673 
L 698.643358 223.613571 
" style="fill: #f2f2f2; opacity: 0.5; stroke: #f2f2f2; stroke-linejoin: miter"/>
   </g>
  </g>
  <g id="pane3d_5">
   <g id="patch_8">
    <path d="M 829.494133 330.550231 
L 1031.554898 390.069341 
L 1038.583588 181.103065 
L 827.743197 126.70673 
" style="fill: #e6e6e6; opacity: 0.5; stroke: #e6e6e6; stroke-linejoin: miter"/>
   </g>
  </g>
  <g id="pane3d_6">
   <g id="patch_9">
    <path d="M 706.07018 436.456468 
L 916.912731 504.076731 
L 1031.554898 390.069341 
L 829.494133 330.550231 
" style="fill: #ececec; opacity: 0.5; stroke: #ececec; stroke-linejoin: miter"/>
   </g>
  </g>
  <g id="grid3d_4">
   <g id="Line3DCollection_4">
    <path d="M 734.635886 445.617904 
L 856.925726 338.630493 
L 856.328796 134.081748 
" style="fill: none; stroke: #b0b0b0; stroke-width: 0.8"/>
    <path d="M 784.310046 461.549127 
L 904.58611 352.669358 
L 906.022474 146.902603 
" style="fill: none; stroke: #b0b0b0; stroke-width: 0.8"/>
    <path d="M 834.89502 477.772462 
L 953.066152 366.949661 
L 956.607663 159.953465 
" style="fill: none; stroke: #b0b0b0; stroke-width: 0.8"/>
    <path d="M 886.41609 494.296016 
L 1002.38718 381.477685 
L 1008.108569 173.24058 
" style="fill: none; stroke: #b0b0b0; stroke-width: 0.8"/>
   </g>
  </g>
  <g id="grid3d_5">
   <g id="Line3DCollection_5">
    <path d="M 717.757365 209.265931 
L 724.301379 420.812846 
L 933.880707 487.202708 
" style="fill: none; stroke: #b0b0b0; stroke-width: 0.8"/>
    <path d="M 749.704273 185.285468 
L 754.805664 394.638072 
L 962.24502 458.995448 
" style="fill: none; stroke: #b0b0b0; stroke-width: 0.8"/>
    <path d="M 780.65707 162.051218 
L 784.400054 369.24405 
L 989.731787 431.660877 
" style="fill: none; stroke: #b0b0b0; stroke-width: 0.8"/>
    <path d="M 810.661448 139.528886 
L 813.124663 344.596362 
L 1016.38111 405.159111 
" style="fill: none; stroke: #b0b0b0; stroke-width: 0.8"/>
   </g>
  </g>
  <g id="grid3d_6">
   <g id="Line3DCollection_6">
    <path d="M 1032.582882 359.506873 
L 829.237713 300.697949 
L 704.985076 405.358811 
" style="fill: none; stroke: #b0b0b0; stroke-width: 0.8"/>
    <path d="M 1033.720279 325.691547 
L 828.954136 267.684004 
L 703.784038 370.938654 
" style="fill: none; stroke: #b0b0b0; stroke-width: 0.8"/>
    <path d="M 1034.873801 291.396772 
L 828.666683 234.218705 
L 702.565496 336.016857 
" style="fill: none; stroke: #b0b0b0; stroke-width: 0.8"/>
    <path d="M 1036.043796 256.612279 
L 828.375272 200.292734 
L 701.329065 300.582375 
" style="fill: none; stroke: #b0b0b0; stroke-width: 0.8"/>
    <path d="M 1037.230618 221.327502 
L 828.079822 165.896512 
L 700.074347 264.623832 
" style="fill: none; stroke: #b0b0b0; stroke-width: 0.8"/>
    <path d="M 1038.434633 185.531571 
L 827.780248 131.020193 
L 698.800935 228.129518 
" style="fill: none; stroke: #b0b0b0; stroke-width: 0.8"/>
   </g>
  </g>
  <g id="axis3d_4">
   <g id="line2d_20">
    <path d="M 706.07018 436.456468 
L 916.912731 504.076731 
" style="fill: none; stroke: #000000; stroke-width: 0.8; stroke-linecap: square"/>
   </g>
   <g id="xtick_17">
    <g id="line2d_21">
     <path d="M 735.677227 444.706868 
L 732.549953 447.442819 
" style="fill: none; stroke: #000000; stroke-width: 0.8; stroke-linecap: square"/>
    </g>
    <g id="text_18">
     <!-- 00 -->
     <g transform="translate(707.351686 489.365693) rotate(-45) scale(0.21 -0.21)">
      <use xlink:href="#DejaVuSans-30"/>
      <use xlink:href="#DejaVuSans-30" x="63.623047"/>
     </g>
    </g>
   </g>
   <g id="xtick_18">
    <g id="line2d_22">
     <path d="M 785.334802 460.621468 
L 782.257306 463.407368 
" style="fill: none; stroke: #000000; stroke-width: 0.8; stroke-linecap: square"/>
    </g>
    <g id="text_19">
     <!-- 01 -->
     <g transform="translate(757.023931 505.435143) rotate(-45) scale(0.21 -0.21)">
      <use xlink:href="#DejaVuSans-30"/>
      <use xlink:href="#DejaVuSans-31" x="63.623047"/>
     </g>
    </g>
   </g>
   <g id="xtick_19">
    <g id="line2d_23">
     <path d="M 835.902405 476.82772 
L 832.877048 479.664949 
" style="fill: none; stroke: #000000; stroke-width: 0.8; stroke-linecap: square"/>
    </g>
    <g id="text_20">
     <!-- 10 -->
     <g transform="translate(807.60781 521.799516) rotate(-45) scale(0.21 -0.21)">
      <use xlink:href="#DejaVuSans-31"/>
      <use xlink:href="#DejaVuSans-30" x="63.623047"/>
     </g>
    </g>
   </g>
   <g id="xtick_20">
    <g id="line2d_24">
     <path d="M 887.405283 493.333715 
L 884.434531 496.223705 
" style="fill: none; stroke: #000000; stroke-width: 0.8; stroke-linecap: square"/>
    </g>
    <g id="text_21">
     <!-- 11 -->
     <g transform="translate(859.128654 538.467006) rotate(-45) scale(0.21 -0.21)">
      <use xlink:href="#DejaVuSans-31"/>
      <use xlink:href="#DejaVuSans-31" x="63.623047"/>
     </g>
    </g>
   </g>
  </g>
  <g id="axis3d_5">
   <g id="line2d_25">
    <path d="M 1031.554898 390.069341 
L 916.912731 504.076731 
" style="fill: none; stroke: #000000; stroke-width: 0.8; stroke-linecap: square"/>
   </g>
   <g id="xtick_21">
    <g id="line2d_26">
     <path d="M 932.140222 486.651363 
L 937.364886 488.306415 
" style="fill: none; stroke: #000000; stroke-width: 0.8; stroke-linecap: square"/>
    </g>
    <g id="text_22">
     <!-- 00 -->
     <g transform="translate(944.70027 499.207917) rotate(-337.5) scale(0.21 -0.21)">
      <use xlink:href="#DejaVuSans-30"/>
      <use xlink:href="#DejaVuSans-30" x="63.623047"/>
     </g>
    </g>
   </g>
   <g id="xtick_22">
    <g id="line2d_27">
     <path d="M 960.5233 458.46129 
L 965.691587 460.064734 
" style="fill: none; stroke: #000000; stroke-width: 0.8; stroke-linecap: square"/>
    </g>
    <g id="text_23">
     <!-- 01 -->
     <g transform="translate(972.913817 470.822876) rotate(-337.5) scale(0.21 -0.21)">
      <use xlink:href="#DejaVuSans-30"/>
      <use xlink:href="#DejaVuSans-31" x="63.623047"/>
     </g>
    </g>
   </g>
   <g id="xtick_23">
    <g id="line2d_28">
     <path d="M 988.028511 431.143114 
L 993.141381 432.697327 
" style="fill: none; stroke: #000000; stroke-width: 0.8; stroke-linecap: square"/>
    </g>
    <g id="text_24">
     <!-- 10 -->
     <g transform="translate(1000.254695 443.315808) rotate(-337.5) scale(0.21 -0.21)">
      <use xlink:href="#DejaVuSans-31"/>
      <use xlink:href="#DejaVuSans-30" x="63.623047"/>
     </g>
    </g>
   </g>
   <g id="xtick_24">
    <g id="line2d_29">
     <path d="M 1014.695964 404.657001 
L 1019.754368 406.164215 
" style="fill: none; stroke: #000000; stroke-width: 0.8; stroke-linecap: square"/>
    </g>
    <g id="text_25">
     <!-- 11 -->
     <g transform="translate(1026.762776 416.646599) rotate(-337.5) scale(0.21 -0.21)">
      <use xlink:href="#DejaVuSans-31"/>
      <use xlink:href="#DejaVuSans-31" x="63.623047"/>
     </g>
    </g>
   </g>
  </g>
  <g id="axis3d_6">
   <g id="line2d_30">
    <path d="M 1031.554898 390.069341 
L 1038.583588 181.103065 
" style="fill: none; stroke: #000000; stroke-width: 0.8; stroke-linecap: square"/>
   </g>
   <g id="xtick_25">
    <g id="line2d_31">
     <path d="M 1030.897146 359.019345 
L 1035.957315 360.482783 
" style="fill: none; stroke: #000000; stroke-width: 0.8; stroke-linecap: square"/>
    </g>
    <g id="text_26">
     <!-- −0.2 -->
     <g transform="translate(1046.14726 353.241003) scale(0.21 -0.21)">
      <use xlink:href="#DejaVuSans-2212"/>
      <use xlink:href="#DejaVuSans-30" x="83.789062"/>
      <use xlink:href="#DejaVuSans-2e" x="147.412109"/>
      <use xlink:href="#DejaVuSans-32" x="179.199219"/>
     </g>
    </g>
   </g>
   <g id="xtick_26">
    <g id="line2d_32">
     <path d="M 1032.022344 325.210545 
L 1037.119149 326.654402 
" style="fill: none; stroke: #000000; stroke-width: 0.8; stroke-linecap: square"/>
    </g>
    <g id="text_27">
     <!-- −0.1 -->
     <g transform="translate(1047.378727 319.451098) scale(0.21 -0.21)">
      <use xlink:href="#DejaVuSans-2212"/>
      <use xlink:href="#DejaVuSans-30" x="83.789062"/>
      <use xlink:href="#DejaVuSans-2e" x="147.412109"/>
      <use xlink:href="#DejaVuSans-31" x="179.199219"/>
     </g>
    </g>
   </g>
   <g id="xtick_27">
    <g id="line2d_33">
     <path d="M 1033.163492 290.92253 
L 1038.297466 292.346102 
" style="fill: none; stroke: #000000; stroke-width: 0.8; stroke-linecap: square"/>
    </g>
    <g id="text_28">
     <!-- 0.0 -->
     <g transform="translate(1048.627634 285.182658) scale(0.21 -0.21)">
      <use xlink:href="#DejaVuSans-30"/>
      <use xlink:href="#DejaVuSans-2e" x="63.623047"/>
      <use xlink:href="#DejaVuSans-30" x="95.410156"/>
     </g>
    </g>
   </g>
   <g id="xtick_28">
    <g id="line2d_34">
     <path d="M 1034.320929 256.145039 
L 1039.492619 257.547597 
" style="fill: none; stroke: #000000; stroke-width: 0.8; stroke-linecap: square"/>
    </g>
    <g id="text_29">
     <!-- 0.1 -->
     <g transform="translate(1049.894354 250.425444) scale(0.21 -0.21)">
      <use xlink:href="#DejaVuSans-30"/>
      <use xlink:href="#DejaVuSans-2e" x="63.623047"/>
      <use xlink:href="#DejaVuSans-31" x="95.410156"/>
     </g>
    </g>
   </g>
   <g id="xtick_29">
    <g id="line2d_35">
     <path d="M 1035.495008 220.867516 
L 1040.704972 222.248306 
" style="fill: none; stroke: #000000; stroke-width: 0.8; stroke-linecap: square"/>
    </g>
    <g id="text_30">
     <!-- 0.2 -->
     <g transform="translate(1051.179271 215.168925) scale(0.21 -0.21)">
      <use xlink:href="#DejaVuSans-30"/>
      <use xlink:href="#DejaVuSans-2e" x="63.623047"/>
      <use xlink:href="#DejaVuSans-32" x="95.410156"/>
     </g>
    </g>
   </g>
   <g id="xtick_30">
    <g id="line2d_36">
     <path d="M 1036.686091 185.079098 
L 1041.934898 186.43734 
" style="fill: none; stroke: #000000; stroke-width: 0.8; stroke-linecap: square"/>
    </g>
    <g id="text_31">
     <!-- 0.3 -->
     <g transform="translate(1052.48278 179.402263) scale(0.21 -0.21)">
      <use xlink:href="#DejaVuSans-30"/>
      <use xlink:href="#DejaVuSans-2e" x="63.623047"/>
      <use xlink:href="#DejaVuSans-33" x="95.410156"/>
     </g>
    </g>
   </g>
  </g>
  <g id="axes_2">
   <g id="Poly3DCollection_4">
    <path d="M 983.465492 287.762029 
L 983.465492 287.762029 
L 1008.954376 294.877055 
L 1008.954376 294.877055 
z
" clip-path="url(#p100bf1997d)" style="fill: #648fff"/>
    <path d="M 776.366296 294.364106 
L 776.986374 326.265377 
L 801.494388 333.534202 
L 801.033894 301.538259 
z
" clip-path="url(#p100bf1997d)" style="fill: #648fff"/>
    <path d="M 761.821578 338.896477 
L 786.451886 346.278348 
L 801.494388 333.534202 
L 776.986374 326.265377 
z
" clip-path="url(#p100bf1997d)" style="fill: #577ddf"/>
    <path d="M 969.863049 300.125971 
L 969.863049 300.125971 
L 983.465492 287.762029 
L 983.465492 287.762029 
z
" clip-path="url(#p100bf1997d)" style="fill: #324880"/>
    <path d="M 761.095883 306.830963 
L 761.821578 338.896477 
L 776.986374 326.265377 
L 776.366296 294.364106 
z
" clip-path="url(#p100bf1997d)" style="fill: #324880"/>
    <path d="M 969.863049 300.125971 
L 983.465492 287.762029 
L 1008.954376 294.877055 
L 995.489184 307.351926 
z
" clip-path="url(#p100bf1997d)" style="fill: #3f599f"/>
    <path d="M 969.863049 300.125971 
L 995.489184 307.351926 
L 1008.954376 294.877055 
L 983.465492 287.762029 
z
" clip-path="url(#p100bf1997d)" style="fill: #577ddf"/>
    <path d="M 861.817832 436.830448 
L 886.990344 444.680593 
L 901.311406 431.128178 
L 876.269021 423.398695 
z
" clip-path="url(#p100bf1997d)" style="fill: #577ddf"/>
    <path d="M 995.489184 307.351926 
L 1008.954376 294.877055 
L 1008.954376 294.877055 
L 995.489184 307.351926 
z
" clip-path="url(#p100bf1997d)" style="fill: #648fff"/>
    <path d="M 785.887361 314.117436 
L 801.033894 301.538259 
L 801.494388 333.534202 
L 786.451886 346.278348 
z
" clip-path="url(#p100bf1997d)" style="fill: #648fff"/>
    <path d="M 969.863049 300.125971 
L 995.489184 307.351926 
L 995.489184 307.351926 
L 969.863049 300.125971 
z
" clip-path="url(#p100bf1997d)" style="fill: #324880"/>
    <path d="M 761.095883 306.830963 
L 776.366296 294.364106 
L 801.033894 301.538259 
L 785.887361 314.117436 
z
" clip-path="url(#p100bf1997d)" style="fill: #3f599f"/>
    <path d="M 761.095883 306.830963 
L 785.887361 314.117436 
L 786.451886 346.278348 
L 761.821578 338.896477 
z
" clip-path="url(#p100bf1997d)" style="fill: #324880"/>
    <path d="M 876.380012 323.4514 
L 876.269021 423.398695 
L 901.311406 431.128178 
L 901.953365 330.888977 
z
" clip-path="url(#p100bf1997d)" style="fill: #648fff"/>
    <path d="M 861.622564 336.376796 
L 861.817832 436.830448 
L 876.269021 423.398695 
L 876.380012 323.4514 
z
" clip-path="url(#p100bf1997d)" style="fill: #324880"/>
    <path d="M 956.048181 312.682997 
L 956.048181 312.682997 
L 981.812758 320.022495 
L 981.812758 320.022495 
z
" clip-path="url(#p100bf1997d)" style="fill: #648fff"/>
    <path d="M 942.015874 325.437664 
L 942.015874 325.437664 
L 956.048181 312.682997 
L 956.048181 312.682997 
z
" clip-path="url(#p100bf1997d)" style="fill: #324880"/>
    <path d="M 887.331641 343.932961 
L 901.953365 330.888977 
L 901.311406 431.128178 
L 886.990344 444.680593 
z
" clip-path="url(#p100bf1997d)" style="fill: #648fff"/>
    <path d="M 912.553614 434.021725 
L 938.286574 441.961731 
L 952.391677 428.254763 
L 926.795866 420.438373 
z
" clip-path="url(#p100bf1997d)" style="fill: #577ddf"/>
    <path d="M 942.015874 325.437664 
L 956.048181 312.682997 
L 981.812758 320.022495 
L 967.92009 332.893403 
z
" clip-path="url(#p100bf1997d)" style="fill: #3f599f"/>
    <path d="M 942.015874 325.437664 
L 967.92009 332.893403 
L 981.812758 320.022495 
L 956.048181 312.682997 
z
" clip-path="url(#p100bf1997d)" style="fill: #577ddf"/>
    <path d="M 861.622564 336.376796 
L 887.331641 343.932961 
L 886.990344 444.680593 
L 861.817832 436.830448 
z
" clip-path="url(#p100bf1997d)" style="fill: #324880"/>
    <path d="M 967.92009 332.893403 
L 981.812758 320.022495 
L 981.812758 320.022495 
L 967.92009 332.893403 
z
" clip-path="url(#p100bf1997d)" style="fill: #648fff"/>
    <path d="M 927.760953 338.394677 
L 926.795866 420.438373 
L 952.391677 428.254763 
L 953.806008 345.96944 
z
" clip-path="url(#p100bf1997d)" style="fill: #648fff"/>
    <path d="M 942.015874 325.437664 
L 967.92009 332.893403 
L 967.92009 332.893403 
L 942.015874 325.437664 
z
" clip-path="url(#p100bf1997d)" style="fill: #324880"/>
    <path d="M 832.099314 448.222669 
L 857.622113 456.276799 
L 872.449251 442.373101 
L 847.059519 434.445128 
z
" clip-path="url(#p100bf1997d)" style="fill: #577ddf"/>
    <path d="M 913.278079 351.558888 
L 912.553614 434.021725 
L 926.795866 420.438373 
L 927.760953 338.394677 
z
" clip-path="url(#p100bf1997d)" style="fill: #324880"/>
    <path d="M 861.622564 336.376796 
L 876.380012 323.4514 
L 901.953365 330.888977 
L 887.331641 343.932961 
z
" clip-path="url(#p100bf1997d)" style="fill: #3f599f"/>
    <path d="M 939.465179 359.255548 
L 953.806008 345.96944 
L 952.391677 428.254763 
L 938.286574 441.961731 
z
" clip-path="url(#p100bf1997d)" style="fill: #648fff"/>
    <path d="M 846.629417 349.50863 
L 847.059519 434.445128 
L 872.449251 442.373101 
L 872.475305 357.186241 
z
" clip-path="url(#p100bf1997d)" style="fill: #648fff"/>
    <path d="M 913.278079 351.558888 
L 939.465179 359.255548 
L 938.286574 441.961731 
L 912.553614 434.021725 
z
" clip-path="url(#p100bf1997d)" style="fill: #324880"/>
    <path d="M 831.394881 362.851886 
L 832.099314 448.222669 
L 847.059519 434.445128 
L 846.629417 349.50863 
z
" clip-path="url(#p100bf1997d)" style="fill: #324880"/>
    <path d="M 913.278079 351.558888 
L 927.760953 338.394677 
L 953.806008 345.96944 
L 939.465179 359.255548 
z
" clip-path="url(#p100bf1997d)" style="fill: #3f599f"/>
    <path d="M 857.378664 370.653896 
L 872.475305 357.186241 
L 872.449251 442.373101 
L 857.622113 456.276799 
z
" clip-path="url(#p100bf1997d)" style="fill: #648fff"/>
    <path d="M 883.421776 448.573925 
L 909.50637 456.731756 
L 924.105897 442.649633 
L 898.161541 434.62118 
z
" clip-path="url(#p100bf1997d)" style="fill: #577ddf"/>
    <path d="M 831.394881 362.851886 
L 857.378664 370.653896 
L 857.622113 456.276799 
L 832.099314 448.222669 
z
" clip-path="url(#p100bf1997d)" style="fill: #324880"/>
    <path d="M 898.561738 364.935307 
L 898.161541 434.62118 
L 924.105897 442.649633 
L 924.892093 372.75683 
z
" clip-path="url(#p100bf1997d)" style="fill: #648fff"/>
    <path d="M 883.606242 378.529108 
L 883.421776 448.573925 
L 898.161541 434.62118 
L 898.561738 364.935307 
z
" clip-path="url(#p100bf1997d)" style="fill: #324880"/>
    <path d="M 831.394881 362.851886 
L 846.629417 349.50863 
L 872.475305 357.186241 
L 857.378664 370.653896 
z
" clip-path="url(#p100bf1997d)" style="fill: #3f599f"/>
    <path d="M 910.081061 386.478558 
L 924.892093 372.75683 
L 924.105897 442.649633 
L 909.50637 456.731756 
z
" clip-path="url(#p100bf1997d)" style="fill: #648fff"/>
    <path d="M 883.606242 378.529108 
L 910.081061 386.478558 
L 909.50637 456.731756 
L 883.421776 448.573925 
z
" clip-path="url(#p100bf1997d)" style="fill: #324880"/>
    <path d="M 883.606242 378.529108 
L 898.561738 364.935307 
L 924.892093 372.75683 
L 910.081061 386.478558 
z
" clip-path="url(#p100bf1997d)" style="fill: #3f599f"/>
   </g>
   <g id="Poly3DCollection_5">
    <path d="M 709.393264 335.100071 
L 915.952697 397.459596 
L 1028.404503 292.265425 
L 830.280681 237.23718 
z
" clip-path="url(#p100bf1997d)" style="fill-opacity: 0.25"/>
   </g>
   <g id="Poly3DCollection_6">
    <path d="M 820.794897 258.09233 
L 835.160808 246.363914 
L 859.341586 253.113793 
L 845.096069 264.944677 
z
" clip-path="url(#p100bf1997d)" style="fill: #3f599f"/>
    <path d="M 835.160808 246.363914 
L 834.663195 178.104677 
L 859.17895 184.648129 
L 859.341586 253.113793 
z
" clip-path="url(#p100bf1997d)" style="fill: #324880"/>
    <path d="M 820.794897 258.09233 
L 820.092516 189.474917 
L 834.663195 178.104677 
L 835.160808 246.363914 
z
" clip-path="url(#p100bf1997d)" style="fill: #648fff"/>
    <path d="M 869.610826 271.85725 
L 883.733286 259.922549 
L 908.338681 266.790956 
L 894.341999 278.830848 
z
" clip-path="url(#p100bf1997d)" style="fill: #3f599f"/>
    <path d="M 845.096069 264.944677 
L 859.341586 253.113793 
L 859.17895 184.648129 
L 844.732022 196.119101 
z
" clip-path="url(#p100bf1997d)" style="fill: #324880"/>
    <path d="M 820.794897 258.09233 
L 845.096069 264.944677 
L 844.732022 196.119101 
L 820.092516 189.474917 
z
" clip-path="url(#p100bf1997d)" style="fill: #648fff"/>
    <path d="M 883.733286 259.922549 
L 883.946476 177.791875 
L 908.966794 184.410015 
L 908.338681 266.790956 
z
" clip-path="url(#p100bf1997d)" style="fill: #324880"/>
    <path d="M 933.160592 273.719802 
L 933.160592 273.719802 
L 958.201888 280.709888 
L 958.201888 280.709888 
z
" clip-path="url(#p100bf1997d)" style="fill: #324880"/>
    <path d="M 820.092516 189.474917 
L 844.732022 196.119101 
L 859.17895 184.648129 
L 834.663195 178.104677 
z
" clip-path="url(#p100bf1997d)" style="fill: #577ddf"/>
    <path d="M 869.610826 271.85725 
L 869.587287 189.292329 
L 883.946476 177.791875 
L 883.733286 259.922549 
z
" clip-path="url(#p100bf1997d)" style="fill: #648fff"/>
    <path d="M 791.402739 282.088264 
L 806.210548 269.99908 
L 830.632989 276.956247 
L 815.947323 289.152674 
z
" clip-path="url(#p100bf1997d)" style="fill: #3f599f"/>
    <path d="M 919.292465 285.86628 
L 919.292465 285.86628 
L 933.160592 273.719802 
L 933.160592 273.719802 
z
" clip-path="url(#p100bf1997d)" style="fill: #648fff"/>
    <path d="M 919.292465 285.86628 
L 933.160592 273.719802 
L 958.201888 280.709888 
L 944.465154 292.964375 
z
" clip-path="url(#p100bf1997d)" style="fill: #3f599f"/>
    <path d="M 919.292465 285.86628 
L 944.465154 292.964375 
L 958.201888 280.709888 
L 933.160592 273.719802 
z
" clip-path="url(#p100bf1997d)" style="fill: #577ddf"/>
    <path d="M 894.341999 278.830848 
L 908.338681 266.790956 
L 908.966794 184.410015 
L 894.737678 196.013547 
z
" clip-path="url(#p100bf1997d)" style="fill: #324880"/>
    <path d="M 944.465154 292.964375 
L 958.201888 280.709888 
L 958.201888 280.709888 
L 944.465154 292.964375 
z
" clip-path="url(#p100bf1997d)" style="fill: #324880"/>
    <path d="M 806.210548 269.99908 
L 805.083292 184.869139 
L 829.927467 191.566009 
L 830.632989 276.956247 
z
" clip-path="url(#p100bf1997d)" style="fill: #324880"/>
    <path d="M 869.610826 271.85725 
L 894.341999 278.830848 
L 894.737678 196.013547 
L 869.587287 189.292329 
z
" clip-path="url(#p100bf1997d)" style="fill: #648fff"/>
    <path d="M 919.292465 285.86628 
L 944.465154 292.964375 
L 944.465154 292.964375 
L 919.292465 285.86628 
z
" clip-path="url(#p100bf1997d)" style="fill: #648fff"/>
    <path d="M 791.402739 282.088264 
L 790.007072 196.506674 
L 805.083292 184.869139 
L 806.210548 269.99908 
z
" clip-path="url(#p100bf1997d)" style="fill: #648fff"/>
    <path d="M 840.710968 296.280135 
L 855.271728 283.975031 
L 880.129653 291.056253 
L 865.696619 303.471493 
z
" clip-path="url(#p100bf1997d)" style="fill: #3f599f"/>
    <path d="M 869.587287 189.292329 
L 894.737678 196.013547 
L 908.966794 184.410015 
L 883.946476 177.791875 
z
" clip-path="url(#p100bf1997d)" style="fill: #577ddf"/>
    <path d="M 815.947323 289.152674 
L 830.632989 276.956247 
L 829.927467 191.566009 
L 814.97763 203.308596 
z
" clip-path="url(#p100bf1997d)" style="fill: #324880"/>
    <path d="M 791.402739 282.088264 
L 815.947323 289.152674 
L 814.97763 203.308596 
L 790.007072 196.506674 
z
" clip-path="url(#p100bf1997d)" style="fill: #648fff"/>
    <path d="M 905.209701 298.200751 
L 905.209701 298.200751 
L 930.514862 305.409376 
L 930.514862 305.409376 
z
" clip-path="url(#p100bf1997d)" style="fill: #324880"/>
    <path d="M 855.271728 283.975031 
L 854.941187 181.4681 
L 880.32221 188.233193 
L 880.129653 291.056253 
z
" clip-path="url(#p100bf1997d)" style="fill: #324880"/>
    <path d="M 890.907276 310.727612 
L 890.907276 310.727612 
L 905.209701 298.200751 
L 905.209701 298.200751 
z
" clip-path="url(#p100bf1997d)" style="fill: #648fff"/>
    <path d="M 840.710968 296.280135 
L 840.069504 193.224674 
L 854.941187 181.4681 
L 855.271728 283.975031 
z
" clip-path="url(#p100bf1997d)" style="fill: #648fff"/>
    <path d="M 790.007072 196.506674 
L 814.97763 203.308596 
L 829.927467 191.566009 
L 805.083292 184.869139 
z
" clip-path="url(#p100bf1997d)" style="fill: #577ddf"/>
    <path d="M 890.907276 310.727612 
L 905.209701 298.200751 
L 930.514862 305.409376 
L 916.345991 318.049371 
z
" clip-path="url(#p100bf1997d)" style="fill: #3f599f"/>
    <path d="M 890.907276 310.727612 
L 916.345991 318.049371 
L 930.514862 305.409376 
L 905.209701 298.200751 
z
" clip-path="url(#p100bf1997d)" style="fill: #577ddf"/>
    <path d="M 916.345991 318.049371 
L 930.514862 305.409376 
L 930.514862 305.409376 
L 916.345991 318.049371 
z
" clip-path="url(#p100bf1997d)" style="fill: #324880"/>
    <path d="M 825.923365 308.77694 
L 825.923365 308.77694 
L 851.037717 316.081024 
L 851.037717 316.081024 
z
" clip-path="url(#p100bf1997d)" style="fill: #324880"/>
    <path d="M 865.696619 303.471493 
L 880.129653 291.056253 
L 880.32221 188.233193 
L 865.583695 200.097228 
z
" clip-path="url(#p100bf1997d)" style="fill: #324880"/>
    <path d="M 890.907276 310.727612 
L 916.345991 318.049371 
L 916.345991 318.049371 
L 890.907276 310.727612 
z
" clip-path="url(#p100bf1997d)" style="fill: #648fff"/>
    <path d="M 810.903578 321.469961 
L 810.903578 321.469961 
L 825.923365 308.77694 
L 825.923365 308.77694 
z
" clip-path="url(#p100bf1997d)" style="fill: #648fff"/>
    <path d="M 840.710968 296.280135 
L 865.696619 303.471493 
L 865.583695 200.097228 
L 840.069504 193.224674 
z
" clip-path="url(#p100bf1997d)" style="fill: #648fff"/>
    <path d="M 810.903578 321.469961 
L 825.923365 308.77694 
L 851.037717 316.081024 
L 836.147604 328.889442 
z
" clip-path="url(#p100bf1997d)" style="fill: #3f599f"/>
    <path d="M 810.903578 321.469961 
L 836.147604 328.889442 
L 851.037717 316.081024 
L 825.923365 308.77694 
z
" clip-path="url(#p100bf1997d)" style="fill: #577ddf"/>
    <path d="M 836.147604 328.889442 
L 851.037717 316.081024 
L 851.037717 316.081024 
L 836.147604 328.889442 
z
" clip-path="url(#p100bf1997d)" style="fill: #324880"/>
    <path d="M 745.585995 319.493329 
L 745.585995 319.493329 
L 770.502217 326.894779 
L 770.502217 326.894779 
z
" clip-path="url(#p100bf1997d)" style="fill: #324880"/>
    <path d="M 810.903578 321.469961 
L 836.147604 328.889442 
L 836.147604 328.889442 
L 810.903578 321.469961 
z
" clip-path="url(#p100bf1997d)" style="fill: #648fff"/>
    <path d="M 729.830954 332.355838 
L 729.830954 332.355838 
L 745.585995 319.493329 
L 745.585995 319.493329 
z
" clip-path="url(#p100bf1997d)" style="fill: #648fff"/>
    <path d="M 840.069504 193.224674 
L 865.583695 200.097228 
L 880.32221 188.233193 
L 854.941187 181.4681 
z
" clip-path="url(#p100bf1997d)" style="fill: #577ddf"/>
    <path d="M 729.830954 332.355838 
L 745.585995 319.493329 
L 770.502217 326.894779 
L 754.872777 339.87501 
z
" clip-path="url(#p100bf1997d)" style="fill: #3f599f"/>
    <path d="M 729.830954 332.355838 
L 754.872777 339.87501 
L 770.502217 326.894779 
L 745.585995 319.493329 
z
" clip-path="url(#p100bf1997d)" style="fill: #577ddf"/>
    <path d="M 754.872777 339.87501 
L 770.502217 326.894779 
L 770.502217 326.894779 
L 754.872777 339.87501 
z
" clip-path="url(#p100bf1997d)" style="fill: #324880"/>
    <path d="M 729.830954 332.355838 
L 754.872777 339.87501 
L 754.872777 339.87501 
L 729.830954 332.355838 
z
" clip-path="url(#p100bf1997d)" style="fill: #648fff"/>
    <path d="M 795.646095 334.363856 
L 795.133209 301.498833 
L 820.679003 308.936142 
L 821.020765 341.90149 
z
" clip-path="url(#p100bf1997d)" style="fill: #324880"/>
    <path d="M 780.145228 347.463432 
L 795.646095 334.363856 
L 821.020765 341.90149 
L 805.65151 355.122064 
z
" clip-path="url(#p100bf1997d)" style="fill: #3f599f"/>
    <path d="M 780.145228 347.463432 
L 779.521879 314.424353 
L 795.133209 301.498833 
L 795.646095 334.363856 
z
" clip-path="url(#p100bf1997d)" style="fill: #648fff"/>
    <path d="M 805.65151 355.122064 
L 821.020765 341.90149 
L 820.679003 308.936142 
L 805.201058 321.981874 
z
" clip-path="url(#p100bf1997d)" style="fill: #324880"/>
    <path d="M 779.521879 314.424353 
L 805.201058 321.981874 
L 820.679003 308.936142 
L 795.133209 301.498833 
z
" clip-path="url(#p100bf1997d)" style="fill: #577ddf"/>
    <path d="M 780.145228 347.463432 
L 805.65151 355.122064 
L 805.201058 321.981874 
L 779.521879 314.424353 
z
" clip-path="url(#p100bf1997d)" style="fill: #648fff"/>
   </g>
   <g id="text_32">
    <!-- Imaginary Amplitude (ρ) -->
    <g transform="translate(735.696563 51.6) scale(0.21 -0.21)">
     <defs>
      <path id="DejaVuSans-49" d="M 628 4666 
L 1259 4666 
L 1259 0 
L 628 0 
L 628 4666 
z
" transform="scale(0.015625)"/>
      <path id="DejaVuSans-67" d="M 2906 1791 
Q 2906 2416 2648 2759 
Q 2391 3103 1925 3103 
Q 1463 3103 1205 2759 
Q 947 2416 947 1791 
Q 947 1169 1205 825 
Q 1463 481 1925 481 
Q 2391 481 2648 825 
Q 2906 1169 2906 1791 
z
M 3481 434 
Q 3481 -459 3084 -895 
Q 2688 -1331 1869 -1331 
Q 1566 -1331 1297 -1286 
Q 1028 -1241 775 -1147 
L 775 -588 
Q 1028 -725 1275 -790 
Q 1522 -856 1778 -856 
Q 2344 -856 2625 -561 
Q 2906 -266 2906 331 
L 2906 616 
Q 2728 306 2450 153 
Q 2172 0 1784 0 
Q 1141 0 747 490 
Q 353 981 353 1791 
Q 353 2603 747 3093 
Q 1141 3584 1784 3584 
Q 2172 3584 2450 3431 
Q 2728 3278 2906 2969 
L 2906 3500 
L 3481 3500 
L 3481 434 
z
" transform="scale(0.015625)"/>
      <path id="DejaVuSans-6e" d="M 3513 2113 
L 3513 0 
L 2938 0 
L 2938 2094 
Q 2938 2591 2744 2837 
Q 2550 3084 2163 3084 
Q 1697 3084 1428 2787 
Q 1159 2491 1159 1978 
L 1159 0 
L 581 0 
L 581 3500 
L 1159 3500 
L 1159 2956 
Q 1366 3272 1645 3428 
Q 1925 3584 2291 3584 
Q 2894 3584 3203 3211 
Q 3513 2838 3513 2113 
z
" transform="scale(0.015625)"/>
      <path id="DejaVuSans-72" d="M 2631 2963 
Q 2534 3019 2420 3045 
Q 2306 3072 2169 3072 
Q 1681 3072 1420 2755 
Q 1159 2438 1159 1844 
L 1159 0 
L 581 0 
L 581 3500 
L 1159 3500 
L 1159 2956 
Q 1341 3275 1631 3429 
Q 1922 3584 2338 3584 
Q 2397 3584 2469 3576 
Q 2541 3569 2628 3553 
L 2631 2963 
z
" transform="scale(0.015625)"/>
      <path id="DejaVuSans-79" d="M 2059 -325 
Q 1816 -950 1584 -1140 
Q 1353 -1331 966 -1331 
L 506 -1331 
L 506 -850 
L 844 -850 
Q 1081 -850 1212 -737 
Q 1344 -625 1503 -206 
L 1606 56 
L 191 3500 
L 800 3500 
L 1894 763 
L 2988 3500 
L 3597 3500 
L 2059 -325 
z
" transform="scale(0.015625)"/>
     </defs>
     <use xlink:href="#DejaVuSans-49"/>
     <use xlink:href="#DejaVuSans-6d" x="29.492188"/>
     <use xlink:href="#DejaVuSans-61" x="126.904297"/>
     <use xlink:href="#DejaVuSans-67" x="188.183594"/>
     <use xlink:href="#DejaVuSans-69" x="251.660156"/>
     <use xlink:href="#DejaVuSans-6e" x="279.443359"/>
     <use xlink:href="#DejaVuSans-61" x="342.822266"/>
     <use xlink:href="#DejaVuSans-72" x="404.101562"/>
     <use xlink:href="#DejaVuSans-79" x="445.214844"/>
     <use xlink:href="#DejaVuSans-20" x="504.394531"/>
     <use xlink:href="#DejaVuSans-41" x="536.181641"/>
     <use xlink:href="#DejaVuSans-6d" x="604.589844"/>
     <use xlink:href="#DejaVuSans-70" x="702.001953"/>
     <use xlink:href="#DejaVuSans-6c" x="765.478516"/>
     <use xlink:href="#DejaVuSans-69" x="793.261719"/>
     <use xlink:href="#DejaVuSans-74" x="821.044922"/>
     <use xlink:href="#DejaVuSans-75" x="860.253906"/>
     <use xlink:href="#DejaVuSans-64" x="923.632812"/>
     <use xlink:href="#DejaVuSans-65" x="987.109375"/>
     <use xlink:href="#DejaVuSans-20" x="1048.632812"/>
     <use xlink:href="#DejaVuSans-28" x="1080.419922"/>
     <use xlink:href="#DejaVuSans-3c1" x="1119.433594"/>
     <use xlink:href="#DejaVuSans-29" x="1182.910156"/>
    </g>
   </g>
  </g>
 </g>
 <defs>
  <clipPath id="p8d1c35eb0d">
   <rect x="28.8" y="57.6" width="518.4" height="518.4"/>
  </clipPath>
  <clipPath id="p100bf1997d">
   <rect x="604.8" y="57.6" width="518.4" height="518.4"/>
  </clipPath>
 </defs>
</svg>
