<?xml version="1.0" encoding="utf-8" standalone="no"?>
<!DOCTYPE svg PUBLIC "-//W3C//DTD SVG 1.1//EN"
  "http://www.w3.org/Graphics/SVG/1.1/DTD/svg11.dtd">
<svg xmlns:xlink="http://www.w3.org/1999/xlink" width="1152pt" height="576pt" viewBox="0 0 1152 576" xmlns="http://www.w3.org/2000/svg" version="1.1">
 <metadata>
  <rdf:RDF xmlns:dc="http://purl.org/dc/elements/1.1/" xmlns:cc="http://creativecommons.org/ns#" xmlns:rdf="http://www.w3.org/1999/02/22-rdf-syntax-ns#">
   <cc:Work>
    <dc:type rdf:resource="http://purl.org/dc/dcmitype/StillImage"/>
    <dc:date>2024-11-02T18:56:33.269082</dc:date>
    <dc:format>image/svg+xml</dc:format>
    <dc:creator>
     <cc:Agent>
      <dc:title>Matplotlib v3.9.2, https://matplotlib.org/</dc:title>
     </cc:Agent>
    </dc:creator>
   </cc:Work>
  </rdf:RDF>
 </metadata>
 <defs>
  <style type="text/css">*{stroke-linejoin: round; stroke-linecap: butt}</style>
 </defs>
 <g id="figure_1">
  <g id="patch_1">
   <path d="M 0 576 
L 1152 576 
L 1152 0 
L 0 0 
z
" style="fill: #ffffff"/>
  </g>
  <g id="patch_2">
   <path d="M 28.8 576 
L 547.2 576 
L 547.2 57.6 
L 28.8 57.6 
z
" style="fill: #ffffff"/>
  </g>
  <g id="pane3d_1">
   <g id="patch_3">
    <path d="M 130.07018 436.456468 
L 253.494133 330.550231 
L 251.743197 126.70673 
L 122.643358 223.613571 
" style="fill: #f2f2f2; opacity: 0.5; stroke: #f2f2f2; stroke-linejoin: miter"/>
   </g>
  </g>
  <g id="pane3d_2">
   <g id="patch_4">
    <path d="M 253.494133 330.550231 
L 455.554898 390.069341 
L 462.583588 181.103065 
L 251.743197 126.70673 
" style="fill: #e6e6e6; opacity: 0.5; stroke: #e6e6e6; stroke-linejoin: miter"/>
   </g>
  </g>
  <g id="pane3d_3">
   <g id="patch_5">
    <path d="M 130.07018 436.456468 
L 340.912731 504.076731 
L 455.554898 390.069341 
L 253.494133 330.550231 
" style="fill: #ececec; opacity: 0.5; stroke: #ececec; stroke-linejoin: miter"/>
   </g>
  </g>
  <g id="grid3d_1">
   <g id="Line3DCollection_1">
    <path d="M 158.635886 445.617904 
L 280.925726 338.630493 
L 280.328796 134.081748 
" style="fill: none; stroke: #b0b0b0; stroke-width: 0.8"/>
    <path d="M 208.310046 461.549127 
L 328.58611 352.669358 
L 330.022474 146.902603 
" style="fill: none; stroke: #b0b0b0; stroke-width: 0.8"/>
    <path d="M 258.89502 477.772462 
L 377.066152 366.949661 
L 380.607663 159.953465 
" style="fill: none; stroke: #b0b0b0; stroke-width: 0.8"/>
    <path d="M 310.41609 494.296016 
L 426.38718 381.477685 
L 432.108569 173.24058 
" style="fill: none; stroke: #b0b0b0; stroke-width: 0.8"/>
   </g>
  </g>
  <g id="grid3d_2">
   <g id="Line3DCollection_2">
    <path d="M 141.757365 209.265931 
L 148.301379 420.812846 
L 357.880707 487.202708 
" style="fill: none; stroke: #b0b0b0; stroke-width: 0.8"/>
    <path d="M 173.704273 185.285468 
L 178.805664 394.638072 
L 386.24502 458.995448 
" style="fill: none; stroke: #b0b0b0; stroke-width: 0.8"/>
    <path d="M 204.65707 162.051218 
L 208.400054 369.24405 
L 413.731787 431.660877 
" style="fill: none; stroke: #b0b0b0; stroke-width: 0.8"/>
    <path d="M 234.661448 139.528886 
L 237.124663 344.596362 
L 440.38111 405.159111 
" style="fill: none; stroke: #b0b0b0; stroke-width: 0.8"/>
   </g>
  </g>
  <g id="grid3d_3">
   <g id="Line3DCollection_3">
    <path d="M 456.698644 356.065216 
L 253.208845 297.337106 
L 128.862858 401.856205 
" style="fill: none; stroke: #b0b0b0; stroke-width: 0.8"/>
    <path d="M 457.888536 320.689175 
L 252.912198 262.801573 
L 127.606326 365.845676 
" style="fill: none; stroke: #b0b0b0; stroke-width: 0.8"/>
    <path d="M 459.09607 284.788614 
L 252.611311 227.772311 
L 126.330644 329.286303 
" style="fill: none; stroke: #b0b0b0; stroke-width: 0.8"/>
    <path d="M 460.321642 248.351779 
L 252.30609 192.238656 
L 125.035369 292.165443 
" style="fill: none; stroke: #b0b0b0; stroke-width: 0.8"/>
    <path d="M 461.565659 211.366564 
L 251.996443 156.189636 
L 123.720047 254.470058 
" style="fill: none; stroke: #b0b0b0; stroke-width: 0.8"/>
   </g>
  </g>
  <g id="axis3d_1">
   <g id="line2d_1">
    <path d="M 130.07018 436.456468 
L 340.912731 504.076731 
" style="fill: none; stroke: #000000; stroke-width: 0.8; stroke-linecap: square"/>
   </g>
   <g id="xtick_1">
    <g id="line2d_2">
     <path d="M 159.677227 444.706868 
L 156.549953 447.442819 
" style="fill: none; stroke: #000000; stroke-width: 0.8; stroke-linecap: square"/>
    </g>
    <g id="text_1">
     <!-- 00 -->
     <g transform="translate(131.351686 489.365693) rotate(-45) scale(0.21 -0.21)">
      <defs>
       <path id="DejaVuSans-30" d="M 2034 4250 
Q 1547 4250 1301 3770 
Q 1056 3291 1056 2328 
Q 1056 1369 1301 889 
Q 1547 409 2034 409 
Q 2525 409 2770 889 
Q 3016 1369 3016 2328 
Q 3016 3291 2770 3770 
Q 2525 4250 2034 4250 
z
M 2034 4750 
Q 2819 4750 3233 4129 
Q 3647 3509 3647 2328 
Q 3647 1150 3233 529 
Q 2819 -91 2034 -91 
Q 1250 -91 836 529 
Q 422 1150 422 2328 
Q 422 3509 836 4129 
Q 1250 4750 2034 4750 
z
" transform="scale(0.015625)"/>
      </defs>
      <use xlink:href="#DejaVuSans-30"/>
      <use xlink:href="#DejaVuSans-30" x="63.623047"/>
     </g>
    </g>
   </g>
   <g id="xtick_2">
    <g id="line2d_3">
     <path d="M 209.334802 460.621468 
L 206.257306 463.407368 
" style="fill: none; stroke: #000000; stroke-width: 0.8; stroke-linecap: square"/>
    </g>
    <g id="text_2">
     <!-- 01 -->
     <g transform="translate(181.023931 505.435143) rotate(-45) scale(0.21 -0.21)">
      <defs>
       <path id="DejaVuSans-31" d="M 794 531 
L 1825 531 
L 1825 4091 
L 703 3866 
L 703 4441 
L 1819 4666 
L 2450 4666 
L 2450 531 
L 3481 531 
L 3481 0 
L 794 0 
L 794 531 
z
" transform="scale(0.015625)"/>
      </defs>
      <use xlink:href="#DejaVuSans-30"/>
      <use xlink:href="#DejaVuSans-31" x="63.623047"/>
     </g>
    </g>
   </g>
   <g id="xtick_3">
    <g id="line2d_4">
     <path d="M 259.902405 476.82772 
L 256.877048 479.664949 
" style="fill: none; stroke: #000000; stroke-width: 0.8; stroke-linecap: square"/>
    </g>
    <g id="text_3">
     <!-- 10 -->
     <g transform="translate(231.60781 521.799516) rotate(-45) scale(0.21 -0.21)">
      <use xlink:href="#DejaVuSans-31"/>
      <use xlink:href="#DejaVuSans-30" x="63.623047"/>
     </g>
    </g>
   </g>
   <g id="xtick_4">
    <g id="line2d_5">
     <path d="M 311.405283 493.333715 
L 308.434531 496.223705 
" style="fill: none; stroke: #000000; stroke-width: 0.8; stroke-linecap: square"/>
    </g>
    <g id="text_4">
     <!-- 11 -->
     <g transform="translate(283.128654 538.467006) rotate(-45) scale(0.21 -0.21)">
      <use xlink:href="#DejaVuSans-31"/>
      <use xlink:href="#DejaVuSans-31" x="63.623047"/>
     </g>
    </g>
   </g>
  </g>
  <g id="axis3d_2">
   <g id="line2d_6">
    <path d="M 455.554898 390.069341 
L 340.912731 504.076731 
" style="fill: none; stroke: #000000; stroke-width: 0.8; stroke-linecap: square"/>
   </g>
   <g id="xtick_5">
    <g id="line2d_7">
     <path d="M 356.140222 486.651363 
L 361.364886 488.306415 
" style="fill: none; stroke: #000000; stroke-width: 0.8; stroke-linecap: square"/>
    </g>
    <g id="text_5">
     <!-- 00 -->
     <g transform="translate(368.70027 499.207917) rotate(-337.5) scale(0.21 -0.21)">
      <use xlink:href="#DejaVuSans-30"/>
      <use xlink:href="#DejaVuSans-30" x="63.623047"/>
     </g>
    </g>
   </g>
   <g id="xtick_6">
    <g id="line2d_8">
     <path d="M 384.5233 458.46129 
L 389.691587 460.064734 
" style="fill: none; stroke: #000000; stroke-width: 0.8; stroke-linecap: square"/>
    </g>
    <g id="text_6">
     <!-- 01 -->
     <g transform="translate(396.913817 470.822876) rotate(-337.5) scale(0.21 -0.21)">
      <use xlink:href="#DejaVuSans-30"/>
      <use xlink:href="#DejaVuSans-31" x="63.623047"/>
     </g>
    </g>
   </g>
   <g id="xtick_7">
    <g id="line2d_9">
     <path d="M 412.028511 431.143114 
L 417.141381 432.697327 
" style="fill: none; stroke: #000000; stroke-width: 0.8; stroke-linecap: square"/>
    </g>
    <g id="text_7">
     <!-- 10 -->
     <g transform="translate(424.254695 443.315808) rotate(-337.5) scale(0.21 -0.21)">
      <use xlink:href="#DejaVuSans-31"/>
      <use xlink:href="#DejaVuSans-30" x="63.623047"/>
     </g>
    </g>
   </g>
   <g id="xtick_8">
    <g id="line2d_10">
     <path d="M 438.695964 404.657001 
L 443.754368 406.164215 
" style="fill: none; stroke: #000000; stroke-width: 0.8; stroke-linecap: square"/>
    </g>
    <g id="text_8">
     <!-- 11 -->
     <g transform="translate(450.762776 416.646599) rotate(-337.5) scale(0.21 -0.21)">
      <use xlink:href="#DejaVuSans-31"/>
      <use xlink:href="#DejaVuSans-31" x="63.623047"/>
     </g>
    </g>
   </g>
  </g>
  <g id="axis3d_3">
   <g id="line2d_11">
    <path d="M 455.554898 390.069341 
L 462.583588 181.103065 
" style="fill: none; stroke: #000000; stroke-width: 0.8; stroke-linecap: square"/>
   </g>
   <g id="xtick_9">
    <g id="line2d_12">
     <path d="M 455.011667 355.578346 
L 460.075564 357.039811 
" style="fill: none; stroke: #000000; stroke-width: 0.8; stroke-linecap: square"/>
    </g>
    <g id="text_9">
     <!-- −0.1 -->
     <g transform="translate(470.272597 349.801909) scale(0.21 -0.21)">
      <defs>
       <path id="DejaVuSans-2212" d="M 678 2272 
L 4684 2272 
L 4684 1741 
L 678 1741 
L 678 2272 
z
" transform="scale(0.015625)"/>
       <path id="DejaVuSans-2e" d="M 684 794 
L 1344 794 
L 1344 0 
L 684 0 
L 684 794 
z
" transform="scale(0.015625)"/>
      </defs>
      <use xlink:href="#DejaVuSans-2212"/>
      <use xlink:href="#DejaVuSans-30" x="83.789062"/>
      <use xlink:href="#DejaVuSans-2e" x="147.412109"/>
      <use xlink:href="#DejaVuSans-31" x="179.199219"/>
     </g>
    </g>
   </g>
   <g id="xtick_10">
    <g id="line2d_13">
     <path d="M 456.188797 320.20915 
L 461.291022 321.650075 
" style="fill: none; stroke: #000000; stroke-width: 0.8; stroke-linecap: square"/>
    </g>
    <g id="text_10">
     <!-- 0.0 -->
     <g transform="translate(471.560899 314.452533) scale(0.21 -0.21)">
      <use xlink:href="#DejaVuSans-30"/>
      <use xlink:href="#DejaVuSans-2e" x="63.623047"/>
      <use xlink:href="#DejaVuSans-30" x="95.410156"/>
     </g>
    </g>
   </g>
   <g id="xtick_11">
    <g id="line2d_14">
     <path d="M 457.383375 284.31569 
L 462.524514 285.735304 
" style="fill: none; stroke: #000000; stroke-width: 0.8; stroke-linecap: square"/>
    </g>
    <g id="text_11">
     <!-- 0.1 -->
     <g transform="translate(472.86828 278.579638) scale(0.21 -0.21)">
      <use xlink:href="#DejaVuSans-30"/>
      <use xlink:href="#DejaVuSans-2e" x="63.623047"/>
      <use xlink:href="#DejaVuSans-31" x="95.410156"/>
     </g>
    </g>
   </g>
   <g id="xtick_12">
    <g id="line2d_15">
     <path d="M 458.595793 247.886223 
L 463.776441 249.283726 
" style="fill: none; stroke: #000000; stroke-width: 0.8; stroke-linecap: square"/>
    </g>
    <g id="text_12">
     <!-- 0.2 -->
     <g transform="translate(474.195167 242.171507) scale(0.21 -0.21)">
      <defs>
       <path id="DejaVuSans-32" d="M 1228 531 
L 3431 531 
L 3431 0 
L 469 0 
L 469 531 
Q 828 903 1448 1529 
Q 2069 2156 2228 2338 
Q 2531 2678 2651 2914 
Q 2772 3150 2772 3378 
Q 2772 3750 2511 3984 
Q 2250 4219 1831 4219 
Q 1534 4219 1204 4116 
Q 875 4013 500 3803 
L 500 4441 
Q 881 4594 1212 4672 
Q 1544 4750 1819 4750 
Q 2544 4750 2975 4387 
Q 3406 4025 3406 3419 
Q 3406 3131 3298 2873 
Q 3191 2616 2906 2266 
Q 2828 2175 2409 1742 
Q 1991 1309 1228 531 
z
" transform="scale(0.015625)"/>
      </defs>
      <use xlink:href="#DejaVuSans-30"/>
      <use xlink:href="#DejaVuSans-2e" x="63.623047"/>
      <use xlink:href="#DejaVuSans-32" x="95.410156"/>
     </g>
    </g>
   </g>
   <g id="xtick_13">
    <g id="line2d_16">
     <path d="M 459.826451 210.908653 
L 465.047222 212.283216 
" style="fill: none; stroke: #000000; stroke-width: 0.8; stroke-linecap: square"/>
    </g>
    <g id="text_13">
     <!-- 0.3 -->
     <g transform="translate(475.542001 205.216071) scale(0.21 -0.21)">
      <defs>
       <path id="DejaVuSans-33" d="M 2597 2516 
Q 3050 2419 3304 2112 
Q 3559 1806 3559 1356 
Q 3559 666 3084 287 
Q 2609 -91 1734 -91 
Q 1441 -91 1130 -33 
Q 819 25 488 141 
L 488 750 
Q 750 597 1062 519 
Q 1375 441 1716 441 
Q 2309 441 2620 675 
Q 2931 909 2931 1356 
Q 2931 1769 2642 2001 
Q 2353 2234 1838 2234 
L 1294 2234 
L 1294 2753 
L 1863 2753 
Q 2328 2753 2575 2939 
Q 2822 3125 2822 3475 
Q 2822 3834 2567 4026 
Q 2313 4219 1838 4219 
Q 1578 4219 1281 4162 
Q 984 4106 628 3988 
L 628 4550 
Q 988 4650 1302 4700 
Q 1616 4750 1894 4750 
Q 2613 4750 3031 4423 
Q 3450 4097 3450 3541 
Q 3450 3153 3228 2886 
Q 3006 2619 2597 2516 
z
" transform="scale(0.015625)"/>
      </defs>
      <use xlink:href="#DejaVuSans-30"/>
      <use xlink:href="#DejaVuSans-2e" x="63.623047"/>
      <use xlink:href="#DejaVuSans-33" x="95.410156"/>
     </g>
    </g>
   </g>
  </g>
  <g id="axes_1">
   <g id="Poly3DCollection_1">
    <path d="M 245.527017 329.614881 
L 269.475481 336.675237 
L 283.511123 324.484652 
L 259.679601 317.528349 
z
" clip-path="url(#p3c6f9bd61e)" style="fill: #577ddf"/>
    <path d="M 259.370293 275.099576 
L 259.679601 317.528349 
L 283.511123 324.484652 
L 283.410046 281.933887 
z
" clip-path="url(#p3c6f9bd61e)" style="fill: #648fff"/>
    <path d="M 245.090541 286.974477 
L 245.527017 329.614881 
L 259.679601 317.528349 
L 259.370293 275.099576 
z
" clip-path="url(#p3c6f9bd61e)" style="fill: #324880"/>
    <path d="M 269.249288 293.911923 
L 283.410046 281.933887 
L 283.511123 324.484652 
L 269.475481 336.675237 
z
" clip-path="url(#p3c6f9bd61e)" style="fill: #648fff"/>
    <path d="M 245.090541 286.974477 
L 269.249288 293.911923 
L 269.475481 336.675237 
L 245.527017 329.614881 
z
" clip-path="url(#p3c6f9bd61e)" style="fill: #324880"/>
    <path d="M 245.090541 286.974477 
L 259.370293 275.099576 
L 283.410046 281.933887 
L 269.249288 293.911923 
z
" clip-path="url(#p3c6f9bd61e)" style="fill: #3f599f"/>
    <path d="M 307.658256 288.82746 
L 307.586779 316.363552 
L 331.907089 323.396937 
L 332.117646 295.78107 
z
" clip-path="url(#p3c6f9bd61e)" style="fill: #648fff"/>
    <path d="M 293.627 328.584469 
L 318.070177 335.724314 
L 331.907089 323.396937 
L 307.586779 316.363552 
z
" clip-path="url(#p3c6f9bd61e)" style="fill: #577ddf"/>
    <path d="M 342.317798 384.316179 
L 366.975911 391.699912 
L 380.447419 378.951453 
L 355.915368 371.677828 
z
" clip-path="url(#p3c6f9bd61e)" style="fill: #577ddf"/>
    <path d="M 293.61911 300.909982 
L 293.627 328.584469 
L 307.586779 316.363552 
L 307.658256 288.82746 
z
" clip-path="url(#p3c6f9bd61e)" style="fill: #324880"/>
    <path d="M 356.790987 302.795505 
L 355.915368 371.677828 
L 380.447419 378.951453 
L 381.681098 309.871565 
z
" clip-path="url(#p3c6f9bd61e)" style="fill: #648fff"/>
    <path d="M 318.202783 307.969451 
L 332.117646 295.78107 
L 331.907089 323.396937 
L 318.070177 335.724314 
z
" clip-path="url(#p3c6f9bd61e)" style="fill: #648fff"/>
    <path d="M 343.003135 315.091141 
L 342.317798 384.316179 
L 355.915368 371.677828 
L 356.790987 302.795505 
z
" clip-path="url(#p3c6f9bd61e)" style="fill: #324880"/>
    <path d="M 293.61911 300.909982 
L 307.658256 288.82746 
L 332.117646 295.78107 
L 318.202783 307.969451 
z
" clip-path="url(#p3c6f9bd61e)" style="fill: #3f599f"/>
    <path d="M 293.61911 300.909982 
L 318.202783 307.969451 
L 318.070177 335.724314 
L 293.627 328.584469 
z
" clip-path="url(#p3c6f9bd61e)" style="fill: #324880"/>
    <path d="M 368.023044 322.27588 
L 381.681098 309.871565 
L 380.447419 378.951453 
L 366.975911 391.699912 
z
" clip-path="url(#p3c6f9bd61e)" style="fill: #648fff"/>
    <path d="M 343.003135 315.091141 
L 368.023044 322.27588 
L 366.975911 391.699912 
L 342.317798 384.316179 
z
" clip-path="url(#p3c6f9bd61e)" style="fill: #324880"/>
    <path d="M 343.003135 315.091141 
L 356.790987 302.795505 
L 381.681098 309.871565 
L 368.023044 322.27588 
z
" clip-path="url(#p3c6f9bd61e)" style="fill: #3f599f"/>
    <path d="M 200.936367 323.692652 
L 201.239746 339.30064 
L 225.682544 346.607609 
L 225.457252 330.953911 
z
" clip-path="url(#p3c6f9bd61e)" style="fill: #648fff"/>
    <path d="M 185.763056 336.310627 
L 186.118086 351.99791 
L 201.239746 339.30064 
L 200.936367 323.692652 
z
" clip-path="url(#p3c6f9bd61e)" style="fill: #324880"/>
    <path d="M 364.547689 425.463057 
L 389.907363 433.211024 
L 403.529187 419.834723 
L 378.303317 412.205078 
z
" clip-path="url(#p3c6f9bd61e)" style="fill: #577ddf"/>
    <path d="M 186.118086 351.99791 
L 210.682532 359.418208 
L 225.682544 346.607609 
L 201.239746 339.30064 
z
" clip-path="url(#p3c6f9bd61e)" style="fill: #577ddf"/>
    <path d="M 185.763056 336.310627 
L 200.936367 323.692652 
L 225.457252 330.953911 
L 210.406363 343.684876 
z
" clip-path="url(#p3c6f9bd61e)" style="fill: #3f599f"/>
    <path d="M 379.530095 342.233189 
L 378.303317 412.205078 
L 403.529187 419.834723 
L 405.134674 349.660774 
z
" clip-path="url(#p3c6f9bd61e)" style="fill: #648fff"/>
    <path d="M 210.406363 343.684876 
L 225.457252 330.953911 
L 225.682544 346.607609 
L 210.682532 359.418208 
z
" clip-path="url(#p3c6f9bd61e)" style="fill: #648fff"/>
    <path d="M 365.57989 355.140672 
L 364.547689 425.463057 
L 378.303317 412.205078 
L 379.530095 342.233189 
z
" clip-path="url(#p3c6f9bd61e)" style="fill: #324880"/>
    <path d="M 185.763056 336.310627 
L 210.406363 343.684876 
L 210.682532 359.418208 
L 186.118086 351.99791 
z
" clip-path="url(#p3c6f9bd61e)" style="fill: #324880"/>
    <path d="M 391.322361 362.685166 
L 405.134674 349.660774 
L 403.529187 419.834723 
L 389.907363 433.211024 
z
" clip-path="url(#p3c6f9bd61e)" style="fill: #648fff"/>
    <path d="M 365.57989 355.140672 
L 391.322361 362.685166 
L 389.907363 433.211024 
L 364.547689 425.463057 
z
" clip-path="url(#p3c6f9bd61e)" style="fill: #324880"/>
    <path d="M 365.57989 355.140672 
L 379.530095 342.233189 
L 405.134674 349.660774 
L 391.322361 362.685166 
z
" clip-path="url(#p3c6f9bd61e)" style="fill: #3f599f"/>
    <path d="M 220.111293 364.173073 
L 220.358804 380.03321 
L 245.495642 387.706837 
L 245.33073 371.799923 
z
" clip-path="url(#p3c6f9bd61e)" style="fill: #648fff"/>
    <path d="M 351.409743 368.251656 
L 351.075357 396.678354 
L 376.801248 404.426092 
L 377.291285 375.915841 
z
" clip-path="url(#p3c6f9bd61e)" style="fill: #648fff"/>
    <path d="M 204.71056 377.427419 
L 205.011324 393.368699 
L 220.358804 380.03321 
L 220.111293 364.173073 
z
" clip-path="url(#p3c6f9bd61e)" style="fill: #324880"/>
    <path d="M 336.7634 410.142628 
L 362.627848 418.013519 
L 376.801248 404.426092 
L 351.075357 396.678354 
z
" clip-path="url(#p3c6f9bd61e)" style="fill: #577ddf"/>
    <path d="M 205.011324 393.368699 
L 230.277329 401.164326 
L 245.495642 387.706837 
L 220.358804 380.03321 
z
" clip-path="url(#p3c6f9bd61e)" style="fill: #577ddf"/>
    <path d="M 337.014412 381.570994 
L 336.7634 410.142628 
L 351.075357 396.678354 
L 351.409743 368.251656 
z
" clip-path="url(#p3c6f9bd61e)" style="fill: #324880"/>
    <path d="M 204.71056 377.427419 
L 220.111293 364.173073 
L 245.33073 371.799923 
L 230.06001 385.175933 
z
" clip-path="url(#p3c6f9bd61e)" style="fill: #3f599f"/>
    <path d="M 230.06001 385.175933 
L 245.33073 371.799923 
L 245.495642 387.706837 
L 230.277329 401.164326 
z
" clip-path="url(#p3c6f9bd61e)" style="fill: #648fff"/>
    <path d="M 363.036207 389.357741 
L 377.291285 375.915841 
L 376.801248 404.426092 
L 362.627848 418.013519 
z
" clip-path="url(#p3c6f9bd61e)" style="fill: #648fff"/>
    <path d="M 204.71056 377.427419 
L 230.06001 385.175933 
L 230.277329 401.164326 
L 205.011324 393.368699 
z
" clip-path="url(#p3c6f9bd61e)" style="fill: #324880"/>
    <path d="M 337.014412 381.570994 
L 351.409743 368.251656 
L 377.291285 375.915841 
L 363.036207 389.357741 
z
" clip-path="url(#p3c6f9bd61e)" style="fill: #3f599f"/>
    <path d="M 337.014412 381.570994 
L 363.036207 389.357741 
L 362.627848 418.013519 
L 336.7634 410.142628 
z
" clip-path="url(#p3c6f9bd61e)" style="fill: #324880"/>
    <path d="M 307.408601 453.576535 
L 333.465328 461.748876 
L 348.049743 447.641653 
L 322.132955 439.598782 
z
" clip-path="url(#p3c6f9bd61e)" style="fill: #577ddf"/>
    <path d="M 322.388485 395.103691 
L 322.132955 439.598782 
L 348.049743 447.641653 
L 348.55172 403.015964 
z
" clip-path="url(#p3c6f9bd61e)" style="fill: #648fff"/>
    <path d="M 307.526377 408.854916 
L 307.408601 453.576535 
L 322.132955 439.598782 
L 322.388485 395.103691 
z
" clip-path="url(#p3c6f9bd61e)" style="fill: #324880"/>
    <path d="M 333.83224 416.895774 
L 348.55172 403.015964 
L 348.049743 447.641653 
L 333.465328 461.748876 
z
" clip-path="url(#p3c6f9bd61e)" style="fill: #648fff"/>
    <path d="M 307.526377 408.854916 
L 333.83224 416.895774 
L 333.465328 461.748876 
L 307.408601 453.576535 
z
" clip-path="url(#p3c6f9bd61e)" style="fill: #324880"/>
    <path d="M 307.526377 408.854916 
L 322.388485 395.103691 
L 348.55172 403.015964 
L 333.83224 416.895774 
z
" clip-path="url(#p3c6f9bd61e)" style="fill: #3f599f"/>
   </g>
   <g id="Poly3DCollection_2">
    <path d="M 134.39135 364.918021 
L 339.664643 428.002288 
L 451.457623 321.568416 
L 254.517297 265.858126 
z
" clip-path="url(#p3c6f9bd61e)" style="fill-opacity: 0.25"/>
   </g>
   <g id="Poly3DCollection_3">
    <path d="M 215.878585 311.266851 
L 230.594949 299.028868 
L 254.873551 306.071803 
L 240.2779 318.417699 
z
" clip-path="url(#p3c6f9bd61e)" style="fill: #3f599f"/>
    <path d="M 230.594949 299.028868 
L 229.632767 226.365257 
L 254.271383 233.190643 
L 254.873551 306.071803 
z
" clip-path="url(#p3c6f9bd61e)" style="fill: #324880"/>
    <path d="M 215.878585 311.266851 
L 214.687429 238.225795 
L 229.632767 226.365257 
L 230.594949 299.028868 
z
" clip-path="url(#p3c6f9bd61e)" style="fill: #648fff"/>
    <path d="M 264.893667 325.631983 
L 279.365891 313.176741 
L 304.074805 320.344504 
L 289.728778 332.910551 
z
" clip-path="url(#p3c6f9bd61e)" style="fill: #3f599f"/>
    <path d="M 240.2779 318.417699 
L 254.873551 306.071803 
L 254.271383 233.190643 
L 239.450353 245.157345 
z
" clip-path="url(#p3c6f9bd61e)" style="fill: #324880"/>
    <path d="M 279.365891 313.176741 
L 279.215075 266.405956 
L 304.162654 273.43436 
L 304.074805 320.344504 
z
" clip-path="url(#p3c6f9bd61e)" style="fill: #324880"/>
    <path d="M 393.265439 329.524507 
L 406.790848 317.010068 
L 432.123159 324.211842 
L 418.733299 336.83788 
z
" clip-path="url(#p3c6f9bd61e)" style="fill: #3f599f"/>
    <path d="M 215.878585 311.266851 
L 240.2779 318.417699 
L 239.450353 245.157345 
L 214.687429 238.225795 
z
" clip-path="url(#p3c6f9bd61e)" style="fill: #648fff"/>
    <path d="M 264.893667 325.631983 
L 264.60104 278.619422 
L 279.215075 266.405956 
L 279.365891 313.176741 
z
" clip-path="url(#p3c6f9bd61e)" style="fill: #648fff"/>
    <path d="M 406.790848 317.010068 
L 407.778494 274.192333 
L 433.340037 281.26658 
L 432.123159 324.211842 
z
" clip-path="url(#p3c6f9bd61e)" style="fill: #324880"/>
    <path d="M 393.265439 329.524507 
L 394.14033 286.485524 
L 407.778494 274.192333 
L 406.790848 317.010068 
z
" clip-path="url(#p3c6f9bd61e)" style="fill: #648fff"/>
    <path d="M 214.687429 238.225795 
L 239.450353 245.157345 
L 254.271383 233.190643 
L 229.632767 226.365257 
z
" clip-path="url(#p3c6f9bd61e)" style="fill: #577ddf"/>
    <path d="M 289.728778 332.910551 
L 304.074805 320.344504 
L 304.162654 273.43436 
L 289.677269 285.75754 
z
" clip-path="url(#p3c6f9bd61e)" style="fill: #324880"/>
    <path d="M 264.893667 325.631983 
L 289.728778 332.910551 
L 289.677269 285.75754 
L 264.60104 278.619422 
z
" clip-path="url(#p3c6f9bd61e)" style="fill: #648fff"/>
    <path d="M 314.786178 340.254267 
L 329.003176 327.575929 
L 354.153943 334.871868 
L 340.068864 347.664009 
z
" clip-path="url(#p3c6f9bd61e)" style="fill: #3f599f"/>
    <path d="M 418.733299 336.83788 
L 432.123159 324.211842 
L 433.340037 281.26658 
L 419.839916 293.670375 
z
" clip-path="url(#p3c6f9bd61e)" style="fill: #324880"/>
    <path d="M 264.60104 278.619422 
L 289.677269 285.75754 
L 304.162654 273.43436 
L 279.215075 266.405956 
z
" clip-path="url(#p3c6f9bd61e)" style="fill: #577ddf"/>
    <path d="M 393.265439 329.524507 
L 418.733299 336.83788 
L 419.839916 293.670375 
L 394.14033 286.485524 
z
" clip-path="url(#p3c6f9bd61e)" style="fill: #648fff"/>
    <path d="M 394.14033 286.485524 
L 419.839916 293.670375 
L 433.340037 281.26658 
L 407.778494 274.192333 
z
" clip-path="url(#p3c6f9bd61e)" style="fill: #577ddf"/>
    <path d="M 235.271696 351.125563 
L 250.197351 338.280085 
L 275.159615 345.672049 
L 260.36207 358.633592 
z
" clip-path="url(#p3c6f9bd61e)" style="fill: #3f599f"/>
    <path d="M 329.003176 327.575929 
L 329.845309 207.79432 
L 355.625765 214.724204 
L 354.153943 334.871868 
z
" clip-path="url(#p3c6f9bd61e)" style="fill: #324880"/>
    <path d="M 314.786178 340.254267 
L 315.280045 219.837537 
L 329.845309 207.79432 
L 329.003176 327.575929 
z
" clip-path="url(#p3c6f9bd61e)" style="fill: #648fff"/>
    <path d="M 154.701374 362.141215 
L 170.35325 349.12527 
L 195.119825 356.615166 
L 179.592061 369.7495 
z
" clip-path="url(#p3c6f9bd61e)" style="fill: #3f599f"/>
    <path d="M 340.068864 347.664009 
L 354.153943 334.871868 
L 355.625765 214.724204 
L 341.19915 226.87823 
z
" clip-path="url(#p3c6f9bd61e)" style="fill: #324880"/>
    <path d="M 285.680555 366.209881 
L 300.347053 353.130691 
L 325.762723 360.65692 
L 311.230275 373.855364 
z
" clip-path="url(#p3c6f9bd61e)" style="fill: #3f599f"/>
    <path d="M 170.35325 349.12527 
L 168.718189 285.978057 
L 193.803628 293.277479 
L 195.119825 356.615166 
z
" clip-path="url(#p3c6f9bd61e)" style="fill: #324880"/>
    <path d="M 314.786178 340.254267 
L 340.068864 347.664009 
L 341.19915 226.87823 
L 315.280045 219.837537 
z
" clip-path="url(#p3c6f9bd61e)" style="fill: #648fff"/>
    <path d="M 300.347053 353.130691 
L 300.399846 305.590747 
L 326.068097 312.974172 
L 325.762723 360.65692 
z
" clip-path="url(#p3c6f9bd61e)" style="fill: #324880"/>
    <path d="M 250.197351 338.280085 
L 248.891417 197.655135 
L 274.578536 204.613639 
L 275.159615 345.672049 
z
" clip-path="url(#p3c6f9bd61e)" style="fill: #324880"/>
    <path d="M 154.701374 362.141215 
L 152.846362 298.663551 
L 168.718189 285.978057 
L 170.35325 349.12527 
z
" clip-path="url(#p3c6f9bd61e)" style="fill: #648fff"/>
    <path d="M 285.680555 366.209881 
L 285.587662 318.422195 
L 300.399846 305.590747 
L 300.347053 353.130691 
z
" clip-path="url(#p3c6f9bd61e)" style="fill: #648fff"/>
    <path d="M 235.271696 351.125563 
L 233.516771 209.748531 
L 248.891417 197.655135 
L 250.197351 338.280085 
z
" clip-path="url(#p3c6f9bd61e)" style="fill: #648fff"/>
    <path d="M 179.592061 369.7495 
L 195.119825 356.615166 
L 193.803628 293.277479 
L 178.059095 306.079887 
z
" clip-path="url(#p3c6f9bd61e)" style="fill: #324880"/>
    <path d="M 311.230275 373.855364 
L 325.762723 360.65692 
L 326.068097 312.974172 
L 311.39265 325.923785 
z
" clip-path="url(#p3c6f9bd61e)" style="fill: #324880"/>
    <path d="M 260.36207 358.633592 
L 275.159615 345.672049 
L 274.578536 204.613639 
L 259.339537 216.819525 
z
" clip-path="url(#p3c6f9bd61e)" style="fill: #324880"/>
    <path d="M 154.701374 362.141215 
L 179.592061 369.7495 
L 178.059095 306.079887 
L 152.846362 298.663551 
z
" clip-path="url(#p3c6f9bd61e)" style="fill: #648fff"/>
    <path d="M 285.680555 366.209881 
L 311.230275 373.855364 
L 311.39265 325.923785 
L 285.587662 318.422195 
z
" clip-path="url(#p3c6f9bd61e)" style="fill: #648fff"/>
    <path d="M 315.280045 219.837537 
L 341.19915 226.87823 
L 355.625765 214.724204 
L 329.845309 207.79432 
z
" clip-path="url(#p3c6f9bd61e)" style="fill: #577ddf"/>
    <path d="M 235.271696 351.125563 
L 260.36207 358.633592 
L 259.339537 216.819525 
L 233.516771 209.748531 
z
" clip-path="url(#p3c6f9bd61e)" style="fill: #648fff"/>
    <path d="M 285.587662 318.422195 
L 311.39265 325.923785 
L 326.068097 312.974172 
L 300.399846 305.590747 
z
" clip-path="url(#p3c6f9bd61e)" style="fill: #577ddf"/>
    <path d="M 152.846362 298.663551 
L 178.059095 306.079887 
L 193.803628 293.277479 
L 168.718189 285.978057 
z
" clip-path="url(#p3c6f9bd61e)" style="fill: #577ddf"/>
    <path d="M 255.643614 392.996019 
L 270.781271 379.496663 
L 296.466106 387.264258 
L 281.46463 400.888675 
z
" clip-path="url(#p3c6f9bd61e)" style="fill: #3f599f"/>
    <path d="M 270.781271 379.496663 
L 270.401 304.400757 
L 296.489143 311.939745 
L 296.466106 387.264258 
z
" clip-path="url(#p3c6f9bd61e)" style="fill: #324880"/>
    <path d="M 233.516771 209.748531 
L 259.339537 216.819525 
L 274.578536 204.613639 
L 248.891417 197.655135 
z
" clip-path="url(#p3c6f9bd61e)" style="fill: #577ddf"/>
    <path d="M 255.643614 392.996019 
L 255.020691 317.503514 
L 270.401 304.400757 
L 270.781271 379.496663 
z
" clip-path="url(#p3c6f9bd61e)" style="fill: #648fff"/>
    <path d="M 281.46463 400.888675 
L 296.466106 387.264258 
L 296.489143 311.939745 
L 281.249329 325.165815 
z
" clip-path="url(#p3c6f9bd61e)" style="fill: #324880"/>
    <path d="M 255.643614 392.996019 
L 281.46463 400.888675 
L 281.249329 325.165815 
L 255.020691 317.503514 
z
" clip-path="url(#p3c6f9bd61e)" style="fill: #648fff"/>
    <path d="M 255.020691 317.503514 
L 281.249329 325.165815 
L 296.489143 311.939745 
L 270.401 304.400757 
z
" clip-path="url(#p3c6f9bd61e)" style="fill: #577ddf"/>
   </g>
   <g id="text_14">
    <!-- Real Amplitude (ρ) -->
    <g transform="translate(190.023516 51.6) scale(0.21 -0.21)">
     <defs>
      <path id="DejaVuSans-52" d="M 2841 2188 
Q 3044 2119 3236 1894 
Q 3428 1669 3622 1275 
L 4263 0 
L 3584 0 
L 2988 1197 
Q 2756 1666 2539 1819 
Q 2322 1972 1947 1972 
L 1259 1972 
L 1259 0 
L 628 0 
L 628 4666 
L 2053 4666 
Q 2853 4666 3247 4331 
Q 3641 3997 3641 3322 
Q 3641 2881 3436 2590 
Q 3231 2300 2841 2188 
z
M 1259 4147 
L 1259 2491 
L 2053 2491 
Q 2509 2491 2742 2702 
Q 2975 2913 2975 3322 
Q 2975 3731 2742 3939 
Q 2509 4147 2053 4147 
L 1259 4147 
z
" transform="scale(0.015625)"/>
      <path id="DejaVuSans-65" d="M 3597 1894 
L 3597 1613 
L 953 1613 
Q 991 1019 1311 708 
Q 1631 397 2203 397 
Q 2534 397 2845 478 
Q 3156 559 3463 722 
L 3463 178 
Q 3153 47 2828 -22 
Q 2503 -91 2169 -91 
Q 1331 -91 842 396 
Q 353 884 353 1716 
Q 353 2575 817 3079 
Q 1281 3584 2069 3584 
Q 2775 3584 3186 3129 
Q 3597 2675 3597 1894 
z
M 3022 2063 
Q 3016 2534 2758 2815 
Q 2500 3097 2075 3097 
Q 1594 3097 1305 2825 
Q 1016 2553 972 2059 
L 3022 2063 
z
" transform="scale(0.015625)"/>
      <path id="DejaVuSans-61" d="M 2194 1759 
Q 1497 1759 1228 1600 
Q 959 1441 959 1056 
Q 959 750 1161 570 
Q 1363 391 1709 391 
Q 2188 391 2477 730 
Q 2766 1069 2766 1631 
L 2766 1759 
L 2194 1759 
z
M 3341 1997 
L 3341 0 
L 2766 0 
L 2766 531 
Q 2569 213 2275 61 
Q 1981 -91 1556 -91 
Q 1019 -91 701 211 
Q 384 513 384 1019 
Q 384 1609 779 1909 
Q 1175 2209 1959 2209 
L 2766 2209 
L 2766 2266 
Q 2766 2663 2505 2880 
Q 2244 3097 1772 3097 
Q 1472 3097 1187 3025 
Q 903 2953 641 2809 
L 641 3341 
Q 956 3463 1253 3523 
Q 1550 3584 1831 3584 
Q 2591 3584 2966 3190 
Q 3341 2797 3341 1997 
z
" transform="scale(0.015625)"/>
      <path id="DejaVuSans-6c" d="M 603 4863 
L 1178 4863 
L 1178 0 
L 603 0 
L 603 4863 
z
" transform="scale(0.015625)"/>
      <path id="DejaVuSans-20" transform="scale(0.015625)"/>
      <path id="DejaVuSans-41" d="M 2188 4044 
L 1331 1722 
L 3047 1722 
L 2188 4044 
z
M 1831 4666 
L 2547 4666 
L 4325 0 
L 3669 0 
L 3244 1197 
L 1141 1197 
L 716 0 
L 50 0 
L 1831 4666 
z
" transform="scale(0.015625)"/>
      <path id="DejaVuSans-6d" d="M 3328 2828 
Q 3544 3216 3844 3400 
Q 4144 3584 4550 3584 
Q 5097 3584 5394 3201 
Q 5691 2819 5691 2113 
L 5691 0 
L 5113 0 
L 5113 2094 
Q 5113 2597 4934 2840 
Q 4756 3084 4391 3084 
Q 3944 3084 3684 2787 
Q 3425 2491 3425 1978 
L 3425 0 
L 2847 0 
L 2847 2094 
Q 2847 2600 2669 2842 
Q 2491 3084 2119 3084 
Q 1678 3084 1418 2786 
Q 1159 2488 1159 1978 
L 1159 0 
L 581 0 
L 581 3500 
L 1159 3500 
L 1159 2956 
Q 1356 3278 1631 3431 
Q 1906 3584 2284 3584 
Q 2666 3584 2933 3390 
Q 3200 3197 3328 2828 
z
" transform="scale(0.015625)"/>
      <path id="DejaVuSans-70" d="M 1159 525 
L 1159 -1331 
L 581 -1331 
L 581 3500 
L 1159 3500 
L 1159 2969 
Q 1341 3281 1617 3432 
Q 1894 3584 2278 3584 
Q 2916 3584 3314 3078 
Q 3713 2572 3713 1747 
Q 3713 922 3314 415 
Q 2916 -91 2278 -91 
Q 1894 -91 1617 61 
Q 1341 213 1159 525 
z
M 3116 1747 
Q 3116 2381 2855 2742 
Q 2594 3103 2138 3103 
Q 1681 3103 1420 2742 
Q 1159 2381 1159 1747 
Q 1159 1113 1420 752 
Q 1681 391 2138 391 
Q 2594 391 2855 752 
Q 3116 1113 3116 1747 
z
" transform="scale(0.015625)"/>
      <path id="DejaVuSans-69" d="M 603 3500 
L 1178 3500 
L 1178 0 
L 603 0 
L 603 3500 
z
M 603 4863 
L 1178 4863 
L 1178 4134 
L 603 4134 
L 603 4863 
z
" transform="scale(0.015625)"/>
      <path id="DejaVuSans-74" d="M 1172 4494 
L 1172 3500 
L 2356 3500 
L 2356 3053 
L 1172 3053 
L 1172 1153 
Q 1172 725 1289 603 
Q 1406 481 1766 481 
L 2356 481 
L 2356 0 
L 1766 0 
Q 1100 0 847 248 
Q 594 497 594 1153 
L 594 3053 
L 172 3053 
L 172 3500 
L 594 3500 
L 594 4494 
L 1172 4494 
z
" transform="scale(0.015625)"/>
      <path id="DejaVuSans-75" d="M 544 1381 
L 544 3500 
L 1119 3500 
L 1119 1403 
Q 1119 906 1312 657 
Q 1506 409 1894 409 
Q 2359 409 2629 706 
Q 2900 1003 2900 1516 
L 2900 3500 
L 3475 3500 
L 3475 0 
L 2900 0 
L 2900 538 
Q 2691 219 2414 64 
Q 2138 -91 1772 -91 
Q 1169 -91 856 284 
Q 544 659 544 1381 
z
M 1991 3584 
L 1991 3584 
z
" transform="scale(0.015625)"/>
      <path id="DejaVuSans-64" d="M 2906 2969 
L 2906 4863 
L 3481 4863 
L 3481 0 
L 2906 0 
L 2906 525 
Q 2725 213 2448 61 
Q 2172 -91 1784 -91 
Q 1150 -91 751 415 
Q 353 922 353 1747 
Q 353 2572 751 3078 
Q 1150 3584 1784 3584 
Q 2172 3584 2448 3432 
Q 2725 3281 2906 2969 
z
M 947 1747 
Q 947 1113 1208 752 
Q 1469 391 1925 391 
Q 2381 391 2643 752 
Q 2906 1113 2906 1747 
Q 2906 2381 2643 2742 
Q 2381 3103 1925 3103 
Q 1469 3103 1208 2742 
Q 947 2381 947 1747 
z
" transform="scale(0.015625)"/>
      <path id="DejaVuSans-28" d="M 1984 4856 
Q 1566 4138 1362 3434 
Q 1159 2731 1159 2009 
Q 1159 1288 1364 580 
Q 1569 -128 1984 -844 
L 1484 -844 
Q 1016 -109 783 600 
Q 550 1309 550 2009 
Q 550 2706 781 3412 
Q 1013 4119 1484 4856 
L 1984 4856 
z
" transform="scale(0.015625)"/>
      <path id="DejaVuSans-3c1" d="M 863 2875 
Q 1053 3194 1525 3475 
Q 1709 3584 2278 3584 
Q 2916 3584 3314 3078 
Q 3713 2572 3713 1747 
Q 3713 922 3314 415 
Q 2916 -91 2278 -91 
Q 1894 -91 1617 61 
Q 1341 213 1159 525 
L 1159 -1331 
L 581 -1331 
L 581 1716 
Q 581 2438 863 2875 
z
M 3116 1747 
Q 3116 2381 2855 2742 
Q 2594 3103 2138 3103 
Q 1681 3103 1420 2742 
Q 1159 2381 1159 1747 
Q 1159 1113 1420 752 
Q 1681 391 2138 391 
Q 2594 391 2855 752 
Q 3116 1113 3116 1747 
z
" transform="scale(0.015625)"/>
      <path id="DejaVuSans-29" d="M 513 4856 
L 1013 4856 
Q 1481 4119 1714 3412 
Q 1947 2706 1947 2009 
Q 1947 1309 1714 600 
Q 1481 -109 1013 -844 
L 513 -844 
Q 928 -128 1133 580 
Q 1338 1288 1338 2009 
Q 1338 2731 1133 3434 
Q 928 4138 513 4856 
z
" transform="scale(0.015625)"/>
     </defs>
     <use xlink:href="#DejaVuSans-52"/>
     <use xlink:href="#DejaVuSans-65" x="64.982422"/>
     <use xlink:href="#DejaVuSans-61" x="126.505859"/>
     <use xlink:href="#DejaVuSans-6c" x="187.785156"/>
     <use xlink:href="#DejaVuSans-20" x="215.568359"/>
     <use xlink:href="#DejaVuSans-41" x="247.355469"/>
     <use xlink:href="#DejaVuSans-6d" x="315.763672"/>
     <use xlink:href="#DejaVuSans-70" x="413.175781"/>
     <use xlink:href="#DejaVuSans-6c" x="476.652344"/>
     <use xlink:href="#DejaVuSans-69" x="504.435547"/>
     <use xlink:href="#DejaVuSans-74" x="532.21875"/>
     <use xlink:href="#DejaVuSans-75" x="571.427734"/>
     <use xlink:href="#DejaVuSans-64" x="634.806641"/>
     <use xlink:href="#DejaVuSans-65" x="698.283203"/>
     <use xlink:href="#DejaVuSans-20" x="759.806641"/>
     <use xlink:href="#DejaVuSans-28" x="791.59375"/>
     <use xlink:href="#DejaVuSans-3c1" x="830.607422"/>
     <use xlink:href="#DejaVuSans-29" x="894.083984"/>
    </g>
   </g>
  </g>
  <g id="patch_6">
   <path d="M 604.8 576 
L 1123.2 576 
L 1123.2 57.6 
L 604.8 57.6 
z
" style="fill: #ffffff"/>
  </g>
  <g id="pane3d_4">
   <g id="patch_7">
    <path d="M 706.07018 436.456468 
L 829.494133 330.550231 
L 827.743197 126.70673 
L 698.643358 223.613571 
" style="fill: #f2f2f2; opacity: 0.5; stroke: #f2f2f2; stroke-linejoin: miter"/>
   </g>
  </g>
  <g id="pane3d_5">
   <g id="patch_8">
    <path d="M 829.494133 330.550231 
L 1031.554898 390.069341 
L 1038.583588 181.103065 
L 827.743197 126.70673 
" style="fill: #e6e6e6; opacity: 0.5; stroke: #e6e6e6; stroke-linejoin: miter"/>
   </g>
  </g>
  <g id="pane3d_6">
   <g id="patch_9">
    <path d="M 706.07018 436.456468 
L 916.912731 504.076731 
L 1031.554898 390.069341 
L 829.494133 330.550231 
" style="fill: #ececec; opacity: 0.5; stroke: #ececec; stroke-linejoin: miter"/>
   </g>
  </g>
  <g id="grid3d_4">
   <g id="Line3DCollection_4">
    <path d="M 734.635886 445.617904 
L 856.925726 338.630493 
L 856.328796 134.081748 
" style="fill: none; stroke: #b0b0b0; stroke-width: 0.8"/>
    <path d="M 784.310046 461.549127 
L 904.58611 352.669358 
L 906.022474 146.902603 
" style="fill: none; stroke: #b0b0b0; stroke-width: 0.8"/>
    <path d="M 834.89502 477.772462 
L 953.066152 366.949661 
L 956.607663 159.953465 
" style="fill: none; stroke: #b0b0b0; stroke-width: 0.8"/>
    <path d="M 886.41609 494.296016 
L 1002.38718 381.477685 
L 1008.108569 173.24058 
" style="fill: none; stroke: #b0b0b0; stroke-width: 0.8"/>
   </g>
  </g>
  <g id="grid3d_5">
   <g id="Line3DCollection_5">
    <path d="M 717.757365 209.265931 
L 724.301379 420.812846 
L 933.880707 487.202708 
" style="fill: none; stroke: #b0b0b0; stroke-width: 0.8"/>
    <path d="M 749.704273 185.285468 
L 754.805664 394.638072 
L 962.24502 458.995448 
" style="fill: none; stroke: #b0b0b0; stroke-width: 0.8"/>
    <path d="M 780.65707 162.051218 
L 784.400054 369.24405 
L 989.731787 431.660877 
" style="fill: none; stroke: #b0b0b0; stroke-width: 0.8"/>
    <path d="M 810.661448 139.528886 
L 813.124663 344.596362 
L 1016.38111 405.159111 
" style="fill: none; stroke: #b0b0b0; stroke-width: 0.8"/>
   </g>
  </g>
  <g id="grid3d_6">
   <g id="Line3DCollection_6">
    <path d="M 1031.820557 382.17116 
L 829.427856 322.834298 
L 705.789796 428.421022 
" style="fill: none; stroke: #b0b0b0; stroke-width: 0.8"/>
    <path d="M 1032.779657 353.656668 
L 829.188643 294.985214 
L 704.777324 399.404921 
" style="fill: none; stroke: #b0b0b0; stroke-width: 0.8"/>
    <path d="M 1033.750266 324.800015 
L 828.946662 266.813821 
L 703.752366 370.030995 
" style="fill: none; stroke: #b0b0b0; stroke-width: 0.8"/>
    <path d="M 1034.732592 295.595005 
L 828.701864 238.314492 
L 702.714691 340.292584 
" style="fill: none; stroke: #b0b0b0; stroke-width: 0.8"/>
    <path d="M 1035.726848 266.035292 
L 828.454199 209.481466 
L 701.664059 310.182862 
" style="fill: none; stroke: #b0b0b0; stroke-width: 0.8"/>
    <path d="M 1036.733254 236.114374 
L 828.203618 180.308848 
L 700.600226 279.69483 
" style="fill: none; stroke: #b0b0b0; stroke-width: 0.8"/>
    <path d="M 1037.752033 205.825591 
L 827.950068 150.790604 
L 699.522943 248.821315 
" style="fill: none; stroke: #b0b0b0; stroke-width: 0.8"/>
   </g>
  </g>
  <g id="axis3d_4">
   <g id="line2d_17">
    <path d="M 706.07018 436.456468 
L 916.912731 504.076731 
" style="fill: none; stroke: #000000; stroke-width: 0.8; stroke-linecap: square"/>
   </g>
   <g id="xtick_14">
    <g id="line2d_18">
     <path d="M 735.677227 444.706868 
L 732.549953 447.442819 
" style="fill: none; stroke: #000000; stroke-width: 0.8; stroke-linecap: square"/>
    </g>
    <g id="text_15">
     <!-- 00 -->
     <g transform="translate(707.351686 489.365693) rotate(-45) scale(0.21 -0.21)">
      <use xlink:href="#DejaVuSans-30"/>
      <use xlink:href="#DejaVuSans-30" x="63.623047"/>
     </g>
    </g>
   </g>
   <g id="xtick_15">
    <g id="line2d_19">
     <path d="M 785.334802 460.621468 
L 782.257306 463.407368 
" style="fill: none; stroke: #000000; stroke-width: 0.8; stroke-linecap: square"/>
    </g>
    <g id="text_16">
     <!-- 01 -->
     <g transform="translate(757.023931 505.435143) rotate(-45) scale(0.21 -0.21)">
      <use xlink:href="#DejaVuSans-30"/>
      <use xlink:href="#DejaVuSans-31" x="63.623047"/>
     </g>
    </g>
   </g>
   <g id="xtick_16">
    <g id="line2d_20">
     <path d="M 835.902405 476.82772 
L 832.877048 479.664949 
" style="fill: none; stroke: #000000; stroke-width: 0.8; stroke-linecap: square"/>
    </g>
    <g id="text_17">
     <!-- 10 -->
     <g transform="translate(807.60781 521.799516) rotate(-45) scale(0.21 -0.21)">
      <use xlink:href="#DejaVuSans-31"/>
      <use xlink:href="#DejaVuSans-30" x="63.623047"/>
     </g>
    </g>
   </g>
   <g id="xtick_17">
    <g id="line2d_21">
     <path d="M 887.405283 493.333715 
L 884.434531 496.223705 
" style="fill: none; stroke: #000000; stroke-width: 0.8; stroke-linecap: square"/>
    </g>
    <g id="text_18">
     <!-- 11 -->
     <g transform="translate(859.128654 538.467006) rotate(-45) scale(0.21 -0.21)">
      <use xlink:href="#DejaVuSans-31"/>
      <use xlink:href="#DejaVuSans-31" x="63.623047"/>
     </g>
    </g>
   </g>
  </g>
  <g id="axis3d_5">
   <g id="line2d_22">
    <path d="M 1031.554898 390.069341 
L 916.912731 504.076731 
" style="fill: none; stroke: #000000; stroke-width: 0.8; stroke-linecap: square"/>
   </g>
   <g id="xtick_18">
    <g id="line2d_23">
     <path d="M 932.140222 486.651363 
L 937.364886 488.306415 
" style="fill: none; stroke: #000000; stroke-width: 0.8; stroke-linecap: square"/>
    </g>
    <g id="text_19">
     <!-- 00 -->
     <g transform="translate(944.70027 499.207917) rotate(-337.5) scale(0.21 -0.21)">
      <use xlink:href="#DejaVuSans-30"/>
      <use xlink:href="#DejaVuSans-30" x="63.623047"/>
     </g>
    </g>
   </g>
   <g id="xtick_19">
    <g id="line2d_24">
     <path d="M 960.5233 458.46129 
L 965.691587 460.064734 
" style="fill: none; stroke: #000000; stroke-width: 0.8; stroke-linecap: square"/>
    </g>
    <g id="text_20">
     <!-- 01 -->
     <g transform="translate(972.913817 470.822876) rotate(-337.5) scale(0.21 -0.21)">
      <use xlink:href="#DejaVuSans-30"/>
      <use xlink:href="#DejaVuSans-31" x="63.623047"/>
     </g>
    </g>
   </g>
   <g id="xtick_20">
    <g id="line2d_25">
     <path d="M 988.028511 431.143114 
L 993.141381 432.697327 
" style="fill: none; stroke: #000000; stroke-width: 0.8; stroke-linecap: square"/>
    </g>
    <g id="text_21">
     <!-- 10 -->
     <g transform="translate(1000.254695 443.315808) rotate(-337.5) scale(0.21 -0.21)">
      <use xlink:href="#DejaVuSans-31"/>
      <use xlink:href="#DejaVuSans-30" x="63.623047"/>
     </g>
    </g>
   </g>
   <g id="xtick_21">
    <g id="line2d_26">
     <path d="M 1014.695964 404.657001 
L 1019.754368 406.164215 
" style="fill: none; stroke: #000000; stroke-width: 0.8; stroke-linecap: square"/>
    </g>
    <g id="text_22">
     <!-- 11 -->
     <g transform="translate(1026.762776 416.646599) rotate(-337.5) scale(0.21 -0.21)">
      <use xlink:href="#DejaVuSans-31"/>
      <use xlink:href="#DejaVuSans-31" x="63.623047"/>
     </g>
    </g>
   </g>
  </g>
  <g id="axis3d_6">
   <g id="line2d_27">
    <path d="M 1031.554898 390.069341 
L 1038.583588 181.103065 
" style="fill: none; stroke: #000000; stroke-width: 0.8; stroke-linecap: square"/>
   </g>
   <g id="xtick_22">
    <g id="line2d_28">
     <path d="M 1030.142994 381.679337 
L 1035.178616 383.155665 
" style="fill: none; stroke: #000000; stroke-width: 0.8; stroke-linecap: square"/>
    </g>
    <g id="text_23">
     <!-- −0.3 -->
     <g transform="translate(1045.321875 375.888555) scale(0.21 -0.21)">
      <use xlink:href="#DejaVuSans-2212"/>
      <use xlink:href="#DejaVuSans-30" x="83.789062"/>
      <use xlink:href="#DejaVuSans-2e" x="147.412109"/>
      <use xlink:href="#DejaVuSans-33" x="179.199219"/>
     </g>
    </g>
   </g>
   <g id="xtick_23">
    <g id="line2d_29">
     <path d="M 1031.091811 353.170259 
L 1036.158317 354.63034 
" style="fill: none; stroke: #000000; stroke-width: 0.8; stroke-linecap: square"/>
    </g>
    <g id="text_24">
     <!-- −0.2 -->
     <g transform="translate(1046.360311 347.395157) scale(0.21 -0.21)">
      <use xlink:href="#DejaVuSans-2212"/>
      <use xlink:href="#DejaVuSans-30" x="83.789062"/>
      <use xlink:href="#DejaVuSans-2e" x="147.412109"/>
      <use xlink:href="#DejaVuSans-32" x="179.199219"/>
     </g>
    </g>
   </g>
   <g id="xtick_24">
    <g id="line2d_30">
     <path d="M 1032.05201 324.319186 
L 1037.149781 325.762522 
" style="fill: none; stroke: #000000; stroke-width: 0.8; stroke-linecap: square"/>
    </g>
    <g id="text_25">
     <!-- −0.1 -->
     <g transform="translate(1047.411194 318.560243) scale(0.21 -0.21)">
      <use xlink:href="#DejaVuSans-2212"/>
      <use xlink:href="#DejaVuSans-30" x="83.789062"/>
      <use xlink:href="#DejaVuSans-2e" x="147.412109"/>
      <use xlink:href="#DejaVuSans-31" x="179.199219"/>
     </g>
    </g>
   </g>
   <g id="xtick_25">
    <g id="line2d_31">
     <path d="M 1033.023797 295.119927 
L 1038.153221 296.546006 
" style="fill: none; stroke: #000000; stroke-width: 0.8; stroke-linecap: square"/>
    </g>
    <g id="text_26">
     <!-- 0.0 -->
     <g transform="translate(1048.474749 289.377637) scale(0.21 -0.21)">
      <use xlink:href="#DejaVuSans-30"/>
      <use xlink:href="#DejaVuSans-2e" x="63.623047"/>
      <use xlink:href="#DejaVuSans-30" x="95.410156"/>
     </g>
    </g>
   </g>
   <g id="xtick_26">
    <g id="line2d_32">
     <path d="M 1034.007383 265.56614 
L 1039.168855 266.974435 
" style="fill: none; stroke: #000000; stroke-width: 0.8; stroke-linecap: square"/>
    </g>
    <g id="text_27">
     <!-- 0.1 -->
     <g transform="translate(1049.551205 259.841011) scale(0.21 -0.21)">
      <use xlink:href="#DejaVuSans-30"/>
      <use xlink:href="#DejaVuSans-2e" x="63.623047"/>
      <use xlink:href="#DejaVuSans-31" x="95.410156"/>
     </g>
    </g>
   </g>
   <g id="xtick_27">
    <g id="line2d_33">
     <path d="M 1035.002985 235.65133 
L 1040.196907 237.041298 
" style="fill: none; stroke: #000000; stroke-width: 0.8; stroke-linecap: square"/>
    </g>
    <g id="text_28">
     <!-- 0.2 -->
     <g transform="translate(1050.6408 229.943884) scale(0.21 -0.21)">
      <use xlink:href="#DejaVuSans-30"/>
      <use xlink:href="#DejaVuSans-2e" x="63.623047"/>
      <use xlink:href="#DejaVuSans-32" x="95.410156"/>
     </g>
    </g>
   </g>
   <g id="xtick_28">
    <g id="line2d_34">
     <path d="M 1036.010823 205.368839 
L 1041.237606 206.739922 
" style="fill: none; stroke: #000000; stroke-width: 0.8; stroke-linecap: square"/>
    </g>
    <g id="text_29">
     <!-- 0.3 -->
     <g transform="translate(1051.743776 199.679615) scale(0.21 -0.21)">
      <use xlink:href="#DejaVuSans-30"/>
      <use xlink:href="#DejaVuSans-2e" x="63.623047"/>
      <use xlink:href="#DejaVuSans-33" x="95.410156"/>
     </g>
    </g>
   </g>
  </g>
  <g id="axes_2">
   <g id="Poly3DCollection_4">
    <path d="M 835.190828 250.481756 
L 835.347938 272.033057 
L 859.402741 278.858427 
L 859.351396 257.243824 
z
" clip-path="url(#p59629fef5a)" style="fill: #648fff"/>
    <path d="M 821.058993 283.892447 
L 845.232939 290.820883 
L 859.402741 278.858427 
L 835.347938 272.033057 
z
" clip-path="url(#p59629fef5a)" style="fill: #577ddf"/>
    <path d="M 820.837265 262.23132 
L 821.058993 283.892447 
L 835.347938 272.033057 
L 835.190828 250.481756 
z
" clip-path="url(#p59629fef5a)" style="fill: #324880"/>
    <path d="M 845.118026 269.095954 
L 859.351396 257.243824 
L 859.402741 278.858427 
L 845.232939 290.820883 
z
" clip-path="url(#p59629fef5a)" style="fill: #648fff"/>
    <path d="M 820.837265 262.23132 
L 835.190828 250.481756 
L 859.351396 257.243824 
L 845.118026 269.095954 
z
" clip-path="url(#p59629fef5a)" style="fill: #3f599f"/>
    <path d="M 820.837265 262.23132 
L 845.118026 269.095954 
L 845.232939 290.820883 
L 821.058993 283.892447 
z
" clip-path="url(#p59629fef5a)" style="fill: #324880"/>
    <path d="M 841.326371 395.148648 
L 865.804936 402.627416 
L 879.944894 389.715135 
L 855.588941 382.348599 
z
" clip-path="url(#p59629fef5a)" style="fill: #577ddf"/>
    <path d="M 855.285223 288.160165 
L 855.588941 382.348599 
L 879.944894 389.715135 
L 880.121792 295.253886 
z
" clip-path="url(#p59629fef5a)" style="fill: #648fff"/>
    <path d="M 840.737153 300.486953 
L 841.326371 395.148648 
L 855.588941 382.348599 
L 855.285223 288.160165 
z
" clip-path="url(#p59629fef5a)" style="fill: #324880"/>
    <path d="M 933.107622 277.886739 
L 933.107622 277.886739 
L 958.12725 284.88924 
L 958.12725 284.88924 
z
" clip-path="url(#p59629fef5a)" style="fill: #648fff"/>
    <path d="M 919.250999 290.054758 
L 919.250999 290.054758 
L 933.107622 277.886739 
L 933.107622 277.886739 
z
" clip-path="url(#p59629fef5a)" style="fill: #324880"/>
    <path d="M 865.701228 307.690908 
L 880.121792 295.253886 
L 879.944894 389.715135 
L 865.804936 402.627416 
z
" clip-path="url(#p59629fef5a)" style="fill: #648fff"/>
    <path d="M 919.250999 290.054758 
L 933.107622 277.886739 
L 958.12725 284.88924 
L 944.40179 297.165366 
z
" clip-path="url(#p59629fef5a)" style="fill: #3f599f"/>
    <path d="M 919.250999 290.054758 
L 944.40179 297.165366 
L 958.12725 284.88924 
L 933.107622 277.886739 
z
" clip-path="url(#p59629fef5a)" style="fill: #577ddf"/>
    <path d="M 840.737153 300.486953 
L 865.701228 307.690908 
L 865.804936 402.627416 
L 841.326371 395.148648 
z
" clip-path="url(#p59629fef5a)" style="fill: #324880"/>
    <path d="M 944.40179 297.165366 
L 958.12725 284.88924 
L 958.12725 284.88924 
L 944.40179 297.165366 
z
" clip-path="url(#p59629fef5a)" style="fill: #648fff"/>
    <path d="M 919.250999 290.054758 
L 944.40179 297.165366 
L 944.40179 297.165366 
L 919.250999 290.054758 
z
" clip-path="url(#p59629fef5a)" style="fill: #324880"/>
    <path d="M 840.737153 300.486953 
L 855.285223 288.160165 
L 880.121792 295.253886 
L 865.701228 307.690908 
z
" clip-path="url(#p59629fef5a)" style="fill: #3f599f"/>
    <path d="M 905.180101 302.410939 
L 905.180101 302.410939 
L 930.463132 309.632177 
L 930.463132 309.632177 
z
" clip-path="url(#p59629fef5a)" style="fill: #648fff"/>
    <path d="M 890.889919 314.959681 
L 890.889919 314.959681 
L 905.180101 302.410939 
L 905.180101 302.410939 
z
" clip-path="url(#p59629fef5a)" style="fill: #324880"/>
    <path d="M 890.889919 314.959681 
L 905.180101 302.410939 
L 930.463132 309.632177 
L 916.30627 322.294151 
z
" clip-path="url(#p59629fef5a)" style="fill: #3f599f"/>
    <path d="M 890.889919 314.959681 
L 916.30627 322.294151 
L 930.463132 309.632177 
L 905.180101 302.410939 
z
" clip-path="url(#p59629fef5a)" style="fill: #577ddf"/>
    <path d="M 916.30627 322.294151 
L 930.463132 309.632177 
L 930.463132 309.632177 
L 916.30627 322.294151 
z
" clip-path="url(#p59629fef5a)" style="fill: #648fff"/>
    <path d="M 890.889919 314.959681 
L 916.30627 322.294151 
L 916.30627 322.294151 
L 890.889919 314.959681 
z
" clip-path="url(#p59629fef5a)" style="fill: #324880"/>
    <path d="M 781.637686 426.567469 
L 806.729889 434.45964 
L 821.839093 420.835172 
L 796.874303 413.06566 
z
" clip-path="url(#p59629fef5a)" style="fill: #577ddf"/>
    <path d="M 745.695969 323.740609 
L 745.695969 323.740609 
L 770.590743 331.154838 
L 770.590743 331.154838 
z
" clip-path="url(#p59629fef5a)" style="fill: #648fff"/>
    <path d="M 795.712777 338.63675 
L 796.874303 413.06566 
L 821.839093 420.835172 
L 821.065197 346.187277 
z
" clip-path="url(#p59629fef5a)" style="fill: #648fff"/>
    <path d="M 729.955721 336.625288 
L 729.955721 336.625288 
L 745.695969 323.740609 
L 745.695969 323.740609 
z
" clip-path="url(#p59629fef5a)" style="fill: #324880"/>
    <path d="M 780.226267 351.758692 
L 781.637686 426.567469 
L 796.874303 413.06566 
L 795.712777 338.63675 
z
" clip-path="url(#p59629fef5a)" style="fill: #324880"/>
    <path d="M 912.722917 414.750578 
L 938.561991 422.634893 
L 952.722214 409.02425 
L 927.021426 401.26318 
z
" clip-path="url(#p59629fef5a)" style="fill: #577ddf"/>
    <path d="M 729.955721 336.625288 
L 745.695969 323.740609 
L 770.590743 331.154838 
L 754.975882 344.157337 
z
" clip-path="url(#p59629fef5a)" style="fill: #3f599f"/>
    <path d="M 729.955721 336.625288 
L 754.975882 344.157337 
L 770.590743 331.154838 
L 745.695969 323.740609 
z
" clip-path="url(#p59629fef5a)" style="fill: #577ddf"/>
    <path d="M 927.71061 342.674473 
L 927.021426 401.26318 
L 952.722214 409.02425 
L 953.732224 350.262158 
z
" clip-path="url(#p59629fef5a)" style="fill: #648fff"/>
    <path d="M 754.975882 344.157337 
L 770.590743 331.154838 
L 770.590743 331.154838 
L 754.975882 344.157337 
z
" clip-path="url(#p59629fef5a)" style="fill: #648fff"/>
    <path d="M 913.240282 355.861102 
L 912.722917 414.750578 
L 927.021426 401.26318 
L 927.71061 342.674473 
z
" clip-path="url(#p59629fef5a)" style="fill: #324880"/>
    <path d="M 805.710068 359.430315 
L 821.065197 346.187277 
L 821.839093 420.835172 
L 806.729889 434.45964 
z
" clip-path="url(#p59629fef5a)" style="fill: #648fff"/>
    <path d="M 729.955721 336.625288 
L 754.975882 344.157337 
L 754.975882 344.157337 
L 729.955721 336.625288 
z
" clip-path="url(#p59629fef5a)" style="fill: #324880"/>
    <path d="M 780.226267 351.758692 
L 805.710068 359.430315 
L 806.729889 434.45964 
L 781.637686 426.567469 
z
" clip-path="url(#p59629fef5a)" style="fill: #324880"/>
    <path d="M 939.403684 363.570783 
L 953.732224 350.262158 
L 952.722214 409.02425 
L 938.561991 422.634893 
z
" clip-path="url(#p59629fef5a)" style="fill: #648fff"/>
    <path d="M 780.226267 351.758692 
L 795.712777 338.63675 
L 821.065197 346.187277 
L 805.710068 359.430315 
z
" clip-path="url(#p59629fef5a)" style="fill: #3f599f"/>
    <path d="M 913.240282 355.861102 
L 939.403684 363.570783 
L 938.561991 422.634893 
L 912.722917 414.750578 
z
" clip-path="url(#p59629fef5a)" style="fill: #324880"/>
    <path d="M 846.651185 353.807365 
L 846.839198 390.936148 
L 872.462597 398.737612 
L 872.473986 361.497982 
z
" clip-path="url(#p59629fef5a)" style="fill: #648fff"/>
    <path d="M 831.738491 404.494255 
L 857.497419 412.421021 
L 872.462597 398.737612 
L 846.839198 390.936148 
z
" clip-path="url(#p59629fef5a)" style="fill: #577ddf"/>
    <path d="M 913.240282 355.861102 
L 927.71061 342.674473 
L 953.732224 350.262158 
L 939.403684 363.570783 
z
" clip-path="url(#p59629fef5a)" style="fill: #3f599f"/>
    <path d="M 831.430538 367.173184 
L 831.738491 404.494255 
L 846.839198 390.936148 
L 846.651185 353.807365 
z
" clip-path="url(#p59629fef5a)" style="fill: #324880"/>
    <path d="M 857.390988 374.988297 
L 872.473986 361.497982 
L 872.462597 398.737612 
L 857.497419 412.421021 
z
" clip-path="url(#p59629fef5a)" style="fill: #648fff"/>
    <path d="M 831.430538 367.173184 
L 846.651185 353.807365 
L 872.473986 361.497982 
L 857.390988 374.988297 
z
" clip-path="url(#p59629fef5a)" style="fill: #3f599f"/>
    <path d="M 831.430538 367.173184 
L 857.390988 374.988297 
L 857.497419 412.421021 
L 831.738491 404.494255 
z
" clip-path="url(#p59629fef5a)" style="fill: #324880"/>
   </g>
   <g id="Poly3DCollection_5">
    <path d="M 709.536331 339.374227 
L 915.911398 401.838517 
L 1028.268794 296.465187 
L 830.314588 241.338462 
z
" clip-path="url(#p59629fef5a)" style="fill-opacity: 0.25"/>
   </g>
   <g id="Poly3DCollection_6">
    <path d="M 869.612014 276.020871 
L 883.722534 264.064825 
L 908.307005 270.945535 
L 894.322047 283.006868 
z
" clip-path="url(#p59629fef5a)" style="fill: #3f599f"/>
    <path d="M 883.722534 264.064825 
L 883.873312 205.977974 
L 908.751224 212.683365 
L 908.307005 270.945535 
z
" clip-path="url(#p59629fef5a)" style="fill: #324880"/>
    <path d="M 869.612014 276.020871 
L 869.595366 217.629829 
L 883.873312 205.977974 
L 883.722534 264.064825 
z
" clip-path="url(#p59629fef5a)" style="fill: #648fff"/>
    <path d="M 806.265637 274.159388 
L 805.782524 237.674873 
L 830.365112 244.534746 
L 830.667465 281.12894 
z
" clip-path="url(#p59629fef5a)" style="fill: #324880"/>
    <path d="M 791.470936 286.270059 
L 806.265637 274.159388 
L 830.667465 281.12894 
L 815.994702 293.346952 
z
" clip-path="url(#p59629fef5a)" style="fill: #3f599f"/>
    <path d="M 791.470936 286.270059 
L 790.872842 249.59525 
L 805.782524 237.674873 
L 806.265637 274.159388 
z
" clip-path="url(#p59629fef5a)" style="fill: #648fff"/>
    <path d="M 894.322047 283.006868 
L 908.307005 270.945535 
L 908.751224 212.683365 
L 894.601869 224.439058 
z
" clip-path="url(#p59629fef5a)" style="fill: #324880"/>
    <path d="M 869.612014 276.020871 
L 894.322047 283.006868 
L 894.601869 224.439058 
L 869.595366 217.629829 
z
" clip-path="url(#p59629fef5a)" style="fill: #648fff"/>
    <path d="M 869.595366 217.629829 
L 894.601869 224.439058 
L 908.751224 212.683365 
L 883.873312 205.977974 
z
" clip-path="url(#p59629fef5a)" style="fill: #577ddf"/>
    <path d="M 815.994702 293.346952 
L 830.667465 281.12894 
L 830.365112 244.534746 
L 815.579175 256.561575 
z
" clip-path="url(#p59629fef5a)" style="fill: #324880"/>
    <path d="M 983.368802 291.953854 
L 983.368802 291.953854 
L 1008.835244 299.081409 
L 1008.835244 299.081409 
z
" clip-path="url(#p59629fef5a)" style="fill: #324880"/>
    <path d="M 790.872842 249.59525 
L 815.579175 256.561575 
L 830.365112 244.534746 
L 805.782524 237.674873 
z
" clip-path="url(#p59629fef5a)" style="fill: #577ddf"/>
    <path d="M 791.470936 286.270059 
L 815.994702 293.346952 
L 815.579175 256.561575 
L 790.872842 249.59525 
z
" clip-path="url(#p59629fef5a)" style="fill: #648fff"/>
    <path d="M 969.777396 304.339533 
L 969.777396 304.339533 
L 983.368802 291.953854 
L 983.368802 291.953854 
z
" clip-path="url(#p59629fef5a)" style="fill: #648fff"/>
    <path d="M 969.777396 304.339533 
L 983.368802 291.953854 
L 1008.835244 299.081409 
L 995.380844 311.578116 
z
" clip-path="url(#p59629fef5a)" style="fill: #3f599f"/>
    <path d="M 969.777396 304.339533 
L 995.380844 311.578116 
L 1008.835244 299.081409 
L 983.368802 291.953854 
z
" clip-path="url(#p59629fef5a)" style="fill: #577ddf"/>
    <path d="M 995.380844 311.578116 
L 1008.835244 299.081409 
L 1008.835244 299.081409 
L 995.380844 311.578116 
z
" clip-path="url(#p59629fef5a)" style="fill: #324880"/>
    <path d="M 969.777396 304.339533 
L 995.380844 311.578116 
L 995.380844 311.578116 
L 969.777396 304.339533 
z
" clip-path="url(#p59629fef5a)" style="fill: #648fff"/>
    <path d="M 761.191508 311.056244 
L 776.448001 298.567559 
L 801.094572 305.754293 
L 785.961751 318.355397 
z
" clip-path="url(#p59629fef5a)" style="fill: #3f599f"/>
    <path d="M 776.448001 298.567559 
L 774.980036 223.044864 
L 800.004305 230.000576 
L 801.094572 305.754293 
z
" clip-path="url(#p59629fef5a)" style="fill: #324880"/>
    <path d="M 825.962636 313.005613 
L 825.962636 313.005613 
L 851.055189 320.322392 
L 851.055189 320.322392 
z
" clip-path="url(#p59629fef5a)" style="fill: #324880"/>
    <path d="M 761.191508 311.056244 
L 759.473233 235.132711 
L 774.980036 223.044864 
L 776.448001 298.567559 
z
" clip-path="url(#p59629fef5a)" style="fill: #648fff"/>
    <path d="M 810.956343 325.720659 
L 810.956343 325.720659 
L 825.962636 313.005613 
L 825.962636 313.005613 
z
" clip-path="url(#p59629fef5a)" style="fill: #648fff"/>
    <path d="M 955.973923 316.918466 
L 955.973923 316.918466 
L 981.715565 324.270691 
L 981.715565 324.270691 
z
" clip-path="url(#p59629fef5a)" style="fill: #324880"/>
    <path d="M 810.956343 325.720659 
L 825.962636 313.005613 
L 851.055189 320.322392 
L 836.178345 333.152934 
z
" clip-path="url(#p59629fef5a)" style="fill: #3f599f"/>
    <path d="M 810.956343 325.720659 
L 836.178345 333.152934 
L 851.055189 320.322392 
L 825.962636 313.005613 
z
" clip-path="url(#p59629fef5a)" style="fill: #577ddf"/>
    <path d="M 941.953381 329.695212 
L 941.953381 329.695212 
L 955.973923 316.918466 
L 955.973923 316.918466 
z
" clip-path="url(#p59629fef5a)" style="fill: #648fff"/>
    <path d="M 785.961751 318.355397 
L 801.094572 305.754293 
L 800.004305 230.000576 
L 784.624966 242.198941 
z
" clip-path="url(#p59629fef5a)" style="fill: #324880"/>
    <path d="M 836.178345 333.152934 
L 851.055189 320.322392 
L 851.055189 320.322392 
L 836.178345 333.152934 
z
" clip-path="url(#p59629fef5a)" style="fill: #324880"/>
    <path d="M 941.953381 329.695212 
L 955.973923 316.918466 
L 981.715565 324.270691 
L 967.834411 337.163775 
z
" clip-path="url(#p59629fef5a)" style="fill: #3f599f"/>
    <path d="M 941.953381 329.695212 
L 967.834411 337.163775 
L 981.715565 324.270691 
L 955.973923 316.918466 
z
" clip-path="url(#p59629fef5a)" style="fill: #577ddf"/>
    <path d="M 761.191508 311.056244 
L 785.961751 318.355397 
L 784.624966 242.198941 
L 759.473233 235.132711 
z
" clip-path="url(#p59629fef5a)" style="fill: #648fff"/>
    <path d="M 810.956343 325.720659 
L 836.178345 333.152934 
L 836.178345 333.152934 
L 810.956343 325.720659 
z
" clip-path="url(#p59629fef5a)" style="fill: #648fff"/>
    <path d="M 967.834411 337.163775 
L 981.715565 324.270691 
L 981.715565 324.270691 
L 967.834411 337.163775 
z
" clip-path="url(#p59629fef5a)" style="fill: #324880"/>
    <path d="M 941.953381 329.695212 
L 967.834411 337.163775 
L 967.834411 337.163775 
L 941.953381 329.695212 
z
" clip-path="url(#p59629fef5a)" style="fill: #648fff"/>
    <path d="M 759.473233 235.132711 
L 784.624966 242.198941 
L 800.004305 230.000576 
L 774.980036 223.044864 
z
" clip-path="url(#p59629fef5a)" style="fill: #577ddf"/>
    <path d="M 861.630876 340.653139 
L 876.375287 327.705521 
L 901.926039 335.155907 
L 887.317111 348.222211 
z
" clip-path="url(#p59629fef5a)" style="fill: #3f599f"/>
    <path d="M 876.375287 327.705521 
L 876.485933 228.068847 
L 902.566118 235.210247 
L 901.926039 335.155907 
z
" clip-path="url(#p59629fef5a)" style="fill: #324880"/>
    <path d="M 861.630876 340.653139 
L 861.436154 240.480355 
L 876.485933 228.068847 
L 876.375287 327.705521 
z
" clip-path="url(#p59629fef5a)" style="fill: #648fff"/>
    <path d="M 887.317111 348.222211 
L 901.926039 335.155907 
L 902.566118 235.210247 
L 887.657516 247.737896 
z
" clip-path="url(#p59629fef5a)" style="fill: #324880"/>
    <path d="M 861.630876 340.653139 
L 887.317111 348.222211 
L 887.657516 247.737896 
L 861.436154 240.480355 
z
" clip-path="url(#p59629fef5a)" style="fill: #648fff"/>
    <path d="M 861.436154 240.480355 
L 887.657516 247.737896 
L 902.566118 235.210247 
L 876.485933 228.068847 
z
" clip-path="url(#p59629fef5a)" style="fill: #577ddf"/>
    <path d="M 898.536902 369.26011 
L 898.668075 346.419063 
L 925.101011 354.184007 
L 924.843297 377.094752 
z
" clip-path="url(#p59629fef5a)" style="fill: #324880"/>
    <path d="M 883.594792 382.876669 
L 898.536902 369.26011 
L 924.843297 377.094752 
L 910.045389 390.839335 
z
" clip-path="url(#p59629fef5a)" style="fill: #3f599f"/>
    <path d="M 883.594792 382.876669 
L 883.655263 359.914709 
L 898.668075 346.419063 
L 898.536902 369.26011 
z
" clip-path="url(#p59629fef5a)" style="fill: #648fff"/>
    <path d="M 910.045389 390.839335 
L 924.843297 377.094752 
L 925.101011 354.184007 
L 910.233799 367.807151 
z
" clip-path="url(#p59629fef5a)" style="fill: #324880"/>
    <path d="M 883.655263 359.914709 
L 910.233799 367.807151 
L 925.101011 354.184007 
L 898.668075 346.419063 
z
" clip-path="url(#p59629fef5a)" style="fill: #577ddf"/>
    <path d="M 883.594792 382.876669 
L 910.045389 390.839335 
L 910.233799 367.807151 
L 883.655263 359.914709 
z
" clip-path="url(#p59629fef5a)" style="fill: #648fff"/>
   </g>
   <g id="text_30">
    <!-- Imaginary Amplitude (ρ) -->
    <g transform="translate(735.696563 51.6) scale(0.21 -0.21)">
     <defs>
      <path id="DejaVuSans-49" d="M 628 4666 
L 1259 4666 
L 1259 0 
L 628 0 
L 628 4666 
z
" transform="scale(0.015625)"/>
      <path id="DejaVuSans-67" d="M 2906 1791 
Q 2906 2416 2648 2759 
Q 2391 3103 1925 3103 
Q 1463 3103 1205 2759 
Q 947 2416 947 1791 
Q 947 1169 1205 825 
Q 1463 481 1925 481 
Q 2391 481 2648 825 
Q 2906 1169 2906 1791 
z
M 3481 434 
Q 3481 -459 3084 -895 
Q 2688 -1331 1869 -1331 
Q 1566 -1331 1297 -1286 
Q 1028 -1241 775 -1147 
L 775 -588 
Q 1028 -725 1275 -790 
Q 1522 -856 1778 -856 
Q 2344 -856 2625 -561 
Q 2906 -266 2906 331 
L 2906 616 
Q 2728 306 2450 153 
Q 2172 0 1784 0 
Q 1141 0 747 490 
Q 353 981 353 1791 
Q 353 2603 747 3093 
Q 1141 3584 1784 3584 
Q 2172 3584 2450 3431 
Q 2728 3278 2906 2969 
L 2906 3500 
L 3481 3500 
L 3481 434 
z
" transform="scale(0.015625)"/>
      <path id="DejaVuSans-6e" d="M 3513 2113 
L 3513 0 
L 2938 0 
L 2938 2094 
Q 2938 2591 2744 2837 
Q 2550 3084 2163 3084 
Q 1697 3084 1428 2787 
Q 1159 2491 1159 1978 
L 1159 0 
L 581 0 
L 581 3500 
L 1159 3500 
L 1159 2956 
Q 1366 3272 1645 3428 
Q 1925 3584 2291 3584 
Q 2894 3584 3203 3211 
Q 3513 2838 3513 2113 
z
" transform="scale(0.015625)"/>
      <path id="DejaVuSans-72" d="M 2631 2963 
Q 2534 3019 2420 3045 
Q 2306 3072 2169 3072 
Q 1681 3072 1420 2755 
Q 1159 2438 1159 1844 
L 1159 0 
L 581 0 
L 581 3500 
L 1159 3500 
L 1159 2956 
Q 1341 3275 1631 3429 
Q 1922 3584 2338 3584 
Q 2397 3584 2469 3576 
Q 2541 3569 2628 3553 
L 2631 2963 
z
" transform="scale(0.015625)"/>
      <path id="DejaVuSans-79" d="M 2059 -325 
Q 1816 -950 1584 -1140 
Q 1353 -1331 966 -1331 
L 506 -1331 
L 506 -850 
L 844 -850 
Q 1081 -850 1212 -737 
Q 1344 -625 1503 -206 
L 1606 56 
L 191 3500 
L 800 3500 
L 1894 763 
L 2988 3500 
L 3597 3500 
L 2059 -325 
z
" transform="scale(0.015625)"/>
     </defs>
     <use xlink:href="#DejaVuSans-49"/>
     <use xlink:href="#DejaVuSans-6d" x="29.492188"/>
     <use xlink:href="#DejaVuSans-61" x="126.904297"/>
     <use xlink:href="#DejaVuSans-67" x="188.183594"/>
     <use xlink:href="#DejaVuSans-69" x="251.660156"/>
     <use xlink:href="#DejaVuSans-6e" x="279.443359"/>
     <use xlink:href="#DejaVuSans-61" x="342.822266"/>
     <use xlink:href="#DejaVuSans-72" x="404.101562"/>
     <use xlink:href="#DejaVuSans-79" x="445.214844"/>
     <use xlink:href="#DejaVuSans-20" x="504.394531"/>
     <use xlink:href="#DejaVuSans-41" x="536.181641"/>
     <use xlink:href="#DejaVuSans-6d" x="604.589844"/>
     <use xlink:href="#DejaVuSans-70" x="702.001953"/>
     <use xlink:href="#DejaVuSans-6c" x="765.478516"/>
     <use xlink:href="#DejaVuSans-69" x="793.261719"/>
     <use xlink:href="#DejaVuSans-74" x="821.044922"/>
     <use xlink:href="#DejaVuSans-75" x="860.253906"/>
     <use xlink:href="#DejaVuSans-64" x="923.632812"/>
     <use xlink:href="#DejaVuSans-65" x="987.109375"/>
     <use xlink:href="#DejaVuSans-20" x="1048.632812"/>
     <use xlink:href="#DejaVuSans-28" x="1080.419922"/>
     <use xlink:href="#DejaVuSans-3c1" x="1119.433594"/>
     <use xlink:href="#DejaVuSans-29" x="1182.910156"/>
    </g>
   </g>
  </g>
 </g>
 <defs>
  <clipPath id="p3c6f9bd61e">
   <rect x="28.8" y="57.6" width="518.4" height="518.4"/>
  </clipPath>
  <clipPath id="p59629fef5a">
   <rect x="604.8" y="57.6" width="518.4" height="518.4"/>
  </clipPath>
 </defs>
</svg>
