<?xml version="1.0" encoding="utf-8" standalone="no"?>
<!DOCTYPE svg PUBLIC "-//W3C//DTD SVG 1.1//EN"
  "http://www.w3.org/Graphics/SVG/1.1/DTD/svg11.dtd">
<svg xmlns:xlink="http://www.w3.org/1999/xlink" width="1152pt" height="576pt" viewBox="0 0 1152 576" xmlns="http://www.w3.org/2000/svg" version="1.1">
 <metadata>
  <rdf:RDF xmlns:dc="http://purl.org/dc/elements/1.1/" xmlns:cc="http://creativecommons.org/ns#" xmlns:rdf="http://www.w3.org/1999/02/22-rdf-syntax-ns#">
   <cc:Work>
    <dc:type rdf:resource="http://purl.org/dc/dcmitype/StillImage"/>
    <dc:date>2024-11-02T18:56:37.325513</dc:date>
    <dc:format>image/svg+xml</dc:format>
    <dc:creator>
     <cc:Agent>
      <dc:title>Matplotlib v3.9.2, https://matplotlib.org/</dc:title>
     </cc:Agent>
    </dc:creator>
   </cc:Work>
  </rdf:RDF>
 </metadata>
 <defs>
  <style type="text/css">*{stroke-linejoin: round; stroke-linecap: butt}</style>
 </defs>
 <g id="figure_1">
  <g id="patch_1">
   <path d="M 0 576 
L 1152 576 
L 1152 0 
L 0 0 
z
" style="fill: #ffffff"/>
  </g>
  <g id="patch_2">
   <path d="M 28.8 576 
L 547.2 576 
L 547.2 57.6 
L 28.8 57.6 
z
" style="fill: #ffffff"/>
  </g>
  <g id="pane3d_1">
   <g id="patch_3">
    <path d="M 130.07018 436.456468 
L 253.494133 330.550231 
L 251.743197 126.70673 
L 122.643358 223.613571 
" style="fill: #f2f2f2; opacity: 0.5; stroke: #f2f2f2; stroke-linejoin: miter"/>
   </g>
  </g>
  <g id="pane3d_2">
   <g id="patch_4">
    <path d="M 253.494133 330.550231 
L 455.554898 390.069341 
L 462.583588 181.103065 
L 251.743197 126.70673 
" style="fill: #e6e6e6; opacity: 0.5; stroke: #e6e6e6; stroke-linejoin: miter"/>
   </g>
  </g>
  <g id="pane3d_3">
   <g id="patch_5">
    <path d="M 130.07018 436.456468 
L 340.912731 504.076731 
L 455.554898 390.069341 
L 253.494133 330.550231 
" style="fill: #ececec; opacity: 0.5; stroke: #ececec; stroke-linejoin: miter"/>
   </g>
  </g>
  <g id="grid3d_1">
   <g id="Line3DCollection_1">
    <path d="M 158.635886 445.617904 
L 280.925726 338.630493 
L 280.328796 134.081748 
" style="fill: none; stroke: #b0b0b0; stroke-width: 0.8"/>
    <path d="M 208.310046 461.549127 
L 328.58611 352.669358 
L 330.022474 146.902603 
" style="fill: none; stroke: #b0b0b0; stroke-width: 0.8"/>
    <path d="M 258.89502 477.772462 
L 377.066152 366.949661 
L 380.607663 159.953465 
" style="fill: none; stroke: #b0b0b0; stroke-width: 0.8"/>
    <path d="M 310.41609 494.296016 
L 426.38718 381.477685 
L 432.108569 173.24058 
" style="fill: none; stroke: #b0b0b0; stroke-width: 0.8"/>
   </g>
  </g>
  <g id="grid3d_2">
   <g id="Line3DCollection_2">
    <path d="M 141.757365 209.265931 
L 148.301379 420.812846 
L 357.880707 487.202708 
" style="fill: none; stroke: #b0b0b0; stroke-width: 0.8"/>
    <path d="M 173.704273 185.285468 
L 178.805664 394.638072 
L 386.24502 458.995448 
" style="fill: none; stroke: #b0b0b0; stroke-width: 0.8"/>
    <path d="M 204.65707 162.051218 
L 208.400054 369.24405 
L 413.731787 431.660877 
" style="fill: none; stroke: #b0b0b0; stroke-width: 0.8"/>
    <path d="M 234.661448 139.528886 
L 237.124663 344.596362 
L 440.38111 405.159111 
" style="fill: none; stroke: #b0b0b0; stroke-width: 0.8"/>
   </g>
  </g>
  <g id="grid3d_3">
   <g id="Line3DCollection_3">
    <path d="M 456.003032 376.746104 
L 253.382336 317.534942 
L 129.597192 422.901262 
" style="fill: none; stroke: #b0b0b0; stroke-width: 0.8"/>
    <path d="M 456.801507 353.00705 
L 253.183195 294.350891 
L 128.754254 398.743765 
" style="fill: none; stroke: #b0b0b0; stroke-width: 0.8"/>
    <path d="M 457.607943 329.031351 
L 252.982138 270.943929 
L 127.90268 374.338788 
" style="fill: none; stroke: #b0b0b0; stroke-width: 0.8"/>
    <path d="M 458.422457 304.815453 
L 252.779139 247.310827 
L 127.042338 349.68251 
" style="fill: none; stroke: #b0b0b0; stroke-width: 0.8"/>
    <path d="M 459.245173 280.355728 
L 252.574169 223.44829 
L 126.17309 324.771027 
" style="fill: none; stroke: #b0b0b0; stroke-width: 0.8"/>
    <path d="M 460.076214 255.648473 
L 252.3672 199.352962 
L 125.294799 299.600358 
" style="fill: none; stroke: #b0b0b0; stroke-width: 0.8"/>
    <path d="M 460.915708 230.689913 
L 252.158201 175.02142 
L 124.407322 274.166436 
" style="fill: none; stroke: #b0b0b0; stroke-width: 0.8"/>
    <path d="M 461.763785 205.476194 
L 251.947144 150.450171 
L 123.510514 248.46511 
" style="fill: none; stroke: #b0b0b0; stroke-width: 0.8"/>
   </g>
  </g>
  <g id="axis3d_1">
   <g id="line2d_1">
    <path d="M 130.07018 436.456468 
L 340.912731 504.076731 
" style="fill: none; stroke: #000000; stroke-width: 0.8; stroke-linecap: square"/>
   </g>
   <g id="xtick_1">
    <g id="line2d_2">
     <path d="M 159.677227 444.706868 
L 156.549953 447.442819 
" style="fill: none; stroke: #000000; stroke-width: 0.8; stroke-linecap: square"/>
    </g>
    <g id="text_1">
     <!-- 00 -->
     <g transform="translate(131.351686 489.365693) rotate(-45) scale(0.21 -0.21)">
      <defs>
       <path id="DejaVuSans-30" d="M 2034 4250 
Q 1547 4250 1301 3770 
Q 1056 3291 1056 2328 
Q 1056 1369 1301 889 
Q 1547 409 2034 409 
Q 2525 409 2770 889 
Q 3016 1369 3016 2328 
Q 3016 3291 2770 3770 
Q 2525 4250 2034 4250 
z
M 2034 4750 
Q 2819 4750 3233 4129 
Q 3647 3509 3647 2328 
Q 3647 1150 3233 529 
Q 2819 -91 2034 -91 
Q 1250 -91 836 529 
Q 422 1150 422 2328 
Q 422 3509 836 4129 
Q 1250 4750 2034 4750 
z
" transform="scale(0.015625)"/>
      </defs>
      <use xlink:href="#DejaVuSans-30"/>
      <use xlink:href="#DejaVuSans-30" x="63.623047"/>
     </g>
    </g>
   </g>
   <g id="xtick_2">
    <g id="line2d_3">
     <path d="M 209.334802 460.621468 
L 206.257306 463.407368 
" style="fill: none; stroke: #000000; stroke-width: 0.8; stroke-linecap: square"/>
    </g>
    <g id="text_2">
     <!-- 01 -->
     <g transform="translate(181.023931 505.435143) rotate(-45) scale(0.21 -0.21)">
      <defs>
       <path id="DejaVuSans-31" d="M 794 531 
L 1825 531 
L 1825 4091 
L 703 3866 
L 703 4441 
L 1819 4666 
L 2450 4666 
L 2450 531 
L 3481 531 
L 3481 0 
L 794 0 
L 794 531 
z
" transform="scale(0.015625)"/>
      </defs>
      <use xlink:href="#DejaVuSans-30"/>
      <use xlink:href="#DejaVuSans-31" x="63.623047"/>
     </g>
    </g>
   </g>
   <g id="xtick_3">
    <g id="line2d_4">
     <path d="M 259.902405 476.82772 
L 256.877048 479.664949 
" style="fill: none; stroke: #000000; stroke-width: 0.8; stroke-linecap: square"/>
    </g>
    <g id="text_3">
     <!-- 10 -->
     <g transform="translate(231.60781 521.799516) rotate(-45) scale(0.21 -0.21)">
      <use xlink:href="#DejaVuSans-31"/>
      <use xlink:href="#DejaVuSans-30" x="63.623047"/>
     </g>
    </g>
   </g>
   <g id="xtick_4">
    <g id="line2d_5">
     <path d="M 311.405283 493.333715 
L 308.434531 496.223705 
" style="fill: none; stroke: #000000; stroke-width: 0.8; stroke-linecap: square"/>
    </g>
    <g id="text_4">
     <!-- 11 -->
     <g transform="translate(283.128654 538.467006) rotate(-45) scale(0.21 -0.21)">
      <use xlink:href="#DejaVuSans-31"/>
      <use xlink:href="#DejaVuSans-31" x="63.623047"/>
     </g>
    </g>
   </g>
  </g>
  <g id="axis3d_2">
   <g id="line2d_6">
    <path d="M 455.554898 390.069341 
L 340.912731 504.076731 
" style="fill: none; stroke: #000000; stroke-width: 0.8; stroke-linecap: square"/>
   </g>
   <g id="xtick_5">
    <g id="line2d_7">
     <path d="M 356.140222 486.651363 
L 361.364886 488.306415 
" style="fill: none; stroke: #000000; stroke-width: 0.8; stroke-linecap: square"/>
    </g>
    <g id="text_5">
     <!-- 00 -->
     <g transform="translate(368.70027 499.207917) rotate(-337.5) scale(0.21 -0.21)">
      <use xlink:href="#DejaVuSans-30"/>
      <use xlink:href="#DejaVuSans-30" x="63.623047"/>
     </g>
    </g>
   </g>
   <g id="xtick_6">
    <g id="line2d_8">
     <path d="M 384.5233 458.46129 
L 389.691587 460.064734 
" style="fill: none; stroke: #000000; stroke-width: 0.8; stroke-linecap: square"/>
    </g>
    <g id="text_6">
     <!-- 01 -->
     <g transform="translate(396.913817 470.822876) rotate(-337.5) scale(0.21 -0.21)">
      <use xlink:href="#DejaVuSans-30"/>
      <use xlink:href="#DejaVuSans-31" x="63.623047"/>
     </g>
    </g>
   </g>
   <g id="xtick_7">
    <g id="line2d_9">
     <path d="M 412.028511 431.143114 
L 417.141381 432.697327 
" style="fill: none; stroke: #000000; stroke-width: 0.8; stroke-linecap: square"/>
    </g>
    <g id="text_7">
     <!-- 10 -->
     <g transform="translate(424.254695 443.315808) rotate(-337.5) scale(0.21 -0.21)">
      <use xlink:href="#DejaVuSans-31"/>
      <use xlink:href="#DejaVuSans-30" x="63.623047"/>
     </g>
    </g>
   </g>
   <g id="xtick_8">
    <g id="line2d_10">
     <path d="M 438.695964 404.657001 
L 443.754368 406.164215 
" style="fill: none; stroke: #000000; stroke-width: 0.8; stroke-linecap: square"/>
    </g>
    <g id="text_8">
     <!-- 11 -->
     <g transform="translate(450.762776 416.646599) rotate(-337.5) scale(0.21 -0.21)">
      <use xlink:href="#DejaVuSans-31"/>
      <use xlink:href="#DejaVuSans-31" x="63.623047"/>
     </g>
    </g>
   </g>
  </g>
  <g id="axis3d_3">
   <g id="line2d_11">
    <path d="M 455.554898 390.069341 
L 462.583588 181.103065 
" style="fill: none; stroke: #000000; stroke-width: 0.8; stroke-linecap: square"/>
   </g>
   <g id="xtick_9">
    <g id="line2d_12">
     <path d="M 454.323512 376.255304 
L 459.365009 377.728564 
" style="fill: none; stroke: #000000; stroke-width: 0.8; stroke-linecap: square"/>
    </g>
    <g id="text_9">
     <!-- −0.3 -->
     <g transform="translate(469.519445 370.467483) scale(0.21 -0.21)">
      <defs>
       <path id="DejaVuSans-2212" d="M 678 2272 
L 4684 2272 
L 4684 1741 
L 678 1741 
L 678 2272 
z
" transform="scale(0.015625)"/>
       <path id="DejaVuSans-2e" d="M 684 794 
L 1344 794 
L 1344 0 
L 684 0 
L 684 794 
z
" transform="scale(0.015625)"/>
       <path id="DejaVuSans-33" d="M 2597 2516 
Q 3050 2419 3304 2112 
Q 3559 1806 3559 1356 
Q 3559 666 3084 287 
Q 2609 -91 1734 -91 
Q 1441 -91 1130 -33 
Q 819 25 488 141 
L 488 750 
Q 750 597 1062 519 
Q 1375 441 1716 441 
Q 2309 441 2620 675 
Q 2931 909 2931 1356 
Q 2931 1769 2642 2001 
Q 2353 2234 1838 2234 
L 1294 2234 
L 1294 2753 
L 1863 2753 
Q 2328 2753 2575 2939 
Q 2822 3125 2822 3475 
Q 2822 3834 2567 4026 
Q 2313 4219 1838 4219 
Q 1578 4219 1281 4162 
Q 984 4106 628 3988 
L 628 4550 
Q 988 4650 1302 4700 
Q 1616 4750 1894 4750 
Q 2613 4750 3031 4423 
Q 3450 4097 3450 3541 
Q 3450 3153 3228 2886 
Q 3006 2619 2597 2516 
z
" transform="scale(0.015625)"/>
      </defs>
      <use xlink:href="#DejaVuSans-2212"/>
      <use xlink:href="#DejaVuSans-30" x="83.789062"/>
      <use xlink:href="#DejaVuSans-2e" x="147.412109"/>
      <use xlink:href="#DejaVuSans-33" x="179.199219"/>
     </g>
    </g>
   </g>
   <g id="xtick_10">
    <g id="line2d_13">
     <path d="M 455.113427 352.520766 
L 460.180636 353.980472 
" style="fill: none; stroke: #000000; stroke-width: 0.8; stroke-linecap: square"/>
    </g>
    <g id="text_10">
     <!-- −0.2 -->
     <g transform="translate(470.383969 346.746024) scale(0.21 -0.21)">
      <defs>
       <path id="DejaVuSans-32" d="M 1228 531 
L 3431 531 
L 3431 0 
L 469 0 
L 469 531 
Q 828 903 1448 1529 
Q 2069 2156 2228 2338 
Q 2531 2678 2651 2914 
Q 2772 3150 2772 3378 
Q 2772 3750 2511 3984 
Q 2250 4219 1831 4219 
Q 1534 4219 1204 4116 
Q 875 4013 500 3803 
L 500 4441 
Q 881 4594 1212 4672 
Q 1544 4750 1819 4750 
Q 2544 4750 2975 4387 
Q 3406 4025 3406 3419 
Q 3406 3131 3298 2873 
Q 3191 2616 2906 2266 
Q 2828 2175 2409 1742 
Q 1991 1309 1228 531 
z
" transform="scale(0.015625)"/>
      </defs>
      <use xlink:href="#DejaVuSans-2212"/>
      <use xlink:href="#DejaVuSans-30" x="83.789062"/>
      <use xlink:href="#DejaVuSans-2e" x="147.412109"/>
      <use xlink:href="#DejaVuSans-32" x="179.199219"/>
     </g>
    </g>
   </g>
   <g id="xtick_11">
    <g id="line2d_14">
     <path d="M 455.911213 328.549698 
L 461.004399 329.995508 
" style="fill: none; stroke: #000000; stroke-width: 0.8; stroke-linecap: square"/>
    </g>
    <g id="text_11">
     <!-- −0.1 -->
     <g transform="translate(471.257101 322.788368) scale(0.21 -0.21)">
      <use xlink:href="#DejaVuSans-2212"/>
      <use xlink:href="#DejaVuSans-30" x="83.789062"/>
      <use xlink:href="#DejaVuSans-2e" x="147.412109"/>
      <use xlink:href="#DejaVuSans-31" x="179.199219"/>
     </g>
    </g>
   </g>
   <g id="xtick_12">
    <g id="line2d_15">
     <path d="M 456.71699 304.338549 
L 461.836419 305.770109 
" style="fill: none; stroke: #000000; stroke-width: 0.8; stroke-linecap: square"/>
    </g>
    <g id="text_12">
     <!-- 0.0 -->
     <g transform="translate(472.13897 298.590969) scale(0.21 -0.21)">
      <use xlink:href="#DejaVuSans-30"/>
      <use xlink:href="#DejaVuSans-2e" x="63.623047"/>
      <use xlink:href="#DejaVuSans-30" x="95.410156"/>
     </g>
    </g>
   </g>
   <g id="xtick_13">
    <g id="line2d_16">
     <path d="M 457.530878 279.883692 
L 462.676822 281.300642 
" style="fill: none; stroke: #000000; stroke-width: 0.8; stroke-linecap: square"/>
    </g>
    <g id="text_13">
     <!-- 0.1 -->
     <g transform="translate(473.029709 274.15021) scale(0.21 -0.21)">
      <use xlink:href="#DejaVuSans-30"/>
      <use xlink:href="#DejaVuSans-2e" x="63.623047"/>
      <use xlink:href="#DejaVuSans-31" x="95.410156"/>
     </g>
    </g>
   </g>
   <g id="xtick_14">
    <g id="line2d_17">
     <path d="M 458.352999 255.181429 
L 463.525734 256.583399 
" style="fill: none; stroke: #000000; stroke-width: 0.8; stroke-linecap: square"/>
    </g>
    <g id="text_14">
     <!-- 0.2 -->
     <g transform="translate(473.929452 249.462403) scale(0.21 -0.21)">
      <use xlink:href="#DejaVuSans-30"/>
      <use xlink:href="#DejaVuSans-2e" x="63.623047"/>
      <use xlink:href="#DejaVuSans-32" x="95.410156"/>
     </g>
    </g>
   </g>
   <g id="xtick_15">
    <g id="line2d_18">
     <path d="M 459.18348 230.227987 
L 464.383287 231.614598 
" style="fill: none; stroke: #000000; stroke-width: 0.8; stroke-linecap: square"/>
    </g>
    <g id="text_15">
     <!-- 0.3 -->
     <g transform="translate(474.838335 224.523781) scale(0.21 -0.21)">
      <use xlink:href="#DejaVuSans-30"/>
      <use xlink:href="#DejaVuSans-2e" x="63.623047"/>
      <use xlink:href="#DejaVuSans-33" x="95.410156"/>
     </g>
    </g>
   </g>
   <g id="xtick_16">
    <g id="line2d_19">
     <path d="M 460.022449 205.019515 
L 465.249611 206.390379 
" style="fill: none; stroke: #000000; stroke-width: 0.8; stroke-linecap: square"/>
    </g>
    <g id="text_16">
     <!-- 0.4 -->
     <g transform="translate(475.756499 199.330503) scale(0.21 -0.21)">
      <defs>
       <path id="DejaVuSans-34" d="M 2419 4116 
L 825 1625 
L 2419 1625 
L 2419 4116 
z
M 2253 4666 
L 3047 4666 
L 3047 1625 
L 3713 1625 
L 3713 1100 
L 3047 1100 
L 3047 0 
L 2419 0 
L 2419 1100 
L 313 1100 
L 313 1709 
L 2253 4666 
z
" transform="scale(0.015625)"/>
      </defs>
      <use xlink:href="#DejaVuSans-30"/>
      <use xlink:href="#DejaVuSans-2e" x="63.623047"/>
      <use xlink:href="#DejaVuSans-34" x="95.410156"/>
     </g>
    </g>
   </g>
  </g>
  <g id="axes_1">
   <g id="Poly3DCollection_1">
    <path d="M 307.698917 273.162873 
L 307.663543 286.790589 
L 332.133222 293.738244 
L 332.237431 280.070495 
z
" clip-path="url(#p712d0b15eb)" style="fill: #648fff"/>
    <path d="M 293.614621 285.16561 
L 293.618526 298.86278 
L 307.663543 286.790589 
L 307.698917 273.162873 
z
" clip-path="url(#p712d0b15eb)" style="fill: #324880"/>
    <path d="M 293.618526 298.86278 
L 318.212592 305.916248 
L 332.133222 293.738244 
L 307.663543 286.790589 
z
" clip-path="url(#p712d0b15eb)" style="fill: #577ddf"/>
    <path d="M 293.614621 285.16561 
L 307.698917 273.162873 
L 332.237431 280.070495 
L 318.278227 292.178732 
z
" clip-path="url(#p712d0b15eb)" style="fill: #3f599f"/>
    <path d="M 318.278227 292.178732 
L 332.237431 280.070495 
L 332.133222 293.738244 
L 318.212592 305.916248 
z
" clip-path="url(#p712d0b15eb)" style="fill: #648fff"/>
    <path d="M 230.386632 283.296879 
L 230.483613 290.620885 
L 254.803877 297.639135 
L 254.743186 290.293523 
z
" clip-path="url(#p712d0b15eb)" style="fill: #648fff"/>
    <path d="M 293.614621 285.16561 
L 318.278227 292.178732 
L 318.212592 305.916248 
L 293.618526 298.86278 
z
" clip-path="url(#p712d0b15eb)" style="fill: #324880"/>
    <path d="M 215.620717 295.454553 
L 215.740769 302.816043 
L 230.483613 290.620885 
L 230.386632 283.296879 
z
" clip-path="url(#p712d0b15eb)" style="fill: #324880"/>
    <path d="M 187.342974 406.120684 
L 211.635283 413.696335 
L 226.459863 400.617052 
L 202.286551 393.155814 
z
" clip-path="url(#p712d0b15eb)" style="fill: #577ddf"/>
    <path d="M 356.991284 287.038734 
L 356.90731 293.644685 
L 381.845 300.693852 
L 381.963322 294.068393 
z
" clip-path="url(#p712d0b15eb)" style="fill: #648fff"/>
    <path d="M 215.740769 302.816043 
L 240.182159 309.942016 
L 254.803877 297.639135 
L 230.483613 290.620885 
z
" clip-path="url(#p712d0b15eb)" style="fill: #577ddf"/>
    <path d="M 343.159926 299.25387 
L 343.094191 305.893665 
L 356.90731 293.644685 
L 356.991284 287.038734 
z
" clip-path="url(#p712d0b15eb)" style="fill: #324880"/>
    <path d="M 215.620717 295.454553 
L 230.386632 283.296879 
L 254.743186 290.293523 
L 240.098758 302.558752 
z
" clip-path="url(#p712d0b15eb)" style="fill: #3f599f"/>
    <path d="M 343.094191 305.893665 
L 368.16218 313.051304 
L 381.845 300.693852 
L 356.90731 293.644685 
z
" clip-path="url(#p712d0b15eb)" style="fill: #577ddf"/>
    <path d="M 240.098758 302.558752 
L 254.743186 290.293523 
L 254.803877 297.639135 
L 240.182159 309.942016 
z
" clip-path="url(#p712d0b15eb)" style="fill: #648fff"/>
    <path d="M 343.159926 299.25387 
L 356.991284 287.038734 
L 381.963322 294.068393 
L 368.262626 306.391849 
z
" clip-path="url(#p712d0b15eb)" style="fill: #3f599f"/>
    <path d="M 200.627444 307.799425 
L 202.286551 393.155814 
L 226.459863 400.617052 
L 225.227836 315.013678 
z
" clip-path="url(#p712d0b15eb)" style="fill: #648fff"/>
    <path d="M 215.620717 295.454553 
L 240.098758 302.558752 
L 240.182159 309.942016 
L 215.740769 302.816043 
z
" clip-path="url(#p712d0b15eb)" style="fill: #324880"/>
    <path d="M 368.262626 306.391849 
L 381.963322 294.068393 
L 381.845 300.693852 
L 368.16218 313.051304 
z
" clip-path="url(#p712d0b15eb)" style="fill: #648fff"/>
    <path d="M 185.401521 320.335852 
L 187.342974 406.120684 
L 202.286551 393.155814 
L 200.627444 307.799425 
z
" clip-path="url(#p712d0b15eb)" style="fill: #324880"/>
    <path d="M 343.159926 299.25387 
L 368.262626 306.391849 
L 368.16218 313.051304 
L 343.094191 305.893665 
z
" clip-path="url(#p712d0b15eb)" style="fill: #324880"/>
    <path d="M 210.125124 327.662737 
L 225.227836 315.013678 
L 226.459863 400.617052 
L 211.635283 413.696335 
z
" clip-path="url(#p712d0b15eb)" style="fill: #648fff"/>
    <path d="M 185.401521 320.335852 
L 210.125124 327.662737 
L 211.635283 413.696335 
L 187.342974 406.120684 
z
" clip-path="url(#p712d0b15eb)" style="fill: #324880"/>
    <path d="M 185.401521 320.335852 
L 200.627444 307.799425 
L 225.227836 315.013678 
L 210.125124 327.662737 
z
" clip-path="url(#p712d0b15eb)" style="fill: #3f599f"/>
    <path d="M 206.048618 448.347906 
L 231.02678 456.302263 
L 246.064427 442.570234 
L 221.212532 434.738939 
z
" clip-path="url(#p712d0b15eb)" style="fill: #577ddf"/>
    <path d="M 379.810838 326.220357 
L 379.693132 332.933969 
L 405.348058 340.33401 
L 405.502113 333.600412 
z
" clip-path="url(#p712d0b15eb)" style="fill: #648fff"/>
    <path d="M 365.816138 339.045385 
L 365.717086 345.793669 
L 379.693132 332.933969 
L 379.810838 326.220357 
z
" clip-path="url(#p712d0b15eb)" style="fill: #324880"/>
    <path d="M 365.717086 345.793669 
L 391.510452 353.310414 
L 405.348058 340.33401 
L 379.693132 332.933969 
z
" clip-path="url(#p712d0b15eb)" style="fill: #577ddf"/>
    <path d="M 365.816138 339.045385 
L 379.810838 326.220357 
L 405.502113 333.600412 
L 391.646251 346.541992 
z
" clip-path="url(#p712d0b15eb)" style="fill: #3f599f"/>
    <path d="M 219.859218 348.020482 
L 221.212532 434.738939 
L 246.064427 442.570234 
L 245.162773 355.599199 
z
" clip-path="url(#p712d0b15eb)" style="fill: #648fff"/>
    <path d="M 391.646251 346.541992 
L 405.502113 333.600412 
L 405.348058 340.33401 
L 391.510452 353.310414 
z
" clip-path="url(#p712d0b15eb)" style="fill: #648fff"/>
    <path d="M 204.404233 361.191329 
L 206.048618 448.347906 
L 221.212532 434.738939 
L 219.859218 348.020482 
z
" clip-path="url(#p712d0b15eb)" style="fill: #324880"/>
    <path d="M 365.816138 339.045385 
L 391.646251 346.541992 
L 391.510452 353.310414 
L 365.717086 345.793669 
z
" clip-path="url(#p712d0b15eb)" style="fill: #324880"/>
    <path d="M 229.838666 368.891355 
L 245.162773 355.599199 
L 246.064427 442.570234 
L 231.02678 456.302263 
z
" clip-path="url(#p712d0b15eb)" style="fill: #648fff"/>
    <path d="M 204.404233 361.191329 
L 229.838666 368.891355 
L 231.02678 456.302263 
L 206.048618 448.347906 
z
" clip-path="url(#p712d0b15eb)" style="fill: #324880"/>
    <path d="M 351.60005 352.073297 
L 351.434485 366.148272 
L 377.327546 373.806213 
L 377.57019 359.689239 
z
" clip-path="url(#p712d0b15eb)" style="fill: #648fff"/>
    <path d="M 337.15728 365.308946 
L 337.032986 379.456778 
L 351.434485 366.148272 
L 351.60005 352.073297 
z
" clip-path="url(#p712d0b15eb)" style="fill: #324880"/>
    <path d="M 337.032986 379.456778 
L 363.066426 387.237236 
L 377.327546 373.806213 
L 351.434485 366.148272 
z
" clip-path="url(#p712d0b15eb)" style="fill: #577ddf"/>
    <path d="M 204.404233 361.191329 
L 219.859218 348.020482 
L 245.162773 355.599199 
L 229.838666 368.891355 
z
" clip-path="url(#p712d0b15eb)" style="fill: #3f599f"/>
    <path d="M 337.15728 365.308946 
L 351.60005 352.073297 
L 377.57019 359.689239 
L 363.268642 373.047095 
z
" clip-path="url(#p712d0b15eb)" style="fill: #3f599f"/>
    <path d="M 363.268642 373.047095 
L 377.57019 359.689239 
L 377.327546 373.806213 
L 363.066426 387.237236 
z
" clip-path="url(#p712d0b15eb)" style="fill: #648fff"/>
    <path d="M 270.698989 363.247601 
L 270.737298 370.812984 
L 296.468769 378.554701 
L 296.47109 370.966654 
z
" clip-path="url(#p712d0b15eb)" style="fill: #648fff"/>
    <path d="M 337.15728 365.308946 
L 363.268642 373.047095 
L 363.066426 387.237236 
L 337.032986 379.456778 
z
" clip-path="url(#p712d0b15eb)" style="fill: #324880"/>
    <path d="M 255.508841 376.66275 
L 255.571591 384.267449 
L 270.737298 370.812984 
L 270.698989 363.247601 
z
" clip-path="url(#p712d0b15eb)" style="fill: #324880"/>
    <path d="M 255.571591 384.267449 
L 281.439738 392.13404 
L 296.468769 378.554701 
L 270.737298 370.812984 
z
" clip-path="url(#p712d0b15eb)" style="fill: #577ddf"/>
    <path d="M 255.508841 376.66275 
L 270.698989 363.247601 
L 296.47109 370.966654 
L 281.418051 384.50651 
z
" clip-path="url(#p712d0b15eb)" style="fill: #3f599f"/>
    <path d="M 281.418051 384.50651 
L 296.47109 370.966654 
L 296.468769 378.554701 
L 281.439738 392.13404 
z
" clip-path="url(#p712d0b15eb)" style="fill: #648fff"/>
    <path d="M 255.508841 376.66275 
L 281.418051 384.50651 
L 281.439738 392.13404 
L 255.571591 384.267449 
z
" clip-path="url(#p712d0b15eb)" style="fill: #324880"/>
   </g>
   <g id="Poly3DCollection_2">
    <path d="M 133.850522 348.760719 
L 339.820713 411.45405 
L 451.970742 305.68898 
L 254.389062 250.346824 
z
" clip-path="url(#p712d0b15eb)" style="fill-opacity: 0.25"/>
   </g>
   <g id="Poly3DCollection_3">
    <path d="M 244.930321 271.322177 
L 259.256763 259.526348 
L 283.372945 266.315082 
L 269.166254 278.213691 
z
" clip-path="url(#p712d0b15eb)" style="fill: #3f599f"/>
    <path d="M 259.256763 259.526348 
L 258.916164 212.805236 
L 283.26163 219.454659 
L 283.372945 266.315082 
z
" clip-path="url(#p712d0b15eb)" style="fill: #324880"/>
    <path d="M 244.930321 271.322177 
L 244.4496 224.359356 
L 258.916164 212.805236 
L 259.256763 259.526348 
z
" clip-path="url(#p712d0b15eb)" style="fill: #648fff"/>
    <path d="M 269.166254 278.213691 
L 283.372945 266.315082 
L 283.26163 219.454659 
L 268.917105 231.110421 
z
" clip-path="url(#p712d0b15eb)" style="fill: #324880"/>
    <path d="M 244.930321 271.322177 
L 269.166254 278.213691 
L 268.917105 231.110421 
L 244.4496 224.359356 
z
" clip-path="url(#p712d0b15eb)" style="fill: #648fff"/>
    <path d="M 244.4496 224.359356 
L 268.917105 231.110421 
L 283.26163 219.454659 
L 258.916164 212.805236 
z
" clip-path="url(#p712d0b15eb)" style="fill: #577ddf"/>
    <path d="M 279.314863 297.351964 
L 279.307876 295.185016 
L 304.108597 302.299644 
L 304.104527 304.473023 
z
" clip-path="url(#p712d0b15eb)" style="fill: #324880"/>
    <path d="M 264.794662 309.726181 
L 264.781105 307.548076 
L 279.307876 295.185016 
L 279.314863 297.351964 
z
" clip-path="url(#p712d0b15eb)" style="fill: #648fff"/>
    <path d="M 264.794662 309.726181 
L 279.314863 297.351964 
L 304.104527 304.473023 
L 289.711351 316.957688 
z
" clip-path="url(#p712d0b15eb)" style="fill: #3f599f"/>
    <path d="M 264.781105 307.548076 
L 289.708965 314.773102 
L 304.108597 302.299644 
L 279.307876 295.185016 
z
" clip-path="url(#p712d0b15eb)" style="fill: #577ddf"/>
    <path d="M 393.589282 313.593511 
L 407.156444 301.160288 
L 432.573598 308.315248 
L 419.142906 320.859711 
z
" clip-path="url(#p712d0b15eb)" style="fill: #3f599f"/>
    <path d="M 289.711351 316.957688 
L 304.104527 304.473023 
L 304.108597 302.299644 
L 289.708965 314.773102 
z
" clip-path="url(#p712d0b15eb)" style="fill: #324880"/>
    <path d="M 407.156444 301.160288 
L 408.143394 258.372723 
L 433.789653 265.399002 
L 432.573598 308.315248 
z
" clip-path="url(#p712d0b15eb)" style="fill: #324880"/>
    <path d="M 264.794662 309.726181 
L 289.711351 316.957688 
L 289.708965 314.773102 
L 264.781105 307.548076 
z
" clip-path="url(#p712d0b15eb)" style="fill: #648fff"/>
    <path d="M 393.589282 313.593511 
L 394.463601 270.582689 
L 408.143394 258.372723 
L 407.156444 301.160288 
z
" clip-path="url(#p712d0b15eb)" style="fill: #648fff"/>
    <path d="M 329.115092 311.657537 
L 329.122465 310.608837 
L 354.362407 317.854538 
L 354.349522 318.90636 
z
" clip-path="url(#p712d0b15eb)" style="fill: #324880"/>
    <path d="M 314.851799 324.254135 
L 314.856123 323.200021 
L 329.122465 310.608837 
L 329.115092 311.657537 
z
" clip-path="url(#p712d0b15eb)" style="fill: #648fff"/>
    <path d="M 314.851799 324.254135 
L 329.115092 311.657537 
L 354.349522 318.90636 
L 340.219034 331.616403 
z
" clip-path="url(#p712d0b15eb)" style="fill: #3f599f"/>
    <path d="M 419.142906 320.859711 
L 432.573598 308.315248 
L 433.789653 265.399002 
L 420.248832 277.719183 
z
" clip-path="url(#p712d0b15eb)" style="fill: #324880"/>
    <path d="M 314.856123 323.200021 
L 340.228928 330.559144 
L 354.362407 317.854538 
L 329.122465 310.608837 
z
" clip-path="url(#p712d0b15eb)" style="fill: #577ddf"/>
    <path d="M 393.589282 313.593511 
L 419.142906 320.859711 
L 420.248832 277.719183 
L 394.463601 270.582689 
z
" clip-path="url(#p712d0b15eb)" style="fill: #648fff"/>
    <path d="M 394.463601 270.582689 
L 420.248832 277.719183 
L 433.789653 265.399002 
L 408.143394 258.372723 
z
" clip-path="url(#p712d0b15eb)" style="fill: #577ddf"/>
    <path d="M 340.219034 331.616403 
L 354.349522 318.90636 
L 354.362407 317.854538 
L 340.228928 330.559144 
z
" clip-path="url(#p712d0b15eb)" style="fill: #324880"/>
    <path d="M 314.851799 324.254135 
L 340.219034 331.616403 
L 340.228928 330.559144 
L 314.856123 323.200021 
z
" clip-path="url(#p712d0b15eb)" style="fill: #648fff"/>
    <path d="M 235.072221 335.055854 
L 250.048881 322.292639 
L 275.093561 329.637183 
L 260.245857 342.516107 
z
" clip-path="url(#p712d0b15eb)" style="fill: #3f599f"/>
    <path d="M 250.048881 322.292639 
L 249.295601 241.178305 
L 274.758395 248.274909 
L 275.093561 329.637183 
z
" clip-path="url(#p712d0b15eb)" style="fill: #324880"/>
    <path d="M 300.364912 337.0482 
L 300.367358 334.845762 
L 325.880173 342.31757 
L 325.866026 344.526597 
z
" clip-path="url(#p712d0b15eb)" style="fill: #324880"/>
    <path d="M 235.072221 335.055854 
L 234.060002 253.511341 
L 249.295601 241.178305 
L 250.048881 322.292639 
z
" clip-path="url(#p712d0b15eb)" style="fill: #648fff"/>
    <path d="M 154.229722 346.001486 
L 169.93749 333.068327 
L 194.78516 340.510502 
L 179.202309 353.561693 
z
" clip-path="url(#p712d0b15eb)" style="fill: #3f599f"/>
    <path d="M 285.649132 350.044413 
L 285.644828 347.830544 
L 300.367358 334.845762 
L 300.364912 337.0482 
z
" clip-path="url(#p712d0b15eb)" style="fill: #648fff"/>
    <path d="M 285.649132 350.044413 
L 300.364912 337.0482 
L 325.866026 344.526597 
L 311.285201 357.641708 
z
" clip-path="url(#p712d0b15eb)" style="fill: #3f599f"/>
    <path d="M 285.644828 347.830544 
L 311.292723 355.421202 
L 325.880173 342.31757 
L 300.367358 334.845762 
z
" clip-path="url(#p712d0b15eb)" style="fill: #577ddf"/>
    <path d="M 260.245857 342.516107 
L 275.093561 329.637183 
L 274.758395 248.274909 
L 259.656088 260.721648 
z
" clip-path="url(#p712d0b15eb)" style="fill: #324880"/>
    <path d="M 311.285201 357.641708 
L 325.866026 344.526597 
L 325.880173 342.31757 
L 311.292723 355.421202 
z
" clip-path="url(#p712d0b15eb)" style="fill: #324880"/>
    <path d="M 235.072221 335.055854 
L 260.245857 342.516107 
L 259.656088 260.721648 
L 234.060002 253.511341 
z
" clip-path="url(#p712d0b15eb)" style="fill: #648fff"/>
    <path d="M 285.649132 350.044413 
L 311.285201 357.641708 
L 311.292723 355.421202 
L 285.644828 347.830544 
z
" clip-path="url(#p712d0b15eb)" style="fill: #648fff"/>
    <path d="M 169.93749 333.068327 
L 166.695621 207.86499 
L 192.175277 214.918404 
L 194.78516 340.510502 
z
" clip-path="url(#p712d0b15eb)" style="fill: #324880"/>
    <path d="M 234.060002 253.511341 
L 259.656088 260.721648 
L 274.758395 248.274909 
L 249.295601 241.178305 
z
" clip-path="url(#p712d0b15eb)" style="fill: #577ddf"/>
    <path d="M 154.229722 346.001486 
L 150.551185 220.123617 
L 166.695621 207.86499 
L 169.93749 333.068327 
z
" clip-path="url(#p712d0b15eb)" style="fill: #648fff"/>
    <path d="M 179.202309 353.561693 
L 194.78516 340.510502 
L 192.175277 214.918404 
L 176.162124 227.291839 
z
" clip-path="url(#p712d0b15eb)" style="fill: #324880"/>
    <path d="M 154.229722 346.001486 
L 179.202309 353.561693 
L 176.162124 227.291839 
L 150.551185 220.123617 
z
" clip-path="url(#p712d0b15eb)" style="fill: #648fff"/>
    <path d="M 150.551185 220.123617 
L 176.162124 227.291839 
L 192.175277 214.918404 
L 166.695621 207.86499 
z
" clip-path="url(#p712d0b15eb)" style="fill: #577ddf"/>
    <path d="M 307.56965 392.423651 
L 322.48236 378.75734 
L 348.736144 386.620662 
L 333.967056 400.415208 
z
" clip-path="url(#p712d0b15eb)" style="fill: #3f599f"/>
    <path d="M 322.48236 378.75734 
L 322.764267 329.66937 
L 349.290004 337.382556 
L 348.736144 386.620662 
z
" clip-path="url(#p712d0b15eb)" style="fill: #324880"/>
    <path d="M 307.56965 392.423651 
L 307.699611 343.07522 
L 322.764267 329.66937 
L 322.48236 378.75734 
z
" clip-path="url(#p712d0b15eb)" style="fill: #648fff"/>
    <path d="M 333.967056 400.415208 
L 348.736144 386.620662 
L 349.290004 337.382556 
L 334.371978 350.915501 
z
" clip-path="url(#p712d0b15eb)" style="fill: #324880"/>
    <path d="M 307.56965 392.423651 
L 333.967056 400.415208 
L 334.371978 350.915501 
L 307.699611 343.07522 
z
" clip-path="url(#p712d0b15eb)" style="fill: #648fff"/>
    <path d="M 307.699611 343.07522 
L 334.371978 350.915501 
L 349.290004 337.382556 
L 322.764267 329.66937 
z
" clip-path="url(#p712d0b15eb)" style="fill: #577ddf"/>
   </g>
   <g id="text_17">
    <!-- Real Amplitude (ρ) -->
    <g transform="translate(190.023516 51.6) scale(0.21 -0.21)">
     <defs>
      <path id="DejaVuSans-52" d="M 2841 2188 
Q 3044 2119 3236 1894 
Q 3428 1669 3622 1275 
L 4263 0 
L 3584 0 
L 2988 1197 
Q 2756 1666 2539 1819 
Q 2322 1972 1947 1972 
L 1259 1972 
L 1259 0 
L 628 0 
L 628 4666 
L 2053 4666 
Q 2853 4666 3247 4331 
Q 3641 3997 3641 3322 
Q 3641 2881 3436 2590 
Q 3231 2300 2841 2188 
z
M 1259 4147 
L 1259 2491 
L 2053 2491 
Q 2509 2491 2742 2702 
Q 2975 2913 2975 3322 
Q 2975 3731 2742 3939 
Q 2509 4147 2053 4147 
L 1259 4147 
z
" transform="scale(0.015625)"/>
      <path id="DejaVuSans-65" d="M 3597 1894 
L 3597 1613 
L 953 1613 
Q 991 1019 1311 708 
Q 1631 397 2203 397 
Q 2534 397 2845 478 
Q 3156 559 3463 722 
L 3463 178 
Q 3153 47 2828 -22 
Q 2503 -91 2169 -91 
Q 1331 -91 842 396 
Q 353 884 353 1716 
Q 353 2575 817 3079 
Q 1281 3584 2069 3584 
Q 2775 3584 3186 3129 
Q 3597 2675 3597 1894 
z
M 3022 2063 
Q 3016 2534 2758 2815 
Q 2500 3097 2075 3097 
Q 1594 3097 1305 2825 
Q 1016 2553 972 2059 
L 3022 2063 
z
" transform="scale(0.015625)"/>
      <path id="DejaVuSans-61" d="M 2194 1759 
Q 1497 1759 1228 1600 
Q 959 1441 959 1056 
Q 959 750 1161 570 
Q 1363 391 1709 391 
Q 2188 391 2477 730 
Q 2766 1069 2766 1631 
L 2766 1759 
L 2194 1759 
z
M 3341 1997 
L 3341 0 
L 2766 0 
L 2766 531 
Q 2569 213 2275 61 
Q 1981 -91 1556 -91 
Q 1019 -91 701 211 
Q 384 513 384 1019 
Q 384 1609 779 1909 
Q 1175 2209 1959 2209 
L 2766 2209 
L 2766 2266 
Q 2766 2663 2505 2880 
Q 2244 3097 1772 3097 
Q 1472 3097 1187 3025 
Q 903 2953 641 2809 
L 641 3341 
Q 956 3463 1253 3523 
Q 1550 3584 1831 3584 
Q 2591 3584 2966 3190 
Q 3341 2797 3341 1997 
z
" transform="scale(0.015625)"/>
      <path id="DejaVuSans-6c" d="M 603 4863 
L 1178 4863 
L 1178 0 
L 603 0 
L 603 4863 
z
" transform="scale(0.015625)"/>
      <path id="DejaVuSans-20" transform="scale(0.015625)"/>
      <path id="DejaVuSans-41" d="M 2188 4044 
L 1331 1722 
L 3047 1722 
L 2188 4044 
z
M 1831 4666 
L 2547 4666 
L 4325 0 
L 3669 0 
L 3244 1197 
L 1141 1197 
L 716 0 
L 50 0 
L 1831 4666 
z
" transform="scale(0.015625)"/>
      <path id="DejaVuSans-6d" d="M 3328 2828 
Q 3544 3216 3844 3400 
Q 4144 3584 4550 3584 
Q 5097 3584 5394 3201 
Q 5691 2819 5691 2113 
L 5691 0 
L 5113 0 
L 5113 2094 
Q 5113 2597 4934 2840 
Q 4756 3084 4391 3084 
Q 3944 3084 3684 2787 
Q 3425 2491 3425 1978 
L 3425 0 
L 2847 0 
L 2847 2094 
Q 2847 2600 2669 2842 
Q 2491 3084 2119 3084 
Q 1678 3084 1418 2786 
Q 1159 2488 1159 1978 
L 1159 0 
L 581 0 
L 581 3500 
L 1159 3500 
L 1159 2956 
Q 1356 3278 1631 3431 
Q 1906 3584 2284 3584 
Q 2666 3584 2933 3390 
Q 3200 3197 3328 2828 
z
" transform="scale(0.015625)"/>
      <path id="DejaVuSans-70" d="M 1159 525 
L 1159 -1331 
L 581 -1331 
L 581 3500 
L 1159 3500 
L 1159 2969 
Q 1341 3281 1617 3432 
Q 1894 3584 2278 3584 
Q 2916 3584 3314 3078 
Q 3713 2572 3713 1747 
Q 3713 922 3314 415 
Q 2916 -91 2278 -91 
Q 1894 -91 1617 61 
Q 1341 213 1159 525 
z
M 3116 1747 
Q 3116 2381 2855 2742 
Q 2594 3103 2138 3103 
Q 1681 3103 1420 2742 
Q 1159 2381 1159 1747 
Q 1159 1113 1420 752 
Q 1681 391 2138 391 
Q 2594 391 2855 752 
Q 3116 1113 3116 1747 
z
" transform="scale(0.015625)"/>
      <path id="DejaVuSans-69" d="M 603 3500 
L 1178 3500 
L 1178 0 
L 603 0 
L 603 3500 
z
M 603 4863 
L 1178 4863 
L 1178 4134 
L 603 4134 
L 603 4863 
z
" transform="scale(0.015625)"/>
      <path id="DejaVuSans-74" d="M 1172 4494 
L 1172 3500 
L 2356 3500 
L 2356 3053 
L 1172 3053 
L 1172 1153 
Q 1172 725 1289 603 
Q 1406 481 1766 481 
L 2356 481 
L 2356 0 
L 1766 0 
Q 1100 0 847 248 
Q 594 497 594 1153 
L 594 3053 
L 172 3053 
L 172 3500 
L 594 3500 
L 594 4494 
L 1172 4494 
z
" transform="scale(0.015625)"/>
      <path id="DejaVuSans-75" d="M 544 1381 
L 544 3500 
L 1119 3500 
L 1119 1403 
Q 1119 906 1312 657 
Q 1506 409 1894 409 
Q 2359 409 2629 706 
Q 2900 1003 2900 1516 
L 2900 3500 
L 3475 3500 
L 3475 0 
L 2900 0 
L 2900 538 
Q 2691 219 2414 64 
Q 2138 -91 1772 -91 
Q 1169 -91 856 284 
Q 544 659 544 1381 
z
M 1991 3584 
L 1991 3584 
z
" transform="scale(0.015625)"/>
      <path id="DejaVuSans-64" d="M 2906 2969 
L 2906 4863 
L 3481 4863 
L 3481 0 
L 2906 0 
L 2906 525 
Q 2725 213 2448 61 
Q 2172 -91 1784 -91 
Q 1150 -91 751 415 
Q 353 922 353 1747 
Q 353 2572 751 3078 
Q 1150 3584 1784 3584 
Q 2172 3584 2448 3432 
Q 2725 3281 2906 2969 
z
M 947 1747 
Q 947 1113 1208 752 
Q 1469 391 1925 391 
Q 2381 391 2643 752 
Q 2906 1113 2906 1747 
Q 2906 2381 2643 2742 
Q 2381 3103 1925 3103 
Q 1469 3103 1208 2742 
Q 947 2381 947 1747 
z
" transform="scale(0.015625)"/>
      <path id="DejaVuSans-28" d="M 1984 4856 
Q 1566 4138 1362 3434 
Q 1159 2731 1159 2009 
Q 1159 1288 1364 580 
Q 1569 -128 1984 -844 
L 1484 -844 
Q 1016 -109 783 600 
Q 550 1309 550 2009 
Q 550 2706 781 3412 
Q 1013 4119 1484 4856 
L 1984 4856 
z
" transform="scale(0.015625)"/>
      <path id="DejaVuSans-3c1" d="M 863 2875 
Q 1053 3194 1525 3475 
Q 1709 3584 2278 3584 
Q 2916 3584 3314 3078 
Q 3713 2572 3713 1747 
Q 3713 922 3314 415 
Q 2916 -91 2278 -91 
Q 1894 -91 1617 61 
Q 1341 213 1159 525 
L 1159 -1331 
L 581 -1331 
L 581 1716 
Q 581 2438 863 2875 
z
M 3116 1747 
Q 3116 2381 2855 2742 
Q 2594 3103 2138 3103 
Q 1681 3103 1420 2742 
Q 1159 2381 1159 1747 
Q 1159 1113 1420 752 
Q 1681 391 2138 391 
Q 2594 391 2855 752 
Q 3116 1113 3116 1747 
z
" transform="scale(0.015625)"/>
      <path id="DejaVuSans-29" d="M 513 4856 
L 1013 4856 
Q 1481 4119 1714 3412 
Q 1947 2706 1947 2009 
Q 1947 1309 1714 600 
Q 1481 -109 1013 -844 
L 513 -844 
Q 928 -128 1133 580 
Q 1338 1288 1338 2009 
Q 1338 2731 1133 3434 
Q 928 4138 513 4856 
z
" transform="scale(0.015625)"/>
     </defs>
     <use xlink:href="#DejaVuSans-52"/>
     <use xlink:href="#DejaVuSans-65" x="64.982422"/>
     <use xlink:href="#DejaVuSans-61" x="126.505859"/>
     <use xlink:href="#DejaVuSans-6c" x="187.785156"/>
     <use xlink:href="#DejaVuSans-20" x="215.568359"/>
     <use xlink:href="#DejaVuSans-41" x="247.355469"/>
     <use xlink:href="#DejaVuSans-6d" x="315.763672"/>
     <use xlink:href="#DejaVuSans-70" x="413.175781"/>
     <use xlink:href="#DejaVuSans-6c" x="476.652344"/>
     <use xlink:href="#DejaVuSans-69" x="504.435547"/>
     <use xlink:href="#DejaVuSans-74" x="532.21875"/>
     <use xlink:href="#DejaVuSans-75" x="571.427734"/>
     <use xlink:href="#DejaVuSans-64" x="634.806641"/>
     <use xlink:href="#DejaVuSans-65" x="698.283203"/>
     <use xlink:href="#DejaVuSans-20" x="759.806641"/>
     <use xlink:href="#DejaVuSans-28" x="791.59375"/>
     <use xlink:href="#DejaVuSans-3c1" x="830.607422"/>
     <use xlink:href="#DejaVuSans-29" x="894.083984"/>
    </g>
   </g>
  </g>
  <g id="patch_6">
   <path d="M 604.8 576 
L 1123.2 576 
L 1123.2 57.6 
L 604.8 57.6 
z
" style="fill: #ffffff"/>
  </g>
  <g id="pane3d_4">
   <g id="patch_7">
    <path d="M 706.07018 436.456468 
L 829.494133 330.550231 
L 827.743197 126.70673 
L 698.643358 223.613571 
" style="fill: #f2f2f2; opacity: 0.5; stroke: #f2f2f2; stroke-linejoin: miter"/>
   </g>
  </g>
  <g id="pane3d_5">
   <g id="patch_8">
    <path d="M 829.494133 330.550231 
L 1031.554898 390.069341 
L 1038.583588 181.103065 
L 827.743197 126.70673 
" style="fill: #e6e6e6; opacity: 0.5; stroke: #e6e6e6; stroke-linejoin: miter"/>
   </g>
  </g>
  <g id="pane3d_6">
   <g id="patch_9">
    <path d="M 706.07018 436.456468 
L 916.912731 504.076731 
L 1031.554898 390.069341 
L 829.494133 330.550231 
" style="fill: #ececec; opacity: 0.5; stroke: #ececec; stroke-linejoin: miter"/>
   </g>
  </g>
  <g id="grid3d_4">
   <g id="Line3DCollection_4">
    <path d="M 734.635886 445.617904 
L 856.925726 338.630493 
L 856.328796 134.081748 
" style="fill: none; stroke: #b0b0b0; stroke-width: 0.8"/>
    <path d="M 784.310046 461.549127 
L 904.58611 352.669358 
L 906.022474 146.902603 
" style="fill: none; stroke: #b0b0b0; stroke-width: 0.8"/>
    <path d="M 834.89502 477.772462 
L 953.066152 366.949661 
L 956.607663 159.953465 
" style="fill: none; stroke: #b0b0b0; stroke-width: 0.8"/>
    <path d="M 886.41609 494.296016 
L 1002.38718 381.477685 
L 1008.108569 173.24058 
" style="fill: none; stroke: #b0b0b0; stroke-width: 0.8"/>
   </g>
  </g>
  <g id="grid3d_5">
   <g id="Line3DCollection_5">
    <path d="M 717.757365 209.265931 
L 724.301379 420.812846 
L 933.880707 487.202708 
" style="fill: none; stroke: #b0b0b0; stroke-width: 0.8"/>
    <path d="M 749.704273 185.285468 
L 754.805664 394.638072 
L 962.24502 458.995448 
" style="fill: none; stroke: #b0b0b0; stroke-width: 0.8"/>
    <path d="M 780.65707 162.051218 
L 784.400054 369.24405 
L 989.731787 431.660877 
" style="fill: none; stroke: #b0b0b0; stroke-width: 0.8"/>
    <path d="M 810.661448 139.528886 
L 813.124663 344.596362 
L 1016.38111 405.159111 
" style="fill: none; stroke: #b0b0b0; stroke-width: 0.8"/>
   </g>
  </g>
  <g id="grid3d_6">
   <g id="Line3DCollection_6">
    <path d="M 1031.846651 381.395396 
L 829.421347 322.076482 
L 705.762255 427.631736 
" style="fill: none; stroke: #b0b0b0; stroke-width: 0.8"/>
    <path d="M 1032.781485 353.602319 
L 829.188187 294.932144 
L 704.775394 399.349607 
" style="fill: none; stroke: #b0b0b0; stroke-width: 0.8"/>
    <path d="M 1033.72725 325.484278 
L 828.952399 267.481697 
L 703.776675 370.727636 
" style="fill: none; stroke: #b0b0b0; stroke-width: 0.8"/>
    <path d="M 1034.684138 297.035539 
L 828.713936 239.719932 
L 702.765882 341.759662 
" style="fill: none; stroke: #b0b0b0; stroke-width: 0.8"/>
    <path d="M 1035.652347 268.250235 
L 828.472753 211.641524 
L 701.742796 312.439372 
" style="fill: none; stroke: #b0b0b0; stroke-width: 0.8"/>
    <path d="M 1036.632078 239.122358 
L 828.228804 183.241025 
L 700.707191 282.760299 
" style="fill: none; stroke: #b0b0b0; stroke-width: 0.8"/>
    <path d="M 1037.623539 209.645754 
L 827.982041 154.51286 
L 699.658836 252.715817 
" style="fill: none; stroke: #b0b0b0; stroke-width: 0.8"/>
   </g>
  </g>
  <g id="axis3d_4">
   <g id="line2d_20">
    <path d="M 706.07018 436.456468 
L 916.912731 504.076731 
" style="fill: none; stroke: #000000; stroke-width: 0.8; stroke-linecap: square"/>
   </g>
   <g id="xtick_17">
    <g id="line2d_21">
     <path d="M 735.677227 444.706868 
L 732.549953 447.442819 
" style="fill: none; stroke: #000000; stroke-width: 0.8; stroke-linecap: square"/>
    </g>
    <g id="text_18">
     <!-- 00 -->
     <g transform="translate(707.351686 489.365693) rotate(-45) scale(0.21 -0.21)">
      <use xlink:href="#DejaVuSans-30"/>
      <use xlink:href="#DejaVuSans-30" x="63.623047"/>
     </g>
    </g>
   </g>
   <g id="xtick_18">
    <g id="line2d_22">
     <path d="M 785.334802 460.621468 
L 782.257306 463.407368 
" style="fill: none; stroke: #000000; stroke-width: 0.8; stroke-linecap: square"/>
    </g>
    <g id="text_19">
     <!-- 01 -->
     <g transform="translate(757.023931 505.435143) rotate(-45) scale(0.21 -0.21)">
      <use xlink:href="#DejaVuSans-30"/>
      <use xlink:href="#DejaVuSans-31" x="63.623047"/>
     </g>
    </g>
   </g>
   <g id="xtick_19">
    <g id="line2d_23">
     <path d="M 835.902405 476.82772 
L 832.877048 479.664949 
" style="fill: none; stroke: #000000; stroke-width: 0.8; stroke-linecap: square"/>
    </g>
    <g id="text_20">
     <!-- 10 -->
     <g transform="translate(807.60781 521.799516) rotate(-45) scale(0.21 -0.21)">
      <use xlink:href="#DejaVuSans-31"/>
      <use xlink:href="#DejaVuSans-30" x="63.623047"/>
     </g>
    </g>
   </g>
   <g id="xtick_20">
    <g id="line2d_24">
     <path d="M 887.405283 493.333715 
L 884.434531 496.223705 
" style="fill: none; stroke: #000000; stroke-width: 0.8; stroke-linecap: square"/>
    </g>
    <g id="text_21">
     <!-- 11 -->
     <g transform="translate(859.128654 538.467006) rotate(-45) scale(0.21 -0.21)">
      <use xlink:href="#DejaVuSans-31"/>
      <use xlink:href="#DejaVuSans-31" x="63.623047"/>
     </g>
    </g>
   </g>
  </g>
  <g id="axis3d_5">
   <g id="line2d_25">
    <path d="M 1031.554898 390.069341 
L 916.912731 504.076731 
" style="fill: none; stroke: #000000; stroke-width: 0.8; stroke-linecap: square"/>
   </g>
   <g id="xtick_21">
    <g id="line2d_26">
     <path d="M 932.140222 486.651363 
L 937.364886 488.306415 
" style="fill: none; stroke: #000000; stroke-width: 0.8; stroke-linecap: square"/>
    </g>
    <g id="text_22">
     <!-- 00 -->
     <g transform="translate(944.70027 499.207917) rotate(-337.5) scale(0.21 -0.21)">
      <use xlink:href="#DejaVuSans-30"/>
      <use xlink:href="#DejaVuSans-30" x="63.623047"/>
     </g>
    </g>
   </g>
   <g id="xtick_22">
    <g id="line2d_27">
     <path d="M 960.5233 458.46129 
L 965.691587 460.064734 
" style="fill: none; stroke: #000000; stroke-width: 0.8; stroke-linecap: square"/>
    </g>
    <g id="text_23">
     <!-- 01 -->
     <g transform="translate(972.913817 470.822876) rotate(-337.5) scale(0.21 -0.21)">
      <use xlink:href="#DejaVuSans-30"/>
      <use xlink:href="#DejaVuSans-31" x="63.623047"/>
     </g>
    </g>
   </g>
   <g id="xtick_23">
    <g id="line2d_28">
     <path d="M 988.028511 431.143114 
L 993.141381 432.697327 
" style="fill: none; stroke: #000000; stroke-width: 0.8; stroke-linecap: square"/>
    </g>
    <g id="text_24">
     <!-- 10 -->
     <g transform="translate(1000.254695 443.315808) rotate(-337.5) scale(0.21 -0.21)">
      <use xlink:href="#DejaVuSans-31"/>
      <use xlink:href="#DejaVuSans-30" x="63.623047"/>
     </g>
    </g>
   </g>
   <g id="xtick_24">
    <g id="line2d_29">
     <path d="M 1014.695964 404.657001 
L 1019.754368 406.164215 
" style="fill: none; stroke: #000000; stroke-width: 0.8; stroke-linecap: square"/>
    </g>
    <g id="text_25">
     <!-- 11 -->
     <g transform="translate(1026.762776 416.646599) rotate(-337.5) scale(0.21 -0.21)">
      <use xlink:href="#DejaVuSans-31"/>
      <use xlink:href="#DejaVuSans-31" x="63.623047"/>
     </g>
    </g>
   </g>
  </g>
  <g id="axis3d_6">
   <g id="line2d_30">
    <path d="M 1031.554898 390.069341 
L 1038.583588 181.103065 
" style="fill: none; stroke: #000000; stroke-width: 0.8; stroke-linecap: square"/>
   </g>
   <g id="xtick_25">
    <g id="line2d_31">
     <path d="M 1030.168807 380.903719 
L 1035.205269 382.379609 
" style="fill: none; stroke: #000000; stroke-width: 0.8; stroke-linecap: square"/>
    </g>
    <g id="text_26">
     <!-- −0.2 -->
     <g transform="translate(1045.350126 375.113359) scale(0.21 -0.21)">
      <use xlink:href="#DejaVuSans-2212"/>
      <use xlink:href="#DejaVuSans-30" x="83.789062"/>
      <use xlink:href="#DejaVuSans-2e" x="147.412109"/>
      <use xlink:href="#DejaVuSans-32" x="179.199219"/>
     </g>
    </g>
   </g>
   <g id="xtick_26">
    <g id="line2d_32">
     <path d="M 1031.093619 353.115921 
L 1036.160184 354.57597 
" style="fill: none; stroke: #000000; stroke-width: 0.8; stroke-linecap: square"/>
    </g>
    <g id="text_27">
     <!-- −0.1 -->
     <g transform="translate(1046.36229 347.340848) scale(0.21 -0.21)">
      <use xlink:href="#DejaVuSans-2212"/>
      <use xlink:href="#DejaVuSans-30" x="83.789062"/>
      <use xlink:href="#DejaVuSans-2e" x="147.412109"/>
      <use xlink:href="#DejaVuSans-31" x="179.199219"/>
     </g>
    </g>
   </g>
   <g id="xtick_27">
    <g id="line2d_33">
     <path d="M 1032.029241 325.003316 
L 1037.12627 326.447052 
" style="fill: none; stroke: #000000; stroke-width: 0.8; stroke-linecap: square"/>
    </g>
    <g id="text_28">
     <!-- 0.0 -->
     <g transform="translate(1047.386275 319.243986) scale(0.21 -0.21)">
      <use xlink:href="#DejaVuSans-30"/>
      <use xlink:href="#DejaVuSans-2e" x="63.623047"/>
      <use xlink:href="#DejaVuSans-30" x="95.410156"/>
     </g>
    </g>
   </g>
   <g id="xtick_28">
    <g id="line2d_34">
     <path d="M 1032.975864 296.560175 
L 1038.103726 297.987112 
" style="fill: none; stroke: #000000; stroke-width: 0.8; stroke-linecap: square"/>
    </g>
    <g id="text_29">
     <!-- 0.1 -->
     <g transform="translate(1048.422289 290.817057) scale(0.21 -0.21)">
      <use xlink:href="#DejaVuSans-30"/>
      <use xlink:href="#DejaVuSans-2e" x="63.623047"/>
      <use xlink:href="#DejaVuSans-31" x="95.410156"/>
     </g>
    </g>
   </g>
   <g id="xtick_29">
    <g id="line2d_35">
     <path d="M 1033.933682 267.780636 
L 1039.092752 269.190274 
" style="fill: none; stroke: #000000; stroke-width: 0.8; stroke-linecap: square"/>
    </g>
    <g id="text_30">
     <!-- 0.2 -->
     <g transform="translate(1049.470546 262.05421) scale(0.21 -0.21)">
      <use xlink:href="#DejaVuSans-30"/>
      <use xlink:href="#DejaVuSans-2e" x="63.623047"/>
      <use xlink:href="#DejaVuSans-32" x="95.410156"/>
     </g>
    </g>
   </g>
   <g id="xtick_30">
    <g id="line2d_36">
     <path d="M 1034.902896 238.658694 
L 1040.093555 240.05052 
" style="fill: none; stroke: #000000; stroke-width: 0.8; stroke-linecap: square"/>
    </g>
    <g id="text_31">
     <!-- 0.3 -->
     <g transform="translate(1050.531263 232.949456) scale(0.21 -0.21)">
      <use xlink:href="#DejaVuSans-30"/>
      <use xlink:href="#DejaVuSans-2e" x="63.623047"/>
      <use xlink:href="#DejaVuSans-33" x="95.410156"/>
     </g>
    </g>
   </g>
   <g id="xtick_31">
    <g id="line2d_37">
     <path d="M 1035.88371 209.188203 
L 1041.106348 210.561686 
" style="fill: none; stroke: #000000; stroke-width: 0.8; stroke-linecap: square"/>
    </g>
    <g id="text_32">
     <!-- 0.4 -->
     <g transform="translate(1051.604664 203.496663) scale(0.21 -0.21)">
      <use xlink:href="#DejaVuSans-30"/>
      <use xlink:href="#DejaVuSans-2e" x="63.623047"/>
      <use xlink:href="#DejaVuSans-34" x="95.410156"/>
     </g>
    </g>
   </g>
  </g>
  <g id="axes_2">
   <g id="Poly3DCollection_4">
    <path d="M 821.762657 352.635125 
L 845.597589 359.760484 
L 859.565694 347.457479 
L 835.846604 340.436636 
z
" clip-path="url(#p0c3c5ed4ac)" style="fill: #577ddf"/>
    <path d="M 835.404592 279.804468 
L 835.846604 340.436636 
L 859.565694 347.457479 
L 859.421255 286.652464 
z
" clip-path="url(#p0c3c5ed4ac)" style="fill: #648fff"/>
    <path d="M 821.138944 291.70311 
L 821.762657 352.635125 
L 835.846604 340.436636 
L 835.404592 279.804468 
z
" clip-path="url(#p0c3c5ed4ac)" style="fill: #324880"/>
    <path d="M 845.274373 298.654347 
L 859.421255 286.652464 
L 859.565694 347.457479 
L 845.597589 359.760484 
z
" clip-path="url(#p0c3c5ed4ac)" style="fill: #648fff"/>
    <path d="M 821.138944 291.70311 
L 845.274373 298.654347 
L 845.597589 359.760484 
L 821.762657 352.635125 
z
" clip-path="url(#p0c3c5ed4ac)" style="fill: #324880"/>
    <path d="M 821.138944 291.70311 
L 835.404592 279.804468 
L 859.421255 286.652464 
L 845.274373 298.654347 
z
" clip-path="url(#p0c3c5ed4ac)" style="fill: #3f599f"/>
    <path d="M 932.730479 307.555502 
L 932.730479 307.555502 
L 957.595842 314.645492 
L 957.595842 314.645492 
z
" clip-path="url(#p0c3c5ed4ac)" style="fill: #648fff"/>
    <path d="M 918.955771 319.875303 
L 918.955771 319.875303 
L 932.730479 307.555502 
L 932.730479 307.555502 
z
" clip-path="url(#p0c3c5ed4ac)" style="fill: #324880"/>
    <path d="M 918.955771 319.875303 
L 932.730479 307.555502 
L 957.595842 314.645492 
L 943.950672 327.074076 
z
" clip-path="url(#p0c3c5ed4ac)" style="fill: #3f599f"/>
    <path d="M 918.955771 319.875303 
L 943.950672 327.074076 
L 957.595842 314.645492 
L 932.730479 307.555502 
z
" clip-path="url(#p0c3c5ed4ac)" style="fill: #577ddf"/>
    <path d="M 855.381306 317.957152 
L 855.41425 328.173644 
L 880.046638 335.385245 
L 880.065826 325.138934 
z
" clip-path="url(#p0c3c5ed4ac)" style="fill: #648fff"/>
    <path d="M 763.050523 393.198482 
L 787.407816 400.737537 
L 802.274267 387.72155 
L 778.036602 380.296661 
z
" clip-path="url(#p0c3c5ed4ac)" style="fill: #577ddf"/>
    <path d="M 943.950672 327.074076 
L 957.595842 314.645492 
L 957.595842 314.645492 
L 943.950672 327.074076 
z
" clip-path="url(#p0c3c5ed4ac)" style="fill: #648fff"/>
    <path d="M 840.923574 330.436714 
L 840.987488 340.704936 
L 855.41425 328.173644 
L 855.381306 317.957152 
z
" clip-path="url(#p0c3c5ed4ac)" style="fill: #324880"/>
    <path d="M 777.029685 328.493608 
L 778.036602 380.296661 
L 802.274267 387.72155 
L 801.526552 335.768976 
z
" clip-path="url(#p0c3c5ed4ac)" style="fill: #648fff"/>
    <path d="M 918.955771 319.875303 
L 943.950672 327.074076 
L 943.950672 327.074076 
L 918.955771 319.875303 
z
" clip-path="url(#p0c3c5ed4ac)" style="fill: #324880"/>
    <path d="M 840.987488 340.704936 
L 865.745292 348.02767 
L 880.046638 335.385245 
L 855.41425 328.173644 
z
" clip-path="url(#p0c3c5ed4ac)" style="fill: #577ddf"/>
    <path d="M 982.680409 321.797984 
L 982.680409 321.797984 
L 1007.987092 329.01381 
L 1007.987092 329.01381 
z
" clip-path="url(#p0c3c5ed4ac)" style="fill: #648fff"/>
    <path d="M 761.872264 341.136058 
L 763.050523 393.198482 
L 778.036602 380.296661 
L 777.029685 328.493608 
z
" clip-path="url(#p0c3c5ed4ac)" style="fill: #324880"/>
    <path d="M 840.923574 330.436714 
L 855.381306 317.957152 
L 880.065826 325.138934 
L 865.734042 337.729406 
z
" clip-path="url(#p0c3c5ed4ac)" style="fill: #3f599f"/>
    <path d="M 969.167615 334.336799 
L 969.167615 334.336799 
L 982.680409 321.797984 
L 982.680409 321.797984 
z
" clip-path="url(#p0c3c5ed4ac)" style="fill: #324880"/>
    <path d="M 865.734042 337.729406 
L 880.065826 325.138934 
L 880.046638 335.385245 
L 865.745292 348.02767 
z
" clip-path="url(#p0c3c5ed4ac)" style="fill: #648fff"/>
    <path d="M 969.167615 334.336799 
L 982.680409 321.797984 
L 1007.987092 329.01381 
L 994.609571 341.664329 
z
" clip-path="url(#p0c3c5ed4ac)" style="fill: #3f599f"/>
    <path d="M 969.167615 334.336799 
L 994.609571 341.664329 
L 1007.987092 329.01381 
L 982.680409 321.797984 
z
" clip-path="url(#p0c3c5ed4ac)" style="fill: #577ddf"/>
    <path d="M 840.923574 330.436714 
L 865.734042 337.729406 
L 865.745292 348.02767 
L 840.987488 340.704936 
z
" clip-path="url(#p0c3c5ed4ac)" style="fill: #324880"/>
    <path d="M 786.491314 348.52452 
L 801.526552 335.768976 
L 802.274267 387.72155 
L 787.407816 400.737537 
z
" clip-path="url(#p0c3c5ed4ac)" style="fill: #648fff"/>
    <path d="M 994.609571 341.664329 
L 1007.987092 329.01381 
L 1007.987092 329.01381 
L 994.609571 341.664329 
z
" clip-path="url(#p0c3c5ed4ac)" style="fill: #648fff"/>
    <path d="M 761.872264 341.136058 
L 786.491314 348.52452 
L 787.407816 400.737537 
L 763.050523 393.198482 
z
" clip-path="url(#p0c3c5ed4ac)" style="fill: #324880"/>
    <path d="M 904.96937 332.384438 
L 904.96937 332.384438 
L 930.094865 339.694518 
L 930.094865 339.694518 
z
" clip-path="url(#p0c3c5ed4ac)" style="fill: #648fff"/>
    <path d="M 969.167615 334.336799 
L 994.609571 341.664329 
L 994.609571 341.664329 
L 969.167615 334.336799 
z
" clip-path="url(#p0c3c5ed4ac)" style="fill: #324880"/>
    <path d="M 761.872264 341.136058 
L 777.029685 328.493608 
L 801.526552 335.768976 
L 786.491314 348.52452 
z
" clip-path="url(#p0c3c5ed4ac)" style="fill: #3f599f"/>
    <path d="M 890.766356 345.087307 
L 890.766356 345.087307 
L 904.96937 332.384438 
L 904.96937 332.384438 
z
" clip-path="url(#p0c3c5ed4ac)" style="fill: #324880"/>
    <path d="M 890.766356 345.087307 
L 904.96937 332.384438 
L 930.094865 339.694518 
L 916.023504 352.511296 
z
" clip-path="url(#p0c3c5ed4ac)" style="fill: #3f599f"/>
    <path d="M 890.766356 345.087307 
L 916.023504 352.511296 
L 930.094865 339.694518 
L 904.96937 332.384438 
z
" clip-path="url(#p0c3c5ed4ac)" style="fill: #577ddf"/>
    <path d="M 916.023504 352.511296 
L 930.094865 339.694518 
L 930.094865 339.694518 
L 916.023504 352.511296 
z
" clip-path="url(#p0c3c5ed4ac)" style="fill: #648fff"/>
    <path d="M 890.766356 345.087307 
L 916.023504 352.511296 
L 916.023504 352.511296 
L 890.766356 345.087307 
z
" clip-path="url(#p0c3c5ed4ac)" style="fill: #324880"/>
    <path d="M 746.478832 353.975358 
L 746.478832 353.975358 
L 771.220911 361.479573 
L 771.220911 361.479573 
z
" clip-path="url(#p0c3c5ed4ac)" style="fill: #648fff"/>
    <path d="M 912.390382 452.601693 
L 938.021045 460.594713 
L 952.072987 446.796046 
L 926.578383 438.926983 
z
" clip-path="url(#p0c3c5ed4ac)" style="fill: #577ddf"/>
    <path d="M 730.843835 367.016143 
L 730.843835 367.016143 
L 746.478832 353.975358 
L 746.478832 353.975358 
z
" clip-path="url(#p0c3c5ed4ac)" style="fill: #324880"/>
    <path d="M 730.843835 367.016143 
L 746.478832 353.975358 
L 771.220911 361.479573 
L 755.709782 374.638852 
z
" clip-path="url(#p0c3c5ed4ac)" style="fill: #3f599f"/>
    <path d="M 730.843835 367.016143 
L 755.709782 374.638852 
L 771.220911 361.479573 
L 746.478832 353.975358 
z
" clip-path="url(#p0c3c5ed4ac)" style="fill: #577ddf"/>
    <path d="M 927.352263 373.138174 
L 926.578383 438.926983 
L 952.072987 446.796046 
L 953.207047 380.816832 
z
" clip-path="url(#p0c3c5ed4ac)" style="fill: #648fff"/>
    <path d="M 755.709782 374.638852 
L 771.220911 361.479573 
L 771.220911 361.479573 
L 755.709782 374.638852 
z
" clip-path="url(#p0c3c5ed4ac)" style="fill: #648fff"/>
    <path d="M 912.971261 386.482618 
L 912.390382 452.601693 
L 926.578383 438.926983 
L 927.352263 373.138174 
z
" clip-path="url(#p0c3c5ed4ac)" style="fill: #324880"/>
    <path d="M 730.843835 367.016143 
L 755.709782 374.638852 
L 755.709782 374.638852 
L 730.843835 367.016143 
z
" clip-path="url(#p0c3c5ed4ac)" style="fill: #324880"/>
    <path d="M 938.966007 394.283942 
L 953.207047 380.816832 
L 952.072987 446.796046 
L 938.021045 460.594713 
z
" clip-path="url(#p0c3c5ed4ac)" style="fill: #648fff"/>
    <path d="M 912.971261 386.482618 
L 938.966007 394.283942 
L 938.021045 460.594713 
L 912.390382 452.601693 
z
" clip-path="url(#p0c3c5ed4ac)" style="fill: #324880"/>
    <path d="M 912.971261 386.482618 
L 927.352263 373.138174 
L 953.207047 380.816832 
L 938.966007 394.283942 
z
" clip-path="url(#p0c3c5ed4ac)" style="fill: #3f599f"/>
    <path d="M 846.806123 384.404391 
L 846.856889 394.429757 
L 872.461525 402.241514 
L 872.4646 392.186547 
z
" clip-path="url(#p0c3c5ed4ac)" style="fill: #648fff"/>
    <path d="M 831.684318 397.929006 
L 831.767466 408.005719 
L 846.856889 394.429757 
L 846.806123 384.404391 
z
" clip-path="url(#p0c3c5ed4ac)" style="fill: #324880"/>
    <path d="M 831.767466 408.005719 
L 857.507433 415.94285 
L 872.461525 402.241514 
L 846.856889 394.429757 
z
" clip-path="url(#p0c3c5ed4ac)" style="fill: #577ddf"/>
    <path d="M 831.684318 397.929006 
L 846.806123 384.404391 
L 872.4646 392.186547 
L 857.478697 405.836328 
z
" clip-path="url(#p0c3c5ed4ac)" style="fill: #3f599f"/>
    <path d="M 857.478697 405.836328 
L 872.4646 392.186547 
L 872.461525 402.241514 
L 857.507433 415.94285 
z
" clip-path="url(#p0c3c5ed4ac)" style="fill: #648fff"/>
    <path d="M 831.684318 397.929006 
L 857.478697 405.836328 
L 857.507433 415.94285 
L 831.767466 408.005719 
z
" clip-path="url(#p0c3c5ed4ac)" style="fill: #324880"/>
   </g>
   <g id="Poly3DCollection_5">
    <path d="M 710.554704 369.798222 
L 915.617512 432.999741 
L 1027.302622 326.365233 
L 830.55604 270.544423 
z
" clip-path="url(#p0c3c5ed4ac)" style="fill-opacity: 0.25"/>
   </g>
   <g id="Poly3DCollection_6">
    <path d="M 869.620466 305.666258 
L 883.645972 293.559783 
L 908.081459 300.5272 
L 894.179992 312.739639 
z
" clip-path="url(#p0c3c5ed4ac)" style="fill: #3f599f"/>
    <path d="M 883.645972 293.559783 
L 883.81592 228.088038 
L 908.582132 234.860875 
L 908.081459 300.5272 
z
" clip-path="url(#p0c3c5ed4ac)" style="fill: #324880"/>
    <path d="M 806.65788 303.781426 
L 806.52879 294.032633 
L 830.832149 301.060915 
L 830.912933 310.838257 
z
" clip-path="url(#p0c3c5ed4ac)" style="fill: #324880"/>
    <path d="M 869.620466 305.666258 
L 869.601703 239.856921 
L 883.81592 228.088038 
L 883.645972 293.559783 
z
" clip-path="url(#p0c3c5ed4ac)" style="fill: #648fff"/>
    <path d="M 791.956483 316.043517 
L 791.796691 306.245196 
L 806.52879 294.032633 
L 806.65788 303.781426 
z
" clip-path="url(#p0c3c5ed4ac)" style="fill: #648fff"/>
    <path d="M 791.956483 316.043517 
L 806.65788 303.781426 
L 830.912933 310.838257 
L 816.332016 323.208366 
z
" clip-path="url(#p0c3c5ed4ac)" style="fill: #3f599f"/>
    <path d="M 791.796691 306.245196 
L 816.221009 313.381278 
L 830.832149 301.060915 
L 806.52879 294.032633 
z
" clip-path="url(#p0c3c5ed4ac)" style="fill: #577ddf"/>
    <path d="M 894.179992 312.739639 
L 908.081459 300.5272 
L 908.582132 234.860875 
L 894.495348 246.734166 
z
" clip-path="url(#p0c3c5ed4ac)" style="fill: #324880"/>
    <path d="M 816.332016 323.208366 
L 830.912933 310.838257 
L 830.832149 301.060915 
L 816.221009 313.381278 
z
" clip-path="url(#p0c3c5ed4ac)" style="fill: #324880"/>
    <path d="M 869.620466 305.666258 
L 894.179992 312.739639 
L 894.495348 246.734166 
L 869.601703 239.856921 
z
" clip-path="url(#p0c3c5ed4ac)" style="fill: #648fff"/>
    <path d="M 791.956483 316.043517 
L 816.332016 323.208366 
L 816.221009 313.381278 
L 791.796691 306.245196 
z
" clip-path="url(#p0c3c5ed4ac)" style="fill: #648fff"/>
    <path d="M 869.601703 239.856921 
L 894.495348 246.734166 
L 908.582132 234.860875 
L 883.81592 228.088038 
z
" clip-path="url(#p0c3c5ed4ac)" style="fill: #577ddf"/>
    <path d="M 826.242198 343.109319 
L 826.242198 343.109319 
L 851.179568 350.515512 
L 851.179568 350.515512 
z
" clip-path="url(#p0c3c5ed4ac)" style="fill: #324880"/>
    <path d="M 811.331948 355.979482 
L 811.331948 355.979482 
L 826.242198 343.109319 
L 826.242198 343.109319 
z
" clip-path="url(#p0c3c5ed4ac)" style="fill: #648fff"/>
    <path d="M 955.445293 347.070041 
L 955.445293 347.070041 
L 981.023687 354.511888 
L 981.023687 354.511888 
z
" clip-path="url(#p0c3c5ed4ac)" style="fill: #324880"/>
    <path d="M 811.331948 355.979482 
L 826.242198 343.109319 
L 851.179568 350.515512 
L 836.397172 363.501847 
z
" clip-path="url(#p0c3c5ed4ac)" style="fill: #3f599f"/>
    <path d="M 811.331948 355.979482 
L 836.397172 363.501847 
L 851.179568 350.515512 
L 826.242198 343.109319 
z
" clip-path="url(#p0c3c5ed4ac)" style="fill: #577ddf"/>
    <path d="M 941.508531 360.002265 
L 941.508531 360.002265 
L 955.445293 347.070041 
L 955.445293 347.070041 
z
" clip-path="url(#p0c3c5ed4ac)" style="fill: #648fff"/>
    <path d="M 836.397172 363.501847 
L 851.179568 350.515512 
L 851.179568 350.515512 
L 836.397172 363.501847 
z
" clip-path="url(#p0c3c5ed4ac)" style="fill: #324880"/>
    <path d="M 941.508531 360.002265 
L 955.445293 347.070041 
L 981.023687 354.511888 
L 967.224532 367.561127 
z
" clip-path="url(#p0c3c5ed4ac)" style="fill: #3f599f"/>
    <path d="M 941.508531 360.002265 
L 967.224532 367.561127 
L 981.023687 354.511888 
L 955.445293 347.070041 
z
" clip-path="url(#p0c3c5ed4ac)" style="fill: #577ddf"/>
    <path d="M 811.331948 355.979482 
L 836.397172 363.501847 
L 836.397172 363.501847 
L 811.331948 355.979482 
z
" clip-path="url(#p0c3c5ed4ac)" style="fill: #648fff"/>
    <path d="M 967.224532 367.561127 
L 981.023687 354.511888 
L 981.023687 354.511888 
L 967.224532 367.561127 
z
" clip-path="url(#p0c3c5ed4ac)" style="fill: #324880"/>
    <path d="M 876.341658 357.988445 
L 876.353236 347.562404 
L 901.79849 355.072127 
L 901.731521 365.529025 
z
" clip-path="url(#p0c3c5ed4ac)" style="fill: #324880"/>
    <path d="M 941.508531 360.002265 
L 967.224532 367.561127 
L 967.224532 367.561127 
L 941.508531 360.002265 
z
" clip-path="url(#p0c3c5ed4ac)" style="fill: #648fff"/>
    <path d="M 861.690046 371.092531 
L 861.669675 360.612961 
L 876.353236 347.562404 
L 876.341658 357.988445 
z
" clip-path="url(#p0c3c5ed4ac)" style="fill: #648fff"/>
    <path d="M 861.690046 371.092531 
L 876.341658 357.988445 
L 901.731521 365.529025 
L 887.213685 378.752471 
z
" clip-path="url(#p0c3c5ed4ac)" style="fill: #3f599f"/>
    <path d="M 861.669675 360.612961 
L 887.249291 368.241817 
L 901.79849 355.072127 
L 876.353236 347.562404 
z
" clip-path="url(#p0c3c5ed4ac)" style="fill: #577ddf"/>
    <path d="M 887.213685 378.752471 
L 901.731521 365.529025 
L 901.79849 355.072127 
L 887.249291 368.241817 
z
" clip-path="url(#p0c3c5ed4ac)" style="fill: #324880"/>
    <path d="M 861.690046 371.092531 
L 887.213685 378.752471 
L 887.249291 368.241817 
L 861.669675 360.612961 
z
" clip-path="url(#p0c3c5ed4ac)" style="fill: #648fff"/>
    <path d="M 780.80308 382.331255 
L 796.187431 369.05186 
L 821.38146 376.69315 
L 806.126862 390.094314 
z
" clip-path="url(#p0c3c5ed4ac)" style="fill: #3f599f"/>
    <path d="M 796.187431 369.05186 
L 795.347697 315.242928 
L 820.82193 322.722444 
L 821.38146 376.69315 
z
" clip-path="url(#p0c3c5ed4ac)" style="fill: #324880"/>
    <path d="M 780.80308 382.331255 
L 779.782571 328.241674 
L 795.347697 315.242928 
L 796.187431 369.05186 
z
" clip-path="url(#p0c3c5ed4ac)" style="fill: #648fff"/>
    <path d="M 806.126862 390.094314 
L 821.38146 376.69315 
L 820.82193 322.722444 
L 805.389446 335.841737 
z
" clip-path="url(#p0c3c5ed4ac)" style="fill: #324880"/>
    <path d="M 780.80308 382.331255 
L 806.126862 390.094314 
L 805.389446 335.841737 
L 779.782571 328.241674 
z
" clip-path="url(#p0c3c5ed4ac)" style="fill: #648fff"/>
    <path d="M 779.782571 328.241674 
L 805.389446 335.841737 
L 820.82193 322.722444 
L 795.347697 315.242928 
z
" clip-path="url(#p0c3c5ed4ac)" style="fill: #577ddf"/>
    <path d="M 883.513309 413.817293 
L 898.360133 400.040602 
L 924.496021 407.967555 
L 909.791525 421.872935 
z
" clip-path="url(#p0c3c5ed4ac)" style="fill: #3f599f"/>
    <path d="M 898.360133 400.040602 
L 898.735146 334.740138 
L 925.232788 342.46905 
L 924.496021 407.967555 
z
" clip-path="url(#p0c3c5ed4ac)" style="fill: #324880"/>
    <path d="M 883.513309 413.817293 
L 883.686185 348.173273 
L 898.735146 334.740138 
L 898.360133 400.040602 
z
" clip-path="url(#p0c3c5ed4ac)" style="fill: #648fff"/>
    <path d="M 909.791525 421.872935 
L 924.496021 407.967555 
L 925.232788 342.46905 
L 910.330144 356.029404 
z
" clip-path="url(#p0c3c5ed4ac)" style="fill: #324880"/>
    <path d="M 883.513309 413.817293 
L 909.791525 421.872935 
L 910.330144 356.029404 
L 883.686185 348.173273 
z
" clip-path="url(#p0c3c5ed4ac)" style="fill: #648fff"/>
    <path d="M 883.686185 348.173273 
L 910.330144 356.029404 
L 925.232788 342.46905 
L 898.735146 334.740138 
z
" clip-path="url(#p0c3c5ed4ac)" style="fill: #577ddf"/>
   </g>
   <g id="text_33">
    <!-- Imaginary Amplitude (ρ) -->
    <g transform="translate(735.696563 51.6) scale(0.21 -0.21)">
     <defs>
      <path id="DejaVuSans-49" d="M 628 4666 
L 1259 4666 
L 1259 0 
L 628 0 
L 628 4666 
z
" transform="scale(0.015625)"/>
      <path id="DejaVuSans-67" d="M 2906 1791 
Q 2906 2416 2648 2759 
Q 2391 3103 1925 3103 
Q 1463 3103 1205 2759 
Q 947 2416 947 1791 
Q 947 1169 1205 825 
Q 1463 481 1925 481 
Q 2391 481 2648 825 
Q 2906 1169 2906 1791 
z
M 3481 434 
Q 3481 -459 3084 -895 
Q 2688 -1331 1869 -1331 
Q 1566 -1331 1297 -1286 
Q 1028 -1241 775 -1147 
L 775 -588 
Q 1028 -725 1275 -790 
Q 1522 -856 1778 -856 
Q 2344 -856 2625 -561 
Q 2906 -266 2906 331 
L 2906 616 
Q 2728 306 2450 153 
Q 2172 0 1784 0 
Q 1141 0 747 490 
Q 353 981 353 1791 
Q 353 2603 747 3093 
Q 1141 3584 1784 3584 
Q 2172 3584 2450 3431 
Q 2728 3278 2906 2969 
L 2906 3500 
L 3481 3500 
L 3481 434 
z
" transform="scale(0.015625)"/>
      <path id="DejaVuSans-6e" d="M 3513 2113 
L 3513 0 
L 2938 0 
L 2938 2094 
Q 2938 2591 2744 2837 
Q 2550 3084 2163 3084 
Q 1697 3084 1428 2787 
Q 1159 2491 1159 1978 
L 1159 0 
L 581 0 
L 581 3500 
L 1159 3500 
L 1159 2956 
Q 1366 3272 1645 3428 
Q 1925 3584 2291 3584 
Q 2894 3584 3203 3211 
Q 3513 2838 3513 2113 
z
" transform="scale(0.015625)"/>
      <path id="DejaVuSans-72" d="M 2631 2963 
Q 2534 3019 2420 3045 
Q 2306 3072 2169 3072 
Q 1681 3072 1420 2755 
Q 1159 2438 1159 1844 
L 1159 0 
L 581 0 
L 581 3500 
L 1159 3500 
L 1159 2956 
Q 1341 3275 1631 3429 
Q 1922 3584 2338 3584 
Q 2397 3584 2469 3576 
Q 2541 3569 2628 3553 
L 2631 2963 
z
" transform="scale(0.015625)"/>
      <path id="DejaVuSans-79" d="M 2059 -325 
Q 1816 -950 1584 -1140 
Q 1353 -1331 966 -1331 
L 506 -1331 
L 506 -850 
L 844 -850 
Q 1081 -850 1212 -737 
Q 1344 -625 1503 -206 
L 1606 56 
L 191 3500 
L 800 3500 
L 1894 763 
L 2988 3500 
L 3597 3500 
L 2059 -325 
z
" transform="scale(0.015625)"/>
     </defs>
     <use xlink:href="#DejaVuSans-49"/>
     <use xlink:href="#DejaVuSans-6d" x="29.492188"/>
     <use xlink:href="#DejaVuSans-61" x="126.904297"/>
     <use xlink:href="#DejaVuSans-67" x="188.183594"/>
     <use xlink:href="#DejaVuSans-69" x="251.660156"/>
     <use xlink:href="#DejaVuSans-6e" x="279.443359"/>
     <use xlink:href="#DejaVuSans-61" x="342.822266"/>
     <use xlink:href="#DejaVuSans-72" x="404.101562"/>
     <use xlink:href="#DejaVuSans-79" x="445.214844"/>
     <use xlink:href="#DejaVuSans-20" x="504.394531"/>
     <use xlink:href="#DejaVuSans-41" x="536.181641"/>
     <use xlink:href="#DejaVuSans-6d" x="604.589844"/>
     <use xlink:href="#DejaVuSans-70" x="702.001953"/>
     <use xlink:href="#DejaVuSans-6c" x="765.478516"/>
     <use xlink:href="#DejaVuSans-69" x="793.261719"/>
     <use xlink:href="#DejaVuSans-74" x="821.044922"/>
     <use xlink:href="#DejaVuSans-75" x="860.253906"/>
     <use xlink:href="#DejaVuSans-64" x="923.632812"/>
     <use xlink:href="#DejaVuSans-65" x="987.109375"/>
     <use xlink:href="#DejaVuSans-20" x="1048.632812"/>
     <use xlink:href="#DejaVuSans-28" x="1080.419922"/>
     <use xlink:href="#DejaVuSans-3c1" x="1119.433594"/>
     <use xlink:href="#DejaVuSans-29" x="1182.910156"/>
    </g>
   </g>
  </g>
 </g>
 <defs>
  <clipPath id="p712d0b15eb">
   <rect x="28.8" y="57.6" width="518.4" height="518.4"/>
  </clipPath>
  <clipPath id="p0c3c5ed4ac">
   <rect x="604.8" y="57.6" width="518.4" height="518.4"/>
  </clipPath>
 </defs>
</svg>
