<?xml version="1.0" encoding="utf-8" standalone="no"?>
<!DOCTYPE svg PUBLIC "-//W3C//DTD SVG 1.1//EN"
  "http://www.w3.org/Graphics/SVG/1.1/DTD/svg11.dtd">
<svg xmlns:xlink="http://www.w3.org/1999/xlink" width="1152pt" height="576pt" viewBox="0 0 1152 576" xmlns="http://www.w3.org/2000/svg" version="1.1">
 <metadata>
  <rdf:RDF xmlns:dc="http://purl.org/dc/elements/1.1/" xmlns:cc="http://creativecommons.org/ns#" xmlns:rdf="http://www.w3.org/1999/02/22-rdf-syntax-ns#">
   <cc:Work>
    <dc:type rdf:resource="http://purl.org/dc/dcmitype/StillImage"/>
    <dc:date>2024-11-02T18:56:38.272347</dc:date>
    <dc:format>image/svg+xml</dc:format>
    <dc:creator>
     <cc:Agent>
      <dc:title>Matplotlib v3.9.2, https://matplotlib.org/</dc:title>
     </cc:Agent>
    </dc:creator>
   </cc:Work>
  </rdf:RDF>
 </metadata>
 <defs>
  <style type="text/css">*{stroke-linejoin: round; stroke-linecap: butt}</style>
 </defs>
 <g id="figure_1">
  <g id="patch_1">
   <path d="M 0 576 
L 1152 576 
L 1152 0 
L 0 0 
z
" style="fill: #ffffff"/>
  </g>
  <g id="patch_2">
   <path d="M 28.8 576 
L 547.2 576 
L 547.2 57.6 
L 28.8 57.6 
z
" style="fill: #ffffff"/>
  </g>
  <g id="pane3d_1">
   <g id="patch_3">
    <path d="M 130.07018 436.456468 
L 253.494133 330.550231 
L 251.743197 126.70673 
L 122.643358 223.613571 
" style="fill: #f2f2f2; opacity: 0.5; stroke: #f2f2f2; stroke-linejoin: miter"/>
   </g>
  </g>
  <g id="pane3d_2">
   <g id="patch_4">
    <path d="M 253.494133 330.550231 
L 455.554898 390.069341 
L 462.583588 181.103065 
L 251.743197 126.70673 
" style="fill: #e6e6e6; opacity: 0.5; stroke: #e6e6e6; stroke-linejoin: miter"/>
   </g>
  </g>
  <g id="pane3d_3">
   <g id="patch_5">
    <path d="M 130.07018 436.456468 
L 340.912731 504.076731 
L 455.554898 390.069341 
L 253.494133 330.550231 
" style="fill: #ececec; opacity: 0.5; stroke: #ececec; stroke-linejoin: miter"/>
   </g>
  </g>
  <g id="grid3d_1">
   <g id="Line3DCollection_1">
    <path d="M 158.635886 445.617904 
L 280.925726 338.630493 
L 280.328796 134.081748 
" style="fill: none; stroke: #b0b0b0; stroke-width: 0.8"/>
    <path d="M 208.310046 461.549127 
L 328.58611 352.669358 
L 330.022474 146.902603 
" style="fill: none; stroke: #b0b0b0; stroke-width: 0.8"/>
    <path d="M 258.89502 477.772462 
L 377.066152 366.949661 
L 380.607663 159.953465 
" style="fill: none; stroke: #b0b0b0; stroke-width: 0.8"/>
    <path d="M 310.41609 494.296016 
L 426.38718 381.477685 
L 432.108569 173.24058 
" style="fill: none; stroke: #b0b0b0; stroke-width: 0.8"/>
   </g>
  </g>
  <g id="grid3d_2">
   <g id="Line3DCollection_2">
    <path d="M 141.757365 209.265931 
L 148.301379 420.812846 
L 357.880707 487.202708 
" style="fill: none; stroke: #b0b0b0; stroke-width: 0.8"/>
    <path d="M 173.704273 185.285468 
L 178.805664 394.638072 
L 386.24502 458.995448 
" style="fill: none; stroke: #b0b0b0; stroke-width: 0.8"/>
    <path d="M 204.65707 162.051218 
L 208.400054 369.24405 
L 413.731787 431.660877 
" style="fill: none; stroke: #b0b0b0; stroke-width: 0.8"/>
    <path d="M 234.661448 139.528886 
L 237.124663 344.596362 
L 440.38111 405.159111 
" style="fill: none; stroke: #b0b0b0; stroke-width: 0.8"/>
   </g>
  </g>
  <g id="grid3d_3">
   <g id="Line3DCollection_3">
    <path d="M 456.215616 370.425892 
L 253.329311 311.361703 
L 129.372793 416.470286 
" style="fill: none; stroke: #b0b0b0; stroke-width: 0.8"/>
    <path d="M 456.987123 347.488604 
L 253.136911 288.96262 
L 128.558269 393.127106 
" style="fill: none; stroke: #b0b0b0; stroke-width: 0.8"/>
    <path d="M 457.766051 324.330716 
L 252.942727 266.355765 
L 127.735695 369.553204 
" style="fill: none; stroke: #b0b0b0; stroke-width: 0.8"/>
    <path d="M 458.552506 300.949032 
L 252.746734 243.538235 
L 126.904949 345.745142 
" style="fill: none; stroke: #b0b0b0; stroke-width: 0.8"/>
    <path d="M 459.346598 277.340291 
L 252.548905 220.507069 
L 126.065911 321.699414 
" style="fill: none; stroke: #b0b0b0; stroke-width: 0.8"/>
    <path d="M 460.14844 253.50117 
L 252.349215 197.259254 
L 125.218455 297.412443 
" style="fill: none; stroke: #b0b0b0; stroke-width: 0.8"/>
    <path d="M 460.958144 229.428281 
L 252.147638 173.791719 
L 124.362454 272.880581 
" style="fill: none; stroke: #b0b0b0; stroke-width: 0.8"/>
    <path d="M 461.775827 205.118167 
L 251.944147 150.101333 
L 123.497778 248.100105 
" style="fill: none; stroke: #b0b0b0; stroke-width: 0.8"/>
   </g>
  </g>
  <g id="axis3d_1">
   <g id="line2d_1">
    <path d="M 130.07018 436.456468 
L 340.912731 504.076731 
" style="fill: none; stroke: #000000; stroke-width: 0.8; stroke-linecap: square"/>
   </g>
   <g id="xtick_1">
    <g id="line2d_2">
     <path d="M 159.677227 444.706868 
L 156.549953 447.442819 
" style="fill: none; stroke: #000000; stroke-width: 0.8; stroke-linecap: square"/>
    </g>
    <g id="text_1">
     <!-- 00 -->
     <g transform="translate(131.351686 489.365693) rotate(-45) scale(0.21 -0.21)">
      <defs>
       <path id="DejaVuSans-30" d="M 2034 4250 
Q 1547 4250 1301 3770 
Q 1056 3291 1056 2328 
Q 1056 1369 1301 889 
Q 1547 409 2034 409 
Q 2525 409 2770 889 
Q 3016 1369 3016 2328 
Q 3016 3291 2770 3770 
Q 2525 4250 2034 4250 
z
M 2034 4750 
Q 2819 4750 3233 4129 
Q 3647 3509 3647 2328 
Q 3647 1150 3233 529 
Q 2819 -91 2034 -91 
Q 1250 -91 836 529 
Q 422 1150 422 2328 
Q 422 3509 836 4129 
Q 1250 4750 2034 4750 
z
" transform="scale(0.015625)"/>
      </defs>
      <use xlink:href="#DejaVuSans-30"/>
      <use xlink:href="#DejaVuSans-30" x="63.623047"/>
     </g>
    </g>
   </g>
   <g id="xtick_2">
    <g id="line2d_3">
     <path d="M 209.334802 460.621468 
L 206.257306 463.407368 
" style="fill: none; stroke: #000000; stroke-width: 0.8; stroke-linecap: square"/>
    </g>
    <g id="text_2">
     <!-- 01 -->
     <g transform="translate(181.023931 505.435143) rotate(-45) scale(0.21 -0.21)">
      <defs>
       <path id="DejaVuSans-31" d="M 794 531 
L 1825 531 
L 1825 4091 
L 703 3866 
L 703 4441 
L 1819 4666 
L 2450 4666 
L 2450 531 
L 3481 531 
L 3481 0 
L 794 0 
L 794 531 
z
" transform="scale(0.015625)"/>
      </defs>
      <use xlink:href="#DejaVuSans-30"/>
      <use xlink:href="#DejaVuSans-31" x="63.623047"/>
     </g>
    </g>
   </g>
   <g id="xtick_3">
    <g id="line2d_4">
     <path d="M 259.902405 476.82772 
L 256.877048 479.664949 
" style="fill: none; stroke: #000000; stroke-width: 0.8; stroke-linecap: square"/>
    </g>
    <g id="text_3">
     <!-- 10 -->
     <g transform="translate(231.60781 521.799516) rotate(-45) scale(0.21 -0.21)">
      <use xlink:href="#DejaVuSans-31"/>
      <use xlink:href="#DejaVuSans-30" x="63.623047"/>
     </g>
    </g>
   </g>
   <g id="xtick_4">
    <g id="line2d_5">
     <path d="M 311.405283 493.333715 
L 308.434531 496.223705 
" style="fill: none; stroke: #000000; stroke-width: 0.8; stroke-linecap: square"/>
    </g>
    <g id="text_4">
     <!-- 11 -->
     <g transform="translate(283.128654 538.467006) rotate(-45) scale(0.21 -0.21)">
      <use xlink:href="#DejaVuSans-31"/>
      <use xlink:href="#DejaVuSans-31" x="63.623047"/>
     </g>
    </g>
   </g>
  </g>
  <g id="axis3d_2">
   <g id="line2d_6">
    <path d="M 455.554898 390.069341 
L 340.912731 504.076731 
" style="fill: none; stroke: #000000; stroke-width: 0.8; stroke-linecap: square"/>
   </g>
   <g id="xtick_5">
    <g id="line2d_7">
     <path d="M 356.140222 486.651363 
L 361.364886 488.306415 
" style="fill: none; stroke: #000000; stroke-width: 0.8; stroke-linecap: square"/>
    </g>
    <g id="text_5">
     <!-- 00 -->
     <g transform="translate(368.70027 499.207917) rotate(-337.5) scale(0.21 -0.21)">
      <use xlink:href="#DejaVuSans-30"/>
      <use xlink:href="#DejaVuSans-30" x="63.623047"/>
     </g>
    </g>
   </g>
   <g id="xtick_6">
    <g id="line2d_8">
     <path d="M 384.5233 458.46129 
L 389.691587 460.064734 
" style="fill: none; stroke: #000000; stroke-width: 0.8; stroke-linecap: square"/>
    </g>
    <g id="text_6">
     <!-- 01 -->
     <g transform="translate(396.913817 470.822876) rotate(-337.5) scale(0.21 -0.21)">
      <use xlink:href="#DejaVuSans-30"/>
      <use xlink:href="#DejaVuSans-31" x="63.623047"/>
     </g>
    </g>
   </g>
   <g id="xtick_7">
    <g id="line2d_9">
     <path d="M 412.028511 431.143114 
L 417.141381 432.697327 
" style="fill: none; stroke: #000000; stroke-width: 0.8; stroke-linecap: square"/>
    </g>
    <g id="text_7">
     <!-- 10 -->
     <g transform="translate(424.254695 443.315808) rotate(-337.5) scale(0.21 -0.21)">
      <use xlink:href="#DejaVuSans-31"/>
      <use xlink:href="#DejaVuSans-30" x="63.623047"/>
     </g>
    </g>
   </g>
   <g id="xtick_8">
    <g id="line2d_10">
     <path d="M 438.695964 404.657001 
L 443.754368 406.164215 
" style="fill: none; stroke: #000000; stroke-width: 0.8; stroke-linecap: square"/>
    </g>
    <g id="text_8">
     <!-- 11 -->
     <g transform="translate(450.762776 416.646599) rotate(-337.5) scale(0.21 -0.21)">
      <use xlink:href="#DejaVuSans-31"/>
      <use xlink:href="#DejaVuSans-31" x="63.623047"/>
     </g>
    </g>
   </g>
  </g>
  <g id="axis3d_3">
   <g id="line2d_11">
    <path d="M 455.554898 390.069341 
L 462.583588 181.103065 
" style="fill: none; stroke: #000000; stroke-width: 0.8; stroke-linecap: square"/>
   </g>
   <g id="xtick_9">
    <g id="line2d_12">
     <path d="M 454.533817 369.936288 
L 459.582159 371.405959 
" style="fill: none; stroke: #000000; stroke-width: 0.8; stroke-linecap: square"/>
    </g>
    <g id="text_9">
     <!-- −0.3 -->
     <g transform="translate(469.749614 364.15193) scale(0.21 -0.21)">
      <defs>
       <path id="DejaVuSans-2212" d="M 678 2272 
L 4684 2272 
L 4684 1741 
L 678 1741 
L 678 2272 
z
" transform="scale(0.015625)"/>
       <path id="DejaVuSans-2e" d="M 684 794 
L 1344 794 
L 1344 0 
L 684 0 
L 684 794 
z
" transform="scale(0.015625)"/>
       <path id="DejaVuSans-33" d="M 2597 2516 
Q 3050 2419 3304 2112 
Q 3559 1806 3559 1356 
Q 3559 666 3084 287 
Q 2609 -91 1734 -91 
Q 1441 -91 1130 -33 
Q 819 25 488 141 
L 488 750 
Q 750 597 1062 519 
Q 1375 441 1716 441 
Q 2309 441 2620 675 
Q 2931 909 2931 1356 
Q 2931 1769 2642 2001 
Q 2353 2234 1838 2234 
L 1294 2234 
L 1294 2753 
L 1863 2753 
Q 2328 2753 2575 2939 
Q 2822 3125 2822 3475 
Q 2822 3834 2567 4026 
Q 2313 4219 1838 4219 
Q 1578 4219 1281 4162 
Q 984 4106 628 3988 
L 628 4550 
Q 988 4650 1302 4700 
Q 1616 4750 1894 4750 
Q 2613 4750 3031 4423 
Q 3450 4097 3450 3541 
Q 3450 3153 3228 2886 
Q 3006 2619 2597 2516 
z
" transform="scale(0.015625)"/>
      </defs>
      <use xlink:href="#DejaVuSans-2212"/>
      <use xlink:href="#DejaVuSans-30" x="83.789062"/>
      <use xlink:href="#DejaVuSans-2e" x="147.412109"/>
      <use xlink:href="#DejaVuSans-33" x="179.199219"/>
     </g>
    </g>
   </g>
   <g id="xtick_10">
    <g id="line2d_13">
     <path d="M 455.297052 347.003379 
L 460.37024 348.459906 
" style="fill: none; stroke: #000000; stroke-width: 0.8; stroke-linecap: square"/>
    </g>
    <g id="text_10">
     <!-- −0.2 -->
     <g transform="translate(470.584937 341.231706) scale(0.21 -0.21)">
      <defs>
       <path id="DejaVuSans-32" d="M 1228 531 
L 3431 531 
L 3431 0 
L 469 0 
L 469 531 
Q 828 903 1448 1529 
Q 2069 2156 2228 2338 
Q 2531 2678 2651 2914 
Q 2772 3150 2772 3378 
Q 2772 3750 2511 3984 
Q 2250 4219 1831 4219 
Q 1534 4219 1204 4116 
Q 875 4013 500 3803 
L 500 4441 
Q 881 4594 1212 4672 
Q 1544 4750 1819 4750 
Q 2544 4750 2975 4387 
Q 3406 4025 3406 3419 
Q 3406 3131 3298 2873 
Q 3191 2616 2906 2266 
Q 2828 2175 2409 1742 
Q 1991 1309 1228 531 
z
" transform="scale(0.015625)"/>
      </defs>
      <use xlink:href="#DejaVuSans-2212"/>
      <use xlink:href="#DejaVuSans-30" x="83.789062"/>
      <use xlink:href="#DejaVuSans-2e" x="147.412109"/>
      <use xlink:href="#DejaVuSans-32" x="179.199219"/>
     </g>
    </g>
   </g>
   <g id="xtick_11">
    <g id="line2d_14">
     <path d="M 456.067626 323.849979 
L 461.165905 325.29304 
" style="fill: none; stroke: #000000; stroke-width: 0.8; stroke-linecap: square"/>
    </g>
    <g id="text_11">
     <!-- −0.1 -->
     <g transform="translate(471.428285 318.091301) scale(0.21 -0.21)">
      <use xlink:href="#DejaVuSans-2212"/>
      <use xlink:href="#DejaVuSans-30" x="83.789062"/>
      <use xlink:href="#DejaVuSans-2e" x="147.412109"/>
      <use xlink:href="#DejaVuSans-31" x="179.199219"/>
     </g>
    </g>
   </g>
   <g id="xtick_12">
    <g id="line2d_15">
     <path d="M 456.845644 300.472892 
L 461.969264 301.902157 
" style="fill: none; stroke: #000000; stroke-width: 0.8; stroke-linecap: square"/>
    </g>
    <g id="text_12">
     <!-- 0.0 -->
     <g transform="translate(472.279773 294.727526) scale(0.21 -0.21)">
      <use xlink:href="#DejaVuSans-30"/>
      <use xlink:href="#DejaVuSans-2e" x="63.623047"/>
      <use xlink:href="#DejaVuSans-30" x="95.410156"/>
     </g>
    </g>
   </g>
   <g id="xtick_13">
    <g id="line2d_16">
     <path d="M 457.631215 276.86886 
L 462.780428 278.283994 
" style="fill: none; stroke: #000000; stroke-width: 0.8; stroke-linecap: square"/>
    </g>
    <g id="text_13">
     <!-- 0.1 -->
     <g transform="translate(473.13952 271.137131) scale(0.21 -0.21)">
      <use xlink:href="#DejaVuSans-30"/>
      <use xlink:href="#DejaVuSans-2e" x="63.623047"/>
      <use xlink:href="#DejaVuSans-31" x="95.410156"/>
     </g>
    </g>
   </g>
   <g id="xtick_14">
    <g id="line2d_17">
     <path d="M 458.42445 253.034563 
L 463.599513 254.435221 
" style="fill: none; stroke: #000000; stroke-width: 0.8; stroke-linecap: square"/>
    </g>
    <g id="text_14">
     <!-- 0.2 -->
     <g transform="translate(474.007648 247.316803) scale(0.21 -0.21)">
      <use xlink:href="#DejaVuSans-30"/>
      <use xlink:href="#DejaVuSans-2e" x="63.623047"/>
      <use xlink:href="#DejaVuSans-32" x="95.410156"/>
     </g>
    </g>
   </g>
   <g id="xtick_15">
    <g id="line2d_18">
     <path d="M 459.22546 228.966615 
L 464.426635 230.352444 
" style="fill: none; stroke: #000000; stroke-width: 0.8; stroke-linecap: square"/>
    </g>
    <g id="text_15">
     <!-- 0.3 -->
     <g transform="translate(474.884278 223.263164) scale(0.21 -0.21)">
      <use xlink:href="#DejaVuSans-30"/>
      <use xlink:href="#DejaVuSans-2e" x="63.623047"/>
      <use xlink:href="#DejaVuSans-33" x="95.410156"/>
     </g>
    </g>
   </g>
   <g id="xtick_16">
    <g id="line2d_19">
     <path d="M 460.034362 204.661563 
L 465.261913 206.032201 
" style="fill: none; stroke: #000000; stroke-width: 0.8; stroke-linecap: square"/>
    </g>
    <g id="text_16">
     <!-- 0.4 -->
     <g transform="translate(475.769537 198.972769) scale(0.21 -0.21)">
      <defs>
       <path id="DejaVuSans-34" d="M 2419 4116 
L 825 1625 
L 2419 1625 
L 2419 4116 
z
M 2253 4666 
L 3047 4666 
L 3047 1625 
L 3713 1625 
L 3713 1100 
L 3047 1100 
L 3047 0 
L 2419 0 
L 2419 1100 
L 313 1100 
L 313 1709 
L 2253 4666 
z
" transform="scale(0.015625)"/>
      </defs>
      <use xlink:href="#DejaVuSans-30"/>
      <use xlink:href="#DejaVuSans-2e" x="63.623047"/>
      <use xlink:href="#DejaVuSans-34" x="95.410156"/>
     </g>
    </g>
   </g>
  </g>
  <g id="axes_1">
   <g id="Poly3DCollection_1">
    <path d="M 307.708821 269.347695 
L 307.662392 287.233974 
L 332.129831 294.182926 
L 332.266606 276.24405 
z
" clip-path="url(#pb3bd46d30a)" style="fill: #648fff"/>
    <path d="M 293.613527 281.330884 
L 293.618653 299.308415 
L 307.662392 287.233974 
L 307.708821 269.347695 
z
" clip-path="url(#pb3bd46d30a)" style="fill: #324880"/>
    <path d="M 293.618653 299.308415 
L 318.210457 306.363189 
L 332.129831 294.182926 
L 307.662392 287.233974 
z
" clip-path="url(#pb3bd46d30a)" style="fill: #577ddf"/>
    <path d="M 293.613527 281.330884 
L 307.708821 269.347695 
L 332.266606 276.24405 
L 318.296602 288.33265 
z
" clip-path="url(#pb3bd46d30a)" style="fill: #3f599f"/>
    <path d="M 318.296602 288.33265 
L 332.266606 276.24405 
L 332.129831 294.182926 
L 318.210457 306.363189 
z
" clip-path="url(#pb3bd46d30a)" style="fill: #648fff"/>
    <path d="M 293.613527 281.330884 
L 318.296602 288.33265 
L 318.210457 306.363189 
L 293.618653 299.308415 
z
" clip-path="url(#pb3bd46d30a)" style="fill: #324880"/>
    <path d="M 187.342974 406.120684 
L 211.635283 413.696335 
L 226.459863 400.617052 
L 202.286551 393.155814 
z
" clip-path="url(#pb3bd46d30a)" style="fill: #577ddf"/>
    <path d="M 200.552198 303.928223 
L 202.286551 393.155814 
L 226.459863 400.617052 
L 225.171955 311.130956 
z
" clip-path="url(#pb3bd46d30a)" style="fill: #648fff"/>
    <path d="M 185.313457 316.444664 
L 187.342974 406.120684 
L 202.286551 393.155814 
L 200.552198 303.928223 
z
" clip-path="url(#pb3bd46d30a)" style="fill: #324880"/>
    <path d="M 279.302434 293.497536 
L 279.31016 295.893315 
L 304.107267 303.010046 
L 304.111767 300.60715 
z
" clip-path="url(#pb3bd46d30a)" style="fill: #648fff"/>
    <path d="M 264.770547 305.851898 
L 264.785536 308.260023 
L 279.31016 295.893315 
L 279.302434 293.497536 
z
" clip-path="url(#pb3bd46d30a)" style="fill: #324880"/>
    <path d="M 210.056618 323.75994 
L 225.171955 311.130956 
L 226.459863 400.617052 
L 211.635283 413.696335 
z
" clip-path="url(#pb3bd46d30a)" style="fill: #648fff"/>
    <path d="M 264.785536 308.260023 
L 289.709745 315.487168 
L 304.107267 303.010046 
L 279.31016 295.893315 
z
" clip-path="url(#pb3bd46d30a)" style="fill: #577ddf"/>
    <path d="M 264.770547 305.851898 
L 279.302434 293.497536 
L 304.111767 300.60715 
L 289.707106 313.07187 
z
" clip-path="url(#pb3bd46d30a)" style="fill: #3f599f"/>
    <path d="M 185.313457 316.444664 
L 210.056618 323.75994 
L 211.635283 413.696335 
L 187.342974 406.120684 
z
" clip-path="url(#pb3bd46d30a)" style="fill: #324880"/>
    <path d="M 289.707106 313.07187 
L 304.111767 300.60715 
L 304.107267 303.010046 
L 289.709745 315.487168 
z
" clip-path="url(#pb3bd46d30a)" style="fill: #648fff"/>
    <path d="M 264.770547 305.851898 
L 289.707106 313.07187 
L 289.709745 315.487168 
L 264.785536 308.260023 
z
" clip-path="url(#pb3bd46d30a)" style="fill: #324880"/>
    <path d="M 185.313457 316.444664 
L 200.552198 303.928223 
L 225.171955 311.130956 
L 210.056618 323.75994 
z
" clip-path="url(#pb3bd46d30a)" style="fill: #3f599f"/>
    <path d="M 206.048618 448.347906 
L 231.02678 456.302263 
L 246.064427 442.570234 
L 221.212532 434.738939 
z
" clip-path="url(#pb3bd46d30a)" style="fill: #577ddf"/>
    <path d="M 219.797813 344.085707 
L 221.212532 434.738939 
L 246.064427 442.570234 
L 245.121858 351.652623 
z
" clip-path="url(#pb3bd46d30a)" style="fill: #648fff"/>
    <path d="M 204.329609 357.236083 
L 206.048618 448.347906 
L 221.212532 434.738939 
L 219.797813 344.085707 
z
" clip-path="url(#pb3bd46d30a)" style="fill: #324880"/>
    <path d="M 300.369263 333.13061 
L 300.366559 335.565666 
L 325.875549 343.039629 
L 325.891191 340.597281 
z
" clip-path="url(#pb3bd46d30a)" style="fill: #648fff"/>
    <path d="M 285.641477 346.106481 
L 285.646235 348.554187 
L 300.366559 335.565666 
L 300.369263 333.13061 
z
" clip-path="url(#pb3bd46d30a)" style="fill: #324880"/>
    <path d="M 229.784743 364.92422 
L 245.121858 351.652623 
L 246.064427 442.570234 
L 231.02678 456.302263 
z
" clip-path="url(#pb3bd46d30a)" style="fill: #648fff"/>
    <path d="M 285.646235 348.554187 
L 311.290264 356.147015 
L 325.875549 343.039629 
L 300.366559 335.565666 
z
" clip-path="url(#pb3bd46d30a)" style="fill: #577ddf"/>
    <path d="M 285.641477 346.106481 
L 300.369263 333.13061 
L 325.891191 340.597281 
L 311.298581 353.691962 
z
" clip-path="url(#pb3bd46d30a)" style="fill: #3f599f"/>
    <path d="M 204.329609 357.236083 
L 229.784743 364.92422 
L 231.02678 456.302263 
L 206.048618 448.347906 
z
" clip-path="url(#pb3bd46d30a)" style="fill: #324880"/>
    <path d="M 311.298581 353.691962 
L 325.891191 340.597281 
L 325.875549 343.039629 
L 311.290264 356.147015 
z
" clip-path="url(#pb3bd46d30a)" style="fill: #648fff"/>
    <path d="M 351.64641 348.132204 
L 351.429099 366.606143 
L 377.319653 374.265443 
L 377.638134 355.736318 
z
" clip-path="url(#pb3bd46d30a)" style="fill: #648fff"/>
    <path d="M 285.641477 346.106481 
L 311.298581 353.691962 
L 311.290264 356.147015 
L 285.646235 348.554187 
z
" clip-path="url(#pb3bd46d30a)" style="fill: #324880"/>
    <path d="M 337.192084 361.347334 
L 337.028943 379.917008 
L 351.429099 366.606143 
L 351.64641 348.132204 
z
" clip-path="url(#pb3bd46d30a)" style="fill: #324880"/>
    <path d="M 337.028943 379.917008 
L 363.059848 387.698836 
L 377.319653 374.265443 
L 351.429099 366.606143 
z
" clip-path="url(#pb3bd46d30a)" style="fill: #577ddf"/>
    <path d="M 204.329609 357.236083 
L 219.797813 344.085707 
L 245.121858 351.652623 
L 229.784743 364.92422 
z
" clip-path="url(#pb3bd46d30a)" style="fill: #3f599f"/>
    <path d="M 337.192084 361.347334 
L 351.64641 348.132204 
L 377.638134 355.736318 
L 363.325267 369.073567 
z
" clip-path="url(#pb3bd46d30a)" style="fill: #3f599f"/>
    <path d="M 363.325267 369.073567 
L 377.638134 355.736318 
L 377.319653 374.265443 
L 363.059848 387.698836 
z
" clip-path="url(#pb3bd46d30a)" style="fill: #648fff"/>
    <path d="M 337.192084 361.347334 
L 363.325267 369.073567 
L 363.059848 387.698836 
L 337.028943 379.917008 
z
" clip-path="url(#pb3bd46d30a)" style="fill: #324880"/>
   </g>
   <g id="Poly3DCollection_2">
    <path d="M 133.718776 344.824788 
L 339.858737 407.42225 
L 452.095724 301.821158 
L 254.357831 246.569196 
z
" clip-path="url(#pb3bd46d30a)" style="fill-opacity: 0.25"/>
   </g>
   <g id="Poly3DCollection_3">
    <path d="M 244.891299 267.51001 
L 259.229114 255.733551 
L 283.363909 262.51112 
L 269.14603 274.39027 
z
" clip-path="url(#pb3bd46d30a)" style="fill: #3f599f"/>
    <path d="M 259.229114 255.733551 
L 258.917363 212.969793 
L 283.262022 219.619714 
L 283.363909 262.51112 
z
" clip-path="url(#pb3bd46d30a)" style="fill: #324880"/>
    <path d="M 244.891299 267.51001 
L 244.451293 224.524776 
L 258.917363 212.969793 
L 259.229114 255.733551 
z
" clip-path="url(#pb3bd46d30a)" style="fill: #648fff"/>
    <path d="M 269.14603 274.39027 
L 283.363909 262.51112 
L 283.262022 219.619714 
L 268.917983 231.276343 
z
" clip-path="url(#pb3bd46d30a)" style="fill: #324880"/>
    <path d="M 244.891299 267.51001 
L 269.14603 274.39027 
L 268.917983 231.276343 
L 244.451293 224.524776 
z
" clip-path="url(#pb3bd46d30a)" style="fill: #648fff"/>
    <path d="M 244.451293 224.524776 
L 268.917983 231.276343 
L 283.262022 219.619714 
L 258.917363 212.969793 
z
" clip-path="url(#pb3bd46d30a)" style="fill: #577ddf"/>
    <path d="M 230.335894 279.465188 
L 230.260855 273.798262 
L 254.664472 280.76674 
L 254.711433 286.450489 
z
" clip-path="url(#pb3bd46d30a)" style="fill: #324880"/>
    <path d="M 215.557909 291.603184 
L 215.465017 285.90707 
L 230.260855 273.798262 
L 230.335894 279.465188 
z
" clip-path="url(#pb3bd46d30a)" style="fill: #648fff"/>
    <path d="M 357.040069 283.200971 
L 357.08882 279.365835 
L 382.100757 286.372736 
L 382.032063 290.21926 
z
" clip-path="url(#pb3bd46d30a)" style="fill: #324880"/>
    <path d="M 215.557909 291.603184 
L 230.335894 279.465188 
L 254.711433 286.450489 
L 240.055124 298.695951 
z
" clip-path="url(#pb3bd46d30a)" style="fill: #3f599f"/>
    <path d="M 343.198116 295.396381 
L 343.23628 291.541486 
L 357.08882 279.365835 
L 357.040069 283.200971 
z
" clip-path="url(#pb3bd46d30a)" style="fill: #648fff"/>
    <path d="M 215.465017 285.90707 
L 239.990589 292.982882 
L 254.664472 280.76674 
L 230.260855 273.798262 
z
" clip-path="url(#pb3bd46d30a)" style="fill: #577ddf"/>
    <path d="M 343.198116 295.396381 
L 357.040069 283.200971 
L 382.032063 290.21926 
L 368.320982 302.522901 
z
" clip-path="url(#pb3bd46d30a)" style="fill: #3f599f"/>
    <path d="M 240.055124 298.695951 
L 254.711433 286.450489 
L 254.664472 280.76674 
L 239.990589 292.982882 
z
" clip-path="url(#pb3bd46d30a)" style="fill: #324880"/>
    <path d="M 343.23628 291.541486 
L 368.379299 298.656529 
L 382.100757 286.372736 
L 357.08882 279.365835 
z
" clip-path="url(#pb3bd46d30a)" style="fill: #577ddf"/>
    <path d="M 215.557909 291.603184 
L 240.055124 298.695951 
L 239.990589 292.982882 
L 215.465017 285.90707 
z
" clip-path="url(#pb3bd46d30a)" style="fill: #648fff"/>
    <path d="M 368.320982 302.522901 
L 382.032063 290.21926 
L 382.100757 286.372736 
L 368.379299 298.656529 
z
" clip-path="url(#pb3bd46d30a)" style="fill: #324880"/>
    <path d="M 343.198116 295.396381 
L 368.320982 302.522901 
L 368.379299 298.656529 
L 343.23628 291.541486 
z
" clip-path="url(#pb3bd46d30a)" style="fill: #648fff"/>
    <path d="M 407.245492 297.299733 
L 407.922359 267.955329 
L 433.5173 275.010719 
L 432.683314 304.44322 
z
" clip-path="url(#pb3bd46d30a)" style="fill: #324880"/>
    <path d="M 393.668164 309.713053 
L 407.245492 297.299733 
L 432.683314 304.44322 
L 419.24268 316.967691 
z
" clip-path="url(#pb3bd46d30a)" style="fill: #3f599f"/>
    <path d="M 393.668164 309.713053 
L 394.26778 280.215804 
L 407.922359 267.955329 
L 407.245492 297.299733 
z
" clip-path="url(#pb3bd46d30a)" style="fill: #648fff"/>
    <path d="M 329.142352 307.780168 
L 329.14595 307.268428 
L 354.40345 314.504177 
L 354.397162 315.017443 
z
" clip-path="url(#pb3bd46d30a)" style="fill: #324880"/>
    <path d="M 314.867784 320.356733 
L 314.869893 319.842345 
L 329.14595 307.268428 
L 329.142352 307.780168 
z
" clip-path="url(#pb3bd46d30a)" style="fill: #648fff"/>
    <path d="M 419.24268 316.967691 
L 432.683314 304.44322 
L 433.5173 275.010719 
L 420.00113 287.381646 
z
" clip-path="url(#pb3bd46d30a)" style="fill: #324880"/>
    <path d="M 394.26778 280.215804 
L 420.00113 287.381646 
L 433.5173 275.010719 
L 407.922359 267.955329 
z
" clip-path="url(#pb3bd46d30a)" style="fill: #577ddf"/>
    <path d="M 314.867784 320.356733 
L 329.142352 307.780168 
L 354.397162 315.017443 
L 340.255614 327.707363 
z
" clip-path="url(#pb3bd46d30a)" style="fill: #3f599f"/>
    <path d="M 314.869893 319.842345 
L 340.260442 327.191438 
L 354.40345 314.504177 
L 329.14595 307.268428 
z
" clip-path="url(#pb3bd46d30a)" style="fill: #577ddf"/>
    <path d="M 393.668164 309.713053 
L 419.24268 316.967691 
L 420.00113 287.381646 
L 394.26778 280.215804 
z
" clip-path="url(#pb3bd46d30a)" style="fill: #648fff"/>
    <path d="M 340.255614 327.707363 
L 354.397162 315.017443 
L 354.40345 314.504177 
L 340.260442 327.191438 
z
" clip-path="url(#pb3bd46d30a)" style="fill: #324880"/>
    <path d="M 314.867784 320.356733 
L 340.255614 327.707363 
L 340.260442 327.191438 
L 314.869893 319.842345 
z
" clip-path="url(#pb3bd46d30a)" style="fill: #648fff"/>
    <path d="M 379.879224 322.319841 
L 379.947565 318.421846 
L 405.681067 325.778579 
L 405.591619 329.688246 
z
" clip-path="url(#pb3bd46d30a)" style="fill: #324880"/>
    <path d="M 235.023631 331.141397 
L 250.012716 318.398346 
L 275.077471 325.731267 
L 260.217548 338.589937 
z
" clip-path="url(#pb3bd46d30a)" style="fill: #3f599f"/>
    <path d="M 365.873687 335.124657 
L 365.9312 331.206414 
L 379.947565 318.421846 
L 379.879224 322.319841 
z
" clip-path="url(#pb3bd46d30a)" style="fill: #648fff"/>
    <path d="M 365.873687 335.124657 
L 379.879224 322.319841 
L 405.591619 329.688246 
L 391.72515 342.609525 
z
" clip-path="url(#pb3bd46d30a)" style="fill: #3f599f"/>
    <path d="M 365.9312 331.206414 
L 391.804 338.679521 
L 405.681067 325.778579 
L 379.947565 318.421846 
z
" clip-path="url(#pb3bd46d30a)" style="fill: #577ddf"/>
    <path d="M 391.72515 342.609525 
L 405.591619 329.688246 
L 405.681067 325.778579 
L 391.804 338.679521 
z
" clip-path="url(#pb3bd46d30a)" style="fill: #324880"/>
    <path d="M 250.012716 318.398346 
L 249.171726 227.839261 
L 274.703273 234.893916 
L 275.077471 325.731267 
z
" clip-path="url(#pb3bd46d30a)" style="fill: #324880"/>
    <path d="M 154.114828 342.069864 
L 169.836214 329.157 
L 194.703637 336.587476 
L 179.107364 349.618284 
z
" clip-path="url(#pb3bd46d30a)" style="fill: #3f599f"/>
    <path d="M 365.873687 335.124657 
L 391.72515 342.609525 
L 391.804 338.679521 
L 365.9312 331.206414 
z
" clip-path="url(#pb3bd46d30a)" style="fill: #648fff"/>
    <path d="M 235.023631 331.141397 
L 233.89352 240.099507 
L 249.171726 227.839261 
L 250.012716 318.398346 
z
" clip-path="url(#pb3bd46d30a)" style="fill: #648fff"/>
    <path d="M 260.217548 338.589937 
L 275.077471 325.731267 
L 274.703273 234.893916 
L 259.559079 247.267503 
z
" clip-path="url(#pb3bd46d30a)" style="fill: #324880"/>
    <path d="M 235.023631 331.141397 
L 260.217548 338.589937 
L 259.559079 247.267503 
L 233.89352 240.099507 
z
" clip-path="url(#pb3bd46d30a)" style="fill: #648fff"/>
    <path d="M 169.836214 329.157 
L 166.695621 207.86499 
L 192.175277 214.918404 
L 194.703637 336.587476 
z
" clip-path="url(#pb3bd46d30a)" style="fill: #324880"/>
    <path d="M 154.114828 342.069864 
L 150.551185 220.123617 
L 166.695621 207.86499 
L 169.836214 329.157 
z
" clip-path="url(#pb3bd46d30a)" style="fill: #648fff"/>
    <path d="M 233.89352 240.099507 
L 259.559079 247.267503 
L 274.703273 234.893916 
L 249.171726 227.839261 
z
" clip-path="url(#pb3bd46d30a)" style="fill: #577ddf"/>
    <path d="M 179.107364 349.618284 
L 194.703637 336.587476 
L 192.175277 214.918404 
L 176.162124 227.291839 
z
" clip-path="url(#pb3bd46d30a)" style="fill: #324880"/>
    <path d="M 270.678944 359.289174 
L 270.649296 353.434239 
L 296.4741 361.123728 
L 296.472304 366.996324 
z
" clip-path="url(#pb3bd46d30a)" style="fill: #324880"/>
    <path d="M 154.114828 342.069864 
L 179.107364 349.618284 
L 176.162124 227.291839 
L 150.551185 220.123617 
z
" clip-path="url(#pb3bd46d30a)" style="fill: #648fff"/>
    <path d="M 255.476008 372.683674 
L 255.427443 366.798102 
L 270.649296 353.434239 
L 270.678944 359.289174 
z
" clip-path="url(#pb3bd46d30a)" style="fill: #648fff"/>
    <path d="M 255.476008 372.683674 
L 270.678944 359.289174 
L 296.472304 366.996324 
L 281.406703 380.515444 
z
" clip-path="url(#pb3bd46d30a)" style="fill: #3f599f"/>
    <path d="M 255.427443 366.798102 
L 281.389918 374.612078 
L 296.4741 361.123728 
L 270.649296 353.434239 
z
" clip-path="url(#pb3bd46d30a)" style="fill: #577ddf"/>
    <path d="M 281.406703 380.515444 
L 296.472304 366.996324 
L 296.4741 361.123728 
L 281.389918 374.612078 
z
" clip-path="url(#pb3bd46d30a)" style="fill: #324880"/>
    <path d="M 255.476008 372.683674 
L 281.406703 380.515444 
L 281.389918 374.612078 
L 255.427443 366.798102 
z
" clip-path="url(#pb3bd46d30a)" style="fill: #648fff"/>
    <path d="M 150.551185 220.123617 
L 176.162124 227.291839 
L 192.175277 214.918404 
L 166.695621 207.86499 
z
" clip-path="url(#pb3bd46d30a)" style="fill: #577ddf"/>
    <path d="M 307.580192 388.420544 
L 322.50523 374.775057 
L 348.781074 382.626374 
L 333.999901 396.400008 
z
" clip-path="url(#pb3bd46d30a)" style="fill: #3f599f"/>
    <path d="M 322.50523 374.775057 
L 322.763273 329.842389 
L 349.288051 337.556112 
L 348.781074 382.626374 
z
" clip-path="url(#pb3bd46d30a)" style="fill: #324880"/>
    <path d="M 307.580192 388.420544 
L 307.699153 343.249171 
L 322.763273 329.842389 
L 322.50523 374.775057 
z
" clip-path="url(#pb3bd46d30a)" style="fill: #648fff"/>
    <path d="M 333.999901 396.400008 
L 348.781074 382.626374 
L 349.288051 337.556112 
L 334.37055 351.089993 
z
" clip-path="url(#pb3bd46d30a)" style="fill: #324880"/>
    <path d="M 307.580192 388.420544 
L 333.999901 396.400008 
L 334.37055 351.089993 
L 307.699153 343.249171 
z
" clip-path="url(#pb3bd46d30a)" style="fill: #648fff"/>
    <path d="M 307.699153 343.249171 
L 334.37055 351.089993 
L 349.288051 337.556112 
L 322.763273 329.842389 
z
" clip-path="url(#pb3bd46d30a)" style="fill: #577ddf"/>
   </g>
   <g id="text_17">
    <!-- Real Amplitude (ρ) -->
    <g transform="translate(190.023516 51.6) scale(0.21 -0.21)">
     <defs>
      <path id="DejaVuSans-52" d="M 2841 2188 
Q 3044 2119 3236 1894 
Q 3428 1669 3622 1275 
L 4263 0 
L 3584 0 
L 2988 1197 
Q 2756 1666 2539 1819 
Q 2322 1972 1947 1972 
L 1259 1972 
L 1259 0 
L 628 0 
L 628 4666 
L 2053 4666 
Q 2853 4666 3247 4331 
Q 3641 3997 3641 3322 
Q 3641 2881 3436 2590 
Q 3231 2300 2841 2188 
z
M 1259 4147 
L 1259 2491 
L 2053 2491 
Q 2509 2491 2742 2702 
Q 2975 2913 2975 3322 
Q 2975 3731 2742 3939 
Q 2509 4147 2053 4147 
L 1259 4147 
z
" transform="scale(0.015625)"/>
      <path id="DejaVuSans-65" d="M 3597 1894 
L 3597 1613 
L 953 1613 
Q 991 1019 1311 708 
Q 1631 397 2203 397 
Q 2534 397 2845 478 
Q 3156 559 3463 722 
L 3463 178 
Q 3153 47 2828 -22 
Q 2503 -91 2169 -91 
Q 1331 -91 842 396 
Q 353 884 353 1716 
Q 353 2575 817 3079 
Q 1281 3584 2069 3584 
Q 2775 3584 3186 3129 
Q 3597 2675 3597 1894 
z
M 3022 2063 
Q 3016 2534 2758 2815 
Q 2500 3097 2075 3097 
Q 1594 3097 1305 2825 
Q 1016 2553 972 2059 
L 3022 2063 
z
" transform="scale(0.015625)"/>
      <path id="DejaVuSans-61" d="M 2194 1759 
Q 1497 1759 1228 1600 
Q 959 1441 959 1056 
Q 959 750 1161 570 
Q 1363 391 1709 391 
Q 2188 391 2477 730 
Q 2766 1069 2766 1631 
L 2766 1759 
L 2194 1759 
z
M 3341 1997 
L 3341 0 
L 2766 0 
L 2766 531 
Q 2569 213 2275 61 
Q 1981 -91 1556 -91 
Q 1019 -91 701 211 
Q 384 513 384 1019 
Q 384 1609 779 1909 
Q 1175 2209 1959 2209 
L 2766 2209 
L 2766 2266 
Q 2766 2663 2505 2880 
Q 2244 3097 1772 3097 
Q 1472 3097 1187 3025 
Q 903 2953 641 2809 
L 641 3341 
Q 956 3463 1253 3523 
Q 1550 3584 1831 3584 
Q 2591 3584 2966 3190 
Q 3341 2797 3341 1997 
z
" transform="scale(0.015625)"/>
      <path id="DejaVuSans-6c" d="M 603 4863 
L 1178 4863 
L 1178 0 
L 603 0 
L 603 4863 
z
" transform="scale(0.015625)"/>
      <path id="DejaVuSans-20" transform="scale(0.015625)"/>
      <path id="DejaVuSans-41" d="M 2188 4044 
L 1331 1722 
L 3047 1722 
L 2188 4044 
z
M 1831 4666 
L 2547 4666 
L 4325 0 
L 3669 0 
L 3244 1197 
L 1141 1197 
L 716 0 
L 50 0 
L 1831 4666 
z
" transform="scale(0.015625)"/>
      <path id="DejaVuSans-6d" d="M 3328 2828 
Q 3544 3216 3844 3400 
Q 4144 3584 4550 3584 
Q 5097 3584 5394 3201 
Q 5691 2819 5691 2113 
L 5691 0 
L 5113 0 
L 5113 2094 
Q 5113 2597 4934 2840 
Q 4756 3084 4391 3084 
Q 3944 3084 3684 2787 
Q 3425 2491 3425 1978 
L 3425 0 
L 2847 0 
L 2847 2094 
Q 2847 2600 2669 2842 
Q 2491 3084 2119 3084 
Q 1678 3084 1418 2786 
Q 1159 2488 1159 1978 
L 1159 0 
L 581 0 
L 581 3500 
L 1159 3500 
L 1159 2956 
Q 1356 3278 1631 3431 
Q 1906 3584 2284 3584 
Q 2666 3584 2933 3390 
Q 3200 3197 3328 2828 
z
" transform="scale(0.015625)"/>
      <path id="DejaVuSans-70" d="M 1159 525 
L 1159 -1331 
L 581 -1331 
L 581 3500 
L 1159 3500 
L 1159 2969 
Q 1341 3281 1617 3432 
Q 1894 3584 2278 3584 
Q 2916 3584 3314 3078 
Q 3713 2572 3713 1747 
Q 3713 922 3314 415 
Q 2916 -91 2278 -91 
Q 1894 -91 1617 61 
Q 1341 213 1159 525 
z
M 3116 1747 
Q 3116 2381 2855 2742 
Q 2594 3103 2138 3103 
Q 1681 3103 1420 2742 
Q 1159 2381 1159 1747 
Q 1159 1113 1420 752 
Q 1681 391 2138 391 
Q 2594 391 2855 752 
Q 3116 1113 3116 1747 
z
" transform="scale(0.015625)"/>
      <path id="DejaVuSans-69" d="M 603 3500 
L 1178 3500 
L 1178 0 
L 603 0 
L 603 3500 
z
M 603 4863 
L 1178 4863 
L 1178 4134 
L 603 4134 
L 603 4863 
z
" transform="scale(0.015625)"/>
      <path id="DejaVuSans-74" d="M 1172 4494 
L 1172 3500 
L 2356 3500 
L 2356 3053 
L 1172 3053 
L 1172 1153 
Q 1172 725 1289 603 
Q 1406 481 1766 481 
L 2356 481 
L 2356 0 
L 1766 0 
Q 1100 0 847 248 
Q 594 497 594 1153 
L 594 3053 
L 172 3053 
L 172 3500 
L 594 3500 
L 594 4494 
L 1172 4494 
z
" transform="scale(0.015625)"/>
      <path id="DejaVuSans-75" d="M 544 1381 
L 544 3500 
L 1119 3500 
L 1119 1403 
Q 1119 906 1312 657 
Q 1506 409 1894 409 
Q 2359 409 2629 706 
Q 2900 1003 2900 1516 
L 2900 3500 
L 3475 3500 
L 3475 0 
L 2900 0 
L 2900 538 
Q 2691 219 2414 64 
Q 2138 -91 1772 -91 
Q 1169 -91 856 284 
Q 544 659 544 1381 
z
M 1991 3584 
L 1991 3584 
z
" transform="scale(0.015625)"/>
      <path id="DejaVuSans-64" d="M 2906 2969 
L 2906 4863 
L 3481 4863 
L 3481 0 
L 2906 0 
L 2906 525 
Q 2725 213 2448 61 
Q 2172 -91 1784 -91 
Q 1150 -91 751 415 
Q 353 922 353 1747 
Q 353 2572 751 3078 
Q 1150 3584 1784 3584 
Q 2172 3584 2448 3432 
Q 2725 3281 2906 2969 
z
M 947 1747 
Q 947 1113 1208 752 
Q 1469 391 1925 391 
Q 2381 391 2643 752 
Q 2906 1113 2906 1747 
Q 2906 2381 2643 2742 
Q 2381 3103 1925 3103 
Q 1469 3103 1208 2742 
Q 947 2381 947 1747 
z
" transform="scale(0.015625)"/>
      <path id="DejaVuSans-28" d="M 1984 4856 
Q 1566 4138 1362 3434 
Q 1159 2731 1159 2009 
Q 1159 1288 1364 580 
Q 1569 -128 1984 -844 
L 1484 -844 
Q 1016 -109 783 600 
Q 550 1309 550 2009 
Q 550 2706 781 3412 
Q 1013 4119 1484 4856 
L 1984 4856 
z
" transform="scale(0.015625)"/>
      <path id="DejaVuSans-3c1" d="M 863 2875 
Q 1053 3194 1525 3475 
Q 1709 3584 2278 3584 
Q 2916 3584 3314 3078 
Q 3713 2572 3713 1747 
Q 3713 922 3314 415 
Q 2916 -91 2278 -91 
Q 1894 -91 1617 61 
Q 1341 213 1159 525 
L 1159 -1331 
L 581 -1331 
L 581 1716 
Q 581 2438 863 2875 
z
M 3116 1747 
Q 3116 2381 2855 2742 
Q 2594 3103 2138 3103 
Q 1681 3103 1420 2742 
Q 1159 2381 1159 1747 
Q 1159 1113 1420 752 
Q 1681 391 2138 391 
Q 2594 391 2855 752 
Q 3116 1113 3116 1747 
z
" transform="scale(0.015625)"/>
      <path id="DejaVuSans-29" d="M 513 4856 
L 1013 4856 
Q 1481 4119 1714 3412 
Q 1947 2706 1947 2009 
Q 1947 1309 1714 600 
Q 1481 -109 1013 -844 
L 513 -844 
Q 928 -128 1133 580 
Q 1338 1288 1338 2009 
Q 1338 2731 1133 3434 
Q 928 4138 513 4856 
z
" transform="scale(0.015625)"/>
     </defs>
     <use xlink:href="#DejaVuSans-52"/>
     <use xlink:href="#DejaVuSans-65" x="64.982422"/>
     <use xlink:href="#DejaVuSans-61" x="126.505859"/>
     <use xlink:href="#DejaVuSans-6c" x="187.785156"/>
     <use xlink:href="#DejaVuSans-20" x="215.568359"/>
     <use xlink:href="#DejaVuSans-41" x="247.355469"/>
     <use xlink:href="#DejaVuSans-6d" x="315.763672"/>
     <use xlink:href="#DejaVuSans-70" x="413.175781"/>
     <use xlink:href="#DejaVuSans-6c" x="476.652344"/>
     <use xlink:href="#DejaVuSans-69" x="504.435547"/>
     <use xlink:href="#DejaVuSans-74" x="532.21875"/>
     <use xlink:href="#DejaVuSans-75" x="571.427734"/>
     <use xlink:href="#DejaVuSans-64" x="634.806641"/>
     <use xlink:href="#DejaVuSans-65" x="698.283203"/>
     <use xlink:href="#DejaVuSans-20" x="759.806641"/>
     <use xlink:href="#DejaVuSans-28" x="791.59375"/>
     <use xlink:href="#DejaVuSans-3c1" x="830.607422"/>
     <use xlink:href="#DejaVuSans-29" x="894.083984"/>
    </g>
   </g>
  </g>
  <g id="patch_6">
   <path d="M 604.8 576 
L 1123.2 576 
L 1123.2 57.6 
L 604.8 57.6 
z
" style="fill: #ffffff"/>
  </g>
  <g id="pane3d_4">
   <g id="patch_7">
    <path d="M 706.07018 436.456468 
L 829.494133 330.550231 
L 827.743197 126.70673 
L 698.643358 223.613571 
" style="fill: #f2f2f2; opacity: 0.5; stroke: #f2f2f2; stroke-linejoin: miter"/>
   </g>
  </g>
  <g id="pane3d_5">
   <g id="patch_8">
    <path d="M 829.494133 330.550231 
L 1031.554898 390.069341 
L 1038.583588 181.103065 
L 827.743197 126.70673 
" style="fill: #e6e6e6; opacity: 0.5; stroke: #e6e6e6; stroke-linejoin: miter"/>
   </g>
  </g>
  <g id="pane3d_6">
   <g id="patch_9">
    <path d="M 706.07018 436.456468 
L 916.912731 504.076731 
L 1031.554898 390.069341 
L 829.494133 330.550231 
" style="fill: #ececec; opacity: 0.5; stroke: #ececec; stroke-linejoin: miter"/>
   </g>
  </g>
  <g id="grid3d_4">
   <g id="Line3DCollection_4">
    <path d="M 734.635886 445.617904 
L 856.925726 338.630493 
L 856.328796 134.081748 
" style="fill: none; stroke: #b0b0b0; stroke-width: 0.8"/>
    <path d="M 784.310046 461.549127 
L 904.58611 352.669358 
L 906.022474 146.902603 
" style="fill: none; stroke: #b0b0b0; stroke-width: 0.8"/>
    <path d="M 834.89502 477.772462 
L 953.066152 366.949661 
L 956.607663 159.953465 
" style="fill: none; stroke: #b0b0b0; stroke-width: 0.8"/>
    <path d="M 886.41609 494.296016 
L 1002.38718 381.477685 
L 1008.108569 173.24058 
" style="fill: none; stroke: #b0b0b0; stroke-width: 0.8"/>
   </g>
  </g>
  <g id="grid3d_5">
   <g id="Line3DCollection_5">
    <path d="M 717.757365 209.265931 
L 724.301379 420.812846 
L 933.880707 487.202708 
" style="fill: none; stroke: #b0b0b0; stroke-width: 0.8"/>
    <path d="M 749.704273 185.285468 
L 754.805664 394.638072 
L 962.24502 458.995448 
" style="fill: none; stroke: #b0b0b0; stroke-width: 0.8"/>
    <path d="M 780.65707 162.051218 
L 784.400054 369.24405 
L 989.731787 431.660877 
" style="fill: none; stroke: #b0b0b0; stroke-width: 0.8"/>
    <path d="M 810.661448 139.528886 
L 813.124663 344.596362 
L 1016.38111 405.159111 
" style="fill: none; stroke: #b0b0b0; stroke-width: 0.8"/>
   </g>
  </g>
  <g id="grid3d_6">
   <g id="Line3DCollection_6">
    <path d="M 1031.571977 389.561561 
L 829.489871 330.054141 
L 706.052155 435.939885 
" style="fill: none; stroke: #b0b0b0; stroke-width: 0.8"/>
    <path d="M 1032.54052 360.766334 
L 829.248278 301.927879 
L 705.0298 406.640542 
" style="fill: none; stroke: #b0b0b0; stroke-width: 0.8"/>
    <path d="M 1033.520818 331.621612 
L 829.003856 273.472348 
L 703.994693 376.975749 
" style="fill: none; stroke: #b0b0b0; stroke-width: 0.8"/>
    <path d="M 1034.513087 302.120992 
L 828.756556 244.681731 
L 702.946594 346.938625 
" style="fill: none; stroke: #b0b0b0; stroke-width: 0.8"/>
    <path d="M 1035.517547 272.257916 
L 828.506326 215.550075 
L 701.885257 316.522115 
" style="fill: none; stroke: #b0b0b0; stroke-width: 0.8"/>
    <path d="M 1036.534424 242.025662 
L 828.253115 186.071284 
L 700.81043 285.718987 
" style="fill: none; stroke: #b0b0b0; stroke-width: 0.8"/>
    <path d="M 1037.563951 211.417342 
L 827.996868 156.239115 
L 699.721853 254.521822 
" style="fill: none; stroke: #b0b0b0; stroke-width: 0.8"/>
   </g>
  </g>
  <g id="axis3d_4">
   <g id="line2d_20">
    <path d="M 706.07018 436.456468 
L 916.912731 504.076731 
" style="fill: none; stroke: #000000; stroke-width: 0.8; stroke-linecap: square"/>
   </g>
   <g id="xtick_17">
    <g id="line2d_21">
     <path d="M 735.677227 444.706868 
L 732.549953 447.442819 
" style="fill: none; stroke: #000000; stroke-width: 0.8; stroke-linecap: square"/>
    </g>
    <g id="text_18">
     <!-- 00 -->
     <g transform="translate(707.351686 489.365693) rotate(-45) scale(0.21 -0.21)">
      <use xlink:href="#DejaVuSans-30"/>
      <use xlink:href="#DejaVuSans-30" x="63.623047"/>
     </g>
    </g>
   </g>
   <g id="xtick_18">
    <g id="line2d_22">
     <path d="M 785.334802 460.621468 
L 782.257306 463.407368 
" style="fill: none; stroke: #000000; stroke-width: 0.8; stroke-linecap: square"/>
    </g>
    <g id="text_19">
     <!-- 01 -->
     <g transform="translate(757.023931 505.435143) rotate(-45) scale(0.21 -0.21)">
      <use xlink:href="#DejaVuSans-30"/>
      <use xlink:href="#DejaVuSans-31" x="63.623047"/>
     </g>
    </g>
   </g>
   <g id="xtick_19">
    <g id="line2d_23">
     <path d="M 835.902405 476.82772 
L 832.877048 479.664949 
" style="fill: none; stroke: #000000; stroke-width: 0.8; stroke-linecap: square"/>
    </g>
    <g id="text_20">
     <!-- 10 -->
     <g transform="translate(807.60781 521.799516) rotate(-45) scale(0.21 -0.21)">
      <use xlink:href="#DejaVuSans-31"/>
      <use xlink:href="#DejaVuSans-30" x="63.623047"/>
     </g>
    </g>
   </g>
   <g id="xtick_20">
    <g id="line2d_24">
     <path d="M 887.405283 493.333715 
L 884.434531 496.223705 
" style="fill: none; stroke: #000000; stroke-width: 0.8; stroke-linecap: square"/>
    </g>
    <g id="text_21">
     <!-- 11 -->
     <g transform="translate(859.128654 538.467006) rotate(-45) scale(0.21 -0.21)">
      <use xlink:href="#DejaVuSans-31"/>
      <use xlink:href="#DejaVuSans-31" x="63.623047"/>
     </g>
    </g>
   </g>
  </g>
  <g id="axis3d_5">
   <g id="line2d_25">
    <path d="M 1031.554898 390.069341 
L 916.912731 504.076731 
" style="fill: none; stroke: #000000; stroke-width: 0.8; stroke-linecap: square"/>
   </g>
   <g id="xtick_21">
    <g id="line2d_26">
     <path d="M 932.140222 486.651363 
L 937.364886 488.306415 
" style="fill: none; stroke: #000000; stroke-width: 0.8; stroke-linecap: square"/>
    </g>
    <g id="text_22">
     <!-- 00 -->
     <g transform="translate(944.70027 499.207917) rotate(-337.5) scale(0.21 -0.21)">
      <use xlink:href="#DejaVuSans-30"/>
      <use xlink:href="#DejaVuSans-30" x="63.623047"/>
     </g>
    </g>
   </g>
   <g id="xtick_22">
    <g id="line2d_27">
     <path d="M 960.5233 458.46129 
L 965.691587 460.064734 
" style="fill: none; stroke: #000000; stroke-width: 0.8; stroke-linecap: square"/>
    </g>
    <g id="text_23">
     <!-- 01 -->
     <g transform="translate(972.913817 470.822876) rotate(-337.5) scale(0.21 -0.21)">
      <use xlink:href="#DejaVuSans-30"/>
      <use xlink:href="#DejaVuSans-31" x="63.623047"/>
     </g>
    </g>
   </g>
   <g id="xtick_23">
    <g id="line2d_28">
     <path d="M 988.028511 431.143114 
L 993.141381 432.697327 
" style="fill: none; stroke: #000000; stroke-width: 0.8; stroke-linecap: square"/>
    </g>
    <g id="text_24">
     <!-- 10 -->
     <g transform="translate(1000.254695 443.315808) rotate(-337.5) scale(0.21 -0.21)">
      <use xlink:href="#DejaVuSans-31"/>
      <use xlink:href="#DejaVuSans-30" x="63.623047"/>
     </g>
    </g>
   </g>
   <g id="xtick_24">
    <g id="line2d_29">
     <path d="M 1014.695964 404.657001 
L 1019.754368 406.164215 
" style="fill: none; stroke: #000000; stroke-width: 0.8; stroke-linecap: square"/>
    </g>
    <g id="text_25">
     <!-- 11 -->
     <g transform="translate(1026.762776 416.646599) rotate(-337.5) scale(0.21 -0.21)">
      <use xlink:href="#DejaVuSans-31"/>
      <use xlink:href="#DejaVuSans-31" x="63.623047"/>
     </g>
    </g>
   </g>
  </g>
  <g id="axis3d_6">
   <g id="line2d_30">
    <path d="M 1031.554898 390.069341 
L 1038.583588 181.103065 
" style="fill: none; stroke: #000000; stroke-width: 0.8; stroke-linecap: square"/>
   </g>
   <g id="xtick_25">
    <g id="line2d_31">
     <path d="M 1029.897078 389.068351 
L 1034.924698 390.548842 
" style="fill: none; stroke: #000000; stroke-width: 0.8; stroke-linecap: square"/>
    </g>
    <g id="text_26">
     <!-- −0.2 -->
     <g transform="translate(1045.05273 383.273552) scale(0.21 -0.21)">
      <use xlink:href="#DejaVuSans-2212"/>
      <use xlink:href="#DejaVuSans-30" x="83.789062"/>
      <use xlink:href="#DejaVuSans-2e" x="147.412109"/>
      <use xlink:href="#DejaVuSans-32" x="179.199219"/>
     </g>
    </g>
   </g>
   <g id="xtick_26">
    <g id="line2d_32">
     <path d="M 1030.855238 360.278566 
L 1035.914042 361.742726 
" style="fill: none; stroke: #000000; stroke-width: 0.8; stroke-linecap: square"/>
    </g>
    <g id="text_27">
     <!-- −0.1 -->
     <g transform="translate(1046.101394 354.499528) scale(0.21 -0.21)">
      <use xlink:href="#DejaVuSans-2212"/>
      <use xlink:href="#DejaVuSans-30" x="83.789062"/>
      <use xlink:href="#DejaVuSans-2e" x="147.412109"/>
      <use xlink:href="#DejaVuSans-31" x="179.199219"/>
     </g>
    </g>
   </g>
   <g id="xtick_27">
    <g id="line2d_33">
     <path d="M 1031.825023 331.139455 
L 1036.915402 332.586776 
" style="fill: none; stroke: #000000; stroke-width: 0.8; stroke-linecap: square"/>
    </g>
    <g id="text_28">
     <!-- 0.0 -->
     <g transform="translate(1047.162771 325.376666) scale(0.21 -0.21)">
      <use xlink:href="#DejaVuSans-30"/>
      <use xlink:href="#DejaVuSans-2e" x="63.623047"/>
      <use xlink:href="#DejaVuSans-30" x="95.410156"/>
     </g>
    </g>
   </g>
   <g id="xtick_28">
    <g id="line2d_34">
     <path d="M 1032.806647 301.64462 
L 1037.928997 303.074582 
" style="fill: none; stroke: #000000; stroke-width: 0.8; stroke-linecap: square"/>
    </g>
    <g id="text_29">
     <!-- 0.1 -->
     <g transform="translate(1048.237094 295.898583) scale(0.21 -0.21)">
      <use xlink:href="#DejaVuSans-30"/>
      <use xlink:href="#DejaVuSans-2e" x="63.623047"/>
      <use xlink:href="#DejaVuSans-31" x="95.410156"/>
     </g>
    </g>
   </g>
   <g id="xtick_29">
    <g id="line2d_35">
     <path d="M 1033.800329 271.787508 
L 1038.955053 273.199572 
" style="fill: none; stroke: #000000; stroke-width: 0.8; stroke-linecap: square"/>
    </g>
    <g id="text_30">
     <!-- 0.2 -->
     <g transform="translate(1049.324601 266.05874) scale(0.21 -0.21)">
      <use xlink:href="#DejaVuSans-30"/>
      <use xlink:href="#DejaVuSans-2e" x="63.623047"/>
      <use xlink:href="#DejaVuSans-32" x="95.410156"/>
     </g>
    </g>
   </g>
   <g id="xtick_30">
    <g id="line2d_36">
     <path d="M 1034.80629 241.561402 
L 1039.993801 242.955017 
" style="fill: none; stroke: #000000; stroke-width: 0.8; stroke-linecap: square"/>
    </g>
    <g id="text_31">
     <!-- 0.3 -->
     <g transform="translate(1050.425537 235.850437) scale(0.21 -0.21)">
      <use xlink:href="#DejaVuSans-30"/>
      <use xlink:href="#DejaVuSans-2e" x="63.623047"/>
      <use xlink:href="#DejaVuSans-33" x="95.410156"/>
     </g>
    </g>
   </g>
   <g id="xtick_31">
    <g id="line2d_37">
     <path d="M 1035.824762 210.95942 
L 1041.045477 212.334015 
" style="fill: none; stroke: #000000; stroke-width: 0.8; stroke-linecap: square"/>
    </g>
    <g id="text_32">
     <!-- 0.4 -->
     <g transform="translate(1051.540152 205.266808) scale(0.21 -0.21)">
      <use xlink:href="#DejaVuSans-30"/>
      <use xlink:href="#DejaVuSans-2e" x="63.623047"/>
      <use xlink:href="#DejaVuSans-34" x="95.410156"/>
     </g>
    </g>
   </g>
  </g>
  <g id="axes_2">
   <g id="Poly3DCollection_4">
    <path d="M 821.691865 345.719343 
L 845.560906 352.825272 
L 859.549299 340.555869 
L 835.796431 333.554319 
z
" clip-path="url(#pf3b4cfb4a8)" style="fill: #577ddf"/>
    <path d="M 835.448494 285.826721 
L 835.796431 333.554319 
L 859.549299 340.555869 
L 859.435602 292.692176 
z
" clip-path="url(#pf3b4cfb4a8)" style="fill: #648fff"/>
    <path d="M 821.200899 297.755652 
L 821.691865 345.719343 
L 835.796431 333.554319 
L 835.448494 285.826721 
z
" clip-path="url(#pf3b4cfb4a8)" style="fill: #324880"/>
    <path d="M 845.306481 304.724482 
L 859.435602 292.692176 
L 859.549299 340.555869 
L 845.560906 352.825272 
z
" clip-path="url(#pf3b4cfb4a8)" style="fill: #648fff"/>
    <path d="M 821.200899 297.755652 
L 845.306481 304.724482 
L 845.560906 352.825272 
L 821.691865 345.719343 
z
" clip-path="url(#pf3b4cfb4a8)" style="fill: #324880"/>
    <path d="M 821.200899 297.755652 
L 835.448494 285.826721 
L 859.435602 292.692176 
L 845.306481 304.724482 
z
" clip-path="url(#pf3b4cfb4a8)" style="fill: #3f599f"/>
    <path d="M 806.738429 309.86449 
L 806.823516 316.290183 
L 831.016585 323.383394 
L 830.96334 316.939048 
z
" clip-path="url(#pf3b4cfb4a8)" style="fill: #648fff"/>
    <path d="M 792.056187 322.157333 
L 792.161505 328.615386 
L 806.823516 316.290183 
L 806.738429 309.86449 
z
" clip-path="url(#pf3b4cfb4a8)" style="fill: #324880"/>
    <path d="M 932.653031 313.648056 
L 932.653031 313.648056 
L 957.486719 320.755814 
L 957.486719 320.755814 
z
" clip-path="url(#pf3b4cfb4a8)" style="fill: #648fff"/>
    <path d="M 792.161505 328.615386 
L 816.474441 335.816889 
L 831.016585 323.383394 
L 806.823516 316.290183 
z
" clip-path="url(#pf3b4cfb4a8)" style="fill: #577ddf"/>
    <path d="M 792.056187 322.157333 
L 806.738429 309.86449 
L 830.96334 316.939048 
L 816.401279 329.340044 
z
" clip-path="url(#pf3b4cfb4a8)" style="fill: #3f599f"/>
    <path d="M 918.895149 325.998681 
L 918.895149 325.998681 
L 932.653031 313.648056 
L 932.653031 313.648056 
z
" clip-path="url(#pf3b4cfb4a8)" style="fill: #324880"/>
    <path d="M 816.401279 329.340044 
L 830.96334 316.939048 
L 831.016585 323.383394 
L 816.474441 335.816889 
z
" clip-path="url(#pf3b4cfb4a8)" style="fill: #648fff"/>
    <path d="M 918.895149 325.998681 
L 932.653031 313.648056 
L 957.486719 320.755814 
L 943.858043 333.215357 
z
" clip-path="url(#pf3b4cfb4a8)" style="fill: #3f599f"/>
    <path d="M 918.895149 325.998681 
L 943.858043 333.215357 
L 957.486719 320.755814 
L 932.653031 313.648056 
z
" clip-path="url(#pf3b4cfb4a8)" style="fill: #577ddf"/>
    <path d="M 792.056187 322.157333 
L 816.401279 329.340044 
L 816.474441 335.816889 
L 792.161505 328.615386 
z
" clip-path="url(#pf3b4cfb4a8)" style="fill: #324880"/>
    <path d="M 763.29349 403.934219 
L 787.596796 411.503699 
L 802.428459 398.435089 
L 778.244258 390.979979 
z
" clip-path="url(#pf3b4cfb4a8)" style="fill: #577ddf"/>
    <path d="M 943.858043 333.215357 
L 957.486719 320.755814 
L 957.486719 320.755814 
L 943.858043 333.215357 
z
" clip-path="url(#pf3b4cfb4a8)" style="fill: #648fff"/>
    <path d="M 777.149124 334.63841 
L 778.244258 390.979979 
L 802.428459 398.435089 
L 801.615248 341.931772 
z
" clip-path="url(#pf3b4cfb4a8)" style="fill: #648fff"/>
    <path d="M 918.895149 325.998681 
L 943.858043 333.215357 
L 943.858043 333.215357 
L 918.895149 325.998681 
z
" clip-path="url(#pf3b4cfb4a8)" style="fill: #324880"/>
    <path d="M 762.012037 347.312076 
L 763.29349 403.934219 
L 778.244258 390.979979 
L 777.149124 334.63841 
z
" clip-path="url(#pf3b4cfb4a8)" style="fill: #324880"/>
    <path d="M 982.539055 327.926152 
L 982.539055 327.926152 
L 1007.812939 335.159901 
L 1007.812939 335.159901 
z
" clip-path="url(#pf3b4cfb4a8)" style="fill: #648fff"/>
    <path d="M 969.04241 340.49606 
L 969.04241 340.49606 
L 982.539055 327.926152 
L 982.539055 327.926152 
z
" clip-path="url(#pf3b4cfb4a8)" style="fill: #324880"/>
    <path d="M 969.04241 340.49606 
L 994.451213 347.841646 
L 1007.812939 335.159901 
L 982.539055 327.926152 
z
" clip-path="url(#pf3b4cfb4a8)" style="fill: #577ddf"/>
    <path d="M 969.04241 340.49606 
L 982.539055 327.926152 
L 1007.812939 335.159901 
L 994.451213 347.841646 
z
" clip-path="url(#pf3b4cfb4a8)" style="fill: #3f599f"/>
    <path d="M 786.60004 354.718667 
L 801.615248 341.931772 
L 802.428459 398.435089 
L 787.596796 411.503699 
z
" clip-path="url(#pf3b4cfb4a8)" style="fill: #648fff"/>
    <path d="M 762.012037 347.312076 
L 786.60004 354.718667 
L 787.596796 411.503699 
L 763.29349 403.934219 
z
" clip-path="url(#pf3b4cfb4a8)" style="fill: #324880"/>
    <path d="M 994.451213 347.841646 
L 1007.812939 335.159901 
L 1007.812939 335.159901 
L 994.451213 347.841646 
z
" clip-path="url(#pf3b4cfb4a8)" style="fill: #648fff"/>
    <path d="M 904.926101 338.538874 
L 904.926101 338.538874 
L 930.019252 345.86699 
L 930.019252 345.86699 
z
" clip-path="url(#pf3b4cfb4a8)" style="fill: #648fff"/>
    <path d="M 969.04241 340.49606 
L 994.451213 347.841646 
L 994.451213 347.841646 
L 969.04241 340.49606 
z
" clip-path="url(#pf3b4cfb4a8)" style="fill: #324880"/>
    <path d="M 762.012037 347.312076 
L 777.149124 334.63841 
L 801.615248 341.931772 
L 786.60004 354.718667 
z
" clip-path="url(#pf3b4cfb4a8)" style="fill: #3f599f"/>
    <path d="M 890.740986 351.273031 
L 890.740986 351.273031 
L 904.926101 338.538874 
L 904.926101 338.538874 
z
" clip-path="url(#pf3b4cfb4a8)" style="fill: #324880"/>
    <path d="M 890.740986 351.273031 
L 904.926101 338.538874 
L 930.019252 345.86699 
L 915.96545 358.715189 
z
" clip-path="url(#pf3b4cfb4a8)" style="fill: #3f599f"/>
    <path d="M 890.740986 351.273031 
L 915.96545 358.715189 
L 930.019252 345.86699 
L 904.926101 338.538874 
z
" clip-path="url(#pf3b4cfb4a8)" style="fill: #577ddf"/>
    <path d="M 915.96545 358.715189 
L 930.019252 345.86699 
L 930.019252 345.86699 
L 915.96545 358.715189 
z
" clip-path="url(#pf3b4cfb4a8)" style="fill: #648fff"/>
    <path d="M 826.299597 349.290187 
L 826.299597 349.290187 
L 851.205104 356.714529 
L 851.205104 356.714529 
z
" clip-path="url(#pf3b4cfb4a8)" style="fill: #648fff"/>
    <path d="M 890.740986 351.273031 
L 915.96545 358.715189 
L 915.96545 358.715189 
L 890.740986 351.273031 
z
" clip-path="url(#pf3b4cfb4a8)" style="fill: #324880"/>
    <path d="M 811.409063 362.191834 
L 811.409063 362.191834 
L 826.299597 349.290187 
L 826.299597 349.290187 
z
" clip-path="url(#pf3b4cfb4a8)" style="fill: #324880"/>
    <path d="M 811.409063 362.191834 
L 826.299597 349.290187 
L 851.205104 356.714529 
L 836.442098 369.732481 
z
" clip-path="url(#pf3b4cfb4a8)" style="fill: #3f599f"/>
    <path d="M 811.409063 362.191834 
L 836.442098 369.732481 
L 851.205104 356.714529 
L 826.299597 349.290187 
z
" clip-path="url(#pf3b4cfb4a8)" style="fill: #577ddf"/>
    <path d="M 836.442098 369.732481 
L 851.205104 356.714529 
L 851.205104 356.714529 
L 836.442098 369.732481 
z
" clip-path="url(#pf3b4cfb4a8)" style="fill: #648fff"/>
    <path d="M 811.409063 362.191834 
L 836.442098 369.732481 
L 836.442098 369.732481 
L 811.409063 362.191834 
z
" clip-path="url(#pf3b4cfb4a8)" style="fill: #324880"/>
    <path d="M 876.334754 364.205689 
L 876.325973 372.113279 
L 901.640796 379.695335 
L 901.691587 371.764572 
z
" clip-path="url(#pf3b4cfb4a8)" style="fill: #648fff"/>
    <path d="M 912.390382 452.601693 
L 938.021045 460.594713 
L 952.072987 446.796046 
L 926.578383 438.926983 
z
" clip-path="url(#pf3b4cfb4a8)" style="fill: #577ddf"/>
    <path d="M 861.702193 377.341525 
L 861.717643 385.289313 
L 876.325973 372.113279 
L 876.334754 364.205689 
z
" clip-path="url(#pf3b4cfb4a8)" style="fill: #324880"/>
    <path d="M 861.717643 385.289313 
L 887.16545 392.991028 
L 901.640796 379.695335 
L 876.325973 372.113279 
z
" clip-path="url(#pf3b4cfb4a8)" style="fill: #577ddf"/>
    <path d="M 927.278697 379.3921 
L 926.578383 438.926983 
L 952.072987 446.796046 
L 953.099236 387.089214 
z
" clip-path="url(#pf3b4cfb4a8)" style="fill: #648fff"/>
    <path d="M 861.702193 377.341525 
L 876.334754 364.205689 
L 901.691587 371.764572 
L 887.192453 385.0199 
z
" clip-path="url(#pf3b4cfb4a8)" style="fill: #3f599f"/>
    <path d="M 912.916037 392.768559 
L 912.390382 452.601693 
L 926.578383 438.926983 
L 927.278697 379.3921 
z
" clip-path="url(#pf3b4cfb4a8)" style="fill: #324880"/>
    <path d="M 887.192453 385.0199 
L 901.691587 371.764572 
L 901.640796 379.695335 
L 887.16545 392.991028 
z
" clip-path="url(#pf3b4cfb4a8)" style="fill: #648fff"/>
    <path d="M 861.702193 377.341525 
L 887.192453 385.0199 
L 887.16545 392.991028 
L 861.717643 385.289313 
z
" clip-path="url(#pf3b4cfb4a8)" style="fill: #324880"/>
    <path d="M 938.876164 400.588471 
L 953.099236 387.089214 
L 952.072987 446.796046 
L 938.021045 460.594713 
z
" clip-path="url(#pf3b4cfb4a8)" style="fill: #648fff"/>
    <path d="M 912.916037 392.768559 
L 938.876164 400.588471 
L 938.021045 460.594713 
L 912.390382 452.601693 
z
" clip-path="url(#pf3b4cfb4a8)" style="fill: #324880"/>
    <path d="M 912.916037 392.768559 
L 927.278697 379.3921 
L 953.099236 387.089214 
L 938.876164 400.588471 
z
" clip-path="url(#pf3b4cfb4a8)" style="fill: #3f599f"/>
   </g>
   <g id="Poly3DCollection_5">
    <path d="M 710.763769 376.044091 
L 915.557196 439.395117 
L 1027.104233 332.504755 
L 830.605631 276.542951 
z
" clip-path="url(#pf3b4cfb4a8)" style="fill-opacity: 0.25"/>
   </g>
   <g id="Poly3DCollection_6">
    <path d="M 869.622201 311.754063 
L 883.630249 299.617031 
L 908.035141 306.602062 
L 894.150821 318.845192 
z
" clip-path="url(#pf3b4cfb4a8)" style="fill: #3f599f"/>
    <path d="M 883.630249 299.617031 
L 883.783664 240.514603 
L 908.487099 247.324962 
L 908.035141 306.602062 
z
" clip-path="url(#pf3b4cfb4a8)" style="fill: #324880"/>
    <path d="M 869.622201 311.754063 
L 869.605264 252.34859 
L 883.783664 240.514603 
L 883.630249 299.617031 
z
" clip-path="url(#pf3b4cfb4a8)" style="fill: #648fff"/>
    <path d="M 894.150821 318.845192 
L 908.035141 306.602062 
L 908.487099 247.324962 
L 894.435486 259.263668 
z
" clip-path="url(#pf3b4cfb4a8)" style="fill: #324880"/>
    <path d="M 869.622201 311.754063 
L 894.150821 318.845192 
L 894.435486 259.263668 
L 869.605264 252.34859 
z
" clip-path="url(#pf3b4cfb4a8)" style="fill: #648fff"/>
    <path d="M 869.605264 252.34859 
L 894.435486 259.263668 
L 908.487099 247.324962 
L 883.783664 240.514603 
z
" clip-path="url(#pf3b4cfb4a8)" style="fill: #577ddf"/>
    <path d="M 855.401036 324.075747 
L 855.375859 316.267963 
L 880.068999 323.444796 
L 880.054334 331.27541 
z
" clip-path="url(#pf3b4cfb4a8)" style="fill: #324880"/>
    <path d="M 840.961852 336.586329 
L 840.913006 328.738939 
L 855.375859 316.267963 
L 855.401036 324.075747 
z
" clip-path="url(#pf3b4cfb4a8)" style="fill: #648fff"/>
    <path d="M 840.961852 336.586329 
L 855.401036 324.075747 
L 880.054334 331.27541 
L 865.740779 343.897037 
z
" clip-path="url(#pf3b4cfb4a8)" style="fill: #3f599f"/>
    <path d="M 840.913006 328.738939 
L 865.732182 336.026646 
L 880.068999 323.444796 
L 855.375859 316.267963 
z
" clip-path="url(#pf3b4cfb4a8)" style="fill: #577ddf"/>
    <path d="M 865.740779 343.897037 
L 880.054334 331.27541 
L 880.068999 323.444796 
L 865.732182 336.026646 
z
" clip-path="url(#pf3b4cfb4a8)" style="fill: #324880"/>
    <path d="M 840.961852 336.586329 
L 865.740779 343.897037 
L 865.732182 336.026646 
L 840.913006 328.738939 
z
" clip-path="url(#pf3b4cfb4a8)" style="fill: #648fff"/>
    <path d="M 955.336757 353.260625 
L 955.336757 353.260625 
L 980.881638 360.720663 
L 980.881638 360.720663 
z
" clip-path="url(#pf3b4cfb4a8)" style="fill: #324880"/>
    <path d="M 941.417201 366.224405 
L 941.417201 366.224405 
L 955.336757 353.260625 
L 955.336757 353.260625 
z
" clip-path="url(#pf3b4cfb4a8)" style="fill: #648fff"/>
    <path d="M 941.417201 366.224405 
L 955.336757 353.260625 
L 980.881638 360.720663 
L 967.099327 373.801591 
z
" clip-path="url(#pf3b4cfb4a8)" style="fill: #3f599f"/>
    <path d="M 941.417201 366.224405 
L 967.099327 373.801591 
L 980.881638 360.720663 
L 955.336757 353.260625 
z
" clip-path="url(#pf3b4cfb4a8)" style="fill: #577ddf"/>
    <path d="M 746.639561 360.182825 
L 746.639561 360.182825 
L 771.350285 367.705301 
L 771.350285 367.705301 
z
" clip-path="url(#pf3b4cfb4a8)" style="fill: #324880"/>
    <path d="M 731.026161 373.255289 
L 731.026161 373.255289 
L 746.639561 360.182825 
L 746.639561 360.182825 
z
" clip-path="url(#pf3b4cfb4a8)" style="fill: #648fff"/>
    <path d="M 967.099327 373.801591 
L 980.881638 360.720663 
L 980.881638 360.720663 
L 967.099327 373.801591 
z
" clip-path="url(#pf3b4cfb4a8)" style="fill: #324880"/>
    <path d="M 941.417201 366.224405 
L 967.099327 373.801591 
L 967.099327 373.801591 
L 941.417201 366.224405 
z
" clip-path="url(#pf3b4cfb4a8)" style="fill: #648fff"/>
    <path d="M 731.026161 373.255289 
L 746.639561 360.182825 
L 771.350285 367.705301 
L 755.860444 380.896392 
z
" clip-path="url(#pf3b4cfb4a8)" style="fill: #3f599f"/>
    <path d="M 731.026161 373.255289 
L 755.860444 380.896392 
L 771.350285 367.705301 
L 746.639561 360.182825 
z
" clip-path="url(#pf3b4cfb4a8)" style="fill: #577ddf"/>
    <path d="M 755.860444 380.896392 
L 771.350285 367.705301 
L 771.350285 367.705301 
L 755.860444 380.896392 
z
" clip-path="url(#pf3b4cfb4a8)" style="fill: #324880"/>
    <path d="M 731.026161 373.255289 
L 755.860444 380.896392 
L 755.860444 380.896392 
L 731.026161 373.255289 
z
" clip-path="url(#pf3b4cfb4a8)" style="fill: #648fff"/>
    <path d="M 780.92149 388.607267 
L 796.284874 375.295927 
L 821.446385 382.955632 
L 806.21242 396.388873 
z
" clip-path="url(#pf3b4cfb4a8)" style="fill: #3f599f"/>
    <path d="M 796.284874 375.295927 
L 795.369823 316.66073 
L 820.836674 324.144579 
L 821.446385 382.955632 
z
" clip-path="url(#pf3b4cfb4a8)" style="fill: #324880"/>
    <path d="M 780.92149 388.607267 
L 779.809462 329.666994 
L 795.369823 316.66073 
L 796.284874 375.295927 
z
" clip-path="url(#pf3b4cfb4a8)" style="fill: #648fff"/>
    <path d="M 846.837928 390.685364 
L 846.804242 384.032973 
L 872.464714 391.814029 
L 872.462674 398.486088 
z
" clip-path="url(#pf3b4cfb4a8)" style="fill: #324880"/>
    <path d="M 831.736411 404.242188 
L 831.681238 397.55568 
L 846.804242 384.032973 
L 846.837928 390.685364 
z
" clip-path="url(#pf3b4cfb4a8)" style="fill: #648fff"/>
    <path d="M 806.21242 396.388873 
L 821.446385 382.955632 
L 820.836674 324.144579 
L 805.408878 337.271425 
z
" clip-path="url(#pf3b4cfb4a8)" style="fill: #324880"/>
    <path d="M 831.736411 404.242188 
L 846.837928 390.685364 
L 872.462674 398.486088 
L 857.4967 412.168209 
z
" clip-path="url(#pf3b4cfb4a8)" style="fill: #3f599f"/>
    <path d="M 780.92149 388.607267 
L 806.21242 396.388873 
L 805.408878 337.271425 
L 779.809462 329.666994 
z
" clip-path="url(#pf3b4cfb4a8)" style="fill: #648fff"/>
    <path d="M 831.681238 397.55568 
L 857.477632 405.461893 
L 872.464714 391.814029 
L 846.804242 384.032973 
z
" clip-path="url(#pf3b4cfb4a8)" style="fill: #577ddf"/>
    <path d="M 857.4967 412.168209 
L 872.462674 398.486088 
L 872.464714 391.814029 
L 857.477632 405.461893 
z
" clip-path="url(#pf3b4cfb4a8)" style="fill: #324880"/>
    <path d="M 779.809462 329.666994 
L 805.408878 337.271425 
L 820.836674 324.144579 
L 795.369823 316.66073 
z
" clip-path="url(#pf3b4cfb4a8)" style="fill: #577ddf"/>
    <path d="M 831.736411 404.242188 
L 857.4967 412.168209 
L 857.477632 405.461893 
L 831.681238 397.55568 
z
" clip-path="url(#pf3b4cfb4a8)" style="fill: #648fff"/>
    <path d="M 883.496584 420.167948 
L 898.323848 406.358787 
L 924.42474 414.30446 
L 909.739421 428.242441 
z
" clip-path="url(#pf3b4cfb4a8)" style="fill: #3f599f"/>
    <path d="M 898.323848 406.358787 
L 898.617345 355.252538 
L 925.001342 363.044558 
L 924.42474 414.30446 
z
" clip-path="url(#pf3b4cfb4a8)" style="fill: #324880"/>
    <path d="M 883.496584 420.167948 
L 883.631876 368.795156 
L 898.617345 355.252538 
L 898.323848 406.358787 
z
" clip-path="url(#pf3b4cfb4a8)" style="fill: #648fff"/>
    <path d="M 909.739421 428.242441 
L 924.42474 414.30446 
L 925.001342 363.044558 
L 910.160931 376.714881 
z
" clip-path="url(#pf3b4cfb4a8)" style="fill: #324880"/>
    <path d="M 883.496584 420.167948 
L 909.739421 428.242441 
L 910.160931 376.714881 
L 883.631876 368.795156 
z
" clip-path="url(#pf3b4cfb4a8)" style="fill: #648fff"/>
    <path d="M 883.631876 368.795156 
L 910.160931 376.714881 
L 925.001342 363.044558 
L 898.617345 355.252538 
z
" clip-path="url(#pf3b4cfb4a8)" style="fill: #577ddf"/>
   </g>
   <g id="text_33">
    <!-- Imaginary Amplitude (ρ) -->
    <g transform="translate(735.696563 51.6) scale(0.21 -0.21)">
     <defs>
      <path id="DejaVuSans-49" d="M 628 4666 
L 1259 4666 
L 1259 0 
L 628 0 
L 628 4666 
z
" transform="scale(0.015625)"/>
      <path id="DejaVuSans-67" d="M 2906 1791 
Q 2906 2416 2648 2759 
Q 2391 3103 1925 3103 
Q 1463 3103 1205 2759 
Q 947 2416 947 1791 
Q 947 1169 1205 825 
Q 1463 481 1925 481 
Q 2391 481 2648 825 
Q 2906 1169 2906 1791 
z
M 3481 434 
Q 3481 -459 3084 -895 
Q 2688 -1331 1869 -1331 
Q 1566 -1331 1297 -1286 
Q 1028 -1241 775 -1147 
L 775 -588 
Q 1028 -725 1275 -790 
Q 1522 -856 1778 -856 
Q 2344 -856 2625 -561 
Q 2906 -266 2906 331 
L 2906 616 
Q 2728 306 2450 153 
Q 2172 0 1784 0 
Q 1141 0 747 490 
Q 353 981 353 1791 
Q 353 2603 747 3093 
Q 1141 3584 1784 3584 
Q 2172 3584 2450 3431 
Q 2728 3278 2906 2969 
L 2906 3500 
L 3481 3500 
L 3481 434 
z
" transform="scale(0.015625)"/>
      <path id="DejaVuSans-6e" d="M 3513 2113 
L 3513 0 
L 2938 0 
L 2938 2094 
Q 2938 2591 2744 2837 
Q 2550 3084 2163 3084 
Q 1697 3084 1428 2787 
Q 1159 2491 1159 1978 
L 1159 0 
L 581 0 
L 581 3500 
L 1159 3500 
L 1159 2956 
Q 1366 3272 1645 3428 
Q 1925 3584 2291 3584 
Q 2894 3584 3203 3211 
Q 3513 2838 3513 2113 
z
" transform="scale(0.015625)"/>
      <path id="DejaVuSans-72" d="M 2631 2963 
Q 2534 3019 2420 3045 
Q 2306 3072 2169 3072 
Q 1681 3072 1420 2755 
Q 1159 2438 1159 1844 
L 1159 0 
L 581 0 
L 581 3500 
L 1159 3500 
L 1159 2956 
Q 1341 3275 1631 3429 
Q 1922 3584 2338 3584 
Q 2397 3584 2469 3576 
Q 2541 3569 2628 3553 
L 2631 2963 
z
" transform="scale(0.015625)"/>
      <path id="DejaVuSans-79" d="M 2059 -325 
Q 1816 -950 1584 -1140 
Q 1353 -1331 966 -1331 
L 506 -1331 
L 506 -850 
L 844 -850 
Q 1081 -850 1212 -737 
Q 1344 -625 1503 -206 
L 1606 56 
L 191 3500 
L 800 3500 
L 1894 763 
L 2988 3500 
L 3597 3500 
L 2059 -325 
z
" transform="scale(0.015625)"/>
     </defs>
     <use xlink:href="#DejaVuSans-49"/>
     <use xlink:href="#DejaVuSans-6d" x="29.492188"/>
     <use xlink:href="#DejaVuSans-61" x="126.904297"/>
     <use xlink:href="#DejaVuSans-67" x="188.183594"/>
     <use xlink:href="#DejaVuSans-69" x="251.660156"/>
     <use xlink:href="#DejaVuSans-6e" x="279.443359"/>
     <use xlink:href="#DejaVuSans-61" x="342.822266"/>
     <use xlink:href="#DejaVuSans-72" x="404.101562"/>
     <use xlink:href="#DejaVuSans-79" x="445.214844"/>
     <use xlink:href="#DejaVuSans-20" x="504.394531"/>
     <use xlink:href="#DejaVuSans-41" x="536.181641"/>
     <use xlink:href="#DejaVuSans-6d" x="604.589844"/>
     <use xlink:href="#DejaVuSans-70" x="702.001953"/>
     <use xlink:href="#DejaVuSans-6c" x="765.478516"/>
     <use xlink:href="#DejaVuSans-69" x="793.261719"/>
     <use xlink:href="#DejaVuSans-74" x="821.044922"/>
     <use xlink:href="#DejaVuSans-75" x="860.253906"/>
     <use xlink:href="#DejaVuSans-64" x="923.632812"/>
     <use xlink:href="#DejaVuSans-65" x="987.109375"/>
     <use xlink:href="#DejaVuSans-20" x="1048.632812"/>
     <use xlink:href="#DejaVuSans-28" x="1080.419922"/>
     <use xlink:href="#DejaVuSans-3c1" x="1119.433594"/>
     <use xlink:href="#DejaVuSans-29" x="1182.910156"/>
    </g>
   </g>
  </g>
 </g>
 <defs>
  <clipPath id="pb3bd46d30a">
   <rect x="28.8" y="57.6" width="518.4" height="518.4"/>
  </clipPath>
  <clipPath id="pf3b4cfb4a8">
   <rect x="604.8" y="57.6" width="518.4" height="518.4"/>
  </clipPath>
 </defs>
</svg>
