<?xml version="1.0" encoding="utf-8" standalone="no"?>
<!DOCTYPE svg PUBLIC "-//W3C//DTD SVG 1.1//EN"
  "http://www.w3.org/Graphics/SVG/1.1/DTD/svg11.dtd">
<svg xmlns:xlink="http://www.w3.org/1999/xlink" width="1152pt" height="576pt" viewBox="0 0 1152 576" xmlns="http://www.w3.org/2000/svg" version="1.1">
 <metadata>
  <rdf:RDF xmlns:dc="http://purl.org/dc/elements/1.1/" xmlns:cc="http://creativecommons.org/ns#" xmlns:rdf="http://www.w3.org/1999/02/22-rdf-syntax-ns#">
   <cc:Work>
    <dc:type rdf:resource="http://purl.org/dc/dcmitype/StillImage"/>
    <dc:date>2024-11-04T20:32:31.796970</dc:date>
    <dc:format>image/svg+xml</dc:format>
    <dc:creator>
     <cc:Agent>
      <dc:title>Matplotlib v3.9.2, https://matplotlib.org/</dc:title>
     </cc:Agent>
    </dc:creator>
   </cc:Work>
  </rdf:RDF>
 </metadata>
 <defs>
  <style type="text/css">*{stroke-linejoin: round; stroke-linecap: butt}</style>
 </defs>
 <g id="figure_1">
  <g id="patch_1">
   <path d="M 0 576 
L 1152 576 
L 1152 0 
L 0 0 
z
" style="fill: #ffffff"/>
  </g>
  <g id="patch_2">
   <path d="M 28.8 576 
L 547.2 576 
L 547.2 57.6 
L 28.8 57.6 
z
" style="fill: #ffffff"/>
  </g>
  <g id="pane3d_1">
   <g id="patch_3">
    <path d="M 130.07018 436.456468 
L 253.494133 330.550231 
L 251.743197 126.70673 
L 122.643358 223.613571 
" style="fill: #f2f2f2; opacity: 0.5; stroke: #f2f2f2; stroke-linejoin: miter"/>
   </g>
  </g>
  <g id="pane3d_2">
   <g id="patch_4">
    <path d="M 253.494133 330.550231 
L 455.554898 390.069341 
L 462.583588 181.103065 
L 251.743197 126.70673 
" style="fill: #e6e6e6; opacity: 0.5; stroke: #e6e6e6; stroke-linejoin: miter"/>
   </g>
  </g>
  <g id="pane3d_3">
   <g id="patch_5">
    <path d="M 130.07018 436.456468 
L 340.912731 504.076731 
L 455.554898 390.069341 
L 253.494133 330.550231 
" style="fill: #ececec; opacity: 0.5; stroke: #ececec; stroke-linejoin: miter"/>
   </g>
  </g>
  <g id="grid3d_1">
   <g id="Line3DCollection_1">
    <path d="M 148.107564 442.241318 
L 270.817434 335.65299 
L 269.793879 131.363764 
" style="fill: none; stroke: #b0b0b0; stroke-width: 0.8"/>
    <path d="M 204.73198 460.40159 
L 325.154862 351.658648 
L 326.443642 145.979273 
" style="fill: none; stroke: #b0b0b0; stroke-width: 0.8"/>
    <path d="M 262.543747 478.942662 
L 380.560935 367.979086 
L 384.255639 160.894634 
" style="fill: none; stroke: #b0b0b0; stroke-width: 0.8"/>
    <path d="M 321.580608 497.876639 
L 437.067491 384.623682 
L 443.266006 176.119173 
" style="fill: none; stroke: #b0b0b0; stroke-width: 0.8"/>
   </g>
  </g>
  <g id="grid3d_2">
   <g id="Line3DCollection_2">
    <path d="M 134.777648 214.505149 
L 141.642324 426.526772 
L 351.684419 493.364686 
" style="fill: none; stroke: #b0b0b0; stroke-width: 0.8"/>
    <path d="M 171.455878 186.973191 
L 176.657452 396.481386 
L 384.248591 460.980823 
" style="fill: none; stroke: #b0b0b0; stroke-width: 0.8"/>
    <path d="M 206.831169 160.419264 
L 210.480196 367.459145 
L 415.662622 429.740732 
" style="fill: none; stroke: #b0b0b0; stroke-width: 0.8"/>
    <path d="M 240.971738 134.792162 
L 243.170446 339.408664 
L 445.986389 399.584868 
" style="fill: none; stroke: #b0b0b0; stroke-width: 0.8"/>
   </g>
  </g>
  <g id="grid3d_3">
   <g id="Line3DCollection_3">
    <path d="M 456.926851 349.280525 
L 253.15194 290.712224 
L 128.62191 394.950957 
" style="fill: none; stroke: #b0b0b0; stroke-width: 0.8"/>
    <path d="M 458.345651 307.098924 
L 252.798278 249.538984 
L 127.123475 352.007799 
" style="fill: none; stroke: #b0b0b0; stroke-width: 0.8"/>
    <path d="M 459.789535 264.171576 
L 252.438588 207.663986 
L 125.597805 308.284127 
" style="fill: none; stroke: #b0b0b0; stroke-width: 0.8"/>
    <path d="M 461.259173 220.478527 
L 252.072715 165.069135 
L 124.044152 263.758466 
" style="fill: none; stroke: #b0b0b0; stroke-width: 0.8"/>
   </g>
  </g>
  <g id="axis3d_1">
   <g id="line2d_1">
    <path d="M 130.07018 436.456468 
L 340.912731 504.076731 
" style="fill: none; stroke: #000000; stroke-width: 0.8; stroke-linecap: square"/>
   </g>
   <g id="xtick_1">
    <g id="line2d_2">
     <path d="M 149.15236 441.333787 
L 146.014717 444.059209 
" style="fill: none; stroke: #000000; stroke-width: 0.8; stroke-linecap: square"/>
    </g>
    <g id="text_1">
     <!-- 00 -->
     <g transform="translate(120.823877 485.959845) rotate(-45) scale(0.21 -0.21)">
      <defs>
       <path id="DejaVuSans-30" d="M 2034 4250 
Q 1547 4250 1301 3770 
Q 1056 3291 1056 2328 
Q 1056 1369 1301 889 
Q 1547 409 2034 409 
Q 2525 409 2770 889 
Q 3016 1369 3016 2328 
Q 3016 3291 2770 3770 
Q 2525 4250 2034 4250 
z
M 2034 4750 
Q 2819 4750 3233 4129 
Q 3647 3509 3647 2328 
Q 3647 1150 3233 529 
Q 2819 -91 2034 -91 
Q 1250 -91 836 529 
Q 422 1150 422 2328 
Q 422 3509 836 4129 
Q 1250 4750 2034 4750 
z
" transform="scale(0.015625)"/>
      </defs>
      <use xlink:href="#DejaVuSans-30"/>
      <use xlink:href="#DejaVuSans-30" x="63.623047"/>
     </g>
    </g>
   </g>
   <g id="xtick_2">
    <g id="line2d_3">
     <path d="M 205.757946 459.475133 
L 202.676818 462.257419 
" style="fill: none; stroke: #000000; stroke-width: 0.8; stroke-linecap: square"/>
    </g>
    <g id="text_2">
     <!-- 01 -->
     <g transform="translate(177.445975 504.27764) rotate(-45) scale(0.21 -0.21)">
      <defs>
       <path id="DejaVuSans-31" d="M 794 531 
L 1825 531 
L 1825 4091 
L 703 3866 
L 703 4441 
L 1819 4666 
L 2450 4666 
L 2450 531 
L 3481 531 
L 3481 0 
L 794 0 
L 794 531 
z
" transform="scale(0.015625)"/>
      </defs>
      <use xlink:href="#DejaVuSans-30"/>
      <use xlink:href="#DejaVuSans-31" x="63.623047"/>
     </g>
    </g>
   </g>
   <g id="xtick_3">
    <g id="line2d_4">
     <path d="M 263.54986 477.996682 
L 260.528321 480.837631 
" style="fill: none; stroke: #000000; stroke-width: 0.8; stroke-linecap: square"/>
    </g>
    <g id="text_3">
     <!-- 10 -->
     <g transform="translate(235.256492 522.9799) rotate(-45) scale(0.21 -0.21)">
      <use xlink:href="#DejaVuSans-31"/>
      <use xlink:href="#DejaVuSans-30" x="63.623047"/>
     </g>
    </g>
   </g>
   <g id="xtick_4">
    <g id="line2d_5">
     <path d="M 322.565792 496.910512 
L 319.607072 499.811999 
" style="fill: none; stroke: #000000; stroke-width: 0.8; stroke-linecap: square"/>
    </g>
    <g id="text_4">
     <!-- 11 -->
     <g transform="translate(294.293241 542.078858) rotate(-45) scale(0.21 -0.21)">
      <use xlink:href="#DejaVuSans-31"/>
      <use xlink:href="#DejaVuSans-31" x="63.623047"/>
     </g>
    </g>
   </g>
  </g>
  <g id="axis3d_2">
   <g id="line2d_6">
    <path d="M 455.554898 390.069341 
L 340.912731 504.076731 
" style="fill: none; stroke: #000000; stroke-width: 0.8; stroke-linecap: square"/>
   </g>
   <g id="xtick_5">
    <g id="line2d_7">
     <path d="M 349.939872 492.809551 
L 355.176743 494.475986 
" style="fill: none; stroke: #000000; stroke-width: 0.8; stroke-linecap: square"/>
    </g>
    <g id="text_5">
     <!-- 00 -->
     <g transform="translate(362.536948 505.408703) rotate(-337.5) scale(0.21 -0.21)">
      <use xlink:href="#DejaVuSans-30"/>
      <use xlink:href="#DejaVuSans-30" x="63.623047"/>
     </g>
    </g>
   </g>
   <g id="xtick_6">
    <g id="line2d_8">
     <path d="M 382.525541 460.445465 
L 387.697822 462.052514 
" style="fill: none; stroke: #000000; stroke-width: 0.8; stroke-linecap: square"/>
    </g>
    <g id="text_6">
     <!-- 01 -->
     <g transform="translate(394.927992 472.820772) rotate(-337.5) scale(0.21 -0.21)">
      <use xlink:href="#DejaVuSans-30"/>
      <use xlink:href="#DejaVuSans-31" x="63.623047"/>
     </g>
    </g>
   </g>
   <g id="xtick_7">
    <g id="line2d_9">
     <path d="M 413.960652 429.224112 
L 419.0696 430.774895 
" style="fill: none; stroke: #000000; stroke-width: 0.8; stroke-linecap: square"/>
    </g>
    <g id="text_7">
     <!-- 10 -->
     <g transform="translate(426.175291 441.383538) rotate(-337.5) scale(0.21 -0.21)">
      <use xlink:href="#DejaVuSans-31"/>
      <use xlink:href="#DejaVuSans-30" x="63.623047"/>
     </g>
    </g>
   </g>
   <g id="xtick_8">
    <g id="line2d_10">
     <path d="M 444.305087 399.08602 
L 449.351944 400.58344 
" style="fill: none; stroke: #000000; stroke-width: 0.8; stroke-linecap: square"/>
    </g>
    <g id="text_8">
     <!-- 11 -->
     <g transform="translate(456.338373 411.037112) rotate(-337.5) scale(0.21 -0.21)">
      <use xlink:href="#DejaVuSans-31"/>
      <use xlink:href="#DejaVuSans-31" x="63.623047"/>
     </g>
    </g>
   </g>
  </g>
  <g id="axis3d_3">
   <g id="line2d_11">
    <path d="M 455.554898 390.069341 
L 462.583588 181.103065 
" style="fill: none; stroke: #000000; stroke-width: 0.8; stroke-linecap: square"/>
   </g>
   <g id="xtick_9">
    <g id="line2d_12">
     <path d="M 455.237426 348.794956 
L 460.308673 350.252517 
" style="fill: none; stroke: #000000; stroke-width: 0.8; stroke-linecap: square"/>
    </g>
    <g id="text_9">
     <!-- 0.10 -->
     <g transform="translate(470.51968 343.022286) scale(0.21 -0.21)">
      <defs>
       <path id="DejaVuSans-2e" d="M 684 794 
L 1344 794 
L 1344 0 
L 684 0 
L 684 794 
z
" transform="scale(0.015625)"/>
      </defs>
      <use xlink:href="#DejaVuSans-30"/>
      <use xlink:href="#DejaVuSans-2e" x="63.623047"/>
      <use xlink:href="#DejaVuSans-31" x="95.410156"/>
      <use xlink:href="#DejaVuSans-30" x="159.033203"/>
     </g>
    </g>
   </g>
   <g id="xtick_10">
    <g id="line2d_13">
     <path d="M 456.641008 306.621569 
L 461.757962 308.054482 
" style="fill: none; stroke: #000000; stroke-width: 0.8; stroke-linecap: square"/>
    </g>
    <g id="text_10">
     <!-- 0.15 -->
     <g transform="translate(472.055814 300.872684) scale(0.21 -0.21)">
      <defs>
       <path id="DejaVuSans-35" d="M 691 4666 
L 3169 4666 
L 3169 4134 
L 1269 4134 
L 1269 2991 
Q 1406 3038 1543 3061 
Q 1681 3084 1819 3084 
Q 2600 3084 3056 2656 
Q 3513 2228 3513 1497 
Q 3513 744 3044 326 
Q 2575 -91 1722 -91 
Q 1428 -91 1123 -41 
Q 819 9 494 109 
L 494 744 
Q 775 591 1075 516 
Q 1375 441 1709 441 
Q 2250 441 2565 725 
Q 2881 1009 2881 1497 
Q 2881 1984 2565 2268 
Q 2250 2553 1709 2553 
Q 1456 2553 1204 2497 
Q 953 2441 691 2322 
L 691 4666 
z
" transform="scale(0.015625)"/>
      </defs>
      <use xlink:href="#DejaVuSans-30"/>
      <use xlink:href="#DejaVuSans-2e" x="63.623047"/>
      <use xlink:href="#DejaVuSans-31" x="95.410156"/>
      <use xlink:href="#DejaVuSans-35" x="159.033203"/>
     </g>
    </g>
   </g>
   <g id="xtick_11">
    <g id="line2d_14">
     <path d="M 458.069397 263.702802 
L 463.23289 265.109964 
" style="fill: none; stroke: #000000; stroke-width: 0.8; stroke-linecap: square"/>
    </g>
    <g id="text_11">
     <!-- 0.20 -->
     <g transform="translate(473.619074 257.978764) scale(0.21 -0.21)">
      <defs>
       <path id="DejaVuSans-32" d="M 1228 531 
L 3431 531 
L 3431 0 
L 469 0 
L 469 531 
Q 828 903 1448 1529 
Q 2069 2156 2228 2338 
Q 2531 2678 2651 2914 
Q 2772 3150 2772 3378 
Q 2772 3750 2511 3984 
Q 2250 4219 1831 4219 
Q 1534 4219 1204 4116 
Q 875 4013 500 3803 
L 500 4441 
Q 881 4594 1212 4672 
Q 1544 4750 1819 4750 
Q 2544 4750 2975 4387 
Q 3406 4025 3406 3419 
Q 3406 3131 3298 2873 
Q 3191 2616 2906 2266 
Q 2828 2175 2409 1742 
Q 1991 1309 1228 531 
z
" transform="scale(0.015625)"/>
      </defs>
      <use xlink:href="#DejaVuSans-30"/>
      <use xlink:href="#DejaVuSans-2e" x="63.623047"/>
      <use xlink:href="#DejaVuSans-32" x="95.410156"/>
      <use xlink:href="#DejaVuSans-30" x="159.033203"/>
     </g>
    </g>
   </g>
   <g id="xtick_12">
    <g id="line2d_15">
     <path d="M 459.523257 220.018716 
L 464.734142 221.398978 
" style="fill: none; stroke: #000000; stroke-width: 0.8; stroke-linecap: square"/>
    </g>
    <g id="text_12">
     <!-- 0.25 -->
     <g transform="translate(475.210187 214.320637) scale(0.21 -0.21)">
      <use xlink:href="#DejaVuSans-30"/>
      <use xlink:href="#DejaVuSans-2e" x="63.623047"/>
      <use xlink:href="#DejaVuSans-32" x="95.410156"/>
      <use xlink:href="#DejaVuSans-35" x="159.033203"/>
     </g>
    </g>
   </g>
  </g>
  <g id="axes_1">
   <g id="Poly3DCollection_1">
    <path d="M 239.501426 388.248963 
L 255.41313 374.217672 
L 282.116241 382.290184 
L 266.351345 396.457027 
z
" clip-path="url(#pe1a9ce6ba1)" style="fill: #3f599f"/>
    <path d="M 255.41313 374.217672 
L 255.076764 333.531018 
L 282.006208 341.475537 
L 282.116241 382.290184 
z
" clip-path="url(#pe1a9ce6ba1)" style="fill: #324880"/>
    <path d="M 239.501426 388.248963 
L 239.025912 347.340252 
L 255.076764 333.531018 
L 255.41313 374.217672 
z
" clip-path="url(#pe1a9ce6ba1)" style="fill: #648fff"/>
    <path d="M 266.351345 396.457027 
L 282.116241 382.290184 
L 282.006208 341.475537 
L 266.104661 355.419324 
z
" clip-path="url(#pe1a9ce6ba1)" style="fill: #324880"/>
    <path d="M 239.501426 388.248963 
L 266.351345 396.457027 
L 266.104661 355.419324 
L 239.025912 347.340252 
z
" clip-path="url(#pe1a9ce6ba1)" style="fill: #648fff"/>
    <path d="M 239.025912 347.340252 
L 266.104661 355.419324 
L 282.006208 341.475537 
L 255.076764 333.531018 
z
" clip-path="url(#pe1a9ce6ba1)" style="fill: #577ddf"/>
    <path d="M 293.462372 404.744912 
L 309.076864 390.440544 
L 336.298742 398.669882 
L 320.838336 413.113789 
z
" clip-path="url(#pe1a9ce6ba1)" style="fill: #3f599f"/>
    <path d="M 206.868214 417.025647 
L 223.322058 402.516285 
L 250.31996 410.863345 
L 234.015272 425.515262 
z
" clip-path="url(#pe1a9ce6ba1)" style="fill: #3f599f"/>
    <path d="M 223.322058 402.516285 
L 222.70521 361.549033 
L 249.933541 369.766635 
L 250.31996 410.863345 
z
" clip-path="url(#pe1a9ce6ba1)" style="fill: #324880"/>
    <path d="M 206.868214 417.025647 
L 206.103289 375.833807 
L 222.70521 361.549033 
L 223.322058 402.516285 
z
" clip-path="url(#pe1a9ce6ba1)" style="fill: #648fff"/>
    <path d="M 348.48314 421.56485 
L 363.785693 406.979354 
L 391.541605 415.370134 
L 376.400761 430.099313 
z
" clip-path="url(#pe1a9ce6ba1)" style="fill: #3f599f"/>
    <path d="M 234.015272 425.515262 
L 250.31996 410.863345 
L 249.933541 369.766635 
L 233.483323 384.192981 
z
" clip-path="url(#pe1a9ce6ba1)" style="fill: #324880"/>
    <path d="M 206.868214 417.025647 
L 234.015272 425.515262 
L 233.483323 384.192981 
L 206.103289 375.833807 
z
" clip-path="url(#pe1a9ce6ba1)" style="fill: #648fff"/>
    <path d="M 206.103289 375.833807 
L 233.483323 384.192981 
L 249.933541 369.766635 
L 222.70521 361.549033 
z
" clip-path="url(#pe1a9ce6ba1)" style="fill: #577ddf"/>
    <path d="M 309.076864 390.440544 
L 309.663313 191.525106 
L 338.028393 199.095004 
L 336.298742 398.669882 
z
" clip-path="url(#pe1a9ce6ba1)" style="fill: #324880"/>
    <path d="M 261.430851 434.088851 
L 277.58264 419.292267 
L 305.114013 427.804261 
L 289.118956 442.747667 
z
" clip-path="url(#pe1a9ce6ba1)" style="fill: #3f599f"/>
    <path d="M 293.462372 404.744912 
L 293.3975 204.685187 
L 309.663313 191.525106 
L 309.076864 390.440544 
z
" clip-path="url(#pe1a9ce6ba1)" style="fill: #648fff"/>
    <path d="M 404.59526 438.718418 
L 419.570447 423.843422 
L 447.876264 432.400442 
L 433.070776 447.423429 
z
" clip-path="url(#pe1a9ce6ba1)" style="fill: #3f599f"/>
    <path d="M 320.838336 413.113789 
L 336.298742 398.669882 
L 338.028393 199.095004 
L 321.929943 212.388877 
z
" clip-path="url(#pe1a9ce6ba1)" style="fill: #324880"/>
    <path d="M 173.108679 446.795548 
L 190.13285 431.783259 
L 217.430231 440.419114 
L 200.557544 455.581453 
z
" clip-path="url(#pe1a9ce6ba1)" style="fill: #3f599f"/>
    <path d="M 293.462372 404.744912 
L 320.838336 413.113789 
L 321.929943 212.388877 
L 293.3975 204.685187 
z
" clip-path="url(#pe1a9ce6ba1)" style="fill: #648fff"/>
    <path d="M 317.08367 451.492985 
L 332.91807 436.400563 
L 360.998882 445.08243 
L 345.329159 460.32611 
z
" clip-path="url(#pe1a9ce6ba1)" style="fill: #3f599f"/>
    <path d="M 190.13285 431.783259 
L 188.564019 361.002851 
L 216.263905 369.411932 
L 217.430231 440.419114 
z
" clip-path="url(#pe1a9ce6ba1)" style="fill: #324880"/>
    <path d="M 173.108679 446.795548 
L 171.269205 375.621725 
L 188.564019 361.002851 
L 190.13285 431.783259 
z
" clip-path="url(#pe1a9ce6ba1)" style="fill: #648fff"/>
    <path d="M 363.785693 406.979354 
L 367.356191 160.071825 
L 396.578757 167.629389 
L 391.541605 415.370134 
z
" clip-path="url(#pe1a9ce6ba1)" style="fill: #324880"/>
    <path d="M 348.48314 421.56485 
L 351.284104 173.211425 
L 367.356191 160.071825 
L 363.785693 406.979354 
z
" clip-path="url(#pe1a9ce6ba1)" style="fill: #648fff"/>
    <path d="M 277.58264 419.292267 
L 276.84673 218.913599 
L 305.543178 226.757618 
L 305.114013 427.804261 
z
" clip-path="url(#pe1a9ce6ba1)" style="fill: #324880"/>
    <path d="M 228.282648 464.455778 
L 244.999953 449.141127 
L 272.846112 457.950595 
L 256.288182 473.419865 
z
" clip-path="url(#pe1a9ce6ba1)" style="fill: #3f599f"/>
    <path d="M 200.557544 455.581453 
L 217.430231 440.419114 
L 216.263905 369.411932 
L 199.12504 384.179137 
z
" clip-path="url(#pe1a9ce6ba1)" style="fill: #324880"/>
    <path d="M 261.430851 434.088851 
L 260.000049 232.551123 
L 276.84673 218.913599 
L 277.58264 419.292267 
z
" clip-path="url(#pe1a9ce6ba1)" style="fill: #648fff"/>
    <path d="M 173.108679 446.795548 
L 200.557544 455.581453 
L 199.12504 384.179137 
L 171.269205 375.621725 
z
" clip-path="url(#pe1a9ce6ba1)" style="fill: #648fff"/>
    <path d="M 373.859673 469.248369 
L 389.360603 453.851147 
L 418.007469 462.708024 
L 402.679548 478.261119 
z
" clip-path="url(#pe1a9ce6ba1)" style="fill: #3f599f"/>
    <path d="M 376.400761 430.099313 
L 391.541605 415.370134 
L 396.578757 167.629389 
L 380.68609 180.90523 
z
" clip-path="url(#pe1a9ce6ba1)" style="fill: #324880"/>
    <path d="M 171.269205 375.621725 
L 199.12504 384.179137 
L 216.263905 369.411932 
L 188.564019 361.002851 
z
" clip-path="url(#pe1a9ce6ba1)" style="fill: #577ddf"/>
    <path d="M 348.48314 421.56485 
L 376.400761 430.099313 
L 380.68609 180.90523 
L 351.284104 173.211425 
z
" clip-path="url(#pe1a9ce6ba1)" style="fill: #648fff"/>
    <path d="M 289.118956 442.747667 
L 305.114013 427.804261 
L 305.543178 226.757618 
L 288.8668 240.536247 
z
" clip-path="url(#pe1a9ce6ba1)" style="fill: #324880"/>
    <path d="M 293.3975 204.685187 
L 321.929943 212.388877 
L 338.028393 199.095004 
L 309.663313 191.525106 
z
" clip-path="url(#pe1a9ce6ba1)" style="fill: #577ddf"/>
    <path d="M 419.570447 423.843422 
L 426.131247 174.218745 
L 455.969811 181.930138 
L 447.876264 432.400442 
z
" clip-path="url(#pe1a9ce6ba1)" style="fill: #324880"/>
    <path d="M 138.163485 477.610988 
L 155.788159 462.069163 
L 183.389661 471.009065 
L 165.918769 486.708971 
z
" clip-path="url(#pe1a9ce6ba1)" style="fill: #3f599f"/>
    <path d="M 261.430851 434.088851 
L 289.118956 442.747667 
L 288.8668 240.536247 
L 260.000049 232.551123 
z
" clip-path="url(#pe1a9ce6ba1)" style="fill: #648fff"/>
    <path d="M 404.59526 438.718418 
L 410.419533 187.626331 
L 426.131247 174.218745 
L 419.570447 423.843422 
z
" clip-path="url(#pe1a9ce6ba1)" style="fill: #648fff"/>
    <path d="M 284.578424 482.475081 
L 300.972888 466.848838 
L 329.384543 475.837207 
L 313.157736 491.622823 
z
" clip-path="url(#pe1a9ce6ba1)" style="fill: #3f599f"/>
    <path d="M 244.999953 449.141127 
L 243.160502 275.731445 
L 272.026745 283.965131 
L 272.846112 457.950595 
z
" clip-path="url(#pe1a9ce6ba1)" style="fill: #324880"/>
    <path d="M 433.070776 447.423429 
L 447.876264 432.400442 
L 455.969811 181.930138 
L 440.446932 195.478229 
z
" clip-path="url(#pe1a9ce6ba1)" style="fill: #324880"/>
    <path d="M 332.91807 436.400563 
L 334.913326 187.635733 
L 364.490166 195.473327 
L 360.998882 445.08243 
z
" clip-path="url(#pe1a9ce6ba1)" style="fill: #324880"/>
    <path d="M 228.282648 464.455778 
L 225.806066 290.04709 
L 243.160502 275.731445 
L 244.999953 449.141127 
z
" clip-path="url(#pe1a9ce6ba1)" style="fill: #648fff"/>
    <path d="M 404.59526 438.718418 
L 433.070776 447.423429 
L 440.446932 195.478229 
L 410.419533 187.626331 
z
" clip-path="url(#pe1a9ce6ba1)" style="fill: #648fff"/>
    <path d="M 317.08367 451.492985 
L 318.256184 201.263119 
L 334.913326 187.635733 
L 332.91807 436.400563 
z
" clip-path="url(#pe1a9ce6ba1)" style="fill: #648fff"/>
    <path d="M 193.958332 495.900137 
L 211.271382 480.039726 
L 239.437609 489.162538 
L 222.286563 505.185927 
z
" clip-path="url(#pe1a9ce6ba1)" style="fill: #3f599f"/>
    <path d="M 342.030572 500.864517 
L 358.085427 484.917077 
L 387.07998 494.089853 
L 371.201478 510.201618 
z
" clip-path="url(#pe1a9ce6ba1)" style="fill: #3f599f"/>
    <path d="M 211.271382 480.039726 
L 209.983493 408.00814 
L 238.578508 416.898805 
L 239.437609 489.162538 
z
" clip-path="url(#pe1a9ce6ba1)" style="fill: #324880"/>
    <path d="M 256.288182 473.419865 
L 272.846112 457.950595 
L 272.026745 283.965131 
L 254.843557 298.430691 
z
" clip-path="url(#pe1a9ce6ba1)" style="fill: #324880"/>
    <path d="M 345.329159 460.32611 
L 360.998882 445.08243 
L 364.490166 195.473327 
L 348.015845 209.244565 
z
" clip-path="url(#pe1a9ce6ba1)" style="fill: #324880"/>
    <path d="M 155.788159 462.069163 
L 150.567078 285.759015 
L 179.181785 294.111924 
L 183.389661 471.009065 
z
" clip-path="url(#pe1a9ce6ba1)" style="fill: #324880"/>
    <path d="M 193.958332 495.900137 
L 192.390157 423.465849 
L 209.983493 408.00814 
L 211.271382 480.039726 
z
" clip-path="url(#pe1a9ce6ba1)" style="fill: #648fff"/>
    <path d="M 228.282648 464.455778 
L 256.288182 473.419865 
L 254.843557 298.430691 
L 225.806066 290.04709 
z
" clip-path="url(#pe1a9ce6ba1)" style="fill: #648fff"/>
    <path d="M 317.08367 451.492985 
L 345.329159 460.32611 
L 348.015845 209.244565 
L 318.256184 201.263119 
z
" clip-path="url(#pe1a9ce6ba1)" style="fill: #648fff"/>
    <path d="M 138.163485 477.610988 
L 132.227823 300.282399 
L 150.567078 285.759015 
L 155.788159 462.069163 
z
" clip-path="url(#pe1a9ce6ba1)" style="fill: #648fff"/>
    <path d="M 260.000049 232.551123 
L 288.8668 240.536247 
L 305.543178 226.757618 
L 276.84673 218.913599 
z
" clip-path="url(#pe1a9ce6ba1)" style="fill: #577ddf"/>
    <path d="M 389.360603 453.851147 
L 394.399754 202.338425 
L 424.611335 210.338601 
L 418.007469 462.708024 
z
" clip-path="url(#pe1a9ce6ba1)" style="fill: #324880"/>
    <path d="M 351.284104 173.211425 
L 380.68609 180.90523 
L 396.578757 167.629389 
L 367.356191 160.071825 
z
" clip-path="url(#pe1a9ce6ba1)" style="fill: #577ddf"/>
    <path d="M 373.859673 469.248369 
L 378.109765 216.249076 
L 394.399754 202.338425 
L 389.360603 453.851147 
z
" clip-path="url(#pe1a9ce6ba1)" style="fill: #648fff"/>
    <path d="M 300.972888 466.848838 
L 301.232186 262.780074 
L 330.886276 271.08248 
L 329.384543 475.837207 
z
" clip-path="url(#pe1a9ce6ba1)" style="fill: #324880"/>
    <path d="M 250.907944 514.567809 
L 267.892719 498.378916 
L 296.641181 507.690309 
L 279.827047 524.047283 
z
" clip-path="url(#pe1a9ce6ba1)" style="fill: #3f599f"/>
    <path d="M 222.286563 505.185927 
L 239.437609 489.162538 
L 238.578508 416.898805 
L 221.152121 432.517827 
z
" clip-path="url(#pe1a9ce6ba1)" style="fill: #324880"/>
    <path d="M 267.892719 498.378916 
L 267.646216 455.96647 
L 296.656131 465.142342 
L 296.641181 507.690309 
z
" clip-path="url(#pe1a9ce6ba1)" style="fill: #324880"/>
    <path d="M 165.918769 486.708971 
L 183.389661 471.009065 
L 179.181785 294.111924 
L 161.007665 308.788639 
z
" clip-path="url(#pe1a9ce6ba1)" style="fill: #324880"/>
    <path d="M 284.578424 482.475081 
L 284.121188 277.21612 
L 301.232186 262.780074 
L 300.972888 466.848838 
z
" clip-path="url(#pe1a9ce6ba1)" style="fill: #648fff"/>
    <path d="M 193.958332 495.900137 
L 222.286563 505.185927 
L 221.152121 432.517827 
L 192.390157 423.465849 
z
" clip-path="url(#pe1a9ce6ba1)" style="fill: #648fff"/>
    <path d="M 250.907944 514.567809 
L 250.503391 471.920298 
L 267.646216 455.96647 
L 267.892719 498.378916 
z
" clip-path="url(#pe1a9ce6ba1)" style="fill: #648fff"/>
    <path d="M 138.163485 477.610988 
L 165.918769 486.708971 
L 161.007665 308.788639 
L 132.227823 300.282399 
z
" clip-path="url(#pe1a9ce6ba1)" style="fill: #648fff"/>
    <path d="M 402.679548 478.261119 
L 418.007469 462.708024 
L 424.611335 210.338601 
L 408.514 224.397692 
z
" clip-path="url(#pe1a9ce6ba1)" style="fill: #324880"/>
    <path d="M 192.390157 423.465849 
L 221.152121 432.517827 
L 238.578508 416.898805 
L 209.983493 408.00814 
z
" clip-path="url(#pe1a9ce6ba1)" style="fill: #577ddf"/>
    <path d="M 373.859673 469.248369 
L 402.679548 478.261119 
L 408.514 224.397692 
L 378.109765 216.249076 
z
" clip-path="url(#pe1a9ce6ba1)" style="fill: #648fff"/>
    <path d="M 313.157736 491.622823 
L 329.384543 475.837207 
L 330.886276 271.08248 
L 313.957984 285.672239 
z
" clip-path="url(#pe1a9ce6ba1)" style="fill: #324880"/>
    <path d="M 279.827047 524.047283 
L 296.641181 507.690309 
L 296.656131 465.142342 
L 279.68707 481.263335 
z
" clip-path="url(#pe1a9ce6ba1)" style="fill: #324880"/>
    <path d="M 284.578424 482.475081 
L 313.157736 491.622823 
L 313.957984 285.672239 
L 284.121188 277.21612 
z
" clip-path="url(#pe1a9ce6ba1)" style="fill: #648fff"/>
    <path d="M 225.806066 290.04709 
L 254.843557 298.430691 
L 272.026745 283.965131 
L 243.160502 275.731445 
z
" clip-path="url(#pe1a9ce6ba1)" style="fill: #577ddf"/>
    <path d="M 250.907944 514.567809 
L 279.827047 524.047283 
L 279.68707 481.263335 
L 250.503391 471.920298 
z
" clip-path="url(#pe1a9ce6ba1)" style="fill: #648fff"/>
    <path d="M 250.503391 471.920298 
L 279.68707 481.263335 
L 296.656131 465.142342 
L 267.646216 455.96647 
z
" clip-path="url(#pe1a9ce6ba1)" style="fill: #577ddf"/>
    <path d="M 410.419533 187.626331 
L 440.446932 195.478229 
L 455.969811 181.930138 
L 426.131247 174.218745 
z
" clip-path="url(#pe1a9ce6ba1)" style="fill: #577ddf"/>
    <path d="M 358.085427 484.917077 
L 360.867065 278.615319 
L 391.161883 287.092513 
L 387.07998 494.089853 
z
" clip-path="url(#pe1a9ce6ba1)" style="fill: #324880"/>
    <path d="M 309.048544 533.625879 
L 325.687554 517.098192 
L 355.036493 526.604075 
L 338.577202 543.305161 
z
" clip-path="url(#pe1a9ce6ba1)" style="fill: #3f599f"/>
    <path d="M 325.687554 517.098192 
L 325.970566 474.241907 
L 355.593129 483.610653 
L 355.036493 526.604075 
z
" clip-path="url(#pe1a9ce6ba1)" style="fill: #324880"/>
    <path d="M 342.030572 500.864517 
L 344.123505 293.355903 
L 360.867065 278.615319 
L 358.085427 484.917077 
z
" clip-path="url(#pe1a9ce6ba1)" style="fill: #648fff"/>
    <path d="M 309.048544 533.625879 
L 309.179262 490.531736 
L 325.970566 474.241907 
L 325.687554 517.098192 
z
" clip-path="url(#pe1a9ce6ba1)" style="fill: #648fff"/>
    <path d="M 318.256184 201.263119 
L 348.015845 209.244565 
L 364.490166 195.473327 
L 334.913326 187.635733 
z
" clip-path="url(#pe1a9ce6ba1)" style="fill: #577ddf"/>
    <path d="M 132.227823 300.282399 
L 161.007665 308.788639 
L 179.181785 294.111924 
L 150.567078 285.759015 
z
" clip-path="url(#pe1a9ce6ba1)" style="fill: #577ddf"/>
    <path d="M 371.201478 510.201618 
L 387.07998 494.089853 
L 391.161883 287.092513 
L 374.610998 301.991771 
z
" clip-path="url(#pe1a9ce6ba1)" style="fill: #324880"/>
    <path d="M 338.577202 543.305161 
L 355.036493 526.604075 
L 355.593129 483.610653 
L 338.984932 500.072982 
z
" clip-path="url(#pe1a9ce6ba1)" style="fill: #324880"/>
    <path d="M 342.030572 500.864517 
L 371.201478 510.201618 
L 374.610998 301.991771 
L 344.123505 293.355903 
z
" clip-path="url(#pe1a9ce6ba1)" style="fill: #648fff"/>
    <path d="M 309.048544 533.625879 
L 338.577202 543.305161 
L 338.984932 500.072982 
L 309.179262 490.531736 
z
" clip-path="url(#pe1a9ce6ba1)" style="fill: #648fff"/>
    <path d="M 309.179262 490.531736 
L 338.984932 500.072982 
L 355.593129 483.610653 
L 325.970566 474.241907 
z
" clip-path="url(#pe1a9ce6ba1)" style="fill: #577ddf"/>
    <path d="M 284.121188 277.21612 
L 313.957984 285.672239 
L 330.886276 271.08248 
L 301.232186 262.780074 
z
" clip-path="url(#pe1a9ce6ba1)" style="fill: #577ddf"/>
    <path d="M 378.109765 216.249076 
L 408.514 224.397692 
L 424.611335 210.338601 
L 394.399754 202.338425 
z
" clip-path="url(#pe1a9ce6ba1)" style="fill: #577ddf"/>
    <path d="M 344.123505 293.355903 
L 374.610998 301.991771 
L 391.161883 287.092513 
L 360.867065 278.615319 
z
" clip-path="url(#pe1a9ce6ba1)" style="fill: #577ddf"/>
   </g>
   <g id="text_13">
    <!-- Real Amplitude (ρ) -->
    <g transform="translate(190.023516 51.6) scale(0.21 -0.21)">
     <defs>
      <path id="DejaVuSans-52" d="M 2841 2188 
Q 3044 2119 3236 1894 
Q 3428 1669 3622 1275 
L 4263 0 
L 3584 0 
L 2988 1197 
Q 2756 1666 2539 1819 
Q 2322 1972 1947 1972 
L 1259 1972 
L 1259 0 
L 628 0 
L 628 4666 
L 2053 4666 
Q 2853 4666 3247 4331 
Q 3641 3997 3641 3322 
Q 3641 2881 3436 2590 
Q 3231 2300 2841 2188 
z
M 1259 4147 
L 1259 2491 
L 2053 2491 
Q 2509 2491 2742 2702 
Q 2975 2913 2975 3322 
Q 2975 3731 2742 3939 
Q 2509 4147 2053 4147 
L 1259 4147 
z
" transform="scale(0.015625)"/>
      <path id="DejaVuSans-65" d="M 3597 1894 
L 3597 1613 
L 953 1613 
Q 991 1019 1311 708 
Q 1631 397 2203 397 
Q 2534 397 2845 478 
Q 3156 559 3463 722 
L 3463 178 
Q 3153 47 2828 -22 
Q 2503 -91 2169 -91 
Q 1331 -91 842 396 
Q 353 884 353 1716 
Q 353 2575 817 3079 
Q 1281 3584 2069 3584 
Q 2775 3584 3186 3129 
Q 3597 2675 3597 1894 
z
M 3022 2063 
Q 3016 2534 2758 2815 
Q 2500 3097 2075 3097 
Q 1594 3097 1305 2825 
Q 1016 2553 972 2059 
L 3022 2063 
z
" transform="scale(0.015625)"/>
      <path id="DejaVuSans-61" d="M 2194 1759 
Q 1497 1759 1228 1600 
Q 959 1441 959 1056 
Q 959 750 1161 570 
Q 1363 391 1709 391 
Q 2188 391 2477 730 
Q 2766 1069 2766 1631 
L 2766 1759 
L 2194 1759 
z
M 3341 1997 
L 3341 0 
L 2766 0 
L 2766 531 
Q 2569 213 2275 61 
Q 1981 -91 1556 -91 
Q 1019 -91 701 211 
Q 384 513 384 1019 
Q 384 1609 779 1909 
Q 1175 2209 1959 2209 
L 2766 2209 
L 2766 2266 
Q 2766 2663 2505 2880 
Q 2244 3097 1772 3097 
Q 1472 3097 1187 3025 
Q 903 2953 641 2809 
L 641 3341 
Q 956 3463 1253 3523 
Q 1550 3584 1831 3584 
Q 2591 3584 2966 3190 
Q 3341 2797 3341 1997 
z
" transform="scale(0.015625)"/>
      <path id="DejaVuSans-6c" d="M 603 4863 
L 1178 4863 
L 1178 0 
L 603 0 
L 603 4863 
z
" transform="scale(0.015625)"/>
      <path id="DejaVuSans-20" transform="scale(0.015625)"/>
      <path id="DejaVuSans-41" d="M 2188 4044 
L 1331 1722 
L 3047 1722 
L 2188 4044 
z
M 1831 4666 
L 2547 4666 
L 4325 0 
L 3669 0 
L 3244 1197 
L 1141 1197 
L 716 0 
L 50 0 
L 1831 4666 
z
" transform="scale(0.015625)"/>
      <path id="DejaVuSans-6d" d="M 3328 2828 
Q 3544 3216 3844 3400 
Q 4144 3584 4550 3584 
Q 5097 3584 5394 3201 
Q 5691 2819 5691 2113 
L 5691 0 
L 5113 0 
L 5113 2094 
Q 5113 2597 4934 2840 
Q 4756 3084 4391 3084 
Q 3944 3084 3684 2787 
Q 3425 2491 3425 1978 
L 3425 0 
L 2847 0 
L 2847 2094 
Q 2847 2600 2669 2842 
Q 2491 3084 2119 3084 
Q 1678 3084 1418 2786 
Q 1159 2488 1159 1978 
L 1159 0 
L 581 0 
L 581 3500 
L 1159 3500 
L 1159 2956 
Q 1356 3278 1631 3431 
Q 1906 3584 2284 3584 
Q 2666 3584 2933 3390 
Q 3200 3197 3328 2828 
z
" transform="scale(0.015625)"/>
      <path id="DejaVuSans-70" d="M 1159 525 
L 1159 -1331 
L 581 -1331 
L 581 3500 
L 1159 3500 
L 1159 2969 
Q 1341 3281 1617 3432 
Q 1894 3584 2278 3584 
Q 2916 3584 3314 3078 
Q 3713 2572 3713 1747 
Q 3713 922 3314 415 
Q 2916 -91 2278 -91 
Q 1894 -91 1617 61 
Q 1341 213 1159 525 
z
M 3116 1747 
Q 3116 2381 2855 2742 
Q 2594 3103 2138 3103 
Q 1681 3103 1420 2742 
Q 1159 2381 1159 1747 
Q 1159 1113 1420 752 
Q 1681 391 2138 391 
Q 2594 391 2855 752 
Q 3116 1113 3116 1747 
z
" transform="scale(0.015625)"/>
      <path id="DejaVuSans-69" d="M 603 3500 
L 1178 3500 
L 1178 0 
L 603 0 
L 603 3500 
z
M 603 4863 
L 1178 4863 
L 1178 4134 
L 603 4134 
L 603 4863 
z
" transform="scale(0.015625)"/>
      <path id="DejaVuSans-74" d="M 1172 4494 
L 1172 3500 
L 2356 3500 
L 2356 3053 
L 1172 3053 
L 1172 1153 
Q 1172 725 1289 603 
Q 1406 481 1766 481 
L 2356 481 
L 2356 0 
L 1766 0 
Q 1100 0 847 248 
Q 594 497 594 1153 
L 594 3053 
L 172 3053 
L 172 3500 
L 594 3500 
L 594 4494 
L 1172 4494 
z
" transform="scale(0.015625)"/>
      <path id="DejaVuSans-75" d="M 544 1381 
L 544 3500 
L 1119 3500 
L 1119 1403 
Q 1119 906 1312 657 
Q 1506 409 1894 409 
Q 2359 409 2629 706 
Q 2900 1003 2900 1516 
L 2900 3500 
L 3475 3500 
L 3475 0 
L 2900 0 
L 2900 538 
Q 2691 219 2414 64 
Q 2138 -91 1772 -91 
Q 1169 -91 856 284 
Q 544 659 544 1381 
z
M 1991 3584 
L 1991 3584 
z
" transform="scale(0.015625)"/>
      <path id="DejaVuSans-64" d="M 2906 2969 
L 2906 4863 
L 3481 4863 
L 3481 0 
L 2906 0 
L 2906 525 
Q 2725 213 2448 61 
Q 2172 -91 1784 -91 
Q 1150 -91 751 415 
Q 353 922 353 1747 
Q 353 2572 751 3078 
Q 1150 3584 1784 3584 
Q 2172 3584 2448 3432 
Q 2725 3281 2906 2969 
z
M 947 1747 
Q 947 1113 1208 752 
Q 1469 391 1925 391 
Q 2381 391 2643 752 
Q 2906 1113 2906 1747 
Q 2906 2381 2643 2742 
Q 2381 3103 1925 3103 
Q 1469 3103 1208 2742 
Q 947 2381 947 1747 
z
" transform="scale(0.015625)"/>
      <path id="DejaVuSans-28" d="M 1984 4856 
Q 1566 4138 1362 3434 
Q 1159 2731 1159 2009 
Q 1159 1288 1364 580 
Q 1569 -128 1984 -844 
L 1484 -844 
Q 1016 -109 783 600 
Q 550 1309 550 2009 
Q 550 2706 781 3412 
Q 1013 4119 1484 4856 
L 1984 4856 
z
" transform="scale(0.015625)"/>
      <path id="DejaVuSans-3c1" d="M 863 2875 
Q 1053 3194 1525 3475 
Q 1709 3584 2278 3584 
Q 2916 3584 3314 3078 
Q 3713 2572 3713 1747 
Q 3713 922 3314 415 
Q 2916 -91 2278 -91 
Q 1894 -91 1617 61 
Q 1341 213 1159 525 
L 1159 -1331 
L 581 -1331 
L 581 1716 
Q 581 2438 863 2875 
z
M 3116 1747 
Q 3116 2381 2855 2742 
Q 2594 3103 2138 3103 
Q 1681 3103 1420 2742 
Q 1159 2381 1159 1747 
Q 1159 1113 1420 752 
Q 1681 391 2138 391 
Q 2594 391 2855 752 
Q 3116 1113 3116 1747 
z
" transform="scale(0.015625)"/>
      <path id="DejaVuSans-29" d="M 513 4856 
L 1013 4856 
Q 1481 4119 1714 3412 
Q 1947 2706 1947 2009 
Q 1947 1309 1714 600 
Q 1481 -109 1013 -844 
L 513 -844 
Q 928 -128 1133 580 
Q 1338 1288 1338 2009 
Q 1338 2731 1133 3434 
Q 928 4138 513 4856 
z
" transform="scale(0.015625)"/>
     </defs>
     <use xlink:href="#DejaVuSans-52"/>
     <use xlink:href="#DejaVuSans-65" x="64.982422"/>
     <use xlink:href="#DejaVuSans-61" x="126.505859"/>
     <use xlink:href="#DejaVuSans-6c" x="187.785156"/>
     <use xlink:href="#DejaVuSans-20" x="215.568359"/>
     <use xlink:href="#DejaVuSans-41" x="247.355469"/>
     <use xlink:href="#DejaVuSans-6d" x="315.763672"/>
     <use xlink:href="#DejaVuSans-70" x="413.175781"/>
     <use xlink:href="#DejaVuSans-6c" x="476.652344"/>
     <use xlink:href="#DejaVuSans-69" x="504.435547"/>
     <use xlink:href="#DejaVuSans-74" x="532.21875"/>
     <use xlink:href="#DejaVuSans-75" x="571.427734"/>
     <use xlink:href="#DejaVuSans-64" x="634.806641"/>
     <use xlink:href="#DejaVuSans-65" x="698.283203"/>
     <use xlink:href="#DejaVuSans-20" x="759.806641"/>
     <use xlink:href="#DejaVuSans-28" x="791.59375"/>
     <use xlink:href="#DejaVuSans-3c1" x="830.607422"/>
     <use xlink:href="#DejaVuSans-29" x="894.083984"/>
    </g>
   </g>
  </g>
  <g id="patch_6">
   <path d="M 604.8 576 
L 1123.2 576 
L 1123.2 57.6 
L 604.8 57.6 
z
" style="fill: #ffffff"/>
  </g>
  <g id="pane3d_4">
   <g id="patch_7">
    <path d="M 706.07018 436.456468 
L 829.494133 330.550231 
L 827.743197 126.70673 
L 698.643358 223.613571 
" style="fill: #f2f2f2; opacity: 0.5; stroke: #f2f2f2; stroke-linejoin: miter"/>
   </g>
  </g>
  <g id="pane3d_5">
   <g id="patch_8">
    <path d="M 829.494133 330.550231 
L 1031.554898 390.069341 
L 1038.583588 181.103065 
L 827.743197 126.70673 
" style="fill: #e6e6e6; opacity: 0.5; stroke: #e6e6e6; stroke-linejoin: miter"/>
   </g>
  </g>
  <g id="pane3d_6">
   <g id="patch_9">
    <path d="M 706.07018 436.456468 
L 916.912731 504.076731 
L 1031.554898 390.069341 
L 829.494133 330.550231 
" style="fill: #ececec; opacity: 0.5; stroke: #ececec; stroke-linejoin: miter"/>
   </g>
  </g>
  <g id="grid3d_4">
   <g id="Line3DCollection_4">
    <path d="M 734.635886 445.617904 
L 856.925726 338.630493 
L 856.328796 134.081748 
" style="fill: none; stroke: #b0b0b0; stroke-width: 0.8"/>
    <path d="M 784.310046 461.549127 
L 904.58611 352.669358 
L 906.022474 146.902603 
" style="fill: none; stroke: #b0b0b0; stroke-width: 0.8"/>
    <path d="M 834.89502 477.772462 
L 953.066152 366.949661 
L 956.607663 159.953465 
" style="fill: none; stroke: #b0b0b0; stroke-width: 0.8"/>
    <path d="M 886.41609 494.296016 
L 1002.38718 381.477685 
L 1008.108569 173.24058 
" style="fill: none; stroke: #b0b0b0; stroke-width: 0.8"/>
   </g>
  </g>
  <g id="grid3d_5">
   <g id="Line3DCollection_5">
    <path d="M 717.757365 209.265931 
L 724.301379 420.812846 
L 933.880707 487.202708 
" style="fill: none; stroke: #b0b0b0; stroke-width: 0.8"/>
    <path d="M 749.704273 185.285468 
L 754.805664 394.638072 
L 962.24502 458.995448 
" style="fill: none; stroke: #b0b0b0; stroke-width: 0.8"/>
    <path d="M 780.65707 162.051218 
L 784.400054 369.24405 
L 989.731787 431.660877 
" style="fill: none; stroke: #b0b0b0; stroke-width: 0.8"/>
    <path d="M 810.661448 139.528886 
L 813.124663 344.596362 
L 1016.38111 405.159111 
" style="fill: none; stroke: #b0b0b0; stroke-width: 0.8"/>
   </g>
  </g>
  <g id="grid3d_6">
   <g id="Line3DCollection_6">
    <path d="M 1032.085409 374.297008 
L 829.361788 315.14273 
L 705.510239 420.409299 
" style="fill: none; stroke: #b0b0b0; stroke-width: 0.8"/>
    <path d="M 1033.359025 336.431791 
L 829.044189 278.167941 
L 704.165555 381.872445 
" style="fill: none; stroke: #b0b0b0; stroke-width: 0.8"/>
    <path d="M 1034.652942 297.963022 
L 828.721709 240.624835 
L 702.798841 342.704221 
" style="fill: none; stroke: #b0b0b0; stroke-width: 0.8"/>
    <path d="M 1035.967649 258.876153 
L 828.394233 202.500206 
L 701.40955 302.888982 
" style="fill: none; stroke: #b0b0b0; stroke-width: 0.8"/>
    <path d="M 1037.303652 219.156169 
L 828.061645 163.780439 
L 699.997119 262.410562 
" style="fill: none; stroke: #b0b0b0; stroke-width: 0.8"/>
   </g>
  </g>
  <g id="axis3d_4">
   <g id="line2d_16">
    <path d="M 706.07018 436.456468 
L 916.912731 504.076731 
" style="fill: none; stroke: #000000; stroke-width: 0.8; stroke-linecap: square"/>
   </g>
   <g id="xtick_13">
    <g id="line2d_17">
     <path d="M 735.677227 444.706868 
L 732.549953 447.442819 
" style="fill: none; stroke: #000000; stroke-width: 0.8; stroke-linecap: square"/>
    </g>
    <g id="text_14">
     <!-- 00 -->
     <g transform="translate(707.351686 489.365693) rotate(-45) scale(0.21 -0.21)">
      <use xlink:href="#DejaVuSans-30"/>
      <use xlink:href="#DejaVuSans-30" x="63.623047"/>
     </g>
    </g>
   </g>
   <g id="xtick_14">
    <g id="line2d_18">
     <path d="M 785.334802 460.621468 
L 782.257306 463.407368 
" style="fill: none; stroke: #000000; stroke-width: 0.8; stroke-linecap: square"/>
    </g>
    <g id="text_15">
     <!-- 01 -->
     <g transform="translate(757.023931 505.435143) rotate(-45) scale(0.21 -0.21)">
      <use xlink:href="#DejaVuSans-30"/>
      <use xlink:href="#DejaVuSans-31" x="63.623047"/>
     </g>
    </g>
   </g>
   <g id="xtick_15">
    <g id="line2d_19">
     <path d="M 835.902405 476.82772 
L 832.877048 479.664949 
" style="fill: none; stroke: #000000; stroke-width: 0.8; stroke-linecap: square"/>
    </g>
    <g id="text_16">
     <!-- 10 -->
     <g transform="translate(807.60781 521.799516) rotate(-45) scale(0.21 -0.21)">
      <use xlink:href="#DejaVuSans-31"/>
      <use xlink:href="#DejaVuSans-30" x="63.623047"/>
     </g>
    </g>
   </g>
   <g id="xtick_16">
    <g id="line2d_20">
     <path d="M 887.405283 493.333715 
L 884.434531 496.223705 
" style="fill: none; stroke: #000000; stroke-width: 0.8; stroke-linecap: square"/>
    </g>
    <g id="text_17">
     <!-- 11 -->
     <g transform="translate(859.128654 538.467006) rotate(-45) scale(0.21 -0.21)">
      <use xlink:href="#DejaVuSans-31"/>
      <use xlink:href="#DejaVuSans-31" x="63.623047"/>
     </g>
    </g>
   </g>
  </g>
  <g id="axis3d_5">
   <g id="line2d_21">
    <path d="M 1031.554898 390.069341 
L 916.912731 504.076731 
" style="fill: none; stroke: #000000; stroke-width: 0.8; stroke-linecap: square"/>
   </g>
   <g id="xtick_17">
    <g id="line2d_22">
     <path d="M 932.140222 486.651363 
L 937.364886 488.306415 
" style="fill: none; stroke: #000000; stroke-width: 0.8; stroke-linecap: square"/>
    </g>
    <g id="text_18">
     <!-- 00 -->
     <g transform="translate(944.70027 499.207917) rotate(-337.5) scale(0.21 -0.21)">
      <use xlink:href="#DejaVuSans-30"/>
      <use xlink:href="#DejaVuSans-30" x="63.623047"/>
     </g>
    </g>
   </g>
   <g id="xtick_18">
    <g id="line2d_23">
     <path d="M 960.5233 458.46129 
L 965.691587 460.064734 
" style="fill: none; stroke: #000000; stroke-width: 0.8; stroke-linecap: square"/>
    </g>
    <g id="text_19">
     <!-- 01 -->
     <g transform="translate(972.913817 470.822876) rotate(-337.5) scale(0.21 -0.21)">
      <use xlink:href="#DejaVuSans-30"/>
      <use xlink:href="#DejaVuSans-31" x="63.623047"/>
     </g>
    </g>
   </g>
   <g id="xtick_19">
    <g id="line2d_24">
     <path d="M 988.028511 431.143114 
L 993.141381 432.697327 
" style="fill: none; stroke: #000000; stroke-width: 0.8; stroke-linecap: square"/>
    </g>
    <g id="text_20">
     <!-- 10 -->
     <g transform="translate(1000.254695 443.315808) rotate(-337.5) scale(0.21 -0.21)">
      <use xlink:href="#DejaVuSans-31"/>
      <use xlink:href="#DejaVuSans-30" x="63.623047"/>
     </g>
    </g>
   </g>
   <g id="xtick_20">
    <g id="line2d_25">
     <path d="M 1014.695964 404.657001 
L 1019.754368 406.164215 
" style="fill: none; stroke: #000000; stroke-width: 0.8; stroke-linecap: square"/>
    </g>
    <g id="text_21">
     <!-- 11 -->
     <g transform="translate(1026.762776 416.646599) rotate(-337.5) scale(0.21 -0.21)">
      <use xlink:href="#DejaVuSans-31"/>
      <use xlink:href="#DejaVuSans-31" x="63.623047"/>
     </g>
    </g>
   </g>
  </g>
  <g id="axis3d_6">
   <g id="line2d_26">
    <path d="M 1031.554898 390.069341 
L 1038.583588 181.103065 
" style="fill: none; stroke: #000000; stroke-width: 0.8; stroke-linecap: square"/>
   </g>
   <g id="xtick_21">
    <g id="line2d_27">
     <path d="M 1030.405006 373.80667 
L 1035.449155 375.278541 
" style="fill: none; stroke: #000000; stroke-width: 0.8; stroke-linecap: square"/>
    </g>
    <g id="text_22">
     <!-- −0.2 -->
     <g transform="translate(1045.608636 368.02019) scale(0.21 -0.21)">
      <defs>
       <path id="DejaVuSans-2212" d="M 678 2272 
L 4684 2272 
L 4684 1741 
L 678 1741 
L 678 2272 
z
" transform="scale(0.015625)"/>
      </defs>
      <use xlink:href="#DejaVuSans-2212"/>
      <use xlink:href="#DejaVuSans-30" x="83.789062"/>
      <use xlink:href="#DejaVuSans-2e" x="147.412109"/>
      <use xlink:href="#DejaVuSans-32" x="179.199219"/>
     </g>
    </g>
   </g>
   <g id="xtick_22">
    <g id="line2d_28">
     <path d="M 1031.664965 335.948701 
L 1036.750132 337.398823 
" style="fill: none; stroke: #000000; stroke-width: 0.8; stroke-linecap: square"/>
    </g>
    <g id="text_23">
     <!-- −0.1 -->
     <g transform="translate(1046.987597 330.183209) scale(0.21 -0.21)">
      <use xlink:href="#DejaVuSans-2212"/>
      <use xlink:href="#DejaVuSans-30" x="83.789062"/>
      <use xlink:href="#DejaVuSans-2e" x="147.412109"/>
      <use xlink:href="#DejaVuSans-31" x="179.199219"/>
     </g>
    </g>
   </g>
   <g id="xtick_23">
    <g id="line2d_29">
     <path d="M 1032.945002 297.487474 
L 1038.071859 298.914963 
" style="fill: none; stroke: #000000; stroke-width: 0.8; stroke-linecap: square"/>
    </g>
    <g id="text_24">
     <!-- 0.0 -->
     <g transform="translate(1048.388513 291.743822) scale(0.21 -0.21)">
      <use xlink:href="#DejaVuSans-30"/>
      <use xlink:href="#DejaVuSans-2e" x="63.623047"/>
      <use xlink:href="#DejaVuSans-30" x="95.410156"/>
     </g>
    </g>
   </g>
   <g id="xtick_24">
    <g id="line2d_30">
     <path d="M 1034.2456 258.408453 
L 1039.414835 259.812392 
" style="fill: none; stroke: #000000; stroke-width: 0.8; stroke-linecap: square"/>
    </g>
    <g id="text_25">
     <!-- 0.1 -->
     <g transform="translate(1049.811913 252.687526) scale(0.21 -0.21)">
      <use xlink:href="#DejaVuSans-30"/>
      <use xlink:href="#DejaVuSans-2e" x="63.623047"/>
      <use xlink:href="#DejaVuSans-31" x="95.410156"/>
     </g>
    </g>
   </g>
   <g id="xtick_25">
    <g id="line2d_31">
     <path d="M 1035.567258 218.696634 
L 1040.779577 220.07607 
" style="fill: none; stroke: #000000; stroke-width: 0.8; stroke-linecap: square"/>
    </g>
    <g id="text_26">
     <!-- 0.2 -->
     <g transform="translate(1051.258341 212.99935) scale(0.21 -0.21)">
      <use xlink:href="#DejaVuSans-30"/>
      <use xlink:href="#DejaVuSans-2e" x="63.623047"/>
      <use xlink:href="#DejaVuSans-32" x="95.410156"/>
     </g>
    </g>
   </g>
  </g>
  <g id="axes_2">
   <g id="Poly3DCollection_2">
    <path d="M 905.163405 304.785686 
L 905.163405 304.785686 
L 930.433954 312.014023 
L 930.433954 312.014023 
z
" clip-path="url(#p929682bb97)" style="fill: #648fff"/>
    <path d="M 890.880129 317.346745 
L 890.880129 317.346745 
L 905.163405 304.785686 
L 905.163405 304.785686 
z
" clip-path="url(#p929682bb97)" style="fill: #324880"/>
    <path d="M 890.880129 317.346745 
L 905.163405 304.785686 
L 930.433954 312.014023 
L 916.283865 324.688369 
z
" clip-path="url(#p929682bb97)" style="fill: #3f599f"/>
    <path d="M 890.880129 317.346745 
L 916.283865 324.688369 
L 930.433954 312.014023 
L 905.163405 304.785686 
z
" clip-path="url(#p929682bb97)" style="fill: #577ddf"/>
    <path d="M 916.283865 324.688369 
L 930.433954 312.014023 
L 930.433954 312.014023 
L 916.283865 324.688369 
z
" clip-path="url(#p929682bb97)" style="fill: #648fff"/>
    <path d="M 890.880129 317.346745 
L 916.283865 324.688369 
L 916.283865 324.688369 
L 890.880129 317.346745 
z
" clip-path="url(#p929682bb97)" style="fill: #324880"/>
    <path d="M 955.932038 319.307444 
L 955.932038 319.307444 
L 981.660745 326.666831 
L 981.660745 326.666831 
z
" clip-path="url(#p929682bb97)" style="fill: #648fff"/>
    <path d="M 941.918133 332.096617 
L 941.918133 332.096617 
L 955.932038 319.307444 
L 955.932038 319.307444 
z
" clip-path="url(#p929682bb97)" style="fill: #324880"/>
    <path d="M 781.657523 427.618861 
L 806.744221 435.514056 
L 821.84997 421.884359 
L 796.890629 414.111844 
z
" clip-path="url(#p929682bb97)" style="fill: #577ddf"/>
    <path d="M 941.918133 332.096617 
L 955.932038 319.307444 
L 981.660745 326.666831 
L 967.786085 339.572398 
z
" clip-path="url(#p929682bb97)" style="fill: #3f599f"/>
    <path d="M 941.918133 332.096617 
L 967.786085 339.572398 
L 981.660745 326.666831 
L 955.932038 319.307444 
z
" clip-path="url(#p929682bb97)" style="fill: #577ddf"/>
    <path d="M 745.757998 326.136234 
L 745.757998 326.136234 
L 770.640675 333.557656 
L 770.640675 333.557656 
z
" clip-path="url(#p929682bb97)" style="fill: #648fff"/>
    <path d="M 876.372623 330.104997 
L 876.349111 351.277696 
L 901.774626 358.798438 
L 901.910626 337.562593 
z
" clip-path="url(#p929682bb97)" style="fill: #648fff"/>
    <path d="M 795.750388 341.046793 
L 796.890629 414.111844 
L 821.84997 421.884359 
L 821.090258 348.604576 
z
" clip-path="url(#p929682bb97)" style="fill: #648fff"/>
    <path d="M 730.026093 339.033391 
L 730.026093 339.033391 
L 745.757998 326.136234 
L 745.757998 326.136234 
z
" clip-path="url(#p929682bb97)" style="fill: #324880"/>
    <path d="M 861.635565 343.065123 
L 861.676935 364.347368 
L 876.349111 351.277696 
L 876.372623 330.104997 
z
" clip-path="url(#p929682bb97)" style="fill: #324880"/>
    <path d="M 861.676935 364.347368 
L 887.236603 371.987325 
L 901.774626 358.798438 
L 876.349111 351.277696 
z
" clip-path="url(#p929682bb97)" style="fill: #577ddf"/>
    <path d="M 967.786085 339.572398 
L 981.660745 326.666831 
L 981.660745 326.666831 
L 967.786085 339.572398 
z
" clip-path="url(#p929682bb97)" style="fill: #648fff"/>
    <path d="M 832.229163 463.959151 
L 857.666984 472.058202 
L 872.444448 458.076802 
L 847.138813 450.104192 
z
" clip-path="url(#p929682bb97)" style="fill: #577ddf"/>
    <path d="M 780.271975 354.181323 
L 781.657523 427.618861 
L 796.890629 414.111844 
L 795.750388 341.046793 
z
" clip-path="url(#p929682bb97)" style="fill: #324880"/>
    <path d="M 941.918133 332.096617 
L 967.786085 339.572398 
L 967.786085 339.572398 
L 941.918133 332.096617 
z
" clip-path="url(#p929682bb97)" style="fill: #324880"/>
    <path d="M 730.026093 339.033391 
L 745.757998 326.136234 
L 770.640675 333.557656 
L 755.034036 346.572688 
z
" clip-path="url(#p929682bb97)" style="fill: #3f599f"/>
    <path d="M 730.026093 339.033391 
L 755.034036 346.572688 
L 770.640675 333.557656 
L 745.757998 326.136234 
z
" clip-path="url(#p929682bb97)" style="fill: #577ddf"/>
    <path d="M 755.034036 346.572688 
L 770.640675 333.557656 
L 770.640675 333.557656 
L 755.034036 346.572688 
z
" clip-path="url(#p929682bb97)" style="fill: #648fff"/>
    <path d="M 861.635565 343.065123 
L 876.372623 330.104997 
L 901.910626 337.562593 
L 887.308915 350.64146 
z
" clip-path="url(#p929682bb97)" style="fill: #3f599f"/>
    <path d="M 887.308915 350.64146 
L 901.910626 337.562593 
L 901.774626 358.798438 
L 887.236603 371.987325 
z
" clip-path="url(#p929682bb97)" style="fill: #648fff"/>
    <path d="M 805.743097 361.860257 
L 821.090258 348.604576 
L 821.84997 421.884359 
L 806.744221 435.514056 
z
" clip-path="url(#p929682bb97)" style="fill: #648fff"/>
    <path d="M 730.026093 339.033391 
L 755.034036 346.572688 
L 755.034036 346.572688 
L 730.026093 339.033391 
z
" clip-path="url(#p929682bb97)" style="fill: #324880"/>
    <path d="M 861.635565 343.065123 
L 887.308915 350.64146 
L 887.236603 371.987325 
L 861.676935 364.347368 
z
" clip-path="url(#p929682bb97)" style="fill: #324880"/>
    <path d="M 846.663463 356.231952 
L 847.138813 450.104192 
L 872.444448 458.076802 
L 872.473242 363.929889 
z
" clip-path="url(#p929682bb97)" style="fill: #648fff"/>
    <path d="M 927.682214 345.0884 
L 927.430672 366.472463 
L 953.321957 374.131367 
L 953.690608 352.683359 
z
" clip-path="url(#p929682bb97)" style="fill: #648fff"/>
    <path d="M 780.271975 354.181323 
L 805.743097 361.860257 
L 806.744221 435.514056 
L 781.657523 427.618861 
z
" clip-path="url(#p929682bb97)" style="fill: #324880"/>
    <path d="M 831.450649 369.61047 
L 832.229163 463.959151 
L 847.138813 450.104192 
L 846.663463 356.231952 
z
" clip-path="url(#p929682bb97)" style="fill: #324880"/>
    <path d="M 913.218964 358.287647 
L 913.030123 379.782639 
L 927.430672 366.472463 
L 927.682214 345.0884 
z
" clip-path="url(#p929682bb97)" style="fill: #324880"/>
    <path d="M 913.030123 379.782639 
L 939.061768 387.564067 
L 953.321957 374.131367 
L 927.430672 366.472463 
z
" clip-path="url(#p929682bb97)" style="fill: #577ddf"/>
    <path d="M 883.337424 480.603576 
L 909.243605 488.853463 
L 923.746364 474.612105 
L 897.978509 466.492174 
z
" clip-path="url(#p929682bb97)" style="fill: #577ddf"/>
    <path d="M 780.271975 354.181323 
L 795.750388 341.046793 
L 821.090258 348.604576 
L 805.743097 361.860257 
z
" clip-path="url(#p929682bb97)" style="fill: #3f599f"/>
    <path d="M 857.397939 377.432957 
L 872.473242 363.929889 
L 872.444448 458.076802 
L 857.666984 472.058202 
z
" clip-path="url(#p929682bb97)" style="fill: #648fff"/>
    <path d="M 913.218964 358.287647 
L 927.682214 345.0884 
L 953.690608 352.683359 
L 939.369001 366.004657 
z
" clip-path="url(#p929682bb97)" style="fill: #3f599f"/>
    <path d="M 939.369001 366.004657 
L 953.690608 352.683359 
L 953.321957 374.131367 
L 939.061768 387.564067 
z
" clip-path="url(#p929682bb97)" style="fill: #648fff"/>
    <path d="M 831.450649 369.61047 
L 857.397939 377.432957 
L 857.666984 472.058202 
L 832.229163 463.959151 
z
" clip-path="url(#p929682bb97)" style="fill: #324880"/>
    <path d="M 913.218964 358.287647 
L 939.369001 366.004657 
L 939.061768 387.564067 
L 913.030123 379.782639 
z
" clip-path="url(#p929682bb97)" style="fill: #324880"/>
    <path d="M 898.522893 371.699368 
L 897.978509 466.492174 
L 923.746364 474.612105 
L 924.815776 379.541394 
z
" clip-path="url(#p929682bb97)" style="fill: #648fff"/>
    <path d="M 883.588334 385.328735 
L 883.337424 480.603576 
L 897.978509 466.492174 
L 898.522893 371.699368 
z
" clip-path="url(#p929682bb97)" style="fill: #324880"/>
    <path d="M 831.450649 369.61047 
L 846.663463 356.231952 
L 872.473242 363.929889 
L 857.397939 377.432957 
z
" clip-path="url(#p929682bb97)" style="fill: #3f599f"/>
    <path d="M 910.02527 393.298839 
L 924.815776 379.541394 
L 923.746364 474.612105 
L 909.243605 488.853463 
z
" clip-path="url(#p929682bb97)" style="fill: #648fff"/>
    <path d="M 883.588334 385.328735 
L 910.02527 393.298839 
L 909.243605 488.853463 
L 883.337424 480.603576 
z
" clip-path="url(#p929682bb97)" style="fill: #324880"/>
    <path d="M 883.588334 385.328735 
L 898.522893 371.699368 
L 924.815776 379.541394 
L 910.02527 393.298839 
z
" clip-path="url(#p929682bb97)" style="fill: #3f599f"/>
   </g>
   <g id="Poly3DCollection_3">
    <path d="M 709.617025 341.78498 
L 915.888106 404.30823 
L 1028.192248 298.834065 
L 830.333713 243.6519 
z
" clip-path="url(#p929682bb97)" style="fill-opacity: 0.25"/>
   </g>
   <g id="Poly3DCollection_4">
    <path d="M 820.861163 264.565986 
L 835.207761 252.804517 
L 859.35693 259.573447 
L 845.130412 271.437537 
z
" clip-path="url(#p929682bb97)" style="fill: #3f599f"/>
    <path d="M 835.207761 252.804517 
L 834.523584 158.953783 
L 859.133317 165.437837 
L 859.35693 259.573447 
z
" clip-path="url(#p929682bb97)" style="fill: #324880"/>
    <path d="M 883.716469 266.401342 
L 883.770667 245.52161 
L 908.448809 252.347008 
L 908.289137 273.288977 
z
" clip-path="url(#p929682bb97)" style="fill: #324880"/>
    <path d="M 820.861163 264.565986 
L 819.895428 170.22095 
L 834.523584 158.953783 
L 835.207761 252.804517 
z
" clip-path="url(#p929682bb97)" style="fill: #648fff"/>
    <path d="M 869.612683 278.369403 
L 869.606699 257.381692 
L 883.770667 245.52161 
L 883.716469 266.401342 
z
" clip-path="url(#p929682bb97)" style="fill: #648fff"/>
    <path d="M 869.612683 278.369403 
L 883.716469 266.401342 
L 908.289137 273.288977 
L 894.310793 285.362381 
z
" clip-path="url(#p929682bb97)" style="fill: #3f599f"/>
    <path d="M 845.130412 271.437537 
L 859.35693 259.573447 
L 859.133317 165.437837 
L 844.629862 176.805211 
z
" clip-path="url(#p929682bb97)" style="fill: #324880"/>
    <path d="M 869.606699 257.381692 
L 894.411367 264.311933 
L 908.448809 252.347008 
L 883.770667 245.52161 
z
" clip-path="url(#p929682bb97)" style="fill: #577ddf"/>
    <path d="M 894.310793 285.362381 
L 908.289137 273.288977 
L 908.448809 252.347008 
L 894.411367 264.311933 
z
" clip-path="url(#p929682bb97)" style="fill: #324880"/>
    <path d="M 820.861163 264.565986 
L 845.130412 271.437537 
L 844.629862 176.805211 
L 819.895428 170.22095 
z
" clip-path="url(#p929682bb97)" style="fill: #648fff"/>
    <path d="M 933.077744 280.237139 
L 933.077744 280.237139 
L 958.08515 287.246629 
L 958.08515 287.246629 
z
" clip-path="url(#p929682bb97)" style="fill: #324880"/>
    <path d="M 869.612683 278.369403 
L 894.310793 285.362381 
L 894.411367 264.311933 
L 869.606699 257.381692 
z
" clip-path="url(#p929682bb97)" style="fill: #648fff"/>
    <path d="M 791.509403 288.628822 
L 806.296711 276.506055 
L 830.686911 283.482579 
L 816.021426 295.712743 
z
" clip-path="url(#p929682bb97)" style="fill: #3f599f"/>
    <path d="M 919.227609 292.417283 
L 919.227609 292.417283 
L 933.077744 280.237139 
L 933.077744 280.237139 
z
" clip-path="url(#p929682bb97)" style="fill: #648fff"/>
    <path d="M 919.227609 292.417283 
L 944.366049 299.534936 
L 958.08515 287.246629 
L 933.077744 280.237139 
z
" clip-path="url(#p929682bb97)" style="fill: #577ddf"/>
    <path d="M 919.227609 292.417283 
L 933.077744 280.237139 
L 958.08515 287.246629 
L 944.366049 299.534936 
z
" clip-path="url(#p929682bb97)" style="fill: #3f599f"/>
    <path d="M 819.895428 170.22095 
L 844.629862 176.805211 
L 859.133317 165.437837 
L 834.523584 158.953783 
z
" clip-path="url(#p929682bb97)" style="fill: #577ddf"/>
    <path d="M 944.366049 299.534936 
L 958.08515 287.246629 
L 958.08515 287.246629 
L 944.366049 299.534936 
z
" clip-path="url(#p929682bb97)" style="fill: #324880"/>
    <path d="M 806.296711 276.506055 
L 805.04593 182.047601 
L 829.904081 188.735619 
L 830.686911 283.482579 
z
" clip-path="url(#p929682bb97)" style="fill: #324880"/>
    <path d="M 919.227609 292.417283 
L 944.366049 299.534936 
L 944.366049 299.534936 
L 919.227609 292.417283 
z
" clip-path="url(#p929682bb97)" style="fill: #648fff"/>
    <path d="M 855.292836 290.520808 
L 855.22508 269.508641 
L 880.156826 276.546414 
L 880.117358 297.621565 
z
" clip-path="url(#p929682bb97)" style="fill: #324880"/>
    <path d="M 983.314264 294.318264 
L 983.314264 294.318264 
L 1008.768047 301.452872 
L 1008.768047 301.452872 
z
" clip-path="url(#p929682bb97)" style="fill: #324880"/>
    <path d="M 791.509403 288.628822 
L 789.960808 193.669775 
L 805.04593 182.047601 
L 806.296711 276.506055 
z
" clip-path="url(#p929682bb97)" style="fill: #648fff"/>
    <path d="M 840.751923 302.859803 
L 840.620453 281.738362 
L 855.22508 269.508641 
L 855.292836 290.520808 
z
" clip-path="url(#p929682bb97)" style="fill: #648fff"/>
    <path d="M 840.751923 302.859803 
L 855.292836 290.520808 
L 880.117358 297.621565 
L 865.703828 310.070849 
z
" clip-path="url(#p929682bb97)" style="fill: #3f599f"/>
    <path d="M 969.729084 306.716179 
L 969.729084 306.716179 
L 983.314264 294.318264 
L 983.314264 294.318264 
z
" clip-path="url(#p929682bb97)" style="fill: #324880"/>
    <path d="M 969.729084 306.716179 
L 995.319735 313.96187 
L 1008.768047 301.452872 
L 983.314264 294.318264 
z
" clip-path="url(#p929682bb97)" style="fill: #577ddf"/>
    <path d="M 969.729084 306.716179 
L 983.314264 294.318264 
L 1008.768047 301.452872 
L 995.319735 313.96187 
z
" clip-path="url(#p929682bb97)" style="fill: #3f599f"/>
    <path d="M 816.021426 295.712743 
L 830.686911 283.482579 
L 829.904081 188.735619 
L 814.945483 200.462767 
z
" clip-path="url(#p929682bb97)" style="fill: #324880"/>
    <path d="M 840.620453 281.738362 
L 865.680686 288.885924 
L 880.156826 276.546414 
L 855.22508 269.508641 
z
" clip-path="url(#p929682bb97)" style="fill: #577ddf"/>
    <path d="M 865.703828 310.070849 
L 880.117358 297.621565 
L 880.156826 276.546414 
L 865.680686 288.885924 
z
" clip-path="url(#p929682bb97)" style="fill: #324880"/>
    <path d="M 995.319735 313.96187 
L 1008.768047 301.452872 
L 1008.768047 301.452872 
L 995.319735 313.96187 
z
" clip-path="url(#p929682bb97)" style="fill: #324880"/>
    <path d="M 791.509403 288.628822 
L 816.021426 295.712743 
L 814.945483 200.462767 
L 789.960808 193.669775 
z
" clip-path="url(#p929682bb97)" style="fill: #648fff"/>
    <path d="M 840.751923 302.859803 
L 865.703828 310.070849 
L 865.680686 288.885924 
L 840.620453 281.738362 
z
" clip-path="url(#p929682bb97)" style="fill: #648fff"/>
    <path d="M 969.729084 306.716179 
L 995.319735 313.96187 
L 995.319735 313.96187 
L 969.729084 306.716179 
z
" clip-path="url(#p929682bb97)" style="fill: #324880"/>
    <path d="M 761.245445 313.439487 
L 776.494086 300.938514 
L 801.128798 308.132331 
L 786.00371 320.745777 
z
" clip-path="url(#p929682bb97)" style="fill: #3f599f"/>
    <path d="M 776.494086 300.938514 
L 775.053793 226.839446 
L 800.059088 233.807017 
L 801.128798 308.132331 
z
" clip-path="url(#p929682bb97)" style="fill: #324880"/>
    <path d="M 789.960808 193.669775 
L 814.945483 200.462767 
L 829.904081 188.735619 
L 805.04593 182.047601 
z
" clip-path="url(#p929682bb97)" style="fill: #577ddf"/>
    <path d="M 825.984786 315.390765 
L 825.984786 315.390765 
L 851.065044 322.71469 
L 851.065044 322.71469 
z
" clip-path="url(#p929682bb97)" style="fill: #324880"/>
    <path d="M 761.245445 313.439487 
L 759.559576 238.947871 
L 775.053793 226.839446 
L 776.494086 300.938514 
z
" clip-path="url(#p929682bb97)" style="fill: #648fff"/>
    <path d="M 810.986104 328.118209 
L 810.986104 328.118209 
L 825.984786 315.390765 
L 825.984786 315.390765 
z
" clip-path="url(#p929682bb97)" style="fill: #648fff"/>
    <path d="M 810.986104 328.118209 
L 825.984786 315.390765 
L 851.065044 322.71469 
L 836.195684 335.557685 
z
" clip-path="url(#p929682bb97)" style="fill: #3f599f"/>
    <path d="M 810.986104 328.118209 
L 836.195684 335.557685 
L 851.065044 322.71469 
L 825.984786 315.390765 
z
" clip-path="url(#p929682bb97)" style="fill: #577ddf"/>
    <path d="M 786.00371 320.745777 
L 801.128798 308.132331 
L 800.059088 233.807017 
L 784.692144 246.026061 
z
" clip-path="url(#p929682bb97)" style="fill: #324880"/>
    <path d="M 836.195684 335.557685 
L 851.065044 322.71469 
L 851.065044 322.71469 
L 836.195684 335.557685 
z
" clip-path="url(#p929682bb97)" style="fill: #324880"/>
    <path d="M 761.245445 313.439487 
L 786.00371 320.745777 
L 784.692144 246.026061 
L 759.559576 238.947871 
z
" clip-path="url(#p929682bb97)" style="fill: #648fff"/>
    <path d="M 810.986104 328.118209 
L 836.195684 335.557685 
L 836.195684 335.557685 
L 810.986104 328.118209 
z
" clip-path="url(#p929682bb97)" style="fill: #648fff"/>
    <path d="M 759.559576 238.947871 
L 784.692144 246.026061 
L 800.059088 233.807017 
L 775.053793 226.839446 
z
" clip-path="url(#p929682bb97)" style="fill: #577ddf"/>
   </g>
   <g id="text_27">
    <!-- Imaginary Amplitude (ρ) -->
    <g transform="translate(735.696563 51.6) scale(0.21 -0.21)">
     <defs>
      <path id="DejaVuSans-49" d="M 628 4666 
L 1259 4666 
L 1259 0 
L 628 0 
L 628 4666 
z
" transform="scale(0.015625)"/>
      <path id="DejaVuSans-67" d="M 2906 1791 
Q 2906 2416 2648 2759 
Q 2391 3103 1925 3103 
Q 1463 3103 1205 2759 
Q 947 2416 947 1791 
Q 947 1169 1205 825 
Q 1463 481 1925 481 
Q 2391 481 2648 825 
Q 2906 1169 2906 1791 
z
M 3481 434 
Q 3481 -459 3084 -895 
Q 2688 -1331 1869 -1331 
Q 1566 -1331 1297 -1286 
Q 1028 -1241 775 -1147 
L 775 -588 
Q 1028 -725 1275 -790 
Q 1522 -856 1778 -856 
Q 2344 -856 2625 -561 
Q 2906 -266 2906 331 
L 2906 616 
Q 2728 306 2450 153 
Q 2172 0 1784 0 
Q 1141 0 747 490 
Q 353 981 353 1791 
Q 353 2603 747 3093 
Q 1141 3584 1784 3584 
Q 2172 3584 2450 3431 
Q 2728 3278 2906 2969 
L 2906 3500 
L 3481 3500 
L 3481 434 
z
" transform="scale(0.015625)"/>
      <path id="DejaVuSans-6e" d="M 3513 2113 
L 3513 0 
L 2938 0 
L 2938 2094 
Q 2938 2591 2744 2837 
Q 2550 3084 2163 3084 
Q 1697 3084 1428 2787 
Q 1159 2491 1159 1978 
L 1159 0 
L 581 0 
L 581 3500 
L 1159 3500 
L 1159 2956 
Q 1366 3272 1645 3428 
Q 1925 3584 2291 3584 
Q 2894 3584 3203 3211 
Q 3513 2838 3513 2113 
z
" transform="scale(0.015625)"/>
      <path id="DejaVuSans-72" d="M 2631 2963 
Q 2534 3019 2420 3045 
Q 2306 3072 2169 3072 
Q 1681 3072 1420 2755 
Q 1159 2438 1159 1844 
L 1159 0 
L 581 0 
L 581 3500 
L 1159 3500 
L 1159 2956 
Q 1341 3275 1631 3429 
Q 1922 3584 2338 3584 
Q 2397 3584 2469 3576 
Q 2541 3569 2628 3553 
L 2631 2963 
z
" transform="scale(0.015625)"/>
      <path id="DejaVuSans-79" d="M 2059 -325 
Q 1816 -950 1584 -1140 
Q 1353 -1331 966 -1331 
L 506 -1331 
L 506 -850 
L 844 -850 
Q 1081 -850 1212 -737 
Q 1344 -625 1503 -206 
L 1606 56 
L 191 3500 
L 800 3500 
L 1894 763 
L 2988 3500 
L 3597 3500 
L 2059 -325 
z
" transform="scale(0.015625)"/>
     </defs>
     <use xlink:href="#DejaVuSans-49"/>
     <use xlink:href="#DejaVuSans-6d" x="29.492188"/>
     <use xlink:href="#DejaVuSans-61" x="126.904297"/>
     <use xlink:href="#DejaVuSans-67" x="188.183594"/>
     <use xlink:href="#DejaVuSans-69" x="251.660156"/>
     <use xlink:href="#DejaVuSans-6e" x="279.443359"/>
     <use xlink:href="#DejaVuSans-61" x="342.822266"/>
     <use xlink:href="#DejaVuSans-72" x="404.101562"/>
     <use xlink:href="#DejaVuSans-79" x="445.214844"/>
     <use xlink:href="#DejaVuSans-20" x="504.394531"/>
     <use xlink:href="#DejaVuSans-41" x="536.181641"/>
     <use xlink:href="#DejaVuSans-6d" x="604.589844"/>
     <use xlink:href="#DejaVuSans-70" x="702.001953"/>
     <use xlink:href="#DejaVuSans-6c" x="765.478516"/>
     <use xlink:href="#DejaVuSans-69" x="793.261719"/>
     <use xlink:href="#DejaVuSans-74" x="821.044922"/>
     <use xlink:href="#DejaVuSans-75" x="860.253906"/>
     <use xlink:href="#DejaVuSans-64" x="923.632812"/>
     <use xlink:href="#DejaVuSans-65" x="987.109375"/>
     <use xlink:href="#DejaVuSans-20" x="1048.632812"/>
     <use xlink:href="#DejaVuSans-28" x="1080.419922"/>
     <use xlink:href="#DejaVuSans-3c1" x="1119.433594"/>
     <use xlink:href="#DejaVuSans-29" x="1182.910156"/>
    </g>
   </g>
  </g>
 </g>
 <defs>
  <clipPath id="pe1a9ce6ba1">
   <rect x="28.8" y="57.6" width="518.4" height="518.4"/>
  </clipPath>
  <clipPath id="p929682bb97">
   <rect x="604.8" y="57.6" width="518.4" height="518.4"/>
  </clipPath>
 </defs>
</svg>
