<?xml version="1.0" encoding="utf-8" standalone="no"?>
<!DOCTYPE svg PUBLIC "-//W3C//DTD SVG 1.1//EN"
  "http://www.w3.org/Graphics/SVG/1.1/DTD/svg11.dtd">
<svg xmlns:xlink="http://www.w3.org/1999/xlink" width="1152pt" height="576pt" viewBox="0 0 1152 576" xmlns="http://www.w3.org/2000/svg" version="1.1">
 <metadata>
  <rdf:RDF xmlns:dc="http://purl.org/dc/elements/1.1/" xmlns:cc="http://creativecommons.org/ns#" xmlns:rdf="http://www.w3.org/1999/02/22-rdf-syntax-ns#">
   <cc:Work>
    <dc:type rdf:resource="http://purl.org/dc/dcmitype/StillImage"/>
    <dc:date>2024-11-02T18:56:39.245093</dc:date>
    <dc:format>image/svg+xml</dc:format>
    <dc:creator>
     <cc:Agent>
      <dc:title>Matplotlib v3.9.2, https://matplotlib.org/</dc:title>
     </cc:Agent>
    </dc:creator>
   </cc:Work>
  </rdf:RDF>
 </metadata>
 <defs>
  <style type="text/css">*{stroke-linejoin: round; stroke-linecap: butt}</style>
 </defs>
 <g id="figure_1">
  <g id="patch_1">
   <path d="M 0 576 
L 1152 576 
L 1152 0 
L 0 0 
z
" style="fill: #ffffff"/>
  </g>
  <g id="patch_2">
   <path d="M 28.8 576 
L 547.2 576 
L 547.2 57.6 
L 28.8 57.6 
z
" style="fill: #ffffff"/>
  </g>
  <g id="pane3d_1">
   <g id="patch_3">
    <path d="M 130.07018 436.456468 
L 253.494133 330.550231 
L 251.743197 126.70673 
L 122.643358 223.613571 
" style="fill: #f2f2f2; opacity: 0.5; stroke: #f2f2f2; stroke-linejoin: miter"/>
   </g>
  </g>
  <g id="pane3d_2">
   <g id="patch_4">
    <path d="M 253.494133 330.550231 
L 455.554898 390.069341 
L 462.583588 181.103065 
L 251.743197 126.70673 
" style="fill: #e6e6e6; opacity: 0.5; stroke: #e6e6e6; stroke-linejoin: miter"/>
   </g>
  </g>
  <g id="pane3d_3">
   <g id="patch_5">
    <path d="M 130.07018 436.456468 
L 340.912731 504.076731 
L 455.554898 390.069341 
L 253.494133 330.550231 
" style="fill: #ececec; opacity: 0.5; stroke: #ececec; stroke-linejoin: miter"/>
   </g>
  </g>
  <g id="grid3d_1">
   <g id="Line3DCollection_1">
    <path d="M 158.635886 445.617904 
L 280.925726 338.630493 
L 280.328796 134.081748 
" style="fill: none; stroke: #b0b0b0; stroke-width: 0.8"/>
    <path d="M 208.310046 461.549127 
L 328.58611 352.669358 
L 330.022474 146.902603 
" style="fill: none; stroke: #b0b0b0; stroke-width: 0.8"/>
    <path d="M 258.89502 477.772462 
L 377.066152 366.949661 
L 380.607663 159.953465 
" style="fill: none; stroke: #b0b0b0; stroke-width: 0.8"/>
    <path d="M 310.41609 494.296016 
L 426.38718 381.477685 
L 432.108569 173.24058 
" style="fill: none; stroke: #b0b0b0; stroke-width: 0.8"/>
   </g>
  </g>
  <g id="grid3d_2">
   <g id="Line3DCollection_2">
    <path d="M 141.757365 209.265931 
L 148.301379 420.812846 
L 357.880707 487.202708 
" style="fill: none; stroke: #b0b0b0; stroke-width: 0.8"/>
    <path d="M 173.704273 185.285468 
L 178.805664 394.638072 
L 386.24502 458.995448 
" style="fill: none; stroke: #b0b0b0; stroke-width: 0.8"/>
    <path d="M 204.65707 162.051218 
L 208.400054 369.24405 
L 413.731787 431.660877 
" style="fill: none; stroke: #b0b0b0; stroke-width: 0.8"/>
    <path d="M 234.661448 139.528886 
L 237.124663 344.596362 
L 440.38111 405.159111 
" style="fill: none; stroke: #b0b0b0; stroke-width: 0.8"/>
   </g>
  </g>
  <g id="grid3d_3">
   <g id="Line3DCollection_3">
    <path d="M 456.065687 374.883334 
L 253.366708 315.715429 
L 129.531056 421.005894 
" style="fill: none; stroke: #b0b0b0; stroke-width: 0.8"/>
    <path d="M 457.034042 346.093695 
L 253.125213 287.600686 
L 128.508728 391.707316 
" style="fill: none; stroke: #b0b0b0; stroke-width: 0.8"/>
    <path d="M 458.014111 316.955775 
L 252.880901 259.157921 
L 127.473689 362.044465 
" style="fill: none; stroke: #b0b0b0; stroke-width: 0.8"/>
    <path d="M 459.006109 287.463214 
L 252.633721 230.381363 
L 126.4257 332.010503 
" style="fill: none; stroke: #b0b0b0; stroke-width: 0.8"/>
    <path d="M 460.010254 257.609498 
L 252.383624 201.265099 
L 125.364518 301.598424 
" style="fill: none; stroke: #b0b0b0; stroke-width: 0.8"/>
    <path d="M 461.026771 227.387952 
L 252.130557 171.803079 
L 124.289891 270.801041 
" style="fill: none; stroke: #b0b0b0; stroke-width: 0.8"/>
    <path d="M 462.055891 196.791737 
L 251.874466 141.989107 
L 123.201563 239.610986 
" style="fill: none; stroke: #b0b0b0; stroke-width: 0.8"/>
   </g>
  </g>
  <g id="axis3d_1">
   <g id="line2d_1">
    <path d="M 130.07018 436.456468 
L 340.912731 504.076731 
" style="fill: none; stroke: #000000; stroke-width: 0.8; stroke-linecap: square"/>
   </g>
   <g id="xtick_1">
    <g id="line2d_2">
     <path d="M 159.677227 444.706868 
L 156.549953 447.442819 
" style="fill: none; stroke: #000000; stroke-width: 0.8; stroke-linecap: square"/>
    </g>
    <g id="text_1">
     <!-- 00 -->
     <g transform="translate(131.351686 489.365693) rotate(-45) scale(0.21 -0.21)">
      <defs>
       <path id="DejaVuSans-30" d="M 2034 4250 
Q 1547 4250 1301 3770 
Q 1056 3291 1056 2328 
Q 1056 1369 1301 889 
Q 1547 409 2034 409 
Q 2525 409 2770 889 
Q 3016 1369 3016 2328 
Q 3016 3291 2770 3770 
Q 2525 4250 2034 4250 
z
M 2034 4750 
Q 2819 4750 3233 4129 
Q 3647 3509 3647 2328 
Q 3647 1150 3233 529 
Q 2819 -91 2034 -91 
Q 1250 -91 836 529 
Q 422 1150 422 2328 
Q 422 3509 836 4129 
Q 1250 4750 2034 4750 
z
" transform="scale(0.015625)"/>
      </defs>
      <use xlink:href="#DejaVuSans-30"/>
      <use xlink:href="#DejaVuSans-30" x="63.623047"/>
     </g>
    </g>
   </g>
   <g id="xtick_2">
    <g id="line2d_3">
     <path d="M 209.334802 460.621468 
L 206.257306 463.407368 
" style="fill: none; stroke: #000000; stroke-width: 0.8; stroke-linecap: square"/>
    </g>
    <g id="text_2">
     <!-- 01 -->
     <g transform="translate(181.023931 505.435143) rotate(-45) scale(0.21 -0.21)">
      <defs>
       <path id="DejaVuSans-31" d="M 794 531 
L 1825 531 
L 1825 4091 
L 703 3866 
L 703 4441 
L 1819 4666 
L 2450 4666 
L 2450 531 
L 3481 531 
L 3481 0 
L 794 0 
L 794 531 
z
" transform="scale(0.015625)"/>
      </defs>
      <use xlink:href="#DejaVuSans-30"/>
      <use xlink:href="#DejaVuSans-31" x="63.623047"/>
     </g>
    </g>
   </g>
   <g id="xtick_3">
    <g id="line2d_4">
     <path d="M 259.902405 476.82772 
L 256.877048 479.664949 
" style="fill: none; stroke: #000000; stroke-width: 0.8; stroke-linecap: square"/>
    </g>
    <g id="text_3">
     <!-- 10 -->
     <g transform="translate(231.60781 521.799516) rotate(-45) scale(0.21 -0.21)">
      <use xlink:href="#DejaVuSans-31"/>
      <use xlink:href="#DejaVuSans-30" x="63.623047"/>
     </g>
    </g>
   </g>
   <g id="xtick_4">
    <g id="line2d_5">
     <path d="M 311.405283 493.333715 
L 308.434531 496.223705 
" style="fill: none; stroke: #000000; stroke-width: 0.8; stroke-linecap: square"/>
    </g>
    <g id="text_4">
     <!-- 11 -->
     <g transform="translate(283.128654 538.467006) rotate(-45) scale(0.21 -0.21)">
      <use xlink:href="#DejaVuSans-31"/>
      <use xlink:href="#DejaVuSans-31" x="63.623047"/>
     </g>
    </g>
   </g>
  </g>
  <g id="axis3d_2">
   <g id="line2d_6">
    <path d="M 455.554898 390.069341 
L 340.912731 504.076731 
" style="fill: none; stroke: #000000; stroke-width: 0.8; stroke-linecap: square"/>
   </g>
   <g id="xtick_5">
    <g id="line2d_7">
     <path d="M 356.140222 486.651363 
L 361.364886 488.306415 
" style="fill: none; stroke: #000000; stroke-width: 0.8; stroke-linecap: square"/>
    </g>
    <g id="text_5">
     <!-- 00 -->
     <g transform="translate(368.70027 499.207917) rotate(-337.5) scale(0.21 -0.21)">
      <use xlink:href="#DejaVuSans-30"/>
      <use xlink:href="#DejaVuSans-30" x="63.623047"/>
     </g>
    </g>
   </g>
   <g id="xtick_6">
    <g id="line2d_8">
     <path d="M 384.5233 458.46129 
L 389.691587 460.064734 
" style="fill: none; stroke: #000000; stroke-width: 0.8; stroke-linecap: square"/>
    </g>
    <g id="text_6">
     <!-- 01 -->
     <g transform="translate(396.913817 470.822876) rotate(-337.5) scale(0.21 -0.21)">
      <use xlink:href="#DejaVuSans-30"/>
      <use xlink:href="#DejaVuSans-31" x="63.623047"/>
     </g>
    </g>
   </g>
   <g id="xtick_7">
    <g id="line2d_9">
     <path d="M 412.028511 431.143114 
L 417.141381 432.697327 
" style="fill: none; stroke: #000000; stroke-width: 0.8; stroke-linecap: square"/>
    </g>
    <g id="text_7">
     <!-- 10 -->
     <g transform="translate(424.254695 443.315808) rotate(-337.5) scale(0.21 -0.21)">
      <use xlink:href="#DejaVuSans-31"/>
      <use xlink:href="#DejaVuSans-30" x="63.623047"/>
     </g>
    </g>
   </g>
   <g id="xtick_8">
    <g id="line2d_10">
     <path d="M 438.695964 404.657001 
L 443.754368 406.164215 
" style="fill: none; stroke: #000000; stroke-width: 0.8; stroke-linecap: square"/>
    </g>
    <g id="text_8">
     <!-- 11 -->
     <g transform="translate(450.762776 416.646599) rotate(-337.5) scale(0.21 -0.21)">
      <use xlink:href="#DejaVuSans-31"/>
      <use xlink:href="#DejaVuSans-31" x="63.623047"/>
     </g>
    </g>
   </g>
  </g>
  <g id="axis3d_3">
   <g id="line2d_11">
    <path d="M 455.554898 390.069341 
L 462.583588 181.103065 
" style="fill: none; stroke: #000000; stroke-width: 0.8; stroke-linecap: square"/>
   </g>
   <g id="xtick_9">
    <g id="line2d_12">
     <path d="M 454.385496 374.392885 
L 459.42901 375.865089 
" style="fill: none; stroke: #000000; stroke-width: 0.8; stroke-linecap: square"/>
    </g>
    <g id="text_9">
     <!-- −0.2 -->
     <g transform="translate(469.587283 368.606084) scale(0.21 -0.21)">
      <defs>
       <path id="DejaVuSans-2212" d="M 678 2272 
L 4684 2272 
L 4684 1741 
L 678 1741 
L 678 2272 
z
" transform="scale(0.015625)"/>
       <path id="DejaVuSans-2e" d="M 684 794 
L 1344 794 
L 1344 0 
L 684 0 
L 684 794 
z
" transform="scale(0.015625)"/>
       <path id="DejaVuSans-32" d="M 1228 531 
L 3431 531 
L 3431 0 
L 469 0 
L 469 531 
Q 828 903 1448 1529 
Q 2069 2156 2228 2338 
Q 2531 2678 2651 2914 
Q 2772 3150 2772 3378 
Q 2772 3750 2511 3984 
Q 2250 4219 1831 4219 
Q 1534 4219 1204 4116 
Q 875 4013 500 3803 
L 500 4441 
Q 881 4594 1212 4672 
Q 1544 4750 1819 4750 
Q 2544 4750 2975 4387 
Q 3406 4025 3406 3419 
Q 3406 3131 3298 2873 
Q 3191 2616 2906 2266 
Q 2828 2175 2409 1742 
Q 1991 1309 1228 531 
z
" transform="scale(0.015625)"/>
      </defs>
      <use xlink:href="#DejaVuSans-2212"/>
      <use xlink:href="#DejaVuSans-30" x="83.789062"/>
      <use xlink:href="#DejaVuSans-2e" x="147.412109"/>
      <use xlink:href="#DejaVuSans-32" x="179.199219"/>
     </g>
    </g>
   </g>
   <g id="xtick_10">
    <g id="line2d_13">
     <path d="M 455.343468 345.608739 
L 460.418167 347.064461 
" style="fill: none; stroke: #000000; stroke-width: 0.8; stroke-linecap: square"/>
    </g>
    <g id="text_10">
     <!-- −0.1 -->
     <g transform="translate(470.635736 339.837844) scale(0.21 -0.21)">
      <use xlink:href="#DejaVuSans-2212"/>
      <use xlink:href="#DejaVuSans-30" x="83.789062"/>
      <use xlink:href="#DejaVuSans-2e" x="147.412109"/>
      <use xlink:href="#DejaVuSans-31" x="179.199219"/>
     </g>
    </g>
   </g>
   <g id="xtick_11">
    <g id="line2d_14">
     <path d="M 456.313025 316.476481 
L 461.419296 317.915212 
" style="fill: none; stroke: #000000; stroke-width: 0.8; stroke-linecap: square"/>
    </g>
    <g id="text_11">
     <!-- 0.0 -->
     <g transform="translate(471.696858 310.721981) scale(0.21 -0.21)">
      <use xlink:href="#DejaVuSans-30"/>
      <use xlink:href="#DejaVuSans-2e" x="63.623047"/>
      <use xlink:href="#DejaVuSans-30" x="95.410156"/>
     </g>
    </g>
   </g>
   <g id="xtick_12">
    <g id="line2d_15">
     <path d="M 457.294379 286.989755 
L 462.432618 288.410974 
" style="fill: none; stroke: #000000; stroke-width: 0.8; stroke-linecap: square"/>
    </g>
    <g id="text_12">
     <!-- 0.1 -->
     <g transform="translate(472.77088 281.252156) scale(0.21 -0.21)">
      <use xlink:href="#DejaVuSans-30"/>
      <use xlink:href="#DejaVuSans-2e" x="63.623047"/>
      <use xlink:href="#DejaVuSans-31" x="95.410156"/>
     </g>
    </g>
   </g>
   <g id="xtick_13">
    <g id="line2d_16">
     <path d="M 458.287747 257.142055 
L 463.458356 258.545222 
" style="fill: none; stroke: #000000; stroke-width: 0.8; stroke-linecap: square"/>
    </g>
    <g id="text_13">
     <!-- 0.2 -->
     <g transform="translate(473.858039 251.421873) scale(0.21 -0.21)">
      <use xlink:href="#DejaVuSans-30"/>
      <use xlink:href="#DejaVuSans-2e" x="63.623047"/>
      <use xlink:href="#DejaVuSans-32" x="95.410156"/>
     </g>
    </g>
   </g>
   <g id="xtick_14">
    <g id="line2d_17">
     <path d="M 459.293351 226.926709 
L 464.496739 228.311271 
" style="fill: none; stroke: #000000; stroke-width: 0.8; stroke-linecap: square"/>
    </g>
    <g id="text_14">
     <!-- 0.3 -->
     <g transform="translate(474.958577 221.22448) scale(0.21 -0.21)">
      <defs>
       <path id="DejaVuSans-33" d="M 2597 2516 
Q 3050 2419 3304 2112 
Q 3559 1806 3559 1356 
Q 3559 666 3084 287 
Q 2609 -91 1734 -91 
Q 1441 -91 1130 -33 
Q 819 25 488 141 
L 488 750 
Q 750 597 1062 519 
Q 1375 441 1716 441 
Q 2309 441 2620 675 
Q 2931 909 2931 1356 
Q 2931 1769 2642 2001 
Q 2353 2234 1838 2234 
L 1294 2234 
L 1294 2753 
L 1863 2753 
Q 2328 2753 2575 2939 
Q 2822 3125 2822 3475 
Q 2822 3834 2567 4026 
Q 2313 4219 1838 4219 
Q 1578 4219 1281 4162 
Q 984 4106 628 3988 
L 628 4550 
Q 988 4650 1302 4700 
Q 1616 4750 1894 4750 
Q 2613 4750 3031 4423 
Q 3450 4097 3450 3541 
Q 3450 3153 3228 2886 
Q 3006 2619 2597 2516 
z
" transform="scale(0.015625)"/>
      </defs>
      <use xlink:href="#DejaVuSans-30"/>
      <use xlink:href="#DejaVuSans-2e" x="63.623047"/>
      <use xlink:href="#DejaVuSans-33" x="95.410156"/>
     </g>
    </g>
   </g>
   <g id="xtick_15">
    <g id="line2d_18">
     <path d="M 460.311418 196.336884 
L 465.548004 197.70227 
" style="fill: none; stroke: #000000; stroke-width: 0.8; stroke-linecap: square"/>
    </g>
    <g id="text_15">
     <!-- 0.4 -->
     <g transform="translate(476.072743 190.653157) scale(0.21 -0.21)">
      <defs>
       <path id="DejaVuSans-34" d="M 2419 4116 
L 825 1625 
L 2419 1625 
L 2419 4116 
z
M 2253 4666 
L 3047 4666 
L 3047 1625 
L 3713 1625 
L 3713 1100 
L 3047 1100 
L 3047 0 
L 2419 0 
L 2419 1100 
L 313 1100 
L 313 1709 
L 2253 4666 
z
" transform="scale(0.015625)"/>
      </defs>
      <use xlink:href="#DejaVuSans-30"/>
      <use xlink:href="#DejaVuSans-2e" x="63.623047"/>
      <use xlink:href="#DejaVuSans-34" x="95.410156"/>
     </g>
    </g>
   </g>
  </g>
  <g id="axes_1">
   <g id="Poly3DCollection_1">
    <path d="M 259.34359 271.436593 
L 259.366901 274.634273 
L 283.408938 281.467228 
L 283.40132 278.260222 
z
" clip-path="url(#p9ef728fd74)" style="fill: #648fff"/>
    <path d="M 245.052856 283.292963 
L 245.085754 286.506822 
L 259.366901 274.634273 
L 259.34359 271.436593 
z
" clip-path="url(#p9ef728fd74)" style="fill: #324880"/>
    <path d="M 245.085754 286.506822 
L 269.246808 293.442903 
L 283.408938 281.467228 
L 259.366901 274.634273 
z
" clip-path="url(#p9ef728fd74)" style="fill: #577ddf"/>
    <path d="M 245.052856 283.292963 
L 259.34359 271.436593 
L 283.40132 278.260222 
L 269.229758 290.219645 
z
" clip-path="url(#p9ef728fd74)" style="fill: #3f599f"/>
    <path d="M 269.229758 290.219645 
L 283.40132 278.260222 
L 283.408938 281.467228 
L 269.246808 293.442903 
z
" clip-path="url(#p9ef728fd74)" style="fill: #648fff"/>
    <path d="M 307.66782 285.143066 
L 307.609671 307.544666 
L 331.974522 314.55265 
L 332.14582 292.085899 
z
" clip-path="url(#p9ef728fd74)" style="fill: #648fff"/>
    <path d="M 245.052856 283.292963 
L 269.229758 290.219645 
L 269.246808 293.442903 
L 245.085754 286.506822 
z
" clip-path="url(#p9ef728fd74)" style="fill: #324880"/>
    <path d="M 293.624473 319.721517 
L 318.112645 326.835772 
L 331.974522 314.55265 
L 307.609671 307.544666 
z
" clip-path="url(#p9ef728fd74)" style="fill: #577ddf"/>
    <path d="M 293.618054 297.206891 
L 293.624473 319.721517 
L 307.609671 307.544666 
L 307.66782 285.143066 
z
" clip-path="url(#p9ef728fd74)" style="fill: #324880"/>
    <path d="M 318.220527 304.255499 
L 332.14582 292.085899 
L 331.974522 314.55265 
L 318.112645 326.835772 
z
" clip-path="url(#p9ef728fd74)" style="fill: #648fff"/>
    <path d="M 293.618054 297.206891 
L 307.66782 285.143066 
L 332.14582 292.085899 
L 318.220527 304.255499 
z
" clip-path="url(#p9ef728fd74)" style="fill: #3f599f"/>
    <path d="M 293.618054 297.206891 
L 318.220527 304.255499 
L 318.112645 326.835772 
L 293.624473 319.721517 
z
" clip-path="url(#p9ef728fd74)" style="fill: #324880"/>
    <path d="M 356.838097 299.089509 
L 356.411795 332.625394 
L 381.146827 339.788067 
L 381.747476 306.154696 
z
" clip-path="url(#p9ef728fd74)" style="fill: #648fff"/>
    <path d="M 342.706328 345.071284 
L 367.569533 352.34328 
L 381.146827 339.788067 
L 356.411795 332.625394 
z
" clip-path="url(#p9ef728fd74)" style="fill: #577ddf"/>
    <path d="M 343.040012 311.366282 
L 342.706328 345.071284 
L 356.411795 332.625394 
L 356.838097 299.089509 
z
" clip-path="url(#p9ef728fd74)" style="fill: #324880"/>
    <path d="M 187.342974 406.120684 
L 211.635283 413.696335 
L 226.459863 400.617052 
L 202.286551 393.155814 
z
" clip-path="url(#p9ef728fd74)" style="fill: #577ddf"/>
    <path d="M 368.079392 318.540064 
L 381.747476 306.154696 
L 381.146827 339.788067 
L 367.569533 352.34328 
z
" clip-path="url(#p9ef728fd74)" style="fill: #648fff"/>
    <path d="M 343.040012 311.366282 
L 356.838097 299.089509 
L 381.747476 306.154696 
L 368.079392 318.540064 
z
" clip-path="url(#p9ef728fd74)" style="fill: #3f599f"/>
    <path d="M 343.040012 311.366282 
L 368.079392 318.540064 
L 367.569533 352.34328 
L 342.706328 345.071284 
z
" clip-path="url(#p9ef728fd74)" style="fill: #324880"/>
    <path d="M 200.863711 319.954681 
L 202.286551 393.155814 
L 226.459863 400.617052 
L 225.403296 327.204927 
z
" clip-path="url(#p9ef728fd74)" style="fill: #648fff"/>
    <path d="M 185.678028 332.55355 
L 187.342974 406.120684 
L 202.286551 393.155814 
L 200.863711 319.954681 
z
" clip-path="url(#p9ef728fd74)" style="fill: #324880"/>
    <path d="M 210.340219 339.916702 
L 225.403296 327.204927 
L 226.459863 400.617052 
L 211.635283 413.696335 
z
" clip-path="url(#p9ef728fd74)" style="fill: #648fff"/>
    <path d="M 185.678028 332.55355 
L 210.340219 339.916702 
L 211.635283 413.696335 
L 187.342974 406.120684 
z
" clip-path="url(#p9ef728fd74)" style="fill: #324880"/>
    <path d="M 185.678028 332.55355 
L 200.863711 319.954681 
L 225.403296 327.204927 
L 210.340219 339.916702 
z
" clip-path="url(#p9ef728fd74)" style="fill: #3f599f"/>
    <path d="M 379.596122 338.467196 
L 378.998727 372.540881 
L 404.439246 380.057112 
L 405.221089 345.883645 
z
" clip-path="url(#p9ef728fd74)" style="fill: #648fff"/>
    <path d="M 365.132773 385.602138 
L 390.709405 393.235919 
L 404.439246 380.057112 
L 378.998727 372.540881 
z
" clip-path="url(#p9ef728fd74)" style="fill: #577ddf"/>
    <path d="M 365.635451 351.355361 
L 365.132773 385.602138 
L 378.998727 372.540881 
L 379.596122 338.467196 
z
" clip-path="url(#p9ef728fd74)" style="fill: #324880"/>
    <path d="M 206.048618 448.347906 
L 231.02678 456.302263 
L 246.064427 442.570234 
L 221.212532 434.738939 
z
" clip-path="url(#p9ef728fd74)" style="fill: #577ddf"/>
    <path d="M 391.398533 358.888637 
L 405.221089 345.883645 
L 404.439246 380.057112 
L 390.709405 393.235919 
z
" clip-path="url(#p9ef728fd74)" style="fill: #648fff"/>
    <path d="M 365.635451 351.355361 
L 379.596122 338.467196 
L 405.221089 345.883645 
L 391.398533 358.888637 
z
" clip-path="url(#p9ef728fd74)" style="fill: #3f599f"/>
    <path d="M 365.635451 351.355361 
L 391.398533 358.888637 
L 390.709405 393.235919 
L 365.132773 385.602138 
z
" clip-path="url(#p9ef728fd74)" style="fill: #324880"/>
    <path d="M 220.052011 360.374339 
L 221.212532 434.738939 
L 246.064427 442.570234 
L 245.291231 367.989914 
z
" clip-path="url(#p9ef728fd74)" style="fill: #648fff"/>
    <path d="M 204.63852 373.609125 
L 206.048618 448.347906 
L 221.212532 434.738939 
L 220.052011 360.374339 
z
" clip-path="url(#p9ef728fd74)" style="fill: #324880"/>
    <path d="M 230.007957 381.346282 
L 245.291231 367.989914 
L 246.064427 442.570234 
L 231.02678 456.302263 
z
" clip-path="url(#p9ef728fd74)" style="fill: #648fff"/>
    <path d="M 351.454499 364.446886 
L 351.18243 387.575975 
L 376.958157 395.297128 
L 377.356877 372.09977 
z
" clip-path="url(#p9ef728fd74)" style="fill: #648fff"/>
    <path d="M 204.63852 373.609125 
L 230.007957 381.346282 
L 231.02678 456.302263 
L 206.048618 448.347906 
z
" clip-path="url(#p9ef728fd74)" style="fill: #324880"/>
    <path d="M 336.843773 400.994133 
L 362.7586 408.838253 
L 376.958157 395.297128 
L 351.18243 387.575975 
z
" clip-path="url(#p9ef728fd74)" style="fill: #577ddf"/>
    <path d="M 337.04801 377.74662 
L 336.843773 400.994133 
L 351.18243 387.575975 
L 351.454499 364.446886 
z
" clip-path="url(#p9ef728fd74)" style="fill: #324880"/>
    <path d="M 204.63852 373.609125 
L 220.052011 360.374339 
L 245.291231 367.989914 
L 230.007957 381.346282 
z
" clip-path="url(#p9ef728fd74)" style="fill: #3f599f"/>
    <path d="M 363.090869 385.521984 
L 377.356877 372.09977 
L 376.958157 395.297128 
L 362.7586 408.838253 
z
" clip-path="url(#p9ef728fd74)" style="fill: #648fff"/>
    <path d="M 337.04801 377.74662 
L 351.454499 364.446886 
L 377.356877 372.09977 
L 363.090869 385.521984 
z
" clip-path="url(#p9ef728fd74)" style="fill: #3f599f"/>
    <path d="M 337.04801 377.74662 
L 363.090869 385.521984 
L 362.7586 408.838253 
L 336.843773 400.994133 
z
" clip-path="url(#p9ef728fd74)" style="fill: #324880"/>
    <path d="M 322.410561 391.259572 
L 322.391289 394.615403 
L 348.557229 402.526221 
L 348.59509 399.16038 
z
" clip-path="url(#p9ef728fd74)" style="fill: #648fff"/>
    <path d="M 307.536553 404.990909 
L 307.52767 408.364104 
L 322.391289 394.615403 
L 322.410561 391.259572 
z
" clip-path="url(#p9ef728fd74)" style="fill: #324880"/>
    <path d="M 307.52767 408.364104 
L 333.836267 416.403497 
L 348.557229 402.526221 
L 322.391289 394.615403 
z
" clip-path="url(#p9ef728fd74)" style="fill: #577ddf"/>
    <path d="M 307.536553 404.990909 
L 322.410561 391.259572 
L 348.59509 399.16038 
L 333.863943 413.020222 
z
" clip-path="url(#p9ef728fd74)" style="fill: #3f599f"/>
    <path d="M 333.863943 413.020222 
L 348.59509 399.16038 
L 348.557229 402.526221 
L 333.836267 416.403497 
z
" clip-path="url(#p9ef728fd74)" style="fill: #648fff"/>
    <path d="M 307.536553 404.990909 
L 333.863943 413.020222 
L 333.836267 416.403497 
L 307.52767 408.364104 
z
" clip-path="url(#p9ef728fd74)" style="fill: #324880"/>
   </g>
   <g id="Poly3DCollection_2">
    <path d="M 134.264159 361.118183 
L 339.701344 424.110888 
L 451.578306 317.833677 
L 254.487135 262.209657 
z
" clip-path="url(#p9ef728fd74)" style="fill-opacity: 0.25"/>
   </g>
   <g id="Poly3DCollection_3">
    <path d="M 230.545952 295.328679 
L 230.444838 287.69261 
L 254.779612 294.702233 
L 254.842889 302.360767 
z
" clip-path="url(#p9ef728fd74)" style="fill: #324880"/>
    <path d="M 215.817935 307.547843 
L 215.69277 299.872801 
L 230.444838 287.69261 
L 230.545952 295.328679 
z
" clip-path="url(#p9ef728fd74)" style="fill: #648fff"/>
    <path d="M 215.817935 307.547843 
L 230.545952 295.328679 
L 254.842889 302.360767 
L 240.235767 314.68776 
z
" clip-path="url(#p9ef728fd74)" style="fill: #3f599f"/>
    <path d="M 215.69277 299.872801 
L 240.148814 306.990081 
L 254.779612 294.702233 
L 230.444838 287.69261 
z
" clip-path="url(#p9ef728fd74)" style="fill: #577ddf"/>
    <path d="M 240.235767 314.68776 
L 254.842889 302.360767 
L 254.779612 294.702233 
L 240.148814 306.990081 
z
" clip-path="url(#p9ef728fd74)" style="fill: #324880"/>
    <path d="M 215.817935 307.547843 
L 240.235767 314.68776 
L 240.148814 306.990081 
L 215.69277 299.872801 
z
" clip-path="url(#p9ef728fd74)" style="fill: #648fff"/>
    <path d="M 264.870382 321.891066 
L 279.35389 309.454809 
L 304.081795 316.611628 
L 289.724679 329.158608 
z
" clip-path="url(#p9ef728fd74)" style="fill: #3f599f"/>
    <path d="M 406.876835 313.282277 
L 407.209997 298.83856 
L 432.63958 305.986623 
L 432.229099 320.473083 
z
" clip-path="url(#p9ef728fd74)" style="fill: #324880"/>
    <path d="M 393.341604 325.777687 
L 393.636721 311.259819 
L 407.209997 298.83856 
L 406.876835 313.282277 
z
" clip-path="url(#p9ef728fd74)" style="fill: #648fff"/>
    <path d="M 279.35389 309.454809 
L 279.179042 255.231454 
L 304.183644 262.225971 
L 304.081795 316.611628 
z
" clip-path="url(#p9ef728fd74)" style="fill: #324880"/>
    <path d="M 393.341604 325.777687 
L 406.876835 313.282277 
L 432.229099 320.473083 
L 418.829634 333.080007 
z
" clip-path="url(#p9ef728fd74)" style="fill: #3f599f"/>
    <path d="M 264.870382 321.891066 
L 264.531118 267.386124 
L 279.179042 255.231454 
L 279.35389 309.454809 
z
" clip-path="url(#p9ef728fd74)" style="fill: #648fff"/>
    <path d="M 393.636721 311.259819 
L 419.20291 318.519069 
L 432.63958 305.986623 
L 407.209997 298.83856 
z
" clip-path="url(#p9ef728fd74)" style="fill: #577ddf"/>
    <path d="M 418.829634 333.080007 
L 432.229099 320.473083 
L 432.63958 305.986623 
L 419.20291 318.519069 
z
" clip-path="url(#p9ef728fd74)" style="fill: #324880"/>
    <path d="M 393.341604 325.777687 
L 418.829634 333.080007 
L 419.20291 318.519069 
L 393.636721 311.259819 
z
" clip-path="url(#p9ef728fd74)" style="fill: #648fff"/>
    <path d="M 289.724679 329.158608 
L 304.081795 316.611628 
L 304.183644 262.225971 
L 289.66496 274.490077 
z
" clip-path="url(#p9ef728fd74)" style="fill: #324880"/>
    <path d="M 314.801611 336.491249 
L 329.029498 323.832062 
L 354.199941 331.116962 
L 340.104182 343.889869 
z
" clip-path="url(#p9ef728fd74)" style="fill: #3f599f"/>
    <path d="M 264.870382 321.891066 
L 289.724679 329.158608 
L 289.66496 274.490077 
L 264.531118 267.386124 
z
" clip-path="url(#p9ef728fd74)" style="fill: #648fff"/>
    <path d="M 264.531118 267.386124 
L 289.66496 274.490077 
L 304.183644 262.225971 
L 279.179042 255.231454 
z
" clip-path="url(#p9ef728fd74)" style="fill: #577ddf"/>
    <path d="M 329.029498 323.832062 
L 329.604783 242.005767 
L 355.205357 249.042911 
L 354.199941 331.116962 
z
" clip-path="url(#p9ef728fd74)" style="fill: #324880"/>
    <path d="M 314.801611 336.491249 
L 315.13897 254.235102 
L 329.604783 242.005767 
L 329.029498 323.832062 
z
" clip-path="url(#p9ef728fd74)" style="fill: #648fff"/>
    <path d="M 235.224783 347.346245 
L 250.162432 334.52004 
L 275.14408 341.900893 
L 260.334739 354.843082 
z
" clip-path="url(#p9ef728fd74)" style="fill: #3f599f"/>
    <path d="M 340.104182 343.889869 
L 354.199941 331.116962 
L 355.205357 249.042911 
L 340.876253 261.383982 
z
" clip-path="url(#p9ef728fd74)" style="fill: #324880"/>
    <path d="M 314.801611 336.491249 
L 340.104182 343.889869 
L 340.876253 261.383982 
L 315.13897 254.235102 
z
" clip-path="url(#p9ef728fd74)" style="fill: #648fff"/>
    <path d="M 154.590452 358.345494 
L 170.25547 345.348943 
L 195.041118 352.827659 
L 179.500401 365.942516 
z
" clip-path="url(#p9ef728fd74)" style="fill: #3f599f"/>
    <path d="M 285.673165 362.40813 
L 300.351253 349.348379 
L 325.787018 356.863402 
L 311.243192 370.042325 
z
" clip-path="url(#p9ef728fd74)" style="fill: #3f599f"/>
    <path d="M 170.25547 345.348943 
L 168.493685 277.307541 
L 193.622893 284.580223 
L 195.041118 352.827659 
z
" clip-path="url(#p9ef728fd74)" style="fill: #324880"/>
    <path d="M 250.162432 334.52004 
L 248.891417 197.655135 
L 274.578536 204.613639 
L 275.14408 341.900893 
z
" clip-path="url(#p9ef728fd74)" style="fill: #324880"/>
    <path d="M 315.13897 254.235102 
L 340.876253 261.383982 
L 355.205357 249.042911 
L 329.604783 242.005767 
z
" clip-path="url(#p9ef728fd74)" style="fill: #577ddf"/>
    <path d="M 300.351253 349.348379 
L 300.412463 294.229132 
L 326.141082 301.577796 
L 325.787018 356.863402 
z
" clip-path="url(#p9ef728fd74)" style="fill: #324880"/>
    <path d="M 154.590452 358.345494 
L 152.591628 289.946642 
L 168.493685 277.307541 
L 170.25547 345.348943 
z
" clip-path="url(#p9ef728fd74)" style="fill: #648fff"/>
    <path d="M 235.224783 347.346245 
L 233.516771 209.748531 
L 248.891417 197.655135 
L 250.162432 334.52004 
z
" clip-path="url(#p9ef728fd74)" style="fill: #648fff"/>
    <path d="M 285.673165 362.40813 
L 285.56546 307.00027 
L 300.412463 294.229132 
L 300.351253 349.348379 
z
" clip-path="url(#p9ef728fd74)" style="fill: #648fff"/>
    <path d="M 179.500401 365.942516 
L 195.041118 352.827659 
L 193.622893 284.580223 
L 177.84857 297.336019 
z
" clip-path="url(#p9ef728fd74)" style="fill: #324880"/>
    <path d="M 260.334739 354.843082 
L 275.14408 341.900893 
L 274.578536 204.613639 
L 259.339537 216.819525 
z
" clip-path="url(#p9ef728fd74)" style="fill: #324880"/>
    <path d="M 311.243192 370.042325 
L 325.787018 356.863402 
L 326.141082 301.577796 
L 311.431462 314.466822 
z
" clip-path="url(#p9ef728fd74)" style="fill: #324880"/>
    <path d="M 154.590452 358.345494 
L 179.500401 365.942516 
L 177.84857 297.336019 
L 152.591628 289.946642 
z
" clip-path="url(#p9ef728fd74)" style="fill: #648fff"/>
    <path d="M 235.224783 347.346245 
L 260.334739 354.843082 
L 259.339537 216.819525 
L 233.516771 209.748531 
z
" clip-path="url(#p9ef728fd74)" style="fill: #648fff"/>
    <path d="M 285.673165 362.40813 
L 311.243192 370.042325 
L 311.431462 314.466822 
L 285.56546 307.00027 
z
" clip-path="url(#p9ef728fd74)" style="fill: #648fff"/>
    <path d="M 285.56546 307.00027 
L 311.431462 314.466822 
L 326.141082 301.577796 
L 300.412463 294.229132 
z
" clip-path="url(#p9ef728fd74)" style="fill: #577ddf"/>
    <path d="M 152.591628 289.946642 
L 177.84857 297.336019 
L 193.622893 284.580223 
L 168.493685 277.307541 
z
" clip-path="url(#p9ef728fd74)" style="fill: #577ddf"/>
    <path d="M 270.76192 375.675331 
L 270.721982 367.788338 
L 296.469697 375.521007 
L 296.467278 383.431556 
z
" clip-path="url(#p9ef728fd74)" style="fill: #324880"/>
    <path d="M 255.61192 389.154964 
L 255.546503 381.227108 
L 270.721982 367.788338 
L 270.76192 375.675331 
z
" clip-path="url(#p9ef728fd74)" style="fill: #648fff"/>
    <path d="M 255.61192 389.154964 
L 270.76192 375.675331 
L 296.467278 383.431556 
L 281.453676 397.036168 
z
" clip-path="url(#p9ef728fd74)" style="fill: #3f599f"/>
    <path d="M 255.546503 381.227108 
L 281.431067 389.084585 
L 296.469697 375.521007 
L 270.721982 367.788338 
z
" clip-path="url(#p9ef728fd74)" style="fill: #577ddf"/>
    <path d="M 281.453676 397.036168 
L 296.467278 383.431556 
L 296.469697 375.521007 
L 281.431067 389.084585 
z
" clip-path="url(#p9ef728fd74)" style="fill: #324880"/>
    <path d="M 233.516771 209.748531 
L 259.339537 216.819525 
L 274.578536 204.613639 
L 248.891417 197.655135 
z
" clip-path="url(#p9ef728fd74)" style="fill: #577ddf"/>
    <path d="M 255.61192 389.154964 
L 281.453676 397.036168 
L 281.431067 389.084585 
L 255.546503 381.227108 
z
" clip-path="url(#p9ef728fd74)" style="fill: #648fff"/>
   </g>
   <g id="text_16">
    <!-- Real Amplitude (ρ) -->
    <g transform="translate(190.023516 51.6) scale(0.21 -0.21)">
     <defs>
      <path id="DejaVuSans-52" d="M 2841 2188 
Q 3044 2119 3236 1894 
Q 3428 1669 3622 1275 
L 4263 0 
L 3584 0 
L 2988 1197 
Q 2756 1666 2539 1819 
Q 2322 1972 1947 1972 
L 1259 1972 
L 1259 0 
L 628 0 
L 628 4666 
L 2053 4666 
Q 2853 4666 3247 4331 
Q 3641 3997 3641 3322 
Q 3641 2881 3436 2590 
Q 3231 2300 2841 2188 
z
M 1259 4147 
L 1259 2491 
L 2053 2491 
Q 2509 2491 2742 2702 
Q 2975 2913 2975 3322 
Q 2975 3731 2742 3939 
Q 2509 4147 2053 4147 
L 1259 4147 
z
" transform="scale(0.015625)"/>
      <path id="DejaVuSans-65" d="M 3597 1894 
L 3597 1613 
L 953 1613 
Q 991 1019 1311 708 
Q 1631 397 2203 397 
Q 2534 397 2845 478 
Q 3156 559 3463 722 
L 3463 178 
Q 3153 47 2828 -22 
Q 2503 -91 2169 -91 
Q 1331 -91 842 396 
Q 353 884 353 1716 
Q 353 2575 817 3079 
Q 1281 3584 2069 3584 
Q 2775 3584 3186 3129 
Q 3597 2675 3597 1894 
z
M 3022 2063 
Q 3016 2534 2758 2815 
Q 2500 3097 2075 3097 
Q 1594 3097 1305 2825 
Q 1016 2553 972 2059 
L 3022 2063 
z
" transform="scale(0.015625)"/>
      <path id="DejaVuSans-61" d="M 2194 1759 
Q 1497 1759 1228 1600 
Q 959 1441 959 1056 
Q 959 750 1161 570 
Q 1363 391 1709 391 
Q 2188 391 2477 730 
Q 2766 1069 2766 1631 
L 2766 1759 
L 2194 1759 
z
M 3341 1997 
L 3341 0 
L 2766 0 
L 2766 531 
Q 2569 213 2275 61 
Q 1981 -91 1556 -91 
Q 1019 -91 701 211 
Q 384 513 384 1019 
Q 384 1609 779 1909 
Q 1175 2209 1959 2209 
L 2766 2209 
L 2766 2266 
Q 2766 2663 2505 2880 
Q 2244 3097 1772 3097 
Q 1472 3097 1187 3025 
Q 903 2953 641 2809 
L 641 3341 
Q 956 3463 1253 3523 
Q 1550 3584 1831 3584 
Q 2591 3584 2966 3190 
Q 3341 2797 3341 1997 
z
" transform="scale(0.015625)"/>
      <path id="DejaVuSans-6c" d="M 603 4863 
L 1178 4863 
L 1178 0 
L 603 0 
L 603 4863 
z
" transform="scale(0.015625)"/>
      <path id="DejaVuSans-20" transform="scale(0.015625)"/>
      <path id="DejaVuSans-41" d="M 2188 4044 
L 1331 1722 
L 3047 1722 
L 2188 4044 
z
M 1831 4666 
L 2547 4666 
L 4325 0 
L 3669 0 
L 3244 1197 
L 1141 1197 
L 716 0 
L 50 0 
L 1831 4666 
z
" transform="scale(0.015625)"/>
      <path id="DejaVuSans-6d" d="M 3328 2828 
Q 3544 3216 3844 3400 
Q 4144 3584 4550 3584 
Q 5097 3584 5394 3201 
Q 5691 2819 5691 2113 
L 5691 0 
L 5113 0 
L 5113 2094 
Q 5113 2597 4934 2840 
Q 4756 3084 4391 3084 
Q 3944 3084 3684 2787 
Q 3425 2491 3425 1978 
L 3425 0 
L 2847 0 
L 2847 2094 
Q 2847 2600 2669 2842 
Q 2491 3084 2119 3084 
Q 1678 3084 1418 2786 
Q 1159 2488 1159 1978 
L 1159 0 
L 581 0 
L 581 3500 
L 1159 3500 
L 1159 2956 
Q 1356 3278 1631 3431 
Q 1906 3584 2284 3584 
Q 2666 3584 2933 3390 
Q 3200 3197 3328 2828 
z
" transform="scale(0.015625)"/>
      <path id="DejaVuSans-70" d="M 1159 525 
L 1159 -1331 
L 581 -1331 
L 581 3500 
L 1159 3500 
L 1159 2969 
Q 1341 3281 1617 3432 
Q 1894 3584 2278 3584 
Q 2916 3584 3314 3078 
Q 3713 2572 3713 1747 
Q 3713 922 3314 415 
Q 2916 -91 2278 -91 
Q 1894 -91 1617 61 
Q 1341 213 1159 525 
z
M 3116 1747 
Q 3116 2381 2855 2742 
Q 2594 3103 2138 3103 
Q 1681 3103 1420 2742 
Q 1159 2381 1159 1747 
Q 1159 1113 1420 752 
Q 1681 391 2138 391 
Q 2594 391 2855 752 
Q 3116 1113 3116 1747 
z
" transform="scale(0.015625)"/>
      <path id="DejaVuSans-69" d="M 603 3500 
L 1178 3500 
L 1178 0 
L 603 0 
L 603 3500 
z
M 603 4863 
L 1178 4863 
L 1178 4134 
L 603 4134 
L 603 4863 
z
" transform="scale(0.015625)"/>
      <path id="DejaVuSans-74" d="M 1172 4494 
L 1172 3500 
L 2356 3500 
L 2356 3053 
L 1172 3053 
L 1172 1153 
Q 1172 725 1289 603 
Q 1406 481 1766 481 
L 2356 481 
L 2356 0 
L 1766 0 
Q 1100 0 847 248 
Q 594 497 594 1153 
L 594 3053 
L 172 3053 
L 172 3500 
L 594 3500 
L 594 4494 
L 1172 4494 
z
" transform="scale(0.015625)"/>
      <path id="DejaVuSans-75" d="M 544 1381 
L 544 3500 
L 1119 3500 
L 1119 1403 
Q 1119 906 1312 657 
Q 1506 409 1894 409 
Q 2359 409 2629 706 
Q 2900 1003 2900 1516 
L 2900 3500 
L 3475 3500 
L 3475 0 
L 2900 0 
L 2900 538 
Q 2691 219 2414 64 
Q 2138 -91 1772 -91 
Q 1169 -91 856 284 
Q 544 659 544 1381 
z
M 1991 3584 
L 1991 3584 
z
" transform="scale(0.015625)"/>
      <path id="DejaVuSans-64" d="M 2906 2969 
L 2906 4863 
L 3481 4863 
L 3481 0 
L 2906 0 
L 2906 525 
Q 2725 213 2448 61 
Q 2172 -91 1784 -91 
Q 1150 -91 751 415 
Q 353 922 353 1747 
Q 353 2572 751 3078 
Q 1150 3584 1784 3584 
Q 2172 3584 2448 3432 
Q 2725 3281 2906 2969 
z
M 947 1747 
Q 947 1113 1208 752 
Q 1469 391 1925 391 
Q 2381 391 2643 752 
Q 2906 1113 2906 1747 
Q 2906 2381 2643 2742 
Q 2381 3103 1925 3103 
Q 1469 3103 1208 2742 
Q 947 2381 947 1747 
z
" transform="scale(0.015625)"/>
      <path id="DejaVuSans-28" d="M 1984 4856 
Q 1566 4138 1362 3434 
Q 1159 2731 1159 2009 
Q 1159 1288 1364 580 
Q 1569 -128 1984 -844 
L 1484 -844 
Q 1016 -109 783 600 
Q 550 1309 550 2009 
Q 550 2706 781 3412 
Q 1013 4119 1484 4856 
L 1984 4856 
z
" transform="scale(0.015625)"/>
      <path id="DejaVuSans-3c1" d="M 863 2875 
Q 1053 3194 1525 3475 
Q 1709 3584 2278 3584 
Q 2916 3584 3314 3078 
Q 3713 2572 3713 1747 
Q 3713 922 3314 415 
Q 2916 -91 2278 -91 
Q 1894 -91 1617 61 
Q 1341 213 1159 525 
L 1159 -1331 
L 581 -1331 
L 581 1716 
Q 581 2438 863 2875 
z
M 3116 1747 
Q 3116 2381 2855 2742 
Q 2594 3103 2138 3103 
Q 1681 3103 1420 2742 
Q 1159 2381 1159 1747 
Q 1159 1113 1420 752 
Q 1681 391 2138 391 
Q 2594 391 2855 752 
Q 3116 1113 3116 1747 
z
" transform="scale(0.015625)"/>
      <path id="DejaVuSans-29" d="M 513 4856 
L 1013 4856 
Q 1481 4119 1714 3412 
Q 1947 2706 1947 2009 
Q 1947 1309 1714 600 
Q 1481 -109 1013 -844 
L 513 -844 
Q 928 -128 1133 580 
Q 1338 1288 1338 2009 
Q 1338 2731 1133 3434 
Q 928 4138 513 4856 
z
" transform="scale(0.015625)"/>
     </defs>
     <use xlink:href="#DejaVuSans-52"/>
     <use xlink:href="#DejaVuSans-65" x="64.982422"/>
     <use xlink:href="#DejaVuSans-61" x="126.505859"/>
     <use xlink:href="#DejaVuSans-6c" x="187.785156"/>
     <use xlink:href="#DejaVuSans-20" x="215.568359"/>
     <use xlink:href="#DejaVuSans-41" x="247.355469"/>
     <use xlink:href="#DejaVuSans-6d" x="315.763672"/>
     <use xlink:href="#DejaVuSans-70" x="413.175781"/>
     <use xlink:href="#DejaVuSans-6c" x="476.652344"/>
     <use xlink:href="#DejaVuSans-69" x="504.435547"/>
     <use xlink:href="#DejaVuSans-74" x="532.21875"/>
     <use xlink:href="#DejaVuSans-75" x="571.427734"/>
     <use xlink:href="#DejaVuSans-64" x="634.806641"/>
     <use xlink:href="#DejaVuSans-65" x="698.283203"/>
     <use xlink:href="#DejaVuSans-20" x="759.806641"/>
     <use xlink:href="#DejaVuSans-28" x="791.59375"/>
     <use xlink:href="#DejaVuSans-3c1" x="830.607422"/>
     <use xlink:href="#DejaVuSans-29" x="894.083984"/>
    </g>
   </g>
  </g>
  <g id="patch_6">
   <path d="M 604.8 576 
L 1123.2 576 
L 1123.2 57.6 
L 604.8 57.6 
z
" style="fill: #ffffff"/>
  </g>
  <g id="pane3d_4">
   <g id="patch_7">
    <path d="M 706.07018 436.456468 
L 829.494133 330.550231 
L 827.743197 126.70673 
L 698.643358 223.613571 
" style="fill: #f2f2f2; opacity: 0.5; stroke: #f2f2f2; stroke-linejoin: miter"/>
   </g>
  </g>
  <g id="pane3d_5">
   <g id="patch_8">
    <path d="M 829.494133 330.550231 
L 1031.554898 390.069341 
L 1038.583588 181.103065 
L 827.743197 126.70673 
" style="fill: #e6e6e6; opacity: 0.5; stroke: #e6e6e6; stroke-linejoin: miter"/>
   </g>
  </g>
  <g id="pane3d_6">
   <g id="patch_9">
    <path d="M 706.07018 436.456468 
L 916.912731 504.076731 
L 1031.554898 390.069341 
L 829.494133 330.550231 
" style="fill: #ececec; opacity: 0.5; stroke: #ececec; stroke-linejoin: miter"/>
   </g>
  </g>
  <g id="grid3d_4">
   <g id="Line3DCollection_4">
    <path d="M 734.635886 445.617904 
L 856.925726 338.630493 
L 856.328796 134.081748 
" style="fill: none; stroke: #b0b0b0; stroke-width: 0.8"/>
    <path d="M 784.310046 461.549127 
L 904.58611 352.669358 
L 906.022474 146.902603 
" style="fill: none; stroke: #b0b0b0; stroke-width: 0.8"/>
    <path d="M 834.89502 477.772462 
L 953.066152 366.949661 
L 956.607663 159.953465 
" style="fill: none; stroke: #b0b0b0; stroke-width: 0.8"/>
    <path d="M 886.41609 494.296016 
L 1002.38718 381.477685 
L 1008.108569 173.24058 
" style="fill: none; stroke: #b0b0b0; stroke-width: 0.8"/>
   </g>
  </g>
  <g id="grid3d_5">
   <g id="Line3DCollection_5">
    <path d="M 717.757365 209.265931 
L 724.301379 420.812846 
L 933.880707 487.202708 
" style="fill: none; stroke: #b0b0b0; stroke-width: 0.8"/>
    <path d="M 749.704273 185.285468 
L 754.805664 394.638072 
L 962.24502 458.995448 
" style="fill: none; stroke: #b0b0b0; stroke-width: 0.8"/>
    <path d="M 780.65707 162.051218 
L 784.400054 369.24405 
L 989.731787 431.660877 
" style="fill: none; stroke: #b0b0b0; stroke-width: 0.8"/>
    <path d="M 810.661448 139.528886 
L 813.124663 344.596362 
L 1016.38111 405.159111 
" style="fill: none; stroke: #b0b0b0; stroke-width: 0.8"/>
   </g>
  </g>
  <g id="grid3d_6">
   <g id="Line3DCollection_6">
    <path d="M 1032.453233 363.361411 
L 829.270047 304.46218 
L 705.12195 409.281447 
" style="fill: none; stroke: #b0b0b0; stroke-width: 0.8"/>
    <path d="M 1033.365876 336.228112 
L 829.042481 277.969107 
L 704.158321 381.665108 
" style="fill: none; stroke: #b0b0b0; stroke-width: 0.8"/>
    <path d="M 1034.288895 308.786307 
L 828.812421 251.185539 
L 703.18343 353.726044 
" style="fill: none; stroke: #b0b0b0; stroke-width: 0.8"/>
    <path d="M 1035.222469 281.030704 
L 828.579824 224.106673 
L 702.197081 325.458564 
" style="fill: none; stroke: #b0b0b0; stroke-width: 0.8"/>
    <path d="M 1036.16678 252.955891 
L 828.344649 196.727596 
L 701.199068 296.856843 
" style="fill: none; stroke: #b0b0b0; stroke-width: 0.8"/>
    <path d="M 1037.122014 224.556329 
L 828.106851 169.043289 
L 700.189185 267.914918 
" style="fill: none; stroke: #b0b0b0; stroke-width: 0.8"/>
    <path d="M 1038.088362 195.82635 
L 827.866388 141.048619 
L 699.167217 238.626683 
" style="fill: none; stroke: #b0b0b0; stroke-width: 0.8"/>
   </g>
  </g>
  <g id="axis3d_4">
   <g id="line2d_19">
    <path d="M 706.07018 436.456468 
L 916.912731 504.076731 
" style="fill: none; stroke: #000000; stroke-width: 0.8; stroke-linecap: square"/>
   </g>
   <g id="xtick_16">
    <g id="line2d_20">
     <path d="M 735.677227 444.706868 
L 732.549953 447.442819 
" style="fill: none; stroke: #000000; stroke-width: 0.8; stroke-linecap: square"/>
    </g>
    <g id="text_17">
     <!-- 00 -->
     <g transform="translate(707.351686 489.365693) rotate(-45) scale(0.21 -0.21)">
      <use xlink:href="#DejaVuSans-30"/>
      <use xlink:href="#DejaVuSans-30" x="63.623047"/>
     </g>
    </g>
   </g>
   <g id="xtick_17">
    <g id="line2d_21">
     <path d="M 785.334802 460.621468 
L 782.257306 463.407368 
" style="fill: none; stroke: #000000; stroke-width: 0.8; stroke-linecap: square"/>
    </g>
    <g id="text_18">
     <!-- 01 -->
     <g transform="translate(757.023931 505.435143) rotate(-45) scale(0.21 -0.21)">
      <use xlink:href="#DejaVuSans-30"/>
      <use xlink:href="#DejaVuSans-31" x="63.623047"/>
     </g>
    </g>
   </g>
   <g id="xtick_18">
    <g id="line2d_22">
     <path d="M 835.902405 476.82772 
L 832.877048 479.664949 
" style="fill: none; stroke: #000000; stroke-width: 0.8; stroke-linecap: square"/>
    </g>
    <g id="text_19">
     <!-- 10 -->
     <g transform="translate(807.60781 521.799516) rotate(-45) scale(0.21 -0.21)">
      <use xlink:href="#DejaVuSans-31"/>
      <use xlink:href="#DejaVuSans-30" x="63.623047"/>
     </g>
    </g>
   </g>
   <g id="xtick_19">
    <g id="line2d_23">
     <path d="M 887.405283 493.333715 
L 884.434531 496.223705 
" style="fill: none; stroke: #000000; stroke-width: 0.8; stroke-linecap: square"/>
    </g>
    <g id="text_20">
     <!-- 11 -->
     <g transform="translate(859.128654 538.467006) rotate(-45) scale(0.21 -0.21)">
      <use xlink:href="#DejaVuSans-31"/>
      <use xlink:href="#DejaVuSans-31" x="63.623047"/>
     </g>
    </g>
   </g>
  </g>
  <g id="axis3d_5">
   <g id="line2d_24">
    <path d="M 1031.554898 390.069341 
L 916.912731 504.076731 
" style="fill: none; stroke: #000000; stroke-width: 0.8; stroke-linecap: square"/>
   </g>
   <g id="xtick_20">
    <g id="line2d_25">
     <path d="M 932.140222 486.651363 
L 937.364886 488.306415 
" style="fill: none; stroke: #000000; stroke-width: 0.8; stroke-linecap: square"/>
    </g>
    <g id="text_21">
     <!-- 00 -->
     <g transform="translate(944.70027 499.207917) rotate(-337.5) scale(0.21 -0.21)">
      <use xlink:href="#DejaVuSans-30"/>
      <use xlink:href="#DejaVuSans-30" x="63.623047"/>
     </g>
    </g>
   </g>
   <g id="xtick_21">
    <g id="line2d_26">
     <path d="M 960.5233 458.46129 
L 965.691587 460.064734 
" style="fill: none; stroke: #000000; stroke-width: 0.8; stroke-linecap: square"/>
    </g>
    <g id="text_22">
     <!-- 01 -->
     <g transform="translate(972.913817 470.822876) rotate(-337.5) scale(0.21 -0.21)">
      <use xlink:href="#DejaVuSans-30"/>
      <use xlink:href="#DejaVuSans-31" x="63.623047"/>
     </g>
    </g>
   </g>
   <g id="xtick_22">
    <g id="line2d_27">
     <path d="M 988.028511 431.143114 
L 993.141381 432.697327 
" style="fill: none; stroke: #000000; stroke-width: 0.8; stroke-linecap: square"/>
    </g>
    <g id="text_23">
     <!-- 10 -->
     <g transform="translate(1000.254695 443.315808) rotate(-337.5) scale(0.21 -0.21)">
      <use xlink:href="#DejaVuSans-31"/>
      <use xlink:href="#DejaVuSans-30" x="63.623047"/>
     </g>
    </g>
   </g>
   <g id="xtick_23">
    <g id="line2d_28">
     <path d="M 1014.695964 404.657001 
L 1019.754368 406.164215 
" style="fill: none; stroke: #000000; stroke-width: 0.8; stroke-linecap: square"/>
    </g>
    <g id="text_24">
     <!-- 11 -->
     <g transform="translate(1026.762776 416.646599) rotate(-337.5) scale(0.21 -0.21)">
      <use xlink:href="#DejaVuSans-31"/>
      <use xlink:href="#DejaVuSans-31" x="63.623047"/>
     </g>
    </g>
   </g>
  </g>
  <g id="axis3d_6">
   <g id="line2d_29">
    <path d="M 1031.554898 390.069341 
L 1038.583588 181.103065 
" style="fill: none; stroke: #000000; stroke-width: 0.8; stroke-linecap: square"/>
   </g>
   <g id="xtick_24">
    <g id="line2d_30">
     <path d="M 1030.768887 362.873149 
L 1035.82488 364.338792 
" style="fill: none; stroke: #000000; stroke-width: 0.8; stroke-linecap: square"/>
    </g>
    <g id="text_25">
     <!-- −0.2 -->
     <g transform="translate(1046.006887 357.092678) scale(0.21 -0.21)">
      <use xlink:href="#DejaVuSans-2212"/>
      <use xlink:href="#DejaVuSans-30" x="83.789062"/>
      <use xlink:href="#DejaVuSans-2e" x="147.412109"/>
      <use xlink:href="#DejaVuSans-32" x="179.199219"/>
     </g>
    </g>
   </g>
   <g id="xtick_25">
    <g id="line2d_31">
     <path d="M 1031.671743 335.745061 
L 1036.75713 337.195065 
" style="fill: none; stroke: #000000; stroke-width: 0.8; stroke-linecap: square"/>
    </g>
    <g id="text_26">
     <!-- −0.1 -->
     <g transform="translate(1046.995015 329.979684) scale(0.21 -0.21)">
      <use xlink:href="#DejaVuSans-2212"/>
      <use xlink:href="#DejaVuSans-30" x="83.789062"/>
      <use xlink:href="#DejaVuSans-2e" x="147.412109"/>
      <use xlink:href="#DejaVuSans-31" x="179.199219"/>
     </g>
    </g>
   </g>
   <g id="xtick_26">
    <g id="line2d_32">
     <path d="M 1032.584861 308.308619 
L 1037.699987 309.74253 
" style="fill: none; stroke: #000000; stroke-width: 0.8; stroke-linecap: square"/>
    </g>
    <g id="text_27">
     <!-- 0.0 -->
     <g transform="translate(1047.994365 302.55877) scale(0.21 -0.21)">
      <use xlink:href="#DejaVuSans-30"/>
      <use xlink:href="#DejaVuSans-2e" x="63.623047"/>
      <use xlink:href="#DejaVuSans-30" x="95.410156"/>
     </g>
    </g>
   </g>
   <g id="xtick_27">
    <g id="line2d_33">
     <path d="M 1033.508418 280.558533 
L 1038.65363 281.975889 
" style="fill: none; stroke: #000000; stroke-width: 0.8; stroke-linecap: square"/>
    </g>
    <g id="text_28">
     <!-- 0.1 -->
     <g transform="translate(1049.005129 274.82466) scale(0.21 -0.21)">
      <use xlink:href="#DejaVuSans-30"/>
      <use xlink:href="#DejaVuSans-2e" x="63.623047"/>
      <use xlink:href="#DejaVuSans-31" x="95.410156"/>
     </g>
    </g>
   </g>
   <g id="xtick_28">
    <g id="line2d_34">
     <path d="M 1034.442593 252.489396 
L 1039.618249 253.88972 
" style="fill: none; stroke: #000000; stroke-width: 0.8; stroke-linecap: square"/>
    </g>
    <g id="text_29">
     <!-- 0.2 -->
     <g transform="translate(1050.027504 246.771958) scale(0.21 -0.21)">
      <use xlink:href="#DejaVuSans-30"/>
      <use xlink:href="#DejaVuSans-2e" x="63.623047"/>
      <use xlink:href="#DejaVuSans-32" x="95.410156"/>
     </g>
    </g>
   </g>
   <g id="xtick_29">
    <g id="line2d_35">
     <path d="M 1035.387571 224.095673 
L 1040.594032 225.478474 
" style="fill: none; stroke: #000000; stroke-width: 0.8; stroke-linecap: square"/>
    </g>
    <g id="text_30">
     <!-- 0.3 -->
     <g transform="translate(1051.061692 218.395142) scale(0.21 -0.21)">
      <use xlink:href="#DejaVuSans-30"/>
      <use xlink:href="#DejaVuSans-2e" x="63.623047"/>
      <use xlink:href="#DejaVuSans-33" x="95.410156"/>
     </g>
    </g>
   </g>
   <g id="xtick_30">
    <g id="line2d_36">
     <path d="M 1036.34354 195.3717 
L 1041.581174 196.736475 
" style="fill: none; stroke: #000000; stroke-width: 0.8; stroke-linecap: square"/>
    </g>
    <g id="text_31">
     <!-- 0.4 -->
     <g transform="translate(1052.107898 189.688563) scale(0.21 -0.21)">
      <use xlink:href="#DejaVuSans-30"/>
      <use xlink:href="#DejaVuSans-2e" x="63.623047"/>
      <use xlink:href="#DejaVuSans-34" x="95.410156"/>
     </g>
    </g>
   </g>
  </g>
  <g id="axes_2">
   <g id="Poly3DCollection_4">
    <path d="M 835.285161 263.421764 
L 835.491056 291.665052 
L 859.449511 298.547371 
L 859.382225 270.221939 
z
" clip-path="url(#p845df64b0e)" style="fill: #648fff"/>
    <path d="M 821.260961 303.623241 
L 845.337607 310.609064 
L 859.449511 298.547371 
L 835.491056 291.665052 
z
" clip-path="url(#p845df64b0e)" style="fill: #577ddf"/>
    <path d="M 820.970398 275.237442 
L 821.260961 303.623241 
L 835.491056 291.665052 
L 835.285161 263.421764 
z
" clip-path="url(#p845df64b0e)" style="fill: #324880"/>
    <path d="M 845.187024 282.140486 
L 859.382225 270.221939 
L 859.449511 298.547371 
L 845.337607 310.609064 
z
" clip-path="url(#p845df64b0e)" style="fill: #648fff"/>
    <path d="M 820.970398 275.237442 
L 835.285161 263.421764 
L 859.382225 270.221939 
L 845.187024 282.140486 
z
" clip-path="url(#p845df64b0e)" style="fill: #3f599f"/>
    <path d="M 820.970398 275.237442 
L 845.187024 282.140486 
L 845.337607 310.609064 
L 821.260961 303.623241 
z
" clip-path="url(#p845df64b0e)" style="fill: #324880"/>
    <path d="M 841.326371 395.148648 
L 865.804936 402.627416 
L 879.944894 389.715135 
L 855.588941 382.348599 
z
" clip-path="url(#p845df64b0e)" style="fill: #577ddf"/>
    <path d="M 855.327628 301.310529 
L 855.588941 382.348599 
L 879.944894 389.715135 
L 880.097092 308.443314 
z
" clip-path="url(#p845df64b0e)" style="fill: #648fff"/>
    <path d="M 840.819429 313.705089 
L 841.326371 395.148648 
L 855.588941 382.348599 
L 855.327628 301.310529 
z
" clip-path="url(#p845df64b0e)" style="fill: #324880"/>
    <path d="M 865.715711 320.948412 
L 880.097092 308.443314 
L 879.944894 389.715135 
L 865.804936 402.627416 
z
" clip-path="url(#p845df64b0e)" style="fill: #648fff"/>
    <path d="M 840.819429 313.705089 
L 865.715711 320.948412 
L 865.804936 402.627416 
L 841.326371 395.148648 
z
" clip-path="url(#p845df64b0e)" style="fill: #324880"/>
    <path d="M 840.819429 313.705089 
L 855.327628 301.310529 
L 880.097092 308.443314 
L 865.715711 320.948412 
z
" clip-path="url(#p845df64b0e)" style="fill: #3f599f"/>
    <path d="M 955.740607 330.226139 
L 955.740607 330.226139 
L 981.410193 337.618129 
L 981.410193 337.618129 
z
" clip-path="url(#p845df64b0e)" style="fill: #648fff"/>
    <path d="M 941.757037 343.071872 
L 941.757037 343.071872 
L 955.740607 330.226139 
L 955.740607 330.226139 
z
" clip-path="url(#p845df64b0e)" style="fill: #324880"/>
    <path d="M 941.757037 343.071872 
L 955.740607 330.226139 
L 981.410193 337.618129 
L 967.565224 350.580505 
z
" clip-path="url(#p845df64b0e)" style="fill: #3f599f"/>
    <path d="M 941.757037 343.071872 
L 967.565224 350.580505 
L 981.410193 337.618129 
L 955.740607 330.226139 
z
" clip-path="url(#p845df64b0e)" style="fill: #577ddf"/>
    <path d="M 746.041498 337.085186 
L 746.041498 337.085186 
L 770.868882 344.539344 
L 770.868882 344.539344 
z
" clip-path="url(#p845df64b0e)" style="fill: #648fff"/>
    <path d="M 730.347714 350.039135 
L 730.347714 350.039135 
L 746.041498 337.085186 
L 746.041498 337.085186 
z
" clip-path="url(#p845df64b0e)" style="fill: #324880"/>
    <path d="M 781.505687 419.571178 
L 806.634519 427.44318 
L 821.766713 413.853596 
L 796.765662 406.104119 
z
" clip-path="url(#p845df64b0e)" style="fill: #577ddf"/>
    <path d="M 967.565224 350.580505 
L 981.410193 337.618129 
L 981.410193 337.618129 
L 967.565224 350.580505 
z
" clip-path="url(#p845df64b0e)" style="fill: #648fff"/>
    <path d="M 795.92228 352.061361 
L 796.765662 406.104119 
L 821.766713 413.853596 
L 821.204791 359.652166 
z
" clip-path="url(#p845df64b0e)" style="fill: #648fff"/>
    <path d="M 941.757037 343.071872 
L 967.565224 350.580505 
L 967.565224 350.580505 
L 941.757037 343.071872 
z
" clip-path="url(#p845df64b0e)" style="fill: #324880"/>
    <path d="M 730.347714 350.039135 
L 746.041498 337.085186 
L 770.868882 344.539344 
L 755.299814 357.611416 
z
" clip-path="url(#p845df64b0e)" style="fill: #3f599f"/>
    <path d="M 730.347714 350.039135 
L 755.299814 357.611416 
L 770.868882 344.539344 
L 746.041498 337.085186 
z
" clip-path="url(#p845df64b0e)" style="fill: #577ddf"/>
    <path d="M 780.480868 365.253178 
L 781.505687 419.571178 
L 796.765662 406.104119 
L 795.92228 352.061361 
z
" clip-path="url(#p845df64b0e)" style="fill: #324880"/>
    <path d="M 755.299814 357.611416 
L 770.868882 344.539344 
L 770.868882 344.539344 
L 755.299814 357.611416 
z
" clip-path="url(#p845df64b0e)" style="fill: #648fff"/>
    <path d="M 832.114093 450.013752 
L 857.62722 458.073018 
L 872.448704 444.160435 
L 847.068544 436.227357 
z
" clip-path="url(#p845df64b0e)" style="fill: #577ddf"/>
    <path d="M 927.552441 356.120646 
L 927.135342 391.578968 
L 952.889152 399.311832 
L 953.500416 363.748704 
z
" clip-path="url(#p845df64b0e)" style="fill: #648fff"/>
    <path d="M 730.347714 350.039135 
L 755.299814 357.611416 
L 755.299814 357.611416 
L 730.347714 350.039135 
z
" clip-path="url(#p845df64b0e)" style="fill: #324880"/>
    <path d="M 912.808427 405.01744 
L 938.701098 412.873354 
L 952.889152 399.311832 
L 927.135342 391.578968 
z
" clip-path="url(#p845df64b0e)" style="fill: #577ddf"/>
    <path d="M 913.121538 369.377314 
L 912.808427 405.01744 
L 927.135342 391.578968 
L 927.552441 356.120646 
z
" clip-path="url(#p845df64b0e)" style="fill: #324880"/>
    <path d="M 805.894041 372.965382 
L 821.204791 359.652166 
L 821.766713 413.853596 
L 806.634519 427.44318 
z
" clip-path="url(#p845df64b0e)" style="fill: #648fff"/>
    <path d="M 846.719574 367.312708 
L 847.068544 436.227357 
L 872.448704 444.160435 
L 872.469843 375.043952 
z
" clip-path="url(#p845df64b0e)" style="fill: #648fff"/>
    <path d="M 780.480868 365.253178 
L 805.894041 372.965382 
L 806.634519 427.44318 
L 781.505687 419.571178 
z
" clip-path="url(#p845df64b0e)" style="fill: #324880"/>
    <path d="M 831.542558 380.749006 
L 832.114093 450.013752 
L 847.068544 436.227357 
L 846.719574 367.312708 
z
" clip-path="url(#p845df64b0e)" style="fill: #324880"/>
    <path d="M 780.480868 365.253178 
L 795.92228 352.061361 
L 821.204791 359.652166 
L 805.894041 372.965382 
z
" clip-path="url(#p845df64b0e)" style="fill: #3f599f"/>
    <path d="M 939.210492 377.127669 
L 953.500416 363.748704 
L 952.889152 399.311832 
L 938.701098 412.873354 
z
" clip-path="url(#p845df64b0e)" style="fill: #648fff"/>
    <path d="M 913.121538 369.377314 
L 927.552441 356.120646 
L 953.500416 363.748704 
L 939.210492 377.127669 
z
" clip-path="url(#p845df64b0e)" style="fill: #3f599f"/>
    <path d="M 913.121538 369.377314 
L 939.210492 377.127669 
L 938.701098 412.873354 
L 912.808427 405.01744 
z
" clip-path="url(#p845df64b0e)" style="fill: #324880"/>
    <path d="M 857.429704 388.605048 
L 872.469843 375.043952 
L 872.448704 444.160435 
L 857.62722 458.073018 
z
" clip-path="url(#p845df64b0e)" style="fill: #648fff"/>
    <path d="M 831.542558 380.749006 
L 857.429704 388.605048 
L 857.62722 458.073018 
L 832.114093 450.013752 
z
" clip-path="url(#p845df64b0e)" style="fill: #324880"/>
    <path d="M 831.542558 380.749006 
L 846.719574 367.312708 
L 872.469843 375.043952 
L 857.429704 388.605048 
z
" clip-path="url(#p845df64b0e)" style="fill: #3f599f"/>
   </g>
   <g id="Poly3DCollection_5">
    <path d="M 709.985821 352.80278 
L 915.781665 415.594306 
L 1027.842384 309.661268 
L 830.421138 254.226696 
z
" clip-path="url(#p845df64b0e)" style="fill-opacity: 0.25"/>
   </g>
   <g id="Poly3DCollection_6">
    <path d="M 883.688746 277.081222 
L 883.779159 242.250048 
L 908.473828 249.065625 
L 908.207468 284.000389 
z
" clip-path="url(#p845df64b0e)" style="fill: #324880"/>
    <path d="M 869.615744 289.103988 
L 883.688746 277.081222 
L 908.207468 284.000389 
L 894.259354 296.128746 
z
" clip-path="url(#p845df64b0e)" style="fill: #3f599f"/>
    <path d="M 869.615744 289.103988 
L 869.605762 254.093088 
L 883.779159 242.250048 
L 883.688746 277.081222 
z
" clip-path="url(#p845df64b0e)" style="fill: #648fff"/>
    <path d="M 932.94118 290.980226 
L 932.94118 290.980226 
L 957.892724 298.021534 
L 957.892724 298.021534 
z
" clip-path="url(#p845df64b0e)" style="fill: #324880"/>
    <path d="M 894.259354 296.128746 
L 908.207468 284.000389 
L 908.473828 249.065625 
L 894.427126 261.013427 
z
" clip-path="url(#p845df64b0e)" style="fill: #324880"/>
    <path d="M 791.685223 299.409985 
L 806.438741 287.232149 
L 830.775796 294.240415 
L 816.143571 306.525896 
z
" clip-path="url(#p845df64b0e)" style="fill: #3f599f"/>
    <path d="M 919.120705 303.215572 
L 919.120705 303.215572 
L 932.94118 290.980226 
L 932.94118 290.980226 
z
" clip-path="url(#p845df64b0e)" style="fill: #648fff"/>
    <path d="M 869.605762 254.093088 
L 894.427126 261.013427 
L 908.473828 249.065625 
L 883.779159 242.250048 
z
" clip-path="url(#p845df64b0e)" style="fill: #577ddf"/>
    <path d="M 869.615744 289.103988 
L 894.259354 296.128746 
L 894.427126 261.013427 
L 869.605762 254.093088 
z
" clip-path="url(#p845df64b0e)" style="fill: #648fff"/>
    <path d="M 919.120705 303.215572 
L 932.94118 290.980226 
L 957.892724 298.021534 
L 944.202694 310.365291 
z
" clip-path="url(#p845df64b0e)" style="fill: #3f599f"/>
    <path d="M 919.120705 303.215572 
L 944.202694 310.365291 
L 957.892724 298.021534 
L 932.94118 290.980226 
z
" clip-path="url(#p845df64b0e)" style="fill: #577ddf"/>
    <path d="M 806.438741 287.232149 
L 805.529815 218.590359 
L 830.206947 225.391903 
L 830.775796 294.240415 
z
" clip-path="url(#p845df64b0e)" style="fill: #324880"/>
    <path d="M 944.202694 310.365291 
L 957.892724 298.021534 
L 957.892724 298.021534 
L 944.202694 310.365291 
z
" clip-path="url(#p845df64b0e)" style="fill: #324880"/>
    <path d="M 791.685223 299.409985 
L 790.559961 230.409527 
L 805.529815 218.590359 
L 806.438741 287.232149 
z
" clip-path="url(#p845df64b0e)" style="fill: #648fff"/>
    <path d="M 919.120705 303.215572 
L 944.202694 310.365291 
L 944.202694 310.365291 
L 919.120705 303.215572 
z
" clip-path="url(#p845df64b0e)" style="fill: #648fff"/>
    <path d="M 983.06499 305.12513 
L 983.06499 305.12513 
L 1008.460919 312.291844 
L 1008.460919 312.291844 
z
" clip-path="url(#p845df64b0e)" style="fill: #324880"/>
    <path d="M 969.508271 317.578745 
L 969.508271 317.578745 
L 983.06499 305.12513 
L 983.06499 305.12513 
z
" clip-path="url(#p845df64b0e)" style="fill: #648fff"/>
    <path d="M 816.143571 306.525896 
L 830.775796 294.240415 
L 830.206947 225.391903 
L 815.361789 237.317032 
z
" clip-path="url(#p845df64b0e)" style="fill: #324880"/>
    <path d="M 791.685223 299.409985 
L 816.143571 306.525896 
L 815.361789 237.317032 
L 790.559961 230.409527 
z
" clip-path="url(#p845df64b0e)" style="fill: #648fff"/>
    <path d="M 969.508271 317.578745 
L 995.040439 324.856789 
L 1008.460919 312.291844 
L 983.06499 305.12513 
z
" clip-path="url(#p845df64b0e)" style="fill: #577ddf"/>
    <path d="M 969.508271 317.578745 
L 983.06499 305.12513 
L 1008.460919 312.291844 
L 995.040439 324.856789 
z
" clip-path="url(#p845df64b0e)" style="fill: #3f599f"/>
    <path d="M 995.040439 324.856789 
L 1008.460919 312.291844 
L 1008.460919 312.291844 
L 995.040439 324.856789 
z
" clip-path="url(#p845df64b0e)" style="fill: #324880"/>
    <path d="M 905.087095 315.639606 
L 905.087095 315.639606 
L 930.300597 322.900259 
L 930.300597 322.900259 
z
" clip-path="url(#p845df64b0e)" style="fill: #324880"/>
    <path d="M 790.559961 230.409527 
L 815.361789 237.317032 
L 830.206947 225.391903 
L 805.529815 218.590359 
z
" clip-path="url(#p845df64b0e)" style="fill: #577ddf"/>
    <path d="M 969.508271 317.578745 
L 995.040439 324.856789 
L 995.040439 324.856789 
L 969.508271 317.578745 
z
" clip-path="url(#p845df64b0e)" style="fill: #648fff"/>
    <path d="M 761.491962 324.332078 
L 776.704722 311.775176 
L 801.285226 319.001231 
L 786.195479 331.670856 
z
" clip-path="url(#p845df64b0e)" style="fill: #3f599f"/>
    <path d="M 890.835383 328.256729 
L 890.835383 328.256729 
L 905.087095 315.639606 
L 905.087095 315.639606 
z
" clip-path="url(#p845df64b0e)" style="fill: #648fff"/>
    <path d="M 776.704722 311.775176 
L 775.647723 257.395522 
L 800.50022 264.457617 
L 801.285226 319.001231 
z
" clip-path="url(#p845df64b0e)" style="fill: #324880"/>
    <path d="M 890.835383 328.256729 
L 905.087095 315.639606 
L 930.300597 322.900259 
L 916.181467 335.630917 
z
" clip-path="url(#p845df64b0e)" style="fill: #3f599f"/>
    <path d="M 890.835383 328.256729 
L 916.181467 335.630917 
L 930.300597 322.900259 
L 905.087095 315.639606 
z
" clip-path="url(#p845df64b0e)" style="fill: #577ddf"/>
    <path d="M 761.491962 324.332078 
L 760.254822 269.667959 
L 775.647723 257.395522 
L 776.704722 311.775176 
z
" clip-path="url(#p845df64b0e)" style="fill: #648fff"/>
    <path d="M 916.181467 335.630917 
L 930.300597 322.900259 
L 930.300597 322.900259 
L 916.181467 335.630917 
z
" clip-path="url(#p845df64b0e)" style="fill: #324880"/>
    <path d="M 826.086022 326.292047 
L 826.086022 326.292047 
L 851.110085 333.648499 
L 851.110085 333.648499 
z
" clip-path="url(#p845df64b0e)" style="fill: #324880"/>
    <path d="M 890.835383 328.256729 
L 916.181467 335.630917 
L 916.181467 335.630917 
L 890.835383 328.256729 
z
" clip-path="url(#p845df64b0e)" style="fill: #648fff"/>
    <path d="M 811.122123 339.075919 
L 811.122123 339.075919 
L 826.086022 326.292047 
L 826.086022 326.292047 
z
" clip-path="url(#p845df64b0e)" style="fill: #648fff"/>
    <path d="M 786.195479 331.670856 
L 801.285226 319.001231 
L 800.50022 264.457617 
L 785.233051 276.84147 
z
" clip-path="url(#p845df64b0e)" style="fill: #324880"/>
    <path d="M 811.122123 339.075919 
L 826.086022 326.292047 
L 851.110085 333.648499 
L 836.27493 346.548169 
z
" clip-path="url(#p845df64b0e)" style="fill: #3f599f"/>
    <path d="M 811.122123 339.075919 
L 836.27493 346.548169 
L 851.110085 333.648499 
L 826.086022 326.292047 
z
" clip-path="url(#p845df64b0e)" style="fill: #577ddf"/>
    <path d="M 761.491962 324.332078 
L 786.195479 331.670856 
L 785.233051 276.84147 
L 760.254822 269.667959 
z
" clip-path="url(#p845df64b0e)" style="fill: #648fff"/>
    <path d="M 760.254822 269.667959 
L 785.233051 276.84147 
L 800.50022 264.457617 
L 775.647723 257.395522 
z
" clip-path="url(#p845df64b0e)" style="fill: #577ddf"/>
    <path d="M 836.27493 346.548169 
L 851.110085 333.648499 
L 851.110085 333.648499 
L 836.27493 346.548169 
z
" clip-path="url(#p845df64b0e)" style="fill: #324880"/>
    <path d="M 811.122123 339.075919 
L 836.27493 346.548169 
L 836.27493 346.548169 
L 811.122123 339.075919 
z
" clip-path="url(#p845df64b0e)" style="fill: #648fff"/>
    <path d="M 861.656993 354.088525 
L 876.360445 341.071475 
L 901.840183 348.561883 
L 887.27146 361.697922 
z
" clip-path="url(#p845df64b0e)" style="fill: #3f599f"/>
    <path d="M 876.360445 341.071475 
L 876.455101 255.833814 
L 902.38774 263.063202 
L 901.840183 348.561883 
z
" clip-path="url(#p845df64b0e)" style="fill: #324880"/>
    <path d="M 861.656993 354.088525 
L 861.490422 268.398 
L 876.455101 255.833814 
L 876.360445 341.071475 
z
" clip-path="url(#p845df64b0e)" style="fill: #648fff"/>
    <path d="M 887.27146 361.697922 
L 901.840183 348.561883 
L 902.38774 263.063202 
L 887.56264 275.74429 
z
" clip-path="url(#p845df64b0e)" style="fill: #324880"/>
    <path d="M 861.656993 354.088525 
L 887.27146 361.697922 
L 887.56264 275.74429 
L 861.490422 268.398 
z
" clip-path="url(#p845df64b0e)" style="fill: #648fff"/>
    <path d="M 861.490422 268.398 
L 887.56264 275.74429 
L 902.38774 263.063202 
L 876.455101 255.833814 
z
" clip-path="url(#p845df64b0e)" style="fill: #577ddf"/>
    <path d="M 898.458874 382.846882 
L 898.631207 352.838813 
L 925.028576 360.623449 
L 924.690004 390.7225 
z
" clip-path="url(#p845df64b0e)" style="fill: #324880"/>
    <path d="M 883.558824 396.534522 
L 898.458874 382.846882 
L 924.690004 390.7225 
L 909.933326 404.538464 
z
" clip-path="url(#p845df64b0e)" style="fill: #3f599f"/>
    <path d="M 883.558824 396.534522 
L 883.638267 366.368622 
L 898.631207 352.838813 
L 898.458874 382.846882 
z
" clip-path="url(#p845df64b0e)" style="fill: #648fff"/>
    <path d="M 909.933326 404.538464 
L 924.690004 390.7225 
L 925.028576 360.623449 
L 910.180842 374.280908 
z
" clip-path="url(#p845df64b0e)" style="fill: #324880"/>
    <path d="M 883.638267 366.368622 
L 910.180842 374.280908 
L 925.028576 360.623449 
L 898.631207 352.838813 
z
" clip-path="url(#p845df64b0e)" style="fill: #577ddf"/>
    <path d="M 883.558824 396.534522 
L 909.933326 404.538464 
L 910.180842 374.280908 
L 883.638267 366.368622 
z
" clip-path="url(#p845df64b0e)" style="fill: #648fff"/>
   </g>
   <g id="text_32">
    <!-- Imaginary Amplitude (ρ) -->
    <g transform="translate(735.696563 51.6) scale(0.21 -0.21)">
     <defs>
      <path id="DejaVuSans-49" d="M 628 4666 
L 1259 4666 
L 1259 0 
L 628 0 
L 628 4666 
z
" transform="scale(0.015625)"/>
      <path id="DejaVuSans-67" d="M 2906 1791 
Q 2906 2416 2648 2759 
Q 2391 3103 1925 3103 
Q 1463 3103 1205 2759 
Q 947 2416 947 1791 
Q 947 1169 1205 825 
Q 1463 481 1925 481 
Q 2391 481 2648 825 
Q 2906 1169 2906 1791 
z
M 3481 434 
Q 3481 -459 3084 -895 
Q 2688 -1331 1869 -1331 
Q 1566 -1331 1297 -1286 
Q 1028 -1241 775 -1147 
L 775 -588 
Q 1028 -725 1275 -790 
Q 1522 -856 1778 -856 
Q 2344 -856 2625 -561 
Q 2906 -266 2906 331 
L 2906 616 
Q 2728 306 2450 153 
Q 2172 0 1784 0 
Q 1141 0 747 490 
Q 353 981 353 1791 
Q 353 2603 747 3093 
Q 1141 3584 1784 3584 
Q 2172 3584 2450 3431 
Q 2728 3278 2906 2969 
L 2906 3500 
L 3481 3500 
L 3481 434 
z
" transform="scale(0.015625)"/>
      <path id="DejaVuSans-6e" d="M 3513 2113 
L 3513 0 
L 2938 0 
L 2938 2094 
Q 2938 2591 2744 2837 
Q 2550 3084 2163 3084 
Q 1697 3084 1428 2787 
Q 1159 2491 1159 1978 
L 1159 0 
L 581 0 
L 581 3500 
L 1159 3500 
L 1159 2956 
Q 1366 3272 1645 3428 
Q 1925 3584 2291 3584 
Q 2894 3584 3203 3211 
Q 3513 2838 3513 2113 
z
" transform="scale(0.015625)"/>
      <path id="DejaVuSans-72" d="M 2631 2963 
Q 2534 3019 2420 3045 
Q 2306 3072 2169 3072 
Q 1681 3072 1420 2755 
Q 1159 2438 1159 1844 
L 1159 0 
L 581 0 
L 581 3500 
L 1159 3500 
L 1159 2956 
Q 1341 3275 1631 3429 
Q 1922 3584 2338 3584 
Q 2397 3584 2469 3576 
Q 2541 3569 2628 3553 
L 2631 2963 
z
" transform="scale(0.015625)"/>
      <path id="DejaVuSans-79" d="M 2059 -325 
Q 1816 -950 1584 -1140 
Q 1353 -1331 966 -1331 
L 506 -1331 
L 506 -850 
L 844 -850 
Q 1081 -850 1212 -737 
Q 1344 -625 1503 -206 
L 1606 56 
L 191 3500 
L 800 3500 
L 1894 763 
L 2988 3500 
L 3597 3500 
L 2059 -325 
z
" transform="scale(0.015625)"/>
     </defs>
     <use xlink:href="#DejaVuSans-49"/>
     <use xlink:href="#DejaVuSans-6d" x="29.492188"/>
     <use xlink:href="#DejaVuSans-61" x="126.904297"/>
     <use xlink:href="#DejaVuSans-67" x="188.183594"/>
     <use xlink:href="#DejaVuSans-69" x="251.660156"/>
     <use xlink:href="#DejaVuSans-6e" x="279.443359"/>
     <use xlink:href="#DejaVuSans-61" x="342.822266"/>
     <use xlink:href="#DejaVuSans-72" x="404.101562"/>
     <use xlink:href="#DejaVuSans-79" x="445.214844"/>
     <use xlink:href="#DejaVuSans-20" x="504.394531"/>
     <use xlink:href="#DejaVuSans-41" x="536.181641"/>
     <use xlink:href="#DejaVuSans-6d" x="604.589844"/>
     <use xlink:href="#DejaVuSans-70" x="702.001953"/>
     <use xlink:href="#DejaVuSans-6c" x="765.478516"/>
     <use xlink:href="#DejaVuSans-69" x="793.261719"/>
     <use xlink:href="#DejaVuSans-74" x="821.044922"/>
     <use xlink:href="#DejaVuSans-75" x="860.253906"/>
     <use xlink:href="#DejaVuSans-64" x="923.632812"/>
     <use xlink:href="#DejaVuSans-65" x="987.109375"/>
     <use xlink:href="#DejaVuSans-20" x="1048.632812"/>
     <use xlink:href="#DejaVuSans-28" x="1080.419922"/>
     <use xlink:href="#DejaVuSans-3c1" x="1119.433594"/>
     <use xlink:href="#DejaVuSans-29" x="1182.910156"/>
    </g>
   </g>
  </g>
 </g>
 <defs>
  <clipPath id="p9ef728fd74">
   <rect x="28.8" y="57.6" width="518.4" height="518.4"/>
  </clipPath>
  <clipPath id="p845df64b0e">
   <rect x="604.8" y="57.6" width="518.4" height="518.4"/>
  </clipPath>
 </defs>
</svg>
