<?xml version="1.0" encoding="utf-8" standalone="no"?>
<!DOCTYPE svg PUBLIC "-//W3C//DTD SVG 1.1//EN"
  "http://www.w3.org/Graphics/SVG/1.1/DTD/svg11.dtd">
<svg xmlns:xlink="http://www.w3.org/1999/xlink" width="1152pt" height="576pt" viewBox="0 0 1152 576" xmlns="http://www.w3.org/2000/svg" version="1.1">
 <metadata>
  <rdf:RDF xmlns:dc="http://purl.org/dc/elements/1.1/" xmlns:cc="http://creativecommons.org/ns#" xmlns:rdf="http://www.w3.org/1999/02/22-rdf-syntax-ns#">
   <cc:Work>
    <dc:type rdf:resource="http://purl.org/dc/dcmitype/StillImage"/>
    <dc:date>2024-11-02T18:56:35.172715</dc:date>
    <dc:format>image/svg+xml</dc:format>
    <dc:creator>
     <cc:Agent>
      <dc:title>Matplotlib v3.9.2, https://matplotlib.org/</dc:title>
     </cc:Agent>
    </dc:creator>
   </cc:Work>
  </rdf:RDF>
 </metadata>
 <defs>
  <style type="text/css">*{stroke-linejoin: round; stroke-linecap: butt}</style>
 </defs>
 <g id="figure_1">
  <g id="patch_1">
   <path d="M 0 576 
L 1152 576 
L 1152 0 
L 0 0 
z
" style="fill: #ffffff"/>
  </g>
  <g id="patch_2">
   <path d="M 28.8 576 
L 547.2 576 
L 547.2 57.6 
L 28.8 57.6 
z
" style="fill: #ffffff"/>
  </g>
  <g id="pane3d_1">
   <g id="patch_3">
    <path d="M 130.07018 436.456468 
L 253.494133 330.550231 
L 251.743197 126.70673 
L 122.643358 223.613571 
" style="fill: #f2f2f2; opacity: 0.5; stroke: #f2f2f2; stroke-linejoin: miter"/>
   </g>
  </g>
  <g id="pane3d_2">
   <g id="patch_4">
    <path d="M 253.494133 330.550231 
L 455.554898 390.069341 
L 462.583588 181.103065 
L 251.743197 126.70673 
" style="fill: #e6e6e6; opacity: 0.5; stroke: #e6e6e6; stroke-linejoin: miter"/>
   </g>
  </g>
  <g id="pane3d_3">
   <g id="patch_5">
    <path d="M 130.07018 436.456468 
L 340.912731 504.076731 
L 455.554898 390.069341 
L 253.494133 330.550231 
" style="fill: #ececec; opacity: 0.5; stroke: #ececec; stroke-linejoin: miter"/>
   </g>
  </g>
  <g id="grid3d_1">
   <g id="Line3DCollection_1">
    <path d="M 158.635886 445.617904 
L 280.925726 338.630493 
L 280.328796 134.081748 
" style="fill: none; stroke: #b0b0b0; stroke-width: 0.8"/>
    <path d="M 208.310046 461.549127 
L 328.58611 352.669358 
L 330.022474 146.902603 
" style="fill: none; stroke: #b0b0b0; stroke-width: 0.8"/>
    <path d="M 258.89502 477.772462 
L 377.066152 366.949661 
L 380.607663 159.953465 
" style="fill: none; stroke: #b0b0b0; stroke-width: 0.8"/>
    <path d="M 310.41609 494.296016 
L 426.38718 381.477685 
L 432.108569 173.24058 
" style="fill: none; stroke: #b0b0b0; stroke-width: 0.8"/>
   </g>
  </g>
  <g id="grid3d_2">
   <g id="Line3DCollection_2">
    <path d="M 141.757365 209.265931 
L 148.301379 420.812846 
L 357.880707 487.202708 
" style="fill: none; stroke: #b0b0b0; stroke-width: 0.8"/>
    <path d="M 173.704273 185.285468 
L 178.805664 394.638072 
L 386.24502 458.995448 
" style="fill: none; stroke: #b0b0b0; stroke-width: 0.8"/>
    <path d="M 204.65707 162.051218 
L 208.400054 369.24405 
L 413.731787 431.660877 
" style="fill: none; stroke: #b0b0b0; stroke-width: 0.8"/>
    <path d="M 234.661448 139.528886 
L 237.124663 344.596362 
L 440.38111 405.159111 
" style="fill: none; stroke: #b0b0b0; stroke-width: 0.8"/>
   </g>
  </g>
  <g id="grid3d_3">
   <g id="Line3DCollection_3">
    <path d="M 455.855431 381.134363 
L 253.419156 321.821491 
L 129.752988 427.366152 
" style="fill: none; stroke: #b0b0b0; stroke-width: 0.8"/>
    <path d="M 456.726738 355.229979 
L 253.201839 296.521507 
L 128.833197 401.006156 
" style="fill: none; stroke: #b0b0b0; stroke-width: 0.8"/>
    <path d="M 457.607536 329.043425 
L 252.982239 270.955714 
L 127.903109 374.351079 
" style="fill: none; stroke: #b0b0b0; stroke-width: 0.8"/>
    <path d="M 458.497982 302.570063 
L 252.76032 245.119901 
L 126.962551 347.395939 
" style="fill: none; stroke: #b0b0b0; stroke-width: 0.8"/>
    <path d="M 459.398233 275.805157 
L 252.536044 219.009768 
L 126.011346 320.13564 
" style="fill: none; stroke: #b0b0b0; stroke-width: 0.8"/>
    <path d="M 460.308454 248.743864 
L 252.309374 192.620921 
L 125.04931 292.56497 
" style="fill: none; stroke: #b0b0b0; stroke-width: 0.8"/>
    <path d="M 461.22881 221.381232 
L 252.080271 165.948875 
L 124.076258 264.678599 
" style="fill: none; stroke: #b0b0b0; stroke-width: 0.8"/>
    <path d="M 462.159473 193.712202 
L 251.848697 138.989046 
L 123.092001 236.471074 
" style="fill: none; stroke: #b0b0b0; stroke-width: 0.8"/>
   </g>
  </g>
  <g id="axis3d_1">
   <g id="line2d_1">
    <path d="M 130.07018 436.456468 
L 340.912731 504.076731 
" style="fill: none; stroke: #000000; stroke-width: 0.8; stroke-linecap: square"/>
   </g>
   <g id="xtick_1">
    <g id="line2d_2">
     <path d="M 159.677227 444.706868 
L 156.549953 447.442819 
" style="fill: none; stroke: #000000; stroke-width: 0.8; stroke-linecap: square"/>
    </g>
    <g id="text_1">
     <!-- 00 -->
     <g transform="translate(131.351686 489.365693) rotate(-45) scale(0.21 -0.21)">
      <defs>
       <path id="DejaVuSans-30" d="M 2034 4250 
Q 1547 4250 1301 3770 
Q 1056 3291 1056 2328 
Q 1056 1369 1301 889 
Q 1547 409 2034 409 
Q 2525 409 2770 889 
Q 3016 1369 3016 2328 
Q 3016 3291 2770 3770 
Q 2525 4250 2034 4250 
z
M 2034 4750 
Q 2819 4750 3233 4129 
Q 3647 3509 3647 2328 
Q 3647 1150 3233 529 
Q 2819 -91 2034 -91 
Q 1250 -91 836 529 
Q 422 1150 422 2328 
Q 422 3509 836 4129 
Q 1250 4750 2034 4750 
z
" transform="scale(0.015625)"/>
      </defs>
      <use xlink:href="#DejaVuSans-30"/>
      <use xlink:href="#DejaVuSans-30" x="63.623047"/>
     </g>
    </g>
   </g>
   <g id="xtick_2">
    <g id="line2d_3">
     <path d="M 209.334802 460.621468 
L 206.257306 463.407368 
" style="fill: none; stroke: #000000; stroke-width: 0.8; stroke-linecap: square"/>
    </g>
    <g id="text_2">
     <!-- 01 -->
     <g transform="translate(181.023931 505.435143) rotate(-45) scale(0.21 -0.21)">
      <defs>
       <path id="DejaVuSans-31" d="M 794 531 
L 1825 531 
L 1825 4091 
L 703 3866 
L 703 4441 
L 1819 4666 
L 2450 4666 
L 2450 531 
L 3481 531 
L 3481 0 
L 794 0 
L 794 531 
z
" transform="scale(0.015625)"/>
      </defs>
      <use xlink:href="#DejaVuSans-30"/>
      <use xlink:href="#DejaVuSans-31" x="63.623047"/>
     </g>
    </g>
   </g>
   <g id="xtick_3">
    <g id="line2d_4">
     <path d="M 259.902405 476.82772 
L 256.877048 479.664949 
" style="fill: none; stroke: #000000; stroke-width: 0.8; stroke-linecap: square"/>
    </g>
    <g id="text_3">
     <!-- 10 -->
     <g transform="translate(231.60781 521.799516) rotate(-45) scale(0.21 -0.21)">
      <use xlink:href="#DejaVuSans-31"/>
      <use xlink:href="#DejaVuSans-30" x="63.623047"/>
     </g>
    </g>
   </g>
   <g id="xtick_4">
    <g id="line2d_5">
     <path d="M 311.405283 493.333715 
L 308.434531 496.223705 
" style="fill: none; stroke: #000000; stroke-width: 0.8; stroke-linecap: square"/>
    </g>
    <g id="text_4">
     <!-- 11 -->
     <g transform="translate(283.128654 538.467006) rotate(-45) scale(0.21 -0.21)">
      <use xlink:href="#DejaVuSans-31"/>
      <use xlink:href="#DejaVuSans-31" x="63.623047"/>
     </g>
    </g>
   </g>
  </g>
  <g id="axis3d_2">
   <g id="line2d_6">
    <path d="M 455.554898 390.069341 
L 340.912731 504.076731 
" style="fill: none; stroke: #000000; stroke-width: 0.8; stroke-linecap: square"/>
   </g>
   <g id="xtick_5">
    <g id="line2d_7">
     <path d="M 356.140222 486.651363 
L 361.364886 488.306415 
" style="fill: none; stroke: #000000; stroke-width: 0.8; stroke-linecap: square"/>
    </g>
    <g id="text_5">
     <!-- 00 -->
     <g transform="translate(368.70027 499.207917) rotate(-337.5) scale(0.21 -0.21)">
      <use xlink:href="#DejaVuSans-30"/>
      <use xlink:href="#DejaVuSans-30" x="63.623047"/>
     </g>
    </g>
   </g>
   <g id="xtick_6">
    <g id="line2d_8">
     <path d="M 384.5233 458.46129 
L 389.691587 460.064734 
" style="fill: none; stroke: #000000; stroke-width: 0.8; stroke-linecap: square"/>
    </g>
    <g id="text_6">
     <!-- 01 -->
     <g transform="translate(396.913817 470.822876) rotate(-337.5) scale(0.21 -0.21)">
      <use xlink:href="#DejaVuSans-30"/>
      <use xlink:href="#DejaVuSans-31" x="63.623047"/>
     </g>
    </g>
   </g>
   <g id="xtick_7">
    <g id="line2d_9">
     <path d="M 412.028511 431.143114 
L 417.141381 432.697327 
" style="fill: none; stroke: #000000; stroke-width: 0.8; stroke-linecap: square"/>
    </g>
    <g id="text_7">
     <!-- 10 -->
     <g transform="translate(424.254695 443.315808) rotate(-337.5) scale(0.21 -0.21)">
      <use xlink:href="#DejaVuSans-31"/>
      <use xlink:href="#DejaVuSans-30" x="63.623047"/>
     </g>
    </g>
   </g>
   <g id="xtick_8">
    <g id="line2d_10">
     <path d="M 438.695964 404.657001 
L 443.754368 406.164215 
" style="fill: none; stroke: #000000; stroke-width: 0.8; stroke-linecap: square"/>
    </g>
    <g id="text_8">
     <!-- 11 -->
     <g transform="translate(450.762776 416.646599) rotate(-337.5) scale(0.21 -0.21)">
      <use xlink:href="#DejaVuSans-31"/>
      <use xlink:href="#DejaVuSans-31" x="63.623047"/>
     </g>
    </g>
   </g>
  </g>
  <g id="axis3d_3">
   <g id="line2d_11">
    <path d="M 455.554898 390.069341 
L 462.583588 181.103065 
" style="fill: none; stroke: #000000; stroke-width: 0.8; stroke-linecap: square"/>
   </g>
   <g id="xtick_9">
    <g id="line2d_12">
     <path d="M 454.177493 380.642735 
L 459.214238 382.118478 
" style="fill: none; stroke: #000000; stroke-width: 0.8; stroke-linecap: square"/>
    </g>
    <g id="text_9">
     <!-- −0.3 -->
     <g transform="translate(469.359633 374.852519) scale(0.21 -0.21)">
      <defs>
       <path id="DejaVuSans-2212" d="M 678 2272 
L 4684 2272 
L 4684 1741 
L 678 1741 
L 678 2272 
z
" transform="scale(0.015625)"/>
       <path id="DejaVuSans-2e" d="M 684 794 
L 1344 794 
L 1344 0 
L 684 0 
L 684 794 
z
" transform="scale(0.015625)"/>
       <path id="DejaVuSans-33" d="M 2597 2516 
Q 3050 2419 3304 2112 
Q 3559 1806 3559 1356 
Q 3559 666 3084 287 
Q 2609 -91 1734 -91 
Q 1441 -91 1130 -33 
Q 819 25 488 141 
L 488 750 
Q 750 597 1062 519 
Q 1375 441 1716 441 
Q 2309 441 2620 675 
Q 2931 909 2931 1356 
Q 2931 1769 2642 2001 
Q 2353 2234 1838 2234 
L 1294 2234 
L 1294 2753 
L 1863 2753 
Q 2328 2753 2575 2939 
Q 2822 3125 2822 3475 
Q 2822 3834 2567 4026 
Q 2313 4219 1838 4219 
Q 1578 4219 1281 4162 
Q 984 4106 628 3988 
L 628 4550 
Q 988 4650 1302 4700 
Q 1616 4750 1894 4750 
Q 2613 4750 3031 4423 
Q 3450 4097 3450 3541 
Q 3450 3153 3228 2886 
Q 3006 2619 2597 2516 
z
" transform="scale(0.015625)"/>
      </defs>
      <use xlink:href="#DejaVuSans-2212"/>
      <use xlink:href="#DejaVuSans-30" x="83.789062"/>
      <use xlink:href="#DejaVuSans-2e" x="147.412109"/>
      <use xlink:href="#DejaVuSans-33" x="179.199219"/>
     </g>
    </g>
   </g>
   <g id="xtick_10">
    <g id="line2d_13">
     <path d="M 455.039459 354.74327 
L 460.104261 356.204254 
" style="fill: none; stroke: #000000; stroke-width: 0.8; stroke-linecap: square"/>
    </g>
    <g id="text_10">
     <!-- −0.2 -->
     <g transform="translate(470.303015 348.967295) scale(0.21 -0.21)">
      <defs>
       <path id="DejaVuSans-32" d="M 1228 531 
L 3431 531 
L 3431 0 
L 469 0 
L 469 531 
Q 828 903 1448 1529 
Q 2069 2156 2228 2338 
Q 2531 2678 2651 2914 
Q 2772 3150 2772 3378 
Q 2772 3750 2511 3984 
Q 2250 4219 1831 4219 
Q 1534 4219 1204 4116 
Q 875 4013 500 3803 
L 500 4441 
Q 881 4594 1212 4672 
Q 1544 4750 1819 4750 
Q 2544 4750 2975 4387 
Q 3406 4025 3406 3419 
Q 3406 3131 3298 2873 
Q 3191 2616 2906 2266 
Q 2828 2175 2409 1742 
Q 1991 1309 1228 531 
z
" transform="scale(0.015625)"/>
      </defs>
      <use xlink:href="#DejaVuSans-2212"/>
      <use xlink:href="#DejaVuSans-30" x="83.789062"/>
      <use xlink:href="#DejaVuSans-2e" x="147.412109"/>
      <use xlink:href="#DejaVuSans-32" x="179.199219"/>
     </g>
    </g>
   </g>
   <g id="xtick_11">
    <g id="line2d_14">
     <path d="M 455.910812 328.561769 
L 461.003984 330.007586 
" style="fill: none; stroke: #000000; stroke-width: 0.8; stroke-linecap: square"/>
    </g>
    <g id="text_11">
     <!-- −0.1 -->
     <g transform="translate(471.256661 322.800432) scale(0.21 -0.21)">
      <use xlink:href="#DejaVuSans-2212"/>
      <use xlink:href="#DejaVuSans-30" x="83.789062"/>
      <use xlink:href="#DejaVuSans-2e" x="147.412109"/>
      <use xlink:href="#DejaVuSans-31" x="179.199219"/>
     </g>
    </g>
   </g>
   <g id="xtick_12">
    <g id="line2d_15">
     <path d="M 456.791705 302.093602 
L 461.913567 303.523831 
" style="fill: none; stroke: #000000; stroke-width: 0.8; stroke-linecap: square"/>
    </g>
    <g id="text_12">
     <!-- 0.0 -->
     <g transform="translate(472.22074 296.347308) scale(0.21 -0.21)">
      <use xlink:href="#DejaVuSans-30"/>
      <use xlink:href="#DejaVuSans-2e" x="63.623047"/>
      <use xlink:href="#DejaVuSans-30" x="95.410156"/>
     </g>
    </g>
   </g>
   <g id="xtick_13">
    <g id="line2d_16">
     <path d="M 457.682296 275.334035 
L 462.833174 276.748243 
" style="fill: none; stroke: #000000; stroke-width: 0.8; stroke-linecap: square"/>
    </g>
    <g id="text_13">
     <!-- 0.1 -->
     <g transform="translate(473.195424 269.6032) scale(0.21 -0.21)">
      <use xlink:href="#DejaVuSans-30"/>
      <use xlink:href="#DejaVuSans-2e" x="63.623047"/>
      <use xlink:href="#DejaVuSans-31" x="95.410156"/>
     </g>
    </g>
   </g>
   <g id="xtick_14">
    <g id="line2d_17">
     <path d="M 458.582746 248.278228 
L 463.76297 249.675971 
" style="fill: none; stroke: #000000; stroke-width: 0.8; stroke-linecap: square"/>
    </g>
    <g id="text_14">
     <!-- 0.2 -->
     <g transform="translate(474.180889 242.563279) scale(0.21 -0.21)">
      <use xlink:href="#DejaVuSans-30"/>
      <use xlink:href="#DejaVuSans-2e" x="63.623047"/>
      <use xlink:href="#DejaVuSans-32" x="95.410156"/>
     </g>
    </g>
   </g>
   <g id="xtick_15">
    <g id="line2d_18">
     <path d="M 459.49322 220.921235 
L 464.703125 222.302058 
" style="fill: none; stroke: #000000; stroke-width: 0.8; stroke-linecap: square"/>
    </g>
    <g id="text_15">
     <!-- 0.3 -->
     <g transform="translate(475.177314 215.222612) scale(0.21 -0.21)">
      <use xlink:href="#DejaVuSans-30"/>
      <use xlink:href="#DejaVuSans-2e" x="63.623047"/>
      <use xlink:href="#DejaVuSans-33" x="95.410156"/>
     </g>
    </g>
   </g>
   <g id="xtick_16">
    <g id="line2d_19">
     <path d="M 460.413887 193.257998 
L 465.653815 194.621434 
" style="fill: none; stroke: #000000; stroke-width: 0.8; stroke-linecap: square"/>
    </g>
    <g id="text_16">
     <!-- 0.4 -->
     <g transform="translate(476.184884 187.576152) scale(0.21 -0.21)">
      <defs>
       <path id="DejaVuSans-34" d="M 2419 4116 
L 825 1625 
L 2419 1625 
L 2419 4116 
z
M 2253 4666 
L 3047 4666 
L 3047 1625 
L 3713 1625 
L 3713 1100 
L 3047 1100 
L 3047 0 
L 2419 0 
L 2419 1100 
L 313 1100 
L 313 1709 
L 2253 4666 
z
" transform="scale(0.015625)"/>
      </defs>
      <use xlink:href="#DejaVuSans-30"/>
      <use xlink:href="#DejaVuSans-2e" x="63.623047"/>
      <use xlink:href="#DejaVuSans-34" x="95.410156"/>
     </g>
    </g>
   </g>
  </g>
  <g id="axes_1">
   <g id="Poly3DCollection_1">
    <path d="M 307.704669 270.947228 
L 307.650634 291.763813 
L 332.095193 298.725995 
L 332.254374 277.848309 
z
" clip-path="url(#p7fd6e5fa5b)" style="fill: #648fff"/>
    <path d="M 293.613986 282.938618 
L 293.619951 303.861206 
L 307.650634 291.763813 
L 307.704669 270.947228 
z
" clip-path="url(#p7fd6e5fa5b)" style="fill: #324880"/>
    <path d="M 293.619951 303.861206 
L 318.188641 310.929312 
L 332.095193 298.725995 
L 307.650634 291.763813 
z
" clip-path="url(#p7fd6e5fa5b)" style="fill: #577ddf"/>
    <path d="M 293.613986 282.938618 
L 307.704669 270.947228 
L 332.254374 277.848309 
L 318.288898 289.945148 
z
" clip-path="url(#p7fd6e5fa5b)" style="fill: #3f599f"/>
    <path d="M 318.288898 289.945148 
L 332.254374 277.848309 
L 332.095193 298.725995 
L 318.188641 310.929312 
z
" clip-path="url(#p7fd6e5fa5b)" style="fill: #648fff"/>
    <path d="M 293.613986 282.938618 
L 318.288898 289.945148 
L 318.188641 310.929312 
L 293.619951 303.861206 
z
" clip-path="url(#p7fd6e5fa5b)" style="fill: #324880"/>
    <path d="M 187.342974 406.120684 
L 211.635283 413.696335 
L 226.459863 400.617052 
L 202.286551 393.155814 
z
" clip-path="url(#p7fd6e5fa5b)" style="fill: #577ddf"/>
    <path d="M 279.307645 295.113535 
L 279.403786 324.928526 
L 304.052733 332.130676 
L 304.108732 302.227951 
z
" clip-path="url(#p7fd6e5fa5b)" style="fill: #648fff"/>
    <path d="M 200.583746 305.55126 
L 202.286551 393.155814 
L 226.459863 400.617052 
L 225.195384 312.758826 
z
" clip-path="url(#p7fd6e5fa5b)" style="fill: #648fff"/>
    <path d="M 264.967187 337.443423 
L 289.741718 344.756636 
L 304.052733 332.130676 
L 279.403786 324.928526 
z
" clip-path="url(#p7fd6e5fa5b)" style="fill: #577ddf"/>
    <path d="M 264.780657 307.476227 
L 264.967187 337.443423 
L 279.403786 324.928526 
L 279.307645 295.113535 
z
" clip-path="url(#p7fd6e5fa5b)" style="fill: #324880"/>
    <path d="M 185.350379 318.076086 
L 187.342974 406.120684 
L 202.286551 393.155814 
L 200.583746 305.55126 
z
" clip-path="url(#p7fd6e5fa5b)" style="fill: #324880"/>
    <path d="M 289.708886 314.701039 
L 304.108732 302.227951 
L 304.052733 332.130676 
L 289.741718 344.756636 
z
" clip-path="url(#p7fd6e5fa5b)" style="fill: #648fff"/>
    <path d="M 210.08534 325.396232 
L 225.195384 312.758826 
L 226.459863 400.617052 
L 211.635283 413.696335 
z
" clip-path="url(#p7fd6e5fa5b)" style="fill: #648fff"/>
    <path d="M 264.780657 307.476227 
L 279.307645 295.113535 
L 304.108732 302.227951 
L 289.708886 314.701039 
z
" clip-path="url(#p7fd6e5fa5b)" style="fill: #3f599f"/>
    <path d="M 264.780657 307.476227 
L 289.708886 314.701039 
L 289.741718 344.756636 
L 264.967187 337.443423 
z
" clip-path="url(#p7fd6e5fa5b)" style="fill: #324880"/>
    <path d="M 185.350379 318.076086 
L 210.08534 325.396232 
L 211.635283 413.696335 
L 187.342974 406.120684 
z
" clip-path="url(#p7fd6e5fa5b)" style="fill: #324880"/>
    <path d="M 185.350379 318.076086 
L 200.583746 305.55126 
L 225.195384 312.758826 
L 210.08534 325.396232 
z
" clip-path="url(#p7fd6e5fa5b)" style="fill: #3f599f"/>
    <path d="M 206.048618 448.347906 
L 231.02678 456.302263 
L 246.064427 442.570234 
L 221.212532 434.738939 
z
" clip-path="url(#p7fd6e5fa5b)" style="fill: #577ddf"/>
    <path d="M 300.367439 334.77311 
L 300.333792 365.072187 
L 325.686021 372.633615 
L 325.88064 342.2447 
z
" clip-path="url(#p7fd6e5fa5b)" style="fill: #648fff"/>
    <path d="M 219.823558 345.735416 
L 221.212532 434.738939 
L 246.064427 442.570234 
L 245.139012 353.307284 
z
" clip-path="url(#p7fd6e5fa5b)" style="fill: #648fff"/>
    <path d="M 285.703886 378.212438 
L 311.189494 385.893376 
L 325.686021 372.633615 
L 300.333792 365.072187 
z
" clip-path="url(#p7fd6e5fa5b)" style="fill: #577ddf"/>
    <path d="M 285.644686 347.757515 
L 285.703886 378.212438 
L 300.333792 365.072187 
L 300.367439 334.77311 
z
" clip-path="url(#p7fd6e5fa5b)" style="fill: #324880"/>
    <path d="M 204.360896 358.894382 
L 206.048618 448.347906 
L 221.212532 434.738939 
L 219.823558 345.735416 
z
" clip-path="url(#p7fd6e5fa5b)" style="fill: #324880"/>
    <path d="M 311.292971 355.347953 
L 325.88064 342.2447 
L 325.686021 372.633615 
L 311.189494 385.893376 
z
" clip-path="url(#p7fd6e5fa5b)" style="fill: #648fff"/>
    <path d="M 229.807351 366.587507 
L 245.139012 353.307284 
L 246.064427 442.570234 
L 231.02678 456.302263 
z
" clip-path="url(#p7fd6e5fa5b)" style="fill: #648fff"/>
    <path d="M 285.644686 347.757515 
L 300.367439 334.77311 
L 325.88064 342.2447 
L 311.292971 355.347953 
z
" clip-path="url(#p7fd6e5fa5b)" style="fill: #3f599f"/>
    <path d="M 285.644686 347.757515 
L 311.292971 355.347953 
L 311.189494 385.893376 
L 285.703886 378.212438 
z
" clip-path="url(#p7fd6e5fa5b)" style="fill: #324880"/>
    <path d="M 204.360896 358.894382 
L 229.807351 366.587507 
L 231.02678 456.302263 
L 206.048618 448.347906 
z
" clip-path="url(#p7fd6e5fa5b)" style="fill: #324880"/>
    <path d="M 351.626973 349.784564 
L 351.374076 371.283741 
L 377.239015 378.956912 
L 377.609648 357.393641 
z
" clip-path="url(#p7fd6e5fa5b)" style="fill: #648fff"/>
    <path d="M 337.177492 363.008303 
L 336.987637 384.618666 
L 351.374076 371.283741 
L 351.626973 349.784564 
z
" clip-path="url(#p7fd6e5fa5b)" style="fill: #324880"/>
    <path d="M 336.987637 384.618666 
L 362.992648 392.414464 
L 377.239015 378.956912 
L 351.374076 371.283741 
z
" clip-path="url(#p7fd6e5fa5b)" style="fill: #577ddf"/>
    <path d="M 204.360896 358.894382 
L 219.823558 345.735416 
L 245.139012 353.307284 
L 229.807351 366.587507 
z
" clip-path="url(#p7fd6e5fa5b)" style="fill: #3f599f"/>
    <path d="M 337.177492 363.008303 
L 351.626973 349.784564 
L 377.609648 357.393641 
L 363.301526 370.739536 
z
" clip-path="url(#p7fd6e5fa5b)" style="fill: #3f599f"/>
    <path d="M 363.301526 370.739536 
L 377.609648 357.393641 
L 377.239015 378.956912 
L 362.992648 392.414464 
z
" clip-path="url(#p7fd6e5fa5b)" style="fill: #648fff"/>
    <path d="M 337.177492 363.008303 
L 363.301526 370.739536 
L 362.992648 392.414464 
L 336.987637 384.618666 
z
" clip-path="url(#p7fd6e5fa5b)" style="fill: #324880"/>
   </g>
   <g id="Poly3DCollection_2">
    <path d="M 133.774012 346.474983 
L 339.842795 409.112669 
L 452.043324 303.442777 
L 254.370925 248.152975 
z
" clip-path="url(#p7fd6e5fa5b)" style="fill-opacity: 0.25"/>
   </g>
   <g id="Poly3DCollection_3">
    <path d="M 259.240706 257.323694 
L 258.982636 221.923489 
L 283.283356 228.600405 
L 283.367697 264.105947 
z
" clip-path="url(#p7fd6e5fa5b)" style="fill: #324880"/>
    <path d="M 244.907659 269.10828 
L 259.240706 257.323694 
L 283.367697 264.105947 
L 269.154509 275.993261 
z
" clip-path="url(#p7fd6e5fa5b)" style="fill: #3f599f"/>
    <path d="M 244.907659 269.10828 
L 244.543425 233.525311 
L 258.982636 221.923489 
L 259.240706 257.323694 
z
" clip-path="url(#p7fd6e5fa5b)" style="fill: #648fff"/>
    <path d="M 269.154509 275.993261 
L 283.367697 264.105947 
L 283.283356 228.600405 
L 268.965734 240.304098 
z
" clip-path="url(#p7fd6e5fa5b)" style="fill: #324880"/>
    <path d="M 244.543425 233.525311 
L 268.965734 240.304098 
L 283.283356 228.600405 
L 258.982636 221.923489 
z
" clip-path="url(#p7fd6e5fa5b)" style="fill: #577ddf"/>
    <path d="M 244.907659 269.10828 
L 269.154509 275.993261 
L 268.965734 240.304098 
L 244.543425 233.525311 
z
" clip-path="url(#p7fd6e5fa5b)" style="fill: #648fff"/>
    <path d="M 215.584242 293.2179 
L 230.357166 281.071648 
L 254.724746 288.061709 
L 240.073418 300.315464 
z
" clip-path="url(#p7fd6e5fa5b)" style="fill: #3f599f"/>
    <path d="M 357.019615 284.809979 
L 357.282124 264.159176 
L 382.373139 271.120657 
L 382.003243 291.833038 
z
" clip-path="url(#p7fd6e5fa5b)" style="fill: #324880"/>
    <path d="M 230.357166 281.071648 
L 229.682389 230.112752 
L 254.302441 236.949592 
L 254.724746 288.061709 
z
" clip-path="url(#p7fd6e5fa5b)" style="fill: #324880"/>
    <path d="M 343.182105 297.013664 
L 343.387608 276.256026 
L 357.282124 264.159176 
L 357.019615 284.809979 
z
" clip-path="url(#p7fd6e5fa5b)" style="fill: #648fff"/>
    <path d="M 343.182105 297.013664 
L 357.019615 284.809979 
L 382.003243 291.833038 
L 368.296515 304.144992 
z
" clip-path="url(#p7fd6e5fa5b)" style="fill: #3f599f"/>
    <path d="M 215.584242 293.2179 
L 214.748867 241.993163 
L 229.682389 230.112752 
L 230.357166 281.071648 
z
" clip-path="url(#p7fd6e5fa5b)" style="fill: #648fff"/>
    <path d="M 343.387608 276.256026 
L 368.610542 283.325286 
L 382.373139 271.120657 
L 357.282124 264.159176 
z
" clip-path="url(#p7fd6e5fa5b)" style="fill: #577ddf"/>
    <path d="M 368.296515 304.144992 
L 382.003243 291.833038 
L 382.373139 271.120657 
L 368.610542 283.325286 
z
" clip-path="url(#p7fd6e5fa5b)" style="fill: #324880"/>
    <path d="M 240.073418 300.315464 
L 254.724746 288.061709 
L 254.302441 236.949592 
L 239.493039 248.936262 
z
" clip-path="url(#p7fd6e5fa5b)" style="fill: #324880"/>
    <path d="M 343.182105 297.013664 
L 368.296515 304.144992 
L 368.610542 283.325286 
L 343.387608 276.256026 
z
" clip-path="url(#p7fd6e5fa5b)" style="fill: #648fff"/>
    <path d="M 407.208158 298.918303 
L 407.545103 284.310624 
L 433.052467 291.415311 
L 432.637314 306.066604 
z
" clip-path="url(#p7fd6e5fa5b)" style="fill: #324880"/>
    <path d="M 215.584242 293.2179 
L 240.073418 300.315464 
L 239.493039 248.936262 
L 214.748867 241.993163 
z
" clip-path="url(#p7fd6e5fa5b)" style="fill: #648fff"/>
    <path d="M 214.748867 241.993163 
L 239.493039 248.936262 
L 254.302441 236.949592 
L 229.682389 230.112752 
z
" clip-path="url(#p7fd6e5fa5b)" style="fill: #577ddf"/>
    <path d="M 393.635092 311.339973 
L 393.933573 296.656627 
L 407.545103 284.310624 
L 407.208158 298.918303 
z
" clip-path="url(#p7fd6e5fa5b)" style="fill: #648fff"/>
    <path d="M 393.635092 311.339973 
L 407.208158 298.918303 
L 432.637314 306.066604 
L 419.200849 318.599462 
z
" clip-path="url(#p7fd6e5fa5b)" style="fill: #3f599f"/>
    <path d="M 393.933573 296.656627 
L 419.578389 303.87216 
L 433.052467 291.415311 
L 407.545103 284.310624 
z
" clip-path="url(#p7fd6e5fa5b)" style="fill: #577ddf"/>
    <path d="M 419.200849 318.599462 
L 432.637314 306.066604 
L 433.052467 291.415311 
L 419.578389 303.87216 
z
" clip-path="url(#p7fd6e5fa5b)" style="fill: #324880"/>
    <path d="M 393.635092 311.339973 
L 419.200849 318.599462 
L 419.578389 303.87216 
L 393.933573 296.656627 
z
" clip-path="url(#p7fd6e5fa5b)" style="fill: #648fff"/>
    <path d="M 329.130923 309.405793 
L 329.339658 279.716083 
L 354.741984 286.868947 
L 354.377189 316.647912 
z
" clip-path="url(#p7fd6e5fa5b)" style="fill: #324880"/>
    <path d="M 314.861082 321.990762 
L 329.130923 309.405793 
L 354.377189 316.647912 
L 340.240278 329.346275 
z
" clip-path="url(#p7fd6e5fa5b)" style="fill: #3f599f"/>
    <path d="M 314.861082 321.990762 
L 314.983484 292.1462 
L 329.339658 279.716083 
L 329.130923 309.405793 
z
" clip-path="url(#p7fd6e5fa5b)" style="fill: #648fff"/>
    <path d="M 340.240278 329.346275 
L 354.377189 316.647912 
L 354.741984 286.868947 
L 340.520398 299.411754 
z
" clip-path="url(#p7fd6e5fa5b)" style="fill: #324880"/>
    <path d="M 314.983484 292.1462 
L 340.520398 299.411754 
L 354.741984 286.868947 
L 329.339658 279.716083 
z
" clip-path="url(#p7fd6e5fa5b)" style="fill: #577ddf"/>
    <path d="M 235.044003 332.782582 
L 250.027879 320.031071 
L 275.084217 327.368869 
L 260.229417 340.236036 
z
" clip-path="url(#p7fd6e5fa5b)" style="fill: #3f599f"/>
    <path d="M 314.861082 321.990762 
L 340.240278 329.346275 
L 340.520398 299.411754 
L 314.983484 292.1462 
z
" clip-path="url(#p7fd6e5fa5b)" style="fill: #648fff"/>
    <path d="M 379.850552 323.955177 
L 380.218571 302.964459 
L 406.035776 310.27463 
L 405.554093 331.328469 
z
" clip-path="url(#p7fd6e5fa5b)" style="fill: #324880"/>
    <path d="M 365.849559 336.768473 
L 366.159271 315.668246 
L 380.218571 302.964459 
L 379.850552 323.955177 
z
" clip-path="url(#p7fd6e5fa5b)" style="fill: #648fff"/>
    <path d="M 365.849559 336.768473 
L 379.850552 323.955177 
L 405.554093 331.328469 
L 391.69207 344.258266 
z
" clip-path="url(#p7fd6e5fa5b)" style="fill: #3f599f"/>
    <path d="M 154.162999 343.718251 
L 169.878675 330.796872 
L 194.737817 338.232256 
L 179.147172 351.271617 
z
" clip-path="url(#p7fd6e5fa5b)" style="fill: #3f599f"/>
    <path d="M 366.159271 315.668246 
L 392.116692 323.094428 
L 406.035776 310.27463 
L 380.218571 302.964459 
z
" clip-path="url(#p7fd6e5fa5b)" style="fill: #577ddf"/>
    <path d="M 391.69207 344.258266 
L 405.554093 331.328469 
L 406.035776 310.27463 
L 392.116692 323.094428 
z
" clip-path="url(#p7fd6e5fa5b)" style="fill: #324880"/>
    <path d="M 365.849559 336.768473 
L 391.69207 344.258266 
L 392.116692 323.094428 
L 366.159271 315.668246 
z
" clip-path="url(#p7fd6e5fa5b)" style="fill: #648fff"/>
    <path d="M 250.027879 320.031071 
L 248.891417 197.655135 
L 274.578536 204.613639 
L 275.084217 327.368869 
z
" clip-path="url(#p7fd6e5fa5b)" style="fill: #324880"/>
    <path d="M 235.044003 332.782582 
L 233.516771 209.748531 
L 248.891417 197.655135 
L 250.027879 320.031071 
z
" clip-path="url(#p7fd6e5fa5b)" style="fill: #648fff"/>
    <path d="M 169.878675 330.796872 
L 167.103059 223.600546 
L 192.50332 230.704441 
L 194.737817 338.232256 
z
" clip-path="url(#p7fd6e5fa5b)" style="fill: #324880"/>
    <path d="M 260.229417 340.236036 
L 275.084217 327.368869 
L 274.578536 204.613639 
L 259.339537 216.819525 
z
" clip-path="url(#p7fd6e5fa5b)" style="fill: #324880"/>
    <path d="M 154.162999 343.718251 
L 151.013586 235.946774 
L 167.103059 223.600546 
L 169.878675 330.796872 
z
" clip-path="url(#p7fd6e5fa5b)" style="fill: #648fff"/>
    <path d="M 235.044003 332.782582 
L 260.229417 340.236036 
L 259.339537 216.819525 
L 233.516771 209.748531 
z
" clip-path="url(#p7fd6e5fa5b)" style="fill: #648fff"/>
    <path d="M 179.147172 351.271617 
L 194.737817 338.232256 
L 192.50332 230.704441 
L 176.544323 243.165927 
z
" clip-path="url(#p7fd6e5fa5b)" style="fill: #324880"/>
    <path d="M 154.162999 343.718251 
L 179.147172 351.271617 
L 176.544323 243.165927 
L 151.013586 235.946774 
z
" clip-path="url(#p7fd6e5fa5b)" style="fill: #648fff"/>
    <path d="M 255.489773 374.351971 
L 270.687348 360.948807 
L 296.471795 368.660951 
L 281.411461 382.188772 
z
" clip-path="url(#p7fd6e5fa5b)" style="fill: #3f599f"/>
    <path d="M 233.516771 209.748531 
L 259.339537 216.819525 
L 274.578536 204.613639 
L 248.891417 197.655135 
z
" clip-path="url(#p7fd6e5fa5b)" style="fill: #577ddf"/>
    <path d="M 270.687348 360.948807 
L 270.420626 308.276443 
L 296.487954 315.827496 
L 296.471795 368.660951 
z
" clip-path="url(#p7fd6e5fa5b)" style="fill: #324880"/>
    <path d="M 255.489773 374.351971 
L 255.052844 321.400133 
L 270.420626 308.276443 
L 270.687348 360.948807 
z
" clip-path="url(#p7fd6e5fa5b)" style="fill: #648fff"/>
    <path d="M 151.013586 235.946774 
L 176.544323 243.165927 
L 192.50332 230.704441 
L 167.103059 223.600546 
z
" clip-path="url(#p7fd6e5fa5b)" style="fill: #577ddf"/>
    <path d="M 281.411461 382.188772 
L 296.471795 368.660951 
L 296.487954 315.827496 
L 281.260443 329.074596 
z
" clip-path="url(#p7fd6e5fa5b)" style="fill: #324880"/>
    <path d="M 322.495641 376.4447 
L 322.709217 339.255139 
L 349.181843 346.998012 
L 348.762236 384.301054 
z
" clip-path="url(#p7fd6e5fa5b)" style="fill: #324880"/>
    <path d="M 307.575772 390.098924 
L 322.495641 376.4447 
L 348.762236 384.301054 
L 333.98613 398.083462 
z
" clip-path="url(#p7fd6e5fa5b)" style="fill: #3f599f"/>
    <path d="M 255.489773 374.351971 
L 281.411461 382.188772 
L 281.260443 329.074596 
L 255.052844 321.400133 
z
" clip-path="url(#p7fd6e5fa5b)" style="fill: #648fff"/>
    <path d="M 307.575772 390.098924 
L 307.674231 352.712495 
L 322.709217 339.255139 
L 322.495641 376.4447 
z
" clip-path="url(#p7fd6e5fa5b)" style="fill: #648fff"/>
    <path d="M 255.052844 321.400133 
L 281.260443 329.074596 
L 296.487954 315.827496 
L 270.420626 308.276443 
z
" clip-path="url(#p7fd6e5fa5b)" style="fill: #577ddf"/>
    <path d="M 333.98613 398.083462 
L 348.762236 384.301054 
L 349.181843 346.998012 
L 334.292897 360.582697 
z
" clip-path="url(#p7fd6e5fa5b)" style="fill: #324880"/>
    <path d="M 307.674231 352.712495 
L 334.292897 360.582697 
L 349.181843 346.998012 
L 322.709217 339.255139 
z
" clip-path="url(#p7fd6e5fa5b)" style="fill: #577ddf"/>
    <path d="M 307.575772 390.098924 
L 333.98613 398.083462 
L 334.292897 360.582697 
L 307.674231 352.712495 
z
" clip-path="url(#p7fd6e5fa5b)" style="fill: #648fff"/>
   </g>
   <g id="text_17">
    <!-- Real Amplitude (ρ) -->
    <g transform="translate(190.023516 51.6) scale(0.21 -0.21)">
     <defs>
      <path id="DejaVuSans-52" d="M 2841 2188 
Q 3044 2119 3236 1894 
Q 3428 1669 3622 1275 
L 4263 0 
L 3584 0 
L 2988 1197 
Q 2756 1666 2539 1819 
Q 2322 1972 1947 1972 
L 1259 1972 
L 1259 0 
L 628 0 
L 628 4666 
L 2053 4666 
Q 2853 4666 3247 4331 
Q 3641 3997 3641 3322 
Q 3641 2881 3436 2590 
Q 3231 2300 2841 2188 
z
M 1259 4147 
L 1259 2491 
L 2053 2491 
Q 2509 2491 2742 2702 
Q 2975 2913 2975 3322 
Q 2975 3731 2742 3939 
Q 2509 4147 2053 4147 
L 1259 4147 
z
" transform="scale(0.015625)"/>
      <path id="DejaVuSans-65" d="M 3597 1894 
L 3597 1613 
L 953 1613 
Q 991 1019 1311 708 
Q 1631 397 2203 397 
Q 2534 397 2845 478 
Q 3156 559 3463 722 
L 3463 178 
Q 3153 47 2828 -22 
Q 2503 -91 2169 -91 
Q 1331 -91 842 396 
Q 353 884 353 1716 
Q 353 2575 817 3079 
Q 1281 3584 2069 3584 
Q 2775 3584 3186 3129 
Q 3597 2675 3597 1894 
z
M 3022 2063 
Q 3016 2534 2758 2815 
Q 2500 3097 2075 3097 
Q 1594 3097 1305 2825 
Q 1016 2553 972 2059 
L 3022 2063 
z
" transform="scale(0.015625)"/>
      <path id="DejaVuSans-61" d="M 2194 1759 
Q 1497 1759 1228 1600 
Q 959 1441 959 1056 
Q 959 750 1161 570 
Q 1363 391 1709 391 
Q 2188 391 2477 730 
Q 2766 1069 2766 1631 
L 2766 1759 
L 2194 1759 
z
M 3341 1997 
L 3341 0 
L 2766 0 
L 2766 531 
Q 2569 213 2275 61 
Q 1981 -91 1556 -91 
Q 1019 -91 701 211 
Q 384 513 384 1019 
Q 384 1609 779 1909 
Q 1175 2209 1959 2209 
L 2766 2209 
L 2766 2266 
Q 2766 2663 2505 2880 
Q 2244 3097 1772 3097 
Q 1472 3097 1187 3025 
Q 903 2953 641 2809 
L 641 3341 
Q 956 3463 1253 3523 
Q 1550 3584 1831 3584 
Q 2591 3584 2966 3190 
Q 3341 2797 3341 1997 
z
" transform="scale(0.015625)"/>
      <path id="DejaVuSans-6c" d="M 603 4863 
L 1178 4863 
L 1178 0 
L 603 0 
L 603 4863 
z
" transform="scale(0.015625)"/>
      <path id="DejaVuSans-20" transform="scale(0.015625)"/>
      <path id="DejaVuSans-41" d="M 2188 4044 
L 1331 1722 
L 3047 1722 
L 2188 4044 
z
M 1831 4666 
L 2547 4666 
L 4325 0 
L 3669 0 
L 3244 1197 
L 1141 1197 
L 716 0 
L 50 0 
L 1831 4666 
z
" transform="scale(0.015625)"/>
      <path id="DejaVuSans-6d" d="M 3328 2828 
Q 3544 3216 3844 3400 
Q 4144 3584 4550 3584 
Q 5097 3584 5394 3201 
Q 5691 2819 5691 2113 
L 5691 0 
L 5113 0 
L 5113 2094 
Q 5113 2597 4934 2840 
Q 4756 3084 4391 3084 
Q 3944 3084 3684 2787 
Q 3425 2491 3425 1978 
L 3425 0 
L 2847 0 
L 2847 2094 
Q 2847 2600 2669 2842 
Q 2491 3084 2119 3084 
Q 1678 3084 1418 2786 
Q 1159 2488 1159 1978 
L 1159 0 
L 581 0 
L 581 3500 
L 1159 3500 
L 1159 2956 
Q 1356 3278 1631 3431 
Q 1906 3584 2284 3584 
Q 2666 3584 2933 3390 
Q 3200 3197 3328 2828 
z
" transform="scale(0.015625)"/>
      <path id="DejaVuSans-70" d="M 1159 525 
L 1159 -1331 
L 581 -1331 
L 581 3500 
L 1159 3500 
L 1159 2969 
Q 1341 3281 1617 3432 
Q 1894 3584 2278 3584 
Q 2916 3584 3314 3078 
Q 3713 2572 3713 1747 
Q 3713 922 3314 415 
Q 2916 -91 2278 -91 
Q 1894 -91 1617 61 
Q 1341 213 1159 525 
z
M 3116 1747 
Q 3116 2381 2855 2742 
Q 2594 3103 2138 3103 
Q 1681 3103 1420 2742 
Q 1159 2381 1159 1747 
Q 1159 1113 1420 752 
Q 1681 391 2138 391 
Q 2594 391 2855 752 
Q 3116 1113 3116 1747 
z
" transform="scale(0.015625)"/>
      <path id="DejaVuSans-69" d="M 603 3500 
L 1178 3500 
L 1178 0 
L 603 0 
L 603 3500 
z
M 603 4863 
L 1178 4863 
L 1178 4134 
L 603 4134 
L 603 4863 
z
" transform="scale(0.015625)"/>
      <path id="DejaVuSans-74" d="M 1172 4494 
L 1172 3500 
L 2356 3500 
L 2356 3053 
L 1172 3053 
L 1172 1153 
Q 1172 725 1289 603 
Q 1406 481 1766 481 
L 2356 481 
L 2356 0 
L 1766 0 
Q 1100 0 847 248 
Q 594 497 594 1153 
L 594 3053 
L 172 3053 
L 172 3500 
L 594 3500 
L 594 4494 
L 1172 4494 
z
" transform="scale(0.015625)"/>
      <path id="DejaVuSans-75" d="M 544 1381 
L 544 3500 
L 1119 3500 
L 1119 1403 
Q 1119 906 1312 657 
Q 1506 409 1894 409 
Q 2359 409 2629 706 
Q 2900 1003 2900 1516 
L 2900 3500 
L 3475 3500 
L 3475 0 
L 2900 0 
L 2900 538 
Q 2691 219 2414 64 
Q 2138 -91 1772 -91 
Q 1169 -91 856 284 
Q 544 659 544 1381 
z
M 1991 3584 
L 1991 3584 
z
" transform="scale(0.015625)"/>
      <path id="DejaVuSans-64" d="M 2906 2969 
L 2906 4863 
L 3481 4863 
L 3481 0 
L 2906 0 
L 2906 525 
Q 2725 213 2448 61 
Q 2172 -91 1784 -91 
Q 1150 -91 751 415 
Q 353 922 353 1747 
Q 353 2572 751 3078 
Q 1150 3584 1784 3584 
Q 2172 3584 2448 3432 
Q 2725 3281 2906 2969 
z
M 947 1747 
Q 947 1113 1208 752 
Q 1469 391 1925 391 
Q 2381 391 2643 752 
Q 2906 1113 2906 1747 
Q 2906 2381 2643 2742 
Q 2381 3103 1925 3103 
Q 1469 3103 1208 2742 
Q 947 2381 947 1747 
z
" transform="scale(0.015625)"/>
      <path id="DejaVuSans-28" d="M 1984 4856 
Q 1566 4138 1362 3434 
Q 1159 2731 1159 2009 
Q 1159 1288 1364 580 
Q 1569 -128 1984 -844 
L 1484 -844 
Q 1016 -109 783 600 
Q 550 1309 550 2009 
Q 550 2706 781 3412 
Q 1013 4119 1484 4856 
L 1984 4856 
z
" transform="scale(0.015625)"/>
      <path id="DejaVuSans-3c1" d="M 863 2875 
Q 1053 3194 1525 3475 
Q 1709 3584 2278 3584 
Q 2916 3584 3314 3078 
Q 3713 2572 3713 1747 
Q 3713 922 3314 415 
Q 2916 -91 2278 -91 
Q 1894 -91 1617 61 
Q 1341 213 1159 525 
L 1159 -1331 
L 581 -1331 
L 581 1716 
Q 581 2438 863 2875 
z
M 3116 1747 
Q 3116 2381 2855 2742 
Q 2594 3103 2138 3103 
Q 1681 3103 1420 2742 
Q 1159 2381 1159 1747 
Q 1159 1113 1420 752 
Q 1681 391 2138 391 
Q 2594 391 2855 752 
Q 3116 1113 3116 1747 
z
" transform="scale(0.015625)"/>
      <path id="DejaVuSans-29" d="M 513 4856 
L 1013 4856 
Q 1481 4119 1714 3412 
Q 1947 2706 1947 2009 
Q 1947 1309 1714 600 
Q 1481 -109 1013 -844 
L 513 -844 
Q 928 -128 1133 580 
Q 1338 1288 1338 2009 
Q 1338 2731 1133 3434 
Q 928 4138 513 4856 
z
" transform="scale(0.015625)"/>
     </defs>
     <use xlink:href="#DejaVuSans-52"/>
     <use xlink:href="#DejaVuSans-65" x="64.982422"/>
     <use xlink:href="#DejaVuSans-61" x="126.505859"/>
     <use xlink:href="#DejaVuSans-6c" x="187.785156"/>
     <use xlink:href="#DejaVuSans-20" x="215.568359"/>
     <use xlink:href="#DejaVuSans-41" x="247.355469"/>
     <use xlink:href="#DejaVuSans-6d" x="315.763672"/>
     <use xlink:href="#DejaVuSans-70" x="413.175781"/>
     <use xlink:href="#DejaVuSans-6c" x="476.652344"/>
     <use xlink:href="#DejaVuSans-69" x="504.435547"/>
     <use xlink:href="#DejaVuSans-74" x="532.21875"/>
     <use xlink:href="#DejaVuSans-75" x="571.427734"/>
     <use xlink:href="#DejaVuSans-64" x="634.806641"/>
     <use xlink:href="#DejaVuSans-65" x="698.283203"/>
     <use xlink:href="#DejaVuSans-20" x="759.806641"/>
     <use xlink:href="#DejaVuSans-28" x="791.59375"/>
     <use xlink:href="#DejaVuSans-3c1" x="830.607422"/>
     <use xlink:href="#DejaVuSans-29" x="894.083984"/>
    </g>
   </g>
  </g>
  <g id="patch_6">
   <path d="M 604.8 576 
L 1123.2 576 
L 1123.2 57.6 
L 604.8 57.6 
z
" style="fill: #ffffff"/>
  </g>
  <g id="pane3d_4">
   <g id="patch_7">
    <path d="M 706.07018 436.456468 
L 829.494133 330.550231 
L 827.743197 126.70673 
L 698.643358 223.613571 
" style="fill: #f2f2f2; opacity: 0.5; stroke: #f2f2f2; stroke-linejoin: miter"/>
   </g>
  </g>
  <g id="pane3d_5">
   <g id="patch_8">
    <path d="M 829.494133 330.550231 
L 1031.554898 390.069341 
L 1038.583588 181.103065 
L 827.743197 126.70673 
" style="fill: #e6e6e6; opacity: 0.5; stroke: #e6e6e6; stroke-linejoin: miter"/>
   </g>
  </g>
  <g id="pane3d_6">
   <g id="patch_9">
    <path d="M 706.07018 436.456468 
L 916.912731 504.076731 
L 1031.554898 390.069341 
L 829.494133 330.550231 
" style="fill: #ececec; opacity: 0.5; stroke: #ececec; stroke-linejoin: miter"/>
   </g>
  </g>
  <g id="grid3d_4">
   <g id="Line3DCollection_4">
    <path d="M 734.635886 445.617904 
L 856.925726 338.630493 
L 856.328796 134.081748 
" style="fill: none; stroke: #b0b0b0; stroke-width: 0.8"/>
    <path d="M 784.310046 461.549127 
L 904.58611 352.669358 
L 906.022474 146.902603 
" style="fill: none; stroke: #b0b0b0; stroke-width: 0.8"/>
    <path d="M 834.89502 477.772462 
L 953.066152 366.949661 
L 956.607663 159.953465 
" style="fill: none; stroke: #b0b0b0; stroke-width: 0.8"/>
    <path d="M 886.41609 494.296016 
L 1002.38718 381.477685 
L 1008.108569 173.24058 
" style="fill: none; stroke: #b0b0b0; stroke-width: 0.8"/>
   </g>
  </g>
  <g id="grid3d_5">
   <g id="Line3DCollection_5">
    <path d="M 717.757365 209.265931 
L 724.301379 420.812846 
L 933.880707 487.202708 
" style="fill: none; stroke: #b0b0b0; stroke-width: 0.8"/>
    <path d="M 749.704273 185.285468 
L 754.805664 394.638072 
L 962.24502 458.995448 
" style="fill: none; stroke: #b0b0b0; stroke-width: 0.8"/>
    <path d="M 780.65707 162.051218 
L 784.400054 369.24405 
L 989.731787 431.660877 
" style="fill: none; stroke: #b0b0b0; stroke-width: 0.8"/>
    <path d="M 810.661448 139.528886 
L 813.124663 344.596362 
L 1016.38111 405.159111 
" style="fill: none; stroke: #b0b0b0; stroke-width: 0.8"/>
   </g>
  </g>
  <g id="grid3d_6">
   <g id="Line3DCollection_6">
    <path d="M 1032.019377 376.260144 
L 829.378259 317.060262 
L 705.579939 422.406802 
" style="fill: none; stroke: #b0b0b0; stroke-width: 0.8"/>
    <path d="M 1033.002883 347.020049 
L 829.132982 288.505138 
L 704.541628 392.650196 
" style="fill: none; stroke: #b0b0b0; stroke-width: 0.8"/>
    <path d="M 1033.998478 317.420549 
L 828.884797 259.611512 
L 703.490201 362.517689 
" style="fill: none; stroke: #b0b0b0; stroke-width: 0.8"/>
    <path d="M 1035.006386 287.454977 
L 828.633652 230.373328 
L 702.425408 332.002114 
" style="fill: none; stroke: #b0b0b0; stroke-width: 0.8"/>
    <path d="M 1036.026836 257.116501 
L 828.379495 200.784387 
L 701.346991 301.096119 
" style="fill: none; stroke: #b0b0b0; stroke-width: 0.8"/>
    <path d="M 1037.060065 226.398115 
L 828.12227 170.838339 
L 700.254688 269.792164 
" style="fill: none; stroke: #b0b0b0; stroke-width: 0.8"/>
    <path d="M 1038.106314 195.292639 
L 827.861922 140.52868 
L 699.148229 238.082511 
" style="fill: none; stroke: #b0b0b0; stroke-width: 0.8"/>
   </g>
  </g>
  <g id="axis3d_4">
   <g id="line2d_20">
    <path d="M 706.07018 436.456468 
L 916.912731 504.076731 
" style="fill: none; stroke: #000000; stroke-width: 0.8; stroke-linecap: square"/>
   </g>
   <g id="xtick_17">
    <g id="line2d_21">
     <path d="M 735.677227 444.706868 
L 732.549953 447.442819 
" style="fill: none; stroke: #000000; stroke-width: 0.8; stroke-linecap: square"/>
    </g>
    <g id="text_18">
     <!-- 00 -->
     <g transform="translate(707.351686 489.365693) rotate(-45) scale(0.21 -0.21)">
      <use xlink:href="#DejaVuSans-30"/>
      <use xlink:href="#DejaVuSans-30" x="63.623047"/>
     </g>
    </g>
   </g>
   <g id="xtick_18">
    <g id="line2d_22">
     <path d="M 785.334802 460.621468 
L 782.257306 463.407368 
" style="fill: none; stroke: #000000; stroke-width: 0.8; stroke-linecap: square"/>
    </g>
    <g id="text_19">
     <!-- 01 -->
     <g transform="translate(757.023931 505.435143) rotate(-45) scale(0.21 -0.21)">
      <use xlink:href="#DejaVuSans-30"/>
      <use xlink:href="#DejaVuSans-31" x="63.623047"/>
     </g>
    </g>
   </g>
   <g id="xtick_19">
    <g id="line2d_23">
     <path d="M 835.902405 476.82772 
L 832.877048 479.664949 
" style="fill: none; stroke: #000000; stroke-width: 0.8; stroke-linecap: square"/>
    </g>
    <g id="text_20">
     <!-- 10 -->
     <g transform="translate(807.60781 521.799516) rotate(-45) scale(0.21 -0.21)">
      <use xlink:href="#DejaVuSans-31"/>
      <use xlink:href="#DejaVuSans-30" x="63.623047"/>
     </g>
    </g>
   </g>
   <g id="xtick_20">
    <g id="line2d_24">
     <path d="M 887.405283 493.333715 
L 884.434531 496.223705 
" style="fill: none; stroke: #000000; stroke-width: 0.8; stroke-linecap: square"/>
    </g>
    <g id="text_21">
     <!-- 11 -->
     <g transform="translate(859.128654 538.467006) rotate(-45) scale(0.21 -0.21)">
      <use xlink:href="#DejaVuSans-31"/>
      <use xlink:href="#DejaVuSans-31" x="63.623047"/>
     </g>
    </g>
   </g>
  </g>
  <g id="axis3d_5">
   <g id="line2d_25">
    <path d="M 1031.554898 390.069341 
L 916.912731 504.076731 
" style="fill: none; stroke: #000000; stroke-width: 0.8; stroke-linecap: square"/>
   </g>
   <g id="xtick_21">
    <g id="line2d_26">
     <path d="M 932.140222 486.651363 
L 937.364886 488.306415 
" style="fill: none; stroke: #000000; stroke-width: 0.8; stroke-linecap: square"/>
    </g>
    <g id="text_22">
     <!-- 00 -->
     <g transform="translate(944.70027 499.207917) rotate(-337.5) scale(0.21 -0.21)">
      <use xlink:href="#DejaVuSans-30"/>
      <use xlink:href="#DejaVuSans-30" x="63.623047"/>
     </g>
    </g>
   </g>
   <g id="xtick_22">
    <g id="line2d_27">
     <path d="M 960.5233 458.46129 
L 965.691587 460.064734 
" style="fill: none; stroke: #000000; stroke-width: 0.8; stroke-linecap: square"/>
    </g>
    <g id="text_23">
     <!-- 01 -->
     <g transform="translate(972.913817 470.822876) rotate(-337.5) scale(0.21 -0.21)">
      <use xlink:href="#DejaVuSans-30"/>
      <use xlink:href="#DejaVuSans-31" x="63.623047"/>
     </g>
    </g>
   </g>
   <g id="xtick_23">
    <g id="line2d_28">
     <path d="M 988.028511 431.143114 
L 993.141381 432.697327 
" style="fill: none; stroke: #000000; stroke-width: 0.8; stroke-linecap: square"/>
    </g>
    <g id="text_24">
     <!-- 10 -->
     <g transform="translate(1000.254695 443.315808) rotate(-337.5) scale(0.21 -0.21)">
      <use xlink:href="#DejaVuSans-31"/>
      <use xlink:href="#DejaVuSans-30" x="63.623047"/>
     </g>
    </g>
   </g>
   <g id="xtick_24">
    <g id="line2d_29">
     <path d="M 1014.695964 404.657001 
L 1019.754368 406.164215 
" style="fill: none; stroke: #000000; stroke-width: 0.8; stroke-linecap: square"/>
    </g>
    <g id="text_25">
     <!-- 11 -->
     <g transform="translate(1026.762776 416.646599) rotate(-337.5) scale(0.21 -0.21)">
      <use xlink:href="#DejaVuSans-31"/>
      <use xlink:href="#DejaVuSans-31" x="63.623047"/>
     </g>
    </g>
   </g>
  </g>
  <g id="axis3d_6">
   <g id="line2d_30">
    <path d="M 1031.554898 390.069341 
L 1038.583588 181.103065 
" style="fill: none; stroke: #000000; stroke-width: 0.8; stroke-linecap: square"/>
   </g>
   <g id="xtick_25">
    <g id="line2d_31">
     <path d="M 1030.339683 375.769436 
L 1035.381706 377.24242 
" style="fill: none; stroke: #000000; stroke-width: 0.8; stroke-linecap: square"/>
    </g>
    <g id="text_26">
     <!-- −0.2 -->
     <g transform="translate(1045.537142 369.981881) scale(0.21 -0.21)">
      <use xlink:href="#DejaVuSans-2212"/>
      <use xlink:href="#DejaVuSans-30" x="83.789062"/>
      <use xlink:href="#DejaVuSans-2e" x="147.412109"/>
      <use xlink:href="#DejaVuSans-32" x="179.199219"/>
     </g>
    </g>
   </g>
   <g id="xtick_26">
    <g id="line2d_32">
     <path d="M 1031.312643 346.534915 
L 1036.386339 347.991171 
" style="fill: none; stroke: #000000; stroke-width: 0.8; stroke-linecap: square"/>
    </g>
    <g id="text_27">
     <!-- −0.1 -->
     <g transform="translate(1046.602 340.763503) scale(0.21 -0.21)">
      <use xlink:href="#DejaVuSans-2212"/>
      <use xlink:href="#DejaVuSans-30" x="83.789062"/>
      <use xlink:href="#DejaVuSans-2e" x="147.412109"/>
      <use xlink:href="#DejaVuSans-31" x="179.199219"/>
     </g>
    </g>
   </g>
   <g id="xtick_27">
    <g id="line2d_33">
     <path d="M 1032.29756 316.941164 
L 1037.403327 318.380168 
" style="fill: none; stroke: #000000; stroke-width: 0.8; stroke-linecap: square"/>
    </g>
    <g id="text_28">
     <!-- 0.0 -->
     <g transform="translate(1047.679932 311.1864) scale(0.21 -0.21)">
      <use xlink:href="#DejaVuSans-30"/>
      <use xlink:href="#DejaVuSans-2e" x="63.623047"/>
      <use xlink:href="#DejaVuSans-30" x="95.410156"/>
     </g>
    </g>
   </g>
   <g id="xtick_28">
    <g id="line2d_34">
     <path d="M 1033.294653 286.981521 
L 1038.432901 288.402734 
" style="fill: none; stroke: #000000; stroke-width: 0.8; stroke-linecap: square"/>
    </g>
    <g id="text_29">
     <!-- 0.1 -->
     <g transform="translate(1048.77118 281.243926) scale(0.21 -0.21)">
      <use xlink:href="#DejaVuSans-30"/>
      <use xlink:href="#DejaVuSans-2e" x="63.623047"/>
      <use xlink:href="#DejaVuSans-31" x="95.410156"/>
     </g>
    </g>
   </g>
   <g id="xtick_29">
    <g id="line2d_35">
     <path d="M 1034.304151 256.649158 
L 1039.475295 258.052024 
" style="fill: none; stroke: #000000; stroke-width: 0.8; stroke-linecap: square"/>
    </g>
    <g id="text_30">
     <!-- 0.2 -->
     <g transform="translate(1049.875992 250.929267) scale(0.21 -0.21)">
      <use xlink:href="#DejaVuSans-30"/>
      <use xlink:href="#DejaVuSans-2e" x="63.623047"/>
      <use xlink:href="#DejaVuSans-32" x="95.410156"/>
     </g>
    </g>
   </g>
   <g id="xtick_30">
    <g id="line2d_36">
     <path d="M 1035.326287 225.937077 
L 1040.530749 227.321024 
" style="fill: none; stroke: #000000; stroke-width: 0.8; stroke-linecap: square"/>
    </g>
    <g id="text_31">
     <!-- 0.3 -->
     <g transform="translate(1050.994623 220.235441) scale(0.21 -0.21)">
      <use xlink:href="#DejaVuSans-30"/>
      <use xlink:href="#DejaVuSans-2e" x="63.623047"/>
      <use xlink:href="#DejaVuSans-33" x="95.410156"/>
     </g>
    </g>
   </g>
   <g id="xtick_31">
    <g id="line2d_37">
     <path d="M 1036.361299 194.838102 
L 1041.599512 196.202539 
" style="fill: none; stroke: #000000; stroke-width: 0.8; stroke-linecap: square"/>
    </g>
    <g id="text_32">
     <!-- 0.4 -->
     <g transform="translate(1052.127333 189.15529) scale(0.21 -0.21)">
      <use xlink:href="#DejaVuSans-30"/>
      <use xlink:href="#DejaVuSans-2e" x="63.623047"/>
      <use xlink:href="#DejaVuSans-34" x="95.410156"/>
     </g>
    </g>
   </g>
  </g>
  <g id="axes_2">
   <g id="Poly3DCollection_4">
    <path d="M 835.346914 271.892592 
L 835.467434 288.424729 
L 859.441791 295.297696 
L 859.402406 278.717552 
z
" clip-path="url(#pe48317514b)" style="fill: #648fff"/>
    <path d="M 821.057548 283.751271 
L 821.227626 300.366693 
L 835.467434 288.424729 
L 835.346914 271.892592 
z
" clip-path="url(#pe48317514b)" style="fill: #324880"/>
    <path d="M 821.227626 300.366693 
L 845.320331 307.343092 
L 859.441791 295.297696 
L 835.467434 288.424729 
z
" clip-path="url(#pe48317514b)" style="fill: #577ddf"/>
    <path d="M 821.057548 283.751271 
L 835.346914 271.892592 
L 859.402406 278.717552 
L 845.23219 290.679295 
z
" clip-path="url(#pe48317514b)" style="fill: #3f599f"/>
    <path d="M 845.23219 290.679295 
L 859.402406 278.717552 
L 859.441791 295.297696 
L 845.320331 307.343092 
z
" clip-path="url(#pe48317514b)" style="fill: #648fff"/>
    <path d="M 821.057548 283.751271 
L 845.23219 290.679295 
L 845.320331 307.343092 
L 821.227626 300.366693 
z
" clip-path="url(#pe48317514b)" style="fill: #324880"/>
    <path d="M 806.552052 295.789315 
L 806.865676 319.474077 
L 831.042967 326.576503 
L 830.846706 302.822754 
z
" clip-path="url(#pe48317514b)" style="fill: #648fff"/>
    <path d="M 792.213689 331.815265 
L 816.510692 339.026051 
L 831.042967 326.576503 
L 806.865676 319.474077 
z
" clip-path="url(#pe48317514b)" style="fill: #577ddf"/>
    <path d="M 791.825485 308.010824 
L 792.213689 331.815265 
L 806.865676 319.474077 
L 806.552052 295.789315 
z
" clip-path="url(#pe48317514b)" style="fill: #324880"/>
    <path d="M 816.241012 315.152103 
L 830.846706 302.822754 
L 831.042967 326.576503 
L 816.510692 339.026051 
z
" clip-path="url(#pe48317514b)" style="fill: #648fff"/>
    <path d="M 791.825485 308.010824 
L 806.552052 295.789315 
L 830.846706 302.822754 
L 816.241012 315.152103 
z
" clip-path="url(#pe48317514b)" style="fill: #3f599f"/>
    <path d="M 763.342974 406.120684 
L 787.635283 413.696335 
L 802.459863 400.617052 
L 778.286551 393.155814 
z
" clip-path="url(#pe48317514b)" style="fill: #577ddf"/>
    <path d="M 791.825485 308.010824 
L 816.241012 315.152103 
L 816.510692 339.026051 
L 792.213689 331.815265 
z
" clip-path="url(#pe48317514b)" style="fill: #324880"/>
    <path d="M 776.872756 320.420025 
L 778.286551 393.155814 
L 802.459863 400.617052 
L 801.410013 327.671643 
z
" clip-path="url(#pe48317514b)" style="fill: #648fff"/>
    <path d="M 761.688613 333.021275 
L 763.342974 406.120684 
L 778.286551 393.155814 
L 776.872756 320.420025 
z
" clip-path="url(#pe48317514b)" style="fill: #324880"/>
    <path d="M 786.348454 340.385809 
L 801.410013 327.671643 
L 802.459863 400.617052 
L 787.635283 413.696335 
z
" clip-path="url(#pe48317514b)" style="fill: #648fff"/>
    <path d="M 761.688613 333.021275 
L 786.348454 340.385809 
L 787.635283 413.696335 
L 763.342974 406.120684 
z
" clip-path="url(#pe48317514b)" style="fill: #324880"/>
    <path d="M 761.688613 333.021275 
L 776.872756 320.420025 
L 801.410013 327.671643 
L 786.348454 340.385809 
z
" clip-path="url(#pe48317514b)" style="fill: #3f599f"/>
    <path d="M 826.166779 334.988134 
L 826.166779 334.988134 
L 851.146014 342.370372 
L 851.146014 342.370372 
z
" clip-path="url(#pe48317514b)" style="fill: #648fff"/>
    <path d="M 861.785272 420.080481 
L 887.047248 427.882945 
L 901.418455 414.413002 
L 876.28753 406.730887 
z
" clip-path="url(#pe48317514b)" style="fill: #577ddf"/>
    <path d="M 811.230623 347.816741 
L 811.230623 347.816741 
L 826.166779 334.988134 
L 826.166779 334.988134 
z
" clip-path="url(#pe48317514b)" style="fill: #324880"/>
    <path d="M 955.587902 338.936031 
L 955.587902 338.936031 
L 981.210331 346.353869 
L 981.210331 346.353869 
z
" clip-path="url(#pe48317514b)" style="fill: #648fff"/>
    <path d="M 876.35073 349.819248 
L 876.28753 406.730887 
L 901.418455 414.413002 
L 901.783993 357.335668 
z
" clip-path="url(#pe48317514b)" style="fill: #648fff"/>
    <path d="M 811.230623 347.816741 
L 826.166779 334.988134 
L 851.146014 342.370372 
L 836.338142 355.314973 
z
" clip-path="url(#pe48317514b)" style="fill: #3f599f"/>
    <path d="M 811.230623 347.816741 
L 836.338142 355.314973 
L 851.146014 342.370372 
L 826.166779 334.988134 
z
" clip-path="url(#pe48317514b)" style="fill: #577ddf"/>
    <path d="M 941.628534 351.826604 
L 941.628534 351.826604 
L 955.587902 338.936031 
L 955.587902 338.936031 
z
" clip-path="url(#pe48317514b)" style="fill: #324880"/>
    <path d="M 861.674085 362.881422 
L 861.785272 420.080481 
L 876.28753 406.730887 
L 876.35073 349.819248 
z
" clip-path="url(#pe48317514b)" style="fill: #324880"/>
    <path d="M 836.338142 355.314973 
L 851.146014 342.370372 
L 851.146014 342.370372 
L 836.338142 355.314973 
z
" clip-path="url(#pe48317514b)" style="fill: #648fff"/>
    <path d="M 941.628534 351.826604 
L 967.38905 359.361278 
L 981.210331 346.353869 
L 955.587902 338.936031 
z
" clip-path="url(#pe48317514b)" style="fill: #577ddf"/>
    <path d="M 941.628534 351.826604 
L 955.587902 338.936031 
L 981.210331 346.353869 
L 967.38905 359.361278 
z
" clip-path="url(#pe48317514b)" style="fill: #3f599f"/>
    <path d="M 811.230623 347.816741 
L 836.338142 355.314973 
L 836.338142 355.314973 
L 811.230623 347.816741 
z
" clip-path="url(#pe48317514b)" style="fill: #324880"/>
    <path d="M 967.38905 359.361278 
L 981.210331 346.353869 
L 981.210331 346.353869 
L 967.38905 359.361278 
z
" clip-path="url(#pe48317514b)" style="fill: #648fff"/>
    <path d="M 887.241584 370.517024 
L 901.783993 357.335668 
L 901.418455 414.413002 
L 887.047248 427.882945 
z
" clip-path="url(#pe48317514b)" style="fill: #648fff"/>
    <path d="M 941.628534 351.826604 
L 967.38905 359.361278 
L 967.38905 359.361278 
L 941.628534 351.826604 
z
" clip-path="url(#pe48317514b)" style="fill: #324880"/>
    <path d="M 861.674085 362.881422 
L 887.241584 370.517024 
L 887.047248 427.882945 
L 861.785272 420.080481 
z
" clip-path="url(#pe48317514b)" style="fill: #324880"/>
    <path d="M 861.674085 362.881422 
L 876.35073 349.819248 
L 901.783993 357.335668 
L 887.241584 370.517024 
z
" clip-path="url(#pe48317514b)" style="fill: #3f599f"/>
    <path d="M 912.686693 418.873912 
L 938.503061 426.770203 
L 952.651492 413.138847 
L 926.973165 405.365881 
z
" clip-path="url(#pe48317514b)" style="fill: #577ddf"/>
    <path d="M 927.448927 364.920554 
L 926.973165 405.365881 
L 952.651492 413.138847 
L 953.348711 372.574847 
z
" clip-path="url(#pe48317514b)" style="fill: #648fff"/>
    <path d="M 913.043827 378.222732 
L 912.686693 418.873912 
L 926.973165 405.365881 
L 927.448927 364.920554 
z
" clip-path="url(#pe48317514b)" style="fill: #324880"/>
    <path d="M 939.084064 385.999514 
L 953.348711 372.574847 
L 952.651492 413.138847 
L 938.503061 426.770203 
z
" clip-path="url(#pe48317514b)" style="fill: #648fff"/>
    <path d="M 913.043827 378.222732 
L 939.084064 385.999514 
L 938.503061 426.770203 
L 912.686693 418.873912 
z
" clip-path="url(#pe48317514b)" style="fill: #324880"/>
    <path d="M 913.043827 378.222732 
L 927.448927 364.920554 
L 953.348711 372.574847 
L 939.084064 385.999514 
z
" clip-path="url(#pe48317514b)" style="fill: #3f599f"/>
   </g>
   <g id="Poly3DCollection_5">
    <path d="M 710.279994 361.591237 
L 915.696775 424.595353 
L 1027.563282 318.298617 
L 830.490889 262.663848 
z
" clip-path="url(#pe48317514b)" style="fill-opacity: 0.25"/>
   </g>
   <g id="Poly3DCollection_6">
    <path d="M 869.618185 297.667888 
L 883.666629 285.601733 
L 908.142313 292.545909 
L 894.218318 304.71785 
z
" clip-path="url(#pe48317514b)" style="fill: #3f599f"/>
    <path d="M 883.666629 285.601733 
L 883.769992 245.781767 
L 908.446819 252.607947 
L 908.142313 292.545909 
z
" clip-path="url(#pe48317514b)" style="fill: #324880"/>
    <path d="M 869.618185 297.667888 
L 869.606774 257.643203 
L 883.769992 245.781767 
L 883.666629 285.601733 
z
" clip-path="url(#pe48317514b)" style="fill: #648fff"/>
    <path d="M 932.832232 299.550868 
L 932.832232 299.550868 
L 957.739213 306.61741 
L 957.739213 306.61741 
z
" clip-path="url(#pe48317514b)" style="fill: #324880"/>
    <path d="M 894.218318 304.71785 
L 908.142313 292.545909 
L 908.446819 252.607947 
L 894.410113 264.574231 
z
" clip-path="url(#pe48317514b)" style="fill: #324880"/>
    <path d="M 919.035421 311.829991 
L 919.035421 311.829991 
L 932.832232 299.550868 
L 932.832232 299.550868 
z
" clip-path="url(#pe48317514b)" style="fill: #648fff"/>
    <path d="M 869.618185 297.667888 
L 894.218318 304.71785 
L 894.410113 264.574231 
L 869.606774 257.643203 
z
" clip-path="url(#pe48317514b)" style="fill: #648fff"/>
    <path d="M 869.606774 257.643203 
L 894.410113 264.574231 
L 908.446819 252.607947 
L 883.769992 245.781767 
z
" clip-path="url(#pe48317514b)" style="fill: #577ddf"/>
    <path d="M 919.035421 311.829991 
L 932.832232 299.550868 
L 957.739213 306.61741 
L 944.072377 319.005139 
z
" clip-path="url(#pe48317514b)" style="fill: #3f599f"/>
    <path d="M 919.035421 311.829991 
L 944.072377 319.005139 
L 957.739213 306.61741 
L 932.832232 299.550868 
z
" clip-path="url(#pe48317514b)" style="fill: #577ddf"/>
    <path d="M 944.072377 319.005139 
L 957.739213 306.61741 
L 957.739213 306.61741 
L 944.072377 319.005139 
z
" clip-path="url(#pe48317514b)" style="fill: #324880"/>
    <path d="M 919.035421 311.829991 
L 944.072377 319.005139 
L 944.072377 319.005139 
L 919.035421 311.829991 
z
" clip-path="url(#pe48317514b)" style="fill: #648fff"/>
    <path d="M 982.86613 313.746352 
L 982.86613 313.746352 
L 1008.21591 320.938524 
L 1008.21591 320.938524 
z
" clip-path="url(#pe48317514b)" style="fill: #324880"/>
    <path d="M 840.873281 322.356777 
L 855.355384 309.918154 
L 880.080925 317.076337 
L 865.72519 329.625693 
z
" clip-path="url(#pe48317514b)" style="fill: #3f599f"/>
    <path d="M 969.332122 326.244133 
L 969.332122 326.244133 
L 982.86613 313.746352 
L 982.86613 313.746352 
z
" clip-path="url(#pe48317514b)" style="fill: #648fff"/>
    <path d="M 855.355384 309.918154 
L 855.17048 252.576207 
L 880.188631 259.562637 
L 880.080925 317.076337 
z
" clip-path="url(#pe48317514b)" style="fill: #324880"/>
    <path d="M 969.332122 326.244133 
L 982.86613 313.746352 
L 1008.21591 320.938524 
L 994.817641 333.547831 
z
" clip-path="url(#pe48317514b)" style="fill: #3f599f"/>
    <path d="M 969.332122 326.244133 
L 994.817641 333.547831 
L 1008.21591 320.938524 
L 982.86613 313.746352 
z
" clip-path="url(#pe48317514b)" style="fill: #577ddf"/>
    <path d="M 840.873281 322.356777 
L 840.514504 264.716847 
L 855.17048 252.576207 
L 855.355384 309.918154 
z
" clip-path="url(#pe48317514b)" style="fill: #648fff"/>
    <path d="M 994.817641 333.547831 
L 1008.21591 320.938524 
L 1008.21591 320.938524 
L 994.817641 333.547831 
z
" clip-path="url(#pe48317514b)" style="fill: #324880"/>
    <path d="M 905.026221 324.298141 
L 905.026221 324.298141 
L 930.194215 331.584416 
L 930.194215 331.584416 
z
" clip-path="url(#pe48317514b)" style="fill: #324880"/>
    <path d="M 969.332122 326.244133 
L 994.817641 333.547831 
L 994.817641 333.547831 
L 969.332122 326.244133 
z
" clip-path="url(#pe48317514b)" style="fill: #648fff"/>
    <path d="M 890.79969 336.959714 
L 890.79969 336.959714 
L 905.026221 324.298141 
L 905.026221 324.298141 
z
" clip-path="url(#pe48317514b)" style="fill: #648fff"/>
    <path d="M 865.72519 329.625693 
L 880.080925 317.076337 
L 880.188631 259.562637 
L 865.662035 271.812648 
z
" clip-path="url(#pe48317514b)" style="fill: #324880"/>
    <path d="M 890.79969 336.959714 
L 905.026221 324.298141 
L 930.194215 331.584416 
L 916.099785 344.35972 
z
" clip-path="url(#pe48317514b)" style="fill: #3f599f"/>
    <path d="M 890.79969 336.959714 
L 916.099785 344.35972 
L 930.194215 331.584416 
L 905.026221 324.298141 
z
" clip-path="url(#pe48317514b)" style="fill: #577ddf"/>
    <path d="M 840.873281 322.356777 
L 865.72519 329.625693 
L 865.662035 271.812648 
L 840.514504 264.716847 
z
" clip-path="url(#pe48317514b)" style="fill: #648fff"/>
    <path d="M 916.099785 344.35972 
L 930.194215 331.584416 
L 930.194215 331.584416 
L 916.099785 344.35972 
z
" clip-path="url(#pe48317514b)" style="fill: #324880"/>
    <path d="M 840.514504 264.716847 
L 865.662035 271.812648 
L 880.188631 259.562637 
L 855.17048 252.576207 
z
" clip-path="url(#pe48317514b)" style="fill: #577ddf"/>
    <path d="M 890.79969 336.959714 
L 916.099785 344.35972 
L 916.099785 344.35972 
L 890.79969 336.959714 
z
" clip-path="url(#pe48317514b)" style="fill: #648fff"/>
    <path d="M 746.267643 345.819066 
L 746.267643 345.819066 
L 771.050917 353.299176 
L 771.050917 353.299176 
z
" clip-path="url(#pe48317514b)" style="fill: #324880"/>
    <path d="M 730.604261 358.818034 
L 730.604261 358.818034 
L 746.267643 345.819066 
L 746.267643 345.819066 
z
" clip-path="url(#pe48317514b)" style="fill: #648fff"/>
    <path d="M 730.604261 358.818034 
L 746.267643 345.819066 
L 771.050917 353.299176 
L 755.511812 366.41646 
z
" clip-path="url(#pe48317514b)" style="fill: #3f599f"/>
    <path d="M 730.604261 358.818034 
L 755.511812 366.41646 
L 771.050917 353.299176 
L 746.267643 345.819066 
z
" clip-path="url(#pe48317514b)" style="fill: #577ddf"/>
    <path d="M 755.511812 366.41646 
L 771.050917 353.299176 
L 771.050917 353.299176 
L 755.511812 366.41646 
z
" clip-path="url(#pe48317514b)" style="fill: #324880"/>
    <path d="M 730.604261 358.818034 
L 755.511812 366.41646 
L 755.511812 366.41646 
L 730.604261 358.818034 
z
" clip-path="url(#pe48317514b)" style="fill: #648fff"/>
    <path d="M 780.647488 374.084479 
L 796.059391 360.847255 
L 821.296148 368.464235 
L 806.014437 381.823051 
z
" clip-path="url(#pe48317514b)" style="fill: #3f599f"/>
    <path d="M 796.059391 360.847255 
L 794.869637 284.609538 
L 820.503364 291.994489 
L 821.296148 368.464235 
z
" clip-path="url(#pe48317514b)" style="fill: #324880"/>
    <path d="M 780.647488 374.084479 
L 779.201514 297.444216 
L 794.869637 284.609538 
L 796.059391 360.847255 
z
" clip-path="url(#pe48317514b)" style="fill: #648fff"/>
    <path d="M 846.764329 376.151063 
L 846.639216 351.443698 
L 872.474711 359.127168 
L 872.467132 383.908705 
z
" clip-path="url(#pe48317514b)" style="fill: #324880"/>
    <path d="M 831.615865 389.633154 
L 846.764329 376.151063 
L 872.467132 383.908705 
L 857.455039 397.515786 
z
" clip-path="url(#pe48317514b)" style="fill: #3f599f"/>
    <path d="M 831.615865 389.633154 
L 831.410932 364.797119 
L 846.639216 351.443698 
L 846.764329 376.151063 
z
" clip-path="url(#pe48317514b)" style="fill: #648fff"/>
    <path d="M 806.014437 381.823051 
L 821.296148 368.464235 
L 820.503364 291.994489 
L 804.969542 304.948953 
z
" clip-path="url(#pe48317514b)" style="fill: #324880"/>
    <path d="M 780.647488 374.084479 
L 806.014437 381.823051 
L 804.969542 304.948953 
L 779.201514 297.444216 
z
" clip-path="url(#pe48317514b)" style="fill: #648fff"/>
    <path d="M 857.455039 397.515786 
L 872.467132 383.908705 
L 872.474711 359.127168 
L 857.384211 372.605031 
z
" clip-path="url(#pe48317514b)" style="fill: #324880"/>
    <path d="M 831.410932 364.797119 
L 857.384211 372.605031 
L 872.474711 359.127168 
L 846.639216 351.443698 
z
" clip-path="url(#pe48317514b)" style="fill: #577ddf"/>
    <path d="M 831.615865 389.633154 
L 857.455039 397.515786 
L 857.384211 372.605031 
L 831.410932 364.797119 
z
" clip-path="url(#pe48317514b)" style="fill: #648fff"/>
    <path d="M 779.201514 297.444216 
L 804.969542 304.948953 
L 820.503364 291.994489 
L 794.869637 284.609538 
z
" clip-path="url(#pe48317514b)" style="fill: #577ddf"/>
    <path d="M 898.407813 391.738144 
L 898.508158 374.265153 
L 924.786827 382.114932 
L 924.58969 399.640381 
z
" clip-path="url(#pe48317514b)" style="fill: #324880"/>
    <path d="M 883.535286 405.47196 
L 883.581542 387.90797 
L 898.508158 374.265153 
L 898.407813 391.738144 
z
" clip-path="url(#pe48317514b)" style="fill: #648fff"/>
    <path d="M 883.535286 405.47196 
L 898.407813 391.738144 
L 924.58969 399.640381 
L 909.859996 413.502711 
z
" clip-path="url(#pe48317514b)" style="fill: #3f599f"/>
    <path d="M 883.581542 387.90797 
L 910.004107 395.885884 
L 924.786827 382.114932 
L 898.508158 374.265153 
z
" clip-path="url(#pe48317514b)" style="fill: #577ddf"/>
    <path d="M 909.859996 413.502711 
L 924.58969 399.640381 
L 924.786827 382.114932 
L 910.004107 395.885884 
z
" clip-path="url(#pe48317514b)" style="fill: #324880"/>
    <path d="M 883.535286 405.47196 
L 909.859996 413.502711 
L 910.004107 395.885884 
L 883.581542 387.90797 
z
" clip-path="url(#pe48317514b)" style="fill: #648fff"/>
   </g>
   <g id="text_33">
    <!-- Imaginary Amplitude (ρ) -->
    <g transform="translate(735.696563 51.6) scale(0.21 -0.21)">
     <defs>
      <path id="DejaVuSans-49" d="M 628 4666 
L 1259 4666 
L 1259 0 
L 628 0 
L 628 4666 
z
" transform="scale(0.015625)"/>
      <path id="DejaVuSans-67" d="M 2906 1791 
Q 2906 2416 2648 2759 
Q 2391 3103 1925 3103 
Q 1463 3103 1205 2759 
Q 947 2416 947 1791 
Q 947 1169 1205 825 
Q 1463 481 1925 481 
Q 2391 481 2648 825 
Q 2906 1169 2906 1791 
z
M 3481 434 
Q 3481 -459 3084 -895 
Q 2688 -1331 1869 -1331 
Q 1566 -1331 1297 -1286 
Q 1028 -1241 775 -1147 
L 775 -588 
Q 1028 -725 1275 -790 
Q 1522 -856 1778 -856 
Q 2344 -856 2625 -561 
Q 2906 -266 2906 331 
L 2906 616 
Q 2728 306 2450 153 
Q 2172 0 1784 0 
Q 1141 0 747 490 
Q 353 981 353 1791 
Q 353 2603 747 3093 
Q 1141 3584 1784 3584 
Q 2172 3584 2450 3431 
Q 2728 3278 2906 2969 
L 2906 3500 
L 3481 3500 
L 3481 434 
z
" transform="scale(0.015625)"/>
      <path id="DejaVuSans-6e" d="M 3513 2113 
L 3513 0 
L 2938 0 
L 2938 2094 
Q 2938 2591 2744 2837 
Q 2550 3084 2163 3084 
Q 1697 3084 1428 2787 
Q 1159 2491 1159 1978 
L 1159 0 
L 581 0 
L 581 3500 
L 1159 3500 
L 1159 2956 
Q 1366 3272 1645 3428 
Q 1925 3584 2291 3584 
Q 2894 3584 3203 3211 
Q 3513 2838 3513 2113 
z
" transform="scale(0.015625)"/>
      <path id="DejaVuSans-72" d="M 2631 2963 
Q 2534 3019 2420 3045 
Q 2306 3072 2169 3072 
Q 1681 3072 1420 2755 
Q 1159 2438 1159 1844 
L 1159 0 
L 581 0 
L 581 3500 
L 1159 3500 
L 1159 2956 
Q 1341 3275 1631 3429 
Q 1922 3584 2338 3584 
Q 2397 3584 2469 3576 
Q 2541 3569 2628 3553 
L 2631 2963 
z
" transform="scale(0.015625)"/>
      <path id="DejaVuSans-79" d="M 2059 -325 
Q 1816 -950 1584 -1140 
Q 1353 -1331 966 -1331 
L 506 -1331 
L 506 -850 
L 844 -850 
Q 1081 -850 1212 -737 
Q 1344 -625 1503 -206 
L 1606 56 
L 191 3500 
L 800 3500 
L 1894 763 
L 2988 3500 
L 3597 3500 
L 2059 -325 
z
" transform="scale(0.015625)"/>
     </defs>
     <use xlink:href="#DejaVuSans-49"/>
     <use xlink:href="#DejaVuSans-6d" x="29.492188"/>
     <use xlink:href="#DejaVuSans-61" x="126.904297"/>
     <use xlink:href="#DejaVuSans-67" x="188.183594"/>
     <use xlink:href="#DejaVuSans-69" x="251.660156"/>
     <use xlink:href="#DejaVuSans-6e" x="279.443359"/>
     <use xlink:href="#DejaVuSans-61" x="342.822266"/>
     <use xlink:href="#DejaVuSans-72" x="404.101562"/>
     <use xlink:href="#DejaVuSans-79" x="445.214844"/>
     <use xlink:href="#DejaVuSans-20" x="504.394531"/>
     <use xlink:href="#DejaVuSans-41" x="536.181641"/>
     <use xlink:href="#DejaVuSans-6d" x="604.589844"/>
     <use xlink:href="#DejaVuSans-70" x="702.001953"/>
     <use xlink:href="#DejaVuSans-6c" x="765.478516"/>
     <use xlink:href="#DejaVuSans-69" x="793.261719"/>
     <use xlink:href="#DejaVuSans-74" x="821.044922"/>
     <use xlink:href="#DejaVuSans-75" x="860.253906"/>
     <use xlink:href="#DejaVuSans-64" x="923.632812"/>
     <use xlink:href="#DejaVuSans-65" x="987.109375"/>
     <use xlink:href="#DejaVuSans-20" x="1048.632812"/>
     <use xlink:href="#DejaVuSans-28" x="1080.419922"/>
     <use xlink:href="#DejaVuSans-3c1" x="1119.433594"/>
     <use xlink:href="#DejaVuSans-29" x="1182.910156"/>
    </g>
   </g>
  </g>
 </g>
 <defs>
  <clipPath id="p7fd6e5fa5b">
   <rect x="28.8" y="57.6" width="518.4" height="518.4"/>
  </clipPath>
  <clipPath id="pe48317514b">
   <rect x="604.8" y="57.6" width="518.4" height="518.4"/>
  </clipPath>
 </defs>
</svg>
