<?xml version="1.0" encoding="utf-8" standalone="no"?>
<!DOCTYPE svg PUBLIC "-//W3C//DTD SVG 1.1//EN"
  "http://www.w3.org/Graphics/SVG/1.1/DTD/svg11.dtd">
<svg xmlns:xlink="http://www.w3.org/1999/xlink" width="1563.380102pt" height="799.479989pt" viewBox="0 0 1563.380102 799.479989" xmlns="http://www.w3.org/2000/svg" version="1.1">
 <metadata>
  <rdf:RDF xmlns:dc="http://purl.org/dc/elements/1.1/" xmlns:cc="http://creativecommons.org/ns#" xmlns:rdf="http://www.w3.org/1999/02/22-rdf-syntax-ns#">
   <cc:Work>
    <dc:type rdf:resource="http://purl.org/dc/dcmitype/StillImage"/>
    <dc:date>2025-07-13T20:53:04.763357</dc:date>
    <dc:format>image/svg+xml</dc:format>
    <dc:creator>
     <cc:Agent>
      <dc:title>Matplotlib v3.9.2, https://matplotlib.org/</dc:title>
     </cc:Agent>
    </dc:creator>
   </cc:Work>
  </rdf:RDF>
 </metadata>
 <defs>
  <style type="text/css">*{stroke-linejoin: round; stroke-linecap: butt}</style>
 </defs>
 <g id="figure_1">
  <g id="patch_1">
   <path d="M 0 799.479989 
L 1563.380102 799.479989 
L 1563.380102 0 
L 0 0 
z
" style="fill: #ffffff"/>
  </g>
  <g id="axes_1">
   <g id="line2d_1">
    <path d="M 79.761018 54.070447 
L 1550.321296 54.070447 
" clip-path="url(#p3addca51a1)" style="fill: none; stroke: #000000; stroke-width: 2; stroke-linecap: square"/>
   </g>
   <g id="line2d_2">
    <path d="M 79.761018 112.658506 
L 1550.321296 112.658506 
" clip-path="url(#p3addca51a1)" style="fill: none; stroke: #000000; stroke-width: 2; stroke-linecap: square"/>
   </g>
   <g id="line2d_3">
    <path d="M 79.761018 171.246565 
L 1550.321296 171.246565 
" clip-path="url(#p3addca51a1)" style="fill: none; stroke: #000000; stroke-width: 2; stroke-linecap: square"/>
   </g>
   <g id="line2d_4">
    <path d="M 79.761018 229.834624 
L 1550.321296 229.834624 
" clip-path="url(#p3addca51a1)" style="fill: none; stroke: #000000; stroke-width: 2; stroke-linecap: square"/>
   </g>
   <g id="line2d_5">
    <path d="M 79.761018 288.422683 
L 1550.321296 288.422683 
" clip-path="url(#p3addca51a1)" style="fill: none; stroke: #000000; stroke-width: 2; stroke-linecap: square"/>
   </g>
   <g id="line2d_6">
    <path d="M 91.47863 352.869548 
L 97.337436 341.151936 
" clip-path="url(#p3addca51a1)" style="fill: none; stroke: #778899; stroke-width: 1.5; stroke-linecap: square"/>
   </g>
   <g id="line2d_7">
    <path d="M 79.761018 345.10663 
L 1550.321296 345.10663 
" clip-path="url(#p3addca51a1)" style="fill: none; stroke: #778899; stroke-width: 2; stroke-linecap: square"/>
   </g>
   <g id="line2d_8">
    <path d="M 79.761018 348.914854 
L 1550.321296 348.914854 
" clip-path="url(#p3addca51a1)" style="fill: none; stroke: #778899; stroke-width: 2; stroke-linecap: square"/>
   </g>
   <g id="line2d_9">
    <path d="M 1550.321296 54.070447 
L 1550.321296 347.010742 
" clip-path="url(#p3addca51a1)" style="fill: none; stroke: #000000; stroke-width: 1.5; stroke-linecap: square"/>
   </g>
   <g id="line2d_10">
    <path d="M 79.761018 464.186859 
L 1550.321296 464.186859 
" clip-path="url(#p3addca51a1)" style="fill: none; stroke: #000000; stroke-width: 2; stroke-linecap: square"/>
   </g>
   <g id="line2d_11">
    <path d="M 79.761018 522.774918 
L 1550.321296 522.774918 
" clip-path="url(#p3addca51a1)" style="fill: none; stroke: #000000; stroke-width: 2; stroke-linecap: square"/>
   </g>
   <g id="line2d_12">
    <path d="M 79.761018 581.362977 
L 1550.321296 581.362977 
" clip-path="url(#p3addca51a1)" style="fill: none; stroke: #000000; stroke-width: 2; stroke-linecap: square"/>
   </g>
   <g id="line2d_13">
    <path d="M 79.761018 639.951036 
L 1550.321296 639.951036 
" clip-path="url(#p3addca51a1)" style="fill: none; stroke: #000000; stroke-width: 2; stroke-linecap: square"/>
   </g>
   <g id="line2d_14">
    <path d="M 79.761018 698.539095 
L 1550.321296 698.539095 
" clip-path="url(#p3addca51a1)" style="fill: none; stroke: #000000; stroke-width: 2; stroke-linecap: square"/>
   </g>
   <g id="line2d_15">
    <path d="M 91.47863 762.98596 
L 97.337436 751.268348 
" clip-path="url(#p3addca51a1)" style="fill: none; stroke: #778899; stroke-width: 1.5; stroke-linecap: square"/>
   </g>
   <g id="line2d_16">
    <path d="M 79.761018 755.223042 
L 1550.321296 755.223042 
" clip-path="url(#p3addca51a1)" style="fill: none; stroke: #778899; stroke-width: 2; stroke-linecap: square"/>
   </g>
   <g id="line2d_17">
    <path d="M 79.761018 759.031266 
L 1550.321296 759.031266 
" clip-path="url(#p3addca51a1)" style="fill: none; stroke: #778899; stroke-width: 2; stroke-linecap: square"/>
   </g>
   <g id="line2d_18">
    <path d="M 79.175137 464.186859 
L 79.175137 757.127154 
" clip-path="url(#p3addca51a1)" style="fill: none; stroke: #000000; stroke-width: 1.5; stroke-linecap: square"/>
   </g>
   <g id="patch_2">
    <path d="M 73.902212 24.776418 
L -1390.79926 24.776418 
L -1390.79926 434.89283 
L 73.902212 434.89283 
z
" clip-path="url(#p3addca51a1)" style="fill: #ffffff; stroke: #ffffff; stroke-width: 1.5; stroke-linejoin: miter"/>
   </g>
   <g id="patch_3">
    <path d="M 73.902212 434.89283 
L -1390.79926 434.89283 
L -1390.79926 1255.125655 
L 73.902212 1255.125655 
z
" clip-path="url(#p3addca51a1)" style="fill: #ffffff; stroke: #ffffff; stroke-width: 1.5; stroke-linejoin: miter"/>
   </g>
   <g id="line2d_19">
    <path d="M 169.986629 171.246565 
L 169.986629 112.658506 
" clip-path="url(#p3addca51a1)" style="fill: none; stroke: #002d9c; stroke-width: 2; stroke-linecap: square"/>
   </g>
   <g id="line2d_20">
    <path d="M 228.574688 229.834624 
L 228.574688 171.246565 
" clip-path="url(#p3addca51a1)" style="fill: none; stroke: #002d9c; stroke-width: 2; stroke-linecap: square"/>
   </g>
   <g id="line2d_21">
    <path d="M 287.162747 288.422683 
L 287.162747 229.834624 
" clip-path="url(#p3addca51a1)" style="fill: none; stroke: #002d9c; stroke-width: 2; stroke-linecap: square"/>
   </g>
   <g id="line2d_22">
    <path d="M 462.926923 171.246565 
L 462.926923 112.658506 
" clip-path="url(#p3addca51a1)" style="fill: none; stroke: #002d9c; stroke-width: 2; stroke-linecap: square"/>
   </g>
   <g id="line2d_23">
    <path d="M 521.514982 229.834624 
L 521.514982 171.246565 
" clip-path="url(#p3addca51a1)" style="fill: none; stroke: #002d9c; stroke-width: 2; stroke-linecap: square"/>
   </g>
   <g id="line2d_24">
    <path d="M 580.103041 288.422683 
L 580.103041 229.834624 
" clip-path="url(#p3addca51a1)" style="fill: none; stroke: #002d9c; stroke-width: 2; stroke-linecap: square"/>
   </g>
   <g id="line2d_25">
    <path d="M 1400.335866 288.422683 
L 1400.335866 229.834624 
" clip-path="url(#p3addca51a1)" style="fill: none; stroke: #002d9c; stroke-width: 2; stroke-linecap: square"/>
   </g>
   <g id="line2d_26">
    <path d="M 1458.923925 229.834624 
L 1458.923925 171.246565 
" clip-path="url(#p3addca51a1)" style="fill: none; stroke: #002d9c; stroke-width: 2; stroke-linecap: square"/>
   </g>
   <g id="line2d_27">
    <path d="M 1517.511983 171.246565 
L 1517.511983 112.658506 
" clip-path="url(#p3addca51a1)" style="fill: none; stroke: #002d9c; stroke-width: 2; stroke-linecap: square"/>
   </g>
   <g id="line2d_28">
    <path d="M 228.574688 698.539095 
L 228.574688 639.951036 
" clip-path="url(#p3addca51a1)" style="fill: none; stroke: #002d9c; stroke-width: 2; stroke-linecap: square"/>
   </g>
   <g id="line2d_29">
    <path d="M 287.162747 639.951036 
L 287.162747 581.362977 
" clip-path="url(#p3addca51a1)" style="fill: none; stroke: #002d9c; stroke-width: 2; stroke-linecap: square"/>
   </g>
   <g id="line2d_30">
    <path d="M 345.750805 581.362977 
L 345.750805 522.774918 
" clip-path="url(#p3addca51a1)" style="fill: none; stroke: #002d9c; stroke-width: 2; stroke-linecap: square"/>
   </g>
   <g id="patch_4">
    <path d="M 334.326134 83.364477 
L 357.175477 83.364477 
L 357.175477 24.776418 
L 334.326134 24.776418 
z
" clip-path="url(#p3addca51a1)" style="fill: #a8a8a8; opacity: 0.6"/>
   </g>
   <g id="patch_5">
    <path d="M 334.326134 141.952535 
L 357.175477 141.952535 
L 357.175477 83.364477 
L 334.326134 83.364477 
z
" clip-path="url(#p3addca51a1)" style="fill: #a8a8a8; opacity: 0.6"/>
   </g>
   <g id="patch_6">
    <path d="M 334.326134 200.540594 
L 357.175477 200.540594 
L 357.175477 141.952535 
L 334.326134 141.952535 
z
" clip-path="url(#p3addca51a1)" style="fill: #a8a8a8; opacity: 0.6"/>
   </g>
   <g id="patch_7">
    <path d="M 334.326134 259.128653 
L 357.175477 259.128653 
L 357.175477 200.540594 
L 334.326134 200.540594 
z
" clip-path="url(#p3addca51a1)" style="fill: #a8a8a8; opacity: 0.6"/>
   </g>
   <g id="patch_8">
    <path d="M 334.326134 317.716712 
L 357.175477 317.716712 
L 357.175477 259.128653 
L 334.326134 259.128653 
z
" clip-path="url(#p3addca51a1)" style="fill: #a8a8a8; opacity: 0.6"/>
   </g>
   <g id="patch_9">
    <path d="M 627.266428 83.364477 
L 650.115771 83.364477 
L 650.115771 24.776418 
L 627.266428 24.776418 
z
" clip-path="url(#p3addca51a1)" style="fill: #a8a8a8; opacity: 0.6"/>
   </g>
   <g id="patch_10">
    <path d="M 627.266428 141.952535 
L 650.115771 141.952535 
L 650.115771 83.364477 
L 627.266428 83.364477 
z
" clip-path="url(#p3addca51a1)" style="fill: #a8a8a8; opacity: 0.6"/>
   </g>
   <g id="patch_11">
    <path d="M 627.266428 200.540594 
L 650.115771 200.540594 
L 650.115771 141.952535 
L 627.266428 141.952535 
z
" clip-path="url(#p3addca51a1)" style="fill: #a8a8a8; opacity: 0.6"/>
   </g>
   <g id="patch_12">
    <path d="M 627.266428 259.128653 
L 650.115771 259.128653 
L 650.115771 200.540594 
L 627.266428 200.540594 
z
" clip-path="url(#p3addca51a1)" style="fill: #a8a8a8; opacity: 0.6"/>
   </g>
   <g id="patch_13">
    <path d="M 627.266428 317.716712 
L 650.115771 317.716712 
L 650.115771 259.128653 
L 627.266428 259.128653 
z
" clip-path="url(#p3addca51a1)" style="fill: #a8a8a8; opacity: 0.6"/>
   </g>
   <g id="patch_14">
    <path d="M 1330.323135 83.364477 
L 1353.172478 83.364477 
L 1353.172478 24.776418 
L 1330.323135 24.776418 
z
" clip-path="url(#p3addca51a1)" style="fill: #a8a8a8; opacity: 0.6"/>
   </g>
   <g id="patch_15">
    <path d="M 1330.323135 141.952535 
L 1353.172478 141.952535 
L 1353.172478 83.364477 
L 1330.323135 83.364477 
z
" clip-path="url(#p3addca51a1)" style="fill: #a8a8a8; opacity: 0.6"/>
   </g>
   <g id="patch_16">
    <path d="M 1330.323135 200.540594 
L 1353.172478 200.540594 
L 1353.172478 141.952535 
L 1330.323135 141.952535 
z
" clip-path="url(#p3addca51a1)" style="fill: #a8a8a8; opacity: 0.6"/>
   </g>
   <g id="patch_17">
    <path d="M 1330.323135 259.128653 
L 1353.172478 259.128653 
L 1353.172478 200.540594 
L 1330.323135 200.540594 
z
" clip-path="url(#p3addca51a1)" style="fill: #a8a8a8; opacity: 0.6"/>
   </g>
   <g id="patch_18">
    <path d="M 1330.323135 317.716712 
L 1353.172478 317.716712 
L 1353.172478 259.128653 
L 1330.323135 259.128653 
z
" clip-path="url(#p3addca51a1)" style="fill: #a8a8a8; opacity: 0.6"/>
   </g>
   <g id="patch_19">
    <path d="M 158.561957 493.480889 
L 181.4113 493.480889 
L 181.4113 434.89283 
L 158.561957 434.89283 
z
" clip-path="url(#p3addca51a1)" style="fill: #a8a8a8; opacity: 0.6"/>
   </g>
   <g id="patch_20">
    <path d="M 158.561957 552.068948 
L 181.4113 552.068948 
L 181.4113 493.480889 
L 158.561957 493.480889 
z
" clip-path="url(#p3addca51a1)" style="fill: #a8a8a8; opacity: 0.6"/>
   </g>
   <g id="patch_21">
    <path d="M 158.561957 610.657007 
L 181.4113 610.657007 
L 181.4113 552.068948 
L 158.561957 552.068948 
z
" clip-path="url(#p3addca51a1)" style="fill: #a8a8a8; opacity: 0.6"/>
   </g>
   <g id="patch_22">
    <path d="M 158.561957 669.245066 
L 181.4113 669.245066 
L 181.4113 610.657007 
L 158.561957 610.657007 
z
" clip-path="url(#p3addca51a1)" style="fill: #a8a8a8; opacity: 0.6"/>
   </g>
   <g id="patch_23">
    <path d="M 158.561957 727.833124 
L 181.4113 727.833124 
L 181.4113 669.245066 
L 158.561957 669.245066 
z
" clip-path="url(#p3addca51a1)" style="fill: #a8a8a8; opacity: 0.6"/>
   </g>
   <g id="patch_24">
    <path d="M 92.357451 73.111566 
L 130.439689 73.111566 
L 130.439689 35.029328 
L 92.357451 35.029328 
z
" clip-path="url(#p3addca51a1)" style="fill: #fa4d56; stroke: #fa4d56; stroke-width: 1.5; stroke-linejoin: miter"/>
   </g>
   <g id="patch_25">
    <path d="M 92.357451 131.699625 
L 130.439689 131.699625 
L 130.439689 93.617387 
L 92.357451 93.617387 
z
" clip-path="url(#p3addca51a1)" style="fill: #9f1853; stroke: #9f1853; stroke-width: 1.5; stroke-linejoin: miter"/>
   </g>
   <g id="patch_26">
    <path d="M 92.357451 190.287684 
L 130.439689 190.287684 
L 130.439689 152.205446 
L 92.357451 152.205446 
z
" clip-path="url(#p3addca51a1)" style="fill: #9f1853; stroke: #9f1853; stroke-width: 1.5; stroke-linejoin: miter"/>
   </g>
   <g id="patch_27">
    <path d="M 92.357451 248.875743 
L 130.439689 248.875743 
L 130.439689 210.793505 
L 92.357451 210.793505 
z
" clip-path="url(#p3addca51a1)" style="fill: #9f1853; stroke: #9f1853; stroke-width: 1.5; stroke-linejoin: miter"/>
   </g>
   <g id="patch_28">
    <path d="M 92.357451 307.463802 
L 130.439689 307.463802 
L 130.439689 269.381564 
L 92.357451 269.381564 
z
" clip-path="url(#p3addca51a1)" style="fill: #9f1853; stroke: #9f1853; stroke-width: 1.5; stroke-linejoin: miter"/>
   </g>
   <g id="patch_29">
    <path d="M 169.986629 118.370842 
C 171.501558 118.370842 172.954643 117.768954 174.02586 116.697737 
C 175.097077 115.626521 175.698964 114.173435 175.698964 112.658506 
C 175.698964 111.143577 175.097077 109.690491 174.02586 108.619275 
C 172.954643 107.548058 171.501558 106.94617 169.986629 106.94617 
C 168.4717 106.94617 167.018614 107.548058 165.947397 108.619275 
C 164.876181 109.690491 164.274293 111.143577 164.274293 112.658506 
C 164.274293 114.173435 164.876181 115.626521 165.947397 116.697737 
C 167.018614 117.768954 168.4717 118.370842 169.986629 118.370842 
z
" clip-path="url(#p3addca51a1)" style="fill: #002d9c; stroke: #002d9c; stroke-width: 1.5; stroke-linejoin: miter"/>
   </g>
   <g id="patch_30">
    <path d="M 169.986629 184.575348 
C 173.521463 184.575348 176.911996 183.170944 179.411502 180.671438 
C 181.911007 178.171932 183.315412 174.7814 183.315412 171.246565 
C 183.315412 167.71173 181.911007 164.321197 179.411502 161.821692 
C 176.911996 159.322186 173.521463 157.917782 169.986629 157.917782 
C 166.451794 157.917782 163.061261 159.322186 160.561756 161.821692 
C 158.06225 164.321197 156.657845 167.71173 156.657845 171.246565 
C 156.657845 174.7814 158.06225 178.171932 160.561756 180.671438 
C 163.061261 183.170944 166.451794 184.575348 169.986629 184.575348 
z
" clip-path="url(#p3addca51a1)" style="fill: #002d9c; stroke: #002d9c; stroke-width: 2; stroke-linejoin: miter"/>
   </g>
   <g id="patch_31">
    <path d="M 228.574688 176.958901 
C 230.089617 176.958901 231.542702 176.357013 232.613919 175.285796 
C 233.685136 174.21458 234.287023 172.761494 234.287023 171.246565 
C 234.287023 169.731636 233.685136 168.27855 232.613919 167.207334 
C 231.542702 166.136117 230.089617 165.534229 228.574688 165.534229 
C 227.059758 165.534229 225.606673 166.136117 224.535456 167.207334 
C 223.46424 168.27855 222.862352 169.731636 222.862352 171.246565 
C 222.862352 172.761494 223.46424 174.21458 224.535456 175.285796 
C 225.606673 176.357013 227.059758 176.958901 228.574688 176.958901 
z
" clip-path="url(#p3addca51a1)" style="fill: #002d9c; stroke: #002d9c; stroke-width: 1.5; stroke-linejoin: miter"/>
   </g>
   <g id="patch_32">
    <path d="M 228.574688 243.163407 
C 232.109522 243.163407 235.500055 241.759003 237.999561 239.259497 
C 240.499066 236.759991 241.903471 233.369459 241.903471 229.834624 
C 241.903471 226.299789 240.499066 222.909256 237.999561 220.409751 
C 235.500055 217.910245 232.109522 216.50584 228.574688 216.50584 
C 225.039853 216.50584 221.64932 217.910245 219.149814 220.409751 
C 216.650309 222.909256 215.245904 226.299789 215.245904 229.834624 
C 215.245904 233.369459 216.650309 236.759991 219.149814 239.259497 
C 221.64932 241.759003 225.039853 243.163407 228.574688 243.163407 
z
" clip-path="url(#p3addca51a1)" style="fill: #002d9c; stroke: #002d9c; stroke-width: 2; stroke-linejoin: miter"/>
   </g>
   <g id="patch_33">
    <path d="M 287.162747 235.54696 
C 288.677676 235.54696 290.130761 234.945072 291.201978 233.873855 
C 292.273195 232.802638 292.875082 231.349553 292.875082 229.834624 
C 292.875082 228.319695 292.273195 226.866609 291.201978 225.795392 
C 290.130761 224.724176 288.677676 224.122288 287.162747 224.122288 
C 285.647817 224.122288 284.194732 224.724176 283.123515 225.795392 
C 282.052299 226.866609 281.450411 228.319695 281.450411 229.834624 
C 281.450411 231.349553 282.052299 232.802638 283.123515 233.873855 
C 284.194732 234.945072 285.647817 235.54696 287.162747 235.54696 
z
" clip-path="url(#p3addca51a1)" style="fill: #002d9c; stroke: #002d9c; stroke-width: 1.5; stroke-linejoin: miter"/>
   </g>
   <g id="patch_34">
    <path d="M 287.162747 301.751466 
C 290.697581 301.751466 294.088114 300.347061 296.58762 297.847556 
C 299.087125 295.34805 300.49153 291.957517 300.49153 288.422683 
C 300.49153 284.887848 299.087125 281.497315 296.58762 278.99781 
C 294.088114 276.498304 290.697581 275.093899 287.162747 275.093899 
C 283.627912 275.093899 280.237379 276.498304 277.737873 278.99781 
C 275.238368 281.497315 273.833963 284.887848 273.833963 288.422683 
C 273.833963 291.957517 275.238368 295.34805 277.737873 297.847556 
C 280.237379 300.347061 283.627912 301.751466 287.162747 301.751466 
z
" clip-path="url(#p3addca51a1)" style="fill: #002d9c; stroke: #002d9c; stroke-width: 2; stroke-linejoin: miter"/>
   </g>
   <g id="patch_35">
    <path d="M 385.297745 131.699625 
L 423.379983 131.699625 
L 423.379983 93.617387 
L 385.297745 93.617387 
z
" clip-path="url(#p3addca51a1)" style="fill: #9f1853; stroke: #9f1853; stroke-width: 1.5; stroke-linejoin: miter"/>
   </g>
   <g id="patch_36">
    <path d="M 385.297745 190.287684 
L 423.379983 190.287684 
L 423.379983 152.205446 
L 385.297745 152.205446 
z
" clip-path="url(#p3addca51a1)" style="fill: #9f1853; stroke: #9f1853; stroke-width: 1.5; stroke-linejoin: miter"/>
   </g>
   <g id="patch_37">
    <path d="M 385.297745 248.875743 
L 423.379983 248.875743 
L 423.379983 210.793505 
L 385.297745 210.793505 
z
" clip-path="url(#p3addca51a1)" style="fill: #9f1853; stroke: #9f1853; stroke-width: 1.5; stroke-linejoin: miter"/>
   </g>
   <g id="patch_38">
    <path d="M 385.297745 307.463802 
L 423.379983 307.463802 
L 423.379983 269.381564 
L 385.297745 269.381564 
z
" clip-path="url(#p3addca51a1)" style="fill: #9f1853; stroke: #9f1853; stroke-width: 1.5; stroke-linejoin: miter"/>
   </g>
   <g id="patch_39">
    <path d="M 462.926923 118.370842 
C 464.441852 118.370842 465.894938 117.768954 466.966155 116.697737 
C 468.037371 115.626521 468.639259 114.173435 468.639259 112.658506 
C 468.639259 111.143577 468.037371 109.690491 466.966155 108.619275 
C 465.894938 107.548058 464.441852 106.94617 462.926923 106.94617 
C 461.411994 106.94617 459.958909 107.548058 458.887692 108.619275 
C 457.816475 109.690491 457.214587 111.143577 457.214587 112.658506 
C 457.214587 114.173435 457.816475 115.626521 458.887692 116.697737 
C 459.958909 117.768954 461.411994 118.370842 462.926923 118.370842 
z
" clip-path="url(#p3addca51a1)" style="fill: #002d9c; stroke: #002d9c; stroke-width: 1.5; stroke-linejoin: miter"/>
   </g>
   <g id="patch_40">
    <path d="M 462.926923 184.575348 
C 466.461758 184.575348 469.852291 183.170944 472.351796 180.671438 
C 474.851302 178.171932 476.255707 174.7814 476.255707 171.246565 
C 476.255707 167.71173 474.851302 164.321197 472.351796 161.821692 
C 469.852291 159.322186 466.461758 157.917782 462.926923 157.917782 
C 459.392089 157.917782 456.001556 159.322186 453.50205 161.821692 
C 451.002545 164.321197 449.59814 167.71173 449.59814 171.246565 
C 449.59814 174.7814 451.002545 178.171932 453.50205 180.671438 
C 456.001556 183.170944 459.392089 184.575348 462.926923 184.575348 
z
" clip-path="url(#p3addca51a1)" style="fill: #002d9c; stroke: #002d9c; stroke-width: 2; stroke-linejoin: miter"/>
   </g>
   <g id="patch_41">
    <path d="M 521.514982 176.958901 
C 523.029911 176.958901 524.482997 176.357013 525.554213 175.285796 
C 526.62543 174.21458 527.227318 172.761494 527.227318 171.246565 
C 527.227318 169.731636 526.62543 168.27855 525.554213 167.207334 
C 524.482997 166.136117 523.029911 165.534229 521.514982 165.534229 
C 520.000053 165.534229 518.546967 166.136117 517.475751 167.207334 
C 516.404534 168.27855 515.802646 169.731636 515.802646 171.246565 
C 515.802646 172.761494 516.404534 174.21458 517.475751 175.285796 
C 518.546967 176.357013 520.000053 176.958901 521.514982 176.958901 
z
" clip-path="url(#p3addca51a1)" style="fill: #002d9c; stroke: #002d9c; stroke-width: 1.5; stroke-linejoin: miter"/>
   </g>
   <g id="patch_42">
    <path d="M 521.514982 243.163407 
C 525.049817 243.163407 528.44035 241.759003 530.939855 239.259497 
C 533.439361 236.759991 534.843766 233.369459 534.843766 229.834624 
C 534.843766 226.299789 533.439361 222.909256 530.939855 220.409751 
C 528.44035 217.910245 525.049817 216.50584 521.514982 216.50584 
C 517.980147 216.50584 514.589615 217.910245 512.090109 220.409751 
C 509.590603 222.909256 508.186199 226.299789 508.186199 229.834624 
C 508.186199 233.369459 509.590603 236.759991 512.090109 239.259497 
C 514.589615 241.759003 517.980147 243.163407 521.514982 243.163407 
z
" clip-path="url(#p3addca51a1)" style="fill: #002d9c; stroke: #002d9c; stroke-width: 2; stroke-linejoin: miter"/>
   </g>
   <g id="patch_43">
    <path d="M 580.103041 235.54696 
C 581.61797 235.54696 583.071056 234.945072 584.142272 233.873855 
C 585.213489 232.802638 585.815377 231.349553 585.815377 229.834624 
C 585.815377 228.319695 585.213489 226.866609 584.142272 225.795392 
C 583.071056 224.724176 581.61797 224.122288 580.103041 224.122288 
C 578.588112 224.122288 577.135026 224.724176 576.06381 225.795392 
C 574.992593 226.866609 574.390705 228.319695 574.390705 229.834624 
C 574.390705 231.349553 574.992593 232.802638 576.06381 233.873855 
C 577.135026 234.945072 578.588112 235.54696 580.103041 235.54696 
z
" clip-path="url(#p3addca51a1)" style="fill: #002d9c; stroke: #002d9c; stroke-width: 1.5; stroke-linejoin: miter"/>
   </g>
   <g id="patch_44">
    <path d="M 580.103041 301.751466 
C 583.637876 301.751466 587.028409 300.347061 589.527914 297.847556 
C 592.02742 295.34805 593.431824 291.957517 593.431824 288.422683 
C 593.431824 284.887848 592.02742 281.497315 589.527914 278.99781 
C 587.028409 276.498304 583.637876 275.093899 580.103041 275.093899 
C 576.568206 275.093899 573.177673 276.498304 570.678168 278.99781 
C 568.178662 281.497315 566.774258 284.887848 566.774258 288.422683 
C 566.774258 291.957517 568.178662 295.34805 570.678168 297.847556 
C 573.177673 300.347061 576.568206 301.751466 580.103041 301.751466 
z
" clip-path="url(#p3addca51a1)" style="fill: #002d9c; stroke: #002d9c; stroke-width: 2; stroke-linejoin: miter"/>
   </g>
   <g id="patch_45">
    <path d="M 666.819227 307.463802 
L 962.091326 307.463802 
L 962.091326 35.029328 
L 666.819227 35.029328 
z
" clip-path="url(#p3addca51a1)" style="fill: #9f1853; stroke: #9f1853; stroke-width: 1.5; stroke-linejoin: miter"/>
   </g>
   <g id="patch_46">
    <path d="M 968.480354 307.463802 
L 1304.898847 307.463802 
L 1304.898847 35.029328 
L 968.480354 35.029328 
z
" clip-path="url(#p3addca51a1)" style="fill: #9f1853; stroke: #9f1853; stroke-width: 1.5; stroke-linejoin: miter"/>
   </g>
   <g id="patch_47">
    <path d="M 1400.335866 235.54696 
C 1401.850795 235.54696 1403.30388 234.945072 1404.375097 233.873855 
C 1405.446314 232.802638 1406.048201 231.349553 1406.048201 229.834624 
C 1406.048201 228.319695 1405.446314 226.866609 1404.375097 225.795392 
C 1403.30388 224.724176 1401.850795 224.122288 1400.335866 224.122288 
C 1398.820937 224.122288 1397.367851 224.724176 1396.296634 225.795392 
C 1395.225418 226.866609 1394.62353 228.319695 1394.62353 229.834624 
C 1394.62353 231.349553 1395.225418 232.802638 1396.296634 233.873855 
C 1397.367851 234.945072 1398.820937 235.54696 1400.335866 235.54696 
z
" clip-path="url(#p3addca51a1)" style="fill: #002d9c; stroke: #002d9c; stroke-width: 1.5; stroke-linejoin: miter"/>
   </g>
   <g id="patch_48">
    <path d="M 1400.335866 301.751466 
C 1403.8707 301.751466 1407.261233 300.347061 1409.760739 297.847556 
C 1412.260244 295.34805 1413.664649 291.957517 1413.664649 288.422683 
C 1413.664649 284.887848 1412.260244 281.497315 1409.760739 278.99781 
C 1407.261233 276.498304 1403.8707 275.093899 1400.335866 275.093899 
C 1396.801031 275.093899 1393.410498 276.498304 1390.910993 278.99781 
C 1388.411487 281.497315 1387.007082 284.887848 1387.007082 288.422683 
C 1387.007082 291.957517 1388.411487 295.34805 1390.910993 297.847556 
C 1393.410498 300.347061 1396.801031 301.751466 1400.335866 301.751466 
z
" clip-path="url(#p3addca51a1)" style="fill: #002d9c; stroke: #002d9c; stroke-width: 2; stroke-linejoin: miter"/>
   </g>
   <g id="patch_49">
    <path d="M 1458.923925 176.958901 
C 1460.438854 176.958901 1461.891939 176.357013 1462.963156 175.285796 
C 1464.034373 174.21458 1464.63626 172.761494 1464.63626 171.246565 
C 1464.63626 169.731636 1464.034373 168.27855 1462.963156 167.207334 
C 1461.891939 166.136117 1460.438854 165.534229 1458.923925 165.534229 
C 1457.408995 165.534229 1455.95591 166.136117 1454.884693 167.207334 
C 1453.813477 168.27855 1453.211589 169.731636 1453.211589 171.246565 
C 1453.211589 172.761494 1453.813477 174.21458 1454.884693 175.285796 
C 1455.95591 176.357013 1457.408995 176.958901 1458.923925 176.958901 
z
" clip-path="url(#p3addca51a1)" style="fill: #002d9c; stroke: #002d9c; stroke-width: 1.5; stroke-linejoin: miter"/>
   </g>
   <g id="patch_50">
    <path d="M 1458.923925 243.163407 
C 1462.458759 243.163407 1465.849292 241.759003 1468.348798 239.259497 
C 1470.848303 236.759991 1472.252708 233.369459 1472.252708 229.834624 
C 1472.252708 226.299789 1470.848303 222.909256 1468.348798 220.409751 
C 1465.849292 217.910245 1462.458759 216.50584 1458.923925 216.50584 
C 1455.38909 216.50584 1451.998557 217.910245 1449.499051 220.409751 
C 1446.999546 222.909256 1445.595141 226.299789 1445.595141 229.834624 
C 1445.595141 233.369459 1446.999546 236.759991 1449.499051 239.259497 
C 1451.998557 241.759003 1455.38909 243.163407 1458.923925 243.163407 
z
" clip-path="url(#p3addca51a1)" style="fill: #002d9c; stroke: #002d9c; stroke-width: 2; stroke-linejoin: miter"/>
   </g>
   <g id="patch_51">
    <path d="M 1439.882805 307.463802 
L 1477.965044 307.463802 
L 1477.965044 269.381564 
L 1439.882805 269.381564 
z
" clip-path="url(#p3addca51a1)" style="fill: #9f1853; stroke: #9f1853; stroke-width: 1.5; stroke-linejoin: miter"/>
   </g>
   <g id="patch_52">
    <path d="M 1517.511983 118.370842 
C 1519.026913 118.370842 1520.479998 117.768954 1521.551215 116.697737 
C 1522.622431 115.626521 1523.224319 114.173435 1523.224319 112.658506 
C 1523.224319 111.143577 1522.622431 109.690491 1521.551215 108.619275 
C 1520.479998 107.548058 1519.026913 106.94617 1517.511983 106.94617 
C 1515.997054 106.94617 1514.543969 107.548058 1513.472752 108.619275 
C 1512.401535 109.690491 1511.799648 111.143577 1511.799648 112.658506 
C 1511.799648 114.173435 1512.401535 115.626521 1513.472752 116.697737 
C 1514.543969 117.768954 1515.997054 118.370842 1517.511983 118.370842 
z
" clip-path="url(#p3addca51a1)" style="fill: #002d9c; stroke: #002d9c; stroke-width: 1.5; stroke-linejoin: miter"/>
   </g>
   <g id="patch_53">
    <path d="M 1517.511983 184.575348 
C 1521.046818 184.575348 1524.437351 183.170944 1526.936857 180.671438 
C 1529.436362 178.171932 1530.840767 174.7814 1530.840767 171.246565 
C 1530.840767 167.71173 1529.436362 164.321197 1526.936857 161.821692 
C 1524.437351 159.322186 1521.046818 157.917782 1517.511983 157.917782 
C 1513.977149 157.917782 1510.586616 159.322186 1508.08711 161.821692 
C 1505.587605 164.321197 1504.1832 167.71173 1504.1832 171.246565 
C 1504.1832 174.7814 1505.587605 178.171932 1508.08711 180.671438 
C 1510.586616 183.170944 1513.977149 184.575348 1517.511983 184.575348 
z
" clip-path="url(#p3addca51a1)" style="fill: #002d9c; stroke: #002d9c; stroke-width: 2; stroke-linejoin: miter"/>
   </g>
   <g id="patch_54">
    <path d="M 1495.169427 248.875743 
L 1539.85454 248.875743 
L 1539.85454 210.793505 
L 1495.169427 210.793505 
z
" clip-path="url(#p3addca51a1)" style="fill: #9f1853; stroke: #9f1853; stroke-width: 1.5; stroke-linejoin: miter"/>
   </g>
   <g id="patch_55">
    <path d="M 92.357451 600.404096 
L 130.439689 600.404096 
L 130.439689 562.321858 
L 92.357451 562.321858 
z
" clip-path="url(#p3addca51a1)" style="fill: #9f1853; stroke: #9f1853; stroke-width: 1.5; stroke-linejoin: miter"/>
   </g>
   <g id="patch_56">
    <path d="M 92.357451 541.816037 
L 130.439689 541.816037 
L 130.439689 503.733799 
L 92.357451 503.733799 
z
" clip-path="url(#p3addca51a1)" style="fill: #9f1853; stroke: #9f1853; stroke-width: 1.5; stroke-linejoin: miter"/>
   </g>
   <g id="patch_57">
    <path d="M 228.574688 645.663372 
C 230.089617 645.663372 231.542702 645.061484 232.613919 643.990267 
C 233.685136 642.919051 234.287023 641.465965 234.287023 639.951036 
C 234.287023 638.436107 233.685136 636.983021 232.613919 635.911805 
C 231.542702 634.840588 230.089617 634.2387 228.574688 634.2387 
C 227.059758 634.2387 225.606673 634.840588 224.535456 635.911805 
C 223.46424 636.983021 222.862352 638.436107 222.862352 639.951036 
C 222.862352 641.465965 223.46424 642.919051 224.535456 643.990267 
C 225.606673 645.061484 227.059758 645.663372 228.574688 645.663372 
z
" clip-path="url(#p3addca51a1)" style="fill: #002d9c; stroke: #002d9c; stroke-width: 1.5; stroke-linejoin: miter"/>
   </g>
   <g id="patch_58">
    <path d="M 228.574688 711.867878 
C 232.109522 711.867878 235.500055 710.463474 237.999561 707.963968 
C 240.499066 705.464463 241.903471 702.07393 241.903471 698.539095 
C 241.903471 695.00426 240.499066 691.613727 237.999561 689.114222 
C 235.500055 686.614716 232.109522 685.210312 228.574688 685.210312 
C 225.039853 685.210312 221.64932 686.614716 219.149814 689.114222 
C 216.650309 691.613727 215.245904 695.00426 215.245904 698.539095 
C 215.245904 702.07393 216.650309 705.464463 219.149814 707.963968 
C 221.64932 710.463474 225.039853 711.867878 228.574688 711.867878 
z
" clip-path="url(#p3addca51a1)" style="fill: #002d9c; stroke: #002d9c; stroke-width: 2; stroke-linejoin: miter"/>
   </g>
   <g id="patch_59">
    <path d="M 209.533568 483.227979 
L 247.615807 483.227979 
L 247.615807 445.14574 
L 209.533568 445.14574 
z
" clip-path="url(#p3addca51a1)" style="fill: #fa4d56; stroke: #fa4d56; stroke-width: 1.5; stroke-linejoin: miter"/>
   </g>
   <g id="patch_60">
    <path d="M 287.162747 587.075313 
C 288.677676 587.075313 290.130761 586.473425 291.201978 585.402209 
C 292.273195 584.330992 292.875082 582.877906 292.875082 581.362977 
C 292.875082 579.848048 292.273195 578.394963 291.201978 577.323746 
C 290.130761 576.252529 288.677676 575.650641 287.162747 575.650641 
C 285.647817 575.650641 284.194732 576.252529 283.123515 577.323746 
C 282.052299 578.394963 281.450411 579.848048 281.450411 581.362977 
C 281.450411 582.877906 282.052299 584.330992 283.123515 585.402209 
C 284.194732 586.473425 285.647817 587.075313 287.162747 587.075313 
z
" clip-path="url(#p3addca51a1)" style="fill: #002d9c; stroke: #002d9c; stroke-width: 1.5; stroke-linejoin: miter"/>
   </g>
   <g id="patch_61">
    <path d="M 287.162747 653.27982 
C 290.697581 653.27982 294.088114 651.875415 296.58762 649.375909 
C 299.087125 646.876404 300.49153 643.485871 300.49153 639.951036 
C 300.49153 636.416201 299.087125 633.025669 296.58762 630.526163 
C 294.088114 628.026657 290.697581 626.622253 287.162747 626.622253 
C 283.627912 626.622253 280.237379 628.026657 277.737873 630.526163 
C 275.238368 633.025669 273.833963 636.416201 273.833963 639.951036 
C 273.833963 643.485871 275.238368 646.876404 277.737873 649.375909 
C 280.237379 651.875415 283.627912 653.27982 287.162747 653.27982 
z
" clip-path="url(#p3addca51a1)" style="fill: #002d9c; stroke: #002d9c; stroke-width: 2; stroke-linejoin: miter"/>
   </g>
   <g id="patch_62">
    <path d="M 268.121627 717.580214 
L 306.203866 717.580214 
L 306.203866 679.497976 
L 268.121627 679.497976 
z
" clip-path="url(#p3addca51a1)" style="fill: #9f1853; stroke: #9f1853; stroke-width: 1.5; stroke-linejoin: miter"/>
   </g>
   <g id="patch_63">
    <path d="M 345.750805 528.487254 
C 347.265735 528.487254 348.71882 527.885366 349.790037 526.81415 
C 350.861253 525.742933 351.463141 524.289847 351.463141 522.774918 
C 351.463141 521.259989 350.861253 519.806904 349.790037 518.735687 
C 348.71882 517.66447 347.265735 517.062583 345.750805 517.062583 
C 344.235876 517.062583 342.782791 517.66447 341.711574 518.735687 
C 340.640357 519.806904 340.03847 521.259989 340.03847 522.774918 
C 340.03847 524.289847 340.640357 525.742933 341.711574 526.81415 
C 342.782791 527.885366 344.235876 528.487254 345.750805 528.487254 
z
" clip-path="url(#p3addca51a1)" style="fill: #002d9c; stroke: #002d9c; stroke-width: 1.5; stroke-linejoin: miter"/>
   </g>
   <g id="patch_64">
    <path d="M 345.750805 594.691761 
C 349.28564 594.691761 352.676173 593.287356 355.175679 590.78785 
C 357.675184 588.288345 359.079589 584.897812 359.079589 581.362977 
C 359.079589 577.828143 357.675184 574.43761 355.175679 571.938104 
C 352.676173 569.438599 349.28564 568.034194 345.750805 568.034194 
C 342.215971 568.034194 338.825438 569.438599 336.325932 571.938104 
C 333.826427 574.43761 332.422022 577.828143 332.422022 581.362977 
C 332.422022 584.897812 333.826427 588.288345 336.325932 590.78785 
C 338.825438 593.287356 342.215971 594.691761 345.750805 594.691761 
z
" clip-path="url(#p3addca51a1)" style="fill: #002d9c; stroke: #002d9c; stroke-width: 2; stroke-linejoin: miter"/>
   </g>
   <g id="patch_65">
    <path d="M 323.408249 658.992155 
L 368.093362 658.992155 
L 368.093362 620.909917 
L 323.408249 620.909917 
z
" clip-path="url(#p3addca51a1)" style="fill: #9f1853; stroke: #9f1853; stroke-width: 1.5; stroke-linejoin: miter"/>
   </g>
   <g id="patch_66">
    <path d="M 385.297745 600.404096 
L 423.379983 600.404096 
L 423.379983 562.321858 
L 385.297745 562.321858 
z
" clip-path="url(#p3addca51a1)" style="fill: #9f1853; stroke: #9f1853; stroke-width: 1.5; stroke-linejoin: miter"/>
   </g>
   <g id="patch_67">
    <path d="M 385.297745 541.816037 
L 423.379983 541.816037 
L 423.379983 503.733799 
L 385.297745 503.733799 
z
" clip-path="url(#p3addca51a1)" style="fill: #9f1853; stroke: #9f1853; stroke-width: 1.5; stroke-linejoin: miter"/>
   </g>
   <g id="line2d_31">
    <path d="M 169.986629 178.863013 
L 169.986629 163.630117 
" clip-path="url(#p3addca51a1)" style="fill: none; stroke: #ffffff; stroke-width: 2; stroke-linecap: square"/>
   </g>
   <g id="line2d_32">
    <path d="M 162.370181 171.246565 
L 177.603076 171.246565 
" clip-path="url(#p3addca51a1)" style="fill: none; stroke: #ffffff; stroke-width: 2; stroke-linecap: square"/>
   </g>
   <g id="line2d_33">
    <path d="M 228.574688 237.451071 
L 228.574688 222.218176 
" clip-path="url(#p3addca51a1)" style="fill: none; stroke: #ffffff; stroke-width: 2; stroke-linecap: square"/>
   </g>
   <g id="line2d_34">
    <path d="M 220.95824 229.834624 
L 236.191135 229.834624 
" clip-path="url(#p3addca51a1)" style="fill: none; stroke: #ffffff; stroke-width: 2; stroke-linecap: square"/>
   </g>
   <g id="line2d_35">
    <path d="M 287.162747 296.03913 
L 287.162747 280.806235 
" clip-path="url(#p3addca51a1)" style="fill: none; stroke: #ffffff; stroke-width: 2; stroke-linecap: square"/>
   </g>
   <g id="line2d_36">
    <path d="M 279.546299 288.422683 
L 294.779194 288.422683 
" clip-path="url(#p3addca51a1)" style="fill: none; stroke: #ffffff; stroke-width: 2; stroke-linecap: square"/>
   </g>
   <g id="line2d_37">
    <path d="M 462.926923 178.863013 
L 462.926923 163.630117 
" clip-path="url(#p3addca51a1)" style="fill: none; stroke: #ffffff; stroke-width: 2; stroke-linecap: square"/>
   </g>
   <g id="line2d_38">
    <path d="M 455.310476 171.246565 
L 470.543371 171.246565 
" clip-path="url(#p3addca51a1)" style="fill: none; stroke: #ffffff; stroke-width: 2; stroke-linecap: square"/>
   </g>
   <g id="line2d_39">
    <path d="M 521.514982 237.451071 
L 521.514982 222.218176 
" clip-path="url(#p3addca51a1)" style="fill: none; stroke: #ffffff; stroke-width: 2; stroke-linecap: square"/>
   </g>
   <g id="line2d_40">
    <path d="M 513.898534 229.834624 
L 529.13143 229.834624 
" clip-path="url(#p3addca51a1)" style="fill: none; stroke: #ffffff; stroke-width: 2; stroke-linecap: square"/>
   </g>
   <g id="line2d_41">
    <path d="M 580.103041 296.03913 
L 580.103041 280.806235 
" clip-path="url(#p3addca51a1)" style="fill: none; stroke: #ffffff; stroke-width: 2; stroke-linecap: square"/>
   </g>
   <g id="line2d_42">
    <path d="M 572.486593 288.422683 
L 587.719489 288.422683 
" clip-path="url(#p3addca51a1)" style="fill: none; stroke: #ffffff; stroke-width: 2; stroke-linecap: square"/>
   </g>
   <g id="line2d_43">
    <path d="M 1400.335866 296.03913 
L 1400.335866 280.806235 
" clip-path="url(#p3addca51a1)" style="fill: none; stroke: #ffffff; stroke-width: 2; stroke-linecap: square"/>
   </g>
   <g id="line2d_44">
    <path d="M 1392.719418 288.422683 
L 1407.952313 288.422683 
" clip-path="url(#p3addca51a1)" style="fill: none; stroke: #ffffff; stroke-width: 2; stroke-linecap: square"/>
   </g>
   <g id="line2d_45">
    <path d="M 1458.923925 237.451071 
L 1458.923925 222.218176 
" clip-path="url(#p3addca51a1)" style="fill: none; stroke: #ffffff; stroke-width: 2; stroke-linecap: square"/>
   </g>
   <g id="line2d_46">
    <path d="M 1451.307477 229.834624 
L 1466.540372 229.834624 
" clip-path="url(#p3addca51a1)" style="fill: none; stroke: #ffffff; stroke-width: 2; stroke-linecap: square"/>
   </g>
   <g id="line2d_47">
    <path d="M 1517.511983 178.863013 
L 1517.511983 163.630117 
" clip-path="url(#p3addca51a1)" style="fill: none; stroke: #ffffff; stroke-width: 2; stroke-linecap: square"/>
   </g>
   <g id="line2d_48">
    <path d="M 1509.895536 171.246565 
L 1525.128431 171.246565 
" clip-path="url(#p3addca51a1)" style="fill: none; stroke: #ffffff; stroke-width: 2; stroke-linecap: square"/>
   </g>
   <g id="line2d_49">
    <path d="M 228.574688 706.155543 
L 228.574688 690.922647 
" clip-path="url(#p3addca51a1)" style="fill: none; stroke: #ffffff; stroke-width: 2; stroke-linecap: square"/>
   </g>
   <g id="line2d_50">
    <path d="M 220.95824 698.539095 
L 236.191135 698.539095 
" clip-path="url(#p3addca51a1)" style="fill: none; stroke: #ffffff; stroke-width: 2; stroke-linecap: square"/>
   </g>
   <g id="line2d_51">
    <path d="M 287.162747 647.567484 
L 287.162747 632.334588 
" clip-path="url(#p3addca51a1)" style="fill: none; stroke: #ffffff; stroke-width: 2; stroke-linecap: square"/>
   </g>
   <g id="line2d_52">
    <path d="M 279.546299 639.951036 
L 294.779194 639.951036 
" clip-path="url(#p3addca51a1)" style="fill: none; stroke: #ffffff; stroke-width: 2; stroke-linecap: square"/>
   </g>
   <g id="line2d_53">
    <path d="M 345.750805 588.979425 
L 345.750805 573.74653 
" clip-path="url(#p3addca51a1)" style="fill: none; stroke: #ffffff; stroke-width: 2; stroke-linecap: square"/>
   </g>
   <g id="line2d_54">
    <path d="M 338.134358 581.362977 
L 353.367253 581.362977 
" clip-path="url(#p3addca51a1)" style="fill: none; stroke: #ffffff; stroke-width: 2; stroke-linecap: square"/>
   </g>
   <g id="text_1">
    <g clip-path="url(#p3addca51a1)">
     <!-- ${q}_{0}$ -->
     <g transform="translate(50.005906 58.521424) scale(0.1625 -0.1625)">
      <defs>
       <path id="DejaVuSans-Oblique-71" d="M 2669 525 
Q 2438 222 2123 65 
Q 1809 -91 1428 -91 
Q 897 -91 595 267 
Q 294 625 294 1253 
Q 294 1759 480 2231 
Q 666 2703 1013 3078 
Q 1238 3322 1530 3453 
Q 1822 3584 2144 3584 
Q 2531 3584 2781 3431 
Q 3031 3278 3144 2969 
L 3244 3494 
L 3822 3494 
L 2888 -1319 
L 2309 -1319 
L 2669 525 
z
M 891 1338 
Q 891 875 1084 633 
Q 1278 391 1644 391 
Q 2188 391 2572 911 
Q 2956 1431 2956 2175 
Q 2956 2625 2757 2864 
Q 2559 3103 2188 3103 
Q 1916 3103 1684 2976 
Q 1453 2850 1281 2606 
Q 1100 2350 995 2006 
Q 891 1663 891 1338 
z
" transform="scale(0.015625)"/>
       <path id="DejaVuSans-30" d="M 2034 4250 
Q 1547 4250 1301 3770 
Q 1056 3291 1056 2328 
Q 1056 1369 1301 889 
Q 1547 409 2034 409 
Q 2525 409 2770 889 
Q 3016 1369 3016 2328 
Q 3016 3291 2770 3770 
Q 2525 4250 2034 4250 
z
M 2034 4750 
Q 2819 4750 3233 4129 
Q 3647 3509 3647 2328 
Q 3647 1150 3233 529 
Q 2819 -91 2034 -91 
Q 1250 -91 836 529 
Q 422 1150 422 2328 
Q 422 3509 836 4129 
Q 1250 4750 2034 4750 
z
" transform="scale(0.015625)"/>
      </defs>
      <use xlink:href="#DejaVuSans-Oblique-71"/>
      <use xlink:href="#DejaVuSans-30" transform="translate(63.476562 -16.40625) scale(0.7)"/>
     </g>
    </g>
   </g>
   <g id="text_2">
    <g clip-path="url(#p3addca51a1)">
     <!-- ${q}_{1}$ -->
     <g transform="translate(50.005906 117.109483) scale(0.1625 -0.1625)">
      <defs>
       <path id="DejaVuSans-31" d="M 794 531 
L 1825 531 
L 1825 4091 
L 703 3866 
L 703 4441 
L 1819 4666 
L 2450 4666 
L 2450 531 
L 3481 531 
L 3481 0 
L 794 0 
L 794 531 
z
" transform="scale(0.015625)"/>
      </defs>
      <use xlink:href="#DejaVuSans-Oblique-71"/>
      <use xlink:href="#DejaVuSans-31" transform="translate(63.476562 -16.40625) scale(0.7)"/>
     </g>
    </g>
   </g>
   <g id="text_3">
    <g clip-path="url(#p3addca51a1)">
     <!-- ${q}_{2}$ -->
     <g transform="translate(50.005906 175.697541) scale(0.1625 -0.1625)">
      <defs>
       <path id="DejaVuSans-32" d="M 1228 531 
L 3431 531 
L 3431 0 
L 469 0 
L 469 531 
Q 828 903 1448 1529 
Q 2069 2156 2228 2338 
Q 2531 2678 2651 2914 
Q 2772 3150 2772 3378 
Q 2772 3750 2511 3984 
Q 2250 4219 1831 4219 
Q 1534 4219 1204 4116 
Q 875 4013 500 3803 
L 500 4441 
Q 881 4594 1212 4672 
Q 1544 4750 1819 4750 
Q 2544 4750 2975 4387 
Q 3406 4025 3406 3419 
Q 3406 3131 3298 2873 
Q 3191 2616 2906 2266 
Q 2828 2175 2409 1742 
Q 1991 1309 1228 531 
z
" transform="scale(0.015625)"/>
      </defs>
      <use xlink:href="#DejaVuSans-Oblique-71"/>
      <use xlink:href="#DejaVuSans-32" transform="translate(63.476562 -16.40625) scale(0.7)"/>
     </g>
    </g>
   </g>
   <g id="text_4">
    <g clip-path="url(#p3addca51a1)">
     <!-- ${q}_{3}$ -->
     <g transform="translate(50.005906 234.2856) scale(0.1625 -0.1625)">
      <defs>
       <path id="DejaVuSans-33" d="M 2597 2516 
Q 3050 2419 3304 2112 
Q 3559 1806 3559 1356 
Q 3559 666 3084 287 
Q 2609 -91 1734 -91 
Q 1441 -91 1130 -33 
Q 819 25 488 141 
L 488 750 
Q 750 597 1062 519 
Q 1375 441 1716 441 
Q 2309 441 2620 675 
Q 2931 909 2931 1356 
Q 2931 1769 2642 2001 
Q 2353 2234 1838 2234 
L 1294 2234 
L 1294 2753 
L 1863 2753 
Q 2328 2753 2575 2939 
Q 2822 3125 2822 3475 
Q 2822 3834 2567 4026 
Q 2313 4219 1838 4219 
Q 1578 4219 1281 4162 
Q 984 4106 628 3988 
L 628 4550 
Q 988 4650 1302 4700 
Q 1616 4750 1894 4750 
Q 2613 4750 3031 4423 
Q 3450 4097 3450 3541 
Q 3450 3153 3228 2886 
Q 3006 2619 2597 2516 
z
" transform="scale(0.015625)"/>
      </defs>
      <use xlink:href="#DejaVuSans-Oblique-71"/>
      <use xlink:href="#DejaVuSans-33" transform="translate(63.476562 -16.40625) scale(0.7)"/>
     </g>
    </g>
   </g>
   <g id="text_5">
    <g clip-path="url(#p3addca51a1)">
     <!-- ${q}_{4}$ -->
     <g transform="translate(50.005906 292.873659) scale(0.1625 -0.1625)">
      <defs>
       <path id="DejaVuSans-34" d="M 2419 4116 
L 825 1625 
L 2419 1625 
L 2419 4116 
z
M 2253 4666 
L 3047 4666 
L 3047 1625 
L 3713 1625 
L 3713 1100 
L 3047 1100 
L 3047 0 
L 2419 0 
L 2419 1100 
L 313 1100 
L 313 1709 
L 2253 4666 
z
" transform="scale(0.015625)"/>
      </defs>
      <use xlink:href="#DejaVuSans-Oblique-71"/>
      <use xlink:href="#DejaVuSans-34" transform="translate(63.476562 -16.40625) scale(0.7)"/>
     </g>
    </g>
   </g>
   <g id="text_6">
    <g clip-path="url(#p3addca51a1)">
     <!-- 1 -->
     <g transform="translate(85.619824 338.989061) scale(0.104 -0.104)">
      <use xlink:href="#DejaVuSans-31"/>
     </g>
    </g>
   </g>
   <g id="text_7">
    <g clip-path="url(#p3addca51a1)">
     <!-- c2 -->
     <g transform="translate(48.769383 351.494726) scale(0.1625 -0.1625)">
      <defs>
       <path id="DejaVuSans-63" d="M 3122 3366 
L 3122 2828 
Q 2878 2963 2633 3030 
Q 2388 3097 2138 3097 
Q 1578 3097 1268 2742 
Q 959 2388 959 1747 
Q 959 1106 1268 751 
Q 1578 397 2138 397 
Q 2388 397 2633 464 
Q 2878 531 3122 666 
L 3122 134 
Q 2881 22 2623 -34 
Q 2366 -91 2075 -91 
Q 1284 -91 818 406 
Q 353 903 353 1747 
Q 353 2603 823 3093 
Q 1294 3584 2113 3584 
Q 2378 3584 2631 3529 
Q 2884 3475 3122 3366 
z
" transform="scale(0.015625)"/>
      </defs>
      <use xlink:href="#DejaVuSans-63"/>
      <use xlink:href="#DejaVuSans-32" x="54.980469"/>
     </g>
    </g>
   </g>
   <g id="text_8">
    <g clip-path="url(#p3addca51a1)">
     <!-- ${q}_{0}$ -->
     <g transform="translate(50.005906 468.637836) scale(0.1625 -0.1625)">
      <use xlink:href="#DejaVuSans-Oblique-71"/>
      <use xlink:href="#DejaVuSans-30" transform="translate(63.476562 -16.40625) scale(0.7)"/>
     </g>
    </g>
   </g>
   <g id="text_9">
    <g clip-path="url(#p3addca51a1)">
     <!-- ${q}_{1}$ -->
     <g transform="translate(50.005906 527.225895) scale(0.1625 -0.1625)">
      <use xlink:href="#DejaVuSans-Oblique-71"/>
      <use xlink:href="#DejaVuSans-31" transform="translate(63.476562 -16.40625) scale(0.7)"/>
     </g>
    </g>
   </g>
   <g id="text_10">
    <g clip-path="url(#p3addca51a1)">
     <!-- ${q}_{2}$ -->
     <g transform="translate(50.005906 585.813954) scale(0.1625 -0.1625)">
      <use xlink:href="#DejaVuSans-Oblique-71"/>
      <use xlink:href="#DejaVuSans-32" transform="translate(63.476562 -16.40625) scale(0.7)"/>
     </g>
    </g>
   </g>
   <g id="text_11">
    <g clip-path="url(#p3addca51a1)">
     <!-- ${q}_{3}$ -->
     <g transform="translate(50.005906 644.402013) scale(0.1625 -0.1625)">
      <use xlink:href="#DejaVuSans-Oblique-71"/>
      <use xlink:href="#DejaVuSans-33" transform="translate(63.476562 -16.40625) scale(0.7)"/>
     </g>
    </g>
   </g>
   <g id="text_12">
    <g clip-path="url(#p3addca51a1)">
     <!-- ${q}_{4}$ -->
     <g transform="translate(50.005906 702.990072) scale(0.1625 -0.1625)">
      <use xlink:href="#DejaVuSans-Oblique-71"/>
      <use xlink:href="#DejaVuSans-34" transform="translate(63.476562 -16.40625) scale(0.7)"/>
     </g>
    </g>
   </g>
   <g id="text_13">
    <g clip-path="url(#p3addca51a1)">
     <!-- 1 -->
     <g transform="translate(85.619824 749.105473) scale(0.104 -0.104)">
      <use xlink:href="#DejaVuSans-31"/>
     </g>
    </g>
   </g>
   <g id="text_14">
    <g clip-path="url(#p3addca51a1)">
     <!-- c2 -->
     <g transform="translate(48.769383 761.611138) scale(0.1625 -0.1625)">
      <use xlink:href="#DejaVuSans-63"/>
      <use xlink:href="#DejaVuSans-32" x="54.980469"/>
     </g>
    </g>
   </g>
   <g id="text_15">
    <g clip-path="url(#p3addca51a1)">
     <!-- H -->
     <g transform="translate(106.510367 57.657635) scale(0.13 -0.13)">
      <defs>
       <path id="DejaVuSans-48" d="M 628 4666 
L 1259 4666 
L 1259 2753 
L 3553 2753 
L 3553 4666 
L 4184 4666 
L 4184 0 
L 3553 0 
L 3553 2222 
L 1259 2222 
L 1259 0 
L 628 0 
L 628 4666 
z
" transform="scale(0.015625)"/>
      </defs>
      <use xlink:href="#DejaVuSans-48"/>
     </g>
    </g>
   </g>
   <g id="text_16">
    <g clip-path="url(#p3addca51a1)">
     <!-- 0.58 -->
     <g style="fill: #ffffff" transform="translate(102.49232 126.290678) scale(0.08 -0.08)">
      <defs>
       <path id="DejaVuSans-2e" d="M 684 794 
L 1344 794 
L 1344 0 
L 684 0 
L 684 794 
z
" transform="scale(0.015625)"/>
       <path id="DejaVuSans-35" d="M 691 4666 
L 3169 4666 
L 3169 4134 
L 1269 4134 
L 1269 2991 
Q 1406 3038 1543 3061 
Q 1681 3084 1819 3084 
Q 2600 3084 3056 2656 
Q 3513 2228 3513 1497 
Q 3513 744 3044 326 
Q 2575 -91 1722 -91 
Q 1428 -91 1123 -41 
Q 819 9 494 109 
L 494 744 
Q 775 591 1075 516 
Q 1375 441 1709 441 
Q 2250 441 2565 725 
Q 2881 1009 2881 1497 
Q 2881 1984 2565 2268 
Q 2250 2553 1709 2553 
Q 1456 2553 1204 2497 
Q 953 2441 691 2322 
L 691 4666 
z
" transform="scale(0.015625)"/>
       <path id="DejaVuSans-38" d="M 2034 2216 
Q 1584 2216 1326 1975 
Q 1069 1734 1069 1313 
Q 1069 891 1326 650 
Q 1584 409 2034 409 
Q 2484 409 2743 651 
Q 3003 894 3003 1313 
Q 3003 1734 2745 1975 
Q 2488 2216 2034 2216 
z
M 1403 2484 
Q 997 2584 770 2862 
Q 544 3141 544 3541 
Q 544 4100 942 4425 
Q 1341 4750 2034 4750 
Q 2731 4750 3128 4425 
Q 3525 4100 3525 3541 
Q 3525 3141 3298 2862 
Q 3072 2584 2669 2484 
Q 3125 2378 3379 2068 
Q 3634 1759 3634 1313 
Q 3634 634 3220 271 
Q 2806 -91 2034 -91 
Q 1263 -91 848 271 
Q 434 634 434 1313 
Q 434 1759 690 2068 
Q 947 2378 1403 2484 
z
M 1172 3481 
Q 1172 3119 1398 2916 
Q 1625 2713 2034 2713 
Q 2441 2713 2670 2916 
Q 2900 3119 2900 3481 
Q 2900 3844 2670 4047 
Q 2441 4250 2034 4250 
Q 1625 4250 1398 4047 
Q 1172 3844 1172 3481 
z
" transform="scale(0.015625)"/>
      </defs>
      <use xlink:href="#DejaVuSans-30"/>
      <use xlink:href="#DejaVuSans-2e" x="63.623047"/>
      <use xlink:href="#DejaVuSans-35" x="95.410156"/>
      <use xlink:href="#DejaVuSans-38" x="159.033203"/>
     </g>
    </g>
   </g>
   <g id="text_17">
    <g clip-path="url(#p3addca51a1)">
     <!-- $\mathrm{R_X}$ -->
     <g style="fill: #ffffff" transform="translate(103.46857 110.533358) scale(0.13 -0.13)">
      <defs>
       <path id="DejaVuSans-52" d="M 2841 2188 
Q 3044 2119 3236 1894 
Q 3428 1669 3622 1275 
L 4263 0 
L 3584 0 
L 2988 1197 
Q 2756 1666 2539 1819 
Q 2322 1972 1947 1972 
L 1259 1972 
L 1259 0 
L 628 0 
L 628 4666 
L 2053 4666 
Q 2853 4666 3247 4331 
Q 3641 3997 3641 3322 
Q 3641 2881 3436 2590 
Q 3231 2300 2841 2188 
z
M 1259 4147 
L 1259 2491 
L 2053 2491 
Q 2509 2491 2742 2702 
Q 2975 2913 2975 3322 
Q 2975 3731 2742 3939 
Q 2509 4147 2053 4147 
L 1259 4147 
z
" transform="scale(0.015625)"/>
       <path id="DejaVuSans-58" d="M 403 4666 
L 1081 4666 
L 2241 2931 
L 3406 4666 
L 4084 4666 
L 2584 2425 
L 4184 0 
L 3506 0 
L 2194 1984 
L 872 0 
L 191 0 
L 1856 2491 
L 403 4666 
z
" transform="scale(0.015625)"/>
      </defs>
      <use xlink:href="#DejaVuSans-52" transform="translate(0 0.09375)"/>
      <use xlink:href="#DejaVuSans-58" transform="translate(70.439453 -16.3125) scale(0.7)"/>
     </g>
    </g>
   </g>
   <g id="text_18">
    <g clip-path="url(#p3addca51a1)">
     <!-- 0.074 -->
     <g style="fill: #ffffff" transform="translate(99.94732 184.878736) scale(0.08 -0.08)">
      <defs>
       <path id="DejaVuSans-37" d="M 525 4666 
L 3525 4666 
L 3525 4397 
L 1831 0 
L 1172 0 
L 2766 4134 
L 525 4134 
L 525 4666 
z
" transform="scale(0.015625)"/>
      </defs>
      <use xlink:href="#DejaVuSans-30"/>
      <use xlink:href="#DejaVuSans-2e" x="63.623047"/>
      <use xlink:href="#DejaVuSans-30" x="95.410156"/>
      <use xlink:href="#DejaVuSans-37" x="159.033203"/>
      <use xlink:href="#DejaVuSans-34" x="222.65625"/>
     </g>
    </g>
   </g>
   <g id="text_19">
    <g clip-path="url(#p3addca51a1)">
     <!-- $\mathrm{R_X}$ -->
     <g style="fill: #ffffff" transform="translate(103.46857 169.121417) scale(0.13 -0.13)">
      <use xlink:href="#DejaVuSans-52" transform="translate(0 0.09375)"/>
      <use xlink:href="#DejaVuSans-58" transform="translate(70.439453 -16.3125) scale(0.7)"/>
     </g>
    </g>
   </g>
   <g id="text_20">
    <g clip-path="url(#p3addca51a1)">
     <!-- 0.144 -->
     <g style="fill: #ffffff" transform="translate(99.94732 243.466795) scale(0.08 -0.08)">
      <use xlink:href="#DejaVuSans-30"/>
      <use xlink:href="#DejaVuSans-2e" x="63.623047"/>
      <use xlink:href="#DejaVuSans-31" x="95.410156"/>
      <use xlink:href="#DejaVuSans-34" x="159.033203"/>
      <use xlink:href="#DejaVuSans-34" x="222.65625"/>
     </g>
    </g>
   </g>
   <g id="text_21">
    <g clip-path="url(#p3addca51a1)">
     <!-- $\mathrm{R_X}$ -->
     <g style="fill: #ffffff" transform="translate(103.46857 227.709476) scale(0.13 -0.13)">
      <use xlink:href="#DejaVuSans-52" transform="translate(0 0.09375)"/>
      <use xlink:href="#DejaVuSans-58" transform="translate(70.439453 -16.3125) scale(0.7)"/>
     </g>
    </g>
   </g>
   <g id="text_22">
    <g clip-path="url(#p3addca51a1)">
     <!-- 0.754 -->
     <g style="fill: #ffffff" transform="translate(99.94732 302.054854) scale(0.08 -0.08)">
      <use xlink:href="#DejaVuSans-30"/>
      <use xlink:href="#DejaVuSans-2e" x="63.623047"/>
      <use xlink:href="#DejaVuSans-37" x="95.410156"/>
      <use xlink:href="#DejaVuSans-35" x="159.033203"/>
      <use xlink:href="#DejaVuSans-34" x="222.65625"/>
     </g>
    </g>
   </g>
   <g id="text_23">
    <g clip-path="url(#p3addca51a1)">
     <!-- $\mathrm{R_X}$ -->
     <g style="fill: #ffffff" transform="translate(103.46857 286.297534) scale(0.13 -0.13)">
      <use xlink:href="#DejaVuSans-52" transform="translate(0 0.09375)"/>
      <use xlink:href="#DejaVuSans-58" transform="translate(70.439453 -16.3125) scale(0.7)"/>
     </g>
    </g>
   </g>
   <g id="line2d_55">
    <path d="M 345.750805 24.776418 
L 345.750805 83.364477 
" clip-path="url(#p3addca51a1)" style="fill: none; stroke-dasharray: 3.7,1.6; stroke-dashoffset: 0; stroke: #000000"/>
   </g>
   <g id="line2d_56">
    <path d="M 345.750805 83.364477 
L 345.750805 141.952535 
" clip-path="url(#p3addca51a1)" style="fill: none; stroke-dasharray: 3.7,1.6; stroke-dashoffset: 0; stroke: #000000"/>
   </g>
   <g id="line2d_57">
    <path d="M 345.750805 141.952535 
L 345.750805 200.540594 
" clip-path="url(#p3addca51a1)" style="fill: none; stroke-dasharray: 3.7,1.6; stroke-dashoffset: 0; stroke: #000000"/>
   </g>
   <g id="line2d_58">
    <path d="M 345.750805 200.540594 
L 345.750805 259.128653 
" clip-path="url(#p3addca51a1)" style="fill: none; stroke-dasharray: 3.7,1.6; stroke-dashoffset: 0; stroke: #000000"/>
   </g>
   <g id="line2d_59">
    <path d="M 345.750805 259.128653 
L 345.750805 317.716712 
" clip-path="url(#p3addca51a1)" style="fill: none; stroke-dasharray: 3.7,1.6; stroke-dashoffset: 0; stroke: #000000"/>
   </g>
   <g id="text_24">
    <g clip-path="url(#p3addca51a1)">
     <!-- 0.58 -->
     <g style="fill: #ffffff" transform="translate(395.432614 126.290678) scale(0.08 -0.08)">
      <use xlink:href="#DejaVuSans-30"/>
      <use xlink:href="#DejaVuSans-2e" x="63.623047"/>
      <use xlink:href="#DejaVuSans-35" x="95.410156"/>
      <use xlink:href="#DejaVuSans-38" x="159.033203"/>
     </g>
    </g>
   </g>
   <g id="text_25">
    <g clip-path="url(#p3addca51a1)">
     <!-- $\mathrm{R_X}$ -->
     <g style="fill: #ffffff" transform="translate(396.408864 110.533358) scale(0.13 -0.13)">
      <use xlink:href="#DejaVuSans-52" transform="translate(0 0.09375)"/>
      <use xlink:href="#DejaVuSans-58" transform="translate(70.439453 -16.3125) scale(0.7)"/>
     </g>
    </g>
   </g>
   <g id="text_26">
    <g clip-path="url(#p3addca51a1)">
     <!-- 0.074 -->
     <g style="fill: #ffffff" transform="translate(392.887614 184.878736) scale(0.08 -0.08)">
      <use xlink:href="#DejaVuSans-30"/>
      <use xlink:href="#DejaVuSans-2e" x="63.623047"/>
      <use xlink:href="#DejaVuSans-30" x="95.410156"/>
      <use xlink:href="#DejaVuSans-37" x="159.033203"/>
      <use xlink:href="#DejaVuSans-34" x="222.65625"/>
     </g>
    </g>
   </g>
   <g id="text_27">
    <g clip-path="url(#p3addca51a1)">
     <!-- $\mathrm{R_X}$ -->
     <g style="fill: #ffffff" transform="translate(396.408864 169.121417) scale(0.13 -0.13)">
      <use xlink:href="#DejaVuSans-52" transform="translate(0 0.09375)"/>
      <use xlink:href="#DejaVuSans-58" transform="translate(70.439453 -16.3125) scale(0.7)"/>
     </g>
    </g>
   </g>
   <g id="text_28">
    <g clip-path="url(#p3addca51a1)">
     <!-- 0.144 -->
     <g style="fill: #ffffff" transform="translate(392.887614 243.466795) scale(0.08 -0.08)">
      <use xlink:href="#DejaVuSans-30"/>
      <use xlink:href="#DejaVuSans-2e" x="63.623047"/>
      <use xlink:href="#DejaVuSans-31" x="95.410156"/>
      <use xlink:href="#DejaVuSans-34" x="159.033203"/>
      <use xlink:href="#DejaVuSans-34" x="222.65625"/>
     </g>
    </g>
   </g>
   <g id="text_29">
    <g clip-path="url(#p3addca51a1)">
     <!-- $\mathrm{R_X}$ -->
     <g style="fill: #ffffff" transform="translate(396.408864 227.709476) scale(0.13 -0.13)">
      <use xlink:href="#DejaVuSans-52" transform="translate(0 0.09375)"/>
      <use xlink:href="#DejaVuSans-58" transform="translate(70.439453 -16.3125) scale(0.7)"/>
     </g>
    </g>
   </g>
   <g id="text_30">
    <g clip-path="url(#p3addca51a1)">
     <!-- 0.754 -->
     <g style="fill: #ffffff" transform="translate(392.887614 302.054854) scale(0.08 -0.08)">
      <use xlink:href="#DejaVuSans-30"/>
      <use xlink:href="#DejaVuSans-2e" x="63.623047"/>
      <use xlink:href="#DejaVuSans-37" x="95.410156"/>
      <use xlink:href="#DejaVuSans-35" x="159.033203"/>
      <use xlink:href="#DejaVuSans-34" x="222.65625"/>
     </g>
    </g>
   </g>
   <g id="text_31">
    <g clip-path="url(#p3addca51a1)">
     <!-- $\mathrm{R_X}$ -->
     <g style="fill: #ffffff" transform="translate(396.408864 286.297534) scale(0.13 -0.13)">
      <use xlink:href="#DejaVuSans-52" transform="translate(0 0.09375)"/>
      <use xlink:href="#DejaVuSans-58" transform="translate(70.439453 -16.3125) scale(0.7)"/>
     </g>
    </g>
   </g>
   <g id="line2d_60">
    <path d="M 638.6911 24.776418 
L 638.6911 83.364477 
" clip-path="url(#p3addca51a1)" style="fill: none; stroke-dasharray: 3.7,1.6; stroke-dashoffset: 0; stroke: #000000"/>
   </g>
   <g id="line2d_61">
    <path d="M 638.6911 83.364477 
L 638.6911 141.952535 
" clip-path="url(#p3addca51a1)" style="fill: none; stroke-dasharray: 3.7,1.6; stroke-dashoffset: 0; stroke: #000000"/>
   </g>
   <g id="line2d_62">
    <path d="M 638.6911 141.952535 
L 638.6911 200.540594 
" clip-path="url(#p3addca51a1)" style="fill: none; stroke-dasharray: 3.7,1.6; stroke-dashoffset: 0; stroke: #000000"/>
   </g>
   <g id="line2d_63">
    <path d="M 638.6911 200.540594 
L 638.6911 259.128653 
" clip-path="url(#p3addca51a1)" style="fill: none; stroke-dasharray: 3.7,1.6; stroke-dashoffset: 0; stroke: #000000"/>
   </g>
   <g id="line2d_64">
    <path d="M 638.6911 259.128653 
L 638.6911 317.716712 
" clip-path="url(#p3addca51a1)" style="fill: none; stroke-dasharray: 3.7,1.6; stroke-dashoffset: 0; stroke: #000000"/>
   </g>
   <g id="text_32">
    <g clip-path="url(#p3addca51a1)">
     <!-- 0 -->
     <g style="fill: #ffffff" transform="translate(670.920391 57.657635) scale(0.13 -0.13)">
      <use xlink:href="#DejaVuSans-30"/>
     </g>
    </g>
   </g>
   <g id="text_33">
    <g clip-path="url(#p3addca51a1)">
     <!-- 1 -->
     <g style="fill: #ffffff" transform="translate(670.920391 116.245694) scale(0.13 -0.13)">
      <use xlink:href="#DejaVuSans-31"/>
     </g>
    </g>
   </g>
   <g id="text_34">
    <g clip-path="url(#p3addca51a1)">
     <!-- 2 -->
     <g style="fill: #ffffff" transform="translate(670.920391 174.833752) scale(0.13 -0.13)">
      <use xlink:href="#DejaVuSans-32"/>
     </g>
    </g>
   </g>
   <g id="text_35">
    <g clip-path="url(#p3addca51a1)">
     <!-- 3 -->
     <g style="fill: #ffffff" transform="translate(670.920391 233.421811) scale(0.13 -0.13)">
      <use xlink:href="#DejaVuSans-33"/>
     </g>
    </g>
   </g>
   <g id="text_36">
    <g clip-path="url(#p3addca51a1)">
     <!-- 4 -->
     <g style="fill: #ffffff" transform="translate(670.920391 292.00987) scale(0.13 -0.13)">
      <use xlink:href="#DejaVuSans-34"/>
     </g>
    </g>
   </g>
   <g id="text_37">
    <g clip-path="url(#p3addca51a1)">
     <!-- 0.58, 0.074, 0.144, 0.754, 0.95, 0.946, 0.622, 0.462 -->
     <g style="fill: #ffffff" transform="translate(716.582463 236.143288) scale(0.08 -0.08)">
      <defs>
       <path id="DejaVuSans-2c" d="M 750 794 
L 1409 794 
L 1409 256 
L 897 -744 
L 494 -744 
L 750 256 
L 750 794 
z
" transform="scale(0.015625)"/>
       <path id="DejaVuSans-20" transform="scale(0.015625)"/>
       <path id="DejaVuSans-39" d="M 703 97 
L 703 672 
Q 941 559 1184 500 
Q 1428 441 1663 441 
Q 2288 441 2617 861 
Q 2947 1281 2994 2138 
Q 2813 1869 2534 1725 
Q 2256 1581 1919 1581 
Q 1219 1581 811 2004 
Q 403 2428 403 3163 
Q 403 3881 828 4315 
Q 1253 4750 1959 4750 
Q 2769 4750 3195 4129 
Q 3622 3509 3622 2328 
Q 3622 1225 3098 567 
Q 2575 -91 1691 -91 
Q 1453 -91 1209 -44 
Q 966 3 703 97 
z
M 1959 2075 
Q 2384 2075 2632 2365 
Q 2881 2656 2881 3163 
Q 2881 3666 2632 3958 
Q 2384 4250 1959 4250 
Q 1534 4250 1286 3958 
Q 1038 3666 1038 3163 
Q 1038 2656 1286 2365 
Q 1534 2075 1959 2075 
z
" transform="scale(0.015625)"/>
       <path id="DejaVuSans-36" d="M 2113 2584 
Q 1688 2584 1439 2293 
Q 1191 2003 1191 1497 
Q 1191 994 1439 701 
Q 1688 409 2113 409 
Q 2538 409 2786 701 
Q 3034 994 3034 1497 
Q 3034 2003 2786 2293 
Q 2538 2584 2113 2584 
z
M 3366 4563 
L 3366 3988 
Q 3128 4100 2886 4159 
Q 2644 4219 2406 4219 
Q 1781 4219 1451 3797 
Q 1122 3375 1075 2522 
Q 1259 2794 1537 2939 
Q 1816 3084 2150 3084 
Q 2853 3084 3261 2657 
Q 3669 2231 3669 1497 
Q 3669 778 3244 343 
Q 2819 -91 2113 -91 
Q 1303 -91 875 529 
Q 447 1150 447 2328 
Q 447 3434 972 4092 
Q 1497 4750 2381 4750 
Q 2619 4750 2861 4703 
Q 3103 4656 3366 4563 
z
" transform="scale(0.015625)"/>
      </defs>
      <use xlink:href="#DejaVuSans-30"/>
      <use xlink:href="#DejaVuSans-2e" x="63.623047"/>
      <use xlink:href="#DejaVuSans-35" x="95.410156"/>
      <use xlink:href="#DejaVuSans-38" x="159.033203"/>
      <use xlink:href="#DejaVuSans-2c" x="222.65625"/>
      <use xlink:href="#DejaVuSans-20" x="254.443359"/>
      <use xlink:href="#DejaVuSans-30" x="286.230469"/>
      <use xlink:href="#DejaVuSans-2e" x="349.853516"/>
      <use xlink:href="#DejaVuSans-30" x="381.640625"/>
      <use xlink:href="#DejaVuSans-37" x="445.263672"/>
      <use xlink:href="#DejaVuSans-34" x="508.886719"/>
      <use xlink:href="#DejaVuSans-2c" x="572.509766"/>
      <use xlink:href="#DejaVuSans-20" x="604.296875"/>
      <use xlink:href="#DejaVuSans-30" x="636.083984"/>
      <use xlink:href="#DejaVuSans-2e" x="699.707031"/>
      <use xlink:href="#DejaVuSans-31" x="731.494141"/>
      <use xlink:href="#DejaVuSans-34" x="795.117188"/>
      <use xlink:href="#DejaVuSans-34" x="858.740234"/>
      <use xlink:href="#DejaVuSans-2c" x="922.363281"/>
      <use xlink:href="#DejaVuSans-20" x="954.150391"/>
      <use xlink:href="#DejaVuSans-30" x="985.9375"/>
      <use xlink:href="#DejaVuSans-2e" x="1049.560547"/>
      <use xlink:href="#DejaVuSans-37" x="1081.347656"/>
      <use xlink:href="#DejaVuSans-35" x="1144.970703"/>
      <use xlink:href="#DejaVuSans-34" x="1208.59375"/>
      <use xlink:href="#DejaVuSans-2c" x="1272.216797"/>
      <use xlink:href="#DejaVuSans-20" x="1304.003906"/>
      <use xlink:href="#DejaVuSans-30" x="1335.791016"/>
      <use xlink:href="#DejaVuSans-2e" x="1399.414062"/>
      <use xlink:href="#DejaVuSans-39" x="1431.201172"/>
      <use xlink:href="#DejaVuSans-35" x="1494.824219"/>
      <use xlink:href="#DejaVuSans-2c" x="1558.447266"/>
      <use xlink:href="#DejaVuSans-20" x="1590.234375"/>
      <use xlink:href="#DejaVuSans-30" x="1622.021484"/>
      <use xlink:href="#DejaVuSans-2e" x="1685.644531"/>
      <use xlink:href="#DejaVuSans-39" x="1717.431641"/>
      <use xlink:href="#DejaVuSans-34" x="1781.054688"/>
      <use xlink:href="#DejaVuSans-36" x="1844.677734"/>
      <use xlink:href="#DejaVuSans-2c" x="1908.300781"/>
      <use xlink:href="#DejaVuSans-20" x="1940.087891"/>
      <use xlink:href="#DejaVuSans-30" x="1971.875"/>
      <use xlink:href="#DejaVuSans-2e" x="2035.498047"/>
      <use xlink:href="#DejaVuSans-36" x="2067.285156"/>
      <use xlink:href="#DejaVuSans-32" x="2130.908203"/>
      <use xlink:href="#DejaVuSans-32" x="2194.53125"/>
      <use xlink:href="#DejaVuSans-2c" x="2258.154297"/>
      <use xlink:href="#DejaVuSans-20" x="2289.941406"/>
      <use xlink:href="#DejaVuSans-30" x="2321.728516"/>
      <use xlink:href="#DejaVuSans-2e" x="2385.351562"/>
      <use xlink:href="#DejaVuSans-34" x="2417.138672"/>
      <use xlink:href="#DejaVuSans-36" x="2480.761719"/>
      <use xlink:href="#DejaVuSans-32" x="2544.384766"/>
     </g>
    </g>
   </g>
   <g id="text_38">
    <g clip-path="url(#p3addca51a1)">
     <!-- U_iqc_angle -->
     <g style="fill: #ffffff" transform="translate(782.102072 182.855299) scale(0.13 -0.13)">
      <defs>
       <path id="DejaVuSans-55" d="M 556 4666 
L 1191 4666 
L 1191 1831 
Q 1191 1081 1462 751 
Q 1734 422 2344 422 
Q 2950 422 3222 751 
Q 3494 1081 3494 1831 
L 3494 4666 
L 4128 4666 
L 4128 1753 
Q 4128 841 3676 375 
Q 3225 -91 2344 -91 
Q 1459 -91 1007 375 
Q 556 841 556 1753 
L 556 4666 
z
" transform="scale(0.015625)"/>
       <path id="DejaVuSans-5f" d="M 3263 -1063 
L 3263 -1509 
L -63 -1509 
L -63 -1063 
L 3263 -1063 
z
" transform="scale(0.015625)"/>
       <path id="DejaVuSans-69" d="M 603 3500 
L 1178 3500 
L 1178 0 
L 603 0 
L 603 3500 
z
M 603 4863 
L 1178 4863 
L 1178 4134 
L 603 4134 
L 603 4863 
z
" transform="scale(0.015625)"/>
       <path id="DejaVuSans-71" d="M 947 1747 
Q 947 1113 1208 752 
Q 1469 391 1925 391 
Q 2381 391 2643 752 
Q 2906 1113 2906 1747 
Q 2906 2381 2643 2742 
Q 2381 3103 1925 3103 
Q 1469 3103 1208 2742 
Q 947 2381 947 1747 
z
M 2906 525 
Q 2725 213 2448 61 
Q 2172 -91 1784 -91 
Q 1150 -91 751 415 
Q 353 922 353 1747 
Q 353 2572 751 3078 
Q 1150 3584 1784 3584 
Q 2172 3584 2448 3432 
Q 2725 3281 2906 2969 
L 2906 3500 
L 3481 3500 
L 3481 -1331 
L 2906 -1331 
L 2906 525 
z
" transform="scale(0.015625)"/>
       <path id="DejaVuSans-61" d="M 2194 1759 
Q 1497 1759 1228 1600 
Q 959 1441 959 1056 
Q 959 750 1161 570 
Q 1363 391 1709 391 
Q 2188 391 2477 730 
Q 2766 1069 2766 1631 
L 2766 1759 
L 2194 1759 
z
M 3341 1997 
L 3341 0 
L 2766 0 
L 2766 531 
Q 2569 213 2275 61 
Q 1981 -91 1556 -91 
Q 1019 -91 701 211 
Q 384 513 384 1019 
Q 384 1609 779 1909 
Q 1175 2209 1959 2209 
L 2766 2209 
L 2766 2266 
Q 2766 2663 2505 2880 
Q 2244 3097 1772 3097 
Q 1472 3097 1187 3025 
Q 903 2953 641 2809 
L 641 3341 
Q 956 3463 1253 3523 
Q 1550 3584 1831 3584 
Q 2591 3584 2966 3190 
Q 3341 2797 3341 1997 
z
" transform="scale(0.015625)"/>
       <path id="DejaVuSans-6e" d="M 3513 2113 
L 3513 0 
L 2938 0 
L 2938 2094 
Q 2938 2591 2744 2837 
Q 2550 3084 2163 3084 
Q 1697 3084 1428 2787 
Q 1159 2491 1159 1978 
L 1159 0 
L 581 0 
L 581 3500 
L 1159 3500 
L 1159 2956 
Q 1366 3272 1645 3428 
Q 1925 3584 2291 3584 
Q 2894 3584 3203 3211 
Q 3513 2838 3513 2113 
z
" transform="scale(0.015625)"/>
       <path id="DejaVuSans-67" d="M 2906 1791 
Q 2906 2416 2648 2759 
Q 2391 3103 1925 3103 
Q 1463 3103 1205 2759 
Q 947 2416 947 1791 
Q 947 1169 1205 825 
Q 1463 481 1925 481 
Q 2391 481 2648 825 
Q 2906 1169 2906 1791 
z
M 3481 434 
Q 3481 -459 3084 -895 
Q 2688 -1331 1869 -1331 
Q 1566 -1331 1297 -1286 
Q 1028 -1241 775 -1147 
L 775 -588 
Q 1028 -725 1275 -790 
Q 1522 -856 1778 -856 
Q 2344 -856 2625 -561 
Q 2906 -266 2906 331 
L 2906 616 
Q 2728 306 2450 153 
Q 2172 0 1784 0 
Q 1141 0 747 490 
Q 353 981 353 1791 
Q 353 2603 747 3093 
Q 1141 3584 1784 3584 
Q 2172 3584 2450 3431 
Q 2728 3278 2906 2969 
L 2906 3500 
L 3481 3500 
L 3481 434 
z
" transform="scale(0.015625)"/>
       <path id="DejaVuSans-6c" d="M 603 4863 
L 1178 4863 
L 1178 0 
L 603 0 
L 603 4863 
z
" transform="scale(0.015625)"/>
       <path id="DejaVuSans-65" d="M 3597 1894 
L 3597 1613 
L 953 1613 
Q 991 1019 1311 708 
Q 1631 397 2203 397 
Q 2534 397 2845 478 
Q 3156 559 3463 722 
L 3463 178 
Q 3153 47 2828 -22 
Q 2503 -91 2169 -91 
Q 1331 -91 842 396 
Q 353 884 353 1716 
Q 353 2575 817 3079 
Q 1281 3584 2069 3584 
Q 2775 3584 3186 3129 
Q 3597 2675 3597 1894 
z
M 3022 2063 
Q 3016 2534 2758 2815 
Q 2500 3097 2075 3097 
Q 1594 3097 1305 2825 
Q 1016 2553 972 2059 
L 3022 2063 
z
" transform="scale(0.015625)"/>
      </defs>
      <use xlink:href="#DejaVuSans-55"/>
      <use xlink:href="#DejaVuSans-5f" x="73.193359"/>
      <use xlink:href="#DejaVuSans-69" x="123.193359"/>
      <use xlink:href="#DejaVuSans-71" x="150.976562"/>
      <use xlink:href="#DejaVuSans-63" x="214.453125"/>
      <use xlink:href="#DejaVuSans-5f" x="269.433594"/>
      <use xlink:href="#DejaVuSans-61" x="319.433594"/>
      <use xlink:href="#DejaVuSans-6e" x="380.712891"/>
      <use xlink:href="#DejaVuSans-67" x="444.091797"/>
      <use xlink:href="#DejaVuSans-6c" x="507.568359"/>
      <use xlink:href="#DejaVuSans-65" x="535.351562"/>
     </g>
    </g>
   </g>
   <g id="text_39">
    <g clip-path="url(#p3addca51a1)">
     <!-- 0 -->
     <g style="fill: #ffffff" transform="translate(972.581518 57.657635) scale(0.13 -0.13)">
      <use xlink:href="#DejaVuSans-30"/>
     </g>
    </g>
   </g>
   <g id="text_40">
    <g clip-path="url(#p3addca51a1)">
     <!-- 1 -->
     <g style="fill: #ffffff" transform="translate(972.581518 116.245694) scale(0.13 -0.13)">
      <use xlink:href="#DejaVuSans-31"/>
     </g>
    </g>
   </g>
   <g id="text_41">
    <g clip-path="url(#p3addca51a1)">
     <!-- 2 -->
     <g style="fill: #ffffff" transform="translate(972.581518 174.833752) scale(0.13 -0.13)">
      <use xlink:href="#DejaVuSans-32"/>
     </g>
    </g>
   </g>
   <g id="text_42">
    <g clip-path="url(#p3addca51a1)">
     <!-- 3 -->
     <g style="fill: #ffffff" transform="translate(972.581518 233.421811) scale(0.13 -0.13)">
      <use xlink:href="#DejaVuSans-33"/>
     </g>
    </g>
   </g>
   <g id="text_43">
    <g clip-path="url(#p3addca51a1)">
     <!-- 4 -->
     <g style="fill: #ffffff" transform="translate(972.581518 292.00987) scale(0.13 -0.13)">
      <use xlink:href="#DejaVuSans-34"/>
     </g>
    </g>
   </g>
   <g id="text_44">
    <g clip-path="url(#p3addca51a1)">
     <!-- 0.458, 0.273, 0.00632, 0.777, 0.0915, 0.494, 0.024, 0.0376 -->
     <g style="fill: #ffffff" transform="translate(1023.546787 236.143288) scale(0.08 -0.08)">
      <use xlink:href="#DejaVuSans-30"/>
      <use xlink:href="#DejaVuSans-2e" x="63.623047"/>
      <use xlink:href="#DejaVuSans-34" x="95.410156"/>
      <use xlink:href="#DejaVuSans-35" x="159.033203"/>
      <use xlink:href="#DejaVuSans-38" x="222.65625"/>
      <use xlink:href="#DejaVuSans-2c" x="286.279297"/>
      <use xlink:href="#DejaVuSans-20" x="318.066406"/>
      <use xlink:href="#DejaVuSans-30" x="349.853516"/>
      <use xlink:href="#DejaVuSans-2e" x="413.476562"/>
      <use xlink:href="#DejaVuSans-32" x="445.263672"/>
      <use xlink:href="#DejaVuSans-37" x="508.886719"/>
      <use xlink:href="#DejaVuSans-33" x="572.509766"/>
      <use xlink:href="#DejaVuSans-2c" x="636.132812"/>
      <use xlink:href="#DejaVuSans-20" x="667.919922"/>
      <use xlink:href="#DejaVuSans-30" x="699.707031"/>
      <use xlink:href="#DejaVuSans-2e" x="763.330078"/>
      <use xlink:href="#DejaVuSans-30" x="795.117188"/>
      <use xlink:href="#DejaVuSans-30" x="858.740234"/>
      <use xlink:href="#DejaVuSans-36" x="922.363281"/>
      <use xlink:href="#DejaVuSans-33" x="985.986328"/>
      <use xlink:href="#DejaVuSans-32" x="1049.609375"/>
      <use xlink:href="#DejaVuSans-2c" x="1113.232422"/>
      <use xlink:href="#DejaVuSans-20" x="1145.019531"/>
      <use xlink:href="#DejaVuSans-30" x="1176.806641"/>
      <use xlink:href="#DejaVuSans-2e" x="1240.429688"/>
      <use xlink:href="#DejaVuSans-37" x="1272.216797"/>
      <use xlink:href="#DejaVuSans-37" x="1335.839844"/>
      <use xlink:href="#DejaVuSans-37" x="1399.462891"/>
      <use xlink:href="#DejaVuSans-2c" x="1463.085938"/>
      <use xlink:href="#DejaVuSans-20" x="1494.873047"/>
      <use xlink:href="#DejaVuSans-30" x="1526.660156"/>
      <use xlink:href="#DejaVuSans-2e" x="1590.283203"/>
      <use xlink:href="#DejaVuSans-30" x="1622.070312"/>
      <use xlink:href="#DejaVuSans-39" x="1685.693359"/>
      <use xlink:href="#DejaVuSans-31" x="1749.316406"/>
      <use xlink:href="#DejaVuSans-35" x="1812.939453"/>
      <use xlink:href="#DejaVuSans-2c" x="1876.5625"/>
      <use xlink:href="#DejaVuSans-20" x="1908.349609"/>
      <use xlink:href="#DejaVuSans-30" x="1940.136719"/>
      <use xlink:href="#DejaVuSans-2e" x="2003.759766"/>
      <use xlink:href="#DejaVuSans-34" x="2035.546875"/>
      <use xlink:href="#DejaVuSans-39" x="2099.169922"/>
      <use xlink:href="#DejaVuSans-34" x="2162.792969"/>
      <use xlink:href="#DejaVuSans-2c" x="2226.416016"/>
      <use xlink:href="#DejaVuSans-20" x="2258.203125"/>
      <use xlink:href="#DejaVuSans-30" x="2289.990234"/>
      <use xlink:href="#DejaVuSans-2e" x="2353.613281"/>
      <use xlink:href="#DejaVuSans-30" x="2385.400391"/>
      <use xlink:href="#DejaVuSans-32" x="2449.023438"/>
      <use xlink:href="#DejaVuSans-34" x="2512.646484"/>
      <use xlink:href="#DejaVuSans-2c" x="2576.269531"/>
      <use xlink:href="#DejaVuSans-20" x="2608.056641"/>
      <use xlink:href="#DejaVuSans-30" x="2639.84375"/>
      <use xlink:href="#DejaVuSans-2e" x="2703.466797"/>
      <use xlink:href="#DejaVuSans-30" x="2735.253906"/>
      <use xlink:href="#DejaVuSans-33" x="2798.876953"/>
      <use xlink:href="#DejaVuSans-37" x="2862.5"/>
      <use xlink:href="#DejaVuSans-36" x="2926.123047"/>
     </g>
    </g>
   </g>
   <g id="text_45">
    <g clip-path="url(#p3addca51a1)">
     <!-- U_iqc_angle -->
     <g style="fill: #ffffff" transform="translate(1104.336396 182.855299) scale(0.13 -0.13)">
      <use xlink:href="#DejaVuSans-55"/>
      <use xlink:href="#DejaVuSans-5f" x="73.193359"/>
      <use xlink:href="#DejaVuSans-69" x="123.193359"/>
      <use xlink:href="#DejaVuSans-71" x="150.976562"/>
      <use xlink:href="#DejaVuSans-63" x="214.453125"/>
      <use xlink:href="#DejaVuSans-5f" x="269.433594"/>
      <use xlink:href="#DejaVuSans-61" x="319.433594"/>
      <use xlink:href="#DejaVuSans-6e" x="380.712891"/>
      <use xlink:href="#DejaVuSans-67" x="444.091797"/>
      <use xlink:href="#DejaVuSans-6c" x="507.568359"/>
      <use xlink:href="#DejaVuSans-65" x="535.351562"/>
     </g>
    </g>
   </g>
   <g id="line2d_65">
    <path d="M 1341.747807 24.776418 
L 1341.747807 83.364477 
" clip-path="url(#p3addca51a1)" style="fill: none; stroke-dasharray: 3.7,1.6; stroke-dashoffset: 0; stroke: #000000"/>
   </g>
   <g id="line2d_66">
    <path d="M 1341.747807 83.364477 
L 1341.747807 141.952535 
" clip-path="url(#p3addca51a1)" style="fill: none; stroke-dasharray: 3.7,1.6; stroke-dashoffset: 0; stroke: #000000"/>
   </g>
   <g id="line2d_67">
    <path d="M 1341.747807 141.952535 
L 1341.747807 200.540594 
" clip-path="url(#p3addca51a1)" style="fill: none; stroke-dasharray: 3.7,1.6; stroke-dashoffset: 0; stroke: #000000"/>
   </g>
   <g id="line2d_68">
    <path d="M 1341.747807 200.540594 
L 1341.747807 259.128653 
" clip-path="url(#p3addca51a1)" style="fill: none; stroke-dasharray: 3.7,1.6; stroke-dashoffset: 0; stroke: #000000"/>
   </g>
   <g id="line2d_69">
    <path d="M 1341.747807 259.128653 
L 1341.747807 317.716712 
" clip-path="url(#p3addca51a1)" style="fill: none; stroke-dasharray: 3.7,1.6; stroke-dashoffset: 0; stroke: #000000"/>
   </g>
   <g id="text_46">
    <g clip-path="url(#p3addca51a1)">
     <!-- 0.777 -->
     <g style="fill: #ffffff" transform="translate(1447.472675 302.054854) scale(0.08 -0.08)">
      <use xlink:href="#DejaVuSans-30"/>
      <use xlink:href="#DejaVuSans-2e" x="63.623047"/>
      <use xlink:href="#DejaVuSans-37" x="95.410156"/>
      <use xlink:href="#DejaVuSans-37" x="159.033203"/>
      <use xlink:href="#DejaVuSans-37" x="222.65625"/>
     </g>
    </g>
   </g>
   <g id="text_47">
    <g clip-path="url(#p3addca51a1)">
     <!-- $\mathrm{R_X}$ -->
     <g style="fill: #ffffff" transform="translate(1450.993925 286.297534) scale(0.13 -0.13)">
      <use xlink:href="#DejaVuSans-52" transform="translate(0 0.09375)"/>
      <use xlink:href="#DejaVuSans-58" transform="translate(70.439453 -16.3125) scale(0.7)"/>
     </g>
    </g>
   </g>
   <g id="text_48">
    <g clip-path="url(#p3addca51a1)">
     <!-- 0.00632 -->
     <g style="fill: #ffffff" transform="translate(1500.970733 243.466795) scale(0.08 -0.08)">
      <use xlink:href="#DejaVuSans-30"/>
      <use xlink:href="#DejaVuSans-2e" x="63.623047"/>
      <use xlink:href="#DejaVuSans-30" x="95.410156"/>
      <use xlink:href="#DejaVuSans-30" x="159.033203"/>
      <use xlink:href="#DejaVuSans-36" x="222.65625"/>
      <use xlink:href="#DejaVuSans-33" x="286.279297"/>
      <use xlink:href="#DejaVuSans-32" x="349.902344"/>
     </g>
    </g>
   </g>
   <g id="text_49">
    <g clip-path="url(#p3addca51a1)">
     <!-- $\mathrm{R_X}$ -->
     <g style="fill: #ffffff" transform="translate(1509.581983 227.709476) scale(0.13 -0.13)">
      <use xlink:href="#DejaVuSans-52" transform="translate(0 0.09375)"/>
      <use xlink:href="#DejaVuSans-58" transform="translate(70.439453 -16.3125) scale(0.7)"/>
     </g>
    </g>
   </g>
   <g id="text_50">
    <g clip-path="url(#p3addca51a1)">
     <!-- 0.273 -->
     <g style="fill: #ffffff" transform="translate(99.94732 594.995149) scale(0.08 -0.08)">
      <use xlink:href="#DejaVuSans-30"/>
      <use xlink:href="#DejaVuSans-2e" x="63.623047"/>
      <use xlink:href="#DejaVuSans-32" x="95.410156"/>
      <use xlink:href="#DejaVuSans-37" x="159.033203"/>
      <use xlink:href="#DejaVuSans-33" x="222.65625"/>
     </g>
    </g>
   </g>
   <g id="text_51">
    <g clip-path="url(#p3addca51a1)">
     <!-- $\mathrm{R_X}$ -->
     <g style="fill: #ffffff" transform="translate(103.46857 579.237829) scale(0.13 -0.13)">
      <use xlink:href="#DejaVuSans-52" transform="translate(0 0.09375)"/>
      <use xlink:href="#DejaVuSans-58" transform="translate(70.439453 -16.3125) scale(0.7)"/>
     </g>
    </g>
   </g>
   <g id="text_52">
    <g clip-path="url(#p3addca51a1)">
     <!-- 0.458 -->
     <g style="fill: #ffffff" transform="translate(99.94732 536.40709) scale(0.08 -0.08)">
      <use xlink:href="#DejaVuSans-30"/>
      <use xlink:href="#DejaVuSans-2e" x="63.623047"/>
      <use xlink:href="#DejaVuSans-34" x="95.410156"/>
      <use xlink:href="#DejaVuSans-35" x="159.033203"/>
      <use xlink:href="#DejaVuSans-38" x="222.65625"/>
     </g>
    </g>
   </g>
   <g id="text_53">
    <g clip-path="url(#p3addca51a1)">
     <!-- $\mathrm{R_X}$ -->
     <g style="fill: #ffffff" transform="translate(103.46857 520.64977) scale(0.13 -0.13)">
      <use xlink:href="#DejaVuSans-52" transform="translate(0 0.09375)"/>
      <use xlink:href="#DejaVuSans-58" transform="translate(70.439453 -16.3125) scale(0.7)"/>
     </g>
    </g>
   </g>
   <g id="line2d_70">
    <path d="M 169.986629 434.89283 
L 169.986629 493.480889 
" clip-path="url(#p3addca51a1)" style="fill: none; stroke-dasharray: 3.7,1.6; stroke-dashoffset: 0; stroke: #000000"/>
   </g>
   <g id="line2d_71">
    <path d="M 169.986629 493.480889 
L 169.986629 552.068948 
" clip-path="url(#p3addca51a1)" style="fill: none; stroke-dasharray: 3.7,1.6; stroke-dashoffset: 0; stroke: #000000"/>
   </g>
   <g id="line2d_72">
    <path d="M 169.986629 552.068948 
L 169.986629 610.657007 
" clip-path="url(#p3addca51a1)" style="fill: none; stroke-dasharray: 3.7,1.6; stroke-dashoffset: 0; stroke: #000000"/>
   </g>
   <g id="line2d_73">
    <path d="M 169.986629 610.657007 
L 169.986629 669.245066 
" clip-path="url(#p3addca51a1)" style="fill: none; stroke-dasharray: 3.7,1.6; stroke-dashoffset: 0; stroke: #000000"/>
   </g>
   <g id="line2d_74">
    <path d="M 169.986629 669.245066 
L 169.986629 727.833124 
" clip-path="url(#p3addca51a1)" style="fill: none; stroke-dasharray: 3.7,1.6; stroke-dashoffset: 0; stroke: #000000"/>
   </g>
   <g id="text_54">
    <g clip-path="url(#p3addca51a1)">
     <!-- H -->
     <g transform="translate(223.686484 467.774047) scale(0.13 -0.13)">
      <use xlink:href="#DejaVuSans-48"/>
     </g>
    </g>
   </g>
   <g id="text_55">
    <g clip-path="url(#p3addca51a1)">
     <!-- 0.777 -->
     <g style="fill: #ffffff" transform="translate(275.711497 712.171267) scale(0.08 -0.08)">
      <use xlink:href="#DejaVuSans-30"/>
      <use xlink:href="#DejaVuSans-2e" x="63.623047"/>
      <use xlink:href="#DejaVuSans-37" x="95.410156"/>
      <use xlink:href="#DejaVuSans-37" x="159.033203"/>
      <use xlink:href="#DejaVuSans-37" x="222.65625"/>
     </g>
    </g>
   </g>
   <g id="text_56">
    <g clip-path="url(#p3addca51a1)">
     <!-- $\mathrm{R_X}$ -->
     <g style="fill: #ffffff" transform="translate(279.232747 696.413947) scale(0.13 -0.13)">
      <use xlink:href="#DejaVuSans-52" transform="translate(0 0.09375)"/>
      <use xlink:href="#DejaVuSans-58" transform="translate(70.439453 -16.3125) scale(0.7)"/>
     </g>
    </g>
   </g>
   <g id="text_57">
    <g clip-path="url(#p3addca51a1)">
     <!-- 0.00632 -->
     <g style="fill: #ffffff" transform="translate(329.209555 653.583208) scale(0.08 -0.08)">
      <use xlink:href="#DejaVuSans-30"/>
      <use xlink:href="#DejaVuSans-2e" x="63.623047"/>
      <use xlink:href="#DejaVuSans-30" x="95.410156"/>
      <use xlink:href="#DejaVuSans-30" x="159.033203"/>
      <use xlink:href="#DejaVuSans-36" x="222.65625"/>
      <use xlink:href="#DejaVuSans-33" x="286.279297"/>
      <use xlink:href="#DejaVuSans-32" x="349.902344"/>
     </g>
    </g>
   </g>
   <g id="text_58">
    <g clip-path="url(#p3addca51a1)">
     <!-- $\mathrm{R_X}$ -->
     <g style="fill: #ffffff" transform="translate(337.820805 637.825888) scale(0.13 -0.13)">
      <use xlink:href="#DejaVuSans-52" transform="translate(0 0.09375)"/>
      <use xlink:href="#DejaVuSans-58" transform="translate(70.439453 -16.3125) scale(0.7)"/>
     </g>
    </g>
   </g>
   <g id="text_59">
    <g clip-path="url(#p3addca51a1)">
     <!-- 0.273 -->
     <g style="fill: #ffffff" transform="translate(392.887614 594.995149) scale(0.08 -0.08)">
      <use xlink:href="#DejaVuSans-30"/>
      <use xlink:href="#DejaVuSans-2e" x="63.623047"/>
      <use xlink:href="#DejaVuSans-32" x="95.410156"/>
      <use xlink:href="#DejaVuSans-37" x="159.033203"/>
      <use xlink:href="#DejaVuSans-33" x="222.65625"/>
     </g>
    </g>
   </g>
   <g id="text_60">
    <g clip-path="url(#p3addca51a1)">
     <!-- $\mathrm{R_X}$ -->
     <g style="fill: #ffffff" transform="translate(396.408864 579.237829) scale(0.13 -0.13)">
      <use xlink:href="#DejaVuSans-52" transform="translate(0 0.09375)"/>
      <use xlink:href="#DejaVuSans-58" transform="translate(70.439453 -16.3125) scale(0.7)"/>
     </g>
    </g>
   </g>
   <g id="text_61">
    <g clip-path="url(#p3addca51a1)">
     <!-- 0.458 -->
     <g style="fill: #ffffff" transform="translate(392.887614 536.40709) scale(0.08 -0.08)">
      <use xlink:href="#DejaVuSans-30"/>
      <use xlink:href="#DejaVuSans-2e" x="63.623047"/>
      <use xlink:href="#DejaVuSans-34" x="95.410156"/>
      <use xlink:href="#DejaVuSans-35" x="159.033203"/>
      <use xlink:href="#DejaVuSans-38" x="222.65625"/>
     </g>
    </g>
   </g>
   <g id="text_62">
    <g clip-path="url(#p3addca51a1)">
     <!-- $\mathrm{R_X}$ -->
     <g style="fill: #ffffff" transform="translate(396.408864 520.64977) scale(0.13 -0.13)">
      <use xlink:href="#DejaVuSans-52" transform="translate(0 0.09375)"/>
      <use xlink:href="#DejaVuSans-58" transform="translate(70.439453 -16.3125) scale(0.7)"/>
     </g>
    </g>
   </g>
  </g>
 </g>
 <defs>
  <clipPath id="p3addca51a1">
   <rect x="7.2" y="7.2" width="1548.980102" height="785.079989"/>
  </clipPath>
 </defs>
</svg>
