<?xml version="1.0" encoding="utf-8" standalone="no"?>
<!DOCTYPE svg PUBLIC "-//W3C//DTD SVG 1.1//EN"
  "http://www.w3.org/Graphics/SVG/1.1/DTD/svg11.dtd">
<svg xmlns:xlink="http://www.w3.org/1999/xlink" width="1152pt" height="576pt" viewBox="0 0 1152 576" xmlns="http://www.w3.org/2000/svg" version="1.1">
 <metadata>
  <rdf:RDF xmlns:dc="http://purl.org/dc/elements/1.1/" xmlns:cc="http://creativecommons.org/ns#" xmlns:rdf="http://www.w3.org/1999/02/22-rdf-syntax-ns#">
   <cc:Work>
    <dc:type rdf:resource="http://purl.org/dc/dcmitype/StillImage"/>
    <dc:date>2024-11-02T18:35:36.756268</dc:date>
    <dc:format>image/svg+xml</dc:format>
    <dc:creator>
     <cc:Agent>
      <dc:title>Matplotlib v3.9.2, https://matplotlib.org/</dc:title>
     </cc:Agent>
    </dc:creator>
   </cc:Work>
  </rdf:RDF>
 </metadata>
 <defs>
  <style type="text/css">*{stroke-linejoin: round; stroke-linecap: butt}</style>
 </defs>
 <g id="figure_1">
  <g id="patch_1">
   <path d="M 0 576 
L 1152 576 
L 1152 0 
L 0 0 
z
" style="fill: #ffffff"/>
  </g>
  <g id="patch_2">
   <path d="M 28.8 576 
L 547.2 576 
L 547.2 57.6 
L 28.8 57.6 
z
" style="fill: #ffffff"/>
  </g>
  <g id="pane3d_1">
   <g id="patch_3">
    <path d="M 130.07018 436.456468 
L 253.494133 330.550231 
L 251.743197 126.70673 
L 122.643358 223.613571 
" style="fill: #f2f2f2; opacity: 0.5; stroke: #f2f2f2; stroke-linejoin: miter"/>
   </g>
  </g>
  <g id="pane3d_2">
   <g id="patch_4">
    <path d="M 253.494133 330.550231 
L 455.554898 390.069341 
L 462.583588 181.103065 
L 251.743197 126.70673 
" style="fill: #e6e6e6; opacity: 0.5; stroke: #e6e6e6; stroke-linejoin: miter"/>
   </g>
  </g>
  <g id="pane3d_3">
   <g id="patch_5">
    <path d="M 130.07018 436.456468 
L 340.912731 504.076731 
L 455.554898 390.069341 
L 253.494133 330.550231 
" style="fill: #ececec; opacity: 0.5; stroke: #ececec; stroke-linejoin: miter"/>
   </g>
  </g>
  <g id="grid3d_1">
   <g id="Line3DCollection_1">
    <path d="M 158.635886 445.617904 
L 280.925726 338.630493 
L 280.328796 134.081748 
" style="fill: none; stroke: #b0b0b0; stroke-width: 0.8"/>
    <path d="M 208.310046 461.549127 
L 328.58611 352.669358 
L 330.022474 146.902603 
" style="fill: none; stroke: #b0b0b0; stroke-width: 0.8"/>
    <path d="M 258.89502 477.772462 
L 377.066152 366.949661 
L 380.607663 159.953465 
" style="fill: none; stroke: #b0b0b0; stroke-width: 0.8"/>
    <path d="M 310.41609 494.296016 
L 426.38718 381.477685 
L 432.108569 173.24058 
" style="fill: none; stroke: #b0b0b0; stroke-width: 0.8"/>
   </g>
  </g>
  <g id="grid3d_2">
   <g id="Line3DCollection_2">
    <path d="M 141.757365 209.265931 
L 148.301379 420.812846 
L 357.880707 487.202708 
" style="fill: none; stroke: #b0b0b0; stroke-width: 0.8"/>
    <path d="M 173.704273 185.285468 
L 178.805664 394.638072 
L 386.24502 458.995448 
" style="fill: none; stroke: #b0b0b0; stroke-width: 0.8"/>
    <path d="M 204.65707 162.051218 
L 208.400054 369.24405 
L 413.731787 431.660877 
" style="fill: none; stroke: #b0b0b0; stroke-width: 0.8"/>
    <path d="M 234.661448 139.528886 
L 237.124663 344.596362 
L 440.38111 405.159111 
" style="fill: none; stroke: #b0b0b0; stroke-width: 0.8"/>
   </g>
  </g>
  <g id="grid3d_3">
   <g id="Line3DCollection_3">
    <path d="M 456.359964 366.134357 
L 253.293308 307.170291 
L 129.220413 412.103275 
" style="fill: none; stroke: #b0b0b0; stroke-width: 0.8"/>
    <path d="M 457.325929 337.415734 
L 253.05244 279.128487 
L 128.200505 382.874053 
" style="fill: none; stroke: #b0b0b0; stroke-width: 0.8"/>
    <path d="M 458.303531 308.351187 
L 252.808774 250.760944 
L 127.16797 353.282969 
" style="fill: none; stroke: #b0b0b0; stroke-width: 0.8"/>
    <path d="M 459.292979 278.934427 
L 252.562261 222.061954 
L 126.122573 323.323261 
" style="fill: none; stroke: #b0b0b0; stroke-width: 0.8"/>
    <path d="M 460.29449 249.159012 
L 252.312851 193.025675 
L 125.064071 292.987998 
" style="fill: none; stroke: #b0b0b0; stroke-width: 0.8"/>
    <path d="M 461.308287 219.018344 
L 252.060492 163.646124 
L 123.992217 262.270074 
" style="fill: none; stroke: #b0b0b0; stroke-width: 0.8"/>
    <path d="M 462.334598 188.505659 
L 251.805132 133.917178 
L 122.906756 231.162201 
" style="fill: none; stroke: #b0b0b0; stroke-width: 0.8"/>
   </g>
  </g>
  <g id="axis3d_1">
   <g id="line2d_1">
    <path d="M 130.07018 436.456468 
L 340.912731 504.076731 
" style="fill: none; stroke: #000000; stroke-width: 0.8; stroke-linecap: square"/>
   </g>
   <g id="xtick_1">
    <g id="line2d_2">
     <path d="M 159.677227 444.706868 
L 156.549953 447.442819 
" style="fill: none; stroke: #000000; stroke-width: 0.8; stroke-linecap: square"/>
    </g>
    <g id="text_1">
     <!-- 00 -->
     <g transform="translate(131.351686 489.365693) rotate(-45) scale(0.21 -0.21)">
      <defs>
       <path id="DejaVuSans-30" d="M 2034 4250 
Q 1547 4250 1301 3770 
Q 1056 3291 1056 2328 
Q 1056 1369 1301 889 
Q 1547 409 2034 409 
Q 2525 409 2770 889 
Q 3016 1369 3016 2328 
Q 3016 3291 2770 3770 
Q 2525 4250 2034 4250 
z
M 2034 4750 
Q 2819 4750 3233 4129 
Q 3647 3509 3647 2328 
Q 3647 1150 3233 529 
Q 2819 -91 2034 -91 
Q 1250 -91 836 529 
Q 422 1150 422 2328 
Q 422 3509 836 4129 
Q 1250 4750 2034 4750 
z
" transform="scale(0.015625)"/>
      </defs>
      <use xlink:href="#DejaVuSans-30"/>
      <use xlink:href="#DejaVuSans-30" x="63.623047"/>
     </g>
    </g>
   </g>
   <g id="xtick_2">
    <g id="line2d_3">
     <path d="M 209.334802 460.621468 
L 206.257306 463.407368 
" style="fill: none; stroke: #000000; stroke-width: 0.8; stroke-linecap: square"/>
    </g>
    <g id="text_2">
     <!-- 01 -->
     <g transform="translate(181.023931 505.435143) rotate(-45) scale(0.21 -0.21)">
      <defs>
       <path id="DejaVuSans-31" d="M 794 531 
L 1825 531 
L 1825 4091 
L 703 3866 
L 703 4441 
L 1819 4666 
L 2450 4666 
L 2450 531 
L 3481 531 
L 3481 0 
L 794 0 
L 794 531 
z
" transform="scale(0.015625)"/>
      </defs>
      <use xlink:href="#DejaVuSans-30"/>
      <use xlink:href="#DejaVuSans-31" x="63.623047"/>
     </g>
    </g>
   </g>
   <g id="xtick_3">
    <g id="line2d_4">
     <path d="M 259.902405 476.82772 
L 256.877048 479.664949 
" style="fill: none; stroke: #000000; stroke-width: 0.8; stroke-linecap: square"/>
    </g>
    <g id="text_3">
     <!-- 10 -->
     <g transform="translate(231.60781 521.799516) rotate(-45) scale(0.21 -0.21)">
      <use xlink:href="#DejaVuSans-31"/>
      <use xlink:href="#DejaVuSans-30" x="63.623047"/>
     </g>
    </g>
   </g>
   <g id="xtick_4">
    <g id="line2d_5">
     <path d="M 311.405283 493.333715 
L 308.434531 496.223705 
" style="fill: none; stroke: #000000; stroke-width: 0.8; stroke-linecap: square"/>
    </g>
    <g id="text_4">
     <!-- 11 -->
     <g transform="translate(283.128654 538.467006) rotate(-45) scale(0.21 -0.21)">
      <use xlink:href="#DejaVuSans-31"/>
      <use xlink:href="#DejaVuSans-31" x="63.623047"/>
     </g>
    </g>
   </g>
  </g>
  <g id="axis3d_2">
   <g id="line2d_6">
    <path d="M 455.554898 390.069341 
L 340.912731 504.076731 
" style="fill: none; stroke: #000000; stroke-width: 0.8; stroke-linecap: square"/>
   </g>
   <g id="xtick_5">
    <g id="line2d_7">
     <path d="M 356.140222 486.651363 
L 361.364886 488.306415 
" style="fill: none; stroke: #000000; stroke-width: 0.8; stroke-linecap: square"/>
    </g>
    <g id="text_5">
     <!-- 00 -->
     <g transform="translate(368.70027 499.207917) rotate(-337.5) scale(0.21 -0.21)">
      <use xlink:href="#DejaVuSans-30"/>
      <use xlink:href="#DejaVuSans-30" x="63.623047"/>
     </g>
    </g>
   </g>
   <g id="xtick_6">
    <g id="line2d_8">
     <path d="M 384.5233 458.46129 
L 389.691587 460.064734 
" style="fill: none; stroke: #000000; stroke-width: 0.8; stroke-linecap: square"/>
    </g>
    <g id="text_6">
     <!-- 01 -->
     <g transform="translate(396.913817 470.822876) rotate(-337.5) scale(0.21 -0.21)">
      <use xlink:href="#DejaVuSans-30"/>
      <use xlink:href="#DejaVuSans-31" x="63.623047"/>
     </g>
    </g>
   </g>
   <g id="xtick_7">
    <g id="line2d_9">
     <path d="M 412.028511 431.143114 
L 417.141381 432.697327 
" style="fill: none; stroke: #000000; stroke-width: 0.8; stroke-linecap: square"/>
    </g>
    <g id="text_7">
     <!-- 10 -->
     <g transform="translate(424.254695 443.315808) rotate(-337.5) scale(0.21 -0.21)">
      <use xlink:href="#DejaVuSans-31"/>
      <use xlink:href="#DejaVuSans-30" x="63.623047"/>
     </g>
    </g>
   </g>
   <g id="xtick_8">
    <g id="line2d_10">
     <path d="M 438.695964 404.657001 
L 443.754368 406.164215 
" style="fill: none; stroke: #000000; stroke-width: 0.8; stroke-linecap: square"/>
    </g>
    <g id="text_8">
     <!-- 11 -->
     <g transform="translate(450.762776 416.646599) rotate(-337.5) scale(0.21 -0.21)">
      <use xlink:href="#DejaVuSans-31"/>
      <use xlink:href="#DejaVuSans-31" x="63.623047"/>
     </g>
    </g>
   </g>
  </g>
  <g id="axis3d_3">
   <g id="line2d_11">
    <path d="M 455.554898 390.069341 
L 462.583588 181.103065 
" style="fill: none; stroke: #000000; stroke-width: 0.8; stroke-linecap: square"/>
   </g>
   <g id="xtick_9">
    <g id="line2d_12">
     <path d="M 454.676617 365.645567 
L 459.729607 367.112794 
" style="fill: none; stroke: #000000; stroke-width: 0.8; stroke-linecap: square"/>
    </g>
    <g id="text_9">
     <!-- 0.00 -->
     <g transform="translate(469.905902 359.863568) scale(0.21 -0.21)">
      <defs>
       <path id="DejaVuSans-2e" d="M 684 794 
L 1344 794 
L 1344 0 
L 684 0 
L 684 794 
z
" transform="scale(0.015625)"/>
      </defs>
      <use xlink:href="#DejaVuSans-30"/>
      <use xlink:href="#DejaVuSans-2e" x="63.623047"/>
      <use xlink:href="#DejaVuSans-30" x="95.410156"/>
      <use xlink:href="#DejaVuSans-30" x="159.033203"/>
     </g>
    </g>
   </g>
   <g id="xtick_10">
    <g id="line2d_13">
     <path d="M 455.632225 336.932454 
L 460.716326 338.383148 
" style="fill: none; stroke: #000000; stroke-width: 0.8; stroke-linecap: square"/>
    </g>
    <g id="text_10">
     <!-- 0.05 -->
     <g transform="translate(470.951765 331.16641) scale(0.21 -0.21)">
      <defs>
       <path id="DejaVuSans-35" d="M 691 4666 
L 3169 4666 
L 3169 4134 
L 1269 4134 
L 1269 2991 
Q 1406 3038 1543 3061 
Q 1681 3084 1819 3084 
Q 2600 3084 3056 2656 
Q 3513 2228 3513 1497 
Q 3513 744 3044 326 
Q 2575 -91 1722 -91 
Q 1428 -91 1123 -41 
Q 819 9 494 109 
L 494 744 
Q 775 591 1075 516 
Q 1375 441 1709 441 
Q 2250 441 2565 725 
Q 2881 1009 2881 1497 
Q 2881 1984 2565 2268 
Q 2250 2553 1709 2553 
Q 1456 2553 1204 2497 
Q 953 2441 691 2322 
L 691 4666 
z
" transform="scale(0.015625)"/>
      </defs>
      <use xlink:href="#DejaVuSans-30"/>
      <use xlink:href="#DejaVuSans-2e" x="63.623047"/>
      <use xlink:href="#DejaVuSans-30" x="95.410156"/>
      <use xlink:href="#DejaVuSans-35" x="159.033203"/>
     </g>
    </g>
   </g>
   <g id="xtick_11">
    <g id="line2d_14">
     <path d="M 456.59934 307.873585 
L 461.714937 309.307239 
" style="fill: none; stroke: #000000; stroke-width: 0.8; stroke-linecap: square"/>
    </g>
    <g id="text_11">
     <!-- 0.10 -->
     <g transform="translate(472.01021 302.123984) scale(0.21 -0.21)">
      <use xlink:href="#DejaVuSans-30"/>
      <use xlink:href="#DejaVuSans-2e" x="63.623047"/>
      <use xlink:href="#DejaVuSans-31" x="95.410156"/>
      <use xlink:href="#DejaVuSans-30" x="159.033203"/>
     </g>
    </g>
   </g>
   <g id="xtick_12">
    <g id="line2d_15">
     <path d="M 457.578171 278.462676 
L 462.725656 279.87877 
" style="fill: none; stroke: #000000; stroke-width: 0.8; stroke-linecap: square"/>
    </g>
    <g id="text_12">
     <!-- 0.15 -->
     <g transform="translate(473.081468 272.73002) scale(0.21 -0.21)">
      <use xlink:href="#DejaVuSans-30"/>
      <use xlink:href="#DejaVuSans-2e" x="63.623047"/>
      <use xlink:href="#DejaVuSans-31" x="95.410156"/>
      <use xlink:href="#DejaVuSans-35" x="159.033203"/>
     </g>
    </g>
   </g>
   <g id="xtick_13">
    <g id="line2d_16">
     <path d="M 458.568932 248.693292 
L 463.748706 250.09129 
" style="fill: none; stroke: #000000; stroke-width: 0.8; stroke-linecap: square"/>
    </g>
    <g id="text_13">
     <!-- 0.20 -->
     <g transform="translate(474.165771 242.978097) scale(0.21 -0.21)">
      <defs>
       <path id="DejaVuSans-32" d="M 1228 531 
L 3431 531 
L 3431 0 
L 469 0 
L 469 531 
Q 828 903 1448 1529 
Q 2069 2156 2228 2338 
Q 2531 2678 2651 2914 
Q 2772 3150 2772 3378 
Q 2772 3750 2511 3984 
Q 2250 4219 1831 4219 
Q 1534 4219 1204 4116 
Q 875 4013 500 3803 
L 500 4441 
Q 881 4594 1212 4672 
Q 1544 4750 1819 4750 
Q 2544 4750 2975 4387 
Q 3406 4025 3406 3419 
Q 3406 3131 3298 2873 
Q 3191 2616 2906 2266 
Q 2828 2175 2409 1742 
Q 1991 1309 1228 531 
z
" transform="scale(0.015625)"/>
      </defs>
      <use xlink:href="#DejaVuSans-30"/>
      <use xlink:href="#DejaVuSans-2e" x="63.623047"/>
      <use xlink:href="#DejaVuSans-32" x="95.410156"/>
      <use xlink:href="#DejaVuSans-30" x="159.033203"/>
     </g>
    </g>
   </g>
   <g id="xtick_14">
    <g id="line2d_17">
     <path d="M 459.571844 218.558837 
L 464.784312 219.938187 
" style="fill: none; stroke: #000000; stroke-width: 0.8; stroke-linecap: square"/>
    </g>
    <g id="text_14">
     <!-- 0.25 -->
     <g transform="translate(475.26336 212.861637) scale(0.21 -0.21)">
      <use xlink:href="#DejaVuSans-30"/>
      <use xlink:href="#DejaVuSans-2e" x="63.623047"/>
      <use xlink:href="#DejaVuSans-32" x="95.410156"/>
      <use xlink:href="#DejaVuSans-35" x="159.033203"/>
     </g>
    </g>
   </g>
   <g id="xtick_15">
    <g id="line2d_18">
     <path d="M 460.58713 188.052556 
L 465.832709 189.412689 
" style="fill: none; stroke: #000000; stroke-width: 0.8; stroke-linecap: square"/>
    </g>
    <g id="text_15">
     <!-- 0.30 -->
     <g transform="translate(476.374479 182.373897) scale(0.21 -0.21)">
      <defs>
       <path id="DejaVuSans-33" d="M 2597 2516 
Q 3050 2419 3304 2112 
Q 3559 1806 3559 1356 
Q 3559 666 3084 287 
Q 2609 -91 1734 -91 
Q 1441 -91 1130 -33 
Q 819 25 488 141 
L 488 750 
Q 750 597 1062 519 
Q 1375 441 1716 441 
Q 2309 441 2620 675 
Q 2931 909 2931 1356 
Q 2931 1769 2642 2001 
Q 2353 2234 1838 2234 
L 1294 2234 
L 1294 2753 
L 1863 2753 
Q 2328 2753 2575 2939 
Q 2822 3125 2822 3475 
Q 2822 3834 2567 4026 
Q 2313 4219 1838 4219 
Q 1578 4219 1281 4162 
Q 984 4106 628 3988 
L 628 4550 
Q 988 4650 1302 4700 
Q 1616 4750 1894 4750 
Q 2613 4750 3031 4423 
Q 3450 4097 3450 3541 
Q 3450 3153 3228 2886 
Q 3006 2619 2597 2516 
z
" transform="scale(0.015625)"/>
      </defs>
      <use xlink:href="#DejaVuSans-30"/>
      <use xlink:href="#DejaVuSans-2e" x="63.623047"/>
      <use xlink:href="#DejaVuSans-33" x="95.410156"/>
      <use xlink:href="#DejaVuSans-30" x="159.033203"/>
     </g>
    </g>
   </g>
  </g>
  <g id="axes_1">
   <g id="Poly3DCollection_1">
    <path d="M 259.695434 319.700277 
L 259.866748 343.199915 
L 283.572276 350.22848 
L 283.516297 326.662738 
z
" clip-path="url(#p26db4abbd6)" style="fill: #648fff"/>
    <path d="M 245.791079 355.411799 
L 269.612317 362.544934 
L 283.572276 350.22848 
L 259.866748 343.199915 
z
" clip-path="url(#p26db4abbd6)" style="fill: #577ddf"/>
    <path d="M 245.549358 331.797493 
L 245.791079 355.411799 
L 259.866748 343.199915 
L 259.695434 319.700277 
z
" clip-path="url(#p26db4abbd6)" style="fill: #324880"/>
    <path d="M 269.487059 338.864052 
L 283.516297 326.662738 
L 283.572276 350.22848 
L 269.612317 362.544934 
z
" clip-path="url(#p26db4abbd6)" style="fill: #648fff"/>
    <path d="M 245.549358 331.797493 
L 259.695434 319.700277 
L 283.516297 326.662738 
L 269.487059 338.864052 
z
" clip-path="url(#p26db4abbd6)" style="fill: #3f599f"/>
    <path d="M 245.549358 331.797493 
L 269.487059 338.864052 
L 269.612317 362.544934 
L 245.791079 355.411799 
z
" clip-path="url(#p26db4abbd6)" style="fill: #324880"/>
    <path d="M 307.541817 333.685017 
L 307.480474 357.317135 
L 331.593953 364.466656 
L 331.774644 340.767889 
z
" clip-path="url(#p26db4abbd6)" style="fill: #648fff"/>
    <path d="M 293.638733 369.739508 
L 317.872991 376.99632 
L 331.593953 364.466656 
L 307.480474 357.317135 
z
" clip-path="url(#p26db4abbd6)" style="fill: #577ddf"/>
    <path d="M 293.631963 345.991779 
L 293.638733 369.739508 
L 307.480474 357.317135 
L 307.541817 333.685017 
z
" clip-path="url(#p26db4abbd6)" style="fill: #324880"/>
    <path d="M 317.986772 353.181472 
L 331.774644 340.767889 
L 331.593953 364.466656 
L 317.872991 376.99632 
z
" clip-path="url(#p26db4abbd6)" style="fill: #648fff"/>
    <path d="M 293.631963 345.991779 
L 307.541817 333.685017 
L 331.774644 340.767889 
L 317.986772 353.181472 
z
" clip-path="url(#p26db4abbd6)" style="fill: #3f599f"/>
    <path d="M 231.191443 344.075866 
L 231.505663 367.805657 
L 255.443436 375.045713 
L 255.246819 351.248876 
z
" clip-path="url(#p26db4abbd6)" style="fill: #648fff"/>
    <path d="M 293.631963 345.991779 
L 317.986772 353.181472 
L 317.872991 376.99632 
L 293.638733 369.739508 
z
" clip-path="url(#p26db4abbd6)" style="fill: #324880"/>
    <path d="M 217.005775 380.385588 
L 241.060907 387.734988 
L 255.443436 375.045713 
L 231.505663 367.805657 
z
" clip-path="url(#p26db4abbd6)" style="fill: #577ddf"/>
    <path d="M 216.616893 356.539498 
L 217.005775 380.385588 
L 231.505663 367.805657 
L 231.191443 344.075866 
z
" clip-path="url(#p26db4abbd6)" style="fill: #324880"/>
    <path d="M 240.79078 363.821382 
L 255.246819 351.248876 
L 255.443436 375.045713 
L 241.060907 387.734988 
z
" clip-path="url(#p26db4abbd6)" style="fill: #648fff"/>
    <path d="M 216.616893 356.539498 
L 231.191443 344.075866 
L 255.246819 351.248876 
L 240.79078 363.821382 
z
" clip-path="url(#p26db4abbd6)" style="fill: #3f599f"/>
    <path d="M 216.616893 356.539498 
L 240.79078 363.821382 
L 241.060907 387.734988 
L 217.005775 380.385588 
z
" clip-path="url(#p26db4abbd6)" style="fill: #324880"/>
    <path d="M 279.511989 358.484444 
L 279.588941 382.348599 
L 303.944894 389.715135 
L 303.989711 365.783392 
z
" clip-path="url(#p26db4abbd6)" style="fill: #648fff"/>
    <path d="M 265.326371 395.148648 
L 289.804936 402.627416 
L 303.944894 389.715135 
L 279.588941 382.348599 
z
" clip-path="url(#p26db4abbd6)" style="fill: #577ddf"/>
    <path d="M 265.177099 371.167257 
L 265.326371 395.148648 
L 279.588941 382.348599 
L 279.511989 358.484444 
z
" clip-path="url(#p26db4abbd6)" style="fill: #324880"/>
    <path d="M 289.778664 378.57797 
L 303.989711 365.783392 
L 303.944894 389.715135 
L 289.804936 402.627416 
z
" clip-path="url(#p26db4abbd6)" style="fill: #648fff"/>
    <path d="M 265.177099 371.167257 
L 279.511989 358.484444 
L 303.989711 365.783392 
L 289.778664 378.57797 
z
" clip-path="url(#p26db4abbd6)" style="fill: #3f599f"/>
    <path d="M 265.177099 371.167257 
L 289.778664 378.57797 
L 289.804936 402.627416 
L 265.326371 395.148648 
z
" clip-path="url(#p26db4abbd6)" style="fill: #324880"/>
    <path d="M 300.295935 399.161952 
L 300.269021 423.398695 
L 325.311406 431.128178 
L 325.467067 406.822383 
z
" clip-path="url(#p26db4abbd6)" style="fill: #648fff"/>
    <path d="M 285.817832 436.830448 
L 310.990344 444.680593 
L 325.311406 431.128178 
L 300.269021 423.398695 
z
" clip-path="url(#p26db4abbd6)" style="fill: #577ddf"/>
    <path d="M 285.770486 412.473935 
L 285.817832 436.830448 
L 300.269021 423.398695 
L 300.295935 399.161952 
z
" clip-path="url(#p26db4abbd6)" style="fill: #324880"/>
    <path d="M 311.073091 420.254569 
L 325.467067 406.822383 
L 325.311406 431.128178 
L 310.990344 444.680593 
z
" clip-path="url(#p26db4abbd6)" style="fill: #648fff"/>
    <path d="M 285.770486 412.473935 
L 300.295935 399.161952 
L 325.467067 406.822383 
L 311.073091 420.254569 
z
" clip-path="url(#p26db4abbd6)" style="fill: #3f599f"/>
    <path d="M 285.770486 412.473935 
L 311.073091 420.254569 
L 310.990344 444.680593 
L 285.817832 436.830448 
z
" clip-path="url(#p26db4abbd6)" style="fill: #324880"/>
    <path d="M 350.86511 414.55187 
L 350.578383 438.926983 
L 376.072987 446.796046 
L 376.493146 422.351353 
z
" clip-path="url(#p26db4abbd6)" style="fill: #648fff"/>
    <path d="M 336.390382 452.601693 
L 362.021045 460.594713 
L 376.072987 446.796046 
L 350.578383 438.926983 
z
" clip-path="url(#p26db4abbd6)" style="fill: #577ddf"/>
    <path d="M 336.605586 428.105896 
L 336.390382 452.601693 
L 350.578383 438.926983 
L 350.86511 414.55187 
z
" clip-path="url(#p26db4abbd6)" style="fill: #324880"/>
    <path d="M 362.37112 436.028882 
L 376.493146 422.351353 
L 376.072987 446.796046 
L 362.021045 460.594713 
z
" clip-path="url(#p26db4abbd6)" style="fill: #648fff"/>
    <path d="M 336.605586 428.105896 
L 350.86511 414.55187 
L 376.493146 422.351353 
L 362.37112 436.028882 
z
" clip-path="url(#p26db4abbd6)" style="fill: #3f599f"/>
    <path d="M 271.01673 425.995151 
L 271.140677 450.472227 
L 296.444335 458.445881 
L 296.451843 433.898841 
z
" clip-path="url(#p26db4abbd6)" style="fill: #648fff"/>
    <path d="M 336.605586 428.105896 
L 362.37112 436.028882 
L 362.021045 460.594713 
L 336.390382 452.601693 
z
" clip-path="url(#p26db4abbd6)" style="fill: #324880"/>
    <path d="M 256.232215 464.328996 
L 281.668038 472.429097 
L 296.444335 458.445881 
L 271.140677 450.472227 
z
" clip-path="url(#p26db4abbd6)" style="fill: #577ddf"/>
    <path d="M 256.029242 439.730574 
L 256.232215 464.328996 
L 271.140677 450.472227 
L 271.01673 425.995151 
z
" clip-path="url(#p26db4abbd6)" style="fill: #324880"/>
    <path d="M 281.597898 447.760261 
L 296.451843 433.898841 
L 296.444335 458.445881 
L 281.668038 472.429097 
z
" clip-path="url(#p26db4abbd6)" style="fill: #648fff"/>
    <path d="M 256.029242 439.730574 
L 271.01673 425.995151 
L 296.451843 433.898841 
L 281.597898 447.760261 
z
" clip-path="url(#p26db4abbd6)" style="fill: #3f599f"/>
    <path d="M 256.029242 439.730574 
L 281.597898 447.760261 
L 281.668038 472.429097 
L 256.232215 464.328996 
z
" clip-path="url(#p26db4abbd6)" style="fill: #324880"/>
    <path d="M 322.119883 441.87491 
L 321.978509 466.492174 
L 347.746364 474.612105 
L 348.024066 449.924358 
z
" clip-path="url(#p26db4abbd6)" style="fill: #648fff"/>
    <path d="M 307.337424 480.603576 
L 333.243605 488.853463 
L 347.746364 474.612105 
L 321.978509 466.492174 
z
" clip-path="url(#p26db4abbd6)" style="fill: #577ddf"/>
    <path d="M 307.402577 455.864069 
L 307.337424 480.603576 
L 321.978509 466.492174 
L 322.119883 441.87491 
z
" clip-path="url(#p26db4abbd6)" style="fill: #324880"/>
    <path d="M 333.446561 464.04303 
L 348.024066 449.924358 
L 347.746364 474.612105 
L 333.243605 488.853463 
z
" clip-path="url(#p26db4abbd6)" style="fill: #648fff"/>
    <path d="M 307.402577 455.864069 
L 322.119883 441.87491 
L 348.024066 449.924358 
L 333.446561 464.04303 
z
" clip-path="url(#p26db4abbd6)" style="fill: #3f599f"/>
    <path d="M 307.402577 455.864069 
L 333.446561 464.04303 
L 333.243605 488.853463 
L 307.337424 480.603576 
z
" clip-path="url(#p26db4abbd6)" style="fill: #324880"/>
   </g>
   <g id="Poly3DCollection_2">
    <path d="M 135.939165 411.159171 
L 339.218202 475.339055 
L 449.988617 367.029644 
L 254.884581 310.284668 
z
" clip-path="url(#p26db4abbd6)" style="fill-opacity: 0.25"/>
   </g>
   <g id="Poly3DCollection_3">
    <path d="M 342.554235 360.433941 
L 356.217473 347.912141 
L 380.873044 355.118574 
L 367.337151 367.750013 
z
" clip-path="url(#p26db4abbd6)" style="fill: #3f599f"/>
    <path d="M 392.338365 375.130529 
L 405.744148 362.388004 
L 430.833624 369.721261 
L 417.560775 382.576342 
z
" clip-path="url(#p26db4abbd6)" style="fill: #3f599f"/>
    <path d="M 186.797978 382.039563 
L 201.820768 369.192612 
L 226.113999 376.585868 
L 211.211383 389.546765 
z
" clip-path="url(#p26db4abbd6)" style="fill: #3f599f"/>
    <path d="M 356.217473 347.912141 
L 358.551812 164.276685 
L 384.162427 170.929412 
L 380.873044 355.118574 
z
" clip-path="url(#p26db4abbd6)" style="fill: #324880"/>
    <path d="M 314.598337 386.054384 
L 328.682789 373.146557 
L 353.594077 380.574789 
L 339.63903 393.597375 
z
" clip-path="url(#p26db4abbd6)" style="fill: #3f599f"/>
    <path d="M 342.554235 360.433941 
L 344.381762 175.837788 
L 358.551812 164.276685 
L 356.217473 347.912141 
z
" clip-path="url(#p26db4abbd6)" style="fill: #648fff"/>
    <path d="M 201.820768 369.192612 
L 199.684433 259.284141 
L 224.527484 266.352021 
L 226.113999 376.585868 
z
" clip-path="url(#p26db4abbd6)" style="fill: #324880"/>
    <path d="M 367.337151 367.750013 
L 380.873044 355.118574 
L 384.162427 170.929412 
L 370.129863 182.595643 
z
" clip-path="url(#p26db4abbd6)" style="fill: #324880"/>
    <path d="M 235.842641 397.120958 
L 250.622349 384.044592 
L 275.348687 391.569657 
L 260.694681 404.763042 
z
" clip-path="url(#p26db4abbd6)" style="fill: #3f599f"/>
    <path d="M 186.797978 382.039563 
L 184.297792 271.566616 
L 199.684433 259.284141 
L 201.820768 369.192612 
z
" clip-path="url(#p26db4abbd6)" style="fill: #648fff"/>
    <path d="M 342.554235 360.433941 
L 367.337151 367.750013 
L 370.129863 182.595643 
L 344.381762 175.837788 
z
" clip-path="url(#p26db4abbd6)" style="fill: #648fff"/>
    <path d="M 405.744148 362.388004 
L 410.005538 177.642533 
L 436.084327 184.416874 
L 430.833624 369.721261 
z
" clip-path="url(#p26db4abbd6)" style="fill: #324880"/>
    <path d="M 364.90371 401.207838 
L 378.726482 388.068956 
L 404.08296 395.629938 
L 390.395395 408.886681 
z
" clip-path="url(#p26db4abbd6)" style="fill: #3f599f"/>
    <path d="M 392.338365 375.130529 
L 396.113561 189.415334 
L 410.005538 177.642533 
L 405.744148 362.388004 
z
" clip-path="url(#p26db4abbd6)" style="fill: #648fff"/>
    <path d="M 211.211383 389.546765 
L 226.113999 376.585868 
L 224.527484 266.352021 
L 209.266481 278.745961 
z
" clip-path="url(#p26db4abbd6)" style="fill: #324880"/>
    <path d="M 186.797978 382.039563 
L 211.211383 389.546765 
L 209.266481 278.745961 
L 184.297792 271.566616 
z
" clip-path="url(#p26db4abbd6)" style="fill: #648fff"/>
    <path d="M 156.051242 408.333067 
L 171.543273 395.084838 
L 196.077677 402.708642 
L 180.707464 416.07621 
z
" clip-path="url(#p26db4abbd6)" style="fill: #3f599f"/>
    <path d="M 250.622349 384.044592 
L 249.595612 273.483936 
L 274.891889 280.68076 
L 275.348687 391.569657 
z
" clip-path="url(#p26db4abbd6)" style="fill: #324880"/>
    <path d="M 417.560775 382.576342 
L 430.833624 369.721261 
L 436.084327 184.416874 
L 422.336105 196.297712 
z
" clip-path="url(#p26db4abbd6)" style="fill: #324880"/>
    <path d="M 328.682789 373.146557 
L 329.987414 187.581891 
L 355.874158 194.447387 
L 353.594077 380.574789 
z
" clip-path="url(#p26db4abbd6)" style="fill: #324880"/>
    <path d="M 235.842641 397.120958 
L 234.463173 285.990864 
L 249.595612 273.483936 
L 250.622349 384.044592 
z
" clip-path="url(#p26db4abbd6)" style="fill: #648fff"/>
    <path d="M 392.338365 375.130529 
L 417.560775 382.576342 
L 422.336105 196.297712 
L 396.113561 189.415334 
z
" clip-path="url(#p26db4abbd6)" style="fill: #648fff"/>
    <path d="M 314.598337 386.054384 
L 315.363401 199.513374 
L 329.987414 187.581891 
L 328.682789 373.146557 
z
" clip-path="url(#p26db4abbd6)" style="fill: #648fff"/>
    <path d="M 260.694681 404.763042 
L 275.348687 391.569657 
L 274.891889 280.68076 
L 259.891007 293.302228 
z
" clip-path="url(#p26db4abbd6)" style="fill: #324880"/>
    <path d="M 184.297792 271.566616 
L 209.266481 278.745961 
L 224.527484 266.352021 
L 199.684433 259.284141 
z
" clip-path="url(#p26db4abbd6)" style="fill: #577ddf"/>
    <path d="M 171.543273 395.084838 
L 168.668088 284.043117 
L 193.763295 291.336584 
L 196.077677 402.708642 
z
" clip-path="url(#p26db4abbd6)" style="fill: #324880"/>
    <path d="M 339.63903 393.597375 
L 353.594077 380.574789 
L 355.874158 194.447387 
L 341.389947 206.489104 
z
" clip-path="url(#p26db4abbd6)" style="fill: #324880"/>
    <path d="M 235.842641 397.120958 
L 260.694681 404.763042 
L 259.891007 293.302228 
L 234.463173 285.990864 
z
" clip-path="url(#p26db4abbd6)" style="fill: #648fff"/>
    <path d="M 205.587162 423.889533 
L 220.832719 410.401006 
L 245.811388 418.162861 
L 230.693385 431.773996 
z
" clip-path="url(#p26db4abbd6)" style="fill: #3f599f"/>
    <path d="M 156.051242 408.333067 
L 152.789516 296.71828 
L 168.668088 284.043117 
L 171.543273 395.084838 
z
" clip-path="url(#p26db4abbd6)" style="fill: #648fff"/>
    <path d="M 344.381762 175.837788 
L 370.129863 182.595643 
L 384.162427 170.929412 
L 358.551812 164.276685 
z
" clip-path="url(#p26db4abbd6)" style="fill: #577ddf"/>
    <path d="M 314.598337 386.054384 
L 339.63903 393.597375 
L 341.389947 206.489104 
L 315.363401 199.513374 
z
" clip-path="url(#p26db4abbd6)" style="fill: #648fff"/>
    <path d="M 378.726482 388.068956 
L 381.999659 201.376205 
L 408.367237 208.369225 
L 404.08296 395.629938 
z
" clip-path="url(#p26db4abbd6)" style="fill: #324880"/>
    <path d="M 364.90371 401.207838 
L 367.658473 213.52969 
L 381.999659 201.376205 
L 378.726482 388.068956 
z
" clip-path="url(#p26db4abbd6)" style="fill: #648fff"/>
    <path d="M 180.707464 416.07621 
L 196.077677 402.708642 
L 193.763295 291.336584 
L 178.012115 304.128612 
z
" clip-path="url(#p26db4abbd6)" style="fill: #324880"/>
    <path d="M 156.051242 408.333067 
L 180.707464 416.07621 
L 178.012115 304.128612 
L 152.789516 296.71828 
z
" clip-path="url(#p26db4abbd6)" style="fill: #648fff"/>
    <path d="M 234.463173 285.990864 
L 259.891007 293.302228 
L 274.891889 280.68076 
L 249.595612 273.483936 
z
" clip-path="url(#p26db4abbd6)" style="fill: #577ddf"/>
    <path d="M 220.832719 410.401006 
L 219.089487 298.697183 
L 244.649868 306.125844 
L 245.811388 418.162861 
z
" clip-path="url(#p26db4abbd6)" style="fill: #324880"/>
    <path d="M 390.395395 408.886681 
L 404.08296 395.629938 
L 408.367237 208.369225 
L 394.172369 220.636041 
z
" clip-path="url(#p26db4abbd6)" style="fill: #324880"/>
    <path d="M 205.587162 423.889533 
L 203.468737 311.607699 
L 219.089487 298.697183 
L 220.832719 410.401006 
z
" clip-path="url(#p26db4abbd6)" style="fill: #648fff"/>
    <path d="M 396.113561 189.415334 
L 422.336105 196.297712 
L 436.084327 184.416874 
L 410.005538 177.642533 
z
" clip-path="url(#p26db4abbd6)" style="fill: #577ddf"/>
    <path d="M 364.90371 401.207838 
L 390.395395 408.886681 
L 394.172369 220.636041 
L 367.658473 213.52969 
z
" clip-path="url(#p26db4abbd6)" style="fill: #648fff"/>
    <path d="M 230.693385 431.773996 
L 245.811388 418.162861 
L 244.649868 306.125844 
L 229.162655 319.156503 
z
" clip-path="url(#p26db4abbd6)" style="fill: #324880"/>
    <path d="M 152.789516 296.71828 
L 178.012115 304.128612 
L 193.763295 291.336584 
L 168.668088 284.043117 
z
" clip-path="url(#p26db4abbd6)" style="fill: #577ddf"/>
    <path d="M 205.587162 423.889533 
L 230.693385 431.773996 
L 229.162655 319.156503 
L 203.468737 311.607699 
z
" clip-path="url(#p26db4abbd6)" style="fill: #648fff"/>
    <path d="M 315.363401 199.513374 
L 341.389947 206.489104 
L 355.874158 194.447387 
L 329.987414 187.581891 
z
" clip-path="url(#p26db4abbd6)" style="fill: #577ddf"/>
    <path d="M 203.468737 311.607699 
L 229.162655 319.156503 
L 244.649868 306.125844 
L 219.089487 298.697183 
z
" clip-path="url(#p26db4abbd6)" style="fill: #577ddf"/>
    <path d="M 367.658473 213.52969 
L 394.172369 220.636041 
L 408.367237 208.369225 
L 381.999659 201.376205 
z
" clip-path="url(#p26db4abbd6)" style="fill: #577ddf"/>
   </g>
   <g id="text_16">
    <!-- Real Amplitude (ρ) -->
    <g transform="translate(190.023516 51.6) scale(0.21 -0.21)">
     <defs>
      <path id="DejaVuSans-52" d="M 2841 2188 
Q 3044 2119 3236 1894 
Q 3428 1669 3622 1275 
L 4263 0 
L 3584 0 
L 2988 1197 
Q 2756 1666 2539 1819 
Q 2322 1972 1947 1972 
L 1259 1972 
L 1259 0 
L 628 0 
L 628 4666 
L 2053 4666 
Q 2853 4666 3247 4331 
Q 3641 3997 3641 3322 
Q 3641 2881 3436 2590 
Q 3231 2300 2841 2188 
z
M 1259 4147 
L 1259 2491 
L 2053 2491 
Q 2509 2491 2742 2702 
Q 2975 2913 2975 3322 
Q 2975 3731 2742 3939 
Q 2509 4147 2053 4147 
L 1259 4147 
z
" transform="scale(0.015625)"/>
      <path id="DejaVuSans-65" d="M 3597 1894 
L 3597 1613 
L 953 1613 
Q 991 1019 1311 708 
Q 1631 397 2203 397 
Q 2534 397 2845 478 
Q 3156 559 3463 722 
L 3463 178 
Q 3153 47 2828 -22 
Q 2503 -91 2169 -91 
Q 1331 -91 842 396 
Q 353 884 353 1716 
Q 353 2575 817 3079 
Q 1281 3584 2069 3584 
Q 2775 3584 3186 3129 
Q 3597 2675 3597 1894 
z
M 3022 2063 
Q 3016 2534 2758 2815 
Q 2500 3097 2075 3097 
Q 1594 3097 1305 2825 
Q 1016 2553 972 2059 
L 3022 2063 
z
" transform="scale(0.015625)"/>
      <path id="DejaVuSans-61" d="M 2194 1759 
Q 1497 1759 1228 1600 
Q 959 1441 959 1056 
Q 959 750 1161 570 
Q 1363 391 1709 391 
Q 2188 391 2477 730 
Q 2766 1069 2766 1631 
L 2766 1759 
L 2194 1759 
z
M 3341 1997 
L 3341 0 
L 2766 0 
L 2766 531 
Q 2569 213 2275 61 
Q 1981 -91 1556 -91 
Q 1019 -91 701 211 
Q 384 513 384 1019 
Q 384 1609 779 1909 
Q 1175 2209 1959 2209 
L 2766 2209 
L 2766 2266 
Q 2766 2663 2505 2880 
Q 2244 3097 1772 3097 
Q 1472 3097 1187 3025 
Q 903 2953 641 2809 
L 641 3341 
Q 956 3463 1253 3523 
Q 1550 3584 1831 3584 
Q 2591 3584 2966 3190 
Q 3341 2797 3341 1997 
z
" transform="scale(0.015625)"/>
      <path id="DejaVuSans-6c" d="M 603 4863 
L 1178 4863 
L 1178 0 
L 603 0 
L 603 4863 
z
" transform="scale(0.015625)"/>
      <path id="DejaVuSans-20" transform="scale(0.015625)"/>
      <path id="DejaVuSans-41" d="M 2188 4044 
L 1331 1722 
L 3047 1722 
L 2188 4044 
z
M 1831 4666 
L 2547 4666 
L 4325 0 
L 3669 0 
L 3244 1197 
L 1141 1197 
L 716 0 
L 50 0 
L 1831 4666 
z
" transform="scale(0.015625)"/>
      <path id="DejaVuSans-6d" d="M 3328 2828 
Q 3544 3216 3844 3400 
Q 4144 3584 4550 3584 
Q 5097 3584 5394 3201 
Q 5691 2819 5691 2113 
L 5691 0 
L 5113 0 
L 5113 2094 
Q 5113 2597 4934 2840 
Q 4756 3084 4391 3084 
Q 3944 3084 3684 2787 
Q 3425 2491 3425 1978 
L 3425 0 
L 2847 0 
L 2847 2094 
Q 2847 2600 2669 2842 
Q 2491 3084 2119 3084 
Q 1678 3084 1418 2786 
Q 1159 2488 1159 1978 
L 1159 0 
L 581 0 
L 581 3500 
L 1159 3500 
L 1159 2956 
Q 1356 3278 1631 3431 
Q 1906 3584 2284 3584 
Q 2666 3584 2933 3390 
Q 3200 3197 3328 2828 
z
" transform="scale(0.015625)"/>
      <path id="DejaVuSans-70" d="M 1159 525 
L 1159 -1331 
L 581 -1331 
L 581 3500 
L 1159 3500 
L 1159 2969 
Q 1341 3281 1617 3432 
Q 1894 3584 2278 3584 
Q 2916 3584 3314 3078 
Q 3713 2572 3713 1747 
Q 3713 922 3314 415 
Q 2916 -91 2278 -91 
Q 1894 -91 1617 61 
Q 1341 213 1159 525 
z
M 3116 1747 
Q 3116 2381 2855 2742 
Q 2594 3103 2138 3103 
Q 1681 3103 1420 2742 
Q 1159 2381 1159 1747 
Q 1159 1113 1420 752 
Q 1681 391 2138 391 
Q 2594 391 2855 752 
Q 3116 1113 3116 1747 
z
" transform="scale(0.015625)"/>
      <path id="DejaVuSans-69" d="M 603 3500 
L 1178 3500 
L 1178 0 
L 603 0 
L 603 3500 
z
M 603 4863 
L 1178 4863 
L 1178 4134 
L 603 4134 
L 603 4863 
z
" transform="scale(0.015625)"/>
      <path id="DejaVuSans-74" d="M 1172 4494 
L 1172 3500 
L 2356 3500 
L 2356 3053 
L 1172 3053 
L 1172 1153 
Q 1172 725 1289 603 
Q 1406 481 1766 481 
L 2356 481 
L 2356 0 
L 1766 0 
Q 1100 0 847 248 
Q 594 497 594 1153 
L 594 3053 
L 172 3053 
L 172 3500 
L 594 3500 
L 594 4494 
L 1172 4494 
z
" transform="scale(0.015625)"/>
      <path id="DejaVuSans-75" d="M 544 1381 
L 544 3500 
L 1119 3500 
L 1119 1403 
Q 1119 906 1312 657 
Q 1506 409 1894 409 
Q 2359 409 2629 706 
Q 2900 1003 2900 1516 
L 2900 3500 
L 3475 3500 
L 3475 0 
L 2900 0 
L 2900 538 
Q 2691 219 2414 64 
Q 2138 -91 1772 -91 
Q 1169 -91 856 284 
Q 544 659 544 1381 
z
M 1991 3584 
L 1991 3584 
z
" transform="scale(0.015625)"/>
      <path id="DejaVuSans-64" d="M 2906 2969 
L 2906 4863 
L 3481 4863 
L 3481 0 
L 2906 0 
L 2906 525 
Q 2725 213 2448 61 
Q 2172 -91 1784 -91 
Q 1150 -91 751 415 
Q 353 922 353 1747 
Q 353 2572 751 3078 
Q 1150 3584 1784 3584 
Q 2172 3584 2448 3432 
Q 2725 3281 2906 2969 
z
M 947 1747 
Q 947 1113 1208 752 
Q 1469 391 1925 391 
Q 2381 391 2643 752 
Q 2906 1113 2906 1747 
Q 2906 2381 2643 2742 
Q 2381 3103 1925 3103 
Q 1469 3103 1208 2742 
Q 947 2381 947 1747 
z
" transform="scale(0.015625)"/>
      <path id="DejaVuSans-28" d="M 1984 4856 
Q 1566 4138 1362 3434 
Q 1159 2731 1159 2009 
Q 1159 1288 1364 580 
Q 1569 -128 1984 -844 
L 1484 -844 
Q 1016 -109 783 600 
Q 550 1309 550 2009 
Q 550 2706 781 3412 
Q 1013 4119 1484 4856 
L 1984 4856 
z
" transform="scale(0.015625)"/>
      <path id="DejaVuSans-3c1" d="M 863 2875 
Q 1053 3194 1525 3475 
Q 1709 3584 2278 3584 
Q 2916 3584 3314 3078 
Q 3713 2572 3713 1747 
Q 3713 922 3314 415 
Q 2916 -91 2278 -91 
Q 1894 -91 1617 61 
Q 1341 213 1159 525 
L 1159 -1331 
L 581 -1331 
L 581 1716 
Q 581 2438 863 2875 
z
M 3116 1747 
Q 3116 2381 2855 2742 
Q 2594 3103 2138 3103 
Q 1681 3103 1420 2742 
Q 1159 2381 1159 1747 
Q 1159 1113 1420 752 
Q 1681 391 2138 391 
Q 2594 391 2855 752 
Q 3116 1113 3116 1747 
z
" transform="scale(0.015625)"/>
      <path id="DejaVuSans-29" d="M 513 4856 
L 1013 4856 
Q 1481 4119 1714 3412 
Q 1947 2706 1947 2009 
Q 1947 1309 1714 600 
Q 1481 -109 1013 -844 
L 513 -844 
Q 928 -128 1133 580 
Q 1338 1288 1338 2009 
Q 1338 2731 1133 3434 
Q 928 4138 513 4856 
z
" transform="scale(0.015625)"/>
     </defs>
     <use xlink:href="#DejaVuSans-52"/>
     <use xlink:href="#DejaVuSans-65" x="64.982422"/>
     <use xlink:href="#DejaVuSans-61" x="126.505859"/>
     <use xlink:href="#DejaVuSans-6c" x="187.785156"/>
     <use xlink:href="#DejaVuSans-20" x="215.568359"/>
     <use xlink:href="#DejaVuSans-41" x="247.355469"/>
     <use xlink:href="#DejaVuSans-6d" x="315.763672"/>
     <use xlink:href="#DejaVuSans-70" x="413.175781"/>
     <use xlink:href="#DejaVuSans-6c" x="476.652344"/>
     <use xlink:href="#DejaVuSans-69" x="504.435547"/>
     <use xlink:href="#DejaVuSans-74" x="532.21875"/>
     <use xlink:href="#DejaVuSans-75" x="571.427734"/>
     <use xlink:href="#DejaVuSans-64" x="634.806641"/>
     <use xlink:href="#DejaVuSans-65" x="698.283203"/>
     <use xlink:href="#DejaVuSans-20" x="759.806641"/>
     <use xlink:href="#DejaVuSans-28" x="791.59375"/>
     <use xlink:href="#DejaVuSans-3c1" x="830.607422"/>
     <use xlink:href="#DejaVuSans-29" x="894.083984"/>
    </g>
   </g>
  </g>
  <g id="patch_6">
   <path d="M 604.8 576 
L 1123.2 576 
L 1123.2 57.6 
L 604.8 57.6 
z
" style="fill: #ffffff"/>
  </g>
  <g id="pane3d_4">
   <g id="patch_7">
    <path d="M 706.07018 436.456468 
L 829.494133 330.550231 
L 827.743197 126.70673 
L 698.643358 223.613571 
" style="fill: #f2f2f2; opacity: 0.5; stroke: #f2f2f2; stroke-linejoin: miter"/>
   </g>
  </g>
  <g id="pane3d_5">
   <g id="patch_8">
    <path d="M 829.494133 330.550231 
L 1031.554898 390.069341 
L 1038.583588 181.103065 
L 827.743197 126.70673 
" style="fill: #e6e6e6; opacity: 0.5; stroke: #e6e6e6; stroke-linejoin: miter"/>
   </g>
  </g>
  <g id="pane3d_6">
   <g id="patch_9">
    <path d="M 706.07018 436.456468 
L 916.912731 504.076731 
L 1031.554898 390.069341 
L 829.494133 330.550231 
" style="fill: #ececec; opacity: 0.5; stroke: #ececec; stroke-linejoin: miter"/>
   </g>
  </g>
  <g id="grid3d_4">
   <g id="Line3DCollection_4">
    <path d="M 734.635886 445.617904 
L 856.925726 338.630493 
L 856.328796 134.081748 
" style="fill: none; stroke: #b0b0b0; stroke-width: 0.8"/>
    <path d="M 784.310046 461.549127 
L 904.58611 352.669358 
L 906.022474 146.902603 
" style="fill: none; stroke: #b0b0b0; stroke-width: 0.8"/>
    <path d="M 834.89502 477.772462 
L 953.066152 366.949661 
L 956.607663 159.953465 
" style="fill: none; stroke: #b0b0b0; stroke-width: 0.8"/>
    <path d="M 886.41609 494.296016 
L 1002.38718 381.477685 
L 1008.108569 173.24058 
" style="fill: none; stroke: #b0b0b0; stroke-width: 0.8"/>
   </g>
  </g>
  <g id="grid3d_5">
   <g id="Line3DCollection_5">
    <path d="M 717.757365 209.265931 
L 724.301379 420.812846 
L 933.880707 487.202708 
" style="fill: none; stroke: #b0b0b0; stroke-width: 0.8"/>
    <path d="M 749.704273 185.285468 
L 754.805664 394.638072 
L 962.24502 458.995448 
" style="fill: none; stroke: #b0b0b0; stroke-width: 0.8"/>
    <path d="M 780.65707 162.051218 
L 784.400054 369.24405 
L 989.731787 431.660877 
" style="fill: none; stroke: #b0b0b0; stroke-width: 0.8"/>
    <path d="M 810.661448 139.528886 
L 813.124663 344.596362 
L 1016.38111 405.159111 
" style="fill: none; stroke: #b0b0b0; stroke-width: 0.8"/>
   </g>
  </g>
  <g id="grid3d_6">
   <g id="Line3DCollection_6">
    <path d="M 1032.027051 376.032021 
L 829.376345 316.837435 
L 705.57184 422.174687 
" style="fill: none; stroke: #b0b0b0; stroke-width: 0.8"/>
    <path d="M 1033.266904 339.170594 
L 829.067155 280.84165 
L 704.262836 384.660389 
" style="fill: none; stroke: #b0b0b0; stroke-width: 0.8"/>
    <path d="M 1034.525999 301.737103 
L 828.753339 244.307164 
L 702.932953 346.547688 
" style="fill: none; stroke: #b0b0b0; stroke-width: 0.8"/>
    <path d="M 1035.804787 263.718126 
L 828.43479 207.221793 
L 701.581685 307.822151 
" style="fill: none; stroke: #b0b0b0; stroke-width: 0.8"/>
    <path d="M 1037.103734 225.099819 
L 828.111401 169.572983 
L 700.208514 268.468876 
" style="fill: none; stroke: #b0b0b0; stroke-width: 0.8"/>
    <path d="M 1038.42332 185.867897 
L 827.783062 131.347794 
L 698.812902 228.472476 
" style="fill: none; stroke: #b0b0b0; stroke-width: 0.8"/>
   </g>
  </g>
  <g id="axis3d_4">
   <g id="line2d_19">
    <path d="M 706.07018 436.456468 
L 916.912731 504.076731 
" style="fill: none; stroke: #000000; stroke-width: 0.8; stroke-linecap: square"/>
   </g>
   <g id="xtick_16">
    <g id="line2d_20">
     <path d="M 735.677227 444.706868 
L 732.549953 447.442819 
" style="fill: none; stroke: #000000; stroke-width: 0.8; stroke-linecap: square"/>
    </g>
    <g id="text_17">
     <!-- 00 -->
     <g transform="translate(707.351686 489.365693) rotate(-45) scale(0.21 -0.21)">
      <use xlink:href="#DejaVuSans-30"/>
      <use xlink:href="#DejaVuSans-30" x="63.623047"/>
     </g>
    </g>
   </g>
   <g id="xtick_17">
    <g id="line2d_21">
     <path d="M 785.334802 460.621468 
L 782.257306 463.407368 
" style="fill: none; stroke: #000000; stroke-width: 0.8; stroke-linecap: square"/>
    </g>
    <g id="text_18">
     <!-- 01 -->
     <g transform="translate(757.023931 505.435143) rotate(-45) scale(0.21 -0.21)">
      <use xlink:href="#DejaVuSans-30"/>
      <use xlink:href="#DejaVuSans-31" x="63.623047"/>
     </g>
    </g>
   </g>
   <g id="xtick_18">
    <g id="line2d_22">
     <path d="M 835.902405 476.82772 
L 832.877048 479.664949 
" style="fill: none; stroke: #000000; stroke-width: 0.8; stroke-linecap: square"/>
    </g>
    <g id="text_19">
     <!-- 10 -->
     <g transform="translate(807.60781 521.799516) rotate(-45) scale(0.21 -0.21)">
      <use xlink:href="#DejaVuSans-31"/>
      <use xlink:href="#DejaVuSans-30" x="63.623047"/>
     </g>
    </g>
   </g>
   <g id="xtick_19">
    <g id="line2d_23">
     <path d="M 887.405283 493.333715 
L 884.434531 496.223705 
" style="fill: none; stroke: #000000; stroke-width: 0.8; stroke-linecap: square"/>
    </g>
    <g id="text_20">
     <!-- 11 -->
     <g transform="translate(859.128654 538.467006) rotate(-45) scale(0.21 -0.21)">
      <use xlink:href="#DejaVuSans-31"/>
      <use xlink:href="#DejaVuSans-31" x="63.623047"/>
     </g>
    </g>
   </g>
  </g>
  <g id="axis3d_5">
   <g id="line2d_24">
    <path d="M 1031.554898 390.069341 
L 916.912731 504.076731 
" style="fill: none; stroke: #000000; stroke-width: 0.8; stroke-linecap: square"/>
   </g>
   <g id="xtick_20">
    <g id="line2d_25">
     <path d="M 932.140222 486.651363 
L 937.364886 488.306415 
" style="fill: none; stroke: #000000; stroke-width: 0.8; stroke-linecap: square"/>
    </g>
    <g id="text_21">
     <!-- 00 -->
     <g transform="translate(944.70027 499.207917) rotate(-337.5) scale(0.21 -0.21)">
      <use xlink:href="#DejaVuSans-30"/>
      <use xlink:href="#DejaVuSans-30" x="63.623047"/>
     </g>
    </g>
   </g>
   <g id="xtick_21">
    <g id="line2d_26">
     <path d="M 960.5233 458.46129 
L 965.691587 460.064734 
" style="fill: none; stroke: #000000; stroke-width: 0.8; stroke-linecap: square"/>
    </g>
    <g id="text_22">
     <!-- 01 -->
     <g transform="translate(972.913817 470.822876) rotate(-337.5) scale(0.21 -0.21)">
      <use xlink:href="#DejaVuSans-30"/>
      <use xlink:href="#DejaVuSans-31" x="63.623047"/>
     </g>
    </g>
   </g>
   <g id="xtick_22">
    <g id="line2d_27">
     <path d="M 988.028511 431.143114 
L 993.141381 432.697327 
" style="fill: none; stroke: #000000; stroke-width: 0.8; stroke-linecap: square"/>
    </g>
    <g id="text_23">
     <!-- 10 -->
     <g transform="translate(1000.254695 443.315808) rotate(-337.5) scale(0.21 -0.21)">
      <use xlink:href="#DejaVuSans-31"/>
      <use xlink:href="#DejaVuSans-30" x="63.623047"/>
     </g>
    </g>
   </g>
   <g id="xtick_23">
    <g id="line2d_28">
     <path d="M 1014.695964 404.657001 
L 1019.754368 406.164215 
" style="fill: none; stroke: #000000; stroke-width: 0.8; stroke-linecap: square"/>
    </g>
    <g id="text_24">
     <!-- 11 -->
     <g transform="translate(1026.762776 416.646599) rotate(-337.5) scale(0.21 -0.21)">
      <use xlink:href="#DejaVuSans-31"/>
      <use xlink:href="#DejaVuSans-31" x="63.623047"/>
     </g>
    </g>
   </g>
  </g>
  <g id="axis3d_6">
   <g id="line2d_29">
    <path d="M 1031.554898 390.069341 
L 1038.583588 181.103065 
" style="fill: none; stroke: #000000; stroke-width: 0.8; stroke-linecap: square"/>
   </g>
   <g id="xtick_24">
    <g id="line2d_30">
     <path d="M 1030.347273 375.541355 
L 1035.389544 377.01421 
" style="fill: none; stroke: #000000; stroke-width: 0.8; stroke-linecap: square"/>
    </g>
    <g id="text_25">
     <!-- −0.2 -->
     <g transform="translate(1045.54545 369.753925) scale(0.21 -0.21)">
      <defs>
       <path id="DejaVuSans-2212" d="M 678 2272 
L 4684 2272 
L 4684 1741 
L 678 1741 
L 678 2272 
z
" transform="scale(0.015625)"/>
      </defs>
      <use xlink:href="#DejaVuSans-2212"/>
      <use xlink:href="#DejaVuSans-30" x="83.789062"/>
      <use xlink:href="#DejaVuSans-2e" x="147.412109"/>
      <use xlink:href="#DejaVuSans-32" x="179.199219"/>
     </g>
    </g>
   </g>
   <g id="xtick_25">
    <g id="line2d_31">
     <path d="M 1031.573832 338.686974 
L 1036.656032 340.138687 
" style="fill: none; stroke: #000000; stroke-width: 0.8; stroke-linecap: square"/>
    </g>
    <g id="text_26">
     <!-- −0.1 -->
     <g transform="translate(1046.887857 332.919948) scale(0.21 -0.21)">
      <use xlink:href="#DejaVuSans-2212"/>
      <use xlink:href="#DejaVuSans-30" x="83.789062"/>
      <use xlink:href="#DejaVuSans-2e" x="147.412109"/>
      <use xlink:href="#DejaVuSans-31" x="179.199219"/>
     </g>
    </g>
   </g>
   <g id="xtick_26">
    <g id="line2d_32">
     <path d="M 1032.819421 301.260808 
L 1037.942187 302.690541 
" style="fill: none; stroke: #000000; stroke-width: 0.8; stroke-linecap: square"/>
    </g>
    <g id="text_27">
     <!-- 0.0 -->
     <g transform="translate(1048.251074 295.51499) scale(0.21 -0.21)">
      <use xlink:href="#DejaVuSans-30"/>
      <use xlink:href="#DejaVuSans-2e" x="63.623047"/>
      <use xlink:href="#DejaVuSans-30" x="95.410156"/>
     </g>
    </g>
   </g>
   <g id="xtick_27">
    <g id="line2d_33">
     <path d="M 1034.084486 263.249444 
L 1039.24847 264.656331 
" style="fill: none; stroke: #000000; stroke-width: 0.8; stroke-linecap: square"/>
    </g>
    <g id="text_28">
     <!-- 0.1 -->
     <g transform="translate(1049.635587 257.525673) scale(0.21 -0.21)">
      <use xlink:href="#DejaVuSans-30"/>
      <use xlink:href="#DejaVuSans-2e" x="63.623047"/>
      <use xlink:href="#DejaVuSans-31" x="95.410156"/>
     </g>
    </g>
   </g>
   <g id="xtick_28">
    <g id="line2d_34">
     <path d="M 1035.369487 224.63905 
L 1040.575358 226.022189 
" style="fill: none; stroke: #000000; stroke-width: 0.8; stroke-linecap: square"/>
    </g>
    <g id="text_29">
     <!-- 0.2 -->
     <g transform="translate(1051.041901 218.938193) scale(0.21 -0.21)">
      <use xlink:href="#DejaVuSans-30"/>
      <use xlink:href="#DejaVuSans-2e" x="63.623047"/>
      <use xlink:href="#DejaVuSans-32" x="95.410156"/>
     </g>
    </g>
   </g>
   <g id="xtick_29">
    <g id="line2d_35">
     <path d="M 1036.6749 185.415353 
L 1041.923342 186.773809 
" style="fill: none; stroke: #000000; stroke-width: 0.8; stroke-linecap: square"/>
    </g>
    <g id="text_30">
     <!-- 0.3 -->
     <g transform="translate(1052.470533 179.738312) scale(0.21 -0.21)">
      <use xlink:href="#DejaVuSans-30"/>
      <use xlink:href="#DejaVuSans-2e" x="63.623047"/>
      <use xlink:href="#DejaVuSans-33" x="95.410156"/>
     </g>
    </g>
   </g>
  </g>
  <g id="axes_2">
   <g id="Poly3DCollection_4">
    <path d="M 821.791079 355.411799 
L 845.612317 362.544934 
L 859.572276 350.22848 
L 835.866748 343.199915 
z
" clip-path="url(#p0ef66ce593)" style="fill: #577ddf"/>
    <path d="M 835.234749 256.506602 
L 835.866748 343.199915 
L 859.572276 350.22848 
L 859.36575 263.28645 
z
" clip-path="url(#p0ef66ce593)" style="fill: #648fff"/>
    <path d="M 820.899252 268.287013 
L 821.791079 355.411799 
L 835.866748 343.199915 
L 835.234749 256.506602 
z
" clip-path="url(#p0ef66ce593)" style="fill: #324880"/>
    <path d="M 869.638733 369.739508 
L 893.872991 376.99632 
L 907.593953 364.466656 
L 883.480474 357.317135 
z
" clip-path="url(#p0ef66ce593)" style="fill: #577ddf"/>
    <path d="M 845.150152 275.169569 
L 859.36575 263.28645 
L 859.572276 350.22848 
L 845.612317 362.544934 
z
" clip-path="url(#p0ef66ce593)" style="fill: #648fff"/>
    <path d="M 820.899252 268.287013 
L 845.150152 275.169569 
L 845.612317 362.544934 
L 821.791079 355.411799 
z
" clip-path="url(#p0ef66ce593)" style="fill: #324880"/>
    <path d="M 883.706802 270.125313 
L 883.480474 357.317135 
L 907.593953 364.466656 
L 908.26066 277.023965 
z
" clip-path="url(#p0ef66ce593)" style="fill: #648fff"/>
    <path d="M 793.005775 380.385588 
L 817.060907 387.734988 
L 831.443436 375.045713 
L 807.505663 367.805657 
z
" clip-path="url(#p0ef66ce593)" style="fill: #577ddf"/>
    <path d="M 869.61375 282.112489 
L 869.638733 369.739508 
L 883.480474 357.317135 
L 883.706802 270.125313 
z
" clip-path="url(#p0ef66ce593)" style="fill: #324880"/>
    <path d="M 820.899252 268.287013 
L 835.234749 256.506602 
L 859.36575 263.28645 
L 845.150152 275.169569 
z
" clip-path="url(#p0ef66ce593)" style="fill: #3f599f"/>
    <path d="M 894.292857 289.116572 
L 908.26066 277.023965 
L 907.593953 364.466656 
L 893.872991 376.99632 
z
" clip-path="url(#p0ef66ce593)" style="fill: #648fff"/>
    <path d="M 806.346236 280.246174 
L 807.505663 367.805657 
L 831.443436 375.045713 
L 830.717905 287.23379 
z
" clip-path="url(#p0ef66ce593)" style="fill: #648fff"/>
    <path d="M 869.61375 282.112489 
L 894.292857 289.116572 
L 893.872991 376.99632 
L 869.638733 369.739508 
z
" clip-path="url(#p0ef66ce593)" style="fill: #324880"/>
    <path d="M 791.570711 292.388184 
L 793.005775 380.385588 
L 807.505663 367.805657 
L 806.346236 280.246174 
z
" clip-path="url(#p0ef66ce593)" style="fill: #324880"/>
    <path d="M 841.326371 395.148648 
L 865.804936 402.627416 
L 879.944894 389.715135 
L 855.588941 382.348599 
z
" clip-path="url(#p0ef66ce593)" style="fill: #577ddf"/>
    <path d="M 816.064018 299.483284 
L 830.717905 287.23379 
L 831.443436 375.045713 
L 817.060907 387.734988 
z
" clip-path="url(#p0ef66ce593)" style="fill: #648fff"/>
    <path d="M 869.61375 282.112489 
L 883.706802 270.125313 
L 908.26066 277.023965 
L 894.292857 289.116572 
z
" clip-path="url(#p0ef66ce593)" style="fill: #3f599f"/>
    <path d="M 791.570711 292.388184 
L 816.064018 299.483284 
L 817.060907 387.734988 
L 793.005775 380.385588 
z
" clip-path="url(#p0ef66ce593)" style="fill: #324880"/>
    <path d="M 855.304968 294.283161 
L 855.588941 382.348599 
L 879.944894 389.715135 
L 880.110291 301.39511 
z
" clip-path="url(#p0ef66ce593)" style="fill: #648fff"/>
    <path d="M 840.775462 306.641573 
L 841.326371 395.148648 
L 855.588941 382.348599 
L 855.304968 294.283161 
z
" clip-path="url(#p0ef66ce593)" style="fill: #324880"/>
    <path d="M 791.570711 292.388184 
L 806.346236 280.246174 
L 830.717905 287.23379 
L 816.064018 299.483284 
z
" clip-path="url(#p0ef66ce593)" style="fill: #3f599f"/>
    <path d="M 865.707972 313.863899 
L 880.110291 301.39511 
L 879.944894 389.715135 
L 865.804936 402.627416 
z
" clip-path="url(#p0ef66ce593)" style="fill: #648fff"/>
    <path d="M 840.775462 306.641573 
L 865.707972 313.863899 
L 865.804936 402.627416 
L 841.326371 395.148648 
z
" clip-path="url(#p0ef66ce593)" style="fill: #324880"/>
    <path d="M 840.775462 306.641573 
L 855.304968 294.283161 
L 880.110291 301.39511 
L 865.707972 313.863899 
z
" clip-path="url(#p0ef66ce593)" style="fill: #3f599f"/>
    <path d="M 776.567535 304.71727 
L 776.567535 304.71727 
L 801.183345 311.922354 
L 801.183345 311.922354 
z
" clip-path="url(#p0ef66ce593)" style="fill: #648fff"/>
    <path d="M 761.331407 317.237789 
L 761.331407 317.237789 
L 776.567535 304.71727 
L 776.567535 304.71727 
z
" clip-path="url(#p0ef66ce593)" style="fill: #324880"/>
    <path d="M 905.136795 308.570474 
L 905.136795 308.570474 
L 930.387452 315.810104 
L 930.387452 315.810104 
z
" clip-path="url(#p0ef66ce593)" style="fill: #648fff"/>
    <path d="M 761.331407 317.237789 
L 776.567535 304.71727 
L 801.183345 311.922354 
L 786.070581 324.555433 
z
" clip-path="url(#p0ef66ce593)" style="fill: #3f599f"/>
    <path d="M 761.331407 317.237789 
L 786.070581 324.555433 
L 801.183345 311.922354 
L 776.567535 304.71727 
z
" clip-path="url(#p0ef66ce593)" style="fill: #577ddf"/>
    <path d="M 890.864526 321.151125 
L 890.864526 321.151125 
L 905.136795 308.570474 
L 905.136795 308.570474 
z
" clip-path="url(#p0ef66ce593)" style="fill: #324880"/>
    <path d="M 786.070581 324.555433 
L 801.183345 311.922354 
L 801.183345 311.922354 
L 786.070581 324.555433 
z
" clip-path="url(#p0ef66ce593)" style="fill: #648fff"/>
    <path d="M 890.864526 321.151125 
L 905.136795 308.570474 
L 930.387452 315.810104 
L 916.248158 328.50413 
z
" clip-path="url(#p0ef66ce593)" style="fill: #3f599f"/>
    <path d="M 890.864526 321.151125 
L 916.248158 328.50413 
L 930.387452 315.810104 
L 905.136795 308.570474 
z
" clip-path="url(#p0ef66ce593)" style="fill: #577ddf"/>
    <path d="M 761.331407 317.237789 
L 786.070581 324.555433 
L 786.070581 324.555433 
L 761.331407 317.237789 
z
" clip-path="url(#p0ef66ce593)" style="fill: #324880"/>
    <path d="M 916.248158 328.50413 
L 930.387452 315.810104 
L 930.387452 315.810104 
L 916.248158 328.50413 
z
" clip-path="url(#p0ef66ce593)" style="fill: #648fff"/>
    <path d="M 890.864526 321.151125 
L 916.248158 328.50413 
L 916.248158 328.50413 
L 890.864526 321.151125 
z
" clip-path="url(#p0ef66ce593)" style="fill: #324880"/>
    <path d="M 955.865285 323.114869 
L 955.865285 323.114869 
L 981.573375 330.48565 
L 981.573375 330.48565 
z
" clip-path="url(#p0ef66ce593)" style="fill: #648fff"/>
    <path d="M 941.861957 335.923808 
L 941.861957 335.923808 
L 955.865285 323.114869 
L 955.865285 323.114869 
z
" clip-path="url(#p0ef66ce593)" style="fill: #324880"/>
    <path d="M 941.861957 335.923808 
L 967.709068 343.411072 
L 981.573375 330.48565 
L 955.865285 323.114869 
z
" clip-path="url(#p0ef66ce593)" style="fill: #577ddf"/>
    <path d="M 941.861957 335.923808 
L 955.865285 323.114869 
L 981.573375 330.48565 
L 967.709068 343.411072 
z
" clip-path="url(#p0ef66ce593)" style="fill: #3f599f"/>
    <path d="M 967.709068 343.411072 
L 981.573375 330.48565 
L 981.573375 330.48565 
L 967.709068 343.411072 
z
" clip-path="url(#p0ef66ce593)" style="fill: #648fff"/>
    <path d="M 941.861957 335.923808 
L 967.709068 343.411072 
L 967.709068 343.411072 
L 941.861957 335.923808 
z
" clip-path="url(#p0ef66ce593)" style="fill: #324880"/>
   </g>
   <g id="Poly3DCollection_5">
    <path d="M 709.74563 345.627041 
L 915.850987 408.244065 
L 1028.07025 302.609516 
L 830.364197 247.339153 
z
" clip-path="url(#p0ef66ce593)" style="fill-opacity: 0.25"/>
   </g>
   <g id="Poly3DCollection_6">
    <path d="M 933.030125 283.983196 
L 933.030125 283.983196 
L 958.018052 291.003805 
L 958.018052 291.003805 
z
" clip-path="url(#p0ef66ce593)" style="fill: #324880"/>
    <path d="M 919.190332 296.18263 
L 919.190332 296.18263 
L 933.030125 283.983196 
L 933.030125 283.983196 
z
" clip-path="url(#p0ef66ce593)" style="fill: #648fff"/>
    <path d="M 919.190332 296.18263 
L 933.030125 283.983196 
L 958.018052 291.003805 
L 944.309087 303.311488 
z
" clip-path="url(#p0ef66ce593)" style="fill: #3f599f"/>
    <path d="M 919.190332 296.18263 
L 944.309087 303.311488 
L 958.018052 291.003805 
L 933.030125 283.983196 
z
" clip-path="url(#p0ef66ce593)" style="fill: #577ddf"/>
    <path d="M 944.309087 303.311488 
L 958.018052 291.003805 
L 958.018052 291.003805 
L 944.309087 303.311488 
z
" clip-path="url(#p0ef66ce593)" style="fill: #324880"/>
    <path d="M 919.190332 296.18263 
L 944.309087 303.311488 
L 944.309087 303.311488 
L 919.190332 296.18263 
z
" clip-path="url(#p0ef66ce593)" style="fill: #648fff"/>
    <path d="M 983.227342 298.086608 
L 983.227342 298.086608 
L 1008.660951 305.232436 
L 1008.660951 305.232436 
z
" clip-path="url(#p0ef66ce593)" style="fill: #324880"/>
    <path d="M 969.652086 310.503988 
L 969.652086 310.503988 
L 983.227342 298.086608 
L 983.227342 298.086608 
z
" clip-path="url(#p0ef66ce593)" style="fill: #648fff"/>
    <path d="M 969.652086 310.503988 
L 983.227342 298.086608 
L 1008.660951 305.232436 
L 995.222343 317.760985 
z
" clip-path="url(#p0ef66ce593)" style="fill: #3f599f"/>
    <path d="M 969.652086 310.503988 
L 995.222343 317.760985 
L 1008.660951 305.232436 
L 983.227342 298.086608 
z
" clip-path="url(#p0ef66ce593)" style="fill: #577ddf"/>
    <path d="M 995.222343 317.760985 
L 1008.660951 305.232436 
L 1008.660951 305.232436 
L 995.222343 317.760985 
z
" clip-path="url(#p0ef66ce593)" style="fill: #324880"/>
    <path d="M 969.652086 310.503988 
L 995.222343 317.760985 
L 995.222343 317.760985 
L 969.652086 310.503988 
z
" clip-path="url(#p0ef66ce593)" style="fill: #648fff"/>
    <path d="M 826.020087 319.192104 
L 826.020087 319.192104 
L 851.08075 326.527397 
L 851.08075 326.527397 
z
" clip-path="url(#p0ef66ce593)" style="fill: #324880"/>
    <path d="M 811.033535 331.939269 
L 811.033535 331.939269 
L 826.020087 319.192104 
L 826.020087 319.192104 
z
" clip-path="url(#p0ef66ce593)" style="fill: #648fff"/>
    <path d="M 811.033535 331.939269 
L 826.020087 319.192104 
L 851.08075 326.527397 
L 836.223318 339.390199 
z
" clip-path="url(#p0ef66ce593)" style="fill: #3f599f"/>
    <path d="M 811.033535 331.939269 
L 836.223318 339.390199 
L 851.08075 326.527397 
L 826.020087 319.192104 
z
" clip-path="url(#p0ef66ce593)" style="fill: #577ddf"/>
    <path d="M 836.223318 339.390199 
L 851.08075 326.527397 
L 851.08075 326.527397 
L 836.223318 339.390199 
z
" clip-path="url(#p0ef66ce593)" style="fill: #324880"/>
    <path d="M 745.856857 329.954233 
L 745.856857 329.954233 
L 770.720254 337.387096 
L 770.720254 337.387096 
z
" clip-path="url(#p0ef66ce593)" style="fill: #324880"/>
    <path d="M 811.033535 331.939269 
L 836.223318 339.390199 
L 836.223318 339.390199 
L 811.033535 331.939269 
z
" clip-path="url(#p0ef66ce593)" style="fill: #648fff"/>
    <path d="M 730.138246 342.871238 
L 730.138246 342.871238 
L 745.856857 329.954233 
L 745.856857 329.954233 
z
" clip-path="url(#p0ef66ce593)" style="fill: #648fff"/>
    <path d="M 730.138246 342.871238 
L 745.856857 329.954233 
L 770.720254 337.387096 
L 755.126717 350.422063 
z
" clip-path="url(#p0ef66ce593)" style="fill: #3f599f"/>
    <path d="M 730.138246 342.871238 
L 755.126717 350.422063 
L 770.720254 337.387096 
L 745.856857 329.954233 
z
" clip-path="url(#p0ef66ce593)" style="fill: #577ddf"/>
    <path d="M 755.126717 350.422063 
L 770.720254 337.387096 
L 770.720254 337.387096 
L 755.126717 350.422063 
z
" clip-path="url(#p0ef66ce593)" style="fill: #324880"/>
    <path d="M 861.643037 346.909142 
L 876.368376 333.929121 
L 901.886061 341.398185 
L 887.295854 354.497034 
z
" clip-path="url(#p0ef66ce593)" style="fill: #3f599f"/>
    <path d="M 730.138246 342.871238 
L 755.126717 350.422063 
L 755.126717 350.422063 
L 730.138246 342.871238 
z
" clip-path="url(#p0ef66ce593)" style="fill: #648fff"/>
    <path d="M 795.810329 344.887724 
L 795.810329 344.887724 
L 821.130197 352.457049 
L 821.130197 352.457049 
z
" clip-path="url(#p0ef66ce593)" style="fill: #324880"/>
    <path d="M 780.34482 358.042277 
L 780.34482 358.042277 
L 795.810329 344.887724 
L 795.810329 344.887724 
z
" clip-path="url(#p0ef66ce593)" style="fill: #648fff"/>
    <path d="M 876.368376 333.929121 
L 876.471555 241.016927 
L 902.482931 248.199541 
L 901.886061 341.398185 
z
" clip-path="url(#p0ef66ce593)" style="fill: #324880"/>
    <path d="M 780.34482 358.042277 
L 795.810329 344.887724 
L 821.130197 352.457049 
L 805.795734 365.73284 
z
" clip-path="url(#p0ef66ce593)" style="fill: #3f599f"/>
    <path d="M 780.34482 358.042277 
L 805.795734 365.73284 
L 821.130197 352.457049 
L 795.810329 344.887724 
z
" clip-path="url(#p0ef66ce593)" style="fill: #577ddf"/>
    <path d="M 861.643037 346.909142 
L 861.461462 253.499952 
L 876.471555 241.016927 
L 876.368376 333.929121 
z
" clip-path="url(#p0ef66ce593)" style="fill: #648fff"/>
    <path d="M 805.795734 365.73284 
L 821.130197 352.457049 
L 821.130197 352.457049 
L 805.795734 365.73284 
z
" clip-path="url(#p0ef66ce593)" style="fill: #324880"/>
    <path d="M 913.18499 362.154827 
L 927.636961 348.93551 
L 953.624285 356.542038 
L 939.313725 369.883492 
z
" clip-path="url(#p0ef66ce593)" style="fill: #3f599f"/>
    <path d="M 780.34482 358.042277 
L 805.795734 365.73284 
L 805.795734 365.73284 
L 780.34482 358.042277 
z
" clip-path="url(#p0ef66ce593)" style="fill: #648fff"/>
    <path d="M 887.295854 354.497034 
L 901.886061 341.398185 
L 902.482931 248.199541 
L 887.613269 260.799067 
z
" clip-path="url(#p0ef66ce593)" style="fill: #324880"/>
    <path d="M 861.643037 346.909142 
L 887.295854 354.497034 
L 887.613269 260.799067 
L 861.461462 253.499952 
z
" clip-path="url(#p0ef66ce593)" style="fill: #648fff"/>
    <path d="M 927.636961 348.93551 
L 928.736649 255.449074 
L 955.236112 262.766465 
L 953.624285 356.542038 
z
" clip-path="url(#p0ef66ce593)" style="fill: #324880"/>
    <path d="M 831.4827 373.494731 
L 846.68303 360.096017 
L 872.472057 367.805596 
L 857.409016 381.328947 
z
" clip-path="url(#p0ef66ce593)" style="fill: #3f599f"/>
    <path d="M 913.18499 362.154827 
L 914.010708 268.166739 
L 928.736649 255.449074 
L 927.636961 348.93551 
z
" clip-path="url(#p0ef66ce593)" style="fill: #648fff"/>
    <path d="M 861.461462 253.499952 
L 887.613269 260.799067 
L 902.482931 248.199541 
L 876.471555 241.016927 
z
" clip-path="url(#p0ef66ce593)" style="fill: #577ddf"/>
    <path d="M 939.313725 369.883492 
L 953.624285 356.542038 
L 955.236112 262.766465 
L 940.657256 275.60394 
z
" clip-path="url(#p0ef66ce593)" style="fill: #324880"/>
    <path d="M 846.68303 360.096017 
L 846.207487 266.185799 
L 872.500867 273.604273 
L 872.472057 367.805596 
z
" clip-path="url(#p0ef66ce593)" style="fill: #324880"/>
    <path d="M 913.18499 362.154827 
L 939.313725 369.883492 
L 940.657256 275.60394 
L 914.010708 268.166739 
z
" clip-path="url(#p0ef66ce593)" style="fill: #648fff"/>
    <path d="M 831.4827 373.494731 
L 830.703637 279.079453 
L 846.207487 266.185799 
L 846.68303 360.096017 
z
" clip-path="url(#p0ef66ce593)" style="fill: #648fff"/>
    <path d="M 883.578043 389.236503 
L 898.500568 375.586767 
L 924.771916 383.440535 
L 909.993206 397.218435 
z
" clip-path="url(#p0ef66ce593)" style="fill: #3f599f"/>
    <path d="M 857.409016 381.328947 
L 872.472057 367.805596 
L 872.500867 273.604273 
L 857.139733 286.620238 
z
" clip-path="url(#p0ef66ce593)" style="fill: #324880"/>
    <path d="M 914.010708 268.166739 
L 940.657256 275.60394 
L 955.236112 262.766465 
L 928.736649 255.449074 
z
" clip-path="url(#p0ef66ce593)" style="fill: #577ddf"/>
    <path d="M 831.4827 373.494731 
L 857.409016 381.328947 
L 857.139733 286.620238 
L 830.703637 279.079453 
z
" clip-path="url(#p0ef66ce593)" style="fill: #648fff"/>
    <path d="M 898.500568 375.586767 
L 899.043235 281.092997 
L 925.838143 288.652974 
L 924.771916 383.440535 
z
" clip-path="url(#p0ef66ce593)" style="fill: #324880"/>
    <path d="M 883.578043 389.236503 
L 883.828239 294.233022 
L 899.043235 281.092997 
L 898.500568 375.586767 
z
" clip-path="url(#p0ef66ce593)" style="fill: #648fff"/>
    <path d="M 830.703637 279.079453 
L 857.139733 286.620238 
L 872.500867 273.604273 
L 846.207487 266.185799 
z
" clip-path="url(#p0ef66ce593)" style="fill: #577ddf"/>
    <path d="M 909.993206 397.218435 
L 924.771916 383.440535 
L 925.838143 288.652974 
L 910.772785 301.91884 
z
" clip-path="url(#p0ef66ce593)" style="fill: #324880"/>
    <path d="M 883.578043 389.236503 
L 909.993206 397.218435 
L 910.772785 301.91884 
L 883.828239 294.233022 
z
" clip-path="url(#p0ef66ce593)" style="fill: #648fff"/>
    <path d="M 883.828239 294.233022 
L 910.772785 301.91884 
L 925.838143 288.652974 
L 899.043235 281.092997 
z
" clip-path="url(#p0ef66ce593)" style="fill: #577ddf"/>
   </g>
   <g id="text_31">
    <!-- Imaginary Amplitude (ρ) -->
    <g transform="translate(735.696563 51.6) scale(0.21 -0.21)">
     <defs>
      <path id="DejaVuSans-49" d="M 628 4666 
L 1259 4666 
L 1259 0 
L 628 0 
L 628 4666 
z
" transform="scale(0.015625)"/>
      <path id="DejaVuSans-67" d="M 2906 1791 
Q 2906 2416 2648 2759 
Q 2391 3103 1925 3103 
Q 1463 3103 1205 2759 
Q 947 2416 947 1791 
Q 947 1169 1205 825 
Q 1463 481 1925 481 
Q 2391 481 2648 825 
Q 2906 1169 2906 1791 
z
M 3481 434 
Q 3481 -459 3084 -895 
Q 2688 -1331 1869 -1331 
Q 1566 -1331 1297 -1286 
Q 1028 -1241 775 -1147 
L 775 -588 
Q 1028 -725 1275 -790 
Q 1522 -856 1778 -856 
Q 2344 -856 2625 -561 
Q 2906 -266 2906 331 
L 2906 616 
Q 2728 306 2450 153 
Q 2172 0 1784 0 
Q 1141 0 747 490 
Q 353 981 353 1791 
Q 353 2603 747 3093 
Q 1141 3584 1784 3584 
Q 2172 3584 2450 3431 
Q 2728 3278 2906 2969 
L 2906 3500 
L 3481 3500 
L 3481 434 
z
" transform="scale(0.015625)"/>
      <path id="DejaVuSans-6e" d="M 3513 2113 
L 3513 0 
L 2938 0 
L 2938 2094 
Q 2938 2591 2744 2837 
Q 2550 3084 2163 3084 
Q 1697 3084 1428 2787 
Q 1159 2491 1159 1978 
L 1159 0 
L 581 0 
L 581 3500 
L 1159 3500 
L 1159 2956 
Q 1366 3272 1645 3428 
Q 1925 3584 2291 3584 
Q 2894 3584 3203 3211 
Q 3513 2838 3513 2113 
z
" transform="scale(0.015625)"/>
      <path id="DejaVuSans-72" d="M 2631 2963 
Q 2534 3019 2420 3045 
Q 2306 3072 2169 3072 
Q 1681 3072 1420 2755 
Q 1159 2438 1159 1844 
L 1159 0 
L 581 0 
L 581 3500 
L 1159 3500 
L 1159 2956 
Q 1341 3275 1631 3429 
Q 1922 3584 2338 3584 
Q 2397 3584 2469 3576 
Q 2541 3569 2628 3553 
L 2631 2963 
z
" transform="scale(0.015625)"/>
      <path id="DejaVuSans-79" d="M 2059 -325 
Q 1816 -950 1584 -1140 
Q 1353 -1331 966 -1331 
L 506 -1331 
L 506 -850 
L 844 -850 
Q 1081 -850 1212 -737 
Q 1344 -625 1503 -206 
L 1606 56 
L 191 3500 
L 800 3500 
L 1894 763 
L 2988 3500 
L 3597 3500 
L 2059 -325 
z
" transform="scale(0.015625)"/>
     </defs>
     <use xlink:href="#DejaVuSans-49"/>
     <use xlink:href="#DejaVuSans-6d" x="29.492188"/>
     <use xlink:href="#DejaVuSans-61" x="126.904297"/>
     <use xlink:href="#DejaVuSans-67" x="188.183594"/>
     <use xlink:href="#DejaVuSans-69" x="251.660156"/>
     <use xlink:href="#DejaVuSans-6e" x="279.443359"/>
     <use xlink:href="#DejaVuSans-61" x="342.822266"/>
     <use xlink:href="#DejaVuSans-72" x="404.101562"/>
     <use xlink:href="#DejaVuSans-79" x="445.214844"/>
     <use xlink:href="#DejaVuSans-20" x="504.394531"/>
     <use xlink:href="#DejaVuSans-41" x="536.181641"/>
     <use xlink:href="#DejaVuSans-6d" x="604.589844"/>
     <use xlink:href="#DejaVuSans-70" x="702.001953"/>
     <use xlink:href="#DejaVuSans-6c" x="765.478516"/>
     <use xlink:href="#DejaVuSans-69" x="793.261719"/>
     <use xlink:href="#DejaVuSans-74" x="821.044922"/>
     <use xlink:href="#DejaVuSans-75" x="860.253906"/>
     <use xlink:href="#DejaVuSans-64" x="923.632812"/>
     <use xlink:href="#DejaVuSans-65" x="987.109375"/>
     <use xlink:href="#DejaVuSans-20" x="1048.632812"/>
     <use xlink:href="#DejaVuSans-28" x="1080.419922"/>
     <use xlink:href="#DejaVuSans-3c1" x="1119.433594"/>
     <use xlink:href="#DejaVuSans-29" x="1182.910156"/>
    </g>
   </g>
  </g>
 </g>
 <defs>
  <clipPath id="p26db4abbd6">
   <rect x="28.8" y="57.6" width="518.4" height="518.4"/>
  </clipPath>
  <clipPath id="p0ef66ce593">
   <rect x="604.8" y="57.6" width="518.4" height="518.4"/>
  </clipPath>
 </defs>
</svg>
