<?xml version="1.0" encoding="utf-8" standalone="no"?>
<!DOCTYPE svg PUBLIC "-//W3C//DTD SVG 1.1//EN"
  "http://www.w3.org/Graphics/SVG/1.1/DTD/svg11.dtd">
<svg xmlns:xlink="http://www.w3.org/1999/xlink" width="1501.678088pt" height="438.279994pt" viewBox="0 0 1501.678088 438.279994" xmlns="http://www.w3.org/2000/svg" version="1.1">
 <metadata>
  <rdf:RDF xmlns:dc="http://purl.org/dc/elements/1.1/" xmlns:cc="http://creativecommons.org/ns#" xmlns:rdf="http://www.w3.org/1999/02/22-rdf-syntax-ns#">
   <cc:Work>
    <dc:type rdf:resource="http://purl.org/dc/dcmitype/StillImage"/>
    <dc:date>2024-11-21T16:45:16.049333</dc:date>
    <dc:format>image/svg+xml</dc:format>
    <dc:creator>
     <cc:Agent>
      <dc:title>Matplotlib v3.9.2, https://matplotlib.org/</dc:title>
     </cc:Agent>
    </dc:creator>
   </cc:Work>
  </rdf:RDF>
 </metadata>
 <defs>
  <style type="text/css">*{stroke-linejoin: round; stroke-linecap: butt}</style>
 </defs>
 <g id="figure_1">
  <g id="patch_1">
   <path d="M -0 438.279994 
L 1501.678088 438.279994 
L 1501.678088 0 
L -0 0 
z
" style="fill: #ffffff"/>
  </g>
  <g id="axes_1">
   <g id="line2d_1">
    <path d="M 76.870625 59.801849 
L 1488.852662 59.801849 
" clip-path="url(#p8a94f8af44)" style="fill: none; stroke: #000000; stroke-width: 2; stroke-linecap: square"/>
   </g>
   <g id="line2d_2">
    <path d="M 76.870625 116.056113 
L 1488.852662 116.056113 
" clip-path="url(#p8a94f8af44)" style="fill: none; stroke: #000000; stroke-width: 2; stroke-linecap: square"/>
   </g>
   <g id="line2d_3">
    <path d="M 76.870625 172.310378 
L 1488.852662 172.310378 
" clip-path="url(#p8a94f8af44)" style="fill: none; stroke: #000000; stroke-width: 2; stroke-linecap: square"/>
   </g>
   <g id="line2d_4">
    <path d="M 1488.852662 59.801849 
L 1488.852662 172.310378 
" clip-path="url(#p8a94f8af44)" style="fill: none; stroke: #000000; stroke-width: 1.5; stroke-linecap: square"/>
   </g>
   <g id="line2d_5">
    <path d="M 76.870625 284.818907 
L 1488.852662 284.818907 
" clip-path="url(#p8a94f8af44)" style="fill: none; stroke: #000000; stroke-width: 2; stroke-linecap: square"/>
   </g>
   <g id="line2d_6">
    <path d="M 76.870625 341.073171 
L 1488.852662 341.073171 
" clip-path="url(#p8a94f8af44)" style="fill: none; stroke: #000000; stroke-width: 2; stroke-linecap: square"/>
   </g>
   <g id="line2d_7">
    <path d="M 76.870625 397.327435 
L 1488.852662 397.327435 
" clip-path="url(#p8a94f8af44)" style="fill: none; stroke: #000000; stroke-width: 2; stroke-linecap: square"/>
   </g>
   <g id="line2d_8">
    <path d="M 76.308083 284.818907 
L 76.308083 397.327435 
" clip-path="url(#p8a94f8af44)" style="fill: none; stroke: #000000; stroke-width: 1.5; stroke-linecap: square"/>
   </g>
   <g id="text_1">
    <!-- Global Phase: 5.126934368100813 -->
    <g transform="translate(7.2 14.798437) scale(0.1 -0.1)">
     <defs>
      <path id="DejaVuSans-47" d="M 3809 666 
L 3809 1919 
L 2778 1919 
L 2778 2438 
L 4434 2438 
L 4434 434 
Q 4069 175 3628 42 
Q 3188 -91 2688 -91 
Q 1594 -91 976 548 
Q 359 1188 359 2328 
Q 359 3472 976 4111 
Q 1594 4750 2688 4750 
Q 3144 4750 3555 4637 
Q 3966 4525 4313 4306 
L 4313 3634 
Q 3963 3931 3569 4081 
Q 3175 4231 2741 4231 
Q 1884 4231 1454 3753 
Q 1025 3275 1025 2328 
Q 1025 1384 1454 906 
Q 1884 428 2741 428 
Q 3075 428 3337 486 
Q 3600 544 3809 666 
z
" transform="scale(0.015625)"/>
      <path id="DejaVuSans-6c" d="M 603 4863 
L 1178 4863 
L 1178 0 
L 603 0 
L 603 4863 
z
" transform="scale(0.015625)"/>
      <path id="DejaVuSans-6f" d="M 1959 3097 
Q 1497 3097 1228 2736 
Q 959 2375 959 1747 
Q 959 1119 1226 758 
Q 1494 397 1959 397 
Q 2419 397 2687 759 
Q 2956 1122 2956 1747 
Q 2956 2369 2687 2733 
Q 2419 3097 1959 3097 
z
M 1959 3584 
Q 2709 3584 3137 3096 
Q 3566 2609 3566 1747 
Q 3566 888 3137 398 
Q 2709 -91 1959 -91 
Q 1206 -91 779 398 
Q 353 888 353 1747 
Q 353 2609 779 3096 
Q 1206 3584 1959 3584 
z
" transform="scale(0.015625)"/>
      <path id="DejaVuSans-62" d="M 3116 1747 
Q 3116 2381 2855 2742 
Q 2594 3103 2138 3103 
Q 1681 3103 1420 2742 
Q 1159 2381 1159 1747 
Q 1159 1113 1420 752 
Q 1681 391 2138 391 
Q 2594 391 2855 752 
Q 3116 1113 3116 1747 
z
M 1159 2969 
Q 1341 3281 1617 3432 
Q 1894 3584 2278 3584 
Q 2916 3584 3314 3078 
Q 3713 2572 3713 1747 
Q 3713 922 3314 415 
Q 2916 -91 2278 -91 
Q 1894 -91 1617 61 
Q 1341 213 1159 525 
L 1159 0 
L 581 0 
L 581 4863 
L 1159 4863 
L 1159 2969 
z
" transform="scale(0.015625)"/>
      <path id="DejaVuSans-61" d="M 2194 1759 
Q 1497 1759 1228 1600 
Q 959 1441 959 1056 
Q 959 750 1161 570 
Q 1363 391 1709 391 
Q 2188 391 2477 730 
Q 2766 1069 2766 1631 
L 2766 1759 
L 2194 1759 
z
M 3341 1997 
L 3341 0 
L 2766 0 
L 2766 531 
Q 2569 213 2275 61 
Q 1981 -91 1556 -91 
Q 1019 -91 701 211 
Q 384 513 384 1019 
Q 384 1609 779 1909 
Q 1175 2209 1959 2209 
L 2766 2209 
L 2766 2266 
Q 2766 2663 2505 2880 
Q 2244 3097 1772 3097 
Q 1472 3097 1187 3025 
Q 903 2953 641 2809 
L 641 3341 
Q 956 3463 1253 3523 
Q 1550 3584 1831 3584 
Q 2591 3584 2966 3190 
Q 3341 2797 3341 1997 
z
" transform="scale(0.015625)"/>
      <path id="DejaVuSans-20" transform="scale(0.015625)"/>
      <path id="DejaVuSans-50" d="M 1259 4147 
L 1259 2394 
L 2053 2394 
Q 2494 2394 2734 2622 
Q 2975 2850 2975 3272 
Q 2975 3691 2734 3919 
Q 2494 4147 2053 4147 
L 1259 4147 
z
M 628 4666 
L 2053 4666 
Q 2838 4666 3239 4311 
Q 3641 3956 3641 3272 
Q 3641 2581 3239 2228 
Q 2838 1875 2053 1875 
L 1259 1875 
L 1259 0 
L 628 0 
L 628 4666 
z
" transform="scale(0.015625)"/>
      <path id="DejaVuSans-68" d="M 3513 2113 
L 3513 0 
L 2938 0 
L 2938 2094 
Q 2938 2591 2744 2837 
Q 2550 3084 2163 3084 
Q 1697 3084 1428 2787 
Q 1159 2491 1159 1978 
L 1159 0 
L 581 0 
L 581 4863 
L 1159 4863 
L 1159 2956 
Q 1366 3272 1645 3428 
Q 1925 3584 2291 3584 
Q 2894 3584 3203 3211 
Q 3513 2838 3513 2113 
z
" transform="scale(0.015625)"/>
      <path id="DejaVuSans-73" d="M 2834 3397 
L 2834 2853 
Q 2591 2978 2328 3040 
Q 2066 3103 1784 3103 
Q 1356 3103 1142 2972 
Q 928 2841 928 2578 
Q 928 2378 1081 2264 
Q 1234 2150 1697 2047 
L 1894 2003 
Q 2506 1872 2764 1633 
Q 3022 1394 3022 966 
Q 3022 478 2636 193 
Q 2250 -91 1575 -91 
Q 1294 -91 989 -36 
Q 684 19 347 128 
L 347 722 
Q 666 556 975 473 
Q 1284 391 1588 391 
Q 1994 391 2212 530 
Q 2431 669 2431 922 
Q 2431 1156 2273 1281 
Q 2116 1406 1581 1522 
L 1381 1569 
Q 847 1681 609 1914 
Q 372 2147 372 2553 
Q 372 3047 722 3315 
Q 1072 3584 1716 3584 
Q 2034 3584 2315 3537 
Q 2597 3491 2834 3397 
z
" transform="scale(0.015625)"/>
      <path id="DejaVuSans-65" d="M 3597 1894 
L 3597 1613 
L 953 1613 
Q 991 1019 1311 708 
Q 1631 397 2203 397 
Q 2534 397 2845 478 
Q 3156 559 3463 722 
L 3463 178 
Q 3153 47 2828 -22 
Q 2503 -91 2169 -91 
Q 1331 -91 842 396 
Q 353 884 353 1716 
Q 353 2575 817 3079 
Q 1281 3584 2069 3584 
Q 2775 3584 3186 3129 
Q 3597 2675 3597 1894 
z
M 3022 2063 
Q 3016 2534 2758 2815 
Q 2500 3097 2075 3097 
Q 1594 3097 1305 2825 
Q 1016 2553 972 2059 
L 3022 2063 
z
" transform="scale(0.015625)"/>
      <path id="DejaVuSans-3a" d="M 750 794 
L 1409 794 
L 1409 0 
L 750 0 
L 750 794 
z
M 750 3309 
L 1409 3309 
L 1409 2516 
L 750 2516 
L 750 3309 
z
" transform="scale(0.015625)"/>
      <path id="DejaVuSans-35" d="M 691 4666 
L 3169 4666 
L 3169 4134 
L 1269 4134 
L 1269 2991 
Q 1406 3038 1543 3061 
Q 1681 3084 1819 3084 
Q 2600 3084 3056 2656 
Q 3513 2228 3513 1497 
Q 3513 744 3044 326 
Q 2575 -91 1722 -91 
Q 1428 -91 1123 -41 
Q 819 9 494 109 
L 494 744 
Q 775 591 1075 516 
Q 1375 441 1709 441 
Q 2250 441 2565 725 
Q 2881 1009 2881 1497 
Q 2881 1984 2565 2268 
Q 2250 2553 1709 2553 
Q 1456 2553 1204 2497 
Q 953 2441 691 2322 
L 691 4666 
z
" transform="scale(0.015625)"/>
      <path id="DejaVuSans-2e" d="M 684 794 
L 1344 794 
L 1344 0 
L 684 0 
L 684 794 
z
" transform="scale(0.015625)"/>
      <path id="DejaVuSans-31" d="M 794 531 
L 1825 531 
L 1825 4091 
L 703 3866 
L 703 4441 
L 1819 4666 
L 2450 4666 
L 2450 531 
L 3481 531 
L 3481 0 
L 794 0 
L 794 531 
z
" transform="scale(0.015625)"/>
      <path id="DejaVuSans-32" d="M 1228 531 
L 3431 531 
L 3431 0 
L 469 0 
L 469 531 
Q 828 903 1448 1529 
Q 2069 2156 2228 2338 
Q 2531 2678 2651 2914 
Q 2772 3150 2772 3378 
Q 2772 3750 2511 3984 
Q 2250 4219 1831 4219 
Q 1534 4219 1204 4116 
Q 875 4013 500 3803 
L 500 4441 
Q 881 4594 1212 4672 
Q 1544 4750 1819 4750 
Q 2544 4750 2975 4387 
Q 3406 4025 3406 3419 
Q 3406 3131 3298 2873 
Q 3191 2616 2906 2266 
Q 2828 2175 2409 1742 
Q 1991 1309 1228 531 
z
" transform="scale(0.015625)"/>
      <path id="DejaVuSans-36" d="M 2113 2584 
Q 1688 2584 1439 2293 
Q 1191 2003 1191 1497 
Q 1191 994 1439 701 
Q 1688 409 2113 409 
Q 2538 409 2786 701 
Q 3034 994 3034 1497 
Q 3034 2003 2786 2293 
Q 2538 2584 2113 2584 
z
M 3366 4563 
L 3366 3988 
Q 3128 4100 2886 4159 
Q 2644 4219 2406 4219 
Q 1781 4219 1451 3797 
Q 1122 3375 1075 2522 
Q 1259 2794 1537 2939 
Q 1816 3084 2150 3084 
Q 2853 3084 3261 2657 
Q 3669 2231 3669 1497 
Q 3669 778 3244 343 
Q 2819 -91 2113 -91 
Q 1303 -91 875 529 
Q 447 1150 447 2328 
Q 447 3434 972 4092 
Q 1497 4750 2381 4750 
Q 2619 4750 2861 4703 
Q 3103 4656 3366 4563 
z
" transform="scale(0.015625)"/>
      <path id="DejaVuSans-39" d="M 703 97 
L 703 672 
Q 941 559 1184 500 
Q 1428 441 1663 441 
Q 2288 441 2617 861 
Q 2947 1281 2994 2138 
Q 2813 1869 2534 1725 
Q 2256 1581 1919 1581 
Q 1219 1581 811 2004 
Q 403 2428 403 3163 
Q 403 3881 828 4315 
Q 1253 4750 1959 4750 
Q 2769 4750 3195 4129 
Q 3622 3509 3622 2328 
Q 3622 1225 3098 567 
Q 2575 -91 1691 -91 
Q 1453 -91 1209 -44 
Q 966 3 703 97 
z
M 1959 2075 
Q 2384 2075 2632 2365 
Q 2881 2656 2881 3163 
Q 2881 3666 2632 3958 
Q 2384 4250 1959 4250 
Q 1534 4250 1286 3958 
Q 1038 3666 1038 3163 
Q 1038 2656 1286 2365 
Q 1534 2075 1959 2075 
z
" transform="scale(0.015625)"/>
      <path id="DejaVuSans-33" d="M 2597 2516 
Q 3050 2419 3304 2112 
Q 3559 1806 3559 1356 
Q 3559 666 3084 287 
Q 2609 -91 1734 -91 
Q 1441 -91 1130 -33 
Q 819 25 488 141 
L 488 750 
Q 750 597 1062 519 
Q 1375 441 1716 441 
Q 2309 441 2620 675 
Q 2931 909 2931 1356 
Q 2931 1769 2642 2001 
Q 2353 2234 1838 2234 
L 1294 2234 
L 1294 2753 
L 1863 2753 
Q 2328 2753 2575 2939 
Q 2822 3125 2822 3475 
Q 2822 3834 2567 4026 
Q 2313 4219 1838 4219 
Q 1578 4219 1281 4162 
Q 984 4106 628 3988 
L 628 4550 
Q 988 4650 1302 4700 
Q 1616 4750 1894 4750 
Q 2613 4750 3031 4423 
Q 3450 4097 3450 3541 
Q 3450 3153 3228 2886 
Q 3006 2619 2597 2516 
z
" transform="scale(0.015625)"/>
      <path id="DejaVuSans-34" d="M 2419 4116 
L 825 1625 
L 2419 1625 
L 2419 4116 
z
M 2253 4666 
L 3047 4666 
L 3047 1625 
L 3713 1625 
L 3713 1100 
L 3047 1100 
L 3047 0 
L 2419 0 
L 2419 1100 
L 313 1100 
L 313 1709 
L 2253 4666 
z
" transform="scale(0.015625)"/>
      <path id="DejaVuSans-38" d="M 2034 2216 
Q 1584 2216 1326 1975 
Q 1069 1734 1069 1313 
Q 1069 891 1326 650 
Q 1584 409 2034 409 
Q 2484 409 2743 651 
Q 3003 894 3003 1313 
Q 3003 1734 2745 1975 
Q 2488 2216 2034 2216 
z
M 1403 2484 
Q 997 2584 770 2862 
Q 544 3141 544 3541 
Q 544 4100 942 4425 
Q 1341 4750 2034 4750 
Q 2731 4750 3128 4425 
Q 3525 4100 3525 3541 
Q 3525 3141 3298 2862 
Q 3072 2584 2669 2484 
Q 3125 2378 3379 2068 
Q 3634 1759 3634 1313 
Q 3634 634 3220 271 
Q 2806 -91 2034 -91 
Q 1263 -91 848 271 
Q 434 634 434 1313 
Q 434 1759 690 2068 
Q 947 2378 1403 2484 
z
M 1172 3481 
Q 1172 3119 1398 2916 
Q 1625 2713 2034 2713 
Q 2441 2713 2670 2916 
Q 2900 3119 2900 3481 
Q 2900 3844 2670 4047 
Q 2441 4250 2034 4250 
Q 1625 4250 1398 4047 
Q 1172 3844 1172 3481 
z
" transform="scale(0.015625)"/>
      <path id="DejaVuSans-30" d="M 2034 4250 
Q 1547 4250 1301 3770 
Q 1056 3291 1056 2328 
Q 1056 1369 1301 889 
Q 1547 409 2034 409 
Q 2525 409 2770 889 
Q 3016 1369 3016 2328 
Q 3016 3291 2770 3770 
Q 2525 4250 2034 4250 
z
M 2034 4750 
Q 2819 4750 3233 4129 
Q 3647 3509 3647 2328 
Q 3647 1150 3233 529 
Q 2819 -91 2034 -91 
Q 1250 -91 836 529 
Q 422 1150 422 2328 
Q 422 3509 836 4129 
Q 1250 4750 2034 4750 
z
" transform="scale(0.015625)"/>
     </defs>
     <use xlink:href="#DejaVuSans-47"/>
     <use xlink:href="#DejaVuSans-6c" x="77.490234"/>
     <use xlink:href="#DejaVuSans-6f" x="105.273438"/>
     <use xlink:href="#DejaVuSans-62" x="166.455078"/>
     <use xlink:href="#DejaVuSans-61" x="229.931641"/>
     <use xlink:href="#DejaVuSans-6c" x="291.210938"/>
     <use xlink:href="#DejaVuSans-20" x="318.994141"/>
     <use xlink:href="#DejaVuSans-50" x="350.78125"/>
     <use xlink:href="#DejaVuSans-68" x="411.083984"/>
     <use xlink:href="#DejaVuSans-61" x="474.462891"/>
     <use xlink:href="#DejaVuSans-73" x="535.742188"/>
     <use xlink:href="#DejaVuSans-65" x="587.841797"/>
     <use xlink:href="#DejaVuSans-3a" x="649.365234"/>
     <use xlink:href="#DejaVuSans-20" x="683.056641"/>
     <use xlink:href="#DejaVuSans-35" x="714.84375"/>
     <use xlink:href="#DejaVuSans-2e" x="778.466797"/>
     <use xlink:href="#DejaVuSans-31" x="810.253906"/>
     <use xlink:href="#DejaVuSans-32" x="873.876953"/>
     <use xlink:href="#DejaVuSans-36" x="937.5"/>
     <use xlink:href="#DejaVuSans-39" x="1001.123047"/>
     <use xlink:href="#DejaVuSans-33" x="1064.746094"/>
     <use xlink:href="#DejaVuSans-34" x="1128.369141"/>
     <use xlink:href="#DejaVuSans-33" x="1191.992188"/>
     <use xlink:href="#DejaVuSans-36" x="1255.615234"/>
     <use xlink:href="#DejaVuSans-38" x="1319.238281"/>
     <use xlink:href="#DejaVuSans-31" x="1382.861328"/>
     <use xlink:href="#DejaVuSans-30" x="1446.484375"/>
     <use xlink:href="#DejaVuSans-30" x="1510.107422"/>
     <use xlink:href="#DejaVuSans-38" x="1573.730469"/>
     <use xlink:href="#DejaVuSans-31" x="1637.353516"/>
     <use xlink:href="#DejaVuSans-33" x="1700.976562"/>
    </g>
   </g>
   <g id="patch_2">
    <path d="M 71.245199 31.674717 
L -1335.111411 31.674717 
L -1335.111411 256.691774 
L 71.245199 256.691774 
z
" clip-path="url(#p8a94f8af44)" style="fill: #ffffff; stroke: #ffffff; stroke-width: 1.5; stroke-linejoin: miter"/>
   </g>
   <g id="patch_3">
    <path d="M 71.245199 256.691774 
L -1335.111411 256.691774 
L -1335.111411 706.72589 
L 71.245199 706.72589 
z
" clip-path="url(#p8a94f8af44)" style="fill: #ffffff; stroke: #ffffff; stroke-width: 1.5; stroke-linejoin: miter"/>
   </g>
   <g id="line2d_9">
    <path d="M 332.264986 172.310378 
L 332.264986 116.056113 
" clip-path="url(#p8a94f8af44)" style="fill: none; stroke: #002d9c; stroke-width: 2; stroke-linecap: square"/>
   </g>
   <g id="line2d_10">
    <path d="M 501.027779 116.056113 
L 501.027779 59.801849 
" clip-path="url(#p8a94f8af44)" style="fill: none; stroke: #002d9c; stroke-width: 2; stroke-linecap: square"/>
   </g>
   <g id="line2d_11">
    <path d="M 669.790572 116.056113 
L 669.790572 59.801849 
" clip-path="url(#p8a94f8af44)" style="fill: none; stroke: #002d9c; stroke-width: 2; stroke-linecap: square"/>
   </g>
   <g id="line2d_12">
    <path d="M 838.553365 172.310378 
L 838.553365 59.801849 
" clip-path="url(#p8a94f8af44)" style="fill: none; stroke: #002d9c; stroke-width: 2; stroke-linecap: square"/>
   </g>
   <g id="line2d_13">
    <path d="M 1007.316158 172.310378 
L 1007.316158 116.056113 
" clip-path="url(#p8a94f8af44)" style="fill: none; stroke: #002d9c; stroke-width: 2; stroke-linecap: square"/>
   </g>
   <g id="line2d_14">
    <path d="M 1176.078952 172.310378 
L 1176.078952 59.801849 
" clip-path="url(#p8a94f8af44)" style="fill: none; stroke: #002d9c; stroke-width: 2; stroke-linecap: square"/>
   </g>
   <g id="line2d_15">
    <path d="M 1344.841745 172.310378 
L 1344.841745 116.056113 
" clip-path="url(#p8a94f8af44)" style="fill: none; stroke: #002d9c; stroke-width: 2; stroke-linecap: square"/>
   </g>
   <g id="line2d_16">
    <path d="M 107.247928 397.327435 
L 107.247928 284.818907 
" clip-path="url(#p8a94f8af44)" style="fill: none; stroke: #002d9c; stroke-width: 2; stroke-linecap: square"/>
   </g>
   <g id="line2d_17">
    <path d="M 276.010721 397.327435 
L 276.010721 341.073171 
" clip-path="url(#p8a94f8af44)" style="fill: none; stroke: #002d9c; stroke-width: 2; stroke-linecap: square"/>
   </g>
   <g id="line2d_18">
    <path d="M 444.773514 397.327435 
L 444.773514 284.818907 
" clip-path="url(#p8a94f8af44)" style="fill: none; stroke: #002d9c; stroke-width: 2; stroke-linecap: square"/>
   </g>
   <g id="line2d_19">
    <path d="M 613.536308 341.073171 
L 613.536308 284.818907 
" clip-path="url(#p8a94f8af44)" style="fill: none; stroke: #002d9c; stroke-width: 2; stroke-linecap: square"/>
   </g>
   <g id="line2d_20">
    <path d="M 782.299101 341.073171 
L 782.299101 284.818907 
" clip-path="url(#p8a94f8af44)" style="fill: none; stroke: #002d9c; stroke-width: 2; stroke-linecap: square"/>
   </g>
   <g id="line2d_21">
    <path d="M 951.061894 397.327435 
L 951.061894 284.818907 
" clip-path="url(#p8a94f8af44)" style="fill: none; stroke: #002d9c; stroke-width: 2; stroke-linecap: square"/>
   </g>
   <g id="line2d_22">
    <path d="M 1119.824687 397.327435 
L 1119.824687 341.073171 
" clip-path="url(#p8a94f8af44)" style="fill: none; stroke: #002d9c; stroke-width: 2; stroke-linecap: square"/>
   </g>
   <g id="line2d_23">
    <path d="M 1288.58748 397.327435 
L 1288.58748 284.818907 
" clip-path="url(#p8a94f8af44)" style="fill: none; stroke: #002d9c; stroke-width: 2; stroke-linecap: square"/>
   </g>
   <g id="line2d_24">
    <path d="M 1457.350274 397.327435 
L 1457.350274 341.073171 
" clip-path="url(#p8a94f8af44)" style="fill: none; stroke: #002d9c; stroke-width: 2; stroke-linecap: square"/>
   </g>
   <g id="patch_4">
    <path d="M 101.974091 78.084485 
L 168.77603 78.084485 
L 168.77603 41.519213 
L 101.974091 41.519213 
z
" clip-path="url(#p8a94f8af44)" style="fill: #9f1853; stroke: #9f1853; stroke-width: 1.5; stroke-linejoin: miter"/>
   </g>
   <g id="patch_5">
    <path d="M 117.092424 134.338749 
L 153.657696 134.338749 
L 153.657696 97.773477 
L 117.092424 97.773477 
z
" clip-path="url(#p8a94f8af44)" style="fill: #a8a8a8; stroke: #a8a8a8; stroke-width: 1.5; stroke-linejoin: miter"/>
   </g>
   <g id="patch_6">
    <path d="M 117.092424 190.593014 
L 153.657696 190.593014 
L 153.657696 154.027742 
L 117.092424 154.027742 
z
" clip-path="url(#p8a94f8af44)" style="fill: #a8a8a8; stroke: #a8a8a8; stroke-width: 1.5; stroke-linejoin: miter"/>
   </g>
   <g id="patch_7">
    <path d="M 206.747658 134.338749 
L 289.01952 134.338749 
L 289.01952 97.773477 
L 206.747658 97.773477 
z
" clip-path="url(#p8a94f8af44)" style="fill: #9f1853; stroke: #9f1853; stroke-width: 1.5; stroke-linejoin: miter"/>
   </g>
   <g id="patch_8">
    <path d="M 223.213281 190.593014 
L 272.553897 190.593014 
L 272.553897 154.027742 
L 223.213281 154.027742 
z
" clip-path="url(#p8a94f8af44)" style="fill: #9f1853; stroke: #9f1853; stroke-width: 1.5; stroke-linejoin: miter"/>
   </g>
   <g id="patch_9">
    <path d="M 332.264986 177.795169 
C 333.719569 177.795169 335.114772 177.217256 336.143318 176.188711 
C 337.171864 175.160165 337.749776 173.764961 337.749776 172.310378 
C 337.749776 170.855794 337.171864 169.460591 336.143318 168.432045 
C 335.114772 167.403499 333.719569 166.825587 332.264986 166.825587 
C 330.810402 166.825587 329.415199 167.403499 328.386653 168.432045 
C 327.358107 169.460591 326.780195 170.855794 326.780195 172.310378 
C 326.780195 173.764961 327.358107 175.160165 328.386653 176.188711 
C 329.415199 177.217256 330.810402 177.795169 332.264986 177.795169 
z
" clip-path="url(#p8a94f8af44)" style="fill: #002d9c; stroke: #002d9c; stroke-width: 1.5; stroke-linejoin: miter"/>
   </g>
   <g id="patch_10">
    <path d="M 332.264986 128.853959 
C 335.659014 128.853959 338.914488 127.505497 341.314429 125.105557 
C 343.714369 122.705616 345.062831 119.450142 345.062831 116.056113 
C 345.062831 112.662085 343.714369 109.406611 341.314429 107.00667 
C 338.914488 104.60673 335.659014 103.258268 332.264986 103.258268 
C 328.870957 103.258268 325.615483 104.60673 323.215542 107.00667 
C 320.815602 109.406611 319.46714 112.662085 319.46714 116.056113 
C 319.46714 119.450142 320.815602 122.705616 323.215542 125.105557 
C 325.615483 127.505497 328.870957 128.853959 332.264986 128.853959 
z
" clip-path="url(#p8a94f8af44)" style="fill: #002d9c; stroke: #002d9c; stroke-width: 2; stroke-linejoin: miter"/>
   </g>
   <g id="patch_11">
    <path d="M 384.30018 190.593014 
L 448.992584 190.593014 
L 448.992584 154.027742 
L 384.30018 154.027742 
z
" clip-path="url(#p8a94f8af44)" style="fill: #9f1853; stroke: #9f1853; stroke-width: 1.5; stroke-linejoin: miter"/>
   </g>
   <g id="patch_12">
    <path d="M 366.366321 134.338749 
L 466.926444 134.338749 
L 466.926444 97.773477 
L 366.366321 97.773477 
z
" clip-path="url(#p8a94f8af44)" style="fill: #9f1853; stroke: #9f1853; stroke-width: 1.5; stroke-linejoin: miter"/>
   </g>
   <g id="patch_13">
    <path d="M 501.027779 65.28664 
C 502.482362 65.28664 503.877566 64.708728 504.906112 63.680182 
C 505.934657 62.651636 506.51257 61.256433 506.51257 59.801849 
C 506.51257 58.347266 505.934657 56.952062 504.906112 55.923516 
C 503.877566 54.89497 502.482362 54.317058 501.027779 54.317058 
C 499.573195 54.317058 498.177992 54.89497 497.149446 55.923516 
C 496.1209 56.952062 495.542988 58.347266 495.542988 59.801849 
C 495.542988 61.256433 496.1209 62.651636 497.149446 63.680182 
C 498.177992 64.708728 499.573195 65.28664 501.027779 65.28664 
z
" clip-path="url(#p8a94f8af44)" style="fill: #002d9c; stroke: #002d9c; stroke-width: 1.5; stroke-linejoin: miter"/>
   </g>
   <g id="patch_14">
    <path d="M 501.027779 128.853959 
C 504.421807 128.853959 507.677282 127.505497 510.077222 125.105557 
C 512.477162 122.705616 513.825624 119.450142 513.825624 116.056113 
C 513.825624 112.662085 512.477162 109.406611 510.077222 107.00667 
C 507.677282 104.60673 504.421807 103.258268 501.027779 103.258268 
C 497.633751 103.258268 494.378276 104.60673 491.978336 107.00667 
C 489.578395 109.406611 488.229934 112.662085 488.229934 116.056113 
C 488.229934 119.450142 489.578395 122.705616 491.978336 125.105557 
C 494.378276 127.505497 497.633751 128.853959 501.027779 128.853959 
z
" clip-path="url(#p8a94f8af44)" style="fill: #002d9c; stroke: #002d9c; stroke-width: 2; stroke-linejoin: miter"/>
   </g>
   <g id="patch_15">
    <path d="M 559.625033 78.084485 
L 611.193317 78.084485 
L 611.193317 41.519213 
L 559.625033 41.519213 
z
" clip-path="url(#p8a94f8af44)" style="fill: #9f1853; stroke: #9f1853; stroke-width: 1.5; stroke-linejoin: miter"/>
   </g>
   <g id="patch_16">
    <path d="M 539.463505 134.338749 
L 631.354846 134.338749 
L 631.354846 97.773477 
L 539.463505 97.773477 
z
" clip-path="url(#p8a94f8af44)" style="fill: #9f1853; stroke: #9f1853; stroke-width: 1.5; stroke-linejoin: miter"/>
   </g>
   <g id="patch_17">
    <path d="M 669.790572 65.28664 
C 671.245156 65.28664 672.640359 64.708728 673.668905 63.680182 
C 674.697451 62.651636 675.275363 61.256433 675.275363 59.801849 
C 675.275363 58.347266 674.697451 56.952062 673.668905 55.923516 
C 672.640359 54.89497 671.245156 54.317058 669.790572 54.317058 
C 668.335988 54.317058 666.940785 54.89497 665.912239 55.923516 
C 664.883693 56.952062 664.305781 58.347266 664.305781 59.801849 
C 664.305781 61.256433 664.883693 62.651636 665.912239 63.680182 
C 666.940785 64.708728 668.335988 65.28664 669.790572 65.28664 
z
" clip-path="url(#p8a94f8af44)" style="fill: #002d9c; stroke: #002d9c; stroke-width: 1.5; stroke-linejoin: miter"/>
   </g>
   <g id="patch_18">
    <path d="M 669.790572 128.853959 
C 673.1846 128.853959 676.440075 127.505497 678.840015 125.105557 
C 681.239955 122.705616 682.588417 119.450142 682.588417 116.056113 
C 682.588417 112.662085 681.239955 109.406611 678.840015 107.00667 
C 676.440075 104.60673 673.1846 103.258268 669.790572 103.258268 
C 666.396544 103.258268 663.141069 104.60673 660.741129 107.00667 
C 658.341189 109.406611 656.992727 112.662085 656.992727 116.056113 
C 656.992727 119.450142 658.341189 122.705616 660.741129 125.105557 
C 663.141069 127.505497 666.396544 128.853959 669.790572 128.853959 
z
" clip-path="url(#p8a94f8af44)" style="fill: #002d9c; stroke: #002d9c; stroke-width: 2; stroke-linejoin: miter"/>
   </g>
   <g id="patch_19">
    <path d="M 720.360343 78.084485 
L 787.983594 78.084485 
L 787.983594 41.519213 
L 720.360343 41.519213 
z
" clip-path="url(#p8a94f8af44)" style="fill: #9f1853; stroke: #9f1853; stroke-width: 1.5; stroke-linejoin: miter"/>
   </g>
   <g id="patch_20">
    <path d="M 716.377541 134.338749 
L 791.966396 134.338749 
L 791.966396 97.773477 
L 716.377541 97.773477 
z
" clip-path="url(#p8a94f8af44)" style="fill: #9f1853; stroke: #9f1853; stroke-width: 1.5; stroke-linejoin: miter"/>
   </g>
   <g id="patch_21">
    <path d="M 838.553365 65.28664 
C 840.007949 65.28664 841.403152 64.708728 842.431698 63.680182 
C 843.460244 62.651636 844.038156 61.256433 844.038156 59.801849 
C 844.038156 58.347266 843.460244 56.952062 842.431698 55.923516 
C 841.403152 54.89497 840.007949 54.317058 838.553365 54.317058 
C 837.098782 54.317058 835.703578 54.89497 834.675032 55.923516 
C 833.646487 56.952062 833.068574 58.347266 833.068574 59.801849 
C 833.068574 61.256433 833.646487 62.651636 834.675032 63.680182 
C 835.703578 64.708728 837.098782 65.28664 838.553365 65.28664 
z
" clip-path="url(#p8a94f8af44)" style="fill: #002d9c; stroke: #002d9c; stroke-width: 1.5; stroke-linejoin: miter"/>
   </g>
   <g id="patch_22">
    <path d="M 838.553365 185.108223 
C 841.947393 185.108223 845.202868 183.759761 847.602808 181.359821 
C 850.002749 178.959881 851.35121 175.704406 851.35121 172.310378 
C 851.35121 168.91635 850.002749 165.660875 847.602808 163.260935 
C 845.202868 160.860994 841.947393 159.512533 838.553365 159.512533 
C 835.159337 159.512533 831.903862 160.860994 829.503922 163.260935 
C 827.103982 165.660875 825.75552 168.91635 825.75552 172.310378 
C 825.75552 175.704406 827.103982 178.959881 829.503922 181.359821 
C 831.903862 183.759761 835.159337 185.108223 838.553365 185.108223 
z
" clip-path="url(#p8a94f8af44)" style="fill: #002d9c; stroke: #002d9c; stroke-width: 2; stroke-linejoin: miter"/>
   </g>
   <g id="patch_23">
    <path d="M 894.804817 190.593014 
L 951.064707 190.593014 
L 951.064707 154.027742 
L 894.804817 154.027742 
z
" clip-path="url(#p8a94f8af44)" style="fill: #9f1853; stroke: #9f1853; stroke-width: 1.5; stroke-linejoin: miter"/>
   </g>
   <g id="patch_24">
    <path d="M 1007.316158 121.540904 
C 1008.770742 121.540904 1010.165945 120.962992 1011.194491 119.934446 
C 1012.223037 118.9059 1012.800949 117.510697 1012.800949 116.056113 
C 1012.800949 114.60153 1012.223037 113.206327 1011.194491 112.177781 
C 1010.165945 111.149235 1008.770742 110.571323 1007.316158 110.571323 
C 1005.861575 110.571323 1004.466372 111.149235 1003.437826 112.177781 
C 1002.40928 113.206327 1001.831368 114.60153 1001.831368 116.056113 
C 1001.831368 117.510697 1002.40928 118.9059 1003.437826 119.934446 
C 1004.466372 120.962992 1005.861575 121.540904 1007.316158 121.540904 
z
" clip-path="url(#p8a94f8af44)" style="fill: #002d9c; stroke: #002d9c; stroke-width: 1.5; stroke-linejoin: miter"/>
   </g>
   <g id="patch_25">
    <path d="M 1007.316158 185.108223 
C 1010.710187 185.108223 1013.965661 183.759761 1016.365602 181.359821 
C 1018.765542 178.959881 1020.114004 175.704406 1020.114004 172.310378 
C 1020.114004 168.91635 1018.765542 165.660875 1016.365602 163.260935 
C 1013.965661 160.860994 1010.710187 159.512533 1007.316158 159.512533 
C 1003.92213 159.512533 1000.666656 160.860994 998.266715 163.260935 
C 995.866775 165.660875 994.518313 168.91635 994.518313 172.310378 
C 994.518313 175.704406 995.866775 178.959881 998.266715 181.359821 
C 1000.666656 183.759761 1003.92213 185.108223 1007.316158 185.108223 
z
" clip-path="url(#p8a94f8af44)" style="fill: #002d9c; stroke: #002d9c; stroke-width: 2; stroke-linejoin: miter"/>
   </g>
   <g id="patch_26">
    <path d="M 1059.292286 190.593014 
L 1124.102824 190.593014 
L 1124.102824 154.027742 
L 1059.292286 154.027742 
z
" clip-path="url(#p8a94f8af44)" style="fill: #9f1853; stroke: #9f1853; stroke-width: 1.5; stroke-linejoin: miter"/>
   </g>
   <g id="patch_27">
    <path d="M 1176.078952 65.28664 
C 1177.533535 65.28664 1178.928739 64.708728 1179.957284 63.680182 
C 1180.98583 62.651636 1181.563742 61.256433 1181.563742 59.801849 
C 1181.563742 58.347266 1180.98583 56.952062 1179.957284 55.923516 
C 1178.928739 54.89497 1177.533535 54.317058 1176.078952 54.317058 
C 1174.624368 54.317058 1173.229165 54.89497 1172.200619 55.923516 
C 1171.172073 56.952062 1170.594161 58.347266 1170.594161 59.801849 
C 1170.594161 61.256433 1171.172073 62.651636 1172.200619 63.680182 
C 1173.229165 64.708728 1174.624368 65.28664 1176.078952 65.28664 
z
" clip-path="url(#p8a94f8af44)" style="fill: #002d9c; stroke: #002d9c; stroke-width: 1.5; stroke-linejoin: miter"/>
   </g>
   <g id="patch_28">
    <path d="M 1176.078952 185.108223 
C 1179.47298 185.108223 1182.728454 183.759761 1185.128395 181.359821 
C 1187.528335 178.959881 1188.876797 175.704406 1188.876797 172.310378 
C 1188.876797 168.91635 1187.528335 165.660875 1185.128395 163.260935 
C 1182.728454 160.860994 1179.47298 159.512533 1176.078952 159.512533 
C 1172.684923 159.512533 1169.429449 160.860994 1167.029509 163.260935 
C 1164.629568 165.660875 1163.281106 168.91635 1163.281106 172.310378 
C 1163.281106 175.704406 1164.629568 178.959881 1167.029509 181.359821 
C 1169.429449 183.759761 1172.684923 185.108223 1176.078952 185.108223 
z
" clip-path="url(#p8a94f8af44)" style="fill: #002d9c; stroke: #002d9c; stroke-width: 2; stroke-linejoin: miter"/>
   </g>
   <g id="patch_29">
    <path d="M 1234.560885 190.593014 
L 1286.359812 190.593014 
L 1286.359812 154.027742 
L 1234.560885 154.027742 
z
" clip-path="url(#p8a94f8af44)" style="fill: #9f1853; stroke: #9f1853; stroke-width: 1.5; stroke-linejoin: miter"/>
   </g>
   <g id="patch_30">
    <path d="M 1344.841745 121.540904 
C 1346.296328 121.540904 1347.691532 120.962992 1348.720078 119.934446 
C 1349.748623 118.9059 1350.326536 117.510697 1350.326536 116.056113 
C 1350.326536 114.60153 1349.748623 113.206327 1348.720078 112.177781 
C 1347.691532 111.149235 1346.296328 110.571323 1344.841745 110.571323 
C 1343.387161 110.571323 1341.991958 111.149235 1340.963412 112.177781 
C 1339.934866 113.206327 1339.356954 114.60153 1339.356954 116.056113 
C 1339.356954 117.510697 1339.934866 118.9059 1340.963412 119.934446 
C 1341.991958 120.962992 1343.387161 121.540904 1344.841745 121.540904 
z
" clip-path="url(#p8a94f8af44)" style="fill: #002d9c; stroke: #002d9c; stroke-width: 1.5; stroke-linejoin: miter"/>
   </g>
   <g id="patch_31">
    <path d="M 1344.841745 185.108223 
C 1348.235773 185.108223 1351.491248 183.759761 1353.891188 181.359821 
C 1356.291128 178.959881 1357.63959 175.704406 1357.63959 172.310378 
C 1357.63959 168.91635 1356.291128 165.660875 1353.891188 163.260935 
C 1351.491248 160.860994 1348.235773 159.512533 1344.841745 159.512533 
C 1341.447717 159.512533 1338.192242 160.860994 1335.792302 163.260935 
C 1333.392361 165.660875 1332.0439 168.91635 1332.0439 172.310378 
C 1332.0439 175.704406 1333.392361 178.959881 1335.792302 181.359821 
C 1338.192242 183.759761 1341.447717 185.108223 1344.841745 185.108223 
z
" clip-path="url(#p8a94f8af44)" style="fill: #002d9c; stroke: #002d9c; stroke-width: 2; stroke-linejoin: miter"/>
   </g>
   <g id="patch_32">
    <path d="M 1397.228529 190.593014 
L 1461.217754 190.593014 
L 1461.217754 154.027742 
L 1397.228529 154.027742 
z
" clip-path="url(#p8a94f8af44)" style="fill: #9f1853; stroke: #9f1853; stroke-width: 1.5; stroke-linejoin: miter"/>
   </g>
   <g id="patch_33">
    <path d="M 107.247928 290.303697 
C 108.702511 290.303697 110.097715 289.725785 111.126261 288.697239 
C 112.154807 287.668694 112.732719 286.27349 112.732719 284.818907 
C 112.732719 283.364323 112.154807 281.96912 111.126261 280.940574 
C 110.097715 279.912028 108.702511 279.334116 107.247928 279.334116 
C 105.793344 279.334116 104.398141 279.912028 103.369595 280.940574 
C 102.341049 281.96912 101.763137 283.364323 101.763137 284.818907 
C 101.763137 286.27349 102.341049 287.668694 103.369595 288.697239 
C 104.398141 289.725785 105.793344 290.303697 107.247928 290.303697 
z
" clip-path="url(#p8a94f8af44)" style="fill: #002d9c; stroke: #002d9c; stroke-width: 1.5; stroke-linejoin: miter"/>
   </g>
   <g id="patch_34">
    <path d="M 107.247928 410.125281 
C 110.641956 410.125281 113.897431 408.776819 116.297371 406.376879 
C 118.697311 403.976938 120.045773 400.721464 120.045773 397.327435 
C 120.045773 393.933407 118.697311 390.677933 116.297371 388.277992 
C 113.897431 385.878052 110.641956 384.52959 107.247928 384.52959 
C 103.8539 384.52959 100.598425 385.878052 98.198485 388.277992 
C 95.798545 390.677933 94.450083 393.933407 94.450083 397.327435 
C 94.450083 400.721464 95.798545 403.976938 98.198485 406.376879 
C 100.598425 408.776819 103.8539 410.125281 107.247928 410.125281 
z
" clip-path="url(#p8a94f8af44)" style="fill: #002d9c; stroke: #002d9c; stroke-width: 2; stroke-linejoin: miter"/>
   </g>
   <g id="patch_35">
    <path d="M 163.558447 415.610071 
L 219.700203 415.610071 
L 219.700203 379.0448 
L 163.558447 379.0448 
z
" clip-path="url(#p8a94f8af44)" style="fill: #9f1853; stroke: #9f1853; stroke-width: 1.5; stroke-linejoin: miter"/>
   </g>
   <g id="patch_36">
    <path d="M 276.010721 346.557962 
C 277.465305 346.557962 278.860508 345.98005 279.889054 344.951504 
C 280.9176 343.922958 281.495512 342.527755 281.495512 341.073171 
C 281.495512 339.618588 280.9176 338.223384 279.889054 337.194838 
C 278.860508 336.166292 277.465305 335.58838 276.010721 335.58838 
C 274.556138 335.58838 273.160934 336.166292 272.132388 337.194838 
C 271.103843 338.223384 270.52593 339.618588 270.52593 341.073171 
C 270.52593 342.527755 271.103843 343.922958 272.132388 344.951504 
C 273.160934 345.98005 274.556138 346.557962 276.010721 346.557962 
z
" clip-path="url(#p8a94f8af44)" style="fill: #002d9c; stroke: #002d9c; stroke-width: 1.5; stroke-linejoin: miter"/>
   </g>
   <g id="patch_37">
    <path d="M 276.010721 410.125281 
C 279.404749 410.125281 282.660224 408.776819 285.060164 406.376879 
C 287.460105 403.976938 288.808566 400.721464 288.808566 397.327435 
C 288.808566 393.933407 287.460105 390.677933 285.060164 388.277992 
C 282.660224 385.878052 279.404749 384.52959 276.010721 384.52959 
C 272.616693 384.52959 269.361218 385.878052 266.961278 388.277992 
C 264.561338 390.677933 263.212876 393.933407 263.212876 397.327435 
C 263.212876 400.721464 264.561338 403.976938 266.961278 406.376879 
C 269.361218 408.776819 272.616693 410.125281 276.010721 410.125281 
z
" clip-path="url(#p8a94f8af44)" style="fill: #002d9c; stroke: #002d9c; stroke-width: 2; stroke-linejoin: miter"/>
   </g>
   <g id="patch_38">
    <path d="M 314.975237 359.355807 
L 405.808998 359.355807 
L 405.808998 322.790535 
L 314.975237 322.790535 
z
" clip-path="url(#p8a94f8af44)" style="fill: #9f1853; stroke: #9f1853; stroke-width: 1.5; stroke-linejoin: miter"/>
   </g>
   <g id="patch_39">
    <path d="M 329.09787 415.610071 
L 391.686365 415.610071 
L 391.686365 379.0448 
L 329.09787 379.0448 
z
" clip-path="url(#p8a94f8af44)" style="fill: #9f1853; stroke: #9f1853; stroke-width: 1.5; stroke-linejoin: miter"/>
   </g>
   <g id="patch_40">
    <path d="M 444.773514 290.303697 
C 446.228098 290.303697 447.623301 289.725785 448.651847 288.697239 
C 449.680393 287.668694 450.258305 286.27349 450.258305 284.818907 
C 450.258305 283.364323 449.680393 281.96912 448.651847 280.940574 
C 447.623301 279.912028 446.228098 279.334116 444.773514 279.334116 
C 443.318931 279.334116 441.923728 279.912028 440.895182 280.940574 
C 439.866636 281.96912 439.288724 283.364323 439.288724 284.818907 
C 439.288724 286.27349 439.866636 287.668694 440.895182 288.697239 
C 441.923728 289.725785 443.318931 290.303697 444.773514 290.303697 
z
" clip-path="url(#p8a94f8af44)" style="fill: #002d9c; stroke: #002d9c; stroke-width: 1.5; stroke-linejoin: miter"/>
   </g>
   <g id="patch_41">
    <path d="M 444.773514 410.125281 
C 448.167543 410.125281 451.423017 408.776819 453.822957 406.376879 
C 456.222898 403.976938 457.57136 400.721464 457.57136 397.327435 
C 457.57136 393.933407 456.222898 390.677933 453.822957 388.277992 
C 451.423017 385.878052 448.167543 384.52959 444.773514 384.52959 
C 441.379486 384.52959 438.124012 385.878052 435.724071 388.277992 
C 433.324131 390.677933 431.975669 393.933407 431.975669 397.327435 
C 431.975669 400.721464 433.324131 403.976938 435.724071 406.376879 
C 438.124012 408.776819 441.379486 410.125281 444.773514 410.125281 
z
" clip-path="url(#p8a94f8af44)" style="fill: #002d9c; stroke: #002d9c; stroke-width: 2; stroke-linejoin: miter"/>
   </g>
   <g id="patch_42">
    <path d="M 499.387967 303.101543 
L 558.921855 303.101543 
L 558.921855 266.536271 
L 499.387967 266.536271 
z
" clip-path="url(#p8a94f8af44)" style="fill: #9f1853; stroke: #9f1853; stroke-width: 1.5; stroke-linejoin: miter"/>
   </g>
   <g id="patch_43">
    <path d="M 484.503089 415.610071 
L 573.806733 415.610071 
L 573.806733 379.0448 
L 484.503089 379.0448 
z
" clip-path="url(#p8a94f8af44)" style="fill: #9f1853; stroke: #9f1853; stroke-width: 1.5; stroke-linejoin: miter"/>
   </g>
   <g id="patch_44">
    <path d="M 613.536308 290.303697 
C 614.990891 290.303697 616.386094 289.725785 617.41464 288.697239 
C 618.443186 287.668694 619.021098 286.27349 619.021098 284.818907 
C 619.021098 283.364323 618.443186 281.96912 617.41464 280.940574 
C 616.386094 279.912028 614.990891 279.334116 613.536308 279.334116 
C 612.081724 279.334116 610.686521 279.912028 609.657975 280.940574 
C 608.629429 281.96912 608.051517 283.364323 608.051517 284.818907 
C 608.051517 286.27349 608.629429 287.668694 609.657975 288.697239 
C 610.686521 289.725785 612.081724 290.303697 613.536308 290.303697 
z
" clip-path="url(#p8a94f8af44)" style="fill: #002d9c; stroke: #002d9c; stroke-width: 1.5; stroke-linejoin: miter"/>
   </g>
   <g id="patch_45">
    <path d="M 613.536308 353.871016 
C 616.930336 353.871016 620.18581 352.522554 622.585751 350.122614 
C 624.985691 347.722674 626.334153 344.467199 626.334153 341.073171 
C 626.334153 337.679143 624.985691 334.423668 622.585751 332.023728 
C 620.18581 329.623788 616.930336 328.275326 613.536308 328.275326 
C 610.142279 328.275326 606.886805 329.623788 604.486865 332.023728 
C 602.086924 334.423668 600.738462 337.679143 600.738462 341.073171 
C 600.738462 344.467199 602.086924 347.722674 604.486865 350.122614 
C 606.886805 352.522554 610.142279 353.871016 613.536308 353.871016 
z
" clip-path="url(#p8a94f8af44)" style="fill: #002d9c; stroke: #002d9c; stroke-width: 2; stroke-linejoin: miter"/>
   </g>
   <g id="patch_46">
    <path d="M 672.133562 303.101543 
L 723.701846 303.101543 
L 723.701846 266.536271 
L 672.133562 266.536271 
z
" clip-path="url(#p8a94f8af44)" style="fill: #9f1853; stroke: #9f1853; stroke-width: 1.5; stroke-linejoin: miter"/>
   </g>
   <g id="patch_47">
    <path d="M 651.972034 359.355807 
L 743.863375 359.355807 
L 743.863375 322.790535 
L 651.972034 322.790535 
z
" clip-path="url(#p8a94f8af44)" style="fill: #9f1853; stroke: #9f1853; stroke-width: 1.5; stroke-linejoin: miter"/>
   </g>
   <g id="patch_48">
    <path d="M 782.299101 290.303697 
C 783.753684 290.303697 785.148888 289.725785 786.177434 288.697239 
C 787.205979 287.668694 787.783892 286.27349 787.783892 284.818907 
C 787.783892 283.364323 787.205979 281.96912 786.177434 280.940574 
C 785.148888 279.912028 783.753684 279.334116 782.299101 279.334116 
C 780.844517 279.334116 779.449314 279.912028 778.420768 280.940574 
C 777.392222 281.96912 776.81431 283.364323 776.81431 284.818907 
C 776.81431 286.27349 777.392222 287.668694 778.420768 288.697239 
C 779.449314 289.725785 780.844517 290.303697 782.299101 290.303697 
z
" clip-path="url(#p8a94f8af44)" style="fill: #002d9c; stroke: #002d9c; stroke-width: 1.5; stroke-linejoin: miter"/>
   </g>
   <g id="patch_49">
    <path d="M 782.299101 353.871016 
C 785.693129 353.871016 788.948604 352.522554 791.348544 350.122614 
C 793.748484 347.722674 795.096946 344.467199 795.096946 341.073171 
C 795.096946 337.679143 793.748484 334.423668 791.348544 332.023728 
C 788.948604 329.623788 785.693129 328.275326 782.299101 328.275326 
C 778.905073 328.275326 775.649598 329.623788 773.249658 332.023728 
C 770.849717 334.423668 769.501256 337.679143 769.501256 341.073171 
C 769.501256 344.467199 770.849717 347.722674 773.249658 350.122614 
C 775.649598 352.522554 778.905073 353.871016 782.299101 353.871016 
z
" clip-path="url(#p8a94f8af44)" style="fill: #002d9c; stroke: #002d9c; stroke-width: 2; stroke-linejoin: miter"/>
   </g>
   <g id="patch_50">
    <path d="M 831.462515 303.101543 
L 901.89848 303.101543 
L 901.89848 266.536271 
L 831.462515 266.536271 
z
" clip-path="url(#p8a94f8af44)" style="fill: #9f1853; stroke: #9f1853; stroke-width: 1.5; stroke-linejoin: miter"/>
   </g>
   <g id="patch_51">
    <path d="M 821.145483 359.355807 
L 912.215512 359.355807 
L 912.215512 322.790535 
L 821.145483 322.790535 
z
" clip-path="url(#p8a94f8af44)" style="fill: #9f1853; stroke: #9f1853; stroke-width: 1.5; stroke-linejoin: miter"/>
   </g>
   <g id="patch_52">
    <path d="M 951.061894 290.303697 
C 952.516478 290.303697 953.911681 289.725785 954.940227 288.697239 
C 955.968773 287.668694 956.546685 286.27349 956.546685 284.818907 
C 956.546685 283.364323 955.968773 281.96912 954.940227 280.940574 
C 953.911681 279.912028 952.516478 279.334116 951.061894 279.334116 
C 949.60731 279.334116 948.212107 279.912028 947.183561 280.940574 
C 946.155015 281.96912 945.577103 283.364323 945.577103 284.818907 
C 945.577103 286.27349 946.155015 287.668694 947.183561 288.697239 
C 948.212107 289.725785 949.60731 290.303697 951.061894 290.303697 
z
" clip-path="url(#p8a94f8af44)" style="fill: #002d9c; stroke: #002d9c; stroke-width: 1.5; stroke-linejoin: miter"/>
   </g>
   <g id="patch_53">
    <path d="M 951.061894 410.125281 
C 954.455922 410.125281 957.711397 408.776819 960.111337 406.376879 
C 962.511277 403.976938 963.859739 400.721464 963.859739 397.327435 
C 963.859739 393.933407 962.511277 390.677933 960.111337 388.277992 
C 957.711397 385.878052 954.455922 384.52959 951.061894 384.52959 
C 947.667866 384.52959 944.412391 385.878052 942.012451 388.277992 
C 939.612511 390.677933 938.264049 393.933407 938.264049 397.327435 
C 938.264049 400.721464 939.612511 403.976938 942.012451 406.376879 
C 944.412391 408.776819 947.667866 410.125281 951.061894 410.125281 
z
" clip-path="url(#p8a94f8af44)" style="fill: #002d9c; stroke: #002d9c; stroke-width: 2; stroke-linejoin: miter"/>
   </g>
   <g id="patch_54">
    <path d="M 1007.43148 415.610071 
L 1063.455102 415.610071 
L 1063.455102 379.0448 
L 1007.43148 379.0448 
z
" clip-path="url(#p8a94f8af44)" style="fill: #9f1853; stroke: #9f1853; stroke-width: 1.5; stroke-linejoin: miter"/>
   </g>
   <g id="patch_55">
    <path d="M 1119.824687 346.557962 
C 1121.279271 346.557962 1122.674474 345.98005 1123.70302 344.951504 
C 1124.731566 343.922958 1125.309478 342.527755 1125.309478 341.073171 
C 1125.309478 339.618588 1124.731566 338.223384 1123.70302 337.194838 
C 1122.674474 336.166292 1121.279271 335.58838 1119.824687 335.58838 
C 1118.370104 335.58838 1116.9749 336.166292 1115.946354 337.194838 
C 1114.917809 338.223384 1114.339896 339.618588 1114.339896 341.073171 
C 1114.339896 342.527755 1114.917809 343.922958 1115.946354 344.951504 
C 1116.9749 345.98005 1118.370104 346.557962 1119.824687 346.557962 
z
" clip-path="url(#p8a94f8af44)" style="fill: #002d9c; stroke: #002d9c; stroke-width: 1.5; stroke-linejoin: miter"/>
   </g>
   <g id="patch_56">
    <path d="M 1119.824687 410.125281 
C 1123.218715 410.125281 1126.47419 408.776819 1128.87413 406.376879 
C 1131.274071 403.976938 1132.622532 400.721464 1132.622532 397.327435 
C 1132.622532 393.933407 1131.274071 390.677933 1128.87413 388.277992 
C 1126.47419 385.878052 1123.218715 384.52959 1119.824687 384.52959 
C 1116.430659 384.52959 1113.175184 385.878052 1110.775244 388.277992 
C 1108.375304 390.677933 1107.026842 393.933407 1107.026842 397.327435 
C 1107.026842 400.721464 1108.375304 403.976938 1110.775244 406.376879 
C 1113.175184 408.776819 1116.430659 410.125281 1119.824687 410.125281 
z
" clip-path="url(#p8a94f8af44)" style="fill: #002d9c; stroke: #002d9c; stroke-width: 2; stroke-linejoin: miter"/>
   </g>
   <g id="patch_57">
    <path d="M 1175.083251 415.610071 
L 1233.328917 415.610071 
L 1233.328917 379.0448 
L 1175.083251 379.0448 
z
" clip-path="url(#p8a94f8af44)" style="fill: #9f1853; stroke: #9f1853; stroke-width: 1.5; stroke-linejoin: miter"/>
   </g>
   <g id="patch_58">
    <path d="M 1288.58748 290.303697 
C 1290.042064 290.303697 1291.437267 289.725785 1292.465813 288.697239 
C 1293.494359 287.668694 1294.072271 286.27349 1294.072271 284.818907 
C 1294.072271 283.364323 1293.494359 281.96912 1292.465813 280.940574 
C 1291.437267 279.912028 1290.042064 279.334116 1288.58748 279.334116 
C 1287.132897 279.334116 1285.737694 279.912028 1284.709148 280.940574 
C 1283.680602 281.96912 1283.10269 283.364323 1283.10269 284.818907 
C 1283.10269 286.27349 1283.680602 287.668694 1284.709148 288.697239 
C 1285.737694 289.725785 1287.132897 290.303697 1288.58748 290.303697 
z
" clip-path="url(#p8a94f8af44)" style="fill: #002d9c; stroke: #002d9c; stroke-width: 1.5; stroke-linejoin: miter"/>
   </g>
   <g id="patch_59">
    <path d="M 1288.58748 410.125281 
C 1291.981509 410.125281 1295.236983 408.776819 1297.636924 406.376879 
C 1300.036864 403.976938 1301.385326 400.721464 1301.385326 397.327435 
C 1301.385326 393.933407 1300.036864 390.677933 1297.636924 388.277992 
C 1295.236983 385.878052 1291.981509 384.52959 1288.58748 384.52959 
C 1285.193452 384.52959 1281.937978 385.878052 1279.538037 388.277992 
C 1277.138097 390.677933 1275.789635 393.933407 1275.789635 397.327435 
C 1275.789635 400.721464 1277.138097 403.976938 1279.538037 406.376879 
C 1281.937978 408.776819 1285.193452 410.125281 1288.58748 410.125281 
z
" clip-path="url(#p8a94f8af44)" style="fill: #002d9c; stroke: #002d9c; stroke-width: 2; stroke-linejoin: miter"/>
   </g>
   <g id="patch_60">
    <path d="M 1344.838932 415.610071 
L 1401.098822 415.610071 
L 1401.098822 379.0448 
L 1344.838932 379.0448 
z
" clip-path="url(#p8a94f8af44)" style="fill: #9f1853; stroke: #9f1853; stroke-width: 1.5; stroke-linejoin: miter"/>
   </g>
   <g id="patch_61">
    <path d="M 1457.350274 346.557962 
C 1458.804857 346.557962 1460.200061 345.98005 1461.228606 344.951504 
C 1462.257152 343.922958 1462.835064 342.527755 1462.835064 341.073171 
C 1462.835064 339.618588 1462.257152 338.223384 1461.228606 337.194838 
C 1460.200061 336.166292 1458.804857 335.58838 1457.350274 335.58838 
C 1455.89569 335.58838 1454.500487 336.166292 1453.471941 337.194838 
C 1452.443395 338.223384 1451.865483 339.618588 1451.865483 341.073171 
C 1451.865483 342.527755 1452.443395 343.922958 1453.471941 344.951504 
C 1454.500487 345.98005 1455.89569 346.557962 1457.350274 346.557962 
z
" clip-path="url(#p8a94f8af44)" style="fill: #002d9c; stroke: #002d9c; stroke-width: 1.5; stroke-linejoin: miter"/>
   </g>
   <g id="patch_62">
    <path d="M 1457.350274 410.125281 
C 1460.744302 410.125281 1463.999776 408.776819 1466.399717 406.376879 
C 1468.799657 403.976938 1470.148119 400.721464 1470.148119 397.327435 
C 1470.148119 393.933407 1468.799657 390.677933 1466.399717 388.277992 
C 1463.999776 385.878052 1460.744302 384.52959 1457.350274 384.52959 
C 1453.956245 384.52959 1450.700771 385.878052 1448.300831 388.277992 
C 1445.90089 390.677933 1444.552428 393.933407 1444.552428 397.327435 
C 1444.552428 400.721464 1445.90089 403.976938 1448.300831 406.376879 
C 1450.700771 408.776819 1453.956245 410.125281 1457.350274 410.125281 
z
" clip-path="url(#p8a94f8af44)" style="fill: #002d9c; stroke: #002d9c; stroke-width: 2; stroke-linejoin: miter"/>
   </g>
   <g id="line2d_25">
    <path d="M 332.264986 123.369168 
L 332.264986 108.743059 
" clip-path="url(#p8a94f8af44)" style="fill: none; stroke: #ffffff; stroke-width: 2; stroke-linecap: square"/>
   </g>
   <g id="line2d_26">
    <path d="M 324.951931 116.056113 
L 339.57804 116.056113 
" clip-path="url(#p8a94f8af44)" style="fill: none; stroke: #ffffff; stroke-width: 2; stroke-linecap: square"/>
   </g>
   <g id="line2d_27">
    <path d="M 501.027779 123.369168 
L 501.027779 108.743059 
" clip-path="url(#p8a94f8af44)" style="fill: none; stroke: #ffffff; stroke-width: 2; stroke-linecap: square"/>
   </g>
   <g id="line2d_28">
    <path d="M 493.714724 116.056113 
L 508.340833 116.056113 
" clip-path="url(#p8a94f8af44)" style="fill: none; stroke: #ffffff; stroke-width: 2; stroke-linecap: square"/>
   </g>
   <g id="line2d_29">
    <path d="M 669.790572 123.369168 
L 669.790572 108.743059 
" clip-path="url(#p8a94f8af44)" style="fill: none; stroke: #ffffff; stroke-width: 2; stroke-linecap: square"/>
   </g>
   <g id="line2d_30">
    <path d="M 662.477518 116.056113 
L 677.103626 116.056113 
" clip-path="url(#p8a94f8af44)" style="fill: none; stroke: #ffffff; stroke-width: 2; stroke-linecap: square"/>
   </g>
   <g id="line2d_31">
    <path d="M 838.553365 179.623432 
L 838.553365 164.997323 
" clip-path="url(#p8a94f8af44)" style="fill: none; stroke: #ffffff; stroke-width: 2; stroke-linecap: square"/>
   </g>
   <g id="line2d_32">
    <path d="M 831.240311 172.310378 
L 845.86642 172.310378 
" clip-path="url(#p8a94f8af44)" style="fill: none; stroke: #ffffff; stroke-width: 2; stroke-linecap: square"/>
   </g>
   <g id="line2d_33">
    <path d="M 1007.316158 179.623432 
L 1007.316158 164.997323 
" clip-path="url(#p8a94f8af44)" style="fill: none; stroke: #ffffff; stroke-width: 2; stroke-linecap: square"/>
   </g>
   <g id="line2d_34">
    <path d="M 1000.003104 172.310378 
L 1014.629213 172.310378 
" clip-path="url(#p8a94f8af44)" style="fill: none; stroke: #ffffff; stroke-width: 2; stroke-linecap: square"/>
   </g>
   <g id="line2d_35">
    <path d="M 1176.078952 179.623432 
L 1176.078952 164.997323 
" clip-path="url(#p8a94f8af44)" style="fill: none; stroke: #ffffff; stroke-width: 2; stroke-linecap: square"/>
   </g>
   <g id="line2d_36">
    <path d="M 1168.765897 172.310378 
L 1183.392006 172.310378 
" clip-path="url(#p8a94f8af44)" style="fill: none; stroke: #ffffff; stroke-width: 2; stroke-linecap: square"/>
   </g>
   <g id="line2d_37">
    <path d="M 1344.841745 179.623432 
L 1344.841745 164.997323 
" clip-path="url(#p8a94f8af44)" style="fill: none; stroke: #ffffff; stroke-width: 2; stroke-linecap: square"/>
   </g>
   <g id="line2d_38">
    <path d="M 1337.52869 172.310378 
L 1352.154799 172.310378 
" clip-path="url(#p8a94f8af44)" style="fill: none; stroke: #ffffff; stroke-width: 2; stroke-linecap: square"/>
   </g>
   <g id="line2d_39">
    <path d="M 107.247928 404.64049 
L 107.247928 390.014381 
" clip-path="url(#p8a94f8af44)" style="fill: none; stroke: #ffffff; stroke-width: 2; stroke-linecap: square"/>
   </g>
   <g id="line2d_40">
    <path d="M 99.934874 397.327435 
L 114.560982 397.327435 
" clip-path="url(#p8a94f8af44)" style="fill: none; stroke: #ffffff; stroke-width: 2; stroke-linecap: square"/>
   </g>
   <g id="line2d_41">
    <path d="M 276.010721 404.64049 
L 276.010721 390.014381 
" clip-path="url(#p8a94f8af44)" style="fill: none; stroke: #ffffff; stroke-width: 2; stroke-linecap: square"/>
   </g>
   <g id="line2d_42">
    <path d="M 268.697667 397.327435 
L 283.323776 397.327435 
" clip-path="url(#p8a94f8af44)" style="fill: none; stroke: #ffffff; stroke-width: 2; stroke-linecap: square"/>
   </g>
   <g id="line2d_43">
    <path d="M 444.773514 404.64049 
L 444.773514 390.014381 
" clip-path="url(#p8a94f8af44)" style="fill: none; stroke: #ffffff; stroke-width: 2; stroke-linecap: square"/>
   </g>
   <g id="line2d_44">
    <path d="M 437.46046 397.327435 
L 452.086569 397.327435 
" clip-path="url(#p8a94f8af44)" style="fill: none; stroke: #ffffff; stroke-width: 2; stroke-linecap: square"/>
   </g>
   <g id="line2d_45">
    <path d="M 613.536308 348.386225 
L 613.536308 333.760117 
" clip-path="url(#p8a94f8af44)" style="fill: none; stroke: #ffffff; stroke-width: 2; stroke-linecap: square"/>
   </g>
   <g id="line2d_46">
    <path d="M 606.223253 341.073171 
L 620.849362 341.073171 
" clip-path="url(#p8a94f8af44)" style="fill: none; stroke: #ffffff; stroke-width: 2; stroke-linecap: square"/>
   </g>
   <g id="line2d_47">
    <path d="M 782.299101 348.386225 
L 782.299101 333.760117 
" clip-path="url(#p8a94f8af44)" style="fill: none; stroke: #ffffff; stroke-width: 2; stroke-linecap: square"/>
   </g>
   <g id="line2d_48">
    <path d="M 774.986046 341.073171 
L 789.612155 341.073171 
" clip-path="url(#p8a94f8af44)" style="fill: none; stroke: #ffffff; stroke-width: 2; stroke-linecap: square"/>
   </g>
   <g id="line2d_49">
    <path d="M 951.061894 404.64049 
L 951.061894 390.014381 
" clip-path="url(#p8a94f8af44)" style="fill: none; stroke: #ffffff; stroke-width: 2; stroke-linecap: square"/>
   </g>
   <g id="line2d_50">
    <path d="M 943.74884 397.327435 
L 958.374948 397.327435 
" clip-path="url(#p8a94f8af44)" style="fill: none; stroke: #ffffff; stroke-width: 2; stroke-linecap: square"/>
   </g>
   <g id="line2d_51">
    <path d="M 1119.824687 404.64049 
L 1119.824687 390.014381 
" clip-path="url(#p8a94f8af44)" style="fill: none; stroke: #ffffff; stroke-width: 2; stroke-linecap: square"/>
   </g>
   <g id="line2d_52">
    <path d="M 1112.511633 397.327435 
L 1127.137742 397.327435 
" clip-path="url(#p8a94f8af44)" style="fill: none; stroke: #ffffff; stroke-width: 2; stroke-linecap: square"/>
   </g>
   <g id="line2d_53">
    <path d="M 1288.58748 404.64049 
L 1288.58748 390.014381 
" clip-path="url(#p8a94f8af44)" style="fill: none; stroke: #ffffff; stroke-width: 2; stroke-linecap: square"/>
   </g>
   <g id="line2d_54">
    <path d="M 1281.274426 397.327435 
L 1295.900535 397.327435 
" clip-path="url(#p8a94f8af44)" style="fill: none; stroke: #ffffff; stroke-width: 2; stroke-linecap: square"/>
   </g>
   <g id="line2d_55">
    <path d="M 1457.350274 404.64049 
L 1457.350274 390.014381 
" clip-path="url(#p8a94f8af44)" style="fill: none; stroke: #ffffff; stroke-width: 2; stroke-linecap: square"/>
   </g>
   <g id="line2d_56">
    <path d="M 1450.037219 397.327435 
L 1464.663328 397.327435 
" clip-path="url(#p8a94f8af44)" style="fill: none; stroke: #ffffff; stroke-width: 2; stroke-linecap: square"/>
   </g>
   <g id="text_2">
    <g clip-path="url(#p8a94f8af44)">
     <!-- ${q}_{0}$ -->
     <g transform="translate(47.582272 64.252826) scale(0.1625 -0.1625)">
      <defs>
       <path id="DejaVuSans-Oblique-71" d="M 2669 525 
Q 2438 222 2123 65 
Q 1809 -91 1428 -91 
Q 897 -91 595 267 
Q 294 625 294 1253 
Q 294 1759 480 2231 
Q 666 2703 1013 3078 
Q 1238 3322 1530 3453 
Q 1822 3584 2144 3584 
Q 2531 3584 2781 3431 
Q 3031 3278 3144 2969 
L 3244 3494 
L 3822 3494 
L 2888 -1319 
L 2309 -1319 
L 2669 525 
z
M 891 1338 
Q 891 875 1084 633 
Q 1278 391 1644 391 
Q 2188 391 2572 911 
Q 2956 1431 2956 2175 
Q 2956 2625 2757 2864 
Q 2559 3103 2188 3103 
Q 1916 3103 1684 2976 
Q 1453 2850 1281 2606 
Q 1100 2350 995 2006 
Q 891 1663 891 1338 
z
" transform="scale(0.015625)"/>
      </defs>
      <use xlink:href="#DejaVuSans-Oblique-71"/>
      <use xlink:href="#DejaVuSans-30" transform="translate(63.476562 -16.40625) scale(0.7)"/>
     </g>
    </g>
   </g>
   <g id="text_3">
    <g clip-path="url(#p8a94f8af44)">
     <!-- ${q}_{1}$ -->
     <g transform="translate(47.582272 120.50709) scale(0.1625 -0.1625)">
      <use xlink:href="#DejaVuSans-Oblique-71"/>
      <use xlink:href="#DejaVuSans-31" transform="translate(63.476562 -16.40625) scale(0.7)"/>
     </g>
    </g>
   </g>
   <g id="text_4">
    <g clip-path="url(#p8a94f8af44)">
     <!-- ${q}_{2}$ -->
     <g transform="translate(47.582272 176.761354) scale(0.1625 -0.1625)">
      <use xlink:href="#DejaVuSans-Oblique-71"/>
      <use xlink:href="#DejaVuSans-32" transform="translate(63.476562 -16.40625) scale(0.7)"/>
     </g>
    </g>
   </g>
   <g id="text_5">
    <g clip-path="url(#p8a94f8af44)">
     <!-- ${q}_{0}$ -->
     <g transform="translate(47.582272 289.269883) scale(0.1625 -0.1625)">
      <use xlink:href="#DejaVuSans-Oblique-71"/>
      <use xlink:href="#DejaVuSans-30" transform="translate(63.476562 -16.40625) scale(0.7)"/>
     </g>
    </g>
   </g>
   <g id="text_6">
    <g clip-path="url(#p8a94f8af44)">
     <!-- ${q}_{1}$ -->
     <g transform="translate(47.582272 345.524148) scale(0.1625 -0.1625)">
      <use xlink:href="#DejaVuSans-Oblique-71"/>
      <use xlink:href="#DejaVuSans-31" transform="translate(63.476562 -16.40625) scale(0.7)"/>
     </g>
    </g>
   </g>
   <g id="text_7">
    <g clip-path="url(#p8a94f8af44)">
     <!-- ${q}_{2}$ -->
     <g transform="translate(47.582272 401.778412) scale(0.1625 -0.1625)">
      <use xlink:href="#DejaVuSans-Oblique-71"/>
      <use xlink:href="#DejaVuSans-32" transform="translate(63.476562 -16.40625) scale(0.7)"/>
     </g>
    </g>
   </g>
   <g id="text_8">
    <g clip-path="url(#p8a94f8af44)">
     <!-- $\pi$/2, 1.45, $-$$\pi$ -->
     <g style="fill: #ffffff" transform="translate(109.45506 72.978931) scale(0.08 -0.08)">
      <defs>
       <path id="DejaVuSans-Oblique-3c0" d="M 584 3500 
L 3938 3500 
L 3825 2925 
L 3384 2925 
L 2966 775 
Q 2922 550 2981 450 
Q 3038 353 3209 353 
Q 3256 353 3325 363 
Q 3397 369 3419 372 
L 3338 -44 
Q 3222 -84 3103 -103 
Q 2981 -122 2866 -122 
Q 2491 -122 2388 81 
Q 2284 288 2391 838 
L 2797 2925 
L 1506 2925 
L 938 0 
L 350 0 
L 919 2925 
L 472 2925 
L 584 3500 
z
" transform="scale(0.015625)"/>
       <path id="DejaVuSans-2f" d="M 1625 4666 
L 2156 4666 
L 531 -594 
L 0 -594 
L 1625 4666 
z
" transform="scale(0.015625)"/>
       <path id="DejaVuSans-2c" d="M 750 794 
L 1409 794 
L 1409 256 
L 897 -744 
L 494 -744 
L 750 256 
L 750 794 
z
" transform="scale(0.015625)"/>
       <path id="DejaVuSans-2212" d="M 678 2272 
L 4684 2272 
L 4684 1741 
L 678 1741 
L 678 2272 
z
" transform="scale(0.015625)"/>
      </defs>
      <use xlink:href="#DejaVuSans-Oblique-3c0" transform="translate(0 0.78125)"/>
      <use xlink:href="#DejaVuSans-2f" transform="translate(60.205078 0.78125)"/>
      <use xlink:href="#DejaVuSans-32" transform="translate(90.271484 0.78125)"/>
      <use xlink:href="#DejaVuSans-2c" transform="translate(153.894531 0.78125)"/>
      <use xlink:href="#DejaVuSans-20" transform="translate(185.681641 0.78125)"/>
      <use xlink:href="#DejaVuSans-31" transform="translate(217.46875 0.78125)"/>
      <use xlink:href="#DejaVuSans-2e" transform="translate(281.091797 0.78125)"/>
      <use xlink:href="#DejaVuSans-34" transform="translate(312.878906 0.78125)"/>
      <use xlink:href="#DejaVuSans-35" transform="translate(376.501953 0.78125)"/>
      <use xlink:href="#DejaVuSans-2c" transform="translate(440.125 0.78125)"/>
      <use xlink:href="#DejaVuSans-20" transform="translate(471.912109 0.78125)"/>
      <use xlink:href="#DejaVuSans-2212" transform="translate(503.699219 0.78125)"/>
      <use xlink:href="#DejaVuSans-Oblique-3c0" transform="translate(587.488281 0.78125)"/>
     </g>
    </g>
   </g>
   <g id="text_9">
    <g clip-path="url(#p8a94f8af44)">
     <!-- $\mathrm{U_3}$ -->
     <g style="fill: #ffffff" transform="translate(127.44506 57.904246) scale(0.13 -0.13)">
      <defs>
       <path id="DejaVuSans-55" d="M 556 4666 
L 1191 4666 
L 1191 1831 
Q 1191 1081 1462 751 
Q 1734 422 2344 422 
Q 2950 422 3222 751 
Q 3494 1081 3494 1831 
L 3494 4666 
L 4128 4666 
L 4128 1753 
Q 4128 841 3676 375 
Q 3225 -91 2344 -91 
Q 1459 -91 1007 375 
Q 556 841 556 1753 
L 556 4666 
z
" transform="scale(0.015625)"/>
      </defs>
      <use xlink:href="#DejaVuSans-55" transform="translate(0 0.09375)"/>
      <use xlink:href="#DejaVuSans-33" transform="translate(74.150391 -16.3125) scale(0.7)"/>
     </g>
    </g>
   </g>
   <g id="text_10">
    <g clip-path="url(#p8a94f8af44)">
     <!-- $\mathrm{\left|0\right\rangle}$ -->
     <g transform="translate(126.99006 119.643301) scale(0.13 -0.13)">
      <defs>
       <path id="DejaVuSans-7c" d="M 1344 4891 
L 1344 -1509 
L 813 -1509 
L 813 4891 
L 1344 4891 
z
" transform="scale(0.015625)"/>
       <path id="DejaVuSans-27e9" d="M 1925 2006 
L 1044 -844 
L 513 -844 
L 1394 2006 
L 513 4856 
L 1044 4856 
L 1925 2006 
z
" transform="scale(0.015625)"/>
      </defs>
      <use xlink:href="#DejaVuSans-7c" transform="translate(0 16.625) scale(0.756406)"/>
      <use xlink:href="#DejaVuSans-30" transform="translate(25.479126 0.125)"/>
      <use xlink:href="#DejaVuSans-27e9" transform="translate(89.102173 0.125)"/>
     </g>
    </g>
   </g>
   <g id="text_11">
    <g clip-path="url(#p8a94f8af44)">
     <!-- $\mathrm{\left|0\right\rangle}$ -->
     <g transform="translate(126.99006 175.897565) scale(0.13 -0.13)">
      <use xlink:href="#DejaVuSans-7c" transform="translate(0 16.625) scale(0.756406)"/>
      <use xlink:href="#DejaVuSans-30" transform="translate(25.479126 0.125)"/>
      <use xlink:href="#DejaVuSans-27e9" transform="translate(89.102173 0.125)"/>
     </g>
    </g>
   </g>
   <g id="text_12">
    <g clip-path="url(#p8a94f8af44)">
     <!-- 2.31, $-$2$\pi$, $-$$\pi$/2 -->
     <g style="fill: #ffffff" transform="translate(216.043589 129.233195) scale(0.08 -0.08)">
      <use xlink:href="#DejaVuSans-32" transform="translate(0 0.78125)"/>
      <use xlink:href="#DejaVuSans-2e" transform="translate(63.623047 0.78125)"/>
      <use xlink:href="#DejaVuSans-33" transform="translate(95.410156 0.78125)"/>
      <use xlink:href="#DejaVuSans-31" transform="translate(159.033203 0.78125)"/>
      <use xlink:href="#DejaVuSans-2c" transform="translate(222.65625 0.78125)"/>
      <use xlink:href="#DejaVuSans-20" transform="translate(254.443359 0.78125)"/>
      <use xlink:href="#DejaVuSans-2212" transform="translate(286.230469 0.78125)"/>
      <use xlink:href="#DejaVuSans-32" transform="translate(370.019531 0.78125)"/>
      <use xlink:href="#DejaVuSans-Oblique-3c0" transform="translate(433.642578 0.78125)"/>
      <use xlink:href="#DejaVuSans-2c" transform="translate(493.847656 0.78125)"/>
      <use xlink:href="#DejaVuSans-20" transform="translate(525.634766 0.78125)"/>
      <use xlink:href="#DejaVuSans-2212" transform="translate(557.421875 0.78125)"/>
      <use xlink:href="#DejaVuSans-Oblique-3c0" transform="translate(641.210938 0.78125)"/>
      <use xlink:href="#DejaVuSans-2f" transform="translate(701.416016 0.78125)"/>
      <use xlink:href="#DejaVuSans-32" transform="translate(731.482422 0.78125)"/>
     </g>
    </g>
   </g>
   <g id="text_13">
    <g clip-path="url(#p8a94f8af44)">
     <!-- $\mathrm{U_3}$ -->
     <g style="fill: #ffffff" transform="translate(239.953589 114.15851) scale(0.13 -0.13)">
      <use xlink:href="#DejaVuSans-55" transform="translate(0 0.09375)"/>
      <use xlink:href="#DejaVuSans-33" transform="translate(74.150391 -16.3125) scale(0.7)"/>
     </g>
    </g>
   </g>
   <g id="text_14">
    <g clip-path="url(#p8a94f8af44)">
     <!-- 1.35, 0, 0 -->
     <g style="fill: #ffffff" transform="translate(228.802339 185.487459) scale(0.08 -0.08)">
      <use xlink:href="#DejaVuSans-31"/>
      <use xlink:href="#DejaVuSans-2e" x="63.623047"/>
      <use xlink:href="#DejaVuSans-33" x="95.410156"/>
      <use xlink:href="#DejaVuSans-35" x="159.033203"/>
      <use xlink:href="#DejaVuSans-2c" x="222.65625"/>
      <use xlink:href="#DejaVuSans-20" x="254.443359"/>
      <use xlink:href="#DejaVuSans-30" x="286.230469"/>
      <use xlink:href="#DejaVuSans-2c" x="349.853516"/>
      <use xlink:href="#DejaVuSans-20" x="381.640625"/>
      <use xlink:href="#DejaVuSans-30" x="413.427734"/>
     </g>
    </g>
   </g>
   <g id="text_15">
    <g clip-path="url(#p8a94f8af44)">
     <!-- $\mathrm{U_3}$ -->
     <g style="fill: #ffffff" transform="translate(239.953589 170.412775) scale(0.13 -0.13)">
      <use xlink:href="#DejaVuSans-55" transform="translate(0 0.09375)"/>
      <use xlink:href="#DejaVuSans-33" transform="translate(74.150391 -16.3125) scale(0.7)"/>
     </g>
    </g>
   </g>
   <g id="text_16">
    <g clip-path="url(#p8a94f8af44)">
     <!-- 0, 0, $-$0.101 -->
     <g style="fill: #ffffff" transform="translate(391.646382 185.487459) scale(0.08 -0.08)">
      <use xlink:href="#DejaVuSans-30" transform="translate(0 0.78125)"/>
      <use xlink:href="#DejaVuSans-2c" transform="translate(63.623047 0.78125)"/>
      <use xlink:href="#DejaVuSans-20" transform="translate(95.410156 0.78125)"/>
      <use xlink:href="#DejaVuSans-30" transform="translate(127.197266 0.78125)"/>
      <use xlink:href="#DejaVuSans-2c" transform="translate(190.820312 0.78125)"/>
      <use xlink:href="#DejaVuSans-20" transform="translate(222.607422 0.78125)"/>
      <use xlink:href="#DejaVuSans-2212" transform="translate(254.394531 0.78125)"/>
      <use xlink:href="#DejaVuSans-30" transform="translate(338.183594 0.78125)"/>
      <use xlink:href="#DejaVuSans-2e" transform="translate(401.806641 0.78125)"/>
      <use xlink:href="#DejaVuSans-31" transform="translate(433.59375 0.78125)"/>
      <use xlink:href="#DejaVuSans-30" transform="translate(497.216797 0.78125)"/>
      <use xlink:href="#DejaVuSans-31" transform="translate(560.839844 0.78125)"/>
     </g>
    </g>
   </g>
   <g id="text_17">
    <g clip-path="url(#p8a94f8af44)">
     <!-- $\mathrm{U_3}$ -->
     <g style="fill: #ffffff" transform="translate(408.716382 170.412775) scale(0.13 -0.13)">
      <use xlink:href="#DejaVuSans-55" transform="translate(0 0.09375)"/>
      <use xlink:href="#DejaVuSans-33" transform="translate(74.150391 -16.3125) scale(0.7)"/>
     </g>
    </g>
   </g>
   <g id="text_18">
    <g clip-path="url(#p8a94f8af44)">
     <!-- 1.24, $-$1.38, $-$2.96 -->
     <g style="fill: #ffffff" transform="translate(378.326382 129.233195) scale(0.08 -0.08)">
      <use xlink:href="#DejaVuSans-31" transform="translate(0 0.78125)"/>
      <use xlink:href="#DejaVuSans-2e" transform="translate(63.623047 0.78125)"/>
      <use xlink:href="#DejaVuSans-32" transform="translate(89.910156 0.78125)"/>
      <use xlink:href="#DejaVuSans-34" transform="translate(153.533203 0.78125)"/>
      <use xlink:href="#DejaVuSans-2c" transform="translate(217.15625 0.78125)"/>
      <use xlink:href="#DejaVuSans-20" transform="translate(248.943359 0.78125)"/>
      <use xlink:href="#DejaVuSans-2212" transform="translate(280.730469 0.78125)"/>
      <use xlink:href="#DejaVuSans-31" transform="translate(364.519531 0.78125)"/>
      <use xlink:href="#DejaVuSans-2e" transform="translate(428.142578 0.78125)"/>
      <use xlink:href="#DejaVuSans-33" transform="translate(459.929688 0.78125)"/>
      <use xlink:href="#DejaVuSans-38" transform="translate(523.552734 0.78125)"/>
      <use xlink:href="#DejaVuSans-2c" transform="translate(587.175781 0.78125)"/>
      <use xlink:href="#DejaVuSans-20" transform="translate(618.962891 0.78125)"/>
      <use xlink:href="#DejaVuSans-2212" transform="translate(650.75 0.78125)"/>
      <use xlink:href="#DejaVuSans-32" transform="translate(734.539062 0.78125)"/>
      <use xlink:href="#DejaVuSans-2e" transform="translate(798.162109 0.78125)"/>
      <use xlink:href="#DejaVuSans-39" transform="translate(829.949219 0.78125)"/>
      <use xlink:href="#DejaVuSans-36" transform="translate(893.572266 0.78125)"/>
     </g>
    </g>
   </g>
   <g id="text_19">
    <g clip-path="url(#p8a94f8af44)">
     <!-- $\mathrm{U_3}$ -->
     <g style="fill: #ffffff" transform="translate(408.716382 114.15851) scale(0.13 -0.13)">
      <use xlink:href="#DejaVuSans-55" transform="translate(0 0.09375)"/>
      <use xlink:href="#DejaVuSans-33" transform="translate(74.150391 -16.3125) scale(0.7)"/>
     </g>
    </g>
   </g>
   <g id="text_20">
    <g clip-path="url(#p8a94f8af44)">
     <!-- $\pi$/2, 0, $\pi$/2 -->
     <g style="fill: #ffffff" transform="translate(565.449175 72.978931) scale(0.08 -0.08)">
      <use xlink:href="#DejaVuSans-Oblique-3c0" transform="translate(0 0.78125)"/>
      <use xlink:href="#DejaVuSans-2f" transform="translate(60.205078 0.78125)"/>
      <use xlink:href="#DejaVuSans-32" transform="translate(90.271484 0.78125)"/>
      <use xlink:href="#DejaVuSans-2c" transform="translate(153.894531 0.78125)"/>
      <use xlink:href="#DejaVuSans-20" transform="translate(185.681641 0.78125)"/>
      <use xlink:href="#DejaVuSans-30" transform="translate(217.46875 0.78125)"/>
      <use xlink:href="#DejaVuSans-2c" transform="translate(281.091797 0.78125)"/>
      <use xlink:href="#DejaVuSans-20" transform="translate(312.878906 0.78125)"/>
      <use xlink:href="#DejaVuSans-Oblique-3c0" transform="translate(344.666016 0.78125)"/>
      <use xlink:href="#DejaVuSans-2f" transform="translate(404.871094 0.78125)"/>
      <use xlink:href="#DejaVuSans-32" transform="translate(434.9375 0.78125)"/>
     </g>
    </g>
   </g>
   <g id="text_21">
    <g clip-path="url(#p8a94f8af44)">
     <!-- $\mathrm{U_3}$ -->
     <g style="fill: #ffffff" transform="translate(577.479175 57.904246) scale(0.13 -0.13)">
      <use xlink:href="#DejaVuSans-55" transform="translate(0 0.09375)"/>
      <use xlink:href="#DejaVuSans-33" transform="translate(74.150391 -16.3125) scale(0.7)"/>
     </g>
    </g>
   </g>
   <g id="text_22">
    <g clip-path="url(#p8a94f8af44)">
     <!-- 2.06, 2.75, $-$2.29 -->
     <g style="fill: #ffffff" transform="translate(550.849175 129.233195) scale(0.08 -0.08)">
      <defs>
       <path id="DejaVuSans-37" d="M 525 4666 
L 3525 4666 
L 3525 4397 
L 1831 0 
L 1172 0 
L 2766 4134 
L 525 4134 
L 525 4666 
z
" transform="scale(0.015625)"/>
      </defs>
      <use xlink:href="#DejaVuSans-32" transform="translate(0 0.78125)"/>
      <use xlink:href="#DejaVuSans-2e" transform="translate(63.623047 0.78125)"/>
      <use xlink:href="#DejaVuSans-30" transform="translate(95.410156 0.78125)"/>
      <use xlink:href="#DejaVuSans-36" transform="translate(159.033203 0.78125)"/>
      <use xlink:href="#DejaVuSans-2c" transform="translate(222.65625 0.78125)"/>
      <use xlink:href="#DejaVuSans-20" transform="translate(254.443359 0.78125)"/>
      <use xlink:href="#DejaVuSans-32" transform="translate(286.230469 0.78125)"/>
      <use xlink:href="#DejaVuSans-2e" transform="translate(349.853516 0.78125)"/>
      <use xlink:href="#DejaVuSans-37" transform="translate(373.890625 0.78125)"/>
      <use xlink:href="#DejaVuSans-35" transform="translate(437.513672 0.78125)"/>
      <use xlink:href="#DejaVuSans-2c" transform="translate(501.136719 0.78125)"/>
      <use xlink:href="#DejaVuSans-20" transform="translate(532.923828 0.78125)"/>
      <use xlink:href="#DejaVuSans-2212" transform="translate(564.710938 0.78125)"/>
      <use xlink:href="#DejaVuSans-32" transform="translate(648.5 0.78125)"/>
      <use xlink:href="#DejaVuSans-2e" transform="translate(712.123047 0.78125)"/>
      <use xlink:href="#DejaVuSans-32" transform="translate(738.410156 0.78125)"/>
      <use xlink:href="#DejaVuSans-39" transform="translate(800.283203 0.78125)"/>
     </g>
    </g>
   </g>
   <g id="text_23">
    <g clip-path="url(#p8a94f8af44)">
     <!-- $\mathrm{U_3}$ -->
     <g style="fill: #ffffff" transform="translate(577.479175 114.15851) scale(0.13 -0.13)">
      <use xlink:href="#DejaVuSans-55" transform="translate(0 0.09375)"/>
      <use xlink:href="#DejaVuSans-33" transform="translate(74.150391 -16.3125) scale(0.7)"/>
     </g>
    </g>
   </g>
   <g id="text_24">
    <g clip-path="url(#p8a94f8af44)">
     <!-- $\pi$/2, $-$2.16, 0 -->
     <g style="fill: #ffffff" transform="translate(728.091969 72.978931) scale(0.08 -0.08)">
      <use xlink:href="#DejaVuSans-Oblique-3c0" transform="translate(0 0.78125)"/>
      <use xlink:href="#DejaVuSans-2f" transform="translate(60.205078 0.78125)"/>
      <use xlink:href="#DejaVuSans-32" transform="translate(90.271484 0.78125)"/>
      <use xlink:href="#DejaVuSans-2c" transform="translate(153.894531 0.78125)"/>
      <use xlink:href="#DejaVuSans-20" transform="translate(185.681641 0.78125)"/>
      <use xlink:href="#DejaVuSans-2212" transform="translate(217.46875 0.78125)"/>
      <use xlink:href="#DejaVuSans-32" transform="translate(301.257812 0.78125)"/>
      <use xlink:href="#DejaVuSans-2e" transform="translate(364.880859 0.78125)"/>
      <use xlink:href="#DejaVuSans-31" transform="translate(396.667969 0.78125)"/>
      <use xlink:href="#DejaVuSans-36" transform="translate(460.291016 0.78125)"/>
      <use xlink:href="#DejaVuSans-2c" transform="translate(523.914062 0.78125)"/>
      <use xlink:href="#DejaVuSans-20" transform="translate(555.701172 0.78125)"/>
      <use xlink:href="#DejaVuSans-30" transform="translate(587.488281 0.78125)"/>
     </g>
    </g>
   </g>
   <g id="text_25">
    <g clip-path="url(#p8a94f8af44)">
     <!-- $\mathrm{U_3}$ -->
     <g style="fill: #ffffff" transform="translate(746.241969 57.904246) scale(0.13 -0.13)">
      <use xlink:href="#DejaVuSans-55" transform="translate(0 0.09375)"/>
      <use xlink:href="#DejaVuSans-33" transform="translate(74.150391 -16.3125) scale(0.7)"/>
     </g>
    </g>
   </g>
   <g id="text_26">
    <g clip-path="url(#p8a94f8af44)">
     <!-- $\pi$/2, $-$2.63, $-$$\pi$ -->
     <g style="fill: #ffffff" transform="translate(724.891969 129.233195) scale(0.08 -0.08)">
      <use xlink:href="#DejaVuSans-Oblique-3c0" transform="translate(0 0.78125)"/>
      <use xlink:href="#DejaVuSans-2f" transform="translate(60.205078 0.78125)"/>
      <use xlink:href="#DejaVuSans-32" transform="translate(90.271484 0.78125)"/>
      <use xlink:href="#DejaVuSans-2c" transform="translate(153.894531 0.78125)"/>
      <use xlink:href="#DejaVuSans-20" transform="translate(185.681641 0.78125)"/>
      <use xlink:href="#DejaVuSans-2212" transform="translate(217.46875 0.78125)"/>
      <use xlink:href="#DejaVuSans-32" transform="translate(301.257812 0.78125)"/>
      <use xlink:href="#DejaVuSans-2e" transform="translate(364.880859 0.78125)"/>
      <use xlink:href="#DejaVuSans-36" transform="translate(396.667969 0.78125)"/>
      <use xlink:href="#DejaVuSans-33" transform="translate(460.291016 0.78125)"/>
      <use xlink:href="#DejaVuSans-2c" transform="translate(523.914062 0.78125)"/>
      <use xlink:href="#DejaVuSans-20" transform="translate(555.701172 0.78125)"/>
      <use xlink:href="#DejaVuSans-2212" transform="translate(587.488281 0.78125)"/>
      <use xlink:href="#DejaVuSans-Oblique-3c0" transform="translate(671.277344 0.78125)"/>
     </g>
    </g>
   </g>
   <g id="text_27">
    <g clip-path="url(#p8a94f8af44)">
     <!-- $\mathrm{U_3}$ -->
     <g style="fill: #ffffff" transform="translate(746.241969 114.15851) scale(0.13 -0.13)">
      <use xlink:href="#DejaVuSans-55" transform="translate(0 0.09375)"/>
      <use xlink:href="#DejaVuSans-33" transform="translate(74.150391 -16.3125) scale(0.7)"/>
     </g>
    </g>
   </g>
   <g id="text_28">
    <g clip-path="url(#p8a94f8af44)">
     <!-- 0, 0, 0.278 -->
     <g style="fill: #ffffff" transform="translate(901.308512 185.487459) scale(0.08 -0.08)">
      <use xlink:href="#DejaVuSans-30"/>
      <use xlink:href="#DejaVuSans-2c" x="63.623047"/>
      <use xlink:href="#DejaVuSans-20" x="95.410156"/>
      <use xlink:href="#DejaVuSans-30" x="127.197266"/>
      <use xlink:href="#DejaVuSans-2c" x="190.820312"/>
      <use xlink:href="#DejaVuSans-20" x="222.607422"/>
      <use xlink:href="#DejaVuSans-30" x="254.394531"/>
      <use xlink:href="#DejaVuSans-2e" x="318.017578"/>
      <use xlink:href="#DejaVuSans-32" x="349.804688"/>
      <use xlink:href="#DejaVuSans-37" x="413.427734"/>
      <use xlink:href="#DejaVuSans-38" x="477.050781"/>
     </g>
    </g>
   </g>
   <g id="text_29">
    <g clip-path="url(#p8a94f8af44)">
     <!-- $\mathrm{U_3}$ -->
     <g style="fill: #ffffff" transform="translate(915.004762 170.412775) scale(0.13 -0.13)">
      <use xlink:href="#DejaVuSans-55" transform="translate(0 0.09375)"/>
      <use xlink:href="#DejaVuSans-33" transform="translate(74.150391 -16.3125) scale(0.7)"/>
     </g>
    </g>
   </g>
   <g id="text_30">
    <g clip-path="url(#p8a94f8af44)">
     <!-- 0, 0, $-$0.125 -->
     <g style="fill: #ffffff" transform="translate(1066.697555 185.487459) scale(0.08 -0.08)">
      <use xlink:href="#DejaVuSans-30" transform="translate(0 0.78125)"/>
      <use xlink:href="#DejaVuSans-2c" transform="translate(63.623047 0.78125)"/>
      <use xlink:href="#DejaVuSans-20" transform="translate(95.410156 0.78125)"/>
      <use xlink:href="#DejaVuSans-30" transform="translate(127.197266 0.78125)"/>
      <use xlink:href="#DejaVuSans-2c" transform="translate(190.820312 0.78125)"/>
      <use xlink:href="#DejaVuSans-20" transform="translate(222.607422 0.78125)"/>
      <use xlink:href="#DejaVuSans-2212" transform="translate(254.394531 0.78125)"/>
      <use xlink:href="#DejaVuSans-30" transform="translate(338.183594 0.78125)"/>
      <use xlink:href="#DejaVuSans-2e" transform="translate(401.806641 0.78125)"/>
      <use xlink:href="#DejaVuSans-31" transform="translate(433.59375 0.78125)"/>
      <use xlink:href="#DejaVuSans-32" transform="translate(497.216797 0.78125)"/>
      <use xlink:href="#DejaVuSans-35" transform="translate(560.839844 0.78125)"/>
     </g>
    </g>
   </g>
   <g id="text_31">
    <g clip-path="url(#p8a94f8af44)">
     <!-- $\mathrm{U_3}$ -->
     <g style="fill: #ffffff" transform="translate(1083.767555 170.412775) scale(0.13 -0.13)">
      <use xlink:href="#DejaVuSans-55" transform="translate(0 0.09375)"/>
      <use xlink:href="#DejaVuSans-33" transform="translate(74.150391 -16.3125) scale(0.7)"/>
     </g>
    </g>
   </g>
   <g id="text_32">
    <g clip-path="url(#p8a94f8af44)">
     <!-- 0, 0, $-$2.7 -->
     <g style="fill: #ffffff" transform="translate(1240.860348 185.487459) scale(0.08 -0.08)">
      <use xlink:href="#DejaVuSans-30" transform="translate(0 0.78125)"/>
      <use xlink:href="#DejaVuSans-2c" transform="translate(63.623047 0.78125)"/>
      <use xlink:href="#DejaVuSans-20" transform="translate(95.410156 0.78125)"/>
      <use xlink:href="#DejaVuSans-30" transform="translate(127.197266 0.78125)"/>
      <use xlink:href="#DejaVuSans-2c" transform="translate(190.820312 0.78125)"/>
      <use xlink:href="#DejaVuSans-20" transform="translate(222.607422 0.78125)"/>
      <use xlink:href="#DejaVuSans-2212" transform="translate(254.394531 0.78125)"/>
      <use xlink:href="#DejaVuSans-32" transform="translate(338.183594 0.78125)"/>
      <use xlink:href="#DejaVuSans-2e" transform="translate(401.806641 0.78125)"/>
      <use xlink:href="#DejaVuSans-37" transform="translate(425.84375 0.78125)"/>
     </g>
    </g>
   </g>
   <g id="text_33">
    <g clip-path="url(#p8a94f8af44)">
     <!-- $\mathrm{U_3}$ -->
     <g style="fill: #ffffff" transform="translate(1252.530348 170.412775) scale(0.13 -0.13)">
      <use xlink:href="#DejaVuSans-55" transform="translate(0 0.09375)"/>
      <use xlink:href="#DejaVuSans-33" transform="translate(74.150391 -16.3125) scale(0.7)"/>
     </g>
    </g>
   </g>
   <g id="text_34">
    <g clip-path="url(#p8a94f8af44)">
     <!-- 0.141, 0, $-$$\pi$ -->
     <g style="fill: #ffffff" transform="translate(1404.343141 185.487459) scale(0.08 -0.08)">
      <use xlink:href="#DejaVuSans-30" transform="translate(0 0.78125)"/>
      <use xlink:href="#DejaVuSans-2e" transform="translate(63.623047 0.78125)"/>
      <use xlink:href="#DejaVuSans-31" transform="translate(95.410156 0.78125)"/>
      <use xlink:href="#DejaVuSans-34" transform="translate(159.033203 0.78125)"/>
      <use xlink:href="#DejaVuSans-31" transform="translate(222.65625 0.78125)"/>
      <use xlink:href="#DejaVuSans-2c" transform="translate(286.279297 0.78125)"/>
      <use xlink:href="#DejaVuSans-20" transform="translate(318.066406 0.78125)"/>
      <use xlink:href="#DejaVuSans-30" transform="translate(349.853516 0.78125)"/>
      <use xlink:href="#DejaVuSans-2c" transform="translate(413.476562 0.78125)"/>
      <use xlink:href="#DejaVuSans-20" transform="translate(445.263672 0.78125)"/>
      <use xlink:href="#DejaVuSans-2212" transform="translate(477.050781 0.78125)"/>
      <use xlink:href="#DejaVuSans-Oblique-3c0" transform="translate(560.839844 0.78125)"/>
     </g>
    </g>
   </g>
   <g id="text_35">
    <g clip-path="url(#p8a94f8af44)">
     <!-- $\mathrm{U_3}$ -->
     <g style="fill: #ffffff" transform="translate(1421.293141 170.412775) scale(0.13 -0.13)">
      <use xlink:href="#DejaVuSans-55" transform="translate(0 0.09375)"/>
      <use xlink:href="#DejaVuSans-33" transform="translate(74.150391 -16.3125) scale(0.7)"/>
     </g>
    </g>
   </g>
   <g id="text_36">
    <g clip-path="url(#p8a94f8af44)">
     <!-- 0.194, 0, 0 -->
     <g style="fill: #ffffff" transform="translate(170.003075 410.504517) scale(0.08 -0.08)">
      <use xlink:href="#DejaVuSans-30"/>
      <use xlink:href="#DejaVuSans-2e" x="63.623047"/>
      <use xlink:href="#DejaVuSans-31" x="95.410156"/>
      <use xlink:href="#DejaVuSans-39" x="159.033203"/>
      <use xlink:href="#DejaVuSans-34" x="222.65625"/>
      <use xlink:href="#DejaVuSans-2c" x="286.279297"/>
      <use xlink:href="#DejaVuSans-20" x="318.066406"/>
      <use xlink:href="#DejaVuSans-30" x="349.853516"/>
      <use xlink:href="#DejaVuSans-2c" x="413.476562"/>
      <use xlink:href="#DejaVuSans-20" x="445.263672"/>
      <use xlink:href="#DejaVuSans-30" x="477.050781"/>
     </g>
    </g>
   </g>
   <g id="text_37">
    <g clip-path="url(#p8a94f8af44)">
     <!-- $\mathrm{U_3}$ -->
     <g style="fill: #ffffff" transform="translate(183.699325 395.429832) scale(0.13 -0.13)">
      <use xlink:href="#DejaVuSans-55" transform="translate(0 0.09375)"/>
      <use xlink:href="#DejaVuSans-33" transform="translate(74.150391 -16.3125) scale(0.7)"/>
     </g>
    </g>
   </g>
   <g id="text_38">
    <g clip-path="url(#p8a94f8af44)">
     <!-- 0.954, $\pi$/2, $-$1.13 -->
     <g style="fill: #ffffff" transform="translate(325.432118 354.250253) scale(0.08 -0.08)">
      <use xlink:href="#DejaVuSans-30" transform="translate(0 0.78125)"/>
      <use xlink:href="#DejaVuSans-2e" transform="translate(63.623047 0.78125)"/>
      <use xlink:href="#DejaVuSans-39" transform="translate(95.410156 0.78125)"/>
      <use xlink:href="#DejaVuSans-35" transform="translate(159.033203 0.78125)"/>
      <use xlink:href="#DejaVuSans-34" transform="translate(222.65625 0.78125)"/>
      <use xlink:href="#DejaVuSans-2c" transform="translate(286.279297 0.78125)"/>
      <use xlink:href="#DejaVuSans-20" transform="translate(318.066406 0.78125)"/>
      <use xlink:href="#DejaVuSans-Oblique-3c0" transform="translate(349.853516 0.78125)"/>
      <use xlink:href="#DejaVuSans-2f" transform="translate(410.058594 0.78125)"/>
      <use xlink:href="#DejaVuSans-32" transform="translate(440.125 0.78125)"/>
      <use xlink:href="#DejaVuSans-2c" transform="translate(503.748047 0.78125)"/>
      <use xlink:href="#DejaVuSans-20" transform="translate(535.535156 0.78125)"/>
      <use xlink:href="#DejaVuSans-2212" transform="translate(567.322266 0.78125)"/>
      <use xlink:href="#DejaVuSans-31" transform="translate(651.111328 0.78125)"/>
      <use xlink:href="#DejaVuSans-2e" transform="translate(714.734375 0.78125)"/>
      <use xlink:href="#DejaVuSans-31" transform="translate(746.521484 0.78125)"/>
      <use xlink:href="#DejaVuSans-33" transform="translate(810.144531 0.78125)"/>
     </g>
    </g>
   </g>
   <g id="text_39">
    <g clip-path="url(#p8a94f8af44)">
     <!-- $\mathrm{U_3}$ -->
     <g style="fill: #ffffff" transform="translate(352.462118 339.175568) scale(0.13 -0.13)">
      <use xlink:href="#DejaVuSans-55" transform="translate(0 0.09375)"/>
      <use xlink:href="#DejaVuSans-33" transform="translate(74.150391 -16.3125) scale(0.7)"/>
     </g>
    </g>
   </g>
   <g id="text_40">
    <g clip-path="url(#p8a94f8af44)">
     <!-- 0.0901, 0, 0 -->
     <g style="fill: #ffffff" transform="translate(336.220868 410.504517) scale(0.08 -0.08)">
      <use xlink:href="#DejaVuSans-30"/>
      <use xlink:href="#DejaVuSans-2e" x="63.623047"/>
      <use xlink:href="#DejaVuSans-30" x="95.410156"/>
      <use xlink:href="#DejaVuSans-39" x="159.033203"/>
      <use xlink:href="#DejaVuSans-30" x="222.65625"/>
      <use xlink:href="#DejaVuSans-31" x="286.279297"/>
      <use xlink:href="#DejaVuSans-2c" x="349.902344"/>
      <use xlink:href="#DejaVuSans-20" x="381.689453"/>
      <use xlink:href="#DejaVuSans-30" x="413.476562"/>
      <use xlink:href="#DejaVuSans-2c" x="477.099609"/>
      <use xlink:href="#DejaVuSans-20" x="508.886719"/>
      <use xlink:href="#DejaVuSans-30" x="540.673828"/>
     </g>
    </g>
   </g>
   <g id="text_41">
    <g clip-path="url(#p8a94f8af44)">
     <!-- $\mathrm{U_3}$ -->
     <g style="fill: #ffffff" transform="translate(352.462118 395.429832) scale(0.13 -0.13)">
      <use xlink:href="#DejaVuSans-55" transform="translate(0 0.09375)"/>
      <use xlink:href="#DejaVuSans-33" transform="translate(74.150391 -16.3125) scale(0.7)"/>
     </g>
    </g>
   </g>
   <g id="text_42">
    <g clip-path="url(#p8a94f8af44)">
     <!-- $\pi$/2, $\pi$/2, $-$$\pi$ -->
     <g style="fill: #ffffff" transform="translate(505.994911 297.995988) scale(0.08 -0.08)">
      <use xlink:href="#DejaVuSans-Oblique-3c0" transform="translate(0 0.78125)"/>
      <use xlink:href="#DejaVuSans-2f" transform="translate(60.205078 0.78125)"/>
      <use xlink:href="#DejaVuSans-32" transform="translate(90.271484 0.78125)"/>
      <use xlink:href="#DejaVuSans-2c" transform="translate(153.894531 0.78125)"/>
      <use xlink:href="#DejaVuSans-20" transform="translate(185.681641 0.78125)"/>
      <use xlink:href="#DejaVuSans-Oblique-3c0" transform="translate(217.46875 0.78125)"/>
      <use xlink:href="#DejaVuSans-2f" transform="translate(277.673828 0.78125)"/>
      <use xlink:href="#DejaVuSans-32" transform="translate(307.740234 0.78125)"/>
      <use xlink:href="#DejaVuSans-2c" transform="translate(371.363281 0.78125)"/>
      <use xlink:href="#DejaVuSans-20" transform="translate(403.150391 0.78125)"/>
      <use xlink:href="#DejaVuSans-2212" transform="translate(434.9375 0.78125)"/>
      <use xlink:href="#DejaVuSans-Oblique-3c0" transform="translate(518.726562 0.78125)"/>
     </g>
    </g>
   </g>
   <g id="text_43">
    <g clip-path="url(#p8a94f8af44)">
     <!-- $\mathrm{U_3}$ -->
     <g style="fill: #ffffff" transform="translate(521.224911 282.921303) scale(0.13 -0.13)">
      <use xlink:href="#DejaVuSans-55" transform="translate(0 0.09375)"/>
      <use xlink:href="#DejaVuSans-33" transform="translate(74.150391 -16.3125) scale(0.7)"/>
     </g>
    </g>
   </g>
   <g id="text_44">
    <g clip-path="url(#p8a94f8af44)">
     <!-- 1.21, $-$0.101, $-$$\pi$ -->
     <g style="fill: #ffffff" transform="translate(494.794911 410.504517) scale(0.08 -0.08)">
      <use xlink:href="#DejaVuSans-31" transform="translate(0 0.78125)"/>
      <use xlink:href="#DejaVuSans-2e" transform="translate(63.623047 0.78125)"/>
      <use xlink:href="#DejaVuSans-32" transform="translate(89.910156 0.78125)"/>
      <use xlink:href="#DejaVuSans-31" transform="translate(153.533203 0.78125)"/>
      <use xlink:href="#DejaVuSans-2c" transform="translate(217.15625 0.78125)"/>
      <use xlink:href="#DejaVuSans-20" transform="translate(248.943359 0.78125)"/>
      <use xlink:href="#DejaVuSans-2212" transform="translate(280.730469 0.78125)"/>
      <use xlink:href="#DejaVuSans-30" transform="translate(364.519531 0.78125)"/>
      <use xlink:href="#DejaVuSans-2e" transform="translate(428.142578 0.78125)"/>
      <use xlink:href="#DejaVuSans-31" transform="translate(459.929688 0.78125)"/>
      <use xlink:href="#DejaVuSans-30" transform="translate(523.552734 0.78125)"/>
      <use xlink:href="#DejaVuSans-31" transform="translate(587.175781 0.78125)"/>
      <use xlink:href="#DejaVuSans-2c" transform="translate(650.798828 0.78125)"/>
      <use xlink:href="#DejaVuSans-20" transform="translate(682.585938 0.78125)"/>
      <use xlink:href="#DejaVuSans-2212" transform="translate(714.373047 0.78125)"/>
      <use xlink:href="#DejaVuSans-Oblique-3c0" transform="translate(798.162109 0.78125)"/>
     </g>
    </g>
   </g>
   <g id="text_45">
    <g clip-path="url(#p8a94f8af44)">
     <!-- $\mathrm{U_3}$ -->
     <g style="fill: #ffffff" transform="translate(521.224911 395.429832) scale(0.13 -0.13)">
      <use xlink:href="#DejaVuSans-55" transform="translate(0 0.09375)"/>
      <use xlink:href="#DejaVuSans-33" transform="translate(74.150391 -16.3125) scale(0.7)"/>
     </g>
    </g>
   </g>
   <g id="text_46">
    <g clip-path="url(#p8a94f8af44)">
     <!-- $\pi$/2, 0, $\pi$/2 -->
     <g style="fill: #ffffff" transform="translate(677.957704 297.995988) scale(0.08 -0.08)">
      <use xlink:href="#DejaVuSans-Oblique-3c0" transform="translate(0 0.78125)"/>
      <use xlink:href="#DejaVuSans-2f" transform="translate(60.205078 0.78125)"/>
      <use xlink:href="#DejaVuSans-32" transform="translate(90.271484 0.78125)"/>
      <use xlink:href="#DejaVuSans-2c" transform="translate(153.894531 0.78125)"/>
      <use xlink:href="#DejaVuSans-20" transform="translate(185.681641 0.78125)"/>
      <use xlink:href="#DejaVuSans-30" transform="translate(217.46875 0.78125)"/>
      <use xlink:href="#DejaVuSans-2c" transform="translate(281.091797 0.78125)"/>
      <use xlink:href="#DejaVuSans-20" transform="translate(312.878906 0.78125)"/>
      <use xlink:href="#DejaVuSans-Oblique-3c0" transform="translate(344.666016 0.78125)"/>
      <use xlink:href="#DejaVuSans-2f" transform="translate(404.871094 0.78125)"/>
      <use xlink:href="#DejaVuSans-32" transform="translate(434.9375 0.78125)"/>
     </g>
    </g>
   </g>
   <g id="text_47">
    <g clip-path="url(#p8a94f8af44)">
     <!-- $\mathrm{U_3}$ -->
     <g style="fill: #ffffff" transform="translate(689.987704 282.921303) scale(0.13 -0.13)">
      <use xlink:href="#DejaVuSans-55" transform="translate(0 0.09375)"/>
      <use xlink:href="#DejaVuSans-33" transform="translate(74.150391 -16.3125) scale(0.7)"/>
     </g>
    </g>
   </g>
   <g id="text_48">
    <g clip-path="url(#p8a94f8af44)">
     <!-- 2.06, 2.75, $-$2.29 -->
     <g style="fill: #ffffff" transform="translate(663.357704 354.250253) scale(0.08 -0.08)">
      <use xlink:href="#DejaVuSans-32" transform="translate(0 0.78125)"/>
      <use xlink:href="#DejaVuSans-2e" transform="translate(63.623047 0.78125)"/>
      <use xlink:href="#DejaVuSans-30" transform="translate(95.410156 0.78125)"/>
      <use xlink:href="#DejaVuSans-36" transform="translate(159.033203 0.78125)"/>
      <use xlink:href="#DejaVuSans-2c" transform="translate(222.65625 0.78125)"/>
      <use xlink:href="#DejaVuSans-20" transform="translate(254.443359 0.78125)"/>
      <use xlink:href="#DejaVuSans-32" transform="translate(286.230469 0.78125)"/>
      <use xlink:href="#DejaVuSans-2e" transform="translate(349.853516 0.78125)"/>
      <use xlink:href="#DejaVuSans-37" transform="translate(373.890625 0.78125)"/>
      <use xlink:href="#DejaVuSans-35" transform="translate(437.513672 0.78125)"/>
      <use xlink:href="#DejaVuSans-2c" transform="translate(501.136719 0.78125)"/>
      <use xlink:href="#DejaVuSans-20" transform="translate(532.923828 0.78125)"/>
      <use xlink:href="#DejaVuSans-2212" transform="translate(564.710938 0.78125)"/>
      <use xlink:href="#DejaVuSans-32" transform="translate(648.5 0.78125)"/>
      <use xlink:href="#DejaVuSans-2e" transform="translate(712.123047 0.78125)"/>
      <use xlink:href="#DejaVuSans-32" transform="translate(738.410156 0.78125)"/>
      <use xlink:href="#DejaVuSans-39" transform="translate(800.283203 0.78125)"/>
     </g>
    </g>
   </g>
   <g id="text_49">
    <g clip-path="url(#p8a94f8af44)">
     <!-- $\mathrm{U_3}$ -->
     <g style="fill: #ffffff" transform="translate(689.987704 339.175568) scale(0.13 -0.13)">
      <use xlink:href="#DejaVuSans-55" transform="translate(0 0.09375)"/>
      <use xlink:href="#DejaVuSans-33" transform="translate(74.150391 -16.3125) scale(0.7)"/>
     </g>
    </g>
   </g>
   <g id="text_50">
    <g clip-path="url(#p8a94f8af44)">
     <!-- $\pi$/2, 1.7, $-$$\pi$/2 -->
     <g style="fill: #ffffff" transform="translate(839.840497 297.995988) scale(0.08 -0.08)">
      <use xlink:href="#DejaVuSans-Oblique-3c0" transform="translate(0 0.78125)"/>
      <use xlink:href="#DejaVuSans-2f" transform="translate(60.205078 0.78125)"/>
      <use xlink:href="#DejaVuSans-32" transform="translate(90.271484 0.78125)"/>
      <use xlink:href="#DejaVuSans-2c" transform="translate(153.894531 0.78125)"/>
      <use xlink:href="#DejaVuSans-20" transform="translate(185.681641 0.78125)"/>
      <use xlink:href="#DejaVuSans-31" transform="translate(217.46875 0.78125)"/>
      <use xlink:href="#DejaVuSans-2e" transform="translate(281.091797 0.78125)"/>
      <use xlink:href="#DejaVuSans-37" transform="translate(305.128906 0.78125)"/>
      <use xlink:href="#DejaVuSans-2c" transform="translate(368.751953 0.78125)"/>
      <use xlink:href="#DejaVuSans-20" transform="translate(400.539062 0.78125)"/>
      <use xlink:href="#DejaVuSans-2212" transform="translate(432.326172 0.78125)"/>
      <use xlink:href="#DejaVuSans-Oblique-3c0" transform="translate(516.115234 0.78125)"/>
      <use xlink:href="#DejaVuSans-2f" transform="translate(576.320312 0.78125)"/>
      <use xlink:href="#DejaVuSans-32" transform="translate(606.386719 0.78125)"/>
     </g>
    </g>
   </g>
   <g id="text_51">
    <g clip-path="url(#p8a94f8af44)">
     <!-- $\mathrm{U_3}$ -->
     <g style="fill: #ffffff" transform="translate(858.750497 282.921303) scale(0.13 -0.13)">
      <use xlink:href="#DejaVuSans-55" transform="translate(0 0.09375)"/>
      <use xlink:href="#DejaVuSans-33" transform="translate(74.150391 -16.3125) scale(0.7)"/>
     </g>
    </g>
   </g>
   <g id="text_52">
    <g clip-path="url(#p8a94f8af44)">
     <!-- 0.954, $-$1.29, $\pi$/2 -->
     <g style="fill: #ffffff" transform="translate(832.000497 354.250253) scale(0.08 -0.08)">
      <use xlink:href="#DejaVuSans-30" transform="translate(0 0.78125)"/>
      <use xlink:href="#DejaVuSans-2e" transform="translate(63.623047 0.78125)"/>
      <use xlink:href="#DejaVuSans-39" transform="translate(95.410156 0.78125)"/>
      <use xlink:href="#DejaVuSans-35" transform="translate(159.033203 0.78125)"/>
      <use xlink:href="#DejaVuSans-34" transform="translate(222.65625 0.78125)"/>
      <use xlink:href="#DejaVuSans-2c" transform="translate(286.279297 0.78125)"/>
      <use xlink:href="#DejaVuSans-20" transform="translate(318.066406 0.78125)"/>
      <use xlink:href="#DejaVuSans-2212" transform="translate(349.853516 0.78125)"/>
      <use xlink:href="#DejaVuSans-31" transform="translate(433.642578 0.78125)"/>
      <use xlink:href="#DejaVuSans-2e" transform="translate(497.265625 0.78125)"/>
      <use xlink:href="#DejaVuSans-32" transform="translate(523.552734 0.78125)"/>
      <use xlink:href="#DejaVuSans-39" transform="translate(585.425781 0.78125)"/>
      <use xlink:href="#DejaVuSans-2c" transform="translate(649.048828 0.78125)"/>
      <use xlink:href="#DejaVuSans-20" transform="translate(680.835938 0.78125)"/>
      <use xlink:href="#DejaVuSans-Oblique-3c0" transform="translate(712.623047 0.78125)"/>
      <use xlink:href="#DejaVuSans-2f" transform="translate(772.828125 0.78125)"/>
      <use xlink:href="#DejaVuSans-32" transform="translate(802.894531 0.78125)"/>
     </g>
    </g>
   </g>
   <g id="text_53">
    <g clip-path="url(#p8a94f8af44)">
     <!-- $\mathrm{U_3}$ -->
     <g style="fill: #ffffff" transform="translate(858.750497 339.175568) scale(0.13 -0.13)">
      <use xlink:href="#DejaVuSans-55" transform="translate(0 0.09375)"/>
      <use xlink:href="#DejaVuSans-33" transform="translate(74.150391 -16.3125) scale(0.7)"/>
     </g>
    </g>
   </g>
   <g id="text_54">
    <g clip-path="url(#p8a94f8af44)">
     <!-- 0, 0, 0.125 -->
     <g style="fill: #ffffff" transform="translate(1013.817041 410.504517) scale(0.08 -0.08)">
      <use xlink:href="#DejaVuSans-30"/>
      <use xlink:href="#DejaVuSans-2c" x="63.623047"/>
      <use xlink:href="#DejaVuSans-20" x="95.410156"/>
      <use xlink:href="#DejaVuSans-30" x="127.197266"/>
      <use xlink:href="#DejaVuSans-2c" x="190.820312"/>
      <use xlink:href="#DejaVuSans-20" x="222.607422"/>
      <use xlink:href="#DejaVuSans-30" x="254.394531"/>
      <use xlink:href="#DejaVuSans-2e" x="318.017578"/>
      <use xlink:href="#DejaVuSans-31" x="349.804688"/>
      <use xlink:href="#DejaVuSans-32" x="413.427734"/>
      <use xlink:href="#DejaVuSans-35" x="477.050781"/>
     </g>
    </g>
   </g>
   <g id="text_55">
    <g clip-path="url(#p8a94f8af44)">
     <!-- $\mathrm{U_3}$ -->
     <g style="fill: #ffffff" transform="translate(1027.513291 395.429832) scale(0.13 -0.13)">
      <use xlink:href="#DejaVuSans-55" transform="translate(0 0.09375)"/>
      <use xlink:href="#DejaVuSans-33" transform="translate(74.150391 -16.3125) scale(0.7)"/>
     </g>
    </g>
   </g>
   <g id="text_56">
    <g clip-path="url(#p8a94f8af44)">
     <!-- 0, 0, $-$2.01 -->
     <g style="fill: #ffffff" transform="translate(1181.766084 410.504517) scale(0.08 -0.08)">
      <use xlink:href="#DejaVuSans-30" transform="translate(0 0.78125)"/>
      <use xlink:href="#DejaVuSans-2c" transform="translate(63.623047 0.78125)"/>
      <use xlink:href="#DejaVuSans-20" transform="translate(95.410156 0.78125)"/>
      <use xlink:href="#DejaVuSans-30" transform="translate(127.197266 0.78125)"/>
      <use xlink:href="#DejaVuSans-2c" transform="translate(190.820312 0.78125)"/>
      <use xlink:href="#DejaVuSans-20" transform="translate(222.607422 0.78125)"/>
      <use xlink:href="#DejaVuSans-2212" transform="translate(254.394531 0.78125)"/>
      <use xlink:href="#DejaVuSans-32" transform="translate(338.183594 0.78125)"/>
      <use xlink:href="#DejaVuSans-2e" transform="translate(401.806641 0.78125)"/>
      <use xlink:href="#DejaVuSans-30" transform="translate(433.59375 0.78125)"/>
      <use xlink:href="#DejaVuSans-31" transform="translate(497.216797 0.78125)"/>
     </g>
    </g>
   </g>
   <g id="text_57">
    <g clip-path="url(#p8a94f8af44)">
     <!-- $\mathrm{U_3}$ -->
     <g style="fill: #ffffff" transform="translate(1196.276084 395.429832) scale(0.13 -0.13)">
      <use xlink:href="#DejaVuSans-55" transform="translate(0 0.09375)"/>
      <use xlink:href="#DejaVuSans-33" transform="translate(74.150391 -16.3125) scale(0.7)"/>
     </g>
    </g>
   </g>
   <g id="text_58">
    <g clip-path="url(#p8a94f8af44)">
     <!-- 0, 0, 0.278 -->
     <g style="fill: #ffffff" transform="translate(1351.342627 410.504517) scale(0.08 -0.08)">
      <use xlink:href="#DejaVuSans-30"/>
      <use xlink:href="#DejaVuSans-2c" x="63.623047"/>
      <use xlink:href="#DejaVuSans-20" x="95.410156"/>
      <use xlink:href="#DejaVuSans-30" x="127.197266"/>
      <use xlink:href="#DejaVuSans-2c" x="190.820312"/>
      <use xlink:href="#DejaVuSans-20" x="222.607422"/>
      <use xlink:href="#DejaVuSans-30" x="254.394531"/>
      <use xlink:href="#DejaVuSans-2e" x="318.017578"/>
      <use xlink:href="#DejaVuSans-32" x="349.804688"/>
      <use xlink:href="#DejaVuSans-37" x="413.427734"/>
      <use xlink:href="#DejaVuSans-38" x="477.050781"/>
     </g>
    </g>
   </g>
   <g id="text_59">
    <g clip-path="url(#p8a94f8af44)">
     <!-- $\mathrm{U_3}$ -->
     <g style="fill: #ffffff" transform="translate(1365.038877 395.429832) scale(0.13 -0.13)">
      <use xlink:href="#DejaVuSans-55" transform="translate(0 0.09375)"/>
      <use xlink:href="#DejaVuSans-33" transform="translate(74.150391 -16.3125) scale(0.7)"/>
     </g>
    </g>
   </g>
  </g>
 </g>
 <defs>
  <clipPath id="p8a94f8af44">
   <rect x="7.2" y="14.798437" width="1487.278088" height="416.281557"/>
  </clipPath>
 </defs>
</svg>
