<?xml version="1.0" encoding="utf-8" standalone="no"?>
<!DOCTYPE svg PUBLIC "-//W3C//DTD SVG 1.1//EN"
  "http://www.w3.org/Graphics/SVG/1.1/DTD/svg11.dtd">
<svg xmlns:xlink="http://www.w3.org/1999/xlink" width="1152pt" height="576pt" viewBox="0 0 1152 576" xmlns="http://www.w3.org/2000/svg" version="1.1">
 <metadata>
  <rdf:RDF xmlns:dc="http://purl.org/dc/elements/1.1/" xmlns:cc="http://creativecommons.org/ns#" xmlns:rdf="http://www.w3.org/1999/02/22-rdf-syntax-ns#">
   <cc:Work>
    <dc:type rdf:resource="http://purl.org/dc/dcmitype/StillImage"/>
    <dc:date>2024-11-04T21:55:40.767065</dc:date>
    <dc:format>image/svg+xml</dc:format>
    <dc:creator>
     <cc:Agent>
      <dc:title>Matplotlib v3.9.2, https://matplotlib.org/</dc:title>
     </cc:Agent>
    </dc:creator>
   </cc:Work>
  </rdf:RDF>
 </metadata>
 <defs>
  <style type="text/css">*{stroke-linejoin: round; stroke-linecap: butt}</style>
 </defs>
 <g id="figure_1">
  <g id="patch_1">
   <path d="M 0 576 
L 1152 576 
L 1152 0 
L 0 0 
z
" style="fill: #ffffff"/>
  </g>
  <g id="patch_2">
   <path d="M 28.8 576 
L 547.2 576 
L 547.2 57.6 
L 28.8 57.6 
z
" style="fill: #ffffff"/>
  </g>
  <g id="pane3d_1">
   <g id="patch_3">
    <path d="M 130.07018 436.456468 
L 253.494133 330.550231 
L 251.743197 126.70673 
L 122.643358 223.613571 
" style="fill: #f2f2f2; opacity: 0.5; stroke: #f2f2f2; stroke-linejoin: miter"/>
   </g>
  </g>
  <g id="pane3d_2">
   <g id="patch_4">
    <path d="M 253.494133 330.550231 
L 455.554898 390.069341 
L 462.583588 181.103065 
L 251.743197 126.70673 
" style="fill: #e6e6e6; opacity: 0.5; stroke: #e6e6e6; stroke-linejoin: miter"/>
   </g>
  </g>
  <g id="pane3d_3">
   <g id="patch_5">
    <path d="M 130.07018 436.456468 
L 340.912731 504.076731 
L 455.554898 390.069341 
L 253.494133 330.550231 
" style="fill: #ececec; opacity: 0.5; stroke: #ececec; stroke-linejoin: miter"/>
   </g>
  </g>
  <g id="grid3d_1">
   <g id="Line3DCollection_1">
    <path d="M 158.635886 445.617904 
L 280.925726 338.630493 
L 280.328796 134.081748 
" style="fill: none; stroke: #b0b0b0; stroke-width: 0.8"/>
    <path d="M 208.310046 461.549127 
L 328.58611 352.669358 
L 330.022474 146.902603 
" style="fill: none; stroke: #b0b0b0; stroke-width: 0.8"/>
    <path d="M 258.89502 477.772462 
L 377.066152 366.949661 
L 380.607663 159.953465 
" style="fill: none; stroke: #b0b0b0; stroke-width: 0.8"/>
    <path d="M 310.41609 494.296016 
L 426.38718 381.477685 
L 432.108569 173.24058 
" style="fill: none; stroke: #b0b0b0; stroke-width: 0.8"/>
   </g>
  </g>
  <g id="grid3d_2">
   <g id="Line3DCollection_2">
    <path d="M 141.757365 209.265931 
L 148.301379 420.812846 
L 357.880707 487.202708 
" style="fill: none; stroke: #b0b0b0; stroke-width: 0.8"/>
    <path d="M 173.704273 185.285468 
L 178.805664 394.638072 
L 386.24502 458.995448 
" style="fill: none; stroke: #b0b0b0; stroke-width: 0.8"/>
    <path d="M 204.65707 162.051218 
L 208.400054 369.24405 
L 413.731787 431.660877 
" style="fill: none; stroke: #b0b0b0; stroke-width: 0.8"/>
    <path d="M 234.661448 139.528886 
L 237.124663 344.596362 
L 440.38111 405.159111 
" style="fill: none; stroke: #b0b0b0; stroke-width: 0.8"/>
   </g>
  </g>
  <g id="grid3d_3">
   <g id="Line3DCollection_3">
    <path d="M 455.819605 382.199481 
L 253.428093 322.861963 
L 129.790801 428.449836 
" style="fill: none; stroke: #b0b0b0; stroke-width: 0.8"/>
    <path d="M 456.703204 355.92966 
L 253.207708 297.204737 
L 128.858044 401.718246 
" style="fill: none; stroke: #b0b0b0; stroke-width: 0.8"/>
    <path d="M 457.596567 329.369564 
L 252.984974 271.274062 
L 127.914694 374.683103 
" style="fill: none; stroke: #b0b0b0; stroke-width: 0.8"/>
    <path d="M 458.499856 302.514354 
L 252.759853 245.065544 
L 126.960572 347.339208 
" style="fill: none; stroke: #b0b0b0; stroke-width: 0.8"/>
    <path d="M 459.413237 275.359084 
L 252.532307 218.574695 
L 125.99549 319.68124 
" style="fill: none; stroke: #b0b0b0; stroke-width: 0.8"/>
    <path d="M 460.336882 247.898697 
L 252.302296 191.796925 
L 125.019259 291.703758 
" style="fill: none; stroke: #b0b0b0; stroke-width: 0.8"/>
    <path d="M 461.270963 220.128022 
L 252.069781 164.72755 
L 124.031685 263.401193 
" style="fill: none; stroke: #b0b0b0; stroke-width: 0.8"/>
    <path d="M 462.215659 192.041769 
L 251.83472 137.36178 
L 123.032569 234.767845 
" style="fill: none; stroke: #b0b0b0; stroke-width: 0.8"/>
   </g>
  </g>
  <g id="axis3d_1">
   <g id="line2d_1">
    <path d="M 130.07018 436.456468 
L 340.912731 504.076731 
" style="fill: none; stroke: #000000; stroke-width: 0.8; stroke-linecap: square"/>
   </g>
   <g id="xtick_1">
    <g id="line2d_2">
     <path d="M 159.677227 444.706868 
L 156.549953 447.442819 
" style="fill: none; stroke: #000000; stroke-width: 0.8; stroke-linecap: square"/>
    </g>
    <g id="text_1">
     <!-- 00 -->
     <g transform="translate(131.351686 489.365693) rotate(-45) scale(0.21 -0.21)">
      <defs>
       <path id="DejaVuSans-30" d="M 2034 4250 
Q 1547 4250 1301 3770 
Q 1056 3291 1056 2328 
Q 1056 1369 1301 889 
Q 1547 409 2034 409 
Q 2525 409 2770 889 
Q 3016 1369 3016 2328 
Q 3016 3291 2770 3770 
Q 2525 4250 2034 4250 
z
M 2034 4750 
Q 2819 4750 3233 4129 
Q 3647 3509 3647 2328 
Q 3647 1150 3233 529 
Q 2819 -91 2034 -91 
Q 1250 -91 836 529 
Q 422 1150 422 2328 
Q 422 3509 836 4129 
Q 1250 4750 2034 4750 
z
" transform="scale(0.015625)"/>
      </defs>
      <use xlink:href="#DejaVuSans-30"/>
      <use xlink:href="#DejaVuSans-30" x="63.623047"/>
     </g>
    </g>
   </g>
   <g id="xtick_2">
    <g id="line2d_3">
     <path d="M 209.334802 460.621468 
L 206.257306 463.407368 
" style="fill: none; stroke: #000000; stroke-width: 0.8; stroke-linecap: square"/>
    </g>
    <g id="text_2">
     <!-- 01 -->
     <g transform="translate(181.023931 505.435143) rotate(-45) scale(0.21 -0.21)">
      <defs>
       <path id="DejaVuSans-31" d="M 794 531 
L 1825 531 
L 1825 4091 
L 703 3866 
L 703 4441 
L 1819 4666 
L 2450 4666 
L 2450 531 
L 3481 531 
L 3481 0 
L 794 0 
L 794 531 
z
" transform="scale(0.015625)"/>
      </defs>
      <use xlink:href="#DejaVuSans-30"/>
      <use xlink:href="#DejaVuSans-31" x="63.623047"/>
     </g>
    </g>
   </g>
   <g id="xtick_3">
    <g id="line2d_4">
     <path d="M 259.902405 476.82772 
L 256.877048 479.664949 
" style="fill: none; stroke: #000000; stroke-width: 0.8; stroke-linecap: square"/>
    </g>
    <g id="text_3">
     <!-- 10 -->
     <g transform="translate(231.60781 521.799516) rotate(-45) scale(0.21 -0.21)">
      <use xlink:href="#DejaVuSans-31"/>
      <use xlink:href="#DejaVuSans-30" x="63.623047"/>
     </g>
    </g>
   </g>
   <g id="xtick_4">
    <g id="line2d_5">
     <path d="M 311.405283 493.333715 
L 308.434531 496.223705 
" style="fill: none; stroke: #000000; stroke-width: 0.8; stroke-linecap: square"/>
    </g>
    <g id="text_4">
     <!-- 11 -->
     <g transform="translate(283.128654 538.467006) rotate(-45) scale(0.21 -0.21)">
      <use xlink:href="#DejaVuSans-31"/>
      <use xlink:href="#DejaVuSans-31" x="63.623047"/>
     </g>
    </g>
   </g>
  </g>
  <g id="axis3d_2">
   <g id="line2d_6">
    <path d="M 455.554898 390.069341 
L 340.912731 504.076731 
" style="fill: none; stroke: #000000; stroke-width: 0.8; stroke-linecap: square"/>
   </g>
   <g id="xtick_5">
    <g id="line2d_7">
     <path d="M 356.140222 486.651363 
L 361.364886 488.306415 
" style="fill: none; stroke: #000000; stroke-width: 0.8; stroke-linecap: square"/>
    </g>
    <g id="text_5">
     <!-- 00 -->
     <g transform="translate(368.70027 499.207917) rotate(-337.5) scale(0.21 -0.21)">
      <use xlink:href="#DejaVuSans-30"/>
      <use xlink:href="#DejaVuSans-30" x="63.623047"/>
     </g>
    </g>
   </g>
   <g id="xtick_6">
    <g id="line2d_8">
     <path d="M 384.5233 458.46129 
L 389.691587 460.064734 
" style="fill: none; stroke: #000000; stroke-width: 0.8; stroke-linecap: square"/>
    </g>
    <g id="text_6">
     <!-- 01 -->
     <g transform="translate(396.913817 470.822876) rotate(-337.5) scale(0.21 -0.21)">
      <use xlink:href="#DejaVuSans-30"/>
      <use xlink:href="#DejaVuSans-31" x="63.623047"/>
     </g>
    </g>
   </g>
   <g id="xtick_7">
    <g id="line2d_9">
     <path d="M 412.028511 431.143114 
L 417.141381 432.697327 
" style="fill: none; stroke: #000000; stroke-width: 0.8; stroke-linecap: square"/>
    </g>
    <g id="text_7">
     <!-- 10 -->
     <g transform="translate(424.254695 443.315808) rotate(-337.5) scale(0.21 -0.21)">
      <use xlink:href="#DejaVuSans-31"/>
      <use xlink:href="#DejaVuSans-30" x="63.623047"/>
     </g>
    </g>
   </g>
   <g id="xtick_8">
    <g id="line2d_10">
     <path d="M 438.695964 404.657001 
L 443.754368 406.164215 
" style="fill: none; stroke: #000000; stroke-width: 0.8; stroke-linecap: square"/>
    </g>
    <g id="text_8">
     <!-- 11 -->
     <g transform="translate(450.762776 416.646599) rotate(-337.5) scale(0.21 -0.21)">
      <use xlink:href="#DejaVuSans-31"/>
      <use xlink:href="#DejaVuSans-31" x="63.623047"/>
     </g>
    </g>
   </g>
  </g>
  <g id="axis3d_3">
   <g id="line2d_11">
    <path d="M 455.554898 390.069341 
L 462.583588 181.103065 
" style="fill: none; stroke: #000000; stroke-width: 0.8; stroke-linecap: square"/>
   </g>
   <g id="xtick_9">
    <g id="line2d_12">
     <path d="M 454.142051 381.707653 
L 459.177643 383.183997 
" style="fill: none; stroke: #000000; stroke-width: 0.8; stroke-linecap: square"/>
    </g>
    <g id="text_9">
     <!-- −0.05 -->
     <g transform="translate(469.320843 375.916855) scale(0.21 -0.21)">
      <defs>
       <path id="DejaVuSans-2212" d="M 678 2272 
L 4684 2272 
L 4684 1741 
L 678 1741 
L 678 2272 
z
" transform="scale(0.015625)"/>
       <path id="DejaVuSans-2e" d="M 684 794 
L 1344 794 
L 1344 0 
L 684 0 
L 684 794 
z
" transform="scale(0.015625)"/>
       <path id="DejaVuSans-35" d="M 691 4666 
L 3169 4666 
L 3169 4134 
L 1269 4134 
L 1269 2991 
Q 1406 3038 1543 3061 
Q 1681 3084 1819 3084 
Q 2600 3084 3056 2656 
Q 3513 2228 3513 1497 
Q 3513 744 3044 326 
Q 2575 -91 1722 -91 
Q 1428 -91 1123 -41 
Q 819 9 494 109 
L 494 744 
Q 775 591 1075 516 
Q 1375 441 1709 441 
Q 2250 441 2565 725 
Q 2881 1009 2881 1497 
Q 2881 1984 2565 2268 
Q 2250 2553 1709 2553 
Q 1456 2553 1204 2497 
Q 953 2441 691 2322 
L 691 4666 
z
" transform="scale(0.015625)"/>
      </defs>
      <use xlink:href="#DejaVuSans-2212"/>
      <use xlink:href="#DejaVuSans-30" x="83.789062"/>
      <use xlink:href="#DejaVuSans-2e" x="147.412109"/>
      <use xlink:href="#DejaVuSans-30" x="179.199219"/>
      <use xlink:href="#DejaVuSans-35" x="242.822266"/>
     </g>
    </g>
   </g>
   <g id="xtick_10">
    <g id="line2d_13">
     <path d="M 455.016177 355.442817 
L 460.080221 356.904203 
" style="fill: none; stroke: #000000; stroke-width: 0.8; stroke-linecap: square"/>
    </g>
    <g id="text_10">
     <!-- 0.00 -->
     <g transform="translate(470.277534 349.666454) scale(0.21 -0.21)">
      <use xlink:href="#DejaVuSans-30"/>
      <use xlink:href="#DejaVuSans-2e" x="63.623047"/>
      <use xlink:href="#DejaVuSans-30" x="95.410156"/>
      <use xlink:href="#DejaVuSans-30" x="159.033203"/>
     </g>
    </g>
   </g>
   <g id="xtick_11">
    <g id="line2d_14">
     <path d="M 455.899959 328.887845 
L 460.992779 330.333853 
" style="fill: none; stroke: #000000; stroke-width: 0.8; stroke-linecap: square"/>
    </g>
    <g id="text_11">
     <!-- 0.05 -->
     <g transform="translate(471.244784 323.126324) scale(0.21 -0.21)">
      <use xlink:href="#DejaVuSans-30"/>
      <use xlink:href="#DejaVuSans-2e" x="63.623047"/>
      <use xlink:href="#DejaVuSans-30" x="95.410156"/>
      <use xlink:href="#DejaVuSans-35" x="159.033203"/>
     </g>
    </g>
   </g>
   <g id="xtick_12">
    <g id="line2d_15">
     <path d="M 456.793558 302.037904 
L 461.915482 303.4681 
" style="fill: none; stroke: #000000; stroke-width: 0.8; stroke-linecap: square"/>
    </g>
    <g id="text_12">
     <!-- 0.10 -->
     <g transform="translate(472.222769 296.291642) scale(0.21 -0.21)">
      <use xlink:href="#DejaVuSans-30"/>
      <use xlink:href="#DejaVuSans-2e" x="63.623047"/>
      <use xlink:href="#DejaVuSans-31" x="95.410156"/>
      <use xlink:href="#DejaVuSans-30" x="159.033203"/>
     </g>
    </g>
   </g>
   <g id="xtick_13">
    <g id="line2d_16">
     <path d="M 457.697139 274.888052 
L 462.8485 276.301991 
" style="fill: none; stroke: #000000; stroke-width: 0.8; stroke-linecap: square"/>
    </g>
    <g id="text_13">
     <!-- 0.15 -->
     <g transform="translate(473.211668 269.157476) scale(0.21 -0.21)">
      <use xlink:href="#DejaVuSans-30"/>
      <use xlink:href="#DejaVuSans-2e" x="63.623047"/>
      <use xlink:href="#DejaVuSans-31" x="95.410156"/>
      <use xlink:href="#DejaVuSans-35" x="159.033203"/>
     </g>
    </g>
   </g>
   <g id="xtick_14">
    <g id="line2d_17">
     <path d="M 458.610869 247.433235 
L 463.792009 248.83046 
" style="fill: none; stroke: #000000; stroke-width: 0.8; stroke-linecap: square"/>
    </g>
    <g id="text_14">
     <!-- 0.20 -->
     <g transform="translate(474.211666 241.718786) scale(0.21 -0.21)">
      <defs>
       <path id="DejaVuSans-32" d="M 1228 531 
L 3431 531 
L 3431 0 
L 469 0 
L 469 531 
Q 828 903 1448 1529 
Q 2069 2156 2228 2338 
Q 2531 2678 2651 2914 
Q 2772 3150 2772 3378 
Q 2772 3750 2511 3984 
Q 2250 4219 1831 4219 
Q 1534 4219 1204 4116 
Q 875 4013 500 3803 
L 500 4441 
Q 881 4594 1212 4672 
Q 1544 4750 1819 4750 
Q 2544 4750 2975 4387 
Q 3406 4025 3406 3419 
Q 3406 3131 3298 2873 
Q 3191 2616 2906 2266 
Q 2828 2175 2409 1742 
Q 1991 1309 1228 531 
z
" transform="scale(0.015625)"/>
      </defs>
      <use xlink:href="#DejaVuSans-30"/>
      <use xlink:href="#DejaVuSans-2e" x="63.623047"/>
      <use xlink:href="#DejaVuSans-32" x="95.410156"/>
      <use xlink:href="#DejaVuSans-30" x="159.033203"/>
     </g>
    </g>
   </g>
   <g id="xtick_15">
    <g id="line2d_18">
     <path d="M 459.53492 219.668285 
L 464.746185 221.048327 
" style="fill: none; stroke: #000000; stroke-width: 0.8; stroke-linecap: square"/>
    </g>
    <g id="text_15">
     <!-- 0.25 -->
     <g transform="translate(475.22295 213.970416) scale(0.21 -0.21)">
      <use xlink:href="#DejaVuSans-30"/>
      <use xlink:href="#DejaVuSans-2e" x="63.623047"/>
      <use xlink:href="#DejaVuSans-32" x="95.410156"/>
      <use xlink:href="#DejaVuSans-35" x="159.033203"/>
     </g>
    </g>
   </g>
   <g id="xtick_16">
    <g id="line2d_19">
     <path d="M 460.469469 191.587918 
L 465.71121 192.950296 
" style="fill: none; stroke: #000000; stroke-width: 0.8; stroke-linecap: square"/>
    </g>
    <g id="text_16">
     <!-- 0.30 -->
     <g transform="translate(476.245713 185.907093) scale(0.21 -0.21)">
      <defs>
       <path id="DejaVuSans-33" d="M 2597 2516 
Q 3050 2419 3304 2112 
Q 3559 1806 3559 1356 
Q 3559 666 3084 287 
Q 2609 -91 1734 -91 
Q 1441 -91 1130 -33 
Q 819 25 488 141 
L 488 750 
Q 750 597 1062 519 
Q 1375 441 1716 441 
Q 2309 441 2620 675 
Q 2931 909 2931 1356 
Q 2931 1769 2642 2001 
Q 2353 2234 1838 2234 
L 1294 2234 
L 1294 2753 
L 1863 2753 
Q 2328 2753 2575 2939 
Q 2822 3125 2822 3475 
Q 2822 3834 2567 4026 
Q 2313 4219 1838 4219 
Q 1578 4219 1281 4162 
Q 984 4106 628 3988 
L 628 4550 
Q 988 4650 1302 4700 
Q 1616 4750 1894 4750 
Q 2613 4750 3031 4423 
Q 3450 4097 3450 3541 
Q 3450 3153 3228 2886 
Q 3006 2619 2597 2516 
z
" transform="scale(0.015625)"/>
      </defs>
      <use xlink:href="#DejaVuSans-30"/>
      <use xlink:href="#DejaVuSans-2e" x="63.623047"/>
      <use xlink:href="#DejaVuSans-33" x="95.410156"/>
      <use xlink:href="#DejaVuSans-30" x="159.033203"/>
     </g>
    </g>
   </g>
  </g>
  <g id="axes_1">
   <g id="Poly3DCollection_1">
    <path d="M 307.567967 323.610837 
L 307.495977 351.344718 
L 331.639617 358.477489 
L 331.851674 330.664993 
z
" clip-path="url(#p7e1959f4d7)" style="fill: #648fff"/>
    <path d="M 293.637022 363.738037 
L 317.901745 370.977983 
L 331.639617 358.477489 
L 307.495977 351.344718 
z
" clip-path="url(#p7e1959f4d7)" style="fill: #577ddf"/>
    <path d="M 293.629076 335.867786 
L 293.637022 363.738037 
L 307.495977 351.344718 
L 307.567967 323.610837 
z
" clip-path="url(#p7e1959f4d7)" style="fill: #324880"/>
    <path d="M 318.03528 343.028554 
L 331.851674 330.664993 
L 331.639617 358.477489 
L 317.901745 370.977983 
z
" clip-path="url(#p7e1959f4d7)" style="fill: #648fff"/>
    <path d="M 293.629076 335.867786 
L 307.567967 323.610837 
L 331.851674 330.664993 
L 318.03528 343.028554 
z
" clip-path="url(#p7e1959f4d7)" style="fill: #3f599f"/>
    <path d="M 293.629076 335.867786 
L 318.03528 343.028554 
L 317.901745 370.977983 
L 293.637022 363.738037 
z
" clip-path="url(#p7e1959f4d7)" style="fill: #324880"/>
    <path d="M 279.479182 348.310277 
L 279.588941 382.348599 
L 303.944894 389.715135 
L 304.008819 355.580093 
z
" clip-path="url(#p7e1959f4d7)" style="fill: #648fff"/>
    <path d="M 265.326371 395.148648 
L 289.804936 402.627416 
L 303.944894 389.715135 
L 279.588941 382.348599 
z
" clip-path="url(#p7e1959f4d7)" style="fill: #577ddf"/>
    <path d="M 265.113456 360.942556 
L 265.326371 395.148648 
L 279.588941 382.348599 
L 279.479182 348.310277 
z
" clip-path="url(#p7e1959f4d7)" style="fill: #324880"/>
    <path d="M 289.767463 368.32393 
L 304.008819 355.580093 
L 303.944894 389.715135 
L 289.804936 402.627416 
z
" clip-path="url(#p7e1959f4d7)" style="fill: #648fff"/>
    <path d="M 265.113456 360.942556 
L 279.479182 348.310277 
L 304.008819 355.580093 
L 289.767463 368.32393 
z
" clip-path="url(#p7e1959f4d7)" style="fill: #3f599f"/>
    <path d="M 265.113456 360.942556 
L 289.767463 368.32393 
L 289.804936 402.627416 
L 265.326371 395.148648 
z
" clip-path="url(#p7e1959f4d7)" style="fill: #324880"/>
    <path d="M 300.307412 388.82715 
L 300.269021 423.398695 
L 325.311406 431.128178 
L 325.533445 396.457798 
z
" clip-path="url(#p7e1959f4d7)" style="fill: #648fff"/>
    <path d="M 285.817832 436.830448 
L 310.990344 444.680593 
L 325.311406 431.128178 
L 300.269021 423.398695 
z
" clip-path="url(#p7e1959f4d7)" style="fill: #577ddf"/>
    <path d="M 285.750296 402.087473 
L 285.817832 436.830448 
L 300.269021 423.398695 
L 300.307412 388.82715 
z
" clip-path="url(#p7e1959f4d7)" style="fill: #324880"/>
    <path d="M 311.108378 409.838121 
L 325.533445 396.457798 
L 325.311406 431.128178 
L 310.990344 444.680593 
z
" clip-path="url(#p7e1959f4d7)" style="fill: #648fff"/>
    <path d="M 285.750296 402.087473 
L 300.307412 388.82715 
L 325.533445 396.457798 
L 311.108378 409.838121 
z
" clip-path="url(#p7e1959f4d7)" style="fill: #3f599f"/>
    <path d="M 285.750296 402.087473 
L 311.108378 409.838121 
L 310.990344 444.680593 
L 285.817832 436.830448 
z
" clip-path="url(#p7e1959f4d7)" style="fill: #324880"/>
    <path d="M 350.987381 404.157386 
L 350.650833 432.767901 
L 376.179151 440.61949 
L 376.672324 411.92685 
z
" clip-path="url(#p7e1959f4d7)" style="fill: #648fff"/>
    <path d="M 336.444758 446.412303 
L 362.109497 454.387738 
L 376.179151 440.61949 
L 350.650833 432.767901 
z
" clip-path="url(#p7e1959f4d7)" style="fill: #577ddf"/>
    <path d="M 336.697363 417.659345 
L 336.444758 446.412303 
L 350.650833 432.767901 
L 350.987381 404.157386 
z
" clip-path="url(#p7e1959f4d7)" style="fill: #324880"/>
    <path d="M 362.52042 425.552111 
L 376.672324 411.92685 
L 376.179151 440.61949 
L 362.109497 454.387738 
z
" clip-path="url(#p7e1959f4d7)" style="fill: #648fff"/>
    <path d="M 336.697363 417.659345 
L 350.987381 404.157386 
L 376.672324 411.92685 
L 362.52042 425.552111 
z
" clip-path="url(#p7e1959f4d7)" style="fill: #3f599f"/>
    <path d="M 336.697363 417.659345 
L 362.52042 425.552111 
L 362.109497 454.387738 
L 336.444758 446.412303 
z
" clip-path="url(#p7e1959f4d7)" style="fill: #324880"/>
   </g>
   <g id="Poly3DCollection_2">
    <path d="M 135.591672 400.777792 
L 339.318402 464.714698 
L 450.31848 356.821384 
L 254.802088 300.306262 
z
" clip-path="url(#p7e1959f4d7)" style="fill-opacity: 0.25"/>
   </g>
   <g id="Poly3DCollection_3">
    <path d="M 259.622409 309.683168 
L 259.563691 301.628617 
L 283.473246 308.539577 
L 283.492434 316.617154 
z
" clip-path="url(#p7e1959f4d7)" style="fill: #324880"/>
    <path d="M 245.446316 321.730987 
L 245.363459 313.636493 
L 259.563691 301.628617 
L 259.622409 309.683168 
z
" clip-path="url(#p7e1959f4d7)" style="fill: #648fff"/>
    <path d="M 245.446316 321.730987 
L 259.622409 309.683168 
L 283.492434 316.617154 
L 269.433661 328.768863 
z
" clip-path="url(#p7e1959f4d7)" style="fill: #3f599f"/>
    <path d="M 245.363459 313.636493 
L 269.390723 320.651172 
L 283.473246 308.539577 
L 259.563691 301.628617 
z
" clip-path="url(#p7e1959f4d7)" style="fill: #577ddf"/>
    <path d="M 269.433661 328.768863 
L 283.492434 316.617154 
L 283.473246 308.539577 
L 269.390723 320.651172 
z
" clip-path="url(#p7e1959f4d7)" style="fill: #324880"/>
    <path d="M 245.446316 321.730987 
L 269.433661 328.768863 
L 269.390723 320.651172 
L 245.363459 313.636493 
z
" clip-path="url(#p7e1959f4d7)" style="fill: #648fff"/>
    <path d="M 231.057487 333.959603 
L 230.926363 324.057173 
L 255.080944 331.17283 
L 255.162996 341.103721 
z
" clip-path="url(#p7e1959f4d7)" style="fill: #324880"/>
    <path d="M 216.451099 346.373116 
L 216.288805 336.421315 
L 230.926363 324.057173 
L 231.057487 333.959603 
z
" clip-path="url(#p7e1959f4d7)" style="fill: #648fff"/>
    <path d="M 216.451099 346.373116 
L 231.057487 333.959603 
L 255.162996 341.103721 
L 240.675612 353.625901 
z
" clip-path="url(#p7e1959f4d7)" style="fill: #3f599f"/>
    <path d="M 216.288805 336.421315 
L 240.562872 343.645431 
L 255.080944 331.17283 
L 230.926363 324.057173 
z
" clip-path="url(#p7e1959f4d7)" style="fill: #577ddf"/>
    <path d="M 342.655038 350.25198 
L 356.346265 337.780409 
L 381.054501 344.957886 
L 367.491167 357.538888 
z
" clip-path="url(#p7e1959f4d7)" style="fill: #3f599f"/>
    <path d="M 240.675612 353.625901 
L 255.162996 341.103721 
L 255.080944 331.17283 
L 240.562872 343.645431 
z
" clip-path="url(#p7e1959f4d7)" style="fill: #324880"/>
    <path d="M 216.451099 346.373116 
L 240.675612 353.625901 
L 240.562872 343.645431 
L 216.288805 336.421315 
z
" clip-path="url(#p7e1959f4d7)" style="fill: #648fff"/>
    <path d="M 356.346265 337.780409 
L 357.848023 219.64162 
L 383.170584 226.467724 
L 381.054501 344.957886 
z
" clip-path="url(#p7e1959f4d7)" style="fill: #324880"/>
    <path d="M 392.546531 364.89012 
L 405.979188 352.19824 
L 431.123184 359.502301 
L 417.824046 372.306531 
z
" clip-path="url(#p7e1959f4d7)" style="fill: #3f599f"/>
    <path d="M 342.655038 350.25198 
L 343.830663 231.50358 
L 357.848023 219.64162 
L 356.346265 337.780409 
z
" clip-path="url(#p7e1959f4d7)" style="fill: #648fff"/>
    <path d="M 186.565603 371.771866 
L 201.622179 358.975752 
L 225.966534 366.339701 
L 211.030634 379.249555 
z
" clip-path="url(#p7e1959f4d7)" style="fill: #3f599f"/>
    <path d="M 367.491167 357.538888 
L 381.054501 344.957886 
L 383.170584 226.467724 
L 369.287609 238.436341 
z
" clip-path="url(#p7e1959f4d7)" style="fill: #324880"/>
    <path d="M 405.979188 352.19824 
L 408.222059 254.962332 
L 433.886583 261.97821 
L 431.123184 359.502301 
z
" clip-path="url(#p7e1959f4d7)" style="fill: #324880"/>
    <path d="M 314.640513 375.770886 
L 328.754729 362.914006 
L 353.719787 370.312868 
L 339.735538 383.2843 
z
" clip-path="url(#p7e1959f4d7)" style="fill: #3f599f"/>
    <path d="M 342.655038 350.25198 
L 367.491167 357.538888 
L 369.287609 238.436341 
L 343.830663 231.50358 
z
" clip-path="url(#p7e1959f4d7)" style="fill: #648fff"/>
    <path d="M 392.546531 364.89012 
L 394.533294 267.154252 
L 408.222059 254.962332 
L 405.979188 352.19824 
z
" clip-path="url(#p7e1959f4d7)" style="fill: #648fff"/>
    <path d="M 417.824046 372.306531 
L 431.123184 359.502301 
L 433.886583 261.97821 
L 420.33699 274.280259 
z
" clip-path="url(#p7e1959f4d7)" style="fill: #324880"/>
    <path d="M 235.714453 386.794116 
L 250.526923 373.768999 
L 275.306236 381.264518 
L 260.620006 394.406449 
z
" clip-path="url(#p7e1959f4d7)" style="fill: #3f599f"/>
    <path d="M 392.546531 364.89012 
L 417.824046 372.306531 
L 420.33699 274.280259 
L 394.533294 267.154252 
z
" clip-path="url(#p7e1959f4d7)" style="fill: #648fff"/>
    <path d="M 201.622179 358.975752 
L 198.867611 217.260906 
L 223.9208 224.198491 
L 225.966534 366.339701 
z
" clip-path="url(#p7e1959f4d7)" style="fill: #324880"/>
    <path d="M 365.055523 390.865067 
L 378.906916 377.777544 
L 404.319091 385.308917 
L 390.603506 398.514097 
z
" clip-path="url(#p7e1959f4d7)" style="fill: #3f599f"/>
    <path d="M 343.830663 231.50358 
L 369.287609 238.436341 
L 383.170584 226.467724 
L 357.848023 219.64162 
z
" clip-path="url(#p7e1959f4d7)" style="fill: #577ddf"/>
    <path d="M 186.565603 371.771866 
L 183.34162 229.317299 
L 198.867611 217.260906 
L 201.622179 358.975752 
z
" clip-path="url(#p7e1959f4d7)" style="fill: #648fff"/>
    <path d="M 328.754729 362.914006 
L 329.781439 216.87899 
L 355.514125 223.837568 
L 353.719787 370.312868 
z
" clip-path="url(#p7e1959f4d7)" style="fill: #324880"/>
    <path d="M 314.640513 375.770886 
L 315.242582 228.971997 
L 329.781439 216.87899 
L 328.754729 362.914006 
z
" clip-path="url(#p7e1959f4d7)" style="fill: #648fff"/>
    <path d="M 155.748186 397.962627 
L 171.276088 384.765947 
L 195.862626 392.360032 
L 180.457056 405.675846 
z
" clip-path="url(#p7e1959f4d7)" style="fill: #3f599f"/>
    <path d="M 394.533294 267.154252 
L 420.33699 274.280259 
L 433.886583 261.97821 
L 408.222059 254.962332 
z
" clip-path="url(#p7e1959f4d7)" style="fill: #577ddf"/>
    <path d="M 211.030634 379.249555 
L 225.966534 366.339701 
L 223.9208 224.198491 
L 208.522567 236.365245 
z
" clip-path="url(#p7e1959f4d7)" style="fill: #324880"/>
    <path d="M 186.565603 371.771866 
L 211.030634 379.249555 
L 208.522567 236.365245 
L 183.34162 229.317299 
z
" clip-path="url(#p7e1959f4d7)" style="fill: #648fff"/>
    <path d="M 339.735538 383.2843 
L 353.719787 370.312868 
L 355.514125 223.837568 
L 341.113401 236.041636 
z
" clip-path="url(#p7e1959f4d7)" style="fill: #324880"/>
    <path d="M 378.906916 377.777544 
L 381.012179 257.699278 
L 407.074562 264.870522 
L 404.319091 385.308917 
z
" clip-path="url(#p7e1959f4d7)" style="fill: #324880"/>
    <path d="M 314.640513 375.770886 
L 339.735538 383.2843 
L 341.113401 236.041636 
L 315.242582 228.971997 
z
" clip-path="url(#p7e1959f4d7)" style="fill: #648fff"/>
    <path d="M 365.055523 390.865067 
L 366.827217 270.162023 
L 381.012179 257.699278 
L 378.906916 377.777544 
z
" clip-path="url(#p7e1959f4d7)" style="fill: #648fff"/>
    <path d="M 250.526923 373.768999 
L 248.891417 197.655136 
L 274.578536 204.613639 
L 275.306236 381.264518 
z
" clip-path="url(#p7e1959f4d7)" style="fill: #324880"/>
    <path d="M 205.390371 413.459129 
L 220.670754 400.02256 
L 245.703481 407.754459 
L 230.551202 421.313434 
z
" clip-path="url(#p7e1959f4d7)" style="fill: #3f599f"/>
    <path d="M 171.276088 384.765947 
L 167.974821 257.268653 
L 193.205177 264.478994 
L 195.862626 392.360032 
z
" clip-path="url(#p7e1959f4d7)" style="fill: #324880"/>
    <path d="M 235.714453 386.794116 
L 233.516771 209.748531 
L 248.891417 197.655136 
L 250.526923 373.768999 
z
" clip-path="url(#p7e1959f4d7)" style="fill: #648fff"/>
    <path d="M 390.603506 398.514097 
L 404.319091 385.308917 
L 407.074562 264.870522 
L 393.032517 277.448149 
z
" clip-path="url(#p7e1959f4d7)" style="fill: #324880"/>
    <path d="M 155.748186 397.962627 
L 152.002869 269.799585 
L 167.974821 257.268653 
L 171.276088 384.765947 
z
" clip-path="url(#p7e1959f4d7)" style="fill: #648fff"/>
    <path d="M 365.055523 390.865067 
L 390.603506 398.514097 
L 393.032517 277.448149 
L 366.827217 270.162023 
z
" clip-path="url(#p7e1959f4d7)" style="fill: #648fff"/>
    <path d="M 183.34162 229.317299 
L 208.522567 236.365245 
L 223.9208 224.198491 
L 198.867611 217.260906 
z
" clip-path="url(#p7e1959f4d7)" style="fill: #577ddf"/>
    <path d="M 260.620006 394.406449 
L 275.306236 381.264518 
L 274.578536 204.613639 
L 259.339537 216.819525 
z
" clip-path="url(#p7e1959f4d7)" style="fill: #324880"/>
    <path d="M 270.963872 415.556678 
L 270.91212 405.336744 
L 296.458179 413.180484 
L 296.455045 423.430179 
z
" clip-path="url(#p7e1959f4d7)" style="fill: #324880"/>
    <path d="M 180.457056 405.675846 
L 195.862626 392.360032 
L 193.205177 264.478994 
L 177.361978 277.126102 
z
" clip-path="url(#p7e1959f4d7)" style="fill: #324880"/>
    <path d="M 235.714453 386.794116 
L 260.620006 394.406449 
L 259.339537 216.819525 
L 233.516771 209.748531 
z
" clip-path="url(#p7e1959f4d7)" style="fill: #648fff"/>
    <path d="M 255.942677 429.239738 
L 255.857922 418.968183 
L 270.91212 405.336744 
L 270.963872 415.556678 
z
" clip-path="url(#p7e1959f4d7)" style="fill: #648fff"/>
    <path d="M 315.242582 228.971997 
L 341.113401 236.041636 
L 355.514125 223.837568 
L 329.781439 216.87899 
z
" clip-path="url(#p7e1959f4d7)" style="fill: #577ddf"/>
    <path d="M 155.748186 397.962627 
L 180.457056 405.675846 
L 177.361978 277.126102 
L 152.002869 269.799585 
z
" clip-path="url(#p7e1959f4d7)" style="fill: #648fff"/>
    <path d="M 255.942677 429.239738 
L 270.963872 415.556678 
L 296.455045 423.430179 
L 281.567983 437.239036 
z
" clip-path="url(#p7e1959f4d7)" style="fill: #3f599f"/>
    <path d="M 220.670754 400.02256 
L 218.422447 255.954218 
L 244.205353 263.249091 
L 245.703481 407.754459 
z
" clip-path="url(#p7e1959f4d7)" style="fill: #324880"/>
    <path d="M 255.857922 418.968183 
L 281.538693 426.937519 
L 296.458179 413.180484 
L 270.91212 405.336744 
z
" clip-path="url(#p7e1959f4d7)" style="fill: #577ddf"/>
    <path d="M 366.827217 270.162023 
L 393.032517 277.448149 
L 407.074562 264.870522 
L 381.012179 257.699278 
z
" clip-path="url(#p7e1959f4d7)" style="fill: #577ddf"/>
    <path d="M 281.567983 437.239036 
L 296.455045 423.430179 
L 296.458179 413.180484 
L 281.538693 426.937519 
z
" clip-path="url(#p7e1959f4d7)" style="fill: #324880"/>
    <path d="M 205.390371 413.459129 
L 202.657925 268.632599 
L 218.422447 255.954218 
L 220.670754 400.02256 
z
" clip-path="url(#p7e1959f4d7)" style="fill: #648fff"/>
    <path d="M 255.942677 429.239738 
L 281.567983 437.239036 
L 281.538693 426.937519 
L 255.857922 418.968183 
z
" clip-path="url(#p7e1959f4d7)" style="fill: #648fff"/>
    <path d="M 322.180178 431.375943 
L 322.228673 422.931575 
L 348.237771 430.925979 
L 348.142507 439.39497 
z
" clip-path="url(#p7e1959f4d7)" style="fill: #324880"/>
    <path d="M 307.430365 445.31234 
L 307.452716 436.825263 
L 322.228673 422.931575 
L 322.180178 431.375943 
z
" clip-path="url(#p7e1959f4d7)" style="fill: #648fff"/>
    <path d="M 230.551202 421.313434 
L 245.703481 407.754459 
L 244.205353 263.249091 
L 228.576692 276.046503 
z
" clip-path="url(#p7e1959f4d7)" style="fill: #324880"/>
    <path d="M 152.002869 269.799585 
L 177.361978 277.126102 
L 193.205177 264.478994 
L 167.974821 257.268653 
z
" clip-path="url(#p7e1959f4d7)" style="fill: #577ddf"/>
    <path d="M 307.430365 445.31234 
L 322.180178 431.375943 
L 348.142507 439.39497 
L 333.533128 453.460682 
z
" clip-path="url(#p7e1959f4d7)" style="fill: #3f599f"/>
    <path d="M 205.390371 413.459129 
L 230.551202 421.313434 
L 228.576692 276.046503 
L 202.657925 268.632599 
z
" clip-path="url(#p7e1959f4d7)" style="fill: #648fff"/>
    <path d="M 307.452716 436.825263 
L 333.602757 444.948818 
L 348.237771 430.925979 
L 322.228673 422.931575 
z
" clip-path="url(#p7e1959f4d7)" style="fill: #577ddf"/>
    <path d="M 233.516771 209.748531 
L 259.339537 216.819525 
L 274.578536 204.613639 
L 248.891417 197.655136 
z
" clip-path="url(#p7e1959f4d7)" style="fill: #577ddf"/>
    <path d="M 333.533128 453.460682 
L 348.142507 439.39497 
L 348.237771 430.925979 
L 333.602757 444.948818 
z
" clip-path="url(#p7e1959f4d7)" style="fill: #324880"/>
    <path d="M 307.430365 445.31234 
L 333.533128 453.460682 
L 333.602757 444.948818 
L 307.452716 436.825263 
z
" clip-path="url(#p7e1959f4d7)" style="fill: #648fff"/>
    <path d="M 202.657925 268.632599 
L 228.576692 276.046503 
L 244.205353 263.249091 
L 218.422447 255.954218 
z
" clip-path="url(#p7e1959f4d7)" style="fill: #577ddf"/>
   </g>
   <g id="text_17">
    <!-- Real Amplitude (ρ) -->
    <g transform="translate(190.023516 51.6) scale(0.21 -0.21)">
     <defs>
      <path id="DejaVuSans-52" d="M 2841 2188 
Q 3044 2119 3236 1894 
Q 3428 1669 3622 1275 
L 4263 0 
L 3584 0 
L 2988 1197 
Q 2756 1666 2539 1819 
Q 2322 1972 1947 1972 
L 1259 1972 
L 1259 0 
L 628 0 
L 628 4666 
L 2053 4666 
Q 2853 4666 3247 4331 
Q 3641 3997 3641 3322 
Q 3641 2881 3436 2590 
Q 3231 2300 2841 2188 
z
M 1259 4147 
L 1259 2491 
L 2053 2491 
Q 2509 2491 2742 2702 
Q 2975 2913 2975 3322 
Q 2975 3731 2742 3939 
Q 2509 4147 2053 4147 
L 1259 4147 
z
" transform="scale(0.015625)"/>
      <path id="DejaVuSans-65" d="M 3597 1894 
L 3597 1613 
L 953 1613 
Q 991 1019 1311 708 
Q 1631 397 2203 397 
Q 2534 397 2845 478 
Q 3156 559 3463 722 
L 3463 178 
Q 3153 47 2828 -22 
Q 2503 -91 2169 -91 
Q 1331 -91 842 396 
Q 353 884 353 1716 
Q 353 2575 817 3079 
Q 1281 3584 2069 3584 
Q 2775 3584 3186 3129 
Q 3597 2675 3597 1894 
z
M 3022 2063 
Q 3016 2534 2758 2815 
Q 2500 3097 2075 3097 
Q 1594 3097 1305 2825 
Q 1016 2553 972 2059 
L 3022 2063 
z
" transform="scale(0.015625)"/>
      <path id="DejaVuSans-61" d="M 2194 1759 
Q 1497 1759 1228 1600 
Q 959 1441 959 1056 
Q 959 750 1161 570 
Q 1363 391 1709 391 
Q 2188 391 2477 730 
Q 2766 1069 2766 1631 
L 2766 1759 
L 2194 1759 
z
M 3341 1997 
L 3341 0 
L 2766 0 
L 2766 531 
Q 2569 213 2275 61 
Q 1981 -91 1556 -91 
Q 1019 -91 701 211 
Q 384 513 384 1019 
Q 384 1609 779 1909 
Q 1175 2209 1959 2209 
L 2766 2209 
L 2766 2266 
Q 2766 2663 2505 2880 
Q 2244 3097 1772 3097 
Q 1472 3097 1187 3025 
Q 903 2953 641 2809 
L 641 3341 
Q 956 3463 1253 3523 
Q 1550 3584 1831 3584 
Q 2591 3584 2966 3190 
Q 3341 2797 3341 1997 
z
" transform="scale(0.015625)"/>
      <path id="DejaVuSans-6c" d="M 603 4863 
L 1178 4863 
L 1178 0 
L 603 0 
L 603 4863 
z
" transform="scale(0.015625)"/>
      <path id="DejaVuSans-20" transform="scale(0.015625)"/>
      <path id="DejaVuSans-41" d="M 2188 4044 
L 1331 1722 
L 3047 1722 
L 2188 4044 
z
M 1831 4666 
L 2547 4666 
L 4325 0 
L 3669 0 
L 3244 1197 
L 1141 1197 
L 716 0 
L 50 0 
L 1831 4666 
z
" transform="scale(0.015625)"/>
      <path id="DejaVuSans-6d" d="M 3328 2828 
Q 3544 3216 3844 3400 
Q 4144 3584 4550 3584 
Q 5097 3584 5394 3201 
Q 5691 2819 5691 2113 
L 5691 0 
L 5113 0 
L 5113 2094 
Q 5113 2597 4934 2840 
Q 4756 3084 4391 3084 
Q 3944 3084 3684 2787 
Q 3425 2491 3425 1978 
L 3425 0 
L 2847 0 
L 2847 2094 
Q 2847 2600 2669 2842 
Q 2491 3084 2119 3084 
Q 1678 3084 1418 2786 
Q 1159 2488 1159 1978 
L 1159 0 
L 581 0 
L 581 3500 
L 1159 3500 
L 1159 2956 
Q 1356 3278 1631 3431 
Q 1906 3584 2284 3584 
Q 2666 3584 2933 3390 
Q 3200 3197 3328 2828 
z
" transform="scale(0.015625)"/>
      <path id="DejaVuSans-70" d="M 1159 525 
L 1159 -1331 
L 581 -1331 
L 581 3500 
L 1159 3500 
L 1159 2969 
Q 1341 3281 1617 3432 
Q 1894 3584 2278 3584 
Q 2916 3584 3314 3078 
Q 3713 2572 3713 1747 
Q 3713 922 3314 415 
Q 2916 -91 2278 -91 
Q 1894 -91 1617 61 
Q 1341 213 1159 525 
z
M 3116 1747 
Q 3116 2381 2855 2742 
Q 2594 3103 2138 3103 
Q 1681 3103 1420 2742 
Q 1159 2381 1159 1747 
Q 1159 1113 1420 752 
Q 1681 391 2138 391 
Q 2594 391 2855 752 
Q 3116 1113 3116 1747 
z
" transform="scale(0.015625)"/>
      <path id="DejaVuSans-69" d="M 603 3500 
L 1178 3500 
L 1178 0 
L 603 0 
L 603 3500 
z
M 603 4863 
L 1178 4863 
L 1178 4134 
L 603 4134 
L 603 4863 
z
" transform="scale(0.015625)"/>
      <path id="DejaVuSans-74" d="M 1172 4494 
L 1172 3500 
L 2356 3500 
L 2356 3053 
L 1172 3053 
L 1172 1153 
Q 1172 725 1289 603 
Q 1406 481 1766 481 
L 2356 481 
L 2356 0 
L 1766 0 
Q 1100 0 847 248 
Q 594 497 594 1153 
L 594 3053 
L 172 3053 
L 172 3500 
L 594 3500 
L 594 4494 
L 1172 4494 
z
" transform="scale(0.015625)"/>
      <path id="DejaVuSans-75" d="M 544 1381 
L 544 3500 
L 1119 3500 
L 1119 1403 
Q 1119 906 1312 657 
Q 1506 409 1894 409 
Q 2359 409 2629 706 
Q 2900 1003 2900 1516 
L 2900 3500 
L 3475 3500 
L 3475 0 
L 2900 0 
L 2900 538 
Q 2691 219 2414 64 
Q 2138 -91 1772 -91 
Q 1169 -91 856 284 
Q 544 659 544 1381 
z
M 1991 3584 
L 1991 3584 
z
" transform="scale(0.015625)"/>
      <path id="DejaVuSans-64" d="M 2906 2969 
L 2906 4863 
L 3481 4863 
L 3481 0 
L 2906 0 
L 2906 525 
Q 2725 213 2448 61 
Q 2172 -91 1784 -91 
Q 1150 -91 751 415 
Q 353 922 353 1747 
Q 353 2572 751 3078 
Q 1150 3584 1784 3584 
Q 2172 3584 2448 3432 
Q 2725 3281 2906 2969 
z
M 947 1747 
Q 947 1113 1208 752 
Q 1469 391 1925 391 
Q 2381 391 2643 752 
Q 2906 1113 2906 1747 
Q 2906 2381 2643 2742 
Q 2381 3103 1925 3103 
Q 1469 3103 1208 2742 
Q 947 2381 947 1747 
z
" transform="scale(0.015625)"/>
      <path id="DejaVuSans-28" d="M 1984 4856 
Q 1566 4138 1362 3434 
Q 1159 2731 1159 2009 
Q 1159 1288 1364 580 
Q 1569 -128 1984 -844 
L 1484 -844 
Q 1016 -109 783 600 
Q 550 1309 550 2009 
Q 550 2706 781 3412 
Q 1013 4119 1484 4856 
L 1984 4856 
z
" transform="scale(0.015625)"/>
      <path id="DejaVuSans-3c1" d="M 863 2875 
Q 1053 3194 1525 3475 
Q 1709 3584 2278 3584 
Q 2916 3584 3314 3078 
Q 3713 2572 3713 1747 
Q 3713 922 3314 415 
Q 2916 -91 2278 -91 
Q 1894 -91 1617 61 
Q 1341 213 1159 525 
L 1159 -1331 
L 581 -1331 
L 581 1716 
Q 581 2438 863 2875 
z
M 3116 1747 
Q 3116 2381 2855 2742 
Q 2594 3103 2138 3103 
Q 1681 3103 1420 2742 
Q 1159 2381 1159 1747 
Q 1159 1113 1420 752 
Q 1681 391 2138 391 
Q 2594 391 2855 752 
Q 3116 1113 3116 1747 
z
" transform="scale(0.015625)"/>
      <path id="DejaVuSans-29" d="M 513 4856 
L 1013 4856 
Q 1481 4119 1714 3412 
Q 1947 2706 1947 2009 
Q 1947 1309 1714 600 
Q 1481 -109 1013 -844 
L 513 -844 
Q 928 -128 1133 580 
Q 1338 1288 1338 2009 
Q 1338 2731 1133 3434 
Q 928 4138 513 4856 
z
" transform="scale(0.015625)"/>
     </defs>
     <use xlink:href="#DejaVuSans-52"/>
     <use xlink:href="#DejaVuSans-65" x="64.982422"/>
     <use xlink:href="#DejaVuSans-61" x="126.505859"/>
     <use xlink:href="#DejaVuSans-6c" x="187.785156"/>
     <use xlink:href="#DejaVuSans-20" x="215.568359"/>
     <use xlink:href="#DejaVuSans-41" x="247.355469"/>
     <use xlink:href="#DejaVuSans-6d" x="315.763672"/>
     <use xlink:href="#DejaVuSans-70" x="413.175781"/>
     <use xlink:href="#DejaVuSans-6c" x="476.652344"/>
     <use xlink:href="#DejaVuSans-69" x="504.435547"/>
     <use xlink:href="#DejaVuSans-74" x="532.21875"/>
     <use xlink:href="#DejaVuSans-75" x="571.427734"/>
     <use xlink:href="#DejaVuSans-64" x="634.806641"/>
     <use xlink:href="#DejaVuSans-65" x="698.283203"/>
     <use xlink:href="#DejaVuSans-20" x="759.806641"/>
     <use xlink:href="#DejaVuSans-28" x="791.59375"/>
     <use xlink:href="#DejaVuSans-3c1" x="830.607422"/>
     <use xlink:href="#DejaVuSans-29" x="894.083984"/>
    </g>
   </g>
  </g>
  <g id="patch_6">
   <path d="M 604.8 576 
L 1123.2 576 
L 1123.2 57.6 
L 604.8 57.6 
z
" style="fill: #ffffff"/>
  </g>
  <g id="pane3d_4">
   <g id="patch_7">
    <path d="M 706.07018 436.456468 
L 829.494133 330.550231 
L 827.743197 126.70673 
L 698.643358 223.613571 
" style="fill: #f2f2f2; opacity: 0.5; stroke: #f2f2f2; stroke-linejoin: miter"/>
   </g>
  </g>
  <g id="pane3d_5">
   <g id="patch_8">
    <path d="M 829.494133 330.550231 
L 1031.554898 390.069341 
L 1038.583588 181.103065 
L 827.743197 126.70673 
" style="fill: #e6e6e6; opacity: 0.5; stroke: #e6e6e6; stroke-linejoin: miter"/>
   </g>
  </g>
  <g id="pane3d_6">
   <g id="patch_9">
    <path d="M 706.07018 436.456468 
L 916.912731 504.076731 
L 1031.554898 390.069341 
L 829.494133 330.550231 
" style="fill: #ececec; opacity: 0.5; stroke: #ececec; stroke-linejoin: miter"/>
   </g>
  </g>
  <g id="grid3d_4">
   <g id="Line3DCollection_4">
    <path d="M 734.635886 445.617904 
L 856.925726 338.630493 
L 856.328796 134.081748 
" style="fill: none; stroke: #b0b0b0; stroke-width: 0.8"/>
    <path d="M 784.310046 461.549127 
L 904.58611 352.669358 
L 906.022474 146.902603 
" style="fill: none; stroke: #b0b0b0; stroke-width: 0.8"/>
    <path d="M 834.89502 477.772462 
L 953.066152 366.949661 
L 956.607663 159.953465 
" style="fill: none; stroke: #b0b0b0; stroke-width: 0.8"/>
    <path d="M 886.41609 494.296016 
L 1002.38718 381.477685 
L 1008.108569 173.24058 
" style="fill: none; stroke: #b0b0b0; stroke-width: 0.8"/>
   </g>
  </g>
  <g id="grid3d_5">
   <g id="Line3DCollection_5">
    <path d="M 717.757365 209.265931 
L 724.301379 420.812846 
L 933.880707 487.202708 
" style="fill: none; stroke: #b0b0b0; stroke-width: 0.8"/>
    <path d="M 749.704273 185.285468 
L 754.805664 394.638072 
L 962.24502 458.995448 
" style="fill: none; stroke: #b0b0b0; stroke-width: 0.8"/>
    <path d="M 780.65707 162.051218 
L 784.400054 369.24405 
L 989.731787 431.660877 
" style="fill: none; stroke: #b0b0b0; stroke-width: 0.8"/>
    <path d="M 810.661448 139.528886 
L 813.124663 344.596362 
L 1016.38111 405.159111 
" style="fill: none; stroke: #b0b0b0; stroke-width: 0.8"/>
   </g>
  </g>
  <g id="grid3d_6">
   <g id="Line3DCollection_6">
    <path d="M 1032.50715 361.758443 
L 829.2566 302.896741 
L 705.065029 407.65018 
" style="fill: none; stroke: #b0b0b0; stroke-width: 0.8"/>
    <path d="M 1033.642725 327.997245 
L 828.973468 269.934539 
L 703.865945 373.286016 
" style="fill: none; stroke: #b0b0b0; stroke-width: 0.8"/>
    <path d="M 1034.794383 293.757912 
L 828.686469 236.522197 
L 702.649406 338.421606 
" style="fill: none; stroke: #b0b0b0; stroke-width: 0.8"/>
    <path d="M 1035.962467 259.030213 
L 828.395523 202.650431 
L 701.415027 303.045948 
" style="fill: none; stroke: #b0b0b0; stroke-width: 0.8"/>
    <path d="M 1037.147332 223.803626 
L 828.10055 168.3097 
L 700.162414 267.147712 
" style="fill: none; stroke: #b0b0b0; stroke-width: 0.8"/>
    <path d="M 1038.349341 188.067322 
L 827.801464 133.490197 
L 698.891159 230.715234 
" style="fill: none; stroke: #b0b0b0; stroke-width: 0.8"/>
   </g>
  </g>
  <g id="axis3d_4">
   <g id="line2d_20">
    <path d="M 706.07018 436.456468 
L 916.912731 504.076731 
" style="fill: none; stroke: #000000; stroke-width: 0.8; stroke-linecap: square"/>
   </g>
   <g id="xtick_17">
    <g id="line2d_21">
     <path d="M 735.677227 444.706868 
L 732.549953 447.442819 
" style="fill: none; stroke: #000000; stroke-width: 0.8; stroke-linecap: square"/>
    </g>
    <g id="text_18">
     <!-- 00 -->
     <g transform="translate(707.351686 489.365693) rotate(-45) scale(0.21 -0.21)">
      <use xlink:href="#DejaVuSans-30"/>
      <use xlink:href="#DejaVuSans-30" x="63.623047"/>
     </g>
    </g>
   </g>
   <g id="xtick_18">
    <g id="line2d_22">
     <path d="M 785.334802 460.621468 
L 782.257306 463.407368 
" style="fill: none; stroke: #000000; stroke-width: 0.8; stroke-linecap: square"/>
    </g>
    <g id="text_19">
     <!-- 01 -->
     <g transform="translate(757.023931 505.435143) rotate(-45) scale(0.21 -0.21)">
      <use xlink:href="#DejaVuSans-30"/>
      <use xlink:href="#DejaVuSans-31" x="63.623047"/>
     </g>
    </g>
   </g>
   <g id="xtick_19">
    <g id="line2d_23">
     <path d="M 835.902405 476.82772 
L 832.877048 479.664949 
" style="fill: none; stroke: #000000; stroke-width: 0.8; stroke-linecap: square"/>
    </g>
    <g id="text_20">
     <!-- 10 -->
     <g transform="translate(807.60781 521.799516) rotate(-45) scale(0.21 -0.21)">
      <use xlink:href="#DejaVuSans-31"/>
      <use xlink:href="#DejaVuSans-30" x="63.623047"/>
     </g>
    </g>
   </g>
   <g id="xtick_20">
    <g id="line2d_24">
     <path d="M 887.405283 493.333715 
L 884.434531 496.223705 
" style="fill: none; stroke: #000000; stroke-width: 0.8; stroke-linecap: square"/>
    </g>
    <g id="text_21">
     <!-- 11 -->
     <g transform="translate(859.128654 538.467006) rotate(-45) scale(0.21 -0.21)">
      <use xlink:href="#DejaVuSans-31"/>
      <use xlink:href="#DejaVuSans-31" x="63.623047"/>
     </g>
    </g>
   </g>
  </g>
  <g id="axis3d_5">
   <g id="line2d_25">
    <path d="M 1031.554898 390.069341 
L 916.912731 504.076731 
" style="fill: none; stroke: #000000; stroke-width: 0.8; stroke-linecap: square"/>
   </g>
   <g id="xtick_21">
    <g id="line2d_26">
     <path d="M 932.140222 486.651363 
L 937.364886 488.306415 
" style="fill: none; stroke: #000000; stroke-width: 0.8; stroke-linecap: square"/>
    </g>
    <g id="text_22">
     <!-- 00 -->
     <g transform="translate(944.70027 499.207917) rotate(-337.5) scale(0.21 -0.21)">
      <use xlink:href="#DejaVuSans-30"/>
      <use xlink:href="#DejaVuSans-30" x="63.623047"/>
     </g>
    </g>
   </g>
   <g id="xtick_22">
    <g id="line2d_27">
     <path d="M 960.5233 458.46129 
L 965.691587 460.064734 
" style="fill: none; stroke: #000000; stroke-width: 0.8; stroke-linecap: square"/>
    </g>
    <g id="text_23">
     <!-- 01 -->
     <g transform="translate(972.913817 470.822876) rotate(-337.5) scale(0.21 -0.21)">
      <use xlink:href="#DejaVuSans-30"/>
      <use xlink:href="#DejaVuSans-31" x="63.623047"/>
     </g>
    </g>
   </g>
   <g id="xtick_23">
    <g id="line2d_28">
     <path d="M 988.028511 431.143114 
L 993.141381 432.697327 
" style="fill: none; stroke: #000000; stroke-width: 0.8; stroke-linecap: square"/>
    </g>
    <g id="text_24">
     <!-- 10 -->
     <g transform="translate(1000.254695 443.315808) rotate(-337.5) scale(0.21 -0.21)">
      <use xlink:href="#DejaVuSans-31"/>
      <use xlink:href="#DejaVuSans-30" x="63.623047"/>
     </g>
    </g>
   </g>
   <g id="xtick_24">
    <g id="line2d_29">
     <path d="M 1014.695964 404.657001 
L 1019.754368 406.164215 
" style="fill: none; stroke: #000000; stroke-width: 0.8; stroke-linecap: square"/>
    </g>
    <g id="text_25">
     <!-- 11 -->
     <g transform="translate(1026.762776 416.646599) rotate(-337.5) scale(0.21 -0.21)">
      <use xlink:href="#DejaVuSans-31"/>
      <use xlink:href="#DejaVuSans-31" x="63.623047"/>
     </g>
    </g>
   </g>
  </g>
  <g id="axis3d_6">
   <g id="line2d_30">
    <path d="M 1031.554898 390.069341 
L 1038.583588 181.103065 
" style="fill: none; stroke: #000000; stroke-width: 0.8; stroke-linecap: square"/>
   </g>
   <g id="xtick_25">
    <g id="line2d_31">
     <path d="M 1030.822225 361.270486 
L 1035.879955 362.735213 
" style="fill: none; stroke: #000000; stroke-width: 0.8; stroke-linecap: square"/>
    </g>
    <g id="text_26">
     <!-- −0.2 -->
     <g transform="translate(1046.065263 355.490899) scale(0.21 -0.21)">
      <use xlink:href="#DejaVuSans-2212"/>
      <use xlink:href="#DejaVuSans-30" x="83.789062"/>
      <use xlink:href="#DejaVuSans-2e" x="147.412109"/>
      <use xlink:href="#DejaVuSans-32" x="179.199219"/>
     </g>
    </g>
   </g>
   <g id="xtick_26">
    <g id="line2d_32">
     <path d="M 1031.945623 327.515793 
L 1037.039929 328.960999 
" style="fill: none; stroke: #000000; stroke-width: 0.8; stroke-linecap: square"/>
    </g>
    <g id="text_27">
     <!-- −0.1 -->
     <g transform="translate(1047.29476 321.755046) scale(0.21 -0.21)">
      <use xlink:href="#DejaVuSans-2212"/>
      <use xlink:href="#DejaVuSans-30" x="83.789062"/>
      <use xlink:href="#DejaVuSans-2e" x="147.412109"/>
      <use xlink:href="#DejaVuSans-31" x="179.199219"/>
     </g>
    </g>
   </g>
   <g id="xtick_27">
    <g id="line2d_33">
     <path d="M 1033.084926 293.283199 
L 1038.216341 294.708182 
" style="fill: none; stroke: #000000; stroke-width: 0.8; stroke-linecap: square"/>
    </g>
    <g id="text_28">
     <!-- 0.0 -->
     <g transform="translate(1048.541649 287.541967) scale(0.21 -0.21)">
      <use xlink:href="#DejaVuSans-30"/>
      <use xlink:href="#DejaVuSans-2e" x="63.623047"/>
      <use xlink:href="#DejaVuSans-30" x="95.410156"/>
     </g>
    </g>
   </g>
   <g id="xtick_28">
    <g id="line2d_34">
     <path d="M 1034.240474 258.562482 
L 1039.409541 259.966515 
" style="fill: none; stroke: #000000; stroke-width: 0.8; stroke-linecap: square"/>
    </g>
    <g id="text_29">
     <!-- 0.1 -->
     <g transform="translate(1049.806302 252.841464) scale(0.21 -0.21)">
      <use xlink:href="#DejaVuSans-30"/>
      <use xlink:href="#DejaVuSans-2e" x="63.623047"/>
      <use xlink:href="#DejaVuSans-31" x="95.410156"/>
     </g>
    </g>
   </g>
   <g id="xtick_29">
    <g id="line2d_35">
     <path d="M 1035.412617 223.343126 
L 1040.619894 224.725458 
" style="fill: none; stroke: #000000; stroke-width: 0.8; stroke-linecap: square"/>
    </g>
    <g id="text_30">
     <!-- 0.2 -->
     <g transform="translate(1051.089102 217.643047) scale(0.21 -0.21)">
      <use xlink:href="#DejaVuSans-30"/>
      <use xlink:href="#DejaVuSans-2e" x="63.623047"/>
      <use xlink:href="#DejaVuSans-32" x="95.410156"/>
     </g>
    </g>
   </g>
   <g id="xtick_30">
    <g id="line2d_36">
     <path d="M 1036.601716 187.614311 
L 1041.84777 188.974166 
" style="fill: none; stroke: #000000; stroke-width: 0.8; stroke-linecap: square"/>
    </g>
    <g id="text_31">
     <!-- 0.3 -->
     <g transform="translate(1052.390441 181.935921) scale(0.21 -0.21)">
      <use xlink:href="#DejaVuSans-30"/>
      <use xlink:href="#DejaVuSans-2e" x="63.623047"/>
      <use xlink:href="#DejaVuSans-33" x="95.410156"/>
     </g>
    </g>
   </g>
  </g>
  <g id="axes_2">
   <g id="Poly3DCollection_4">
    <path d="M 933.130801 276.063331 
L 933.130801 276.063331 
L 958.159911 283.060403 
L 958.159911 283.060403 
z
" clip-path="url(#p1cd903eaa7)" style="fill: #648fff"/>
    <path d="M 919.269144 288.22193 
L 919.269144 288.22193 
L 933.130801 276.063331 
L 933.130801 276.063331 
z
" clip-path="url(#p1cd903eaa7)" style="fill: #324880"/>
    <path d="M 919.269144 288.22193 
L 933.130801 276.063331 
L 958.159911 283.060403 
L 944.429517 295.327067 
z
" clip-path="url(#p1cd903eaa7)" style="fill: #3f599f"/>
    <path d="M 919.269144 288.22193 
L 944.429517 295.327067 
L 958.159911 283.060403 
L 933.130801 276.063331 
z
" clip-path="url(#p1cd903eaa7)" style="fill: #577ddf"/>
    <path d="M 944.429517 295.327067 
L 958.159911 283.060403 
L 958.159911 283.060403 
L 944.429517 295.327067 
z
" clip-path="url(#p1cd903eaa7)" style="fill: #648fff"/>
    <path d="M 919.269144 288.22193 
L 944.429517 295.327067 
L 944.429517 295.327067 
L 919.269144 288.22193 
z
" clip-path="url(#p1cd903eaa7)" style="fill: #324880"/>
    <path d="M 983.411112 290.119563 
L 983.411112 290.119563 
L 1008.887374 297.24164 
L 1008.887374 297.24164 
z
" clip-path="url(#p1cd903eaa7)" style="fill: #648fff"/>
    <path d="M 776.412248 296.728183 
L 776.950011 324.39459 
L 801.467384 331.657915 
L 801.06802 303.909416 
z
" clip-path="url(#p1cd903eaa7)" style="fill: #648fff"/>
    <path d="M 969.814876 302.495737 
L 969.814876 302.495737 
L 983.411112 290.119563 
L 983.411112 290.119563 
z
" clip-path="url(#p1cd903eaa7)" style="fill: #324880"/>
    <path d="M 761.779024 337.016148 
L 786.418783 344.392478 
L 801.467384 331.657915 
L 776.950011 324.39459 
z
" clip-path="url(#p1cd903eaa7)" style="fill: #577ddf"/>
    <path d="M 761.149664 309.207324 
L 761.779024 337.016148 
L 776.950011 324.39459 
L 776.412248 296.728183 
z
" clip-path="url(#p1cd903eaa7)" style="fill: #324880"/>
    <path d="M 969.814876 302.495737 
L 983.411112 290.119563 
L 1008.887374 297.24164 
L 995.428252 309.728798 
z
" clip-path="url(#p1cd903eaa7)" style="fill: #3f599f"/>
    <path d="M 969.814876 302.495737 
L 995.428252 309.728798 
L 1008.887374 297.24164 
L 983.411112 290.119563 
z
" clip-path="url(#p1cd903eaa7)" style="fill: #577ddf"/>
    <path d="M 861.817832 436.830448 
L 886.990344 444.680593 
L 901.311406 431.128178 
L 876.269021 423.398695 
z
" clip-path="url(#p1cd903eaa7)" style="fill: #577ddf"/>
    <path d="M 995.428252 309.728798 
L 1008.887374 297.24164 
L 1008.887374 297.24164 
L 995.428252 309.728798 
z
" clip-path="url(#p1cd903eaa7)" style="fill: #648fff"/>
    <path d="M 905.193053 300.568618 
L 905.193053 300.568618 
L 930.485768 307.784341 
L 930.485768 307.784341 
z
" clip-path="url(#p1cd903eaa7)" style="fill: #648fff"/>
    <path d="M 785.929199 316.500932 
L 801.06802 303.909416 
L 801.467384 331.657915 
L 786.418783 344.392478 
z
" clip-path="url(#p1cd903eaa7)" style="fill: #648fff"/>
    <path d="M 969.814876 302.495737 
L 995.428252 309.728798 
L 995.428252 309.728798 
L 969.814876 302.495737 
z
" clip-path="url(#p1cd903eaa7)" style="fill: #324880"/>
    <path d="M 761.149664 309.207324 
L 776.412248 296.728183 
L 801.06802 303.909416 
L 785.929199 316.500932 
z
" clip-path="url(#p1cd903eaa7)" style="fill: #3f599f"/>
    <path d="M 890.897514 313.107793 
L 890.897514 313.107793 
L 905.193053 300.568618 
L 905.193053 300.568618 
z
" clip-path="url(#p1cd903eaa7)" style="fill: #324880"/>
    <path d="M 761.149664 309.207324 
L 785.929199 316.500932 
L 786.418783 344.392478 
L 761.779024 337.016148 
z
" clip-path="url(#p1cd903eaa7)" style="fill: #324880"/>
    <path d="M 890.897514 313.107793 
L 905.193053 300.568618 
L 930.485768 307.784341 
L 916.323651 320.436704 
z
" clip-path="url(#p1cd903eaa7)" style="fill: #3f599f"/>
    <path d="M 890.897514 313.107793 
L 916.323651 320.436704 
L 930.485768 307.784341 
L 905.193053 300.568618 
z
" clip-path="url(#p1cd903eaa7)" style="fill: #577ddf"/>
    <path d="M 876.377355 325.84399 
L 876.269021 423.398695 
L 901.311406 431.128178 
L 901.937996 333.288775 
z
" clip-path="url(#p1cd903eaa7)" style="fill: #648fff"/>
    <path d="M 916.323651 320.436704 
L 930.485768 307.784341 
L 930.485768 307.784341 
L 916.323651 320.436704 
z
" clip-path="url(#p1cd903eaa7)" style="fill: #648fff"/>
    <path d="M 825.945452 311.155209 
L 825.945452 311.155209 
L 851.047544 318.466437 
L 851.047544 318.466437 
z
" clip-path="url(#p1cd903eaa7)" style="fill: #648fff"/>
    <path d="M 861.627239 338.781892 
L 861.817832 436.830448 
L 876.269021 423.398695 
L 876.377355 325.84399 
z
" clip-path="url(#p1cd903eaa7)" style="fill: #324880"/>
    <path d="M 890.897514 313.107793 
L 916.323651 320.436704 
L 916.323651 320.436704 
L 890.897514 313.107793 
z
" clip-path="url(#p1cd903eaa7)" style="fill: #324880"/>
    <path d="M 810.933254 323.860625 
L 810.933254 323.860625 
L 825.945452 311.155209 
L 825.945452 311.155209 
z
" clip-path="url(#p1cd903eaa7)" style="fill: #324880"/>
    <path d="M 810.933254 323.860625 
L 836.164893 331.287305 
L 851.047544 318.466437 
L 825.945452 311.155209 
z
" clip-path="url(#p1cd903eaa7)" style="fill: #577ddf"/>
    <path d="M 810.933254 323.860625 
L 825.945452 311.155209 
L 851.047544 318.466437 
L 836.164893 331.287305 
z
" clip-path="url(#p1cd903eaa7)" style="fill: #3f599f"/>
    <path d="M 887.323469 346.34532 
L 901.937996 333.288775 
L 901.311406 431.128178 
L 886.990344 444.680593 
z
" clip-path="url(#p1cd903eaa7)" style="fill: #648fff"/>
    <path d="M 912.54218 435.323218 
L 938.267974 443.26696 
L 952.369354 429.553531 
L 926.780633 421.73343 
z
" clip-path="url(#p1cd903eaa7)" style="fill: #577ddf"/>
    <path d="M 836.164893 331.287305 
L 851.047544 318.466437 
L 851.047544 318.466437 
L 836.164893 331.287305 
z
" clip-path="url(#p1cd903eaa7)" style="fill: #648fff"/>
    <path d="M 745.647846 321.882069 
L 745.647846 321.882069 
L 770.552006 329.290711 
L 770.552006 329.290711 
z
" clip-path="url(#p1cd903eaa7)" style="fill: #648fff"/>
    <path d="M 861.627239 338.781892 
L 887.323469 346.34532 
L 886.990344 444.680593 
L 861.817832 436.830448 
z
" clip-path="url(#p1cd903eaa7)" style="fill: #324880"/>
    <path d="M 810.933254 323.860625 
L 836.164893 331.287305 
L 836.164893 331.287305 
L 810.933254 323.860625 
z
" clip-path="url(#p1cd903eaa7)" style="fill: #324880"/>
    <path d="M 729.901125 334.757054 
L 729.901125 334.757054 
L 745.647846 321.882069 
L 745.647846 321.882069 
z
" clip-path="url(#p1cd903eaa7)" style="fill: #324880"/>
    <path d="M 927.732639 340.801715 
L 926.780633 421.73343 
L 952.369354 429.553531 
L 953.764511 348.383751 
z
" clip-path="url(#p1cd903eaa7)" style="fill: #648fff"/>
    <path d="M 729.901125 334.757054 
L 745.647846 321.882069 
L 770.552006 329.290711 
L 754.930765 342.283473 
z
" clip-path="url(#p1cd903eaa7)" style="fill: #3f599f"/>
    <path d="M 729.901125 334.757054 
L 754.930765 342.283473 
L 770.552006 329.290711 
L 745.647846 321.882069 
z
" clip-path="url(#p1cd903eaa7)" style="fill: #577ddf"/>
    <path d="M 832.130043 451.946712 
L 857.632732 460.011516 
L 872.448115 446.089355 
L 847.078284 438.150776 
z
" clip-path="url(#p1cd903eaa7)" style="fill: #577ddf"/>
    <path d="M 913.256821 353.978542 
L 912.54218 435.323218 
L 926.780633 421.73343 
L 927.732639 340.801715 
z
" clip-path="url(#p1cd903eaa7)" style="fill: #324880"/>
    <path d="M 754.930765 342.283473 
L 770.552006 329.290711 
L 770.552006 329.290711 
L 754.930765 342.283473 
z
" clip-path="url(#p1cd903eaa7)" style="fill: #648fff"/>
    <path d="M 861.627239 338.781892 
L 876.377355 325.84399 
L 901.937996 333.288775 
L 887.323469 346.34532 
z
" clip-path="url(#p1cd903eaa7)" style="fill: #3f599f"/>
    <path d="M 729.901125 334.757054 
L 754.930765 342.283473 
L 754.930765 342.283473 
L 729.901125 334.757054 
z
" clip-path="url(#p1cd903eaa7)" style="fill: #324880"/>
    <path d="M 846.64166 351.926327 
L 847.078284 438.150776 
L 872.448115 446.089355 
L 872.474563 359.611257 
z
" clip-path="url(#p1cd903eaa7)" style="fill: #648fff"/>
    <path d="M 939.430593 361.68253 
L 953.764511 348.383751 
L 952.369354 429.553531 
L 938.267974 443.26696 
z
" clip-path="url(#p1cd903eaa7)" style="fill: #648fff"/>
    <path d="M 831.414935 365.282281 
L 832.130043 451.946712 
L 847.078284 438.150776 
L 846.64166 351.926327 
z
" clip-path="url(#p1cd903eaa7)" style="fill: #324880"/>
    <path d="M 913.256821 353.978542 
L 939.430593 361.68253 
L 938.267974 443.26696 
L 912.54218 435.323218 
z
" clip-path="url(#p1cd903eaa7)" style="fill: #324880"/>
    <path d="M 913.256821 353.978542 
L 927.732639 340.801715 
L 953.764511 348.383751 
L 939.430593 361.68253 
z
" clip-path="url(#p1cd903eaa7)" style="fill: #3f599f"/>
    <path d="M 857.385595 373.091664 
L 872.474563 359.611257 
L 872.448115 446.089355 
L 857.632732 460.011516 
z
" clip-path="url(#p1cd903eaa7)" style="fill: #648fff"/>
    <path d="M 883.410519 452.848268 
L 909.471303 461.018501 
L 924.057918 446.914926 
L 898.137116 438.874151 
z
" clip-path="url(#p1cd903eaa7)" style="fill: #577ddf"/>
    <path d="M 831.414935 365.282281 
L 857.385595 373.091664 
L 857.632732 460.011516 
L 832.130043 451.946712 
z
" clip-path="url(#p1cd903eaa7)" style="fill: #324880"/>
    <path d="M 898.54777 367.367674 
L 898.137116 438.874151 
L 924.057918 446.914926 
L 924.864649 375.19658 
z
" clip-path="url(#p1cd903eaa7)" style="fill: #648fff"/>
    <path d="M 883.599802 380.974282 
L 883.410519 452.848268 
L 898.137116 438.874151 
L 898.54777 367.367674 
z
" clip-path="url(#p1cd903eaa7)" style="fill: #324880"/>
    <path d="M 831.414935 365.282281 
L 846.64166 351.926327 
L 872.474563 359.611257 
L 857.385595 373.091664 
z
" clip-path="url(#p1cd903eaa7)" style="fill: #3f599f"/>
    <path d="M 910.060998 388.93117 
L 924.864649 375.19658 
L 924.057918 446.914926 
L 909.471303 461.018501 
z
" clip-path="url(#p1cd903eaa7)" style="fill: #648fff"/>
    <path d="M 883.599802 380.974282 
L 910.060998 388.93117 
L 909.471303 461.018501 
L 883.410519 452.848268 
z
" clip-path="url(#p1cd903eaa7)" style="fill: #324880"/>
    <path d="M 883.599802 380.974282 
L 898.54777 367.367674 
L 924.864649 375.19658 
L 910.060998 388.93117 
z
" clip-path="url(#p1cd903eaa7)" style="fill: #3f599f"/>
   </g>
   <g id="Poly3DCollection_5">
    <path d="M 709.473727 337.503936 
L 915.929469 399.922418 
L 1028.328178 294.627425 
L 830.29975 239.543764 
z
" clip-path="url(#p1cd903eaa7)" style="fill-opacity: 0.25"/>
   </g>
   <g id="Poly3DCollection_6">
    <path d="M 820.818725 260.420132 
L 835.177691 248.679817 
L 859.347103 255.436554 
L 845.108418 267.279394 
z
" clip-path="url(#p1cd903eaa7)" style="fill: #3f599f"/>
    <path d="M 835.177691 248.679817 
L 834.666648 178.578336 
L 859.180078 185.123249 
L 859.347103 255.436554 
z
" clip-path="url(#p1cd903eaa7)" style="fill: #324880"/>
    <path d="M 820.818725 260.420132 
L 820.09739 189.951111 
L 834.666648 178.578336 
L 835.177691 248.679817 
z
" clip-path="url(#p1cd903eaa7)" style="fill: #648fff"/>
    <path d="M 869.611494 274.198913 
L 883.727239 262.252201 
L 908.320866 269.12753 
L 894.330778 281.179488 
z
" clip-path="url(#p1cd903eaa7)" style="fill: #3f599f"/>
    <path d="M 845.108418 267.279394 
L 859.347103 255.436554 
L 859.180078 185.123249 
L 844.734548 196.596769 
z
" clip-path="url(#p1cd903eaa7)" style="fill: #324880"/>
    <path d="M 820.818725 260.420132 
L 845.108418 267.279394 
L 844.734548 196.596769 
L 820.09739 189.951111 
z
" clip-path="url(#p1cd903eaa7)" style="fill: #648fff"/>
    <path d="M 883.727239 262.252201 
L 883.937456 181.267124 
L 908.940215 187.896099 
L 908.320866 269.12753 
z
" clip-path="url(#p1cd903eaa7)" style="fill: #324880"/>
    <path d="M 820.09739 189.951111 
L 844.734548 196.596769 
L 859.180078 185.123249 
L 834.666648 178.578336 
z
" clip-path="url(#p1cd903eaa7)" style="fill: #577ddf"/>
    <path d="M 869.611494 274.198913 
L 869.588283 192.786379 
L 883.937456 181.267124 
L 883.727239 262.252201 
z
" clip-path="url(#p1cd903eaa7)" style="fill: #648fff"/>
    <path d="M 791.441094 284.440154 
L 806.241531 272.338878 
L 830.652378 279.303015 
L 815.973969 291.511589 
z
" clip-path="url(#p1cd903eaa7)" style="fill: #3f599f"/>
    <path d="M 894.330778 281.179488 
L 908.320866 269.12753 
L 908.940215 187.896099 
L 894.720932 199.518528 
z
" clip-path="url(#p1cd903eaa7)" style="fill: #324880"/>
    <path d="M 806.241531 272.338878 
L 805.096485 185.865505 
L 829.935725 192.565497 
L 830.652378 279.303015 
z
" clip-path="url(#p1cd903eaa7)" style="fill: #324880"/>
    <path d="M 869.611494 274.198913 
L 894.330778 281.179488 
L 894.720932 199.518528 
L 869.588283 192.786379 
z
" clip-path="url(#p1cd903eaa7)" style="fill: #648fff"/>
    <path d="M 791.441094 284.440154 
L 790.023409 197.508457 
L 805.096485 185.865505 
L 806.241531 272.338878 
z
" clip-path="url(#p1cd903eaa7)" style="fill: #648fff"/>
    <path d="M 840.725695 298.646106 
L 855.279318 286.328799 
L 880.125232 293.417055 
L 865.699211 305.844553 
z
" clip-path="url(#p1cd903eaa7)" style="fill: #3f599f"/>
    <path d="M 869.588283 192.786379 
L 894.720932 199.518528 
L 908.940215 187.896099 
L 883.937456 181.267124 
z
" clip-path="url(#p1cd903eaa7)" style="fill: #577ddf"/>
    <path d="M 815.973969 291.511589 
L 830.652378 279.303015 
L 829.935725 192.565497 
L 814.988982 204.313529 
z
" clip-path="url(#p1cd903eaa7)" style="fill: #324880"/>
    <path d="M 791.441094 284.440154 
L 815.973969 291.511589 
L 814.988982 204.313529 
L 790.023409 197.508457 
z
" clip-path="url(#p1cd903eaa7)" style="fill: #648fff"/>
    <path d="M 855.279318 286.328799 
L 854.957004 186.373046 
L 880.312996 193.153704 
L 880.125232 293.417055 
z
" clip-path="url(#p1cd903eaa7)" style="fill: #324880"/>
    <path d="M 840.725695 298.646106 
L 840.100202 198.15663 
L 854.957004 186.373046 
L 855.279318 286.328799 
z
" clip-path="url(#p1cd903eaa7)" style="fill: #648fff"/>
    <path d="M 790.023409 197.508457 
L 814.988982 204.313529 
L 829.935725 192.565497 
L 805.096485 185.865505 
z
" clip-path="url(#p1cd903eaa7)" style="fill: #577ddf"/>
    <path d="M 865.699211 305.844553 
L 880.125232 293.417055 
L 880.312996 193.153704 
L 865.589099 205.044888 
z
" clip-path="url(#p1cd903eaa7)" style="fill: #324880"/>
    <path d="M 956.006417 315.065091 
L 956.006417 315.065091 
L 981.758095 322.411751 
L 981.758095 322.411751 
z
" clip-path="url(#p1cd903eaa7)" style="fill: #324880"/>
    <path d="M 840.725695 298.646106 
L 865.699211 305.844553 
L 865.589099 205.044888 
L 840.100202 198.15663 
z
" clip-path="url(#p1cd903eaa7)" style="fill: #648fff"/>
    <path d="M 941.980727 327.832183 
L 941.980727 327.832183 
L 956.006417 315.065091 
L 956.006417 315.065091 
z
" clip-path="url(#p1cd903eaa7)" style="fill: #648fff"/>
    <path d="M 941.980727 327.832183 
L 956.006417 315.065091 
L 981.758095 322.411751 
L 967.871902 335.295138 
z
" clip-path="url(#p1cd903eaa7)" style="fill: #3f599f"/>
    <path d="M 941.980727 327.832183 
L 967.871902 335.295138 
L 981.758095 322.411751 
L 956.006417 315.065091 
z
" clip-path="url(#p1cd903eaa7)" style="fill: #577ddf"/>
    <path d="M 967.871902 335.295138 
L 981.758095 322.411751 
L 981.758095 322.411751 
L 967.871902 335.295138 
z
" clip-path="url(#p1cd903eaa7)" style="fill: #324880"/>
    <path d="M 840.100202 198.15663 
L 865.589099 205.044888 
L 880.312996 193.153704 
L 854.957004 186.373046 
z
" clip-path="url(#p1cd903eaa7)" style="fill: #577ddf"/>
    <path d="M 941.980727 327.832183 
L 967.871902 335.295138 
L 967.871902 335.295138 
L 941.980727 327.832183 
z
" clip-path="url(#p1cd903eaa7)" style="fill: #648fff"/>
    <path d="M 795.683598 336.767011 
L 795.239598 308.316104 
L 820.749898 315.774393 
L 821.045754 344.3119 
z
" clip-path="url(#p1cd903eaa7)" style="fill: #324880"/>
    <path d="M 780.190806 349.879173 
L 795.683598 336.767011 
L 821.045754 344.3119 
L 805.684444 357.545116 
z
" clip-path="url(#p1cd903eaa7)" style="fill: #3f599f"/>
    <path d="M 780.190806 349.879173 
L 779.651187 321.278024 
L 795.239598 308.316104 
L 795.683598 336.767011 
z
" clip-path="url(#p1cd903eaa7)" style="fill: #648fff"/>
    <path d="M 805.684444 357.545116 
L 821.045754 344.3119 
L 820.749898 315.774393 
L 805.294503 328.856693 
z
" clip-path="url(#p1cd903eaa7)" style="fill: #324880"/>
    <path d="M 779.651187 321.278024 
L 805.294503 328.856693 
L 820.749898 315.774393 
L 795.239598 308.316104 
z
" clip-path="url(#p1cd903eaa7)" style="fill: #577ddf"/>
    <path d="M 780.190806 349.879173 
L 805.684444 357.545116 
L 805.294503 328.856693 
L 779.651187 321.278024 
z
" clip-path="url(#p1cd903eaa7)" style="fill: #648fff"/>
   </g>
   <g id="text_32">
    <!-- Imaginary Amplitude (ρ) -->
    <g transform="translate(735.696563 51.6) scale(0.21 -0.21)">
     <defs>
      <path id="DejaVuSans-49" d="M 628 4666 
L 1259 4666 
L 1259 0 
L 628 0 
L 628 4666 
z
" transform="scale(0.015625)"/>
      <path id="DejaVuSans-67" d="M 2906 1791 
Q 2906 2416 2648 2759 
Q 2391 3103 1925 3103 
Q 1463 3103 1205 2759 
Q 947 2416 947 1791 
Q 947 1169 1205 825 
Q 1463 481 1925 481 
Q 2391 481 2648 825 
Q 2906 1169 2906 1791 
z
M 3481 434 
Q 3481 -459 3084 -895 
Q 2688 -1331 1869 -1331 
Q 1566 -1331 1297 -1286 
Q 1028 -1241 775 -1147 
L 775 -588 
Q 1028 -725 1275 -790 
Q 1522 -856 1778 -856 
Q 2344 -856 2625 -561 
Q 2906 -266 2906 331 
L 2906 616 
Q 2728 306 2450 153 
Q 2172 0 1784 0 
Q 1141 0 747 490 
Q 353 981 353 1791 
Q 353 2603 747 3093 
Q 1141 3584 1784 3584 
Q 2172 3584 2450 3431 
Q 2728 3278 2906 2969 
L 2906 3500 
L 3481 3500 
L 3481 434 
z
" transform="scale(0.015625)"/>
      <path id="DejaVuSans-6e" d="M 3513 2113 
L 3513 0 
L 2938 0 
L 2938 2094 
Q 2938 2591 2744 2837 
Q 2550 3084 2163 3084 
Q 1697 3084 1428 2787 
Q 1159 2491 1159 1978 
L 1159 0 
L 581 0 
L 581 3500 
L 1159 3500 
L 1159 2956 
Q 1366 3272 1645 3428 
Q 1925 3584 2291 3584 
Q 2894 3584 3203 3211 
Q 3513 2838 3513 2113 
z
" transform="scale(0.015625)"/>
      <path id="DejaVuSans-72" d="M 2631 2963 
Q 2534 3019 2420 3045 
Q 2306 3072 2169 3072 
Q 1681 3072 1420 2755 
Q 1159 2438 1159 1844 
L 1159 0 
L 581 0 
L 581 3500 
L 1159 3500 
L 1159 2956 
Q 1341 3275 1631 3429 
Q 1922 3584 2338 3584 
Q 2397 3584 2469 3576 
Q 2541 3569 2628 3553 
L 2631 2963 
z
" transform="scale(0.015625)"/>
      <path id="DejaVuSans-79" d="M 2059 -325 
Q 1816 -950 1584 -1140 
Q 1353 -1331 966 -1331 
L 506 -1331 
L 506 -850 
L 844 -850 
Q 1081 -850 1212 -737 
Q 1344 -625 1503 -206 
L 1606 56 
L 191 3500 
L 800 3500 
L 1894 763 
L 2988 3500 
L 3597 3500 
L 2059 -325 
z
" transform="scale(0.015625)"/>
     </defs>
     <use xlink:href="#DejaVuSans-49"/>
     <use xlink:href="#DejaVuSans-6d" x="29.492188"/>
     <use xlink:href="#DejaVuSans-61" x="126.904297"/>
     <use xlink:href="#DejaVuSans-67" x="188.183594"/>
     <use xlink:href="#DejaVuSans-69" x="251.660156"/>
     <use xlink:href="#DejaVuSans-6e" x="279.443359"/>
     <use xlink:href="#DejaVuSans-61" x="342.822266"/>
     <use xlink:href="#DejaVuSans-72" x="404.101562"/>
     <use xlink:href="#DejaVuSans-79" x="445.214844"/>
     <use xlink:href="#DejaVuSans-20" x="504.394531"/>
     <use xlink:href="#DejaVuSans-41" x="536.181641"/>
     <use xlink:href="#DejaVuSans-6d" x="604.589844"/>
     <use xlink:href="#DejaVuSans-70" x="702.001953"/>
     <use xlink:href="#DejaVuSans-6c" x="765.478516"/>
     <use xlink:href="#DejaVuSans-69" x="793.261719"/>
     <use xlink:href="#DejaVuSans-74" x="821.044922"/>
     <use xlink:href="#DejaVuSans-75" x="860.253906"/>
     <use xlink:href="#DejaVuSans-64" x="923.632812"/>
     <use xlink:href="#DejaVuSans-65" x="987.109375"/>
     <use xlink:href="#DejaVuSans-20" x="1048.632812"/>
     <use xlink:href="#DejaVuSans-28" x="1080.419922"/>
     <use xlink:href="#DejaVuSans-3c1" x="1119.433594"/>
     <use xlink:href="#DejaVuSans-29" x="1182.910156"/>
    </g>
   </g>
  </g>
 </g>
 <defs>
  <clipPath id="p7e1959f4d7">
   <rect x="28.8" y="57.6" width="518.4" height="518.4"/>
  </clipPath>
  <clipPath id="p1cd903eaa7">
   <rect x="604.8" y="57.6" width="518.4" height="518.4"/>
  </clipPath>
 </defs>
</svg>
