<?xml version="1.0" encoding="utf-8" standalone="no"?>
<!DOCTYPE svg PUBLIC "-//W3C//DTD SVG 1.1//EN"
  "http://www.w3.org/Graphics/SVG/1.1/DTD/svg11.dtd">
<svg xmlns:xlink="http://www.w3.org/1999/xlink" width="1152pt" height="576pt" viewBox="0 0 1152 576" xmlns="http://www.w3.org/2000/svg" version="1.1">
 <metadata>
  <rdf:RDF xmlns:dc="http://purl.org/dc/elements/1.1/" xmlns:cc="http://creativecommons.org/ns#" xmlns:rdf="http://www.w3.org/1999/02/22-rdf-syntax-ns#">
   <cc:Work>
    <dc:type rdf:resource="http://purl.org/dc/dcmitype/StillImage"/>
    <dc:date>2024-11-04T20:32:47.599781</dc:date>
    <dc:format>image/svg+xml</dc:format>
    <dc:creator>
     <cc:Agent>
      <dc:title>Matplotlib v3.9.2, https://matplotlib.org/</dc:title>
     </cc:Agent>
    </dc:creator>
   </cc:Work>
  </rdf:RDF>
 </metadata>
 <defs>
  <style type="text/css">*{stroke-linejoin: round; stroke-linecap: butt}</style>
 </defs>
 <g id="figure_1">
  <g id="patch_1">
   <path d="M 0 576 
L 1152 576 
L 1152 0 
L 0 0 
z
" style="fill: #ffffff"/>
  </g>
  <g id="patch_2">
   <path d="M 28.8 576 
L 547.2 576 
L 547.2 57.6 
L 28.8 57.6 
z
" style="fill: #ffffff"/>
  </g>
  <g id="pane3d_1">
   <g id="patch_3">
    <path d="M 130.07018 436.456468 
L 253.494133 330.550231 
L 251.743197 126.70673 
L 122.643358 223.613571 
" style="fill: #f2f2f2; opacity: 0.5; stroke: #f2f2f2; stroke-linejoin: miter"/>
   </g>
  </g>
  <g id="pane3d_2">
   <g id="patch_4">
    <path d="M 253.494133 330.550231 
L 455.554898 390.069341 
L 462.583588 181.103065 
L 251.743197 126.70673 
" style="fill: #e6e6e6; opacity: 0.5; stroke: #e6e6e6; stroke-linejoin: miter"/>
   </g>
  </g>
  <g id="pane3d_3">
   <g id="patch_5">
    <path d="M 130.07018 436.456468 
L 340.912731 504.076731 
L 455.554898 390.069341 
L 253.494133 330.550231 
" style="fill: #ececec; opacity: 0.5; stroke: #ececec; stroke-linejoin: miter"/>
   </g>
  </g>
  <g id="grid3d_1">
   <g id="Line3DCollection_1">
    <path d="M 148.107564 442.241318 
L 270.817434 335.65299 
L 269.793879 131.363764 
" style="fill: none; stroke: #b0b0b0; stroke-width: 0.8"/>
    <path d="M 204.73198 460.40159 
L 325.154862 351.658648 
L 326.443642 145.979273 
" style="fill: none; stroke: #b0b0b0; stroke-width: 0.8"/>
    <path d="M 262.543747 478.942662 
L 380.560935 367.979086 
L 384.255639 160.894634 
" style="fill: none; stroke: #b0b0b0; stroke-width: 0.8"/>
    <path d="M 321.580608 497.876639 
L 437.067491 384.623682 
L 443.266006 176.119173 
" style="fill: none; stroke: #b0b0b0; stroke-width: 0.8"/>
   </g>
  </g>
  <g id="grid3d_2">
   <g id="Line3DCollection_2">
    <path d="M 134.777648 214.505149 
L 141.642324 426.526772 
L 351.684419 493.364686 
" style="fill: none; stroke: #b0b0b0; stroke-width: 0.8"/>
    <path d="M 171.455878 186.973191 
L 176.657452 396.481386 
L 384.248591 460.980823 
" style="fill: none; stroke: #b0b0b0; stroke-width: 0.8"/>
    <path d="M 206.831169 160.419264 
L 210.480196 367.459145 
L 415.662622 429.740732 
" style="fill: none; stroke: #b0b0b0; stroke-width: 0.8"/>
    <path d="M 240.971738 134.792162 
L 243.170446 339.408664 
L 445.986389 399.584868 
" style="fill: none; stroke: #b0b0b0; stroke-width: 0.8"/>
   </g>
  </g>
  <g id="grid3d_3">
   <g id="Line3DCollection_3">
    <path d="M 456.026603 376.045328 
L 253.376457 316.850433 
L 129.572312 422.188227 
" style="fill: none; stroke: #b0b0b0; stroke-width: 0.8"/>
    <path d="M 456.75833 354.290746 
L 253.193961 295.604368 
L 128.799842 400.050256 
" style="fill: none; stroke: #b0b0b0; stroke-width: 0.8"/>
    <path d="M 457.496737 332.337543 
L 253.009859 274.171204 
L 128.020124 377.704574 
" style="fill: none; stroke: #b0b0b0; stroke-width: 0.8"/>
    <path d="M 458.241917 310.182987 
L 252.824128 252.548457 
L 127.233056 355.148244 
" style="fill: none; stroke: #b0b0b0; stroke-width: 0.8"/>
    <path d="M 458.993963 287.824294 
L 252.636747 230.733602 
L 126.438533 332.378273 
" style="fill: none; stroke: #b0b0b0; stroke-width: 0.8"/>
    <path d="M 459.752971 265.258631 
L 252.447694 208.724066 
L 125.636449 309.391612 
" style="fill: none; stroke: #b0b0b0; stroke-width: 0.8"/>
    <path d="M 460.519038 242.483109 
L 252.256946 186.517233 
L 124.826696 286.185152 
" style="fill: none; stroke: #b0b0b0; stroke-width: 0.8"/>
    <path d="M 461.292262 219.494788 
L 252.06448 164.110436 
L 124.009163 262.755726 
" style="fill: none; stroke: #b0b0b0; stroke-width: 0.8"/>
    <path d="M 462.072745 196.290672 
L 251.870273 141.500964 
L 123.183736 239.100104 
" style="fill: none; stroke: #b0b0b0; stroke-width: 0.8"/>
   </g>
  </g>
  <g id="axis3d_1">
   <g id="line2d_1">
    <path d="M 130.07018 436.456468 
L 340.912731 504.076731 
" style="fill: none; stroke: #000000; stroke-width: 0.8; stroke-linecap: square"/>
   </g>
   <g id="xtick_1">
    <g id="line2d_2">
     <path d="M 149.15236 441.333787 
L 146.014717 444.059209 
" style="fill: none; stroke: #000000; stroke-width: 0.8; stroke-linecap: square"/>
    </g>
    <g id="text_1">
     <!-- 00 -->
     <g transform="translate(120.823877 485.959845) rotate(-45) scale(0.21 -0.21)">
      <defs>
       <path id="DejaVuSans-30" d="M 2034 4250 
Q 1547 4250 1301 3770 
Q 1056 3291 1056 2328 
Q 1056 1369 1301 889 
Q 1547 409 2034 409 
Q 2525 409 2770 889 
Q 3016 1369 3016 2328 
Q 3016 3291 2770 3770 
Q 2525 4250 2034 4250 
z
M 2034 4750 
Q 2819 4750 3233 4129 
Q 3647 3509 3647 2328 
Q 3647 1150 3233 529 
Q 2819 -91 2034 -91 
Q 1250 -91 836 529 
Q 422 1150 422 2328 
Q 422 3509 836 4129 
Q 1250 4750 2034 4750 
z
" transform="scale(0.015625)"/>
      </defs>
      <use xlink:href="#DejaVuSans-30"/>
      <use xlink:href="#DejaVuSans-30" x="63.623047"/>
     </g>
    </g>
   </g>
   <g id="xtick_2">
    <g id="line2d_3">
     <path d="M 205.757946 459.475133 
L 202.676818 462.257419 
" style="fill: none; stroke: #000000; stroke-width: 0.8; stroke-linecap: square"/>
    </g>
    <g id="text_2">
     <!-- 01 -->
     <g transform="translate(177.445975 504.27764) rotate(-45) scale(0.21 -0.21)">
      <defs>
       <path id="DejaVuSans-31" d="M 794 531 
L 1825 531 
L 1825 4091 
L 703 3866 
L 703 4441 
L 1819 4666 
L 2450 4666 
L 2450 531 
L 3481 531 
L 3481 0 
L 794 0 
L 794 531 
z
" transform="scale(0.015625)"/>
      </defs>
      <use xlink:href="#DejaVuSans-30"/>
      <use xlink:href="#DejaVuSans-31" x="63.623047"/>
     </g>
    </g>
   </g>
   <g id="xtick_3">
    <g id="line2d_4">
     <path d="M 263.54986 477.996682 
L 260.528321 480.837631 
" style="fill: none; stroke: #000000; stroke-width: 0.8; stroke-linecap: square"/>
    </g>
    <g id="text_3">
     <!-- 10 -->
     <g transform="translate(235.256492 522.9799) rotate(-45) scale(0.21 -0.21)">
      <use xlink:href="#DejaVuSans-31"/>
      <use xlink:href="#DejaVuSans-30" x="63.623047"/>
     </g>
    </g>
   </g>
   <g id="xtick_4">
    <g id="line2d_5">
     <path d="M 322.565792 496.910512 
L 319.607072 499.811999 
" style="fill: none; stroke: #000000; stroke-width: 0.8; stroke-linecap: square"/>
    </g>
    <g id="text_4">
     <!-- 11 -->
     <g transform="translate(294.293241 542.078858) rotate(-45) scale(0.21 -0.21)">
      <use xlink:href="#DejaVuSans-31"/>
      <use xlink:href="#DejaVuSans-31" x="63.623047"/>
     </g>
    </g>
   </g>
  </g>
  <g id="axis3d_2">
   <g id="line2d_6">
    <path d="M 455.554898 390.069341 
L 340.912731 504.076731 
" style="fill: none; stroke: #000000; stroke-width: 0.8; stroke-linecap: square"/>
   </g>
   <g id="xtick_5">
    <g id="line2d_7">
     <path d="M 349.939872 492.809551 
L 355.176743 494.475986 
" style="fill: none; stroke: #000000; stroke-width: 0.8; stroke-linecap: square"/>
    </g>
    <g id="text_5">
     <!-- 00 -->
     <g transform="translate(362.536948 505.408703) rotate(-337.5) scale(0.21 -0.21)">
      <use xlink:href="#DejaVuSans-30"/>
      <use xlink:href="#DejaVuSans-30" x="63.623047"/>
     </g>
    </g>
   </g>
   <g id="xtick_6">
    <g id="line2d_8">
     <path d="M 382.525541 460.445465 
L 387.697822 462.052514 
" style="fill: none; stroke: #000000; stroke-width: 0.8; stroke-linecap: square"/>
    </g>
    <g id="text_6">
     <!-- 01 -->
     <g transform="translate(394.927992 472.820772) rotate(-337.5) scale(0.21 -0.21)">
      <use xlink:href="#DejaVuSans-30"/>
      <use xlink:href="#DejaVuSans-31" x="63.623047"/>
     </g>
    </g>
   </g>
   <g id="xtick_7">
    <g id="line2d_9">
     <path d="M 413.960652 429.224112 
L 419.0696 430.774895 
" style="fill: none; stroke: #000000; stroke-width: 0.8; stroke-linecap: square"/>
    </g>
    <g id="text_7">
     <!-- 10 -->
     <g transform="translate(426.175291 441.383538) rotate(-337.5) scale(0.21 -0.21)">
      <use xlink:href="#DejaVuSans-31"/>
      <use xlink:href="#DejaVuSans-30" x="63.623047"/>
     </g>
    </g>
   </g>
   <g id="xtick_8">
    <g id="line2d_10">
     <path d="M 444.305087 399.08602 
L 449.351944 400.58344 
" style="fill: none; stroke: #000000; stroke-width: 0.8; stroke-linecap: square"/>
    </g>
    <g id="text_8">
     <!-- 11 -->
     <g transform="translate(456.338373 411.037112) rotate(-337.5) scale(0.21 -0.21)">
      <use xlink:href="#DejaVuSans-31"/>
      <use xlink:href="#DejaVuSans-31" x="63.623047"/>
     </g>
    </g>
   </g>
  </g>
  <g id="axis3d_3">
   <g id="line2d_11">
    <path d="M 455.554898 390.069341 
L 462.583588 181.103065 
" style="fill: none; stroke: #000000; stroke-width: 0.8; stroke-linecap: square"/>
   </g>
   <g id="xtick_9">
    <g id="line2d_12">
     <path d="M 454.346831 375.55466 
L 459.389087 377.027522 
" style="fill: none; stroke: #000000; stroke-width: 0.8; stroke-linecap: square"/>
    </g>
    <g id="text_9">
     <!-- 0.05 -->
     <g transform="translate(469.544965 369.767222) scale(0.21 -0.21)">
      <defs>
       <path id="DejaVuSans-2e" d="M 684 794 
L 1344 794 
L 1344 0 
L 684 0 
L 684 794 
z
" transform="scale(0.015625)"/>
       <path id="DejaVuSans-35" d="M 691 4666 
L 3169 4666 
L 3169 4134 
L 1269 4134 
L 1269 2991 
Q 1406 3038 1543 3061 
Q 1681 3084 1819 3084 
Q 2600 3084 3056 2656 
Q 3513 2228 3513 1497 
Q 3513 744 3044 326 
Q 2575 -91 1722 -91 
Q 1428 -91 1123 -41 
Q 819 9 494 109 
L 494 744 
Q 775 591 1075 516 
Q 1375 441 1709 441 
Q 2250 441 2565 725 
Q 2881 1009 2881 1497 
Q 2881 1984 2565 2268 
Q 2250 2553 1709 2553 
Q 1456 2553 1204 2497 
Q 953 2441 691 2322 
L 691 4666 
z
" transform="scale(0.015625)"/>
      </defs>
      <use xlink:href="#DejaVuSans-30"/>
      <use xlink:href="#DejaVuSans-2e" x="63.623047"/>
      <use xlink:href="#DejaVuSans-30" x="95.410156"/>
      <use xlink:href="#DejaVuSans-35" x="159.033203"/>
     </g>
    </g>
   </g>
   <g id="xtick_10">
    <g id="line2d_13">
     <path d="M 455.070712 353.804216 
L 460.136531 355.264661 
" style="fill: none; stroke: #000000; stroke-width: 0.8; stroke-linecap: square"/>
    </g>
    <g id="text_10">
     <!-- 0.10 -->
     <g transform="translate(470.337219 348.028762) scale(0.21 -0.21)">
      <use xlink:href="#DejaVuSans-30"/>
      <use xlink:href="#DejaVuSans-2e" x="63.623047"/>
      <use xlink:href="#DejaVuSans-31" x="95.410156"/>
      <use xlink:href="#DejaVuSans-30" x="159.033203"/>
     </g>
    </g>
   </g>
   <g id="xtick_11">
    <g id="line2d_14">
     <path d="M 455.801201 331.855247 
L 460.890804 333.302986 
" style="fill: none; stroke: #000000; stroke-width: 0.8; stroke-linecap: square"/>
    </g>
    <g id="text_11">
     <!-- 0.15 -->
     <g transform="translate(471.136699 326.092055) scale(0.21 -0.21)">
      <use xlink:href="#DejaVuSans-30"/>
      <use xlink:href="#DejaVuSans-2e" x="63.623047"/>
      <use xlink:href="#DejaVuSans-31" x="95.410156"/>
      <use xlink:href="#DejaVuSans-35" x="159.033203"/>
     </g>
    </g>
   </g>
   <g id="xtick_12">
    <g id="line2d_15">
     <path d="M 456.538387 309.705023 
L 461.651999 311.139761 
" style="fill: none; stroke: #000000; stroke-width: 0.8; stroke-linecap: square"/>
    </g>
    <g id="text_12">
     <!-- 0.20 -->
     <g transform="translate(471.943502 303.954378) scale(0.21 -0.21)">
      <defs>
       <path id="DejaVuSans-32" d="M 1228 531 
L 3431 531 
L 3431 0 
L 469 0 
L 469 531 
Q 828 903 1448 1529 
Q 2069 2156 2228 2338 
Q 2531 2678 2651 2914 
Q 2772 3150 2772 3378 
Q 2772 3750 2511 3984 
Q 2250 4219 1831 4219 
Q 1534 4219 1204 4116 
Q 875 4013 500 3803 
L 500 4441 
Q 881 4594 1212 4672 
Q 1544 4750 1819 4750 
Q 2544 4750 2975 4387 
Q 3406 4025 3406 3419 
Q 3406 3131 3298 2873 
Q 3191 2616 2906 2266 
Q 2828 2175 2409 1742 
Q 1991 1309 1228 531 
z
" transform="scale(0.015625)"/>
      </defs>
      <use xlink:href="#DejaVuSans-30"/>
      <use xlink:href="#DejaVuSans-2e" x="63.623047"/>
      <use xlink:href="#DejaVuSans-32" x="95.410156"/>
      <use xlink:href="#DejaVuSans-30" x="159.033203"/>
     </g>
    </g>
   </g>
   <g id="xtick_13">
    <g id="line2d_16">
     <path d="M 457.282364 287.350764 
L 462.420212 288.772198 
" style="fill: none; stroke: #000000; stroke-width: 0.8; stroke-linecap: square"/>
    </g>
    <g id="text_13">
     <!-- 0.25 -->
     <g transform="translate(472.757731 281.612955) scale(0.21 -0.21)">
      <use xlink:href="#DejaVuSans-30"/>
      <use xlink:href="#DejaVuSans-2e" x="63.623047"/>
      <use xlink:href="#DejaVuSans-32" x="95.410156"/>
      <use xlink:href="#DejaVuSans-35" x="159.033203"/>
     </g>
    </g>
   </g>
   <g id="xtick_14">
    <g id="line2d_17">
     <path d="M 458.033226 264.789636 
L 463.19554 266.197459 
" style="fill: none; stroke: #000000; stroke-width: 0.8; stroke-linecap: square"/>
    </g>
    <g id="text_14">
     <!-- 0.30 -->
     <g transform="translate(473.579488 259.064962) scale(0.21 -0.21)">
      <defs>
       <path id="DejaVuSans-33" d="M 2597 2516 
Q 3050 2419 3304 2112 
Q 3559 1806 3559 1356 
Q 3559 666 3084 287 
Q 2609 -91 1734 -91 
Q 1441 -91 1130 -33 
Q 819 25 488 141 
L 488 750 
Q 750 597 1062 519 
Q 1375 441 1716 441 
Q 2309 441 2620 675 
Q 2931 909 2931 1356 
Q 2931 1769 2642 2001 
Q 2353 2234 1838 2234 
L 1294 2234 
L 1294 2753 
L 1863 2753 
Q 2328 2753 2575 2939 
Q 2822 3125 2822 3475 
Q 2822 3834 2567 4026 
Q 2313 4219 1838 4219 
Q 1578 4219 1281 4162 
Q 984 4106 628 3988 
L 628 4550 
Q 988 4650 1302 4700 
Q 1616 4750 1894 4750 
Q 2613 4750 3031 4423 
Q 3450 4097 3450 3541 
Q 3450 3153 3228 2886 
Q 3006 2619 2597 2516 
z
" transform="scale(0.015625)"/>
      </defs>
      <use xlink:href="#DejaVuSans-30"/>
      <use xlink:href="#DejaVuSans-2e" x="63.623047"/>
      <use xlink:href="#DejaVuSans-33" x="95.410156"/>
      <use xlink:href="#DejaVuSans-30" x="159.033203"/>
     </g>
    </g>
   </g>
   <g id="xtick_15">
    <g id="line2d_18">
     <path d="M 458.791069 242.018755 
L 463.978083 243.412652 
" style="fill: none; stroke: #000000; stroke-width: 0.8; stroke-linecap: square"/>
    </g>
    <g id="text_15">
     <!-- 0.35 -->
     <g transform="translate(474.408879 236.307519) scale(0.21 -0.21)">
      <use xlink:href="#DejaVuSans-30"/>
      <use xlink:href="#DejaVuSans-2e" x="63.623047"/>
      <use xlink:href="#DejaVuSans-33" x="95.410156"/>
      <use xlink:href="#DejaVuSans-35" x="159.033203"/>
     </g>
    </g>
   </g>
   <g id="xtick_16">
    <g id="line2d_19">
     <path d="M 459.555991 219.035183 
L 464.767942 220.41483 
" style="fill: none; stroke: #000000; stroke-width: 0.8; stroke-linecap: square"/>
    </g>
    <g id="text_16">
     <!-- 0.40 -->
     <g transform="translate(475.24601 213.337695) scale(0.21 -0.21)">
      <defs>
       <path id="DejaVuSans-34" d="M 2419 4116 
L 825 1625 
L 2419 1625 
L 2419 4116 
z
M 2253 4666 
L 3047 4666 
L 3047 1625 
L 3713 1625 
L 3713 1100 
L 3047 1100 
L 3047 0 
L 2419 0 
L 2419 1100 
L 313 1100 
L 313 1709 
L 2253 4666 
z
" transform="scale(0.015625)"/>
      </defs>
      <use xlink:href="#DejaVuSans-30"/>
      <use xlink:href="#DejaVuSans-2e" x="63.623047"/>
      <use xlink:href="#DejaVuSans-34" x="95.410156"/>
      <use xlink:href="#DejaVuSans-30" x="159.033203"/>
     </g>
    </g>
   </g>
   <g id="xtick_17">
    <g id="line2d_20">
     <path d="M 460.32809 195.835924 
L 465.56522 197.200993 
" style="fill: none; stroke: #000000; stroke-width: 0.8; stroke-linecap: square"/>
    </g>
    <g id="text_17">
     <!-- 0.45 -->
     <g transform="translate(476.09099 190.152503) scale(0.21 -0.21)">
      <use xlink:href="#DejaVuSans-30"/>
      <use xlink:href="#DejaVuSans-2e" x="63.623047"/>
      <use xlink:href="#DejaVuSans-34" x="95.410156"/>
      <use xlink:href="#DejaVuSans-35" x="159.033203"/>
     </g>
    </g>
   </g>
  </g>
  <g id="axes_1">
   <g id="Poly3DCollection_1">
    <path d="M 255.139052 341.06536 
L 254.997139 323.899572 
L 281.980159 331.813304 
L 282.026584 349.033831 
z
" clip-path="url(#pb53196c5d5)" style="fill: #324880"/>
    <path d="M 239.113973 354.916151 
L 238.913337 337.655391 
L 254.997139 323.899572 
L 255.139052 341.06536 
z
" clip-path="url(#pb53196c5d5)" style="fill: #648fff"/>
    <path d="M 239.113973 354.916151 
L 255.139052 341.06536 
L 282.026584 349.033831 
L 266.150346 363.019368 
z
" clip-path="url(#pb53196c5d5)" style="fill: #3f599f"/>
    <path d="M 238.913337 337.655391 
L 266.046258 345.703427 
L 281.980159 331.813304 
L 254.997139 323.899572 
z
" clip-path="url(#pb53196c5d5)" style="fill: #577ddf"/>
    <path d="M 266.150346 363.019368 
L 282.026584 349.033831 
L 281.980159 331.813304 
L 266.046258 345.703427 
z
" clip-path="url(#pb53196c5d5)" style="fill: #324880"/>
    <path d="M 239.113973 354.916151 
L 266.150346 363.019368 
L 266.046258 345.703427 
L 238.913337 337.655391 
z
" clip-path="url(#pb53196c5d5)" style="fill: #648fff"/>
    <path d="M 309.175219 357.079684 
L 309.267001 325.948489 
L 336.85945 333.972856 
L 336.58878 365.204051 
z
" clip-path="url(#pb53196c5d5)" style="fill: #324880"/>
    <path d="M 293.451496 371.201942 
L 309.175219 357.079684 
L 336.58878 365.204051 
L 321.021329 379.465045 
z
" clip-path="url(#pb53196c5d5)" style="fill: #3f599f"/>
    <path d="M 293.451496 371.201942 
L 293.441345 339.897246 
L 309.267001 325.948489 
L 309.175219 357.079684 
z
" clip-path="url(#pb53196c5d5)" style="fill: #648fff"/>
    <path d="M 321.021329 379.465045 
L 336.58878 365.204051 
L 336.85945 333.972856 
L 321.192122 348.059542 
z
" clip-path="url(#pb53196c5d5)" style="fill: #324880"/>
    <path d="M 293.441345 339.897246 
L 321.192122 348.059542 
L 336.85945 333.972856 
L 309.267001 325.948489 
z
" clip-path="url(#pb53196c5d5)" style="fill: #577ddf"/>
    <path d="M 206.242448 383.327656 
L 222.817424 369.001579 
L 250.003839 377.242988 
L 233.580101 391.710823 
z
" clip-path="url(#pb53196c5d5)" style="fill: #3f599f"/>
    <path d="M 293.451496 371.201942 
L 321.021329 379.465045 
L 321.192122 348.059542 
L 293.441345 339.897246 
z
" clip-path="url(#pb53196c5d5)" style="fill: #648fff"/>
    <path d="M 364.271163 373.408087 
L 364.744092 340.704046 
L 392.893434 348.88353 
L 392.226341 381.692969 
z
" clip-path="url(#pb53196c5d5)" style="fill: #324880"/>
    <path d="M 348.863833 387.809872 
L 364.271163 373.408087 
L 392.226341 381.692969 
L 376.983072 396.23764 
z
" clip-path="url(#pb53196c5d5)" style="fill: #3f599f"/>
    <path d="M 348.863833 387.809872 
L 349.234736 354.922967 
L 364.744092 340.704046 
L 364.271163 373.408087 
z
" clip-path="url(#pb53196c5d5)" style="fill: #648fff"/>
    <path d="M 222.817424 369.001579 
L 221.664525 292.433146 
L 249.28154 300.424517 
L 250.003839 377.242988 
z
" clip-path="url(#pb53196c5d5)" style="fill: #324880"/>
    <path d="M 206.242448 383.327656 
L 204.812529 306.325385 
L 221.664525 292.433146 
L 222.817424 369.001579 
z
" clip-path="url(#pb53196c5d5)" style="fill: #648fff"/>
    <path d="M 376.983072 396.23764 
L 392.226341 381.692969 
L 392.893434 348.88353 
L 377.550447 363.244497 
z
" clip-path="url(#pb53196c5d5)" style="fill: #324880"/>
    <path d="M 420.458368 390.0599 
L 420.655833 382.546772 
L 449.214929 390.972895 
L 448.971376 398.510102 
z
" clip-path="url(#pb53196c5d5)" style="fill: #324880"/>
    <path d="M 349.234736 354.922967 
L 377.550447 363.244497 
L 392.893434 348.88353 
L 364.744092 340.704046 
z
" clip-path="url(#pb53196c5d5)" style="fill: #577ddf"/>
    <path d="M 261.1901 400.177506 
L 277.458777 385.565798 
L 305.186235 393.971222 
L 289.076535 408.728958 
z
" clip-path="url(#pb53196c5d5)" style="fill: #3f599f"/>
    <path d="M 348.863833 387.809872 
L 376.983072 396.23764 
L 377.550447 363.244497 
L 349.234736 354.922967 
z
" clip-path="url(#pb53196c5d5)" style="fill: #648fff"/>
    <path d="M 233.580101 391.710823 
L 250.003839 377.242988 
L 249.28154 300.424517 
L 232.585591 314.456442 
z
" clip-path="url(#pb53196c5d5)" style="fill: #324880"/>
    <path d="M 405.383193 404.749593 
L 405.558435 397.19469 
L 420.655833 382.546772 
L 420.458368 390.0599 
z
" clip-path="url(#pb53196c5d5)" style="fill: #648fff"/>
    <path d="M 206.242448 383.327656 
L 233.580101 391.710823 
L 232.585591 314.456442 
L 204.812529 306.325385 
z
" clip-path="url(#pb53196c5d5)" style="fill: #648fff"/>
    <path d="M 405.383193 404.749593 
L 420.458368 390.0599 
L 448.971376 398.510102 
L 434.068426 413.346998 
z
" clip-path="url(#pb53196c5d5)" style="fill: #3f599f"/>
    <path d="M 405.558435 397.19469 
L 434.29032 405.767831 
L 449.214929 390.972895 
L 420.655833 382.546772 
z
" clip-path="url(#pb53196c5d5)" style="fill: #577ddf"/>
    <path d="M 189.381849 397.900604 
L 188.837679 373.34945 
L 216.467366 381.798848 
L 216.871931 406.429218 
z
" clip-path="url(#pb53196c5d5)" style="fill: #324880"/>
    <path d="M 434.068426 413.346998 
L 448.971376 398.510102 
L 449.214929 390.972895 
L 434.29032 405.767831 
z
" clip-path="url(#pb53196c5d5)" style="fill: #324880"/>
    <path d="M 204.812529 306.325385 
L 232.585591 314.456442 
L 249.28154 300.424517 
L 221.664525 292.433146 
z
" clip-path="url(#pb53196c5d5)" style="fill: #577ddf"/>
    <path d="M 172.22818 412.726857 
L 189.381849 397.900604 
L 216.871931 406.429218 
L 199.871876 421.404736 
z
" clip-path="url(#pb53196c5d5)" style="fill: #3f599f"/>
    <path d="M 172.22818 412.726857 
L 171.590108 388.038273 
L 188.837679 373.34945 
L 189.381849 397.900604 
z
" clip-path="url(#pb53196c5d5)" style="fill: #648fff"/>
    <path d="M 405.383193 404.749593 
L 434.068426 413.346998 
L 434.29032 405.767831 
L 405.558435 397.19469 
z
" clip-path="url(#pb53196c5d5)" style="fill: #648fff"/>
    <path d="M 317.243578 417.36646 
L 333.190291 402.460494 
L 361.475106 411.034877 
L 345.695486 426.091316 
z
" clip-path="url(#pb53196c5d5)" style="fill: #3f599f"/>
    <path d="M 277.458777 385.565798 
L 276.943554 245.277507 
L 305.486702 253.214194 
L 305.186235 393.971222 
z
" clip-path="url(#pb53196c5d5)" style="fill: #324880"/>
    <path d="M 261.1901 400.177506 
L 260.188359 259.075863 
L 276.943554 245.277507 
L 277.458777 385.565798 
z
" clip-path="url(#pb53196c5d5)" style="fill: #648fff"/>
    <path d="M 199.871876 421.404736 
L 216.871931 406.429218 
L 216.467366 381.798848 
L 199.374962 396.636323 
z
" clip-path="url(#pb53196c5d5)" style="fill: #324880"/>
    <path d="M 171.590108 388.038273 
L 199.374962 396.636323 
L 216.467366 381.798848 
L 188.837679 373.34945 
z
" clip-path="url(#pb53196c5d5)" style="fill: #577ddf"/>
    <path d="M 172.22818 412.726857 
L 199.871876 421.404736 
L 199.374962 396.636323 
L 171.590108 388.038273 
z
" clip-path="url(#pb53196c5d5)" style="fill: #648fff"/>
    <path d="M 289.076535 408.728958 
L 305.186235 393.971222 
L 305.486702 253.214194 
L 288.899993 267.154549 
z
" clip-path="url(#pb53196c5d5)" style="fill: #324880"/>
    <path d="M 227.795802 430.170585 
L 244.638261 415.043535 
L 272.685024 423.744856 
L 256.004241 439.025748 
z
" clip-path="url(#pb53196c5d5)" style="fill: #3f599f"/>
    <path d="M 261.1901 400.177506 
L 289.076535 408.728958 
L 288.899993 267.154549 
L 260.188359 259.075863 
z
" clip-path="url(#pb53196c5d5)" style="fill: #648fff"/>
    <path d="M 390.044921 419.695656 
L 390.711816 386.409806 
L 419.777901 395.050262 
L 418.904068 428.444144 
z
" clip-path="url(#pb53196c5d5)" style="fill: #324880"/>
    <path d="M 374.436604 434.904859 
L 390.044921 419.695656 
L 418.904068 428.444144 
L 403.471362 443.808448 
z
" clip-path="url(#pb53196c5d5)" style="fill: #3f599f"/>
    <path d="M 333.190291 402.460494 
L 334.373839 254.897891 
L 363.545996 262.976663 
L 361.475106 411.034877 
z
" clip-path="url(#pb53196c5d5)" style="fill: #324880"/>
    <path d="M 374.436604 434.904859 
L 374.998915 401.431589 
L 390.711816 386.409806 
L 390.044921 419.695656 
z
" clip-path="url(#pb53196c5d5)" style="fill: #648fff"/>
    <path d="M 317.243578 417.36646 
L 317.939049 268.943884 
L 334.373839 254.897891 
L 333.190291 402.460494 
z
" clip-path="url(#pb53196c5d5)" style="fill: #648fff"/>
    <path d="M 137.010525 443.166169 
L 154.773732 427.81308 
L 182.572219 436.644177 
L 164.96497 452.154579 
z
" clip-path="url(#pb53196c5d5)" style="fill: #3f599f"/>
    <path d="M 403.471362 443.808448 
L 418.904068 428.444144 
L 419.777901 395.050262 
L 404.243167 410.226322 
z
" clip-path="url(#pb53196c5d5)" style="fill: #324880"/>
    <path d="M 374.998915 401.431589 
L 404.243167 410.226322 
L 419.777901 395.050262 
L 390.711816 386.409806 
z
" clip-path="url(#pb53196c5d5)" style="fill: #577ddf"/>
    <path d="M 284.501564 447.971597 
L 301.016489 432.534503 
L 329.637014 441.413829 
L 313.292231 457.009532 
z
" clip-path="url(#pb53196c5d5)" style="fill: #3f599f"/>
    <path d="M 374.436604 434.904859 
L 403.471362 443.808448 
L 404.243167 410.226322 
L 374.998915 401.431589 
z
" clip-path="url(#pb53196c5d5)" style="fill: #648fff"/>
    <path d="M 345.695486 426.091316 
L 361.475106 411.034877 
L 363.545996 262.976663 
L 347.289024 277.168898 
z
" clip-path="url(#pb53196c5d5)" style="fill: #324880"/>
    <path d="M 154.773732 427.81308 
L 152.591636 354.126121 
L 180.813646 362.714602 
L 182.572219 436.644177 
z
" clip-path="url(#pb53196c5d5)" style="fill: #324880"/>
    <path d="M 260.188359 259.075863 
L 288.899993 267.154549 
L 305.486702 253.214194 
L 276.943554 245.277507 
z
" clip-path="url(#pb53196c5d5)" style="fill: #577ddf"/>
    <path d="M 317.243578 417.36646 
L 345.695486 426.091316 
L 347.289024 277.168898 
L 317.939049 268.943884 
z
" clip-path="url(#pb53196c5d5)" style="fill: #648fff"/>
    <path d="M 137.010525 443.166169 
L 134.529936 369.058288 
L 152.591636 354.126121 
L 154.773732 427.81308 
z
" clip-path="url(#pb53196c5d5)" style="fill: #648fff"/>
    <path d="M 210.655001 445.565591 
L 210.208223 420.577294 
L 238.728427 429.509284 
L 239.026462 454.578712 
z
" clip-path="url(#pb53196c5d5)" style="fill: #324880"/>
    <path d="M 193.207861 461.235735 
L 210.655001 445.565591 
L 239.026462 454.578712 
L 221.743683 470.41108 
z
" clip-path="url(#pb53196c5d5)" style="fill: #3f599f"/>
    <path d="M 193.207861 461.235735 
L 192.663826 436.106696 
L 210.208223 420.577294 
L 210.655001 445.565591 
z
" clip-path="url(#pb53196c5d5)" style="fill: #648fff"/>
    <path d="M 164.96497 452.154579 
L 182.572219 436.644177 
L 180.813646 362.714602 
L 162.912634 377.802178 
z
" clip-path="url(#pb53196c5d5)" style="fill: #324880"/>
    <path d="M 244.638261 415.043535 
L 242.325653 197.028079 
L 271.654769 204.979265 
L 272.685024 423.744856 
z
" clip-path="url(#pb53196c5d5)" style="fill: #324880"/>
    <path d="M 358.551045 450.384214 
L 358.985871 418.135107 
L 388.401132 427.09294 
L 387.763122 459.447065 
z
" clip-path="url(#pb53196c5d5)" style="fill: #324880"/>
    <path d="M 137.010525 443.166169 
L 164.96497 452.154579 
L 162.912634 377.802178 
L 134.529936 369.058288 
z
" clip-path="url(#pb53196c5d5)" style="fill: #648fff"/>
    <path d="M 227.795802 430.170585 
L 224.681525 210.853404 
L 242.325653 197.028079 
L 244.638261 415.043535 
z
" clip-path="url(#pb53196c5d5)" style="fill: #648fff"/>
    <path d="M 342.380794 466.140982 
L 358.551045 450.384214 
L 387.763122 459.447065 
L 371.771902 475.367407 
z
" clip-path="url(#pb53196c5d5)" style="fill: #3f599f"/>
    <path d="M 301.016489 432.534503 
L 301.198035 289.656632 
L 330.688454 298.054536 
L 329.637014 441.413829 
z
" clip-path="url(#pb53196c5d5)" style="fill: #324880"/>
    <path d="M 342.380794 466.140982 
L 342.707896 433.709695 
L 358.985871 418.135107 
L 358.551045 450.384214 
z
" clip-path="url(#pb53196c5d5)" style="fill: #648fff"/>
    <path d="M 284.501564 447.971597 
L 284.181428 304.258413 
L 301.198035 289.656632 
L 301.016489 432.534503 
z
" clip-path="url(#pb53196c5d5)" style="fill: #648fff"/>
    <path d="M 221.743683 470.41108 
L 239.026462 454.578712 
L 238.728427 429.509284 
L 221.350111 445.200315 
z
" clip-path="url(#pb53196c5d5)" style="fill: #324880"/>
    <path d="M 134.529936 369.058288 
L 162.912634 377.802178 
L 180.813646 362.714602 
L 152.591636 354.126121 
z
" clip-path="url(#pb53196c5d5)" style="fill: #577ddf"/>
    <path d="M 192.663826 436.106696 
L 221.350111 445.200315 
L 238.728427 429.509284 
L 210.208223 420.577294 
z
" clip-path="url(#pb53196c5d5)" style="fill: #577ddf"/>
    <path d="M 317.939049 268.943884 
L 347.289024 277.168898 
L 363.545996 262.976663 
L 334.373839 254.897891 
z
" clip-path="url(#pb53196c5d5)" style="fill: #577ddf"/>
    <path d="M 193.207861 461.235735 
L 221.743683 470.41108 
L 221.350111 445.200315 
L 192.663826 436.106696 
z
" clip-path="url(#pb53196c5d5)" style="fill: #648fff"/>
    <path d="M 256.004241 439.025748 
L 272.685024 423.744856 
L 271.654769 204.979265 
L 254.187417 218.951731 
z
" clip-path="url(#pb53196c5d5)" style="fill: #324880"/>
    <path d="M 371.771902 475.367407 
L 387.763122 459.447065 
L 388.401132 427.09294 
L 372.30471 442.830331 
z
" clip-path="url(#pb53196c5d5)" style="fill: #324880"/>
    <path d="M 342.707896 433.709695 
L 372.30471 442.830331 
L 388.401132 427.09294 
L 358.985871 418.135107 
z
" clip-path="url(#pb53196c5d5)" style="fill: #577ddf"/>
    <path d="M 227.795802 430.170585 
L 256.004241 439.025748 
L 254.187417 218.951731 
L 224.681525 210.853404 
z
" clip-path="url(#pb53196c5d5)" style="fill: #648fff"/>
    <path d="M 313.292231 457.009532 
L 329.637014 441.413829 
L 330.688454 298.054536 
L 313.852533 312.810931 
z
" clip-path="url(#pb53196c5d5)" style="fill: #324880"/>
    <path d="M 250.577019 479.682087 
L 267.691076 463.684964 
L 296.65341 472.885795 
L 279.712546 489.05026 
z
" clip-path="url(#pb53196c5d5)" style="fill: #3f599f"/>
    <path d="M 342.380794 466.140982 
L 371.771902 475.367407 
L 372.30471 442.830331 
L 342.707896 433.709695 
z
" clip-path="url(#pb53196c5d5)" style="fill: #648fff"/>
    <path d="M 284.501564 447.971597 
L 313.292231 457.009532 
L 313.852533 312.810931 
L 284.181428 304.258413 
z
" clip-path="url(#pb53196c5d5)" style="fill: #648fff"/>
    <path d="M 267.691076 463.684964 
L 267.2298 384.319551 
L 296.681388 393.25743 
L 296.65341 472.885795 
z
" clip-path="url(#pb53196c5d5)" style="fill: #324880"/>
    <path d="M 250.577019 479.682087 
L 249.819836 399.860495 
L 267.2298 384.319551 
L 267.691076 463.684964 
z
" clip-path="url(#pb53196c5d5)" style="fill: #648fff"/>
    <path d="M 325.918127 482.182689 
L 326.037621 464.087798 
L 355.725023 473.423446 
L 355.489987 491.577156 
z
" clip-path="url(#pb53196c5d5)" style="fill: #324880"/>
    <path d="M 309.15504 498.517134 
L 309.210236 480.320215 
L 326.037621 464.087798 
L 325.918127 482.182689 
z
" clip-path="url(#pb53196c5d5)" style="fill: #648fff"/>
    <path d="M 309.15504 498.517134 
L 325.918127 482.182689 
L 355.489987 491.577156 
L 338.909376 508.084277 
z
" clip-path="url(#pb53196c5d5)" style="fill: #3f599f"/>
    <path d="M 279.712546 489.05026 
L 296.65341 472.885795 
L 296.681388 393.25743 
L 279.450524 408.963723 
z
" clip-path="url(#pb53196c5d5)" style="fill: #324880"/>
    <path d="M 284.181428 304.258413 
L 313.852533 312.810931 
L 330.688454 298.054536 
L 301.198035 289.656632 
z
" clip-path="url(#pb53196c5d5)" style="fill: #577ddf"/>
    <path d="M 250.577019 479.682087 
L 279.712546 489.05026 
L 279.450524 408.963723 
L 249.819836 399.860495 
z
" clip-path="url(#pb53196c5d5)" style="fill: #648fff"/>
    <path d="M 309.210236 480.320215 
L 339.081553 489.828132 
L 355.725023 473.423446 
L 326.037621 464.087798 
z
" clip-path="url(#pb53196c5d5)" style="fill: #577ddf"/>
    <path d="M 338.909376 508.084277 
L 355.489987 491.577156 
L 355.725023 473.423446 
L 339.081553 489.828132 
z
" clip-path="url(#pb53196c5d5)" style="fill: #324880"/>
    <path d="M 249.819836 399.860495 
L 279.450524 408.963723 
L 296.681388 393.25743 
L 267.2298 384.319551 
z
" clip-path="url(#pb53196c5d5)" style="fill: #577ddf"/>
    <path d="M 309.15504 498.517134 
L 338.909376 508.084277 
L 339.081553 489.828132 
L 309.210236 480.320215 
z
" clip-path="url(#pb53196c5d5)" style="fill: #648fff"/>
    <path d="M 224.681525 210.853404 
L 254.187417 218.951731 
L 271.654769 204.979265 
L 242.325653 197.028079 
z
" clip-path="url(#pb53196c5d5)" style="fill: #577ddf"/>
   </g>
   <g id="text_18">
    <!-- Real Amplitude (ρ) -->
    <g transform="translate(190.023516 51.6) scale(0.21 -0.21)">
     <defs>
      <path id="DejaVuSans-52" d="M 2841 2188 
Q 3044 2119 3236 1894 
Q 3428 1669 3622 1275 
L 4263 0 
L 3584 0 
L 2988 1197 
Q 2756 1666 2539 1819 
Q 2322 1972 1947 1972 
L 1259 1972 
L 1259 0 
L 628 0 
L 628 4666 
L 2053 4666 
Q 2853 4666 3247 4331 
Q 3641 3997 3641 3322 
Q 3641 2881 3436 2590 
Q 3231 2300 2841 2188 
z
M 1259 4147 
L 1259 2491 
L 2053 2491 
Q 2509 2491 2742 2702 
Q 2975 2913 2975 3322 
Q 2975 3731 2742 3939 
Q 2509 4147 2053 4147 
L 1259 4147 
z
" transform="scale(0.015625)"/>
      <path id="DejaVuSans-65" d="M 3597 1894 
L 3597 1613 
L 953 1613 
Q 991 1019 1311 708 
Q 1631 397 2203 397 
Q 2534 397 2845 478 
Q 3156 559 3463 722 
L 3463 178 
Q 3153 47 2828 -22 
Q 2503 -91 2169 -91 
Q 1331 -91 842 396 
Q 353 884 353 1716 
Q 353 2575 817 3079 
Q 1281 3584 2069 3584 
Q 2775 3584 3186 3129 
Q 3597 2675 3597 1894 
z
M 3022 2063 
Q 3016 2534 2758 2815 
Q 2500 3097 2075 3097 
Q 1594 3097 1305 2825 
Q 1016 2553 972 2059 
L 3022 2063 
z
" transform="scale(0.015625)"/>
      <path id="DejaVuSans-61" d="M 2194 1759 
Q 1497 1759 1228 1600 
Q 959 1441 959 1056 
Q 959 750 1161 570 
Q 1363 391 1709 391 
Q 2188 391 2477 730 
Q 2766 1069 2766 1631 
L 2766 1759 
L 2194 1759 
z
M 3341 1997 
L 3341 0 
L 2766 0 
L 2766 531 
Q 2569 213 2275 61 
Q 1981 -91 1556 -91 
Q 1019 -91 701 211 
Q 384 513 384 1019 
Q 384 1609 779 1909 
Q 1175 2209 1959 2209 
L 2766 2209 
L 2766 2266 
Q 2766 2663 2505 2880 
Q 2244 3097 1772 3097 
Q 1472 3097 1187 3025 
Q 903 2953 641 2809 
L 641 3341 
Q 956 3463 1253 3523 
Q 1550 3584 1831 3584 
Q 2591 3584 2966 3190 
Q 3341 2797 3341 1997 
z
" transform="scale(0.015625)"/>
      <path id="DejaVuSans-6c" d="M 603 4863 
L 1178 4863 
L 1178 0 
L 603 0 
L 603 4863 
z
" transform="scale(0.015625)"/>
      <path id="DejaVuSans-20" transform="scale(0.015625)"/>
      <path id="DejaVuSans-41" d="M 2188 4044 
L 1331 1722 
L 3047 1722 
L 2188 4044 
z
M 1831 4666 
L 2547 4666 
L 4325 0 
L 3669 0 
L 3244 1197 
L 1141 1197 
L 716 0 
L 50 0 
L 1831 4666 
z
" transform="scale(0.015625)"/>
      <path id="DejaVuSans-6d" d="M 3328 2828 
Q 3544 3216 3844 3400 
Q 4144 3584 4550 3584 
Q 5097 3584 5394 3201 
Q 5691 2819 5691 2113 
L 5691 0 
L 5113 0 
L 5113 2094 
Q 5113 2597 4934 2840 
Q 4756 3084 4391 3084 
Q 3944 3084 3684 2787 
Q 3425 2491 3425 1978 
L 3425 0 
L 2847 0 
L 2847 2094 
Q 2847 2600 2669 2842 
Q 2491 3084 2119 3084 
Q 1678 3084 1418 2786 
Q 1159 2488 1159 1978 
L 1159 0 
L 581 0 
L 581 3500 
L 1159 3500 
L 1159 2956 
Q 1356 3278 1631 3431 
Q 1906 3584 2284 3584 
Q 2666 3584 2933 3390 
Q 3200 3197 3328 2828 
z
" transform="scale(0.015625)"/>
      <path id="DejaVuSans-70" d="M 1159 525 
L 1159 -1331 
L 581 -1331 
L 581 3500 
L 1159 3500 
L 1159 2969 
Q 1341 3281 1617 3432 
Q 1894 3584 2278 3584 
Q 2916 3584 3314 3078 
Q 3713 2572 3713 1747 
Q 3713 922 3314 415 
Q 2916 -91 2278 -91 
Q 1894 -91 1617 61 
Q 1341 213 1159 525 
z
M 3116 1747 
Q 3116 2381 2855 2742 
Q 2594 3103 2138 3103 
Q 1681 3103 1420 2742 
Q 1159 2381 1159 1747 
Q 1159 1113 1420 752 
Q 1681 391 2138 391 
Q 2594 391 2855 752 
Q 3116 1113 3116 1747 
z
" transform="scale(0.015625)"/>
      <path id="DejaVuSans-69" d="M 603 3500 
L 1178 3500 
L 1178 0 
L 603 0 
L 603 3500 
z
M 603 4863 
L 1178 4863 
L 1178 4134 
L 603 4134 
L 603 4863 
z
" transform="scale(0.015625)"/>
      <path id="DejaVuSans-74" d="M 1172 4494 
L 1172 3500 
L 2356 3500 
L 2356 3053 
L 1172 3053 
L 1172 1153 
Q 1172 725 1289 603 
Q 1406 481 1766 481 
L 2356 481 
L 2356 0 
L 1766 0 
Q 1100 0 847 248 
Q 594 497 594 1153 
L 594 3053 
L 172 3053 
L 172 3500 
L 594 3500 
L 594 4494 
L 1172 4494 
z
" transform="scale(0.015625)"/>
      <path id="DejaVuSans-75" d="M 544 1381 
L 544 3500 
L 1119 3500 
L 1119 1403 
Q 1119 906 1312 657 
Q 1506 409 1894 409 
Q 2359 409 2629 706 
Q 2900 1003 2900 1516 
L 2900 3500 
L 3475 3500 
L 3475 0 
L 2900 0 
L 2900 538 
Q 2691 219 2414 64 
Q 2138 -91 1772 -91 
Q 1169 -91 856 284 
Q 544 659 544 1381 
z
M 1991 3584 
L 1991 3584 
z
" transform="scale(0.015625)"/>
      <path id="DejaVuSans-64" d="M 2906 2969 
L 2906 4863 
L 3481 4863 
L 3481 0 
L 2906 0 
L 2906 525 
Q 2725 213 2448 61 
Q 2172 -91 1784 -91 
Q 1150 -91 751 415 
Q 353 922 353 1747 
Q 353 2572 751 3078 
Q 1150 3584 1784 3584 
Q 2172 3584 2448 3432 
Q 2725 3281 2906 2969 
z
M 947 1747 
Q 947 1113 1208 752 
Q 1469 391 1925 391 
Q 2381 391 2643 752 
Q 2906 1113 2906 1747 
Q 2906 2381 2643 2742 
Q 2381 3103 1925 3103 
Q 1469 3103 1208 2742 
Q 947 2381 947 1747 
z
" transform="scale(0.015625)"/>
      <path id="DejaVuSans-28" d="M 1984 4856 
Q 1566 4138 1362 3434 
Q 1159 2731 1159 2009 
Q 1159 1288 1364 580 
Q 1569 -128 1984 -844 
L 1484 -844 
Q 1016 -109 783 600 
Q 550 1309 550 2009 
Q 550 2706 781 3412 
Q 1013 4119 1484 4856 
L 1984 4856 
z
" transform="scale(0.015625)"/>
      <path id="DejaVuSans-3c1" d="M 863 2875 
Q 1053 3194 1525 3475 
Q 1709 3584 2278 3584 
Q 2916 3584 3314 3078 
Q 3713 2572 3713 1747 
Q 3713 922 3314 415 
Q 2916 -91 2278 -91 
Q 1894 -91 1617 61 
Q 1341 213 1159 525 
L 1159 -1331 
L 581 -1331 
L 581 1716 
Q 581 2438 863 2875 
z
M 3116 1747 
Q 3116 2381 2855 2742 
Q 2594 3103 2138 3103 
Q 1681 3103 1420 2742 
Q 1159 2381 1159 1747 
Q 1159 1113 1420 752 
Q 1681 391 2138 391 
Q 2594 391 2855 752 
Q 3116 1113 3116 1747 
z
" transform="scale(0.015625)"/>
      <path id="DejaVuSans-29" d="M 513 4856 
L 1013 4856 
Q 1481 4119 1714 3412 
Q 1947 2706 1947 2009 
Q 1947 1309 1714 600 
Q 1481 -109 1013 -844 
L 513 -844 
Q 928 -128 1133 580 
Q 1338 1288 1338 2009 
Q 1338 2731 1133 3434 
Q 928 4138 513 4856 
z
" transform="scale(0.015625)"/>
     </defs>
     <use xlink:href="#DejaVuSans-52"/>
     <use xlink:href="#DejaVuSans-65" x="64.982422"/>
     <use xlink:href="#DejaVuSans-61" x="126.505859"/>
     <use xlink:href="#DejaVuSans-6c" x="187.785156"/>
     <use xlink:href="#DejaVuSans-20" x="215.568359"/>
     <use xlink:href="#DejaVuSans-41" x="247.355469"/>
     <use xlink:href="#DejaVuSans-6d" x="315.763672"/>
     <use xlink:href="#DejaVuSans-70" x="413.175781"/>
     <use xlink:href="#DejaVuSans-6c" x="476.652344"/>
     <use xlink:href="#DejaVuSans-69" x="504.435547"/>
     <use xlink:href="#DejaVuSans-74" x="532.21875"/>
     <use xlink:href="#DejaVuSans-75" x="571.427734"/>
     <use xlink:href="#DejaVuSans-64" x="634.806641"/>
     <use xlink:href="#DejaVuSans-65" x="698.283203"/>
     <use xlink:href="#DejaVuSans-20" x="759.806641"/>
     <use xlink:href="#DejaVuSans-28" x="791.59375"/>
     <use xlink:href="#DejaVuSans-3c1" x="830.607422"/>
     <use xlink:href="#DejaVuSans-29" x="894.083984"/>
    </g>
   </g>
  </g>
  <g id="patch_6">
   <path d="M 604.8 576 
L 1123.2 576 
L 1123.2 57.6 
L 604.8 57.6 
z
" style="fill: #ffffff"/>
  </g>
  <g id="pane3d_4">
   <g id="patch_7">
    <path d="M 706.07018 436.456468 
L 829.494133 330.550231 
L 827.743197 126.70673 
L 698.643358 223.613571 
" style="fill: #f2f2f2; opacity: 0.5; stroke: #f2f2f2; stroke-linejoin: miter"/>
   </g>
  </g>
  <g id="pane3d_5">
   <g id="patch_8">
    <path d="M 829.494133 330.550231 
L 1031.554898 390.069341 
L 1038.583588 181.103065 
L 827.743197 126.70673 
" style="fill: #e6e6e6; opacity: 0.5; stroke: #e6e6e6; stroke-linejoin: miter"/>
   </g>
  </g>
  <g id="pane3d_6">
   <g id="patch_9">
    <path d="M 706.07018 436.456468 
L 916.912731 504.076731 
L 1031.554898 390.069341 
L 829.494133 330.550231 
" style="fill: #ececec; opacity: 0.5; stroke: #ececec; stroke-linejoin: miter"/>
   </g>
  </g>
  <g id="grid3d_4">
   <g id="Line3DCollection_4">
    <path d="M 734.635886 445.617904 
L 856.925726 338.630493 
L 856.328796 134.081748 
" style="fill: none; stroke: #b0b0b0; stroke-width: 0.8"/>
    <path d="M 784.310046 461.549127 
L 904.58611 352.669358 
L 906.022474 146.902603 
" style="fill: none; stroke: #b0b0b0; stroke-width: 0.8"/>
    <path d="M 834.89502 477.772462 
L 953.066152 366.949661 
L 956.607663 159.953465 
" style="fill: none; stroke: #b0b0b0; stroke-width: 0.8"/>
    <path d="M 886.41609 494.296016 
L 1002.38718 381.477685 
L 1008.108569 173.24058 
" style="fill: none; stroke: #b0b0b0; stroke-width: 0.8"/>
   </g>
  </g>
  <g id="grid3d_5">
   <g id="Line3DCollection_5">
    <path d="M 717.757365 209.265931 
L 724.301379 420.812846 
L 933.880707 487.202708 
" style="fill: none; stroke: #b0b0b0; stroke-width: 0.8"/>
    <path d="M 749.704273 185.285468 
L 754.805664 394.638072 
L 962.24502 458.995448 
" style="fill: none; stroke: #b0b0b0; stroke-width: 0.8"/>
    <path d="M 780.65707 162.051218 
L 784.400054 369.24405 
L 989.731787 431.660877 
" style="fill: none; stroke: #b0b0b0; stroke-width: 0.8"/>
    <path d="M 810.661448 139.528886 
L 813.124663 344.596362 
L 1016.38111 405.159111 
" style="fill: none; stroke: #b0b0b0; stroke-width: 0.8"/>
   </g>
  </g>
  <g id="grid3d_6">
   <g id="Line3DCollection_6">
    <path d="M 1032.250413 369.391342 
L 829.320631 310.351265 
L 705.33606 415.417561 
" style="fill: none; stroke: #b0b0b0; stroke-width: 0.8"/>
    <path d="M 1033.148288 342.697098 
L 829.096728 284.284496 
L 704.388092 388.250037 
" style="fill: none; stroke: #b0b0b0; stroke-width: 0.8"/>
    <path d="M 1034.056218 315.703901 
L 828.870406 257.936187 
L 703.429212 360.769816 
" style="fill: none; stroke: #b0b0b0; stroke-width: 0.8"/>
    <path d="M 1034.974374 288.406701 
L 828.641627 231.301752 
L 702.459232 332.971467 
" style="fill: none; stroke: #b0b0b0; stroke-width: 0.8"/>
    <path d="M 1035.902928 260.800334 
L 828.41035 204.376505 
L 701.477957 304.849436 
" style="fill: none; stroke: #b0b0b0; stroke-width: 0.8"/>
    <path d="M 1036.84206 232.879516 
L 828.176533 177.155658 
L 700.48519 276.398034 
" style="fill: none; stroke: #b0b0b0; stroke-width: 0.8"/>
    <path d="M 1037.791949 204.638846 
L 827.940136 149.634316 
L 699.480726 247.611441 
" style="fill: none; stroke: #b0b0b0; stroke-width: 0.8"/>
   </g>
  </g>
  <g id="axis3d_4">
   <g id="line2d_21">
    <path d="M 706.07018 436.456468 
L 916.912731 504.076731 
" style="fill: none; stroke: #000000; stroke-width: 0.8; stroke-linecap: square"/>
   </g>
   <g id="xtick_18">
    <g id="line2d_22">
     <path d="M 735.677227 444.706868 
L 732.549953 447.442819 
" style="fill: none; stroke: #000000; stroke-width: 0.8; stroke-linecap: square"/>
    </g>
    <g id="text_19">
     <!-- 00 -->
     <g transform="translate(707.351686 489.365693) rotate(-45) scale(0.21 -0.21)">
      <use xlink:href="#DejaVuSans-30"/>
      <use xlink:href="#DejaVuSans-30" x="63.623047"/>
     </g>
    </g>
   </g>
   <g id="xtick_19">
    <g id="line2d_23">
     <path d="M 785.334802 460.621468 
L 782.257306 463.407368 
" style="fill: none; stroke: #000000; stroke-width: 0.8; stroke-linecap: square"/>
    </g>
    <g id="text_20">
     <!-- 01 -->
     <g transform="translate(757.023931 505.435143) rotate(-45) scale(0.21 -0.21)">
      <use xlink:href="#DejaVuSans-30"/>
      <use xlink:href="#DejaVuSans-31" x="63.623047"/>
     </g>
    </g>
   </g>
   <g id="xtick_20">
    <g id="line2d_24">
     <path d="M 835.902405 476.82772 
L 832.877048 479.664949 
" style="fill: none; stroke: #000000; stroke-width: 0.8; stroke-linecap: square"/>
    </g>
    <g id="text_21">
     <!-- 10 -->
     <g transform="translate(807.60781 521.799516) rotate(-45) scale(0.21 -0.21)">
      <use xlink:href="#DejaVuSans-31"/>
      <use xlink:href="#DejaVuSans-30" x="63.623047"/>
     </g>
    </g>
   </g>
   <g id="xtick_21">
    <g id="line2d_25">
     <path d="M 887.405283 493.333715 
L 884.434531 496.223705 
" style="fill: none; stroke: #000000; stroke-width: 0.8; stroke-linecap: square"/>
    </g>
    <g id="text_22">
     <!-- 11 -->
     <g transform="translate(859.128654 538.467006) rotate(-45) scale(0.21 -0.21)">
      <use xlink:href="#DejaVuSans-31"/>
      <use xlink:href="#DejaVuSans-31" x="63.623047"/>
     </g>
    </g>
   </g>
  </g>
  <g id="axis3d_5">
   <g id="line2d_26">
    <path d="M 1031.554898 390.069341 
L 916.912731 504.076731 
" style="fill: none; stroke: #000000; stroke-width: 0.8; stroke-linecap: square"/>
   </g>
   <g id="xtick_22">
    <g id="line2d_27">
     <path d="M 932.140222 486.651363 
L 937.364886 488.306415 
" style="fill: none; stroke: #000000; stroke-width: 0.8; stroke-linecap: square"/>
    </g>
    <g id="text_23">
     <!-- 00 -->
     <g transform="translate(944.70027 499.207917) rotate(-337.5) scale(0.21 -0.21)">
      <use xlink:href="#DejaVuSans-30"/>
      <use xlink:href="#DejaVuSans-30" x="63.623047"/>
     </g>
    </g>
   </g>
   <g id="xtick_23">
    <g id="line2d_28">
     <path d="M 960.5233 458.46129 
L 965.691587 460.064734 
" style="fill: none; stroke: #000000; stroke-width: 0.8; stroke-linecap: square"/>
    </g>
    <g id="text_24">
     <!-- 01 -->
     <g transform="translate(972.913817 470.822876) rotate(-337.5) scale(0.21 -0.21)">
      <use xlink:href="#DejaVuSans-30"/>
      <use xlink:href="#DejaVuSans-31" x="63.623047"/>
     </g>
    </g>
   </g>
   <g id="xtick_24">
    <g id="line2d_29">
     <path d="M 988.028511 431.143114 
L 993.141381 432.697327 
" style="fill: none; stroke: #000000; stroke-width: 0.8; stroke-linecap: square"/>
    </g>
    <g id="text_25">
     <!-- 10 -->
     <g transform="translate(1000.254695 443.315808) rotate(-337.5) scale(0.21 -0.21)">
      <use xlink:href="#DejaVuSans-31"/>
      <use xlink:href="#DejaVuSans-30" x="63.623047"/>
     </g>
    </g>
   </g>
   <g id="xtick_25">
    <g id="line2d_30">
     <path d="M 1014.695964 404.657001 
L 1019.754368 406.164215 
" style="fill: none; stroke: #000000; stroke-width: 0.8; stroke-linecap: square"/>
    </g>
    <g id="text_26">
     <!-- 11 -->
     <g transform="translate(1026.762776 416.646599) rotate(-337.5) scale(0.21 -0.21)">
      <use xlink:href="#DejaVuSans-31"/>
      <use xlink:href="#DejaVuSans-31" x="63.623047"/>
     </g>
    </g>
   </g>
  </g>
  <g id="axis3d_6">
   <g id="line2d_31">
    <path d="M 1031.554898 390.069341 
L 1038.583588 181.103065 
" style="fill: none; stroke: #000000; stroke-width: 0.8; stroke-linecap: square"/>
   </g>
   <g id="xtick_26">
    <g id="line2d_32">
     <path d="M 1030.568241 368.901934 
L 1035.617704 370.371017 
" style="fill: none; stroke: #000000; stroke-width: 0.8; stroke-linecap: square"/>
    </g>
    <g id="text_27">
     <!-- −0.2 -->
     <g transform="translate(1045.78729 363.118144) scale(0.21 -0.21)">
      <defs>
       <path id="DejaVuSans-2212" d="M 678 2272 
L 4684 2272 
L 4684 1741 
L 678 1741 
L 678 2272 
z
" transform="scale(0.015625)"/>
      </defs>
      <use xlink:href="#DejaVuSans-2212"/>
      <use xlink:href="#DejaVuSans-30" x="83.789062"/>
      <use xlink:href="#DejaVuSans-2e" x="147.412109"/>
      <use xlink:href="#DejaVuSans-32" x="179.199219"/>
     </g>
    </g>
   </g>
   <g id="xtick_27">
    <g id="line2d_33">
     <path d="M 1031.456489 342.212797 
L 1036.534868 343.666553 
" style="fill: none; stroke: #000000; stroke-width: 0.8; stroke-linecap: square"/>
    </g>
    <g id="text_28">
     <!-- −0.1 -->
     <g transform="translate(1046.759431 336.443797) scale(0.21 -0.21)">
      <use xlink:href="#DejaVuSans-2212"/>
      <use xlink:href="#DejaVuSans-30" x="83.789062"/>
      <use xlink:href="#DejaVuSans-2e" x="147.412109"/>
      <use xlink:href="#DejaVuSans-31" x="179.199219"/>
     </g>
    </g>
   </g>
   <g id="xtick_28">
    <g id="line2d_34">
     <path d="M 1032.354681 315.224852 
L 1037.462309 316.662846 
" style="fill: none; stroke: #000000; stroke-width: 0.8; stroke-linecap: square"/>
    </g>
    <g id="text_29">
     <!-- 0.0 -->
     <g transform="translate(1047.742447 309.471064) scale(0.21 -0.21)">
      <use xlink:href="#DejaVuSans-30"/>
      <use xlink:href="#DejaVuSans-2e" x="63.623047"/>
      <use xlink:href="#DejaVuSans-30" x="95.410156"/>
     </g>
    </g>
   </g>
   <g id="xtick_29">
    <g id="line2d_35">
     <path d="M 1033.262985 287.933054 
L 1038.400201 289.354838 
" style="fill: none; stroke: #000000; stroke-width: 0.8; stroke-linecap: square"/>
    </g>
    <g id="text_30">
     <!-- 0.1 -->
     <g transform="translate(1048.736522 282.194909) scale(0.21 -0.21)">
      <use xlink:href="#DejaVuSans-30"/>
      <use xlink:href="#DejaVuSans-2e" x="63.623047"/>
      <use xlink:href="#DejaVuSans-31" x="95.410156"/>
     </g>
    </g>
   </g>
   <g id="xtick_30">
    <g id="line2d_36">
     <path d="M 1034.181574 260.332242 
L 1039.348722 261.737354 
" style="fill: none; stroke: #000000; stroke-width: 0.8; stroke-linecap: square"/>
    </g>
    <g id="text_31">
     <!-- 0.2 -->
     <g transform="translate(1049.741842 254.610184) scale(0.21 -0.21)">
      <use xlink:href="#DejaVuSans-30"/>
      <use xlink:href="#DejaVuSans-2e" x="63.623047"/>
      <use xlink:href="#DejaVuSans-32" x="95.410156"/>
     </g>
    </g>
   </g>
   <g id="xtick_31">
    <g id="line2d_37">
     <path d="M 1035.110623 232.417138 
L 1040.308054 233.805106 
" style="fill: none; stroke: #000000; stroke-width: 0.8; stroke-linecap: square"/>
    </g>
    <g id="text_32">
     <!-- 0.3 -->
     <g transform="translate(1050.758599 226.711623) scale(0.21 -0.21)">
      <use xlink:href="#DejaVuSans-30"/>
      <use xlink:href="#DejaVuSans-2e" x="63.623047"/>
      <use xlink:href="#DejaVuSans-33" x="95.410156"/>
     </g>
    </g>
   </g>
   <g id="xtick_32">
    <g id="line2d_38">
     <path d="M 1036.050311 204.182343 
L 1041.278382 205.552679 
" style="fill: none; stroke: #000000; stroke-width: 0.8; stroke-linecap: square"/>
    </g>
    <g id="text_33">
     <!-- 0.4 -->
     <g transform="translate(1051.786991 198.493839) scale(0.21 -0.21)">
      <use xlink:href="#DejaVuSans-30"/>
      <use xlink:href="#DejaVuSans-2e" x="63.623047"/>
      <use xlink:href="#DejaVuSans-34" x="95.410156"/>
     </g>
    </g>
   </g>
  </g>
  <g id="axes_2">
   <g id="Poly3DCollection_2">
    <path d="M 883.671027 283.90765 
L 883.632438 298.773766 
L 908.04159 305.756349 
L 908.155267 290.846864 
z
" clip-path="url(#pa124cf36ad)" style="fill: #648fff"/>
    <path d="M 869.6177 295.965196 
L 869.62196 310.906551 
L 883.632438 298.773766 
L 883.671027 283.90765 
z
" clip-path="url(#pa124cf36ad)" style="fill: #324880"/>
    <path d="M 869.62196 310.906551 
L 894.154882 317.995213 
L 908.04159 305.756349 
L 883.632438 298.773766 
z
" clip-path="url(#pa124cf36ad)" style="fill: #577ddf"/>
    <path d="M 869.6177 295.965196 
L 883.671027 283.90765 
L 908.155267 290.846864 
L 894.226477 303.010157 
z
" clip-path="url(#pa124cf36ad)" style="fill: #3f599f"/>
    <path d="M 894.226477 303.010157 
L 908.155267 290.846864 
L 908.04159 305.756349 
L 894.154882 317.995213 
z
" clip-path="url(#pa124cf36ad)" style="fill: #648fff"/>
    <path d="M 841.267753 385.731401 
L 865.794619 393.183571 
L 879.962493 380.317292 
L 855.558722 372.977174 
z
" clip-path="url(#pa124cf36ad)" style="fill: #577ddf"/>
    <path d="M 869.6177 295.965196 
L 894.226477 303.010157 
L 894.154882 317.995213 
L 869.62196 310.906551 
z
" clip-path="url(#pa124cf36ad)" style="fill: #324880"/>
    <path d="M 855.349865 308.206786 
L 855.558722 372.977174 
L 879.962493 380.317292 
L 880.084139 315.359931 
z
" clip-path="url(#pa124cf36ad)" style="fill: #648fff"/>
    <path d="M 932.853893 297.846838 
L 932.853893 297.846838 
L 957.769734 304.908374 
L 957.769734 304.908374 
z
" clip-path="url(#pa124cf36ad)" style="fill: #648fff"/>
    <path d="M 840.862574 320.636667 
L 841.267753 385.731401 
L 855.558722 372.977174 
L 855.349865 308.206786 
z
" clip-path="url(#pa124cf36ad)" style="fill: #324880"/>
    <path d="M 919.052377 310.117276 
L 919.052377 310.117276 
L 932.853893 297.846838 
L 932.853893 297.846838 
z
" clip-path="url(#pa124cf36ad)" style="fill: #324880"/>
    <path d="M 919.052377 310.117276 
L 944.098287 317.287379 
L 957.769734 304.908374 
L 932.853893 297.846838 
z
" clip-path="url(#pa124cf36ad)" style="fill: #577ddf"/>
    <path d="M 919.052377 310.117276 
L 932.853893 297.846838 
L 957.769734 304.908374 
L 944.098287 317.287379 
z
" clip-path="url(#pa124cf36ad)" style="fill: #3f599f"/>
    <path d="M 865.723305 327.900506 
L 880.084139 315.359931 
L 879.962493 380.317292 
L 865.794619 393.183571 
z
" clip-path="url(#pa124cf36ad)" style="fill: #648fff"/>
    <path d="M 944.098287 317.287379 
L 957.769734 304.908374 
L 957.769734 304.908374 
L 944.098287 317.287379 
z
" clip-path="url(#pa124cf36ad)" style="fill: #648fff"/>
    <path d="M 840.862574 320.636667 
L 865.723305 327.900506 
L 865.794619 393.183571 
L 841.267753 385.731401 
z
" clip-path="url(#pa124cf36ad)" style="fill: #324880"/>
    <path d="M 919.052377 310.117276 
L 944.098287 317.287379 
L 944.098287 317.287379 
L 919.052377 310.117276 
z
" clip-path="url(#pa124cf36ad)" style="fill: #324880"/>
    <path d="M 840.862574 320.636667 
L 855.349865 308.206786 
L 880.084139 315.359931 
L 865.723305 327.900506 
z
" clip-path="url(#pa124cf36ad)" style="fill: #3f599f"/>
    <path d="M 905.038324 322.576673 
L 905.038324 322.576673 
L 930.215365 329.857866 
L 930.215365 329.857866 
z
" clip-path="url(#pa124cf36ad)" style="fill: #648fff"/>
    <path d="M 890.806786 335.229428 
L 890.806786 335.229428 
L 905.038324 322.576673 
L 905.038324 322.576673 
z
" clip-path="url(#pa124cf36ad)" style="fill: #324880"/>
    <path d="M 890.806786 335.229428 
L 916.116025 342.624313 
L 930.215365 329.857866 
L 905.038324 322.576673 
z
" clip-path="url(#pa124cf36ad)" style="fill: #577ddf"/>
    <path d="M 890.806786 335.229428 
L 905.038324 322.576673 
L 930.215365 329.857866 
L 916.116025 342.624313 
z
" clip-path="url(#pa124cf36ad)" style="fill: #3f599f"/>
    <path d="M 916.116025 342.624313 
L 930.215365 329.857866 
L 930.215365 329.857866 
L 916.116025 342.624313 
z
" clip-path="url(#pa124cf36ad)" style="fill: #648fff"/>
    <path d="M 890.806786 335.229428 
L 916.116025 342.624313 
L 916.116025 342.624313 
L 890.806786 335.229428 
z
" clip-path="url(#pa124cf36ad)" style="fill: #324880"/>
    <path d="M 782.048618 448.347906 
L 807.02678 456.302263 
L 822.064427 442.570234 
L 797.212532 434.738939 
z
" clip-path="url(#pa124cf36ad)" style="fill: #577ddf"/>
    <path d="M 796.032132 359.100522 
L 797.212532 434.738939 
L 822.064427 442.570234 
L 821.277986 366.71231 
z
" clip-path="url(#pa124cf36ad)" style="fill: #648fff"/>
    <path d="M 780.614363 372.328739 
L 782.048618 448.347906 
L 797.212532 434.738939 
L 796.032132 359.100522 
z
" clip-path="url(#pa124cf36ad)" style="fill: #324880"/>
    <path d="M 805.990501 380.062081 
L 821.277986 366.71231 
L 822.064427 442.570234 
L 807.02678 456.302263 
z
" clip-path="url(#pa124cf36ad)" style="fill: #648fff"/>
    <path d="M 780.614363 372.328739 
L 805.990501 380.062081 
L 807.02678 456.302263 
L 782.048618 448.347906 
z
" clip-path="url(#pa124cf36ad)" style="fill: #324880"/>
    <path d="M 780.614363 372.328739 
L 796.032132 359.100522 
L 821.277986 366.71231 
L 805.990501 380.062081 
z
" clip-path="url(#pa124cf36ad)" style="fill: #3f599f"/>
    <path d="M 831.956031 430.858139 
L 857.572598 438.862139 
L 872.454551 425.045149 
L 846.972026 417.166977 
z
" clip-path="url(#pa124cf36ad)" style="fill: #577ddf"/>
    <path d="M 846.755432 374.393924 
L 846.972026 417.166977 
L 872.454551 425.045149 
L 872.467671 382.14633 
z
" clip-path="url(#pa124cf36ad)" style="fill: #648fff"/>
    <path d="M 831.601291 387.866932 
L 831.956031 430.858139 
L 846.972026 417.166977 
L 846.755432 374.393924 
z
" clip-path="url(#pa124cf36ad)" style="fill: #324880"/>
    <path d="M 857.450003 395.74429 
L 872.467671 382.14633 
L 872.454551 425.045149 
L 857.572598 438.862139 
z
" clip-path="url(#pa124cf36ad)" style="fill: #648fff"/>
    <path d="M 831.601291 387.866932 
L 857.450003 395.74429 
L 857.572598 438.862139 
L 831.956031 430.858139 
z
" clip-path="url(#pa124cf36ad)" style="fill: #324880"/>
    <path d="M 831.601291 387.866932 
L 846.755432 374.393924 
L 872.467671 382.14633 
L 857.450003 395.74429 
z
" clip-path="url(#pa124cf36ad)" style="fill: #3f599f"/>
    <path d="M 898.417964 389.970511 
L 898.360869 399.912489 
L 924.497467 407.839062 
L 924.609633 397.867468 
z
" clip-path="url(#pa124cf36ad)" style="fill: #648fff"/>
    <path d="M 883.539966 403.695169 
L 883.513648 413.68852 
L 898.360869 399.912489 
L 898.417964 389.970511 
z
" clip-path="url(#pa124cf36ad)" style="fill: #324880"/>
    <path d="M 883.513648 413.68852 
L 909.792582 421.74378 
L 924.497467 407.839062 
L 898.360869 399.912489 
z
" clip-path="url(#pa124cf36ad)" style="fill: #577ddf"/>
    <path d="M 883.539966 403.695169 
L 898.417964 389.970511 
L 924.609633 397.867468 
L 909.874574 411.720602 
z
" clip-path="url(#pa124cf36ad)" style="fill: #3f599f"/>
    <path d="M 909.874574 411.720602 
L 924.609633 397.867468 
L 924.497467 407.839062 
L 909.792582 421.74378 
z
" clip-path="url(#pa124cf36ad)" style="fill: #648fff"/>
    <path d="M 883.539966 403.695169 
L 909.874574 411.720602 
L 909.792582 421.74378 
L 883.513648 413.68852 
z
" clip-path="url(#pa124cf36ad)" style="fill: #324880"/>
   </g>
   <g id="Poly3DCollection_3">
    <path d="M 710.221509 359.843996 
L 915.713651 422.805946 
L 1027.618772 316.581353 
L 830.477021 260.986304 
z
" clip-path="url(#pa124cf36ad)" style="fill-opacity: 0.25"/>
   </g>
   <g id="Poly3DCollection_4">
    <path d="M 835.334636 270.208366 
L 835.265301 260.697535 
L 859.375735 267.489712 
L 859.398394 277.028409 
z
" clip-path="url(#pa124cf36ad)" style="fill: #324880"/>
    <path d="M 821.04022 282.058513 
L 820.94237 272.499338 
L 835.265301 260.697535 
L 835.334636 270.208366 
z
" clip-path="url(#pa124cf36ad)" style="fill: #648fff"/>
    <path d="M 821.04022 282.058513 
L 835.334636 270.208366 
L 859.398394 277.028409 
L 845.22321 288.981581 
z
" clip-path="url(#pa124cf36ad)" style="fill: #3f599f"/>
    <path d="M 820.94237 272.499338 
L 845.172499 279.394321 
L 859.375735 267.489712 
L 835.265301 260.697535 
z
" clip-path="url(#pa124cf36ad)" style="fill: #577ddf"/>
    <path d="M 845.22321 288.981581 
L 859.398394 277.028409 
L 859.375735 267.489712 
L 845.172499 279.394321 
z
" clip-path="url(#pa124cf36ad)" style="fill: #324880"/>
    <path d="M 821.04022 282.058513 
L 845.22321 288.981581 
L 845.172499 279.394321 
L 820.94237 272.499338 
z
" clip-path="url(#pa124cf36ad)" style="fill: #648fff"/>
    <path d="M 791.797598 306.300803 
L 806.529523 294.087959 
L 830.832608 301.116403 
L 816.221639 313.437049 
z
" clip-path="url(#pa124cf36ad)" style="fill: #3f599f"/>
    <path d="M 806.529523 294.087959 
L 805.971398 251.938558 
L 830.483319 258.841597 
L 830.832608 301.116403 
z
" clip-path="url(#pa124cf36ad)" style="fill: #324880"/>
    <path d="M 791.797598 306.300803 
L 791.106676 263.933829 
L 805.971398 251.938558 
L 806.529523 294.087959 
z
" clip-path="url(#pa124cf36ad)" style="fill: #648fff"/>
    <path d="M 816.221639 313.437049 
L 830.832608 301.116403 
L 830.483319 258.841597 
L 815.741635 270.943676 
z
" clip-path="url(#pa124cf36ad)" style="fill: #324880"/>
    <path d="M 982.905667 312.032287 
L 982.905667 312.032287 
L 1008.264622 319.219409 
L 1008.264622 319.219409 
z
" clip-path="url(#pa124cf36ad)" style="fill: #324880"/>
    <path d="M 791.797598 306.300803 
L 816.221639 313.437049 
L 815.741635 270.943676 
L 791.106676 263.933829 
z
" clip-path="url(#pa124cf36ad)" style="fill: #648fff"/>
    <path d="M 791.106676 263.933829 
L 815.741635 270.943676 
L 830.483319 258.841597 
L 805.971398 251.938558 
z
" clip-path="url(#pa124cf36ad)" style="fill: #577ddf"/>
    <path d="M 969.367143 324.521306 
L 969.367143 324.521306 
L 982.905667 312.032287 
L 982.905667 312.032287 
z
" clip-path="url(#pa124cf36ad)" style="fill: #648fff"/>
    <path d="M 969.367143 324.521306 
L 994.861937 331.819915 
L 1008.264622 319.219409 
L 982.905667 312.032287 
z
" clip-path="url(#pa124cf36ad)" style="fill: #577ddf"/>
    <path d="M 969.367143 324.521306 
L 982.905667 312.032287 
L 1008.264622 319.219409 
L 994.861937 331.819915 
z
" clip-path="url(#pa124cf36ad)" style="fill: #3f599f"/>
    <path d="M 994.861937 331.819915 
L 1008.264622 319.219409 
L 1008.264622 319.219409 
L 994.861937 331.819915 
z
" clip-path="url(#pa124cf36ad)" style="fill: #324880"/>
    <path d="M 969.367143 324.521306 
L 994.861937 331.819915 
L 994.861937 331.819915 
L 969.367143 324.521306 
z
" clip-path="url(#pa124cf36ad)" style="fill: #648fff"/>
    <path d="M 761.649516 331.293724 
L 776.839348 318.701272 
L 801.385203 325.947819 
L 786.31804 338.653149 
z
" clip-path="url(#pa124cf36ad)" style="fill: #3f599f"/>
    <path d="M 776.839348 318.701272 
L 775.346251 241.88563 
L 800.27631 248.89996 
L 801.385203 325.947819 
z
" clip-path="url(#pa124cf36ad)" style="fill: #324880"/>
    <path d="M 826.150724 333.259217 
L 826.150724 333.259217 
L 851.138871 340.63634 
L 851.138871 340.63634 
z
" clip-path="url(#pa124cf36ad)" style="fill: #324880"/>
    <path d="M 761.649516 331.293724 
L 759.901932 254.07519 
L 775.346251 241.88563 
L 776.839348 318.701272 
z
" clip-path="url(#pa124cf36ad)" style="fill: #648fff"/>
    <path d="M 811.209052 346.07895 
L 811.209052 346.07895 
L 826.150724 333.259217 
L 826.150724 333.259217 
z
" clip-path="url(#pa124cf36ad)" style="fill: #648fff"/>
    <path d="M 955.618262 337.204375 
L 955.618262 337.204375 
L 981.250067 344.617085 
L 981.250067 344.617085 
z
" clip-path="url(#pa124cf36ad)" style="fill: #324880"/>
    <path d="M 811.209052 346.07895 
L 826.150724 333.259217 
L 851.138871 340.63634 
L 836.325575 353.572027 
z
" clip-path="url(#pa124cf36ad)" style="fill: #3f599f"/>
    <path d="M 811.209052 346.07895 
L 836.325575 353.572027 
L 851.138871 340.63634 
L 826.150724 333.259217 
z
" clip-path="url(#pa124cf36ad)" style="fill: #577ddf"/>
    <path d="M 941.654082 350.086053 
L 941.654082 350.086053 
L 955.618262 337.204375 
L 955.618262 337.204375 
z
" clip-path="url(#pa124cf36ad)" style="fill: #648fff"/>
    <path d="M 786.31804 338.653149 
L 801.385203 325.947819 
L 800.27631 248.89996 
L 784.958504 261.200539 
z
" clip-path="url(#pa124cf36ad)" style="fill: #324880"/>
    <path d="M 836.325575 353.572027 
L 851.138871 340.63634 
L 851.138871 340.63634 
L 836.325575 353.572027 
z
" clip-path="url(#pa124cf36ad)" style="fill: #324880"/>
    <path d="M 941.654082 350.086053 
L 955.618262 337.204375 
L 981.250067 344.617085 
L 967.424076 357.615561 
z
" clip-path="url(#pa124cf36ad)" style="fill: #3f599f"/>
    <path d="M 941.654082 350.086053 
L 967.424076 357.615561 
L 981.250067 344.617085 
L 955.618262 337.204375 
z
" clip-path="url(#pa124cf36ad)" style="fill: #577ddf"/>
    <path d="M 746.222682 344.082652 
L 746.222682 344.082652 
L 771.014726 351.557613 
L 771.014726 351.557613 
z
" clip-path="url(#pa124cf36ad)" style="fill: #324880"/>
    <path d="M 761.649516 331.293724 
L 786.31804 338.653149 
L 784.958504 261.200539 
L 759.901932 254.07519 
z
" clip-path="url(#pa124cf36ad)" style="fill: #648fff"/>
    <path d="M 811.209052 346.07895 
L 836.325575 353.572027 
L 836.325575 353.572027 
L 811.209052 346.07895 
z
" clip-path="url(#pa124cf36ad)" style="fill: #648fff"/>
    <path d="M 730.553256 357.072689 
L 730.553256 357.072689 
L 746.222682 344.082652 
L 746.222682 344.082652 
z
" clip-path="url(#pa124cf36ad)" style="fill: #648fff"/>
    <path d="M 967.424076 357.615561 
L 981.250067 344.617085 
L 981.250067 344.617085 
L 967.424076 357.615561 
z
" clip-path="url(#pa124cf36ad)" style="fill: #324880"/>
    <path d="M 941.654082 350.086053 
L 967.424076 357.615561 
L 967.424076 357.615561 
L 941.654082 350.086053 
z
" clip-path="url(#pa124cf36ad)" style="fill: #648fff"/>
    <path d="M 730.553256 357.072689 
L 746.222682 344.082652 
L 771.014726 351.557613 
L 755.469665 364.665929 
z
" clip-path="url(#pa124cf36ad)" style="fill: #3f599f"/>
    <path d="M 730.553256 357.072689 
L 755.469665 364.665929 
L 771.014726 351.557613 
L 746.222682 344.082652 
z
" clip-path="url(#pa124cf36ad)" style="fill: #577ddf"/>
    <path d="M 759.901932 254.07519 
L 784.958504 261.200539 
L 800.27631 248.89996 
L 775.346251 241.88563 
z
" clip-path="url(#pa124cf36ad)" style="fill: #577ddf"/>
    <path d="M 755.469665 364.665929 
L 771.014726 351.557613 
L 771.014726 351.557613 
L 755.469665 364.665929 
z
" clip-path="url(#pa124cf36ad)" style="fill: #324880"/>
    <path d="M 861.670687 361.1333 
L 876.352662 348.080078 
L 901.795165 355.591337 
L 887.247523 368.763704 
z
" clip-path="url(#pa124cf36ad)" style="fill: #3f599f"/>
    <path d="M 730.553256 357.072689 
L 755.469665 364.665929 
L 755.469665 364.665929 
L 730.553256 357.072689 
z
" clip-path="url(#pa124cf36ad)" style="fill: #648fff"/>
    <path d="M 876.352662 348.080078 
L 876.427787 280.429559 
L 902.229731 287.735675 
L 901.795165 355.591337 
z
" clip-path="url(#pa124cf36ad)" style="fill: #324880"/>
    <path d="M 861.670687 361.1333 
L 861.538492 293.126876 
L 876.427787 280.429559 
L 876.352662 348.080078 
z
" clip-path="url(#pa124cf36ad)" style="fill: #648fff"/>
    <path d="M 927.469507 363.171042 
L 927.651238 347.721771 
L 953.64521 355.324651 
L 953.378871 370.82013 
z
" clip-path="url(#pa124cf36ad)" style="fill: #324880"/>
    <path d="M 913.059277 376.464192 
L 913.195708 360.934761 
L 927.651238 347.721771 
L 927.469507 363.171042 
z
" clip-path="url(#pa124cf36ad)" style="fill: #648fff"/>
    <path d="M 913.059277 376.464192 
L 927.469507 363.171042 
L 953.378871 370.82013 
L 939.109199 384.235733 
z
" clip-path="url(#pa124cf36ad)" style="fill: #3f599f"/>
    <path d="M 887.247523 368.763704 
L 901.795165 355.591337 
L 902.229731 287.735675 
L 887.478605 300.550534 
z
" clip-path="url(#pa124cf36ad)" style="fill: #324880"/>
    <path d="M 861.670687 361.1333 
L 887.247523 368.763704 
L 887.478605 300.550534 
L 861.538492 293.126876 
z
" clip-path="url(#pa124cf36ad)" style="fill: #648fff"/>
    <path d="M 913.195708 360.934761 
L 939.331164 368.659751 
L 953.64521 355.324651 
L 927.651238 347.721771 
z
" clip-path="url(#pa124cf36ad)" style="fill: #577ddf"/>
    <path d="M 939.109199 384.235733 
L 953.378871 370.82013 
L 953.64521 355.324651 
L 939.331164 368.659751 
z
" clip-path="url(#pa124cf36ad)" style="fill: #324880"/>
    <path d="M 861.538492 293.126876 
L 887.478605 300.550534 
L 902.229731 287.735675 
L 876.427787 280.429559 
z
" clip-path="url(#pa124cf36ad)" style="fill: #577ddf"/>
    <path d="M 913.059277 376.464192 
L 939.109199 384.235733 
L 939.331164 368.659751 
L 913.195708 360.934761 
z
" clip-path="url(#pa124cf36ad)" style="fill: #648fff"/>
   </g>
   <g id="text_34">
    <!-- Imaginary Amplitude (ρ) -->
    <g transform="translate(735.696563 51.6) scale(0.21 -0.21)">
     <defs>
      <path id="DejaVuSans-49" d="M 628 4666 
L 1259 4666 
L 1259 0 
L 628 0 
L 628 4666 
z
" transform="scale(0.015625)"/>
      <path id="DejaVuSans-67" d="M 2906 1791 
Q 2906 2416 2648 2759 
Q 2391 3103 1925 3103 
Q 1463 3103 1205 2759 
Q 947 2416 947 1791 
Q 947 1169 1205 825 
Q 1463 481 1925 481 
Q 2391 481 2648 825 
Q 2906 1169 2906 1791 
z
M 3481 434 
Q 3481 -459 3084 -895 
Q 2688 -1331 1869 -1331 
Q 1566 -1331 1297 -1286 
Q 1028 -1241 775 -1147 
L 775 -588 
Q 1028 -725 1275 -790 
Q 1522 -856 1778 -856 
Q 2344 -856 2625 -561 
Q 2906 -266 2906 331 
L 2906 616 
Q 2728 306 2450 153 
Q 2172 0 1784 0 
Q 1141 0 747 490 
Q 353 981 353 1791 
Q 353 2603 747 3093 
Q 1141 3584 1784 3584 
Q 2172 3584 2450 3431 
Q 2728 3278 2906 2969 
L 2906 3500 
L 3481 3500 
L 3481 434 
z
" transform="scale(0.015625)"/>
      <path id="DejaVuSans-6e" d="M 3513 2113 
L 3513 0 
L 2938 0 
L 2938 2094 
Q 2938 2591 2744 2837 
Q 2550 3084 2163 3084 
Q 1697 3084 1428 2787 
Q 1159 2491 1159 1978 
L 1159 0 
L 581 0 
L 581 3500 
L 1159 3500 
L 1159 2956 
Q 1366 3272 1645 3428 
Q 1925 3584 2291 3584 
Q 2894 3584 3203 3211 
Q 3513 2838 3513 2113 
z
" transform="scale(0.015625)"/>
      <path id="DejaVuSans-72" d="M 2631 2963 
Q 2534 3019 2420 3045 
Q 2306 3072 2169 3072 
Q 1681 3072 1420 2755 
Q 1159 2438 1159 1844 
L 1159 0 
L 581 0 
L 581 3500 
L 1159 3500 
L 1159 2956 
Q 1341 3275 1631 3429 
Q 1922 3584 2338 3584 
Q 2397 3584 2469 3576 
Q 2541 3569 2628 3553 
L 2631 2963 
z
" transform="scale(0.015625)"/>
      <path id="DejaVuSans-79" d="M 2059 -325 
Q 1816 -950 1584 -1140 
Q 1353 -1331 966 -1331 
L 506 -1331 
L 506 -850 
L 844 -850 
Q 1081 -850 1212 -737 
Q 1344 -625 1503 -206 
L 1606 56 
L 191 3500 
L 800 3500 
L 1894 763 
L 2988 3500 
L 3597 3500 
L 2059 -325 
z
" transform="scale(0.015625)"/>
     </defs>
     <use xlink:href="#DejaVuSans-49"/>
     <use xlink:href="#DejaVuSans-6d" x="29.492188"/>
     <use xlink:href="#DejaVuSans-61" x="126.904297"/>
     <use xlink:href="#DejaVuSans-67" x="188.183594"/>
     <use xlink:href="#DejaVuSans-69" x="251.660156"/>
     <use xlink:href="#DejaVuSans-6e" x="279.443359"/>
     <use xlink:href="#DejaVuSans-61" x="342.822266"/>
     <use xlink:href="#DejaVuSans-72" x="404.101562"/>
     <use xlink:href="#DejaVuSans-79" x="445.214844"/>
     <use xlink:href="#DejaVuSans-20" x="504.394531"/>
     <use xlink:href="#DejaVuSans-41" x="536.181641"/>
     <use xlink:href="#DejaVuSans-6d" x="604.589844"/>
     <use xlink:href="#DejaVuSans-70" x="702.001953"/>
     <use xlink:href="#DejaVuSans-6c" x="765.478516"/>
     <use xlink:href="#DejaVuSans-69" x="793.261719"/>
     <use xlink:href="#DejaVuSans-74" x="821.044922"/>
     <use xlink:href="#DejaVuSans-75" x="860.253906"/>
     <use xlink:href="#DejaVuSans-64" x="923.632812"/>
     <use xlink:href="#DejaVuSans-65" x="987.109375"/>
     <use xlink:href="#DejaVuSans-20" x="1048.632812"/>
     <use xlink:href="#DejaVuSans-28" x="1080.419922"/>
     <use xlink:href="#DejaVuSans-3c1" x="1119.433594"/>
     <use xlink:href="#DejaVuSans-29" x="1182.910156"/>
    </g>
   </g>
  </g>
 </g>
 <defs>
  <clipPath id="pb53196c5d5">
   <rect x="28.8" y="57.6" width="518.4" height="518.4"/>
  </clipPath>
  <clipPath id="pa124cf36ad">
   <rect x="604.8" y="57.6" width="518.4" height="518.4"/>
  </clipPath>
 </defs>
</svg>
