<?xml version="1.0" encoding="utf-8" standalone="no"?>
<!DOCTYPE svg PUBLIC "-//W3C//DTD SVG 1.1//EN"
  "http://www.w3.org/Graphics/SVG/1.1/DTD/svg11.dtd">
<svg xmlns:xlink="http://www.w3.org/1999/xlink" width="1152pt" height="576pt" viewBox="0 0 1152 576" xmlns="http://www.w3.org/2000/svg" version="1.1">
 <metadata>
  <rdf:RDF xmlns:dc="http://purl.org/dc/elements/1.1/" xmlns:cc="http://creativecommons.org/ns#" xmlns:rdf="http://www.w3.org/1999/02/22-rdf-syntax-ns#">
   <cc:Work>
    <dc:type rdf:resource="http://purl.org/dc/dcmitype/StillImage"/>
    <dc:date>2024-11-04T22:02:53.033868</dc:date>
    <dc:format>image/svg+xml</dc:format>
    <dc:creator>
     <cc:Agent>
      <dc:title>Matplotlib v3.9.2, https://matplotlib.org/</dc:title>
     </cc:Agent>
    </dc:creator>
   </cc:Work>
  </rdf:RDF>
 </metadata>
 <defs>
  <style type="text/css">*{stroke-linejoin: round; stroke-linecap: butt}</style>
 </defs>
 <g id="figure_1">
  <g id="patch_1">
   <path d="M 0 576 
L 1152 576 
L 1152 0 
L 0 0 
z
" style="fill: #ffffff"/>
  </g>
  <g id="patch_2">
   <path d="M 28.8 576 
L 547.2 576 
L 547.2 57.6 
L 28.8 57.6 
z
" style="fill: #ffffff"/>
  </g>
  <g id="pane3d_1">
   <g id="patch_3">
    <path d="M 130.07018 436.456468 
L 253.494133 330.550231 
L 251.743197 126.70673 
L 122.643358 223.613571 
" style="fill: #f2f2f2; opacity: 0.5; stroke: #f2f2f2; stroke-linejoin: miter"/>
   </g>
  </g>
  <g id="pane3d_2">
   <g id="patch_4">
    <path d="M 253.494133 330.550231 
L 455.554898 390.069341 
L 462.583588 181.103065 
L 251.743197 126.70673 
" style="fill: #e6e6e6; opacity: 0.5; stroke: #e6e6e6; stroke-linejoin: miter"/>
   </g>
  </g>
  <g id="pane3d_3">
   <g id="patch_5">
    <path d="M 130.07018 436.456468 
L 340.912731 504.076731 
L 455.554898 390.069341 
L 253.494133 330.550231 
" style="fill: #ececec; opacity: 0.5; stroke: #ececec; stroke-linejoin: miter"/>
   </g>
  </g>
  <g id="grid3d_1">
   <g id="Line3DCollection_1">
    <path d="M 148.107564 442.241318 
L 270.817434 335.65299 
L 269.793879 131.363764 
" style="fill: none; stroke: #b0b0b0; stroke-width: 0.8"/>
    <path d="M 204.73198 460.40159 
L 325.154862 351.658648 
L 326.443642 145.979273 
" style="fill: none; stroke: #b0b0b0; stroke-width: 0.8"/>
    <path d="M 262.543747 478.942662 
L 380.560935 367.979086 
L 384.255639 160.894634 
" style="fill: none; stroke: #b0b0b0; stroke-width: 0.8"/>
    <path d="M 321.580608 497.876639 
L 437.067491 384.623682 
L 443.266006 176.119173 
" style="fill: none; stroke: #b0b0b0; stroke-width: 0.8"/>
   </g>
  </g>
  <g id="grid3d_2">
   <g id="Line3DCollection_2">
    <path d="M 134.777648 214.505149 
L 141.642324 426.526772 
L 351.684419 493.364686 
" style="fill: none; stroke: #b0b0b0; stroke-width: 0.8"/>
    <path d="M 171.455878 186.973191 
L 176.657452 396.481386 
L 384.248591 460.980823 
" style="fill: none; stroke: #b0b0b0; stroke-width: 0.8"/>
    <path d="M 206.831169 160.419264 
L 210.480196 367.459145 
L 415.662622 429.740732 
" style="fill: none; stroke: #b0b0b0; stroke-width: 0.8"/>
    <path d="M 240.971738 134.792162 
L 243.170446 339.408664 
L 445.986389 399.584868 
" style="fill: none; stroke: #b0b0b0; stroke-width: 0.8"/>
   </g>
  </g>
  <g id="grid3d_3">
   <g id="Line3DCollection_3">
    <path d="M 455.834285 381.763025 
L 253.424431 322.435604 
L 129.775306 428.005774 
" style="fill: none; stroke: #b0b0b0; stroke-width: 0.8"/>
    <path d="M 456.612735 358.619356 
L 253.230269 299.831256 
L 128.953559 404.45559 
" style="fill: none; stroke: #b0b0b0; stroke-width: 0.8"/>
    <path d="M 457.398756 335.250556 
L 253.034284 277.014815 
L 128.123598 380.66999 
" style="fill: none; stroke: #b0b0b0; stroke-width: 0.8"/>
    <path d="M 458.192462 311.653324 
L 252.836453 253.983282 
L 127.285298 356.645424 
" style="fill: none; stroke: #b0b0b0; stroke-width: 0.8"/>
    <path d="M 458.993963 287.824294 
L 252.636747 230.733602 
L 126.438533 332.378273 
" style="fill: none; stroke: #b0b0b0; stroke-width: 0.8"/>
    <path d="M 459.803377 263.760033 
L 252.435141 207.26266 
L 125.583175 307.864846 
" style="fill: none; stroke: #b0b0b0; stroke-width: 0.8"/>
    <path d="M 460.620821 239.457042 
L 252.231607 183.567283 
L 124.719092 283.101373 
" style="fill: none; stroke: #b0b0b0; stroke-width: 0.8"/>
    <path d="M 461.446415 214.91175 
L 252.026117 159.644236 
L 123.84615 258.084009 
" style="fill: none; stroke: #b0b0b0; stroke-width: 0.8"/>
    <path d="M 462.280281 190.120514 
L 251.818644 135.490221 
L 122.964212 232.808829 
" style="fill: none; stroke: #b0b0b0; stroke-width: 0.8"/>
   </g>
  </g>
  <g id="axis3d_1">
   <g id="line2d_1">
    <path d="M 130.07018 436.456468 
L 340.912731 504.076731 
" style="fill: none; stroke: #000000; stroke-width: 0.8; stroke-linecap: square"/>
   </g>
   <g id="xtick_1">
    <g id="line2d_2">
     <path d="M 149.15236 441.333787 
L 146.014717 444.059209 
" style="fill: none; stroke: #000000; stroke-width: 0.8; stroke-linecap: square"/>
    </g>
    <g id="text_1">
     <!-- 00 -->
     <g transform="translate(120.823877 485.959845) rotate(-45) scale(0.21 -0.21)">
      <defs>
       <path id="DejaVuSans-30" d="M 2034 4250 
Q 1547 4250 1301 3770 
Q 1056 3291 1056 2328 
Q 1056 1369 1301 889 
Q 1547 409 2034 409 
Q 2525 409 2770 889 
Q 3016 1369 3016 2328 
Q 3016 3291 2770 3770 
Q 2525 4250 2034 4250 
z
M 2034 4750 
Q 2819 4750 3233 4129 
Q 3647 3509 3647 2328 
Q 3647 1150 3233 529 
Q 2819 -91 2034 -91 
Q 1250 -91 836 529 
Q 422 1150 422 2328 
Q 422 3509 836 4129 
Q 1250 4750 2034 4750 
z
" transform="scale(0.015625)"/>
      </defs>
      <use xlink:href="#DejaVuSans-30"/>
      <use xlink:href="#DejaVuSans-30" x="63.623047"/>
     </g>
    </g>
   </g>
   <g id="xtick_2">
    <g id="line2d_3">
     <path d="M 205.757946 459.475133 
L 202.676818 462.257419 
" style="fill: none; stroke: #000000; stroke-width: 0.8; stroke-linecap: square"/>
    </g>
    <g id="text_2">
     <!-- 01 -->
     <g transform="translate(177.445975 504.27764) rotate(-45) scale(0.21 -0.21)">
      <defs>
       <path id="DejaVuSans-31" d="M 794 531 
L 1825 531 
L 1825 4091 
L 703 3866 
L 703 4441 
L 1819 4666 
L 2450 4666 
L 2450 531 
L 3481 531 
L 3481 0 
L 794 0 
L 794 531 
z
" transform="scale(0.015625)"/>
      </defs>
      <use xlink:href="#DejaVuSans-30"/>
      <use xlink:href="#DejaVuSans-31" x="63.623047"/>
     </g>
    </g>
   </g>
   <g id="xtick_3">
    <g id="line2d_4">
     <path d="M 263.54986 477.996682 
L 260.528321 480.837631 
" style="fill: none; stroke: #000000; stroke-width: 0.8; stroke-linecap: square"/>
    </g>
    <g id="text_3">
     <!-- 10 -->
     <g transform="translate(235.256492 522.9799) rotate(-45) scale(0.21 -0.21)">
      <use xlink:href="#DejaVuSans-31"/>
      <use xlink:href="#DejaVuSans-30" x="63.623047"/>
     </g>
    </g>
   </g>
   <g id="xtick_4">
    <g id="line2d_5">
     <path d="M 322.565792 496.910512 
L 319.607072 499.811999 
" style="fill: none; stroke: #000000; stroke-width: 0.8; stroke-linecap: square"/>
    </g>
    <g id="text_4">
     <!-- 11 -->
     <g transform="translate(294.293241 542.078858) rotate(-45) scale(0.21 -0.21)">
      <use xlink:href="#DejaVuSans-31"/>
      <use xlink:href="#DejaVuSans-31" x="63.623047"/>
     </g>
    </g>
   </g>
  </g>
  <g id="axis3d_2">
   <g id="line2d_6">
    <path d="M 455.554898 390.069341 
L 340.912731 504.076731 
" style="fill: none; stroke: #000000; stroke-width: 0.8; stroke-linecap: square"/>
   </g>
   <g id="xtick_5">
    <g id="line2d_7">
     <path d="M 349.939872 492.809551 
L 355.176743 494.475986 
" style="fill: none; stroke: #000000; stroke-width: 0.8; stroke-linecap: square"/>
    </g>
    <g id="text_5">
     <!-- 00 -->
     <g transform="translate(362.536948 505.408703) rotate(-337.5) scale(0.21 -0.21)">
      <use xlink:href="#DejaVuSans-30"/>
      <use xlink:href="#DejaVuSans-30" x="63.623047"/>
     </g>
    </g>
   </g>
   <g id="xtick_6">
    <g id="line2d_8">
     <path d="M 382.525541 460.445465 
L 387.697822 462.052514 
" style="fill: none; stroke: #000000; stroke-width: 0.8; stroke-linecap: square"/>
    </g>
    <g id="text_6">
     <!-- 01 -->
     <g transform="translate(394.927992 472.820772) rotate(-337.5) scale(0.21 -0.21)">
      <use xlink:href="#DejaVuSans-30"/>
      <use xlink:href="#DejaVuSans-31" x="63.623047"/>
     </g>
    </g>
   </g>
   <g id="xtick_7">
    <g id="line2d_9">
     <path d="M 413.960652 429.224112 
L 419.0696 430.774895 
" style="fill: none; stroke: #000000; stroke-width: 0.8; stroke-linecap: square"/>
    </g>
    <g id="text_7">
     <!-- 10 -->
     <g transform="translate(426.175291 441.383538) rotate(-337.5) scale(0.21 -0.21)">
      <use xlink:href="#DejaVuSans-31"/>
      <use xlink:href="#DejaVuSans-30" x="63.623047"/>
     </g>
    </g>
   </g>
   <g id="xtick_8">
    <g id="line2d_10">
     <path d="M 444.305087 399.08602 
L 449.351944 400.58344 
" style="fill: none; stroke: #000000; stroke-width: 0.8; stroke-linecap: square"/>
    </g>
    <g id="text_8">
     <!-- 11 -->
     <g transform="translate(456.338373 411.037112) rotate(-337.5) scale(0.21 -0.21)">
      <use xlink:href="#DejaVuSans-31"/>
      <use xlink:href="#DejaVuSans-31" x="63.623047"/>
     </g>
    </g>
   </g>
  </g>
  <g id="axis3d_3">
   <g id="line2d_11">
    <path d="M 455.554898 390.069341 
L 462.583588 181.103065 
" style="fill: none; stroke: #000000; stroke-width: 0.8; stroke-linecap: square"/>
   </g>
   <g id="xtick_9">
    <g id="line2d_12">
     <path d="M 454.156575 381.271278 
L 459.192638 382.747376 
" style="fill: none; stroke: #000000; stroke-width: 0.8; stroke-linecap: square"/>
    </g>
    <g id="text_9">
     <!-- 0.05 -->
     <g transform="translate(469.336738 375.480719) scale(0.21 -0.21)">
      <defs>
       <path id="DejaVuSans-2e" d="M 684 794 
L 1344 794 
L 1344 0 
L 684 0 
L 684 794 
z
" transform="scale(0.015625)"/>
       <path id="DejaVuSans-35" d="M 691 4666 
L 3169 4666 
L 3169 4134 
L 1269 4134 
L 1269 2991 
Q 1406 3038 1543 3061 
Q 1681 3084 1819 3084 
Q 2600 3084 3056 2656 
Q 3513 2228 3513 1497 
Q 3513 744 3044 326 
Q 2575 -91 1722 -91 
Q 1428 -91 1123 -41 
Q 819 9 494 109 
L 494 744 
Q 775 591 1075 516 
Q 1375 441 1709 441 
Q 2250 441 2565 725 
Q 2881 1009 2881 1497 
Q 2881 1984 2565 2268 
Q 2250 2553 1709 2553 
Q 1456 2553 1204 2497 
Q 953 2441 691 2322 
L 691 4666 
z
" transform="scale(0.015625)"/>
      </defs>
      <use xlink:href="#DejaVuSans-30"/>
      <use xlink:href="#DejaVuSans-2e" x="63.623047"/>
      <use xlink:href="#DejaVuSans-30" x="95.410156"/>
      <use xlink:href="#DejaVuSans-35" x="159.033203"/>
     </g>
    </g>
   </g>
   <g id="xtick_10">
    <g id="line2d_13">
     <path d="M 454.926678 358.131998 
L 459.987808 359.594928 
" style="fill: none; stroke: #000000; stroke-width: 0.8; stroke-linecap: square"/>
    </g>
    <g id="text_10">
     <!-- 0.10 -->
     <g transform="translate(470.179582 352.354146) scale(0.21 -0.21)">
      <use xlink:href="#DejaVuSans-30"/>
      <use xlink:href="#DejaVuSans-2e" x="63.623047"/>
      <use xlink:href="#DejaVuSans-31" x="95.410156"/>
      <use xlink:href="#DejaVuSans-30" x="159.033203"/>
     </g>
    </g>
   </g>
   <g id="xtick_11">
    <g id="line2d_14">
     <path d="M 455.704271 334.767695 
L 460.790718 336.21713 
" style="fill: none; stroke: #000000; stroke-width: 0.8; stroke-linecap: square"/>
    </g>
    <g id="text_11">
     <!-- 0.15 -->
     <g transform="translate(471.030615 329.002866) scale(0.21 -0.21)">
      <use xlink:href="#DejaVuSans-30"/>
      <use xlink:href="#DejaVuSans-2e" x="63.623047"/>
      <use xlink:href="#DejaVuSans-31" x="95.410156"/>
      <use xlink:href="#DejaVuSans-35" x="159.033203"/>
     </g>
    </g>
   </g>
   <g id="xtick_12">
    <g id="line2d_15">
     <path d="M 456.489462 311.175072 
L 461.60148 312.610677 
" style="fill: none; stroke: #000000; stroke-width: 0.8; stroke-linecap: square"/>
    </g>
    <g id="text_12">
     <!-- 0.20 -->
     <g transform="translate(471.889957 305.423588) scale(0.21 -0.21)">
      <defs>
       <path id="DejaVuSans-32" d="M 1228 531 
L 3431 531 
L 3431 0 
L 469 0 
L 469 531 
Q 828 903 1448 1529 
Q 2069 2156 2228 2338 
Q 2531 2678 2651 2914 
Q 2772 3150 2772 3378 
Q 2772 3750 2511 3984 
Q 2250 4219 1831 4219 
Q 1534 4219 1204 4116 
Q 875 4013 500 3803 
L 500 4441 
Q 881 4594 1212 4672 
Q 1544 4750 1819 4750 
Q 2544 4750 2975 4387 
Q 3406 4025 3406 3419 
Q 3406 3131 3298 2873 
Q 3191 2616 2906 2266 
Q 2828 2175 2409 1742 
Q 1991 1309 1228 531 
z
" transform="scale(0.015625)"/>
      </defs>
      <use xlink:href="#DejaVuSans-30"/>
      <use xlink:href="#DejaVuSans-2e" x="63.623047"/>
      <use xlink:href="#DejaVuSans-32" x="95.410156"/>
      <use xlink:href="#DejaVuSans-30" x="159.033203"/>
     </g>
    </g>
   </g>
   <g id="xtick_13">
    <g id="line2d_16">
     <path d="M 457.282364 287.350764 
L 462.420212 288.772198 
" style="fill: none; stroke: #000000; stroke-width: 0.8; stroke-linecap: square"/>
    </g>
    <g id="text_13">
     <!-- 0.25 -->
     <g transform="translate(472.757731 281.612955) scale(0.21 -0.21)">
      <use xlink:href="#DejaVuSans-30"/>
      <use xlink:href="#DejaVuSans-2e" x="63.623047"/>
      <use xlink:href="#DejaVuSans-32" x="95.410156"/>
      <use xlink:href="#DejaVuSans-35" x="159.033203"/>
     </g>
    </g>
   </g>
   <g id="xtick_14">
    <g id="line2d_17">
     <path d="M 458.083091 263.291342 
L 463.24703 264.698255 
" style="fill: none; stroke: #000000; stroke-width: 0.8; stroke-linecap: square"/>
    </g>
    <g id="text_14">
     <!-- 0.30 -->
     <g transform="translate(473.634061 257.567547) scale(0.21 -0.21)">
      <defs>
       <path id="DejaVuSans-33" d="M 2597 2516 
Q 3050 2419 3304 2112 
Q 3559 1806 3559 1356 
Q 3559 666 3084 287 
Q 2609 -91 1734 -91 
Q 1441 -91 1130 -33 
Q 819 25 488 141 
L 488 750 
Q 750 597 1062 519 
Q 1375 441 1716 441 
Q 2309 441 2620 675 
Q 2931 909 2931 1356 
Q 2931 1769 2642 2001 
Q 2353 2234 1838 2234 
L 1294 2234 
L 1294 2753 
L 1863 2753 
Q 2328 2753 2575 2939 
Q 2822 3125 2822 3475 
Q 2822 3834 2567 4026 
Q 2313 4219 1838 4219 
Q 1578 4219 1281 4162 
Q 984 4106 628 3988 
L 628 4550 
Q 988 4650 1302 4700 
Q 1616 4750 1894 4750 
Q 2613 4750 3031 4423 
Q 3450 4097 3450 3541 
Q 3450 3153 3228 2886 
Q 3006 2619 2597 2516 
z
" transform="scale(0.015625)"/>
      </defs>
      <use xlink:href="#DejaVuSans-30"/>
      <use xlink:href="#DejaVuSans-2e" x="63.623047"/>
      <use xlink:href="#DejaVuSans-33" x="95.410156"/>
      <use xlink:href="#DejaVuSans-30" x="159.033203"/>
     </g>
    </g>
   </g>
   <g id="xtick_15">
    <g id="line2d_18">
     <path d="M 458.89176 238.99331 
L 464.082056 240.385341 
" style="fill: none; stroke: #000000; stroke-width: 0.8; stroke-linecap: square"/>
    </g>
    <g id="text_15">
     <!-- 0.35 -->
     <g transform="translate(474.519075 233.283873) scale(0.21 -0.21)">
      <use xlink:href="#DejaVuSans-30"/>
      <use xlink:href="#DejaVuSans-2e" x="63.623047"/>
      <use xlink:href="#DejaVuSans-33" x="95.410156"/>
      <use xlink:href="#DejaVuSans-35" x="159.033203"/>
     </g>
    </g>
   </g>
   <g id="xtick_16">
    <g id="line2d_19">
     <path d="M 459.708488 214.453098 
L 464.925412 215.829882 
" style="fill: none; stroke: #000000; stroke-width: 0.8; stroke-linecap: square"/>
    </g>
    <g id="text_16">
     <!-- 0.40 -->
     <g transform="translate(475.412902 208.758374) scale(0.21 -0.21)">
      <defs>
       <path id="DejaVuSans-34" d="M 2419 4116 
L 825 1625 
L 2419 1625 
L 2419 4116 
z
M 2253 4666 
L 3047 4666 
L 3047 1625 
L 3713 1625 
L 3713 1100 
L 3047 1100 
L 3047 0 
L 2419 0 
L 2419 1100 
L 313 1100 
L 313 1709 
L 2253 4666 
z
" transform="scale(0.015625)"/>
      </defs>
      <use xlink:href="#DejaVuSans-30"/>
      <use xlink:href="#DejaVuSans-2e" x="63.623047"/>
      <use xlink:href="#DejaVuSans-34" x="95.410156"/>
      <use xlink:href="#DejaVuSans-30" x="159.033203"/>
     </g>
    </g>
   </g>
   <g id="xtick_17">
    <g id="line2d_20">
     <path d="M 460.533397 189.667069 
L 465.777224 191.028228 
" style="fill: none; stroke: #000000; stroke-width: 0.8; stroke-linecap: square"/>
    </g>
    <g id="text_17">
     <!-- 0.45 -->
     <g transform="translate(476.315675 183.987421) scale(0.21 -0.21)">
      <use xlink:href="#DejaVuSans-30"/>
      <use xlink:href="#DejaVuSans-2e" x="63.623047"/>
      <use xlink:href="#DejaVuSans-34" x="95.410156"/>
      <use xlink:href="#DejaVuSans-35" x="159.033203"/>
     </g>
    </g>
   </g>
  </g>
  <g id="axes_1">
   <g id="Poly3DCollection_1">
    <path d="M 239.194941 361.88186 
L 255.196325 347.993033 
L 282.04532 355.983427 
L 266.192351 370.007174 
z
" clip-path="url(#pbaa619bd70)" style="fill: #3f599f"/>
    <path d="M 255.196325 347.993033 
L 254.677358 285.219035 
L 281.875541 293.00725 
L 282.04532 355.983427 
z
" clip-path="url(#pbaa619bd70)" style="fill: #324880"/>
    <path d="M 239.194941 361.88186 
L 238.461191 298.757065 
L 254.677358 285.219035 
L 255.196325 347.993033 
z
" clip-path="url(#pbaa619bd70)" style="fill: #648fff"/>
    <path d="M 266.192351 370.007174 
L 282.04532 355.983427 
L 281.875541 293.00725 
L 265.811674 306.678526 
z
" clip-path="url(#pbaa619bd70)" style="fill: #324880"/>
    <path d="M 293.453769 378.211945 
L 309.154665 364.051304 
L 336.528167 372.197795 
L 320.983085 386.497345 
z
" clip-path="url(#pbaa619bd70)" style="fill: #3f599f"/>
    <path d="M 239.194941 361.88186 
L 266.192351 370.007174 
L 265.811674 306.678526 
L 238.461191 298.757065 
z
" clip-path="url(#pbaa619bd70)" style="fill: #648fff"/>
    <path d="M 309.154665 364.051304 
L 309.34445 299.679116 
L 337.087863 307.617564 
L 336.528167 372.197795 
z
" clip-path="url(#pbaa619bd70)" style="fill: #324880"/>
    <path d="M 238.461191 298.757065 
L 265.811674 306.678526 
L 281.875541 293.00725 
L 254.677358 285.219035 
z
" clip-path="url(#pbaa619bd70)" style="fill: #577ddf"/>
    <path d="M 293.453769 378.211945 
L 293.432778 313.478792 
L 309.34445 299.679116 
L 309.154665 364.051304 
z
" clip-path="url(#pbaa619bd70)" style="fill: #648fff"/>
    <path d="M 206.373229 390.370338 
L 222.922884 376.005625 
L 250.069905 384.269304 
L 233.671052 398.775947 
z
" clip-path="url(#pbaa619bd70)" style="fill: #3f599f"/>
    <path d="M 364.169706 380.424055 
L 364.458039 360.48519 
L 392.489935 368.728688 
L 392.083236 388.731261 
z
" clip-path="url(#pbaa619bd70)" style="fill: #324880"/>
    <path d="M 222.922884 376.005625 
L 222.230417 330.016239 
L 249.63609 338.131846 
L 250.069905 384.269304 
z
" clip-path="url(#pbaa619bd70)" style="fill: #324880"/>
    <path d="M 320.983085 386.497345 
L 336.528167 372.197795 
L 337.087863 307.617564 
L 321.336265 321.554444 
z
" clip-path="url(#pbaa619bd70)" style="fill: #324880"/>
    <path d="M 348.784269 394.864568 
L 349.010389 374.815176 
L 364.458039 360.48519 
L 364.169706 380.424055 
z
" clip-path="url(#pbaa619bd70)" style="fill: #648fff"/>
    <path d="M 206.373229 390.370338 
L 205.514444 344.124051 
L 222.230417 330.016239 
L 222.922884 376.005625 
z
" clip-path="url(#pbaa619bd70)" style="fill: #648fff"/>
    <path d="M 348.784269 394.864568 
L 364.169706 380.424055 
L 392.083236 388.731261 
L 376.861367 403.314831 
z
" clip-path="url(#pbaa619bd70)" style="fill: #3f599f"/>
    <path d="M 293.453769 378.211945 
L 320.983085 386.497345 
L 321.336265 321.554444 
L 293.432778 313.478792 
z
" clip-path="url(#pbaa619bd70)" style="fill: #648fff"/>
    <path d="M 293.432778 313.478792 
L 321.336265 321.554444 
L 337.087863 307.617564 
L 309.34445 299.679116 
z
" clip-path="url(#pbaa619bd70)" style="fill: #577ddf"/>
    <path d="M 349.010389 374.815176 
L 377.207256 383.201236 
L 392.489935 368.728688 
L 364.458039 360.48519 
z
" clip-path="url(#pbaa619bd70)" style="fill: #577ddf"/>
    <path d="M 376.861367 403.314831 
L 392.083236 388.731261 
L 392.489935 368.728688 
L 377.207256 383.201236 
z
" clip-path="url(#pbaa619bd70)" style="fill: #324880"/>
    <path d="M 233.671052 398.775947 
L 250.069905 384.269304 
L 249.63609 338.131846 
L 233.073793 352.380404 
z
" clip-path="url(#pbaa619bd70)" style="fill: #324880"/>
    <path d="M 348.784269 394.864568 
L 376.861367 403.314831 
L 377.207256 383.201236 
L 349.010389 374.815176 
z
" clip-path="url(#pbaa619bd70)" style="fill: #648fff"/>
    <path d="M 206.373229 390.370338 
L 233.671052 398.775947 
L 233.073793 352.380404 
L 205.514444 344.124051 
z
" clip-path="url(#pbaa619bd70)" style="fill: #648fff"/>
    <path d="M 205.514444 344.124051 
L 233.073793 352.380404 
L 249.63609 338.131846 
L 222.230417 330.016239 
z
" clip-path="url(#pbaa619bd70)" style="fill: #577ddf"/>
    <path d="M 261.240418 407.265171 
L 277.484664 392.614484 
L 305.17114 401.042376 
L 289.085401 415.839263 
z
" clip-path="url(#pbaa619bd70)" style="fill: #3f599f"/>
    <path d="M 277.484664 392.614484 
L 277.311475 345.457401 
L 305.272129 353.733 
L 305.17114 401.042376 
z
" clip-path="url(#pbaa619bd70)" style="fill: #324880"/>
    <path d="M 420.272794 397.120614 
L 420.999283 369.479203 
L 449.638549 377.863163 
L 448.742493 405.593338 
z
" clip-path="url(#pbaa619bd70)" style="fill: #324880"/>
    <path d="M 261.240418 407.265171 
L 260.903754 359.84387 
L 277.311475 345.457401 
L 277.484664 392.614484 
z
" clip-path="url(#pbaa619bd70)" style="fill: #648fff"/>
    <path d="M 405.218508 411.849379 
L 420.272794 397.120614 
L 448.742493 405.593338 
L 433.859903 420.469476 
z
" clip-path="url(#pbaa619bd70)" style="fill: #3f599f"/>
    <path d="M 405.218508 411.849379 
L 405.863244 384.053972 
L 420.999283 369.479203 
L 420.272794 397.120614 
z
" clip-path="url(#pbaa619bd70)" style="fill: #648fff"/>
    <path d="M 333.133395 409.554216 
L 333.250834 394.912075 
L 361.581024 403.462222 
L 361.375569 418.151265 
z
" clip-path="url(#pbaa619bd70)" style="fill: #324880"/>
    <path d="M 172.412217 419.847703 
L 189.538812 404.982219 
L 216.988621 413.533447 
L 200.015194 428.548366 
z
" clip-path="url(#pbaa619bd70)" style="fill: #3f599f"/>
    <path d="M 289.085401 415.839263 
L 305.17114 401.042376 
L 305.272129 353.733 
L 289.026076 368.264469 
z
" clip-path="url(#pbaa619bd70)" style="fill: #324880"/>
    <path d="M 433.859903 420.469476 
L 448.742493 405.593338 
L 449.638549 377.863163 
L 434.676283 392.584621 
z
" clip-path="url(#pbaa619bd70)" style="fill: #324880"/>
    <path d="M 405.863244 384.053972 
L 434.676283 392.584621 
L 449.638549 377.863163 
L 420.999283 369.479203 
z
" clip-path="url(#pbaa619bd70)" style="fill: #577ddf"/>
    <path d="M 317.210154 424.499503 
L 317.279145 409.775995 
L 333.250834 394.912075 
L 333.133395 409.554216 
z
" clip-path="url(#pbaa619bd70)" style="fill: #648fff"/>
    <path d="M 261.240418 407.265171 
L 289.085401 415.839263 
L 289.026076 368.264469 
L 260.903754 359.84387 
z
" clip-path="url(#pbaa619bd70)" style="fill: #648fff"/>
    <path d="M 405.218508 411.849379 
L 433.859903 420.469476 
L 434.676283 392.584621 
L 405.863244 384.053972 
z
" clip-path="url(#pbaa619bd70)" style="fill: #648fff"/>
    <path d="M 260.903754 359.84387 
L 289.026076 368.264469 
L 305.272129 353.733 
L 277.311475 345.457401 
z
" clip-path="url(#pbaa619bd70)" style="fill: #577ddf"/>
    <path d="M 317.210154 424.499503 
L 333.133395 409.554216 
L 361.375569 418.151265 
L 345.618915 433.247195 
z
" clip-path="url(#pbaa619bd70)" style="fill: #3f599f"/>
    <path d="M 317.279145 409.775995 
L 345.776969 418.476432 
L 361.581024 403.462222 
L 333.250834 394.912075 
z
" clip-path="url(#pbaa619bd70)" style="fill: #577ddf"/>
    <path d="M 345.618915 433.247195 
L 361.375569 418.151265 
L 361.581024 403.462222 
L 345.776969 418.476432 
z
" clip-path="url(#pbaa619bd70)" style="fill: #324880"/>
    <path d="M 317.210154 424.499503 
L 345.618915 433.247195 
L 345.776969 418.476432 
L 317.279145 409.775995 
z
" clip-path="url(#pbaa619bd70)" style="fill: #648fff"/>
    <path d="M 227.897566 437.337095 
L 244.71386 422.170476 
L 272.718695 430.894606 
L 256.063594 446.215236 
z
" clip-path="url(#pbaa619bd70)" style="fill: #3f599f"/>
    <path d="M 389.901886 426.834808 
L 390.308412 406.544354 
L 419.249313 415.250442 
L 418.716656 435.606158 
z
" clip-path="url(#pbaa619bd70)" style="fill: #324880"/>
    <path d="M 374.316008 442.083671 
L 374.658766 421.680001 
L 390.308412 406.544354 
L 389.901886 426.834808 
z
" clip-path="url(#pbaa619bd70)" style="fill: #648fff"/>
    <path d="M 374.316008 442.083671 
L 389.901886 426.834808 
L 418.716656 435.606158 
L 403.305844 451.010289 
z
" clip-path="url(#pbaa619bd70)" style="fill: #3f599f"/>
    <path d="M 374.658766 421.680001 
L 403.776285 430.540873 
L 419.249313 415.250442 
L 390.308412 406.544354 
z
" clip-path="url(#pbaa619bd70)" style="fill: #577ddf"/>
    <path d="M 403.305844 451.010289 
L 418.716656 435.606158 
L 419.249313 415.250442 
L 403.776285 430.540873 
z
" clip-path="url(#pbaa619bd70)" style="fill: #324880"/>
    <path d="M 137.251534 450.366354 
L 154.985772 434.97345 
L 182.74309 443.827499 
L 165.164354 459.377882 
z
" clip-path="url(#pbaa619bd70)" style="fill: #3f599f"/>
    <path d="M 189.538812 404.982219 
L 184.758461 189.308823 
L 213.433997 197.123988 
L 216.988621 413.533447 
z
" clip-path="url(#pbaa619bd70)" style="fill: #324880"/>
    <path d="M 374.316008 442.083671 
L 403.305844 451.010289 
L 403.776285 430.540873 
L 374.658766 421.680001 
z
" clip-path="url(#pbaa619bd70)" style="fill: #648fff"/>
    <path d="M 172.412217 419.847703 
L 166.805166 202.897004 
L 184.758461 189.308823 
L 189.538812 404.982219 
z
" clip-path="url(#pbaa619bd70)" style="fill: #648fff"/>
    <path d="M 284.517631 455.184158 
L 301.007375 439.707161 
L 329.584239 448.60949 
L 313.264115 464.245263 
z
" clip-path="url(#pbaa619bd70)" style="fill: #3f599f"/>
    <path d="M 301.007375 439.707161 
L 301.068363 391.709504 
L 329.937413 400.45578 
L 329.584239 448.60949 
z
" clip-path="url(#pbaa619bd70)" style="fill: #324880"/>
    <path d="M 284.517631 455.184158 
L 284.410108 406.915778 
L 301.068363 391.709504 
L 301.007375 439.707161 
z
" clip-path="url(#pbaa619bd70)" style="fill: #648fff"/>
    <path d="M 200.015194 428.548366 
L 216.988621 413.533447 
L 213.433997 197.123988 
L 195.647739 210.855033 
z
" clip-path="url(#pbaa619bd70)" style="fill: #324880"/>
    <path d="M 172.412217 419.847703 
L 200.015194 428.548366 
L 195.647739 210.855033 
L 166.805166 202.897004 
z
" clip-path="url(#pbaa619bd70)" style="fill: #648fff"/>
    <path d="M 193.364745 468.482252 
L 210.783848 452.771961 
L 239.11241 461.808226 
L 221.857174 477.680905 
z
" clip-path="url(#pbaa619bd70)" style="fill: #3f599f"/>
    <path d="M 244.71386 422.170476 
L 242.477379 211.331746 
L 271.722377 219.335256 
L 272.718695 430.894606 
z
" clip-path="url(#pbaa619bd70)" style="fill: #324880"/>
    <path d="M 313.264115 464.245263 
L 329.584239 448.60949 
L 329.937413 400.45578 
L 313.452279 415.819656 
z
" clip-path="url(#pbaa619bd70)" style="fill: #324880"/>
    <path d="M 227.897566 437.337095 
L 224.885925 225.247896 
L 242.477379 211.331746 
L 244.71386 422.170476 
z
" clip-path="url(#pbaa619bd70)" style="fill: #648fff"/>
    <path d="M 284.517631 455.184158 
L 313.264115 464.245263 
L 313.452279 415.819656 
L 284.410108 406.915778 
z
" clip-path="url(#pbaa619bd70)" style="fill: #648fff"/>
    <path d="M 284.410108 406.915778 
L 313.452279 415.819656 
L 329.937413 400.45578 
L 301.068363 391.709504 
z
" clip-path="url(#pbaa619bd70)" style="fill: #577ddf"/>
    <path d="M 342.30758 473.399978 
L 358.453712 457.602975 
L 387.620313 466.689021 
L 371.65265 482.649761 
z
" clip-path="url(#pbaa619bd70)" style="fill: #3f599f"/>
    <path d="M 358.453712 457.602975 
L 359.353035 390.904184 
L 388.939898 399.771564 
L 387.620313 466.689021 
z
" clip-path="url(#pbaa619bd70)" style="fill: #324880"/>
    <path d="M 256.063594 446.215236 
L 272.718695 430.894606 
L 271.722377 219.335256 
L 254.306687 233.399083 
z
" clip-path="url(#pbaa619bd70)" style="fill: #324880"/>
    <path d="M 342.30758 473.399978 
L 342.98413 406.321844 
L 359.353035 390.904184 
L 358.453712 457.602975 
z
" clip-path="url(#pbaa619bd70)" style="fill: #648fff"/>
    <path d="M 227.897566 437.337095 
L 256.063594 446.215236 
L 254.306687 233.399083 
L 224.885925 225.247896 
z
" clip-path="url(#pbaa619bd70)" style="fill: #648fff"/>
    <path d="M 154.985772 434.97345 
L 148.285067 208.698035 
L 177.342121 216.773333 
L 182.74309 443.827499 
z
" clip-path="url(#pbaa619bd70)" style="fill: #324880"/>
    <path d="M 250.646203 486.975314 
L 267.73323 470.937716 
L 296.650854 480.161881 
L 279.736485 496.366981 
z
" clip-path="url(#pbaa619bd70)" style="fill: #3f599f"/>
    <path d="M 267.73323 470.937716 
L 267.456318 423.293416 
L 296.667648 432.362168 
L 296.650854 480.161881 
z
" clip-path="url(#pbaa619bd70)" style="fill: #324880"/>
    <path d="M 137.251534 450.366354 
L 129.632258 222.739589 
L 148.285067 208.698035 
L 154.985772 434.97345 
z
" clip-path="url(#pbaa619bd70)" style="fill: #648fff"/>
    <path d="M 371.65265 482.649761 
L 387.620313 466.689021 
L 388.939898 399.771564 
L 372.75469 415.351323 
z
" clip-path="url(#pbaa619bd70)" style="fill: #324880"/>
    <path d="M 250.646203 486.975314 
L 250.191694 439.061417 
L 267.456318 423.293416 
L 267.73323 470.937716 
z
" clip-path="url(#pbaa619bd70)" style="fill: #648fff"/>
    <path d="M 342.30758 473.399978 
L 371.65265 482.649761 
L 372.75469 415.351323 
L 342.98413 406.321844 
z
" clip-path="url(#pbaa619bd70)" style="fill: #648fff"/>
    <path d="M 165.164354 459.377882 
L 182.74309 443.827499 
L 177.342121 216.773333 
L 158.859526 230.965503 
z
" clip-path="url(#pbaa619bd70)" style="fill: #324880"/>
    <path d="M 166.805166 202.897004 
L 195.647739 210.855033 
L 213.433997 197.123988 
L 184.758461 189.308823 
z
" clip-path="url(#pbaa619bd70)" style="fill: #577ddf"/>
    <path d="M 342.98413 406.321844 
L 372.75469 415.351323 
L 388.939898 399.771564 
L 359.353035 390.904184 
z
" clip-path="url(#pbaa619bd70)" style="fill: #577ddf"/>
    <path d="M 279.736485 496.366981 
L 296.650854 480.161881 
L 296.667648 432.362168 
L 279.579211 448.296549 
z
" clip-path="url(#pbaa619bd70)" style="fill: #324880"/>
    <path d="M 137.251534 450.366354 
L 165.164354 459.377882 
L 158.859526 230.965503 
L 129.632258 222.739589 
z
" clip-path="url(#pbaa619bd70)" style="fill: #648fff"/>
    <path d="M 210.783848 452.771961 
L 206.854978 233.03038 
L 236.491037 241.309867 
L 239.11241 461.808226 
z
" clip-path="url(#pbaa619bd70)" style="fill: #324880"/>
    <path d="M 250.646203 486.975314 
L 279.736485 496.366981 
L 279.579211 448.296549 
L 250.191694 439.061417 
z
" clip-path="url(#pbaa619bd70)" style="fill: #648fff"/>
    <path d="M 250.191694 439.061417 
L 279.579211 448.296549 
L 296.667648 432.362168 
L 267.456318 423.293416 
z
" clip-path="url(#pbaa619bd70)" style="fill: #577ddf"/>
    <path d="M 193.364745 468.482252 
L 188.578992 247.427495 
L 206.854978 233.03038 
L 210.783848 452.771961 
z
" clip-path="url(#pbaa619bd70)" style="fill: #648fff"/>
    <path d="M 309.132774 505.857441 
L 325.869923 489.482202 
L 355.395175 498.900188 
L 338.839925 515.448262 
z
" clip-path="url(#pbaa619bd70)" style="fill: #3f599f"/>
    <path d="M 325.869923 489.482202 
L 326.307149 423.273219 
L 356.255202 432.473492 
L 355.395175 498.900188 
z
" clip-path="url(#pbaa619bd70)" style="fill: #324880"/>
    <path d="M 309.132774 505.857441 
L 309.334752 439.270792 
L 326.307149 423.273219 
L 325.869923 489.482202 
z
" clip-path="url(#pbaa619bd70)" style="fill: #648fff"/>
    <path d="M 221.857174 477.680905 
L 239.11241 461.808226 
L 236.491037 241.309867 
L 218.39431 255.862827 
z
" clip-path="url(#pbaa619bd70)" style="fill: #324880"/>
    <path d="M 224.885925 225.247896 
L 254.306687 233.399083 
L 271.722377 219.335256 
L 242.477379 211.331746 
z
" clip-path="url(#pbaa619bd70)" style="fill: #577ddf"/>
    <path d="M 193.364745 468.482252 
L 221.857174 477.680905 
L 218.39431 255.862827 
L 188.578992 247.427495 
z
" clip-path="url(#pbaa619bd70)" style="fill: #648fff"/>
    <path d="M 338.839925 515.448262 
L 355.395175 498.900188 
L 356.255202 432.473492 
L 339.469984 448.642334 
z
" clip-path="url(#pbaa619bd70)" style="fill: #324880"/>
    <path d="M 309.132774 505.857441 
L 338.839925 515.448262 
L 339.469984 448.642334 
L 309.334752 439.270792 
z
" clip-path="url(#pbaa619bd70)" style="fill: #648fff"/>
    <path d="M 309.334752 439.270792 
L 339.469984 448.642334 
L 356.255202 432.473492 
L 326.307149 423.273219 
z
" clip-path="url(#pbaa619bd70)" style="fill: #577ddf"/>
    <path d="M 129.632258 222.739589 
L 158.859526 230.965503 
L 177.342121 216.773333 
L 148.285067 208.698035 
z
" clip-path="url(#pbaa619bd70)" style="fill: #577ddf"/>
    <path d="M 188.578992 247.427495 
L 218.39431 255.862827 
L 236.491037 241.309867 
L 206.854978 233.03038 
z
" clip-path="url(#pbaa619bd70)" style="fill: #577ddf"/>
   </g>
   <g id="text_18">
    <!-- Real Amplitude (ρ) -->
    <g transform="translate(190.023516 51.6) scale(0.21 -0.21)">
     <defs>
      <path id="DejaVuSans-52" d="M 2841 2188 
Q 3044 2119 3236 1894 
Q 3428 1669 3622 1275 
L 4263 0 
L 3584 0 
L 2988 1197 
Q 2756 1666 2539 1819 
Q 2322 1972 1947 1972 
L 1259 1972 
L 1259 0 
L 628 0 
L 628 4666 
L 2053 4666 
Q 2853 4666 3247 4331 
Q 3641 3997 3641 3322 
Q 3641 2881 3436 2590 
Q 3231 2300 2841 2188 
z
M 1259 4147 
L 1259 2491 
L 2053 2491 
Q 2509 2491 2742 2702 
Q 2975 2913 2975 3322 
Q 2975 3731 2742 3939 
Q 2509 4147 2053 4147 
L 1259 4147 
z
" transform="scale(0.015625)"/>
      <path id="DejaVuSans-65" d="M 3597 1894 
L 3597 1613 
L 953 1613 
Q 991 1019 1311 708 
Q 1631 397 2203 397 
Q 2534 397 2845 478 
Q 3156 559 3463 722 
L 3463 178 
Q 3153 47 2828 -22 
Q 2503 -91 2169 -91 
Q 1331 -91 842 396 
Q 353 884 353 1716 
Q 353 2575 817 3079 
Q 1281 3584 2069 3584 
Q 2775 3584 3186 3129 
Q 3597 2675 3597 1894 
z
M 3022 2063 
Q 3016 2534 2758 2815 
Q 2500 3097 2075 3097 
Q 1594 3097 1305 2825 
Q 1016 2553 972 2059 
L 3022 2063 
z
" transform="scale(0.015625)"/>
      <path id="DejaVuSans-61" d="M 2194 1759 
Q 1497 1759 1228 1600 
Q 959 1441 959 1056 
Q 959 750 1161 570 
Q 1363 391 1709 391 
Q 2188 391 2477 730 
Q 2766 1069 2766 1631 
L 2766 1759 
L 2194 1759 
z
M 3341 1997 
L 3341 0 
L 2766 0 
L 2766 531 
Q 2569 213 2275 61 
Q 1981 -91 1556 -91 
Q 1019 -91 701 211 
Q 384 513 384 1019 
Q 384 1609 779 1909 
Q 1175 2209 1959 2209 
L 2766 2209 
L 2766 2266 
Q 2766 2663 2505 2880 
Q 2244 3097 1772 3097 
Q 1472 3097 1187 3025 
Q 903 2953 641 2809 
L 641 3341 
Q 956 3463 1253 3523 
Q 1550 3584 1831 3584 
Q 2591 3584 2966 3190 
Q 3341 2797 3341 1997 
z
" transform="scale(0.015625)"/>
      <path id="DejaVuSans-6c" d="M 603 4863 
L 1178 4863 
L 1178 0 
L 603 0 
L 603 4863 
z
" transform="scale(0.015625)"/>
      <path id="DejaVuSans-20" transform="scale(0.015625)"/>
      <path id="DejaVuSans-41" d="M 2188 4044 
L 1331 1722 
L 3047 1722 
L 2188 4044 
z
M 1831 4666 
L 2547 4666 
L 4325 0 
L 3669 0 
L 3244 1197 
L 1141 1197 
L 716 0 
L 50 0 
L 1831 4666 
z
" transform="scale(0.015625)"/>
      <path id="DejaVuSans-6d" d="M 3328 2828 
Q 3544 3216 3844 3400 
Q 4144 3584 4550 3584 
Q 5097 3584 5394 3201 
Q 5691 2819 5691 2113 
L 5691 0 
L 5113 0 
L 5113 2094 
Q 5113 2597 4934 2840 
Q 4756 3084 4391 3084 
Q 3944 3084 3684 2787 
Q 3425 2491 3425 1978 
L 3425 0 
L 2847 0 
L 2847 2094 
Q 2847 2600 2669 2842 
Q 2491 3084 2119 3084 
Q 1678 3084 1418 2786 
Q 1159 2488 1159 1978 
L 1159 0 
L 581 0 
L 581 3500 
L 1159 3500 
L 1159 2956 
Q 1356 3278 1631 3431 
Q 1906 3584 2284 3584 
Q 2666 3584 2933 3390 
Q 3200 3197 3328 2828 
z
" transform="scale(0.015625)"/>
      <path id="DejaVuSans-70" d="M 1159 525 
L 1159 -1331 
L 581 -1331 
L 581 3500 
L 1159 3500 
L 1159 2969 
Q 1341 3281 1617 3432 
Q 1894 3584 2278 3584 
Q 2916 3584 3314 3078 
Q 3713 2572 3713 1747 
Q 3713 922 3314 415 
Q 2916 -91 2278 -91 
Q 1894 -91 1617 61 
Q 1341 213 1159 525 
z
M 3116 1747 
Q 3116 2381 2855 2742 
Q 2594 3103 2138 3103 
Q 1681 3103 1420 2742 
Q 1159 2381 1159 1747 
Q 1159 1113 1420 752 
Q 1681 391 2138 391 
Q 2594 391 2855 752 
Q 3116 1113 3116 1747 
z
" transform="scale(0.015625)"/>
      <path id="DejaVuSans-69" d="M 603 3500 
L 1178 3500 
L 1178 0 
L 603 0 
L 603 3500 
z
M 603 4863 
L 1178 4863 
L 1178 4134 
L 603 4134 
L 603 4863 
z
" transform="scale(0.015625)"/>
      <path id="DejaVuSans-74" d="M 1172 4494 
L 1172 3500 
L 2356 3500 
L 2356 3053 
L 1172 3053 
L 1172 1153 
Q 1172 725 1289 603 
Q 1406 481 1766 481 
L 2356 481 
L 2356 0 
L 1766 0 
Q 1100 0 847 248 
Q 594 497 594 1153 
L 594 3053 
L 172 3053 
L 172 3500 
L 594 3500 
L 594 4494 
L 1172 4494 
z
" transform="scale(0.015625)"/>
      <path id="DejaVuSans-75" d="M 544 1381 
L 544 3500 
L 1119 3500 
L 1119 1403 
Q 1119 906 1312 657 
Q 1506 409 1894 409 
Q 2359 409 2629 706 
Q 2900 1003 2900 1516 
L 2900 3500 
L 3475 3500 
L 3475 0 
L 2900 0 
L 2900 538 
Q 2691 219 2414 64 
Q 2138 -91 1772 -91 
Q 1169 -91 856 284 
Q 544 659 544 1381 
z
M 1991 3584 
L 1991 3584 
z
" transform="scale(0.015625)"/>
      <path id="DejaVuSans-64" d="M 2906 2969 
L 2906 4863 
L 3481 4863 
L 3481 0 
L 2906 0 
L 2906 525 
Q 2725 213 2448 61 
Q 2172 -91 1784 -91 
Q 1150 -91 751 415 
Q 353 922 353 1747 
Q 353 2572 751 3078 
Q 1150 3584 1784 3584 
Q 2172 3584 2448 3432 
Q 2725 3281 2906 2969 
z
M 947 1747 
Q 947 1113 1208 752 
Q 1469 391 1925 391 
Q 2381 391 2643 752 
Q 2906 1113 2906 1747 
Q 2906 2381 2643 2742 
Q 2381 3103 1925 3103 
Q 1469 3103 1208 2742 
Q 947 2381 947 1747 
z
" transform="scale(0.015625)"/>
      <path id="DejaVuSans-28" d="M 1984 4856 
Q 1566 4138 1362 3434 
Q 1159 2731 1159 2009 
Q 1159 1288 1364 580 
Q 1569 -128 1984 -844 
L 1484 -844 
Q 1016 -109 783 600 
Q 550 1309 550 2009 
Q 550 2706 781 3412 
Q 1013 4119 1484 4856 
L 1984 4856 
z
" transform="scale(0.015625)"/>
      <path id="DejaVuSans-3c1" d="M 863 2875 
Q 1053 3194 1525 3475 
Q 1709 3584 2278 3584 
Q 2916 3584 3314 3078 
Q 3713 2572 3713 1747 
Q 3713 922 3314 415 
Q 2916 -91 2278 -91 
Q 1894 -91 1617 61 
Q 1341 213 1159 525 
L 1159 -1331 
L 581 -1331 
L 581 1716 
Q 581 2438 863 2875 
z
M 3116 1747 
Q 3116 2381 2855 2742 
Q 2594 3103 2138 3103 
Q 1681 3103 1420 2742 
Q 1159 2381 1159 1747 
Q 1159 1113 1420 752 
Q 1681 391 2138 391 
Q 2594 391 2855 752 
Q 3116 1113 3116 1747 
z
" transform="scale(0.015625)"/>
      <path id="DejaVuSans-29" d="M 513 4856 
L 1013 4856 
Q 1481 4119 1714 3412 
Q 1947 2706 1947 2009 
Q 1947 1309 1714 600 
Q 1481 -109 1013 -844 
L 513 -844 
Q 928 -128 1133 580 
Q 1338 1288 1338 2009 
Q 1338 2731 1133 3434 
Q 928 4138 513 4856 
z
" transform="scale(0.015625)"/>
     </defs>
     <use xlink:href="#DejaVuSans-52"/>
     <use xlink:href="#DejaVuSans-65" x="64.982422"/>
     <use xlink:href="#DejaVuSans-61" x="126.505859"/>
     <use xlink:href="#DejaVuSans-6c" x="187.785156"/>
     <use xlink:href="#DejaVuSans-20" x="215.568359"/>
     <use xlink:href="#DejaVuSans-41" x="247.355469"/>
     <use xlink:href="#DejaVuSans-6d" x="315.763672"/>
     <use xlink:href="#DejaVuSans-70" x="413.175781"/>
     <use xlink:href="#DejaVuSans-6c" x="476.652344"/>
     <use xlink:href="#DejaVuSans-69" x="504.435547"/>
     <use xlink:href="#DejaVuSans-74" x="532.21875"/>
     <use xlink:href="#DejaVuSans-75" x="571.427734"/>
     <use xlink:href="#DejaVuSans-64" x="634.806641"/>
     <use xlink:href="#DejaVuSans-65" x="698.283203"/>
     <use xlink:href="#DejaVuSans-20" x="759.806641"/>
     <use xlink:href="#DejaVuSans-28" x="791.59375"/>
     <use xlink:href="#DejaVuSans-3c1" x="830.607422"/>
     <use xlink:href="#DejaVuSans-29" x="894.083984"/>
    </g>
   </g>
  </g>
  <g id="patch_6">
   <path d="M 604.8 576 
L 1123.2 576 
L 1123.2 57.6 
L 604.8 57.6 
z
" style="fill: #ffffff"/>
  </g>
  <g id="pane3d_4">
   <g id="patch_7">
    <path d="M 706.07018 436.456468 
L 829.494133 330.550231 
L 827.743197 126.70673 
L 698.643358 223.613571 
" style="fill: #f2f2f2; opacity: 0.5; stroke: #f2f2f2; stroke-linejoin: miter"/>
   </g>
  </g>
  <g id="pane3d_5">
   <g id="patch_8">
    <path d="M 829.494133 330.550231 
L 1031.554898 390.069341 
L 1038.583588 181.103065 
L 827.743197 126.70673 
" style="fill: #e6e6e6; opacity: 0.5; stroke: #e6e6e6; stroke-linejoin: miter"/>
   </g>
  </g>
  <g id="pane3d_6">
   <g id="patch_9">
    <path d="M 706.07018 436.456468 
L 916.912731 504.076731 
L 1031.554898 390.069341 
L 829.494133 330.550231 
" style="fill: #ececec; opacity: 0.5; stroke: #ececec; stroke-linejoin: miter"/>
   </g>
  </g>
  <g id="grid3d_4">
   <g id="Line3DCollection_4">
    <path d="M 734.635886 445.617904 
L 856.925726 338.630493 
L 856.328796 134.081748 
" style="fill: none; stroke: #b0b0b0; stroke-width: 0.8"/>
    <path d="M 784.310046 461.549127 
L 904.58611 352.669358 
L 906.022474 146.902603 
" style="fill: none; stroke: #b0b0b0; stroke-width: 0.8"/>
    <path d="M 834.89502 477.772462 
L 953.066152 366.949661 
L 956.607663 159.953465 
" style="fill: none; stroke: #b0b0b0; stroke-width: 0.8"/>
    <path d="M 886.41609 494.296016 
L 1002.38718 381.477685 
L 1008.108569 173.24058 
" style="fill: none; stroke: #b0b0b0; stroke-width: 0.8"/>
   </g>
  </g>
  <g id="grid3d_5">
   <g id="Line3DCollection_5">
    <path d="M 717.757365 209.265931 
L 724.301379 420.812846 
L 933.880707 487.202708 
" style="fill: none; stroke: #b0b0b0; stroke-width: 0.8"/>
    <path d="M 749.704273 185.285468 
L 754.805664 394.638072 
L 962.24502 458.995448 
" style="fill: none; stroke: #b0b0b0; stroke-width: 0.8"/>
    <path d="M 780.65707 162.051218 
L 784.400054 369.24405 
L 989.731787 431.660877 
" style="fill: none; stroke: #b0b0b0; stroke-width: 0.8"/>
    <path d="M 810.661448 139.528886 
L 813.124663 344.596362 
L 1016.38111 405.159111 
" style="fill: none; stroke: #b0b0b0; stroke-width: 0.8"/>
   </g>
  </g>
  <g id="grid3d_6">
   <g id="Line3DCollection_6">
    <path d="M 1032.698057 356.082694 
L 829.208992 297.354173 
L 704.863478 401.873993 
" style="fill: none; stroke: #b0b0b0; stroke-width: 0.8"/>
    <path d="M 1033.920489 319.739201 
L 828.904234 261.874416 
L 703.572577 364.878463 
" style="fill: none; stroke: #b0b0b0; stroke-width: 0.8"/>
    <path d="M 1035.161546 282.841991 
L 828.595 225.87346 
L 702.261458 327.303529 
" style="fill: none; stroke: #b0b0b0; stroke-width: 0.8"/>
    <path d="M 1036.421656 245.378314 
L 828.28119 189.339735 
L 700.929643 289.135474 
" style="fill: none; stroke: #b0b0b0; stroke-width: 0.8"/>
    <path d="M 1037.701262 207.335024 
L 827.962701 152.261326 
L 699.576638 250.360141 
" style="fill: none; stroke: #b0b0b0; stroke-width: 0.8"/>
   </g>
  </g>
  <g id="axis3d_4">
   <g id="line2d_21">
    <path d="M 706.07018 436.456468 
L 916.912731 504.076731 
" style="fill: none; stroke: #000000; stroke-width: 0.8; stroke-linecap: square"/>
   </g>
   <g id="xtick_18">
    <g id="line2d_22">
     <path d="M 735.677227 444.706868 
L 732.549953 447.442819 
" style="fill: none; stroke: #000000; stroke-width: 0.8; stroke-linecap: square"/>
    </g>
    <g id="text_19">
     <!-- 00 -->
     <g transform="translate(707.351686 489.365693) rotate(-45) scale(0.21 -0.21)">
      <use xlink:href="#DejaVuSans-30"/>
      <use xlink:href="#DejaVuSans-30" x="63.623047"/>
     </g>
    </g>
   </g>
   <g id="xtick_19">
    <g id="line2d_23">
     <path d="M 785.334802 460.621468 
L 782.257306 463.407368 
" style="fill: none; stroke: #000000; stroke-width: 0.8; stroke-linecap: square"/>
    </g>
    <g id="text_20">
     <!-- 01 -->
     <g transform="translate(757.023931 505.435143) rotate(-45) scale(0.21 -0.21)">
      <use xlink:href="#DejaVuSans-30"/>
      <use xlink:href="#DejaVuSans-31" x="63.623047"/>
     </g>
    </g>
   </g>
   <g id="xtick_20">
    <g id="line2d_24">
     <path d="M 835.902405 476.82772 
L 832.877048 479.664949 
" style="fill: none; stroke: #000000; stroke-width: 0.8; stroke-linecap: square"/>
    </g>
    <g id="text_21">
     <!-- 10 -->
     <g transform="translate(807.60781 521.799516) rotate(-45) scale(0.21 -0.21)">
      <use xlink:href="#DejaVuSans-31"/>
      <use xlink:href="#DejaVuSans-30" x="63.623047"/>
     </g>
    </g>
   </g>
   <g id="xtick_21">
    <g id="line2d_25">
     <path d="M 887.405283 493.333715 
L 884.434531 496.223705 
" style="fill: none; stroke: #000000; stroke-width: 0.8; stroke-linecap: square"/>
    </g>
    <g id="text_22">
     <!-- 11 -->
     <g transform="translate(859.128654 538.467006) rotate(-45) scale(0.21 -0.21)">
      <use xlink:href="#DejaVuSans-31"/>
      <use xlink:href="#DejaVuSans-31" x="63.623047"/>
     </g>
    </g>
   </g>
  </g>
  <g id="axis3d_5">
   <g id="line2d_26">
    <path d="M 1031.554898 390.069341 
L 916.912731 504.076731 
" style="fill: none; stroke: #000000; stroke-width: 0.8; stroke-linecap: square"/>
   </g>
   <g id="xtick_22">
    <g id="line2d_27">
     <path d="M 932.140222 486.651363 
L 937.364886 488.306415 
" style="fill: none; stroke: #000000; stroke-width: 0.8; stroke-linecap: square"/>
    </g>
    <g id="text_23">
     <!-- 00 -->
     <g transform="translate(944.70027 499.207917) rotate(-337.5) scale(0.21 -0.21)">
      <use xlink:href="#DejaVuSans-30"/>
      <use xlink:href="#DejaVuSans-30" x="63.623047"/>
     </g>
    </g>
   </g>
   <g id="xtick_23">
    <g id="line2d_28">
     <path d="M 960.5233 458.46129 
L 965.691587 460.064734 
" style="fill: none; stroke: #000000; stroke-width: 0.8; stroke-linecap: square"/>
    </g>
    <g id="text_24">
     <!-- 01 -->
     <g transform="translate(972.913817 470.822876) rotate(-337.5) scale(0.21 -0.21)">
      <use xlink:href="#DejaVuSans-30"/>
      <use xlink:href="#DejaVuSans-31" x="63.623047"/>
     </g>
    </g>
   </g>
   <g id="xtick_24">
    <g id="line2d_29">
     <path d="M 988.028511 431.143114 
L 993.141381 432.697327 
" style="fill: none; stroke: #000000; stroke-width: 0.8; stroke-linecap: square"/>
    </g>
    <g id="text_25">
     <!-- 10 -->
     <g transform="translate(1000.254695 443.315808) rotate(-337.5) scale(0.21 -0.21)">
      <use xlink:href="#DejaVuSans-31"/>
      <use xlink:href="#DejaVuSans-30" x="63.623047"/>
     </g>
    </g>
   </g>
   <g id="xtick_25">
    <g id="line2d_30">
     <path d="M 1014.695964 404.657001 
L 1019.754368 406.164215 
" style="fill: none; stroke: #000000; stroke-width: 0.8; stroke-linecap: square"/>
    </g>
    <g id="text_26">
     <!-- 11 -->
     <g transform="translate(1026.762776 416.646599) rotate(-337.5) scale(0.21 -0.21)">
      <use xlink:href="#DejaVuSans-31"/>
      <use xlink:href="#DejaVuSans-31" x="63.623047"/>
     </g>
    </g>
   </g>
  </g>
  <g id="axis3d_6">
   <g id="line2d_31">
    <path d="M 1031.554898 390.069341 
L 1038.583588 181.103065 
" style="fill: none; stroke: #000000; stroke-width: 0.8; stroke-linecap: square"/>
   </g>
   <g id="xtick_26">
    <g id="line2d_32">
     <path d="M 1031.011085 355.595821 
L 1036.074963 357.057296 
" style="fill: none; stroke: #000000; stroke-width: 0.8; stroke-linecap: square"/>
    </g>
    <g id="text_27">
     <!-- 0.0 -->
     <g transform="translate(1046.271961 349.819374) scale(0.21 -0.21)">
      <use xlink:href="#DejaVuSans-30"/>
      <use xlink:href="#DejaVuSans-2e" x="63.623047"/>
      <use xlink:href="#DejaVuSans-30" x="95.410156"/>
     </g>
    </g>
   </g>
   <g id="xtick_27">
    <g id="line2d_33">
     <path d="M 1032.220407 319.259361 
L 1037.323662 320.699729 
" style="fill: none; stroke: #000000; stroke-width: 0.8; stroke-linecap: square"/>
    </g>
    <g id="text_28">
     <!-- 0.1 -->
     <g transform="translate(1047.595494 313.503283) scale(0.21 -0.21)">
      <use xlink:href="#DejaVuSans-30"/>
      <use xlink:href="#DejaVuSans-2e" x="63.623047"/>
      <use xlink:href="#DejaVuSans-31" x="95.410156"/>
     </g>
    </g>
   </g>
   <g id="xtick_28">
    <g id="line2d_34">
     <path d="M 1033.448148 282.369457 
L 1038.591397 283.787902 
" style="fill: none; stroke: #000000; stroke-width: 0.8; stroke-linecap: square"/>
    </g>
    <g id="text_29">
     <!-- 0.2 -->
     <g transform="translate(1048.939169 276.634533) scale(0.21 -0.21)">
      <use xlink:href="#DejaVuSans-30"/>
      <use xlink:href="#DejaVuSans-2e" x="63.623047"/>
      <use xlink:href="#DejaVuSans-32" x="95.410156"/>
     </g>
    </g>
   </g>
   <g id="xtick_29">
    <g id="line2d_35">
     <path d="M 1034.694733 244.913367 
L 1039.878607 246.309044 
" style="fill: none; stroke: #000000; stroke-width: 0.8; stroke-linecap: square"/>
    </g>
    <g id="text_30">
     <!-- 0.3 -->
     <g transform="translate(1050.303448 239.200412) scale(0.21 -0.21)">
      <use xlink:href="#DejaVuSans-30"/>
      <use xlink:href="#DejaVuSans-2e" x="63.623047"/>
      <use xlink:href="#DejaVuSans-33" x="95.410156"/>
     </g>
    </g>
   </g>
   <g id="xtick_30">
    <g id="line2d_36">
     <path d="M 1035.960598 206.877956 
L 1041.185743 208.249988 
" style="fill: none; stroke: #000000; stroke-width: 0.8; stroke-linecap: square"/>
    </g>
    <g id="text_31">
     <!-- 0.4 -->
     <g transform="translate(1051.68881 201.187816) scale(0.21 -0.21)">
      <use xlink:href="#DejaVuSans-30"/>
      <use xlink:href="#DejaVuSans-2e" x="63.623047"/>
      <use xlink:href="#DejaVuSans-34" x="95.410156"/>
     </g>
    </g>
   </g>
  </g>
  <g id="axes_2">
   <g id="Poly3DCollection_2">
    <path d="M 835.623504 309.83338 
L 835.866748 343.199915 
L 859.572276 350.22848 
L 859.492792 316.767794 
z
" clip-path="url(#p5b2898790e)" style="fill: #648fff"/>
    <path d="M 821.791079 355.411799 
L 845.612317 362.544934 
L 859.572276 350.22848 
L 835.866748 343.199915 
z
" clip-path="url(#p5b2898790e)" style="fill: #577ddf"/>
    <path d="M 821.447861 321.881942 
L 821.791079 355.411799 
L 835.866748 343.199915 
L 835.623504 309.83338 
z
" clip-path="url(#p5b2898790e)" style="fill: #324880"/>
    <path d="M 845.434462 328.920249 
L 859.492792 316.767794 
L 859.572276 350.22848 
L 845.612317 362.544934 
z
" clip-path="url(#p5b2898790e)" style="fill: #648fff"/>
    <path d="M 821.447861 321.881942 
L 835.623504 309.83338 
L 859.492792 316.767794 
L 845.434462 328.920249 
z
" clip-path="url(#p5b2898790e)" style="fill: #3f599f"/>
    <path d="M 821.447861 321.881942 
L 845.434462 328.920249 
L 845.612317 362.544934 
L 821.791079 355.411799 
z
" clip-path="url(#p5b2898790e)" style="fill: #324880"/>
    <path d="M 883.567575 323.761908 
L 883.493156 352.431626 
L 907.631307 359.56745 
L 907.850519 330.816496 
z
" clip-path="url(#p5b2898790e)" style="fill: #648fff"/>
    <path d="M 869.637334 364.830241 
L 893.896512 372.073261 
L 907.631307 359.56745 
L 883.493156 352.431626 
z
" clip-path="url(#p5b2898790e)" style="fill: #577ddf"/>
    <path d="M 869.62912 336.019606 
L 869.637334 364.830241 
L 883.493156 352.431626 
L 883.567575 323.761908 
z
" clip-path="url(#p5b2898790e)" style="fill: #324880"/>
    <path d="M 894.034552 343.180809 
L 907.850519 330.816496 
L 907.631307 359.56745 
L 893.896512 372.073261 
z
" clip-path="url(#p5b2898790e)" style="fill: #648fff"/>
    <path d="M 869.62912 336.019606 
L 883.567575 323.761908 
L 907.850519 330.816496 
L 894.034552 343.180809 
z
" clip-path="url(#p5b2898790e)" style="fill: #3f599f"/>
    <path d="M 807.059496 334.111306 
L 807.384527 358.657517 
L 831.367638 365.871846 
L 831.164253 341.255859 
z
" clip-path="url(#p5b2898790e)" style="fill: #648fff"/>
    <path d="M 869.62912 336.019606 
L 894.034552 343.180809 
L 893.896512 372.073261 
L 869.637334 364.830241 
z
" clip-path="url(#p5b2898790e)" style="fill: #324880"/>
    <path d="M 792.855859 371.192823 
L 816.956773 378.516318 
L 831.367638 365.871846 
L 807.384527 358.657517 
z
" clip-path="url(#p5b2898790e)" style="fill: #577ddf"/>
    <path d="M 792.453585 346.525574 
L 792.855859 371.192823 
L 807.384527 358.657517 
L 807.059496 334.111306 
z
" clip-path="url(#p5b2898790e)" style="fill: #324880"/>
    <path d="M 932.344334 337.932345 
L 932.344334 337.932345 
L 957.05178 345.110258 
L 957.05178 345.110258 
z
" clip-path="url(#p5b2898790e)" style="fill: #648fff"/>
    <path d="M 816.677339 353.778796 
L 831.164253 341.255859 
L 831.367638 365.871846 
L 816.956773 378.516318 
z
" clip-path="url(#p5b2898790e)" style="fill: #648fff"/>
    <path d="M 792.453585 346.525574 
L 807.059496 334.111306 
L 831.164253 341.255859 
L 816.677339 353.778796 
z
" clip-path="url(#p5b2898790e)" style="fill: #3f599f"/>
    <path d="M 918.653527 350.404672 
L 918.653527 350.404672 
L 932.344334 337.932345 
L 932.344334 337.932345 
z
" clip-path="url(#p5b2898790e)" style="fill: #324880"/>
    <path d="M 792.453585 346.525574 
L 816.677339 353.778796 
L 816.956773 378.516318 
L 792.855859 371.192823 
z
" clip-path="url(#p5b2898790e)" style="fill: #324880"/>
    <path d="M 918.653527 350.404672 
L 943.488857 357.692019 
L 957.05178 345.110258 
L 932.344334 337.932345 
z
" clip-path="url(#p5b2898790e)" style="fill: #577ddf"/>
    <path d="M 918.653527 350.404672 
L 932.344334 337.932345 
L 957.05178 345.110258 
L 943.488857 357.692019 
z
" clip-path="url(#p5b2898790e)" style="fill: #3f599f"/>
    <path d="M 855.479674 348.462852 
L 855.547668 369.549126 
L 879.968931 376.87954 
L 880.008532 355.733106 
z
" clip-path="url(#p5b2898790e)" style="fill: #648fff"/>
    <path d="M 841.246311 382.286521 
L 865.790845 389.72892 
L 879.968931 376.87954 
L 855.547668 369.549126 
z
" clip-path="url(#p5b2898790e)" style="fill: #577ddf"/>
    <path d="M 841.114411 361.095891 
L 841.246311 382.286521 
L 855.547668 369.549126 
L 855.479674 348.462852 
z
" clip-path="url(#p5b2898790e)" style="fill: #324880"/>
    <path d="M 943.488857 357.692019 
L 957.05178 345.110258 
L 957.05178 345.110258 
L 943.488857 357.692019 
z
" clip-path="url(#p5b2898790e)" style="fill: #648fff"/>
    <path d="M 918.653527 350.404672 
L 943.488857 357.692019 
L 943.488857 357.692019 
L 918.653527 350.404672 
z
" clip-path="url(#p5b2898790e)" style="fill: #324880"/>
    <path d="M 981.975664 352.351049 
L 981.975664 352.351049 
L 1007.118841 359.655549 
L 1007.118841 359.655549 
z
" clip-path="url(#p5b2898790e)" style="fill: #648fff"/>
    <path d="M 865.767631 368.477707 
L 880.008532 355.733106 
L 879.968931 376.87954 
L 865.790845 389.72892 
z
" clip-path="url(#p5b2898790e)" style="fill: #648fff"/>
    <path d="M 841.114411 361.095891 
L 855.479674 348.462852 
L 880.008532 355.733106 
L 865.767631 368.477707 
z
" clip-path="url(#p5b2898790e)" style="fill: #3f599f"/>
    <path d="M 968.543409 365.043691 
L 968.543409 365.043691 
L 981.975664 352.351049 
L 981.975664 352.351049 
z
" clip-path="url(#p5b2898790e)" style="fill: #324880"/>
    <path d="M 777.625157 359.128969 
L 777.877188 372.09527 
L 802.155894 379.496817 
L 801.968745 366.493359 
z
" clip-path="url(#p5b2898790e)" style="fill: #648fff"/>
    <path d="M 841.114411 361.095891 
L 865.767631 368.477707 
L 865.790845 389.72892 
L 841.246311 382.286521 
z
" clip-path="url(#p5b2898790e)" style="fill: #324880"/>
    <path d="M 968.543409 365.043691 
L 981.975664 352.351049 
L 1007.118841 359.655549 
L 993.820097 372.460544 
z
" clip-path="url(#p5b2898790e)" style="fill: #3f599f"/>
    <path d="M 968.543409 365.043691 
L 993.820097 372.460544 
L 1007.118841 359.655549 
L 981.975664 352.351049 
z
" clip-path="url(#p5b2898790e)" style="fill: #577ddf"/>
    <path d="M 762.569088 371.925848 
L 762.863995 384.956602 
L 777.877188 372.09527 
L 777.625157 359.128969 
z
" clip-path="url(#p5b2898790e)" style="fill: #324880"/>
    <path d="M 762.863995 384.956602 
L 787.262732 392.472153 
L 802.155894 379.496817 
L 777.877188 372.09527 
z
" clip-path="url(#p5b2898790e)" style="fill: #577ddf"/>
    <path d="M 993.820097 372.460544 
L 1007.118841 359.655549 
L 1007.118841 359.655549 
L 993.820097 372.460544 
z
" clip-path="url(#p5b2898790e)" style="fill: #648fff"/>
    <path d="M 904.753651 363.067459 
L 904.753651 363.067459 
L 929.717902 370.466763 
L 929.717902 370.466763 
z
" clip-path="url(#p5b2898790e)" style="fill: #648fff"/>
    <path d="M 968.543409 365.043691 
L 993.820097 372.460544 
L 993.820097 372.460544 
L 968.543409 365.043691 
z
" clip-path="url(#p5b2898790e)" style="fill: #324880"/>
    <path d="M 762.569088 371.925848 
L 777.625157 359.128969 
L 801.968745 366.493359 
L 787.033345 379.403981 
z
" clip-path="url(#p5b2898790e)" style="fill: #3f599f"/>
    <path d="M 890.63988 375.925105 
L 890.63988 375.925105 
L 904.753651 363.067459 
L 904.753651 363.067459 
z
" clip-path="url(#p5b2898790e)" style="fill: #324880"/>
    <path d="M 787.033345 379.403981 
L 801.968745 366.493359 
L 802.155894 379.496817 
L 787.262732 392.472153 
z
" clip-path="url(#p5b2898790e)" style="fill: #648fff"/>
    <path d="M 890.63988 375.925105 
L 904.753651 363.067459 
L 929.717902 370.466763 
L 915.73409 383.438965 
z
" clip-path="url(#p5b2898790e)" style="fill: #3f599f"/>
    <path d="M 890.63988 375.925105 
L 915.73409 383.438965 
L 929.717902 370.466763 
L 904.753651 363.067459 
z
" clip-path="url(#p5b2898790e)" style="fill: #577ddf"/>
    <path d="M 762.569088 371.925848 
L 787.033345 379.403981 
L 787.262732 392.472153 
L 762.863995 384.956602 
z
" clip-path="url(#p5b2898790e)" style="fill: #324880"/>
    <path d="M 915.73409 383.438965 
L 929.717902 370.466763 
L 929.717902 370.466763 
L 915.73409 383.438965 
z
" clip-path="url(#p5b2898790e)" style="fill: #648fff"/>
    <path d="M 826.528354 373.923099 
L 826.528354 373.923099 
L 851.306873 381.419063 
L 851.306873 381.419063 
z
" clip-path="url(#p5b2898790e)" style="fill: #648fff"/>
    <path d="M 890.63988 375.925105 
L 915.73409 383.438965 
L 915.73409 383.438965 
L 890.63988 375.925105 
z
" clip-path="url(#p5b2898790e)" style="fill: #324880"/>
    <path d="M 811.716375 386.948987 
L 811.716375 386.948987 
L 826.528354 373.923099 
L 826.528354 373.923099 
z
" clip-path="url(#p5b2898790e)" style="fill: #324880"/>
    <path d="M 811.716375 386.948987 
L 826.528354 373.923099 
L 851.306873 381.419063 
L 836.621126 394.561769 
z
" clip-path="url(#p5b2898790e)" style="fill: #3f599f"/>
    <path d="M 811.716375 386.948987 
L 836.621126 394.561769 
L 851.306873 381.419063 
L 826.528354 373.923099 
z
" clip-path="url(#p5b2898790e)" style="fill: #577ddf"/>
    <path d="M 836.621126 394.561769 
L 851.306873 381.419063 
L 851.306873 381.419063 
L 836.621126 394.561769 
z
" clip-path="url(#p5b2898790e)" style="fill: #648fff"/>
    <path d="M 811.716375 386.948987 
L 836.621126 394.561769 
L 836.621126 394.561769 
L 811.716375 386.948987 
z
" clip-path="url(#p5b2898790e)" style="fill: #324880"/>
   </g>
   <g id="Poly3DCollection_3">
    <path d="M 711.596884 400.933484 
L 915.316899 464.874047 
L 1026.313533 356.974472 
L 830.803325 300.455892 
z
" clip-path="url(#p5b2898790e)" style="fill-opacity: 0.25"/>
   </g>
   <g id="Poly3DCollection_4">
    <path d="M 954.90421 377.931883 
L 954.90421 377.931883 
L 980.31555 385.463701 
L 980.31555 385.463701 
z
" clip-path="url(#p5b2898790e)" style="fill: #324880"/>
    <path d="M 941.053246 391.020178 
L 941.053246 391.020178 
L 954.90421 377.931883 
L 954.90421 377.931883 
z
" clip-path="url(#p5b2898790e)" style="fill: #648fff"/>
    <path d="M 941.053246 391.020178 
L 954.90421 377.931883 
L 980.31555 385.463701 
L 966.600385 398.669657 
z
" clip-path="url(#p5b2898790e)" style="fill: #3f599f"/>
    <path d="M 941.053246 391.020178 
L 966.600385 398.669657 
L 980.31555 385.463701 
L 954.90421 377.931883 
z
" clip-path="url(#p5b2898790e)" style="fill: #577ddf"/>
    <path d="M 747.280095 384.920699 
L 747.280095 384.920699 
L 771.865851 392.515231 
L 771.865851 392.515231 
z
" clip-path="url(#p5b2898790e)" style="fill: #324880"/>
    <path d="M 731.752731 398.118154 
L 731.752731 398.118154 
L 747.280095 384.920699 
L 747.280095 384.920699 
z
" clip-path="url(#p5b2898790e)" style="fill: #648fff"/>
    <path d="M 966.600385 398.669657 
L 980.31555 385.463701 
L 980.31555 385.463701 
L 966.600385 398.669657 
z
" clip-path="url(#p5b2898790e)" style="fill: #324880"/>
    <path d="M 941.053246 391.020178 
L 966.600385 398.669657 
L 966.600385 398.669657 
L 941.053246 391.020178 
z
" clip-path="url(#p5b2898790e)" style="fill: #648fff"/>
    <path d="M 731.752731 398.118154 
L 747.280095 384.920699 
L 771.865851 392.515231 
L 756.460812 405.831824 
z
" clip-path="url(#p5b2898790e)" style="fill: #3f599f"/>
    <path d="M 731.752731 398.118154 
L 756.460812 405.831824 
L 771.865851 392.515231 
L 747.280095 384.920699 
z
" clip-path="url(#p5b2898790e)" style="fill: #577ddf"/>
    <path d="M 876.30724 388.982141 
L 876.33124 367.370261 
L 901.671261 374.938432 
L 901.532449 396.613238 
z
" clip-path="url(#p5b2898790e)" style="fill: #324880"/>
    <path d="M 756.460812 405.831824 
L 771.865851 392.515231 
L 771.865851 392.515231 
L 756.460812 405.831824 
z
" clip-path="url(#p5b2898790e)" style="fill: #324880"/>
    <path d="M 861.750599 402.243242 
L 876.30724 388.982141 
L 901.532449 396.613238 
L 887.107849 409.994341 
z
" clip-path="url(#p5b2898790e)" style="fill: #3f599f"/>
    <path d="M 861.750599 402.243242 
L 861.708376 380.522209 
L 876.33124 367.370261 
L 876.30724 388.982141 
z
" clip-path="url(#p5b2898790e)" style="fill: #648fff"/>
    <path d="M 731.752731 398.118154 
L 756.460812 405.831824 
L 756.460812 405.831824 
L 731.752731 398.118154 
z
" clip-path="url(#p5b2898790e)" style="fill: #648fff"/>
    <path d="M 796.673183 400.178208 
L 796.466493 386.933794 
L 821.567392 394.627624 
L 821.7051 407.910558 
z
" clip-path="url(#p5b2898790e)" style="fill: #324880"/>
    <path d="M 887.107849 409.994341 
L 901.532449 396.613238 
L 901.671261 374.938432 
L 887.181646 388.209939 
z
" clip-path="url(#p5b2898790e)" style="fill: #324880"/>
    <path d="M 861.708376 380.522209 
L 887.181646 388.209939 
L 901.671261 374.938432 
L 876.33124 367.370261 
z
" clip-path="url(#p5b2898790e)" style="fill: #577ddf"/>
    <path d="M 781.393322 413.615559 
L 781.142179 400.304328 
L 796.466493 386.933794 
L 796.673183 400.178208 
z
" clip-path="url(#p5b2898790e)" style="fill: #648fff"/>
    <path d="M 861.750599 402.243242 
L 887.107849 409.994341 
L 887.181646 388.209939 
L 861.708376 380.522209 
z
" clip-path="url(#p5b2898790e)" style="fill: #648fff"/>
    <path d="M 781.393322 413.615559 
L 796.673183 400.178208 
L 821.7051 407.910558 
L 806.553334 421.470318 
z
" clip-path="url(#p5b2898790e)" style="fill: #3f599f"/>
    <path d="M 926.985547 404.313275 
L 927.337826 374.365481 
L 953.185889 382.047766 
L 952.669636 412.083191 
z
" clip-path="url(#p5b2898790e)" style="fill: #324880"/>
    <path d="M 912.695987 417.816018 
L 926.985547 404.313275 
L 952.669636 412.083191 
L 938.51818 425.709239 
z
" clip-path="url(#p5b2898790e)" style="fill: #3f599f"/>
    <path d="M 781.142179 400.304328 
L 806.371877 408.120299 
L 821.567392 394.627624 
L 796.466493 386.933794 
z
" clip-path="url(#p5b2898790e)" style="fill: #577ddf"/>
    <path d="M 912.695987 417.816018 
L 912.960424 387.716218 
L 927.337826 374.365481 
L 926.985547 404.313275 
z
" clip-path="url(#p5b2898790e)" style="fill: #648fff"/>
    <path d="M 806.553334 421.470318 
L 821.7051 407.910558 
L 821.567392 394.627624 
L 806.371877 408.120299 
z
" clip-path="url(#p5b2898790e)" style="fill: #324880"/>
    <path d="M 781.393322 413.615559 
L 806.553334 421.470318 
L 806.371877 408.120299 
L 781.142179 400.304328 
z
" clip-path="url(#p5b2898790e)" style="fill: #648fff"/>
    <path d="M 846.964664 415.713229 
L 846.835045 390.115966 
L 872.462848 397.91501 
L 872.454997 423.587184 
z
" clip-path="url(#p5b2898790e)" style="fill: #324880"/>
    <path d="M 938.51818 425.709239 
L 952.669636 412.083191 
L 953.185889 382.047766 
L 938.948375 395.521196 
z
" clip-path="url(#p5b2898790e)" style="fill: #324880"/>
    <path d="M 912.960424 387.716218 
L 938.948375 395.521196 
L 953.185889 382.047766 
L 927.337826 374.365481 
z
" clip-path="url(#p5b2898790e)" style="fill: #577ddf"/>
    <path d="M 831.943976 429.397078 
L 846.964664 415.713229 
L 872.454997 423.587184 
L 857.568432 437.396833 
z
" clip-path="url(#p5b2898790e)" style="fill: #3f599f"/>
    <path d="M 831.943976 429.397078 
L 831.731689 403.669875 
L 846.835045 390.115966 
L 846.964664 415.713229 
z
" clip-path="url(#p5b2898790e)" style="fill: #648fff"/>
    <path d="M 912.695987 417.816018 
L 938.51818 425.709239 
L 938.948375 395.521196 
L 912.960424 387.716218 
z
" clip-path="url(#p5b2898790e)" style="fill: #648fff"/>
    <path d="M 857.568432 437.396833 
L 872.454997 423.587184 
L 872.462848 397.91501 
L 857.495068 411.594204 
z
" clip-path="url(#p5b2898790e)" style="fill: #324880"/>
    <path d="M 831.731689 403.669875 
L 857.495068 411.594204 
L 872.462848 397.91501 
L 846.835045 390.115966 
z
" clip-path="url(#p5b2898790e)" style="fill: #577ddf"/>
    <path d="M 831.943976 429.397078 
L 857.568432 437.396833 
L 857.495068 411.594204 
L 831.731689 403.669875 
z
" clip-path="url(#p5b2898790e)" style="fill: #648fff"/>
    <path d="M 898.179274 431.533405 
L 898.383049 396.050328 
L 924.54104 403.96542 
L 924.140731 439.55289 
z
" clip-path="url(#p5b2898790e)" style="fill: #324880"/>
    <path d="M 883.429948 445.470596 
L 898.179274 431.533405 
L 924.140731 439.55289 
L 909.53183 453.619399 
z
" clip-path="url(#p5b2898790e)" style="fill: #3f599f"/>
    <path d="M 883.429948 445.470596 
L 883.523871 409.806442 
L 898.383049 396.050328 
L 898.179274 431.533405 
z
" clip-path="url(#p5b2898790e)" style="fill: #648fff"/>
    <path d="M 909.53183 453.619399 
L 924.140731 439.55289 
L 924.54104 403.96542 
L 909.824433 417.850139 
z
" clip-path="url(#p5b2898790e)" style="fill: #324880"/>
    <path d="M 883.523871 409.806442 
L 909.824433 417.850139 
L 924.54104 403.96542 
L 898.383049 396.050328 
z
" clip-path="url(#p5b2898790e)" style="fill: #577ddf"/>
    <path d="M 883.429948 445.470596 
L 909.53183 453.619399 
L 909.824433 417.850139 
L 883.523871 409.806442 
z
" clip-path="url(#p5b2898790e)" style="fill: #648fff"/>
   </g>
   <g id="text_32">
    <!-- Imaginary Amplitude (ρ) -->
    <g transform="translate(735.696563 51.6) scale(0.21 -0.21)">
     <defs>
      <path id="DejaVuSans-49" d="M 628 4666 
L 1259 4666 
L 1259 0 
L 628 0 
L 628 4666 
z
" transform="scale(0.015625)"/>
      <path id="DejaVuSans-67" d="M 2906 1791 
Q 2906 2416 2648 2759 
Q 2391 3103 1925 3103 
Q 1463 3103 1205 2759 
Q 947 2416 947 1791 
Q 947 1169 1205 825 
Q 1463 481 1925 481 
Q 2391 481 2648 825 
Q 2906 1169 2906 1791 
z
M 3481 434 
Q 3481 -459 3084 -895 
Q 2688 -1331 1869 -1331 
Q 1566 -1331 1297 -1286 
Q 1028 -1241 775 -1147 
L 775 -588 
Q 1028 -725 1275 -790 
Q 1522 -856 1778 -856 
Q 2344 -856 2625 -561 
Q 2906 -266 2906 331 
L 2906 616 
Q 2728 306 2450 153 
Q 2172 0 1784 0 
Q 1141 0 747 490 
Q 353 981 353 1791 
Q 353 2603 747 3093 
Q 1141 3584 1784 3584 
Q 2172 3584 2450 3431 
Q 2728 3278 2906 2969 
L 2906 3500 
L 3481 3500 
L 3481 434 
z
" transform="scale(0.015625)"/>
      <path id="DejaVuSans-6e" d="M 3513 2113 
L 3513 0 
L 2938 0 
L 2938 2094 
Q 2938 2591 2744 2837 
Q 2550 3084 2163 3084 
Q 1697 3084 1428 2787 
Q 1159 2491 1159 1978 
L 1159 0 
L 581 0 
L 581 3500 
L 1159 3500 
L 1159 2956 
Q 1366 3272 1645 3428 
Q 1925 3584 2291 3584 
Q 2894 3584 3203 3211 
Q 3513 2838 3513 2113 
z
" transform="scale(0.015625)"/>
      <path id="DejaVuSans-72" d="M 2631 2963 
Q 2534 3019 2420 3045 
Q 2306 3072 2169 3072 
Q 1681 3072 1420 2755 
Q 1159 2438 1159 1844 
L 1159 0 
L 581 0 
L 581 3500 
L 1159 3500 
L 1159 2956 
Q 1341 3275 1631 3429 
Q 1922 3584 2338 3584 
Q 2397 3584 2469 3576 
Q 2541 3569 2628 3553 
L 2631 2963 
z
" transform="scale(0.015625)"/>
      <path id="DejaVuSans-79" d="M 2059 -325 
Q 1816 -950 1584 -1140 
Q 1353 -1331 966 -1331 
L 506 -1331 
L 506 -850 
L 844 -850 
Q 1081 -850 1212 -737 
Q 1344 -625 1503 -206 
L 1606 56 
L 191 3500 
L 800 3500 
L 1894 763 
L 2988 3500 
L 3597 3500 
L 2059 -325 
z
" transform="scale(0.015625)"/>
     </defs>
     <use xlink:href="#DejaVuSans-49"/>
     <use xlink:href="#DejaVuSans-6d" x="29.492188"/>
     <use xlink:href="#DejaVuSans-61" x="126.904297"/>
     <use xlink:href="#DejaVuSans-67" x="188.183594"/>
     <use xlink:href="#DejaVuSans-69" x="251.660156"/>
     <use xlink:href="#DejaVuSans-6e" x="279.443359"/>
     <use xlink:href="#DejaVuSans-61" x="342.822266"/>
     <use xlink:href="#DejaVuSans-72" x="404.101562"/>
     <use xlink:href="#DejaVuSans-79" x="445.214844"/>
     <use xlink:href="#DejaVuSans-20" x="504.394531"/>
     <use xlink:href="#DejaVuSans-41" x="536.181641"/>
     <use xlink:href="#DejaVuSans-6d" x="604.589844"/>
     <use xlink:href="#DejaVuSans-70" x="702.001953"/>
     <use xlink:href="#DejaVuSans-6c" x="765.478516"/>
     <use xlink:href="#DejaVuSans-69" x="793.261719"/>
     <use xlink:href="#DejaVuSans-74" x="821.044922"/>
     <use xlink:href="#DejaVuSans-75" x="860.253906"/>
     <use xlink:href="#DejaVuSans-64" x="923.632812"/>
     <use xlink:href="#DejaVuSans-65" x="987.109375"/>
     <use xlink:href="#DejaVuSans-20" x="1048.632812"/>
     <use xlink:href="#DejaVuSans-28" x="1080.419922"/>
     <use xlink:href="#DejaVuSans-3c1" x="1119.433594"/>
     <use xlink:href="#DejaVuSans-29" x="1182.910156"/>
    </g>
   </g>
  </g>
 </g>
 <defs>
  <clipPath id="pbaa619bd70">
   <rect x="28.8" y="57.6" width="518.4" height="518.4"/>
  </clipPath>
  <clipPath id="p5b2898790e">
   <rect x="604.8" y="57.6" width="518.4" height="518.4"/>
  </clipPath>
 </defs>
</svg>
