<?xml version="1.0" encoding="utf-8" standalone="no"?>
<!DOCTYPE svg PUBLIC "-//W3C//DTD SVG 1.1//EN"
  "http://www.w3.org/Graphics/SVG/1.1/DTD/svg11.dtd">
<svg xmlns:xlink="http://www.w3.org/1999/xlink" width="1152pt" height="576pt" viewBox="0 0 1152 576" xmlns="http://www.w3.org/2000/svg" version="1.1">
 <metadata>
  <rdf:RDF xmlns:dc="http://purl.org/dc/elements/1.1/" xmlns:cc="http://creativecommons.org/ns#" xmlns:rdf="http://www.w3.org/1999/02/22-rdf-syntax-ns#">
   <cc:Work>
    <dc:type rdf:resource="http://purl.org/dc/dcmitype/StillImage"/>
    <dc:date>2024-11-04T22:03:25.284750</dc:date>
    <dc:format>image/svg+xml</dc:format>
    <dc:creator>
     <cc:Agent>
      <dc:title>Matplotlib v3.9.2, https://matplotlib.org/</dc:title>
     </cc:Agent>
    </dc:creator>
   </cc:Work>
  </rdf:RDF>
 </metadata>
 <defs>
  <style type="text/css">*{stroke-linejoin: round; stroke-linecap: butt}</style>
 </defs>
 <g id="figure_1">
  <g id="patch_1">
   <path d="M 0 576 
L 1152 576 
L 1152 0 
L 0 0 
z
" style="fill: #ffffff"/>
  </g>
  <g id="patch_2">
   <path d="M 28.8 576 
L 547.2 576 
L 547.2 57.6 
L 28.8 57.6 
z
" style="fill: #ffffff"/>
  </g>
  <g id="pane3d_1">
   <g id="patch_3">
    <path d="M 130.07018 436.456468 
L 253.494133 330.550231 
L 251.743197 126.70673 
L 122.643358 223.613571 
" style="fill: #f2f2f2; opacity: 0.5; stroke: #f2f2f2; stroke-linejoin: miter"/>
   </g>
  </g>
  <g id="pane3d_2">
   <g id="patch_4">
    <path d="M 253.494133 330.550231 
L 455.554898 390.069341 
L 462.583588 181.103065 
L 251.743197 126.70673 
" style="fill: #e6e6e6; opacity: 0.5; stroke: #e6e6e6; stroke-linejoin: miter"/>
   </g>
  </g>
  <g id="pane3d_3">
   <g id="patch_5">
    <path d="M 130.07018 436.456468 
L 340.912731 504.076731 
L 455.554898 390.069341 
L 253.494133 330.550231 
" style="fill: #ececec; opacity: 0.5; stroke: #ececec; stroke-linejoin: miter"/>
   </g>
  </g>
  <g id="grid3d_1">
   <g id="Line3DCollection_1">
    <path d="M 158.635886 445.617904 
L 280.925726 338.630493 
L 280.328796 134.081748 
" style="fill: none; stroke: #b0b0b0; stroke-width: 0.8"/>
    <path d="M 208.310046 461.549127 
L 328.58611 352.669358 
L 330.022474 146.902603 
" style="fill: none; stroke: #b0b0b0; stroke-width: 0.8"/>
    <path d="M 258.89502 477.772462 
L 377.066152 366.949661 
L 380.607663 159.953465 
" style="fill: none; stroke: #b0b0b0; stroke-width: 0.8"/>
    <path d="M 310.41609 494.296016 
L 426.38718 381.477685 
L 432.108569 173.24058 
" style="fill: none; stroke: #b0b0b0; stroke-width: 0.8"/>
   </g>
  </g>
  <g id="grid3d_2">
   <g id="Line3DCollection_2">
    <path d="M 141.757365 209.265931 
L 148.301379 420.812846 
L 357.880707 487.202708 
" style="fill: none; stroke: #b0b0b0; stroke-width: 0.8"/>
    <path d="M 173.704273 185.285468 
L 178.805664 394.638072 
L 386.24502 458.995448 
" style="fill: none; stroke: #b0b0b0; stroke-width: 0.8"/>
    <path d="M 204.65707 162.051218 
L 208.400054 369.24405 
L 413.731787 431.660877 
" style="fill: none; stroke: #b0b0b0; stroke-width: 0.8"/>
    <path d="M 234.661448 139.528886 
L 237.124663 344.596362 
L 440.38111 405.159111 
" style="fill: none; stroke: #b0b0b0; stroke-width: 0.8"/>
   </g>
  </g>
  <g id="grid3d_3">
   <g id="Line3DCollection_3">
    <path d="M 456.577216 359.675345 
L 253.239126 300.86247 
L 128.991058 405.530264 
" style="fill: none; stroke: #b0b0b0; stroke-width: 0.8"/>
    <path d="M 457.625136 328.520187 
L 252.977852 270.44498 
L 127.884522 373.818399 
" style="fill: none; stroke: #b0b0b0; stroke-width: 0.8"/>
    <path d="M 458.686738 296.958259 
L 252.713288 239.644534 
L 126.763136 341.680959 
" style="fill: none; stroke: #b0b0b0; stroke-width: 0.8"/>
    <path d="M 459.762291 264.981544 
L 252.445373 208.453853 
L 125.626599 309.109319 
" style="fill: none; stroke: #b0b0b0; stroke-width: 0.8"/>
    <path d="M 460.852073 232.581809 
L 252.174041 176.865474 
L 124.474603 276.094619 
" style="fill: none; stroke: #b0b0b0; stroke-width: 0.8"/>
    <path d="M 461.956368 199.750604 
L 251.899227 144.871742 
L 123.306828 242.627759 
" style="fill: none; stroke: #b0b0b0; stroke-width: 0.8"/>
   </g>
  </g>
  <g id="axis3d_1">
   <g id="line2d_1">
    <path d="M 130.07018 436.456468 
L 340.912731 504.076731 
" style="fill: none; stroke: #000000; stroke-width: 0.8; stroke-linecap: square"/>
   </g>
   <g id="xtick_1">
    <g id="line2d_2">
     <path d="M 159.677227 444.706868 
L 156.549953 447.442819 
" style="fill: none; stroke: #000000; stroke-width: 0.8; stroke-linecap: square"/>
    </g>
    <g id="text_1">
     <!-- 00 -->
     <g transform="translate(131.351686 489.365693) rotate(-45) scale(0.21 -0.21)">
      <defs>
       <path id="DejaVuSans-30" d="M 2034 4250 
Q 1547 4250 1301 3770 
Q 1056 3291 1056 2328 
Q 1056 1369 1301 889 
Q 1547 409 2034 409 
Q 2525 409 2770 889 
Q 3016 1369 3016 2328 
Q 3016 3291 2770 3770 
Q 2525 4250 2034 4250 
z
M 2034 4750 
Q 2819 4750 3233 4129 
Q 3647 3509 3647 2328 
Q 3647 1150 3233 529 
Q 2819 -91 2034 -91 
Q 1250 -91 836 529 
Q 422 1150 422 2328 
Q 422 3509 836 4129 
Q 1250 4750 2034 4750 
z
" transform="scale(0.015625)"/>
      </defs>
      <use xlink:href="#DejaVuSans-30"/>
      <use xlink:href="#DejaVuSans-30" x="63.623047"/>
     </g>
    </g>
   </g>
   <g id="xtick_2">
    <g id="line2d_3">
     <path d="M 209.334802 460.621468 
L 206.257306 463.407368 
" style="fill: none; stroke: #000000; stroke-width: 0.8; stroke-linecap: square"/>
    </g>
    <g id="text_2">
     <!-- 01 -->
     <g transform="translate(181.023931 505.435143) rotate(-45) scale(0.21 -0.21)">
      <defs>
       <path id="DejaVuSans-31" d="M 794 531 
L 1825 531 
L 1825 4091 
L 703 3866 
L 703 4441 
L 1819 4666 
L 2450 4666 
L 2450 531 
L 3481 531 
L 3481 0 
L 794 0 
L 794 531 
z
" transform="scale(0.015625)"/>
      </defs>
      <use xlink:href="#DejaVuSans-30"/>
      <use xlink:href="#DejaVuSans-31" x="63.623047"/>
     </g>
    </g>
   </g>
   <g id="xtick_3">
    <g id="line2d_4">
     <path d="M 259.902405 476.82772 
L 256.877048 479.664949 
" style="fill: none; stroke: #000000; stroke-width: 0.8; stroke-linecap: square"/>
    </g>
    <g id="text_3">
     <!-- 10 -->
     <g transform="translate(231.60781 521.799516) rotate(-45) scale(0.21 -0.21)">
      <use xlink:href="#DejaVuSans-31"/>
      <use xlink:href="#DejaVuSans-30" x="63.623047"/>
     </g>
    </g>
   </g>
   <g id="xtick_4">
    <g id="line2d_5">
     <path d="M 311.405283 493.333715 
L 308.434531 496.223705 
" style="fill: none; stroke: #000000; stroke-width: 0.8; stroke-linecap: square"/>
    </g>
    <g id="text_4">
     <!-- 11 -->
     <g transform="translate(283.128654 538.467006) rotate(-45) scale(0.21 -0.21)">
      <use xlink:href="#DejaVuSans-31"/>
      <use xlink:href="#DejaVuSans-31" x="63.623047"/>
     </g>
    </g>
   </g>
  </g>
  <g id="axis3d_2">
   <g id="line2d_6">
    <path d="M 455.554898 390.069341 
L 340.912731 504.076731 
" style="fill: none; stroke: #000000; stroke-width: 0.8; stroke-linecap: square"/>
   </g>
   <g id="xtick_5">
    <g id="line2d_7">
     <path d="M 356.140222 486.651363 
L 361.364886 488.306415 
" style="fill: none; stroke: #000000; stroke-width: 0.8; stroke-linecap: square"/>
    </g>
    <g id="text_5">
     <!-- 00 -->
     <g transform="translate(368.70027 499.207917) rotate(-337.5) scale(0.21 -0.21)">
      <use xlink:href="#DejaVuSans-30"/>
      <use xlink:href="#DejaVuSans-30" x="63.623047"/>
     </g>
    </g>
   </g>
   <g id="xtick_6">
    <g id="line2d_8">
     <path d="M 384.5233 458.46129 
L 389.691587 460.064734 
" style="fill: none; stroke: #000000; stroke-width: 0.8; stroke-linecap: square"/>
    </g>
    <g id="text_6">
     <!-- 01 -->
     <g transform="translate(396.913817 470.822876) rotate(-337.5) scale(0.21 -0.21)">
      <use xlink:href="#DejaVuSans-30"/>
      <use xlink:href="#DejaVuSans-31" x="63.623047"/>
     </g>
    </g>
   </g>
   <g id="xtick_7">
    <g id="line2d_9">
     <path d="M 412.028511 431.143114 
L 417.141381 432.697327 
" style="fill: none; stroke: #000000; stroke-width: 0.8; stroke-linecap: square"/>
    </g>
    <g id="text_7">
     <!-- 10 -->
     <g transform="translate(424.254695 443.315808) rotate(-337.5) scale(0.21 -0.21)">
      <use xlink:href="#DejaVuSans-31"/>
      <use xlink:href="#DejaVuSans-30" x="63.623047"/>
     </g>
    </g>
   </g>
   <g id="xtick_8">
    <g id="line2d_10">
     <path d="M 438.695964 404.657001 
L 443.754368 406.164215 
" style="fill: none; stroke: #000000; stroke-width: 0.8; stroke-linecap: square"/>
    </g>
    <g id="text_8">
     <!-- 11 -->
     <g transform="translate(450.762776 416.646599) rotate(-337.5) scale(0.21 -0.21)">
      <use xlink:href="#DejaVuSans-31"/>
      <use xlink:href="#DejaVuSans-31" x="63.623047"/>
     </g>
    </g>
   </g>
  </g>
  <g id="axis3d_3">
   <g id="line2d_11">
    <path d="M 455.554898 390.069341 
L 462.583588 181.103065 
" style="fill: none; stroke: #000000; stroke-width: 0.8; stroke-linecap: square"/>
   </g>
   <g id="xtick_9">
    <g id="line2d_12">
     <path d="M 454.89154 359.187786 
L 459.951526 360.651321 
" style="fill: none; stroke: #000000; stroke-width: 0.8; stroke-linecap: square"/>
    </g>
    <g id="text_9">
     <!-- −0.1 -->
     <g transform="translate(470.141125 353.40935) scale(0.21 -0.21)">
      <defs>
       <path id="DejaVuSans-2212" d="M 678 2272 
L 4684 2272 
L 4684 1741 
L 678 1741 
L 678 2272 
z
" transform="scale(0.015625)"/>
       <path id="DejaVuSans-2e" d="M 684 794 
L 1344 794 
L 1344 0 
L 684 0 
L 684 794 
z
" transform="scale(0.015625)"/>
      </defs>
      <use xlink:href="#DejaVuSans-2212"/>
      <use xlink:href="#DejaVuSans-30" x="83.789062"/>
      <use xlink:href="#DejaVuSans-2e" x="147.412109"/>
      <use xlink:href="#DejaVuSans-31" x="179.199219"/>
     </g>
    </g>
   </g>
   <g id="xtick_10">
    <g id="line2d_13">
     <path d="M 455.928222 328.038634 
L 461.021962 329.484145 
" style="fill: none; stroke: #000000; stroke-width: 0.8; stroke-linecap: square"/>
    </g>
    <g id="text_10">
     <!-- 0.0 -->
     <g transform="translate(471.275716 322.277591) scale(0.21 -0.21)">
      <use xlink:href="#DejaVuSans-30"/>
      <use xlink:href="#DejaVuSans-2e" x="63.623047"/>
      <use xlink:href="#DejaVuSans-30" x="95.410156"/>
     </g>
    </g>
   </g>
   <g id="xtick_11">
    <g id="line2d_14">
     <path d="M 456.978435 296.482911 
L 462.106381 297.909802 
" style="fill: none; stroke: #000000; stroke-width: 0.8; stroke-linecap: square"/>
    </g>
    <g id="text_11">
     <!-- 0.1 -->
     <g transform="translate(472.425103 290.739837) scale(0.21 -0.21)">
      <use xlink:href="#DejaVuSans-30"/>
      <use xlink:href="#DejaVuSans-2e" x="63.623047"/>
      <use xlink:href="#DejaVuSans-31" x="95.410156"/>
     </g>
    </g>
   </g>
   <g id="xtick_12">
    <g id="line2d_15">
     <path d="M 458.042446 264.512605 
L 463.20506 265.92026 
" style="fill: none; stroke: #000000; stroke-width: 0.8; stroke-linecap: square"/>
    </g>
    <g id="text_12">
     <!-- 0.2 -->
     <g transform="translate(473.589579 258.788093) scale(0.21 -0.21)">
      <defs>
       <path id="DejaVuSans-32" d="M 1228 531 
L 3431 531 
L 3431 0 
L 469 0 
L 469 531 
Q 828 903 1448 1529 
Q 2069 2156 2228 2338 
Q 2531 2678 2651 2914 
Q 2772 3150 2772 3378 
Q 2772 3750 2511 3984 
Q 2250 4219 1831 4219 
Q 1534 4219 1204 4116 
Q 875 4013 500 3803 
L 500 4441 
Q 881 4594 1212 4672 
Q 1544 4750 1819 4750 
Q 2544 4750 2975 4387 
Q 3406 4025 3406 3419 
Q 3406 3131 3298 2873 
Q 3191 2616 2906 2266 
Q 2828 2175 2409 1742 
Q 1991 1309 1228 531 
z
" transform="scale(0.015625)"/>
      </defs>
      <use xlink:href="#DejaVuSans-30"/>
      <use xlink:href="#DejaVuSans-2e" x="63.623047"/>
      <use xlink:href="#DejaVuSans-32" x="95.410156"/>
     </g>
    </g>
   </g>
   <g id="xtick_13">
    <g id="line2d_16">
     <path d="M 459.120529 232.119492 
L 464.318283 233.507275 
" style="fill: none; stroke: #000000; stroke-width: 0.8; stroke-linecap: square"/>
    </g>
    <g id="text_13">
     <!-- 0.3 -->
     <g transform="translate(474.769441 226.414155) scale(0.21 -0.21)">
      <defs>
       <path id="DejaVuSans-33" d="M 2597 2516 
Q 3050 2419 3304 2112 
Q 3559 1806 3559 1356 
Q 3559 666 3084 287 
Q 2609 -91 1734 -91 
Q 1441 -91 1130 -33 
Q 819 25 488 141 
L 488 750 
Q 750 597 1062 519 
Q 1375 441 1716 441 
Q 2309 441 2620 675 
Q 2931 909 2931 1356 
Q 2931 1769 2642 2001 
Q 2353 2234 1838 2234 
L 1294 2234 
L 1294 2753 
L 1863 2753 
Q 2328 2753 2575 2939 
Q 2822 3125 2822 3475 
Q 2822 3834 2567 4026 
Q 2313 4219 1838 4219 
Q 1578 4219 1281 4162 
Q 984 4106 628 3988 
L 628 4550 
Q 988 4650 1302 4700 
Q 1616 4750 1894 4750 
Q 2613 4750 3031 4423 
Q 3450 4097 3450 3541 
Q 3450 3153 3228 2886 
Q 3006 2619 2597 2516 
z
" transform="scale(0.015625)"/>
      </defs>
      <use xlink:href="#DejaVuSans-30"/>
      <use xlink:href="#DejaVuSans-2e" x="63.623047"/>
      <use xlink:href="#DejaVuSans-33" x="95.410156"/>
     </g>
    </g>
   </g>
   <g id="xtick_14">
    <g id="line2d_17">
     <path d="M 460.212964 199.295128 
L 465.446339 200.662383 
" style="fill: none; stroke: #000000; stroke-width: 0.8; stroke-linecap: square"/>
    </g>
    <g id="text_14">
     <!-- 0.4 -->
     <g transform="translate(475.964996 193.609598) scale(0.21 -0.21)">
      <defs>
       <path id="DejaVuSans-34" d="M 2419 4116 
L 825 1625 
L 2419 1625 
L 2419 4116 
z
M 2253 4666 
L 3047 4666 
L 3047 1625 
L 3713 1625 
L 3713 1100 
L 3047 1100 
L 3047 0 
L 2419 0 
L 2419 1100 
L 313 1100 
L 313 1709 
L 2253 4666 
z
" transform="scale(0.015625)"/>
      </defs>
      <use xlink:href="#DejaVuSans-30"/>
      <use xlink:href="#DejaVuSans-2e" x="63.623047"/>
      <use xlink:href="#DejaVuSans-34" x="95.410156"/>
     </g>
    </g>
   </g>
  </g>
  <g id="axes_1">
   <g id="Poly3DCollection_1">
    <path d="M 245.791079 355.411799 
L 269.612317 362.544934 
L 283.572276 350.22848 
L 259.866748 343.199915 
z
" clip-path="url(#p2c852293dc)" style="fill: #577ddf"/>
    <path d="M 259.426308 282.783398 
L 259.866748 343.199915 
L 283.572276 350.22848 
L 283.428352 289.640038 
z
" clip-path="url(#p2c852293dc)" style="fill: #648fff"/>
    <path d="M 245.169591 294.697037 
L 245.791079 355.411799 
L 259.866748 343.199915 
L 259.426308 282.783398 
z
" clip-path="url(#p2c852293dc)" style="fill: #324880"/>
    <path d="M 269.290255 301.656985 
L 283.428352 289.640038 
L 283.572276 350.22848 
L 269.612317 362.544934 
z
" clip-path="url(#p2c852293dc)" style="fill: #648fff"/>
    <path d="M 245.169591 294.697037 
L 269.290255 301.656985 
L 269.612317 362.544934 
L 245.791079 355.411799 
z
" clip-path="url(#p2c852293dc)" style="fill: #324880"/>
    <path d="M 245.169591 294.697037 
L 259.426308 282.783398 
L 283.428352 289.640038 
L 269.290255 301.656985 
z
" clip-path="url(#p2c852293dc)" style="fill: #3f599f"/>
    <path d="M 230.697724 306.790465 
L 231.007439 330.179974 
L 255.131678 337.31325 
L 254.937867 313.856073 
z
" clip-path="url(#p2c852293dc)" style="fill: #648fff"/>
    <path d="M 216.389154 342.57468 
L 240.632581 349.816543 
L 255.131678 337.31325 
L 231.007439 330.179974 
z
" clip-path="url(#p2c852293dc)" style="fill: #577ddf"/>
    <path d="M 216.005803 319.067782 
L 216.389154 342.57468 
L 231.007439 330.179974 
L 230.697724 306.790465 
z
" clip-path="url(#p2c852293dc)" style="fill: #324880"/>
    <path d="M 240.366278 326.241475 
L 254.937867 313.856073 
L 255.131678 337.31325 
L 240.632581 349.816543 
z
" clip-path="url(#p2c852293dc)" style="fill: #648fff"/>
    <path d="M 216.005803 319.067782 
L 230.697724 306.790465 
L 254.937867 313.856073 
L 240.366278 326.241475 
z
" clip-path="url(#p2c852293dc)" style="fill: #3f599f"/>
    <path d="M 216.005803 319.067782 
L 240.366278 326.241475 
L 240.632581 349.816543 
L 216.389154 342.57468 
z
" clip-path="url(#p2c852293dc)" style="fill: #324880"/>
    <path d="M 201.088767 331.533216 
L 201.597093 357.685138 
L 225.947905 365.045371 
L 225.570427 338.817493 
z
" clip-path="url(#p2c852293dc)" style="fill: #648fff"/>
    <path d="M 186.536248 370.474806 
L 211.007801 377.948753 
L 225.947905 365.045371 
L 201.597093 357.685138 
z
" clip-path="url(#p2c852293dc)" style="fill: #577ddf"/>
    <path d="M 185.941405 344.191122 
L 186.536248 370.474806 
L 201.597093 357.685138 
L 201.088767 331.533216 
z
" clip-path="url(#p2c852293dc)" style="fill: #324880"/>
    <path d="M 210.545097 351.588561 
L 225.570427 338.817493 
L 225.947905 365.045371 
L 211.007801 377.948753 
z
" clip-path="url(#p2c852293dc)" style="fill: #648fff"/>
    <path d="M 185.941405 344.191122 
L 201.088767 331.533216 
L 225.570427 338.817493 
L 210.545097 351.588561 
z
" clip-path="url(#p2c852293dc)" style="fill: #3f599f"/>
    <path d="M 185.941405 344.191122 
L 210.545097 351.588561 
L 211.007801 377.948753 
L 186.536248 370.474806 
z
" clip-path="url(#p2c852293dc)" style="fill: #324880"/>
    <path d="M 220.235633 372.140619 
L 220.650293 398.711456 
L 245.689849 406.439557 
L 245.413576 379.791028 
z
" clip-path="url(#p2c852293dc)" style="fill: #648fff"/>
    <path d="M 205.36551 412.141436 
L 230.533239 419.991917 
L 245.689849 406.439557 
L 220.650293 398.711456 
z
" clip-path="url(#p2c852293dc)" style="fill: #577ddf"/>
    <path d="M 204.861654 385.435833 
L 205.36551 412.141436 
L 220.650293 398.711456 
L 220.235633 372.140619 
z
" clip-path="url(#p2c852293dc)" style="fill: #324880"/>
    <path d="M 230.169186 393.208076 
L 245.413576 379.791028 
L 245.689849 406.439557 
L 230.533239 419.991917 
z
" clip-path="url(#p2c852293dc)" style="fill: #648fff"/>
    <path d="M 204.861654 385.435833 
L 220.235633 372.140619 
L 245.413576 379.791028 
L 230.169186 393.208076 
z
" clip-path="url(#p2c852293dc)" style="fill: #3f599f"/>
    <path d="M 204.861654 385.435833 
L 230.169186 393.208076 
L 230.533239 419.991917 
L 205.36551 412.141436 
z
" clip-path="url(#p2c852293dc)" style="fill: #324880"/>
    <path d="M 270.821856 387.511426 
L 270.94412 411.656108 
L 296.456241 419.518274 
L 296.463647 395.302776 
z
" clip-path="url(#p2c852293dc)" style="fill: #648fff"/>
    <path d="M 255.91033 425.319508 
L 281.556805 433.307395 
L 296.456241 419.518274 
L 270.94412 411.656108 
z
" clip-path="url(#p2c852293dc)" style="fill: #577ddf"/>
    <path d="M 255.710087 401.05199 
L 255.91033 425.319508 
L 270.94412 411.656108 
L 270.821856 387.511426 
z
" clip-path="url(#p2c852293dc)" style="fill: #324880"/>
    <path d="M 307.337424 480.603576 
L 333.243605 488.853463 
L 347.746364 474.612105 
L 321.978509 466.492174 
z
" clip-path="url(#p2c852293dc)" style="fill: #577ddf"/>
    <path d="M 322.342184 403.166063 
L 321.978509 466.492174 
L 347.746364 474.612105 
L 348.46076 411.102287 
z
" clip-path="url(#p2c852293dc)" style="fill: #648fff"/>
    <path d="M 281.487603 408.968571 
L 296.463647 395.302776 
L 296.456241 419.518274 
L 281.556805 433.307395 
z
" clip-path="url(#p2c852293dc)" style="fill: #648fff"/>
    <path d="M 255.710087 401.05199 
L 270.821856 387.511426 
L 296.463647 395.302776 
L 281.487603 408.968571 
z
" clip-path="url(#p2c852293dc)" style="fill: #3f599f"/>
    <path d="M 307.505035 416.958834 
L 307.337424 480.603576 
L 321.978509 466.492174 
L 322.342184 403.166063 
z
" clip-path="url(#p2c852293dc)" style="fill: #324880"/>
    <path d="M 255.710087 401.05199 
L 281.487603 408.968571 
L 281.556805 433.307395 
L 255.91033 425.319508 
z
" clip-path="url(#p2c852293dc)" style="fill: #324880"/>
    <path d="M 333.76575 425.023811 
L 348.46076 411.102287 
L 347.746364 474.612105 
L 333.243605 488.853463 
z
" clip-path="url(#p2c852293dc)" style="fill: #648fff"/>
    <path d="M 307.505035 416.958834 
L 333.76575 425.023811 
L 333.243605 488.853463 
L 307.337424 480.603576 
z
" clip-path="url(#p2c852293dc)" style="fill: #324880"/>
    <path d="M 307.505035 416.958834 
L 322.342184 403.166063 
L 348.46076 411.102287 
L 333.76575 425.023811 
z
" clip-path="url(#p2c852293dc)" style="fill: #3f599f"/>
   </g>
   <g id="Poly3DCollection_2">
    <path d="M 134.658122 372.887874 
L 339.587674 436.163428 
L 451.204486 329.402226 
L 254.58057 273.511607 
z
" clip-path="url(#p2c852293dc)" style="fill-opacity: 0.25"/>
   </g>
   <g id="Poly3DCollection_3">
    <path d="M 293.621324 308.677644 
L 307.638195 296.55604 
L 332.058548 303.532177 
L 318.165562 315.759813 
z
" clip-path="url(#p2c852293dc)" style="fill: #3f599f"/>
    <path d="M 307.638195 296.55604 
L 307.829642 222.801913 
L 332.622558 229.558704 
L 332.058548 303.532177 
z
" clip-path="url(#p2c852293dc)" style="fill: #324880"/>
    <path d="M 293.621324 308.677644 
L 293.600188 234.542955 
L 307.829642 222.801913 
L 307.638195 296.55604 
z
" clip-path="url(#p2c852293dc)" style="fill: #648fff"/>
    <path d="M 356.692169 310.569239 
L 357.151109 274.465772 
L 382.188526 281.458082 
L 381.541863 317.668027 
z
" clip-path="url(#p2c852293dc)" style="fill: #324880"/>
    <path d="M 342.925784 322.904302 
L 356.692169 310.569239 
L 381.541863 317.668027 
L 367.904852 330.11194 
z
" clip-path="url(#p2c852293dc)" style="fill: #3f599f"/>
    <path d="M 318.165562 315.759813 
L 332.058548 303.532177 
L 332.622558 229.558704 
L 318.520814 241.404021 
z
" clip-path="url(#p2c852293dc)" style="fill: #324880"/>
    <path d="M 342.925784 322.904302 
L 343.285042 286.61611 
L 357.151109 274.465772 
L 356.692169 310.569239 
z
" clip-path="url(#p2c852293dc)" style="fill: #648fff"/>
    <path d="M 293.621324 308.677644 
L 318.165562 315.759813 
L 318.520814 241.404021 
L 293.600188 234.542955 
z
" clip-path="url(#p2c852293dc)" style="fill: #648fff"/>
    <path d="M 279.391066 320.983783 
L 279.300534 292.908114 
L 304.112874 300.015975 
L 304.060141 328.174419 
z
" clip-path="url(#p2c852293dc)" style="fill: #324880"/>
    <path d="M 367.904852 330.11194 
L 381.541863 317.668027 
L 382.188526 281.458082 
L 368.453811 293.716447 
z
" clip-path="url(#p2c852293dc)" style="fill: #324880"/>
    <path d="M 293.600188 234.542955 
L 318.520814 241.404021 
L 332.622558 229.558704 
L 307.829642 222.801913 
z
" clip-path="url(#p2c852293dc)" style="fill: #577ddf"/>
    <path d="M 264.942509 333.478704 
L 279.391066 320.983783 
L 304.060141 328.174419 
L 289.737375 340.780317 
z
" clip-path="url(#p2c852293dc)" style="fill: #3f599f"/>
    <path d="M 264.942509 333.478704 
L 264.766859 305.259435 
L 279.300534 292.908114 
L 279.391066 320.983783 
z
" clip-path="url(#p2c852293dc)" style="fill: #648fff"/>
    <path d="M 343.285042 286.61611 
L 368.453811 293.716447 
L 382.188526 281.458082 
L 357.151109 274.465772 
z
" clip-path="url(#p2c852293dc)" style="fill: #577ddf"/>
    <path d="M 342.925784 322.904302 
L 367.904852 330.11194 
L 368.453811 293.716447 
L 343.285042 286.61611 
z
" clip-path="url(#p2c852293dc)" style="fill: #648fff"/>
    <path d="M 393.105681 337.383566 
L 406.610487 324.829355 
L 431.900945 332.054055 
L 418.531237 344.720036 
z
" clip-path="url(#p2c852293dc)" style="fill: #3f599f"/>
    <path d="M 289.737375 340.780317 
L 304.060141 328.174419 
L 304.112874 300.015975 
L 289.706457 312.477641 
z
" clip-path="url(#p2c852293dc)" style="fill: #324880"/>
    <path d="M 264.766859 305.259435 
L 289.706457 312.477641 
L 304.112874 300.015975 
L 279.300534 292.908114 
z
" clip-path="url(#p2c852293dc)" style="fill: #577ddf"/>
    <path d="M 328.947966 335.428816 
L 329.045048 321.620267 
L 354.227116 328.898633 
L 354.057462 342.747826 
z
" clip-path="url(#p2c852293dc)" style="fill: #324880"/>
    <path d="M 264.942509 333.478704 
L 289.737375 340.780317 
L 289.706457 312.477641 
L 264.766859 305.259435 
z
" clip-path="url(#p2c852293dc)" style="fill: #648fff"/>
    <path d="M 314.753806 348.147177 
L 314.810729 334.268118 
L 329.045048 321.620267 
L 328.947966 335.428816 
z
" clip-path="url(#p2c852293dc)" style="fill: #648fff"/>
    <path d="M 406.610487 324.829355 
L 408.840157 228.165722 
L 434.648217 235.099133 
L 431.900945 332.054055 
z
" clip-path="url(#p2c852293dc)" style="fill: #324880"/>
    <path d="M 314.753806 348.147177 
L 328.947966 335.428816 
L 354.057462 342.747826 
L 339.994787 355.580162 
z
" clip-path="url(#p2c852293dc)" style="fill: #3f599f"/>
    <path d="M 393.105681 337.383566 
L 395.080921 240.214552 
L 408.840157 228.165722 
L 406.610487 324.829355 
z
" clip-path="url(#p2c852293dc)" style="fill: #648fff"/>
    <path d="M 314.810729 334.268118 
L 340.125047 341.660155 
L 354.227116 328.898633 
L 329.045048 321.620267 
z
" clip-path="url(#p2c852293dc)" style="fill: #577ddf"/>
    <path d="M 339.994787 355.580162 
L 354.057462 342.747826 
L 354.227116 328.898633 
L 340.125047 341.660155 
z
" clip-path="url(#p2c852293dc)" style="fill: #324880"/>
    <path d="M 314.753806 348.147177 
L 339.994787 355.580162 
L 340.125047 341.660155 
L 314.810729 334.268118 
z
" clip-path="url(#p2c852293dc)" style="fill: #648fff"/>
    <path d="M 418.531237 344.720036 
L 431.900945 332.054055 
L 434.648217 235.099133 
L 421.029732 247.2574 
z
" clip-path="url(#p2c852293dc)" style="fill: #324880"/>
    <path d="M 235.370094 359.052537 
L 250.270591 346.166784 
L 275.1922 353.581964 
L 260.419396 366.583954 
z
" clip-path="url(#p2c852293dc)" style="fill: #3f599f"/>
    <path d="M 393.105681 337.383566 
L 418.531237 344.720036 
L 421.029732 247.2574 
L 395.080921 240.214552 
z
" clip-path="url(#p2c852293dc)" style="fill: #648fff"/>
    <path d="M 379.391604 350.132317 
L 380.034887 313.441248 
L 405.795358 320.783028 
L 404.95342 357.583172 
z
" clip-path="url(#p2c852293dc)" style="fill: #324880"/>
    <path d="M 365.463353 363.080167 
L 379.391604 350.132317 
L 404.95342 357.583172 
L 391.162597 370.648102 
z
" clip-path="url(#p2c852293dc)" style="fill: #3f599f"/>
    <path d="M 250.270591 346.166784 
L 249.68433 283.037184 
L 274.931363 290.263271 
L 275.1922 353.581964 
z
" clip-path="url(#p2c852293dc)" style="fill: #324880"/>
    <path d="M 365.463353 363.080167 
L 366.004686 326.199873 
L 380.034887 313.441248 
L 379.391604 350.132317 
z
" clip-path="url(#p2c852293dc)" style="fill: #648fff"/>
    <path d="M 235.370094 359.052537 
L 234.582389 295.594885 
L 249.68433 283.037184 
L 250.270591 346.166784 
z
" clip-path="url(#p2c852293dc)" style="fill: #648fff"/>
    <path d="M 154.934026 370.102465 
L 170.55834 357.045994 
L 195.284908 364.559251 
L 179.78431 377.734283 
z
" clip-path="url(#p2c852293dc)" style="fill: #3f599f"/>
    <path d="M 395.080921 240.214552 
L 421.029732 247.2574 
L 434.648217 235.099133 
L 408.840157 228.165722 
z
" clip-path="url(#p2c852293dc)" style="fill: #577ddf"/>
    <path d="M 300.338243 361.063923 
L 300.369928 332.531515 
L 325.895039 339.996391 
L 325.711767 368.613565 
z
" clip-path="url(#p2c852293dc)" style="fill: #324880"/>
    <path d="M 391.162597 370.648102 
L 404.95342 357.583172 
L 405.795358 320.783028 
L 391.904751 333.65791 
z
" clip-path="url(#p2c852293dc)" style="fill: #324880"/>
    <path d="M 260.419396 366.583954 
L 275.1922 353.581964 
L 274.931363 290.263271 
L 259.960468 302.93575 
z
" clip-path="url(#p2c852293dc)" style="fill: #324880"/>
    <path d="M 285.696055 374.18373 
L 300.338243 361.063923 
L 325.711767 368.613565 
L 311.203182 381.852798 
z
" clip-path="url(#p2c852293dc)" style="fill: #3f599f"/>
    <path d="M 285.696055 374.18373 
L 285.640306 345.504271 
L 300.369928 332.531515 
L 300.338243 361.063923 
z
" clip-path="url(#p2c852293dc)" style="fill: #648fff"/>
    <path d="M 366.004686 326.199873 
L 391.904751 333.65791 
L 405.795358 320.783028 
L 380.034887 313.441248 
z
" clip-path="url(#p2c852293dc)" style="fill: #577ddf"/>
    <path d="M 365.463353 363.080167 
L 391.162597 370.648102 
L 391.904751 333.65791 
L 366.004686 326.199873 
z
" clip-path="url(#p2c852293dc)" style="fill: #648fff"/>
    <path d="M 235.370094 359.052537 
L 260.419396 366.583954 
L 259.960468 302.93575 
L 234.582389 295.594885 
z
" clip-path="url(#p2c852293dc)" style="fill: #648fff"/>
    <path d="M 234.582389 295.594885 
L 259.960468 302.93575 
L 274.931363 290.263271 
L 249.68433 283.037184 
z
" clip-path="url(#p2c852293dc)" style="fill: #577ddf"/>
    <path d="M 311.203182 381.852798 
L 325.711767 368.613565 
L 325.895039 339.996391 
L 311.300627 353.087943 
z
" clip-path="url(#p2c852293dc)" style="fill: #324880"/>
    <path d="M 285.640306 345.504271 
L 311.300627 353.087943 
L 325.895039 339.996391 
L 300.369928 332.531515 
z
" clip-path="url(#p2c852293dc)" style="fill: #577ddf"/>
    <path d="M 285.696055 374.18373 
L 311.203182 381.852798 
L 311.300627 353.087943 
L 285.640306 345.504271 
z
" clip-path="url(#p2c852293dc)" style="fill: #648fff"/>
    <path d="M 170.55834 357.045994 
L 166.695621 207.86499 
L 192.175277 214.918404 
L 195.284908 364.559251 
z
" clip-path="url(#p2c852293dc)" style="fill: #324880"/>
    <path d="M 336.943943 389.592112 
L 351.315872 376.231815 
L 377.153716 383.919612 
L 362.921564 397.402641 
z
" clip-path="url(#p2c852293dc)" style="fill: #3f599f"/>
    <path d="M 154.934026 370.102465 
L 150.551185 220.123617 
L 166.695621 207.86499 
L 170.55834 357.045994 
z
" clip-path="url(#p2c852293dc)" style="fill: #648fff"/>
    <path d="M 351.315872 376.231815 
L 352.212293 300.025515 
L 378.467521 307.482858 
L 377.153716 383.919612 
z
" clip-path="url(#p2c852293dc)" style="fill: #324880"/>
    <path d="M 336.943943 389.592112 
L 337.616955 312.986011 
L 352.212293 300.025515 
L 351.315872 376.231815 
z
" clip-path="url(#p2c852293dc)" style="fill: #648fff"/>
    <path d="M 179.78431 377.734283 
L 195.284908 364.559251 
L 192.175277 214.918404 
L 176.162124 227.29184 
z
" clip-path="url(#p2c852293dc)" style="fill: #324880"/>
    <path d="M 154.934026 370.102465 
L 179.78431 377.734283 
L 176.162124 227.29184 
L 150.551185 220.123617 
z
" clip-path="url(#p2c852293dc)" style="fill: #648fff"/>
    <path d="M 362.921564 397.402641 
L 377.153716 383.919612 
L 378.467521 307.482858 
L 364.016548 320.56433 
z
" clip-path="url(#p2c852293dc)" style="fill: #324880"/>
    <path d="M 336.943943 389.592112 
L 362.921564 397.402641 
L 364.016548 320.56433 
L 337.616955 312.986011 
z
" clip-path="url(#p2c852293dc)" style="fill: #648fff"/>
    <path d="M 337.616955 312.986011 
L 364.016548 320.56433 
L 378.467521 307.482858 
L 352.212293 300.025515 
z
" clip-path="url(#p2c852293dc)" style="fill: #577ddf"/>
    <path d="M 150.551185 220.123617 
L 176.162124 227.29184 
L 192.175277 214.918404 
L 166.695621 207.86499 
z
" clip-path="url(#p2c852293dc)" style="fill: #577ddf"/>
   </g>
   <g id="text_15">
    <!-- Real Amplitude (ρ) -->
    <g transform="translate(190.023516 51.6) scale(0.21 -0.21)">
     <defs>
      <path id="DejaVuSans-52" d="M 2841 2188 
Q 3044 2119 3236 1894 
Q 3428 1669 3622 1275 
L 4263 0 
L 3584 0 
L 2988 1197 
Q 2756 1666 2539 1819 
Q 2322 1972 1947 1972 
L 1259 1972 
L 1259 0 
L 628 0 
L 628 4666 
L 2053 4666 
Q 2853 4666 3247 4331 
Q 3641 3997 3641 3322 
Q 3641 2881 3436 2590 
Q 3231 2300 2841 2188 
z
M 1259 4147 
L 1259 2491 
L 2053 2491 
Q 2509 2491 2742 2702 
Q 2975 2913 2975 3322 
Q 2975 3731 2742 3939 
Q 2509 4147 2053 4147 
L 1259 4147 
z
" transform="scale(0.015625)"/>
      <path id="DejaVuSans-65" d="M 3597 1894 
L 3597 1613 
L 953 1613 
Q 991 1019 1311 708 
Q 1631 397 2203 397 
Q 2534 397 2845 478 
Q 3156 559 3463 722 
L 3463 178 
Q 3153 47 2828 -22 
Q 2503 -91 2169 -91 
Q 1331 -91 842 396 
Q 353 884 353 1716 
Q 353 2575 817 3079 
Q 1281 3584 2069 3584 
Q 2775 3584 3186 3129 
Q 3597 2675 3597 1894 
z
M 3022 2063 
Q 3016 2534 2758 2815 
Q 2500 3097 2075 3097 
Q 1594 3097 1305 2825 
Q 1016 2553 972 2059 
L 3022 2063 
z
" transform="scale(0.015625)"/>
      <path id="DejaVuSans-61" d="M 2194 1759 
Q 1497 1759 1228 1600 
Q 959 1441 959 1056 
Q 959 750 1161 570 
Q 1363 391 1709 391 
Q 2188 391 2477 730 
Q 2766 1069 2766 1631 
L 2766 1759 
L 2194 1759 
z
M 3341 1997 
L 3341 0 
L 2766 0 
L 2766 531 
Q 2569 213 2275 61 
Q 1981 -91 1556 -91 
Q 1019 -91 701 211 
Q 384 513 384 1019 
Q 384 1609 779 1909 
Q 1175 2209 1959 2209 
L 2766 2209 
L 2766 2266 
Q 2766 2663 2505 2880 
Q 2244 3097 1772 3097 
Q 1472 3097 1187 3025 
Q 903 2953 641 2809 
L 641 3341 
Q 956 3463 1253 3523 
Q 1550 3584 1831 3584 
Q 2591 3584 2966 3190 
Q 3341 2797 3341 1997 
z
" transform="scale(0.015625)"/>
      <path id="DejaVuSans-6c" d="M 603 4863 
L 1178 4863 
L 1178 0 
L 603 0 
L 603 4863 
z
" transform="scale(0.015625)"/>
      <path id="DejaVuSans-20" transform="scale(0.015625)"/>
      <path id="DejaVuSans-41" d="M 2188 4044 
L 1331 1722 
L 3047 1722 
L 2188 4044 
z
M 1831 4666 
L 2547 4666 
L 4325 0 
L 3669 0 
L 3244 1197 
L 1141 1197 
L 716 0 
L 50 0 
L 1831 4666 
z
" transform="scale(0.015625)"/>
      <path id="DejaVuSans-6d" d="M 3328 2828 
Q 3544 3216 3844 3400 
Q 4144 3584 4550 3584 
Q 5097 3584 5394 3201 
Q 5691 2819 5691 2113 
L 5691 0 
L 5113 0 
L 5113 2094 
Q 5113 2597 4934 2840 
Q 4756 3084 4391 3084 
Q 3944 3084 3684 2787 
Q 3425 2491 3425 1978 
L 3425 0 
L 2847 0 
L 2847 2094 
Q 2847 2600 2669 2842 
Q 2491 3084 2119 3084 
Q 1678 3084 1418 2786 
Q 1159 2488 1159 1978 
L 1159 0 
L 581 0 
L 581 3500 
L 1159 3500 
L 1159 2956 
Q 1356 3278 1631 3431 
Q 1906 3584 2284 3584 
Q 2666 3584 2933 3390 
Q 3200 3197 3328 2828 
z
" transform="scale(0.015625)"/>
      <path id="DejaVuSans-70" d="M 1159 525 
L 1159 -1331 
L 581 -1331 
L 581 3500 
L 1159 3500 
L 1159 2969 
Q 1341 3281 1617 3432 
Q 1894 3584 2278 3584 
Q 2916 3584 3314 3078 
Q 3713 2572 3713 1747 
Q 3713 922 3314 415 
Q 2916 -91 2278 -91 
Q 1894 -91 1617 61 
Q 1341 213 1159 525 
z
M 3116 1747 
Q 3116 2381 2855 2742 
Q 2594 3103 2138 3103 
Q 1681 3103 1420 2742 
Q 1159 2381 1159 1747 
Q 1159 1113 1420 752 
Q 1681 391 2138 391 
Q 2594 391 2855 752 
Q 3116 1113 3116 1747 
z
" transform="scale(0.015625)"/>
      <path id="DejaVuSans-69" d="M 603 3500 
L 1178 3500 
L 1178 0 
L 603 0 
L 603 3500 
z
M 603 4863 
L 1178 4863 
L 1178 4134 
L 603 4134 
L 603 4863 
z
" transform="scale(0.015625)"/>
      <path id="DejaVuSans-74" d="M 1172 4494 
L 1172 3500 
L 2356 3500 
L 2356 3053 
L 1172 3053 
L 1172 1153 
Q 1172 725 1289 603 
Q 1406 481 1766 481 
L 2356 481 
L 2356 0 
L 1766 0 
Q 1100 0 847 248 
Q 594 497 594 1153 
L 594 3053 
L 172 3053 
L 172 3500 
L 594 3500 
L 594 4494 
L 1172 4494 
z
" transform="scale(0.015625)"/>
      <path id="DejaVuSans-75" d="M 544 1381 
L 544 3500 
L 1119 3500 
L 1119 1403 
Q 1119 906 1312 657 
Q 1506 409 1894 409 
Q 2359 409 2629 706 
Q 2900 1003 2900 1516 
L 2900 3500 
L 3475 3500 
L 3475 0 
L 2900 0 
L 2900 538 
Q 2691 219 2414 64 
Q 2138 -91 1772 -91 
Q 1169 -91 856 284 
Q 544 659 544 1381 
z
M 1991 3584 
L 1991 3584 
z
" transform="scale(0.015625)"/>
      <path id="DejaVuSans-64" d="M 2906 2969 
L 2906 4863 
L 3481 4863 
L 3481 0 
L 2906 0 
L 2906 525 
Q 2725 213 2448 61 
Q 2172 -91 1784 -91 
Q 1150 -91 751 415 
Q 353 922 353 1747 
Q 353 2572 751 3078 
Q 1150 3584 1784 3584 
Q 2172 3584 2448 3432 
Q 2725 3281 2906 2969 
z
M 947 1747 
Q 947 1113 1208 752 
Q 1469 391 1925 391 
Q 2381 391 2643 752 
Q 2906 1113 2906 1747 
Q 2906 2381 2643 2742 
Q 2381 3103 1925 3103 
Q 1469 3103 1208 2742 
Q 947 2381 947 1747 
z
" transform="scale(0.015625)"/>
      <path id="DejaVuSans-28" d="M 1984 4856 
Q 1566 4138 1362 3434 
Q 1159 2731 1159 2009 
Q 1159 1288 1364 580 
Q 1569 -128 1984 -844 
L 1484 -844 
Q 1016 -109 783 600 
Q 550 1309 550 2009 
Q 550 2706 781 3412 
Q 1013 4119 1484 4856 
L 1984 4856 
z
" transform="scale(0.015625)"/>
      <path id="DejaVuSans-3c1" d="M 863 2875 
Q 1053 3194 1525 3475 
Q 1709 3584 2278 3584 
Q 2916 3584 3314 3078 
Q 3713 2572 3713 1747 
Q 3713 922 3314 415 
Q 2916 -91 2278 -91 
Q 1894 -91 1617 61 
Q 1341 213 1159 525 
L 1159 -1331 
L 581 -1331 
L 581 1716 
Q 581 2438 863 2875 
z
M 3116 1747 
Q 3116 2381 2855 2742 
Q 2594 3103 2138 3103 
Q 1681 3103 1420 2742 
Q 1159 2381 1159 1747 
Q 1159 1113 1420 752 
Q 1681 391 2138 391 
Q 2594 391 2855 752 
Q 3116 1113 3116 1747 
z
" transform="scale(0.015625)"/>
      <path id="DejaVuSans-29" d="M 513 4856 
L 1013 4856 
Q 1481 4119 1714 3412 
Q 1947 2706 1947 2009 
Q 1947 1309 1714 600 
Q 1481 -109 1013 -844 
L 513 -844 
Q 928 -128 1133 580 
Q 1338 1288 1338 2009 
Q 1338 2731 1133 3434 
Q 928 4138 513 4856 
z
" transform="scale(0.015625)"/>
     </defs>
     <use xlink:href="#DejaVuSans-52"/>
     <use xlink:href="#DejaVuSans-65" x="64.982422"/>
     <use xlink:href="#DejaVuSans-61" x="126.505859"/>
     <use xlink:href="#DejaVuSans-6c" x="187.785156"/>
     <use xlink:href="#DejaVuSans-20" x="215.568359"/>
     <use xlink:href="#DejaVuSans-41" x="247.355469"/>
     <use xlink:href="#DejaVuSans-6d" x="315.763672"/>
     <use xlink:href="#DejaVuSans-70" x="413.175781"/>
     <use xlink:href="#DejaVuSans-6c" x="476.652344"/>
     <use xlink:href="#DejaVuSans-69" x="504.435547"/>
     <use xlink:href="#DejaVuSans-74" x="532.21875"/>
     <use xlink:href="#DejaVuSans-75" x="571.427734"/>
     <use xlink:href="#DejaVuSans-64" x="634.806641"/>
     <use xlink:href="#DejaVuSans-65" x="698.283203"/>
     <use xlink:href="#DejaVuSans-20" x="759.806641"/>
     <use xlink:href="#DejaVuSans-28" x="791.59375"/>
     <use xlink:href="#DejaVuSans-3c1" x="830.607422"/>
     <use xlink:href="#DejaVuSans-29" x="894.083984"/>
    </g>
   </g>
  </g>
  <g id="patch_6">
   <path d="M 604.8 576 
L 1123.2 576 
L 1123.2 57.6 
L 604.8 57.6 
z
" style="fill: #ffffff"/>
  </g>
  <g id="pane3d_4">
   <g id="patch_7">
    <path d="M 706.07018 436.456468 
L 829.494133 330.550231 
L 827.743197 126.70673 
L 698.643358 223.613571 
" style="fill: #f2f2f2; opacity: 0.5; stroke: #f2f2f2; stroke-linejoin: miter"/>
   </g>
  </g>
  <g id="pane3d_5">
   <g id="patch_8">
    <path d="M 829.494133 330.550231 
L 1031.554898 390.069341 
L 1038.583588 181.103065 
L 827.743197 126.70673 
" style="fill: #e6e6e6; opacity: 0.5; stroke: #e6e6e6; stroke-linejoin: miter"/>
   </g>
  </g>
  <g id="pane3d_6">
   <g id="patch_9">
    <path d="M 706.07018 436.456468 
L 916.912731 504.076731 
L 1031.554898 390.069341 
L 829.494133 330.550231 
" style="fill: #ececec; opacity: 0.5; stroke: #ececec; stroke-linejoin: miter"/>
   </g>
  </g>
  <g id="grid3d_4">
   <g id="Line3DCollection_4">
    <path d="M 734.635886 445.617904 
L 856.925726 338.630493 
L 856.328796 134.081748 
" style="fill: none; stroke: #b0b0b0; stroke-width: 0.8"/>
    <path d="M 784.310046 461.549127 
L 904.58611 352.669358 
L 906.022474 146.902603 
" style="fill: none; stroke: #b0b0b0; stroke-width: 0.8"/>
    <path d="M 834.89502 477.772462 
L 953.066152 366.949661 
L 956.607663 159.953465 
" style="fill: none; stroke: #b0b0b0; stroke-width: 0.8"/>
    <path d="M 886.41609 494.296016 
L 1002.38718 381.477685 
L 1008.108569 173.24058 
" style="fill: none; stroke: #b0b0b0; stroke-width: 0.8"/>
   </g>
  </g>
  <g id="grid3d_5">
   <g id="Line3DCollection_5">
    <path d="M 717.757365 209.265931 
L 724.301379 420.812846 
L 933.880707 487.202708 
" style="fill: none; stroke: #b0b0b0; stroke-width: 0.8"/>
    <path d="M 749.704273 185.285468 
L 754.805664 394.638072 
L 962.24502 458.995448 
" style="fill: none; stroke: #b0b0b0; stroke-width: 0.8"/>
    <path d="M 780.65707 162.051218 
L 784.400054 369.24405 
L 989.731787 431.660877 
" style="fill: none; stroke: #b0b0b0; stroke-width: 0.8"/>
    <path d="M 810.661448 139.528886 
L 813.124663 344.596362 
L 1016.38111 405.159111 
" style="fill: none; stroke: #b0b0b0; stroke-width: 0.8"/>
   </g>
  </g>
  <g id="grid3d_6">
   <g id="Line3DCollection_6">
    <path d="M 1031.676882 386.442708 
L 829.463699 327.007171 
L 705.941438 432.766897 
" style="fill: none; stroke: #b0b0b0; stroke-width: 0.8"/>
    <path d="M 1032.557368 360.265437 
L 829.244076 301.438724 
L 705.012013 406.130791 
" style="fill: none; stroke: #b0b0b0; stroke-width: 0.8"/>
    <path d="M 1033.447557 333.79968 
L 829.022119 275.59849 
L 704.072061 379.193026 
" style="fill: none; stroke: #b0b0b0; stroke-width: 0.8"/>
    <path d="M 1034.347612 307.040641 
L 828.797789 249.482111 
L 703.121404 351.948449 
" style="fill: none; stroke: #b0b0b0; stroke-width: 0.8"/>
    <path d="M 1035.257695 279.983419 
L 828.57105 223.085138 
L 702.159857 324.391788 
" style="fill: none; stroke: #b0b0b0; stroke-width: 0.8"/>
    <path d="M 1036.177977 252.623002 
L 828.341861 196.403023 
L 701.187233 296.517651 
" style="fill: none; stroke: #b0b0b0; stroke-width: 0.8"/>
    <path d="M 1037.10863 224.954264 
L 828.110183 169.431122 
L 700.203337 268.320518 
" style="fill: none; stroke: #b0b0b0; stroke-width: 0.8"/>
    <path d="M 1038.049829 196.971965 
L 827.875975 142.164687 
L 699.207975 239.794743 
" style="fill: none; stroke: #b0b0b0; stroke-width: 0.8"/>
   </g>
  </g>
  <g id="axis3d_4">
   <g id="line2d_18">
    <path d="M 706.07018 436.456468 
L 916.912731 504.076731 
" style="fill: none; stroke: #000000; stroke-width: 0.8; stroke-linecap: square"/>
   </g>
   <g id="xtick_15">
    <g id="line2d_19">
     <path d="M 735.677227 444.706868 
L 732.549953 447.442819 
" style="fill: none; stroke: #000000; stroke-width: 0.8; stroke-linecap: square"/>
    </g>
    <g id="text_16">
     <!-- 00 -->
     <g transform="translate(707.351686 489.365693) rotate(-45) scale(0.21 -0.21)">
      <use xlink:href="#DejaVuSans-30"/>
      <use xlink:href="#DejaVuSans-30" x="63.623047"/>
     </g>
    </g>
   </g>
   <g id="xtick_16">
    <g id="line2d_20">
     <path d="M 785.334802 460.621468 
L 782.257306 463.407368 
" style="fill: none; stroke: #000000; stroke-width: 0.8; stroke-linecap: square"/>
    </g>
    <g id="text_17">
     <!-- 01 -->
     <g transform="translate(757.023931 505.435143) rotate(-45) scale(0.21 -0.21)">
      <use xlink:href="#DejaVuSans-30"/>
      <use xlink:href="#DejaVuSans-31" x="63.623047"/>
     </g>
    </g>
   </g>
   <g id="xtick_17">
    <g id="line2d_21">
     <path d="M 835.902405 476.82772 
L 832.877048 479.664949 
" style="fill: none; stroke: #000000; stroke-width: 0.8; stroke-linecap: square"/>
    </g>
    <g id="text_18">
     <!-- 10 -->
     <g transform="translate(807.60781 521.799516) rotate(-45) scale(0.21 -0.21)">
      <use xlink:href="#DejaVuSans-31"/>
      <use xlink:href="#DejaVuSans-30" x="63.623047"/>
     </g>
    </g>
   </g>
   <g id="xtick_18">
    <g id="line2d_22">
     <path d="M 887.405283 493.333715 
L 884.434531 496.223705 
" style="fill: none; stroke: #000000; stroke-width: 0.8; stroke-linecap: square"/>
    </g>
    <g id="text_19">
     <!-- 11 -->
     <g transform="translate(859.128654 538.467006) rotate(-45) scale(0.21 -0.21)">
      <use xlink:href="#DejaVuSans-31"/>
      <use xlink:href="#DejaVuSans-31" x="63.623047"/>
     </g>
    </g>
   </g>
  </g>
  <g id="axis3d_5">
   <g id="line2d_23">
    <path d="M 1031.554898 390.069341 
L 916.912731 504.076731 
" style="fill: none; stroke: #000000; stroke-width: 0.8; stroke-linecap: square"/>
   </g>
   <g id="xtick_19">
    <g id="line2d_24">
     <path d="M 932.140222 486.651363 
L 937.364886 488.306415 
" style="fill: none; stroke: #000000; stroke-width: 0.8; stroke-linecap: square"/>
    </g>
    <g id="text_20">
     <!-- 00 -->
     <g transform="translate(944.70027 499.207917) rotate(-337.5) scale(0.21 -0.21)">
      <use xlink:href="#DejaVuSans-30"/>
      <use xlink:href="#DejaVuSans-30" x="63.623047"/>
     </g>
    </g>
   </g>
   <g id="xtick_20">
    <g id="line2d_25">
     <path d="M 960.5233 458.46129 
L 965.691587 460.064734 
" style="fill: none; stroke: #000000; stroke-width: 0.8; stroke-linecap: square"/>
    </g>
    <g id="text_21">
     <!-- 01 -->
     <g transform="translate(972.913817 470.822876) rotate(-337.5) scale(0.21 -0.21)">
      <use xlink:href="#DejaVuSans-30"/>
      <use xlink:href="#DejaVuSans-31" x="63.623047"/>
     </g>
    </g>
   </g>
   <g id="xtick_21">
    <g id="line2d_26">
     <path d="M 988.028511 431.143114 
L 993.141381 432.697327 
" style="fill: none; stroke: #000000; stroke-width: 0.8; stroke-linecap: square"/>
    </g>
    <g id="text_22">
     <!-- 10 -->
     <g transform="translate(1000.254695 443.315808) rotate(-337.5) scale(0.21 -0.21)">
      <use xlink:href="#DejaVuSans-31"/>
      <use xlink:href="#DejaVuSans-30" x="63.623047"/>
     </g>
    </g>
   </g>
   <g id="xtick_22">
    <g id="line2d_27">
     <path d="M 1014.695964 404.657001 
L 1019.754368 406.164215 
" style="fill: none; stroke: #000000; stroke-width: 0.8; stroke-linecap: square"/>
    </g>
    <g id="text_23">
     <!-- 11 -->
     <g transform="translate(1026.762776 416.646599) rotate(-337.5) scale(0.21 -0.21)">
      <use xlink:href="#DejaVuSans-31"/>
      <use xlink:href="#DejaVuSans-31" x="63.623047"/>
     </g>
    </g>
   </g>
  </g>
  <g id="axis3d_6">
   <g id="line2d_28">
    <path d="M 1031.554898 390.069341 
L 1038.583588 181.103065 
" style="fill: none; stroke: #000000; stroke-width: 0.8; stroke-linecap: square"/>
   </g>
   <g id="xtick_23">
    <g id="line2d_29">
     <path d="M 1030.000858 385.950083 
L 1035.031855 387.428819 
" style="fill: none; stroke: #000000; stroke-width: 0.8; stroke-linecap: square"/>
    </g>
    <g id="text_24">
     <!-- −0.3 -->
     <g transform="translate(1045.166313 380.156977) scale(0.21 -0.21)">
      <use xlink:href="#DejaVuSans-2212"/>
      <use xlink:href="#DejaVuSans-30" x="83.789062"/>
      <use xlink:href="#DejaVuSans-2e" x="147.412109"/>
      <use xlink:href="#DejaVuSans-33" x="179.199219"/>
     </g>
    </g>
   </g>
   <g id="xtick_24">
    <g id="line2d_30">
     <path d="M 1030.871905 359.777765 
L 1035.931252 361.241637 
" style="fill: none; stroke: #000000; stroke-width: 0.8; stroke-linecap: square"/>
    </g>
    <g id="text_25">
     <!-- −0.2 -->
     <g transform="translate(1046.119635 353.999003) scale(0.21 -0.21)">
      <use xlink:href="#DejaVuSans-2212"/>
      <use xlink:href="#DejaVuSans-30" x="83.789062"/>
      <use xlink:href="#DejaVuSans-2e" x="147.412109"/>
      <use xlink:href="#DejaVuSans-32" x="179.199219"/>
     </g>
    </g>
   </g>
   <g id="xtick_25">
    <g id="line2d_31">
     <path d="M 1031.752548 333.3171 
L 1036.840567 334.765691 
" style="fill: none; stroke: #000000; stroke-width: 0.8; stroke-linecap: square"/>
    </g>
    <g id="text_26">
     <!-- −0.1 -->
     <g transform="translate(1047.083452 327.553086) scale(0.21 -0.21)">
      <use xlink:href="#DejaVuSans-2212"/>
      <use xlink:href="#DejaVuSans-30" x="83.789062"/>
      <use xlink:href="#DejaVuSans-2e" x="147.412109"/>
      <use xlink:href="#DejaVuSans-31" x="179.199219"/>
     </g>
    </g>
   </g>
   <g id="xtick_26">
    <g id="line2d_32">
     <path d="M 1032.642948 306.563297 
L 1037.759965 307.996176 
" style="fill: none; stroke: #000000; stroke-width: 0.8; stroke-linecap: square"/>
    </g>
    <g id="text_27">
     <!-- 0.0 -->
     <g transform="translate(1048.057936 300.814445) scale(0.21 -0.21)">
      <use xlink:href="#DejaVuSans-30"/>
      <use xlink:href="#DejaVuSans-2e" x="63.623047"/>
      <use xlink:href="#DejaVuSans-30" x="95.410156"/>
     </g>
    </g>
   </g>
   <g id="xtick_27">
    <g id="line2d_33">
     <path d="M 1033.543266 279.511458 
L 1038.689614 280.928184 
" style="fill: none; stroke: #000000; stroke-width: 0.8; stroke-linecap: square"/>
    </g>
    <g id="text_28">
     <!-- 0.1 -->
     <g transform="translate(1049.043267 273.778193) scale(0.21 -0.21)">
      <use xlink:href="#DejaVuSans-30"/>
      <use xlink:href="#DejaVuSans-2e" x="63.623047"/>
      <use xlink:href="#DejaVuSans-31" x="95.410156"/>
     </g>
    </g>
   </g>
   <g id="xtick_28">
    <g id="line2d_34">
     <path d="M 1034.45367 252.156574 
L 1039.629686 253.556694 
" style="fill: none; stroke: #000000; stroke-width: 0.8; stroke-linecap: square"/>
    </g>
    <g id="text_29">
     <!-- 0.2 -->
     <g transform="translate(1050.039627 246.439332) scale(0.21 -0.21)">
      <use xlink:href="#DejaVuSans-30"/>
      <use xlink:href="#DejaVuSans-2e" x="63.623047"/>
      <use xlink:href="#DejaVuSans-32" x="95.410156"/>
     </g>
    </g>
   </g>
   <g id="xtick_29">
    <g id="line2d_35">
     <path d="M 1035.37433 224.493525 
L 1040.580359 225.876574 
" style="fill: none; stroke: #000000; stroke-width: 0.8; stroke-linecap: square"/>
    </g>
    <g id="text_30">
     <!-- 0.3 -->
     <g transform="translate(1051.047201 218.792755) scale(0.21 -0.21)">
      <use xlink:href="#DejaVuSans-30"/>
      <use xlink:href="#DejaVuSans-2e" x="63.623047"/>
      <use xlink:href="#DejaVuSans-33" x="95.410156"/>
     </g>
    </g>
   </g>
   <g id="xtick_30">
    <g id="line2d_36">
     <path d="M 1036.305421 196.517073 
L 1041.541812 197.882573 
" style="fill: none; stroke: #000000; stroke-width: 0.8; stroke-linecap: square"/>
    </g>
    <g id="text_31">
     <!-- 0.4 -->
     <g transform="translate(1052.06618 190.833237) scale(0.21 -0.21)">
      <use xlink:href="#DejaVuSans-30"/>
      <use xlink:href="#DejaVuSans-2e" x="63.623047"/>
      <use xlink:href="#DejaVuSans-34" x="95.410156"/>
     </g>
    </g>
   </g>
  </g>
  <g id="axes_2">
   <g id="Poly3DCollection_4">
    <path d="M 932.963207 289.247459 
L 932.963207 289.247459 
L 957.923761 296.28365 
L 957.923761 296.28365 
z
" clip-path="url(#pcb551fd9f9)" style="fill: #648fff"/>
    <path d="M 919.137947 301.473927 
L 919.137947 301.473927 
L 932.963207 289.247459 
L 932.963207 289.247459 
z
" clip-path="url(#pcb551fd9f9)" style="fill: #324880"/>
    <path d="M 919.137947 301.473927 
L 944.229041 308.618488 
L 957.923761 296.28365 
L 932.963207 289.247459 
z
" clip-path="url(#pcb551fd9f9)" style="fill: #577ddf"/>
    <path d="M 919.137947 301.473927 
L 932.963207 289.247459 
L 957.923761 296.28365 
L 944.229041 308.618488 
z
" clip-path="url(#pcb551fd9f9)" style="fill: #3f599f"/>
    <path d="M 944.229041 308.618488 
L 957.923761 296.28365 
L 957.923761 296.28365 
L 944.229041 308.618488 
z
" clip-path="url(#pcb551fd9f9)" style="fill: #648fff"/>
    <path d="M 919.137947 301.473927 
L 944.229041 308.618488 
L 944.229041 308.618488 
L 919.137947 301.473927 
z
" clip-path="url(#pcb551fd9f9)" style="fill: #324880"/>
    <path d="M 905.099403 313.889014 
L 905.099403 313.889014 
L 930.322105 321.144469 
L 930.322105 321.144469 
z
" clip-path="url(#pcb551fd9f9)" style="fill: #648fff"/>
    <path d="M 890.8426 326.497119 
L 890.8426 326.497119 
L 905.099403 313.889014 
L 905.099403 313.889014 
z
" clip-path="url(#pcb551fd9f9)" style="fill: #324880"/>
    <path d="M 890.8426 326.497119 
L 905.099403 313.889014 
L 930.322105 321.144469 
L 916.197982 333.866071 
z
" clip-path="url(#pcb551fd9f9)" style="fill: #3f599f"/>
    <path d="M 890.8426 326.497119 
L 916.197982 333.866071 
L 930.322105 321.144469 
L 905.099403 313.889014 
z
" clip-path="url(#pcb551fd9f9)" style="fill: #577ddf"/>
    <path d="M 916.197982 333.866071 
L 930.322105 321.144469 
L 930.322105 321.144469 
L 916.197982 333.866071 
z
" clip-path="url(#pcb551fd9f9)" style="fill: #648fff"/>
    <path d="M 890.8426 326.497119 
L 916.197982 333.866071 
L 916.197982 333.866071 
L 890.8426 326.497119 
z
" clip-path="url(#pcb551fd9f9)" style="fill: #324880"/>
    <path d="M 781.918977 441.476573 
L 806.933118 449.411411 
L 821.993337 435.713145 
L 797.105825 427.901245 
z
" clip-path="url(#pcb551fd9f9)" style="fill: #577ddf"/>
    <path d="M 795.894557 350.284932 
L 797.105825 427.901245 
L 821.993337 435.713145 
L 821.186319 357.870427 
z
" clip-path="url(#pcb551fd9f9)" style="fill: #648fff"/>
    <path d="M 876.362409 339.30278 
L 876.354599 346.335594 
L 901.80637 353.841673 
L 901.851544 346.787912 
z
" clip-path="url(#pcb551fd9f9)" style="fill: #648fff"/>
    <path d="M 780.447178 363.467537 
L 781.918977 441.476573 
L 797.105825 427.901245 
L 795.894557 350.284932 
z
" clip-path="url(#pcb551fd9f9)" style="fill: #324880"/>
    <path d="M 861.653537 352.310676 
L 861.667278 359.379829 
L 876.354599 346.335594 
L 876.362409 339.30278 
z
" clip-path="url(#pcb551fd9f9)" style="fill: #324880"/>
    <path d="M 861.667278 359.379829 
L 887.253481 367.005013 
L 901.80637 353.841673 
L 876.354599 346.335594 
z
" clip-path="url(#pcb551fd9f9)" style="fill: #577ddf"/>
    <path d="M 861.653537 352.310676 
L 876.362409 339.30278 
L 901.851544 346.787912 
L 887.2775 359.914757 
z
" clip-path="url(#pcb551fd9f9)" style="fill: #3f599f"/>
    <path d="M 805.869697 371.174392 
L 821.186319 357.870427 
L 821.993337 435.713145 
L 806.933118 449.411411 
z
" clip-path="url(#pcb551fd9f9)" style="fill: #648fff"/>
    <path d="M 887.2775 359.914757 
L 901.851544 346.787912 
L 901.80637 353.841673 
L 887.253481 367.005013 
z
" clip-path="url(#pcb551fd9f9)" style="fill: #648fff"/>
    <path d="M 780.447178 363.467537 
L 805.869697 371.174392 
L 806.933118 449.411411 
L 781.918977 441.476573 
z
" clip-path="url(#pcb551fd9f9)" style="fill: #324880"/>
    <path d="M 861.653537 352.310676 
L 887.2775 359.914757 
L 887.253481 367.005013 
L 861.667278 359.379829 
z
" clip-path="url(#pcb551fd9f9)" style="fill: #324880"/>
    <path d="M 927.573371 354.341375 
L 927.355095 372.897424 
L 953.211197 380.575369 
L 953.53109 361.964111 
z
" clip-path="url(#pcb551fd9f9)" style="fill: #648fff"/>
    <path d="M 913.13725 367.588809 
L 912.973387 386.240632 
L 927.355095 372.897424 
L 927.573371 354.341375 
z
" clip-path="url(#pcb551fd9f9)" style="fill: #324880"/>
    <path d="M 912.973387 386.240632 
L 938.969465 394.041239 
L 953.211197 380.575369 
L 927.355095 372.897424 
z
" clip-path="url(#pcb551fd9f9)" style="fill: #577ddf"/>
    <path d="M 780.447178 363.467537 
L 795.894557 350.284932 
L 821.186319 357.870427 
L 805.869697 371.174392 
z
" clip-path="url(#pcb551fd9f9)" style="fill: #3f599f"/>
    <path d="M 883.337424 480.603576 
L 909.243605 488.853463 
L 923.746364 474.612105 
L 897.978509 466.492174 
z
" clip-path="url(#pcb551fd9f9)" style="fill: #577ddf"/>
    <path d="M 846.710524 365.525636 
L 846.87595 398.193888 
L 872.46037 406.016709 
L 872.470391 373.251525 
z
" clip-path="url(#pcb551fd9f9)" style="fill: #648fff"/>
    <path d="M 831.798684 411.789041 
L 857.518221 419.737313 
L 872.46037 406.016709 
L 846.87595 398.193888 
z
" clip-path="url(#pcb551fd9f9)" style="fill: #577ddf"/>
    <path d="M 913.13725 367.588809 
L 927.573371 354.341375 
L 953.53109 361.964111 
L 939.236056 375.333803 
z
" clip-path="url(#pcb551fd9f9)" style="fill: #3f599f"/>
    <path d="M 939.236056 375.333803 
L 953.53109 361.964111 
L 953.211197 380.575369 
L 938.969465 394.041239 
z
" clip-path="url(#pcb551fd9f9)" style="fill: #648fff"/>
    <path d="M 831.527736 378.952644 
L 831.798684 411.789041 
L 846.87595 398.193888 
L 846.710524 365.525636 
z
" clip-path="url(#pcb551fd9f9)" style="fill: #324880"/>
    <path d="M 913.13725 367.588809 
L 939.236056 375.333803 
L 938.969465 394.041239 
L 912.973387 386.240632 
z
" clip-path="url(#pcb551fd9f9)" style="fill: #324880"/>
    <path d="M 898.469199 381.049076 
L 897.978509 466.492174 
L 923.746364 474.612105 
L 924.710288 388.919293 
z
" clip-path="url(#pcb551fd9f9)" style="fill: #648fff"/>
    <path d="M 883.563583 394.727347 
L 883.337424 480.603576 
L 897.978509 466.492174 
L 898.469199 381.049076 
z
" clip-path="url(#pcb551fd9f9)" style="fill: #324880"/>
    <path d="M 857.424581 386.803291 
L 872.470391 373.251525 
L 872.46037 406.016709 
L 857.518221 419.737313 
z
" clip-path="url(#pcb551fd9f9)" style="fill: #648fff"/>
    <path d="M 831.527736 378.952644 
L 846.710524 365.525636 
L 872.470391 373.251525 
L 857.424581 386.803291 
z
" clip-path="url(#pcb551fd9f9)" style="fill: #3f599f"/>
    <path d="M 831.527736 378.952644 
L 857.424581 386.803291 
L 857.518221 419.737313 
L 831.798684 411.789041 
z
" clip-path="url(#pcb551fd9f9)" style="fill: #324880"/>
    <path d="M 909.948154 402.725848 
L 924.710288 388.919293 
L 923.746364 474.612105 
L 909.243605 488.853463 
z
" clip-path="url(#pcb551fd9f9)" style="fill: #648fff"/>
    <path d="M 883.563583 394.727347 
L 909.948154 402.725848 
L 909.243605 488.853463 
L 883.337424 480.603576 
z
" clip-path="url(#pcb551fd9f9)" style="fill: #324880"/>
    <path d="M 883.563583 394.727347 
L 898.469199 381.049076 
L 924.710288 388.919293 
L 909.948154 402.725848 
z
" clip-path="url(#pcb551fd9f9)" style="fill: #3f599f"/>
   </g>
   <g id="Poly3DCollection_5">
    <path d="M 709.926341 351.025832 
L 915.798831 413.774222 
L 1027.898813 307.914972 
L 830.407036 252.521001 
z
" clip-path="url(#pcb551fd9f9)" style="fill-opacity: 0.25"/>
   </g>
   <g id="Poly3DCollection_6">
    <path d="M 820.952779 273.516198 
L 835.272677 261.70924 
L 859.378145 268.504389 
L 845.177893 280.414176 
z
" clip-path="url(#pcb551fd9f9)" style="fill: #3f599f"/>
    <path d="M 835.272677 261.70924 
L 834.658172 177.415736 
L 859.177308 183.957063 
L 859.378145 268.504389 
z
" clip-path="url(#pcb551fd9f9)" style="fill: #324880"/>
    <path d="M 820.952779 273.516198 
L 820.085426 188.782288 
L 834.658172 177.415736 
L 835.272677 261.70924 
z
" clip-path="url(#pcb551fd9f9)" style="fill: #648fff"/>
    <path d="M 883.693218 275.358623 
L 883.740204 257.257549 
L 908.359061 264.118025 
L 908.22064 282.272718 
z
" clip-path="url(#pcb551fd9f9)" style="fill: #324880"/>
    <path d="M 869.61525 287.37259 
L 869.610063 269.178491 
L 883.740204 257.257549 
L 883.693218 275.358623 
z
" clip-path="url(#pcb551fd9f9)" style="fill: #648fff"/>
    <path d="M 869.61525 287.37259 
L 883.693218 275.358623 
L 908.22064 282.272718 
L 894.267651 294.392236 
z
" clip-path="url(#pcb551fd9f9)" style="fill: #3f599f"/>
    <path d="M 845.177893 280.414176 
L 859.378145 268.504389 
L 859.177308 183.957063 
L 844.728347 195.424328 
z
" clip-path="url(#pcb551fd9f9)" style="fill: #324880"/>
    <path d="M 820.952779 273.516198 
L 845.177893 280.414176 
L 844.728347 195.424328 
L 820.085426 188.782288 
z
" clip-path="url(#pcb551fd9f9)" style="fill: #648fff"/>
    <path d="M 869.610063 269.178491 
L 894.354836 276.144093 
L 908.359061 264.118025 
L 883.740204 257.257549 
z
" clip-path="url(#pcb551fd9f9)" style="fill: #577ddf"/>
    <path d="M 894.267651 294.392236 
L 908.22064 282.272718 
L 908.359061 264.118025 
L 894.354836 276.144093 
z
" clip-path="url(#pcb551fd9f9)" style="fill: #324880"/>
    <path d="M 869.61525 287.37259 
L 894.267651 294.392236 
L 894.354836 276.144093 
L 869.610063 269.178491 
z
" clip-path="url(#pcb551fd9f9)" style="fill: #648fff"/>
    <path d="M 806.415833 285.502116 
L 805.991426 253.451069 
L 830.495854 260.358664 
L 830.76146 292.505276 
z
" clip-path="url(#pcb551fd9f9)" style="fill: #324880"/>
    <path d="M 791.656865 297.671095 
L 806.415833 285.502116 
L 830.76146 292.505276 
L 816.12387 304.78186 
z
" clip-path="url(#pcb551fd9f9)" style="fill: #3f599f"/>
    <path d="M 791.656865 297.671095 
L 791.131471 265.454245 
L 805.991426 253.451069 
L 806.415833 285.502116 
z
" clip-path="url(#pcb551fd9f9)" style="fill: #648fff"/>
    <path d="M 820.085426 188.782288 
L 844.728347 195.424328 
L 859.177308 183.957063 
L 834.658172 177.415736 
z
" clip-path="url(#pcb551fd9f9)" style="fill: #577ddf"/>
    <path d="M 816.12387 304.78186 
L 830.76146 292.505276 
L 830.495854 260.358664 
L 815.758861 272.468684 
z
" clip-path="url(#pcb551fd9f9)" style="fill: #324880"/>
    <path d="M 855.322016 299.570262 
L 855.299639 292.630554 
L 880.113395 299.73759 
L 880.100361 306.697895 
z
" clip-path="url(#pcb551fd9f9)" style="fill: #324880"/>
    <path d="M 791.131471 265.454245 
L 815.758861 272.468684 
L 830.495854 260.358664 
L 805.991426 253.451069 
z
" clip-path="url(#pcb551fd9f9)" style="fill: #577ddf"/>
    <path d="M 791.656865 297.671095 
L 816.12387 304.78186 
L 815.758861 272.468684 
L 791.131471 265.454245 
z
" clip-path="url(#pcb551fd9f9)" style="fill: #648fff"/>
    <path d="M 840.808541 311.955885 
L 840.765123 304.980443 
L 855.299639 292.630554 
L 855.322016 299.570262 
z
" clip-path="url(#pcb551fd9f9)" style="fill: #648fff"/>
    <path d="M 983.105195 303.382105 
L 983.105195 303.382105 
L 1008.510454 310.543655 
L 1008.510454 310.543655 
z
" clip-path="url(#pcb551fd9f9)" style="fill: #324880"/>
    <path d="M 840.808541 311.955885 
L 855.322016 299.570262 
L 880.100361 306.697895 
L 865.713794 319.194017 
z
" clip-path="url(#pcb551fd9f9)" style="fill: #3f599f"/>
    <path d="M 969.543885 315.826761 
L 969.543885 315.826761 
L 983.105195 303.382105 
L 983.105195 303.382105 
z
" clip-path="url(#pcb551fd9f9)" style="fill: #648fff"/>
    <path d="M 840.765123 304.980443 
L 865.706152 312.197818 
L 880.113395 299.73759 
L 855.299639 292.630554 
z
" clip-path="url(#pcb551fd9f9)" style="fill: #577ddf"/>
    <path d="M 969.543885 315.826761 
L 983.105195 303.382105 
L 1008.510454 310.543655 
L 995.085486 323.099603 
z
" clip-path="url(#pcb551fd9f9)" style="fill: #3f599f"/>
    <path d="M 969.543885 315.826761 
L 995.085486 323.099603 
L 1008.510454 310.543655 
L 983.105195 303.382105 
z
" clip-path="url(#pcb551fd9f9)" style="fill: #577ddf"/>
    <path d="M 865.713794 319.194017 
L 880.100361 306.697895 
L 880.113395 299.73759 
L 865.706152 312.197818 
z
" clip-path="url(#pcb551fd9f9)" style="fill: #324880"/>
    <path d="M 840.808541 311.955885 
L 865.713794 319.194017 
L 865.706152 312.197818 
L 840.765123 304.980443 
z
" clip-path="url(#pcb551fd9f9)" style="fill: #648fff"/>
    <path d="M 995.085486 323.099603 
L 1008.510454 310.543655 
L 1008.510454 310.543655 
L 995.085486 323.099603 
z
" clip-path="url(#pcb551fd9f9)" style="fill: #324880"/>
    <path d="M 969.543885 315.826761 
L 995.085486 323.099603 
L 995.085486 323.099603 
L 969.543885 315.826761 
z
" clip-path="url(#pcb551fd9f9)" style="fill: #648fff"/>
    <path d="M 761.452202 322.575266 
L 776.670749 310.027359 
L 801.259996 317.248229 
L 786.16455 329.908819 
z
" clip-path="url(#pcb551fd9f9)" style="fill: #3f599f"/>
    <path d="M 776.670749 310.027359 
L 775.137552 231.14864 
L 800.1213 238.129646 
L 801.259996 317.248229 
z
" clip-path="url(#pcb551fd9f9)" style="fill: #324880"/>
    <path d="M 826.069694 324.533837 
L 826.069694 324.533837 
L 851.102821 331.885058 
L 851.102821 331.885058 
z
" clip-path="url(#pcb551fd9f9)" style="fill: #324880"/>
    <path d="M 761.452202 322.575266 
L 759.657628 243.280376 
L 775.137552 231.14864 
L 776.670749 310.027359 
z
" clip-path="url(#pcb551fd9f9)" style="fill: #648fff"/>
    <path d="M 811.100185 337.308634 
L 811.100185 337.308634 
L 826.069694 324.533837 
L 826.069694 324.533837 
z
" clip-path="url(#pcb551fd9f9)" style="fill: #648fff"/>
    <path d="M 955.771482 328.465129 
L 955.771482 328.465129 
L 981.450603 335.851876 
L 981.450603 335.851876 
z
" clip-path="url(#pcb551fd9f9)" style="fill: #324880"/>
    <path d="M 811.100185 337.308634 
L 826.069694 324.533837 
L 851.102821 331.885058 
L 836.262149 344.775614 
z
" clip-path="url(#pcb551fd9f9)" style="fill: #3f599f"/>
    <path d="M 811.100185 337.308634 
L 836.262149 344.775614 
L 851.102821 331.885058 
L 826.069694 324.533837 
z
" clip-path="url(#pcb551fd9f9)" style="fill: #577ddf"/>
    <path d="M 941.783019 341.301766 
L 941.783019 341.301766 
L 955.771482 328.465129 
L 955.771482 328.465129 
z
" clip-path="url(#pcb551fd9f9)" style="fill: #648fff"/>
    <path d="M 786.16455 329.908819 
L 801.259996 317.248229 
L 800.1213 238.129646 
L 784.768431 250.372117 
z
" clip-path="url(#pcb551fd9f9)" style="fill: #324880"/>
    <path d="M 836.262149 344.775614 
L 851.102821 331.885058 
L 851.102821 331.885058 
L 836.262149 344.775614 
z
" clip-path="url(#pcb551fd9f9)" style="fill: #324880"/>
    <path d="M 941.783019 341.301766 
L 955.771482 328.465129 
L 981.450603 335.851876 
L 967.600844 348.805116 
z
" clip-path="url(#pcb551fd9f9)" style="fill: #3f599f"/>
    <path d="M 941.783019 341.301766 
L 967.600844 348.805116 
L 981.450603 335.851876 
L 955.771482 328.465129 
z
" clip-path="url(#pcb551fd9f9)" style="fill: #577ddf"/>
    <path d="M 745.995774 335.31931 
L 745.995774 335.31931 
L 770.832076 342.768204 
L 770.832076 342.768204 
z
" clip-path="url(#pcb551fd9f9)" style="fill: #324880"/>
    <path d="M 761.452202 322.575266 
L 786.16455 329.908819 
L 784.768431 250.372117 
L 759.657628 243.280376 
z
" clip-path="url(#pcb551fd9f9)" style="fill: #648fff"/>
    <path d="M 811.100185 337.308634 
L 836.262149 344.775614 
L 836.262149 344.775614 
L 811.100185 337.308634 
z
" clip-path="url(#pcb551fd9f9)" style="fill: #648fff"/>
    <path d="M 730.295843 348.264125 
L 730.295843 348.264125 
L 745.995774 335.31931 
L 745.995774 335.31931 
z
" clip-path="url(#pcb551fd9f9)" style="fill: #648fff"/>
    <path d="M 967.600844 348.805116 
L 981.450603 335.851876 
L 981.450603 335.851876 
L 967.600844 348.805116 
z
" clip-path="url(#pcb551fd9f9)" style="fill: #324880"/>
    <path d="M 941.783019 341.301766 
L 967.600844 348.805116 
L 967.600844 348.805116 
L 941.783019 341.301766 
z
" clip-path="url(#pcb551fd9f9)" style="fill: #648fff"/>
    <path d="M 730.295843 348.264125 
L 745.995774 335.31931 
L 770.832076 342.768204 
L 755.25695 355.831102 
z
" clip-path="url(#pcb551fd9f9)" style="fill: #3f599f"/>
    <path d="M 730.295843 348.264125 
L 755.25695 355.831102 
L 770.832076 342.768204 
L 745.995774 335.31931 
z
" clip-path="url(#pcb551fd9f9)" style="fill: #577ddf"/>
    <path d="M 759.657628 243.280376 
L 784.768431 250.372117 
L 800.1213 238.129646 
L 775.137552 231.14864 
z
" clip-path="url(#pcb551fd9f9)" style="fill: #577ddf"/>
    <path d="M 755.25695 355.831102 
L 770.832076 342.768204 
L 770.832076 342.768204 
L 755.25695 355.831102 
z
" clip-path="url(#pcb551fd9f9)" style="fill: #324880"/>
    <path d="M 730.295843 348.264125 
L 755.25695 355.831102 
L 755.25695 355.831102 
L 730.295843 348.264125 
z
" clip-path="url(#pcb551fd9f9)" style="fill: #648fff"/>
   </g>
   <g id="text_32">
    <!-- Imaginary Amplitude (ρ) -->
    <g transform="translate(735.696563 51.6) scale(0.21 -0.21)">
     <defs>
      <path id="DejaVuSans-49" d="M 628 4666 
L 1259 4666 
L 1259 0 
L 628 0 
L 628 4666 
z
" transform="scale(0.015625)"/>
      <path id="DejaVuSans-67" d="M 2906 1791 
Q 2906 2416 2648 2759 
Q 2391 3103 1925 3103 
Q 1463 3103 1205 2759 
Q 947 2416 947 1791 
Q 947 1169 1205 825 
Q 1463 481 1925 481 
Q 2391 481 2648 825 
Q 2906 1169 2906 1791 
z
M 3481 434 
Q 3481 -459 3084 -895 
Q 2688 -1331 1869 -1331 
Q 1566 -1331 1297 -1286 
Q 1028 -1241 775 -1147 
L 775 -588 
Q 1028 -725 1275 -790 
Q 1522 -856 1778 -856 
Q 2344 -856 2625 -561 
Q 2906 -266 2906 331 
L 2906 616 
Q 2728 306 2450 153 
Q 2172 0 1784 0 
Q 1141 0 747 490 
Q 353 981 353 1791 
Q 353 2603 747 3093 
Q 1141 3584 1784 3584 
Q 2172 3584 2450 3431 
Q 2728 3278 2906 2969 
L 2906 3500 
L 3481 3500 
L 3481 434 
z
" transform="scale(0.015625)"/>
      <path id="DejaVuSans-6e" d="M 3513 2113 
L 3513 0 
L 2938 0 
L 2938 2094 
Q 2938 2591 2744 2837 
Q 2550 3084 2163 3084 
Q 1697 3084 1428 2787 
Q 1159 2491 1159 1978 
L 1159 0 
L 581 0 
L 581 3500 
L 1159 3500 
L 1159 2956 
Q 1366 3272 1645 3428 
Q 1925 3584 2291 3584 
Q 2894 3584 3203 3211 
Q 3513 2838 3513 2113 
z
" transform="scale(0.015625)"/>
      <path id="DejaVuSans-72" d="M 2631 2963 
Q 2534 3019 2420 3045 
Q 2306 3072 2169 3072 
Q 1681 3072 1420 2755 
Q 1159 2438 1159 1844 
L 1159 0 
L 581 0 
L 581 3500 
L 1159 3500 
L 1159 2956 
Q 1341 3275 1631 3429 
Q 1922 3584 2338 3584 
Q 2397 3584 2469 3576 
Q 2541 3569 2628 3553 
L 2631 2963 
z
" transform="scale(0.015625)"/>
      <path id="DejaVuSans-79" d="M 2059 -325 
Q 1816 -950 1584 -1140 
Q 1353 -1331 966 -1331 
L 506 -1331 
L 506 -850 
L 844 -850 
Q 1081 -850 1212 -737 
Q 1344 -625 1503 -206 
L 1606 56 
L 191 3500 
L 800 3500 
L 1894 763 
L 2988 3500 
L 3597 3500 
L 2059 -325 
z
" transform="scale(0.015625)"/>
     </defs>
     <use xlink:href="#DejaVuSans-49"/>
     <use xlink:href="#DejaVuSans-6d" x="29.492188"/>
     <use xlink:href="#DejaVuSans-61" x="126.904297"/>
     <use xlink:href="#DejaVuSans-67" x="188.183594"/>
     <use xlink:href="#DejaVuSans-69" x="251.660156"/>
     <use xlink:href="#DejaVuSans-6e" x="279.443359"/>
     <use xlink:href="#DejaVuSans-61" x="342.822266"/>
     <use xlink:href="#DejaVuSans-72" x="404.101562"/>
     <use xlink:href="#DejaVuSans-79" x="445.214844"/>
     <use xlink:href="#DejaVuSans-20" x="504.394531"/>
     <use xlink:href="#DejaVuSans-41" x="536.181641"/>
     <use xlink:href="#DejaVuSans-6d" x="604.589844"/>
     <use xlink:href="#DejaVuSans-70" x="702.001953"/>
     <use xlink:href="#DejaVuSans-6c" x="765.478516"/>
     <use xlink:href="#DejaVuSans-69" x="793.261719"/>
     <use xlink:href="#DejaVuSans-74" x="821.044922"/>
     <use xlink:href="#DejaVuSans-75" x="860.253906"/>
     <use xlink:href="#DejaVuSans-64" x="923.632812"/>
     <use xlink:href="#DejaVuSans-65" x="987.109375"/>
     <use xlink:href="#DejaVuSans-20" x="1048.632812"/>
     <use xlink:href="#DejaVuSans-28" x="1080.419922"/>
     <use xlink:href="#DejaVuSans-3c1" x="1119.433594"/>
     <use xlink:href="#DejaVuSans-29" x="1182.910156"/>
    </g>
   </g>
  </g>
 </g>
 <defs>
  <clipPath id="p2c852293dc">
   <rect x="28.8" y="57.6" width="518.4" height="518.4"/>
  </clipPath>
  <clipPath id="pcb551fd9f9">
   <rect x="604.8" y="57.6" width="518.4" height="518.4"/>
  </clipPath>
 </defs>
</svg>
