<?xml version="1.0" encoding="utf-8" standalone="no"?>
<!DOCTYPE svg PUBLIC "-//W3C//DTD SVG 1.1//EN"
  "http://www.w3.org/Graphics/SVG/1.1/DTD/svg11.dtd">
<svg xmlns:xlink="http://www.w3.org/1999/xlink" width="1152pt" height="576pt" viewBox="0 0 1152 576" xmlns="http://www.w3.org/2000/svg" version="1.1">
 <metadata>
  <rdf:RDF xmlns:dc="http://purl.org/dc/elements/1.1/" xmlns:cc="http://creativecommons.org/ns#" xmlns:rdf="http://www.w3.org/1999/02/22-rdf-syntax-ns#">
   <cc:Work>
    <dc:type rdf:resource="http://purl.org/dc/dcmitype/StillImage"/>
    <dc:date>2024-11-04T22:03:01.074034</dc:date>
    <dc:format>image/svg+xml</dc:format>
    <dc:creator>
     <cc:Agent>
      <dc:title>Matplotlib v3.9.2, https://matplotlib.org/</dc:title>
     </cc:Agent>
    </dc:creator>
   </cc:Work>
  </rdf:RDF>
 </metadata>
 <defs>
  <style type="text/css">*{stroke-linejoin: round; stroke-linecap: butt}</style>
 </defs>
 <g id="figure_1">
  <g id="patch_1">
   <path d="M 0 576 
L 1152 576 
L 1152 0 
L 0 0 
z
" style="fill: #ffffff"/>
  </g>
  <g id="patch_2">
   <path d="M 28.8 576 
L 547.2 576 
L 547.2 57.6 
L 28.8 57.6 
z
" style="fill: #ffffff"/>
  </g>
  <g id="pane3d_1">
   <g id="patch_3">
    <path d="M 130.07018 436.456468 
L 253.494133 330.550231 
L 251.743197 126.70673 
L 122.643358 223.613571 
" style="fill: #f2f2f2; opacity: 0.5; stroke: #f2f2f2; stroke-linejoin: miter"/>
   </g>
  </g>
  <g id="pane3d_2">
   <g id="patch_4">
    <path d="M 253.494133 330.550231 
L 455.554898 390.069341 
L 462.583588 181.103065 
L 251.743197 126.70673 
" style="fill: #e6e6e6; opacity: 0.5; stroke: #e6e6e6; stroke-linejoin: miter"/>
   </g>
  </g>
  <g id="pane3d_3">
   <g id="patch_5">
    <path d="M 130.07018 436.456468 
L 340.912731 504.076731 
L 455.554898 390.069341 
L 253.494133 330.550231 
" style="fill: #ececec; opacity: 0.5; stroke: #ececec; stroke-linejoin: miter"/>
   </g>
  </g>
  <g id="grid3d_1">
   <g id="Line3DCollection_1">
    <path d="M 148.107564 442.241318 
L 270.817434 335.65299 
L 269.793879 131.363764 
" style="fill: none; stroke: #b0b0b0; stroke-width: 0.8"/>
    <path d="M 204.73198 460.40159 
L 325.154862 351.658648 
L 326.443642 145.979273 
" style="fill: none; stroke: #b0b0b0; stroke-width: 0.8"/>
    <path d="M 262.543747 478.942662 
L 380.560935 367.979086 
L 384.255639 160.894634 
" style="fill: none; stroke: #b0b0b0; stroke-width: 0.8"/>
    <path d="M 321.580608 497.876639 
L 437.067491 384.623682 
L 443.266006 176.119173 
" style="fill: none; stroke: #b0b0b0; stroke-width: 0.8"/>
   </g>
  </g>
  <g id="grid3d_2">
   <g id="Line3DCollection_2">
    <path d="M 134.777648 214.505149 
L 141.642324 426.526772 
L 351.684419 493.364686 
" style="fill: none; stroke: #b0b0b0; stroke-width: 0.8"/>
    <path d="M 171.455878 186.973191 
L 176.657452 396.481386 
L 384.248591 460.980823 
" style="fill: none; stroke: #b0b0b0; stroke-width: 0.8"/>
    <path d="M 206.831169 160.419264 
L 210.480196 367.459145 
L 415.662622 429.740732 
" style="fill: none; stroke: #b0b0b0; stroke-width: 0.8"/>
    <path d="M 240.971738 134.792162 
L 243.170446 339.408664 
L 445.986389 399.584868 
" style="fill: none; stroke: #b0b0b0; stroke-width: 0.8"/>
   </g>
  </g>
  <g id="grid3d_3">
   <g id="Line3DCollection_3">
    <path d="M 456.121666 373.219055 
L 253.352744 314.089842 
L 129.471966 419.312458 
" style="fill: none; stroke: #b0b0b0; stroke-width: 0.8"/>
    <path d="M 457.244958 339.823062 
L 253.072627 281.478626 
L 128.286011 385.32455 
" style="fill: none; stroke: #b0b0b0; stroke-width: 0.8"/>
    <path d="M 458.384022 305.95813 
L 252.788716 248.425814 
L 127.08294 350.84612 
" style="fill: none; stroke: #b0b0b0; stroke-width: 0.8"/>
    <path d="M 459.539195 271.614312 
L 252.500935 214.922375 
L 125.862379 315.86647 
" style="fill: none; stroke: #b0b0b0; stroke-width: 0.8"/>
    <path d="M 460.710819 236.781378 
L 252.209203 180.959031 
L 124.623946 280.374591 
" style="fill: none; stroke: #b0b0b0; stroke-width: 0.8"/>
    <path d="M 461.899248 201.448805 
L 251.913439 146.526246 
L 123.367243 244.359148 
" style="fill: none; stroke: #b0b0b0; stroke-width: 0.8"/>
   </g>
  </g>
  <g id="axis3d_1">
   <g id="line2d_1">
    <path d="M 130.07018 436.456468 
L 340.912731 504.076731 
" style="fill: none; stroke: #000000; stroke-width: 0.8; stroke-linecap: square"/>
   </g>
   <g id="xtick_1">
    <g id="line2d_2">
     <path d="M 149.15236 441.333787 
L 146.014717 444.059209 
" style="fill: none; stroke: #000000; stroke-width: 0.8; stroke-linecap: square"/>
    </g>
    <g id="text_1">
     <!-- 00 -->
     <g transform="translate(120.823877 485.959845) rotate(-45) scale(0.21 -0.21)">
      <defs>
       <path id="DejaVuSans-30" d="M 2034 4250 
Q 1547 4250 1301 3770 
Q 1056 3291 1056 2328 
Q 1056 1369 1301 889 
Q 1547 409 2034 409 
Q 2525 409 2770 889 
Q 3016 1369 3016 2328 
Q 3016 3291 2770 3770 
Q 2525 4250 2034 4250 
z
M 2034 4750 
Q 2819 4750 3233 4129 
Q 3647 3509 3647 2328 
Q 3647 1150 3233 529 
Q 2819 -91 2034 -91 
Q 1250 -91 836 529 
Q 422 1150 422 2328 
Q 422 3509 836 4129 
Q 1250 4750 2034 4750 
z
" transform="scale(0.015625)"/>
      </defs>
      <use xlink:href="#DejaVuSans-30"/>
      <use xlink:href="#DejaVuSans-30" x="63.623047"/>
     </g>
    </g>
   </g>
   <g id="xtick_2">
    <g id="line2d_3">
     <path d="M 205.757946 459.475133 
L 202.676818 462.257419 
" style="fill: none; stroke: #000000; stroke-width: 0.8; stroke-linecap: square"/>
    </g>
    <g id="text_2">
     <!-- 01 -->
     <g transform="translate(177.445975 504.27764) rotate(-45) scale(0.21 -0.21)">
      <defs>
       <path id="DejaVuSans-31" d="M 794 531 
L 1825 531 
L 1825 4091 
L 703 3866 
L 703 4441 
L 1819 4666 
L 2450 4666 
L 2450 531 
L 3481 531 
L 3481 0 
L 794 0 
L 794 531 
z
" transform="scale(0.015625)"/>
      </defs>
      <use xlink:href="#DejaVuSans-30"/>
      <use xlink:href="#DejaVuSans-31" x="63.623047"/>
     </g>
    </g>
   </g>
   <g id="xtick_3">
    <g id="line2d_4">
     <path d="M 263.54986 477.996682 
L 260.528321 480.837631 
" style="fill: none; stroke: #000000; stroke-width: 0.8; stroke-linecap: square"/>
    </g>
    <g id="text_3">
     <!-- 10 -->
     <g transform="translate(235.256492 522.9799) rotate(-45) scale(0.21 -0.21)">
      <use xlink:href="#DejaVuSans-31"/>
      <use xlink:href="#DejaVuSans-30" x="63.623047"/>
     </g>
    </g>
   </g>
   <g id="xtick_4">
    <g id="line2d_5">
     <path d="M 322.565792 496.910512 
L 319.607072 499.811999 
" style="fill: none; stroke: #000000; stroke-width: 0.8; stroke-linecap: square"/>
    </g>
    <g id="text_4">
     <!-- 11 -->
     <g transform="translate(294.293241 542.078858) rotate(-45) scale(0.21 -0.21)">
      <use xlink:href="#DejaVuSans-31"/>
      <use xlink:href="#DejaVuSans-31" x="63.623047"/>
     </g>
    </g>
   </g>
  </g>
  <g id="axis3d_2">
   <g id="line2d_6">
    <path d="M 455.554898 390.069341 
L 340.912731 504.076731 
" style="fill: none; stroke: #000000; stroke-width: 0.8; stroke-linecap: square"/>
   </g>
   <g id="xtick_5">
    <g id="line2d_7">
     <path d="M 349.939872 492.809551 
L 355.176743 494.475986 
" style="fill: none; stroke: #000000; stroke-width: 0.8; stroke-linecap: square"/>
    </g>
    <g id="text_5">
     <!-- 00 -->
     <g transform="translate(362.536948 505.408703) rotate(-337.5) scale(0.21 -0.21)">
      <use xlink:href="#DejaVuSans-30"/>
      <use xlink:href="#DejaVuSans-30" x="63.623047"/>
     </g>
    </g>
   </g>
   <g id="xtick_6">
    <g id="line2d_8">
     <path d="M 382.525541 460.445465 
L 387.697822 462.052514 
" style="fill: none; stroke: #000000; stroke-width: 0.8; stroke-linecap: square"/>
    </g>
    <g id="text_6">
     <!-- 01 -->
     <g transform="translate(394.927992 472.820772) rotate(-337.5) scale(0.21 -0.21)">
      <use xlink:href="#DejaVuSans-30"/>
      <use xlink:href="#DejaVuSans-31" x="63.623047"/>
     </g>
    </g>
   </g>
   <g id="xtick_7">
    <g id="line2d_9">
     <path d="M 413.960652 429.224112 
L 419.0696 430.774895 
" style="fill: none; stroke: #000000; stroke-width: 0.8; stroke-linecap: square"/>
    </g>
    <g id="text_7">
     <!-- 10 -->
     <g transform="translate(426.175291 441.383538) rotate(-337.5) scale(0.21 -0.21)">
      <use xlink:href="#DejaVuSans-31"/>
      <use xlink:href="#DejaVuSans-30" x="63.623047"/>
     </g>
    </g>
   </g>
   <g id="xtick_8">
    <g id="line2d_10">
     <path d="M 444.305087 399.08602 
L 449.351944 400.58344 
" style="fill: none; stroke: #000000; stroke-width: 0.8; stroke-linecap: square"/>
    </g>
    <g id="text_8">
     <!-- 11 -->
     <g transform="translate(456.338373 411.037112) rotate(-337.5) scale(0.21 -0.21)">
      <use xlink:href="#DejaVuSans-31"/>
      <use xlink:href="#DejaVuSans-31" x="63.623047"/>
     </g>
    </g>
   </g>
  </g>
  <g id="axis3d_3">
   <g id="line2d_11">
    <path d="M 455.554898 390.069341 
L 462.583588 181.103065 
" style="fill: none; stroke: #000000; stroke-width: 0.8; stroke-linecap: square"/>
   </g>
   <g id="xtick_9">
    <g id="line2d_12">
     <path d="M 454.440875 372.728922 
L 459.486192 374.200181 
" style="fill: none; stroke: #000000; stroke-width: 0.8; stroke-linecap: square"/>
    </g>
    <g id="text_9">
     <!-- 0.05 -->
     <g transform="translate(469.647893 366.943032) scale(0.21 -0.21)">
      <defs>
       <path id="DejaVuSans-2e" d="M 684 794 
L 1344 794 
L 1344 0 
L 684 0 
L 684 794 
z
" transform="scale(0.015625)"/>
       <path id="DejaVuSans-35" d="M 691 4666 
L 3169 4666 
L 3169 4134 
L 1269 4134 
L 1269 2991 
Q 1406 3038 1543 3061 
Q 1681 3084 1819 3084 
Q 2600 3084 3056 2656 
Q 3513 2228 3513 1497 
Q 3513 744 3044 326 
Q 2575 -91 1722 -91 
Q 1428 -91 1123 -41 
Q 819 9 494 109 
L 494 744 
Q 775 591 1075 516 
Q 1375 441 1709 441 
Q 2250 441 2565 725 
Q 2881 1009 2881 1497 
Q 2881 1984 2565 2268 
Q 2250 2553 1709 2553 
Q 1456 2553 1204 2497 
Q 953 2441 691 2322 
L 691 4666 
z
" transform="scale(0.015625)"/>
      </defs>
      <use xlink:href="#DejaVuSans-30"/>
      <use xlink:href="#DejaVuSans-2e" x="63.623047"/>
      <use xlink:href="#DejaVuSans-30" x="95.410156"/>
      <use xlink:href="#DejaVuSans-35" x="159.033203"/>
     </g>
    </g>
   </g>
   <g id="xtick_10">
    <g id="line2d_13">
     <path d="M 455.552122 339.339316 
L 460.633614 340.791407 
" style="fill: none; stroke: #000000; stroke-width: 0.8; stroke-linecap: square"/>
    </g>
    <g id="text_10">
     <!-- 0.10 -->
     <g transform="translate(470.864096 333.571924) scale(0.21 -0.21)">
      <use xlink:href="#DejaVuSans-30"/>
      <use xlink:href="#DejaVuSans-2e" x="63.623047"/>
      <use xlink:href="#DejaVuSans-31" x="95.410156"/>
      <use xlink:href="#DejaVuSans-30" x="159.033203"/>
     </g>
    </g>
   </g>
   <g id="xtick_11">
    <g id="line2d_14">
     <path d="M 456.678968 305.480999 
L 461.797158 306.913237 
" style="fill: none; stroke: #000000; stroke-width: 0.8; stroke-linecap: square"/>
    </g>
    <g id="text_11">
     <!-- 0.15 -->
     <g transform="translate(472.097358 299.732766) scale(0.21 -0.21)">
      <use xlink:href="#DejaVuSans-30"/>
      <use xlink:href="#DejaVuSans-2e" x="63.623047"/>
      <use xlink:href="#DejaVuSans-31" x="95.410156"/>
      <use xlink:href="#DejaVuSans-35" x="159.033203"/>
     </g>
    </g>
   </g>
   <g id="xtick_12">
    <g id="line2d_15">
     <path d="M 457.821744 271.144034 
L 462.977166 272.555709 
" style="fill: none; stroke: #000000; stroke-width: 0.8; stroke-linecap: square"/>
    </g>
    <g id="text_12">
     <!-- 0.20 -->
     <g transform="translate(473.348039 265.415642) scale(0.21 -0.21)">
      <defs>
       <path id="DejaVuSans-32" d="M 1228 531 
L 3431 531 
L 3431 0 
L 469 0 
L 469 531 
Q 828 903 1448 1529 
Q 2069 2156 2228 2338 
Q 2531 2678 2651 2914 
Q 2772 3150 2772 3378 
Q 2772 3750 2511 3984 
Q 2250 4219 1831 4219 
Q 1534 4219 1204 4116 
Q 875 4013 500 3803 
L 500 4441 
Q 881 4594 1212 4672 
Q 1544 4750 1819 4750 
Q 2544 4750 2975 4387 
Q 3406 4025 3406 3419 
Q 3406 3131 3298 2873 
Q 3191 2616 2906 2266 
Q 2828 2175 2409 1742 
Q 1991 1309 1228 531 
z
" transform="scale(0.015625)"/>
      </defs>
      <use xlink:href="#DejaVuSans-30"/>
      <use xlink:href="#DejaVuSans-2e" x="63.623047"/>
      <use xlink:href="#DejaVuSans-32" x="95.410156"/>
      <use xlink:href="#DejaVuSans-30" x="159.033203"/>
     </g>
    </g>
   </g>
   <g id="xtick_13">
    <g id="line2d_16">
     <path d="M 458.980791 236.318196 
L 464.173989 237.708577 
" style="fill: none; stroke: #000000; stroke-width: 0.8; stroke-linecap: square"/>
    </g>
    <g id="text_13">
     <!-- 0.25 -->
     <g transform="translate(474.616511 230.610353) scale(0.21 -0.21)">
      <use xlink:href="#DejaVuSans-30"/>
      <use xlink:href="#DejaVuSans-2e" x="63.623047"/>
      <use xlink:href="#DejaVuSans-32" x="95.410156"/>
      <use xlink:href="#DejaVuSans-35" x="159.033203"/>
     </g>
    </g>
   </g>
   <g id="xtick_14">
    <g id="line2d_17">
     <path d="M 460.156457 200.992972 
L 465.38799 202.361299 
" style="fill: none; stroke: #000000; stroke-width: 0.8; stroke-linecap: square"/>
    </g>
    <g id="text_14">
     <!-- 0.30 -->
     <g transform="translate(475.903157 195.306408) scale(0.21 -0.21)">
      <defs>
       <path id="DejaVuSans-33" d="M 2597 2516 
Q 3050 2419 3304 2112 
Q 3559 1806 3559 1356 
Q 3559 666 3084 287 
Q 2609 -91 1734 -91 
Q 1441 -91 1130 -33 
Q 819 25 488 141 
L 488 750 
Q 750 597 1062 519 
Q 1375 441 1716 441 
Q 2309 441 2620 675 
Q 2931 909 2931 1356 
Q 2931 1769 2642 2001 
Q 2353 2234 1838 2234 
L 1294 2234 
L 1294 2753 
L 1863 2753 
Q 2328 2753 2575 2939 
Q 2822 3125 2822 3475 
Q 2822 3834 2567 4026 
Q 2313 4219 1838 4219 
Q 1578 4219 1281 4162 
Q 984 4106 628 3988 
L 628 4550 
Q 988 4650 1302 4700 
Q 1616 4750 1894 4750 
Q 2613 4750 3031 4423 
Q 3450 4097 3450 3541 
Q 3450 3153 3228 2886 
Q 3006 2619 2597 2516 
z
" transform="scale(0.015625)"/>
      </defs>
      <use xlink:href="#DejaVuSans-30"/>
      <use xlink:href="#DejaVuSans-2e" x="63.623047"/>
      <use xlink:href="#DejaVuSans-33" x="95.410156"/>
      <use xlink:href="#DejaVuSans-30" x="159.033203"/>
     </g>
    </g>
   </g>
  </g>
  <g id="axes_1">
   <g id="Poly3DCollection_1">
    <path d="M 239.211762 363.328994 
L 255.208224 349.432286 
L 282.049212 357.427223 
L 266.201077 371.458887 
z
" clip-path="url(#pbdf7c36817)" style="fill: #3f599f"/>
    <path d="M 309.150395 365.499663 
L 309.197089 349.661799 
L 336.653273 357.762517 
L 336.515575 373.650738 
z
" clip-path="url(#pbdf7c36817)" style="fill: #324880"/>
    <path d="M 255.208224 349.432286 
L 254.226499 230.683319 
L 281.728026 238.289457 
L 282.049212 357.427223 
z
" clip-path="url(#pbdf7c36817)" style="fill: #324880"/>
    <path d="M 293.454241 379.668257 
L 293.449077 363.743028 
L 309.197089 349.661799 
L 309.150395 365.499663 
z
" clip-path="url(#pbdf7c36817)" style="fill: #648fff"/>
    <path d="M 293.454241 379.668257 
L 309.150395 365.499663 
L 336.515575 373.650738 
L 320.97514 387.958276 
z
" clip-path="url(#pbdf7c36817)" style="fill: #3f599f"/>
    <path d="M 239.211762 363.328994 
L 237.823607 243.905381 
L 254.226499 230.683319 
L 255.208224 349.432286 
z
" clip-path="url(#pbdf7c36817)" style="fill: #648fff"/>
    <path d="M 293.449077 363.743028 
L 321.062023 371.982295 
L 336.653273 357.762517 
L 309.197089 349.661799 
z
" clip-path="url(#pbdf7c36817)" style="fill: #577ddf"/>
    <path d="M 320.97514 387.958276 
L 336.515575 373.650738 
L 336.653273 357.762517 
L 321.062023 371.982295 
z
" clip-path="url(#pbdf7c36817)" style="fill: #324880"/>
    <path d="M 266.201077 371.458887 
L 282.049212 357.427223 
L 281.728026 238.289457 
L 265.480848 251.643127 
z
" clip-path="url(#pbdf7c36817)" style="fill: #324880"/>
    <path d="M 293.454241 379.668257 
L 320.97514 387.958276 
L 321.062023 371.982295 
L 293.449077 363.743028 
z
" clip-path="url(#pbdf7c36817)" style="fill: #648fff"/>
    <path d="M 239.211762 363.328994 
L 266.201077 371.458887 
L 265.480848 251.643127 
L 237.823607 243.905381 
z
" clip-path="url(#pbdf7c36817)" style="fill: #648fff"/>
    <path d="M 206.400399 391.83342 
L 222.944794 377.460702 
L 250.08363 385.728995 
L 233.689946 400.243678 
z
" clip-path="url(#pbdf7c36817)" style="fill: #3f599f"/>
    <path d="M 348.76774 396.330139 
L 364.148628 381.881602 
L 392.053507 390.193433 
L 376.836084 404.785063 
z
" clip-path="url(#pbdf7c36817)" style="fill: #3f599f"/>
    <path d="M 277.490041 394.078809 
L 277.425428 376.485524 
L 305.20568 384.86185 
L 305.168004 402.511356 
z
" clip-path="url(#pbdf7c36817)" style="fill: #324880"/>
    <path d="M 237.823607 243.905381 
L 265.480848 251.643127 
L 281.728026 238.289457 
L 254.226499 230.683319 
z
" clip-path="url(#pbdf7c36817)" style="fill: #577ddf"/>
    <path d="M 261.250872 408.737572 
L 261.125277 391.04675 
L 277.425428 376.485524 
L 277.490041 394.078809 
z
" clip-path="url(#pbdf7c36817)" style="fill: #648fff"/>
    <path d="M 222.944794 377.460702 
L 220.953684 245.223472 
L 248.836137 253.054666 
L 250.08363 385.728995 
z
" clip-path="url(#pbdf7c36817)" style="fill: #324880"/>
    <path d="M 261.250872 408.737572 
L 277.490041 394.078809 
L 305.168004 402.511356 
L 289.087243 417.316354 
z
" clip-path="url(#pbdf7c36817)" style="fill: #3f599f"/>
    <path d="M 206.400399 391.83342 
L 203.930691 258.837747 
L 220.953684 245.223472 
L 222.944794 377.460702 
z
" clip-path="url(#pbdf7c36817)" style="fill: #648fff"/>
    <path d="M 405.184297 413.32429 
L 420.234242 398.587431 
L 448.694944 407.064821 
L 433.816584 421.949089 
z
" clip-path="url(#pbdf7c36817)" style="fill: #3f599f"/>
    <path d="M 261.125277 391.04675 
L 289.065112 399.56888 
L 305.20568 384.86185 
L 277.425428 376.485524 
z
" clip-path="url(#pbdf7c36817)" style="fill: #577ddf"/>
    <path d="M 289.087243 417.316354 
L 305.168004 402.511356 
L 305.20568 384.86185 
L 289.065112 399.56888 
z
" clip-path="url(#pbdf7c36817)" style="fill: #324880"/>
    <path d="M 261.250872 408.737572 
L 289.087243 417.316354 
L 289.065112 399.56888 
L 261.125277 391.04675 
z
" clip-path="url(#pbdf7c36817)" style="fill: #648fff"/>
    <path d="M 233.689946 400.243678 
L 250.08363 385.728995 
L 248.836137 253.054666 
L 231.972194 266.807176 
z
" clip-path="url(#pbdf7c36817)" style="fill: #324880"/>
    <path d="M 172.450448 421.326977 
L 189.571419 406.453367 
L 217.012863 415.009279 
L 200.044967 430.032359 
z
" clip-path="url(#pbdf7c36817)" style="fill: #3f599f"/>
    <path d="M 206.400399 391.83342 
L 233.689946 400.243678 
L 231.972194 266.807176 
L 203.930691 258.837747 
z
" clip-path="url(#pbdf7c36817)" style="fill: #648fff"/>
    <path d="M 364.148628 381.881602 
L 367.070581 179.822373 
L 396.175732 187.451219 
L 392.053507 390.193433 
z
" clip-path="url(#pbdf7c36817)" style="fill: #324880"/>
    <path d="M 317.203211 425.981304 
L 333.121575 411.027872 
L 361.354891 419.629616 
L 345.603009 434.733726 
z
" clip-path="url(#pbdf7c36817)" style="fill: #3f599f"/>
    <path d="M 348.76774 396.330139 
L 351.059959 193.085705 
L 367.070581 179.822373 
L 364.148628 381.881602 
z
" clip-path="url(#pbdf7c36817)" style="fill: #648fff"/>
    <path d="M 189.571419 406.453367 
L 187.746601 324.123691 
L 215.656139 332.410436 
L 217.012863 415.009279 
z
" clip-path="url(#pbdf7c36817)" style="fill: #324880"/>
    <path d="M 172.450448 421.326977 
L 170.310583 338.5303 
L 187.746601 324.123691 
L 189.571419 406.453367 
z
" clip-path="url(#pbdf7c36817)" style="fill: #648fff"/>
    <path d="M 376.836084 404.785063 
L 392.053507 390.193433 
L 396.175732 187.451219 
L 380.343078 200.851525 
z
" clip-path="url(#pbdf7c36817)" style="fill: #324880"/>
    <path d="M 227.918706 438.825829 
L 244.729565 423.651013 
L 272.725689 432.379868 
L 256.075924 447.708728 
z
" clip-path="url(#pbdf7c36817)" style="fill: #3f599f"/>
    <path d="M 203.930691 258.837747 
L 231.972194 266.807176 
L 248.836137 253.054666 
L 220.953684 245.223472 
z
" clip-path="url(#pbdf7c36817)" style="fill: #577ddf"/>
    <path d="M 420.234242 398.587431 
L 425.083796 214.072086 
L 454.677369 221.927232 
L 448.694944 407.064821 
z
" clip-path="url(#pbdf7c36817)" style="fill: #324880"/>
    <path d="M 348.76774 396.330139 
L 376.836084 404.785063 
L 380.343078 200.851525 
L 351.059959 193.085705 
z
" clip-path="url(#pbdf7c36817)" style="fill: #648fff"/>
    <path d="M 200.044967 430.032359 
L 217.012863 415.009279 
L 215.656139 332.410436 
L 198.378422 346.964358 
z
" clip-path="url(#pbdf7c36817)" style="fill: #324880"/>
    <path d="M 405.184297 413.32429 
L 409.489317 227.729194 
L 425.083796 214.072086 
L 420.234242 398.587431 
z
" clip-path="url(#pbdf7c36817)" style="fill: #648fff"/>
    <path d="M 374.290956 443.574952 
L 389.872172 428.317875 
L 418.677724 437.09396 
L 403.271461 452.50634 
z
" clip-path="url(#pbdf7c36817)" style="fill: #3f599f"/>
    <path d="M 172.450448 421.326977 
L 200.044967 430.032359 
L 198.378422 346.964358 
L 170.310583 338.5303 
z
" clip-path="url(#pbdf7c36817)" style="fill: #648fff"/>
    <path d="M 433.816584 421.949089 
L 448.694944 407.064821 
L 454.677369 221.927232 
L 439.268597 235.726303 
z
" clip-path="url(#pbdf7c36817)" style="fill: #324880"/>
    <path d="M 170.310583 338.5303 
L 198.378422 346.964358 
L 215.656139 332.410436 
L 187.746601 324.123691 
z
" clip-path="url(#pbdf7c36817)" style="fill: #577ddf"/>
    <path d="M 137.301599 451.862062 
L 155.029821 436.460911 
L 182.778585 445.319714 
L 165.205772 460.878379 
z
" clip-path="url(#pbdf7c36817)" style="fill: #3f599f"/>
    <path d="M 301.005482 441.197167 
L 301.028231 423.29366 
L 329.705008 432.143185 
L 329.573276 450.104261 
z
" clip-path="url(#pbdf7c36817)" style="fill: #324880"/>
    <path d="M 405.184297 413.32429 
L 433.816584 421.949089 
L 439.268597 235.726303 
L 409.489317 227.729194 
z
" clip-path="url(#pbdf7c36817)" style="fill: #648fff"/>
    <path d="M 284.520968 456.68243 
L 284.480864 438.679057 
L 301.028231 423.29366 
L 301.005482 441.197167 
z
" clip-path="url(#pbdf7c36817)" style="fill: #648fff"/>
    <path d="M 284.520968 456.68243 
L 301.005482 441.197167 
L 329.573276 450.104261 
L 313.258275 465.748333 
z
" clip-path="url(#pbdf7c36817)" style="fill: #3f599f"/>
    <path d="M 333.121575 411.027872 
L 334.930164 185.536333 
L 364.519638 193.366245 
L 361.354891 419.629616 
z
" clip-path="url(#pbdf7c36817)" style="fill: #324880"/>
    <path d="M 244.729565 423.651013 
L 243.087237 268.82459 
L 271.994103 277.034014 
L 272.725689 432.379868 
z
" clip-path="url(#pbdf7c36817)" style="fill: #324880"/>
    <path d="M 317.203211 425.981304 
L 318.266084 199.150386 
L 334.930164 185.536333 
L 333.121575 411.027872 
z
" clip-path="url(#pbdf7c36817)" style="fill: #648fff"/>
    <path d="M 227.918706 438.825829 
L 225.707391 283.098128 
L 243.087237 268.82459 
L 244.729565 423.651013 
z
" clip-path="url(#pbdf7c36817)" style="fill: #648fff"/>
    <path d="M 284.480864 438.679057 
L 313.328455 447.686973 
L 329.705008 432.143185 
L 301.028231 423.29366 
z
" clip-path="url(#pbdf7c36817)" style="fill: #577ddf"/>
    <path d="M 313.258275 465.748333 
L 329.573276 450.104261 
L 329.705008 432.143185 
L 313.328455 447.686973 
z
" clip-path="url(#pbdf7c36817)" style="fill: #324880"/>
    <path d="M 155.029821 436.460911 
L 151.586914 320.197743 
L 180.003836 328.670577 
L 182.778585 445.319714 
z
" clip-path="url(#pbdf7c36817)" style="fill: #324880"/>
    <path d="M 284.520968 456.68243 
L 313.258275 465.748333 
L 313.328455 447.686973 
L 284.480864 438.679057 
z
" clip-path="url(#pbdf7c36817)" style="fill: #648fff"/>
    <path d="M 351.059959 193.085705 
L 380.343078 200.851525 
L 396.175732 187.451219 
L 367.070581 179.822373 
z
" clip-path="url(#pbdf7c36817)" style="fill: #577ddf"/>
    <path d="M 137.301599 451.862062 
L 133.387546 334.92924 
L 151.586914 320.197743 
L 155.029821 436.460911 
z
" clip-path="url(#pbdf7c36817)" style="fill: #648fff"/>
    <path d="M 193.397334 469.987556 
L 210.810613 454.26895 
L 239.130263 463.310009 
L 221.88075 479.191036 
z
" clip-path="url(#pbdf7c36817)" style="fill: #3f599f"/>
    <path d="M 358.433493 459.10253 
L 358.654626 442.702079 
L 387.915099 451.740121 
L 387.590648 468.19338 
z
" clip-path="url(#pbdf7c36817)" style="fill: #324880"/>
    <path d="M 345.603009 434.733726 
L 361.354891 419.629616 
L 364.519638 193.366245 
L 348.038535 207.12407 
z
" clip-path="url(#pbdf7c36817)" style="fill: #324880"/>
    <path d="M 256.075924 447.708728 
L 272.725689 432.379868 
L 271.994103 277.034014 
L 254.785987 291.45724 
z
" clip-path="url(#pbdf7c36817)" style="fill: #324880"/>
    <path d="M 342.292371 474.907866 
L 342.45871 458.415811 
L 358.654626 442.702079 
L 358.433493 459.10253 
z
" clip-path="url(#pbdf7c36817)" style="fill: #648fff"/>
    <path d="M 389.872172 428.317875 
L 393.996137 222.483645 
L 424.08226 230.557433 
L 418.677724 437.09396 
z
" clip-path="url(#pbdf7c36817)" style="fill: #324880"/>
    <path d="M 342.292371 474.907866 
L 358.433493 459.10253 
L 387.590648 468.19338 
L 371.627879 484.162487 
z
" clip-path="url(#pbdf7c36817)" style="fill: #3f599f"/>
    <path d="M 317.203211 425.981304 
L 345.603009 434.733726 
L 348.038535 207.12407 
L 318.266084 199.150386 
z
" clip-path="url(#pbdf7c36817)" style="fill: #648fff"/>
    <path d="M 227.918706 438.825829 
L 256.075924 447.708728 
L 254.785987 291.45724 
L 225.707391 283.098128 
z
" clip-path="url(#pbdf7c36817)" style="fill: #648fff"/>
    <path d="M 374.290956 443.574952 
L 377.769202 236.522069 
L 393.996137 222.483645 
L 389.872172 428.317875 
z
" clip-path="url(#pbdf7c36817)" style="fill: #648fff"/>
    <path d="M 210.810613 454.26895 
L 209.312032 370.45337 
L 238.13055 379.218503 
L 239.130263 463.310009 
z
" clip-path="url(#pbdf7c36817)" style="fill: #324880"/>
    <path d="M 165.205772 460.878379 
L 182.778585 445.319714 
L 180.003836 328.670577 
L 161.967356 343.55649 
z
" clip-path="url(#pbdf7c36817)" style="fill: #324880"/>
    <path d="M 409.489317 227.729194 
L 439.268597 235.726303 
L 454.677369 221.927232 
L 425.083796 214.072086 
z
" clip-path="url(#pbdf7c36817)" style="fill: #577ddf"/>
    <path d="M 342.45871 458.415811 
L 371.898814 467.617249 
L 387.915099 451.740121 
L 358.654626 442.702079 
z
" clip-path="url(#pbdf7c36817)" style="fill: #577ddf"/>
    <path d="M 193.397334 469.987556 
L 191.572395 385.693284 
L 209.312032 370.45337 
L 210.810613 454.26895 
z
" clip-path="url(#pbdf7c36817)" style="fill: #648fff"/>
    <path d="M 137.301599 451.862062 
L 165.205772 460.878379 
L 161.967356 343.55649 
L 133.387546 334.92924 
z
" clip-path="url(#pbdf7c36817)" style="fill: #648fff"/>
    <path d="M 371.627879 484.162487 
L 387.590648 468.19338 
L 387.915099 451.740121 
L 371.898814 467.617249 
z
" clip-path="url(#pbdf7c36817)" style="fill: #324880"/>
    <path d="M 342.292371 474.907866 
L 371.627879 484.162487 
L 371.898814 467.617249 
L 342.45871 458.415811 
z
" clip-path="url(#pbdf7c36817)" style="fill: #648fff"/>
    <path d="M 403.271461 452.50634 
L 418.677724 437.09396 
L 424.08226 230.557433 
L 408.046364 244.745044 
z
" clip-path="url(#pbdf7c36817)" style="fill: #324880"/>
    <path d="M 250.660574 488.490291 
L 267.741986 472.444312 
L 296.650323 481.673309 
L 279.741457 497.886824 
z
" clip-path="url(#pbdf7c36817)" style="fill: #3f599f"/>
    <path d="M 374.290956 443.574952 
L 403.271461 452.50634 
L 408.046364 244.745044 
L 377.769202 236.522069 
z
" clip-path="url(#pbdf7c36817)" style="fill: #648fff"/>
    <path d="M 221.88075 479.191036 
L 239.130263 463.310009 
L 238.13055 379.218503 
L 220.560468 394.618729 
z
" clip-path="url(#pbdf7c36817)" style="fill: #324880"/>
    <path d="M 193.397334 469.987556 
L 221.88075 479.191036 
L 220.560468 394.618729 
L 191.572395 385.693284 
z
" clip-path="url(#pbdf7c36817)" style="fill: #648fff"/>
    <path d="M 133.387546 334.92924 
L 161.967356 343.55649 
L 180.003836 328.670577 
L 151.586914 320.197743 
z
" clip-path="url(#pbdf7c36817)" style="fill: #577ddf"/>
    <path d="M 225.707391 283.098128 
L 254.785987 291.45724 
L 271.994103 277.034014 
L 243.087237 268.82459 
z
" clip-path="url(#pbdf7c36817)" style="fill: #577ddf"/>
    <path d="M 191.572395 385.693284 
L 220.560468 394.618729 
L 238.13055 379.218503 
L 209.312032 370.45337 
z
" clip-path="url(#pbdf7c36817)" style="fill: #577ddf"/>
    <path d="M 267.741986 472.444312 
L 266.944976 335.313916 
L 296.698666 344.082453 
L 296.650323 481.673309 
z
" clip-path="url(#pbdf7c36817)" style="fill: #324880"/>
    <path d="M 309.128149 507.382168 
L 325.85991 490.998481 
L 355.375481 500.421338 
L 338.825499 516.977892 
z
" clip-path="url(#pbdf7c36817)" style="fill: #3f599f"/>
    <path d="M 318.266084 199.150386 
L 348.038535 207.12407 
L 364.519638 193.366245 
L 334.930164 185.536333 
z
" clip-path="url(#pbdf7c36817)" style="fill: #577ddf"/>
    <path d="M 250.660574 488.490291 
L 249.352184 350.561024 
L 266.944976 335.313916 
L 267.741986 472.444312 
z
" clip-path="url(#pbdf7c36817)" style="fill: #648fff"/>
    <path d="M 279.741457 497.886824 
L 296.650323 481.673309 
L 296.698666 344.082453 
L 279.28867 359.493469 
z
" clip-path="url(#pbdf7c36817)" style="fill: #324880"/>
    <path d="M 377.769202 236.522069 
L 408.046364 244.745044 
L 424.08226 230.557433 
L 393.996137 222.483645 
z
" clip-path="url(#pbdf7c36817)" style="fill: #577ddf"/>
    <path d="M 250.660574 488.490291 
L 279.741457 497.886824 
L 279.28867 359.493469 
L 249.352184 350.561024 
z
" clip-path="url(#pbdf7c36817)" style="fill: #648fff"/>
    <path d="M 325.85991 490.998481 
L 326.687787 365.633342 
L 357.004024 374.636048 
L 355.375481 500.421338 
z
" clip-path="url(#pbdf7c36817)" style="fill: #324880"/>
    <path d="M 309.128149 507.382168 
L 309.51063 381.28813 
L 326.687787 365.633342 
L 325.85991 490.998481 
z
" clip-path="url(#pbdf7c36817)" style="fill: #648fff"/>
    <path d="M 338.825499 516.977892 
L 355.375481 500.421338 
L 357.004024 374.636048 
L 340.018706 390.4605 
z
" clip-path="url(#pbdf7c36817)" style="fill: #324880"/>
    <path d="M 309.128149 507.382168 
L 338.825499 516.977892 
L 340.018706 390.4605 
L 309.51063 381.28813 
z
" clip-path="url(#pbdf7c36817)" style="fill: #648fff"/>
    <path d="M 249.352184 350.561024 
L 279.28867 359.493469 
L 296.698666 344.082453 
L 266.944976 335.313916 
z
" clip-path="url(#pbdf7c36817)" style="fill: #577ddf"/>
    <path d="M 309.51063 381.28813 
L 340.018706 390.4605 
L 357.004024 374.636048 
L 326.687787 365.633342 
z
" clip-path="url(#pbdf7c36817)" style="fill: #577ddf"/>
   </g>
   <g id="text_15">
    <!-- Real Amplitude (ρ) -->
    <g transform="translate(190.023516 51.6) scale(0.21 -0.21)">
     <defs>
      <path id="DejaVuSans-52" d="M 2841 2188 
Q 3044 2119 3236 1894 
Q 3428 1669 3622 1275 
L 4263 0 
L 3584 0 
L 2988 1197 
Q 2756 1666 2539 1819 
Q 2322 1972 1947 1972 
L 1259 1972 
L 1259 0 
L 628 0 
L 628 4666 
L 2053 4666 
Q 2853 4666 3247 4331 
Q 3641 3997 3641 3322 
Q 3641 2881 3436 2590 
Q 3231 2300 2841 2188 
z
M 1259 4147 
L 1259 2491 
L 2053 2491 
Q 2509 2491 2742 2702 
Q 2975 2913 2975 3322 
Q 2975 3731 2742 3939 
Q 2509 4147 2053 4147 
L 1259 4147 
z
" transform="scale(0.015625)"/>
      <path id="DejaVuSans-65" d="M 3597 1894 
L 3597 1613 
L 953 1613 
Q 991 1019 1311 708 
Q 1631 397 2203 397 
Q 2534 397 2845 478 
Q 3156 559 3463 722 
L 3463 178 
Q 3153 47 2828 -22 
Q 2503 -91 2169 -91 
Q 1331 -91 842 396 
Q 353 884 353 1716 
Q 353 2575 817 3079 
Q 1281 3584 2069 3584 
Q 2775 3584 3186 3129 
Q 3597 2675 3597 1894 
z
M 3022 2063 
Q 3016 2534 2758 2815 
Q 2500 3097 2075 3097 
Q 1594 3097 1305 2825 
Q 1016 2553 972 2059 
L 3022 2063 
z
" transform="scale(0.015625)"/>
      <path id="DejaVuSans-61" d="M 2194 1759 
Q 1497 1759 1228 1600 
Q 959 1441 959 1056 
Q 959 750 1161 570 
Q 1363 391 1709 391 
Q 2188 391 2477 730 
Q 2766 1069 2766 1631 
L 2766 1759 
L 2194 1759 
z
M 3341 1997 
L 3341 0 
L 2766 0 
L 2766 531 
Q 2569 213 2275 61 
Q 1981 -91 1556 -91 
Q 1019 -91 701 211 
Q 384 513 384 1019 
Q 384 1609 779 1909 
Q 1175 2209 1959 2209 
L 2766 2209 
L 2766 2266 
Q 2766 2663 2505 2880 
Q 2244 3097 1772 3097 
Q 1472 3097 1187 3025 
Q 903 2953 641 2809 
L 641 3341 
Q 956 3463 1253 3523 
Q 1550 3584 1831 3584 
Q 2591 3584 2966 3190 
Q 3341 2797 3341 1997 
z
" transform="scale(0.015625)"/>
      <path id="DejaVuSans-6c" d="M 603 4863 
L 1178 4863 
L 1178 0 
L 603 0 
L 603 4863 
z
" transform="scale(0.015625)"/>
      <path id="DejaVuSans-20" transform="scale(0.015625)"/>
      <path id="DejaVuSans-41" d="M 2188 4044 
L 1331 1722 
L 3047 1722 
L 2188 4044 
z
M 1831 4666 
L 2547 4666 
L 4325 0 
L 3669 0 
L 3244 1197 
L 1141 1197 
L 716 0 
L 50 0 
L 1831 4666 
z
" transform="scale(0.015625)"/>
      <path id="DejaVuSans-6d" d="M 3328 2828 
Q 3544 3216 3844 3400 
Q 4144 3584 4550 3584 
Q 5097 3584 5394 3201 
Q 5691 2819 5691 2113 
L 5691 0 
L 5113 0 
L 5113 2094 
Q 5113 2597 4934 2840 
Q 4756 3084 4391 3084 
Q 3944 3084 3684 2787 
Q 3425 2491 3425 1978 
L 3425 0 
L 2847 0 
L 2847 2094 
Q 2847 2600 2669 2842 
Q 2491 3084 2119 3084 
Q 1678 3084 1418 2786 
Q 1159 2488 1159 1978 
L 1159 0 
L 581 0 
L 581 3500 
L 1159 3500 
L 1159 2956 
Q 1356 3278 1631 3431 
Q 1906 3584 2284 3584 
Q 2666 3584 2933 3390 
Q 3200 3197 3328 2828 
z
" transform="scale(0.015625)"/>
      <path id="DejaVuSans-70" d="M 1159 525 
L 1159 -1331 
L 581 -1331 
L 581 3500 
L 1159 3500 
L 1159 2969 
Q 1341 3281 1617 3432 
Q 1894 3584 2278 3584 
Q 2916 3584 3314 3078 
Q 3713 2572 3713 1747 
Q 3713 922 3314 415 
Q 2916 -91 2278 -91 
Q 1894 -91 1617 61 
Q 1341 213 1159 525 
z
M 3116 1747 
Q 3116 2381 2855 2742 
Q 2594 3103 2138 3103 
Q 1681 3103 1420 2742 
Q 1159 2381 1159 1747 
Q 1159 1113 1420 752 
Q 1681 391 2138 391 
Q 2594 391 2855 752 
Q 3116 1113 3116 1747 
z
" transform="scale(0.015625)"/>
      <path id="DejaVuSans-69" d="M 603 3500 
L 1178 3500 
L 1178 0 
L 603 0 
L 603 3500 
z
M 603 4863 
L 1178 4863 
L 1178 4134 
L 603 4134 
L 603 4863 
z
" transform="scale(0.015625)"/>
      <path id="DejaVuSans-74" d="M 1172 4494 
L 1172 3500 
L 2356 3500 
L 2356 3053 
L 1172 3053 
L 1172 1153 
Q 1172 725 1289 603 
Q 1406 481 1766 481 
L 2356 481 
L 2356 0 
L 1766 0 
Q 1100 0 847 248 
Q 594 497 594 1153 
L 594 3053 
L 172 3053 
L 172 3500 
L 594 3500 
L 594 4494 
L 1172 4494 
z
" transform="scale(0.015625)"/>
      <path id="DejaVuSans-75" d="M 544 1381 
L 544 3500 
L 1119 3500 
L 1119 1403 
Q 1119 906 1312 657 
Q 1506 409 1894 409 
Q 2359 409 2629 706 
Q 2900 1003 2900 1516 
L 2900 3500 
L 3475 3500 
L 3475 0 
L 2900 0 
L 2900 538 
Q 2691 219 2414 64 
Q 2138 -91 1772 -91 
Q 1169 -91 856 284 
Q 544 659 544 1381 
z
M 1991 3584 
L 1991 3584 
z
" transform="scale(0.015625)"/>
      <path id="DejaVuSans-64" d="M 2906 2969 
L 2906 4863 
L 3481 4863 
L 3481 0 
L 2906 0 
L 2906 525 
Q 2725 213 2448 61 
Q 2172 -91 1784 -91 
Q 1150 -91 751 415 
Q 353 922 353 1747 
Q 353 2572 751 3078 
Q 1150 3584 1784 3584 
Q 2172 3584 2448 3432 
Q 2725 3281 2906 2969 
z
M 947 1747 
Q 947 1113 1208 752 
Q 1469 391 1925 391 
Q 2381 391 2643 752 
Q 2906 1113 2906 1747 
Q 2906 2381 2643 2742 
Q 2381 3103 1925 3103 
Q 1469 3103 1208 2742 
Q 947 2381 947 1747 
z
" transform="scale(0.015625)"/>
      <path id="DejaVuSans-28" d="M 1984 4856 
Q 1566 4138 1362 3434 
Q 1159 2731 1159 2009 
Q 1159 1288 1364 580 
Q 1569 -128 1984 -844 
L 1484 -844 
Q 1016 -109 783 600 
Q 550 1309 550 2009 
Q 550 2706 781 3412 
Q 1013 4119 1484 4856 
L 1984 4856 
z
" transform="scale(0.015625)"/>
      <path id="DejaVuSans-3c1" d="M 863 2875 
Q 1053 3194 1525 3475 
Q 1709 3584 2278 3584 
Q 2916 3584 3314 3078 
Q 3713 2572 3713 1747 
Q 3713 922 3314 415 
Q 2916 -91 2278 -91 
Q 1894 -91 1617 61 
Q 1341 213 1159 525 
L 1159 -1331 
L 581 -1331 
L 581 1716 
Q 581 2438 863 2875 
z
M 3116 1747 
Q 3116 2381 2855 2742 
Q 2594 3103 2138 3103 
Q 1681 3103 1420 2742 
Q 1159 2381 1159 1747 
Q 1159 1113 1420 752 
Q 1681 391 2138 391 
Q 2594 391 2855 752 
Q 3116 1113 3116 1747 
z
" transform="scale(0.015625)"/>
      <path id="DejaVuSans-29" d="M 513 4856 
L 1013 4856 
Q 1481 4119 1714 3412 
Q 1947 2706 1947 2009 
Q 1947 1309 1714 600 
Q 1481 -109 1013 -844 
L 513 -844 
Q 928 -128 1133 580 
Q 1338 1288 1338 2009 
Q 1338 2731 1133 3434 
Q 928 4138 513 4856 
z
" transform="scale(0.015625)"/>
     </defs>
     <use xlink:href="#DejaVuSans-52"/>
     <use xlink:href="#DejaVuSans-65" x="64.982422"/>
     <use xlink:href="#DejaVuSans-61" x="126.505859"/>
     <use xlink:href="#DejaVuSans-6c" x="187.785156"/>
     <use xlink:href="#DejaVuSans-20" x="215.568359"/>
     <use xlink:href="#DejaVuSans-41" x="247.355469"/>
     <use xlink:href="#DejaVuSans-6d" x="315.763672"/>
     <use xlink:href="#DejaVuSans-70" x="413.175781"/>
     <use xlink:href="#DejaVuSans-6c" x="476.652344"/>
     <use xlink:href="#DejaVuSans-69" x="504.435547"/>
     <use xlink:href="#DejaVuSans-74" x="532.21875"/>
     <use xlink:href="#DejaVuSans-75" x="571.427734"/>
     <use xlink:href="#DejaVuSans-64" x="634.806641"/>
     <use xlink:href="#DejaVuSans-65" x="698.283203"/>
     <use xlink:href="#DejaVuSans-20" x="759.806641"/>
     <use xlink:href="#DejaVuSans-28" x="791.59375"/>
     <use xlink:href="#DejaVuSans-3c1" x="830.607422"/>
     <use xlink:href="#DejaVuSans-29" x="894.083984"/>
    </g>
   </g>
  </g>
  <g id="patch_6">
   <path d="M 604.8 576 
L 1123.2 576 
L 1123.2 57.6 
L 604.8 57.6 
z
" style="fill: #ffffff"/>
  </g>
  <g id="pane3d_4">
   <g id="patch_7">
    <path d="M 706.07018 436.456468 
L 829.494133 330.550231 
L 827.743197 126.70673 
L 698.643358 223.613571 
" style="fill: #f2f2f2; opacity: 0.5; stroke: #f2f2f2; stroke-linejoin: miter"/>
   </g>
  </g>
  <g id="pane3d_5">
   <g id="patch_8">
    <path d="M 829.494133 330.550231 
L 1031.554898 390.069341 
L 1038.583588 181.103065 
L 827.743197 126.70673 
" style="fill: #e6e6e6; opacity: 0.5; stroke: #e6e6e6; stroke-linejoin: miter"/>
   </g>
  </g>
  <g id="pane3d_6">
   <g id="patch_9">
    <path d="M 706.07018 436.456468 
L 916.912731 504.076731 
L 1031.554898 390.069341 
L 829.494133 330.550231 
" style="fill: #ececec; opacity: 0.5; stroke: #ececec; stroke-linejoin: miter"/>
   </g>
  </g>
  <g id="grid3d_4">
   <g id="Line3DCollection_4">
    <path d="M 734.635886 445.617904 
L 856.925726 338.630493 
L 856.328796 134.081748 
" style="fill: none; stroke: #b0b0b0; stroke-width: 0.8"/>
    <path d="M 784.310046 461.549127 
L 904.58611 352.669358 
L 906.022474 146.902603 
" style="fill: none; stroke: #b0b0b0; stroke-width: 0.8"/>
    <path d="M 834.89502 477.772462 
L 953.066152 366.949661 
L 956.607663 159.953465 
" style="fill: none; stroke: #b0b0b0; stroke-width: 0.8"/>
    <path d="M 886.41609 494.296016 
L 1002.38718 381.477685 
L 1008.108569 173.24058 
" style="fill: none; stroke: #b0b0b0; stroke-width: 0.8"/>
   </g>
  </g>
  <g id="grid3d_5">
   <g id="Line3DCollection_5">
    <path d="M 717.757365 209.265931 
L 724.301379 420.812846 
L 933.880707 487.202708 
" style="fill: none; stroke: #b0b0b0; stroke-width: 0.8"/>
    <path d="M 749.704273 185.285468 
L 754.805664 394.638072 
L 962.24502 458.995448 
" style="fill: none; stroke: #b0b0b0; stroke-width: 0.8"/>
    <path d="M 780.65707 162.051218 
L 784.400054 369.24405 
L 989.731787 431.660877 
" style="fill: none; stroke: #b0b0b0; stroke-width: 0.8"/>
    <path d="M 810.661448 139.528886 
L 813.124663 344.596362 
L 1016.38111 405.159111 
" style="fill: none; stroke: #b0b0b0; stroke-width: 0.8"/>
   </g>
  </g>
  <g id="grid3d_6">
   <g id="Line3DCollection_6">
    <path d="M 1032.367949 365.896933 
L 829.291316 306.938415 
L 705.211983 411.86167 
" style="fill: none; stroke: #b0b0b0; stroke-width: 0.8"/>
    <path d="M 1033.508487 331.988217 
L 829.00693 273.830209 
L 704.007715 377.348958 
" style="fill: none; stroke: #b0b0b0; stroke-width: 0.8"/>
    <path d="M 1034.665262 297.596744 
L 828.718639 240.267473 
L 702.785825 342.331201 
" style="fill: none; stroke: #b0b0b0; stroke-width: 0.8"/>
    <path d="M 1035.838624 262.712131 
L 828.426363 206.240782 
L 701.545922 306.79723 
" style="fill: none; stroke: #b0b0b0; stroke-width: 0.8"/>
    <path d="M 1037.028933 227.323693 
L 828.130019 171.740449 
L 700.287606 270.735546 
" style="fill: none; stroke: #b0b0b0; stroke-width: 0.8"/>
    <path d="M 1038.236557 191.420438 
L 827.829521 136.756514 
L 699.010463 234.134306 
" style="fill: none; stroke: #b0b0b0; stroke-width: 0.8"/>
   </g>
  </g>
  <g id="axis3d_4">
   <g id="line2d_18">
    <path d="M 706.07018 436.456468 
L 916.912731 504.076731 
" style="fill: none; stroke: #000000; stroke-width: 0.8; stroke-linecap: square"/>
   </g>
   <g id="xtick_15">
    <g id="line2d_19">
     <path d="M 735.677227 444.706868 
L 732.549953 447.442819 
" style="fill: none; stroke: #000000; stroke-width: 0.8; stroke-linecap: square"/>
    </g>
    <g id="text_16">
     <!-- 00 -->
     <g transform="translate(707.351686 489.365693) rotate(-45) scale(0.21 -0.21)">
      <use xlink:href="#DejaVuSans-30"/>
      <use xlink:href="#DejaVuSans-30" x="63.623047"/>
     </g>
    </g>
   </g>
   <g id="xtick_16">
    <g id="line2d_20">
     <path d="M 785.334802 460.621468 
L 782.257306 463.407368 
" style="fill: none; stroke: #000000; stroke-width: 0.8; stroke-linecap: square"/>
    </g>
    <g id="text_17">
     <!-- 01 -->
     <g transform="translate(757.023931 505.435143) rotate(-45) scale(0.21 -0.21)">
      <use xlink:href="#DejaVuSans-30"/>
      <use xlink:href="#DejaVuSans-31" x="63.623047"/>
     </g>
    </g>
   </g>
   <g id="xtick_17">
    <g id="line2d_21">
     <path d="M 835.902405 476.82772 
L 832.877048 479.664949 
" style="fill: none; stroke: #000000; stroke-width: 0.8; stroke-linecap: square"/>
    </g>
    <g id="text_18">
     <!-- 10 -->
     <g transform="translate(807.60781 521.799516) rotate(-45) scale(0.21 -0.21)">
      <use xlink:href="#DejaVuSans-31"/>
      <use xlink:href="#DejaVuSans-30" x="63.623047"/>
     </g>
    </g>
   </g>
   <g id="xtick_18">
    <g id="line2d_22">
     <path d="M 887.405283 493.333715 
L 884.434531 496.223705 
" style="fill: none; stroke: #000000; stroke-width: 0.8; stroke-linecap: square"/>
    </g>
    <g id="text_19">
     <!-- 11 -->
     <g transform="translate(859.128654 538.467006) rotate(-45) scale(0.21 -0.21)">
      <use xlink:href="#DejaVuSans-31"/>
      <use xlink:href="#DejaVuSans-31" x="63.623047"/>
     </g>
    </g>
   </g>
  </g>
  <g id="axis3d_5">
   <g id="line2d_23">
    <path d="M 1031.554898 390.069341 
L 916.912731 504.076731 
" style="fill: none; stroke: #000000; stroke-width: 0.8; stroke-linecap: square"/>
   </g>
   <g id="xtick_19">
    <g id="line2d_24">
     <path d="M 932.140222 486.651363 
L 937.364886 488.306415 
" style="fill: none; stroke: #000000; stroke-width: 0.8; stroke-linecap: square"/>
    </g>
    <g id="text_20">
     <!-- 00 -->
     <g transform="translate(944.70027 499.207917) rotate(-337.5) scale(0.21 -0.21)">
      <use xlink:href="#DejaVuSans-30"/>
      <use xlink:href="#DejaVuSans-30" x="63.623047"/>
     </g>
    </g>
   </g>
   <g id="xtick_20">
    <g id="line2d_25">
     <path d="M 960.5233 458.46129 
L 965.691587 460.064734 
" style="fill: none; stroke: #000000; stroke-width: 0.8; stroke-linecap: square"/>
    </g>
    <g id="text_21">
     <!-- 01 -->
     <g transform="translate(972.913817 470.822876) rotate(-337.5) scale(0.21 -0.21)">
      <use xlink:href="#DejaVuSans-30"/>
      <use xlink:href="#DejaVuSans-31" x="63.623047"/>
     </g>
    </g>
   </g>
   <g id="xtick_21">
    <g id="line2d_26">
     <path d="M 988.028511 431.143114 
L 993.141381 432.697327 
" style="fill: none; stroke: #000000; stroke-width: 0.8; stroke-linecap: square"/>
    </g>
    <g id="text_22">
     <!-- 10 -->
     <g transform="translate(1000.254695 443.315808) rotate(-337.5) scale(0.21 -0.21)">
      <use xlink:href="#DejaVuSans-31"/>
      <use xlink:href="#DejaVuSans-30" x="63.623047"/>
     </g>
    </g>
   </g>
   <g id="xtick_22">
    <g id="line2d_27">
     <path d="M 1014.695964 404.657001 
L 1019.754368 406.164215 
" style="fill: none; stroke: #000000; stroke-width: 0.8; stroke-linecap: square"/>
    </g>
    <g id="text_23">
     <!-- 11 -->
     <g transform="translate(1026.762776 416.646599) rotate(-337.5) scale(0.21 -0.21)">
      <use xlink:href="#DejaVuSans-31"/>
      <use xlink:href="#DejaVuSans-31" x="63.623047"/>
     </g>
    </g>
   </g>
  </g>
  <g id="axis3d_6">
   <g id="line2d_28">
    <path d="M 1031.554898 390.069341 
L 1038.583588 181.103065 
" style="fill: none; stroke: #000000; stroke-width: 0.8; stroke-linecap: square"/>
   </g>
   <g id="xtick_23">
    <g id="line2d_29">
     <path d="M 1030.684518 365.408189 
L 1035.737765 366.87528 
" style="fill: none; stroke: #000000; stroke-width: 0.8; stroke-linecap: square"/>
    </g>
    <g id="text_24">
     <!-- −0.2 -->
     <g transform="translate(1045.914549 359.62632) scale(0.21 -0.21)">
      <defs>
       <path id="DejaVuSans-2212" d="M 678 2272 
L 4684 2272 
L 4684 1741 
L 678 1741 
L 678 2272 
z
" transform="scale(0.015625)"/>
      </defs>
      <use xlink:href="#DejaVuSans-2212"/>
      <use xlink:href="#DejaVuSans-30" x="83.789062"/>
      <use xlink:href="#DejaVuSans-2e" x="147.412109"/>
      <use xlink:href="#DejaVuSans-32" x="179.199219"/>
     </g>
    </g>
   </g>
   <g id="xtick_24">
    <g id="line2d_30">
     <path d="M 1031.812824 331.505989 
L 1036.902806 332.953525 
" style="fill: none; stroke: #000000; stroke-width: 0.8; stroke-linecap: square"/>
    </g>
    <g id="text_25">
     <!-- −0.1 -->
     <g transform="translate(1047.14942 325.742994) scale(0.21 -0.21)">
      <use xlink:href="#DejaVuSans-2212"/>
      <use xlink:href="#DejaVuSans-30" x="83.789062"/>
      <use xlink:href="#DejaVuSans-2e" x="147.412109"/>
      <use xlink:href="#DejaVuSans-31" x="179.199219"/>
     </g>
    </g>
   </g>
   <g id="xtick_25">
    <g id="line2d_31">
     <path d="M 1032.95719 297.121269 
L 1038.084444 298.54854 
" style="fill: none; stroke: #000000; stroke-width: 0.8; stroke-linecap: square"/>
    </g>
    <g id="text_26">
     <!-- 0.0 -->
     <g transform="translate(1048.401852 291.377828) scale(0.21 -0.21)">
      <use xlink:href="#DejaVuSans-30"/>
      <use xlink:href="#DejaVuSans-2e" x="63.623047"/>
      <use xlink:href="#DejaVuSans-30" x="95.410156"/>
     </g>
    </g>
   </g>
   <g id="xtick_26">
    <g id="line2d_32">
     <path d="M 1034.11796 262.243652 
L 1039.283035 263.649927 
" style="fill: none; stroke: #000000; stroke-width: 0.8; stroke-linecap: square"/>
    </g>
    <g id="text_27">
     <!-- 0.1 -->
     <g transform="translate(1049.672222 256.520471) scale(0.21 -0.21)">
      <use xlink:href="#DejaVuSans-30"/>
      <use xlink:href="#DejaVuSans-2e" x="63.623047"/>
      <use xlink:href="#DejaVuSans-31" x="95.410156"/>
     </g>
    </g>
   </g>
   <g id="xtick_27">
    <g id="line2d_33">
     <path d="M 1035.295489 226.862463 
L 1040.498947 228.246985 
" style="fill: none; stroke: #000000; stroke-width: 0.8; stroke-linecap: square"/>
    </g>
    <g id="text_28">
     <!-- 0.2 -->
     <g transform="translate(1050.960917 221.160273) scale(0.21 -0.21)">
      <use xlink:href="#DejaVuSans-30"/>
      <use xlink:href="#DejaVuSans-2e" x="63.623047"/>
      <use xlink:href="#DejaVuSans-32" x="95.410156"/>
     </g>
    </g>
   </g>
   <g id="xtick_28">
    <g id="line2d_34">
     <path d="M 1036.490143 190.966718 
L 1041.732559 192.328702 
" style="fill: none; stroke: #000000; stroke-width: 0.8; stroke-linecap: square"/>
    </g>
    <g id="text_29">
     <!-- 0.3 -->
     <g transform="translate(1052.268338 185.286273) scale(0.21 -0.21)">
      <use xlink:href="#DejaVuSans-30"/>
      <use xlink:href="#DejaVuSans-2e" x="63.623047"/>
      <use xlink:href="#DejaVuSans-33" x="95.410156"/>
     </g>
    </g>
   </g>
  </g>
  <g id="axes_2">
   <g id="Poly3DCollection_2">
    <path d="M 933.082366 279.873585 
L 933.082366 279.873585 
L 958.091662 286.881995 
L 958.091662 286.881995 
z
" clip-path="url(#p2e03936264)" style="fill: #648fff"/>
    <path d="M 919.231227 292.051855 
L 919.231227 292.051855 
L 933.082366 279.873585 
L 933.082366 279.873585 
z
" clip-path="url(#p2e03936264)" style="fill: #324880"/>
    <path d="M 919.231227 292.051855 
L 933.082366 279.873585 
L 958.091662 286.881995 
L 944.371578 299.168418 
z
" clip-path="url(#p2e03936264)" style="fill: #3f599f"/>
    <path d="M 919.231227 292.051855 
L 944.371578 299.168418 
L 958.091662 286.881995 
L 933.082366 279.873585 
z
" clip-path="url(#p2e03936264)" style="fill: #577ddf"/>
    <path d="M 762.439769 366.211782 
L 786.932755 373.673407 
L 801.88668 360.791335 
L 777.514643 353.443336 
z
" clip-path="url(#p2e03936264)" style="fill: #577ddf"/>
    <path d="M 944.371578 299.168418 
L 958.091662 286.881995 
L 958.091662 286.881995 
L 944.371578 299.168418 
z
" clip-path="url(#p2e03936264)" style="fill: #648fff"/>
    <path d="M 776.486958 300.571783 
L 777.514643 353.443336 
L 801.88668 360.791335 
L 801.123504 307.764505 
z
" clip-path="url(#p2e03936264)" style="fill: #648fff"/>
    <path d="M 919.231227 292.051855 
L 944.371578 299.168418 
L 944.371578 299.168418 
L 919.231227 292.051855 
z
" clip-path="url(#p2e03936264)" style="fill: #324880"/>
    <path d="M 761.237102 313.070856 
L 762.439769 366.211782 
L 777.514643 353.443336 
L 776.486958 300.571783 
z
" clip-path="url(#p2e03936264)" style="fill: #324880"/>
    <path d="M 785.99722 320.376043 
L 801.123504 307.764505 
L 801.88668 360.791335 
L 786.932755 373.673407 
z
" clip-path="url(#p2e03936264)" style="fill: #648fff"/>
    <path d="M 761.237102 313.070856 
L 785.99722 320.376043 
L 786.932755 373.673407 
L 762.439769 366.211782 
z
" clip-path="url(#p2e03936264)" style="fill: #324880"/>
    <path d="M 861.817832 436.830448 
L 886.990344 444.680593 
L 901.311406 431.128178 
L 876.269021 423.398695 
z
" clip-path="url(#p2e03936264)" style="fill: #577ddf"/>
    <path d="M 761.237102 313.070856 
L 776.486958 300.571783 
L 801.123504 307.764505 
L 785.99722 320.376043 
z
" clip-path="url(#p2e03936264)" style="fill: #3f599f"/>
    <path d="M 876.373035 329.733857 
L 876.269021 423.398695 
L 901.311406 431.128178 
L 901.91301 337.190338 
z
" clip-path="url(#p2e03936264)" style="fill: #648fff"/>
    <path d="M 861.63484 342.69205 
L 861.817832 436.830448 
L 876.269021 423.398695 
L 876.373035 329.733857 
z
" clip-path="url(#p2e03936264)" style="fill: #324880"/>
    <path d="M 912.463503 444.278673 
L 938.139989 452.248028 
L 952.215747 438.490297 
L 926.675808 430.644748 
z
" clip-path="url(#p2e03936264)" style="fill: #577ddf"/>
    <path d="M 887.310183 350.267263 
L 901.91301 337.190338 
L 901.311406 431.128178 
L 886.990344 444.680593 
z
" clip-path="url(#p2e03936264)" style="fill: #648fff"/>
    <path d="M 861.63484 342.69205 
L 887.310183 350.267263 
L 886.990344 444.680593 
L 861.817832 436.830448 
z
" clip-path="url(#p2e03936264)" style="fill: #324880"/>
    <path d="M 927.686606 344.715026 
L 926.675808 430.644748 
L 952.215747 438.490297 
L 953.697045 352.308861 
z
" clip-path="url(#p2e03936264)" style="fill: #648fff"/>
    <path d="M 913.222261 357.912323 
L 912.463503 444.278673 
L 926.675808 430.644748 
L 927.686606 344.715026 
z
" clip-path="url(#p2e03936264)" style="fill: #324880"/>
    <path d="M 861.63484 342.69205 
L 876.373035 329.733857 
L 901.91301 337.190338 
L 887.310183 350.267263 
z
" clip-path="url(#p2e03936264)" style="fill: #3f599f"/>
    <path d="M 939.374365 365.628199 
L 953.697045 352.308861 
L 952.215747 438.490297 
L 938.139989 452.248028 
z
" clip-path="url(#p2e03936264)" style="fill: #648fff"/>
    <path d="M 913.222261 357.912323 
L 939.374365 365.628199 
L 938.139989 452.248028 
L 912.463503 444.278673 
z
" clip-path="url(#p2e03936264)" style="fill: #324880"/>
    <path d="M 831.825187 415.001009 
L 857.527381 422.958717 
L 872.45939 409.221792 
L 846.892132 401.3896 
z
" clip-path="url(#p2e03936264)" style="fill: #577ddf"/>
    <path d="M 846.661564 355.856931 
L 846.892132 401.3896 
L 872.45939 409.221792 
L 872.473357 363.553736 
z
" clip-path="url(#p2e03936264)" style="fill: #648fff"/>
    <path d="M 831.447538 369.233485 
L 831.825187 415.001009 
L 846.892132 401.3896 
L 846.661564 355.856931 
z
" clip-path="url(#p2e03936264)" style="fill: #324880"/>
    <path d="M 913.222261 357.912323 
L 927.686606 344.715026 
L 953.697045 352.308861 
L 939.374365 365.628199 
z
" clip-path="url(#p2e03936264)" style="fill: #3f599f"/>
    <path d="M 857.396863 377.054832 
L 872.473357 363.553736 
L 872.45939 409.221792 
L 857.527381 422.958717 
z
" clip-path="url(#p2e03936264)" style="fill: #648fff"/>
    <path d="M 831.447538 369.233485 
L 857.396863 377.054832 
L 857.527381 422.958717 
L 831.825187 415.001009 
z
" clip-path="url(#p2e03936264)" style="fill: #324880"/>
    <path d="M 831.447538 369.233485 
L 846.661564 355.856931 
L 872.473357 363.553736 
L 857.396863 377.054832 
z
" clip-path="url(#p2e03936264)" style="fill: #3f599f"/>
    <path d="M 883.47884 426.905487 
L 909.684143 434.999891 
L 924.349116 421.027473 
L 898.285352 413.062025 
z
" clip-path="url(#p2e03936264)" style="fill: #577ddf"/>
    <path d="M 898.52506 371.322079 
L 898.285352 413.062025 
L 924.349116 421.027473 
L 924.820033 379.162963 
z
" clip-path="url(#p2e03936264)" style="fill: #648fff"/>
    <path d="M 883.589333 384.949466 
L 883.47884 426.905487 
L 898.285352 413.062025 
L 898.52506 371.322079 
z
" clip-path="url(#p2e03936264)" style="fill: #324880"/>
    <path d="M 910.028381 392.91842 
L 924.820033 379.162963 
L 924.349116 421.027473 
L 909.684143 434.999891 
z
" clip-path="url(#p2e03936264)" style="fill: #648fff"/>
    <path d="M 883.589333 384.949466 
L 910.028381 392.91842 
L 909.684143 434.999891 
L 883.47884 426.905487 
z
" clip-path="url(#p2e03936264)" style="fill: #324880"/>
    <path d="M 883.589333 384.949466 
L 898.52506 371.322079 
L 924.820033 379.162963 
L 910.028381 392.91842 
z
" clip-path="url(#p2e03936264)" style="fill: #3f599f"/>
   </g>
   <g id="Poly3DCollection_3">
    <path d="M 709.604544 341.412097 
L 915.891709 403.926233 
L 1028.204088 298.467654 
L 830.330755 243.29406 
z
" clip-path="url(#p2e03936264)" style="fill-opacity: 0.25"/>
   </g>
   <g id="Poly3DCollection_4">
    <path d="M 820.857467 264.204865 
L 835.205142 252.445236 
L 859.356074 259.213105 
L 845.128496 271.075346 
z
" clip-path="url(#p2e03936264)" style="fill: #3f599f"/>
    <path d="M 835.205142 252.445236 
L 834.910428 212.018431 
L 859.259756 218.665475 
L 859.356074 259.213105 
z
" clip-path="url(#p2e03936264)" style="fill: #324880"/>
    <path d="M 820.857467 264.204865 
L 820.441504 223.568423 
L 834.910428 212.018431 
L 835.205142 252.445236 
z
" clip-path="url(#p2e03936264)" style="fill: #648fff"/>
    <path d="M 845.128496 271.075346 
L 859.356074 259.213105 
L 859.259756 218.665475 
L 844.912909 230.317089 
z
" clip-path="url(#p2e03936264)" style="fill: #324880"/>
    <path d="M 820.857467 264.204865 
L 845.128496 271.075346 
L 844.912909 230.317089 
L 820.441504 223.568423 
z
" clip-path="url(#p2e03936264)" style="fill: #648fff"/>
    <path d="M 820.441504 223.568423 
L 844.912909 230.317089 
L 859.259756 218.665475 
L 834.910428 212.018431 
z
" clip-path="url(#p2e03936264)" style="fill: #577ddf"/>
    <path d="M 869.61258 278.006138 
L 883.717407 266.039934 
L 908.291901 272.926499 
L 894.312534 284.998037 
z
" clip-path="url(#p2e03936264)" style="fill: #3f599f"/>
    <path d="M 883.717407 266.039934 
L 883.941098 179.864054 
L 908.950946 186.488657 
L 908.291901 272.926499 
z
" clip-path="url(#p2e03936264)" style="fill: #324880"/>
    <path d="M 791.503453 288.263976 
L 806.291904 276.143078 
L 830.683903 283.118524 
L 816.017292 295.34681 
z
" clip-path="url(#p2e03936264)" style="fill: #3f599f"/>
    <path d="M 869.61258 278.006138 
L 869.587881 191.375723 
L 883.941098 179.864054 
L 883.717407 266.039934 
z
" clip-path="url(#p2e03936264)" style="fill: #648fff"/>
    <path d="M 806.291904 276.143078 
L 805.697353 231.242811 
L 830.311806 238.083099 
L 830.683903 283.118524 
z
" clip-path="url(#p2e03936264)" style="fill: #324880"/>
    <path d="M 791.503453 288.263976 
L 790.767394 243.129205 
L 805.697353 231.242811 
L 806.291904 276.143078 
z
" clip-path="url(#p2e03936264)" style="fill: #648fff"/>
    <path d="M 894.312534 284.998037 
L 908.291901 272.926499 
L 908.950946 186.488657 
L 894.727693 198.103462 
z
" clip-path="url(#p2e03936264)" style="fill: #324880"/>
    <path d="M 869.61258 278.006138 
L 894.312534 284.998037 
L 894.727693 198.103462 
L 869.587881 191.375723 
z
" clip-path="url(#p2e03936264)" style="fill: #648fff"/>
    <path d="M 816.017292 295.34681 
L 830.683903 283.118524 
L 830.311806 238.083099 
L 815.505911 250.075782 
z
" clip-path="url(#p2e03936264)" style="fill: #324880"/>
    <path d="M 983.3227 293.952544 
L 983.3227 293.952544 
L 1008.778441 301.086062 
L 1008.778441 301.086062 
z
" clip-path="url(#p2e03936264)" style="fill: #324880"/>
    <path d="M 791.503453 288.263976 
L 816.017292 295.34681 
L 815.505911 250.075782 
L 790.767394 243.129205 
z
" clip-path="url(#p2e03936264)" style="fill: #648fff"/>
    <path d="M 840.749638 302.492779 
L 855.291658 290.155671 
L 880.118044 297.25534 
L 865.703426 309.702729 
z
" clip-path="url(#p2e03936264)" style="fill: #3f599f"/>
    <path d="M 969.736556 306.348568 
L 969.736556 306.348568 
L 983.3227 293.952544 
L 983.3227 293.952544 
z
" clip-path="url(#p2e03936264)" style="fill: #648fff"/>
    <path d="M 790.767394 243.129205 
L 815.505911 250.075782 
L 830.311806 238.083099 
L 805.697353 231.242811 
z
" clip-path="url(#p2e03936264)" style="fill: #577ddf"/>
    <path d="M 869.587881 191.375723 
L 894.727693 198.103462 
L 908.950946 186.488657 
L 883.941098 179.864054 
z
" clip-path="url(#p2e03936264)" style="fill: #577ddf"/>
    <path d="M 969.736556 306.348568 
L 983.3227 293.952544 
L 1008.778441 301.086062 
L 995.329187 313.59316 
z
" clip-path="url(#p2e03936264)" style="fill: #3f599f"/>
    <path d="M 969.736556 306.348568 
L 995.329187 313.59316 
L 1008.778441 301.086062 
L 983.3227 293.952544 
z
" clip-path="url(#p2e03936264)" style="fill: #577ddf"/>
    <path d="M 995.329187 313.59316 
L 1008.778441 301.086062 
L 1008.778441 301.086062 
L 995.329187 313.59316 
z
" clip-path="url(#p2e03936264)" style="fill: #324880"/>
    <path d="M 905.165987 304.418368 
L 905.165987 304.418368 
L 930.438467 311.645608 
L 930.438467 311.645608 
z
" clip-path="url(#p2e03936264)" style="fill: #324880"/>
    <path d="M 855.291658 290.155671 
L 854.982685 194.337234 
L 880.298034 201.14307 
L 880.118044 297.25534 
z
" clip-path="url(#p2e03936264)" style="fill: #324880"/>
    <path d="M 969.736556 306.348568 
L 995.329187 313.59316 
L 995.329187 313.59316 
L 969.736556 306.348568 
z
" clip-path="url(#p2e03936264)" style="fill: #648fff"/>
    <path d="M 890.881643 316.977523 
L 890.881643 316.977523 
L 905.165987 304.418368 
L 905.165987 304.418368 
z
" clip-path="url(#p2e03936264)" style="fill: #648fff"/>
    <path d="M 840.749638 302.492779 
L 840.150047 206.16451 
L 854.982685 194.337234 
L 855.291658 290.155671 
z
" clip-path="url(#p2e03936264)" style="fill: #648fff"/>
    <path d="M 890.881643 316.977523 
L 905.165987 304.418368 
L 930.438467 311.645608 
L 916.287331 324.318042 
z
" clip-path="url(#p2e03936264)" style="fill: #3f599f"/>
    <path d="M 890.881643 316.977523 
L 916.287331 324.318042 
L 930.438467 311.645608 
L 905.165987 304.418368 
z
" clip-path="url(#p2e03936264)" style="fill: #577ddf"/>
    <path d="M 916.287331 324.318042 
L 930.438467 311.645608 
L 930.438467 311.645608 
L 916.287331 324.318042 
z
" clip-path="url(#p2e03936264)" style="fill: #324880"/>
    <path d="M 825.98136 315.021839 
L 825.98136 315.021839 
L 851.06352 322.34466 
L 851.06352 322.34466 
z
" clip-path="url(#p2e03936264)" style="fill: #324880"/>
    <path d="M 865.703426 309.702729 
L 880.118044 297.25534 
L 880.298034 201.14307 
L 865.597875 213.078171 
z
" clip-path="url(#p2e03936264)" style="fill: #324880"/>
    <path d="M 890.881643 316.977523 
L 916.287331 324.318042 
L 916.287331 324.318042 
L 890.881643 316.977523 
z
" clip-path="url(#p2e03936264)" style="fill: #648fff"/>
    <path d="M 810.9815 327.747367 
L 810.9815 327.747367 
L 825.98136 315.021839 
L 825.98136 315.021839 
z
" clip-path="url(#p2e03936264)" style="fill: #648fff"/>
    <path d="M 840.749638 302.492779 
L 865.703426 309.702729 
L 865.597875 213.078171 
L 840.150047 206.16451 
z
" clip-path="url(#p2e03936264)" style="fill: #648fff"/>
    <path d="M 955.938517 318.937927 
L 955.938517 318.937927 
L 981.669224 326.296207 
L 981.669224 326.296207 
z
" clip-path="url(#p2e03936264)" style="fill: #324880"/>
    <path d="M 810.9815 327.747367 
L 825.98136 315.021839 
L 851.06352 322.34466 
L 836.193002 335.185729 
z
" clip-path="url(#p2e03936264)" style="fill: #3f599f"/>
    <path d="M 810.9815 327.747367 
L 836.193002 335.185729 
L 851.06352 322.34466 
L 825.98136 315.021839 
z
" clip-path="url(#p2e03936264)" style="fill: #577ddf"/>
    <path d="M 941.923585 331.725178 
L 941.923585 331.725178 
L 955.938517 318.937927 
L 955.938517 318.937927 
z
" clip-path="url(#p2e03936264)" style="fill: #648fff"/>
    <path d="M 836.193002 335.185729 
L 851.06352 322.34466 
L 851.06352 322.34466 
L 836.193002 335.185729 
z
" clip-path="url(#p2e03936264)" style="fill: #324880"/>
    <path d="M 941.923585 331.725178 
L 955.938517 318.937927 
L 981.669224 326.296207 
L 967.79356 339.199844 
z
" clip-path="url(#p2e03936264)" style="fill: #3f599f"/>
    <path d="M 941.923585 331.725178 
L 967.79356 339.199844 
L 981.669224 326.296207 
L 955.938517 318.937927 
z
" clip-path="url(#p2e03936264)" style="fill: #577ddf"/>
    <path d="M 745.748404 325.765689 
L 745.748404 325.765689 
L 770.632952 333.185999 
L 770.632952 333.185999 
z
" clip-path="url(#p2e03936264)" style="fill: #324880"/>
    <path d="M 810.9815 327.747367 
L 836.193002 335.185729 
L 836.193002 335.185729 
L 810.9815 327.747367 
z
" clip-path="url(#p2e03936264)" style="fill: #648fff"/>
    <path d="M 840.150047 206.16451 
L 865.597875 213.078171 
L 880.298034 201.14307 
L 854.982685 194.337234 
z
" clip-path="url(#p2e03936264)" style="fill: #577ddf"/>
    <path d="M 730.015208 338.660917 
L 730.015208 338.660917 
L 745.748404 325.765689 
L 745.748404 325.765689 
z
" clip-path="url(#p2e03936264)" style="fill: #648fff"/>
    <path d="M 967.79356 339.199844 
L 981.669224 326.296207 
L 981.669224 326.296207 
L 967.79356 339.199844 
z
" clip-path="url(#p2e03936264)" style="fill: #324880"/>
    <path d="M 941.923585 331.725178 
L 967.79356 339.199844 
L 967.79356 339.199844 
L 941.923585 331.725178 
z
" clip-path="url(#p2e03936264)" style="fill: #648fff"/>
    <path d="M 730.015208 338.660917 
L 745.748404 325.765689 
L 770.632952 333.185999 
L 755.025041 346.199094 
z
" clip-path="url(#p2e03936264)" style="fill: #3f599f"/>
    <path d="M 730.015208 338.660917 
L 755.025041 346.199094 
L 770.632952 333.185999 
L 745.748404 325.765689 
z
" clip-path="url(#p2e03936264)" style="fill: #577ddf"/>
    <path d="M 755.025041 346.199094 
L 770.632952 333.185999 
L 770.632952 333.185999 
L 755.025041 346.199094 
z
" clip-path="url(#p2e03936264)" style="fill: #324880"/>
    <path d="M 730.015208 338.660917 
L 755.025041 346.199094 
L 755.025041 346.199094 
L 730.015208 338.660917 
z
" clip-path="url(#p2e03936264)" style="fill: #648fff"/>
    <path d="M 780.264905 353.806604 
L 795.744571 340.674019 
L 821.086381 348.230681 
L 805.737988 361.484408 
z
" clip-path="url(#p2e03936264)" style="fill: #3f599f"/>
    <path d="M 795.744571 340.674019 
L 794.886989 285.721405 
L 820.514927 293.10982 
L 821.086381 348.230681 
z
" clip-path="url(#p2e03936264)" style="fill: #324880"/>
    <path d="M 780.264905 353.806604 
L 779.222605 298.562092 
L 794.886989 285.721405 
L 795.744571 340.674019 
z
" clip-path="url(#p2e03936264)" style="fill: #648fff"/>
    <path d="M 805.737988 361.484408 
L 821.086381 348.230681 
L 820.514927 293.10982 
L 804.984784 306.070322 
z
" clip-path="url(#p2e03936264)" style="fill: #324880"/>
    <path d="M 780.264905 353.806604 
L 805.737988 361.484408 
L 804.984784 306.070322 
L 779.222605 298.562092 
z
" clip-path="url(#p2e03936264)" style="fill: #648fff"/>
    <path d="M 779.222605 298.562092 
L 804.984784 306.070322 
L 820.514927 293.10982 
L 794.886989 285.721405 
z
" clip-path="url(#p2e03936264)" style="fill: #577ddf"/>
   </g>
   <g id="text_30">
    <!-- Imaginary Amplitude (ρ) -->
    <g transform="translate(735.696563 51.6) scale(0.21 -0.21)">
     <defs>
      <path id="DejaVuSans-49" d="M 628 4666 
L 1259 4666 
L 1259 0 
L 628 0 
L 628 4666 
z
" transform="scale(0.015625)"/>
      <path id="DejaVuSans-67" d="M 2906 1791 
Q 2906 2416 2648 2759 
Q 2391 3103 1925 3103 
Q 1463 3103 1205 2759 
Q 947 2416 947 1791 
Q 947 1169 1205 825 
Q 1463 481 1925 481 
Q 2391 481 2648 825 
Q 2906 1169 2906 1791 
z
M 3481 434 
Q 3481 -459 3084 -895 
Q 2688 -1331 1869 -1331 
Q 1566 -1331 1297 -1286 
Q 1028 -1241 775 -1147 
L 775 -588 
Q 1028 -725 1275 -790 
Q 1522 -856 1778 -856 
Q 2344 -856 2625 -561 
Q 2906 -266 2906 331 
L 2906 616 
Q 2728 306 2450 153 
Q 2172 0 1784 0 
Q 1141 0 747 490 
Q 353 981 353 1791 
Q 353 2603 747 3093 
Q 1141 3584 1784 3584 
Q 2172 3584 2450 3431 
Q 2728 3278 2906 2969 
L 2906 3500 
L 3481 3500 
L 3481 434 
z
" transform="scale(0.015625)"/>
      <path id="DejaVuSans-6e" d="M 3513 2113 
L 3513 0 
L 2938 0 
L 2938 2094 
Q 2938 2591 2744 2837 
Q 2550 3084 2163 3084 
Q 1697 3084 1428 2787 
Q 1159 2491 1159 1978 
L 1159 0 
L 581 0 
L 581 3500 
L 1159 3500 
L 1159 2956 
Q 1366 3272 1645 3428 
Q 1925 3584 2291 3584 
Q 2894 3584 3203 3211 
Q 3513 2838 3513 2113 
z
" transform="scale(0.015625)"/>
      <path id="DejaVuSans-72" d="M 2631 2963 
Q 2534 3019 2420 3045 
Q 2306 3072 2169 3072 
Q 1681 3072 1420 2755 
Q 1159 2438 1159 1844 
L 1159 0 
L 581 0 
L 581 3500 
L 1159 3500 
L 1159 2956 
Q 1341 3275 1631 3429 
Q 1922 3584 2338 3584 
Q 2397 3584 2469 3576 
Q 2541 3569 2628 3553 
L 2631 2963 
z
" transform="scale(0.015625)"/>
      <path id="DejaVuSans-79" d="M 2059 -325 
Q 1816 -950 1584 -1140 
Q 1353 -1331 966 -1331 
L 506 -1331 
L 506 -850 
L 844 -850 
Q 1081 -850 1212 -737 
Q 1344 -625 1503 -206 
L 1606 56 
L 191 3500 
L 800 3500 
L 1894 763 
L 2988 3500 
L 3597 3500 
L 2059 -325 
z
" transform="scale(0.015625)"/>
     </defs>
     <use xlink:href="#DejaVuSans-49"/>
     <use xlink:href="#DejaVuSans-6d" x="29.492188"/>
     <use xlink:href="#DejaVuSans-61" x="126.904297"/>
     <use xlink:href="#DejaVuSans-67" x="188.183594"/>
     <use xlink:href="#DejaVuSans-69" x="251.660156"/>
     <use xlink:href="#DejaVuSans-6e" x="279.443359"/>
     <use xlink:href="#DejaVuSans-61" x="342.822266"/>
     <use xlink:href="#DejaVuSans-72" x="404.101562"/>
     <use xlink:href="#DejaVuSans-79" x="445.214844"/>
     <use xlink:href="#DejaVuSans-20" x="504.394531"/>
     <use xlink:href="#DejaVuSans-41" x="536.181641"/>
     <use xlink:href="#DejaVuSans-6d" x="604.589844"/>
     <use xlink:href="#DejaVuSans-70" x="702.001953"/>
     <use xlink:href="#DejaVuSans-6c" x="765.478516"/>
     <use xlink:href="#DejaVuSans-69" x="793.261719"/>
     <use xlink:href="#DejaVuSans-74" x="821.044922"/>
     <use xlink:href="#DejaVuSans-75" x="860.253906"/>
     <use xlink:href="#DejaVuSans-64" x="923.632812"/>
     <use xlink:href="#DejaVuSans-65" x="987.109375"/>
     <use xlink:href="#DejaVuSans-20" x="1048.632812"/>
     <use xlink:href="#DejaVuSans-28" x="1080.419922"/>
     <use xlink:href="#DejaVuSans-3c1" x="1119.433594"/>
     <use xlink:href="#DejaVuSans-29" x="1182.910156"/>
    </g>
   </g>
  </g>
 </g>
 <defs>
  <clipPath id="pbdf7c36817">
   <rect x="28.8" y="57.6" width="518.4" height="518.4"/>
  </clipPath>
  <clipPath id="p2e03936264">
   <rect x="604.8" y="57.6" width="518.4" height="518.4"/>
  </clipPath>
 </defs>
</svg>
