<?xml version="1.0" encoding="utf-8" standalone="no"?>
<!DOCTYPE svg PUBLIC "-//W3C//DTD SVG 1.1//EN"
  "http://www.w3.org/Graphics/SVG/1.1/DTD/svg11.dtd">
<svg xmlns:xlink="http://www.w3.org/1999/xlink" width="1152pt" height="576pt" viewBox="0 0 1152 576" xmlns="http://www.w3.org/2000/svg" version="1.1">
 <metadata>
  <rdf:RDF xmlns:dc="http://purl.org/dc/elements/1.1/" xmlns:cc="http://creativecommons.org/ns#" xmlns:rdf="http://www.w3.org/1999/02/22-rdf-syntax-ns#">
   <cc:Work>
    <dc:type rdf:resource="http://purl.org/dc/dcmitype/StillImage"/>
    <dc:date>2024-11-04T20:33:01.177169</dc:date>
    <dc:format>image/svg+xml</dc:format>
    <dc:creator>
     <cc:Agent>
      <dc:title>Matplotlib v3.9.2, https://matplotlib.org/</dc:title>
     </cc:Agent>
    </dc:creator>
   </cc:Work>
  </rdf:RDF>
 </metadata>
 <defs>
  <style type="text/css">*{stroke-linejoin: round; stroke-linecap: butt}</style>
 </defs>
 <g id="figure_1">
  <g id="patch_1">
   <path d="M 0 576 
L 1152 576 
L 1152 0 
L 0 0 
z
" style="fill: #ffffff"/>
  </g>
  <g id="patch_2">
   <path d="M 28.8 576 
L 547.2 576 
L 547.2 57.6 
L 28.8 57.6 
z
" style="fill: #ffffff"/>
  </g>
  <g id="pane3d_1">
   <g id="patch_3">
    <path d="M 130.07018 436.456468 
L 253.494133 330.550231 
L 251.743197 126.70673 
L 122.643358 223.613571 
" style="fill: #f2f2f2; opacity: 0.5; stroke: #f2f2f2; stroke-linejoin: miter"/>
   </g>
  </g>
  <g id="pane3d_2">
   <g id="patch_4">
    <path d="M 253.494133 330.550231 
L 455.554898 390.069341 
L 462.583588 181.103065 
L 251.743197 126.70673 
" style="fill: #e6e6e6; opacity: 0.5; stroke: #e6e6e6; stroke-linejoin: miter"/>
   </g>
  </g>
  <g id="pane3d_3">
   <g id="patch_5">
    <path d="M 130.07018 436.456468 
L 340.912731 504.076731 
L 455.554898 390.069341 
L 253.494133 330.550231 
" style="fill: #ececec; opacity: 0.5; stroke: #ececec; stroke-linejoin: miter"/>
   </g>
  </g>
  <g id="grid3d_1">
   <g id="Line3DCollection_1">
    <path d="M 158.635886 445.617904 
L 280.925726 338.630493 
L 280.328796 134.081748 
" style="fill: none; stroke: #b0b0b0; stroke-width: 0.8"/>
    <path d="M 208.310046 461.549127 
L 328.58611 352.669358 
L 330.022474 146.902603 
" style="fill: none; stroke: #b0b0b0; stroke-width: 0.8"/>
    <path d="M 258.89502 477.772462 
L 377.066152 366.949661 
L 380.607663 159.953465 
" style="fill: none; stroke: #b0b0b0; stroke-width: 0.8"/>
    <path d="M 310.41609 494.296016 
L 426.38718 381.477685 
L 432.108569 173.24058 
" style="fill: none; stroke: #b0b0b0; stroke-width: 0.8"/>
   </g>
  </g>
  <g id="grid3d_2">
   <g id="Line3DCollection_2">
    <path d="M 141.757365 209.265931 
L 148.301379 420.812846 
L 357.880707 487.202708 
" style="fill: none; stroke: #b0b0b0; stroke-width: 0.8"/>
    <path d="M 173.704273 185.285468 
L 178.805664 394.638072 
L 386.24502 458.995448 
" style="fill: none; stroke: #b0b0b0; stroke-width: 0.8"/>
    <path d="M 204.65707 162.051218 
L 208.400054 369.24405 
L 413.731787 431.660877 
" style="fill: none; stroke: #b0b0b0; stroke-width: 0.8"/>
    <path d="M 234.661448 139.528886 
L 237.124663 344.596362 
L 440.38111 405.159111 
" style="fill: none; stroke: #b0b0b0; stroke-width: 0.8"/>
   </g>
  </g>
  <g id="grid3d_3">
   <g id="Line3DCollection_3">
    <path d="M 455.924386 379.084289 
L 253.401955 319.818899 
L 129.680205 425.280306 
" style="fill: none; stroke: #b0b0b0; stroke-width: 0.8"/>
    <path d="M 456.897779 350.144859 
L 253.159189 291.556163 
L 128.652606 395.83068 
" style="fill: none; stroke: #b0b0b0; stroke-width: 0.8"/>
    <path d="M 457.883019 320.853192 
L 252.913573 262.961651 
L 127.612153 366.012668 
" style="fill: none; stroke: #b0b0b0; stroke-width: 0.8"/>
    <path d="M 458.880325 291.202816 
L 252.665057 234.029488 
L 126.558603 335.819316 
" style="fill: none; stroke: #b0b0b0; stroke-width: 0.8"/>
    <path d="M 459.889919 261.187103 
L 252.413589 204.753657 
L 125.491707 305.243491 
" style="fill: none; stroke: #b0b0b0; stroke-width: 0.8"/>
    <path d="M 460.91203 230.799258 
L 252.159117 175.127998 
L 124.41121 274.277879 
" style="fill: none; stroke: #b0b0b0; stroke-width: 0.8"/>
    <path d="M 461.946892 200.032317 
L 251.901585 145.146202 
L 123.316851 242.914979 
" style="fill: none; stroke: #b0b0b0; stroke-width: 0.8"/>
   </g>
  </g>
  <g id="axis3d_1">
   <g id="line2d_1">
    <path d="M 130.07018 436.456468 
L 340.912731 504.076731 
" style="fill: none; stroke: #000000; stroke-width: 0.8; stroke-linecap: square"/>
   </g>
   <g id="xtick_1">
    <g id="line2d_2">
     <path d="M 159.677227 444.706868 
L 156.549953 447.442819 
" style="fill: none; stroke: #000000; stroke-width: 0.8; stroke-linecap: square"/>
    </g>
    <g id="text_1">
     <!-- 00 -->
     <g transform="translate(131.351686 489.365693) rotate(-45) scale(0.21 -0.21)">
      <defs>
       <path id="DejaVuSans-30" d="M 2034 4250 
Q 1547 4250 1301 3770 
Q 1056 3291 1056 2328 
Q 1056 1369 1301 889 
Q 1547 409 2034 409 
Q 2525 409 2770 889 
Q 3016 1369 3016 2328 
Q 3016 3291 2770 3770 
Q 2525 4250 2034 4250 
z
M 2034 4750 
Q 2819 4750 3233 4129 
Q 3647 3509 3647 2328 
Q 3647 1150 3233 529 
Q 2819 -91 2034 -91 
Q 1250 -91 836 529 
Q 422 1150 422 2328 
Q 422 3509 836 4129 
Q 1250 4750 2034 4750 
z
" transform="scale(0.015625)"/>
      </defs>
      <use xlink:href="#DejaVuSans-30"/>
      <use xlink:href="#DejaVuSans-30" x="63.623047"/>
     </g>
    </g>
   </g>
   <g id="xtick_2">
    <g id="line2d_3">
     <path d="M 209.334802 460.621468 
L 206.257306 463.407368 
" style="fill: none; stroke: #000000; stroke-width: 0.8; stroke-linecap: square"/>
    </g>
    <g id="text_2">
     <!-- 01 -->
     <g transform="translate(181.023931 505.435143) rotate(-45) scale(0.21 -0.21)">
      <defs>
       <path id="DejaVuSans-31" d="M 794 531 
L 1825 531 
L 1825 4091 
L 703 3866 
L 703 4441 
L 1819 4666 
L 2450 4666 
L 2450 531 
L 3481 531 
L 3481 0 
L 794 0 
L 794 531 
z
" transform="scale(0.015625)"/>
      </defs>
      <use xlink:href="#DejaVuSans-30"/>
      <use xlink:href="#DejaVuSans-31" x="63.623047"/>
     </g>
    </g>
   </g>
   <g id="xtick_3">
    <g id="line2d_4">
     <path d="M 259.902405 476.82772 
L 256.877048 479.664949 
" style="fill: none; stroke: #000000; stroke-width: 0.8; stroke-linecap: square"/>
    </g>
    <g id="text_3">
     <!-- 10 -->
     <g transform="translate(231.60781 521.799516) rotate(-45) scale(0.21 -0.21)">
      <use xlink:href="#DejaVuSans-31"/>
      <use xlink:href="#DejaVuSans-30" x="63.623047"/>
     </g>
    </g>
   </g>
   <g id="xtick_4">
    <g id="line2d_5">
     <path d="M 311.405283 493.333715 
L 308.434531 496.223705 
" style="fill: none; stroke: #000000; stroke-width: 0.8; stroke-linecap: square"/>
    </g>
    <g id="text_4">
     <!-- 11 -->
     <g transform="translate(283.128654 538.467006) rotate(-45) scale(0.21 -0.21)">
      <use xlink:href="#DejaVuSans-31"/>
      <use xlink:href="#DejaVuSans-31" x="63.623047"/>
     </g>
    </g>
   </g>
  </g>
  <g id="axis3d_2">
   <g id="line2d_6">
    <path d="M 455.554898 390.069341 
L 340.912731 504.076731 
" style="fill: none; stroke: #000000; stroke-width: 0.8; stroke-linecap: square"/>
   </g>
   <g id="xtick_5">
    <g id="line2d_7">
     <path d="M 356.140222 486.651363 
L 361.364886 488.306415 
" style="fill: none; stroke: #000000; stroke-width: 0.8; stroke-linecap: square"/>
    </g>
    <g id="text_5">
     <!-- 00 -->
     <g transform="translate(368.70027 499.207917) rotate(-337.5) scale(0.21 -0.21)">
      <use xlink:href="#DejaVuSans-30"/>
      <use xlink:href="#DejaVuSans-30" x="63.623047"/>
     </g>
    </g>
   </g>
   <g id="xtick_6">
    <g id="line2d_8">
     <path d="M 384.5233 458.46129 
L 389.691587 460.064734 
" style="fill: none; stroke: #000000; stroke-width: 0.8; stroke-linecap: square"/>
    </g>
    <g id="text_6">
     <!-- 01 -->
     <g transform="translate(396.913817 470.822876) rotate(-337.5) scale(0.21 -0.21)">
      <use xlink:href="#DejaVuSans-30"/>
      <use xlink:href="#DejaVuSans-31" x="63.623047"/>
     </g>
    </g>
   </g>
   <g id="xtick_7">
    <g id="line2d_9">
     <path d="M 412.028511 431.143114 
L 417.141381 432.697327 
" style="fill: none; stroke: #000000; stroke-width: 0.8; stroke-linecap: square"/>
    </g>
    <g id="text_7">
     <!-- 10 -->
     <g transform="translate(424.254695 443.315808) rotate(-337.5) scale(0.21 -0.21)">
      <use xlink:href="#DejaVuSans-31"/>
      <use xlink:href="#DejaVuSans-30" x="63.623047"/>
     </g>
    </g>
   </g>
   <g id="xtick_8">
    <g id="line2d_10">
     <path d="M 438.695964 404.657001 
L 443.754368 406.164215 
" style="fill: none; stroke: #000000; stroke-width: 0.8; stroke-linecap: square"/>
    </g>
    <g id="text_8">
     <!-- 11 -->
     <g transform="translate(450.762776 416.646599) rotate(-337.5) scale(0.21 -0.21)">
      <use xlink:href="#DejaVuSans-31"/>
      <use xlink:href="#DejaVuSans-31" x="63.623047"/>
     </g>
    </g>
   </g>
  </g>
  <g id="axis3d_3">
   <g id="line2d_11">
    <path d="M 455.554898 390.069341 
L 462.583588 181.103065 
" style="fill: none; stroke: #000000; stroke-width: 0.8; stroke-linecap: square"/>
   </g>
   <g id="xtick_9">
    <g id="line2d_12">
     <path d="M 454.245709 378.593048 
L 459.284674 380.067631 
" style="fill: none; stroke: #000000; stroke-width: 0.8; stroke-linecap: square"/>
    </g>
    <g id="text_9">
     <!-- −0.2 -->
     <g transform="translate(469.434292 372.803949) scale(0.21 -0.21)">
      <defs>
       <path id="DejaVuSans-2212" d="M 678 2272 
L 4684 2272 
L 4684 1741 
L 678 1741 
L 678 2272 
z
" transform="scale(0.015625)"/>
       <path id="DejaVuSans-2e" d="M 684 794 
L 1344 794 
L 1344 0 
L 684 0 
L 684 794 
z
" transform="scale(0.015625)"/>
       <path id="DejaVuSans-32" d="M 1228 531 
L 3431 531 
L 3431 0 
L 469 0 
L 469 531 
Q 828 903 1448 1529 
Q 2069 2156 2228 2338 
Q 2531 2678 2651 2914 
Q 2772 3150 2772 3378 
Q 2772 3750 2511 3984 
Q 2250 4219 1831 4219 
Q 1534 4219 1204 4116 
Q 875 4013 500 3803 
L 500 4441 
Q 881 4594 1212 4672 
Q 1544 4750 1819 4750 
Q 2544 4750 2975 4387 
Q 3406 4025 3406 3419 
Q 3406 3131 3298 2873 
Q 3191 2616 2906 2266 
Q 2828 2175 2409 1742 
Q 1991 1309 1228 531 
z
" transform="scale(0.015625)"/>
      </defs>
      <use xlink:href="#DejaVuSans-2212"/>
      <use xlink:href="#DejaVuSans-30" x="83.789062"/>
      <use xlink:href="#DejaVuSans-2e" x="147.412109"/>
      <use xlink:href="#DejaVuSans-32" x="179.199219"/>
     </g>
    </g>
   </g>
   <g id="xtick_10">
    <g id="line2d_13">
     <path d="M 455.208666 349.659125 
L 460.278976 351.117184 
" style="fill: none; stroke: #000000; stroke-width: 0.8; stroke-linecap: square"/>
    </g>
    <g id="text_10">
     <!-- −0.1 -->
     <g transform="translate(470.488203 343.885973) scale(0.21 -0.21)">
      <use xlink:href="#DejaVuSans-2212"/>
      <use xlink:href="#DejaVuSans-30" x="83.789062"/>
      <use xlink:href="#DejaVuSans-2e" x="147.412109"/>
      <use xlink:href="#DejaVuSans-31" x="179.199219"/>
     </g>
    </g>
   </g>
   <g id="xtick_11">
    <g id="line2d_14">
     <path d="M 456.183339 320.373134 
L 461.285387 321.814156 
" style="fill: none; stroke: #000000; stroke-width: 0.8; stroke-linecap: square"/>
    </g>
    <g id="text_11">
     <!-- 0.0 -->
     <g transform="translate(471.554926 314.616424) scale(0.21 -0.21)">
      <use xlink:href="#DejaVuSans-30"/>
      <use xlink:href="#DejaVuSans-2e" x="63.623047"/>
      <use xlink:href="#DejaVuSans-30" x="95.410156"/>
     </g>
    </g>
   </g>
   <g id="xtick_12">
    <g id="line2d_15">
     <path d="M 457.169945 290.728612 
L 462.30413 292.152069 
" style="fill: none; stroke: #000000; stroke-width: 0.8; stroke-linecap: square"/>
    </g>
    <g id="text_12">
     <!-- 0.1 -->
     <g transform="translate(472.634697 284.988852) scale(0.21 -0.21)">
      <use xlink:href="#DejaVuSans-30"/>
      <use xlink:href="#DejaVuSans-2e" x="63.623047"/>
      <use xlink:href="#DejaVuSans-31" x="95.410156"/>
     </g>
    </g>
   </g>
   <g id="xtick_13">
    <g id="line2d_16">
     <path d="M 458.168704 260.718933 
L 463.335433 262.124281 
" style="fill: none; stroke: #000000; stroke-width: 0.8; stroke-linecap: square"/>
    </g>
    <g id="text_13">
     <!-- 0.2 -->
     <g transform="translate(473.727757 254.996648) scale(0.21 -0.21)">
      <use xlink:href="#DejaVuSans-30"/>
      <use xlink:href="#DejaVuSans-2e" x="63.623047"/>
      <use xlink:href="#DejaVuSans-32" x="95.410156"/>
     </g>
    </g>
   </g>
   <g id="xtick_14">
    <g id="line2d_17">
     <path d="M 459.179842 230.337309 
L 464.37953 231.723987 
" style="fill: none; stroke: #000000; stroke-width: 0.8; stroke-linecap: square"/>
    </g>
    <g id="text_14">
     <!-- 0.3 -->
     <g transform="translate(474.834353 224.633037) scale(0.21 -0.21)">
      <defs>
       <path id="DejaVuSans-33" d="M 2597 2516 
Q 3050 2419 3304 2112 
Q 3559 1806 3559 1356 
Q 3559 666 3084 287 
Q 2609 -91 1734 -91 
Q 1441 -91 1130 -33 
Q 819 25 488 141 
L 488 750 
Q 750 597 1062 519 
Q 1375 441 1716 441 
Q 2309 441 2620 675 
Q 2931 909 2931 1356 
Q 2931 1769 2642 2001 
Q 2353 2234 1838 2234 
L 1294 2234 
L 1294 2753 
L 1863 2753 
Q 2328 2753 2575 2939 
Q 2822 3125 2822 3475 
Q 2822 3834 2567 4026 
Q 2313 4219 1838 4219 
Q 1578 4219 1281 4162 
Q 984 4106 628 3988 
L 628 4550 
Q 988 4650 1302 4700 
Q 1616 4750 1894 4750 
Q 2613 4750 3031 4423 
Q 3450 4097 3450 3541 
Q 3450 3153 3228 2886 
Q 3006 2619 2597 2516 
z
" transform="scale(0.015625)"/>
      </defs>
      <use xlink:href="#DejaVuSans-30"/>
      <use xlink:href="#DejaVuSans-2e" x="63.623047"/>
      <use xlink:href="#DejaVuSans-33" x="95.410156"/>
     </g>
    </g>
   </g>
   <g id="xtick_15">
    <g id="line2d_18">
     <path d="M 460.20359 199.576781 
L 465.43666 200.944214 
" style="fill: none; stroke: #000000; stroke-width: 0.8; stroke-linecap: square"/>
    </g>
    <g id="text_15">
     <!-- 0.4 -->
     <g transform="translate(475.954738 193.891079) scale(0.21 -0.21)">
      <defs>
       <path id="DejaVuSans-34" d="M 2419 4116 
L 825 1625 
L 2419 1625 
L 2419 4116 
z
M 2253 4666 
L 3047 4666 
L 3047 1625 
L 3713 1625 
L 3713 1100 
L 3047 1100 
L 3047 0 
L 2419 0 
L 2419 1100 
L 313 1100 
L 313 1709 
L 2253 4666 
z
" transform="scale(0.015625)"/>
      </defs>
      <use xlink:href="#DejaVuSans-30"/>
      <use xlink:href="#DejaVuSans-2e" x="63.623047"/>
      <use xlink:href="#DejaVuSans-34" x="95.410156"/>
     </g>
    </g>
   </g>
  </g>
  <g id="axes_1">
   <g id="Poly3DCollection_1">
    <path d="M 259.371466 275.260503 
L 259.399492 279.104898 
L 283.419588 285.950861 
L 283.41043 282.095282 
z
" clip-path="url(#pc85ffe3864)" style="fill: #648fff"/>
    <path d="M 245.092197 287.136217 
L 245.131747 291.000014 
L 259.399492 279.104898 
L 259.371466 275.260503 
z
" clip-path="url(#pc85ffe3864)" style="fill: #324880"/>
    <path d="M 245.131747 291.000014 
L 269.270643 297.949203 
L 283.419588 285.950861 
L 259.399492 279.104898 
z
" clip-path="url(#pc85ffe3864)" style="fill: #577ddf"/>
    <path d="M 245.092197 287.136217 
L 259.371466 275.260503 
L 283.41043 282.095282 
L 269.250146 294.074136 
z
" clip-path="url(#pc85ffe3864)" style="fill: #3f599f"/>
    <path d="M 269.250146 294.074136 
L 283.41043 282.095282 
L 283.419588 285.950861 
L 269.270643 297.949203 
z
" clip-path="url(#pc85ffe3864)" style="fill: #648fff"/>
    <path d="M 307.657836 288.989326 
L 307.602715 310.224363 
L 331.954032 317.24008 
L 332.116408 295.943409 
z
" clip-path="url(#pc85ffe3864)" style="fill: #648fff"/>
    <path d="M 245.092197 287.136217 
L 269.250146 294.074136 
L 269.270643 297.949203 
L 245.131747 291.000014 
z
" clip-path="url(#pc85ffe3864)" style="fill: #324880"/>
    <path d="M 293.625241 322.41463 
L 318.09974 329.536676 
L 331.954032 317.24008 
L 307.602715 310.224363 
z
" clip-path="url(#pc85ffe3864)" style="fill: #577ddf"/>
    <path d="M 293.619156 301.072669 
L 293.625241 322.41463 
L 307.602715 310.224363 
L 307.657836 288.989326 
z
" clip-path="url(#pc85ffe3864)" style="fill: #324880"/>
    <path d="M 318.202003 308.132614 
L 332.116408 295.943409 
L 331.954032 317.24008 
L 318.09974 329.536676 
z
" clip-path="url(#pc85ffe3864)" style="fill: #648fff"/>
    <path d="M 293.619156 301.072669 
L 307.657836 288.989326 
L 332.116408 295.943409 
L 318.202003 308.132614 
z
" clip-path="url(#pc85ffe3864)" style="fill: #3f599f"/>
    <path d="M 293.619156 301.072669 
L 318.202003 308.132614 
L 318.09974 329.536676 
L 293.625241 322.41463 
z
" clip-path="url(#pc85ffe3864)" style="fill: #324880"/>
    <path d="M 356.788917 302.958319 
L 356.401516 333.433996 
L 381.132345 340.598994 
L 381.678182 310.034857 
z
" clip-path="url(#pc85ffe3864)" style="fill: #648fff"/>
    <path d="M 342.698283 345.883919 
L 367.557241 353.158258 
L 381.132345 340.598994 
L 356.401516 333.433996 
z
" clip-path="url(#pc85ffe3864)" style="fill: #577ddf"/>
    <path d="M 343.001515 315.254783 
L 342.698283 345.883919 
L 356.401516 333.433996 
L 356.788917 302.958319 
z
" clip-path="url(#pc85ffe3864)" style="fill: #324880"/>
    <path d="M 187.342974 406.120684 
L 211.635283 413.696335 
L 226.459863 400.617052 
L 202.286551 393.155814 
z
" clip-path="url(#pc85ffe3864)" style="fill: #577ddf"/>
    <path d="M 368.020569 322.440002 
L 381.678182 310.034857 
L 381.132345 340.598994 
L 367.557241 353.158258 
z
" clip-path="url(#pc85ffe3864)" style="fill: #648fff"/>
    <path d="M 343.001515 315.254783 
L 356.788917 302.958319 
L 381.678182 310.034857 
L 368.020569 322.440002 
z
" clip-path="url(#pc85ffe3864)" style="fill: #3f599f"/>
    <path d="M 343.001515 315.254783 
L 368.020569 322.440002 
L 367.557241 353.158258 
L 342.698283 345.883919 
z
" clip-path="url(#pc85ffe3864)" style="fill: #324880"/>
    <path d="M 200.939559 323.856869 
L 202.286551 393.155814 
L 226.459863 400.617052 
L 225.459622 331.118612 
z
" clip-path="url(#pc85ffe3864)" style="fill: #648fff"/>
    <path d="M 185.766792 336.475683 
L 187.342974 406.120684 
L 202.286551 393.155814 
L 200.939559 323.856869 
z
" clip-path="url(#pc85ffe3864)" style="fill: #324880"/>
    <path d="M 210.409268 343.850418 
L 225.459622 331.118612 
L 226.459863 400.617052 
L 211.635283 413.696335 
z
" clip-path="url(#pc85ffe3864)" style="fill: #648fff"/>
    <path d="M 185.766792 336.475683 
L 210.409268 343.850418 
L 211.635283 413.696335 
L 187.342974 406.120684 
z
" clip-path="url(#pc85ffe3864)" style="fill: #324880"/>
    <path d="M 185.766792 336.475683 
L 200.939559 323.856869 
L 225.459622 331.118612 
L 210.409268 343.850418 
z
" clip-path="url(#pc85ffe3864)" style="fill: #3f599f"/>
    <path d="M 379.527194 342.398636 
L 378.984325 373.362308 
L 404.420398 380.880917 
L 405.130877 349.826709 
z
" clip-path="url(#pc85ffe3864)" style="fill: #648fff"/>
    <path d="M 365.120655 386.427691 
L 390.692794 394.063867 
L 404.420398 380.880917 
L 378.984325 373.362308 
z
" clip-path="url(#pc85ffe3864)" style="fill: #577ddf"/>
    <path d="M 365.577449 355.306966 
L 365.120655 386.427691 
L 378.984325 373.362308 
L 379.527194 342.398636 
z
" clip-path="url(#pc85ffe3864)" style="fill: #324880"/>
    <path d="M 206.048618 448.347906 
L 231.02678 456.302263 
L 246.064427 442.570234 
L 221.212532 434.738939 
z
" clip-path="url(#pc85ffe3864)" style="fill: #577ddf"/>
    <path d="M 391.319015 362.851952 
L 405.130877 349.826709 
L 404.420398 380.880917 
L 390.692794 394.063867 
z
" clip-path="url(#pc85ffe3864)" style="fill: #648fff"/>
    <path d="M 365.577449 355.306966 
L 379.527194 342.398636 
L 405.130877 349.826709 
L 391.319015 362.851952 
z
" clip-path="url(#pc85ffe3864)" style="fill: #3f599f"/>
    <path d="M 365.577449 355.306966 
L 391.319015 362.851952 
L 390.692794 394.063867 
L 365.120655 386.427691 
z
" clip-path="url(#pc85ffe3864)" style="fill: #324880"/>
    <path d="M 220.113897 364.339957 
L 221.212532 434.738939 
L 246.064427 442.570234 
L 245.332466 371.967301 
z
" clip-path="url(#pc85ffe3864)" style="fill: #648fff"/>
    <path d="M 204.713724 377.59516 
L 206.048618 448.347906 
L 221.212532 434.738939 
L 220.113897 364.339957 
z
" clip-path="url(#pc85ffe3864)" style="fill: #324880"/>
    <path d="M 230.062297 385.344172 
L 245.332466 371.967301 
L 246.064427 442.570234 
L 231.02678 456.302263 
z
" clip-path="url(#pc85ffe3864)" style="fill: #648fff"/>
    <path d="M 351.407777 368.418805 
L 351.149893 390.341987 
L 376.910476 398.071235 
L 377.288404 376.083485 
z
" clip-path="url(#pc85ffe3864)" style="fill: #648fff"/>
    <path d="M 204.713724 377.59516 
L 230.062297 385.344172 
L 231.02678 456.302263 
L 206.048618 448.347906 
z
" clip-path="url(#pc85ffe3864)" style="fill: #324880"/>
    <path d="M 336.819349 403.774187 
L 362.718867 411.626461 
L 376.910476 398.071235 
L 351.149893 390.341987 
z
" clip-path="url(#pc85ffe3864)" style="fill: #577ddf"/>
    <path d="M 337.012936 381.739002 
L 336.819349 403.774187 
L 351.149893 390.341987 
L 351.407777 368.418805 
z
" clip-path="url(#pc85ffe3864)" style="fill: #324880"/>
    <path d="M 204.713724 377.59516 
L 220.113897 364.339957 
L 245.332466 371.967301 
L 230.062297 385.344172 
z
" clip-path="url(#pc85ffe3864)" style="fill: #3f599f"/>
    <path d="M 363.033806 389.526249 
L 377.288404 376.083485 
L 376.910476 398.071235 
L 362.718867 411.626461 
z
" clip-path="url(#pc85ffe3864)" style="fill: #648fff"/>
    <path d="M 337.012936 381.739002 
L 351.407777 368.418805 
L 377.288404 376.083485 
L 363.033806 389.526249 
z
" clip-path="url(#pc85ffe3864)" style="fill: #3f599f"/>
    <path d="M 337.012936 381.739002 
L 363.033806 389.526249 
L 362.718867 411.626461 
L 336.819349 403.774187 
z
" clip-path="url(#pc85ffe3864)" style="fill: #324880"/>
    <path d="M 322.387515 395.272566 
L 322.364348 399.306578 
L 348.504303 407.231352 
L 348.549814 403.185341 
z
" clip-path="url(#pc85ffe3864)" style="fill: #648fff"/>
    <path d="M 307.52593 409.024663 
L 307.515252 413.079488 
L 322.364348 399.306578 
L 322.387515 395.272566 
z
" clip-path="url(#pc85ffe3864)" style="fill: #324880"/>
    <path d="M 307.515252 413.079488 
L 333.797578 421.132935 
L 348.504303 407.231352 
L 322.364348 399.306578 
z
" clip-path="url(#pc85ffe3864)" style="fill: #577ddf"/>
    <path d="M 307.52593 409.024663 
L 322.387515 395.272566 
L 348.549814 403.185341 
L 333.830847 417.066027 
z
" clip-path="url(#pc85ffe3864)" style="fill: #3f599f"/>
    <path d="M 333.830847 417.066027 
L 348.549814 403.185341 
L 348.504303 407.231352 
L 333.797578 421.132935 
z
" clip-path="url(#pc85ffe3864)" style="fill: #648fff"/>
    <path d="M 307.52593 409.024663 
L 333.830847 417.066027 
L 333.797578 421.132935 
L 307.515252 413.079488 
z
" clip-path="url(#pc85ffe3864)" style="fill: #324880"/>
   </g>
   <g id="Poly3DCollection_2">
    <path d="M 134.396938 365.084953 
L 339.663031 428.173237 
L 451.452322 321.732491 
L 254.518622 266.018416 
z
" clip-path="url(#pc85ffe3864)" style="fill-opacity: 0.25"/>
   </g>
   <g id="Poly3DCollection_3">
    <path d="M 230.597101 299.191428 
L 230.458785 288.745876 
L 254.78834 295.758604 
L 254.874898 306.234839 
z
" clip-path="url(#pc85ffe3864)" style="fill: #324880"/>
    <path d="M 215.881249 311.430236 
L 215.710035 300.931454 
L 230.458785 288.745876 
L 230.597101 299.191428 
z
" clip-path="url(#pc85ffe3864)" style="fill: #648fff"/>
    <path d="M 215.881249 311.430236 
L 230.597101 299.191428 
L 254.874898 306.234839 
L 240.279751 318.581564 
z
" clip-path="url(#pc85ffe3864)" style="fill: #3f599f"/>
    <path d="M 215.710035 300.931454 
L 240.160808 308.051862 
L 254.78834 295.758604 
L 230.458785 288.745876 
z
" clip-path="url(#pc85ffe3864)" style="fill: #577ddf"/>
    <path d="M 240.279751 318.581564 
L 254.874898 306.234839 
L 254.78834 295.758604 
L 240.160808 308.051862 
z
" clip-path="url(#pc85ffe3864)" style="fill: #324880"/>
    <path d="M 215.881249 311.430236 
L 240.279751 318.581564 
L 240.160808 308.051862 
L 215.710035 300.931454 
z
" clip-path="url(#pc85ffe3864)" style="fill: #648fff"/>
    <path d="M 406.787071 317.173838 
L 407.053016 305.644245 
L 432.446166 312.812496 
L 432.118505 324.376094 
z
" clip-path="url(#pc85ffe3864)" style="fill: #324880"/>
    <path d="M 264.89469 325.796329 
L 279.366418 313.340254 
L 304.074497 320.508497 
L 289.728958 333.075382 
z
" clip-path="url(#pc85ffe3864)" style="fill: #3f599f"/>
    <path d="M 393.262093 329.689113 
L 393.497664 318.100526 
L 407.053016 305.644245 
L 406.787071 317.173838 
z
" clip-path="url(#pc85ffe3864)" style="fill: #648fff"/>
    <path d="M 279.366418 313.340254 
L 279.17785 254.861544 
L 304.184338 261.854934 
L 304.074497 320.508497 
z
" clip-path="url(#pc85ffe3864)" style="fill: #324880"/>
    <path d="M 393.262093 329.689113 
L 406.787071 317.173838 
L 432.118505 324.376094 
L 418.729067 337.00297 
z
" clip-path="url(#pc85ffe3864)" style="fill: #3f599f"/>
    <path d="M 264.89469 325.796329 
L 264.528804 267.01426 
L 279.17785 254.861544 
L 279.366418 313.340254 
z
" clip-path="url(#pc85ffe3864)" style="fill: #648fff"/>
    <path d="M 393.497664 318.100526 
L 419.027024 325.380119 
L 432.446166 312.812496 
L 407.053016 305.644245 
z
" clip-path="url(#pc85ffe3864)" style="fill: #577ddf"/>
    <path d="M 418.729067 337.00297 
L 432.118505 324.376094 
L 432.446166 312.812496 
L 419.027024 325.380119 
z
" clip-path="url(#pc85ffe3864)" style="fill: #324880"/>
    <path d="M 393.262093 329.689113 
L 418.729067 337.00297 
L 419.027024 325.380119 
L 393.497664 318.100526 
z
" clip-path="url(#pc85ffe3864)" style="fill: #648fff"/>
    <path d="M 289.728958 333.075382 
L 304.074497 320.508497 
L 304.184338 261.854934 
L 289.664553 274.117079 
z
" clip-path="url(#pc85ffe3864)" style="fill: #324880"/>
    <path d="M 314.7855 340.419583 
L 329.00202 327.740405 
L 354.151922 335.036829 
L 340.067313 347.829813 
z
" clip-path="url(#pc85ffe3864)" style="fill: #3f599f"/>
    <path d="M 264.89469 325.796329 
L 289.728958 333.075382 
L 289.664553 274.117079 
L 264.528804 267.01426 
z
" clip-path="url(#pc85ffe3864)" style="fill: #648fff"/>
    <path d="M 264.528804 267.01426 
L 289.664553 274.117079 
L 304.184338 261.854934 
L 279.17785 254.861544 
z
" clip-path="url(#pc85ffe3864)" style="fill: #577ddf"/>
    <path d="M 329.00202 327.740405 
L 329.596393 243.199146 
L 355.190693 250.239992 
L 354.151922 335.036829 
z
" clip-path="url(#pc85ffe3864)" style="fill: #324880"/>
    <path d="M 314.7855 340.419583 
L 315.134049 255.434905 
L 329.596393 243.199146 
L 329.00202 327.740405 
z
" clip-path="url(#pc85ffe3864)" style="fill: #648fff"/>
    <path d="M 235.273757 351.291595 
L 250.198885 338.445271 
L 275.160298 345.837722 
L 260.363271 358.800115 
z
" clip-path="url(#pc85ffe3864)" style="fill: #3f599f"/>
    <path d="M 340.067313 347.829813 
L 354.151922 335.036829 
L 355.190693 250.239992 
L 340.864991 262.587519 
z
" clip-path="url(#pc85ffe3864)" style="fill: #324880"/>
    <path d="M 314.7855 340.419583 
L 340.067313 347.829813 
L 340.864991 262.587519 
L 315.134049 255.434905 
z
" clip-path="url(#pc85ffe3864)" style="fill: #648fff"/>
    <path d="M 154.706247 362.307967 
L 170.357545 349.291171 
L 195.123283 356.781557 
L 179.596088 369.916745 
z
" clip-path="url(#pc85ffe3864)" style="fill: #3f599f"/>
    <path d="M 285.68088 366.376897 
L 300.346868 353.296854 
L 325.761656 360.823574 
L 311.229707 374.022875 
z
" clip-path="url(#pc85ffe3864)" style="fill: #3f599f"/>
    <path d="M 170.357545 349.291171 
L 168.645259 283.161417 
L 193.744916 290.452168 
L 195.123283 356.781557 
z
" clip-path="url(#pc85ffe3864)" style="fill: #324880"/>
    <path d="M 250.198885 338.445271 
L 248.891417 197.655135 
L 274.578536 204.613639 
L 275.160298 345.837722 
z
" clip-path="url(#pc85ffe3864)" style="fill: #324880"/>
    <path d="M 315.134049 255.434905 
L 340.864991 262.587519 
L 355.190693 250.239992 
L 329.596393 243.199146 
z
" clip-path="url(#pc85ffe3864)" style="fill: #577ddf"/>
    <path d="M 154.706247 362.307967 
L 152.763612 295.831868 
L 168.645259 283.161417 
L 170.357545 349.291171 
z
" clip-path="url(#pc85ffe3864)" style="fill: #648fff"/>
    <path d="M 300.346868 353.296854 
L 300.41288 293.853005 
L 326.143498 301.200514 
L 325.761656 360.823574 
z
" clip-path="url(#pc85ffe3864)" style="fill: #324880"/>
    <path d="M 235.273757 351.291595 
L 233.516771 209.748531 
L 248.891417 197.655135 
L 250.198885 338.445271 
z
" clip-path="url(#pc85ffe3864)" style="fill: #648fff"/>
    <path d="M 285.68088 366.376897 
L 285.564725 306.622139 
L 300.41288 293.853005 
L 300.346868 353.296854 
z
" clip-path="url(#pc85ffe3864)" style="fill: #648fff"/>
    <path d="M 179.596088 369.916745 
L 195.123283 356.781557 
L 193.744916 290.452168 
L 177.990707 303.239461 
z
" clip-path="url(#pc85ffe3864)" style="fill: #324880"/>
    <path d="M 260.363271 358.800115 
L 275.160298 345.837722 
L 274.578536 204.613639 
L 259.339537 216.819525 
z
" clip-path="url(#pc85ffe3864)" style="fill: #324880"/>
    <path d="M 154.706247 362.307967 
L 179.596088 369.916745 
L 177.990707 303.239461 
L 152.763612 295.831868 
z
" clip-path="url(#pc85ffe3864)" style="fill: #648fff"/>
    <path d="M 311.229707 374.022875 
L 325.761656 360.823574 
L 326.143498 301.200514 
L 311.432747 314.087527 
z
" clip-path="url(#pc85ffe3864)" style="fill: #324880"/>
    <path d="M 235.273757 351.291595 
L 260.363271 358.800115 
L 259.339537 216.819525 
L 233.516771 209.748531 
z
" clip-path="url(#pc85ffe3864)" style="fill: #648fff"/>
    <path d="M 285.68088 366.376897 
L 311.229707 374.022875 
L 311.432747 314.087527 
L 285.564725 306.622139 
z
" clip-path="url(#pc85ffe3864)" style="fill: #648fff"/>
    <path d="M 152.763612 295.831868 
L 177.990707 303.239461 
L 193.744916 290.452168 
L 168.645259 283.161417 
z
" clip-path="url(#pc85ffe3864)" style="fill: #577ddf"/>
    <path d="M 285.564725 306.622139 
L 311.432747 314.087527 
L 326.143498 301.200514 
L 300.41288 293.853005 
z
" clip-path="url(#pc85ffe3864)" style="fill: #577ddf"/>
    <path d="M 270.782121 379.664538 
L 270.727491 368.876289 
L 296.469363 376.612214 
L 296.466054 387.432632 
z
" clip-path="url(#pc85ffe3864)" style="fill: #324880"/>
    <path d="M 255.645006 393.16476 
L 255.555527 382.320708 
L 270.727491 368.876289 
L 270.782121 379.664538 
z
" clip-path="url(#pc85ffe3864)" style="fill: #648fff"/>
    <path d="M 255.645006 393.16476 
L 270.782121 379.664538 
L 296.466054 387.432632 
L 281.465111 401.057918 
z
" clip-path="url(#pc85ffe3864)" style="fill: #3f599f"/>
    <path d="M 255.555527 382.320708 
L 281.434186 390.181465 
L 296.469363 376.612214 
L 270.727491 368.876289 
z
" clip-path="url(#pc85ffe3864)" style="fill: #577ddf"/>
    <path d="M 281.465111 401.057918 
L 296.466054 387.432632 
L 296.469363 376.612214 
L 281.434186 390.181465 
z
" clip-path="url(#pc85ffe3864)" style="fill: #324880"/>
    <path d="M 233.516771 209.748531 
L 259.339537 216.819525 
L 274.578536 204.613639 
L 248.891417 197.655135 
z
" clip-path="url(#pc85ffe3864)" style="fill: #577ddf"/>
    <path d="M 255.645006 393.16476 
L 281.465111 401.057918 
L 281.434186 390.181465 
L 255.555527 382.320708 
z
" clip-path="url(#pc85ffe3864)" style="fill: #648fff"/>
   </g>
   <g id="text_16">
    <!-- Real Amplitude (ρ) -->
    <g transform="translate(190.023516 51.6) scale(0.21 -0.21)">
     <defs>
      <path id="DejaVuSans-52" d="M 2841 2188 
Q 3044 2119 3236 1894 
Q 3428 1669 3622 1275 
L 4263 0 
L 3584 0 
L 2988 1197 
Q 2756 1666 2539 1819 
Q 2322 1972 1947 1972 
L 1259 1972 
L 1259 0 
L 628 0 
L 628 4666 
L 2053 4666 
Q 2853 4666 3247 4331 
Q 3641 3997 3641 3322 
Q 3641 2881 3436 2590 
Q 3231 2300 2841 2188 
z
M 1259 4147 
L 1259 2491 
L 2053 2491 
Q 2509 2491 2742 2702 
Q 2975 2913 2975 3322 
Q 2975 3731 2742 3939 
Q 2509 4147 2053 4147 
L 1259 4147 
z
" transform="scale(0.015625)"/>
      <path id="DejaVuSans-65" d="M 3597 1894 
L 3597 1613 
L 953 1613 
Q 991 1019 1311 708 
Q 1631 397 2203 397 
Q 2534 397 2845 478 
Q 3156 559 3463 722 
L 3463 178 
Q 3153 47 2828 -22 
Q 2503 -91 2169 -91 
Q 1331 -91 842 396 
Q 353 884 353 1716 
Q 353 2575 817 3079 
Q 1281 3584 2069 3584 
Q 2775 3584 3186 3129 
Q 3597 2675 3597 1894 
z
M 3022 2063 
Q 3016 2534 2758 2815 
Q 2500 3097 2075 3097 
Q 1594 3097 1305 2825 
Q 1016 2553 972 2059 
L 3022 2063 
z
" transform="scale(0.015625)"/>
      <path id="DejaVuSans-61" d="M 2194 1759 
Q 1497 1759 1228 1600 
Q 959 1441 959 1056 
Q 959 750 1161 570 
Q 1363 391 1709 391 
Q 2188 391 2477 730 
Q 2766 1069 2766 1631 
L 2766 1759 
L 2194 1759 
z
M 3341 1997 
L 3341 0 
L 2766 0 
L 2766 531 
Q 2569 213 2275 61 
Q 1981 -91 1556 -91 
Q 1019 -91 701 211 
Q 384 513 384 1019 
Q 384 1609 779 1909 
Q 1175 2209 1959 2209 
L 2766 2209 
L 2766 2266 
Q 2766 2663 2505 2880 
Q 2244 3097 1772 3097 
Q 1472 3097 1187 3025 
Q 903 2953 641 2809 
L 641 3341 
Q 956 3463 1253 3523 
Q 1550 3584 1831 3584 
Q 2591 3584 2966 3190 
Q 3341 2797 3341 1997 
z
" transform="scale(0.015625)"/>
      <path id="DejaVuSans-6c" d="M 603 4863 
L 1178 4863 
L 1178 0 
L 603 0 
L 603 4863 
z
" transform="scale(0.015625)"/>
      <path id="DejaVuSans-20" transform="scale(0.015625)"/>
      <path id="DejaVuSans-41" d="M 2188 4044 
L 1331 1722 
L 3047 1722 
L 2188 4044 
z
M 1831 4666 
L 2547 4666 
L 4325 0 
L 3669 0 
L 3244 1197 
L 1141 1197 
L 716 0 
L 50 0 
L 1831 4666 
z
" transform="scale(0.015625)"/>
      <path id="DejaVuSans-6d" d="M 3328 2828 
Q 3544 3216 3844 3400 
Q 4144 3584 4550 3584 
Q 5097 3584 5394 3201 
Q 5691 2819 5691 2113 
L 5691 0 
L 5113 0 
L 5113 2094 
Q 5113 2597 4934 2840 
Q 4756 3084 4391 3084 
Q 3944 3084 3684 2787 
Q 3425 2491 3425 1978 
L 3425 0 
L 2847 0 
L 2847 2094 
Q 2847 2600 2669 2842 
Q 2491 3084 2119 3084 
Q 1678 3084 1418 2786 
Q 1159 2488 1159 1978 
L 1159 0 
L 581 0 
L 581 3500 
L 1159 3500 
L 1159 2956 
Q 1356 3278 1631 3431 
Q 1906 3584 2284 3584 
Q 2666 3584 2933 3390 
Q 3200 3197 3328 2828 
z
" transform="scale(0.015625)"/>
      <path id="DejaVuSans-70" d="M 1159 525 
L 1159 -1331 
L 581 -1331 
L 581 3500 
L 1159 3500 
L 1159 2969 
Q 1341 3281 1617 3432 
Q 1894 3584 2278 3584 
Q 2916 3584 3314 3078 
Q 3713 2572 3713 1747 
Q 3713 922 3314 415 
Q 2916 -91 2278 -91 
Q 1894 -91 1617 61 
Q 1341 213 1159 525 
z
M 3116 1747 
Q 3116 2381 2855 2742 
Q 2594 3103 2138 3103 
Q 1681 3103 1420 2742 
Q 1159 2381 1159 1747 
Q 1159 1113 1420 752 
Q 1681 391 2138 391 
Q 2594 391 2855 752 
Q 3116 1113 3116 1747 
z
" transform="scale(0.015625)"/>
      <path id="DejaVuSans-69" d="M 603 3500 
L 1178 3500 
L 1178 0 
L 603 0 
L 603 3500 
z
M 603 4863 
L 1178 4863 
L 1178 4134 
L 603 4134 
L 603 4863 
z
" transform="scale(0.015625)"/>
      <path id="DejaVuSans-74" d="M 1172 4494 
L 1172 3500 
L 2356 3500 
L 2356 3053 
L 1172 3053 
L 1172 1153 
Q 1172 725 1289 603 
Q 1406 481 1766 481 
L 2356 481 
L 2356 0 
L 1766 0 
Q 1100 0 847 248 
Q 594 497 594 1153 
L 594 3053 
L 172 3053 
L 172 3500 
L 594 3500 
L 594 4494 
L 1172 4494 
z
" transform="scale(0.015625)"/>
      <path id="DejaVuSans-75" d="M 544 1381 
L 544 3500 
L 1119 3500 
L 1119 1403 
Q 1119 906 1312 657 
Q 1506 409 1894 409 
Q 2359 409 2629 706 
Q 2900 1003 2900 1516 
L 2900 3500 
L 3475 3500 
L 3475 0 
L 2900 0 
L 2900 538 
Q 2691 219 2414 64 
Q 2138 -91 1772 -91 
Q 1169 -91 856 284 
Q 544 659 544 1381 
z
M 1991 3584 
L 1991 3584 
z
" transform="scale(0.015625)"/>
      <path id="DejaVuSans-64" d="M 2906 2969 
L 2906 4863 
L 3481 4863 
L 3481 0 
L 2906 0 
L 2906 525 
Q 2725 213 2448 61 
Q 2172 -91 1784 -91 
Q 1150 -91 751 415 
Q 353 922 353 1747 
Q 353 2572 751 3078 
Q 1150 3584 1784 3584 
Q 2172 3584 2448 3432 
Q 2725 3281 2906 2969 
z
M 947 1747 
Q 947 1113 1208 752 
Q 1469 391 1925 391 
Q 2381 391 2643 752 
Q 2906 1113 2906 1747 
Q 2906 2381 2643 2742 
Q 2381 3103 1925 3103 
Q 1469 3103 1208 2742 
Q 947 2381 947 1747 
z
" transform="scale(0.015625)"/>
      <path id="DejaVuSans-28" d="M 1984 4856 
Q 1566 4138 1362 3434 
Q 1159 2731 1159 2009 
Q 1159 1288 1364 580 
Q 1569 -128 1984 -844 
L 1484 -844 
Q 1016 -109 783 600 
Q 550 1309 550 2009 
Q 550 2706 781 3412 
Q 1013 4119 1484 4856 
L 1984 4856 
z
" transform="scale(0.015625)"/>
      <path id="DejaVuSans-3c1" d="M 863 2875 
Q 1053 3194 1525 3475 
Q 1709 3584 2278 3584 
Q 2916 3584 3314 3078 
Q 3713 2572 3713 1747 
Q 3713 922 3314 415 
Q 2916 -91 2278 -91 
Q 1894 -91 1617 61 
Q 1341 213 1159 525 
L 1159 -1331 
L 581 -1331 
L 581 1716 
Q 581 2438 863 2875 
z
M 3116 1747 
Q 3116 2381 2855 2742 
Q 2594 3103 2138 3103 
Q 1681 3103 1420 2742 
Q 1159 2381 1159 1747 
Q 1159 1113 1420 752 
Q 1681 391 2138 391 
Q 2594 391 2855 752 
Q 3116 1113 3116 1747 
z
" transform="scale(0.015625)"/>
      <path id="DejaVuSans-29" d="M 513 4856 
L 1013 4856 
Q 1481 4119 1714 3412 
Q 1947 2706 1947 2009 
Q 1947 1309 1714 600 
Q 1481 -109 1013 -844 
L 513 -844 
Q 928 -128 1133 580 
Q 1338 1288 1338 2009 
Q 1338 2731 1133 3434 
Q 928 4138 513 4856 
z
" transform="scale(0.015625)"/>
     </defs>
     <use xlink:href="#DejaVuSans-52"/>
     <use xlink:href="#DejaVuSans-65" x="64.982422"/>
     <use xlink:href="#DejaVuSans-61" x="126.505859"/>
     <use xlink:href="#DejaVuSans-6c" x="187.785156"/>
     <use xlink:href="#DejaVuSans-20" x="215.568359"/>
     <use xlink:href="#DejaVuSans-41" x="247.355469"/>
     <use xlink:href="#DejaVuSans-6d" x="315.763672"/>
     <use xlink:href="#DejaVuSans-70" x="413.175781"/>
     <use xlink:href="#DejaVuSans-6c" x="476.652344"/>
     <use xlink:href="#DejaVuSans-69" x="504.435547"/>
     <use xlink:href="#DejaVuSans-74" x="532.21875"/>
     <use xlink:href="#DejaVuSans-75" x="571.427734"/>
     <use xlink:href="#DejaVuSans-64" x="634.806641"/>
     <use xlink:href="#DejaVuSans-65" x="698.283203"/>
     <use xlink:href="#DejaVuSans-20" x="759.806641"/>
     <use xlink:href="#DejaVuSans-28" x="791.59375"/>
     <use xlink:href="#DejaVuSans-3c1" x="830.607422"/>
     <use xlink:href="#DejaVuSans-29" x="894.083984"/>
    </g>
   </g>
  </g>
  <g id="patch_6">
   <path d="M 604.8 576 
L 1123.2 576 
L 1123.2 57.6 
L 604.8 57.6 
z
" style="fill: #ffffff"/>
  </g>
  <g id="pane3d_4">
   <g id="patch_7">
    <path d="M 706.07018 436.456468 
L 829.494133 330.550231 
L 827.743197 126.70673 
L 698.643358 223.613571 
" style="fill: #f2f2f2; opacity: 0.5; stroke: #f2f2f2; stroke-linejoin: miter"/>
   </g>
  </g>
  <g id="pane3d_5">
   <g id="patch_8">
    <path d="M 829.494133 330.550231 
L 1031.554898 390.069341 
L 1038.583588 181.103065 
L 827.743197 126.70673 
" style="fill: #e6e6e6; opacity: 0.5; stroke: #e6e6e6; stroke-linejoin: miter"/>
   </g>
  </g>
  <g id="pane3d_6">
   <g id="patch_9">
    <path d="M 706.07018 436.456468 
L 916.912731 504.076731 
L 1031.554898 390.069341 
L 829.494133 330.550231 
" style="fill: #ececec; opacity: 0.5; stroke: #ececec; stroke-linejoin: miter"/>
   </g>
  </g>
  <g id="grid3d_4">
   <g id="Line3DCollection_4">
    <path d="M 734.635886 445.617904 
L 856.925726 338.630493 
L 856.328796 134.081748 
" style="fill: none; stroke: #b0b0b0; stroke-width: 0.8"/>
    <path d="M 784.310046 461.549127 
L 904.58611 352.669358 
L 906.022474 146.902603 
" style="fill: none; stroke: #b0b0b0; stroke-width: 0.8"/>
    <path d="M 834.89502 477.772462 
L 953.066152 366.949661 
L 956.607663 159.953465 
" style="fill: none; stroke: #b0b0b0; stroke-width: 0.8"/>
    <path d="M 886.41609 494.296016 
L 1002.38718 381.477685 
L 1008.108569 173.24058 
" style="fill: none; stroke: #b0b0b0; stroke-width: 0.8"/>
   </g>
  </g>
  <g id="grid3d_5">
   <g id="Line3DCollection_5">
    <path d="M 717.757365 209.265931 
L 724.301379 420.812846 
L 933.880707 487.202708 
" style="fill: none; stroke: #b0b0b0; stroke-width: 0.8"/>
    <path d="M 749.704273 185.285468 
L 754.805664 394.638072 
L 962.24502 458.995448 
" style="fill: none; stroke: #b0b0b0; stroke-width: 0.8"/>
    <path d="M 780.65707 162.051218 
L 784.400054 369.24405 
L 989.731787 431.660877 
" style="fill: none; stroke: #b0b0b0; stroke-width: 0.8"/>
    <path d="M 810.661448 139.528886 
L 813.124663 344.596362 
L 1016.38111 405.159111 
" style="fill: none; stroke: #b0b0b0; stroke-width: 0.8"/>
   </g>
  </g>
  <g id="grid3d_6">
   <g id="Line3DCollection_6">
    <path d="M 1031.568221 389.67325 
L 829.490809 330.163258 
L 706.056119 436.05351 
" style="fill: none; stroke: #b0b0b0; stroke-width: 0.8"/>
    <path d="M 1032.45648 363.264864 
L 829.269237 304.367893 
L 705.118522 409.183196 
" style="fill: none; stroke: #b0b0b0; stroke-width: 0.8"/>
    <path d="M 1033.354623 336.562662 
L 829.045287 278.295699 
L 704.170204 382.005666 
" style="fill: none; stroke: #b0b0b0; stroke-width: 0.8"/>
    <path d="M 1034.262814 309.561712 
L 828.81892 251.942197 
L 703.210982 354.51562 
" style="fill: none; stroke: #b0b0b0; stroke-width: 0.8"/>
    <path d="M 1035.181223 282.256973 
L 828.590099 225.302809 
L 702.240665 326.707637 
" style="fill: none; stroke: #b0b0b0; stroke-width: 0.8"/>
    <path d="M 1036.110024 254.643289 
L 828.358781 198.372858 
L 701.259061 298.576169 
" style="fill: none; stroke: #b0b0b0; stroke-width: 0.8"/>
    <path d="M 1037.049393 226.715386 
L 828.124926 171.147564 
L 700.265972 270.115539 
" style="fill: none; stroke: #b0b0b0; stroke-width: 0.8"/>
    <path d="M 1037.999513 198.467872 
L 827.888493 143.622042 
L 699.261194 241.319935 
" style="fill: none; stroke: #b0b0b0; stroke-width: 0.8"/>
   </g>
  </g>
  <g id="axis3d_4">
   <g id="line2d_19">
    <path d="M 706.07018 436.456468 
L 916.912731 504.076731 
" style="fill: none; stroke: #000000; stroke-width: 0.8; stroke-linecap: square"/>
   </g>
   <g id="xtick_16">
    <g id="line2d_20">
     <path d="M 735.677227 444.706868 
L 732.549953 447.442819 
" style="fill: none; stroke: #000000; stroke-width: 0.8; stroke-linecap: square"/>
    </g>
    <g id="text_17">
     <!-- 00 -->
     <g transform="translate(707.351686 489.365693) rotate(-45) scale(0.21 -0.21)">
      <use xlink:href="#DejaVuSans-30"/>
      <use xlink:href="#DejaVuSans-30" x="63.623047"/>
     </g>
    </g>
   </g>
   <g id="xtick_17">
    <g id="line2d_21">
     <path d="M 785.334802 460.621468 
L 782.257306 463.407368 
" style="fill: none; stroke: #000000; stroke-width: 0.8; stroke-linecap: square"/>
    </g>
    <g id="text_18">
     <!-- 01 -->
     <g transform="translate(757.023931 505.435143) rotate(-45) scale(0.21 -0.21)">
      <use xlink:href="#DejaVuSans-30"/>
      <use xlink:href="#DejaVuSans-31" x="63.623047"/>
     </g>
    </g>
   </g>
   <g id="xtick_18">
    <g id="line2d_22">
     <path d="M 835.902405 476.82772 
L 832.877048 479.664949 
" style="fill: none; stroke: #000000; stroke-width: 0.8; stroke-linecap: square"/>
    </g>
    <g id="text_19">
     <!-- 10 -->
     <g transform="translate(807.60781 521.799516) rotate(-45) scale(0.21 -0.21)">
      <use xlink:href="#DejaVuSans-31"/>
      <use xlink:href="#DejaVuSans-30" x="63.623047"/>
     </g>
    </g>
   </g>
   <g id="xtick_19">
    <g id="line2d_23">
     <path d="M 887.405283 493.333715 
L 884.434531 496.223705 
" style="fill: none; stroke: #000000; stroke-width: 0.8; stroke-linecap: square"/>
    </g>
    <g id="text_20">
     <!-- 11 -->
     <g transform="translate(859.128654 538.467006) rotate(-45) scale(0.21 -0.21)">
      <use xlink:href="#DejaVuSans-31"/>
      <use xlink:href="#DejaVuSans-31" x="63.623047"/>
     </g>
    </g>
   </g>
  </g>
  <g id="axis3d_5">
   <g id="line2d_24">
    <path d="M 1031.554898 390.069341 
L 916.912731 504.076731 
" style="fill: none; stroke: #000000; stroke-width: 0.8; stroke-linecap: square"/>
   </g>
   <g id="xtick_20">
    <g id="line2d_25">
     <path d="M 932.140222 486.651363 
L 937.364886 488.306415 
" style="fill: none; stroke: #000000; stroke-width: 0.8; stroke-linecap: square"/>
    </g>
    <g id="text_21">
     <!-- 00 -->
     <g transform="translate(944.70027 499.207917) rotate(-337.5) scale(0.21 -0.21)">
      <use xlink:href="#DejaVuSans-30"/>
      <use xlink:href="#DejaVuSans-30" x="63.623047"/>
     </g>
    </g>
   </g>
   <g id="xtick_21">
    <g id="line2d_26">
     <path d="M 960.5233 458.46129 
L 965.691587 460.064734 
" style="fill: none; stroke: #000000; stroke-width: 0.8; stroke-linecap: square"/>
    </g>
    <g id="text_22">
     <!-- 01 -->
     <g transform="translate(972.913817 470.822876) rotate(-337.5) scale(0.21 -0.21)">
      <use xlink:href="#DejaVuSans-30"/>
      <use xlink:href="#DejaVuSans-31" x="63.623047"/>
     </g>
    </g>
   </g>
   <g id="xtick_22">
    <g id="line2d_27">
     <path d="M 988.028511 431.143114 
L 993.141381 432.697327 
" style="fill: none; stroke: #000000; stroke-width: 0.8; stroke-linecap: square"/>
    </g>
    <g id="text_23">
     <!-- 10 -->
     <g transform="translate(1000.254695 443.315808) rotate(-337.5) scale(0.21 -0.21)">
      <use xlink:href="#DejaVuSans-31"/>
      <use xlink:href="#DejaVuSans-30" x="63.623047"/>
     </g>
    </g>
   </g>
   <g id="xtick_23">
    <g id="line2d_28">
     <path d="M 1014.695964 404.657001 
L 1019.754368 406.164215 
" style="fill: none; stroke: #000000; stroke-width: 0.8; stroke-linecap: square"/>
    </g>
    <g id="text_24">
     <!-- 11 -->
     <g transform="translate(1026.762776 416.646599) rotate(-337.5) scale(0.21 -0.21)">
      <use xlink:href="#DejaVuSans-31"/>
      <use xlink:href="#DejaVuSans-31" x="63.623047"/>
     </g>
    </g>
   </g>
  </g>
  <g id="axis3d_6">
   <g id="line2d_29">
    <path d="M 1031.554898 390.069341 
L 1038.583588 181.103065 
" style="fill: none; stroke: #000000; stroke-width: 0.8; stroke-linecap: square"/>
   </g>
   <g id="xtick_24">
    <g id="line2d_30">
     <path d="M 1029.893362 389.180019 
L 1034.92086 390.660572 
" style="fill: none; stroke: #000000; stroke-width: 0.8; stroke-linecap: square"/>
    </g>
    <g id="text_25">
     <!-- −0.3 -->
     <g transform="translate(1045.048662 383.385159) scale(0.21 -0.21)">
      <use xlink:href="#DejaVuSans-2212"/>
      <use xlink:href="#DejaVuSans-30" x="83.789062"/>
      <use xlink:href="#DejaVuSans-2e" x="147.412109"/>
      <use xlink:href="#DejaVuSans-33" x="179.199219"/>
     </g>
    </g>
   </g>
   <g id="xtick_25">
    <g id="line2d_31">
     <path d="M 1030.772099 362.77662 
L 1035.828198 364.242208 
" style="fill: none; stroke: #000000; stroke-width: 0.8; stroke-linecap: square"/>
    </g>
    <g id="text_26">
     <!-- −0.2 -->
     <g transform="translate(1046.010403 356.996202) scale(0.21 -0.21)">
      <use xlink:href="#DejaVuSans-2212"/>
      <use xlink:href="#DejaVuSans-30" x="83.789062"/>
      <use xlink:href="#DejaVuSans-2e" x="147.412109"/>
      <use xlink:href="#DejaVuSans-32" x="179.199219"/>
     </g>
    </g>
   </g>
   <g id="xtick_26">
    <g id="line2d_32">
     <path d="M 1031.660611 336.079546 
L 1036.745636 337.529744 
" style="fill: none; stroke: #000000; stroke-width: 0.8; stroke-linecap: square"/>
    </g>
    <g id="text_27">
     <!-- −0.1 -->
     <g transform="translate(1046.982831 330.313981) scale(0.21 -0.21)">
      <use xlink:href="#DejaVuSans-2212"/>
      <use xlink:href="#DejaVuSans-30" x="83.789062"/>
      <use xlink:href="#DejaVuSans-2e" x="147.412109"/>
      <use xlink:href="#DejaVuSans-31" x="179.199219"/>
     </g>
    </g>
   </g>
   <g id="xtick_27">
    <g id="line2d_33">
     <path d="M 1032.55906 309.083871 
L 1037.673345 310.518241 
" style="fill: none; stroke: #000000; stroke-width: 0.8; stroke-linecap: square"/>
    </g>
    <g id="text_28">
     <!-- 0.0 -->
     <g transform="translate(1047.966127 303.33358) scale(0.21 -0.21)">
      <use xlink:href="#DejaVuSans-30"/>
      <use xlink:href="#DejaVuSans-2e" x="63.623047"/>
      <use xlink:href="#DejaVuSans-30" x="95.410156"/>
     </g>
    </g>
   </g>
   <g id="xtick_28">
    <g id="line2d_34">
     <path d="M 1033.467615 281.784556 
L 1038.611497 283.20265 
" style="fill: none; stroke: #000000; stroke-width: 0.8; stroke-linecap: square"/>
    </g>
    <g id="text_29">
     <!-- 0.1 -->
     <g transform="translate(1048.960473 276.049971) scale(0.21 -0.21)">
      <use xlink:href="#DejaVuSans-30"/>
      <use xlink:href="#DejaVuSans-2e" x="63.623047"/>
      <use xlink:href="#DejaVuSans-31" x="95.410156"/>
     </g>
    </g>
   </g>
   <g id="xtick_29">
    <g id="line2d_35">
     <path d="M 1034.386446 254.176449 
L 1039.560271 255.577805 
" style="fill: none; stroke: #000000; stroke-width: 0.8; stroke-linecap: square"/>
    </g>
    <g id="text_30">
     <!-- 0.2 -->
     <g transform="translate(1049.966056 248.458016) scale(0.21 -0.21)">
      <use xlink:href="#DejaVuSans-30"/>
      <use xlink:href="#DejaVuSans-2e" x="63.623047"/>
      <use xlink:href="#DejaVuSans-32" x="95.410156"/>
     </g>
    </g>
   </g>
   <g id="xtick_30">
    <g id="line2d_36">
     <path d="M 1035.31573 226.254282 
L 1040.519848 227.638426 
" style="fill: none; stroke: #000000; stroke-width: 0.8; stroke-linecap: square"/>
    </g>
    <g id="text_31">
     <!-- 0.3 -->
     <g transform="translate(1050.983069 220.552456) scale(0.21 -0.21)">
      <use xlink:href="#DejaVuSans-30"/>
      <use xlink:href="#DejaVuSans-2e" x="63.623047"/>
      <use xlink:href="#DejaVuSans-33" x="95.410156"/>
     </g>
    </g>
   </g>
   <g id="xtick_31">
    <g id="line2d_37">
     <path d="M 1036.255646 198.012665 
L 1041.490413 199.37911 
" style="fill: none; stroke: #000000; stroke-width: 0.8; stroke-linecap: square"/>
    </g>
    <g id="text_32">
     <!-- 0.4 -->
     <g transform="translate(1052.011707 192.327916) scale(0.21 -0.21)">
      <use xlink:href="#DejaVuSans-30"/>
      <use xlink:href="#DejaVuSans-2e" x="63.623047"/>
      <use xlink:href="#DejaVuSans-34" x="95.410156"/>
     </g>
    </g>
   </g>
  </g>
  <g id="axes_2">
   <g id="Poly3DCollection_4">
    <path d="M 835.290707 264.182459 
L 835.46756 288.442004 
L 859.441832 295.315021 
L 859.384037 270.984865 
z
" clip-path="url(#p8c45dc8ee5)" style="fill: #648fff"/>
    <path d="M 821.227804 300.384054 
L 845.320424 307.360504 
L 859.441832 295.315021 
L 835.46756 288.442004 
z
" clip-path="url(#p8c45dc8ee5)" style="fill: #577ddf"/>
    <path d="M 820.978225 276.002008 
L 821.227804 300.384054 
L 835.46756 288.442004 
L 835.290707 264.182459 
z
" clip-path="url(#p8c45dc8ee5)" style="fill: #324880"/>
    <path d="M 845.19108 282.907301 
L 859.384037 270.984865 
L 859.441832 295.315021 
L 845.320424 307.360504 
z
" clip-path="url(#p8c45dc8ee5)" style="fill: #648fff"/>
    <path d="M 820.978225 276.002008 
L 835.290707 264.182459 
L 859.384037 270.984865 
L 845.19108 282.907301 
z
" clip-path="url(#p8c45dc8ee5)" style="fill: #3f599f"/>
    <path d="M 820.978225 276.002008 
L 845.19108 282.907301 
L 845.320424 307.360504 
L 821.227804 300.384054 
z
" clip-path="url(#p8c45dc8ee5)" style="fill: #324880"/>
    <path d="M 841.326371 395.148648 
L 865.804936 402.627416 
L 879.944894 389.715135 
L 855.588941 382.348599 
z
" clip-path="url(#p8c45dc8ee5)" style="fill: #577ddf"/>
    <path d="M 855.33012 302.083538 
L 855.588941 382.348599 
L 879.944894 389.715135 
L 880.09564 309.218609 
z
" clip-path="url(#p8c45dc8ee5)" style="fill: #648fff"/>
    <path d="M 840.824265 314.482065 
L 841.326371 395.148648 
L 855.588941 382.348599 
L 855.33012 302.083538 
z
" clip-path="url(#p8c45dc8ee5)" style="fill: #324880"/>
    <path d="M 932.931396 291.749905 
L 932.931396 291.749905 
L 957.878938 298.793485 
L 957.878938 298.793485 
z
" clip-path="url(#p8c45dc8ee5)" style="fill: #648fff"/>
    <path d="M 919.113046 303.989192 
L 919.113046 303.989192 
L 932.931396 291.749905 
L 932.931396 291.749905 
z
" clip-path="url(#p8c45dc8ee5)" style="fill: #324880"/>
    <path d="M 919.113046 303.989192 
L 944.19099 311.141201 
L 957.878938 298.793485 
L 932.931396 291.749905 
z
" clip-path="url(#p8c45dc8ee5)" style="fill: #577ddf"/>
    <path d="M 919.113046 303.989192 
L 932.931396 291.749905 
L 957.878938 298.793485 
L 944.19099 311.141201 
z
" clip-path="url(#p8c45dc8ee5)" style="fill: #3f599f"/>
    <path d="M 865.716562 321.727692 
L 880.09564 309.218609 
L 879.944894 389.715135 
L 865.804936 402.627416 
z
" clip-path="url(#p8c45dc8ee5)" style="fill: #648fff"/>
    <path d="M 840.824265 314.482065 
L 865.716562 321.727692 
L 865.804936 402.627416 
L 841.326371 395.148648 
z
" clip-path="url(#p8c45dc8ee5)" style="fill: #324880"/>
    <path d="M 944.19099 311.141201 
L 957.878938 298.793485 
L 957.878938 298.793485 
L 944.19099 311.141201 
z
" clip-path="url(#p8c45dc8ee5)" style="fill: #648fff"/>
    <path d="M 919.113046 303.989192 
L 944.19099 311.141201 
L 944.19099 311.141201 
L 919.113046 303.989192 
z
" clip-path="url(#p8c45dc8ee5)" style="fill: #324880"/>
    <path d="M 983.047131 305.899363 
L 983.047131 305.899363 
L 1008.438915 313.068369 
L 1008.438915 313.068369 
z
" clip-path="url(#p8c45dc8ee5)" style="fill: #648fff"/>
    <path d="M 840.824265 314.482065 
L 855.33012 302.083538 
L 880.09564 309.218609 
L 865.716562 321.727692 
z
" clip-path="url(#p8c45dc8ee5)" style="fill: #3f599f"/>
    <path d="M 969.492451 318.356954 
L 969.492451 318.356954 
L 983.047131 305.899363 
L 983.047131 305.899363 
z
" clip-path="url(#p8c45dc8ee5)" style="fill: #324880"/>
    <path d="M 969.492451 318.356954 
L 983.047131 305.899363 
L 1008.438915 313.068369 
L 995.020431 325.637308 
z
" clip-path="url(#p8c45dc8ee5)" style="fill: #3f599f"/>
    <path d="M 969.492451 318.356954 
L 995.020431 325.637308 
L 1008.438915 313.068369 
L 983.047131 305.899363 
z
" clip-path="url(#p8c45dc8ee5)" style="fill: #577ddf"/>
    <path d="M 995.020431 325.637308 
L 1008.438915 313.068369 
L 1008.438915 313.068369 
L 995.020431 325.637308 
z
" clip-path="url(#p8c45dc8ee5)" style="fill: #648fff"/>
    <path d="M 969.492451 318.356954 
L 995.020431 325.637308 
L 995.020431 325.637308 
L 969.492451 318.356954 
z
" clip-path="url(#p8c45dc8ee5)" style="fill: #324880"/>
    <path d="M 781.582906 423.663985 
L 806.69031 431.547798 
L 821.809055 417.937787 
L 796.829216 410.176578 
z
" clip-path="url(#p8c45dc8ee5)" style="fill: #577ddf"/>
    <path d="M 795.934593 352.850419 
L 796.829216 410.176578 
L 821.809055 417.937787 
L 821.212996 360.443581 
z
" clip-path="url(#p8c45dc8ee5)" style="fill: #648fff"/>
    <path d="M 780.495832 366.046325 
L 781.582906 423.663985 
L 796.829216 410.176578 
L 795.934593 352.850419 
z
" clip-path="url(#p8c45dc8ee5)" style="fill: #324880"/>
    <path d="M 832.107055 449.160836 
L 857.624788 457.217657 
L 872.448965 443.309304 
L 847.064246 435.378657 
z
" clip-path="url(#p8c45dc8ee5)" style="fill: #577ddf"/>
    <path d="M 927.543145 356.910967 
L 927.179526 387.822804 
L 952.953902 395.544679 
L 953.486791 364.541387 
z
" clip-path="url(#p8c45dc8ee5)" style="fill: #648fff"/>
    <path d="M 912.841593 401.242216 
L 938.755055 409.087064 
L 952.953902 395.544679 
L 927.179526 387.822804 
z
" clip-path="url(#p8c45dc8ee5)" style="fill: #577ddf"/>
    <path d="M 805.904854 373.760903 
L 821.212996 360.443581 
L 821.809055 417.937787 
L 806.69031 431.547798 
z
" clip-path="url(#p8c45dc8ee5)" style="fill: #648fff"/>
    <path d="M 913.114558 370.171732 
L 912.841593 401.242216 
L 927.179526 387.822804 
L 927.543145 356.910967 
z
" clip-path="url(#p8c45dc8ee5)" style="fill: #324880"/>
    <path d="M 780.495832 366.046325 
L 805.904854 373.760903 
L 806.69031 431.547798 
L 781.582906 423.663985 
z
" clip-path="url(#p8c45dc8ee5)" style="fill: #324880"/>
    <path d="M 846.723593 368.10649 
L 847.064246 435.378657 
L 872.448965 443.309304 
L 872.4696 375.840111 
z
" clip-path="url(#p8c45dc8ee5)" style="fill: #648fff"/>
    <path d="M 831.549142 381.546912 
L 832.107055 449.160836 
L 847.064246 435.378657 
L 846.723593 368.10649 
z
" clip-path="url(#p8c45dc8ee5)" style="fill: #324880"/>
    <path d="M 780.495832 366.046325 
L 795.934593 352.850419 
L 821.212996 360.443581 
L 805.904854 373.760903 
z
" clip-path="url(#p8c45dc8ee5)" style="fill: #3f599f"/>
    <path d="M 939.199137 377.924467 
L 953.486791 364.541387 
L 952.953902 395.544679 
L 938.755055 409.087064 
z
" clip-path="url(#p8c45dc8ee5)" style="fill: #648fff"/>
    <path d="M 913.114558 370.171732 
L 927.543145 356.910967 
L 953.486791 364.541387 
L 939.199137 377.924467 
z
" clip-path="url(#p8c45dc8ee5)" style="fill: #3f599f"/>
    <path d="M 913.114558 370.171732 
L 939.199137 377.924467 
L 938.755055 409.087064 
L 912.841593 401.242216 
z
" clip-path="url(#p8c45dc8ee5)" style="fill: #324880"/>
    <path d="M 857.431979 389.405348 
L 872.4696 375.840111 
L 872.448965 443.309304 
L 857.624788 457.217657 
z
" clip-path="url(#p8c45dc8ee5)" style="fill: #648fff"/>
    <path d="M 831.549142 381.546912 
L 857.431979 389.405348 
L 857.624788 457.217657 
L 832.107055 449.160836 
z
" clip-path="url(#p8c45dc8ee5)" style="fill: #324880"/>
    <path d="M 831.549142 381.546912 
L 846.723593 368.10649 
L 872.4696 375.840111 
L 857.431979 389.405348 
z
" clip-path="url(#p8c45dc8ee5)" style="fill: #3f599f"/>
   </g>
   <g id="Poly3DCollection_5">
    <path d="M 710.01224 353.59207 
L 915.774041 416.402738 
L 1027.817319 310.436953 
L 830.427401 254.98436 
z
" clip-path="url(#p8c45dc8ee5)" style="fill-opacity: 0.25"/>
   </g>
   <g id="Poly3DCollection_6">
    <path d="M 883.68676 277.84639 
L 883.765434 247.537535 
L 908.433392 254.368976 
L 908.201617 284.767807 
z
" clip-path="url(#p8c45dc8ee5)" style="fill: #324880"/>
    <path d="M 869.615963 289.873061 
L 883.68676 277.84639 
L 908.201617 284.767807 
L 894.255669 296.900088 
z
" clip-path="url(#p8c45dc8ee5)" style="fill: #3f599f"/>
    <path d="M 869.615963 289.873061 
L 869.607277 259.408101 
L 883.765434 247.537535 
L 883.68676 277.84639 
z
" clip-path="url(#p8c45dc8ee5)" style="fill: #648fff"/>
    <path d="M 894.255669 296.900088 
L 908.201617 284.767807 
L 908.433392 254.368976 
L 894.401656 266.344435 
z
" clip-path="url(#p8c45dc8ee5)" style="fill: #324880"/>
    <path d="M 869.607277 259.408101 
L 894.401656 266.344435 
L 908.433392 254.368976 
L 883.765434 247.537535 
z
" clip-path="url(#p8c45dc8ee5)" style="fill: #577ddf"/>
    <path d="M 791.697819 300.182383 
L 806.448917 288.000616 
L 830.782164 295.011147 
L 816.152322 307.300578 
z
" clip-path="url(#p8c45dc8ee5)" style="fill: #3f599f"/>
    <path d="M 869.615963 289.873061 
L 894.255669 296.900088 
L 894.401656 266.344435 
L 869.607277 259.408101 
z
" clip-path="url(#p8c45dc8ee5)" style="fill: #648fff"/>
    <path d="M 806.448917 288.000616 
L 805.562245 221.039486 
L 830.227245 227.848552 
L 830.782164 295.011147 
z
" clip-path="url(#p8c45dc8ee5)" style="fill: #324880"/>
    <path d="M 791.697819 300.182383 
L 790.600114 232.871706 
L 805.562245 221.039486 
L 806.448917 288.000616 
z
" clip-path="url(#p8c45dc8ee5)" style="fill: #648fff"/>
    <path d="M 816.152322 307.300578 
L 830.782164 295.011147 
L 830.227245 227.848552 
L 815.389687 239.786798 
z
" clip-path="url(#p8c45dc8ee5)" style="fill: #324880"/>
    <path d="M 791.697819 300.182383 
L 816.152322 307.300578 
L 815.389687 239.786798 
L 790.600114 232.871706 
z
" clip-path="url(#p8c45dc8ee5)" style="fill: #648fff"/>
    <path d="M 790.600114 232.871706 
L 815.389687 239.786798 
L 830.227245 227.848552 
L 805.562245 221.039486 
z
" clip-path="url(#p8c45dc8ee5)" style="fill: #577ddf"/>
    <path d="M 905.081629 316.417198 
L 905.081629 316.417198 
L 930.291043 323.680158 
L 930.291043 323.680158 
z
" clip-path="url(#p8c45dc8ee5)" style="fill: #324880"/>
    <path d="M 761.509623 325.112431 
L 776.719813 312.551536 
L 801.296433 319.779893 
L 786.209217 332.453527 
z
" clip-path="url(#p8c45dc8ee5)" style="fill: #3f599f"/>
    <path d="M 890.832178 329.038323 
L 890.832178 329.038323 
L 905.081629 316.417198 
L 905.081629 316.417198 
z
" clip-path="url(#p8c45dc8ee5)" style="fill: #324880"/>
    <path d="M 776.719813 312.551536 
L 775.597033 254.787671 
L 800.462572 261.841766 
L 801.296433 319.779893 
z
" clip-path="url(#p8c45dc8ee5)" style="fill: #324880"/>
    <path d="M 890.832178 329.038323 
L 905.081629 316.417198 
L 930.291043 323.680158 
L 916.174132 336.414836 
z
" clip-path="url(#p8c45dc8ee5)" style="fill: #3f599f"/>
    <path d="M 890.832178 329.038323 
L 916.174132 336.414836 
L 930.291043 323.680158 
L 905.081629 316.417198 
z
" clip-path="url(#p8c45dc8ee5)" style="fill: #577ddf"/>
    <path d="M 761.509623 325.112431 
L 760.195488 267.046227 
L 775.597033 254.787671 
L 776.719813 312.551536 
z
" clip-path="url(#p8c45dc8ee5)" style="fill: #648fff"/>
    <path d="M 916.174132 336.414836 
L 930.291043 323.680158 
L 930.291043 323.680158 
L 916.174132 336.414836 
z
" clip-path="url(#p8c45dc8ee5)" style="fill: #324880"/>
    <path d="M 826.093275 327.07302 
L 826.093275 327.07302 
L 851.113312 334.431793 
L 851.113312 334.431793 
z
" clip-path="url(#p8c45dc8ee5)" style="fill: #324880"/>
    <path d="M 890.832178 329.038323 
L 916.174132 336.414836 
L 916.174132 336.414836 
L 890.832178 329.038323 
z
" clip-path="url(#p8c45dc8ee5)" style="fill: #324880"/>
    <path d="M 811.131867 339.860919 
L 811.131867 339.860919 
L 826.093275 327.07302 
L 826.093275 327.07302 
z
" clip-path="url(#p8c45dc8ee5)" style="fill: #648fff"/>
    <path d="M 955.726893 331.008355 
L 955.726893 331.008355 
L 981.392244 338.402672 
L 981.392244 338.402672 
z
" clip-path="url(#p8c45dc8ee5)" style="fill: #324880"/>
    <path d="M 786.209217 332.453527 
L 801.296433 319.779893 
L 800.462572 261.841766 
L 785.18689 274.211672 
z
" clip-path="url(#p8c45dc8ee5)" style="fill: #324880"/>
    <path d="M 811.131867 339.860919 
L 826.093275 327.07302 
L 851.113312 334.431793 
L 836.280607 347.335509 
z
" clip-path="url(#p8c45dc8ee5)" style="fill: #3f599f"/>
    <path d="M 811.131867 339.860919 
L 836.280607 347.335509 
L 851.113312 334.431793 
L 826.093275 327.07302 
z
" clip-path="url(#p8c45dc8ee5)" style="fill: #577ddf"/>
    <path d="M 941.745496 343.858125 
L 941.745496 343.858125 
L 955.726893 331.008355 
L 955.726893 331.008355 
z
" clip-path="url(#p8c45dc8ee5)" style="fill: #648fff"/>
    <path d="M 761.509623 325.112431 
L 786.209217 332.453527 
L 785.18689 274.211672 
L 760.195488 267.046227 
z
" clip-path="url(#p8c45dc8ee5)" style="fill: #648fff"/>
    <path d="M 836.280607 347.335509 
L 851.113312 334.431793 
L 851.113312 334.431793 
L 836.280607 347.335509 
z
" clip-path="url(#p8c45dc8ee5)" style="fill: #324880"/>
    <path d="M 941.745496 343.858125 
L 955.726893 331.008355 
L 981.392244 338.402672 
L 967.549402 351.369103 
z
" clip-path="url(#p8c45dc8ee5)" style="fill: #3f599f"/>
    <path d="M 941.745496 343.858125 
L 967.549402 351.369103 
L 981.392244 338.402672 
L 955.726893 331.008355 
z
" clip-path="url(#p8c45dc8ee5)" style="fill: #577ddf"/>
    <path d="M 746.061807 337.869562 
L 746.061807 337.869562 
L 770.88523 345.326056 
L 770.88523 345.326056 
z
" clip-path="url(#p8c45dc8ee5)" style="fill: #324880"/>
    <path d="M 760.195488 267.046227 
L 785.18689 274.211672 
L 800.462572 261.841766 
L 775.597033 254.787671 
z
" clip-path="url(#p8c45dc8ee5)" style="fill: #577ddf"/>
    <path d="M 811.131867 339.860919 
L 836.280607 347.335509 
L 836.280607 347.335509 
L 811.131867 339.860919 
z
" clip-path="url(#p8c45dc8ee5)" style="fill: #648fff"/>
    <path d="M 730.370755 350.827563 
L 730.370755 350.827563 
L 746.061807 337.869562 
L 746.061807 337.869562 
z
" clip-path="url(#p8c45dc8ee5)" style="fill: #648fff"/>
    <path d="M 967.549402 351.369103 
L 981.392244 338.402672 
L 981.392244 338.402672 
L 967.549402 351.369103 
z
" clip-path="url(#p8c45dc8ee5)" style="fill: #324880"/>
    <path d="M 941.745496 343.858125 
L 967.549402 351.369103 
L 967.549402 351.369103 
L 941.745496 343.858125 
z
" clip-path="url(#p8c45dc8ee5)" style="fill: #648fff"/>
    <path d="M 730.370755 350.827563 
L 755.318854 358.402198 
L 770.88523 345.326056 
L 746.061807 337.869562 
z
" clip-path="url(#p8c45dc8ee5)" style="fill: #577ddf"/>
    <path d="M 730.370755 350.827563 
L 746.061807 337.869562 
L 770.88523 345.326056 
L 755.318854 358.402198 
z
" clip-path="url(#p8c45dc8ee5)" style="fill: #3f599f"/>
    <path d="M 755.318854 358.402198 
L 770.88523 345.326056 
L 770.88523 345.326056 
L 755.318854 358.402198 
z
" clip-path="url(#p8c45dc8ee5)" style="fill: #324880"/>
    <path d="M 861.658528 354.878214 
L 876.359572 341.857101 
L 901.835137 349.349852 
L 887.268777 362.489971 
z
" clip-path="url(#p8c45dc8ee5)" style="fill: #3f599f"/>
    <path d="M 730.370755 350.827563 
L 755.318854 358.402198 
L 755.318854 358.402198 
L 730.370755 350.827563 
z
" clip-path="url(#p8c45dc8ee5)" style="fill: #648fff"/>
    <path d="M 876.359572 341.857101 
L 876.453294 257.46083 
L 902.377287 264.695329 
L 901.835137 349.349852 
z
" clip-path="url(#p8c45dc8ee5)" style="fill: #324880"/>
    <path d="M 861.658528 354.878214 
L 861.493602 270.033884 
L 876.453294 257.46083 
L 876.359572 341.857101 
z
" clip-path="url(#p8c45dc8ee5)" style="fill: #648fff"/>
    <path d="M 887.268777 362.489971 
L 901.835137 349.349852 
L 902.377287 264.695329 
L 887.557081 277.385328 
z
" clip-path="url(#p8c45dc8ee5)" style="fill: #324880"/>
    <path d="M 861.658528 354.878214 
L 887.268777 362.489971 
L 887.557081 277.385328 
L 861.493602 270.033884 
z
" clip-path="url(#p8c45dc8ee5)" style="fill: #648fff"/>
    <path d="M 861.493602 270.033884 
L 887.557081 277.385328 
L 902.377287 264.695329 
L 876.453294 257.46083 
z
" clip-path="url(#p8c45dc8ee5)" style="fill: #577ddf"/>
    <path d="M 898.454288 383.645428 
L 898.602058 357.91455 
L 924.971307 365.714699 
L 924.680994 391.523443 
z
" clip-path="url(#p8c45dc8ee5)" style="fill: #324880"/>
    <path d="M 883.55671 397.337227 
L 898.454288 383.645428 
L 924.680994 391.523443 
L 909.92674 405.343582 
z
" clip-path="url(#p8c45dc8ee5)" style="fill: #3f599f"/>
    <path d="M 883.55671 397.337227 
L 883.624829 371.471271 
L 898.602058 357.91455 
L 898.454288 383.645428 
z
" clip-path="url(#p8c45dc8ee5)" style="fill: #648fff"/>
    <path d="M 909.92674 405.343582 
L 924.680994 391.523443 
L 924.971307 365.714699 
L 910.138973 379.399187 
z
" clip-path="url(#p8c45dc8ee5)" style="fill: #324880"/>
    <path d="M 883.624829 371.471271 
L 910.138973 379.399187 
L 924.971307 365.714699 
L 898.602058 357.91455 
z
" clip-path="url(#p8c45dc8ee5)" style="fill: #577ddf"/>
    <path d="M 883.55671 397.337227 
L 909.92674 405.343582 
L 910.138973 379.399187 
L 883.624829 371.471271 
z
" clip-path="url(#p8c45dc8ee5)" style="fill: #648fff"/>
   </g>
   <g id="text_33">
    <!-- Imaginary Amplitude (ρ) -->
    <g transform="translate(735.696563 51.6) scale(0.21 -0.21)">
     <defs>
      <path id="DejaVuSans-49" d="M 628 4666 
L 1259 4666 
L 1259 0 
L 628 0 
L 628 4666 
z
" transform="scale(0.015625)"/>
      <path id="DejaVuSans-67" d="M 2906 1791 
Q 2906 2416 2648 2759 
Q 2391 3103 1925 3103 
Q 1463 3103 1205 2759 
Q 947 2416 947 1791 
Q 947 1169 1205 825 
Q 1463 481 1925 481 
Q 2391 481 2648 825 
Q 2906 1169 2906 1791 
z
M 3481 434 
Q 3481 -459 3084 -895 
Q 2688 -1331 1869 -1331 
Q 1566 -1331 1297 -1286 
Q 1028 -1241 775 -1147 
L 775 -588 
Q 1028 -725 1275 -790 
Q 1522 -856 1778 -856 
Q 2344 -856 2625 -561 
Q 2906 -266 2906 331 
L 2906 616 
Q 2728 306 2450 153 
Q 2172 0 1784 0 
Q 1141 0 747 490 
Q 353 981 353 1791 
Q 353 2603 747 3093 
Q 1141 3584 1784 3584 
Q 2172 3584 2450 3431 
Q 2728 3278 2906 2969 
L 2906 3500 
L 3481 3500 
L 3481 434 
z
" transform="scale(0.015625)"/>
      <path id="DejaVuSans-6e" d="M 3513 2113 
L 3513 0 
L 2938 0 
L 2938 2094 
Q 2938 2591 2744 2837 
Q 2550 3084 2163 3084 
Q 1697 3084 1428 2787 
Q 1159 2491 1159 1978 
L 1159 0 
L 581 0 
L 581 3500 
L 1159 3500 
L 1159 2956 
Q 1366 3272 1645 3428 
Q 1925 3584 2291 3584 
Q 2894 3584 3203 3211 
Q 3513 2838 3513 2113 
z
" transform="scale(0.015625)"/>
      <path id="DejaVuSans-72" d="M 2631 2963 
Q 2534 3019 2420 3045 
Q 2306 3072 2169 3072 
Q 1681 3072 1420 2755 
Q 1159 2438 1159 1844 
L 1159 0 
L 581 0 
L 581 3500 
L 1159 3500 
L 1159 2956 
Q 1341 3275 1631 3429 
Q 1922 3584 2338 3584 
Q 2397 3584 2469 3576 
Q 2541 3569 2628 3553 
L 2631 2963 
z
" transform="scale(0.015625)"/>
      <path id="DejaVuSans-79" d="M 2059 -325 
Q 1816 -950 1584 -1140 
Q 1353 -1331 966 -1331 
L 506 -1331 
L 506 -850 
L 844 -850 
Q 1081 -850 1212 -737 
Q 1344 -625 1503 -206 
L 1606 56 
L 191 3500 
L 800 3500 
L 1894 763 
L 2988 3500 
L 3597 3500 
L 2059 -325 
z
" transform="scale(0.015625)"/>
     </defs>
     <use xlink:href="#DejaVuSans-49"/>
     <use xlink:href="#DejaVuSans-6d" x="29.492188"/>
     <use xlink:href="#DejaVuSans-61" x="126.904297"/>
     <use xlink:href="#DejaVuSans-67" x="188.183594"/>
     <use xlink:href="#DejaVuSans-69" x="251.660156"/>
     <use xlink:href="#DejaVuSans-6e" x="279.443359"/>
     <use xlink:href="#DejaVuSans-61" x="342.822266"/>
     <use xlink:href="#DejaVuSans-72" x="404.101562"/>
     <use xlink:href="#DejaVuSans-79" x="445.214844"/>
     <use xlink:href="#DejaVuSans-20" x="504.394531"/>
     <use xlink:href="#DejaVuSans-41" x="536.181641"/>
     <use xlink:href="#DejaVuSans-6d" x="604.589844"/>
     <use xlink:href="#DejaVuSans-70" x="702.001953"/>
     <use xlink:href="#DejaVuSans-6c" x="765.478516"/>
     <use xlink:href="#DejaVuSans-69" x="793.261719"/>
     <use xlink:href="#DejaVuSans-74" x="821.044922"/>
     <use xlink:href="#DejaVuSans-75" x="860.253906"/>
     <use xlink:href="#DejaVuSans-64" x="923.632812"/>
     <use xlink:href="#DejaVuSans-65" x="987.109375"/>
     <use xlink:href="#DejaVuSans-20" x="1048.632812"/>
     <use xlink:href="#DejaVuSans-28" x="1080.419922"/>
     <use xlink:href="#DejaVuSans-3c1" x="1119.433594"/>
     <use xlink:href="#DejaVuSans-29" x="1182.910156"/>
    </g>
   </g>
  </g>
 </g>
 <defs>
  <clipPath id="pc85ffe3864">
   <rect x="28.8" y="57.6" width="518.4" height="518.4"/>
  </clipPath>
  <clipPath id="p8c45dc8ee5">
   <rect x="604.8" y="57.6" width="518.4" height="518.4"/>
  </clipPath>
 </defs>
</svg>
