<?xml version="1.0" encoding="utf-8" standalone="no"?>
<!DOCTYPE svg PUBLIC "-//W3C//DTD SVG 1.1//EN"
  "http://www.w3.org/Graphics/SVG/1.1/DTD/svg11.dtd">
<svg xmlns:xlink="http://www.w3.org/1999/xlink" width="1152pt" height="576pt" viewBox="0 0 1152 576" xmlns="http://www.w3.org/2000/svg" version="1.1">
 <metadata>
  <rdf:RDF xmlns:dc="http://purl.org/dc/elements/1.1/" xmlns:cc="http://creativecommons.org/ns#" xmlns:rdf="http://www.w3.org/1999/02/22-rdf-syntax-ns#">
   <cc:Work>
    <dc:type rdf:resource="http://purl.org/dc/dcmitype/StillImage"/>
    <dc:date>2024-11-02T18:56:36.348781</dc:date>
    <dc:format>image/svg+xml</dc:format>
    <dc:creator>
     <cc:Agent>
      <dc:title>Matplotlib v3.9.2, https://matplotlib.org/</dc:title>
     </cc:Agent>
    </dc:creator>
   </cc:Work>
  </rdf:RDF>
 </metadata>
 <defs>
  <style type="text/css">*{stroke-linejoin: round; stroke-linecap: butt}</style>
 </defs>
 <g id="figure_1">
  <g id="patch_1">
   <path d="M 0 576 
L 1152 576 
L 1152 0 
L 0 0 
z
" style="fill: #ffffff"/>
  </g>
  <g id="patch_2">
   <path d="M 28.8 576 
L 547.2 576 
L 547.2 57.6 
L 28.8 57.6 
z
" style="fill: #ffffff"/>
  </g>
  <g id="pane3d_1">
   <g id="patch_3">
    <path d="M 130.07018 436.456468 
L 253.494133 330.550231 
L 251.743197 126.70673 
L 122.643358 223.613571 
" style="fill: #f2f2f2; opacity: 0.5; stroke: #f2f2f2; stroke-linejoin: miter"/>
   </g>
  </g>
  <g id="pane3d_2">
   <g id="patch_4">
    <path d="M 253.494133 330.550231 
L 455.554898 390.069341 
L 462.583588 181.103065 
L 251.743197 126.70673 
" style="fill: #e6e6e6; opacity: 0.5; stroke: #e6e6e6; stroke-linejoin: miter"/>
   </g>
  </g>
  <g id="pane3d_3">
   <g id="patch_5">
    <path d="M 130.07018 436.456468 
L 340.912731 504.076731 
L 455.554898 390.069341 
L 253.494133 330.550231 
" style="fill: #ececec; opacity: 0.5; stroke: #ececec; stroke-linejoin: miter"/>
   </g>
  </g>
  <g id="grid3d_1">
   <g id="Line3DCollection_1">
    <path d="M 158.635886 445.617904 
L 280.925726 338.630493 
L 280.328796 134.081748 
" style="fill: none; stroke: #b0b0b0; stroke-width: 0.8"/>
    <path d="M 208.310046 461.549127 
L 328.58611 352.669358 
L 330.022474 146.902603 
" style="fill: none; stroke: #b0b0b0; stroke-width: 0.8"/>
    <path d="M 258.89502 477.772462 
L 377.066152 366.949661 
L 380.607663 159.953465 
" style="fill: none; stroke: #b0b0b0; stroke-width: 0.8"/>
    <path d="M 310.41609 494.296016 
L 426.38718 381.477685 
L 432.108569 173.24058 
" style="fill: none; stroke: #b0b0b0; stroke-width: 0.8"/>
   </g>
  </g>
  <g id="grid3d_2">
   <g id="Line3DCollection_2">
    <path d="M 141.757365 209.265931 
L 148.301379 420.812846 
L 357.880707 487.202708 
" style="fill: none; stroke: #b0b0b0; stroke-width: 0.8"/>
    <path d="M 173.704273 185.285468 
L 178.805664 394.638072 
L 386.24502 458.995448 
" style="fill: none; stroke: #b0b0b0; stroke-width: 0.8"/>
    <path d="M 204.65707 162.051218 
L 208.400054 369.24405 
L 413.731787 431.660877 
" style="fill: none; stroke: #b0b0b0; stroke-width: 0.8"/>
    <path d="M 234.661448 139.528886 
L 237.124663 344.596362 
L 440.38111 405.159111 
" style="fill: none; stroke: #b0b0b0; stroke-width: 0.8"/>
   </g>
  </g>
  <g id="grid3d_3">
   <g id="Line3DCollection_3">
    <path d="M 455.824092 382.066081 
L 253.426974 322.731649 
L 129.786065 428.314111 
" style="fill: none; stroke: #b0b0b0; stroke-width: 0.8"/>
    <path d="M 456.845481 351.699706 
L 253.17223 293.074347 
L 128.707825 397.413186 
" style="fill: none; stroke: #b0b0b0; stroke-width: 0.8"/>
    <path d="M 457.879926 320.945141 
L 252.914344 263.051393 
L 127.61542 366.106285 
" style="fill: none; stroke: #b0b0b0; stroke-width: 0.8"/>
    <path d="M 458.927681 289.794894 
L 252.653259 232.655983 
L 126.508567 334.385356 
" style="fill: none; stroke: #b0b0b0; stroke-width: 0.8"/>
    <path d="M 459.989004 258.24128 
L 252.388916 201.881143 
L 125.386979 302.242131 
" style="fill: none; stroke: #b0b0b0; stroke-width: 0.8"/>
    <path d="M 461.064159 226.276412 
L 252.121251 170.719723 
L 124.25036 269.668119 
" style="fill: none; stroke: #b0b0b0; stroke-width: 0.8"/>
    <path d="M 462.153418 193.892199 
L 251.850203 139.164394 
L 123.098404 236.654603 
" style="fill: none; stroke: #b0b0b0; stroke-width: 0.8"/>
   </g>
  </g>
  <g id="axis3d_1">
   <g id="line2d_1">
    <path d="M 130.07018 436.456468 
L 340.912731 504.076731 
" style="fill: none; stroke: #000000; stroke-width: 0.8; stroke-linecap: square"/>
   </g>
   <g id="xtick_1">
    <g id="line2d_2">
     <path d="M 159.677227 444.706868 
L 156.549953 447.442819 
" style="fill: none; stroke: #000000; stroke-width: 0.8; stroke-linecap: square"/>
    </g>
    <g id="text_1">
     <!-- 00 -->
     <g transform="translate(131.351686 489.365693) rotate(-45) scale(0.21 -0.21)">
      <defs>
       <path id="DejaVuSans-30" d="M 2034 4250 
Q 1547 4250 1301 3770 
Q 1056 3291 1056 2328 
Q 1056 1369 1301 889 
Q 1547 409 2034 409 
Q 2525 409 2770 889 
Q 3016 1369 3016 2328 
Q 3016 3291 2770 3770 
Q 2525 4250 2034 4250 
z
M 2034 4750 
Q 2819 4750 3233 4129 
Q 3647 3509 3647 2328 
Q 3647 1150 3233 529 
Q 2819 -91 2034 -91 
Q 1250 -91 836 529 
Q 422 1150 422 2328 
Q 422 3509 836 4129 
Q 1250 4750 2034 4750 
z
" transform="scale(0.015625)"/>
      </defs>
      <use xlink:href="#DejaVuSans-30"/>
      <use xlink:href="#DejaVuSans-30" x="63.623047"/>
     </g>
    </g>
   </g>
   <g id="xtick_2">
    <g id="line2d_3">
     <path d="M 209.334802 460.621468 
L 206.257306 463.407368 
" style="fill: none; stroke: #000000; stroke-width: 0.8; stroke-linecap: square"/>
    </g>
    <g id="text_2">
     <!-- 01 -->
     <g transform="translate(181.023931 505.435143) rotate(-45) scale(0.21 -0.21)">
      <defs>
       <path id="DejaVuSans-31" d="M 794 531 
L 1825 531 
L 1825 4091 
L 703 3866 
L 703 4441 
L 1819 4666 
L 2450 4666 
L 2450 531 
L 3481 531 
L 3481 0 
L 794 0 
L 794 531 
z
" transform="scale(0.015625)"/>
      </defs>
      <use xlink:href="#DejaVuSans-30"/>
      <use xlink:href="#DejaVuSans-31" x="63.623047"/>
     </g>
    </g>
   </g>
   <g id="xtick_3">
    <g id="line2d_4">
     <path d="M 259.902405 476.82772 
L 256.877048 479.664949 
" style="fill: none; stroke: #000000; stroke-width: 0.8; stroke-linecap: square"/>
    </g>
    <g id="text_3">
     <!-- 10 -->
     <g transform="translate(231.60781 521.799516) rotate(-45) scale(0.21 -0.21)">
      <use xlink:href="#DejaVuSans-31"/>
      <use xlink:href="#DejaVuSans-30" x="63.623047"/>
     </g>
    </g>
   </g>
   <g id="xtick_4">
    <g id="line2d_5">
     <path d="M 311.405283 493.333715 
L 308.434531 496.223705 
" style="fill: none; stroke: #000000; stroke-width: 0.8; stroke-linecap: square"/>
    </g>
    <g id="text_4">
     <!-- 11 -->
     <g transform="translate(283.128654 538.467006) rotate(-45) scale(0.21 -0.21)">
      <use xlink:href="#DejaVuSans-31"/>
      <use xlink:href="#DejaVuSans-31" x="63.623047"/>
     </g>
    </g>
   </g>
  </g>
  <g id="axis3d_2">
   <g id="line2d_6">
    <path d="M 455.554898 390.069341 
L 340.912731 504.076731 
" style="fill: none; stroke: #000000; stroke-width: 0.8; stroke-linecap: square"/>
   </g>
   <g id="xtick_5">
    <g id="line2d_7">
     <path d="M 356.140222 486.651363 
L 361.364886 488.306415 
" style="fill: none; stroke: #000000; stroke-width: 0.8; stroke-linecap: square"/>
    </g>
    <g id="text_5">
     <!-- 00 -->
     <g transform="translate(368.70027 499.207917) rotate(-337.5) scale(0.21 -0.21)">
      <use xlink:href="#DejaVuSans-30"/>
      <use xlink:href="#DejaVuSans-30" x="63.623047"/>
     </g>
    </g>
   </g>
   <g id="xtick_6">
    <g id="line2d_8">
     <path d="M 384.5233 458.46129 
L 389.691587 460.064734 
" style="fill: none; stroke: #000000; stroke-width: 0.8; stroke-linecap: square"/>
    </g>
    <g id="text_6">
     <!-- 01 -->
     <g transform="translate(396.913817 470.822876) rotate(-337.5) scale(0.21 -0.21)">
      <use xlink:href="#DejaVuSans-30"/>
      <use xlink:href="#DejaVuSans-31" x="63.623047"/>
     </g>
    </g>
   </g>
   <g id="xtick_7">
    <g id="line2d_9">
     <path d="M 412.028511 431.143114 
L 417.141381 432.697327 
" style="fill: none; stroke: #000000; stroke-width: 0.8; stroke-linecap: square"/>
    </g>
    <g id="text_7">
     <!-- 10 -->
     <g transform="translate(424.254695 443.315808) rotate(-337.5) scale(0.21 -0.21)">
      <use xlink:href="#DejaVuSans-31"/>
      <use xlink:href="#DejaVuSans-30" x="63.623047"/>
     </g>
    </g>
   </g>
   <g id="xtick_8">
    <g id="line2d_10">
     <path d="M 438.695964 404.657001 
L 443.754368 406.164215 
" style="fill: none; stroke: #000000; stroke-width: 0.8; stroke-linecap: square"/>
    </g>
    <g id="text_8">
     <!-- 11 -->
     <g transform="translate(450.762776 416.646599) rotate(-337.5) scale(0.21 -0.21)">
      <use xlink:href="#DejaVuSans-31"/>
      <use xlink:href="#DejaVuSans-31" x="63.623047"/>
     </g>
    </g>
   </g>
  </g>
  <g id="axis3d_3">
   <g id="line2d_11">
    <path d="M 455.554898 390.069341 
L 462.583588 181.103065 
" style="fill: none; stroke: #000000; stroke-width: 0.8; stroke-linecap: square"/>
   </g>
   <g id="xtick_9">
    <g id="line2d_12">
     <path d="M 454.14649 381.574277 
L 459.182226 383.050546 
" style="fill: none; stroke: #000000; stroke-width: 0.8; stroke-linecap: square"/>
    </g>
    <g id="text_9">
     <!-- −0.2 -->
     <g transform="translate(469.325701 375.783553) scale(0.21 -0.21)">
      <defs>
       <path id="DejaVuSans-2212" d="M 678 2272 
L 4684 2272 
L 4684 1741 
L 678 1741 
L 678 2272 
z
" transform="scale(0.015625)"/>
       <path id="DejaVuSans-2e" d="M 684 794 
L 1344 794 
L 1344 0 
L 684 0 
L 684 794 
z
" transform="scale(0.015625)"/>
       <path id="DejaVuSans-32" d="M 1228 531 
L 3431 531 
L 3431 0 
L 469 0 
L 469 531 
Q 828 903 1448 1529 
Q 2069 2156 2228 2338 
Q 2531 2678 2651 2914 
Q 2772 3150 2772 3378 
Q 2772 3750 2511 3984 
Q 2250 4219 1831 4219 
Q 1534 4219 1204 4116 
Q 875 4013 500 3803 
L 500 4441 
Q 881 4594 1212 4672 
Q 1544 4750 1819 4750 
Q 2544 4750 2975 4387 
Q 3406 4025 3406 3419 
Q 3406 3131 3298 2873 
Q 3191 2616 2906 2266 
Q 2828 2175 2409 1742 
Q 1991 1309 1228 531 
z
" transform="scale(0.015625)"/>
      </defs>
      <use xlink:href="#DejaVuSans-2212"/>
      <use xlink:href="#DejaVuSans-30" x="83.789062"/>
      <use xlink:href="#DejaVuSans-2e" x="147.412109"/>
      <use xlink:href="#DejaVuSans-32" x="179.199219"/>
     </g>
    </g>
   </g>
   <g id="xtick_10">
    <g id="line2d_13">
     <path d="M 455.156928 351.213673 
L 460.225554 352.672627 
" style="fill: none; stroke: #000000; stroke-width: 0.8; stroke-linecap: square"/>
    </g>
    <g id="text_10">
     <!-- −0.1 -->
     <g transform="translate(470.431579 345.439657) scale(0.21 -0.21)">
      <use xlink:href="#DejaVuSans-2212"/>
      <use xlink:href="#DejaVuSans-30" x="83.789062"/>
      <use xlink:href="#DejaVuSans-2e" x="147.412109"/>
      <use xlink:href="#DejaVuSans-31" x="179.199219"/>
     </g>
    </g>
   </g>
   <g id="xtick_11">
    <g id="line2d_14">
     <path d="M 456.18028 320.465066 
L 461.282228 321.906141 
" style="fill: none; stroke: #000000; stroke-width: 0.8; stroke-linecap: square"/>
    </g>
    <g id="text_11">
     <!-- 0.0 -->
     <g transform="translate(471.551577 314.708304) scale(0.21 -0.21)">
      <use xlink:href="#DejaVuSans-30"/>
      <use xlink:href="#DejaVuSans-2e" x="63.623047"/>
      <use xlink:href="#DejaVuSans-30" x="95.410156"/>
     </g>
    </g>
   </g>
   <g id="xtick_12">
    <g id="line2d_15">
     <path d="M 457.216793 289.320971 
L 462.352504 290.743585 
" style="fill: none; stroke: #000000; stroke-width: 0.8; stroke-linecap: square"/>
    </g>
    <g id="text_12">
     <!-- 0.1 -->
     <g transform="translate(472.685969 283.582024) scale(0.21 -0.21)">
      <use xlink:href="#DejaVuSans-30"/>
      <use xlink:href="#DejaVuSans-2e" x="63.623047"/>
      <use xlink:href="#DejaVuSans-31" x="95.410156"/>
     </g>
    </g>
   </g>
   <g id="xtick_13">
    <g id="line2d_16">
     <path d="M 458.266725 257.773709 
L 463.436648 259.177261 
" style="fill: none; stroke: #000000; stroke-width: 0.8; stroke-linecap: square"/>
    </g>
    <g id="text_13">
     <!-- 0.2 -->
     <g transform="translate(473.835032 252.053155) scale(0.21 -0.21)">
      <use xlink:href="#DejaVuSans-30"/>
      <use xlink:href="#DejaVuSans-2e" x="63.623047"/>
      <use xlink:href="#DejaVuSans-32" x="95.410156"/>
     </g>
    </g>
   </g>
   <g id="xtick_14">
    <g id="line2d_17">
     <path d="M 459.330337 225.815399 
L 464.534931 227.19927 
" style="fill: none; stroke: #000000; stroke-width: 0.8; stroke-linecap: square"/>
    </g>
    <g id="text_14">
     <!-- 0.3 -->
     <g transform="translate(474.999055 220.113837) scale(0.21 -0.21)">
      <defs>
       <path id="DejaVuSans-33" d="M 2597 2516 
Q 3050 2419 3304 2112 
Q 3559 1806 3559 1356 
Q 3559 666 3084 287 
Q 2609 -91 1734 -91 
Q 1441 -91 1130 -33 
Q 819 25 488 141 
L 488 750 
Q 750 597 1062 519 
Q 1375 441 1716 441 
Q 2309 441 2620 675 
Q 2931 909 2931 1356 
Q 2931 1769 2642 2001 
Q 2353 2234 1838 2234 
L 1294 2234 
L 1294 2753 
L 1863 2753 
Q 2328 2753 2575 2939 
Q 2822 3125 2822 3475 
Q 2822 3834 2567 4026 
Q 2313 4219 1838 4219 
Q 1578 4219 1281 4162 
Q 984 4106 628 3988 
L 628 4550 
Q 988 4650 1302 4700 
Q 1616 4750 1894 4750 
Q 2613 4750 3031 4423 
Q 3450 4097 3450 3541 
Q 3450 3153 3228 2886 
Q 3006 2619 2597 2516 
z
" transform="scale(0.015625)"/>
      </defs>
      <use xlink:href="#DejaVuSans-30"/>
      <use xlink:href="#DejaVuSans-2e" x="63.623047"/>
      <use xlink:href="#DejaVuSans-33" x="95.410156"/>
     </g>
    </g>
   </g>
   <g id="xtick_15">
    <g id="line2d_18">
     <path d="M 460.407898 193.437957 
L 465.647631 194.801508 
" style="fill: none; stroke: #000000; stroke-width: 0.8; stroke-linecap: square"/>
    </g>
    <g id="text_15">
     <!-- 0.4 -->
     <g transform="translate(476.17833 187.756001) scale(0.21 -0.21)">
      <defs>
       <path id="DejaVuSans-34" d="M 2419 4116 
L 825 1625 
L 2419 1625 
L 2419 4116 
z
M 2253 4666 
L 3047 4666 
L 3047 1625 
L 3713 1625 
L 3713 1100 
L 3047 1100 
L 3047 0 
L 2419 0 
L 2419 1100 
L 313 1100 
L 313 1709 
L 2253 4666 
z
" transform="scale(0.015625)"/>
      </defs>
      <use xlink:href="#DejaVuSans-30"/>
      <use xlink:href="#DejaVuSans-2e" x="63.623047"/>
      <use xlink:href="#DejaVuSans-34" x="95.410156"/>
     </g>
    </g>
   </g>
  </g>
  <g id="axes_1">
   <g id="Poly3DCollection_1">
    <path d="M 259.372124 275.35072 
L 259.422888 282.314231 
L 283.427234 289.16951 
L 283.410645 282.185762 
z
" clip-path="url(#p866eda16a8)" style="fill: #648fff"/>
    <path d="M 245.093125 287.22689 
L 245.164764 294.22551 
L 259.422888 282.314231 
L 259.372124 275.35072 
z
" clip-path="url(#p866eda16a8)" style="fill: #324880"/>
    <path d="M 245.164764 294.22551 
L 269.287754 301.184087 
L 283.427234 289.16951 
L 259.422888 282.314231 
z
" clip-path="url(#p866eda16a8)" style="fill: #577ddf"/>
    <path d="M 245.093125 287.22689 
L 259.372124 275.35072 
L 283.410645 282.185762 
L 269.250627 294.165073 
z
" clip-path="url(#p866eda16a8)" style="fill: #3f599f"/>
    <path d="M 269.250627 294.165073 
L 283.410645 282.185762 
L 283.427234 289.16951 
L 269.287754 301.184087 
z
" clip-path="url(#p866eda16a8)" style="fill: #648fff"/>
    <path d="M 307.6576 289.08007 
L 307.593629 313.724939 
L 331.927265 320.750739 
L 332.115714 296.034418 
z
" clip-path="url(#p866eda16a8)" style="fill: #648fff"/>
    <path d="M 245.093125 287.22689 
L 269.250627 294.165073 
L 269.287754 301.184087 
L 245.164764 294.22551 
z
" clip-path="url(#p866eda16a8)" style="fill: #324880"/>
    <path d="M 293.626244 325.932698 
L 318.082883 333.064901 
L 331.927265 320.750739 
L 307.593629 313.724939 
z
" clip-path="url(#p866eda16a8)" style="fill: #577ddf"/>
    <path d="M 293.619182 301.163872 
L 293.626244 325.932698 
L 307.593629 313.724939 
L 307.6576 289.08007 
z
" clip-path="url(#p866eda16a8)" style="fill: #324880"/>
    <path d="M 318.201566 308.224085 
L 332.115714 296.034418 
L 331.927265 320.750739 
L 318.082883 333.064901 
z
" clip-path="url(#p866eda16a8)" style="fill: #648fff"/>
    <path d="M 293.619182 301.163872 
L 307.6576 289.08007 
L 332.115714 296.034418 
L 318.201566 308.224085 
z
" clip-path="url(#p866eda16a8)" style="fill: #3f599f"/>
    <path d="M 342.596743 356.140286 
L 367.402098 363.444083 
L 380.949563 350.833873 
L 356.271784 343.639627 
z
" clip-path="url(#p866eda16a8)" style="fill: #577ddf"/>
    <path d="M 356.787757 303.049594 
L 356.271784 343.639627 
L 380.949563 350.833873 
L 381.676547 310.126399 
z
" clip-path="url(#p866eda16a8)" style="fill: #648fff"/>
    <path d="M 293.619182 301.163872 
L 318.201566 308.224085 
L 318.082883 333.064901 
L 293.626244 325.932698 
z
" clip-path="url(#p866eda16a8)" style="fill: #324880"/>
    <path d="M 343.000607 315.346522 
L 342.596743 356.140286 
L 356.271784 343.639627 
L 356.787757 303.049594 
z
" clip-path="url(#p866eda16a8)" style="fill: #324880"/>
    <path d="M 368.019181 322.532011 
L 381.676547 310.126399 
L 380.949563 350.833873 
L 367.402098 363.444083 
z
" clip-path="url(#p866eda16a8)" style="fill: #648fff"/>
    <path d="M 187.342974 406.120684 
L 211.635283 413.696335 
L 226.459863 400.617052 
L 202.286551 393.155814 
z
" clip-path="url(#p866eda16a8)" style="fill: #577ddf"/>
    <path d="M 343.000607 315.346522 
L 368.019181 322.532011 
L 367.402098 363.444083 
L 342.596743 356.140286 
z
" clip-path="url(#p866eda16a8)" style="fill: #324880"/>
    <path d="M 343.000607 315.346522 
L 356.787757 303.049594 
L 381.676547 310.126399 
L 368.019181 322.532011 
z
" clip-path="url(#p866eda16a8)" style="fill: #3f599f"/>
    <path d="M 200.941349 323.948931 
L 202.286551 393.155814 
L 226.459863 400.617052 
L 225.460951 331.210944 
z
" clip-path="url(#p866eda16a8)" style="fill: #648fff"/>
    <path d="M 185.768886 336.568214 
L 187.342974 406.120684 
L 202.286551 393.155814 
L 200.941349 323.948931 
z
" clip-path="url(#p866eda16a8)" style="fill: #324880"/>
    <path d="M 210.410897 343.943223 
L 225.460951 331.210944 
L 226.459863 400.617052 
L 211.635283 413.696335 
z
" clip-path="url(#p866eda16a8)" style="fill: #648fff"/>
    <path d="M 185.768886 336.568214 
L 210.410897 343.943223 
L 211.635283 413.696335 
L 187.342974 406.120684 
z
" clip-path="url(#p866eda16a8)" style="fill: #324880"/>
    <path d="M 185.768886 336.568214 
L 200.941349 323.948931 
L 225.460951 331.210944 
L 210.410897 343.943223 
z
" clip-path="url(#p866eda16a8)" style="fill: #3f599f"/>
    <path d="M 364.967726 396.846501 
L 390.483151 404.512797 
L 404.182532 391.277755 
L 378.802568 383.729234 
z
" clip-path="url(#p866eda16a8)" style="fill: #577ddf"/>
    <path d="M 379.525568 342.491387 
L 378.802568 383.729234 
L 404.182532 391.277755 
L 405.128749 349.919734 
z
" clip-path="url(#p866eda16a8)" style="fill: #648fff"/>
    <path d="M 365.57608 355.400192 
L 364.967726 396.846501 
L 378.802568 383.729234 
L 379.525568 342.491387 
z
" clip-path="url(#p866eda16a8)" style="fill: #324880"/>
    <path d="M 391.317139 362.945454 
L 405.128749 349.919734 
L 404.182532 391.277755 
L 390.483151 404.512797 
z
" clip-path="url(#p866eda16a8)" style="fill: #648fff"/>
    <path d="M 206.048618 448.347906 
L 231.02678 456.302263 
L 246.064427 442.570234 
L 221.212532 434.738939 
z
" clip-path="url(#p866eda16a8)" style="fill: #577ddf"/>
    <path d="M 365.57608 355.400192 
L 391.317139 362.945454 
L 390.483151 404.512797 
L 364.967726 396.846501 
z
" clip-path="url(#p866eda16a8)" style="fill: #324880"/>
    <path d="M 365.57608 355.400192 
L 379.525568 342.491387 
L 405.128749 349.919734 
L 391.317139 362.945454 
z
" clip-path="url(#p866eda16a8)" style="fill: #3f599f"/>
    <path d="M 220.115357 364.433513 
L 221.212532 434.738939 
L 246.064427 442.570234 
L 245.333438 372.061135 
z
" clip-path="url(#p866eda16a8)" style="fill: #648fff"/>
    <path d="M 204.715499 377.689197 
L 206.048618 448.347906 
L 221.212532 434.738939 
L 220.115357 364.433513 
z
" clip-path="url(#p866eda16a8)" style="fill: #324880"/>
    <path d="M 230.063579 385.438489 
L 245.333438 372.061135 
L 246.064427 442.570234 
L 231.02678 456.302263 
z
" clip-path="url(#p866eda16a8)" style="fill: #648fff"/>
    <path d="M 351.406675 368.512509 
L 351.107391 393.955092 
L 376.848192 401.694893 
L 377.286789 376.177468 
z
" clip-path="url(#p866eda16a8)" style="fill: #648fff"/>
    <path d="M 204.715499 377.689197 
L 230.063579 385.438489 
L 231.02678 456.302263 
L 206.048618 448.347906 
z
" clip-path="url(#p866eda16a8)" style="fill: #324880"/>
    <path d="M 336.787446 407.405598 
L 362.666966 415.268497 
L 376.848192 401.694893 
L 351.107391 393.955092 
z
" clip-path="url(#p866eda16a8)" style="fill: #577ddf"/>
    <path d="M 337.012108 381.833189 
L 336.787446 407.405598 
L 351.107391 393.955092 
L 351.406675 368.512509 
z
" clip-path="url(#p866eda16a8)" style="fill: #324880"/>
    <path d="M 204.715499 377.689197 
L 220.115357 364.433513 
L 245.333438 372.061135 
L 230.063579 385.438489 
z
" clip-path="url(#p866eda16a8)" style="fill: #3f599f"/>
    <path d="M 363.03246 389.620715 
L 377.286789 376.177468 
L 376.848192 401.694893 
L 362.666966 415.268497 
z
" clip-path="url(#p866eda16a8)" style="fill: #648fff"/>
    <path d="M 337.012108 381.833189 
L 351.406675 368.512509 
L 377.286789 376.177468 
L 363.03246 389.620715 
z
" clip-path="url(#p866eda16a8)" style="fill: #3f599f"/>
    <path d="M 337.012108 381.833189 
L 363.03246 389.620715 
L 362.666966 415.268497 
L 336.787446 407.405598 
z
" clip-path="url(#p866eda16a8)" style="fill: #324880"/>
    <path d="M 322.386972 395.367238 
L 322.345011 402.673837 
L 348.466313 410.608602 
L 348.548746 403.280296 
z
" clip-path="url(#p866eda16a8)" style="fill: #648fff"/>
    <path d="M 307.52568 409.119824 
L 307.506338 416.464077 
L 322.345011 402.673837 
L 322.386972 395.367238 
z
" clip-path="url(#p866eda16a8)" style="fill: #324880"/>
    <path d="M 307.506338 416.464077 
L 333.769809 424.527586 
L 348.466313 410.608602 
L 322.345011 402.673837 
z
" clip-path="url(#p866eda16a8)" style="fill: #577ddf"/>
    <path d="M 307.52568 409.119824 
L 322.386972 395.367238 
L 348.548746 403.280296 
L 333.830066 417.161473 
z
" clip-path="url(#p866eda16a8)" style="fill: #3f599f"/>
    <path d="M 333.830066 417.161473 
L 348.548746 403.280296 
L 348.466313 410.608602 
L 333.769809 424.527586 
z
" clip-path="url(#p866eda16a8)" style="fill: #648fff"/>
    <path d="M 307.52568 409.119824 
L 333.830066 417.161473 
L 333.769809 424.527586 
L 307.506338 416.464077 
z
" clip-path="url(#p866eda16a8)" style="fill: #324880"/>
   </g>
   <g id="Poly3DCollection_2">
    <path d="M 134.40007 365.178536 
L 339.662127 428.269072 
L 451.449349 321.824473 
L 254.519365 266.108276 
z
" clip-path="url(#p866eda16a8)" style="fill-opacity: 0.25"/>
   </g>
   <g id="Poly3DCollection_3">
    <path d="M 230.598308 299.28256 
L 230.393496 283.815283 
L 254.747481 290.813459 
L 254.875653 306.326238 
z
" clip-path="url(#p866eda16a8)" style="fill: #324880"/>
    <path d="M 215.882743 311.521832 
L 215.629215 295.975615 
L 230.393496 283.815283 
L 230.598308 299.28256 
z
" clip-path="url(#p866eda16a8)" style="fill: #648fff"/>
    <path d="M 215.882743 311.521832 
L 230.598308 299.28256 
L 254.875653 306.326238 
L 240.280789 318.673427 
z
" clip-path="url(#p866eda16a8)" style="fill: #3f599f"/>
    <path d="M 215.629215 295.975615 
L 240.104661 303.081359 
L 254.747481 290.813459 
L 230.393496 283.815283 
z
" clip-path="url(#p866eda16a8)" style="fill: #577ddf"/>
    <path d="M 240.280789 318.673427 
L 254.875653 306.326238 
L 254.747481 290.813459 
L 240.104661 303.081359 
z
" clip-path="url(#p866eda16a8)" style="fill: #324880"/>
    <path d="M 215.882743 311.521832 
L 240.280789 318.673427 
L 240.104661 303.081359 
L 215.629215 295.975615 
z
" clip-path="url(#p866eda16a8)" style="fill: #648fff"/>
    <path d="M 264.895264 325.888463 
L 279.366714 313.431921 
L 304.074325 320.600434 
L 289.729059 333.167787 
z
" clip-path="url(#p866eda16a8)" style="fill: #3f599f"/>
    <path d="M 406.784953 317.26565 
L 407.220532 298.381837 
L 432.65256 305.528543 
L 432.115895 324.468175 
z
" clip-path="url(#p866eda16a8)" style="fill: #324880"/>
    <path d="M 279.366714 313.431921 
L 279.188093 258.038123 
L 304.178372 265.041172 
L 304.074325 320.600434 
z
" clip-path="url(#p866eda16a8)" style="fill: #324880"/>
    <path d="M 393.260217 329.781392 
L 393.646053 310.80074 
L 407.220532 298.381837 
L 406.784953 317.26565 
z
" clip-path="url(#p866eda16a8)" style="fill: #648fff"/>
    <path d="M 393.260217 329.781392 
L 406.784953 317.26565 
L 432.115895 324.468175 
L 418.726694 337.095521 
z
" clip-path="url(#p866eda16a8)" style="fill: #3f599f"/>
    <path d="M 264.895264 325.888463 
L 264.54868 270.207597 
L 279.188093 258.038123 
L 279.366714 313.431921 
z
" clip-path="url(#p866eda16a8)" style="fill: #648fff"/>
    <path d="M 393.646053 310.80074 
L 419.214713 318.058622 
L 432.65256 305.528543 
L 407.220532 298.381837 
z
" clip-path="url(#p866eda16a8)" style="fill: #577ddf"/>
    <path d="M 418.726694 337.095521 
L 432.115895 324.468175 
L 432.65256 305.528543 
L 419.214713 318.058622 
z
" clip-path="url(#p866eda16a8)" style="fill: #324880"/>
    <path d="M 289.729059 333.167787 
L 304.074325 320.600434 
L 304.178372 265.041172 
L 289.668052 277.320154 
z
" clip-path="url(#p866eda16a8)" style="fill: #324880"/>
    <path d="M 393.260217 329.781392 
L 418.726694 337.095521 
L 419.214713 318.058622 
L 393.646053 310.80074 
z
" clip-path="url(#p866eda16a8)" style="fill: #648fff"/>
    <path d="M 314.78512 340.512261 
L 329.001372 327.832611 
L 354.150789 335.129307 
L 340.066443 347.922765 
z
" clip-path="url(#p866eda16a8)" style="fill: #3f599f"/>
    <path d="M 264.895264 325.888463 
L 289.729059 333.167787 
L 289.668052 277.320154 
L 264.54868 270.207597 
z
" clip-path="url(#p866eda16a8)" style="fill: #648fff"/>
    <path d="M 264.54868 270.207597 
L 289.668052 277.320154 
L 304.178372 265.041172 
L 279.188093 258.038123 
z
" clip-path="url(#p866eda16a8)" style="fill: #577ddf"/>
    <path d="M 329.001372 327.832611 
L 329.649815 235.600696 
L 355.284064 242.617924 
L 354.150789 335.129307 
z
" clip-path="url(#p866eda16a8)" style="fill: #324880"/>
    <path d="M 235.274912 351.384673 
L 250.199745 338.537876 
L 275.160681 345.9306 
L 260.363944 358.893469 
z
" clip-path="url(#p866eda16a8)" style="fill: #3f599f"/>
    <path d="M 314.78512 340.512261 
L 315.165381 247.795473 
L 329.649815 235.600696 
L 329.001372 327.832611 
z
" clip-path="url(#p866eda16a8)" style="fill: #648fff"/>
    <path d="M 340.066443 347.922765 
L 354.150789 335.129307 
L 355.284064 242.617924 
L 340.936702 254.924268 
z
" clip-path="url(#p866eda16a8)" style="fill: #324880"/>
    <path d="M 154.708979 362.401448 
L 170.359953 349.384176 
L 195.125221 356.874837 
L 179.598346 370.010504 
z
" clip-path="url(#p866eda16a8)" style="fill: #3f599f"/>
    <path d="M 314.78512 340.512261 
L 340.066443 347.922765 
L 340.936702 254.924268 
L 315.165381 247.795473 
z
" clip-path="url(#p866eda16a8)" style="fill: #648fff"/>
    <path d="M 285.681062 366.470527 
L 300.346765 353.390006 
L 325.761058 360.917002 
L 311.229389 374.116783 
z
" clip-path="url(#p866eda16a8)" style="fill: #3f599f"/>
    <path d="M 170.359953 349.384176 
L 168.647405 283.24432 
L 193.746644 290.535326 
L 195.125221 356.874837 
z
" clip-path="url(#p866eda16a8)" style="fill: #324880"/>
    <path d="M 250.199745 338.537876 
L 248.891417 197.655135 
L 274.578536 204.613639 
L 275.160681 345.9306 
z
" clip-path="url(#p866eda16a8)" style="fill: #324880"/>
    <path d="M 300.346765 353.390006 
L 300.409294 297.082918 
L 326.12275 304.440336 
L 325.761058 360.917002 
z
" clip-path="url(#p866eda16a8)" style="fill: #324880"/>
    <path d="M 154.708979 362.401448 
L 152.766048 295.915213 
L 168.647405 283.24432 
L 170.359953 349.384176 
z
" clip-path="url(#p866eda16a8)" style="fill: #648fff"/>
    <path d="M 235.274912 351.384673 
L 233.516771 209.748531 
L 248.891417 197.655135 
L 250.199745 338.537876 
z
" clip-path="url(#p866eda16a8)" style="fill: #648fff"/>
    <path d="M 315.165381 247.795473 
L 340.936702 254.924268 
L 355.284064 242.617924 
L 329.649815 235.600696 
z
" clip-path="url(#p866eda16a8)" style="fill: #577ddf"/>
    <path d="M 285.681062 366.470527 
L 285.571036 309.869245 
L 300.409294 297.082918 
L 300.346765 353.390006 
z
" clip-path="url(#p866eda16a8)" style="fill: #648fff"/>
    <path d="M 179.598346 370.010504 
L 195.125221 356.874837 
L 193.746644 290.535326 
L 177.99272 303.323065 
z
" clip-path="url(#p866eda16a8)" style="fill: #324880"/>
    <path d="M 260.363944 358.893469 
L 275.160681 345.9306 
L 274.578536 204.613639 
L 259.339537 216.819525 
z
" clip-path="url(#p866eda16a8)" style="fill: #324880"/>
    <path d="M 311.229389 374.116783 
L 325.761058 360.917002 
L 326.12275 304.440336 
L 311.421713 317.344621 
z
" clip-path="url(#p866eda16a8)" style="fill: #324880"/>
    <path d="M 154.708979 362.401448 
L 179.598346 370.010504 
L 177.99272 303.323065 
L 152.766048 295.915213 
z
" clip-path="url(#p866eda16a8)" style="fill: #648fff"/>
    <path d="M 235.274912 351.384673 
L 260.363944 358.893469 
L 259.339537 216.819525 
L 233.516771 209.748531 
z
" clip-path="url(#p866eda16a8)" style="fill: #648fff"/>
    <path d="M 285.681062 366.470527 
L 311.229389 374.116783 
L 311.421713 317.344621 
L 285.571036 309.869245 
z
" clip-path="url(#p866eda16a8)" style="fill: #648fff"/>
    <path d="M 152.766048 295.915213 
L 177.99272 303.323065 
L 193.746644 290.535326 
L 168.647405 283.24432 
z
" clip-path="url(#p866eda16a8)" style="fill: #577ddf"/>
    <path d="M 285.571036 309.869245 
L 311.421713 317.344621 
L 326.12275 304.440336 
L 300.409294 297.082918 
z
" clip-path="url(#p866eda16a8)" style="fill: #577ddf"/>
    <path d="M 270.782597 379.75865 
L 270.701701 363.783127 
L 296.470926 371.503788 
L 296.466025 387.527023 
z
" clip-path="url(#p866eda16a8)" style="fill: #324880"/>
    <path d="M 255.645787 393.259357 
L 255.513283 377.201065 
L 270.701701 363.783127 
L 270.782597 379.75865 
z
" clip-path="url(#p866eda16a8)" style="fill: #648fff"/>
    <path d="M 255.645787 393.259357 
L 270.782597 379.75865 
L 296.466025 387.527023 
L 281.46538 401.152797 
z
" clip-path="url(#p866eda16a8)" style="fill: #3f599f"/>
    <path d="M 255.513283 377.201065 
L 281.419586 385.046445 
L 296.470926 371.503788 
L 270.701701 363.783127 
z
" clip-path="url(#p866eda16a8)" style="fill: #577ddf"/>
    <path d="M 281.46538 401.152797 
L 296.466025 387.527023 
L 296.470926 371.503788 
L 281.419586 385.046445 
z
" clip-path="url(#p866eda16a8)" style="fill: #324880"/>
    <path d="M 233.516771 209.748531 
L 259.339537 216.819525 
L 274.578536 204.613639 
L 248.891417 197.655135 
z
" clip-path="url(#p866eda16a8)" style="fill: #577ddf"/>
    <path d="M 255.645787 393.259357 
L 281.46538 401.152797 
L 281.419586 385.046445 
L 255.513283 377.201065 
z
" clip-path="url(#p866eda16a8)" style="fill: #648fff"/>
   </g>
   <g id="text_16">
    <!-- Real Amplitude (ρ) -->
    <g transform="translate(190.023516 51.6) scale(0.21 -0.21)">
     <defs>
      <path id="DejaVuSans-52" d="M 2841 2188 
Q 3044 2119 3236 1894 
Q 3428 1669 3622 1275 
L 4263 0 
L 3584 0 
L 2988 1197 
Q 2756 1666 2539 1819 
Q 2322 1972 1947 1972 
L 1259 1972 
L 1259 0 
L 628 0 
L 628 4666 
L 2053 4666 
Q 2853 4666 3247 4331 
Q 3641 3997 3641 3322 
Q 3641 2881 3436 2590 
Q 3231 2300 2841 2188 
z
M 1259 4147 
L 1259 2491 
L 2053 2491 
Q 2509 2491 2742 2702 
Q 2975 2913 2975 3322 
Q 2975 3731 2742 3939 
Q 2509 4147 2053 4147 
L 1259 4147 
z
" transform="scale(0.015625)"/>
      <path id="DejaVuSans-65" d="M 3597 1894 
L 3597 1613 
L 953 1613 
Q 991 1019 1311 708 
Q 1631 397 2203 397 
Q 2534 397 2845 478 
Q 3156 559 3463 722 
L 3463 178 
Q 3153 47 2828 -22 
Q 2503 -91 2169 -91 
Q 1331 -91 842 396 
Q 353 884 353 1716 
Q 353 2575 817 3079 
Q 1281 3584 2069 3584 
Q 2775 3584 3186 3129 
Q 3597 2675 3597 1894 
z
M 3022 2063 
Q 3016 2534 2758 2815 
Q 2500 3097 2075 3097 
Q 1594 3097 1305 2825 
Q 1016 2553 972 2059 
L 3022 2063 
z
" transform="scale(0.015625)"/>
      <path id="DejaVuSans-61" d="M 2194 1759 
Q 1497 1759 1228 1600 
Q 959 1441 959 1056 
Q 959 750 1161 570 
Q 1363 391 1709 391 
Q 2188 391 2477 730 
Q 2766 1069 2766 1631 
L 2766 1759 
L 2194 1759 
z
M 3341 1997 
L 3341 0 
L 2766 0 
L 2766 531 
Q 2569 213 2275 61 
Q 1981 -91 1556 -91 
Q 1019 -91 701 211 
Q 384 513 384 1019 
Q 384 1609 779 1909 
Q 1175 2209 1959 2209 
L 2766 2209 
L 2766 2266 
Q 2766 2663 2505 2880 
Q 2244 3097 1772 3097 
Q 1472 3097 1187 3025 
Q 903 2953 641 2809 
L 641 3341 
Q 956 3463 1253 3523 
Q 1550 3584 1831 3584 
Q 2591 3584 2966 3190 
Q 3341 2797 3341 1997 
z
" transform="scale(0.015625)"/>
      <path id="DejaVuSans-6c" d="M 603 4863 
L 1178 4863 
L 1178 0 
L 603 0 
L 603 4863 
z
" transform="scale(0.015625)"/>
      <path id="DejaVuSans-20" transform="scale(0.015625)"/>
      <path id="DejaVuSans-41" d="M 2188 4044 
L 1331 1722 
L 3047 1722 
L 2188 4044 
z
M 1831 4666 
L 2547 4666 
L 4325 0 
L 3669 0 
L 3244 1197 
L 1141 1197 
L 716 0 
L 50 0 
L 1831 4666 
z
" transform="scale(0.015625)"/>
      <path id="DejaVuSans-6d" d="M 3328 2828 
Q 3544 3216 3844 3400 
Q 4144 3584 4550 3584 
Q 5097 3584 5394 3201 
Q 5691 2819 5691 2113 
L 5691 0 
L 5113 0 
L 5113 2094 
Q 5113 2597 4934 2840 
Q 4756 3084 4391 3084 
Q 3944 3084 3684 2787 
Q 3425 2491 3425 1978 
L 3425 0 
L 2847 0 
L 2847 2094 
Q 2847 2600 2669 2842 
Q 2491 3084 2119 3084 
Q 1678 3084 1418 2786 
Q 1159 2488 1159 1978 
L 1159 0 
L 581 0 
L 581 3500 
L 1159 3500 
L 1159 2956 
Q 1356 3278 1631 3431 
Q 1906 3584 2284 3584 
Q 2666 3584 2933 3390 
Q 3200 3197 3328 2828 
z
" transform="scale(0.015625)"/>
      <path id="DejaVuSans-70" d="M 1159 525 
L 1159 -1331 
L 581 -1331 
L 581 3500 
L 1159 3500 
L 1159 2969 
Q 1341 3281 1617 3432 
Q 1894 3584 2278 3584 
Q 2916 3584 3314 3078 
Q 3713 2572 3713 1747 
Q 3713 922 3314 415 
Q 2916 -91 2278 -91 
Q 1894 -91 1617 61 
Q 1341 213 1159 525 
z
M 3116 1747 
Q 3116 2381 2855 2742 
Q 2594 3103 2138 3103 
Q 1681 3103 1420 2742 
Q 1159 2381 1159 1747 
Q 1159 1113 1420 752 
Q 1681 391 2138 391 
Q 2594 391 2855 752 
Q 3116 1113 3116 1747 
z
" transform="scale(0.015625)"/>
      <path id="DejaVuSans-69" d="M 603 3500 
L 1178 3500 
L 1178 0 
L 603 0 
L 603 3500 
z
M 603 4863 
L 1178 4863 
L 1178 4134 
L 603 4134 
L 603 4863 
z
" transform="scale(0.015625)"/>
      <path id="DejaVuSans-74" d="M 1172 4494 
L 1172 3500 
L 2356 3500 
L 2356 3053 
L 1172 3053 
L 1172 1153 
Q 1172 725 1289 603 
Q 1406 481 1766 481 
L 2356 481 
L 2356 0 
L 1766 0 
Q 1100 0 847 248 
Q 594 497 594 1153 
L 594 3053 
L 172 3053 
L 172 3500 
L 594 3500 
L 594 4494 
L 1172 4494 
z
" transform="scale(0.015625)"/>
      <path id="DejaVuSans-75" d="M 544 1381 
L 544 3500 
L 1119 3500 
L 1119 1403 
Q 1119 906 1312 657 
Q 1506 409 1894 409 
Q 2359 409 2629 706 
Q 2900 1003 2900 1516 
L 2900 3500 
L 3475 3500 
L 3475 0 
L 2900 0 
L 2900 538 
Q 2691 219 2414 64 
Q 2138 -91 1772 -91 
Q 1169 -91 856 284 
Q 544 659 544 1381 
z
M 1991 3584 
L 1991 3584 
z
" transform="scale(0.015625)"/>
      <path id="DejaVuSans-64" d="M 2906 2969 
L 2906 4863 
L 3481 4863 
L 3481 0 
L 2906 0 
L 2906 525 
Q 2725 213 2448 61 
Q 2172 -91 1784 -91 
Q 1150 -91 751 415 
Q 353 922 353 1747 
Q 353 2572 751 3078 
Q 1150 3584 1784 3584 
Q 2172 3584 2448 3432 
Q 2725 3281 2906 2969 
z
M 947 1747 
Q 947 1113 1208 752 
Q 1469 391 1925 391 
Q 2381 391 2643 752 
Q 2906 1113 2906 1747 
Q 2906 2381 2643 2742 
Q 2381 3103 1925 3103 
Q 1469 3103 1208 2742 
Q 947 2381 947 1747 
z
" transform="scale(0.015625)"/>
      <path id="DejaVuSans-28" d="M 1984 4856 
Q 1566 4138 1362 3434 
Q 1159 2731 1159 2009 
Q 1159 1288 1364 580 
Q 1569 -128 1984 -844 
L 1484 -844 
Q 1016 -109 783 600 
Q 550 1309 550 2009 
Q 550 2706 781 3412 
Q 1013 4119 1484 4856 
L 1984 4856 
z
" transform="scale(0.015625)"/>
      <path id="DejaVuSans-3c1" d="M 863 2875 
Q 1053 3194 1525 3475 
Q 1709 3584 2278 3584 
Q 2916 3584 3314 3078 
Q 3713 2572 3713 1747 
Q 3713 922 3314 415 
Q 2916 -91 2278 -91 
Q 1894 -91 1617 61 
Q 1341 213 1159 525 
L 1159 -1331 
L 581 -1331 
L 581 1716 
Q 581 2438 863 2875 
z
M 3116 1747 
Q 3116 2381 2855 2742 
Q 2594 3103 2138 3103 
Q 1681 3103 1420 2742 
Q 1159 2381 1159 1747 
Q 1159 1113 1420 752 
Q 1681 391 2138 391 
Q 2594 391 2855 752 
Q 3116 1113 3116 1747 
z
" transform="scale(0.015625)"/>
      <path id="DejaVuSans-29" d="M 513 4856 
L 1013 4856 
Q 1481 4119 1714 3412 
Q 1947 2706 1947 2009 
Q 1947 1309 1714 600 
Q 1481 -109 1013 -844 
L 513 -844 
Q 928 -128 1133 580 
Q 1338 1288 1338 2009 
Q 1338 2731 1133 3434 
Q 928 4138 513 4856 
z
" transform="scale(0.015625)"/>
     </defs>
     <use xlink:href="#DejaVuSans-52"/>
     <use xlink:href="#DejaVuSans-65" x="64.982422"/>
     <use xlink:href="#DejaVuSans-61" x="126.505859"/>
     <use xlink:href="#DejaVuSans-6c" x="187.785156"/>
     <use xlink:href="#DejaVuSans-20" x="215.568359"/>
     <use xlink:href="#DejaVuSans-41" x="247.355469"/>
     <use xlink:href="#DejaVuSans-6d" x="315.763672"/>
     <use xlink:href="#DejaVuSans-70" x="413.175781"/>
     <use xlink:href="#DejaVuSans-6c" x="476.652344"/>
     <use xlink:href="#DejaVuSans-69" x="504.435547"/>
     <use xlink:href="#DejaVuSans-74" x="532.21875"/>
     <use xlink:href="#DejaVuSans-75" x="571.427734"/>
     <use xlink:href="#DejaVuSans-64" x="634.806641"/>
     <use xlink:href="#DejaVuSans-65" x="698.283203"/>
     <use xlink:href="#DejaVuSans-20" x="759.806641"/>
     <use xlink:href="#DejaVuSans-28" x="791.59375"/>
     <use xlink:href="#DejaVuSans-3c1" x="830.607422"/>
     <use xlink:href="#DejaVuSans-29" x="894.083984"/>
    </g>
   </g>
  </g>
  <g id="patch_6">
   <path d="M 604.8 576 
L 1123.2 576 
L 1123.2 57.6 
L 604.8 57.6 
z
" style="fill: #ffffff"/>
  </g>
  <g id="pane3d_4">
   <g id="patch_7">
    <path d="M 706.07018 436.456468 
L 829.494133 330.550231 
L 827.743197 126.70673 
L 698.643358 223.613571 
" style="fill: #f2f2f2; opacity: 0.5; stroke: #f2f2f2; stroke-linejoin: miter"/>
   </g>
  </g>
  <g id="pane3d_5">
   <g id="patch_8">
    <path d="M 829.494133 330.550231 
L 1031.554898 390.069341 
L 1038.583588 181.103065 
L 827.743197 126.70673 
" style="fill: #e6e6e6; opacity: 0.5; stroke: #e6e6e6; stroke-linejoin: miter"/>
   </g>
  </g>
  <g id="pane3d_6">
   <g id="patch_9">
    <path d="M 706.07018 436.456468 
L 916.912731 504.076731 
L 1031.554898 390.069341 
L 829.494133 330.550231 
" style="fill: #ececec; opacity: 0.5; stroke: #ececec; stroke-linejoin: miter"/>
   </g>
  </g>
  <g id="grid3d_4">
   <g id="Line3DCollection_4">
    <path d="M 734.635886 445.617904 
L 856.925726 338.630493 
L 856.328796 134.081748 
" style="fill: none; stroke: #b0b0b0; stroke-width: 0.8"/>
    <path d="M 784.310046 461.549127 
L 904.58611 352.669358 
L 906.022474 146.902603 
" style="fill: none; stroke: #b0b0b0; stroke-width: 0.8"/>
    <path d="M 834.89502 477.772462 
L 953.066152 366.949661 
L 956.607663 159.953465 
" style="fill: none; stroke: #b0b0b0; stroke-width: 0.8"/>
    <path d="M 886.41609 494.296016 
L 1002.38718 381.477685 
L 1008.108569 173.24058 
" style="fill: none; stroke: #b0b0b0; stroke-width: 0.8"/>
   </g>
  </g>
  <g id="grid3d_5">
   <g id="Line3DCollection_5">
    <path d="M 717.757365 209.265931 
L 724.301379 420.812846 
L 933.880707 487.202708 
" style="fill: none; stroke: #b0b0b0; stroke-width: 0.8"/>
    <path d="M 749.704273 185.285468 
L 754.805664 394.638072 
L 962.24502 458.995448 
" style="fill: none; stroke: #b0b0b0; stroke-width: 0.8"/>
    <path d="M 780.65707 162.051218 
L 784.400054 369.24405 
L 989.731787 431.660877 
" style="fill: none; stroke: #b0b0b0; stroke-width: 0.8"/>
    <path d="M 810.661448 139.528886 
L 813.124663 344.596362 
L 1016.38111 405.159111 
" style="fill: none; stroke: #b0b0b0; stroke-width: 0.8"/>
   </g>
  </g>
  <g id="grid3d_6">
   <g id="Line3DCollection_6">
    <path d="M 1031.651211 387.205902 
L 829.470104 327.752761 
L 705.968531 433.543348 
" style="fill: none; stroke: #b0b0b0; stroke-width: 0.8"/>
    <path d="M 1032.555378 360.324599 
L 829.244573 301.496499 
L 705.014114 406.190998 
" style="fill: none; stroke: #b0b0b0; stroke-width: 0.8"/>
    <path d="M 1033.46978 333.138989 
L 829.016579 274.953544 
L 704.048593 378.520448 
" style="fill: none; stroke: #b0b0b0; stroke-width: 0.8"/>
    <path d="M 1034.394592 305.643877 
L 828.786082 248.119175 
L 703.071774 350.526112 
" style="fill: none; stroke: #b0b0b0; stroke-width: 0.8"/>
    <path d="M 1035.329994 277.833947 
L 828.553041 220.988567 
L 702.083458 322.202274 
" style="fill: none; stroke: #b0b0b0; stroke-width: 0.8"/>
    <path d="M 1036.276167 249.70376 
L 828.317413 193.556786 
L 701.08344 293.543081 
" style="fill: none; stroke: #b0b0b0; stroke-width: 0.8"/>
    <path d="M 1037.2333 221.247752 
L 828.079154 165.81879 
L 700.071511 264.542543 
" style="fill: none; stroke: #b0b0b0; stroke-width: 0.8"/>
    <path d="M 1038.201583 192.46023 
L 827.838221 137.769423 
L 699.047457 235.194524 
" style="fill: none; stroke: #b0b0b0; stroke-width: 0.8"/>
   </g>
  </g>
  <g id="axis3d_4">
   <g id="line2d_19">
    <path d="M 706.07018 436.456468 
L 916.912731 504.076731 
" style="fill: none; stroke: #000000; stroke-width: 0.8; stroke-linecap: square"/>
   </g>
   <g id="xtick_16">
    <g id="line2d_20">
     <path d="M 735.677227 444.706868 
L 732.549953 447.442819 
" style="fill: none; stroke: #000000; stroke-width: 0.8; stroke-linecap: square"/>
    </g>
    <g id="text_17">
     <!-- 00 -->
     <g transform="translate(707.351686 489.365693) rotate(-45) scale(0.21 -0.21)">
      <use xlink:href="#DejaVuSans-30"/>
      <use xlink:href="#DejaVuSans-30" x="63.623047"/>
     </g>
    </g>
   </g>
   <g id="xtick_17">
    <g id="line2d_21">
     <path d="M 785.334802 460.621468 
L 782.257306 463.407368 
" style="fill: none; stroke: #000000; stroke-width: 0.8; stroke-linecap: square"/>
    </g>
    <g id="text_18">
     <!-- 01 -->
     <g transform="translate(757.023931 505.435143) rotate(-45) scale(0.21 -0.21)">
      <use xlink:href="#DejaVuSans-30"/>
      <use xlink:href="#DejaVuSans-31" x="63.623047"/>
     </g>
    </g>
   </g>
   <g id="xtick_18">
    <g id="line2d_22">
     <path d="M 835.902405 476.82772 
L 832.877048 479.664949 
" style="fill: none; stroke: #000000; stroke-width: 0.8; stroke-linecap: square"/>
    </g>
    <g id="text_19">
     <!-- 10 -->
     <g transform="translate(807.60781 521.799516) rotate(-45) scale(0.21 -0.21)">
      <use xlink:href="#DejaVuSans-31"/>
      <use xlink:href="#DejaVuSans-30" x="63.623047"/>
     </g>
    </g>
   </g>
   <g id="xtick_19">
    <g id="line2d_23">
     <path d="M 887.405283 493.333715 
L 884.434531 496.223705 
" style="fill: none; stroke: #000000; stroke-width: 0.8; stroke-linecap: square"/>
    </g>
    <g id="text_20">
     <!-- 11 -->
     <g transform="translate(859.128654 538.467006) rotate(-45) scale(0.21 -0.21)">
      <use xlink:href="#DejaVuSans-31"/>
      <use xlink:href="#DejaVuSans-31" x="63.623047"/>
     </g>
    </g>
   </g>
  </g>
  <g id="axis3d_5">
   <g id="line2d_24">
    <path d="M 1031.554898 390.069341 
L 916.912731 504.076731 
" style="fill: none; stroke: #000000; stroke-width: 0.8; stroke-linecap: square"/>
   </g>
   <g id="xtick_20">
    <g id="line2d_25">
     <path d="M 932.140222 486.651363 
L 937.364886 488.306415 
" style="fill: none; stroke: #000000; stroke-width: 0.8; stroke-linecap: square"/>
    </g>
    <g id="text_21">
     <!-- 00 -->
     <g transform="translate(944.70027 499.207917) rotate(-337.5) scale(0.21 -0.21)">
      <use xlink:href="#DejaVuSans-30"/>
      <use xlink:href="#DejaVuSans-30" x="63.623047"/>
     </g>
    </g>
   </g>
   <g id="xtick_21">
    <g id="line2d_26">
     <path d="M 960.5233 458.46129 
L 965.691587 460.064734 
" style="fill: none; stroke: #000000; stroke-width: 0.8; stroke-linecap: square"/>
    </g>
    <g id="text_22">
     <!-- 01 -->
     <g transform="translate(972.913817 470.822876) rotate(-337.5) scale(0.21 -0.21)">
      <use xlink:href="#DejaVuSans-30"/>
      <use xlink:href="#DejaVuSans-31" x="63.623047"/>
     </g>
    </g>
   </g>
   <g id="xtick_22">
    <g id="line2d_27">
     <path d="M 988.028511 431.143114 
L 993.141381 432.697327 
" style="fill: none; stroke: #000000; stroke-width: 0.8; stroke-linecap: square"/>
    </g>
    <g id="text_23">
     <!-- 10 -->
     <g transform="translate(1000.254695 443.315808) rotate(-337.5) scale(0.21 -0.21)">
      <use xlink:href="#DejaVuSans-31"/>
      <use xlink:href="#DejaVuSans-30" x="63.623047"/>
     </g>
    </g>
   </g>
   <g id="xtick_23">
    <g id="line2d_28">
     <path d="M 1014.695964 404.657001 
L 1019.754368 406.164215 
" style="fill: none; stroke: #000000; stroke-width: 0.8; stroke-linecap: square"/>
    </g>
    <g id="text_24">
     <!-- 11 -->
     <g transform="translate(1026.762776 416.646599) rotate(-337.5) scale(0.21 -0.21)">
      <use xlink:href="#DejaVuSans-31"/>
      <use xlink:href="#DejaVuSans-31" x="63.623047"/>
     </g>
    </g>
   </g>
  </g>
  <g id="axis3d_6">
   <g id="line2d_29">
    <path d="M 1031.554898 390.069341 
L 1038.583588 181.103065 
" style="fill: none; stroke: #000000; stroke-width: 0.8; stroke-linecap: square"/>
   </g>
   <g id="xtick_24">
    <g id="line2d_30">
     <path d="M 1029.975463 386.713133 
L 1035.005633 388.192299 
" style="fill: none; stroke: #000000; stroke-width: 0.8; stroke-linecap: square"/>
    </g>
    <g id="text_25">
     <!-- −0.3 -->
     <g transform="translate(1045.138519 380.919612) scale(0.21 -0.21)">
      <use xlink:href="#DejaVuSans-2212"/>
      <use xlink:href="#DejaVuSans-30" x="83.789062"/>
      <use xlink:href="#DejaVuSans-2e" x="147.412109"/>
      <use xlink:href="#DejaVuSans-33" x="179.199219"/>
     </g>
    </g>
   </g>
   <g id="xtick_25">
    <g id="line2d_31">
     <path d="M 1030.869936 359.836915 
L 1035.929219 361.300822 
" style="fill: none; stroke: #000000; stroke-width: 0.8; stroke-linecap: square"/>
    </g>
    <g id="text_26">
     <!-- −0.2 -->
     <g transform="translate(1046.117481 354.058121) scale(0.21 -0.21)">
      <use xlink:href="#DejaVuSans-2212"/>
      <use xlink:href="#DejaVuSans-30" x="83.789062"/>
      <use xlink:href="#DejaVuSans-2e" x="147.412109"/>
      <use xlink:href="#DejaVuSans-32" x="179.199219"/>
     </g>
    </g>
   </g>
   <g id="xtick_26">
    <g id="line2d_32">
     <path d="M 1031.774533 332.656538 
L 1036.863267 334.104744 
" style="fill: none; stroke: #000000; stroke-width: 0.8; stroke-linecap: square"/>
    </g>
    <g id="text_27">
     <!-- −0.1 -->
     <g transform="translate(1047.107512 326.892895) scale(0.21 -0.21)">
      <use xlink:href="#DejaVuSans-2212"/>
      <use xlink:href="#DejaVuSans-30" x="83.789062"/>
      <use xlink:href="#DejaVuSans-2e" x="147.412109"/>
      <use xlink:href="#DejaVuSans-31" x="179.199219"/>
     </g>
    </g>
   </g>
   <g id="xtick_27">
    <g id="line2d_33">
     <path d="M 1032.689425 305.166809 
L 1037.807956 306.598861 
" style="fill: none; stroke: #000000; stroke-width: 0.8; stroke-linecap: square"/>
    </g>
    <g id="text_28">
     <!-- 0.0 -->
     <g transform="translate(1048.108802 299.418755) scale(0.21 -0.21)">
      <use xlink:href="#DejaVuSans-30"/>
      <use xlink:href="#DejaVuSans-2e" x="63.623047"/>
      <use xlink:href="#DejaVuSans-30" x="95.410156"/>
     </g>
    </g>
   </g>
   <g id="xtick_28">
    <g id="line2d_34">
     <path d="M 1033.614789 277.362417 
L 1038.763467 278.777849 
" style="fill: none; stroke: #000000; stroke-width: 0.8; stroke-linecap: square"/>
    </g>
    <g id="text_29">
     <!-- 0.1 -->
     <g transform="translate(1049.121543 271.630401) scale(0.21 -0.21)">
      <use xlink:href="#DejaVuSans-30"/>
      <use xlink:href="#DejaVuSans-2e" x="63.623047"/>
      <use xlink:href="#DejaVuSans-31" x="95.410156"/>
     </g>
    </g>
   </g>
   <g id="xtick_29">
    <g id="line2d_35">
     <path d="M 1034.550806 249.237928 
L 1039.729989 250.63626 
" style="fill: none; stroke: #000000; stroke-width: 0.8; stroke-linecap: square"/>
    </g>
    <g id="text_30">
     <!-- 0.2 -->
     <g transform="translate(1050.145933 243.522412) scale(0.21 -0.21)">
      <use xlink:href="#DejaVuSans-30"/>
      <use xlink:href="#DejaVuSans-2e" x="63.623047"/>
      <use xlink:href="#DejaVuSans-32" x="95.410156"/>
     </g>
    </g>
   </g>
   <g id="xtick_30">
    <g id="line2d_36">
     <path d="M 1035.497662 220.787782 
L 1040.707712 222.168523 
" style="fill: none; stroke: #000000; stroke-width: 0.8; stroke-linecap: square"/>
    </g>
    <g id="text_31">
     <!-- 0.3 -->
     <g transform="translate(1051.182175 215.08924) scale(0.21 -0.21)">
      <use xlink:href="#DejaVuSans-30"/>
      <use xlink:href="#DejaVuSans-2e" x="63.623047"/>
      <use xlink:href="#DejaVuSans-33" x="95.410156"/>
     </g>
    </g>
   </g>
   <g id="xtick_31">
    <g id="line2d_37">
     <path d="M 1036.455545 192.00629 
L 1041.696832 193.368934 
" style="fill: none; stroke: #000000; stroke-width: 0.8; stroke-linecap: square"/>
    </g>
    <g id="text_32">
     <!-- 0.4 -->
     <g transform="translate(1052.230475 186.32521) scale(0.21 -0.21)">
      <use xlink:href="#DejaVuSans-30"/>
      <use xlink:href="#DejaVuSans-2e" x="63.623047"/>
      <use xlink:href="#DejaVuSans-34" x="95.410156"/>
     </g>
    </g>
   </g>
  </g>
  <g id="axes_2">
   <g id="Poly3DCollection_4">
    <path d="M 835.262688 260.339019 
L 835.479405 290.066819 
L 859.445703 296.944528 
L 859.374881 267.130142 
z
" clip-path="url(#pfdaa919146)" style="fill: #648fff"/>
    <path d="M 821.244519 302.017009 
L 845.329086 308.998186 
L 859.445703 296.944528 
L 835.479405 290.066819 
z
" clip-path="url(#pfdaa919146)" style="fill: #577ddf"/>
    <path d="M 820.938682 272.138993 
L 821.244519 302.017009 
L 835.479405 290.066819 
L 835.262688 260.339019 
z
" clip-path="url(#pfdaa919146)" style="fill: #324880"/>
    <path d="M 845.170587 279.032915 
L 859.374881 267.130142 
L 859.445703 296.944528 
L 845.329086 308.998186 
z
" clip-path="url(#pfdaa919146)" style="fill: #648fff"/>
    <path d="M 820.938682 272.138993 
L 835.262688 260.339019 
L 859.374881 267.130142 
L 845.170587 279.032915 
z
" clip-path="url(#pfdaa919146)" style="fill: #3f599f"/>
    <path d="M 820.938682 272.138993 
L 845.170587 279.032915 
L 845.329086 308.998186 
L 821.244519 302.017009 
z
" clip-path="url(#pfdaa919146)" style="fill: #324880"/>
    <path d="M 841.326371 395.148648 
L 865.804936 402.627416 
L 879.944894 389.715135 
L 855.588941 382.348599 
z
" clip-path="url(#pfdaa919146)" style="fill: #577ddf"/>
    <path d="M 855.317526 298.177822 
L 855.588941 382.348599 
L 879.944894 389.715135 
L 880.102976 305.301329 
z
" clip-path="url(#pfdaa919146)" style="fill: #648fff"/>
    <path d="M 840.799829 310.556287 
L 841.326371 395.148648 
L 855.588941 382.348599 
L 855.317526 298.177822 
z
" clip-path="url(#pfdaa919146)" style="fill: #324880"/>
    <path d="M 932.980831 287.861027 
L 932.980831 287.861027 
L 957.948594 294.893119 
L 957.948594 294.893119 
z
" clip-path="url(#pfdaa919146)" style="fill: #648fff"/>
    <path d="M 919.151744 300.080383 
L 919.151744 300.080383 
L 932.980831 287.861027 
L 932.980831 287.861027 
z
" clip-path="url(#pfdaa919146)" style="fill: #324880"/>
    <path d="M 865.712261 317.790261 
L 880.102976 305.301329 
L 879.944894 389.715135 
L 865.804936 402.627416 
z
" clip-path="url(#pfdaa919146)" style="fill: #648fff"/>
    <path d="M 919.151744 300.080383 
L 944.250122 307.220814 
L 957.948594 294.893119 
L 932.980831 287.861027 
z
" clip-path="url(#pfdaa919146)" style="fill: #577ddf"/>
    <path d="M 919.151744 300.080383 
L 932.980831 287.861027 
L 957.948594 294.893119 
L 944.250122 307.220814 
z
" clip-path="url(#pfdaa919146)" style="fill: #3f599f"/>
    <path d="M 840.799829 310.556287 
L 865.712261 317.790261 
L 865.804936 402.627416 
L 841.326371 395.148648 
z
" clip-path="url(#pfdaa919146)" style="fill: #324880"/>
    <path d="M 944.250122 307.220814 
L 957.948594 294.893119 
L 957.948594 294.893119 
L 944.250122 307.220814 
z
" clip-path="url(#pfdaa919146)" style="fill: #648fff"/>
    <path d="M 919.151744 300.080383 
L 944.250122 307.220814 
L 944.250122 307.220814 
L 919.151744 300.080383 
z
" clip-path="url(#pfdaa919146)" style="fill: #324880"/>
    <path d="M 840.799829 310.556287 
L 855.317526 298.177822 
L 880.102976 305.301329 
L 865.712261 317.790261 
z
" clip-path="url(#pfdaa919146)" style="fill: #3f599f"/>
    <path d="M 905.109251 312.488304 
L 905.109251 312.488304 
L 930.339315 319.739597 
L 930.339315 319.739597 
z
" clip-path="url(#pfdaa919146)" style="fill: #648fff"/>
    <path d="M 890.848375 325.089188 
L 890.848375 325.089188 
L 905.109251 312.488304 
L 905.109251 312.488304 
z
" clip-path="url(#pfdaa919146)" style="fill: #324880"/>
    <path d="M 890.848375 325.089188 
L 905.109251 312.488304 
L 930.339315 319.739597 
L 916.211197 332.453945 
z
" clip-path="url(#pfdaa919146)" style="fill: #3f599f"/>
    <path d="M 890.848375 325.089188 
L 916.211197 332.453945 
L 930.339315 319.739597 
L 905.109251 312.488304 
z
" clip-path="url(#pfdaa919146)" style="fill: #577ddf"/>
    <path d="M 916.211197 332.453945 
L 930.339315 319.739597 
L 930.339315 319.739597 
L 916.211197 332.453945 
z
" clip-path="url(#pfdaa919146)" style="fill: #648fff"/>
    <path d="M 826.05663 323.127027 
L 826.05663 323.127027 
L 851.097008 330.474057 
L 851.097008 330.474057 
z
" clip-path="url(#pfdaa919146)" style="fill: #648fff"/>
    <path d="M 890.848375 325.089188 
L 916.211197 332.453945 
L 916.211197 332.453945 
L 890.848375 325.089188 
z
" clip-path="url(#pfdaa919146)" style="fill: #324880"/>
    <path d="M 811.082632 335.894555 
L 811.082632 335.894555 
L 826.05663 323.127027 
L 826.05663 323.127027 
z
" clip-path="url(#pfdaa919146)" style="fill: #324880"/>
    <path d="M 811.082632 335.894555 
L 826.05663 323.127027 
L 851.097008 330.474057 
L 836.251923 343.357313 
z
" clip-path="url(#pfdaa919146)" style="fill: #3f599f"/>
    <path d="M 811.082632 335.894555 
L 836.251923 343.357313 
L 851.097008 330.474057 
L 826.05663 323.127027 
z
" clip-path="url(#pfdaa919146)" style="fill: #577ddf"/>
    <path d="M 836.251923 343.357313 
L 851.097008 330.474057 
L 851.097008 330.474057 
L 836.251923 343.357313 
z
" clip-path="url(#pfdaa919146)" style="fill: #648fff"/>
    <path d="M 811.082632 335.894555 
L 836.251923 343.357313 
L 836.251923 343.357313 
L 811.082632 335.894555 
z
" clip-path="url(#pfdaa919146)" style="fill: #324880"/>
    <path d="M 781.477517 418.078075 
L 806.614166 425.945761 
L 821.751266 412.363643 
L 796.742477 404.618453 
z
" clip-path="url(#pfdaa919146)" style="fill: #577ddf"/>
    <path d="M 795.872375 348.86353 
L 796.742477 404.618453 
L 821.751266 412.363643 
L 821.171539 356.444771 
z
" clip-path="url(#pfdaa919146)" style="fill: #648fff"/>
    <path d="M 780.420221 362.038757 
L 781.477517 418.078075 
L 796.742477 404.618453 
L 795.872375 348.86353 
z
" clip-path="url(#pfdaa919146)" style="fill: #324880"/>
    <path d="M 912.799425 406.042024 
L 938.686455 413.900936 
L 952.871579 400.334228 
L 927.12335 392.598387 
z
" clip-path="url(#pfdaa919146)" style="fill: #577ddf"/>
    <path d="M 927.590118 352.917696 
L 927.12335 392.598387 
L 952.871579 400.334228 
L 953.555633 360.536168 
z
" clip-path="url(#pfdaa919146)" style="fill: #648fff"/>
    <path d="M 832.074523 445.218177 
L 857.613546 453.263675 
L 872.450168 439.374908 
L 847.04438 431.45551 
z
" clip-path="url(#pfdaa919146)" style="fill: #577ddf"/>
    <path d="M 913.149823 366.157734 
L 912.799425 406.042024 
L 927.12335 392.598387 
L 927.590118 352.917696 
z
" clip-path="url(#pfdaa919146)" style="fill: #324880"/>
    <path d="M 805.850219 369.741326 
L 821.171539 356.444771 
L 821.751266 412.363643 
L 806.614166 425.945761 
z
" clip-path="url(#pfdaa919146)" style="fill: #648fff"/>
    <path d="M 780.420221 362.038757 
L 805.850219 369.741326 
L 806.614166 425.945761 
L 781.477517 418.078075 
z
" clip-path="url(#pfdaa919146)" style="fill: #324880"/>
    <path d="M 846.703283 364.095709 
L 847.04438 431.45551 
L 872.450168 439.374908 
L 872.47083 371.817308 
z
" clip-path="url(#pfdaa919146)" style="fill: #648fff"/>
    <path d="M 831.515875 377.515275 
L 832.074523 445.218177 
L 847.04438 431.45551 
L 846.703283 364.095709 
z
" clip-path="url(#pfdaa919146)" style="fill: #324880"/>
    <path d="M 780.420221 362.038757 
L 795.872375 348.86353 
L 821.171539 356.444771 
L 805.850219 369.741326 
z
" clip-path="url(#pfdaa919146)" style="fill: #3f599f"/>
    <path d="M 939.25651 373.898433 
L 953.555633 360.536168 
L 952.871579 400.334228 
L 938.686455 413.900936 
z
" clip-path="url(#pfdaa919146)" style="fill: #648fff"/>
    <path d="M 913.149823 366.157734 
L 939.25651 373.898433 
L 938.686455 413.900936 
L 912.799425 406.042024 
z
" clip-path="url(#pfdaa919146)" style="fill: #324880"/>
    <path d="M 913.149823 366.157734 
L 927.590118 352.917696 
L 953.555633 360.536168 
L 939.25651 373.898433 
z
" clip-path="url(#pfdaa919146)" style="fill: #3f599f"/>
    <path d="M 857.420482 385.3616 
L 872.47083 371.817308 
L 872.450168 439.374908 
L 857.613546 453.263675 
z
" clip-path="url(#pfdaa919146)" style="fill: #648fff"/>
    <path d="M 831.515875 377.515275 
L 857.420482 385.3616 
L 857.613546 453.263675 
L 832.074523 445.218177 
z
" clip-path="url(#pfdaa919146)" style="fill: #324880"/>
    <path d="M 831.515875 377.515275 
L 846.703283 364.095709 
L 872.47083 371.817308 
L 857.420482 385.3616 
z
" clip-path="url(#pfdaa919146)" style="fill: #3f599f"/>
   </g>
   <g id="Poly3DCollection_5">
    <path d="M 709.878749 349.604013 
L 915.812566 412.317852 
L 1027.943963 306.517704 
L 830.395753 251.156249 
z
" clip-path="url(#pfdaa919146)" style="fill-opacity: 0.25"/>
   </g>
   <g id="Poly3DCollection_6">
    <path d="M 869.614855 285.987252 
L 883.696796 273.980333 
L 908.23118 280.890365 
L 894.274289 293.002805 
z
" clip-path="url(#pfdaa919146)" style="fill: #3f599f"/>
    <path d="M 883.696796 273.980333 
L 883.798144 234.936434 
L 908.529758 241.729983 
L 908.23118 280.890365 
z
" clip-path="url(#pfdaa919146)" style="fill: #324880"/>
    <path d="M 869.614855 285.987252 
L 869.603666 246.741255 
L 883.798144 234.936434 
L 883.696796 273.980333 
z
" clip-path="url(#pfdaa919146)" style="fill: #648fff"/>
    <path d="M 894.274289 293.002805 
L 908.23118 280.890365 
L 908.529758 241.729983 
L 894.462357 253.639386 
z
" clip-path="url(#pfdaa919146)" style="fill: #324880"/>
    <path d="M 791.634175 296.279757 
L 806.397503 284.117873 
L 830.749989 291.116944 
L 816.108107 303.386402 
z
" clip-path="url(#pfdaa919146)" style="fill: #3f599f"/>
    <path d="M 869.614855 285.987252 
L 894.274289 293.002805 
L 894.462357 253.639386 
L 869.603666 246.741255 
z
" clip-path="url(#pfdaa919146)" style="fill: #648fff"/>
    <path d="M 869.603666 246.741255 
L 894.462357 253.639386 
L 908.529758 241.729983 
L 883.798144 234.936434 
z
" clip-path="url(#pfdaa919146)" style="fill: #577ddf"/>
    <path d="M 806.397503 284.117873 
L 805.509736 217.07403 
L 830.19438 223.870912 
L 830.749989 291.116944 
z
" clip-path="url(#pfdaa919146)" style="fill: #324880"/>
    <path d="M 791.634175 296.279757 
L 790.5351 228.885108 
L 805.509736 217.07403 
L 806.397503 284.117873 
z
" clip-path="url(#pfdaa919146)" style="fill: #648fff"/>
    <path d="M 983.137364 301.987457 
L 983.137364 301.987457 
L 1008.55009 309.144871 
L 1008.55009 309.144871 
z
" clip-path="url(#pfdaa919146)" style="fill: #324880"/>
    <path d="M 969.572381 314.424938 
L 969.572381 314.424938 
L 983.137364 301.987457 
L 983.137364 301.987457 
z
" clip-path="url(#pfdaa919146)" style="fill: #324880"/>
    <path d="M 816.108107 303.386402 
L 830.749989 291.116944 
L 830.19438 223.870912 
L 815.344516 235.787911 
z
" clip-path="url(#pfdaa919146)" style="fill: #324880"/>
    <path d="M 791.634175 296.279757 
L 816.108107 303.386402 
L 815.344516 235.787911 
L 790.5351 228.885108 
z
" clip-path="url(#pfdaa919146)" style="fill: #648fff"/>
    <path d="M 969.572381 314.424938 
L 995.121529 321.693612 
L 1008.55009 309.144871 
L 983.137364 301.987457 
z
" clip-path="url(#pfdaa919146)" style="fill: #577ddf"/>
    <path d="M 969.572381 314.424938 
L 983.137364 301.987457 
L 1008.55009 309.144871 
L 995.121529 321.693612 
z
" clip-path="url(#pfdaa919146)" style="fill: #3f599f"/>
    <path d="M 995.121529 321.693612 
L 1008.55009 309.144871 
L 1008.55009 309.144871 
L 995.121529 321.693612 
z
" clip-path="url(#pfdaa919146)" style="fill: #324880"/>
    <path d="M 790.5351 228.885108 
L 815.344516 235.787911 
L 830.19438 223.870912 
L 805.509736 217.07403 
z
" clip-path="url(#pfdaa919146)" style="fill: #577ddf"/>
    <path d="M 969.572381 314.424938 
L 995.121529 321.693612 
L 995.121529 321.693612 
L 969.572381 314.424938 
z
" clip-path="url(#pfdaa919146)" style="fill: #324880"/>
    <path d="M 761.420389 321.169575 
L 776.643566 308.628872 
L 801.239809 315.84559 
L 786.139802 328.498943 
z
" clip-path="url(#pfdaa919146)" style="fill: #3f599f"/>
    <path d="M 776.643566 308.628872 
L 775.552347 252.488706 
L 800.429383 259.535738 
L 801.239809 315.84559 
z
" clip-path="url(#pfdaa919146)" style="fill: #324880"/>
    <path d="M 761.420389 321.169575 
L 760.143182 264.735007 
L 775.552347 252.488706 
L 776.643566 308.628872 
z
" clip-path="url(#pfdaa919146)" style="fill: #648fff"/>
    <path d="M 955.796186 327.056075 
L 955.796186 327.056075 
L 981.482936 334.438623 
L 981.482936 334.438623 
z
" clip-path="url(#pfdaa919146)" style="fill: #324880"/>
    <path d="M 786.139802 328.498943 
L 801.239809 315.84559 
L 800.429383 259.535738 
L 785.146196 271.89333 
z
" clip-path="url(#pfdaa919146)" style="fill: #324880"/>
    <path d="M 941.803808 339.885427 
L 941.803808 339.885427 
L 955.796186 327.056075 
L 955.796186 327.056075 
z
" clip-path="url(#pfdaa919146)" style="fill: #648fff"/>
    <path d="M 761.420389 321.169575 
L 786.139802 328.498943 
L 785.146196 271.89333 
L 760.143182 264.735007 
z
" clip-path="url(#pfdaa919146)" style="fill: #648fff"/>
    <path d="M 941.803808 339.885427 
L 955.796186 327.056075 
L 981.482936 334.438623 
L 967.629346 347.384546 
z
" clip-path="url(#pfdaa919146)" style="fill: #3f599f"/>
    <path d="M 941.803808 339.885427 
L 967.629346 347.384546 
L 981.482936 334.438623 
L 955.796186 327.056075 
z
" clip-path="url(#pfdaa919146)" style="fill: #577ddf"/>
    <path d="M 760.143182 264.735007 
L 785.146196 271.89333 
L 800.429383 259.535738 
L 775.552347 252.488706 
z
" clip-path="url(#pfdaa919146)" style="fill: #577ddf"/>
    <path d="M 745.959189 333.906359 
L 745.959189 333.906359 
L 770.802627 341.351036 
L 770.802627 341.351036 
z
" clip-path="url(#pfdaa919146)" style="fill: #324880"/>
    <path d="M 730.254339 346.84386 
L 730.254339 346.84386 
L 745.959189 333.906359 
L 745.959189 333.906359 
z
" clip-path="url(#pfdaa919146)" style="fill: #648fff"/>
    <path d="M 967.629346 347.384546 
L 981.482936 334.438623 
L 981.482936 334.438623 
L 967.629346 347.384546 
z
" clip-path="url(#pfdaa919146)" style="fill: #324880"/>
    <path d="M 941.803808 339.885427 
L 967.629346 347.384546 
L 967.629346 347.384546 
L 941.803808 339.885427 
z
" clip-path="url(#pfdaa919146)" style="fill: #648fff"/>
    <path d="M 730.254339 346.84386 
L 745.959189 333.906359 
L 770.802627 341.351036 
L 755.222652 354.406588 
z
" clip-path="url(#pfdaa919146)" style="fill: #3f599f"/>
    <path d="M 730.254339 346.84386 
L 755.222652 354.406588 
L 770.802627 341.351036 
L 745.959189 333.906359 
z
" clip-path="url(#pfdaa919146)" style="fill: #577ddf"/>
    <path d="M 755.222652 354.406588 
L 770.802627 341.351036 
L 770.802627 341.351036 
L 755.222652 354.406588 
z
" clip-path="url(#pfdaa919146)" style="fill: #324880"/>
    <path d="M 861.650772 350.888136 
L 876.36398 337.887572 
L 901.860635 345.368477 
L 887.282334 358.487959 
z
" clip-path="url(#pfdaa919146)" style="fill: #3f599f"/>
    <path d="M 730.254339 346.84386 
L 755.222652 354.406588 
L 755.222652 354.406588 
L 730.254339 346.84386 
z
" clip-path="url(#pfdaa919146)" style="fill: #648fff"/>
    <path d="M 876.36398 337.887572 
L 876.462429 249.234392 
L 902.430138 256.442998 
L 901.860635 345.368477 
z
" clip-path="url(#pfdaa919146)" style="fill: #324880"/>
    <path d="M 861.650772 350.888136 
L 861.477524 261.762517 
L 876.462429 249.234392 
L 876.36398 337.887572 
z
" clip-path="url(#pfdaa919146)" style="fill: #648fff"/>
    <path d="M 887.282334 358.487959 
L 901.860635 345.368477 
L 902.430138 256.442998 
L 887.58519 269.087848 
z
" clip-path="url(#pfdaa919146)" style="fill: #324880"/>
    <path d="M 861.650772 350.888136 
L 887.282334 358.487959 
L 887.58519 269.087848 
L 861.477524 261.762517 
z
" clip-path="url(#pfdaa919146)" style="fill: #648fff"/>
    <path d="M 861.477524 261.762517 
L 887.58519 269.087848 
L 902.430138 256.442998 
L 876.462429 249.234392 
z
" clip-path="url(#pfdaa919146)" style="fill: #577ddf"/>
    <path d="M 898.47746 379.610551 
L 898.658983 348.002311 
L 925.083147 355.77212 
L 924.726518 387.476441 
z
" clip-path="url(#pfdaa919146)" style="fill: #324880"/>
    <path d="M 883.567391 393.281317 
L 898.47746 379.610551 
L 924.726518 387.476441 
L 909.960018 401.27546 
z
" clip-path="url(#pfdaa919146)" style="fill: #3f599f"/>
    <path d="M 883.567391 393.281317 
L 883.651072 361.506396 
L 898.658983 348.002311 
L 898.47746 379.610551 
z
" clip-path="url(#pfdaa919146)" style="fill: #648fff"/>
    <path d="M 909.960018 401.27546 
L 924.726518 387.476441 
L 925.083147 355.77212 
L 910.220738 369.40374 
z
" clip-path="url(#pfdaa919146)" style="fill: #324880"/>
    <path d="M 883.651072 361.506396 
L 910.220738 369.40374 
L 925.083147 355.77212 
L 898.658983 348.002311 
z
" clip-path="url(#pfdaa919146)" style="fill: #577ddf"/>
    <path d="M 883.567391 393.281317 
L 909.960018 401.27546 
L 910.220738 369.40374 
L 883.651072 361.506396 
z
" clip-path="url(#pfdaa919146)" style="fill: #648fff"/>
   </g>
   <g id="text_33">
    <!-- Imaginary Amplitude (ρ) -->
    <g transform="translate(735.696563 51.6) scale(0.21 -0.21)">
     <defs>
      <path id="DejaVuSans-49" d="M 628 4666 
L 1259 4666 
L 1259 0 
L 628 0 
L 628 4666 
z
" transform="scale(0.015625)"/>
      <path id="DejaVuSans-67" d="M 2906 1791 
Q 2906 2416 2648 2759 
Q 2391 3103 1925 3103 
Q 1463 3103 1205 2759 
Q 947 2416 947 1791 
Q 947 1169 1205 825 
Q 1463 481 1925 481 
Q 2391 481 2648 825 
Q 2906 1169 2906 1791 
z
M 3481 434 
Q 3481 -459 3084 -895 
Q 2688 -1331 1869 -1331 
Q 1566 -1331 1297 -1286 
Q 1028 -1241 775 -1147 
L 775 -588 
Q 1028 -725 1275 -790 
Q 1522 -856 1778 -856 
Q 2344 -856 2625 -561 
Q 2906 -266 2906 331 
L 2906 616 
Q 2728 306 2450 153 
Q 2172 0 1784 0 
Q 1141 0 747 490 
Q 353 981 353 1791 
Q 353 2603 747 3093 
Q 1141 3584 1784 3584 
Q 2172 3584 2450 3431 
Q 2728 3278 2906 2969 
L 2906 3500 
L 3481 3500 
L 3481 434 
z
" transform="scale(0.015625)"/>
      <path id="DejaVuSans-6e" d="M 3513 2113 
L 3513 0 
L 2938 0 
L 2938 2094 
Q 2938 2591 2744 2837 
Q 2550 3084 2163 3084 
Q 1697 3084 1428 2787 
Q 1159 2491 1159 1978 
L 1159 0 
L 581 0 
L 581 3500 
L 1159 3500 
L 1159 2956 
Q 1366 3272 1645 3428 
Q 1925 3584 2291 3584 
Q 2894 3584 3203 3211 
Q 3513 2838 3513 2113 
z
" transform="scale(0.015625)"/>
      <path id="DejaVuSans-72" d="M 2631 2963 
Q 2534 3019 2420 3045 
Q 2306 3072 2169 3072 
Q 1681 3072 1420 2755 
Q 1159 2438 1159 1844 
L 1159 0 
L 581 0 
L 581 3500 
L 1159 3500 
L 1159 2956 
Q 1341 3275 1631 3429 
Q 1922 3584 2338 3584 
Q 2397 3584 2469 3576 
Q 2541 3569 2628 3553 
L 2631 2963 
z
" transform="scale(0.015625)"/>
      <path id="DejaVuSans-79" d="M 2059 -325 
Q 1816 -950 1584 -1140 
Q 1353 -1331 966 -1331 
L 506 -1331 
L 506 -850 
L 844 -850 
Q 1081 -850 1212 -737 
Q 1344 -625 1503 -206 
L 1606 56 
L 191 3500 
L 800 3500 
L 1894 763 
L 2988 3500 
L 3597 3500 
L 2059 -325 
z
" transform="scale(0.015625)"/>
     </defs>
     <use xlink:href="#DejaVuSans-49"/>
     <use xlink:href="#DejaVuSans-6d" x="29.492188"/>
     <use xlink:href="#DejaVuSans-61" x="126.904297"/>
     <use xlink:href="#DejaVuSans-67" x="188.183594"/>
     <use xlink:href="#DejaVuSans-69" x="251.660156"/>
     <use xlink:href="#DejaVuSans-6e" x="279.443359"/>
     <use xlink:href="#DejaVuSans-61" x="342.822266"/>
     <use xlink:href="#DejaVuSans-72" x="404.101562"/>
     <use xlink:href="#DejaVuSans-79" x="445.214844"/>
     <use xlink:href="#DejaVuSans-20" x="504.394531"/>
     <use xlink:href="#DejaVuSans-41" x="536.181641"/>
     <use xlink:href="#DejaVuSans-6d" x="604.589844"/>
     <use xlink:href="#DejaVuSans-70" x="702.001953"/>
     <use xlink:href="#DejaVuSans-6c" x="765.478516"/>
     <use xlink:href="#DejaVuSans-69" x="793.261719"/>
     <use xlink:href="#DejaVuSans-74" x="821.044922"/>
     <use xlink:href="#DejaVuSans-75" x="860.253906"/>
     <use xlink:href="#DejaVuSans-64" x="923.632812"/>
     <use xlink:href="#DejaVuSans-65" x="987.109375"/>
     <use xlink:href="#DejaVuSans-20" x="1048.632812"/>
     <use xlink:href="#DejaVuSans-28" x="1080.419922"/>
     <use xlink:href="#DejaVuSans-3c1" x="1119.433594"/>
     <use xlink:href="#DejaVuSans-29" x="1182.910156"/>
    </g>
   </g>
  </g>
 </g>
 <defs>
  <clipPath id="p866eda16a8">
   <rect x="28.8" y="57.6" width="518.4" height="518.4"/>
  </clipPath>
  <clipPath id="pfdaa919146">
   <rect x="604.8" y="57.6" width="518.4" height="518.4"/>
  </clipPath>
 </defs>
</svg>
