<?xml version="1.0" encoding="utf-8" standalone="no"?>
<!DOCTYPE svg PUBLIC "-//W3C//DTD SVG 1.1//EN"
  "http://www.w3.org/Graphics/SVG/1.1/DTD/svg11.dtd">
<svg xmlns:xlink="http://www.w3.org/1999/xlink" width="1152pt" height="576pt" viewBox="0 0 1152 576" xmlns="http://www.w3.org/2000/svg" version="1.1">
 <metadata>
  <rdf:RDF xmlns:dc="http://purl.org/dc/elements/1.1/" xmlns:cc="http://creativecommons.org/ns#" xmlns:rdf="http://www.w3.org/1999/02/22-rdf-syntax-ns#">
   <cc:Work>
    <dc:type rdf:resource="http://purl.org/dc/dcmitype/StillImage"/>
    <dc:date>2024-11-04T20:32:35.914802</dc:date>
    <dc:format>image/svg+xml</dc:format>
    <dc:creator>
     <cc:Agent>
      <dc:title>Matplotlib v3.9.2, https://matplotlib.org/</dc:title>
     </cc:Agent>
    </dc:creator>
   </cc:Work>
  </rdf:RDF>
 </metadata>
 <defs>
  <style type="text/css">*{stroke-linejoin: round; stroke-linecap: butt}</style>
 </defs>
 <g id="figure_1">
  <g id="patch_1">
   <path d="M 0 576 
L 1152 576 
L 1152 0 
L 0 0 
z
" style="fill: #ffffff"/>
  </g>
  <g id="patch_2">
   <path d="M 28.8 576 
L 547.2 576 
L 547.2 57.6 
L 28.8 57.6 
z
" style="fill: #ffffff"/>
  </g>
  <g id="pane3d_1">
   <g id="patch_3">
    <path d="M 130.07018 436.456468 
L 253.494133 330.550231 
L 251.743197 126.70673 
L 122.643358 223.613571 
" style="fill: #f2f2f2; opacity: 0.5; stroke: #f2f2f2; stroke-linejoin: miter"/>
   </g>
  </g>
  <g id="pane3d_2">
   <g id="patch_4">
    <path d="M 253.494133 330.550231 
L 455.554898 390.069341 
L 462.583588 181.103065 
L 251.743197 126.70673 
" style="fill: #e6e6e6; opacity: 0.5; stroke: #e6e6e6; stroke-linejoin: miter"/>
   </g>
  </g>
  <g id="pane3d_3">
   <g id="patch_5">
    <path d="M 130.07018 436.456468 
L 340.912731 504.076731 
L 455.554898 390.069341 
L 253.494133 330.550231 
" style="fill: #ececec; opacity: 0.5; stroke: #ececec; stroke-linejoin: miter"/>
   </g>
  </g>
  <g id="grid3d_1">
   <g id="Line3DCollection_1">
    <path d="M 148.107564 442.241318 
L 270.817434 335.65299 
L 269.793879 131.363764 
" style="fill: none; stroke: #b0b0b0; stroke-width: 0.8"/>
    <path d="M 204.73198 460.40159 
L 325.154862 351.658648 
L 326.443642 145.979273 
" style="fill: none; stroke: #b0b0b0; stroke-width: 0.8"/>
    <path d="M 262.543747 478.942662 
L 380.560935 367.979086 
L 384.255639 160.894634 
" style="fill: none; stroke: #b0b0b0; stroke-width: 0.8"/>
    <path d="M 321.580608 497.876639 
L 437.067491 384.623682 
L 443.266006 176.119173 
" style="fill: none; stroke: #b0b0b0; stroke-width: 0.8"/>
   </g>
  </g>
  <g id="grid3d_2">
   <g id="Line3DCollection_2">
    <path d="M 134.777648 214.505149 
L 141.642324 426.526772 
L 351.684419 493.364686 
" style="fill: none; stroke: #b0b0b0; stroke-width: 0.8"/>
    <path d="M 171.455878 186.973191 
L 176.657452 396.481386 
L 384.248591 460.980823 
" style="fill: none; stroke: #b0b0b0; stroke-width: 0.8"/>
    <path d="M 206.831169 160.419264 
L 210.480196 367.459145 
L 415.662622 429.740732 
" style="fill: none; stroke: #b0b0b0; stroke-width: 0.8"/>
    <path d="M 240.971738 134.792162 
L 243.170446 339.408664 
L 445.986389 399.584868 
" style="fill: none; stroke: #b0b0b0; stroke-width: 0.8"/>
   </g>
  </g>
  <g id="grid3d_3">
   <g id="Line3DCollection_3">
    <path d="M 456.788849 353.383385 
L 253.186351 294.718365 
L 128.767619 399.126785 
" style="fill: none; stroke: #b0b0b0; stroke-width: 0.8"/>
    <path d="M 458.252276 309.874998 
L 252.821546 252.247911 
L 127.222113 354.83463 
" style="fill: none; stroke: #b0b0b0; stroke-width: 0.8"/>
    <path d="M 459.742421 265.572308 
L 252.450321 209.029963 
L 125.6476 309.711182 
" style="fill: none; stroke: #b0b0b0; stroke-width: 0.8"/>
    <path d="M 461.26002 220.453362 
L 252.072504 165.04461 
L 124.043257 263.732816 
" style="fill: none; stroke: #b0b0b0; stroke-width: 0.8"/>
   </g>
  </g>
  <g id="axis3d_1">
   <g id="line2d_1">
    <path d="M 130.07018 436.456468 
L 340.912731 504.076731 
" style="fill: none; stroke: #000000; stroke-width: 0.8; stroke-linecap: square"/>
   </g>
   <g id="xtick_1">
    <g id="line2d_2">
     <path d="M 149.15236 441.333787 
L 146.014717 444.059209 
" style="fill: none; stroke: #000000; stroke-width: 0.8; stroke-linecap: square"/>
    </g>
    <g id="text_1">
     <!-- 00 -->
     <g transform="translate(120.823877 485.959845) rotate(-45) scale(0.21 -0.21)">
      <defs>
       <path id="DejaVuSans-30" d="M 2034 4250 
Q 1547 4250 1301 3770 
Q 1056 3291 1056 2328 
Q 1056 1369 1301 889 
Q 1547 409 2034 409 
Q 2525 409 2770 889 
Q 3016 1369 3016 2328 
Q 3016 3291 2770 3770 
Q 2525 4250 2034 4250 
z
M 2034 4750 
Q 2819 4750 3233 4129 
Q 3647 3509 3647 2328 
Q 3647 1150 3233 529 
Q 2819 -91 2034 -91 
Q 1250 -91 836 529 
Q 422 1150 422 2328 
Q 422 3509 836 4129 
Q 1250 4750 2034 4750 
z
" transform="scale(0.015625)"/>
      </defs>
      <use xlink:href="#DejaVuSans-30"/>
      <use xlink:href="#DejaVuSans-30" x="63.623047"/>
     </g>
    </g>
   </g>
   <g id="xtick_2">
    <g id="line2d_3">
     <path d="M 205.757946 459.475133 
L 202.676818 462.257419 
" style="fill: none; stroke: #000000; stroke-width: 0.8; stroke-linecap: square"/>
    </g>
    <g id="text_2">
     <!-- 01 -->
     <g transform="translate(177.445975 504.27764) rotate(-45) scale(0.21 -0.21)">
      <defs>
       <path id="DejaVuSans-31" d="M 794 531 
L 1825 531 
L 1825 4091 
L 703 3866 
L 703 4441 
L 1819 4666 
L 2450 4666 
L 2450 531 
L 3481 531 
L 3481 0 
L 794 0 
L 794 531 
z
" transform="scale(0.015625)"/>
      </defs>
      <use xlink:href="#DejaVuSans-30"/>
      <use xlink:href="#DejaVuSans-31" x="63.623047"/>
     </g>
    </g>
   </g>
   <g id="xtick_3">
    <g id="line2d_4">
     <path d="M 263.54986 477.996682 
L 260.528321 480.837631 
" style="fill: none; stroke: #000000; stroke-width: 0.8; stroke-linecap: square"/>
    </g>
    <g id="text_3">
     <!-- 10 -->
     <g transform="translate(235.256492 522.9799) rotate(-45) scale(0.21 -0.21)">
      <use xlink:href="#DejaVuSans-31"/>
      <use xlink:href="#DejaVuSans-30" x="63.623047"/>
     </g>
    </g>
   </g>
   <g id="xtick_4">
    <g id="line2d_5">
     <path d="M 322.565792 496.910512 
L 319.607072 499.811999 
" style="fill: none; stroke: #000000; stroke-width: 0.8; stroke-linecap: square"/>
    </g>
    <g id="text_4">
     <!-- 11 -->
     <g transform="translate(294.293241 542.078858) rotate(-45) scale(0.21 -0.21)">
      <use xlink:href="#DejaVuSans-31"/>
      <use xlink:href="#DejaVuSans-31" x="63.623047"/>
     </g>
    </g>
   </g>
  </g>
  <g id="axis3d_2">
   <g id="line2d_6">
    <path d="M 455.554898 390.069341 
L 340.912731 504.076731 
" style="fill: none; stroke: #000000; stroke-width: 0.8; stroke-linecap: square"/>
   </g>
   <g id="xtick_5">
    <g id="line2d_7">
     <path d="M 349.939872 492.809551 
L 355.176743 494.475986 
" style="fill: none; stroke: #000000; stroke-width: 0.8; stroke-linecap: square"/>
    </g>
    <g id="text_5">
     <!-- 00 -->
     <g transform="translate(362.536948 505.408703) rotate(-337.5) scale(0.21 -0.21)">
      <use xlink:href="#DejaVuSans-30"/>
      <use xlink:href="#DejaVuSans-30" x="63.623047"/>
     </g>
    </g>
   </g>
   <g id="xtick_6">
    <g id="line2d_8">
     <path d="M 382.525541 460.445465 
L 387.697822 462.052514 
" style="fill: none; stroke: #000000; stroke-width: 0.8; stroke-linecap: square"/>
    </g>
    <g id="text_6">
     <!-- 01 -->
     <g transform="translate(394.927992 472.820772) rotate(-337.5) scale(0.21 -0.21)">
      <use xlink:href="#DejaVuSans-30"/>
      <use xlink:href="#DejaVuSans-31" x="63.623047"/>
     </g>
    </g>
   </g>
   <g id="xtick_7">
    <g id="line2d_9">
     <path d="M 413.960652 429.224112 
L 419.0696 430.774895 
" style="fill: none; stroke: #000000; stroke-width: 0.8; stroke-linecap: square"/>
    </g>
    <g id="text_7">
     <!-- 10 -->
     <g transform="translate(426.175291 441.383538) rotate(-337.5) scale(0.21 -0.21)">
      <use xlink:href="#DejaVuSans-31"/>
      <use xlink:href="#DejaVuSans-30" x="63.623047"/>
     </g>
    </g>
   </g>
   <g id="xtick_8">
    <g id="line2d_10">
     <path d="M 444.305087 399.08602 
L 449.351944 400.58344 
" style="fill: none; stroke: #000000; stroke-width: 0.8; stroke-linecap: square"/>
    </g>
    <g id="text_8">
     <!-- 11 -->
     <g transform="translate(456.338373 411.037112) rotate(-337.5) scale(0.21 -0.21)">
      <use xlink:href="#DejaVuSans-31"/>
      <use xlink:href="#DejaVuSans-31" x="63.623047"/>
     </g>
    </g>
   </g>
  </g>
  <g id="axis3d_3">
   <g id="line2d_11">
    <path d="M 455.554898 390.069341 
L 462.583588 181.103065 
" style="fill: none; stroke: #000000; stroke-width: 0.8; stroke-linecap: square"/>
   </g>
   <g id="xtick_9">
    <g id="line2d_12">
     <path d="M 455.100904 352.897029 
L 460.167706 354.356952 
" style="fill: none; stroke: #000000; stroke-width: 0.8; stroke-linecap: square"/>
    </g>
    <g id="text_9">
     <!-- 0.1 -->
     <g transform="translate(470.370263 347.122078) scale(0.21 -0.21)">
      <defs>
       <path id="DejaVuSans-2e" d="M 684 794 
L 1344 794 
L 1344 0 
L 684 0 
L 684 794 
z
" transform="scale(0.015625)"/>
      </defs>
      <use xlink:href="#DejaVuSans-30"/>
      <use xlink:href="#DejaVuSans-2e" x="63.623047"/>
      <use xlink:href="#DejaVuSans-31" x="95.410156"/>
     </g>
    </g>
   </g>
   <g id="xtick_10">
    <g id="line2d_13">
     <path d="M 456.548635 309.397095 
L 461.662581 310.831651 
" style="fill: none; stroke: #000000; stroke-width: 0.8; stroke-linecap: square"/>
    </g>
    <g id="text_10">
     <!-- 0.2 -->
     <g transform="translate(471.954718 303.646625) scale(0.21 -0.21)">
      <defs>
       <path id="DejaVuSans-32" d="M 1228 531 
L 3431 531 
L 3431 0 
L 469 0 
L 469 531 
Q 828 903 1448 1529 
Q 2069 2156 2228 2338 
Q 2531 2678 2651 2914 
Q 2772 3150 2772 3378 
Q 2772 3750 2511 3984 
Q 2250 4219 1831 4219 
Q 1534 4219 1204 4116 
Q 875 4013 500 3803 
L 500 4441 
Q 881 4594 1212 4672 
Q 1544 4750 1819 4750 
Q 2544 4750 2975 4387 
Q 3406 4025 3406 3419 
Q 3406 3131 3298 2873 
Q 3191 2616 2906 2266 
Q 2828 2175 2409 1742 
Q 1991 1309 1228 531 
z
" transform="scale(0.015625)"/>
      </defs>
      <use xlink:href="#DejaVuSans-30"/>
      <use xlink:href="#DejaVuSans-2e" x="63.623047"/>
      <use xlink:href="#DejaVuSans-32" x="95.410156"/>
     </g>
    </g>
   </g>
   <g id="xtick_11">
    <g id="line2d_14">
     <path d="M 458.022789 265.10325 
L 463.184762 266.511263 
" style="fill: none; stroke: #000000; stroke-width: 0.8; stroke-linecap: square"/>
    </g>
    <g id="text_11">
     <!-- 0.3 -->
     <g transform="translate(473.568065 259.378391) scale(0.21 -0.21)">
      <defs>
       <path id="DejaVuSans-33" d="M 2597 2516 
Q 3050 2419 3304 2112 
Q 3559 1806 3559 1356 
Q 3559 666 3084 287 
Q 2609 -91 1734 -91 
Q 1441 -91 1130 -33 
Q 819 25 488 141 
L 488 750 
Q 750 597 1062 519 
Q 1375 441 1716 441 
Q 2309 441 2620 675 
Q 2931 909 2931 1356 
Q 2931 1769 2642 2001 
Q 2353 2234 1838 2234 
L 1294 2234 
L 1294 2753 
L 1863 2753 
Q 2328 2753 2575 2939 
Q 2822 3125 2822 3475 
Q 2822 3834 2567 4026 
Q 2313 4219 1838 4219 
Q 1578 4219 1281 4162 
Q 984 4106 628 3988 
L 628 4550 
Q 988 4650 1302 4700 
Q 1616 4750 1894 4750 
Q 2613 4750 3031 4423 
Q 3450 4097 3450 3541 
Q 3450 3153 3228 2886 
Q 3006 2619 2597 2516 
z
" transform="scale(0.015625)"/>
      </defs>
      <use xlink:href="#DejaVuSans-30"/>
      <use xlink:href="#DejaVuSans-2e" x="63.623047"/>
      <use xlink:href="#DejaVuSans-33" x="95.410156"/>
     </g>
    </g>
   </g>
   <g id="xtick_12">
    <g id="line2d_15">
     <path d="M 459.524095 219.993557 
L 464.735006 221.373802 
" style="fill: none; stroke: #000000; stroke-width: 0.8; stroke-linecap: square"/>
    </g>
    <g id="text_12">
     <!-- 0.4 -->
     <g transform="translate(475.211103 214.295493) scale(0.21 -0.21)">
      <defs>
       <path id="DejaVuSans-34" d="M 2419 4116 
L 825 1625 
L 2419 1625 
L 2419 4116 
z
M 2253 4666 
L 3047 4666 
L 3047 1625 
L 3713 1625 
L 3713 1100 
L 3047 1100 
L 3047 0 
L 2419 0 
L 2419 1100 
L 313 1100 
L 313 1709 
L 2253 4666 
z
" transform="scale(0.015625)"/>
      </defs>
      <use xlink:href="#DejaVuSans-30"/>
      <use xlink:href="#DejaVuSans-2e" x="63.623047"/>
      <use xlink:href="#DejaVuSans-34" x="95.410156"/>
     </g>
    </g>
   </g>
  </g>
  <g id="axes_1">
   <g id="Poly3DCollection_1">
    <path d="M 255.127039 339.612241 
L 254.947949 317.949521 
L 281.964067 325.844142 
L 282.022654 347.576102 
z
" clip-path="url(#p7fdc69f715)" style="fill: #324880"/>
    <path d="M 239.096989 353.455033 
L 238.84379 331.67218 
L 254.947949 317.949521 
L 255.127039 339.612241 
z
" clip-path="url(#p7fdc69f715)" style="fill: #648fff"/>
    <path d="M 239.096989 353.455033 
L 255.127039 339.612241 
L 282.022654 347.576102 
L 266.141535 361.553602 
z
" clip-path="url(#p7fdc69f715)" style="fill: #3f599f"/>
    <path d="M 238.84379 331.67218 
L 266.010176 339.700947 
L 281.964067 325.844142 
L 254.947949 317.949521 
z
" clip-path="url(#p7fdc69f715)" style="fill: #577ddf"/>
    <path d="M 266.141535 361.553602 
L 282.022654 347.576102 
L 281.964067 325.844142 
L 266.010176 339.700947 
z
" clip-path="url(#p7fdc69f715)" style="fill: #324880"/>
    <path d="M 239.096989 353.455033 
L 266.141535 361.553602 
L 266.010176 339.700947 
L 238.84379 331.67218 
z
" clip-path="url(#p7fdc69f715)" style="fill: #648fff"/>
    <path d="M 309.179531 355.617323 
L 309.260588 328.123761 
L 336.840537 336.155179 
L 336.601494 363.737036 
z
" clip-path="url(#p7fdc69f715)" style="fill: #324880"/>
    <path d="M 293.451019 369.731508 
L 309.179531 355.617323 
L 336.601494 363.737036 
L 321.029351 377.989921 
z
" clip-path="url(#p7fdc69f715)" style="fill: #3f599f"/>
    <path d="M 293.451019 369.731508 
L 293.442054 342.084753 
L 309.260588 328.123761 
L 309.179531 355.617323 
z
" clip-path="url(#p7fdc69f715)" style="fill: #648fff"/>
    <path d="M 321.029351 377.989921 
L 336.601494 363.737036 
L 336.840537 336.155179 
L 321.180187 350.254159 
z
" clip-path="url(#p7fdc69f715)" style="fill: #324880"/>
    <path d="M 293.442054 342.084753 
L 321.180187 350.254159 
L 336.840537 336.155179 
L 309.260588 328.123761 
z
" clip-path="url(#p7fdc69f715)" style="fill: #577ddf"/>
    <path d="M 293.451019 369.731508 
L 321.029351 377.989921 
L 321.180187 350.254159 
L 293.442054 342.084753 
z
" clip-path="url(#p7fdc69f715)" style="fill: #648fff"/>
    <path d="M 206.215015 381.850348 
L 222.795302 367.532398 
L 249.989981 375.769122 
L 233.561023 390.228794 
z
" clip-path="url(#p7fdc69f715)" style="fill: #3f599f"/>
    <path d="M 364.292444 371.936398 
L 364.690366 344.419295 
L 392.817649 352.610864 
L 392.25636 380.216585 
z
" clip-path="url(#p7fdc69f715)" style="fill: #324880"/>
    <path d="M 348.880523 386.330036 
L 364.292444 371.936398 
L 392.25636 380.216585 
L 377.008602 394.753072 
z
" clip-path="url(#p7fdc69f715)" style="fill: #3f599f"/>
    <path d="M 348.880523 386.330036 
L 349.192598 358.659183 
L 364.690366 344.419295 
L 364.292444 371.936398 
z
" clip-path="url(#p7fdc69f715)" style="fill: #648fff"/>
    <path d="M 222.795302 367.532398 
L 221.262889 265.759004 
L 249.029886 273.660437 
L 249.989981 375.769122 
z
" clip-path="url(#p7fdc69f715)" style="fill: #324880"/>
    <path d="M 377.008602 394.753072 
L 392.25636 380.216585 
L 392.817649 352.610864 
L 377.485987 366.992896 
z
" clip-path="url(#p7fdc69f715)" style="fill: #324880"/>
    <path d="M 206.215015 381.850348 
L 204.314296 279.495172 
L 221.262889 265.759004 
L 222.795302 367.532398 
z
" clip-path="url(#p7fdc69f715)" style="fill: #648fff"/>
    <path d="M 349.192598 358.659183 
L 377.485987 366.992896 
L 392.817649 352.610864 
L 364.690366 344.419295 
z
" clip-path="url(#p7fdc69f715)" style="fill: #577ddf"/>
    <path d="M 420.497295 388.578798 
L 420.655833 382.546772 
L 449.214929 390.972895 
L 449.019389 397.024263 
z
" clip-path="url(#p7fdc69f715)" style="fill: #324880"/>
    <path d="M 348.880523 386.330036 
L 377.008602 394.753072 
L 377.485987 366.992896 
L 349.192598 358.659183 
z
" clip-path="url(#p7fdc69f715)" style="fill: #648fff"/>
    <path d="M 261.179545 398.690735 
L 277.453346 384.087227 
L 305.189401 392.487924 
L 289.074675 407.237425 
z
" clip-path="url(#p7fdc69f715)" style="fill: #3f599f"/>
    <path d="M 405.417739 403.260272 
L 405.558435 397.19469 
L 420.655833 382.546772 
L 420.497295 388.578798 
z
" clip-path="url(#p7fdc69f715)" style="fill: #648fff"/>
    <path d="M 405.417739 403.260272 
L 420.497295 388.578798 
L 449.019389 397.024263 
L 434.112168 411.852904 
z
" clip-path="url(#p7fdc69f715)" style="fill: #3f599f"/>
    <path d="M 233.561023 390.228794 
L 249.989981 375.769122 
L 249.029886 273.660437 
L 232.239033 287.535487 
z
" clip-path="url(#p7fdc69f715)" style="fill: #324880"/>
    <path d="M 405.558435 397.19469 
L 434.29032 405.767831 
L 449.214929 390.972895 
L 420.655833 382.546772 
z
" clip-path="url(#p7fdc69f715)" style="fill: #577ddf"/>
    <path d="M 206.215015 381.850348 
L 233.561023 390.228794 
L 232.239033 287.535487 
L 204.314296 279.495172 
z
" clip-path="url(#p7fdc69f715)" style="fill: #648fff"/>
    <path d="M 434.112168 411.852904 
L 449.019389 397.024263 
L 449.214929 390.972895 
L 434.29032 405.767831 
z
" clip-path="url(#p7fdc69f715)" style="fill: #324880"/>
    <path d="M 172.189574 411.233107 
L 189.348923 396.415106 
L 216.847453 404.938962 
L 199.841812 419.906193 
z
" clip-path="url(#p7fdc69f715)" style="fill: #3f599f"/>
    <path d="M 405.417739 403.260272 
L 434.112168 411.852904 
L 434.29032 405.767831 
L 405.558435 397.19469 
z
" clip-path="url(#p7fdc69f715)" style="fill: #648fff"/>
    <path d="M 277.453346 384.087227 
L 276.976781 254.324662 
L 305.467323 262.292815 
L 305.189401 392.487924 
z
" clip-path="url(#p7fdc69f715)" style="fill: #324880"/>
    <path d="M 317.250589 415.870143 
L 333.202226 400.972449 
L 361.495985 409.542064 
L 345.711549 424.590195 
z
" clip-path="url(#p7fdc69f715)" style="fill: #3f599f"/>
    <path d="M 261.179545 398.690735 
L 260.252977 268.177628 
L 276.976781 254.324662 
L 277.453346 384.087227 
z
" clip-path="url(#p7fdc69f715)" style="fill: #648fff"/>
    <path d="M 204.314296 279.495172 
L 232.239033 287.535487 
L 249.029886 273.660437 
L 221.262889 265.759004 
z
" clip-path="url(#p7fdc69f715)" style="fill: #577ddf"/>
    <path d="M 189.348923 396.415106 
L 187.515783 313.709968 
L 215.484513 321.96165 
L 216.847453 404.938962 
z
" clip-path="url(#p7fdc69f715)" style="fill: #324880"/>
    <path d="M 172.189574 411.233107 
L 170.03987 328.055735 
L 187.515783 313.709968 
L 189.348923 396.415106 
z
" clip-path="url(#p7fdc69f715)" style="fill: #648fff"/>
    <path d="M 289.074675 407.237425 
L 305.189401 392.487924 
L 305.467323 262.292815 
L 288.911383 276.288077 
z
" clip-path="url(#p7fdc69f715)" style="fill: #324880"/>
    <path d="M 227.774455 428.667228 
L 244.622402 413.548502 
L 272.67796 422.245024 
L 255.99179 437.517556 
z
" clip-path="url(#p7fdc69f715)" style="fill: #3f599f"/>
    <path d="M 261.179545 398.690735 
L 289.074675 407.237425 
L 288.911383 276.288077 
L 260.252977 268.177628 
z
" clip-path="url(#p7fdc69f715)" style="fill: #648fff"/>
    <path d="M 199.841812 419.906193 
L 216.847453 404.938962 
L 215.484513 321.96165 
L 198.167567 336.454428 
z
" clip-path="url(#p7fdc69f715)" style="fill: #324880"/>
    <path d="M 390.074926 418.198054 
L 390.636042 390.19178 
L 419.678612 398.84463 
L 418.943382 426.941732 
z
" clip-path="url(#p7fdc69f715)" style="fill: #324880"/>
    <path d="M 333.202226 400.972449 
L 334.244027 271.082644 
L 363.318828 279.218022 
L 361.495985 409.542064 
z
" clip-path="url(#p7fdc69f715)" style="fill: #324880"/>
    <path d="M 374.461902 433.398914 
L 390.074926 418.198054 
L 418.943382 426.941732 
L 403.506084 442.297657 
z
" clip-path="url(#p7fdc69f715)" style="fill: #3f599f"/>
    <path d="M 172.189574 411.233107 
L 199.841812 419.906193 
L 198.167567 336.454428 
L 170.03987 328.055735 
z
" clip-path="url(#p7fdc69f715)" style="fill: #648fff"/>
    <path d="M 374.461902 433.398914 
L 374.935021 405.235066 
L 390.636042 390.19178 
L 390.074926 418.198054 
z
" clip-path="url(#p7fdc69f715)" style="fill: #648fff"/>
    <path d="M 317.250589 415.870143 
L 317.862751 285.226876 
L 334.244027 271.082644 
L 333.202226 400.972449 
z
" clip-path="url(#p7fdc69f715)" style="fill: #648fff"/>
    <path d="M 170.03987 328.055735 
L 198.167567 336.454428 
L 215.484513 321.96165 
L 187.515783 313.709968 
z
" clip-path="url(#p7fdc69f715)" style="fill: #577ddf"/>
    <path d="M 136.959966 441.655727 
L 154.729251 426.311014 
L 182.536374 435.137283 
L 164.923143 450.639273 
z
" clip-path="url(#p7fdc69f715)" style="fill: #3f599f"/>
    <path d="M 403.506084 442.297657 
L 418.943382 426.941732 
L 419.678612 398.84463 
L 404.155466 414.04229 
z
" clip-path="url(#p7fdc69f715)" style="fill: #324880"/>
    <path d="M 374.935021 405.235066 
L 404.155466 414.04229 
L 419.678612 398.84463 
L 390.636042 390.19178 
z
" clip-path="url(#p7fdc69f715)" style="fill: #577ddf"/>
    <path d="M 345.711549 424.590195 
L 361.495985 409.542064 
L 363.318828 279.218022 
L 347.114177 293.509027 
z
" clip-path="url(#p7fdc69f715)" style="fill: #324880"/>
    <path d="M 260.252977 268.177628 
L 288.911383 276.288077 
L 305.467323 262.292815 
L 276.976781 254.324662 
z
" clip-path="url(#p7fdc69f715)" style="fill: #577ddf"/>
    <path d="M 374.461902 433.398914 
L 403.506084 442.297657 
L 404.155466 414.04229 
L 374.935021 405.235066 
z
" clip-path="url(#p7fdc69f715)" style="fill: #648fff"/>
    <path d="M 284.498193 446.45855 
L 301.018401 431.029852 
L 329.648085 439.904339 
L 313.298129 455.49161 
z
" clip-path="url(#p7fdc69f715)" style="fill: #3f599f"/>
    <path d="M 317.250589 415.870143 
L 345.711549 424.590195 
L 347.114177 293.509027 
L 317.862751 285.226876 
z
" clip-path="url(#p7fdc69f715)" style="fill: #648fff"/>
    <path d="M 154.729251 426.311014 
L 152.119104 338.169226 
L 180.432791 346.703625 
L 182.536374 435.137283 
z
" clip-path="url(#p7fdc69f715)" style="fill: #324880"/>
    <path d="M 136.959966 441.655727 
L 133.992675 353.007554 
L 152.119104 338.169226 
L 154.729251 426.311014 
z
" clip-path="url(#p7fdc69f715)" style="fill: #648fff"/>
    <path d="M 193.174949 459.715545 
L 210.627972 444.053847 
L 239.008432 453.062099 
L 221.719874 468.885985 
z
" clip-path="url(#p7fdc69f715)" style="fill: #3f599f"/>
    <path d="M 244.622402 413.548502 
L 242.325653 197.028079 
L 271.654769 204.979265 
L 272.67796 422.245024 
z
" clip-path="url(#p7fdc69f715)" style="fill: #324880"/>
    <path d="M 358.571464 448.869863 
L 358.955478 420.389253 
L 388.356535 429.354501 
L 387.79308 457.927834 
z
" clip-path="url(#p7fdc69f715)" style="fill: #324880"/>
    <path d="M 164.923143 450.639273 
L 182.536374 435.137283 
L 180.432791 346.703625 
L 162.468083 361.696905 
z
" clip-path="url(#p7fdc69f715)" style="fill: #324880"/>
    <path d="M 301.018401 431.029852 
L 301.186319 298.877813 
L 330.620586 307.308121 
L 329.648085 439.904339 
z
" clip-path="url(#p7fdc69f715)" style="fill: #324880"/>
    <path d="M 317.862751 285.226876 
L 347.114177 293.509027 
L 363.318828 279.218022 
L 334.244027 271.082644 
z
" clip-path="url(#p7fdc69f715)" style="fill: #577ddf"/>
    <path d="M 227.774455 428.667228 
L 224.681525 210.853404 
L 242.325653 197.028079 
L 244.622402 413.548502 
z
" clip-path="url(#p7fdc69f715)" style="fill: #648fff"/>
    <path d="M 342.396153 464.618166 
L 358.571464 448.869863 
L 387.79308 457.927834 
L 371.796919 473.839675 
z
" clip-path="url(#p7fdc69f715)" style="fill: #3f599f"/>
    <path d="M 342.396153 464.618166 
L 342.685031 435.976705 
L 358.955478 420.389253 
L 358.571464 448.869863 
z
" clip-path="url(#p7fdc69f715)" style="fill: #648fff"/>
    <path d="M 136.959966 441.655727 
L 164.923143 450.639273 
L 162.468083 361.696905 
L 133.992675 353.007554 
z
" clip-path="url(#p7fdc69f715)" style="fill: #648fff"/>
    <path d="M 284.498193 446.45855 
L 284.202094 313.535829 
L 301.186319 298.877813 
L 301.018401 431.029852 
z
" clip-path="url(#p7fdc69f715)" style="fill: #648fff"/>
    <path d="M 210.627972 444.053847 
L 209.122377 359.84593 
L 238.004016 368.575047 
L 239.008432 453.062099 
z
" clip-path="url(#p7fdc69f715)" style="fill: #324880"/>
    <path d="M 193.174949 459.715545 
L 191.341395 375.023354 
L 209.122377 359.84593 
L 210.627972 444.053847 
z
" clip-path="url(#p7fdc69f715)" style="fill: #648fff"/>
    <path d="M 255.99179 437.517556 
L 272.67796 422.245024 
L 271.654769 204.979265 
L 254.187417 218.951731 
z
" clip-path="url(#p7fdc69f715)" style="fill: #324880"/>
    <path d="M 133.992675 353.007554 
L 162.468083 361.696905 
L 180.432791 346.703625 
L 152.119104 338.169226 
z
" clip-path="url(#p7fdc69f715)" style="fill: #577ddf"/>
    <path d="M 371.796919 473.839675 
L 387.79308 457.927834 
L 388.356535 429.354501 
L 372.267464 445.104812 
z
" clip-path="url(#p7fdc69f715)" style="fill: #324880"/>
    <path d="M 342.685031 435.976705 
L 372.267464 445.104812 
L 388.356535 429.354501 
L 358.955478 420.389253 
z
" clip-path="url(#p7fdc69f715)" style="fill: #577ddf"/>
    <path d="M 313.298129 455.49161 
L 329.648085 439.904339 
L 330.620586 307.308121 
L 313.816357 322.121049 
z
" clip-path="url(#p7fdc69f715)" style="fill: #324880"/>
    <path d="M 227.774455 428.667228 
L 255.99179 437.517556 
L 254.187417 218.951731 
L 224.681525 210.853404 
z
" clip-path="url(#p7fdc69f715)" style="fill: #648fff"/>
    <path d="M 342.396153 464.618166 
L 371.796919 473.839675 
L 372.267464 445.104812 
L 342.685031 435.976705 
z
" clip-path="url(#p7fdc69f715)" style="fill: #648fff"/>
    <path d="M 250.562506 478.152068 
L 267.682233 462.163461 
L 296.653946 471.359383 
L 279.707524 487.515297 
z
" clip-path="url(#p7fdc69f715)" style="fill: #3f599f"/>
    <path d="M 284.498193 446.45855 
L 313.298129 455.49161 
L 313.816357 322.121049 
L 284.202094 313.535829 
z
" clip-path="url(#p7fdc69f715)" style="fill: #648fff"/>
    <path d="M 221.719874 468.885985 
L 239.008432 453.062099 
L 238.004016 368.575047 
L 220.393329 383.912484 
z
" clip-path="url(#p7fdc69f715)" style="fill: #324880"/>
    <path d="M 193.174949 459.715545 
L 221.719874 468.885985 
L 220.393329 383.912484 
L 191.341395 375.023354 
z
" clip-path="url(#p7fdc69f715)" style="fill: #648fff"/>
    <path d="M 267.682233 462.163461 
L 267.068909 356.63737 
L 296.691148 365.480246 
L 296.653946 471.359383 
z
" clip-path="url(#p7fdc69f715)" style="fill: #324880"/>
    <path d="M 191.341395 375.023354 
L 220.393329 383.912484 
L 238.004016 368.575047 
L 209.122377 359.84593 
z
" clip-path="url(#p7fdc69f715)" style="fill: #577ddf"/>
    <path d="M 325.928239 480.651347 
L 326.079057 457.813125 
L 355.806527 467.128205 
L 355.509877 490.040865 
z
" clip-path="url(#p7fdc69f715)" style="fill: #324880"/>
    <path d="M 250.562506 478.152068 
L 249.55568 372.013474 
L 267.068909 356.63737 
L 267.682233 462.163461 
z
" clip-path="url(#p7fdc69f715)" style="fill: #648fff"/>
    <path d="M 284.202094 313.535829 
L 313.816357 322.121049 
L 330.620586 307.308121 
L 301.186319 298.877813 
z
" clip-path="url(#p7fdc69f715)" style="fill: #577ddf"/>
    <path d="M 309.159711 496.977207 
L 309.229378 474.009864 
L 326.079057 457.813125 
L 325.928239 480.651347 
z
" clip-path="url(#p7fdc69f715)" style="fill: #648fff"/>
    <path d="M 309.159711 496.977207 
L 325.928239 480.651347 
L 355.509877 490.040865 
L 338.923947 506.539367 
z
" clip-path="url(#p7fdc69f715)" style="fill: #3f599f"/>
    <path d="M 279.707524 487.515297 
L 296.653946 471.359383 
L 296.691148 365.480246 
L 279.359103 381.020905 
z
" clip-path="url(#p7fdc69f715)" style="fill: #324880"/>
    <path d="M 309.229378 474.009864 
L 339.141263 483.497066 
L 355.806527 467.128205 
L 326.079057 457.813125 
z
" clip-path="url(#p7fdc69f715)" style="fill: #577ddf"/>
    <path d="M 338.923947 506.539367 
L 355.509877 490.040865 
L 355.806527 467.128205 
L 339.141263 483.497066 
z
" clip-path="url(#p7fdc69f715)" style="fill: #324880"/>
    <path d="M 250.562506 478.152068 
L 279.707524 487.515297 
L 279.359103 381.020905 
L 249.55568 372.013474 
z
" clip-path="url(#p7fdc69f715)" style="fill: #648fff"/>
    <path d="M 224.681525 210.853404 
L 254.187417 218.951731 
L 271.654769 204.979265 
L 242.325653 197.028079 
z
" clip-path="url(#p7fdc69f715)" style="fill: #577ddf"/>
    <path d="M 309.159711 496.977207 
L 338.923947 506.539367 
L 339.141263 483.497066 
L 309.229378 474.009864 
z
" clip-path="url(#p7fdc69f715)" style="fill: #648fff"/>
    <path d="M 249.55568 372.013474 
L 279.359103 381.020905 
L 296.691148 365.480246 
L 267.068909 356.63737 
z
" clip-path="url(#p7fdc69f715)" style="fill: #577ddf"/>
   </g>
   <g id="text_13">
    <!-- Real Amplitude (ρ) -->
    <g transform="translate(190.023516 51.6) scale(0.21 -0.21)">
     <defs>
      <path id="DejaVuSans-52" d="M 2841 2188 
Q 3044 2119 3236 1894 
Q 3428 1669 3622 1275 
L 4263 0 
L 3584 0 
L 2988 1197 
Q 2756 1666 2539 1819 
Q 2322 1972 1947 1972 
L 1259 1972 
L 1259 0 
L 628 0 
L 628 4666 
L 2053 4666 
Q 2853 4666 3247 4331 
Q 3641 3997 3641 3322 
Q 3641 2881 3436 2590 
Q 3231 2300 2841 2188 
z
M 1259 4147 
L 1259 2491 
L 2053 2491 
Q 2509 2491 2742 2702 
Q 2975 2913 2975 3322 
Q 2975 3731 2742 3939 
Q 2509 4147 2053 4147 
L 1259 4147 
z
" transform="scale(0.015625)"/>
      <path id="DejaVuSans-65" d="M 3597 1894 
L 3597 1613 
L 953 1613 
Q 991 1019 1311 708 
Q 1631 397 2203 397 
Q 2534 397 2845 478 
Q 3156 559 3463 722 
L 3463 178 
Q 3153 47 2828 -22 
Q 2503 -91 2169 -91 
Q 1331 -91 842 396 
Q 353 884 353 1716 
Q 353 2575 817 3079 
Q 1281 3584 2069 3584 
Q 2775 3584 3186 3129 
Q 3597 2675 3597 1894 
z
M 3022 2063 
Q 3016 2534 2758 2815 
Q 2500 3097 2075 3097 
Q 1594 3097 1305 2825 
Q 1016 2553 972 2059 
L 3022 2063 
z
" transform="scale(0.015625)"/>
      <path id="DejaVuSans-61" d="M 2194 1759 
Q 1497 1759 1228 1600 
Q 959 1441 959 1056 
Q 959 750 1161 570 
Q 1363 391 1709 391 
Q 2188 391 2477 730 
Q 2766 1069 2766 1631 
L 2766 1759 
L 2194 1759 
z
M 3341 1997 
L 3341 0 
L 2766 0 
L 2766 531 
Q 2569 213 2275 61 
Q 1981 -91 1556 -91 
Q 1019 -91 701 211 
Q 384 513 384 1019 
Q 384 1609 779 1909 
Q 1175 2209 1959 2209 
L 2766 2209 
L 2766 2266 
Q 2766 2663 2505 2880 
Q 2244 3097 1772 3097 
Q 1472 3097 1187 3025 
Q 903 2953 641 2809 
L 641 3341 
Q 956 3463 1253 3523 
Q 1550 3584 1831 3584 
Q 2591 3584 2966 3190 
Q 3341 2797 3341 1997 
z
" transform="scale(0.015625)"/>
      <path id="DejaVuSans-6c" d="M 603 4863 
L 1178 4863 
L 1178 0 
L 603 0 
L 603 4863 
z
" transform="scale(0.015625)"/>
      <path id="DejaVuSans-20" transform="scale(0.015625)"/>
      <path id="DejaVuSans-41" d="M 2188 4044 
L 1331 1722 
L 3047 1722 
L 2188 4044 
z
M 1831 4666 
L 2547 4666 
L 4325 0 
L 3669 0 
L 3244 1197 
L 1141 1197 
L 716 0 
L 50 0 
L 1831 4666 
z
" transform="scale(0.015625)"/>
      <path id="DejaVuSans-6d" d="M 3328 2828 
Q 3544 3216 3844 3400 
Q 4144 3584 4550 3584 
Q 5097 3584 5394 3201 
Q 5691 2819 5691 2113 
L 5691 0 
L 5113 0 
L 5113 2094 
Q 5113 2597 4934 2840 
Q 4756 3084 4391 3084 
Q 3944 3084 3684 2787 
Q 3425 2491 3425 1978 
L 3425 0 
L 2847 0 
L 2847 2094 
Q 2847 2600 2669 2842 
Q 2491 3084 2119 3084 
Q 1678 3084 1418 2786 
Q 1159 2488 1159 1978 
L 1159 0 
L 581 0 
L 581 3500 
L 1159 3500 
L 1159 2956 
Q 1356 3278 1631 3431 
Q 1906 3584 2284 3584 
Q 2666 3584 2933 3390 
Q 3200 3197 3328 2828 
z
" transform="scale(0.015625)"/>
      <path id="DejaVuSans-70" d="M 1159 525 
L 1159 -1331 
L 581 -1331 
L 581 3500 
L 1159 3500 
L 1159 2969 
Q 1341 3281 1617 3432 
Q 1894 3584 2278 3584 
Q 2916 3584 3314 3078 
Q 3713 2572 3713 1747 
Q 3713 922 3314 415 
Q 2916 -91 2278 -91 
Q 1894 -91 1617 61 
Q 1341 213 1159 525 
z
M 3116 1747 
Q 3116 2381 2855 2742 
Q 2594 3103 2138 3103 
Q 1681 3103 1420 2742 
Q 1159 2381 1159 1747 
Q 1159 1113 1420 752 
Q 1681 391 2138 391 
Q 2594 391 2855 752 
Q 3116 1113 3116 1747 
z
" transform="scale(0.015625)"/>
      <path id="DejaVuSans-69" d="M 603 3500 
L 1178 3500 
L 1178 0 
L 603 0 
L 603 3500 
z
M 603 4863 
L 1178 4863 
L 1178 4134 
L 603 4134 
L 603 4863 
z
" transform="scale(0.015625)"/>
      <path id="DejaVuSans-74" d="M 1172 4494 
L 1172 3500 
L 2356 3500 
L 2356 3053 
L 1172 3053 
L 1172 1153 
Q 1172 725 1289 603 
Q 1406 481 1766 481 
L 2356 481 
L 2356 0 
L 1766 0 
Q 1100 0 847 248 
Q 594 497 594 1153 
L 594 3053 
L 172 3053 
L 172 3500 
L 594 3500 
L 594 4494 
L 1172 4494 
z
" transform="scale(0.015625)"/>
      <path id="DejaVuSans-75" d="M 544 1381 
L 544 3500 
L 1119 3500 
L 1119 1403 
Q 1119 906 1312 657 
Q 1506 409 1894 409 
Q 2359 409 2629 706 
Q 2900 1003 2900 1516 
L 2900 3500 
L 3475 3500 
L 3475 0 
L 2900 0 
L 2900 538 
Q 2691 219 2414 64 
Q 2138 -91 1772 -91 
Q 1169 -91 856 284 
Q 544 659 544 1381 
z
M 1991 3584 
L 1991 3584 
z
" transform="scale(0.015625)"/>
      <path id="DejaVuSans-64" d="M 2906 2969 
L 2906 4863 
L 3481 4863 
L 3481 0 
L 2906 0 
L 2906 525 
Q 2725 213 2448 61 
Q 2172 -91 1784 -91 
Q 1150 -91 751 415 
Q 353 922 353 1747 
Q 353 2572 751 3078 
Q 1150 3584 1784 3584 
Q 2172 3584 2448 3432 
Q 2725 3281 2906 2969 
z
M 947 1747 
Q 947 1113 1208 752 
Q 1469 391 1925 391 
Q 2381 391 2643 752 
Q 2906 1113 2906 1747 
Q 2906 2381 2643 2742 
Q 2381 3103 1925 3103 
Q 1469 3103 1208 2742 
Q 947 2381 947 1747 
z
" transform="scale(0.015625)"/>
      <path id="DejaVuSans-28" d="M 1984 4856 
Q 1566 4138 1362 3434 
Q 1159 2731 1159 2009 
Q 1159 1288 1364 580 
Q 1569 -128 1984 -844 
L 1484 -844 
Q 1016 -109 783 600 
Q 550 1309 550 2009 
Q 550 2706 781 3412 
Q 1013 4119 1484 4856 
L 1984 4856 
z
" transform="scale(0.015625)"/>
      <path id="DejaVuSans-3c1" d="M 863 2875 
Q 1053 3194 1525 3475 
Q 1709 3584 2278 3584 
Q 2916 3584 3314 3078 
Q 3713 2572 3713 1747 
Q 3713 922 3314 415 
Q 2916 -91 2278 -91 
Q 1894 -91 1617 61 
Q 1341 213 1159 525 
L 1159 -1331 
L 581 -1331 
L 581 1716 
Q 581 2438 863 2875 
z
M 3116 1747 
Q 3116 2381 2855 2742 
Q 2594 3103 2138 3103 
Q 1681 3103 1420 2742 
Q 1159 2381 1159 1747 
Q 1159 1113 1420 752 
Q 1681 391 2138 391 
Q 2594 391 2855 752 
Q 3116 1113 3116 1747 
z
" transform="scale(0.015625)"/>
      <path id="DejaVuSans-29" d="M 513 4856 
L 1013 4856 
Q 1481 4119 1714 3412 
Q 1947 2706 1947 2009 
Q 1947 1309 1714 600 
Q 1481 -109 1013 -844 
L 513 -844 
Q 928 -128 1133 580 
Q 1338 1288 1338 2009 
Q 1338 2731 1133 3434 
Q 928 4138 513 4856 
z
" transform="scale(0.015625)"/>
     </defs>
     <use xlink:href="#DejaVuSans-52"/>
     <use xlink:href="#DejaVuSans-65" x="64.982422"/>
     <use xlink:href="#DejaVuSans-61" x="126.505859"/>
     <use xlink:href="#DejaVuSans-6c" x="187.785156"/>
     <use xlink:href="#DejaVuSans-20" x="215.568359"/>
     <use xlink:href="#DejaVuSans-41" x="247.355469"/>
     <use xlink:href="#DejaVuSans-6d" x="315.763672"/>
     <use xlink:href="#DejaVuSans-70" x="413.175781"/>
     <use xlink:href="#DejaVuSans-6c" x="476.652344"/>
     <use xlink:href="#DejaVuSans-69" x="504.435547"/>
     <use xlink:href="#DejaVuSans-74" x="532.21875"/>
     <use xlink:href="#DejaVuSans-75" x="571.427734"/>
     <use xlink:href="#DejaVuSans-64" x="634.806641"/>
     <use xlink:href="#DejaVuSans-65" x="698.283203"/>
     <use xlink:href="#DejaVuSans-20" x="759.806641"/>
     <use xlink:href="#DejaVuSans-28" x="791.59375"/>
     <use xlink:href="#DejaVuSans-3c1" x="830.607422"/>
     <use xlink:href="#DejaVuSans-29" x="894.083984"/>
    </g>
   </g>
  </g>
  <g id="patch_6">
   <path d="M 604.8 576 
L 1123.2 576 
L 1123.2 57.6 
L 604.8 57.6 
z
" style="fill: #ffffff"/>
  </g>
  <g id="pane3d_4">
   <g id="patch_7">
    <path d="M 706.07018 436.456468 
L 829.494133 330.550231 
L 827.743197 126.70673 
L 698.643358 223.613571 
" style="fill: #f2f2f2; opacity: 0.5; stroke: #f2f2f2; stroke-linejoin: miter"/>
   </g>
  </g>
  <g id="pane3d_5">
   <g id="patch_8">
    <path d="M 829.494133 330.550231 
L 1031.554898 390.069341 
L 1038.583588 181.103065 
L 827.743197 126.70673 
" style="fill: #e6e6e6; opacity: 0.5; stroke: #e6e6e6; stroke-linejoin: miter"/>
   </g>
  </g>
  <g id="pane3d_6">
   <g id="patch_9">
    <path d="M 706.07018 436.456468 
L 916.912731 504.076731 
L 1031.554898 390.069341 
L 829.494133 330.550231 
" style="fill: #ececec; opacity: 0.5; stroke: #ececec; stroke-linejoin: miter"/>
   </g>
  </g>
  <g id="grid3d_4">
   <g id="Line3DCollection_4">
    <path d="M 734.635886 445.617904 
L 856.925726 338.630493 
L 856.328796 134.081748 
" style="fill: none; stroke: #b0b0b0; stroke-width: 0.8"/>
    <path d="M 784.310046 461.549127 
L 904.58611 352.669358 
L 906.022474 146.902603 
" style="fill: none; stroke: #b0b0b0; stroke-width: 0.8"/>
    <path d="M 834.89502 477.772462 
L 953.066152 366.949661 
L 956.607663 159.953465 
" style="fill: none; stroke: #b0b0b0; stroke-width: 0.8"/>
    <path d="M 886.41609 494.296016 
L 1002.38718 381.477685 
L 1008.108569 173.24058 
" style="fill: none; stroke: #b0b0b0; stroke-width: 0.8"/>
   </g>
  </g>
  <g id="grid3d_5">
   <g id="Line3DCollection_5">
    <path d="M 717.757365 209.265931 
L 724.301379 420.812846 
L 933.880707 487.202708 
" style="fill: none; stroke: #b0b0b0; stroke-width: 0.8"/>
    <path d="M 749.704273 185.285468 
L 754.805664 394.638072 
L 962.24502 458.995448 
" style="fill: none; stroke: #b0b0b0; stroke-width: 0.8"/>
    <path d="M 780.65707 162.051218 
L 784.400054 369.24405 
L 989.731787 431.660877 
" style="fill: none; stroke: #b0b0b0; stroke-width: 0.8"/>
    <path d="M 810.661448 139.528886 
L 813.124663 344.596362 
L 1016.38111 405.159111 
" style="fill: none; stroke: #b0b0b0; stroke-width: 0.8"/>
   </g>
  </g>
  <g id="grid3d_6">
   <g id="Line3DCollection_6">
    <path d="M 1031.993055 377.042727 
L 829.384825 317.824681 
L 705.607723 423.203072 
" style="fill: none; stroke: #b0b0b0; stroke-width: 0.8"/>
    <path d="M 1032.921672 349.434504 
L 829.153231 290.862568 
L 704.627378 395.107678 
" style="fill: none; stroke: #b0b0b0; stroke-width: 0.8"/>
    <path d="M 1033.861064 321.50593 
L 828.919045 263.59872 
L 703.635343 366.677245 
" style="fill: none; stroke: #b0b0b0; stroke-width: 0.8"/>
    <path d="M 1034.81142 293.251398 
L 828.682224 236.028042 
L 702.631406 337.905742 
" style="fill: none; stroke: #b0b0b0; stroke-width: 0.8"/>
    <path d="M 1035.772933 264.665167 
L 828.442722 208.145327 
L 701.615352 308.786996 
" style="fill: none; stroke: #b0b0b0; stroke-width: 0.8"/>
    <path d="M 1036.7458 235.741363 
L 828.200495 179.945246 
L 700.586962 279.314683 
" style="fill: none; stroke: #b0b0b0; stroke-width: 0.8"/>
    <path d="M 1037.730224 206.473969 
L 827.955494 151.42235 
L 699.546008 249.482322 
" style="fill: none; stroke: #b0b0b0; stroke-width: 0.8"/>
   </g>
  </g>
  <g id="axis3d_4">
   <g id="line2d_16">
    <path d="M 706.07018 436.456468 
L 916.912731 504.076731 
" style="fill: none; stroke: #000000; stroke-width: 0.8; stroke-linecap: square"/>
   </g>
   <g id="xtick_13">
    <g id="line2d_17">
     <path d="M 735.677227 444.706868 
L 732.549953 447.442819 
" style="fill: none; stroke: #000000; stroke-width: 0.8; stroke-linecap: square"/>
    </g>
    <g id="text_14">
     <!-- 00 -->
     <g transform="translate(707.351686 489.365693) rotate(-45) scale(0.21 -0.21)">
      <use xlink:href="#DejaVuSans-30"/>
      <use xlink:href="#DejaVuSans-30" x="63.623047"/>
     </g>
    </g>
   </g>
   <g id="xtick_14">
    <g id="line2d_18">
     <path d="M 785.334802 460.621468 
L 782.257306 463.407368 
" style="fill: none; stroke: #000000; stroke-width: 0.8; stroke-linecap: square"/>
    </g>
    <g id="text_15">
     <!-- 01 -->
     <g transform="translate(757.023931 505.435143) rotate(-45) scale(0.21 -0.21)">
      <use xlink:href="#DejaVuSans-30"/>
      <use xlink:href="#DejaVuSans-31" x="63.623047"/>
     </g>
    </g>
   </g>
   <g id="xtick_15">
    <g id="line2d_19">
     <path d="M 835.902405 476.82772 
L 832.877048 479.664949 
" style="fill: none; stroke: #000000; stroke-width: 0.8; stroke-linecap: square"/>
    </g>
    <g id="text_16">
     <!-- 10 -->
     <g transform="translate(807.60781 521.799516) rotate(-45) scale(0.21 -0.21)">
      <use xlink:href="#DejaVuSans-31"/>
      <use xlink:href="#DejaVuSans-30" x="63.623047"/>
     </g>
    </g>
   </g>
   <g id="xtick_16">
    <g id="line2d_20">
     <path d="M 887.405283 493.333715 
L 884.434531 496.223705 
" style="fill: none; stroke: #000000; stroke-width: 0.8; stroke-linecap: square"/>
    </g>
    <g id="text_17">
     <!-- 11 -->
     <g transform="translate(859.128654 538.467006) rotate(-45) scale(0.21 -0.21)">
      <use xlink:href="#DejaVuSans-31"/>
      <use xlink:href="#DejaVuSans-31" x="63.623047"/>
     </g>
    </g>
   </g>
  </g>
  <g id="axis3d_5">
   <g id="line2d_21">
    <path d="M 1031.554898 390.069341 
L 916.912731 504.076731 
" style="fill: none; stroke: #000000; stroke-width: 0.8; stroke-linecap: square"/>
   </g>
   <g id="xtick_17">
    <g id="line2d_22">
     <path d="M 932.140222 486.651363 
L 937.364886 488.306415 
" style="fill: none; stroke: #000000; stroke-width: 0.8; stroke-linecap: square"/>
    </g>
    <g id="text_18">
     <!-- 00 -->
     <g transform="translate(944.70027 499.207917) rotate(-337.5) scale(0.21 -0.21)">
      <use xlink:href="#DejaVuSans-30"/>
      <use xlink:href="#DejaVuSans-30" x="63.623047"/>
     </g>
    </g>
   </g>
   <g id="xtick_18">
    <g id="line2d_23">
     <path d="M 960.5233 458.46129 
L 965.691587 460.064734 
" style="fill: none; stroke: #000000; stroke-width: 0.8; stroke-linecap: square"/>
    </g>
    <g id="text_19">
     <!-- 01 -->
     <g transform="translate(972.913817 470.822876) rotate(-337.5) scale(0.21 -0.21)">
      <use xlink:href="#DejaVuSans-30"/>
      <use xlink:href="#DejaVuSans-31" x="63.623047"/>
     </g>
    </g>
   </g>
   <g id="xtick_19">
    <g id="line2d_24">
     <path d="M 988.028511 431.143114 
L 993.141381 432.697327 
" style="fill: none; stroke: #000000; stroke-width: 0.8; stroke-linecap: square"/>
    </g>
    <g id="text_20">
     <!-- 10 -->
     <g transform="translate(1000.254695 443.315808) rotate(-337.5) scale(0.21 -0.21)">
      <use xlink:href="#DejaVuSans-31"/>
      <use xlink:href="#DejaVuSans-30" x="63.623047"/>
     </g>
    </g>
   </g>
   <g id="xtick_20">
    <g id="line2d_25">
     <path d="M 1014.695964 404.657001 
L 1019.754368 406.164215 
" style="fill: none; stroke: #000000; stroke-width: 0.8; stroke-linecap: square"/>
    </g>
    <g id="text_21">
     <!-- 11 -->
     <g transform="translate(1026.762776 416.646599) rotate(-337.5) scale(0.21 -0.21)">
      <use xlink:href="#DejaVuSans-31"/>
      <use xlink:href="#DejaVuSans-31" x="63.623047"/>
     </g>
    </g>
   </g>
  </g>
  <g id="axis3d_6">
   <g id="line2d_26">
    <path d="M 1031.554898 390.069341 
L 1038.583588 181.103065 
" style="fill: none; stroke: #000000; stroke-width: 0.8; stroke-linecap: square"/>
   </g>
   <g id="xtick_21">
    <g id="line2d_27">
     <path d="M 1030.313642 376.551871 
L 1035.354818 378.025299 
" style="fill: none; stroke: #000000; stroke-width: 0.8; stroke-linecap: square"/>
    </g>
    <g id="text_22">
     <!-- −0.2 -->
     <g transform="translate(1045.508642 370.763888) scale(0.21 -0.21)">
      <defs>
       <path id="DejaVuSans-2212" d="M 678 2272 
L 4684 2272 
L 4684 1741 
L 678 1741 
L 678 2272 
z
" transform="scale(0.015625)"/>
      </defs>
      <use xlink:href="#DejaVuSans-2212"/>
      <use xlink:href="#DejaVuSans-30" x="83.789062"/>
      <use xlink:href="#DejaVuSans-2e" x="147.412109"/>
      <use xlink:href="#DejaVuSans-32" x="179.199219"/>
     </g>
    </g>
   </g>
   <g id="xtick_22">
    <g id="line2d_28">
     <path d="M 1031.232303 348.948905 
L 1036.303382 350.406555 
" style="fill: none; stroke: #000000; stroke-width: 0.8; stroke-linecap: square"/>
    </g>
    <g id="text_23">
     <!-- −0.1 -->
     <g transform="translate(1046.514072 343.176149) scale(0.21 -0.21)">
      <use xlink:href="#DejaVuSans-2212"/>
      <use xlink:href="#DejaVuSans-30" x="83.789062"/>
      <use xlink:href="#DejaVuSans-2e" x="147.412109"/>
      <use xlink:href="#DejaVuSans-31" x="179.199219"/>
     </g>
    </g>
   </g>
   <g id="xtick_23">
    <g id="line2d_29">
     <path d="M 1032.16162 321.025745 
L 1037.26296 322.46715 
" style="fill: none; stroke: #000000; stroke-width: 0.8; stroke-linecap: square"/>
    </g>
    <g id="text_24">
     <!-- 0.0 -->
     <g transform="translate(1047.531155 315.268665) scale(0.21 -0.21)">
      <use xlink:href="#DejaVuSans-30"/>
      <use xlink:href="#DejaVuSans-2e" x="63.623047"/>
      <use xlink:href="#DejaVuSans-30" x="95.410156"/>
     </g>
    </g>
   </g>
   <g id="xtick_24">
    <g id="line2d_30">
     <path d="M 1033.10178 292.776786 
L 1038.233744 294.201466 
" style="fill: none; stroke: #000000; stroke-width: 0.8; stroke-linecap: square"/>
    </g>
    <g id="text_25">
     <!-- 0.1 -->
     <g transform="translate(1048.560095 287.035845) scale(0.21 -0.21)">
      <use xlink:href="#DejaVuSans-30"/>
      <use xlink:href="#DejaVuSans-2e" x="63.623047"/>
      <use xlink:href="#DejaVuSans-31" x="95.410156"/>
     </g>
    </g>
   </g>
   <g id="xtick_25">
    <g id="line2d_31">
     <path d="M 1034.052973 264.196293 
L 1039.215931 265.603755 
" style="fill: none; stroke: #000000; stroke-width: 0.8; stroke-linecap: square"/>
    </g>
    <g id="text_26">
     <!-- 0.2 -->
     <g transform="translate(1049.6011 258.471966) scale(0.21 -0.21)">
      <use xlink:href="#DejaVuSans-30"/>
      <use xlink:href="#DejaVuSans-2e" x="63.623047"/>
      <use xlink:href="#DejaVuSans-32" x="95.410156"/>
     </g>
    </g>
   </g>
   <g id="xtick_26">
    <g id="line2d_32">
     <path d="M 1035.015397 235.278395 
L 1040.209723 236.668132 
" style="fill: none; stroke: #000000; stroke-width: 0.8; stroke-linecap: square"/>
    </g>
    <g id="text_27">
     <!-- 0.3 -->
     <g transform="translate(1050.654384 229.571171) scale(0.21 -0.21)">
      <use xlink:href="#DejaVuSans-30"/>
      <use xlink:href="#DejaVuSans-2e" x="63.623047"/>
      <use xlink:href="#DejaVuSans-33" x="95.410156"/>
     </g>
    </g>
   </g>
   <g id="xtick_27">
    <g id="line2d_33">
     <path d="M 1035.989249 206.017081 
L 1041.215328 207.388572 
" style="fill: none; stroke: #000000; stroke-width: 0.8; stroke-linecap: square"/>
    </g>
    <g id="text_28">
     <!-- 0.4 -->
     <g transform="translate(1051.720165 200.327464) scale(0.21 -0.21)">
      <use xlink:href="#DejaVuSans-30"/>
      <use xlink:href="#DejaVuSans-2e" x="63.623047"/>
      <use xlink:href="#DejaVuSans-34" x="95.410156"/>
     </g>
    </g>
   </g>
  </g>
  <g id="axes_2">
   <g id="Poly3DCollection_2">
    <path d="M 883.656164 289.633509 
L 883.619361 303.811684 
L 908.003067 310.808874 
L 908.111482 296.589473 
z
" clip-path="url(#p441d77b0bd)" style="fill: #648fff"/>
    <path d="M 869.619341 301.720115 
L 869.623403 315.96981 
L 883.619361 303.811684 
L 883.656164 289.633509 
z
" clip-path="url(#p441d77b0bd)" style="fill: #324880"/>
    <path d="M 869.623403 315.96981 
L 894.130621 323.073189 
L 908.003067 310.808874 
L 883.619361 303.811684 
z
" clip-path="url(#p441d77b0bd)" style="fill: #577ddf"/>
    <path d="M 869.619341 301.720115 
L 883.656164 289.633509 
L 908.111482 296.589473 
L 894.198901 308.781957 
z
" clip-path="url(#p441d77b0bd)" style="fill: #3f599f"/>
    <path d="M 894.198901 308.781957 
L 908.111482 296.589473 
L 908.003067 310.808874 
L 894.130621 323.073189 
z
" clip-path="url(#p441d77b0bd)" style="fill: #648fff"/>
    <path d="M 841.303965 391.549123 
L 865.800992 399.017744 
L 879.951621 386.123012 
L 855.57739 378.766555 
z
" clip-path="url(#p441d77b0bd)" style="fill: #577ddf"/>
    <path d="M 869.619341 301.720115 
L 894.198901 308.781957 
L 894.130621 323.073189 
L 869.623403 315.96981 
z
" clip-path="url(#p441d77b0bd)" style="fill: #324880"/>
    <path d="M 855.368517 313.99099 
L 855.57739 378.766555 
L 879.951621 386.123012 
L 880.073275 321.161144 
z
" clip-path="url(#p441d77b0bd)" style="fill: #648fff"/>
    <path d="M 932.78068 303.606273 
L 932.78068 303.606273 
L 957.666576 310.684709 
L 957.666576 310.684709 
z
" clip-path="url(#p441d77b0bd)" style="fill: #648fff"/>
    <path d="M 840.898761 326.45038 
L 841.303965 391.549123 
L 855.57739 378.766555 
L 855.368517 313.99099 
z
" clip-path="url(#p441d77b0bd)" style="fill: #324880"/>
    <path d="M 918.995068 315.90603 
L 918.995068 315.90603 
L 932.78068 303.606273 
L 932.78068 303.606273 
z
" clip-path="url(#p441d77b0bd)" style="fill: #324880"/>
    <path d="M 918.995068 315.90603 
L 932.78068 303.606273 
L 957.666576 310.684709 
L 944.010717 323.093162 
z
" clip-path="url(#p441d77b0bd)" style="fill: #3f599f"/>
    <path d="M 918.995068 315.90603 
L 944.010717 323.093162 
L 957.666576 310.684709 
L 932.78068 303.606273 
z
" clip-path="url(#p441d77b0bd)" style="fill: #577ddf"/>
    <path d="M 865.729675 333.731357 
L 880.073275 321.161144 
L 879.951621 386.123012 
L 865.800992 399.017744 
z
" clip-path="url(#p441d77b0bd)" style="fill: #648fff"/>
    <path d="M 944.010717 323.093162 
L 957.666576 310.684709 
L 957.666576 310.684709 
L 944.010717 323.093162 
z
" clip-path="url(#p441d77b0bd)" style="fill: #648fff"/>
    <path d="M 840.898761 326.45038 
L 865.729675 333.731357 
L 865.800992 399.017744 
L 841.303965 391.549123 
z
" clip-path="url(#p441d77b0bd)" style="fill: #324880"/>
    <path d="M 918.995068 315.90603 
L 944.010717 323.093162 
L 944.010717 323.093162 
L 918.995068 315.90603 
z
" clip-path="url(#p441d77b0bd)" style="fill: #324880"/>
    <path d="M 982.772037 317.825597 
L 982.772037 317.825597 
L 1008.099982 325.029768 
L 1008.099982 325.029768 
z
" clip-path="url(#p441d77b0bd)" style="fill: #648fff"/>
    <path d="M 840.898761 326.45038 
L 855.368517 313.99099 
L 880.073275 321.161144 
L 865.729675 333.731357 
z
" clip-path="url(#p441d77b0bd)" style="fill: #3f599f"/>
    <path d="M 969.248776 330.344194 
L 969.248776 330.344194 
L 982.772037 317.825597 
L 982.772037 317.825597 
z
" clip-path="url(#p441d77b0bd)" style="fill: #324880"/>
    <path d="M 969.248776 330.344194 
L 982.772037 317.825597 
L 1008.099982 325.029768 
L 994.712224 337.659981 
z
" clip-path="url(#p441d77b0bd)" style="fill: #3f599f"/>
    <path d="M 969.248776 330.344194 
L 994.712224 337.659981 
L 1008.099982 325.029768 
L 982.772037 317.825597 
z
" clip-path="url(#p441d77b0bd)" style="fill: #577ddf"/>
    <path d="M 994.712224 337.659981 
L 1008.099982 325.029768 
L 1008.099982 325.029768 
L 994.712224 337.659981 
z
" clip-path="url(#p441d77b0bd)" style="fill: #648fff"/>
    <path d="M 904.997418 328.39497 
L 904.997418 328.39497 
L 930.14388 335.693321 
L 930.14388 335.693321 
z
" clip-path="url(#p441d77b0bd)" style="fill: #648fff"/>
    <path d="M 969.248776 330.344194 
L 994.712224 337.659981 
L 994.712224 337.659981 
L 969.248776 330.344194 
z
" clip-path="url(#p441d77b0bd)" style="fill: #324880"/>
    <path d="M 890.782801 341.077492 
L 890.782801 341.077492 
L 904.997418 328.39497 
L 904.997418 328.39497 
z
" clip-path="url(#p441d77b0bd)" style="fill: #324880"/>
    <path d="M 890.782801 341.077492 
L 904.997418 328.39497 
L 930.14388 335.693321 
L 916.061138 348.489664 
z
" clip-path="url(#p441d77b0bd)" style="fill: #3f599f"/>
    <path d="M 890.782801 341.077492 
L 916.061138 348.489664 
L 930.14388 335.693321 
L 904.997418 328.39497 
z
" clip-path="url(#p441d77b0bd)" style="fill: #577ddf"/>
    <path d="M 916.061138 348.489664 
L 930.14388 335.693321 
L 930.14388 335.693321 
L 916.061138 348.489664 
z
" clip-path="url(#p441d77b0bd)" style="fill: #648fff"/>
    <path d="M 890.782801 341.077492 
L 916.061138 348.489664 
L 916.061138 348.489664 
L 890.782801 341.077492 
z
" clip-path="url(#p441d77b0bd)" style="fill: #324880"/>
    <path d="M 782.048618 448.347906 
L 807.02678 456.302263 
L 822.064427 442.570234 
L 797.212532 434.738939 
z
" clip-path="url(#p441d77b0bd)" style="fill: #577ddf"/>
    <path d="M 746.374641 349.951403 
L 746.374641 349.951403 
L 771.137043 357.44374 
L 771.137043 357.44374 
z
" clip-path="url(#p441d77b0bd)" style="fill: #648fff"/>
    <path d="M 730.72564 362.971584 
L 730.72564 362.971584 
L 746.374641 349.951403 
L 746.374641 349.951403 
z
" clip-path="url(#p441d77b0bd)" style="fill: #324880"/>
    <path d="M 796.124262 365.0041 
L 797.212532 434.738939 
L 822.064427 442.570234 
L 821.339371 372.633413 
z
" clip-path="url(#p441d77b0bd)" style="fill: #648fff"/>
    <path d="M 780.726319 378.262718 
L 782.048618 448.347906 
L 797.212532 434.738939 
L 796.124262 365.0041 
z
" clip-path="url(#p441d77b0bd)" style="fill: #324880"/>
    <path d="M 730.72564 362.971584 
L 746.374641 349.951403 
L 771.137043 357.44374 
L 755.612113 370.582329 
z
" clip-path="url(#p441d77b0bd)" style="fill: #3f599f"/>
    <path d="M 730.72564 362.971584 
L 755.612113 370.582329 
L 771.137043 357.44374 
L 746.374641 349.951403 
z
" clip-path="url(#p441d77b0bd)" style="fill: #577ddf"/>
    <path d="M 755.612113 370.582329 
L 771.137043 357.44374 
L 771.137043 357.44374 
L 755.612113 370.582329 
z
" clip-path="url(#p441d77b0bd)" style="fill: #648fff"/>
    <path d="M 730.72564 362.971584 
L 755.612113 370.582329 
L 755.612113 370.582329 
L 730.72564 362.971584 
z
" clip-path="url(#p441d77b0bd)" style="fill: #324880"/>
    <path d="M 806.071398 386.013713 
L 821.339371 372.633413 
L 822.064427 442.570234 
L 807.02678 456.302263 
z
" clip-path="url(#p441d77b0bd)" style="fill: #648fff"/>
    <path d="M 780.726319 378.262718 
L 806.071398 386.013713 
L 807.02678 456.302263 
L 782.048618 448.347906 
z
" clip-path="url(#p441d77b0bd)" style="fill: #324880"/>
    <path d="M 780.726319 378.262718 
L 796.124262 365.0041 
L 821.339371 372.633413 
L 806.071398 386.013713 
z
" clip-path="url(#p441d77b0bd)" style="fill: #3f599f"/>
    <path d="M 846.785504 380.332626 
L 846.87269 397.550044 
L 872.460568 405.370974 
L 872.465849 388.102705 
z
" clip-path="url(#p441d77b0bd)" style="fill: #648fff"/>
    <path d="M 831.650547 393.836291 
L 831.793344 411.141918 
L 846.87269 397.550044 
L 846.785504 380.332626 
z
" clip-path="url(#p441d77b0bd)" style="fill: #324880"/>
    <path d="M 831.793344 411.141918 
L 857.516376 419.088286 
L 872.460568 405.370974 
L 846.87269 397.550044 
z
" clip-path="url(#p441d77b0bd)" style="fill: #577ddf"/>
    <path d="M 831.650547 393.836291 
L 846.785504 380.332626 
L 872.465849 388.102705 
L 857.467026 401.731448 
z
" clip-path="url(#p441d77b0bd)" style="fill: #3f599f"/>
    <path d="M 857.467026 401.731448 
L 872.465849 388.102705 
L 872.460568 405.370974 
L 857.516376 419.088286 
z
" clip-path="url(#p441d77b0bd)" style="fill: #648fff"/>
    <path d="M 831.650547 393.836291 
L 857.467026 401.731448 
L 857.516376 419.088286 
L 831.793344 411.141918 
z
" clip-path="url(#p441d77b0bd)" style="fill: #324880"/>
    <path d="M 898.383656 395.944632 
L 898.361832 399.744729 
L 924.499359 407.670804 
L 924.542232 403.859409 
z
" clip-path="url(#p441d77b0bd)" style="fill: #648fff"/>
    <path d="M 883.524151 409.7002 
L 883.514092 413.519896 
L 898.361832 399.744729 
L 898.383656 395.944632 
z
" clip-path="url(#p441d77b0bd)" style="fill: #324880"/>
    <path d="M 883.514092 413.519896 
L 909.793965 421.574654 
L 924.499359 407.670804 
L 898.361832 399.744729 
z
" clip-path="url(#p441d77b0bd)" style="fill: #577ddf"/>
    <path d="M 883.524151 409.7002 
L 898.383656 395.944632 
L 924.542232 403.859409 
L 909.825304 417.74358 
z
" clip-path="url(#p441d77b0bd)" style="fill: #3f599f"/>
    <path d="M 909.825304 417.74358 
L 924.542232 403.859409 
L 924.499359 407.670804 
L 909.793965 421.574654 
z
" clip-path="url(#p441d77b0bd)" style="fill: #648fff"/>
    <path d="M 883.524151 409.7002 
L 909.825304 417.74358 
L 909.793965 421.574654 
L 883.514092 413.519896 
z
" clip-path="url(#p441d77b0bd)" style="fill: #324880"/>
   </g>
   <g id="Poly3DCollection_3">
    <path d="M 710.419175 365.74929 
L 915.656615 428.853556 
L 1027.431222 322.385463 
L 830.523896 266.656326 
z
" clip-path="url(#p441d77b0bd)" style="fill-opacity: 0.25"/>
   </g>
   <g id="Poly3DCollection_4">
    <path d="M 835.376135 275.900947 
L 835.349695 272.274038 
L 859.403315 279.100111 
L 859.411955 282.737591 
z
" clip-path="url(#p441d77b0bd)" style="fill: #324880"/>
    <path d="M 821.098785 287.779896 
L 821.061472 284.134648 
L 835.349695 272.274038 
L 835.376135 275.900947 
z
" clip-path="url(#p441d77b0bd)" style="fill: #648fff"/>
    <path d="M 821.098785 287.779896 
L 835.376135 275.900947 
L 859.411955 282.737591 
L 845.253561 294.719695 
z
" clip-path="url(#p441d77b0bd)" style="fill: #3f599f"/>
    <path d="M 821.061472 284.134648 
L 845.234224 291.063793 
L 859.403315 279.100111 
L 835.349695 272.274038 
z
" clip-path="url(#p441d77b0bd)" style="fill: #577ddf"/>
    <path d="M 845.253561 294.719695 
L 859.411955 282.737591 
L 859.403315 279.100111 
L 845.234224 291.063793 
z
" clip-path="url(#p441d77b0bd)" style="fill: #324880"/>
    <path d="M 821.098785 287.779896 
L 845.253561 294.719695 
L 845.234224 291.063793 
L 821.061472 284.134648 
z
" clip-path="url(#p441d77b0bd)" style="fill: #648fff"/>
    <path d="M 806.605668 299.838368 
L 806.383334 283.047858 
L 830.741122 290.043766 
L 830.880259 306.883672 
z
" clip-path="url(#p441d77b0bd)" style="fill: #324880"/>
    <path d="M 791.891853 312.080462 
L 791.616635 295.204255 
L 806.383334 283.047858 
L 806.605668 299.838368 
z
" clip-path="url(#p441d77b0bd)" style="fill: #648fff"/>
    <path d="M 791.891853 312.080462 
L 806.605668 299.838368 
L 830.880259 306.883672 
L 816.287118 319.233697 
z
" clip-path="url(#p441d77b0bd)" style="fill: #3f599f"/>
    <path d="M 791.616635 295.204255 
L 816.095922 302.307711 
L 830.741122 290.043766 
L 806.383334 283.047858 
z
" clip-path="url(#p441d77b0bd)" style="fill: #577ddf"/>
    <path d="M 816.287118 319.233697 
L 830.880259 306.883672 
L 830.741122 290.043766 
L 816.095922 302.307711 
z
" clip-path="url(#p441d77b0bd)" style="fill: #324880"/>
    <path d="M 791.891853 312.080462 
L 816.287118 319.233697 
L 816.095922 302.307711 
L 791.616635 295.204255 
z
" clip-path="url(#p441d77b0bd)" style="fill: #648fff"/>
    <path d="M 761.781658 337.132554 
L 776.952262 324.510405 
L 801.469056 331.774071 
L 786.420833 344.509227 
z
" clip-path="url(#p441d77b0bd)" style="fill: #3f599f"/>
    <path d="M 776.952262 324.510405 
L 775.57901 253.86044 
L 800.449186 260.911687 
L 801.469056 331.774071 
z
" clip-path="url(#p441d77b0bd)" style="fill: #324880"/>
    <path d="M 826.204989 339.102661 
L 826.204989 339.102661 
L 851.163014 346.497051 
L 851.163014 346.497051 
z
" clip-path="url(#p441d77b0bd)" style="fill: #324880"/>
    <path d="M 761.781658 337.132554 
L 760.174392 266.114055 
L 775.57901 253.86044 
L 776.952262 324.510405 
z
" clip-path="url(#p441d77b0bd)" style="fill: #648fff"/>
    <path d="M 811.281959 351.952349 
L 811.281959 351.952349 
L 826.204989 339.102661 
L 826.204989 339.102661 
z
" clip-path="url(#p441d77b0bd)" style="fill: #648fff"/>
    <path d="M 955.51565 343.057064 
L 955.51565 343.057064 
L 981.115769 350.487081 
L 981.115769 350.487081 
z
" clip-path="url(#p441d77b0bd)" style="fill: #324880"/>
    <path d="M 811.281959 351.952349 
L 826.204989 339.102661 
L 851.163014 346.497051 
L 836.368049 359.462823 
z
" clip-path="url(#p441d77b0bd)" style="fill: #3f599f"/>
    <path d="M 811.281959 351.952349 
L 836.368049 359.462823 
L 851.163014 346.497051 
L 826.204989 339.102661 
z
" clip-path="url(#p441d77b0bd)" style="fill: #577ddf"/>
    <path d="M 941.567735 355.968766 
L 941.567735 355.968766 
L 955.51565 343.057064 
L 955.51565 343.057064 
z
" clip-path="url(#p441d77b0bd)" style="fill: #648fff"/>
    <path d="M 786.420833 344.509227 
L 801.469056 331.774071 
L 800.449186 260.911687 
L 785.170477 273.276628 
z
" clip-path="url(#p441d77b0bd)" style="fill: #324880"/>
    <path d="M 836.368049 359.462823 
L 851.163014 346.497051 
L 851.163014 346.497051 
L 836.368049 359.462823 
z
" clip-path="url(#p441d77b0bd)" style="fill: #324880"/>
    <path d="M 761.781658 337.132554 
L 786.420833 344.509227 
L 785.170477 273.276628 
L 760.174392 266.114055 
z
" clip-path="url(#p441d77b0bd)" style="fill: #648fff"/>
    <path d="M 941.567735 355.968766 
L 955.51565 343.057064 
L 981.115769 350.487081 
L 967.305698 363.515711 
z
" clip-path="url(#p441d77b0bd)" style="fill: #3f599f"/>
    <path d="M 941.567735 355.968766 
L 967.305698 363.515711 
L 981.115769 350.487081 
L 955.51565 343.057064 
z
" clip-path="url(#p441d77b0bd)" style="fill: #577ddf"/>
    <path d="M 811.281959 351.952349 
L 836.368049 359.462823 
L 836.368049 359.462823 
L 811.281959 351.952349 
z
" clip-path="url(#p441d77b0bd)" style="fill: #648fff"/>
    <path d="M 967.305698 363.515711 
L 981.115769 350.487081 
L 981.115769 350.487081 
L 967.305698 363.515711 
z
" clip-path="url(#p441d77b0bd)" style="fill: #324880"/>
    <path d="M 760.174392 266.114055 
L 785.170477 273.276628 
L 800.449186 260.911687 
L 775.57901 253.86044 
z
" clip-path="url(#p441d77b0bd)" style="fill: #577ddf"/>
    <path d="M 941.567735 355.968766 
L 967.305698 363.515711 
L 967.305698 363.515711 
L 941.567735 355.968766 
z
" clip-path="url(#p441d77b0bd)" style="fill: #648fff"/>
    <path d="M 861.682172 367.041567 
L 876.346134 353.958131 
L 901.757408 361.486807 
L 887.227449 374.689516 
z
" clip-path="url(#p441d77b0bd)" style="fill: #3f599f"/>
    <path d="M 876.346134 353.958131 
L 876.421264 286.30382 
L 902.191994 293.628092 
L 901.757408 361.486807 
z
" clip-path="url(#p441d77b0bd)" style="fill: #324880"/>
    <path d="M 861.682172 367.041567 
L 861.549972 299.032638 
L 876.421264 286.30382 
L 876.346134 353.958131 
z
" clip-path="url(#p441d77b0bd)" style="fill: #648fff"/>
    <path d="M 927.399952 369.084002 
L 927.573204 354.355562 
L 953.530845 361.97834 
L 953.276937 376.750655 
z
" clip-path="url(#p441d77b0bd)" style="fill: #324880"/>
    <path d="M 913.007062 382.407622 
L 913.137125 367.60307 
L 927.573204 354.355562 
L 927.399952 369.084002 
z
" clip-path="url(#p441d77b0bd)" style="fill: #648fff"/>
    <path d="M 913.007062 382.407622 
L 927.399952 369.084002 
L 953.276937 376.750655 
L 939.02425 390.196855 
z
" clip-path="url(#p441d77b0bd)" style="fill: #3f599f"/>
    <path d="M 887.227449 374.689516 
L 901.757408 361.486807 
L 902.191994 293.628092 
L 887.458537 306.4746 
z
" clip-path="url(#p441d77b0bd)" style="fill: #324880"/>
    <path d="M 861.682172 367.041567 
L 887.227449 374.689516 
L 887.458537 306.4746 
L 861.549972 299.032638 
z
" clip-path="url(#p441d77b0bd)" style="fill: #648fff"/>
    <path d="M 913.137125 367.60307 
L 939.235852 375.348106 
L 953.530845 361.97834 
L 927.573204 354.355562 
z
" clip-path="url(#p441d77b0bd)" style="fill: #577ddf"/>
    <path d="M 939.02425 390.196855 
L 953.276937 376.750655 
L 953.530845 361.97834 
L 939.235852 375.348106 
z
" clip-path="url(#p441d77b0bd)" style="fill: #324880"/>
    <path d="M 861.549972 299.032638 
L 887.458537 306.4746 
L 902.191994 293.628092 
L 876.421264 286.30382 
z
" clip-path="url(#p441d77b0bd)" style="fill: #577ddf"/>
    <path d="M 913.007062 382.407622 
L 939.02425 390.196855 
L 939.235852 375.348106 
L 913.137125 367.60307 
z
" clip-path="url(#p441d77b0bd)" style="fill: #648fff"/>
   </g>
   <g id="text_29">
    <!-- Imaginary Amplitude (ρ) -->
    <g transform="translate(735.696563 51.6) scale(0.21 -0.21)">
     <defs>
      <path id="DejaVuSans-49" d="M 628 4666 
L 1259 4666 
L 1259 0 
L 628 0 
L 628 4666 
z
" transform="scale(0.015625)"/>
      <path id="DejaVuSans-67" d="M 2906 1791 
Q 2906 2416 2648 2759 
Q 2391 3103 1925 3103 
Q 1463 3103 1205 2759 
Q 947 2416 947 1791 
Q 947 1169 1205 825 
Q 1463 481 1925 481 
Q 2391 481 2648 825 
Q 2906 1169 2906 1791 
z
M 3481 434 
Q 3481 -459 3084 -895 
Q 2688 -1331 1869 -1331 
Q 1566 -1331 1297 -1286 
Q 1028 -1241 775 -1147 
L 775 -588 
Q 1028 -725 1275 -790 
Q 1522 -856 1778 -856 
Q 2344 -856 2625 -561 
Q 2906 -266 2906 331 
L 2906 616 
Q 2728 306 2450 153 
Q 2172 0 1784 0 
Q 1141 0 747 490 
Q 353 981 353 1791 
Q 353 2603 747 3093 
Q 1141 3584 1784 3584 
Q 2172 3584 2450 3431 
Q 2728 3278 2906 2969 
L 2906 3500 
L 3481 3500 
L 3481 434 
z
" transform="scale(0.015625)"/>
      <path id="DejaVuSans-6e" d="M 3513 2113 
L 3513 0 
L 2938 0 
L 2938 2094 
Q 2938 2591 2744 2837 
Q 2550 3084 2163 3084 
Q 1697 3084 1428 2787 
Q 1159 2491 1159 1978 
L 1159 0 
L 581 0 
L 581 3500 
L 1159 3500 
L 1159 2956 
Q 1366 3272 1645 3428 
Q 1925 3584 2291 3584 
Q 2894 3584 3203 3211 
Q 3513 2838 3513 2113 
z
" transform="scale(0.015625)"/>
      <path id="DejaVuSans-72" d="M 2631 2963 
Q 2534 3019 2420 3045 
Q 2306 3072 2169 3072 
Q 1681 3072 1420 2755 
Q 1159 2438 1159 1844 
L 1159 0 
L 581 0 
L 581 3500 
L 1159 3500 
L 1159 2956 
Q 1341 3275 1631 3429 
Q 1922 3584 2338 3584 
Q 2397 3584 2469 3576 
Q 2541 3569 2628 3553 
L 2631 2963 
z
" transform="scale(0.015625)"/>
      <path id="DejaVuSans-79" d="M 2059 -325 
Q 1816 -950 1584 -1140 
Q 1353 -1331 966 -1331 
L 506 -1331 
L 506 -850 
L 844 -850 
Q 1081 -850 1212 -737 
Q 1344 -625 1503 -206 
L 1606 56 
L 191 3500 
L 800 3500 
L 1894 763 
L 2988 3500 
L 3597 3500 
L 2059 -325 
z
" transform="scale(0.015625)"/>
     </defs>
     <use xlink:href="#DejaVuSans-49"/>
     <use xlink:href="#DejaVuSans-6d" x="29.492188"/>
     <use xlink:href="#DejaVuSans-61" x="126.904297"/>
     <use xlink:href="#DejaVuSans-67" x="188.183594"/>
     <use xlink:href="#DejaVuSans-69" x="251.660156"/>
     <use xlink:href="#DejaVuSans-6e" x="279.443359"/>
     <use xlink:href="#DejaVuSans-61" x="342.822266"/>
     <use xlink:href="#DejaVuSans-72" x="404.101562"/>
     <use xlink:href="#DejaVuSans-79" x="445.214844"/>
     <use xlink:href="#DejaVuSans-20" x="504.394531"/>
     <use xlink:href="#DejaVuSans-41" x="536.181641"/>
     <use xlink:href="#DejaVuSans-6d" x="604.589844"/>
     <use xlink:href="#DejaVuSans-70" x="702.001953"/>
     <use xlink:href="#DejaVuSans-6c" x="765.478516"/>
     <use xlink:href="#DejaVuSans-69" x="793.261719"/>
     <use xlink:href="#DejaVuSans-74" x="821.044922"/>
     <use xlink:href="#DejaVuSans-75" x="860.253906"/>
     <use xlink:href="#DejaVuSans-64" x="923.632812"/>
     <use xlink:href="#DejaVuSans-65" x="987.109375"/>
     <use xlink:href="#DejaVuSans-20" x="1048.632812"/>
     <use xlink:href="#DejaVuSans-28" x="1080.419922"/>
     <use xlink:href="#DejaVuSans-3c1" x="1119.433594"/>
     <use xlink:href="#DejaVuSans-29" x="1182.910156"/>
    </g>
   </g>
  </g>
 </g>
 <defs>
  <clipPath id="p7fdc69f715">
   <rect x="28.8" y="57.6" width="518.4" height="518.4"/>
  </clipPath>
  <clipPath id="p441d77b0bd">
   <rect x="604.8" y="57.6" width="518.4" height="518.4"/>
  </clipPath>
 </defs>
</svg>
