<?xml version="1.0" encoding="utf-8" standalone="no"?>
<!DOCTYPE svg PUBLIC "-//W3C//DTD SVG 1.1//EN"
  "http://www.w3.org/Graphics/SVG/1.1/DTD/svg11.dtd">
<svg xmlns:xlink="http://www.w3.org/1999/xlink" width="915.451985pt" height="311.065596pt" viewBox="0 0 915.451985 311.065596" xmlns="http://www.w3.org/2000/svg" version="1.1">
 <metadata>
  <rdf:RDF xmlns:dc="http://purl.org/dc/elements/1.1/" xmlns:cc="http://creativecommons.org/ns#" xmlns:rdf="http://www.w3.org/1999/02/22-rdf-syntax-ns#">
   <cc:Work>
    <dc:type rdf:resource="http://purl.org/dc/dcmitype/StillImage"/>
    <dc:date>2024-11-02T15:25:16.024554</dc:date>
    <dc:format>image/svg+xml</dc:format>
    <dc:creator>
     <cc:Agent>
      <dc:title>Matplotlib v3.9.2, https://matplotlib.org/</dc:title>
     </cc:Agent>
    </dc:creator>
   </cc:Work>
  </rdf:RDF>
 </metadata>
 <defs>
  <style type="text/css">*{stroke-linejoin: round; stroke-linecap: butt}</style>
 </defs>
 <g id="figure_1">
  <g id="patch_1">
   <path d="M 0 311.065596 
L 915.451985 311.065596 
L 915.451985 0 
L 0 0 
z
" style="fill: #ffffff"/>
  </g>
  <g id="axes_1">
   <g id="line2d_1">
    <path d="M 64.609196 44.2832 
L 903.616585 44.2832 
" clip-path="url(#p9483925c6b)" style="fill: none; stroke: #000000; stroke-width: 2; stroke-linecap: square"/>
   </g>
   <g id="line2d_2">
    <path d="M 64.609196 90.637199 
L 903.616585 90.637199 
" clip-path="url(#p9483925c6b)" style="fill: none; stroke: #000000; stroke-width: 2; stroke-linecap: square"/>
   </g>
   <g id="line2d_3">
    <path d="M 64.609196 136.991198 
L 903.616585 136.991198 
" clip-path="url(#p9483925c6b)" style="fill: none; stroke: #000000; stroke-width: 2; stroke-linecap: square"/>
   </g>
   <g id="line2d_4">
    <path d="M 64.609196 183.345198 
L 903.616585 183.345198 
" clip-path="url(#p9483925c6b)" style="fill: none; stroke: #000000; stroke-width: 2; stroke-linecap: square"/>
   </g>
   <g id="line2d_5">
    <path d="M 64.609196 229.699197 
L 903.616585 229.699197 
" clip-path="url(#p9483925c6b)" style="fill: none; stroke: #000000; stroke-width: 2; stroke-linecap: square"/>
   </g>
   <g id="line2d_6">
    <path d="M 64.609196 276.053196 
L 903.616585 276.053196 
" clip-path="url(#p9483925c6b)" style="fill: none; stroke: #000000; stroke-width: 2; stroke-linecap: square"/>
   </g>
   <g id="patch_2">
    <path d="M 59.973797 21.1062 
L -1098.876188 21.1062 
L -1098.876188 345.584196 
L 59.973797 345.584196 
z
" clip-path="url(#p9483925c6b)" style="fill: #ffffff; stroke: #ffffff; stroke-width: 1.5; stroke-linejoin: miter"/>
   </g>
   <g id="patch_3">
    <path d="M 77.532691 291.118246 
L 797.058012 291.118246 
L 797.058012 75.572149 
L 77.532691 75.572149 
z
" clip-path="url(#p9483925c6b)" style="fill: #9f1853; stroke: #9f1853; stroke-width: 1.5; stroke-linejoin: miter"/>
   </g>
   <g id="patch_4">
    <path d="M 422.230302 59.348249 
L 452.360401 59.348249 
L 452.360401 29.21815 
L 422.230302 29.21815 
z
" clip-path="url(#p9483925c6b)" style="fill: #fa4d56; stroke: #fa4d56; stroke-width: 1.5; stroke-linejoin: miter"/>
   </g>
   <g id="patch_5">
    <path d="M 824.119476 291.118246 
L 884.843216 291.118246 
L 884.843216 29.21815 
L 824.119476 29.21815 
z
" clip-path="url(#p9483925c6b)" style="fill: #9f1853; stroke: #9f1853; stroke-width: 1.5; stroke-linejoin: miter"/>
   </g>
   <g id="text_1">
    <g clip-path="url(#p9483925c6b)">
     <!-- ${q}_{0}$ -->
     <g transform="translate(37.300897 48.734176) scale(0.1625 -0.1625)">
      <defs>
       <path id="DejaVuSans-Oblique-71" d="M 2669 525 
Q 2438 222 2123 65 
Q 1809 -91 1428 -91 
Q 897 -91 595 267 
Q 294 625 294 1253 
Q 294 1759 480 2231 
Q 666 2703 1013 3078 
Q 1238 3322 1530 3453 
Q 1822 3584 2144 3584 
Q 2531 3584 2781 3431 
Q 3031 3278 3144 2969 
L 3244 3494 
L 3822 3494 
L 2888 -1319 
L 2309 -1319 
L 2669 525 
z
M 891 1338 
Q 891 875 1084 633 
Q 1278 391 1644 391 
Q 2188 391 2572 911 
Q 2956 1431 2956 2175 
Q 2956 2625 2757 2864 
Q 2559 3103 2188 3103 
Q 1916 3103 1684 2976 
Q 1453 2850 1281 2606 
Q 1100 2350 995 2006 
Q 891 1663 891 1338 
z
" transform="scale(0.015625)"/>
       <path id="DejaVuSans-30" d="M 2034 4250 
Q 1547 4250 1301 3770 
Q 1056 3291 1056 2328 
Q 1056 1369 1301 889 
Q 1547 409 2034 409 
Q 2525 409 2770 889 
Q 3016 1369 3016 2328 
Q 3016 3291 2770 3770 
Q 2525 4250 2034 4250 
z
M 2034 4750 
Q 2819 4750 3233 4129 
Q 3647 3509 3647 2328 
Q 3647 1150 3233 529 
Q 2819 -91 2034 -91 
Q 1250 -91 836 529 
Q 422 1150 422 2328 
Q 422 3509 836 4129 
Q 1250 4750 2034 4750 
z
" transform="scale(0.015625)"/>
      </defs>
      <use xlink:href="#DejaVuSans-Oblique-71"/>
      <use xlink:href="#DejaVuSans-30" transform="translate(63.476562 -16.40625) scale(0.7)"/>
     </g>
    </g>
   </g>
   <g id="text_2">
    <g clip-path="url(#p9483925c6b)">
     <!-- ${q}_{1}$ -->
     <g transform="translate(37.300897 95.088175) scale(0.1625 -0.1625)">
      <defs>
       <path id="DejaVuSans-31" d="M 794 531 
L 1825 531 
L 1825 4091 
L 703 3866 
L 703 4441 
L 1819 4666 
L 2450 4666 
L 2450 531 
L 3481 531 
L 3481 0 
L 794 0 
L 794 531 
z
" transform="scale(0.015625)"/>
      </defs>
      <use xlink:href="#DejaVuSans-Oblique-71"/>
      <use xlink:href="#DejaVuSans-31" transform="translate(63.476562 -16.40625) scale(0.7)"/>
     </g>
    </g>
   </g>
   <g id="text_3">
    <g clip-path="url(#p9483925c6b)">
     <!-- ${q}_{2}$ -->
     <g transform="translate(37.300897 141.442175) scale(0.1625 -0.1625)">
      <defs>
       <path id="DejaVuSans-32" d="M 1228 531 
L 3431 531 
L 3431 0 
L 469 0 
L 469 531 
Q 828 903 1448 1529 
Q 2069 2156 2228 2338 
Q 2531 2678 2651 2914 
Q 2772 3150 2772 3378 
Q 2772 3750 2511 3984 
Q 2250 4219 1831 4219 
Q 1534 4219 1204 4116 
Q 875 4013 500 3803 
L 500 4441 
Q 881 4594 1212 4672 
Q 1544 4750 1819 4750 
Q 2544 4750 2975 4387 
Q 3406 4025 3406 3419 
Q 3406 3131 3298 2873 
Q 3191 2616 2906 2266 
Q 2828 2175 2409 1742 
Q 1991 1309 1228 531 
z
" transform="scale(0.015625)"/>
      </defs>
      <use xlink:href="#DejaVuSans-Oblique-71"/>
      <use xlink:href="#DejaVuSans-32" transform="translate(63.476562 -16.40625) scale(0.7)"/>
     </g>
    </g>
   </g>
   <g id="text_4">
    <g clip-path="url(#p9483925c6b)">
     <!-- ${q}_{3}$ -->
     <g transform="translate(37.300897 187.796174) scale(0.1625 -0.1625)">
      <defs>
       <path id="DejaVuSans-33" d="M 2597 2516 
Q 3050 2419 3304 2112 
Q 3559 1806 3559 1356 
Q 3559 666 3084 287 
Q 2609 -91 1734 -91 
Q 1441 -91 1130 -33 
Q 819 25 488 141 
L 488 750 
Q 750 597 1062 519 
Q 1375 441 1716 441 
Q 2309 441 2620 675 
Q 2931 909 2931 1356 
Q 2931 1769 2642 2001 
Q 2353 2234 1838 2234 
L 1294 2234 
L 1294 2753 
L 1863 2753 
Q 2328 2753 2575 2939 
Q 2822 3125 2822 3475 
Q 2822 3834 2567 4026 
Q 2313 4219 1838 4219 
Q 1578 4219 1281 4162 
Q 984 4106 628 3988 
L 628 4550 
Q 988 4650 1302 4700 
Q 1616 4750 1894 4750 
Q 2613 4750 3031 4423 
Q 3450 4097 3450 3541 
Q 3450 3153 3228 2886 
Q 3006 2619 2597 2516 
z
" transform="scale(0.015625)"/>
      </defs>
      <use xlink:href="#DejaVuSans-Oblique-71"/>
      <use xlink:href="#DejaVuSans-33" transform="translate(63.476562 -16.40625) scale(0.7)"/>
     </g>
    </g>
   </g>
   <g id="text_5">
    <g clip-path="url(#p9483925c6b)">
     <!-- ${q}_{4}$ -->
     <g transform="translate(37.300897 234.150174) scale(0.1625 -0.1625)">
      <defs>
       <path id="DejaVuSans-34" d="M 2419 4116 
L 825 1625 
L 2419 1625 
L 2419 4116 
z
M 2253 4666 
L 3047 4666 
L 3047 1625 
L 3713 1625 
L 3713 1100 
L 3047 1100 
L 3047 0 
L 2419 0 
L 2419 1100 
L 313 1100 
L 313 1709 
L 2253 4666 
z
" transform="scale(0.015625)"/>
      </defs>
      <use xlink:href="#DejaVuSans-Oblique-71"/>
      <use xlink:href="#DejaVuSans-34" transform="translate(63.476562 -16.40625) scale(0.7)"/>
     </g>
    </g>
   </g>
   <g id="text_6">
    <g clip-path="url(#p9483925c6b)">
     <!-- ${q}_{5}$ -->
     <g transform="translate(37.300897 280.504173) scale(0.1625 -0.1625)">
      <defs>
       <path id="DejaVuSans-35" d="M 691 4666 
L 3169 4666 
L 3169 4134 
L 1269 4134 
L 1269 2991 
Q 1406 3038 1543 3061 
Q 1681 3084 1819 3084 
Q 2600 3084 3056 2656 
Q 3513 2228 3513 1497 
Q 3513 744 3044 326 
Q 2575 -91 1722 -91 
Q 1428 -91 1123 -41 
Q 819 9 494 109 
L 494 744 
Q 775 591 1075 516 
Q 1375 441 1709 441 
Q 2250 441 2565 725 
Q 2881 1009 2881 1497 
Q 2881 1984 2565 2268 
Q 2250 2553 1709 2553 
Q 1456 2553 1204 2497 
Q 953 2441 691 2322 
L 691 4666 
z
" transform="scale(0.015625)"/>
      </defs>
      <use xlink:href="#DejaVuSans-Oblique-71"/>
      <use xlink:href="#DejaVuSans-35" transform="translate(63.476562 -16.40625) scale(0.7)"/>
     </g>
    </g>
   </g>
   <g id="text_7">
    <g clip-path="url(#p9483925c6b)">
     <!-- 0 -->
     <g style="fill: #ffffff" transform="translate(80.777471 94.224386) scale(0.13 -0.13)">
      <use xlink:href="#DejaVuSans-30"/>
     </g>
    </g>
   </g>
   <g id="text_8">
    <g clip-path="url(#p9483925c6b)">
     <!-- 1 -->
     <g style="fill: #ffffff" transform="translate(80.777471 140.578386) scale(0.13 -0.13)">
      <use xlink:href="#DejaVuSans-31"/>
     </g>
    </g>
   </g>
   <g id="text_9">
    <g clip-path="url(#p9483925c6b)">
     <!-- 2 -->
     <g style="fill: #ffffff" transform="translate(80.777471 186.932385) scale(0.13 -0.13)">
      <use xlink:href="#DejaVuSans-32"/>
     </g>
    </g>
   </g>
   <g id="text_10">
    <g clip-path="url(#p9483925c6b)">
     <!-- 3 -->
     <g style="fill: #ffffff" transform="translate(80.777471 233.286385) scale(0.13 -0.13)">
      <use xlink:href="#DejaVuSans-33"/>
     </g>
    </g>
   </g>
   <g id="text_11">
    <g clip-path="url(#p9483925c6b)">
     <!-- 4 -->
     <g style="fill: #ffffff" transform="translate(80.777471 279.640384) scale(0.13 -0.13)">
      <use xlink:href="#DejaVuSans-34"/>
     </g>
    </g>
   </g>
   <g id="text_12">
    <g clip-path="url(#p9483925c6b)">
     <!-- $[0.00793, 0.00457, 0.0541, 0.441, 5.22e-05, 0.000122, 0.000132, 6.48e-05, 0.000107, 3.47e-05, 0.000482, 0.000399, 0.00378, 0.0676, 2.82e-06, 2.16e-05, ...]$ -->
     <g style="fill: #ffffff" transform="translate(109.554291 235.151477) scale(0.08 -0.08)">
      <defs>
       <path id="DejaVuSans-5b" d="M 550 4863 
L 1875 4863 
L 1875 4416 
L 1125 4416 
L 1125 -397 
L 1875 -397 
L 1875 -844 
L 550 -844 
L 550 4863 
z
" transform="scale(0.015625)"/>
       <path id="DejaVuSans-2e" d="M 684 794 
L 1344 794 
L 1344 0 
L 684 0 
L 684 794 
z
" transform="scale(0.015625)"/>
       <path id="DejaVuSans-37" d="M 525 4666 
L 3525 4666 
L 3525 4397 
L 1831 0 
L 1172 0 
L 2766 4134 
L 525 4134 
L 525 4666 
z
" transform="scale(0.015625)"/>
       <path id="DejaVuSans-39" d="M 703 97 
L 703 672 
Q 941 559 1184 500 
Q 1428 441 1663 441 
Q 2288 441 2617 861 
Q 2947 1281 2994 2138 
Q 2813 1869 2534 1725 
Q 2256 1581 1919 1581 
Q 1219 1581 811 2004 
Q 403 2428 403 3163 
Q 403 3881 828 4315 
Q 1253 4750 1959 4750 
Q 2769 4750 3195 4129 
Q 3622 3509 3622 2328 
Q 3622 1225 3098 567 
Q 2575 -91 1691 -91 
Q 1453 -91 1209 -44 
Q 966 3 703 97 
z
M 1959 2075 
Q 2384 2075 2632 2365 
Q 2881 2656 2881 3163 
Q 2881 3666 2632 3958 
Q 2384 4250 1959 4250 
Q 1534 4250 1286 3958 
Q 1038 3666 1038 3163 
Q 1038 2656 1286 2365 
Q 1534 2075 1959 2075 
z
" transform="scale(0.015625)"/>
       <path id="DejaVuSans-2c" d="M 750 794 
L 1409 794 
L 1409 256 
L 897 -744 
L 494 -744 
L 750 256 
L 750 794 
z
" transform="scale(0.015625)"/>
       <path id="DejaVuSans-Oblique-65" d="M 3078 2063 
Q 3088 2113 3092 2166 
Q 3097 2219 3097 2272 
Q 3097 2653 2873 2875 
Q 2650 3097 2266 3097 
Q 1838 3097 1509 2826 
Q 1181 2556 1013 2059 
L 3078 2063 
z
M 3578 1613 
L 903 1613 
Q 884 1494 878 1425 
Q 872 1356 872 1306 
Q 872 872 1139 634 
Q 1406 397 1894 397 
Q 2269 397 2603 481 
Q 2938 566 3225 728 
L 3116 159 
Q 2806 34 2476 -28 
Q 2147 -91 1806 -91 
Q 1078 -91 686 257 
Q 294 606 294 1247 
Q 294 1794 489 2264 
Q 684 2734 1063 3103 
Q 1306 3334 1642 3459 
Q 1978 3584 2356 3584 
Q 2950 3584 3301 3228 
Q 3653 2872 3653 2272 
Q 3653 2128 3634 1964 
Q 3616 1800 3578 1613 
z
" transform="scale(0.015625)"/>
       <path id="DejaVuSans-2212" d="M 678 2272 
L 4684 2272 
L 4684 1741 
L 678 1741 
L 678 2272 
z
" transform="scale(0.015625)"/>
       <path id="DejaVuSans-36" d="M 2113 2584 
Q 1688 2584 1439 2293 
Q 1191 2003 1191 1497 
Q 1191 994 1439 701 
Q 1688 409 2113 409 
Q 2538 409 2786 701 
Q 3034 994 3034 1497 
Q 3034 2003 2786 2293 
Q 2538 2584 2113 2584 
z
M 3366 4563 
L 3366 3988 
Q 3128 4100 2886 4159 
Q 2644 4219 2406 4219 
Q 1781 4219 1451 3797 
Q 1122 3375 1075 2522 
Q 1259 2794 1537 2939 
Q 1816 3084 2150 3084 
Q 2853 3084 3261 2657 
Q 3669 2231 3669 1497 
Q 3669 778 3244 343 
Q 2819 -91 2113 -91 
Q 1303 -91 875 529 
Q 447 1150 447 2328 
Q 447 3434 972 4092 
Q 1497 4750 2381 4750 
Q 2619 4750 2861 4703 
Q 3103 4656 3366 4563 
z
" transform="scale(0.015625)"/>
       <path id="DejaVuSans-38" d="M 2034 2216 
Q 1584 2216 1326 1975 
Q 1069 1734 1069 1313 
Q 1069 891 1326 650 
Q 1584 409 2034 409 
Q 2484 409 2743 651 
Q 3003 894 3003 1313 
Q 3003 1734 2745 1975 
Q 2488 2216 2034 2216 
z
M 1403 2484 
Q 997 2584 770 2862 
Q 544 3141 544 3541 
Q 544 4100 942 4425 
Q 1341 4750 2034 4750 
Q 2731 4750 3128 4425 
Q 3525 4100 3525 3541 
Q 3525 3141 3298 2862 
Q 3072 2584 2669 2484 
Q 3125 2378 3379 2068 
Q 3634 1759 3634 1313 
Q 3634 634 3220 271 
Q 2806 -91 2034 -91 
Q 1263 -91 848 271 
Q 434 634 434 1313 
Q 434 1759 690 2068 
Q 947 2378 1403 2484 
z
M 1172 3481 
Q 1172 3119 1398 2916 
Q 1625 2713 2034 2713 
Q 2441 2713 2670 2916 
Q 2900 3119 2900 3481 
Q 2900 3844 2670 4047 
Q 2441 4250 2034 4250 
Q 1625 4250 1398 4047 
Q 1172 3844 1172 3481 
z
" transform="scale(0.015625)"/>
       <path id="DejaVuSans-5d" d="M 1947 4863 
L 1947 -844 
L 622 -844 
L 622 -397 
L 1369 -397 
L 1369 4416 
L 622 4416 
L 622 4863 
L 1947 4863 
z
" transform="scale(0.015625)"/>
      </defs>
      <use xlink:href="#DejaVuSans-5b" transform="translate(0 0.015625)"/>
      <use xlink:href="#DejaVuSans-30" transform="translate(39.013672 0.015625)"/>
      <use xlink:href="#DejaVuSans-2e" transform="translate(102.636719 0.015625)"/>
      <use xlink:href="#DejaVuSans-30" transform="translate(134.423828 0.015625)"/>
      <use xlink:href="#DejaVuSans-30" transform="translate(198.046875 0.015625)"/>
      <use xlink:href="#DejaVuSans-37" transform="translate(261.669922 0.015625)"/>
      <use xlink:href="#DejaVuSans-39" transform="translate(325.292969 0.015625)"/>
      <use xlink:href="#DejaVuSans-33" transform="translate(388.916016 0.015625)"/>
      <use xlink:href="#DejaVuSans-2c" transform="translate(452.539062 0.015625)"/>
      <use xlink:href="#DejaVuSans-30" transform="translate(503.808594 0.015625)"/>
      <use xlink:href="#DejaVuSans-2e" transform="translate(567.431641 0.015625)"/>
      <use xlink:href="#DejaVuSans-30" transform="translate(599.21875 0.015625)"/>
      <use xlink:href="#DejaVuSans-30" transform="translate(662.841797 0.015625)"/>
      <use xlink:href="#DejaVuSans-34" transform="translate(726.464844 0.015625)"/>
      <use xlink:href="#DejaVuSans-35" transform="translate(790.087891 0.015625)"/>
      <use xlink:href="#DejaVuSans-37" transform="translate(846.460938 0.015625)"/>
      <use xlink:href="#DejaVuSans-2c" transform="translate(910.083984 0.015625)"/>
      <use xlink:href="#DejaVuSans-30" transform="translate(961.353516 0.015625)"/>
      <use xlink:href="#DejaVuSans-2e" transform="translate(1024.976562 0.015625)"/>
      <use xlink:href="#DejaVuSans-30" transform="translate(1056.763672 0.015625)"/>
      <use xlink:href="#DejaVuSans-35" transform="translate(1120.386719 0.015625)"/>
      <use xlink:href="#DejaVuSans-34" transform="translate(1184.009766 0.015625)"/>
      <use xlink:href="#DejaVuSans-31" transform="translate(1247.632812 0.015625)"/>
      <use xlink:href="#DejaVuSans-2c" transform="translate(1311.255859 0.015625)"/>
      <use xlink:href="#DejaVuSans-30" transform="translate(1362.525391 0.015625)"/>
      <use xlink:href="#DejaVuSans-2e" transform="translate(1426.148438 0.015625)"/>
      <use xlink:href="#DejaVuSans-34" transform="translate(1457.935547 0.015625)"/>
      <use xlink:href="#DejaVuSans-34" transform="translate(1521.558594 0.015625)"/>
      <use xlink:href="#DejaVuSans-31" transform="translate(1585.181641 0.015625)"/>
      <use xlink:href="#DejaVuSans-2c" transform="translate(1648.804688 0.015625)"/>
      <use xlink:href="#DejaVuSans-35" transform="translate(1700.074219 0.015625)"/>
      <use xlink:href="#DejaVuSans-2e" transform="translate(1763.697266 0.015625)"/>
      <use xlink:href="#DejaVuSans-32" transform="translate(1789.984375 0.015625)"/>
      <use xlink:href="#DejaVuSans-32" transform="translate(1853.607422 0.015625)"/>
      <use xlink:href="#DejaVuSans-Oblique-65" transform="translate(1917.230469 0.015625)"/>
      <use xlink:href="#DejaVuSans-2212" transform="translate(1998.236328 0.015625)"/>
      <use xlink:href="#DejaVuSans-30" transform="translate(2101.507812 0.015625)"/>
      <use xlink:href="#DejaVuSans-35" transform="translate(2165.130859 0.015625)"/>
      <use xlink:href="#DejaVuSans-2c" transform="translate(2228.753906 0.015625)"/>
      <use xlink:href="#DejaVuSans-30" transform="translate(2280.023438 0.015625)"/>
      <use xlink:href="#DejaVuSans-2e" transform="translate(2343.646484 0.015625)"/>
      <use xlink:href="#DejaVuSans-30" transform="translate(2375.433594 0.015625)"/>
      <use xlink:href="#DejaVuSans-30" transform="translate(2439.056641 0.015625)"/>
      <use xlink:href="#DejaVuSans-30" transform="translate(2502.679688 0.015625)"/>
      <use xlink:href="#DejaVuSans-31" transform="translate(2566.302734 0.015625)"/>
      <use xlink:href="#DejaVuSans-32" transform="translate(2629.925781 0.015625)"/>
      <use xlink:href="#DejaVuSans-32" transform="translate(2693.548828 0.015625)"/>
      <use xlink:href="#DejaVuSans-2c" transform="translate(2757.171875 0.015625)"/>
      <use xlink:href="#DejaVuSans-30" transform="translate(2808.441406 0.015625)"/>
      <use xlink:href="#DejaVuSans-2e" transform="translate(2872.064453 0.015625)"/>
      <use xlink:href="#DejaVuSans-30" transform="translate(2903.851562 0.015625)"/>
      <use xlink:href="#DejaVuSans-30" transform="translate(2967.474609 0.015625)"/>
      <use xlink:href="#DejaVuSans-30" transform="translate(3031.097656 0.015625)"/>
      <use xlink:href="#DejaVuSans-31" transform="translate(3094.720703 0.015625)"/>
      <use xlink:href="#DejaVuSans-33" transform="translate(3158.34375 0.015625)"/>
      <use xlink:href="#DejaVuSans-32" transform="translate(3221.966797 0.015625)"/>
      <use xlink:href="#DejaVuSans-2c" transform="translate(3285.589844 0.015625)"/>
      <use xlink:href="#DejaVuSans-36" transform="translate(3336.859375 0.015625)"/>
      <use xlink:href="#DejaVuSans-2e" transform="translate(3400.482422 0.015625)"/>
      <use xlink:href="#DejaVuSans-34" transform="translate(3432.269531 0.015625)"/>
      <use xlink:href="#DejaVuSans-38" transform="translate(3495.892578 0.015625)"/>
      <use xlink:href="#DejaVuSans-Oblique-65" transform="translate(3559.515625 0.015625)"/>
      <use xlink:href="#DejaVuSans-2212" transform="translate(3640.521484 0.015625)"/>
      <use xlink:href="#DejaVuSans-30" transform="translate(3743.792969 0.015625)"/>
      <use xlink:href="#DejaVuSans-35" transform="translate(3807.416016 0.015625)"/>
      <use xlink:href="#DejaVuSans-2c" transform="translate(3871.039062 0.015625)"/>
      <use xlink:href="#DejaVuSans-30" transform="translate(3922.308594 0.015625)"/>
      <use xlink:href="#DejaVuSans-2e" transform="translate(3985.931641 0.015625)"/>
      <use xlink:href="#DejaVuSans-30" transform="translate(4017.71875 0.015625)"/>
      <use xlink:href="#DejaVuSans-30" transform="translate(4081.341797 0.015625)"/>
      <use xlink:href="#DejaVuSans-30" transform="translate(4144.964844 0.015625)"/>
      <use xlink:href="#DejaVuSans-31" transform="translate(4208.587891 0.015625)"/>
      <use xlink:href="#DejaVuSans-30" transform="translate(4272.210938 0.015625)"/>
      <use xlink:href="#DejaVuSans-37" transform="translate(4335.833984 0.015625)"/>
      <use xlink:href="#DejaVuSans-2c" transform="translate(4399.457031 0.015625)"/>
      <use xlink:href="#DejaVuSans-33" transform="translate(4450.726562 0.015625)"/>
      <use xlink:href="#DejaVuSans-2e" transform="translate(4514.349609 0.015625)"/>
      <use xlink:href="#DejaVuSans-34" transform="translate(4546.136719 0.015625)"/>
      <use xlink:href="#DejaVuSans-37" transform="translate(4609.759766 0.015625)"/>
      <use xlink:href="#DejaVuSans-Oblique-65" transform="translate(4673.382812 0.015625)"/>
      <use xlink:href="#DejaVuSans-2212" transform="translate(4754.388672 0.015625)"/>
      <use xlink:href="#DejaVuSans-30" transform="translate(4857.660156 0.015625)"/>
      <use xlink:href="#DejaVuSans-35" transform="translate(4921.283203 0.015625)"/>
      <use xlink:href="#DejaVuSans-2c" transform="translate(4984.90625 0.015625)"/>
      <use xlink:href="#DejaVuSans-30" transform="translate(5036.175781 0.015625)"/>
      <use xlink:href="#DejaVuSans-2e" transform="translate(5099.798828 0.015625)"/>
      <use xlink:href="#DejaVuSans-30" transform="translate(5131.585938 0.015625)"/>
      <use xlink:href="#DejaVuSans-30" transform="translate(5195.208984 0.015625)"/>
      <use xlink:href="#DejaVuSans-30" transform="translate(5258.832031 0.015625)"/>
      <use xlink:href="#DejaVuSans-34" transform="translate(5322.455078 0.015625)"/>
      <use xlink:href="#DejaVuSans-38" transform="translate(5386.078125 0.015625)"/>
      <use xlink:href="#DejaVuSans-32" transform="translate(5449.701172 0.015625)"/>
      <use xlink:href="#DejaVuSans-2c" transform="translate(5513.324219 0.015625)"/>
      <use xlink:href="#DejaVuSans-30" transform="translate(5564.59375 0.015625)"/>
      <use xlink:href="#DejaVuSans-2e" transform="translate(5628.216797 0.015625)"/>
      <use xlink:href="#DejaVuSans-30" transform="translate(5660.003906 0.015625)"/>
      <use xlink:href="#DejaVuSans-30" transform="translate(5723.626953 0.015625)"/>
      <use xlink:href="#DejaVuSans-30" transform="translate(5787.25 0.015625)"/>
      <use xlink:href="#DejaVuSans-33" transform="translate(5850.873047 0.015625)"/>
      <use xlink:href="#DejaVuSans-39" transform="translate(5914.496094 0.015625)"/>
      <use xlink:href="#DejaVuSans-39" transform="translate(5978.119141 0.015625)"/>
      <use xlink:href="#DejaVuSans-2c" transform="translate(6041.742188 0.015625)"/>
      <use xlink:href="#DejaVuSans-30" transform="translate(6093.011719 0.015625)"/>
      <use xlink:href="#DejaVuSans-2e" transform="translate(6156.634766 0.015625)"/>
      <use xlink:href="#DejaVuSans-30" transform="translate(6188.421875 0.015625)"/>
      <use xlink:href="#DejaVuSans-30" transform="translate(6252.044922 0.015625)"/>
      <use xlink:href="#DejaVuSans-33" transform="translate(6315.667969 0.015625)"/>
      <use xlink:href="#DejaVuSans-37" transform="translate(6379.291016 0.015625)"/>
      <use xlink:href="#DejaVuSans-38" transform="translate(6442.914062 0.015625)"/>
      <use xlink:href="#DejaVuSans-2c" transform="translate(6506.537109 0.015625)"/>
      <use xlink:href="#DejaVuSans-30" transform="translate(6557.806641 0.015625)"/>
      <use xlink:href="#DejaVuSans-2e" transform="translate(6621.429688 0.015625)"/>
      <use xlink:href="#DejaVuSans-30" transform="translate(6653.216797 0.015625)"/>
      <use xlink:href="#DejaVuSans-36" transform="translate(6716.839844 0.015625)"/>
      <use xlink:href="#DejaVuSans-37" transform="translate(6780.462891 0.015625)"/>
      <use xlink:href="#DejaVuSans-36" transform="translate(6844.085938 0.015625)"/>
      <use xlink:href="#DejaVuSans-2c" transform="translate(6907.708984 0.015625)"/>
      <use xlink:href="#DejaVuSans-32" transform="translate(6958.978516 0.015625)"/>
      <use xlink:href="#DejaVuSans-2e" transform="translate(7022.601562 0.015625)"/>
      <use xlink:href="#DejaVuSans-38" transform="translate(7051.763672 0.015625)"/>
      <use xlink:href="#DejaVuSans-32" transform="translate(7115.386719 0.015625)"/>
      <use xlink:href="#DejaVuSans-Oblique-65" transform="translate(7179.009766 0.015625)"/>
      <use xlink:href="#DejaVuSans-2212" transform="translate(7260.015625 0.015625)"/>
      <use xlink:href="#DejaVuSans-30" transform="translate(7363.287109 0.015625)"/>
      <use xlink:href="#DejaVuSans-36" transform="translate(7426.910156 0.015625)"/>
      <use xlink:href="#DejaVuSans-2c" transform="translate(7490.533203 0.015625)"/>
      <use xlink:href="#DejaVuSans-32" transform="translate(7541.802734 0.015625)"/>
      <use xlink:href="#DejaVuSans-2e" transform="translate(7605.425781 0.015625)"/>
      <use xlink:href="#DejaVuSans-31" transform="translate(7637.212891 0.015625)"/>
      <use xlink:href="#DejaVuSans-36" transform="translate(7700.835938 0.015625)"/>
      <use xlink:href="#DejaVuSans-Oblique-65" transform="translate(7764.458984 0.015625)"/>
      <use xlink:href="#DejaVuSans-2212" transform="translate(7845.464844 0.015625)"/>
      <use xlink:href="#DejaVuSans-30" transform="translate(7948.736328 0.015625)"/>
      <use xlink:href="#DejaVuSans-35" transform="translate(8012.359375 0.015625)"/>
      <use xlink:href="#DejaVuSans-2c" transform="translate(8075.982422 0.015625)"/>
      <use xlink:href="#DejaVuSans-2e" transform="translate(8127.251953 0.015625)"/>
      <use xlink:href="#DejaVuSans-2e" transform="translate(8178.521484 0.015625)"/>
      <use xlink:href="#DejaVuSans-2e" transform="translate(8229.791016 0.015625)"/>
      <use xlink:href="#DejaVuSans-5d" transform="translate(8281.060547 0.015625)"/>
     </g>
    </g>
   </g>
   <g id="text_13">
    <g clip-path="url(#p9483925c6b)">
     <!-- $|\psi\rangle$ -->
     <g style="fill: #ffffff" transform="translate(433.359291 193.279758) scale(0.13 -0.13)">
      <defs>
       <path id="DejaVuSans-7c" d="M 1344 4891 
L 1344 -1509 
L 813 -1509 
L 813 4891 
L 1344 4891 
z
" transform="scale(0.015625)"/>
       <path id="DejaVuSans-Oblique-3c8" d="M 1591 -78 
Q 891 38 616 341 
Q 278 713 425 1472 
L 819 3500 
L 1400 3500 
L 1009 1494 
Q 900 922 1119 684 
Q 1313 478 1691 434 
L 2284 3500 
L 2856 3500 
L 2263 438 
Q 2681 481 2928 688 
Q 3247 950 3353 1497 
L 3741 3500 
L 4322 3500 
L 3928 1475 
Q 3775 688 3300 344 
Q 2872 34 2163 -75 
L 1919 -1331 
L 1347 -1331 
L 1591 -78 
z
" transform="scale(0.015625)"/>
       <path id="DejaVuSans-27e9" d="M 1925 2006 
L 1044 -844 
L 513 -844 
L 1394 2006 
L 513 4856 
L 1044 4856 
L 1925 2006 
z
" transform="scale(0.015625)"/>
      </defs>
      <use xlink:href="#DejaVuSans-7c" transform="translate(0 0.578125)"/>
      <use xlink:href="#DejaVuSans-Oblique-3c8" transform="translate(33.691406 0.578125)"/>
      <use xlink:href="#DejaVuSans-27e9" transform="translate(99.658203 0.578125)"/>
     </g>
    </g>
   </g>
   <g id="text_14">
    <g clip-path="url(#p9483925c6b)">
     <!-- H -->
     <g transform="translate(432.407148 47.870387) scale(0.13 -0.13)">
      <defs>
       <path id="DejaVuSans-48" d="M 628 4666 
L 1259 4666 
L 1259 2753 
L 3553 2753 
L 3553 4666 
L 4184 4666 
L 4184 0 
L 3553 0 
L 3553 2222 
L 1259 2222 
L 1259 0 
L 628 0 
L 628 4666 
z
" transform="scale(0.015625)"/>
      </defs>
      <use xlink:href="#DejaVuSans-48"/>
     </g>
    </g>
   </g>
   <g id="text_15">
    <g clip-path="url(#p9483925c6b)">
     <!-- 0 -->
     <g style="fill: #ffffff" transform="translate(827.364256 47.870387) scale(0.13 -0.13)">
      <use xlink:href="#DejaVuSans-30"/>
     </g>
    </g>
   </g>
   <g id="text_16">
    <g clip-path="url(#p9483925c6b)">
     <!-- 1 -->
     <g style="fill: #ffffff" transform="translate(827.364256 94.224386) scale(0.13 -0.13)">
      <use xlink:href="#DejaVuSans-31"/>
     </g>
    </g>
   </g>
   <g id="text_17">
    <g clip-path="url(#p9483925c6b)">
     <!-- 2 -->
     <g style="fill: #ffffff" transform="translate(827.364256 140.578386) scale(0.13 -0.13)">
      <use xlink:href="#DejaVuSans-32"/>
     </g>
    </g>
   </g>
   <g id="text_18">
    <g clip-path="url(#p9483925c6b)">
     <!-- 3 -->
     <g style="fill: #ffffff" transform="translate(827.364256 186.932385) scale(0.13 -0.13)">
      <use xlink:href="#DejaVuSans-33"/>
     </g>
    </g>
   </g>
   <g id="text_19">
    <g clip-path="url(#p9483925c6b)">
     <!-- 4 -->
     <g style="fill: #ffffff" transform="translate(827.364256 233.286385) scale(0.13 -0.13)">
      <use xlink:href="#DejaVuSans-34"/>
     </g>
    </g>
   </g>
   <g id="text_20">
    <g clip-path="url(#p9483925c6b)">
     <!-- 5 -->
     <g style="fill: #ffffff" transform="translate(827.364256 279.640384) scale(0.13 -0.13)">
      <use xlink:href="#DejaVuSans-35"/>
     </g>
    </g>
   </g>
   <g id="text_21">
    <g clip-path="url(#p9483925c6b)">
     <!-- Unitary -->
     <g style="fill: #ffffff" transform="translate(835.847161 163.755385) scale(0.13 -0.13)">
      <defs>
       <path id="DejaVuSans-55" d="M 556 4666 
L 1191 4666 
L 1191 1831 
Q 1191 1081 1462 751 
Q 1734 422 2344 422 
Q 2950 422 3222 751 
Q 3494 1081 3494 1831 
L 3494 4666 
L 4128 4666 
L 4128 1753 
Q 4128 841 3676 375 
Q 3225 -91 2344 -91 
Q 1459 -91 1007 375 
Q 556 841 556 1753 
L 556 4666 
z
" transform="scale(0.015625)"/>
       <path id="DejaVuSans-6e" d="M 3513 2113 
L 3513 0 
L 2938 0 
L 2938 2094 
Q 2938 2591 2744 2837 
Q 2550 3084 2163 3084 
Q 1697 3084 1428 2787 
Q 1159 2491 1159 1978 
L 1159 0 
L 581 0 
L 581 3500 
L 1159 3500 
L 1159 2956 
Q 1366 3272 1645 3428 
Q 1925 3584 2291 3584 
Q 2894 3584 3203 3211 
Q 3513 2838 3513 2113 
z
" transform="scale(0.015625)"/>
       <path id="DejaVuSans-69" d="M 603 3500 
L 1178 3500 
L 1178 0 
L 603 0 
L 603 3500 
z
M 603 4863 
L 1178 4863 
L 1178 4134 
L 603 4134 
L 603 4863 
z
" transform="scale(0.015625)"/>
       <path id="DejaVuSans-74" d="M 1172 4494 
L 1172 3500 
L 2356 3500 
L 2356 3053 
L 1172 3053 
L 1172 1153 
Q 1172 725 1289 603 
Q 1406 481 1766 481 
L 2356 481 
L 2356 0 
L 1766 0 
Q 1100 0 847 248 
Q 594 497 594 1153 
L 594 3053 
L 172 3053 
L 172 3500 
L 594 3500 
L 594 4494 
L 1172 4494 
z
" transform="scale(0.015625)"/>
       <path id="DejaVuSans-61" d="M 2194 1759 
Q 1497 1759 1228 1600 
Q 959 1441 959 1056 
Q 959 750 1161 570 
Q 1363 391 1709 391 
Q 2188 391 2477 730 
Q 2766 1069 2766 1631 
L 2766 1759 
L 2194 1759 
z
M 3341 1997 
L 3341 0 
L 2766 0 
L 2766 531 
Q 2569 213 2275 61 
Q 1981 -91 1556 -91 
Q 1019 -91 701 211 
Q 384 513 384 1019 
Q 384 1609 779 1909 
Q 1175 2209 1959 2209 
L 2766 2209 
L 2766 2266 
Q 2766 2663 2505 2880 
Q 2244 3097 1772 3097 
Q 1472 3097 1187 3025 
Q 903 2953 641 2809 
L 641 3341 
Q 956 3463 1253 3523 
Q 1550 3584 1831 3584 
Q 2591 3584 2966 3190 
Q 3341 2797 3341 1997 
z
" transform="scale(0.015625)"/>
       <path id="DejaVuSans-72" d="M 2631 2963 
Q 2534 3019 2420 3045 
Q 2306 3072 2169 3072 
Q 1681 3072 1420 2755 
Q 1159 2438 1159 1844 
L 1159 0 
L 581 0 
L 581 3500 
L 1159 3500 
L 1159 2956 
Q 1341 3275 1631 3429 
Q 1922 3584 2338 3584 
Q 2397 3584 2469 3576 
Q 2541 3569 2628 3553 
L 2631 2963 
z
" transform="scale(0.015625)"/>
       <path id="DejaVuSans-79" d="M 2059 -325 
Q 1816 -950 1584 -1140 
Q 1353 -1331 966 -1331 
L 506 -1331 
L 506 -850 
L 844 -850 
Q 1081 -850 1212 -737 
Q 1344 -625 1503 -206 
L 1606 56 
L 191 3500 
L 800 3500 
L 1894 763 
L 2988 3500 
L 3597 3500 
L 2059 -325 
z
" transform="scale(0.015625)"/>
      </defs>
      <use xlink:href="#DejaVuSans-55"/>
      <use xlink:href="#DejaVuSans-6e" x="73.193359"/>
      <use xlink:href="#DejaVuSans-69" x="136.572266"/>
      <use xlink:href="#DejaVuSans-74" x="164.355469"/>
      <use xlink:href="#DejaVuSans-61" x="203.564453"/>
      <use xlink:href="#DejaVuSans-72" x="264.84375"/>
      <use xlink:href="#DejaVuSans-79" x="305.957031"/>
     </g>
    </g>
   </g>
  </g>
 </g>
 <defs>
  <clipPath id="p9483925c6b">
   <rect x="7.2" y="7.2" width="901.051985" height="296.665596"/>
  </clipPath>
 </defs>
</svg>
