<?xml version="1.0" encoding="utf-8" standalone="no"?>
<!DOCTYPE svg PUBLIC "-//W3C//DTD SVG 1.1//EN"
  "http://www.w3.org/Graphics/SVG/1.1/DTD/svg11.dtd">
<svg xmlns:xlink="http://www.w3.org/1999/xlink" width="1152pt" height="576pt" viewBox="0 0 1152 576" xmlns="http://www.w3.org/2000/svg" version="1.1">
 <metadata>
  <rdf:RDF xmlns:dc="http://purl.org/dc/elements/1.1/" xmlns:cc="http://creativecommons.org/ns#" xmlns:rdf="http://www.w3.org/1999/02/22-rdf-syntax-ns#">
   <cc:Work>
    <dc:type rdf:resource="http://purl.org/dc/dcmitype/StillImage"/>
    <dc:date>2024-11-02T19:03:16.179621</dc:date>
    <dc:format>image/svg+xml</dc:format>
    <dc:creator>
     <cc:Agent>
      <dc:title>Matplotlib v3.9.2, https://matplotlib.org/</dc:title>
     </cc:Agent>
    </dc:creator>
   </cc:Work>
  </rdf:RDF>
 </metadata>
 <defs>
  <style type="text/css">*{stroke-linejoin: round; stroke-linecap: butt}</style>
 </defs>
 <g id="figure_1">
  <g id="patch_1">
   <path d="M 0 576 
L 1152 576 
L 1152 0 
L 0 0 
z
" style="fill: #ffffff"/>
  </g>
  <g id="patch_2">
   <path d="M 28.8 576 
L 547.2 576 
L 547.2 57.6 
L 28.8 57.6 
z
" style="fill: #ffffff"/>
  </g>
  <g id="pane3d_1">
   <g id="patch_3">
    <path d="M 130.07018 436.456468 
L 253.494133 330.550231 
L 251.743197 126.70673 
L 122.643358 223.613571 
" style="fill: #f2f2f2; opacity: 0.5; stroke: #f2f2f2; stroke-linejoin: miter"/>
   </g>
  </g>
  <g id="pane3d_2">
   <g id="patch_4">
    <path d="M 253.494133 330.550231 
L 455.554898 390.069341 
L 462.583588 181.103065 
L 251.743197 126.70673 
" style="fill: #e6e6e6; opacity: 0.5; stroke: #e6e6e6; stroke-linejoin: miter"/>
   </g>
  </g>
  <g id="pane3d_3">
   <g id="patch_5">
    <path d="M 130.07018 436.456468 
L 340.912731 504.076731 
L 455.554898 390.069341 
L 253.494133 330.550231 
" style="fill: #ececec; opacity: 0.5; stroke: #ececec; stroke-linejoin: miter"/>
   </g>
  </g>
  <g id="grid3d_1">
   <g id="Line3DCollection_1">
    <path d="M 158.635886 445.617904 
L 280.925726 338.630493 
L 280.328796 134.081748 
" style="fill: none; stroke: #b0b0b0; stroke-width: 0.8"/>
    <path d="M 208.310046 461.549127 
L 328.58611 352.669358 
L 330.022474 146.902603 
" style="fill: none; stroke: #b0b0b0; stroke-width: 0.8"/>
    <path d="M 258.89502 477.772462 
L 377.066152 366.949661 
L 380.607663 159.953465 
" style="fill: none; stroke: #b0b0b0; stroke-width: 0.8"/>
    <path d="M 310.41609 494.296016 
L 426.38718 381.477685 
L 432.108569 173.24058 
" style="fill: none; stroke: #b0b0b0; stroke-width: 0.8"/>
   </g>
  </g>
  <g id="grid3d_2">
   <g id="Line3DCollection_2">
    <path d="M 141.757365 209.265931 
L 148.301379 420.812846 
L 357.880707 487.202708 
" style="fill: none; stroke: #b0b0b0; stroke-width: 0.8"/>
    <path d="M 173.704273 185.285468 
L 178.805664 394.638072 
L 386.24502 458.995448 
" style="fill: none; stroke: #b0b0b0; stroke-width: 0.8"/>
    <path d="M 204.65707 162.051218 
L 208.400054 369.24405 
L 413.731787 431.660877 
" style="fill: none; stroke: #b0b0b0; stroke-width: 0.8"/>
    <path d="M 234.661448 139.528886 
L 237.124663 344.596362 
L 440.38111 405.159111 
" style="fill: none; stroke: #b0b0b0; stroke-width: 0.8"/>
   </g>
  </g>
  <g id="grid3d_3">
   <g id="Line3DCollection_3">
    <path d="M 456.252193 369.338437 
L 253.320188 310.299593 
L 129.334182 415.363726 
" style="fill: none; stroke: #b0b0b0; stroke-width: 0.8"/>
    <path d="M 457.028316 346.263916 
L 253.12664 287.766881 
L 128.514774 391.880574 
" style="fill: none; stroke: #b0b0b0; stroke-width: 0.8"/>
    <path d="M 457.811947 322.966193 
L 252.931288 265.023951 
L 127.68722 368.163973 
" style="fill: none; stroke: #b0b0b0; stroke-width: 0.8"/>
    <path d="M 458.603195 299.442014 
L 252.734104 242.067847 
L 126.851398 344.210424 
" style="fill: none; stroke: #b0b0b0; stroke-width: 0.8"/>
    <path d="M 459.402172 275.688061 
L 252.535063 218.895559 
L 126.007183 320.016359 
" style="fill: none; stroke: #b0b0b0; stroke-width: 0.8"/>
    <path d="M 460.208991 251.700951 
L 252.334139 195.504018 
L 125.15445 295.578136 
" style="fill: none; stroke: #b0b0b0; stroke-width: 0.8"/>
    <path d="M 461.023768 227.477234 
L 252.131304 171.890098 
L 124.293067 270.89204 
" style="fill: none; stroke: #b0b0b0; stroke-width: 0.8"/>
    <path d="M 461.846622 203.013392 
L 251.926532 148.050612 
L 123.422902 245.954282 
" style="fill: none; stroke: #b0b0b0; stroke-width: 0.8"/>
   </g>
  </g>
  <g id="axis3d_1">
   <g id="line2d_1">
    <path d="M 130.07018 436.456468 
L 340.912731 504.076731 
" style="fill: none; stroke: #000000; stroke-width: 0.8; stroke-linecap: square"/>
   </g>
   <g id="xtick_1">
    <g id="line2d_2">
     <path d="M 159.677227 444.706868 
L 156.549953 447.442819 
" style="fill: none; stroke: #000000; stroke-width: 0.8; stroke-linecap: square"/>
    </g>
    <g id="text_1">
     <!-- 00 -->
     <g transform="translate(131.351686 489.365693) rotate(-45) scale(0.21 -0.21)">
      <defs>
       <path id="DejaVuSans-30" d="M 2034 4250 
Q 1547 4250 1301 3770 
Q 1056 3291 1056 2328 
Q 1056 1369 1301 889 
Q 1547 409 2034 409 
Q 2525 409 2770 889 
Q 3016 1369 3016 2328 
Q 3016 3291 2770 3770 
Q 2525 4250 2034 4250 
z
M 2034 4750 
Q 2819 4750 3233 4129 
Q 3647 3509 3647 2328 
Q 3647 1150 3233 529 
Q 2819 -91 2034 -91 
Q 1250 -91 836 529 
Q 422 1150 422 2328 
Q 422 3509 836 4129 
Q 1250 4750 2034 4750 
z
" transform="scale(0.015625)"/>
      </defs>
      <use xlink:href="#DejaVuSans-30"/>
      <use xlink:href="#DejaVuSans-30" x="63.623047"/>
     </g>
    </g>
   </g>
   <g id="xtick_2">
    <g id="line2d_3">
     <path d="M 209.334802 460.621468 
L 206.257306 463.407368 
" style="fill: none; stroke: #000000; stroke-width: 0.8; stroke-linecap: square"/>
    </g>
    <g id="text_2">
     <!-- 01 -->
     <g transform="translate(181.023931 505.435143) rotate(-45) scale(0.21 -0.21)">
      <defs>
       <path id="DejaVuSans-31" d="M 794 531 
L 1825 531 
L 1825 4091 
L 703 3866 
L 703 4441 
L 1819 4666 
L 2450 4666 
L 2450 531 
L 3481 531 
L 3481 0 
L 794 0 
L 794 531 
z
" transform="scale(0.015625)"/>
      </defs>
      <use xlink:href="#DejaVuSans-30"/>
      <use xlink:href="#DejaVuSans-31" x="63.623047"/>
     </g>
    </g>
   </g>
   <g id="xtick_3">
    <g id="line2d_4">
     <path d="M 259.902405 476.82772 
L 256.877048 479.664949 
" style="fill: none; stroke: #000000; stroke-width: 0.8; stroke-linecap: square"/>
    </g>
    <g id="text_3">
     <!-- 10 -->
     <g transform="translate(231.60781 521.799516) rotate(-45) scale(0.21 -0.21)">
      <use xlink:href="#DejaVuSans-31"/>
      <use xlink:href="#DejaVuSans-30" x="63.623047"/>
     </g>
    </g>
   </g>
   <g id="xtick_4">
    <g id="line2d_5">
     <path d="M 311.405283 493.333715 
L 308.434531 496.223705 
" style="fill: none; stroke: #000000; stroke-width: 0.8; stroke-linecap: square"/>
    </g>
    <g id="text_4">
     <!-- 11 -->
     <g transform="translate(283.128654 538.467006) rotate(-45) scale(0.21 -0.21)">
      <use xlink:href="#DejaVuSans-31"/>
      <use xlink:href="#DejaVuSans-31" x="63.623047"/>
     </g>
    </g>
   </g>
  </g>
  <g id="axis3d_2">
   <g id="line2d_6">
    <path d="M 455.554898 390.069341 
L 340.912731 504.076731 
" style="fill: none; stroke: #000000; stroke-width: 0.8; stroke-linecap: square"/>
   </g>
   <g id="xtick_5">
    <g id="line2d_7">
     <path d="M 356.140222 486.651363 
L 361.364886 488.306415 
" style="fill: none; stroke: #000000; stroke-width: 0.8; stroke-linecap: square"/>
    </g>
    <g id="text_5">
     <!-- 00 -->
     <g transform="translate(368.70027 499.207917) rotate(-337.5) scale(0.21 -0.21)">
      <use xlink:href="#DejaVuSans-30"/>
      <use xlink:href="#DejaVuSans-30" x="63.623047"/>
     </g>
    </g>
   </g>
   <g id="xtick_6">
    <g id="line2d_8">
     <path d="M 384.5233 458.46129 
L 389.691587 460.064734 
" style="fill: none; stroke: #000000; stroke-width: 0.8; stroke-linecap: square"/>
    </g>
    <g id="text_6">
     <!-- 01 -->
     <g transform="translate(396.913817 470.822876) rotate(-337.5) scale(0.21 -0.21)">
      <use xlink:href="#DejaVuSans-30"/>
      <use xlink:href="#DejaVuSans-31" x="63.623047"/>
     </g>
    </g>
   </g>
   <g id="xtick_7">
    <g id="line2d_9">
     <path d="M 412.028511 431.143114 
L 417.141381 432.697327 
" style="fill: none; stroke: #000000; stroke-width: 0.8; stroke-linecap: square"/>
    </g>
    <g id="text_7">
     <!-- 10 -->
     <g transform="translate(424.254695 443.315808) rotate(-337.5) scale(0.21 -0.21)">
      <use xlink:href="#DejaVuSans-31"/>
      <use xlink:href="#DejaVuSans-30" x="63.623047"/>
     </g>
    </g>
   </g>
   <g id="xtick_8">
    <g id="line2d_10">
     <path d="M 438.695964 404.657001 
L 443.754368 406.164215 
" style="fill: none; stroke: #000000; stroke-width: 0.8; stroke-linecap: square"/>
    </g>
    <g id="text_8">
     <!-- 11 -->
     <g transform="translate(450.762776 416.646599) rotate(-337.5) scale(0.21 -0.21)">
      <use xlink:href="#DejaVuSans-31"/>
      <use xlink:href="#DejaVuSans-31" x="63.623047"/>
     </g>
    </g>
   </g>
  </g>
  <g id="axis3d_3">
   <g id="line2d_11">
    <path d="M 455.554898 390.069341 
L 462.583588 181.103065 
" style="fill: none; stroke: #000000; stroke-width: 0.8; stroke-linecap: square"/>
   </g>
   <g id="xtick_9">
    <g id="line2d_12">
     <path d="M 454.570002 368.849038 
L 459.619522 370.318091 
" style="fill: none; stroke: #000000; stroke-width: 0.8; stroke-linecap: square"/>
    </g>
    <g id="text_9">
     <!-- −0.3 -->
     <g transform="translate(469.789217 363.065277) scale(0.21 -0.21)">
      <defs>
       <path id="DejaVuSans-2212" d="M 678 2272 
L 4684 2272 
L 4684 1741 
L 678 1741 
L 678 2272 
z
" transform="scale(0.015625)"/>
       <path id="DejaVuSans-2e" d="M 684 794 
L 1344 794 
L 1344 0 
L 684 0 
L 684 794 
z
" transform="scale(0.015625)"/>
       <path id="DejaVuSans-33" d="M 2597 2516 
Q 3050 2419 3304 2112 
Q 3559 1806 3559 1356 
Q 3559 666 3084 287 
Q 2609 -91 1734 -91 
Q 1441 -91 1130 -33 
Q 819 25 488 141 
L 488 750 
Q 750 597 1062 519 
Q 1375 441 1716 441 
Q 2309 441 2620 675 
Q 2931 909 2931 1356 
Q 2931 1769 2642 2001 
Q 2353 2234 1838 2234 
L 1294 2234 
L 1294 2753 
L 1863 2753 
Q 2328 2753 2575 2939 
Q 2822 3125 2822 3475 
Q 2822 3834 2567 4026 
Q 2313 4219 1838 4219 
Q 1578 4219 1281 4162 
Q 984 4106 628 3988 
L 628 4550 
Q 988 4650 1302 4700 
Q 1616 4750 1894 4750 
Q 2613 4750 3031 4423 
Q 3450 4097 3450 3541 
Q 3450 3153 3228 2886 
Q 3006 2619 2597 2516 
z
" transform="scale(0.015625)"/>
      </defs>
      <use xlink:href="#DejaVuSans-2212"/>
      <use xlink:href="#DejaVuSans-30" x="83.789062"/>
      <use xlink:href="#DejaVuSans-2e" x="147.412109"/>
      <use xlink:href="#DejaVuSans-33" x="179.199219"/>
     </g>
    </g>
   </g>
   <g id="xtick_10">
    <g id="line2d_13">
     <path d="M 455.337803 345.778927 
L 460.412318 347.234747 
" style="fill: none; stroke: #000000; stroke-width: 0.8; stroke-linecap: square"/>
    </g>
    <g id="text_10">
     <!-- −0.2 -->
     <g transform="translate(470.629537 340.007937) scale(0.21 -0.21)">
      <defs>
       <path id="DejaVuSans-32" d="M 1228 531 
L 3431 531 
L 3431 0 
L 469 0 
L 469 531 
Q 828 903 1448 1529 
Q 2069 2156 2228 2338 
Q 2531 2678 2651 2914 
Q 2772 3150 2772 3378 
Q 2772 3750 2511 3984 
Q 2250 4219 1831 4219 
Q 1534 4219 1204 4116 
Q 875 4013 500 3803 
L 500 4441 
Q 881 4594 1212 4672 
Q 1544 4750 1819 4750 
Q 2544 4750 2975 4387 
Q 3406 4025 3406 3419 
Q 3406 3131 3298 2873 
Q 3191 2616 2906 2266 
Q 2828 2175 2409 1742 
Q 1991 1309 1228 531 
z
" transform="scale(0.015625)"/>
      </defs>
      <use xlink:href="#DejaVuSans-2212"/>
      <use xlink:href="#DejaVuSans-30" x="83.789062"/>
      <use xlink:href="#DejaVuSans-2e" x="147.412109"/>
      <use xlink:href="#DejaVuSans-32" x="179.199219"/>
     </g>
    </g>
   </g>
   <g id="xtick_11">
    <g id="line2d_14">
     <path d="M 456.11303 322.485723 
L 461.212788 323.927984 
" style="fill: none; stroke: #000000; stroke-width: 0.8; stroke-linecap: square"/>
    </g>
    <g id="text_11">
     <!-- −0.1 -->
     <g transform="translate(471.477976 316.727817) scale(0.21 -0.21)">
      <use xlink:href="#DejaVuSans-2212"/>
      <use xlink:href="#DejaVuSans-30" x="83.789062"/>
      <use xlink:href="#DejaVuSans-2e" x="147.412109"/>
      <use xlink:href="#DejaVuSans-31" x="179.199219"/>
     </g>
    </g>
   </g>
   <g id="xtick_12">
    <g id="line2d_15">
     <path d="M 456.895789 298.966173 
L 462.021043 300.394543 
" style="fill: none; stroke: #000000; stroke-width: 0.8; stroke-linecap: square"/>
    </g>
    <g id="text_12">
     <!-- 0.0 -->
     <g transform="translate(472.334653 293.221672) scale(0.21 -0.21)">
      <use xlink:href="#DejaVuSans-30"/>
      <use xlink:href="#DejaVuSans-2e" x="63.623047"/>
      <use xlink:href="#DejaVuSans-30" x="95.410156"/>
     </g>
    </g>
   </g>
   <g id="xtick_13">
    <g id="line2d_16">
     <path d="M 457.686192 275.216963 
L 462.837197 276.6311 
" style="fill: none; stroke: #000000; stroke-width: 0.8; stroke-linecap: square"/>
    </g>
    <g id="text_13">
     <!-- 0.1 -->
     <g transform="translate(473.199688 269.486196) scale(0.21 -0.21)">
      <use xlink:href="#DejaVuSans-30"/>
      <use xlink:href="#DejaVuSans-2e" x="63.623047"/>
      <use xlink:href="#DejaVuSans-31" x="95.410156"/>
     </g>
    </g>
   </g>
   <g id="xtick_14">
    <g id="line2d_17">
     <path d="M 458.484351 251.234712 
L 463.661367 252.634268 
" style="fill: none; stroke: #000000; stroke-width: 0.8; stroke-linecap: square"/>
    </g>
    <g id="text_14">
     <!-- 0.2 -->
     <g transform="translate(474.073204 245.518015) scale(0.21 -0.21)">
      <use xlink:href="#DejaVuSans-30"/>
      <use xlink:href="#DejaVuSans-2e" x="63.623047"/>
      <use xlink:href="#DejaVuSans-32" x="95.410156"/>
     </g>
    </g>
   </g>
   <g id="xtick_15">
    <g id="line2d_18">
     <path d="M 459.29038 227.015973 
L 464.493672 228.40059 
" style="fill: none; stroke: #000000; stroke-width: 0.8; stroke-linecap: square"/>
    </g>
    <g id="text_15">
     <!-- 0.3 -->
     <g transform="translate(474.955326 221.31369) scale(0.21 -0.21)">
      <use xlink:href="#DejaVuSans-30"/>
      <use xlink:href="#DejaVuSans-2e" x="63.623047"/>
      <use xlink:href="#DejaVuSans-33" x="95.410156"/>
     </g>
    </g>
   </g>
   <g id="xtick_16">
    <g id="line2d_19">
     <path d="M 460.104397 202.55723 
L 465.334232 203.926543 
" style="fill: none; stroke: #000000; stroke-width: 0.8; stroke-linecap: square"/>
    </g>
    <g id="text_16">
     <!-- 0.4 -->
     <g transform="translate(475.846182 196.869715) scale(0.21 -0.21)">
      <defs>
       <path id="DejaVuSans-34" d="M 2419 4116 
L 825 1625 
L 2419 1625 
L 2419 4116 
z
M 2253 4666 
L 3047 4666 
L 3047 1625 
L 3713 1625 
L 3713 1100 
L 3047 1100 
L 3047 0 
L 2419 0 
L 2419 1100 
L 313 1100 
L 313 1709 
L 2253 4666 
z
" transform="scale(0.015625)"/>
      </defs>
      <use xlink:href="#DejaVuSans-30"/>
      <use xlink:href="#DejaVuSans-2e" x="63.623047"/>
      <use xlink:href="#DejaVuSans-34" x="95.410156"/>
     </g>
    </g>
   </g>
  </g>
  <g id="axes_1">
   <g id="Poly3DCollection_1">
    <path d="M 259.218337 254.255277 
L 259.26381 260.493037 
L 283.375248 267.284613 
L 283.360387 261.028488 
z
" clip-path="url(#ped8c6ceab9)" style="fill: #648fff"/>
    <path d="M 244.876089 266.024174 
L 244.940267 272.293797 
L 259.26381 260.493037 
L 259.218337 254.255277 
z
" clip-path="url(#ped8c6ceab9)" style="fill: #324880"/>
    <path d="M 244.940267 272.293797 
L 269.171408 279.188174 
L 283.375248 267.284613 
L 259.26381 260.493037 
z
" clip-path="url(#ped8c6ceab9)" style="fill: #577ddf"/>
    <path d="M 244.876089 266.024174 
L 259.218337 254.255277 
L 283.360387 261.028488 
L 269.138148 272.90004 
z
" clip-path="url(#ped8c6ceab9)" style="fill: #3f599f"/>
    <path d="M 269.138148 272.90004 
L 283.360387 261.028488 
L 283.375248 267.284613 
L 269.171408 279.188174 
z
" clip-path="url(#ped8c6ceab9)" style="fill: #648fff"/>
    <path d="M 244.876089 266.024174 
L 269.138148 272.90004 
L 269.171408 279.188174 
L 244.940267 272.293797 
z
" clip-path="url(#ped8c6ceab9)" style="fill: #324880"/>
    <path d="M 230.316118 277.971729 
L 230.568761 297.051184 
L 254.857163 304.088324 
L 254.699057 284.952603 
z
" clip-path="url(#ped8c6ceab9)" style="fill: #648fff"/>
    <path d="M 215.533428 290.102043 
L 215.846169 309.279114 
L 230.568761 297.051184 
L 230.316118 277.971729 
z
" clip-path="url(#ped8c6ceab9)" style="fill: #324880"/>
    <path d="M 215.846169 309.279114 
L 240.255381 316.424122 
L 254.857163 304.088324 
L 230.568761 297.051184 
z
" clip-path="url(#ped8c6ceab9)" style="fill: #577ddf"/>
    <path d="M 187.342974 406.120684 
L 211.635283 413.696335 
L 226.459863 400.617052 
L 202.286551 393.155814 
z
" clip-path="url(#ped8c6ceab9)" style="fill: #577ddf"/>
    <path d="M 215.533428 290.102043 
L 230.316118 277.971729 
L 254.699057 284.952603 
L 240.038117 297.190348 
z
" clip-path="url(#ped8c6ceab9)" style="fill: #3f599f"/>
    <path d="M 240.038117 297.190348 
L 254.699057 284.952603 
L 254.857163 304.088324 
L 240.255381 316.424122 
z
" clip-path="url(#ped8c6ceab9)" style="fill: #648fff"/>
    <path d="M 215.533428 290.102043 
L 240.038117 297.190348 
L 240.255381 316.424122 
L 215.846169 309.279114 
z
" clip-path="url(#ped8c6ceab9)" style="fill: #324880"/>
    <path d="M 200.522869 302.41934 
L 202.286551 393.155814 
L 226.459863 400.617052 
L 225.150174 309.617575 
z
" clip-path="url(#ped8c6ceab9)" style="fill: #648fff"/>
    <path d="M 185.279132 314.927978 
L 187.342974 406.120684 
L 202.286551 393.155814 
L 200.522869 302.41934 
z
" clip-path="url(#ped8c6ceab9)" style="fill: #324880"/>
    <path d="M 210.029915 322.238721 
L 225.150174 309.617575 
L 226.459863 400.617052 
L 211.635283 413.696335 
z
" clip-path="url(#ped8c6ceab9)" style="fill: #648fff"/>
    <path d="M 185.279132 314.927978 
L 210.029915 322.238721 
L 211.635283 413.696335 
L 187.342974 406.120684 
z
" clip-path="url(#ped8c6ceab9)" style="fill: #324880"/>
    <path d="M 185.279132 314.927978 
L 200.522869 302.41934 
L 225.150174 309.617575 
L 210.029915 322.238721 
z
" clip-path="url(#ped8c6ceab9)" style="fill: #3f599f"/>
    <path d="M 206.048618 448.347906 
L 231.02678 456.302263 
L 246.064427 442.570234 
L 221.212532 434.738939 
z
" clip-path="url(#ped8c6ceab9)" style="fill: #577ddf"/>
    <path d="M 219.773878 342.552002 
L 221.212532 434.738939 
L 246.064427 442.570234 
L 245.105909 350.114311 
z
" clip-path="url(#ped8c6ceab9)" style="fill: #648fff"/>
    <path d="M 204.300522 355.694385 
L 206.048618 448.347906 
L 221.212532 434.738939 
L 219.773878 342.552002 
z
" clip-path="url(#ped8c6ceab9)" style="fill: #324880"/>
    <path d="M 229.763725 363.377879 
L 245.105909 350.114311 
L 246.064427 442.570234 
L 231.02678 456.302263 
z
" clip-path="url(#ped8c6ceab9)" style="fill: #648fff"/>
    <path d="M 204.300522 355.694385 
L 229.763725 363.377879 
L 231.02678 456.302263 
L 206.048618 448.347906 
z
" clip-path="url(#ped8c6ceab9)" style="fill: #324880"/>
    <path d="M 204.300522 355.694385 
L 219.773878 342.552002 
L 245.105909 350.114311 
L 229.763725 363.377879 
z
" clip-path="url(#ped8c6ceab9)" style="fill: #3f599f"/>
    <path d="M 270.671131 357.746234 
L 270.770929 377.454266 
L 296.466732 385.215787 
L 296.472778 365.448736 
z
" clip-path="url(#ped8c6ceab9)" style="fill: #648fff"/>
    <path d="M 255.46321 371.132672 
L 255.626674 390.943087 
L 270.770929 377.454266 
L 270.671131 357.746234 
z
" clip-path="url(#ped8c6ceab9)" style="fill: #324880"/>
    <path d="M 255.626674 390.943087 
L 281.458775 398.829625 
L 296.466732 385.215787 
L 270.770929 377.454266 
z
" clip-path="url(#ped8c6ceab9)" style="fill: #577ddf"/>
    <path d="M 255.46321 371.132672 
L 270.671131 357.746234 
L 296.472778 365.448736 
L 281.40228 378.959759 
z
" clip-path="url(#ped8c6ceab9)" style="fill: #3f599f"/>
    <path d="M 281.40228 378.959759 
L 296.472778 365.448736 
L 296.466732 385.215787 
L 281.458775 398.829625 
z
" clip-path="url(#ped8c6ceab9)" style="fill: #648fff"/>
    <path d="M 255.46321 371.132672 
L 281.40228 378.959759 
L 281.458775 398.829625 
L 255.626674 390.943087 
z
" clip-path="url(#ped8c6ceab9)" style="fill: #324880"/>
    <path d="M 322.514144 373.222801 
L 322.476532 379.77225 
L 348.724693 387.638627 
L 348.798587 381.069431 
z
" clip-path="url(#ped8c6ceab9)" style="fill: #648fff"/>
    <path d="M 307.584301 386.860156 
L 307.566963 393.44386 
L 322.476532 379.77225 
L 322.514144 373.222801 
z
" clip-path="url(#ped8c6ceab9)" style="fill: #324880"/>
    <path d="M 307.566963 393.44386 
L 333.958685 401.438493 
L 348.724693 387.638627 
L 322.476532 379.77225 
z
" clip-path="url(#ped8c6ceab9)" style="fill: #577ddf"/>
    <path d="M 307.584301 386.860156 
L 322.514144 373.222801 
L 348.798587 381.069431 
L 334.012704 394.834899 
z
" clip-path="url(#ped8c6ceab9)" style="fill: #3f599f"/>
    <path d="M 334.012704 394.834899 
L 348.798587 381.069431 
L 348.724693 387.638627 
L 333.958685 401.438493 
z
" clip-path="url(#ped8c6ceab9)" style="fill: #648fff"/>
    <path d="M 307.584301 386.860156 
L 334.012704 394.834899 
L 333.958685 401.438493 
L 307.566963 393.44386 
z
" clip-path="url(#ped8c6ceab9)" style="fill: #324880"/>
   </g>
   <g id="Poly3DCollection_2">
    <path d="M 133.667424 343.290632 
L 339.873559 405.850659 
L 452.144439 300.313595 
L 254.345659 245.096844 
z
" clip-path="url(#ped8c6ceab9)" style="fill-opacity: 0.25"/>
   </g>
   <g id="Poly3DCollection_3">
    <path d="M 307.712681 267.860684 
L 307.747781 254.338489 
L 332.381384 261.190264 
L 332.277977 274.752639 
z
" clip-path="url(#ped8c6ceab9)" style="fill: #324880"/>
    <path d="M 293.613101 279.836241 
L 293.609226 266.244334 
L 307.747781 254.338489 
L 307.712681 267.860684 
z
" clip-path="url(#ped8c6ceab9)" style="fill: #648fff"/>
    <path d="M 293.613101 279.836241 
L 307.712681 267.860684 
L 332.277977 274.752639 
L 318.303764 286.833574 
z
" clip-path="url(#ped8c6ceab9)" style="fill: #3f599f"/>
    <path d="M 293.609226 266.244334 
L 318.368896 273.201164 
L 332.381384 261.190264 
L 307.747781 254.338489 
z
" clip-path="url(#ped8c6ceab9)" style="fill: #577ddf"/>
    <path d="M 318.303764 286.833574 
L 332.277977 274.752639 
L 332.381384 261.190264 
L 318.368896 273.201164 
z
" clip-path="url(#ped8c6ceab9)" style="fill: #324880"/>
    <path d="M 293.613101 279.836241 
L 318.303764 286.833574 
L 318.368896 273.201164 
L 293.609226 266.244334 
z
" clip-path="url(#ped8c6ceab9)" style="fill: #648fff"/>
    <path d="M 357.059083 281.705142 
L 357.161303 273.663856 
L 382.20289 280.653775 
L 382.058856 288.718992 
z
" clip-path="url(#ped8c6ceab9)" style="fill: #324880"/>
    <path d="M 343.213001 293.892851 
L 343.293022 285.810045 
L 357.161303 273.663856 
L 357.059083 281.705142 
z
" clip-path="url(#ped8c6ceab9)" style="fill: #648fff"/>
    <path d="M 343.213001 293.892851 
L 357.059083 281.705142 
L 382.058856 288.718992 
L 368.343727 301.014898 
z
" clip-path="url(#ped8c6ceab9)" style="fill: #3f599f"/>
    <path d="M 343.293022 285.810045 
L 368.466005 292.907971 
L 382.20289 280.653775 
L 357.161303 273.663856 
z
" clip-path="url(#ped8c6ceab9)" style="fill: #577ddf"/>
    <path d="M 368.343727 301.014898 
L 382.058856 288.718992 
L 382.20289 280.653775 
L 368.466005 292.907971 
z
" clip-path="url(#ped8c6ceab9)" style="fill: #324880"/>
    <path d="M 343.213001 293.892851 
L 368.343727 301.014898 
L 368.466005 292.907971 
L 343.293022 285.810045 
z
" clip-path="url(#ped8c6ceab9)" style="fill: #648fff"/>
    <path d="M 407.280201 295.795007 
L 407.341599 293.133175 
L 432.801727 300.26425 
L 432.726078 302.934015 
z
" clip-path="url(#ped8c6ceab9)" style="fill: #324880"/>
    <path d="M 264.761147 304.341811 
L 279.29759 291.995202 
L 304.114589 299.100347 
L 289.705452 311.557281 
z
" clip-path="url(#ped8c6ceab9)" style="fill: #3f599f"/>
    <path d="M 279.29759 291.995202 
L 279.16309 250.284175 
L 304.192937 257.263616 
L 304.114589 299.100347 
z
" clip-path="url(#ped8c6ceab9)" style="fill: #324880"/>
    <path d="M 393.698909 308.200555 
L 393.753299 305.52496 
L 407.341599 293.133175 
L 407.280201 295.795007 
z
" clip-path="url(#ped8c6ceab9)" style="fill: #648fff"/>
    <path d="M 264.761147 304.341811 
L 264.500161 262.412687 
L 279.16309 250.284175 
L 279.29759 291.995202 
z
" clip-path="url(#ped8c6ceab9)" style="fill: #648fff"/>
    <path d="M 393.698909 308.200555 
L 407.280201 295.795007 
L 432.726078 302.934015 
L 419.281569 315.45068 
z
" clip-path="url(#ped8c6ceab9)" style="fill: #3f599f"/>
    <path d="M 393.753299 305.52496 
L 419.350364 312.767089 
L 432.801727 300.26425 
L 407.341599 293.133175 
z
" clip-path="url(#ped8c6ceab9)" style="fill: #577ddf"/>
    <path d="M 419.281569 315.45068 
L 432.726078 302.934015 
L 432.801727 300.26425 
L 419.350364 312.767089 
z
" clip-path="url(#ped8c6ceab9)" style="fill: #324880"/>
    <path d="M 393.698909 308.200555 
L 419.281569 315.45068 
L 419.350364 312.767089 
L 393.753299 305.52496 
z
" clip-path="url(#ped8c6ceab9)" style="fill: #648fff"/>
    <path d="M 289.705452 311.557281 
L 304.114589 299.100347 
L 304.192937 257.263616 
L 289.659511 269.501441 
z
" clip-path="url(#ped8c6ceab9)" style="fill: #324880"/>
    <path d="M 329.152977 306.268877 
L 329.326966 281.521417 
L 354.719801 288.679755 
L 354.415731 313.501643 
z
" clip-path="url(#ped8c6ceab9)" style="fill: #324880"/>
    <path d="M 264.761147 304.341811 
L 289.705452 311.557281 
L 289.659511 269.501441 
L 264.500161 262.412687 
z
" clip-path="url(#ped8c6ceab9)" style="fill: #648fff"/>
    <path d="M 264.500161 262.412687 
L 289.659511 269.501441 
L 304.192937 257.263616 
L 279.16309 250.284175 
z
" clip-path="url(#ped8c6ceab9)" style="fill: #577ddf"/>
    <path d="M 314.874014 318.83762 
L 329.152977 306.268877 
L 354.415731 313.501643 
L 340.269872 326.183707 
z
" clip-path="url(#ped8c6ceab9)" style="fill: #3f599f"/>
    <path d="M 314.874014 318.83762 
L 314.976041 293.961031 
L 329.326966 281.521417 
L 329.152977 306.268877 
z
" clip-path="url(#ped8c6ceab9)" style="fill: #648fff"/>
    <path d="M 340.269872 326.183707 
L 354.415731 313.501643 
L 354.719801 288.679755 
L 340.503364 301.232104 
z
" clip-path="url(#ped8c6ceab9)" style="fill: #324880"/>
    <path d="M 314.976041 293.961031 
L 340.503364 301.232104 
L 354.719801 288.679755 
L 329.326966 281.521417 
z
" clip-path="url(#ped8c6ceab9)" style="fill: #577ddf"/>
    <path d="M 379.905879 320.799513 
L 380.049178 312.62613 
L 405.814063 319.965457 
L 405.626506 328.163369 
z
" clip-path="url(#ped8c6ceab9)" style="fill: #324880"/>
    <path d="M 314.874014 318.83762 
L 340.269872 326.183707 
L 340.503364 301.232104 
L 314.976041 293.961031 
z
" clip-path="url(#ped8c6ceab9)" style="fill: #648fff"/>
    <path d="M 235.004691 329.615625 
L 249.99862 316.880447 
L 275.071199 324.20883 
L 260.206514 337.059593 
z
" clip-path="url(#ped8c6ceab9)" style="fill: #3f599f"/>
    <path d="M 365.896119 333.596437 
L 366.016713 325.3805 
L 380.049178 312.62613 
L 379.905879 320.799513 
z
" clip-path="url(#ped8c6ceab9)" style="fill: #648fff"/>
    <path d="M 365.896119 333.596437 
L 379.905879 320.799513 
L 405.626506 328.163369 
L 391.755903 341.076722 
z
" clip-path="url(#ped8c6ceab9)" style="fill: #3f599f"/>
    <path d="M 366.016713 325.3805 
L 391.92124 332.836067 
L 405.814063 319.965457 
L 380.049178 312.62613 
z
" clip-path="url(#ped8c6ceab9)" style="fill: #577ddf"/>
    <path d="M 391.755903 341.076722 
L 405.626506 328.163369 
L 405.814063 319.965457 
L 391.92124 332.836067 
z
" clip-path="url(#ped8c6ceab9)" style="fill: #324880"/>
    <path d="M 154.070044 340.537391 
L 169.79674 327.63245 
L 194.671861 335.058359 
L 179.070356 348.081209 
z
" clip-path="url(#ped8c6ceab9)" style="fill: #3f599f"/>
    <path d="M 365.896119 333.596437 
L 391.755903 341.076722 
L 391.92124 332.836067 
L 366.016713 325.3805 
z
" clip-path="url(#ped8c6ceab9)" style="fill: #648fff"/>
    <path d="M 249.99862 316.880447 
L 248.891417 197.655135 
L 274.578536 204.613639 
L 275.071199 324.20883 
z
" clip-path="url(#ped8c6ceab9)" style="fill: #324880"/>
    <path d="M 285.638493 344.571543 
L 300.370959 331.603615 
L 325.900999 339.065708 
L 311.303797 352.152411 
z
" clip-path="url(#ped8c6ceab9)" style="fill: #3f599f"/>
    <path d="M 300.370959 331.603615 
L 300.418049 289.1986 
L 326.173398 296.531795 
L 325.900999 339.065708 
z
" clip-path="url(#ped8c6ceab9)" style="fill: #324880"/>
    <path d="M 235.004691 329.615625 
L 233.516771 209.748531 
L 248.891417 197.655135 
L 249.99862 316.880447 
z
" clip-path="url(#ped8c6ceab9)" style="fill: #648fff"/>
    <path d="M 285.638493 344.571543 
L 285.555629 301.9429 
L 300.418049 289.1986 
L 300.370959 331.603615 
z
" clip-path="url(#ped8c6ceab9)" style="fill: #648fff"/>
    <path d="M 169.79674 327.63245 
L 167.294897 231.009488 
L 192.657774 238.136992 
L 194.671861 335.058359 
z
" clip-path="url(#ped8c6ceab9)" style="fill: #324880"/>
    <path d="M 154.070044 340.537391 
L 151.231295 243.396681 
L 167.294897 231.009488 
L 169.79674 327.63245 
z
" clip-path="url(#ped8c6ceab9)" style="fill: #648fff"/>
    <path d="M 260.206514 337.059593 
L 275.071199 324.20883 
L 274.578536 204.613639 
L 259.339537 216.819525 
z
" clip-path="url(#ped8c6ceab9)" style="fill: #324880"/>
    <path d="M 351.66448 346.596032 
L 351.828826 332.624659 
L 377.905484 340.181944 
L 377.664617 354.195528 
z
" clip-path="url(#ped8c6ceab9)" style="fill: #324880"/>
    <path d="M 311.303797 352.152411 
L 325.900999 339.065708 
L 326.173398 296.531795 
L 311.448647 309.393858 
z
" clip-path="url(#ped8c6ceab9)" style="fill: #324880"/>
    <path d="M 235.004691 329.615625 
L 260.206514 337.059593 
L 259.339537 216.819525 
L 233.516771 209.748531 
z
" clip-path="url(#ped8c6ceab9)" style="fill: #648fff"/>
    <path d="M 337.20565 359.803151 
L 337.329037 345.758549 
L 351.828826 332.624659 
L 351.66448 346.596032 
z
" clip-path="url(#ped8c6ceab9)" style="fill: #648fff"/>
    <path d="M 285.638493 344.571543 
L 311.303797 352.152411 
L 311.448647 309.393858 
L 285.555629 301.9429 
z
" clip-path="url(#ped8c6ceab9)" style="fill: #648fff"/>
    <path d="M 285.555629 301.9429 
L 311.448647 309.393858 
L 326.173398 296.531795 
L 300.418049 289.1986 
z
" clip-path="url(#ped8c6ceab9)" style="fill: #577ddf"/>
    <path d="M 337.20565 359.803151 
L 351.66448 346.596032 
L 377.664617 354.195528 
L 363.347339 367.524731 
z
" clip-path="url(#ped8c6ceab9)" style="fill: #3f599f"/>
    <path d="M 179.070356 348.081209 
L 194.671861 335.058359 
L 192.657774 238.136992 
L 176.724267 250.639649 
z
" clip-path="url(#ped8c6ceab9)" style="fill: #324880"/>
    <path d="M 154.070044 340.537391 
L 179.070356 348.081209 
L 176.724267 250.639649 
L 151.231295 243.396681 
z
" clip-path="url(#ped8c6ceab9)" style="fill: #648fff"/>
    <path d="M 337.329037 345.758549 
L 363.548087 353.437597 
L 377.905484 340.181944 
L 351.828826 332.624659 
z
" clip-path="url(#ped8c6ceab9)" style="fill: #577ddf"/>
    <path d="M 363.347339 367.524731 
L 377.664617 354.195528 
L 377.905484 340.181944 
L 363.548087 353.437597 
z
" clip-path="url(#ped8c6ceab9)" style="fill: #324880"/>
    <path d="M 337.20565 359.803151 
L 363.347339 367.524731 
L 363.548087 353.437597 
L 337.329037 345.758549 
z
" clip-path="url(#ped8c6ceab9)" style="fill: #648fff"/>
    <path d="M 233.516771 209.748531 
L 259.339537 216.819525 
L 274.578536 204.613639 
L 248.891417 197.655135 
z
" clip-path="url(#ped8c6ceab9)" style="fill: #577ddf"/>
    <path d="M 151.231295 243.396681 
L 176.724267 250.639649 
L 192.657774 238.136992 
L 167.294897 231.009488 
z
" clip-path="url(#ped8c6ceab9)" style="fill: #577ddf"/>
   </g>
   <g id="text_17">
    <!-- Real Amplitude (ρ) -->
    <g transform="translate(190.023516 51.6) scale(0.21 -0.21)">
     <defs>
      <path id="DejaVuSans-52" d="M 2841 2188 
Q 3044 2119 3236 1894 
Q 3428 1669 3622 1275 
L 4263 0 
L 3584 0 
L 2988 1197 
Q 2756 1666 2539 1819 
Q 2322 1972 1947 1972 
L 1259 1972 
L 1259 0 
L 628 0 
L 628 4666 
L 2053 4666 
Q 2853 4666 3247 4331 
Q 3641 3997 3641 3322 
Q 3641 2881 3436 2590 
Q 3231 2300 2841 2188 
z
M 1259 4147 
L 1259 2491 
L 2053 2491 
Q 2509 2491 2742 2702 
Q 2975 2913 2975 3322 
Q 2975 3731 2742 3939 
Q 2509 4147 2053 4147 
L 1259 4147 
z
" transform="scale(0.015625)"/>
      <path id="DejaVuSans-65" d="M 3597 1894 
L 3597 1613 
L 953 1613 
Q 991 1019 1311 708 
Q 1631 397 2203 397 
Q 2534 397 2845 478 
Q 3156 559 3463 722 
L 3463 178 
Q 3153 47 2828 -22 
Q 2503 -91 2169 -91 
Q 1331 -91 842 396 
Q 353 884 353 1716 
Q 353 2575 817 3079 
Q 1281 3584 2069 3584 
Q 2775 3584 3186 3129 
Q 3597 2675 3597 1894 
z
M 3022 2063 
Q 3016 2534 2758 2815 
Q 2500 3097 2075 3097 
Q 1594 3097 1305 2825 
Q 1016 2553 972 2059 
L 3022 2063 
z
" transform="scale(0.015625)"/>
      <path id="DejaVuSans-61" d="M 2194 1759 
Q 1497 1759 1228 1600 
Q 959 1441 959 1056 
Q 959 750 1161 570 
Q 1363 391 1709 391 
Q 2188 391 2477 730 
Q 2766 1069 2766 1631 
L 2766 1759 
L 2194 1759 
z
M 3341 1997 
L 3341 0 
L 2766 0 
L 2766 531 
Q 2569 213 2275 61 
Q 1981 -91 1556 -91 
Q 1019 -91 701 211 
Q 384 513 384 1019 
Q 384 1609 779 1909 
Q 1175 2209 1959 2209 
L 2766 2209 
L 2766 2266 
Q 2766 2663 2505 2880 
Q 2244 3097 1772 3097 
Q 1472 3097 1187 3025 
Q 903 2953 641 2809 
L 641 3341 
Q 956 3463 1253 3523 
Q 1550 3584 1831 3584 
Q 2591 3584 2966 3190 
Q 3341 2797 3341 1997 
z
" transform="scale(0.015625)"/>
      <path id="DejaVuSans-6c" d="M 603 4863 
L 1178 4863 
L 1178 0 
L 603 0 
L 603 4863 
z
" transform="scale(0.015625)"/>
      <path id="DejaVuSans-20" transform="scale(0.015625)"/>
      <path id="DejaVuSans-41" d="M 2188 4044 
L 1331 1722 
L 3047 1722 
L 2188 4044 
z
M 1831 4666 
L 2547 4666 
L 4325 0 
L 3669 0 
L 3244 1197 
L 1141 1197 
L 716 0 
L 50 0 
L 1831 4666 
z
" transform="scale(0.015625)"/>
      <path id="DejaVuSans-6d" d="M 3328 2828 
Q 3544 3216 3844 3400 
Q 4144 3584 4550 3584 
Q 5097 3584 5394 3201 
Q 5691 2819 5691 2113 
L 5691 0 
L 5113 0 
L 5113 2094 
Q 5113 2597 4934 2840 
Q 4756 3084 4391 3084 
Q 3944 3084 3684 2787 
Q 3425 2491 3425 1978 
L 3425 0 
L 2847 0 
L 2847 2094 
Q 2847 2600 2669 2842 
Q 2491 3084 2119 3084 
Q 1678 3084 1418 2786 
Q 1159 2488 1159 1978 
L 1159 0 
L 581 0 
L 581 3500 
L 1159 3500 
L 1159 2956 
Q 1356 3278 1631 3431 
Q 1906 3584 2284 3584 
Q 2666 3584 2933 3390 
Q 3200 3197 3328 2828 
z
" transform="scale(0.015625)"/>
      <path id="DejaVuSans-70" d="M 1159 525 
L 1159 -1331 
L 581 -1331 
L 581 3500 
L 1159 3500 
L 1159 2969 
Q 1341 3281 1617 3432 
Q 1894 3584 2278 3584 
Q 2916 3584 3314 3078 
Q 3713 2572 3713 1747 
Q 3713 922 3314 415 
Q 2916 -91 2278 -91 
Q 1894 -91 1617 61 
Q 1341 213 1159 525 
z
M 3116 1747 
Q 3116 2381 2855 2742 
Q 2594 3103 2138 3103 
Q 1681 3103 1420 2742 
Q 1159 2381 1159 1747 
Q 1159 1113 1420 752 
Q 1681 391 2138 391 
Q 2594 391 2855 752 
Q 3116 1113 3116 1747 
z
" transform="scale(0.015625)"/>
      <path id="DejaVuSans-69" d="M 603 3500 
L 1178 3500 
L 1178 0 
L 603 0 
L 603 3500 
z
M 603 4863 
L 1178 4863 
L 1178 4134 
L 603 4134 
L 603 4863 
z
" transform="scale(0.015625)"/>
      <path id="DejaVuSans-74" d="M 1172 4494 
L 1172 3500 
L 2356 3500 
L 2356 3053 
L 1172 3053 
L 1172 1153 
Q 1172 725 1289 603 
Q 1406 481 1766 481 
L 2356 481 
L 2356 0 
L 1766 0 
Q 1100 0 847 248 
Q 594 497 594 1153 
L 594 3053 
L 172 3053 
L 172 3500 
L 594 3500 
L 594 4494 
L 1172 4494 
z
" transform="scale(0.015625)"/>
      <path id="DejaVuSans-75" d="M 544 1381 
L 544 3500 
L 1119 3500 
L 1119 1403 
Q 1119 906 1312 657 
Q 1506 409 1894 409 
Q 2359 409 2629 706 
Q 2900 1003 2900 1516 
L 2900 3500 
L 3475 3500 
L 3475 0 
L 2900 0 
L 2900 538 
Q 2691 219 2414 64 
Q 2138 -91 1772 -91 
Q 1169 -91 856 284 
Q 544 659 544 1381 
z
M 1991 3584 
L 1991 3584 
z
" transform="scale(0.015625)"/>
      <path id="DejaVuSans-64" d="M 2906 2969 
L 2906 4863 
L 3481 4863 
L 3481 0 
L 2906 0 
L 2906 525 
Q 2725 213 2448 61 
Q 2172 -91 1784 -91 
Q 1150 -91 751 415 
Q 353 922 353 1747 
Q 353 2572 751 3078 
Q 1150 3584 1784 3584 
Q 2172 3584 2448 3432 
Q 2725 3281 2906 2969 
z
M 947 1747 
Q 947 1113 1208 752 
Q 1469 391 1925 391 
Q 2381 391 2643 752 
Q 2906 1113 2906 1747 
Q 2906 2381 2643 2742 
Q 2381 3103 1925 3103 
Q 1469 3103 1208 2742 
Q 947 2381 947 1747 
z
" transform="scale(0.015625)"/>
      <path id="DejaVuSans-28" d="M 1984 4856 
Q 1566 4138 1362 3434 
Q 1159 2731 1159 2009 
Q 1159 1288 1364 580 
Q 1569 -128 1984 -844 
L 1484 -844 
Q 1016 -109 783 600 
Q 550 1309 550 2009 
Q 550 2706 781 3412 
Q 1013 4119 1484 4856 
L 1984 4856 
z
" transform="scale(0.015625)"/>
      <path id="DejaVuSans-3c1" d="M 863 2875 
Q 1053 3194 1525 3475 
Q 1709 3584 2278 3584 
Q 2916 3584 3314 3078 
Q 3713 2572 3713 1747 
Q 3713 922 3314 415 
Q 2916 -91 2278 -91 
Q 1894 -91 1617 61 
Q 1341 213 1159 525 
L 1159 -1331 
L 581 -1331 
L 581 1716 
Q 581 2438 863 2875 
z
M 3116 1747 
Q 3116 2381 2855 2742 
Q 2594 3103 2138 3103 
Q 1681 3103 1420 2742 
Q 1159 2381 1159 1747 
Q 1159 1113 1420 752 
Q 1681 391 2138 391 
Q 2594 391 2855 752 
Q 3116 1113 3116 1747 
z
" transform="scale(0.015625)"/>
      <path id="DejaVuSans-29" d="M 513 4856 
L 1013 4856 
Q 1481 4119 1714 3412 
Q 1947 2706 1947 2009 
Q 1947 1309 1714 600 
Q 1481 -109 1013 -844 
L 513 -844 
Q 928 -128 1133 580 
Q 1338 1288 1338 2009 
Q 1338 2731 1133 3434 
Q 928 4138 513 4856 
z
" transform="scale(0.015625)"/>
     </defs>
     <use xlink:href="#DejaVuSans-52"/>
     <use xlink:href="#DejaVuSans-65" x="64.982422"/>
     <use xlink:href="#DejaVuSans-61" x="126.505859"/>
     <use xlink:href="#DejaVuSans-6c" x="187.785156"/>
     <use xlink:href="#DejaVuSans-20" x="215.568359"/>
     <use xlink:href="#DejaVuSans-41" x="247.355469"/>
     <use xlink:href="#DejaVuSans-6d" x="315.763672"/>
     <use xlink:href="#DejaVuSans-70" x="413.175781"/>
     <use xlink:href="#DejaVuSans-6c" x="476.652344"/>
     <use xlink:href="#DejaVuSans-69" x="504.435547"/>
     <use xlink:href="#DejaVuSans-74" x="532.21875"/>
     <use xlink:href="#DejaVuSans-75" x="571.427734"/>
     <use xlink:href="#DejaVuSans-64" x="634.806641"/>
     <use xlink:href="#DejaVuSans-65" x="698.283203"/>
     <use xlink:href="#DejaVuSans-20" x="759.806641"/>
     <use xlink:href="#DejaVuSans-28" x="791.59375"/>
     <use xlink:href="#DejaVuSans-3c1" x="830.607422"/>
     <use xlink:href="#DejaVuSans-29" x="894.083984"/>
    </g>
   </g>
  </g>
  <g id="patch_6">
   <path d="M 604.8 576 
L 1123.2 576 
L 1123.2 57.6 
L 604.8 57.6 
z
" style="fill: #ffffff"/>
  </g>
  <g id="pane3d_4">
   <g id="patch_7">
    <path d="M 706.07018 436.456468 
L 829.494133 330.550231 
L 827.743197 126.70673 
L 698.643358 223.613571 
" style="fill: #f2f2f2; opacity: 0.5; stroke: #f2f2f2; stroke-linejoin: miter"/>
   </g>
  </g>
  <g id="pane3d_5">
   <g id="patch_8">
    <path d="M 829.494133 330.550231 
L 1031.554898 390.069341 
L 1038.583588 181.103065 
L 827.743197 126.70673 
" style="fill: #e6e6e6; opacity: 0.5; stroke: #e6e6e6; stroke-linejoin: miter"/>
   </g>
  </g>
  <g id="pane3d_6">
   <g id="patch_9">
    <path d="M 706.07018 436.456468 
L 916.912731 504.076731 
L 1031.554898 390.069341 
L 829.494133 330.550231 
" style="fill: #ececec; opacity: 0.5; stroke: #ececec; stroke-linejoin: miter"/>
   </g>
  </g>
  <g id="grid3d_4">
   <g id="Line3DCollection_4">
    <path d="M 734.635886 445.617904 
L 856.925726 338.630493 
L 856.328796 134.081748 
" style="fill: none; stroke: #b0b0b0; stroke-width: 0.8"/>
    <path d="M 784.310046 461.549127 
L 904.58611 352.669358 
L 906.022474 146.902603 
" style="fill: none; stroke: #b0b0b0; stroke-width: 0.8"/>
    <path d="M 834.89502 477.772462 
L 953.066152 366.949661 
L 956.607663 159.953465 
" style="fill: none; stroke: #b0b0b0; stroke-width: 0.8"/>
    <path d="M 886.41609 494.296016 
L 1002.38718 381.477685 
L 1008.108569 173.24058 
" style="fill: none; stroke: #b0b0b0; stroke-width: 0.8"/>
   </g>
  </g>
  <g id="grid3d_5">
   <g id="Line3DCollection_5">
    <path d="M 717.757365 209.265931 
L 724.301379 420.812846 
L 933.880707 487.202708 
" style="fill: none; stroke: #b0b0b0; stroke-width: 0.8"/>
    <path d="M 749.704273 185.285468 
L 754.805664 394.638072 
L 962.24502 458.995448 
" style="fill: none; stroke: #b0b0b0; stroke-width: 0.8"/>
    <path d="M 780.65707 162.051218 
L 784.400054 369.24405 
L 989.731787 431.660877 
" style="fill: none; stroke: #b0b0b0; stroke-width: 0.8"/>
    <path d="M 810.661448 139.528886 
L 813.124663 344.596362 
L 1016.38111 405.159111 
" style="fill: none; stroke: #b0b0b0; stroke-width: 0.8"/>
   </g>
  </g>
  <g id="grid3d_6">
   <g id="Line3DCollection_6">
    <path d="M 1031.578643 389.363374 
L 829.488208 329.860518 
L 706.045119 435.738261 
" style="fill: none; stroke: #b0b0b0; stroke-width: 0.8"/>
    <path d="M 1032.559163 360.212064 
L 829.243629 301.386602 
L 705.010117 406.076474 
" style="fill: none; stroke: #b0b0b0; stroke-width: 0.8"/>
    <path d="M 1033.551731 330.702549 
L 828.99615 272.575217 
L 703.962046 376.040125 
" style="fill: none; stroke: #b0b0b0; stroke-width: 0.8"/>
    <path d="M 1034.556571 300.828186 
L 828.745721 243.420325 
L 702.900655 345.622076 
" style="fill: none; stroke: #b0b0b0; stroke-width: 0.8"/>
    <path d="M 1035.573911 270.582167 
L 828.492288 213.915748 
L 701.82569 314.815003 
" style="fill: none; stroke: #b0b0b0; stroke-width: 0.8"/>
    <path d="M 1036.603988 239.957513 
L 828.235797 184.055156 
L 700.736889 283.611396 
" style="fill: none; stroke: #b0b0b0; stroke-width: 0.8"/>
    <path d="M 1037.64704 208.94707 
L 827.976193 153.832066 
L 699.633982 252.003549 
" style="fill: none; stroke: #b0b0b0; stroke-width: 0.8"/>
   </g>
  </g>
  <g id="axis3d_4">
   <g id="line2d_20">
    <path d="M 706.07018 436.456468 
L 916.912731 504.076731 
" style="fill: none; stroke: #000000; stroke-width: 0.8; stroke-linecap: square"/>
   </g>
   <g id="xtick_17">
    <g id="line2d_21">
     <path d="M 735.677227 444.706868 
L 732.549953 447.442819 
" style="fill: none; stroke: #000000; stroke-width: 0.8; stroke-linecap: square"/>
    </g>
    <g id="text_18">
     <!-- 00 -->
     <g transform="translate(707.351686 489.365693) rotate(-45) scale(0.21 -0.21)">
      <use xlink:href="#DejaVuSans-30"/>
      <use xlink:href="#DejaVuSans-30" x="63.623047"/>
     </g>
    </g>
   </g>
   <g id="xtick_18">
    <g id="line2d_22">
     <path d="M 785.334802 460.621468 
L 782.257306 463.407368 
" style="fill: none; stroke: #000000; stroke-width: 0.8; stroke-linecap: square"/>
    </g>
    <g id="text_19">
     <!-- 01 -->
     <g transform="translate(757.023931 505.435143) rotate(-45) scale(0.21 -0.21)">
      <use xlink:href="#DejaVuSans-30"/>
      <use xlink:href="#DejaVuSans-31" x="63.623047"/>
     </g>
    </g>
   </g>
   <g id="xtick_19">
    <g id="line2d_23">
     <path d="M 835.902405 476.82772 
L 832.877048 479.664949 
" style="fill: none; stroke: #000000; stroke-width: 0.8; stroke-linecap: square"/>
    </g>
    <g id="text_20">
     <!-- 10 -->
     <g transform="translate(807.60781 521.799516) rotate(-45) scale(0.21 -0.21)">
      <use xlink:href="#DejaVuSans-31"/>
      <use xlink:href="#DejaVuSans-30" x="63.623047"/>
     </g>
    </g>
   </g>
   <g id="xtick_20">
    <g id="line2d_24">
     <path d="M 887.405283 493.333715 
L 884.434531 496.223705 
" style="fill: none; stroke: #000000; stroke-width: 0.8; stroke-linecap: square"/>
    </g>
    <g id="text_21">
     <!-- 11 -->
     <g transform="translate(859.128654 538.467006) rotate(-45) scale(0.21 -0.21)">
      <use xlink:href="#DejaVuSans-31"/>
      <use xlink:href="#DejaVuSans-31" x="63.623047"/>
     </g>
    </g>
   </g>
  </g>
  <g id="axis3d_5">
   <g id="line2d_25">
    <path d="M 1031.554898 390.069341 
L 916.912731 504.076731 
" style="fill: none; stroke: #000000; stroke-width: 0.8; stroke-linecap: square"/>
   </g>
   <g id="xtick_21">
    <g id="line2d_26">
     <path d="M 932.140222 486.651363 
L 937.364886 488.306415 
" style="fill: none; stroke: #000000; stroke-width: 0.8; stroke-linecap: square"/>
    </g>
    <g id="text_22">
     <!-- 00 -->
     <g transform="translate(944.70027 499.207917) rotate(-337.5) scale(0.21 -0.21)">
      <use xlink:href="#DejaVuSans-30"/>
      <use xlink:href="#DejaVuSans-30" x="63.623047"/>
     </g>
    </g>
   </g>
   <g id="xtick_22">
    <g id="line2d_27">
     <path d="M 960.5233 458.46129 
L 965.691587 460.064734 
" style="fill: none; stroke: #000000; stroke-width: 0.8; stroke-linecap: square"/>
    </g>
    <g id="text_23">
     <!-- 01 -->
     <g transform="translate(972.913817 470.822876) rotate(-337.5) scale(0.21 -0.21)">
      <use xlink:href="#DejaVuSans-30"/>
      <use xlink:href="#DejaVuSans-31" x="63.623047"/>
     </g>
    </g>
   </g>
   <g id="xtick_23">
    <g id="line2d_28">
     <path d="M 988.028511 431.143114 
L 993.141381 432.697327 
" style="fill: none; stroke: #000000; stroke-width: 0.8; stroke-linecap: square"/>
    </g>
    <g id="text_24">
     <!-- 10 -->
     <g transform="translate(1000.254695 443.315808) rotate(-337.5) scale(0.21 -0.21)">
      <use xlink:href="#DejaVuSans-31"/>
      <use xlink:href="#DejaVuSans-30" x="63.623047"/>
     </g>
    </g>
   </g>
   <g id="xtick_24">
    <g id="line2d_29">
     <path d="M 1014.695964 404.657001 
L 1019.754368 406.164215 
" style="fill: none; stroke: #000000; stroke-width: 0.8; stroke-linecap: square"/>
    </g>
    <g id="text_25">
     <!-- 11 -->
     <g transform="translate(1026.762776 416.646599) rotate(-337.5) scale(0.21 -0.21)">
      <use xlink:href="#DejaVuSans-31"/>
      <use xlink:href="#DejaVuSans-31" x="63.623047"/>
     </g>
    </g>
   </g>
  </g>
  <g id="axis3d_6">
   <g id="line2d_30">
    <path d="M 1031.554898 390.069341 
L 1038.583588 181.103065 
" style="fill: none; stroke: #000000; stroke-width: 0.8; stroke-linecap: square"/>
   </g>
   <g id="xtick_25">
    <g id="line2d_31">
     <path d="M 1029.903673 388.870201 
L 1034.931507 390.35058 
" style="fill: none; stroke: #000000; stroke-width: 0.8; stroke-linecap: square"/>
    </g>
    <g id="text_26">
     <!-- −0.2 -->
     <g transform="translate(1045.059947 383.075509) scale(0.21 -0.21)">
      <use xlink:href="#DejaVuSans-2212"/>
      <use xlink:href="#DejaVuSans-30" x="83.789062"/>
      <use xlink:href="#DejaVuSans-2e" x="147.412109"/>
      <use xlink:href="#DejaVuSans-32" x="179.199219"/>
     </g>
    </g>
   </g>
   <g id="xtick_26">
    <g id="line2d_32">
     <path d="M 1030.873681 359.724402 
L 1035.933086 361.188244 
" style="fill: none; stroke: #000000; stroke-width: 0.8; stroke-linecap: square"/>
    </g>
    <g id="text_27">
     <!-- −0.1 -->
     <g transform="translate(1046.121579 353.945669) scale(0.21 -0.21)">
      <use xlink:href="#DejaVuSans-2212"/>
      <use xlink:href="#DejaVuSans-30" x="83.789062"/>
      <use xlink:href="#DejaVuSans-2e" x="147.412109"/>
      <use xlink:href="#DejaVuSans-31" x="179.199219"/>
     </g>
    </g>
   </g>
   <g id="xtick_27">
    <g id="line2d_33">
     <path d="M 1031.855605 330.220571 
L 1036.946979 331.667356 
" style="fill: none; stroke: #000000; stroke-width: 0.8; stroke-linecap: square"/>
    </g>
    <g id="text_28">
     <!-- 0.0 -->
     <g transform="translate(1047.196241 324.458299) scale(0.21 -0.21)">
      <use xlink:href="#DejaVuSans-30"/>
      <use xlink:href="#DejaVuSans-2e" x="63.623047"/>
      <use xlink:href="#DejaVuSans-30" x="95.410156"/>
     </g>
    </g>
   </g>
   <g id="xtick_28">
    <g id="line2d_34">
     <path d="M 1032.849665 300.35207 
L 1037.973416 301.781264 
" style="fill: none; stroke: #000000; stroke-width: 0.8; stroke-linecap: square"/>
    </g>
    <g id="text_29">
     <!-- 0.1 -->
     <g transform="translate(1048.284174 294.606774) scale(0.21 -0.21)">
      <use xlink:href="#DejaVuSans-30"/>
      <use xlink:href="#DejaVuSans-2e" x="63.623047"/>
      <use xlink:href="#DejaVuSans-31" x="95.410156"/>
     </g>
    </g>
   </g>
   <g id="xtick_29">
    <g id="line2d_35">
     <path d="M 1033.856088 270.112097 
L 1039.012629 271.523148 
" style="fill: none; stroke: #000000; stroke-width: 0.8; stroke-linecap: square"/>
    </g>
    <g id="text_30">
     <!-- 0.2 -->
     <g transform="translate(1049.385626 264.384308) scale(0.21 -0.21)">
      <use xlink:href="#DejaVuSans-30"/>
      <use xlink:href="#DejaVuSans-2e" x="63.623047"/>
      <use xlink:href="#DejaVuSans-32" x="95.410156"/>
     </g>
    </g>
   </g>
   <g id="xtick_30">
    <g id="line2d_36">
     <path d="M 1034.875107 239.493678 
L 1040.06486 240.886018 
" style="fill: none; stroke: #000000; stroke-width: 0.8; stroke-linecap: square"/>
    </g>
    <g id="text_31">
     <!-- 0.3 -->
     <g transform="translate(1050.50085 233.783943) scale(0.21 -0.21)">
      <use xlink:href="#DejaVuSans-30"/>
      <use xlink:href="#DejaVuSans-2e" x="63.623047"/>
      <use xlink:href="#DejaVuSans-33" x="95.410156"/>
     </g>
    </g>
   </g>
   <g id="xtick_31">
    <g id="line2d_37">
     <path d="M 1035.906958 208.489664 
L 1041.130354 209.862709 
" style="fill: none; stroke: #000000; stroke-width: 0.8; stroke-linecap: square"/>
    </g>
    <g id="text_32">
     <!-- 0.4 -->
     <g transform="translate(1051.630107 202.798547) scale(0.21 -0.21)">
      <use xlink:href="#DejaVuSans-30"/>
      <use xlink:href="#DejaVuSans-2e" x="63.623047"/>
      <use xlink:href="#DejaVuSans-34" x="95.410156"/>
     </g>
    </g>
   </g>
  </g>
  <g id="axes_2">
   <g id="Poly3DCollection_4">
    <path d="M 883.632604 298.709942 
L 883.5973 312.310661 
L 907.938079 319.33239 
L 908.042078 305.692339 
z
" clip-path="url(#p89086e03ca)" style="fill: #648fff"/>
    <path d="M 869.621941 310.842405 
L 869.625839 324.511357 
L 883.5973 312.310661 
L 883.632604 298.709942 
z
" clip-path="url(#p89086e03ca)" style="fill: #324880"/>
    <path d="M 869.625839 324.511357 
L 894.089694 331.63946 
L 907.938079 319.33239 
L 883.5973 312.310661 
z
" clip-path="url(#p89086e03ca)" style="fill: #577ddf"/>
    <path d="M 869.621941 310.842405 
L 883.632604 298.709942 
L 908.042078 305.692339 
L 894.15519 317.930881 
z
" clip-path="url(#p89086e03ca)" style="fill: #3f599f"/>
    <path d="M 894.15519 317.930881 
L 908.042078 305.692339 
L 907.938079 319.33239 
L 894.089694 331.63946 
z
" clip-path="url(#p89086e03ca)" style="fill: #648fff"/>
    <path d="M 869.621941 310.842405 
L 894.15519 317.930881 
L 894.089694 331.63946 
L 869.625839 324.511357 
z
" clip-path="url(#p89086e03ca)" style="fill: #324880"/>
    <path d="M 841.215492 377.335209 
L 865.785421 384.763527 
L 879.978184 371.938501 
L 855.53178 364.622071 
z
" clip-path="url(#p89086e03ca)" style="fill: #577ddf"/>
    <path d="M 855.398081 323.159486 
L 855.53178 364.622071 
L 879.978184 371.938501 
L 880.056055 330.356475 
z
" clip-path="url(#p89086e03ca)" style="fill: #648fff"/>
    <path d="M 840.95612 335.66543 
L 841.215492 377.335209 
L 855.53178 364.622071 
L 855.398081 323.159486 
z
" clip-path="url(#p89086e03ca)" style="fill: #324880"/>
    <path d="M 865.73977 342.973445 
L 880.056055 330.356475 
L 879.978184 371.938501 
L 865.785421 384.763527 
z
" clip-path="url(#p89086e03ca)" style="fill: #648fff"/>
    <path d="M 982.560223 327.00846 
L 982.560223 327.00846 
L 1007.839019 334.239529 
L 1007.839019 334.239529 
z
" clip-path="url(#p89086e03ca)" style="fill: #648fff"/>
    <path d="M 840.95612 335.66543 
L 865.73977 342.973445 
L 865.785421 384.763527 
L 841.215492 377.335209 
z
" clip-path="url(#p89086e03ca)" style="fill: #324880"/>
    <path d="M 840.95612 335.66543 
L 855.398081 323.159486 
L 880.056055 330.356475 
L 865.73977 342.973445 
z
" clip-path="url(#p89086e03ca)" style="fill: #3f599f"/>
    <path d="M 969.06116 339.573719 
L 969.06116 339.573719 
L 982.560223 327.00846 
L 982.560223 327.00846 
z
" clip-path="url(#p89086e03ca)" style="fill: #324880"/>
    <path d="M 969.06116 339.573719 
L 982.560223 327.00846 
L 1007.839019 334.239529 
L 994.474927 346.916606 
z
" clip-path="url(#p89086e03ca)" style="fill: #3f599f"/>
    <path d="M 969.06116 339.573719 
L 994.474927 346.916606 
L 1007.839019 334.239529 
L 982.560223 327.00846 
z
" clip-path="url(#p89086e03ca)" style="fill: #577ddf"/>
    <path d="M 994.474927 346.916606 
L 1007.839019 334.239529 
L 1007.839019 334.239529 
L 994.474927 346.916606 
z
" clip-path="url(#p89086e03ca)" style="fill: #648fff"/>
    <path d="M 969.06116 339.573719 
L 994.474927 346.916606 
L 994.474927 346.916606 
L 969.06116 339.573719 
z
" clip-path="url(#p89086e03ca)" style="fill: #324880"/>
    <path d="M 955.35301 352.333602 
L 955.35301 352.333602 
L 980.902909 359.79092 
L 980.902909 359.79092 
z
" clip-path="url(#p89086e03ca)" style="fill: #648fff"/>
    <path d="M 941.430878 365.292664 
L 941.430878 365.292664 
L 955.35301 352.333602 
L 955.35301 352.333602 
z
" clip-path="url(#p89086e03ca)" style="fill: #324880"/>
    <path d="M 941.430878 365.292664 
L 955.35301 352.333602 
L 980.902909 359.79092 
L 967.118075 372.86711 
z
" clip-path="url(#p89086e03ca)" style="fill: #3f599f"/>
    <path d="M 941.430878 365.292664 
L 967.118075 372.86711 
L 980.902909 359.79092 
L 955.35301 352.333602 
z
" clip-path="url(#p89086e03ca)" style="fill: #577ddf"/>
    <path d="M 782.048618 448.347906 
L 807.02678 456.302263 
L 822.064427 442.570234 
L 797.212532 434.738939 
z
" clip-path="url(#p89086e03ca)" style="fill: #577ddf"/>
    <path d="M 967.118075 372.86711 
L 980.902909 359.79092 
L 980.902909 359.79092 
L 967.118075 372.86711 
z
" clip-path="url(#p89086e03ca)" style="fill: #648fff"/>
    <path d="M 796.270283 374.360908 
L 797.212532 434.738939 
L 822.064427 442.570234 
L 821.436663 382.01786 
z
" clip-path="url(#p89086e03ca)" style="fill: #648fff"/>
    <path d="M 941.430878 365.292664 
L 967.118075 372.86711 
L 967.118075 372.86711 
L 941.430878 365.292664 
z
" clip-path="url(#p89086e03ca)" style="fill: #324880"/>
    <path d="M 780.903759 387.667472 
L 782.048618 448.347906 
L 797.212532 434.738939 
L 796.270283 374.360908 
z
" clip-path="url(#p89086e03ca)" style="fill: #324880"/>
    <path d="M 806.199608 395.446306 
L 821.436663 382.01786 
L 822.064427 442.570234 
L 807.02678 456.302263 
z
" clip-path="url(#p89086e03ca)" style="fill: #648fff"/>
    <path d="M 832.1909 459.3221 
L 857.653762 467.407965 
L 872.445864 453.449375 
L 847.115447 445.489868 
z
" clip-path="url(#p89086e03ca)" style="fill: #577ddf"/>
    <path d="M 780.903759 387.667472 
L 806.199608 395.446306 
L 807.02678 456.302263 
L 782.048618 448.347906 
z
" clip-path="url(#p89086e03ca)" style="fill: #324880"/>
    <path d="M 846.833165 389.744828 
L 847.115447 445.489868 
L 872.445864 453.449375 
L 872.462962 397.542777 
z
" clip-path="url(#p89086e03ca)" style="fill: #648fff"/>
    <path d="M 780.903759 387.667472 
L 796.270283 374.360908 
L 821.436663 382.01786 
L 806.199608 395.446306 
z
" clip-path="url(#p89086e03ca)" style="fill: #3f599f"/>
    <path d="M 831.728611 403.296838 
L 832.1909 459.3221 
L 847.115447 445.489868 
L 846.833165 389.744828 
z
" clip-path="url(#p89086e03ca)" style="fill: #324880"/>
    <path d="M 857.494004 411.220063 
L 872.462962 397.542777 
L 872.445864 453.449375 
L 857.653762 467.407965 
z
" clip-path="url(#p89086e03ca)" style="fill: #648fff"/>
    <path d="M 831.728611 403.296838 
L 857.494004 411.220063 
L 857.653762 467.407965 
L 832.1909 459.3221 
z
" clip-path="url(#p89086e03ca)" style="fill: #324880"/>
    <path d="M 831.728611 403.296838 
L 846.833165 389.744828 
L 872.462962 397.542777 
L 857.494004 411.220063 
z
" clip-path="url(#p89086e03ca)" style="fill: #3f599f"/>
    <path d="M 898.329282 405.412688 
L 898.222363 424.030227 
L 924.225377 432.027842 
L 924.435414 413.355563 
z
" clip-path="url(#p89086e03ca)" style="fill: #648fff"/>
    <path d="M 883.499088 419.216996 
L 883.449808 437.929485 
L 898.222363 424.030227 
L 898.329282 405.412688 
z
" clip-path="url(#p89086e03ca)" style="fill: #324880"/>
    <path d="M 883.449808 437.929485 
L 909.593698 446.056273 
L 924.225377 432.027842 
L 898.222363 424.030227 
z
" clip-path="url(#p89086e03ca)" style="fill: #577ddf"/>
    <path d="M 883.499088 419.216996 
L 898.329282 405.412688 
L 924.435414 413.355563 
L 909.747223 427.288671 
z
" clip-path="url(#p89086e03ca)" style="fill: #3f599f"/>
    <path d="M 909.747223 427.288671 
L 924.435414 413.355563 
L 924.225377 432.027842 
L 909.593698 446.056273 
z
" clip-path="url(#p89086e03ca)" style="fill: #648fff"/>
    <path d="M 883.499088 419.216996 
L 909.747223 427.288671 
L 909.593698 446.056273 
L 883.449808 437.929485 
z
" clip-path="url(#p89086e03ca)" style="fill: #324880"/>
   </g>
   <g id="Poly3DCollection_5">
    <path d="M 710.732463 375.108803 
L 915.566227 438.43748 
L 1027.133942 331.585365 
L 830.598205 275.644642 
z
" clip-path="url(#p89086e03ca)" style="fill-opacity: 0.25"/>
   </g>
   <g id="Poly3DCollection_6">
    <path d="M 835.44192 284.924865 
L 835.311561 267.043155 
L 859.390853 273.853941 
L 859.433453 291.787709 
z
" clip-path="url(#p89086e03ca)" style="fill: #324880"/>
    <path d="M 821.191621 296.849267 
L 821.007656 278.877243 
L 835.311561 267.043155 
L 835.44192 284.924865 
z
" clip-path="url(#p89086e03ca)" style="fill: #648fff"/>
    <path d="M 821.191621 296.849267 
L 835.44192 284.924865 
L 859.433453 291.787709 
L 845.301672 303.815467 
z
" clip-path="url(#p89086e03ca)" style="fill: #3f599f"/>
    <path d="M 821.007656 278.877243 
L 845.206333 285.790982 
L 859.390853 273.853941 
L 835.311561 267.043155 
z
" clip-path="url(#p89086e03ca)" style="fill: #577ddf"/>
    <path d="M 845.301672 303.815467 
L 859.433453 291.787709 
L 859.390853 273.853941 
L 845.206333 285.790982 
z
" clip-path="url(#p89086e03ca)" style="fill: #324880"/>
    <path d="M 821.191621 296.849267 
L 845.301672 303.815467 
L 845.206333 285.790982 
L 821.007656 278.877243 
z
" clip-path="url(#p89086e03ca)" style="fill: #648fff"/>
    <path d="M 932.664629 312.735688 
L 932.664629 312.735688 
L 957.50306 319.840789 
L 957.50306 319.840789 
z
" clip-path="url(#p89086e03ca)" style="fill: #324880"/>
    <path d="M 792.041256 321.241787 
L 806.726367 308.953541 
L 830.955791 316.025448 
L 816.390907 328.421827 
z
" clip-path="url(#p89086e03ca)" style="fill: #3f599f"/>
    <path d="M 918.904227 325.081705 
L 918.904227 325.081705 
L 932.664629 312.735688 
L 932.664629 312.735688 
z
" clip-path="url(#p89086e03ca)" style="fill: #648fff"/>
    <path d="M 806.726367 308.953541 
L 805.994761 253.702908 
L 830.497941 260.61126 
L 830.955791 316.025448 
z
" clip-path="url(#p89086e03ca)" style="fill: #324880"/>
    <path d="M 918.904227 325.081705 
L 932.664629 312.735688 
L 957.50306 319.840789 
L 943.871914 332.295704 
z
" clip-path="url(#p89086e03ca)" style="fill: #3f599f"/>
    <path d="M 918.904227 325.081705 
L 943.871914 332.295704 
L 957.50306 319.840789 
L 932.664629 312.735688 
z
" clip-path="url(#p89086e03ca)" style="fill: #577ddf"/>
    <path d="M 792.041256 321.241787 
L 791.1356 265.707399 
L 805.994761 253.702908 
L 806.726367 308.953541 
z
" clip-path="url(#p89086e03ca)" style="fill: #648fff"/>
    <path d="M 943.871914 332.295704 
L 957.50306 319.840789 
L 957.50306 319.840789 
L 943.871914 332.295704 
z
" clip-path="url(#p89086e03ca)" style="fill: #324880"/>
    <path d="M 918.904227 325.081705 
L 943.871914 332.295704 
L 943.871914 332.295704 
L 918.904227 325.081705 
z
" clip-path="url(#p89086e03ca)" style="fill: #648fff"/>
    <path d="M 816.390907 328.421827 
L 830.955791 316.025448 
L 830.497941 260.61126 
L 815.761729 272.722602 
z
" clip-path="url(#p89086e03ca)" style="fill: #324880"/>
    <path d="M 792.041256 321.241787 
L 816.390907 328.421827 
L 815.761729 272.722602 
L 791.1356 265.707399 
z
" clip-path="url(#p89086e03ca)" style="fill: #648fff"/>
    <path d="M 791.1356 265.707399 
L 815.761729 272.722602 
L 830.497941 260.61126 
L 805.994761 253.702908 
z
" clip-path="url(#p89086e03ca)" style="fill: #577ddf"/>
    <path d="M 904.93258 337.617254 
L 904.93258 337.617254 
L 930.030575 344.942674 
L 930.030575 344.942674 
z
" clip-path="url(#p89086e03ca)" style="fill: #324880"/>
    <path d="M 761.991107 346.38723 
L 777.131238 333.718231 
L 801.601966 341.008903 
L 786.583759 353.79111 
z
" clip-path="url(#p89086e03ca)" style="fill: #3f599f"/>
    <path d="M 890.744785 350.346734 
L 890.744785 350.346734 
L 904.93258 337.617254 
L 904.93258 337.617254 
z
" clip-path="url(#p89086e03ca)" style="fill: #648fff"/>
    <path d="M 890.744785 350.346734 
L 915.974143 357.786176 
L 930.030575 344.942674 
L 904.93258 337.617254 
z
" clip-path="url(#p89086e03ca)" style="fill: #577ddf"/>
    <path d="M 890.744785 350.346734 
L 904.93258 337.617254 
L 930.030575 344.942674 
L 915.974143 357.786176 
z
" clip-path="url(#p89086e03ca)" style="fill: #3f599f"/>
    <path d="M 777.131238 333.718231 
L 775.946772 272.780728 
L 800.722323 279.889765 
L 801.601966 341.008903 
z
" clip-path="url(#p89086e03ca)" style="fill: #324880"/>
    <path d="M 761.991107 346.38723 
L 760.604858 285.13461 
L 775.946772 272.780728 
L 777.131238 333.718231 
z
" clip-path="url(#p89086e03ca)" style="fill: #648fff"/>
    <path d="M 915.974143 357.786176 
L 930.030575 344.942674 
L 930.030575 344.942674 
L 915.974143 357.786176 
z
" clip-path="url(#p89086e03ca)" style="fill: #324880"/>
    <path d="M 826.291002 348.364616 
L 826.291002 348.364616 
L 851.20128 355.786245 
L 851.20128 355.786245 
z
" clip-path="url(#p89086e03ca)" style="fill: #324880"/>
    <path d="M 890.744785 350.346734 
L 915.974143 357.786176 
L 915.974143 357.786176 
L 890.744785 350.346734 
z
" clip-path="url(#p89086e03ca)" style="fill: #648fff"/>
    <path d="M 811.397515 361.261557 
L 811.397515 361.261557 
L 826.291002 348.364616 
L 826.291002 348.364616 
z
" clip-path="url(#p89086e03ca)" style="fill: #648fff"/>
    <path d="M 786.583759 353.79111 
L 801.601966 341.008903 
L 800.722323 279.889765 
L 785.50537 292.355447 
z
" clip-path="url(#p89086e03ca)" style="fill: #324880"/>
    <path d="M 811.397515 361.261557 
L 826.291002 348.364616 
L 851.20128 355.786245 
L 836.43537 368.79947 
z
" clip-path="url(#p89086e03ca)" style="fill: #3f599f"/>
    <path d="M 811.397515 361.261557 
L 836.43537 368.79947 
L 851.20128 355.786245 
L 826.291002 348.364616 
z
" clip-path="url(#p89086e03ca)" style="fill: #577ddf"/>
    <path d="M 761.991107 346.38723 
L 786.583759 353.79111 
L 785.50537 292.355447 
L 760.604858 285.13461 
z
" clip-path="url(#p89086e03ca)" style="fill: #648fff"/>
    <path d="M 836.43537 368.79947 
L 851.20128 355.786245 
L 851.20128 355.786245 
L 836.43537 368.79947 
z
" clip-path="url(#p89086e03ca)" style="fill: #324880"/>
    <path d="M 746.615492 359.253277 
L 746.615492 359.253277 
L 771.330912 366.773024 
L 771.330912 366.773024 
z
" clip-path="url(#p89086e03ca)" style="fill: #324880"/>
    <path d="M 760.604858 285.13461 
L 785.50537 292.355447 
L 800.722323 279.889765 
L 775.946772 272.780728 
z
" clip-path="url(#p89086e03ca)" style="fill: #577ddf"/>
    <path d="M 811.397515 361.261557 
L 836.43537 368.79947 
L 836.43537 368.79947 
L 811.397515 361.261557 
z
" clip-path="url(#p89086e03ca)" style="fill: #648fff"/>
    <path d="M 730.998859 372.321005 
L 730.998859 372.321005 
L 746.615492 359.253277 
L 746.615492 359.253277 
z
" clip-path="url(#p89086e03ca)" style="fill: #648fff"/>
    <path d="M 730.998859 372.321005 
L 746.615492 359.253277 
L 771.330912 366.773024 
L 755.837883 379.959359 
z
" clip-path="url(#p89086e03ca)" style="fill: #3f599f"/>
    <path d="M 730.998859 372.321005 
L 755.837883 379.959359 
L 771.330912 366.773024 
L 746.615492 359.253277 
z
" clip-path="url(#p89086e03ca)" style="fill: #577ddf"/>
    <path d="M 755.837883 379.959359 
L 771.330912 366.773024 
L 771.330912 366.773024 
L 755.837883 379.959359 
z
" clip-path="url(#p89086e03ca)" style="fill: #324880"/>
    <path d="M 861.700374 376.405769 
L 876.335788 363.27468 
L 901.697567 370.830826 
L 887.195633 384.081389 
z
" clip-path="url(#p89086e03ca)" style="fill: #3f599f"/>
    <path d="M 876.335788 363.27468 
L 876.383399 320.400937 
L 901.97296 327.829308 
L 901.697567 370.830826 
z
" clip-path="url(#p89086e03ca)" style="fill: #324880"/>
    <path d="M 730.998859 372.321005 
L 755.837883 379.959359 
L 755.837883 379.959359 
L 730.998859 372.321005 
z
" clip-path="url(#p89086e03ca)" style="fill: #648fff"/>
    <path d="M 861.700374 376.405769 
L 861.616603 333.310362 
L 876.383399 320.400937 
L 876.335788 363.27468 
z
" clip-path="url(#p89086e03ca)" style="fill: #648fff"/>
    <path d="M 927.289713 378.455607 
L 927.455839 364.332954 
L 953.358841 371.9855 
L 953.11538 386.149962 
z
" clip-path="url(#p89086e03ca)" style="fill: #324880"/>
    <path d="M 887.195633 384.081389 
L 901.697567 370.830826 
L 901.97296 327.829308 
L 887.34206 340.857249 
z
" clip-path="url(#p89086e03ca)" style="fill: #324880"/>
    <path d="M 912.924307 391.82728 
L 913.049016 377.632101 
L 927.455839 364.332954 
L 927.289713 378.455607 
z
" clip-path="url(#p89086e03ca)" style="fill: #648fff"/>
    <path d="M 861.700374 376.405769 
L 887.195633 384.081389 
L 887.34206 340.857249 
L 861.616603 333.310362 
z
" clip-path="url(#p89086e03ca)" style="fill: #648fff"/>
    <path d="M 861.616603 333.310362 
L 887.34206 340.857249 
L 901.97296 327.829308 
L 876.383399 320.400937 
z
" clip-path="url(#p89086e03ca)" style="fill: #577ddf"/>
    <path d="M 912.924307 391.82728 
L 927.289713 378.455607 
L 953.11538 386.149962 
L 938.889617 399.644414 
z
" clip-path="url(#p89086e03ca)" style="fill: #3f599f"/>
    <path d="M 913.049016 377.632101 
L 939.092506 385.407124 
L 953.358841 371.9855 
L 927.455839 364.332954 
z
" clip-path="url(#p89086e03ca)" style="fill: #577ddf"/>
    <path d="M 938.889617 399.644414 
L 953.11538 386.149962 
L 953.358841 371.9855 
L 939.092506 385.407124 
z
" clip-path="url(#p89086e03ca)" style="fill: #324880"/>
    <path d="M 912.924307 391.82728 
L 938.889617 399.644414 
L 939.092506 385.407124 
L 913.049016 377.632101 
z
" clip-path="url(#p89086e03ca)" style="fill: #648fff"/>
   </g>
   <g id="text_33">
    <!-- Imaginary Amplitude (ρ) -->
    <g transform="translate(735.696563 51.6) scale(0.21 -0.21)">
     <defs>
      <path id="DejaVuSans-49" d="M 628 4666 
L 1259 4666 
L 1259 0 
L 628 0 
L 628 4666 
z
" transform="scale(0.015625)"/>
      <path id="DejaVuSans-67" d="M 2906 1791 
Q 2906 2416 2648 2759 
Q 2391 3103 1925 3103 
Q 1463 3103 1205 2759 
Q 947 2416 947 1791 
Q 947 1169 1205 825 
Q 1463 481 1925 481 
Q 2391 481 2648 825 
Q 2906 1169 2906 1791 
z
M 3481 434 
Q 3481 -459 3084 -895 
Q 2688 -1331 1869 -1331 
Q 1566 -1331 1297 -1286 
Q 1028 -1241 775 -1147 
L 775 -588 
Q 1028 -725 1275 -790 
Q 1522 -856 1778 -856 
Q 2344 -856 2625 -561 
Q 2906 -266 2906 331 
L 2906 616 
Q 2728 306 2450 153 
Q 2172 0 1784 0 
Q 1141 0 747 490 
Q 353 981 353 1791 
Q 353 2603 747 3093 
Q 1141 3584 1784 3584 
Q 2172 3584 2450 3431 
Q 2728 3278 2906 2969 
L 2906 3500 
L 3481 3500 
L 3481 434 
z
" transform="scale(0.015625)"/>
      <path id="DejaVuSans-6e" d="M 3513 2113 
L 3513 0 
L 2938 0 
L 2938 2094 
Q 2938 2591 2744 2837 
Q 2550 3084 2163 3084 
Q 1697 3084 1428 2787 
Q 1159 2491 1159 1978 
L 1159 0 
L 581 0 
L 581 3500 
L 1159 3500 
L 1159 2956 
Q 1366 3272 1645 3428 
Q 1925 3584 2291 3584 
Q 2894 3584 3203 3211 
Q 3513 2838 3513 2113 
z
" transform="scale(0.015625)"/>
      <path id="DejaVuSans-72" d="M 2631 2963 
Q 2534 3019 2420 3045 
Q 2306 3072 2169 3072 
Q 1681 3072 1420 2755 
Q 1159 2438 1159 1844 
L 1159 0 
L 581 0 
L 581 3500 
L 1159 3500 
L 1159 2956 
Q 1341 3275 1631 3429 
Q 1922 3584 2338 3584 
Q 2397 3584 2469 3576 
Q 2541 3569 2628 3553 
L 2631 2963 
z
" transform="scale(0.015625)"/>
      <path id="DejaVuSans-79" d="M 2059 -325 
Q 1816 -950 1584 -1140 
Q 1353 -1331 966 -1331 
L 506 -1331 
L 506 -850 
L 844 -850 
Q 1081 -850 1212 -737 
Q 1344 -625 1503 -206 
L 1606 56 
L 191 3500 
L 800 3500 
L 1894 763 
L 2988 3500 
L 3597 3500 
L 2059 -325 
z
" transform="scale(0.015625)"/>
     </defs>
     <use xlink:href="#DejaVuSans-49"/>
     <use xlink:href="#DejaVuSans-6d" x="29.492188"/>
     <use xlink:href="#DejaVuSans-61" x="126.904297"/>
     <use xlink:href="#DejaVuSans-67" x="188.183594"/>
     <use xlink:href="#DejaVuSans-69" x="251.660156"/>
     <use xlink:href="#DejaVuSans-6e" x="279.443359"/>
     <use xlink:href="#DejaVuSans-61" x="342.822266"/>
     <use xlink:href="#DejaVuSans-72" x="404.101562"/>
     <use xlink:href="#DejaVuSans-79" x="445.214844"/>
     <use xlink:href="#DejaVuSans-20" x="504.394531"/>
     <use xlink:href="#DejaVuSans-41" x="536.181641"/>
     <use xlink:href="#DejaVuSans-6d" x="604.589844"/>
     <use xlink:href="#DejaVuSans-70" x="702.001953"/>
     <use xlink:href="#DejaVuSans-6c" x="765.478516"/>
     <use xlink:href="#DejaVuSans-69" x="793.261719"/>
     <use xlink:href="#DejaVuSans-74" x="821.044922"/>
     <use xlink:href="#DejaVuSans-75" x="860.253906"/>
     <use xlink:href="#DejaVuSans-64" x="923.632812"/>
     <use xlink:href="#DejaVuSans-65" x="987.109375"/>
     <use xlink:href="#DejaVuSans-20" x="1048.632812"/>
     <use xlink:href="#DejaVuSans-28" x="1080.419922"/>
     <use xlink:href="#DejaVuSans-3c1" x="1119.433594"/>
     <use xlink:href="#DejaVuSans-29" x="1182.910156"/>
    </g>
   </g>
  </g>
 </g>
 <defs>
  <clipPath id="ped8c6ceab9">
   <rect x="28.8" y="57.6" width="518.4" height="518.4"/>
  </clipPath>
  <clipPath id="p89086e03ca">
   <rect x="604.8" y="57.6" width="518.4" height="518.4"/>
  </clipPath>
 </defs>
</svg>
