<?xml version="1.0" encoding="utf-8" standalone="no"?>
<!DOCTYPE svg PUBLIC "-//W3C//DTD SVG 1.1//EN"
  "http://www.w3.org/Graphics/SVG/1.1/DTD/svg11.dtd">
<svg xmlns:xlink="http://www.w3.org/1999/xlink" width="1152pt" height="576pt" viewBox="0 0 1152 576" xmlns="http://www.w3.org/2000/svg" version="1.1">
 <metadata>
  <rdf:RDF xmlns:dc="http://purl.org/dc/elements/1.1/" xmlns:cc="http://creativecommons.org/ns#" xmlns:rdf="http://www.w3.org/1999/02/22-rdf-syntax-ns#">
   <cc:Work>
    <dc:type rdf:resource="http://purl.org/dc/dcmitype/StillImage"/>
    <dc:date>2024-11-02T19:03:14.453338</dc:date>
    <dc:format>image/svg+xml</dc:format>
    <dc:creator>
     <cc:Agent>
      <dc:title>Matplotlib v3.9.2, https://matplotlib.org/</dc:title>
     </cc:Agent>
    </dc:creator>
   </cc:Work>
  </rdf:RDF>
 </metadata>
 <defs>
  <style type="text/css">*{stroke-linejoin: round; stroke-linecap: butt}</style>
 </defs>
 <g id="figure_1">
  <g id="patch_1">
   <path d="M 0 576 
L 1152 576 
L 1152 0 
L 0 0 
z
" style="fill: #ffffff"/>
  </g>
  <g id="patch_2">
   <path d="M 28.8 576 
L 547.2 576 
L 547.2 57.6 
L 28.8 57.6 
z
" style="fill: #ffffff"/>
  </g>
  <g id="pane3d_1">
   <g id="patch_3">
    <path d="M 130.07018 436.456468 
L 253.494133 330.550231 
L 251.743197 126.70673 
L 122.643358 223.613571 
" style="fill: #f2f2f2; opacity: 0.5; stroke: #f2f2f2; stroke-linejoin: miter"/>
   </g>
  </g>
  <g id="pane3d_2">
   <g id="patch_4">
    <path d="M 253.494133 330.550231 
L 455.554898 390.069341 
L 462.583588 181.103065 
L 251.743197 126.70673 
" style="fill: #e6e6e6; opacity: 0.5; stroke: #e6e6e6; stroke-linejoin: miter"/>
   </g>
  </g>
  <g id="pane3d_3">
   <g id="patch_5">
    <path d="M 130.07018 436.456468 
L 340.912731 504.076731 
L 455.554898 390.069341 
L 253.494133 330.550231 
" style="fill: #ececec; opacity: 0.5; stroke: #ececec; stroke-linejoin: miter"/>
   </g>
  </g>
  <g id="grid3d_1">
   <g id="Line3DCollection_1">
    <path d="M 158.635886 445.617904 
L 280.925726 338.630493 
L 280.328796 134.081748 
" style="fill: none; stroke: #b0b0b0; stroke-width: 0.8"/>
    <path d="M 208.310046 461.549127 
L 328.58611 352.669358 
L 330.022474 146.902603 
" style="fill: none; stroke: #b0b0b0; stroke-width: 0.8"/>
    <path d="M 258.89502 477.772462 
L 377.066152 366.949661 
L 380.607663 159.953465 
" style="fill: none; stroke: #b0b0b0; stroke-width: 0.8"/>
    <path d="M 310.41609 494.296016 
L 426.38718 381.477685 
L 432.108569 173.24058 
" style="fill: none; stroke: #b0b0b0; stroke-width: 0.8"/>
   </g>
  </g>
  <g id="grid3d_2">
   <g id="Line3DCollection_2">
    <path d="M 141.757365 209.265931 
L 148.301379 420.812846 
L 357.880707 487.202708 
" style="fill: none; stroke: #b0b0b0; stroke-width: 0.8"/>
    <path d="M 173.704273 185.285468 
L 178.805664 394.638072 
L 386.24502 458.995448 
" style="fill: none; stroke: #b0b0b0; stroke-width: 0.8"/>
    <path d="M 204.65707 162.051218 
L 208.400054 369.24405 
L 413.731787 431.660877 
" style="fill: none; stroke: #b0b0b0; stroke-width: 0.8"/>
    <path d="M 234.661448 139.528886 
L 237.124663 344.596362 
L 440.38111 405.159111 
" style="fill: none; stroke: #b0b0b0; stroke-width: 0.8"/>
   </g>
  </g>
  <g id="grid3d_3">
   <g id="Line3DCollection_3">
    <path d="M 456.153025 372.28675 
L 253.344923 313.179228 
L 129.438865 418.363804 
" style="fill: none; stroke: #b0b0b0; stroke-width: 0.8"/>
    <path d="M 457.101981 344.073832 
L 253.108274 285.628619 
L 128.436989 389.651384 
" style="fill: none; stroke: #b0b0b0; stroke-width: 0.8"/>
    <path d="M 458.06218 315.526669 
L 252.868921 257.763224 
L 127.422915 360.589359 
" style="fill: none; stroke: #b0b0b0; stroke-width: 0.8"/>
    <path d="M 459.033822 286.639286 
L 252.626817 229.577617 
L 126.396418 331.171305 
" style="fill: none; stroke: #b0b0b0; stroke-width: 0.8"/>
    <path d="M 460.017113 257.405563 
L 252.381916 201.066246 
L 125.357268 301.39064 
" style="fill: none; stroke: #b0b0b0; stroke-width: 0.8"/>
    <path d="M 461.012265 227.819235 
L 252.134167 172.223431 
L 124.30523 271.240617 
" style="fill: none; stroke: #b0b0b0; stroke-width: 0.8"/>
    <path d="M 462.019492 197.873884 
L 251.883522 143.043359 
L 123.240062 240.714322 
" style="fill: none; stroke: #b0b0b0; stroke-width: 0.8"/>
   </g>
  </g>
  <g id="axis3d_1">
   <g id="line2d_1">
    <path d="M 130.07018 436.456468 
L 340.912731 504.076731 
" style="fill: none; stroke: #000000; stroke-width: 0.8; stroke-linecap: square"/>
   </g>
   <g id="xtick_1">
    <g id="line2d_2">
     <path d="M 159.677227 444.706868 
L 156.549953 447.442819 
" style="fill: none; stroke: #000000; stroke-width: 0.8; stroke-linecap: square"/>
    </g>
    <g id="text_1">
     <!-- 00 -->
     <g transform="translate(131.351686 489.365693) rotate(-45) scale(0.21 -0.21)">
      <defs>
       <path id="DejaVuSans-30" d="M 2034 4250 
Q 1547 4250 1301 3770 
Q 1056 3291 1056 2328 
Q 1056 1369 1301 889 
Q 1547 409 2034 409 
Q 2525 409 2770 889 
Q 3016 1369 3016 2328 
Q 3016 3291 2770 3770 
Q 2525 4250 2034 4250 
z
M 2034 4750 
Q 2819 4750 3233 4129 
Q 3647 3509 3647 2328 
Q 3647 1150 3233 529 
Q 2819 -91 2034 -91 
Q 1250 -91 836 529 
Q 422 1150 422 2328 
Q 422 3509 836 4129 
Q 1250 4750 2034 4750 
z
" transform="scale(0.015625)"/>
      </defs>
      <use xlink:href="#DejaVuSans-30"/>
      <use xlink:href="#DejaVuSans-30" x="63.623047"/>
     </g>
    </g>
   </g>
   <g id="xtick_2">
    <g id="line2d_3">
     <path d="M 209.334802 460.621468 
L 206.257306 463.407368 
" style="fill: none; stroke: #000000; stroke-width: 0.8; stroke-linecap: square"/>
    </g>
    <g id="text_2">
     <!-- 01 -->
     <g transform="translate(181.023931 505.435143) rotate(-45) scale(0.21 -0.21)">
      <defs>
       <path id="DejaVuSans-31" d="M 794 531 
L 1825 531 
L 1825 4091 
L 703 3866 
L 703 4441 
L 1819 4666 
L 2450 4666 
L 2450 531 
L 3481 531 
L 3481 0 
L 794 0 
L 794 531 
z
" transform="scale(0.015625)"/>
      </defs>
      <use xlink:href="#DejaVuSans-30"/>
      <use xlink:href="#DejaVuSans-31" x="63.623047"/>
     </g>
    </g>
   </g>
   <g id="xtick_3">
    <g id="line2d_4">
     <path d="M 259.902405 476.82772 
L 256.877048 479.664949 
" style="fill: none; stroke: #000000; stroke-width: 0.8; stroke-linecap: square"/>
    </g>
    <g id="text_3">
     <!-- 10 -->
     <g transform="translate(231.60781 521.799516) rotate(-45) scale(0.21 -0.21)">
      <use xlink:href="#DejaVuSans-31"/>
      <use xlink:href="#DejaVuSans-30" x="63.623047"/>
     </g>
    </g>
   </g>
   <g id="xtick_4">
    <g id="line2d_5">
     <path d="M 311.405283 493.333715 
L 308.434531 496.223705 
" style="fill: none; stroke: #000000; stroke-width: 0.8; stroke-linecap: square"/>
    </g>
    <g id="text_4">
     <!-- 11 -->
     <g transform="translate(283.128654 538.467006) rotate(-45) scale(0.21 -0.21)">
      <use xlink:href="#DejaVuSans-31"/>
      <use xlink:href="#DejaVuSans-31" x="63.623047"/>
     </g>
    </g>
   </g>
  </g>
  <g id="axis3d_2">
   <g id="line2d_6">
    <path d="M 455.554898 390.069341 
L 340.912731 504.076731 
" style="fill: none; stroke: #000000; stroke-width: 0.8; stroke-linecap: square"/>
   </g>
   <g id="xtick_5">
    <g id="line2d_7">
     <path d="M 356.140222 486.651363 
L 361.364886 488.306415 
" style="fill: none; stroke: #000000; stroke-width: 0.8; stroke-linecap: square"/>
    </g>
    <g id="text_5">
     <!-- 00 -->
     <g transform="translate(368.70027 499.207917) rotate(-337.5) scale(0.21 -0.21)">
      <use xlink:href="#DejaVuSans-30"/>
      <use xlink:href="#DejaVuSans-30" x="63.623047"/>
     </g>
    </g>
   </g>
   <g id="xtick_6">
    <g id="line2d_8">
     <path d="M 384.5233 458.46129 
L 389.691587 460.064734 
" style="fill: none; stroke: #000000; stroke-width: 0.8; stroke-linecap: square"/>
    </g>
    <g id="text_6">
     <!-- 01 -->
     <g transform="translate(396.913817 470.822876) rotate(-337.5) scale(0.21 -0.21)">
      <use xlink:href="#DejaVuSans-30"/>
      <use xlink:href="#DejaVuSans-31" x="63.623047"/>
     </g>
    </g>
   </g>
   <g id="xtick_7">
    <g id="line2d_9">
     <path d="M 412.028511 431.143114 
L 417.141381 432.697327 
" style="fill: none; stroke: #000000; stroke-width: 0.8; stroke-linecap: square"/>
    </g>
    <g id="text_7">
     <!-- 10 -->
     <g transform="translate(424.254695 443.315808) rotate(-337.5) scale(0.21 -0.21)">
      <use xlink:href="#DejaVuSans-31"/>
      <use xlink:href="#DejaVuSans-30" x="63.623047"/>
     </g>
    </g>
   </g>
   <g id="xtick_8">
    <g id="line2d_10">
     <path d="M 438.695964 404.657001 
L 443.754368 406.164215 
" style="fill: none; stroke: #000000; stroke-width: 0.8; stroke-linecap: square"/>
    </g>
    <g id="text_8">
     <!-- 11 -->
     <g transform="translate(450.762776 416.646599) rotate(-337.5) scale(0.21 -0.21)">
      <use xlink:href="#DejaVuSans-31"/>
      <use xlink:href="#DejaVuSans-31" x="63.623047"/>
     </g>
    </g>
   </g>
  </g>
  <g id="axis3d_3">
   <g id="line2d_11">
    <path d="M 455.554898 390.069341 
L 462.583588 181.103065 
" style="fill: none; stroke: #000000; stroke-width: 0.8; stroke-linecap: square"/>
   </g>
   <g id="xtick_9">
    <g id="line2d_12">
     <path d="M 454.471897 371.796793 
L 459.518224 373.267523 
" style="fill: none; stroke: #000000; stroke-width: 0.8; stroke-linecap: square"/>
    </g>
    <g id="text_9">
     <!-- −0.2 -->
     <g transform="translate(469.681845 366.011414) scale(0.21 -0.21)">
      <defs>
       <path id="DejaVuSans-2212" d="M 678 2272 
L 4684 2272 
L 4684 1741 
L 678 1741 
L 678 2272 
z
" transform="scale(0.015625)"/>
       <path id="DejaVuSans-2e" d="M 684 794 
L 1344 794 
L 1344 0 
L 684 0 
L 684 794 
z
" transform="scale(0.015625)"/>
       <path id="DejaVuSans-32" d="M 1228 531 
L 3431 531 
L 3431 0 
L 469 0 
L 469 531 
Q 828 903 1448 1529 
Q 2069 2156 2228 2338 
Q 2531 2678 2651 2914 
Q 2772 3150 2772 3378 
Q 2772 3750 2511 3984 
Q 2250 4219 1831 4219 
Q 1534 4219 1204 4116 
Q 875 4013 500 3803 
L 500 4441 
Q 881 4594 1212 4672 
Q 1544 4750 1819 4750 
Q 2544 4750 2975 4387 
Q 3406 4025 3406 3419 
Q 3406 3131 3298 2873 
Q 3191 2616 2906 2266 
Q 2828 2175 2409 1742 
Q 1991 1309 1228 531 
z
" transform="scale(0.015625)"/>
      </defs>
      <use xlink:href="#DejaVuSans-2212"/>
      <use xlink:href="#DejaVuSans-30" x="83.789062"/>
      <use xlink:href="#DejaVuSans-2e" x="147.412109"/>
      <use xlink:href="#DejaVuSans-32" x="179.199219"/>
     </g>
    </g>
   </g>
   <g id="xtick_10">
    <g id="line2d_13">
     <path d="M 455.410678 343.589266 
L 460.487565 345.043819 
" style="fill: none; stroke: #000000; stroke-width: 0.8; stroke-linecap: square"/>
    </g>
    <g id="text_10">
     <!-- −0.1 -->
     <g transform="translate(470.709294 337.819497) scale(0.21 -0.21)">
      <use xlink:href="#DejaVuSans-2212"/>
      <use xlink:href="#DejaVuSans-30" x="83.789062"/>
      <use xlink:href="#DejaVuSans-2e" x="147.412109"/>
      <use xlink:href="#DejaVuSans-31" x="179.199219"/>
     </g>
    </g>
   </g>
   <g id="xtick_11">
    <g id="line2d_14">
     <path d="M 456.360578 315.047656 
L 461.468398 316.485545 
" style="fill: none; stroke: #000000; stroke-width: 0.8; stroke-linecap: square"/>
    </g>
    <g id="text_11">
     <!-- 0.0 -->
     <g transform="translate(471.748902 309.293968) scale(0.21 -0.21)">
      <use xlink:href="#DejaVuSans-30"/>
      <use xlink:href="#DejaVuSans-2e" x="63.623047"/>
      <use xlink:href="#DejaVuSans-30" x="95.410156"/>
     </g>
    </g>
   </g>
   <g id="xtick_12">
    <g id="line2d_15">
     <path d="M 457.321795 286.165992 
L 462.460927 287.586716 
" style="fill: none; stroke: #000000; stroke-width: 0.8; stroke-linecap: square"/>
    </g>
    <g id="text_12">
     <!-- 0.1 -->
     <g transform="translate(472.800885 280.428869) scale(0.21 -0.21)">
      <use xlink:href="#DejaVuSans-30"/>
      <use xlink:href="#DejaVuSans-2e" x="63.623047"/>
      <use xlink:href="#DejaVuSans-31" x="95.410156"/>
     </g>
    </g>
   </g>
   <g id="xtick_13">
    <g id="line2d_16">
     <path d="M 458.294533 256.938162 
L 463.465363 258.341204 
" style="fill: none; stroke: #000000; stroke-width: 0.8; stroke-linecap: square"/>
    </g>
    <g id="text_13">
     <!-- 0.2 -->
     <g transform="translate(473.865466 251.2181) scale(0.21 -0.21)">
      <use xlink:href="#DejaVuSans-30"/>
      <use xlink:href="#DejaVuSans-2e" x="63.623047"/>
      <use xlink:href="#DejaVuSans-32" x="95.410156"/>
     </g>
    </g>
   </g>
   <g id="xtick_14">
    <g id="line2d_17">
     <path d="M 459.279 227.357903 
L 464.481921 228.742732 
" style="fill: none; stroke: #000000; stroke-width: 0.8; stroke-linecap: square"/>
    </g>
    <g id="text_14">
     <!-- 0.3 -->
     <g transform="translate(474.942872 221.655415) scale(0.21 -0.21)">
      <defs>
       <path id="DejaVuSans-33" d="M 2597 2516 
Q 3050 2419 3304 2112 
Q 3559 1806 3559 1356 
Q 3559 666 3084 287 
Q 2609 -91 1734 -91 
Q 1441 -91 1130 -33 
Q 819 25 488 141 
L 488 750 
Q 750 597 1062 519 
Q 1375 441 1716 441 
Q 2309 441 2620 675 
Q 2931 909 2931 1356 
Q 2931 1769 2642 2001 
Q 2353 2234 1838 2234 
L 1294 2234 
L 1294 2753 
L 1863 2753 
Q 2328 2753 2575 2939 
Q 2822 3125 2822 3475 
Q 2822 3834 2567 4026 
Q 2313 4219 1838 4219 
Q 1578 4219 1281 4162 
Q 984 4106 628 3988 
L 628 4550 
Q 988 4650 1302 4700 
Q 1616 4750 1894 4750 
Q 2613 4750 3031 4423 
Q 3450 4097 3450 3541 
Q 3450 3153 3228 2886 
Q 3006 2619 2597 2516 
z
" transform="scale(0.015625)"/>
      </defs>
      <use xlink:href="#DejaVuSans-30"/>
      <use xlink:href="#DejaVuSans-2e" x="63.623047"/>
      <use xlink:href="#DejaVuSans-33" x="95.410156"/>
     </g>
    </g>
   </g>
   <g id="xtick_15">
    <g id="line2d_18">
     <path d="M 460.27541 197.418803 
L 465.510822 198.784873 
" style="fill: none; stroke: #000000; stroke-width: 0.8; stroke-linecap: square"/>
    </g>
    <g id="text_15">
     <!-- 0.4 -->
     <g transform="translate(476.033337 191.734416) scale(0.21 -0.21)">
      <defs>
       <path id="DejaVuSans-34" d="M 2419 4116 
L 825 1625 
L 2419 1625 
L 2419 4116 
z
M 2253 4666 
L 3047 4666 
L 3047 1625 
L 3713 1625 
L 3713 1100 
L 3047 1100 
L 3047 0 
L 2419 0 
L 2419 1100 
L 313 1100 
L 313 1709 
L 2253 4666 
z
" transform="scale(0.015625)"/>
      </defs>
      <use xlink:href="#DejaVuSans-30"/>
      <use xlink:href="#DejaVuSans-2e" x="63.623047"/>
      <use xlink:href="#DejaVuSans-34" x="95.410156"/>
     </g>
    </g>
   </g>
  </g>
  <g id="axes_1">
   <g id="Poly3DCollection_1">
    <path d="M 230.527197 293.912307 
L 230.812125 315.429941 
L 255.009457 322.520659 
L 254.831152 300.940236 
z
" clip-path="url(#p99a836c8ce)" style="fill: #648fff"/>
    <path d="M 356.85613 297.67091 
L 356.464331 328.492499 
L 381.220848 335.643268 
L 381.772885 304.731929 
z
" clip-path="url(#p99a836c8ce)" style="fill: #648fff"/>
    <path d="M 216.147406 327.750819 
L 240.464647 334.949811 
L 255.009457 322.520659 
L 230.812125 315.429941 
z
" clip-path="url(#p99a836c8ce)" style="fill: #577ddf"/>
    <path d="M 215.794719 306.124256 
L 216.147406 327.750819 
L 230.812125 315.429941 
L 230.527197 293.912307 
z
" clip-path="url(#p99a836c8ce)" style="fill: #324880"/>
    <path d="M 342.747448 340.917738 
L 367.632363 348.177744 
L 381.220848 335.643268 
L 356.464331 328.492499 
z
" clip-path="url(#p99a836c8ce)" style="fill: #577ddf"/>
    <path d="M 343.054128 309.940451 
L 342.747448 340.917738 
L 356.464331 328.492499 
L 356.85613 297.67091 
z
" clip-path="url(#p99a836c8ce)" style="fill: #324880"/>
    <path d="M 187.342974 406.120684 
L 211.635283 413.696335 
L 226.459863 400.617052 
L 202.286551 393.155814 
z
" clip-path="url(#p99a836c8ce)" style="fill: #577ddf"/>
    <path d="M 240.219639 313.259982 
L 254.831152 300.940236 
L 255.009457 322.520659 
L 240.464647 334.949811 
z
" clip-path="url(#p99a836c8ce)" style="fill: #648fff"/>
    <path d="M 215.794719 306.124256 
L 230.527197 293.912307 
L 254.831152 300.940236 
L 240.219639 313.259982 
z
" clip-path="url(#p99a836c8ce)" style="fill: #3f599f"/>
    <path d="M 368.100962 317.110032 
L 381.772885 304.731929 
L 381.220848 335.643268 
L 367.632363 348.177744 
z
" clip-path="url(#p99a836c8ce)" style="fill: #648fff"/>
    <path d="M 215.794719 306.124256 
L 240.219639 313.259982 
L 240.464647 334.949811 
L 216.147406 327.750819 
z
" clip-path="url(#p99a836c8ce)" style="fill: #324880"/>
    <path d="M 343.054128 309.940451 
L 356.85613 297.67091 
L 381.772885 304.731929 
L 368.100962 317.110032 
z
" clip-path="url(#p99a836c8ce)" style="fill: #3f599f"/>
    <path d="M 343.054128 309.940451 
L 368.100962 317.110032 
L 367.632363 348.177744 
L 342.747448 340.917738 
z
" clip-path="url(#p99a836c8ce)" style="fill: #324880"/>
    <path d="M 200.835899 318.523824 
L 202.286551 393.155814 
L 226.459863 400.617052 
L 225.382642 325.769847 
z
" clip-path="url(#p99a836c8ce)" style="fill: #648fff"/>
    <path d="M 279.349296 308.030101 
L 279.355736 310.027568 
L 304.080719 317.186073 
L 304.084471 315.182724 
z
" clip-path="url(#p99a836c8ce)" style="fill: #648fff"/>
    <path d="M 185.645479 331.115367 
L 187.342974 406.120684 
L 202.286551 393.155814 
L 200.835899 318.523824 
z
" clip-path="url(#p99a836c8ce)" style="fill: #324880"/>
    <path d="M 264.861469 320.459078 
L 264.873965 322.466749 
L 279.355736 310.027568 
L 279.349296 308.030101 
z
" clip-path="url(#p99a836c8ce)" style="fill: #324880"/>
    <path d="M 264.873965 322.466749 
L 289.72531 329.73599 
L 304.080719 317.186073 
L 279.355736 310.027568 
z
" clip-path="url(#p99a836c8ce)" style="fill: #577ddf"/>
    <path d="M 264.861469 320.459078 
L 279.349296 308.030101 
L 304.084471 315.182724 
L 289.72311 327.722393 
z
" clip-path="url(#p99a836c8ce)" style="fill: #3f599f"/>
    <path d="M 210.3149 338.474264 
L 225.382642 325.769847 
L 226.459863 400.617052 
L 211.635283 413.696335 
z
" clip-path="url(#p99a836c8ce)" style="fill: #648fff"/>
    <path d="M 289.72311 327.722393 
L 304.084471 315.182724 
L 304.080719 317.186073 
L 289.72531 329.73599 
z
" clip-path="url(#p99a836c8ce)" style="fill: #648fff"/>
    <path d="M 185.645479 331.115367 
L 210.3149 338.474264 
L 211.635283 413.696335 
L 187.342974 406.120684 
z
" clip-path="url(#p99a836c8ce)" style="fill: #324880"/>
    <path d="M 264.861469 320.459078 
L 289.72311 327.722393 
L 289.72531 329.73599 
L 264.873965 322.466749 
z
" clip-path="url(#p99a836c8ce)" style="fill: #324880"/>
    <path d="M 185.645479 331.115367 
L 200.835899 318.523824 
L 225.382642 325.769847 
L 210.3149 338.474264 
z
" clip-path="url(#p99a836c8ce)" style="fill: #3f599f"/>
    <path d="M 379.621396 337.025594 
L 379.072338 368.34233 
L 404.535582 375.846384 
L 405.254169 344.437774 
z
" clip-path="url(#p99a836c8ce)" style="fill: #648fff"/>
    <path d="M 365.194709 381.382463 
L 390.794313 389.003981 
L 404.535582 375.846384 
L 379.072338 368.34233 
z
" clip-path="url(#p99a836c8ce)" style="fill: #577ddf"/>
    <path d="M 365.65672 349.906353 
L 365.194709 381.382463 
L 379.072338 368.34233 
L 379.621396 337.025594 
z
" clip-path="url(#p99a836c8ce)" style="fill: #324880"/>
    <path d="M 206.048618 448.347906 
L 231.02678 456.302263 
L 246.064427 442.570234 
L 221.212532 434.738939 
z
" clip-path="url(#p99a836c8ce)" style="fill: #577ddf"/>
    <path d="M 391.427692 357.435327 
L 405.254169 344.437774 
L 404.535582 375.846384 
L 390.794313 389.003981 
z
" clip-path="url(#p99a836c8ce)" style="fill: #648fff"/>
    <path d="M 365.65672 349.906353 
L 379.621396 337.025594 
L 405.254169 344.437774 
L 391.427692 357.435327 
z
" clip-path="url(#p99a836c8ce)" style="fill: #3f599f"/>
    <path d="M 365.65672 349.906353 
L 391.427692 357.435327 
L 390.794313 389.003981 
L 365.194709 381.382463 
z
" clip-path="url(#p99a836c8ce)" style="fill: #324880"/>
    <path d="M 220.029317 358.920183 
L 221.212532 434.738939 
L 246.064427 442.570234 
L 245.27611 366.531434 
z
" clip-path="url(#p99a836c8ce)" style="fill: #648fff"/>
    <path d="M 300.352861 347.900519 
L 300.350607 349.930439 
L 325.783279 357.447188 
L 325.796318 355.411246 
z
" clip-path="url(#p99a836c8ce)" style="fill: #648fff"/>
    <path d="M 204.610943 372.147469 
L 206.048618 448.347906 
L 221.212532 434.738939 
L 220.029317 358.920183 
z
" clip-path="url(#p99a836c8ce)" style="fill: #324880"/>
    <path d="M 285.670336 360.952817 
L 285.674302 362.993185 
L 300.350607 349.930439 
L 300.352861 347.900519 
z
" clip-path="url(#p99a836c8ce)" style="fill: #324880"/>
    <path d="M 285.674302 362.993185 
L 311.241204 370.629119 
L 325.783279 357.447188 
L 300.350607 349.930439 
z
" clip-path="url(#p99a836c8ce)" style="fill: #577ddf"/>
    <path d="M 285.670336 360.952817 
L 300.352861 347.900519 
L 325.796318 355.411246 
L 311.248137 368.582684 
z
" clip-path="url(#p99a836c8ce)" style="fill: #3f599f"/>
    <path d="M 229.98803 379.880271 
L 245.27611 366.531434 
L 246.064427 442.570234 
L 231.02678 456.302263 
z
" clip-path="url(#p99a836c8ce)" style="fill: #648fff"/>
    <path d="M 311.248137 368.582684 
L 325.796318 355.411246 
L 325.783279 357.447188 
L 311.241204 370.629119 
z
" clip-path="url(#p99a836c8ce)" style="fill: #648fff"/>
    <path d="M 204.610943 372.147469 
L 229.98803 379.880271 
L 231.02678 456.302263 
L 206.048618 448.347906 
z
" clip-path="url(#p99a836c8ce)" style="fill: #324880"/>
    <path d="M 285.670336 360.952817 
L 311.248137 368.582684 
L 311.241204 370.629119 
L 285.674302 362.993185 
z
" clip-path="url(#p99a836c8ce)" style="fill: #324880"/>
    <path d="M 204.610943 372.147469 
L 220.029317 358.920183 
L 245.27611 366.531434 
L 229.98803 379.880271 
z
" clip-path="url(#p99a836c8ce)" style="fill: #3f599f"/>
    <path d="M 270.754513 374.21251 
L 270.867024 396.431197 
L 296.460911 404.24884 
L 296.467727 381.964375 
z
" clip-path="url(#p99a836c8ce)" style="fill: #648fff"/>
    <path d="M 255.784065 410.017369 
L 281.513169 417.960427 
L 296.460911 404.24884 
L 270.867024 396.431197 
z
" clip-path="url(#p99a836c8ce)" style="fill: #577ddf"/>
    <path d="M 255.599787 387.68458 
L 255.784065 410.017369 
L 270.867024 396.431197 
L 270.754513 374.21251 
z
" clip-path="url(#p99a836c8ce)" style="fill: #324880"/>
    <path d="M 281.449483 395.561392 
L 296.467727 381.964375 
L 296.460911 404.24884 
L 281.513169 417.960427 
z
" clip-path="url(#p99a836c8ce)" style="fill: #648fff"/>
    <path d="M 255.599787 387.68458 
L 270.754513 374.21251 
L 296.467727 381.964375 
L 281.449483 395.561392 
z
" clip-path="url(#p99a836c8ce)" style="fill: #3f599f"/>
    <path d="M 255.599787 387.68458 
L 281.449483 395.561392 
L 281.513169 417.960427 
L 255.784065 410.017369 
z
" clip-path="url(#p99a836c8ce)" style="fill: #324880"/>
   </g>
   <g id="Poly3DCollection_2">
    <path d="M 134.215471 359.663604 
L 339.715393 422.621198 
L 451.624501 316.404058 
L 254.475589 260.813112 
z
" clip-path="url(#p99a836c8ce)" style="fill-opacity: 0.25"/>
   </g>
   <g id="Poly3DCollection_3">
    <path d="M 245.038431 281.88375 
L 259.333368 270.034484 
L 283.397979 276.854019 
L 269.222283 288.806305 
z
" clip-path="url(#p99a836c8ce)" style="fill: #3f599f"/>
    <path d="M 259.333368 270.034484 
L 258.948022 217.175285 
L 283.272043 223.837903 
L 283.397979 276.854019 
z
" clip-path="url(#p99a836c8ce)" style="fill: #324880"/>
    <path d="M 245.038431 281.88375 
L 244.494567 228.752299 
L 258.948022 217.175285 
L 259.333368 270.034484 
z
" clip-path="url(#p99a836c8ce)" style="fill: #648fff"/>
    <path d="M 307.671481 283.732749 
L 307.684043 278.893124 
L 332.193612 285.817619 
L 332.156604 290.671451 
z
" clip-path="url(#p99a836c8ce)" style="fill: #324880"/>
    <path d="M 293.61765 295.789406 
L 293.616263 290.925135 
L 307.684043 278.893124 
L 307.671481 283.732749 
z
" clip-path="url(#p99a836c8ce)" style="fill: #648fff"/>
    <path d="M 269.222283 288.806305 
L 283.397979 276.854019 
L 283.272043 223.837903 
L 268.940412 235.516669 
z
" clip-path="url(#p99a836c8ce)" style="fill: #324880"/>
    <path d="M 293.61765 295.789406 
L 307.671481 283.732749 
L 332.156604 290.671451 
L 318.227319 302.833851 
z
" clip-path="url(#p99a836c8ce)" style="fill: #3f599f"/>
    <path d="M 245.038431 281.88375 
L 269.222283 288.806305 
L 268.940412 235.516669 
L 244.494567 228.752299 
z
" clip-path="url(#p99a836c8ce)" style="fill: #648fff"/>
    <path d="M 293.616263 290.925135 
L 318.250628 297.955264 
L 332.193612 285.817619 
L 307.684043 278.893124 
z
" clip-path="url(#p99a836c8ce)" style="fill: #577ddf"/>
    <path d="M 244.494567 228.752299 
L 268.940412 235.516669 
L 283.272043 223.837903 
L 258.948022 217.175285 
z
" clip-path="url(#p99a836c8ce)" style="fill: #577ddf"/>
    <path d="M 318.227319 302.833851 
L 332.156604 290.671451 
L 332.193612 285.817619 
L 318.250628 297.955264 
z
" clip-path="url(#p99a836c8ce)" style="fill: #324880"/>
    <path d="M 293.61765 295.789406 
L 318.227319 302.833851 
L 318.250628 297.955264 
L 293.616263 290.925135 
z
" clip-path="url(#p99a836c8ce)" style="fill: #648fff"/>
    <path d="M 393.370759 324.343436 
L 406.909749 311.855323 
L 432.269651 319.041922 
L 418.86651 331.641519 
z
" clip-path="url(#p99a836c8ce)" style="fill: #3f599f"/>
    <path d="M 329.039573 322.398944 
L 329.129948 309.544393 
L 354.375486 316.786925 
L 354.217549 329.679611 
z
" clip-path="url(#p99a836c8ce)" style="fill: #324880"/>
    <path d="M 406.909749 311.855323 
L 408.696891 234.376756 
L 434.471679 241.329399 
L 432.269651 319.041922 
z
" clip-path="url(#p99a836c8ce)" style="fill: #324880"/>
    <path d="M 314.807519 335.050788 
L 314.860511 322.130079 
L 329.129948 309.544393 
L 329.039573 322.398944 
z
" clip-path="url(#p99a836c8ce)" style="fill: #648fff"/>
    <path d="M 393.370759 324.343436 
L 394.953985 246.458956 
L 408.696891 234.376756 
L 406.909749 311.855323 
z
" clip-path="url(#p99a836c8ce)" style="fill: #648fff"/>
    <path d="M 314.807519 335.050788 
L 329.039573 322.398944 
L 354.217549 329.679611 
L 340.117701 342.445143 
z
" clip-path="url(#p99a836c8ce)" style="fill: #3f599f"/>
    <path d="M 314.860511 322.130079 
L 340.23897 329.486008 
L 354.375486 316.786925 
L 329.129948 309.544393 
z
" clip-path="url(#p99a836c8ce)" style="fill: #577ddf"/>
    <path d="M 340.117701 342.445143 
L 354.217549 329.679611 
L 354.375486 316.786925 
L 340.23897 329.486008 
z
" clip-path="url(#p99a836c8ce)" style="fill: #324880"/>
    <path d="M 418.86651 331.641519 
L 432.269651 319.041922 
L 434.471679 241.329399 
L 420.869157 253.5212 
z
" clip-path="url(#p99a836c8ce)" style="fill: #324880"/>
    <path d="M 314.807519 335.050788 
L 340.117701 342.445143 
L 340.23897 329.486008 
L 314.860511 322.130079 
z
" clip-path="url(#p99a836c8ce)" style="fill: #648fff"/>
    <path d="M 393.370759 324.343436 
L 418.86651 331.641519 
L 420.869157 253.5212 
L 394.953985 246.458956 
z
" clip-path="url(#p99a836c8ce)" style="fill: #648fff"/>
    <path d="M 235.206825 345.899534 
L 250.149066 333.080718 
L 275.138134 340.457312 
L 260.324277 353.392079 
z
" clip-path="url(#p99a836c8ce)" style="fill: #3f599f"/>
    <path d="M 394.953985 246.458956 
L 420.869157 253.5212 
L 434.471679 241.329399 
L 408.696891 234.376756 
z
" clip-path="url(#p99a836c8ce)" style="fill: #577ddf"/>
    <path d="M 250.149066 333.080718 
L 249.511554 264.432427 
L 274.854487 271.601367 
L 275.138134 340.457312 
z
" clip-path="url(#p99a836c8ce)" style="fill: #324880"/>
    <path d="M 235.206825 345.899534 
L 234.350216 276.890975 
L 249.511554 264.432427 
L 250.149066 333.080718 
z
" clip-path="url(#p99a836c8ce)" style="fill: #648fff"/>
    <path d="M 154.54799 356.892493 
L 170.21804 343.903378 
L 195.01099 351.377808 
L 179.465313 364.485197 
z
" clip-path="url(#p99a836c8ce)" style="fill: #3f599f"/>
    <path d="M 260.324277 353.392079 
L 275.138134 340.457312 
L 274.854487 271.601367 
L 259.82519 284.174227 
z
" clip-path="url(#p99a836c8ce)" style="fill: #324880"/>
    <path d="M 235.206825 345.899534 
L 260.324277 353.392079 
L 259.82519 284.174227 
L 234.350216 276.890975 
z
" clip-path="url(#p99a836c8ce)" style="fill: #648fff"/>
    <path d="M 234.350216 276.890975 
L 259.82519 284.174227 
L 274.854487 271.601367 
L 249.511554 264.432427 
z
" clip-path="url(#p99a836c8ce)" style="fill: #577ddf"/>
    <path d="M 351.471632 362.990415 
L 351.530427 357.99209 
L 377.468153 365.62574 
L 377.381985 370.638966 
z
" clip-path="url(#p99a836c8ce)" style="fill: #324880"/>
    <path d="M 337.060872 376.282633 
L 337.105011 371.258457 
L 351.530427 357.99209 
L 351.471632 362.990415 
z
" clip-path="url(#p99a836c8ce)" style="fill: #648fff"/>
    <path d="M 170.21804 343.903378 
L 166.695621 207.86499 
L 192.175277 214.918404 
L 195.01099 351.377808 
z
" clip-path="url(#p99a836c8ce)" style="fill: #324880"/>
    <path d="M 337.060872 376.282633 
L 351.471632 362.990415 
L 377.381985 370.638966 
L 363.111794 384.053632 
z
" clip-path="url(#p99a836c8ce)" style="fill: #3f599f"/>
    <path d="M 154.54799 356.892493 
L 150.551185 220.123617 
L 166.695621 207.86499 
L 170.21804 343.903378 
z
" clip-path="url(#p99a836c8ce)" style="fill: #648fff"/>
    <path d="M 337.105011 371.258457 
L 363.183605 379.014446 
L 377.468153 365.62574 
L 351.530427 357.99209 
z
" clip-path="url(#p99a836c8ce)" style="fill: #577ddf"/>
    <path d="M 363.111794 384.053632 
L 377.381985 370.638966 
L 377.468153 365.62574 
L 363.183605 379.014446 
z
" clip-path="url(#p99a836c8ce)" style="fill: #324880"/>
    <path d="M 337.060872 376.282633 
L 363.111794 384.053632 
L 363.183605 379.014446 
L 337.105011 371.258457 
z
" clip-path="url(#p99a836c8ce)" style="fill: #648fff"/>
    <path d="M 179.465313 364.485197 
L 195.01099 351.377808 
L 192.175277 214.918404 
L 176.162124 227.291839 
z
" clip-path="url(#p99a836c8ce)" style="fill: #324880"/>
    <path d="M 154.54799 356.892493 
L 179.465313 364.485197 
L 176.162124 227.291839 
L 150.551185 220.123617 
z
" clip-path="url(#p99a836c8ce)" style="fill: #648fff"/>
    <path d="M 307.540449 403.511724 
L 322.419012 389.788013 
L 348.611692 397.684424 
L 333.876079 411.536608 
z
" clip-path="url(#p99a836c8ce)" style="fill: #3f599f"/>
    <path d="M 150.551185 220.123617 
L 176.162124 227.291839 
L 192.175277 214.918404 
L 166.695621 207.86499 
z
" clip-path="url(#p99a836c8ce)" style="fill: #577ddf"/>
    <path d="M 322.419012 389.788013 
L 322.737881 334.263821 
L 349.238162 341.991258 
L 348.611692 397.684424 
z
" clip-path="url(#p99a836c8ce)" style="fill: #324880"/>
    <path d="M 307.540449 403.511724 
L 307.687446 347.694397 
L 322.737881 334.263821 
L 322.419012 389.788013 
z
" clip-path="url(#p99a836c8ce)" style="fill: #648fff"/>
    <path d="M 333.876079 411.536608 
L 348.611692 397.684424 
L 349.238162 341.991258 
L 334.334074 355.549042 
z
" clip-path="url(#p99a836c8ce)" style="fill: #324880"/>
    <path d="M 307.540449 403.511724 
L 333.876079 411.536608 
L 334.334074 355.549042 
L 307.687446 347.694397 
z
" clip-path="url(#p99a836c8ce)" style="fill: #648fff"/>
    <path d="M 307.687446 347.694397 
L 334.334074 355.549042 
L 349.238162 341.991258 
L 322.737881 334.263821 
z
" clip-path="url(#p99a836c8ce)" style="fill: #577ddf"/>
   </g>
   <g id="text_16">
    <!-- Real Amplitude (ρ) -->
    <g transform="translate(190.023516 51.6) scale(0.21 -0.21)">
     <defs>
      <path id="DejaVuSans-52" d="M 2841 2188 
Q 3044 2119 3236 1894 
Q 3428 1669 3622 1275 
L 4263 0 
L 3584 0 
L 2988 1197 
Q 2756 1666 2539 1819 
Q 2322 1972 1947 1972 
L 1259 1972 
L 1259 0 
L 628 0 
L 628 4666 
L 2053 4666 
Q 2853 4666 3247 4331 
Q 3641 3997 3641 3322 
Q 3641 2881 3436 2590 
Q 3231 2300 2841 2188 
z
M 1259 4147 
L 1259 2491 
L 2053 2491 
Q 2509 2491 2742 2702 
Q 2975 2913 2975 3322 
Q 2975 3731 2742 3939 
Q 2509 4147 2053 4147 
L 1259 4147 
z
" transform="scale(0.015625)"/>
      <path id="DejaVuSans-65" d="M 3597 1894 
L 3597 1613 
L 953 1613 
Q 991 1019 1311 708 
Q 1631 397 2203 397 
Q 2534 397 2845 478 
Q 3156 559 3463 722 
L 3463 178 
Q 3153 47 2828 -22 
Q 2503 -91 2169 -91 
Q 1331 -91 842 396 
Q 353 884 353 1716 
Q 353 2575 817 3079 
Q 1281 3584 2069 3584 
Q 2775 3584 3186 3129 
Q 3597 2675 3597 1894 
z
M 3022 2063 
Q 3016 2534 2758 2815 
Q 2500 3097 2075 3097 
Q 1594 3097 1305 2825 
Q 1016 2553 972 2059 
L 3022 2063 
z
" transform="scale(0.015625)"/>
      <path id="DejaVuSans-61" d="M 2194 1759 
Q 1497 1759 1228 1600 
Q 959 1441 959 1056 
Q 959 750 1161 570 
Q 1363 391 1709 391 
Q 2188 391 2477 730 
Q 2766 1069 2766 1631 
L 2766 1759 
L 2194 1759 
z
M 3341 1997 
L 3341 0 
L 2766 0 
L 2766 531 
Q 2569 213 2275 61 
Q 1981 -91 1556 -91 
Q 1019 -91 701 211 
Q 384 513 384 1019 
Q 384 1609 779 1909 
Q 1175 2209 1959 2209 
L 2766 2209 
L 2766 2266 
Q 2766 2663 2505 2880 
Q 2244 3097 1772 3097 
Q 1472 3097 1187 3025 
Q 903 2953 641 2809 
L 641 3341 
Q 956 3463 1253 3523 
Q 1550 3584 1831 3584 
Q 2591 3584 2966 3190 
Q 3341 2797 3341 1997 
z
" transform="scale(0.015625)"/>
      <path id="DejaVuSans-6c" d="M 603 4863 
L 1178 4863 
L 1178 0 
L 603 0 
L 603 4863 
z
" transform="scale(0.015625)"/>
      <path id="DejaVuSans-20" transform="scale(0.015625)"/>
      <path id="DejaVuSans-41" d="M 2188 4044 
L 1331 1722 
L 3047 1722 
L 2188 4044 
z
M 1831 4666 
L 2547 4666 
L 4325 0 
L 3669 0 
L 3244 1197 
L 1141 1197 
L 716 0 
L 50 0 
L 1831 4666 
z
" transform="scale(0.015625)"/>
      <path id="DejaVuSans-6d" d="M 3328 2828 
Q 3544 3216 3844 3400 
Q 4144 3584 4550 3584 
Q 5097 3584 5394 3201 
Q 5691 2819 5691 2113 
L 5691 0 
L 5113 0 
L 5113 2094 
Q 5113 2597 4934 2840 
Q 4756 3084 4391 3084 
Q 3944 3084 3684 2787 
Q 3425 2491 3425 1978 
L 3425 0 
L 2847 0 
L 2847 2094 
Q 2847 2600 2669 2842 
Q 2491 3084 2119 3084 
Q 1678 3084 1418 2786 
Q 1159 2488 1159 1978 
L 1159 0 
L 581 0 
L 581 3500 
L 1159 3500 
L 1159 2956 
Q 1356 3278 1631 3431 
Q 1906 3584 2284 3584 
Q 2666 3584 2933 3390 
Q 3200 3197 3328 2828 
z
" transform="scale(0.015625)"/>
      <path id="DejaVuSans-70" d="M 1159 525 
L 1159 -1331 
L 581 -1331 
L 581 3500 
L 1159 3500 
L 1159 2969 
Q 1341 3281 1617 3432 
Q 1894 3584 2278 3584 
Q 2916 3584 3314 3078 
Q 3713 2572 3713 1747 
Q 3713 922 3314 415 
Q 2916 -91 2278 -91 
Q 1894 -91 1617 61 
Q 1341 213 1159 525 
z
M 3116 1747 
Q 3116 2381 2855 2742 
Q 2594 3103 2138 3103 
Q 1681 3103 1420 2742 
Q 1159 2381 1159 1747 
Q 1159 1113 1420 752 
Q 1681 391 2138 391 
Q 2594 391 2855 752 
Q 3116 1113 3116 1747 
z
" transform="scale(0.015625)"/>
      <path id="DejaVuSans-69" d="M 603 3500 
L 1178 3500 
L 1178 0 
L 603 0 
L 603 3500 
z
M 603 4863 
L 1178 4863 
L 1178 4134 
L 603 4134 
L 603 4863 
z
" transform="scale(0.015625)"/>
      <path id="DejaVuSans-74" d="M 1172 4494 
L 1172 3500 
L 2356 3500 
L 2356 3053 
L 1172 3053 
L 1172 1153 
Q 1172 725 1289 603 
Q 1406 481 1766 481 
L 2356 481 
L 2356 0 
L 1766 0 
Q 1100 0 847 248 
Q 594 497 594 1153 
L 594 3053 
L 172 3053 
L 172 3500 
L 594 3500 
L 594 4494 
L 1172 4494 
z
" transform="scale(0.015625)"/>
      <path id="DejaVuSans-75" d="M 544 1381 
L 544 3500 
L 1119 3500 
L 1119 1403 
Q 1119 906 1312 657 
Q 1506 409 1894 409 
Q 2359 409 2629 706 
Q 2900 1003 2900 1516 
L 2900 3500 
L 3475 3500 
L 3475 0 
L 2900 0 
L 2900 538 
Q 2691 219 2414 64 
Q 2138 -91 1772 -91 
Q 1169 -91 856 284 
Q 544 659 544 1381 
z
M 1991 3584 
L 1991 3584 
z
" transform="scale(0.015625)"/>
      <path id="DejaVuSans-64" d="M 2906 2969 
L 2906 4863 
L 3481 4863 
L 3481 0 
L 2906 0 
L 2906 525 
Q 2725 213 2448 61 
Q 2172 -91 1784 -91 
Q 1150 -91 751 415 
Q 353 922 353 1747 
Q 353 2572 751 3078 
Q 1150 3584 1784 3584 
Q 2172 3584 2448 3432 
Q 2725 3281 2906 2969 
z
M 947 1747 
Q 947 1113 1208 752 
Q 1469 391 1925 391 
Q 2381 391 2643 752 
Q 2906 1113 2906 1747 
Q 2906 2381 2643 2742 
Q 2381 3103 1925 3103 
Q 1469 3103 1208 2742 
Q 947 2381 947 1747 
z
" transform="scale(0.015625)"/>
      <path id="DejaVuSans-28" d="M 1984 4856 
Q 1566 4138 1362 3434 
Q 1159 2731 1159 2009 
Q 1159 1288 1364 580 
Q 1569 -128 1984 -844 
L 1484 -844 
Q 1016 -109 783 600 
Q 550 1309 550 2009 
Q 550 2706 781 3412 
Q 1013 4119 1484 4856 
L 1984 4856 
z
" transform="scale(0.015625)"/>
      <path id="DejaVuSans-3c1" d="M 863 2875 
Q 1053 3194 1525 3475 
Q 1709 3584 2278 3584 
Q 2916 3584 3314 3078 
Q 3713 2572 3713 1747 
Q 3713 922 3314 415 
Q 2916 -91 2278 -91 
Q 1894 -91 1617 61 
Q 1341 213 1159 525 
L 1159 -1331 
L 581 -1331 
L 581 1716 
Q 581 2438 863 2875 
z
M 3116 1747 
Q 3116 2381 2855 2742 
Q 2594 3103 2138 3103 
Q 1681 3103 1420 2742 
Q 1159 2381 1159 1747 
Q 1159 1113 1420 752 
Q 1681 391 2138 391 
Q 2594 391 2855 752 
Q 3116 1113 3116 1747 
z
" transform="scale(0.015625)"/>
      <path id="DejaVuSans-29" d="M 513 4856 
L 1013 4856 
Q 1481 4119 1714 3412 
Q 1947 2706 1947 2009 
Q 1947 1309 1714 600 
Q 1481 -109 1013 -844 
L 513 -844 
Q 928 -128 1133 580 
Q 1338 1288 1338 2009 
Q 1338 2731 1133 3434 
Q 928 4138 513 4856 
z
" transform="scale(0.015625)"/>
     </defs>
     <use xlink:href="#DejaVuSans-52"/>
     <use xlink:href="#DejaVuSans-65" x="64.982422"/>
     <use xlink:href="#DejaVuSans-61" x="126.505859"/>
     <use xlink:href="#DejaVuSans-6c" x="187.785156"/>
     <use xlink:href="#DejaVuSans-20" x="215.568359"/>
     <use xlink:href="#DejaVuSans-41" x="247.355469"/>
     <use xlink:href="#DejaVuSans-6d" x="315.763672"/>
     <use xlink:href="#DejaVuSans-70" x="413.175781"/>
     <use xlink:href="#DejaVuSans-6c" x="476.652344"/>
     <use xlink:href="#DejaVuSans-69" x="504.435547"/>
     <use xlink:href="#DejaVuSans-74" x="532.21875"/>
     <use xlink:href="#DejaVuSans-75" x="571.427734"/>
     <use xlink:href="#DejaVuSans-64" x="634.806641"/>
     <use xlink:href="#DejaVuSans-65" x="698.283203"/>
     <use xlink:href="#DejaVuSans-20" x="759.806641"/>
     <use xlink:href="#DejaVuSans-28" x="791.59375"/>
     <use xlink:href="#DejaVuSans-3c1" x="830.607422"/>
     <use xlink:href="#DejaVuSans-29" x="894.083984"/>
    </g>
   </g>
  </g>
  <g id="patch_6">
   <path d="M 604.8 576 
L 1123.2 576 
L 1123.2 57.6 
L 604.8 57.6 
z
" style="fill: #ffffff"/>
  </g>
  <g id="pane3d_4">
   <g id="patch_7">
    <path d="M 706.07018 436.456468 
L 829.494133 330.550231 
L 827.743197 126.70673 
L 698.643358 223.613571 
" style="fill: #f2f2f2; opacity: 0.5; stroke: #f2f2f2; stroke-linejoin: miter"/>
   </g>
  </g>
  <g id="pane3d_5">
   <g id="patch_8">
    <path d="M 829.494133 330.550231 
L 1031.554898 390.069341 
L 1038.583588 181.103065 
L 827.743197 126.70673 
" style="fill: #e6e6e6; opacity: 0.5; stroke: #e6e6e6; stroke-linejoin: miter"/>
   </g>
  </g>
  <g id="pane3d_6">
   <g id="patch_9">
    <path d="M 706.07018 436.456468 
L 916.912731 504.076731 
L 1031.554898 390.069341 
L 829.494133 330.550231 
" style="fill: #ececec; opacity: 0.5; stroke: #ececec; stroke-linejoin: miter"/>
   </g>
  </g>
  <g id="grid3d_4">
   <g id="Line3DCollection_4">
    <path d="M 734.635886 445.617904 
L 856.925726 338.630493 
L 856.328796 134.081748 
" style="fill: none; stroke: #b0b0b0; stroke-width: 0.8"/>
    <path d="M 784.310046 461.549127 
L 904.58611 352.669358 
L 906.022474 146.902603 
" style="fill: none; stroke: #b0b0b0; stroke-width: 0.8"/>
    <path d="M 834.89502 477.772462 
L 953.066152 366.949661 
L 956.607663 159.953465 
" style="fill: none; stroke: #b0b0b0; stroke-width: 0.8"/>
    <path d="M 886.41609 494.296016 
L 1002.38718 381.477685 
L 1008.108569 173.24058 
" style="fill: none; stroke: #b0b0b0; stroke-width: 0.8"/>
   </g>
  </g>
  <g id="grid3d_5">
   <g id="Line3DCollection_5">
    <path d="M 717.757365 209.265931 
L 724.301379 420.812846 
L 933.880707 487.202708 
" style="fill: none; stroke: #b0b0b0; stroke-width: 0.8"/>
    <path d="M 749.704273 185.285468 
L 754.805664 394.638072 
L 962.24502 458.995448 
" style="fill: none; stroke: #b0b0b0; stroke-width: 0.8"/>
    <path d="M 780.65707 162.051218 
L 784.400054 369.24405 
L 989.731787 431.660877 
" style="fill: none; stroke: #b0b0b0; stroke-width: 0.8"/>
    <path d="M 810.661448 139.528886 
L 813.124663 344.596362 
L 1016.38111 405.159111 
" style="fill: none; stroke: #b0b0b0; stroke-width: 0.8"/>
   </g>
  </g>
  <g id="grid3d_6">
   <g id="Line3DCollection_6">
    <path d="M 1032.40735 364.725536 
L 829.28149 305.794397 
L 705.170388 410.66963 
" style="fill: none; stroke: #b0b0b0; stroke-width: 0.8"/>
    <path d="M 1033.320001 337.591978 
L 829.053918 279.300541 
L 704.206765 383.05346 
" style="fill: none; stroke: #b0b0b0; stroke-width: 0.8"/>
    <path d="M 1034.243033 310.149821 
L 828.82385 252.516093 
L 703.231878 355.114473 
" style="fill: none; stroke: #b0b0b0; stroke-width: 0.8"/>
    <path d="M 1035.176622 282.393769 
L 828.591245 225.436246 
L 702.245527 326.846977 
" style="fill: none; stroke: #b0b0b0; stroke-width: 0.8"/>
    <path d="M 1036.120951 254.318406 
L 828.35606 198.056085 
L 701.247511 298.245142 
" style="fill: none; stroke: #b0b0b0; stroke-width: 0.8"/>
    <path d="M 1037.076208 225.91819 
L 828.118252 170.370588 
L 700.23762 269.303002 
" style="fill: none; stroke: #b0b0b0; stroke-width: 0.8"/>
    <path d="M 1038.042581 197.187449 
L 827.877778 142.374617 
L 699.215641 240.014448 
" style="fill: none; stroke: #b0b0b0; stroke-width: 0.8"/>
   </g>
  </g>
  <g id="axis3d_4">
   <g id="line2d_19">
    <path d="M 706.07018 436.456468 
L 916.912731 504.076731 
" style="fill: none; stroke: #000000; stroke-width: 0.8; stroke-linecap: square"/>
   </g>
   <g id="xtick_16">
    <g id="line2d_20">
     <path d="M 735.677227 444.706868 
L 732.549953 447.442819 
" style="fill: none; stroke: #000000; stroke-width: 0.8; stroke-linecap: square"/>
    </g>
    <g id="text_17">
     <!-- 00 -->
     <g transform="translate(707.351686 489.365693) rotate(-45) scale(0.21 -0.21)">
      <use xlink:href="#DejaVuSans-30"/>
      <use xlink:href="#DejaVuSans-30" x="63.623047"/>
     </g>
    </g>
   </g>
   <g id="xtick_17">
    <g id="line2d_21">
     <path d="M 785.334802 460.621468 
L 782.257306 463.407368 
" style="fill: none; stroke: #000000; stroke-width: 0.8; stroke-linecap: square"/>
    </g>
    <g id="text_18">
     <!-- 01 -->
     <g transform="translate(757.023931 505.435143) rotate(-45) scale(0.21 -0.21)">
      <use xlink:href="#DejaVuSans-30"/>
      <use xlink:href="#DejaVuSans-31" x="63.623047"/>
     </g>
    </g>
   </g>
   <g id="xtick_18">
    <g id="line2d_22">
     <path d="M 835.902405 476.82772 
L 832.877048 479.664949 
" style="fill: none; stroke: #000000; stroke-width: 0.8; stroke-linecap: square"/>
    </g>
    <g id="text_19">
     <!-- 10 -->
     <g transform="translate(807.60781 521.799516) rotate(-45) scale(0.21 -0.21)">
      <use xlink:href="#DejaVuSans-31"/>
      <use xlink:href="#DejaVuSans-30" x="63.623047"/>
     </g>
    </g>
   </g>
   <g id="xtick_19">
    <g id="line2d_23">
     <path d="M 887.405283 493.333715 
L 884.434531 496.223705 
" style="fill: none; stroke: #000000; stroke-width: 0.8; stroke-linecap: square"/>
    </g>
    <g id="text_20">
     <!-- 11 -->
     <g transform="translate(859.128654 538.467006) rotate(-45) scale(0.21 -0.21)">
      <use xlink:href="#DejaVuSans-31"/>
      <use xlink:href="#DejaVuSans-31" x="63.623047"/>
     </g>
    </g>
   </g>
  </g>
  <g id="axis3d_5">
   <g id="line2d_24">
    <path d="M 1031.554898 390.069341 
L 916.912731 504.076731 
" style="fill: none; stroke: #000000; stroke-width: 0.8; stroke-linecap: square"/>
   </g>
   <g id="xtick_20">
    <g id="line2d_25">
     <path d="M 932.140222 486.651363 
L 937.364886 488.306415 
" style="fill: none; stroke: #000000; stroke-width: 0.8; stroke-linecap: square"/>
    </g>
    <g id="text_21">
     <!-- 00 -->
     <g transform="translate(944.70027 499.207917) rotate(-337.5) scale(0.21 -0.21)">
      <use xlink:href="#DejaVuSans-30"/>
      <use xlink:href="#DejaVuSans-30" x="63.623047"/>
     </g>
    </g>
   </g>
   <g id="xtick_21">
    <g id="line2d_26">
     <path d="M 960.5233 458.46129 
L 965.691587 460.064734 
" style="fill: none; stroke: #000000; stroke-width: 0.8; stroke-linecap: square"/>
    </g>
    <g id="text_22">
     <!-- 01 -->
     <g transform="translate(972.913817 470.822876) rotate(-337.5) scale(0.21 -0.21)">
      <use xlink:href="#DejaVuSans-30"/>
      <use xlink:href="#DejaVuSans-31" x="63.623047"/>
     </g>
    </g>
   </g>
   <g id="xtick_22">
    <g id="line2d_27">
     <path d="M 988.028511 431.143114 
L 993.141381 432.697327 
" style="fill: none; stroke: #000000; stroke-width: 0.8; stroke-linecap: square"/>
    </g>
    <g id="text_23">
     <!-- 10 -->
     <g transform="translate(1000.254695 443.315808) rotate(-337.5) scale(0.21 -0.21)">
      <use xlink:href="#DejaVuSans-31"/>
      <use xlink:href="#DejaVuSans-30" x="63.623047"/>
     </g>
    </g>
   </g>
   <g id="xtick_23">
    <g id="line2d_28">
     <path d="M 1014.695964 404.657001 
L 1019.754368 406.164215 
" style="fill: none; stroke: #000000; stroke-width: 0.8; stroke-linecap: square"/>
    </g>
    <g id="text_24">
     <!-- 11 -->
     <g transform="translate(1026.762776 416.646599) rotate(-337.5) scale(0.21 -0.21)">
      <use xlink:href="#DejaVuSans-31"/>
      <use xlink:href="#DejaVuSans-31" x="63.623047"/>
     </g>
    </g>
   </g>
  </g>
  <g id="axis3d_6">
   <g id="line2d_29">
    <path d="M 1031.554898 390.069341 
L 1038.583588 181.103065 
" style="fill: none; stroke: #000000; stroke-width: 0.8; stroke-linecap: square"/>
   </g>
   <g id="xtick_24">
    <g id="line2d_30">
     <path d="M 1030.723496 364.237014 
L 1035.778012 365.703437 
" style="fill: none; stroke: #000000; stroke-width: 0.8; stroke-linecap: square"/>
    </g>
    <g id="text_25">
     <!-- −0.2 -->
     <g transform="translate(1045.957208 358.455791) scale(0.21 -0.21)">
      <use xlink:href="#DejaVuSans-2212"/>
      <use xlink:href="#DejaVuSans-30" x="83.789062"/>
      <use xlink:href="#DejaVuSans-2e" x="147.412109"/>
      <use xlink:href="#DejaVuSans-32" x="179.199219"/>
     </g>
    </g>
   </g>
   <g id="xtick_25">
    <g id="line2d_31">
     <path d="M 1031.62636 337.108664 
L 1036.71027 338.55946 
" style="fill: none; stroke: #000000; stroke-width: 0.8; stroke-linecap: square"/>
    </g>
    <g id="text_26">
     <!-- −0.1 -->
     <g transform="translate(1046.945346 331.342522) scale(0.21 -0.21)">
      <use xlink:href="#DejaVuSans-2212"/>
      <use xlink:href="#DejaVuSans-30" x="83.789062"/>
      <use xlink:href="#DejaVuSans-2e" x="147.412109"/>
      <use xlink:href="#DejaVuSans-31" x="179.199219"/>
     </g>
    </g>
   </g>
   <g id="xtick_26">
    <g id="line2d_32">
     <path d="M 1032.539491 309.671865 
L 1037.653138 311.106582 
" style="fill: none; stroke: #000000; stroke-width: 0.8; stroke-linecap: square"/>
    </g>
    <g id="text_27">
     <!-- 0.0 -->
     <g transform="translate(1047.94471 303.921238) scale(0.21 -0.21)">
      <use xlink:href="#DejaVuSans-30"/>
      <use xlink:href="#DejaVuSans-2e" x="63.623047"/>
      <use xlink:href="#DejaVuSans-30" x="95.410156"/>
     </g>
    </g>
   </g>
   <g id="xtick_27">
    <g id="line2d_33">
     <path d="M 1033.463063 281.921325 
L 1038.606797 283.339501 
" style="fill: none; stroke: #000000; stroke-width: 0.8; stroke-linecap: square"/>
    </g>
    <g id="text_28">
     <!-- 0.1 -->
     <g transform="translate(1048.955491 276.186661) scale(0.21 -0.21)">
      <use xlink:href="#DejaVuSans-30"/>
      <use xlink:href="#DejaVuSans-2e" x="63.623047"/>
      <use xlink:href="#DejaVuSans-31" x="95.410156"/>
     </g>
    </g>
   </g>
   <g id="xtick_28">
    <g id="line2d_34">
     <path d="M 1034.397256 253.851633 
L 1039.571434 255.25279 
" style="fill: none; stroke: #000000; stroke-width: 0.8; stroke-linecap: square"/>
    </g>
    <g id="text_29">
     <!-- 0.2 -->
     <g transform="translate(1049.977887 248.133391) scale(0.21 -0.21)">
      <use xlink:href="#DejaVuSans-30"/>
      <use xlink:href="#DejaVuSans-2e" x="63.623047"/>
      <use xlink:href="#DejaVuSans-32" x="95.410156"/>
     </g>
    </g>
   </g>
   <g id="xtick_29">
    <g id="line2d_35">
     <path d="M 1035.342256 225.457251 
L 1040.547239 226.840899 
" style="fill: none; stroke: #000000; stroke-width: 0.8; stroke-linecap: square"/>
    </g>
    <g id="text_30">
     <!-- 0.3 -->
     <g transform="translate(1051.012099 219.755903) scale(0.21 -0.21)">
      <use xlink:href="#DejaVuSans-30"/>
      <use xlink:href="#DejaVuSans-2e" x="63.623047"/>
      <use xlink:href="#DejaVuSans-33" x="95.410156"/>
     </g>
    </g>
   </g>
   <g id="xtick_30">
    <g id="line2d_36">
     <path d="M 1036.298251 196.732513 
L 1041.534408 198.098149 
" style="fill: none; stroke: #000000; stroke-width: 0.8; stroke-linecap: square"/>
    </g>
    <g id="text_31">
     <!-- 0.4 -->
     <g transform="translate(1052.058334 191.048545) scale(0.21 -0.21)">
      <use xlink:href="#DejaVuSans-30"/>
      <use xlink:href="#DejaVuSans-2e" x="63.623047"/>
      <use xlink:href="#DejaVuSans-34" x="95.410156"/>
     </g>
    </g>
   </g>
  </g>
  <g id="axes_2">
   <g id="Poly3DCollection_4">
    <path d="M 821.791079 355.411799 
L 845.612317 362.544934 
L 859.572276 350.22848 
L 835.866748 343.199915 
z
" clip-path="url(#p0e7ae95e30)" style="fill: #577ddf"/>
    <path d="M 835.294913 264.759416 
L 835.866748 343.199915 
L 859.572276 350.22848 
L 859.385412 271.563513 
z
" clip-path="url(#p0e7ae95e30)" style="fill: #648fff"/>
    <path d="M 820.98416 276.581899 
L 821.791079 355.411799 
L 835.866748 343.199915 
L 835.294913 264.759416 
z
" clip-path="url(#p0e7ae95e30)" style="fill: #324880"/>
    <path d="M 845.194157 283.488897 
L 859.385412 271.563513 
L 859.572276 350.22848 
L 845.612317 362.544934 
z
" clip-path="url(#p0e7ae95e30)" style="fill: #648fff"/>
    <path d="M 820.98416 276.581899 
L 845.194157 283.488897 
L 845.612317 362.544934 
L 821.791079 355.411799 
z
" clip-path="url(#p0e7ae95e30)" style="fill: #324880"/>
    <path d="M 820.98416 276.581899 
L 835.294913 264.759416 
L 859.385412 271.563513 
L 845.194157 283.488897 
z
" clip-path="url(#p0e7ae95e30)" style="fill: #3f599f"/>
    <path d="M 855.332011 302.66983 
L 855.421839 330.527323 
L 880.042217 337.745767 
L 880.094539 309.806635 
z
" clip-path="url(#p0e7ae95e30)" style="fill: #648fff"/>
    <path d="M 841.002212 343.070485 
L 865.747883 350.400113 
L 880.042217 337.745767 
L 855.421839 330.527323 
z
" clip-path="url(#p0e7ae95e30)" style="fill: #577ddf"/>
    <path d="M 840.827933 315.071365 
L 841.002212 343.070485 
L 855.421839 330.527323 
L 855.332011 302.66983 
z
" clip-path="url(#p0e7ae95e30)" style="fill: #324880"/>
    <path d="M 762.720383 378.610971 
L 787.151028 386.10834 
L 802.064757 373.164449 
L 777.754454 365.780958 
z
" clip-path="url(#p0e7ae95e30)" style="fill: #577ddf"/>
    <path d="M 776.731258 313.140369 
L 777.754454 365.780958 
L 802.064757 373.164449 
L 801.304932 320.370471 
z
" clip-path="url(#p0e7ae95e30)" style="fill: #648fff"/>
    <path d="M 983.033586 306.486584 
L 983.033586 306.486584 
L 1008.422227 313.657327 
L 1008.422227 313.657327 
z
" clip-path="url(#p0e7ae95e30)" style="fill: #648fff"/>
    <path d="M 761.523017 325.704291 
L 762.720383 378.610971 
L 777.754454 365.780958 
L 776.731258 313.140369 
z
" clip-path="url(#p0e7ae95e30)" style="fill: #324880"/>
    <path d="M 865.717208 322.318739 
L 880.094539 309.806635 
L 880.042217 337.745767 
L 865.747883 350.400113 
z
" clip-path="url(#p0e7ae95e30)" style="fill: #648fff"/>
    <path d="M 840.827933 315.071365 
L 855.332011 302.66983 
L 880.094539 309.806635 
L 865.717208 322.318739 
z
" clip-path="url(#p0e7ae95e30)" style="fill: #3f599f"/>
    <path d="M 969.480453 318.947189 
L 969.480453 318.947189 
L 983.033586 306.486584 
L 983.033586 306.486584 
z
" clip-path="url(#p0e7ae95e30)" style="fill: #324880"/>
    <path d="M 840.827933 315.071365 
L 865.717208 322.318739 
L 865.747883 350.400113 
L 841.002212 343.070485 
z
" clip-path="url(#p0e7ae95e30)" style="fill: #324880"/>
    <path d="M 969.480453 318.947189 
L 983.033586 306.486584 
L 1008.422227 313.657327 
L 995.005255 326.229294 
z
" clip-path="url(#p0e7ae95e30)" style="fill: #3f599f"/>
    <path d="M 969.480453 318.947189 
L 995.005255 326.229294 
L 1008.422227 313.657327 
L 983.033586 306.486584 
z
" clip-path="url(#p0e7ae95e30)" style="fill: #577ddf"/>
    <path d="M 786.219637 333.047146 
L 801.304932 320.370471 
L 802.064757 373.164449 
L 787.151028 386.10834 
z
" clip-path="url(#p0e7ae95e30)" style="fill: #648fff"/>
    <path d="M 995.005255 326.229294 
L 1008.422227 313.657327 
L 1008.422227 313.657327 
L 995.005255 326.229294 
z
" clip-path="url(#p0e7ae95e30)" style="fill: #648fff"/>
    <path d="M 761.523017 325.704291 
L 786.219637 333.047146 
L 787.151028 386.10834 
L 762.720383 378.610971 
z
" clip-path="url(#p0e7ae95e30)" style="fill: #324880"/>
    <path d="M 969.480453 318.947189 
L 995.005255 326.229294 
L 995.005255 326.229294 
L 969.480453 318.947189 
z
" clip-path="url(#p0e7ae95e30)" style="fill: #324880"/>
    <path d="M 761.523017 325.704291 
L 776.731258 313.140369 
L 801.304932 320.370471 
L 786.219637 333.047146 
z
" clip-path="url(#p0e7ae95e30)" style="fill: #3f599f"/>
    <path d="M 826.098775 327.665351 
L 826.098775 327.665351 
L 851.115759 335.025884 
L 851.115759 335.025884 
z
" clip-path="url(#p0e7ae95e30)" style="fill: #648fff"/>
    <path d="M 811.139258 340.456303 
L 811.139258 340.456303 
L 826.098775 327.665351 
L 826.098775 327.665351 
z
" clip-path="url(#p0e7ae95e30)" style="fill: #324880"/>
    <path d="M 955.716492 331.601628 
L 955.716492 331.601628 
L 981.37863 338.997709 
L 981.37863 338.997709 
z
" clip-path="url(#p0e7ae95e30)" style="fill: #648fff"/>
    <path d="M 811.139258 340.456303 
L 826.098775 327.665351 
L 851.115759 335.025884 
L 836.284913 347.932666 
z
" clip-path="url(#p0e7ae95e30)" style="fill: #3f599f"/>
    <path d="M 811.139258 340.456303 
L 836.284913 347.932666 
L 851.115759 335.025884 
L 826.098775 327.665351 
z
" clip-path="url(#p0e7ae95e30)" style="fill: #577ddf"/>
    <path d="M 941.736743 344.454459 
L 941.736743 344.454459 
L 955.716492 331.601628 
L 955.716492 331.601628 
z
" clip-path="url(#p0e7ae95e30)" style="fill: #324880"/>
    <path d="M 836.284913 347.932666 
L 851.115759 335.025884 
L 851.115759 335.025884 
L 836.284913 347.932666 
z
" clip-path="url(#p0e7ae95e30)" style="fill: #648fff"/>
    <path d="M 941.736743 344.454459 
L 955.716492 331.601628 
L 981.37863 338.997709 
L 967.537401 351.967213 
z
" clip-path="url(#p0e7ae95e30)" style="fill: #3f599f"/>
    <path d="M 941.736743 344.454459 
L 967.537401 351.967213 
L 981.37863 338.997709 
L 955.716492 331.601628 
z
" clip-path="url(#p0e7ae95e30)" style="fill: #577ddf"/>
    <path d="M 746.077211 338.464472 
L 746.077211 338.464472 
L 770.89763 345.922738 
L 770.89763 345.922738 
z
" clip-path="url(#p0e7ae95e30)" style="fill: #648fff"/>
    <path d="M 912.499928 440.132549 
L 938.199242 448.090066 
L 952.286863 434.352812 
L 926.724339 426.519026 
z
" clip-path="url(#p0e7ae95e30)" style="fill: #577ddf"/>
    <path d="M 811.139258 340.456303 
L 836.284913 347.932666 
L 836.284913 347.932666 
L 811.139258 340.456303 
z
" clip-path="url(#p0e7ae95e30)" style="fill: #324880"/>
    <path d="M 730.38823 351.425546 
L 730.38823 351.425546 
L 746.077211 338.464472 
L 746.077211 338.464472 
z
" clip-path="url(#p0e7ae95e30)" style="fill: #324880"/>
    <path d="M 967.537401 351.967213 
L 981.37863 338.997709 
L 981.37863 338.997709 
L 967.537401 351.967213 
z
" clip-path="url(#p0e7ae95e30)" style="fill: #648fff"/>
    <path d="M 941.736743 344.454459 
L 967.537401 351.967213 
L 967.537401 351.967213 
L 941.736743 344.454459 
z
" clip-path="url(#p0e7ae95e30)" style="fill: #324880"/>
    <path d="M 730.38823 351.425546 
L 746.077211 338.464472 
L 770.89763 345.922738 
L 755.333294 359.001966 
z
" clip-path="url(#p0e7ae95e30)" style="fill: #3f599f"/>
    <path d="M 730.38823 351.425546 
L 755.333294 359.001966 
L 770.89763 345.922738 
L 746.077211 338.464472 
z
" clip-path="url(#p0e7ae95e30)" style="fill: #577ddf"/>
    <path d="M 927.536094 357.510384 
L 926.724339 426.519026 
L 952.286863 434.352812 
L 953.476457 365.142595 
z
" clip-path="url(#p0e7ae95e30)" style="fill: #648fff"/>
    <path d="M 913.109265 370.774255 
L 912.499928 440.132549 
L 926.724339 426.519026 
L 927.536094 357.510384 
z
" clip-path="url(#p0e7ae95e30)" style="fill: #324880"/>
    <path d="M 755.333294 359.001966 
L 770.89763 345.922738 
L 770.89763 345.922738 
L 755.333294 359.001966 
z
" clip-path="url(#p0e7ae95e30)" style="fill: #648fff"/>
    <path d="M 730.38823 351.425546 
L 755.333294 359.001966 
L 755.333294 359.001966 
L 730.38823 351.425546 
z
" clip-path="url(#p0e7ae95e30)" style="fill: #324880"/>
    <path d="M 939.190525 378.528794 
L 953.476457 365.142595 
L 952.286863 434.352812 
L 938.199242 448.090066 
z
" clip-path="url(#p0e7ae95e30)" style="fill: #648fff"/>
    <path d="M 913.109265 370.774255 
L 939.190525 378.528794 
L 938.199242 448.090066 
L 912.499928 440.132549 
z
" clip-path="url(#p0e7ae95e30)" style="fill: #324880"/>
    <path d="M 846.726642 368.708531 
L 846.897762 402.501374 
L 872.459049 410.336822 
L 872.469415 376.443955 
z
" clip-path="url(#p0e7ae95e30)" style="fill: #648fff"/>
    <path d="M 831.834407 416.11843 
L 857.530567 424.079417 
L 872.459049 410.336822 
L 846.897762 402.501374 
z
" clip-path="url(#p0e7ae95e30)" style="fill: #577ddf"/>
    <path d="M 913.109265 370.774255 
L 927.536094 357.510384 
L 953.476457 365.142595 
L 939.190525 378.528794 
z
" clip-path="url(#p0e7ae95e30)" style="fill: #3f599f"/>
    <path d="M 831.554136 382.152079 
L 831.834407 416.11843 
L 846.897762 402.501374 
L 846.726642 368.708531 
z
" clip-path="url(#p0e7ae95e30)" style="fill: #324880"/>
    <path d="M 857.433705 390.012331 
L 872.469415 376.443955 
L 872.459049 410.336822 
L 857.530567 424.079417 
z
" clip-path="url(#p0e7ae95e30)" style="fill: #648fff"/>
    <path d="M 831.554136 382.152079 
L 846.726642 368.708531 
L 872.469415 376.443955 
L 857.433705 390.012331 
z
" clip-path="url(#p0e7ae95e30)" style="fill: #3f599f"/>
    <path d="M 831.554136 382.152079 
L 857.433705 390.012331 
L 857.530567 424.079417 
L 831.834407 416.11843 
z
" clip-path="url(#p0e7ae95e30)" style="fill: #324880"/>
   </g>
   <g id="Poly3DCollection_5">
    <path d="M 710.032278 354.190705 
L 915.768258 417.015887 
L 1027.798308 311.025275 
L 830.432152 255.559019 
z
" clip-path="url(#p0e7ae95e30)" style="fill-opacity: 0.25"/>
   </g>
   <g id="Poly3DCollection_6">
    <path d="M 869.616129 290.45637 
L 883.685254 278.426737 
L 908.197179 285.349862 
L 894.252874 297.485117 
z
" clip-path="url(#p0e7ae95e30)" style="fill: #3f599f"/>
    <path d="M 883.685254 278.426737 
L 883.863688 209.685783 
L 908.722867 216.402545 
L 908.197179 285.349862 
z
" clip-path="url(#p0e7ae95e30)" style="fill: #324880"/>
    <path d="M 869.616129 290.45637 
L 869.596429 221.357369 
L 883.863688 209.685783 
L 883.685254 278.426737 
z
" clip-path="url(#p0e7ae95e30)" style="fill: #648fff"/>
    <path d="M 932.923976 292.333674 
L 932.923976 292.333674 
L 957.868482 299.378976 
L 957.868482 299.378976 
z
" clip-path="url(#p0e7ae95e30)" style="fill: #324880"/>
    <path d="M 806.456635 288.583465 
L 806.017382 255.411273 
L 830.512099 262.324765 
L 830.786994 295.595714 
z
" clip-path="url(#p0e7ae95e30)" style="fill: #324880"/>
    <path d="M 791.707373 300.768213 
L 806.456635 288.583465 
L 830.786994 295.595714 
L 816.158959 307.888139 
z
" clip-path="url(#p0e7ae95e30)" style="fill: #3f599f"/>
    <path d="M 919.107237 304.575949 
L 919.107237 304.575949 
L 932.923976 292.333674 
L 932.923976 292.333674 
z
" clip-path="url(#p0e7ae95e30)" style="fill: #648fff"/>
    <path d="M 791.707373 300.768213 
L 791.163605 267.424682 
L 806.017382 255.411273 
L 806.456635 288.583465 
z
" clip-path="url(#p0e7ae95e30)" style="fill: #648fff"/>
    <path d="M 919.107237 304.575949 
L 944.182114 311.729693 
L 957.868482 299.378976 
L 932.923976 292.333674 
z
" clip-path="url(#p0e7ae95e30)" style="fill: #577ddf"/>
    <path d="M 919.107237 304.575949 
L 932.923976 292.333674 
L 957.868482 299.378976 
L 944.182114 311.729693 
z
" clip-path="url(#p0e7ae95e30)" style="fill: #3f599f"/>
    <path d="M 894.252874 297.485117 
L 908.197179 285.349862 
L 908.722867 216.402545 
L 894.584005 228.178067 
z
" clip-path="url(#p0e7ae95e30)" style="fill: #324880"/>
    <path d="M 869.616129 290.45637 
L 894.252874 297.485117 
L 894.584005 228.178067 
L 869.596429 221.357369 
z
" clip-path="url(#p0e7ae95e30)" style="fill: #648fff"/>
    <path d="M 944.182114 311.729693 
L 957.868482 299.378976 
L 957.868482 299.378976 
L 944.182114 311.729693 
z
" clip-path="url(#p0e7ae95e30)" style="fill: #324880"/>
    <path d="M 816.158959 307.888139 
L 830.786994 295.595714 
L 830.512099 262.324765 
L 815.781186 274.445067 
z
" clip-path="url(#p0e7ae95e30)" style="fill: #324880"/>
    <path d="M 919.107237 304.575949 
L 944.182114 311.729693 
L 944.182114 311.729693 
L 919.107237 304.575949 
z
" clip-path="url(#p0e7ae95e30)" style="fill: #648fff"/>
    <path d="M 791.163605 267.424682 
L 815.781186 274.445067 
L 830.512099 262.324765 
L 806.017382 255.411273 
z
" clip-path="url(#p0e7ae95e30)" style="fill: #577ddf"/>
    <path d="M 791.707373 300.768213 
L 816.158959 307.888139 
L 815.781186 274.445067 
L 791.163605 267.424682 
z
" clip-path="url(#p0e7ae95e30)" style="fill: #648fff"/>
    <path d="M 869.596429 221.357369 
L 894.584005 228.178067 
L 908.722867 216.402545 
L 883.863688 209.685783 
z
" clip-path="url(#p0e7ae95e30)" style="fill: #577ddf"/>
    <path d="M 905.077482 317.006966 
L 905.077482 317.006966 
L 930.283797 324.271674 
L 930.283797 324.271674 
z
" clip-path="url(#p0e7ae95e30)" style="fill: #324880"/>
    <path d="M 890.829747 329.631124 
L 890.829747 329.631124 
L 905.077482 317.006966 
L 905.077482 317.006966 
z
" clip-path="url(#p0e7ae95e30)" style="fill: #324880"/>
    <path d="M 890.829747 329.631124 
L 916.168568 337.009399 
L 930.283797 324.271674 
L 905.077482 317.006966 
z
" clip-path="url(#p0e7ae95e30)" style="fill: #577ddf"/>
    <path d="M 890.829747 329.631124 
L 905.077482 317.006966 
L 930.283797 324.271674 
L 916.168568 337.009399 
z
" clip-path="url(#p0e7ae95e30)" style="fill: #3f599f"/>
    <path d="M 916.168568 337.009399 
L 930.283797 324.271674 
L 930.283797 324.271674 
L 916.168568 337.009399 
z
" clip-path="url(#p0e7ae95e30)" style="fill: #324880"/>
    <path d="M 890.829747 329.631124 
L 916.168568 337.009399 
L 916.168568 337.009399 
L 890.829747 329.631124 
z
" clip-path="url(#p0e7ae95e30)" style="fill: #324880"/>
    <path d="M 876.35891 342.45296 
L 876.39072 313.808657 
L 902.015307 321.217073 
L 901.831309 349.947485 
z
" clip-path="url(#p0e7ae95e30)" style="fill: #324880"/>
    <path d="M 861.659692 355.477153 
L 876.35891 342.45296 
L 901.831309 349.947485 
L 887.266741 363.090698 
z
" clip-path="url(#p0e7ae95e30)" style="fill: #3f599f"/>
    <path d="M 861.659692 355.477153 
L 861.603721 326.683462 
L 876.39072 313.808657 
L 876.35891 342.45296 
z
" clip-path="url(#p0e7ae95e30)" style="fill: #648fff"/>
    <path d="M 887.266741 363.090698 
L 901.831309 349.947485 
L 902.015307 321.217073 
L 887.364578 334.210239 
z
" clip-path="url(#p0e7ae95e30)" style="fill: #324880"/>
    <path d="M 861.603721 326.683462 
L 887.364578 334.210239 
L 902.015307 321.217073 
L 876.39072 313.808657 
z
" clip-path="url(#p0e7ae95e30)" style="fill: #577ddf"/>
    <path d="M 780.507182 366.647885 
L 795.943933 353.44888 
L 821.219219 361.043828 
L 805.913055 374.364263 
z
" clip-path="url(#p0e7ae95e30)" style="fill: #3f599f"/>
    <path d="M 861.659692 355.477153 
L 887.266741 363.090698 
L 887.364578 334.210239 
L 861.603721 326.683462 
z
" clip-path="url(#p0e7ae95e30)" style="fill: #648fff"/>
    <path d="M 795.943933 353.44888 
L 795.090243 298.745613 
L 820.650372 306.174424 
L 821.219219 361.043828 
z
" clip-path="url(#p0e7ae95e30)" style="fill: #324880"/>
    <path d="M 780.507182 366.647885 
L 779.469656 311.656389 
L 795.090243 298.745613 
L 795.943933 353.44888 
z
" clip-path="url(#p0e7ae95e30)" style="fill: #648fff"/>
    <path d="M 805.913055 374.364263 
L 821.219219 361.043828 
L 820.650372 306.174424 
L 805.163319 319.205344 
z
" clip-path="url(#p0e7ae95e30)" style="fill: #324880"/>
    <path d="M 780.507182 366.647885 
L 805.913055 374.364263 
L 805.163319 319.205344 
L 779.469656 311.656389 
z
" clip-path="url(#p0e7ae95e30)" style="fill: #648fff"/>
    <path d="M 779.469656 311.656389 
L 805.163319 319.205344 
L 820.650372 306.174424 
L 795.090243 298.745613 
z
" clip-path="url(#p0e7ae95e30)" style="fill: #577ddf"/>
    <path d="M 883.555106 397.946032 
L 898.45081 384.251082 
L 924.674161 392.130913 
L 909.921745 405.954218 
z
" clip-path="url(#p0e7ae95e30)" style="fill: #3f599f"/>
    <path d="M 898.45081 384.251082 
L 898.939946 299.078565 
L 925.635186 306.695806 
L 924.674161 392.130913 
z
" clip-path="url(#p0e7ae95e30)" style="fill: #324880"/>
    <path d="M 883.555106 397.946032 
L 883.780611 312.31795 
L 898.939946 299.078565 
L 898.45081 384.251082 
z
" clip-path="url(#p0e7ae95e30)" style="fill: #648fff"/>
    <path d="M 909.921745 405.954218 
L 924.674161 392.130913 
L 925.635186 306.695806 
L 910.624372 320.061511 
z
" clip-path="url(#p0e7ae95e30)" style="fill: #324880"/>
    <path d="M 883.555106 397.946032 
L 909.921745 405.954218 
L 910.624372 320.061511 
L 883.780611 312.31795 
z
" clip-path="url(#p0e7ae95e30)" style="fill: #648fff"/>
    <path d="M 883.780611 312.31795 
L 910.624372 320.061511 
L 925.635186 306.695806 
L 898.939946 299.078565 
z
" clip-path="url(#p0e7ae95e30)" style="fill: #577ddf"/>
   </g>
   <g id="text_32">
    <!-- Imaginary Amplitude (ρ) -->
    <g transform="translate(735.696563 51.6) scale(0.21 -0.21)">
     <defs>
      <path id="DejaVuSans-49" d="M 628 4666 
L 1259 4666 
L 1259 0 
L 628 0 
L 628 4666 
z
" transform="scale(0.015625)"/>
      <path id="DejaVuSans-67" d="M 2906 1791 
Q 2906 2416 2648 2759 
Q 2391 3103 1925 3103 
Q 1463 3103 1205 2759 
Q 947 2416 947 1791 
Q 947 1169 1205 825 
Q 1463 481 1925 481 
Q 2391 481 2648 825 
Q 2906 1169 2906 1791 
z
M 3481 434 
Q 3481 -459 3084 -895 
Q 2688 -1331 1869 -1331 
Q 1566 -1331 1297 -1286 
Q 1028 -1241 775 -1147 
L 775 -588 
Q 1028 -725 1275 -790 
Q 1522 -856 1778 -856 
Q 2344 -856 2625 -561 
Q 2906 -266 2906 331 
L 2906 616 
Q 2728 306 2450 153 
Q 2172 0 1784 0 
Q 1141 0 747 490 
Q 353 981 353 1791 
Q 353 2603 747 3093 
Q 1141 3584 1784 3584 
Q 2172 3584 2450 3431 
Q 2728 3278 2906 2969 
L 2906 3500 
L 3481 3500 
L 3481 434 
z
" transform="scale(0.015625)"/>
      <path id="DejaVuSans-6e" d="M 3513 2113 
L 3513 0 
L 2938 0 
L 2938 2094 
Q 2938 2591 2744 2837 
Q 2550 3084 2163 3084 
Q 1697 3084 1428 2787 
Q 1159 2491 1159 1978 
L 1159 0 
L 581 0 
L 581 3500 
L 1159 3500 
L 1159 2956 
Q 1366 3272 1645 3428 
Q 1925 3584 2291 3584 
Q 2894 3584 3203 3211 
Q 3513 2838 3513 2113 
z
" transform="scale(0.015625)"/>
      <path id="DejaVuSans-72" d="M 2631 2963 
Q 2534 3019 2420 3045 
Q 2306 3072 2169 3072 
Q 1681 3072 1420 2755 
Q 1159 2438 1159 1844 
L 1159 0 
L 581 0 
L 581 3500 
L 1159 3500 
L 1159 2956 
Q 1341 3275 1631 3429 
Q 1922 3584 2338 3584 
Q 2397 3584 2469 3576 
Q 2541 3569 2628 3553 
L 2631 2963 
z
" transform="scale(0.015625)"/>
      <path id="DejaVuSans-79" d="M 2059 -325 
Q 1816 -950 1584 -1140 
Q 1353 -1331 966 -1331 
L 506 -1331 
L 506 -850 
L 844 -850 
Q 1081 -850 1212 -737 
Q 1344 -625 1503 -206 
L 1606 56 
L 191 3500 
L 800 3500 
L 1894 763 
L 2988 3500 
L 3597 3500 
L 2059 -325 
z
" transform="scale(0.015625)"/>
     </defs>
     <use xlink:href="#DejaVuSans-49"/>
     <use xlink:href="#DejaVuSans-6d" x="29.492188"/>
     <use xlink:href="#DejaVuSans-61" x="126.904297"/>
     <use xlink:href="#DejaVuSans-67" x="188.183594"/>
     <use xlink:href="#DejaVuSans-69" x="251.660156"/>
     <use xlink:href="#DejaVuSans-6e" x="279.443359"/>
     <use xlink:href="#DejaVuSans-61" x="342.822266"/>
     <use xlink:href="#DejaVuSans-72" x="404.101562"/>
     <use xlink:href="#DejaVuSans-79" x="445.214844"/>
     <use xlink:href="#DejaVuSans-20" x="504.394531"/>
     <use xlink:href="#DejaVuSans-41" x="536.181641"/>
     <use xlink:href="#DejaVuSans-6d" x="604.589844"/>
     <use xlink:href="#DejaVuSans-70" x="702.001953"/>
     <use xlink:href="#DejaVuSans-6c" x="765.478516"/>
     <use xlink:href="#DejaVuSans-69" x="793.261719"/>
     <use xlink:href="#DejaVuSans-74" x="821.044922"/>
     <use xlink:href="#DejaVuSans-75" x="860.253906"/>
     <use xlink:href="#DejaVuSans-64" x="923.632812"/>
     <use xlink:href="#DejaVuSans-65" x="987.109375"/>
     <use xlink:href="#DejaVuSans-20" x="1048.632812"/>
     <use xlink:href="#DejaVuSans-28" x="1080.419922"/>
     <use xlink:href="#DejaVuSans-3c1" x="1119.433594"/>
     <use xlink:href="#DejaVuSans-29" x="1182.910156"/>
    </g>
   </g>
  </g>
 </g>
 <defs>
  <clipPath id="p99a836c8ce">
   <rect x="28.8" y="57.6" width="518.4" height="518.4"/>
  </clipPath>
  <clipPath id="p0e7ae95e30">
   <rect x="604.8" y="57.6" width="518.4" height="518.4"/>
  </clipPath>
 </defs>
</svg>
