<?xml version="1.0" encoding="utf-8" standalone="no"?>
<!DOCTYPE svg PUBLIC "-//W3C//DTD SVG 1.1//EN"
  "http://www.w3.org/Graphics/SVG/1.1/DTD/svg11.dtd">
<svg xmlns:xlink="http://www.w3.org/1999/xlink" width="1152pt" height="576pt" viewBox="0 0 1152 576" xmlns="http://www.w3.org/2000/svg" version="1.1">
 <metadata>
  <rdf:RDF xmlns:dc="http://purl.org/dc/elements/1.1/" xmlns:cc="http://creativecommons.org/ns#" xmlns:rdf="http://www.w3.org/1999/02/22-rdf-syntax-ns#">
   <cc:Work>
    <dc:type rdf:resource="http://purl.org/dc/dcmitype/StillImage"/>
    <dc:date>2024-11-04T21:00:06.522535</dc:date>
    <dc:format>image/svg+xml</dc:format>
    <dc:creator>
     <cc:Agent>
      <dc:title>Matplotlib v3.9.2, https://matplotlib.org/</dc:title>
     </cc:Agent>
    </dc:creator>
   </cc:Work>
  </rdf:RDF>
 </metadata>
 <defs>
  <style type="text/css">*{stroke-linejoin: round; stroke-linecap: butt}</style>
 </defs>
 <g id="figure_1">
  <g id="patch_1">
   <path d="M 0 576 
L 1152 576 
L 1152 0 
L 0 0 
z
" style="fill: #ffffff"/>
  </g>
  <g id="patch_2">
   <path d="M 28.8 576 
L 547.2 576 
L 547.2 57.6 
L 28.8 57.6 
z
" style="fill: #ffffff"/>
  </g>
  <g id="pane3d_1">
   <g id="patch_3">
    <path d="M 130.07018 436.456468 
L 253.494133 330.550231 
L 251.743197 126.70673 
L 122.643358 223.613571 
" style="fill: #f2f2f2; opacity: 0.5; stroke: #f2f2f2; stroke-linejoin: miter"/>
   </g>
  </g>
  <g id="pane3d_2">
   <g id="patch_4">
    <path d="M 253.494133 330.550231 
L 455.554898 390.069341 
L 462.583588 181.103065 
L 251.743197 126.70673 
" style="fill: #e6e6e6; opacity: 0.5; stroke: #e6e6e6; stroke-linejoin: miter"/>
   </g>
  </g>
  <g id="pane3d_3">
   <g id="patch_5">
    <path d="M 130.07018 436.456468 
L 340.912731 504.076731 
L 455.554898 390.069341 
L 253.494133 330.550231 
" style="fill: #ececec; opacity: 0.5; stroke: #ececec; stroke-linejoin: miter"/>
   </g>
  </g>
  <g id="grid3d_1">
   <g id="Line3DCollection_1">
    <path d="M 158.635886 445.617904 
L 280.925726 338.630493 
L 280.328796 134.081748 
" style="fill: none; stroke: #b0b0b0; stroke-width: 0.8"/>
    <path d="M 208.310046 461.549127 
L 328.58611 352.669358 
L 330.022474 146.902603 
" style="fill: none; stroke: #b0b0b0; stroke-width: 0.8"/>
    <path d="M 258.89502 477.772462 
L 377.066152 366.949661 
L 380.607663 159.953465 
" style="fill: none; stroke: #b0b0b0; stroke-width: 0.8"/>
    <path d="M 310.41609 494.296016 
L 426.38718 381.477685 
L 432.108569 173.24058 
" style="fill: none; stroke: #b0b0b0; stroke-width: 0.8"/>
   </g>
  </g>
  <g id="grid3d_2">
   <g id="Line3DCollection_2">
    <path d="M 141.757365 209.265931 
L 148.301379 420.812846 
L 357.880707 487.202708 
" style="fill: none; stroke: #b0b0b0; stroke-width: 0.8"/>
    <path d="M 173.704273 185.285468 
L 178.805664 394.638072 
L 386.24502 458.995448 
" style="fill: none; stroke: #b0b0b0; stroke-width: 0.8"/>
    <path d="M 204.65707 162.051218 
L 208.400054 369.24405 
L 413.731787 431.660877 
" style="fill: none; stroke: #b0b0b0; stroke-width: 0.8"/>
    <path d="M 234.661448 139.528886 
L 237.124663 344.596362 
L 440.38111 405.159111 
" style="fill: none; stroke: #b0b0b0; stroke-width: 0.8"/>
   </g>
  </g>
  <g id="grid3d_3">
   <g id="Line3DCollection_3">
    <path d="M 456.340502 366.712952 
L 253.298162 307.735372 
L 129.240958 412.692059 
" style="fill: none; stroke: #b0b0b0; stroke-width: 0.8"/>
    <path d="M 457.527498 331.423007 
L 253.002191 273.278482 
L 127.987638 376.773566 
" style="fill: none; stroke: #b0b0b0; stroke-width: 0.8"/>
    <path d="M 458.732089 295.609933 
L 252.701989 238.329056 
L 126.715221 340.307788 
" style="fill: none; stroke: #b0b0b0; stroke-width: 0.8"/>
    <path d="M 459.954671 259.262012 
L 252.397465 202.876459 
L 125.423268 303.282118 
" style="fill: none; stroke: #b0b0b0; stroke-width: 0.8"/>
    <path d="M 461.195648 222.367172 
L 252.088525 166.909745 
L 124.111325 265.683562 
" style="fill: none; stroke: #b0b0b0; stroke-width: 0.8"/>
    <path d="M 462.455439 184.912975 
L 251.775072 130.41765 
L 122.778924 227.498722 
" style="fill: none; stroke: #b0b0b0; stroke-width: 0.8"/>
   </g>
  </g>
  <g id="axis3d_1">
   <g id="line2d_1">
    <path d="M 130.07018 436.456468 
L 340.912731 504.076731 
" style="fill: none; stroke: #000000; stroke-width: 0.8; stroke-linecap: square"/>
   </g>
   <g id="xtick_1">
    <g id="line2d_2">
     <path d="M 159.677227 444.706868 
L 156.549953 447.442819 
" style="fill: none; stroke: #000000; stroke-width: 0.8; stroke-linecap: square"/>
    </g>
    <g id="text_1">
     <!-- 00 -->
     <g transform="translate(131.351686 489.365693) rotate(-45) scale(0.21 -0.21)">
      <defs>
       <path id="DejaVuSans-30" d="M 2034 4250 
Q 1547 4250 1301 3770 
Q 1056 3291 1056 2328 
Q 1056 1369 1301 889 
Q 1547 409 2034 409 
Q 2525 409 2770 889 
Q 3016 1369 3016 2328 
Q 3016 3291 2770 3770 
Q 2525 4250 2034 4250 
z
M 2034 4750 
Q 2819 4750 3233 4129 
Q 3647 3509 3647 2328 
Q 3647 1150 3233 529 
Q 2819 -91 2034 -91 
Q 1250 -91 836 529 
Q 422 1150 422 2328 
Q 422 3509 836 4129 
Q 1250 4750 2034 4750 
z
" transform="scale(0.015625)"/>
      </defs>
      <use xlink:href="#DejaVuSans-30"/>
      <use xlink:href="#DejaVuSans-30" x="63.623047"/>
     </g>
    </g>
   </g>
   <g id="xtick_2">
    <g id="line2d_3">
     <path d="M 209.334802 460.621468 
L 206.257306 463.407368 
" style="fill: none; stroke: #000000; stroke-width: 0.8; stroke-linecap: square"/>
    </g>
    <g id="text_2">
     <!-- 01 -->
     <g transform="translate(181.023931 505.435143) rotate(-45) scale(0.21 -0.21)">
      <defs>
       <path id="DejaVuSans-31" d="M 794 531 
L 1825 531 
L 1825 4091 
L 703 3866 
L 703 4441 
L 1819 4666 
L 2450 4666 
L 2450 531 
L 3481 531 
L 3481 0 
L 794 0 
L 794 531 
z
" transform="scale(0.015625)"/>
      </defs>
      <use xlink:href="#DejaVuSans-30"/>
      <use xlink:href="#DejaVuSans-31" x="63.623047"/>
     </g>
    </g>
   </g>
   <g id="xtick_3">
    <g id="line2d_4">
     <path d="M 259.902405 476.82772 
L 256.877048 479.664949 
" style="fill: none; stroke: #000000; stroke-width: 0.8; stroke-linecap: square"/>
    </g>
    <g id="text_3">
     <!-- 10 -->
     <g transform="translate(231.60781 521.799516) rotate(-45) scale(0.21 -0.21)">
      <use xlink:href="#DejaVuSans-31"/>
      <use xlink:href="#DejaVuSans-30" x="63.623047"/>
     </g>
    </g>
   </g>
   <g id="xtick_4">
    <g id="line2d_5">
     <path d="M 311.405283 493.333715 
L 308.434531 496.223705 
" style="fill: none; stroke: #000000; stroke-width: 0.8; stroke-linecap: square"/>
    </g>
    <g id="text_4">
     <!-- 11 -->
     <g transform="translate(283.128654 538.467006) rotate(-45) scale(0.21 -0.21)">
      <use xlink:href="#DejaVuSans-31"/>
      <use xlink:href="#DejaVuSans-31" x="63.623047"/>
     </g>
    </g>
   </g>
  </g>
  <g id="axis3d_2">
   <g id="line2d_6">
    <path d="M 455.554898 390.069341 
L 340.912731 504.076731 
" style="fill: none; stroke: #000000; stroke-width: 0.8; stroke-linecap: square"/>
   </g>
   <g id="xtick_5">
    <g id="line2d_7">
     <path d="M 356.140222 486.651363 
L 361.364886 488.306415 
" style="fill: none; stroke: #000000; stroke-width: 0.8; stroke-linecap: square"/>
    </g>
    <g id="text_5">
     <!-- 00 -->
     <g transform="translate(368.70027 499.207917) rotate(-337.5) scale(0.21 -0.21)">
      <use xlink:href="#DejaVuSans-30"/>
      <use xlink:href="#DejaVuSans-30" x="63.623047"/>
     </g>
    </g>
   </g>
   <g id="xtick_6">
    <g id="line2d_8">
     <path d="M 384.5233 458.46129 
L 389.691587 460.064734 
" style="fill: none; stroke: #000000; stroke-width: 0.8; stroke-linecap: square"/>
    </g>
    <g id="text_6">
     <!-- 01 -->
     <g transform="translate(396.913817 470.822876) rotate(-337.5) scale(0.21 -0.21)">
      <use xlink:href="#DejaVuSans-30"/>
      <use xlink:href="#DejaVuSans-31" x="63.623047"/>
     </g>
    </g>
   </g>
   <g id="xtick_7">
    <g id="line2d_9">
     <path d="M 412.028511 431.143114 
L 417.141381 432.697327 
" style="fill: none; stroke: #000000; stroke-width: 0.8; stroke-linecap: square"/>
    </g>
    <g id="text_7">
     <!-- 10 -->
     <g transform="translate(424.254695 443.315808) rotate(-337.5) scale(0.21 -0.21)">
      <use xlink:href="#DejaVuSans-31"/>
      <use xlink:href="#DejaVuSans-30" x="63.623047"/>
     </g>
    </g>
   </g>
   <g id="xtick_8">
    <g id="line2d_10">
     <path d="M 438.695964 404.657001 
L 443.754368 406.164215 
" style="fill: none; stroke: #000000; stroke-width: 0.8; stroke-linecap: square"/>
    </g>
    <g id="text_8">
     <!-- 11 -->
     <g transform="translate(450.762776 416.646599) rotate(-337.5) scale(0.21 -0.21)">
      <use xlink:href="#DejaVuSans-31"/>
      <use xlink:href="#DejaVuSans-31" x="63.623047"/>
     </g>
    </g>
   </g>
  </g>
  <g id="axis3d_3">
   <g id="line2d_11">
    <path d="M 455.554898 390.069341 
L 462.583588 181.103065 
" style="fill: none; stroke: #000000; stroke-width: 0.8; stroke-linecap: square"/>
   </g>
   <g id="xtick_9">
    <g id="line2d_12">
     <path d="M 454.657365 366.224052 
L 459.709728 367.691609 
" style="fill: none; stroke: #000000; stroke-width: 0.8; stroke-linecap: square"/>
    </g>
    <g id="text_9">
     <!-- −0.1 -->
     <g transform="translate(469.884831 360.441735) scale(0.21 -0.21)">
      <defs>
       <path id="DejaVuSans-2212" d="M 678 2272 
L 4684 2272 
L 4684 1741 
L 678 1741 
L 678 2272 
z
" transform="scale(0.015625)"/>
       <path id="DejaVuSans-2e" d="M 684 794 
L 1344 794 
L 1344 0 
L 684 0 
L 684 794 
z
" transform="scale(0.015625)"/>
      </defs>
      <use xlink:href="#DejaVuSans-2212"/>
      <use xlink:href="#DejaVuSans-30" x="83.789062"/>
      <use xlink:href="#DejaVuSans-2e" x="147.412109"/>
      <use xlink:href="#DejaVuSans-31" x="179.199219"/>
     </g>
    </g>
   </g>
   <g id="xtick_10">
    <g id="line2d_13">
     <path d="M 455.831632 330.940889 
L 460.922226 332.388094 
" style="fill: none; stroke: #000000; stroke-width: 0.8; stroke-linecap: square"/>
    </g>
    <g id="text_10">
     <!-- 0.0 -->
     <g transform="translate(471.170003 325.178211) scale(0.21 -0.21)">
      <use xlink:href="#DejaVuSans-30"/>
      <use xlink:href="#DejaVuSans-2e" x="63.623047"/>
      <use xlink:href="#DejaVuSans-30" x="95.410156"/>
     </g>
    </g>
   </g>
   <g id="xtick_11">
    <g id="line2d_14">
     <path d="M 457.0233 295.134852 
L 462.152708 296.56094 
" style="fill: none; stroke: #000000; stroke-width: 0.8; stroke-linecap: square"/>
    </g>
    <g id="text_11">
     <!-- 0.1 -->
     <g transform="translate(472.474205 289.392554) scale(0.21 -0.21)">
      <use xlink:href="#DejaVuSans-30"/>
      <use xlink:href="#DejaVuSans-2e" x="63.623047"/>
      <use xlink:href="#DejaVuSans-31" x="95.410156"/>
     </g>
    </g>
   </g>
   <g id="xtick_12">
    <g id="line2d_15">
     <path d="M 458.232761 258.794233 
L 463.401577 260.198408 
" style="fill: none; stroke: #000000; stroke-width: 0.8; stroke-linecap: square"/>
    </g>
    <g id="text_12">
     <!-- 0.2 -->
     <g transform="translate(473.797861 253.073079) scale(0.21 -0.21)">
      <defs>
       <path id="DejaVuSans-32" d="M 1228 531 
L 3431 531 
L 3431 0 
L 469 0 
L 469 531 
Q 828 903 1448 1529 
Q 2069 2156 2228 2338 
Q 2531 2678 2651 2914 
Q 2772 3150 2772 3378 
Q 2772 3750 2511 3984 
Q 2250 4219 1831 4219 
Q 1534 4219 1204 4116 
Q 875 4013 500 3803 
L 500 4441 
Q 881 4594 1212 4672 
Q 1544 4750 1819 4750 
Q 2544 4750 2975 4387 
Q 3406 4025 3406 3419 
Q 3406 3131 3298 2873 
Q 3191 2616 2906 2266 
Q 2828 2175 2409 1742 
Q 1991 1309 1228 531 
z
" transform="scale(0.015625)"/>
      </defs>
      <use xlink:href="#DejaVuSans-30"/>
      <use xlink:href="#DejaVuSans-2e" x="63.623047"/>
      <use xlink:href="#DejaVuSans-32" x="95.410156"/>
     </g>
    </g>
   </g>
   <g id="xtick_13">
    <g id="line2d_16">
     <path d="M 459.460414 221.906969 
L 464.669249 223.288408 
" style="fill: none; stroke: #000000; stroke-width: 0.8; stroke-linecap: square"/>
    </g>
    <g id="text_13">
     <!-- 0.3 -->
     <g transform="translate(475.141411 216.207754) scale(0.21 -0.21)">
      <defs>
       <path id="DejaVuSans-33" d="M 2597 2516 
Q 3050 2419 3304 2112 
Q 3559 1806 3559 1356 
Q 3559 666 3084 287 
Q 2609 -91 1734 -91 
Q 1441 -91 1130 -33 
Q 819 25 488 141 
L 488 750 
Q 750 597 1062 519 
Q 1375 441 1716 441 
Q 2309 441 2620 675 
Q 2931 909 2931 1356 
Q 2931 1769 2642 2001 
Q 2353 2234 1838 2234 
L 1294 2234 
L 1294 2753 
L 1863 2753 
Q 2328 2753 2575 2939 
Q 2822 3125 2822 3475 
Q 2822 3834 2567 4026 
Q 2313 4219 1838 4219 
Q 1578 4219 1281 4162 
Q 984 4106 628 3988 
L 628 4550 
Q 988 4650 1302 4700 
Q 1616 4750 1894 4750 
Q 2613 4750 3031 4423 
Q 3450 4097 3450 3541 
Q 3450 3153 3228 2886 
Q 3006 2619 2597 2516 
z
" transform="scale(0.015625)"/>
      </defs>
      <use xlink:href="#DejaVuSans-30"/>
      <use xlink:href="#DejaVuSans-2e" x="63.623047"/>
      <use xlink:href="#DejaVuSans-33" x="95.410156"/>
     </g>
    </g>
   </g>
   <g id="xtick_14">
    <g id="line2d_17">
     <path d="M 460.706674 184.460633 
L 465.956152 185.818482 
" style="fill: none; stroke: #000000; stroke-width: 0.8; stroke-linecap: square"/>
    </g>
    <g id="text_14">
     <!-- 0.4 -->
     <g transform="translate(476.505306 178.784179) scale(0.21 -0.21)">
      <defs>
       <path id="DejaVuSans-34" d="M 2419 4116 
L 825 1625 
L 2419 1625 
L 2419 4116 
z
M 2253 4666 
L 3047 4666 
L 3047 1625 
L 3713 1625 
L 3713 1100 
L 3047 1100 
L 3047 0 
L 2419 0 
L 2419 1100 
L 313 1100 
L 313 1709 
L 2253 4666 
z
" transform="scale(0.015625)"/>
      </defs>
      <use xlink:href="#DejaVuSans-30"/>
      <use xlink:href="#DejaVuSans-2e" x="63.623047"/>
      <use xlink:href="#DejaVuSans-34" x="95.410156"/>
     </g>
    </g>
   </g>
  </g>
  <g id="axes_1">
   <g id="Poly3DCollection_1">
    <path d="M 245.636501 340.310692 
L 269.532216 347.401367 
L 283.536478 335.158346 
L 259.757193 328.171941 
z
" clip-path="url(#p46de80549e)" style="fill: #577ddf"/>
    <path d="M 259.447074 285.631834 
L 259.757193 328.171941 
L 283.536478 335.158346 
L 283.435138 292.496724 
z
" clip-path="url(#p46de80549e)" style="fill: #648fff"/>
    <path d="M 245.198894 297.559787 
L 245.636501 340.310692 
L 259.757193 328.171941 
L 259.447074 285.631834 
z
" clip-path="url(#p46de80549e)" style="fill: #324880"/>
    <path d="M 269.305442 304.528048 
L 283.435138 292.496724 
L 283.536478 335.158346 
L 269.532216 347.401367 
z
" clip-path="url(#p46de80549e)" style="fill: #648fff"/>
    <path d="M 245.198894 297.559787 
L 269.305442 304.528048 
L 269.532216 347.401367 
L 245.636501 340.310692 
z
" clip-path="url(#p46de80549e)" style="fill: #324880"/>
    <path d="M 245.198894 297.559787 
L 259.447074 285.631834 
L 283.435138 292.496724 
L 269.305442 304.528048 
z
" clip-path="url(#p46de80549e)" style="fill: #3f599f"/>
    <path d="M 307.630758 299.421013 
L 307.555467 328.426542 
L 331.814852 335.494447 
L 332.03664 306.405475 
z
" clip-path="url(#p46de80549e)" style="fill: #648fff"/>
    <path d="M 293.630456 340.707342 
L 318.012092 347.88196 
L 331.814852 335.494447 
L 307.555467 328.426542 
z
" clip-path="url(#p46de80549e)" style="fill: #577ddf"/>
    <path d="M 293.622145 311.557058 
L 293.630456 340.707342 
L 307.555467 328.426542 
L 307.630758 299.421013 
z
" clip-path="url(#p46de80549e)" style="fill: #324880"/>
    <path d="M 342.317798 384.316179 
L 366.975911 391.699912 
L 380.447419 378.951453 
L 355.915368 371.677828 
z
" clip-path="url(#p46de80549e)" style="fill: #577ddf"/>
    <path d="M 356.655537 313.450897 
L 355.915368 371.677828 
L 380.447419 378.951453 
L 381.49025 320.558081 
z
" clip-path="url(#p46de80549e)" style="fill: #648fff"/>
    <path d="M 318.151765 318.647614 
L 332.03664 306.405475 
L 331.814852 335.494447 
L 318.012092 347.88196 
z
" clip-path="url(#p46de80549e)" style="fill: #648fff"/>
    <path d="M 293.622145 311.557058 
L 307.630758 299.421013 
L 332.03664 306.405475 
L 318.151765 318.647614 
z
" clip-path="url(#p46de80549e)" style="fill: #3f599f"/>
    <path d="M 342.897111 325.800527 
L 342.317798 384.316179 
L 355.915368 371.677828 
L 356.655537 313.450897 
z
" clip-path="url(#p46de80549e)" style="fill: #324880"/>
    <path d="M 293.622145 311.557058 
L 318.151765 318.647614 
L 318.012092 347.88196 
L 293.630456 340.707342 
z
" clip-path="url(#p46de80549e)" style="fill: #324880"/>
    <path d="M 367.86104 333.016625 
L 381.49025 320.558081 
L 380.447419 378.951453 
L 366.975911 391.699912 
z
" clip-path="url(#p46de80549e)" style="fill: #648fff"/>
    <path d="M 342.897111 325.800527 
L 367.86104 333.016625 
L 366.975911 391.699912 
L 342.317798 384.316179 
z
" clip-path="url(#p46de80549e)" style="fill: #324880"/>
    <path d="M 342.897111 325.800527 
L 356.655537 313.450897 
L 381.49025 320.558081 
L 367.86104 333.016625 
z
" clip-path="url(#p46de80549e)" style="fill: #3f599f"/>
    <path d="M 364.547689 425.463057 
L 389.907363 433.211024 
L 403.529187 419.834723 
L 378.303317 412.205078 
z
" clip-path="url(#p46de80549e)" style="fill: #577ddf"/>
    <path d="M 379.340269 353.060301 
L 378.303317 412.205078 
L 403.529187 419.834723 
L 404.886235 360.519751 
z
" clip-path="url(#p46de80549e)" style="fill: #648fff"/>
    <path d="M 365.420157 366.023061 
L 364.547689 425.463057 
L 378.303317 412.205078 
L 379.340269 353.060301 
z
" clip-path="url(#p46de80549e)" style="fill: #324880"/>
    <path d="M 391.103378 373.599655 
L 404.886235 360.519751 
L 403.529187 419.834723 
L 389.907363 433.211024 
z
" clip-path="url(#p46de80549e)" style="fill: #648fff"/>
    <path d="M 365.420157 366.023061 
L 391.103378 373.599655 
L 389.907363 433.211024 
L 364.547689 425.463057 
z
" clip-path="url(#p46de80549e)" style="fill: #324880"/>
    <path d="M 365.420157 366.023061 
L 379.340269 353.060301 
L 404.886235 360.519751 
L 391.103378 373.599655 
z
" clip-path="url(#p46de80549e)" style="fill: #3f599f"/>
    <path d="M 351.281078 379.18973 
L 350.928929 409.12647 
L 376.586667 416.91031 
L 377.102725 386.886247 
z
" clip-path="url(#p46de80549e)" style="fill: #648fff"/>
    <path d="M 336.653489 422.653364 
L 362.449046 430.560604 
L 376.586667 416.91031 
L 350.928929 409.12647 
z
" clip-path="url(#p46de80549e)" style="fill: #577ddf"/>
    <path d="M 336.917824 392.565155 
L 336.653489 422.653364 
L 350.928929 409.12647 
L 351.281078 379.18973 
z
" clip-path="url(#p46de80549e)" style="fill: #324880"/>
    <path d="M 362.879071 400.384467 
L 377.102725 386.886247 
L 376.586667 416.91031 
L 362.449046 430.560604 
z
" clip-path="url(#p46de80549e)" style="fill: #648fff"/>
    <path d="M 336.917824 392.565155 
L 351.281078 379.18973 
L 377.102725 386.886247 
L 362.879071 400.384467 
z
" clip-path="url(#p46de80549e)" style="fill: #3f599f"/>
    <path d="M 336.917824 392.565155 
L 362.879071 400.384467 
L 362.449046 430.560604 
L 336.653489 422.653364 
z
" clip-path="url(#p46de80549e)" style="fill: #324880"/>
    <path d="M 307.379083 464.785023 
L 333.373375 472.989699 
L 347.923929 458.826547 
L 322.068906 450.751547 
z
" clip-path="url(#p46de80549e)" style="fill: #577ddf"/>
    <path d="M 322.325022 406.154341 
L 322.068906 450.751547 
L 347.923929 458.826547 
L 348.427047 414.09941 
z
" clip-path="url(#p46de80549e)" style="fill: #648fff"/>
    <path d="M 307.497125 419.962454 
L 307.379083 464.785023 
L 322.068906 450.751547 
L 322.325022 406.154341 
z
" clip-path="url(#p46de80549e)" style="fill: #324880"/>
    <path d="M 333.741107 428.036338 
L 348.427047 414.09941 
L 347.923929 458.826547 
L 333.373375 472.989699 
z
" clip-path="url(#p46de80549e)" style="fill: #648fff"/>
    <path d="M 307.497125 419.962454 
L 333.741107 428.036338 
L 333.373375 472.989699 
L 307.379083 464.785023 
z
" clip-path="url(#p46de80549e)" style="fill: #324880"/>
    <path d="M 307.497125 419.962454 
L 322.325022 406.154341 
L 348.427047 414.09941 
L 333.741107 428.036338 
z
" clip-path="url(#p46de80549e)" style="fill: #3f599f"/>
   </g>
   <g id="Poly3DCollection_2">
    <path d="M 134.757004 375.841981 
L 339.559147 439.188178 
L 451.110653 332.306079 
L 254.604026 276.34883 
z
" clip-path="url(#p46de80549e)" style="fill-opacity: 0.25"/>
   </g>
   <g id="Poly3DCollection_3">
    <path d="M 216.052961 321.959488 
L 230.735823 309.667638 
L 254.961708 316.741623 
L 240.399038 329.141622 
z
" clip-path="url(#p46de80549e)" style="fill: #3f599f"/>
    <path d="M 230.735823 309.667638 
L 229.651758 227.799517 
L 254.283269 234.62929 
L 254.961708 316.741623 
z
" clip-path="url(#p46de80549e)" style="fill: #324880"/>
    <path d="M 216.052961 321.959488 
L 214.710943 239.667666 
L 229.651758 227.799517 
L 230.735823 309.667638 
z
" clip-path="url(#p46de80549e)" style="fill: #648fff"/>
    <path d="M 264.960613 336.387328 
L 279.400397 323.877747 
L 304.054706 331.076833 
L 289.740561 343.697454 
z
" clip-path="url(#p46de80549e)" style="fill: #3f599f"/>
    <path d="M 406.543629 327.727843 
L 407.284697 295.60008 
L 432.731618 302.738507 
L 431.818575 334.961013 
z
" clip-path="url(#p46de80549e)" style="fill: #324880"/>
    <path d="M 240.399038 329.141622 
L 254.961708 316.741623 
L 254.283269 234.62929 
L 239.46669 246.603639 
z
" clip-path="url(#p46de80549e)" style="fill: #324880"/>
    <path d="M 279.400397 323.877747 
L 279.221851 268.507091 
L 304.158707 275.541841 
L 304.054706 331.076833 
z
" clip-path="url(#p46de80549e)" style="fill: #324880"/>
    <path d="M 393.046462 340.296747 
L 406.543629 327.727843 
L 431.818575 334.961013 
L 418.456338 347.64175 
z
" clip-path="url(#p46de80549e)" style="fill: #3f599f"/>
    <path d="M 216.052961 321.959488 
L 240.399038 329.141622 
L 239.46669 246.603639 
L 214.710943 239.667666 
z
" clip-path="url(#p46de80549e)" style="fill: #648fff"/>
    <path d="M 393.046462 340.296747 
L 393.702892 308.004621 
L 407.284697 295.60008 
L 406.543629 327.727843 
z
" clip-path="url(#p46de80549e)" style="fill: #648fff"/>
    <path d="M 264.960613 336.387328 
L 264.614186 280.731568 
L 279.221851 268.507091 
L 279.400397 323.877747 
z
" clip-path="url(#p46de80549e)" style="fill: #648fff"/>
    <path d="M 201.145259 334.439564 
L 200.943278 324.048192 
L 225.462384 331.310498 
L 225.612378 341.732345 
z
" clip-path="url(#p46de80549e)" style="fill: #324880"/>
    <path d="M 186.007514 347.112222 
L 185.771144 336.667982 
L 200.943278 324.048192 
L 201.145259 334.439564 
z
" clip-path="url(#p46de80549e)" style="fill: #648fff"/>
    <path d="M 186.007514 347.112222 
L 201.145259 334.439564 
L 225.612378 341.732345 
L 210.596522 354.518227 
z
" clip-path="url(#p46de80549e)" style="fill: #3f599f"/>
    <path d="M 418.456338 347.64175 
L 431.818575 334.961013 
L 432.731618 302.738507 
L 419.286607 315.254161 
z
" clip-path="url(#p46de80549e)" style="fill: #324880"/>
    <path d="M 289.740561 343.697454 
L 304.054706 331.076833 
L 304.158707 275.541841 
L 289.679583 287.876083 
z
" clip-path="url(#p46de80549e)" style="fill: #324880"/>
    <path d="M 214.710943 239.667666 
L 239.46669 246.603639 
L 254.283269 234.62929 
L 229.651758 227.799517 
z
" clip-path="url(#p46de80549e)" style="fill: #577ddf"/>
    <path d="M 185.771144 336.667982 
L 210.412654 344.043285 
L 225.462384 331.310498 
L 200.943278 324.048192 
z
" clip-path="url(#p46de80549e)" style="fill: #577ddf"/>
    <path d="M 314.741807 351.072863 
L 328.927501 338.339716 
L 354.021699 345.66725 
L 339.967328 358.514434 
z
" clip-path="url(#p46de80549e)" style="fill: #3f599f"/>
    <path d="M 393.702892 308.004621 
L 419.286607 315.254161 
L 432.731618 302.738507 
L 407.284697 295.60008 
z
" clip-path="url(#p46de80549e)" style="fill: #577ddf"/>
    <path d="M 393.046462 340.296747 
L 418.456338 347.64175 
L 419.286607 315.254161 
L 393.702892 308.004621 
z
" clip-path="url(#p46de80549e)" style="fill: #648fff"/>
    <path d="M 264.960613 336.387328 
L 289.740561 343.697454 
L 289.679583 287.876083 
L 264.614186 280.731568 
z
" clip-path="url(#p46de80549e)" style="fill: #648fff"/>
    <path d="M 210.596522 354.518227 
L 225.612378 341.732345 
L 225.462384 331.310498 
L 210.412654 344.043285 
z
" clip-path="url(#p46de80549e)" style="fill: #324880"/>
    <path d="M 186.007514 347.112222 
L 210.596522 354.518227 
L 210.412654 344.043285 
L 185.771144 336.667982 
z
" clip-path="url(#p46de80549e)" style="fill: #648fff"/>
    <path d="M 264.614186 280.731568 
L 289.679583 287.876083 
L 304.158707 275.541841 
L 279.221851 268.507091 
z
" clip-path="url(#p46de80549e)" style="fill: #577ddf"/>
    <path d="M 235.406567 361.990807 
L 250.29774 349.090176 
L 275.204278 356.513932 
L 260.440644 369.530863 
z
" clip-path="url(#p46de80549e)" style="fill: #3f599f"/>
    <path d="M 328.927501 338.339716 
L 329.723113 225.175064 
L 355.412178 232.159711 
L 354.021699 345.66725 
z
" clip-path="url(#p46de80549e)" style="fill: #324880"/>
    <path d="M 314.741807 351.072863 
L 315.208371 237.313308 
L 329.723113 225.175064 
L 328.927501 338.339716 
z
" clip-path="url(#p46de80549e)" style="fill: #648fff"/>
    <path d="M 155.020262 373.053395 
L 170.63436 359.981955 
L 195.346099 367.503841 
L 179.855569 380.693905 
z
" clip-path="url(#p46de80549e)" style="fill: #3f599f"/>
    <path d="M 339.967328 358.514434 
L 354.021699 345.66725 
L 355.412178 232.159711 
L 341.035099 244.409242 
z
" clip-path="url(#p46de80549e)" style="fill: #324880"/>
    <path d="M 285.7018 377.139313 
L 300.334978 364.004503 
L 325.692879 371.562795 
L 311.19314 384.817093 
z
" clip-path="url(#p46de80549e)" style="fill: #3f599f"/>
    <path d="M 314.741807 351.072863 
L 339.967328 358.514434 
L 341.035099 244.409242 
L 315.208371 237.313308 
z
" clip-path="url(#p46de80549e)" style="fill: #648fff"/>
    <path d="M 170.63436 359.981955 
L 168.841621 290.745083 
L 193.902994 298.059146 
L 195.346099 367.503841 
z
" clip-path="url(#p46de80549e)" style="fill: #324880"/>
    <path d="M 300.334978 364.004503 
L 300.397473 307.72692 
L 326.054374 315.116853 
L 325.692879 371.562795 
z
" clip-path="url(#p46de80549e)" style="fill: #324880"/>
    <path d="M 155.020262 373.053395 
L 152.986412 303.45598 
L 168.841621 290.745083 
L 170.63436 359.981955 
z
" clip-path="url(#p46de80549e)" style="fill: #648fff"/>
    <path d="M 250.29774 349.090176 
L 248.891417 197.655135 
L 274.578536 204.613639 
L 275.204278 356.513932 
z
" clip-path="url(#p46de80549e)" style="fill: #324880"/>
    <path d="M 285.7018 377.139313 
L 285.591837 320.56966 
L 300.397473 307.72692 
L 300.334978 364.004503 
z
" clip-path="url(#p46de80549e)" style="fill: #648fff"/>
    <path d="M 220.281721 375.093875 
L 220.116932 364.534385 
L 245.334487 372.162306 
L 245.444284 382.752985 
z
" clip-path="url(#p46de80549e)" style="fill: #324880"/>
    <path d="M 235.406567 361.990807 
L 233.516771 209.748531 
L 248.891417 197.655135 
L 250.29774 349.090176 
z
" clip-path="url(#p46de80549e)" style="fill: #648fff"/>
    <path d="M 204.917658 388.404183 
L 204.717411 377.790589 
L 220.116932 364.534385 
L 220.281721 375.093875 
z
" clip-path="url(#p46de80549e)" style="fill: #648fff"/>
    <path d="M 204.917658 388.404183 
L 220.281721 375.093875 
L 245.444284 382.752985 
L 230.209651 396.18519 
z
" clip-path="url(#p46de80549e)" style="fill: #3f599f"/>
    <path d="M 179.855569 380.693905 
L 195.346099 367.503841 
L 193.902994 298.059146 
L 178.174837 310.887075 
z
" clip-path="url(#p46de80549e)" style="fill: #324880"/>
    <path d="M 315.208371 237.313308 
L 341.035099 244.409242 
L 355.412178 232.159711 
L 329.723113 225.175064 
z
" clip-path="url(#p46de80549e)" style="fill: #577ddf"/>
    <path d="M 311.19314 384.817093 
L 325.692879 371.562795 
L 326.054374 315.116853 
L 311.385353 328.077809 
z
" clip-path="url(#p46de80549e)" style="fill: #324880"/>
    <path d="M 155.020262 373.053395 
L 179.855569 380.693905 
L 178.174837 310.887075 
L 152.986412 303.45598 
z
" clip-path="url(#p46de80549e)" style="fill: #648fff"/>
    <path d="M 204.717411 377.790589 
L 230.064961 385.540181 
L 245.334487 372.162306 
L 220.116932 364.534385 
z
" clip-path="url(#p46de80549e)" style="fill: #577ddf"/>
    <path d="M 260.440644 369.530863 
L 275.204278 356.513932 
L 274.578536 204.613639 
L 259.339537 216.819525 
z
" clip-path="url(#p46de80549e)" style="fill: #324880"/>
    <path d="M 285.7018 377.139313 
L 311.19314 384.817093 
L 311.385353 328.077809 
L 285.591837 320.56966 
z
" clip-path="url(#p46de80549e)" style="fill: #648fff"/>
    <path d="M 230.209651 396.18519 
L 245.444284 382.752985 
L 245.334487 372.162306 
L 230.064961 385.540181 
z
" clip-path="url(#p46de80549e)" style="fill: #324880"/>
    <path d="M 235.406567 361.990807 
L 260.440644 369.530863 
L 259.339537 216.819525 
L 233.516771 209.748531 
z
" clip-path="url(#p46de80549e)" style="fill: #648fff"/>
    <path d="M 204.917658 388.404183 
L 230.209651 396.18519 
L 230.064961 385.540181 
L 204.717411 377.790589 
z
" clip-path="url(#p46de80549e)" style="fill: #648fff"/>
    <path d="M 285.591837 320.56966 
L 311.385353 328.077809 
L 326.054374 315.116853 
L 300.397473 307.72692 
z
" clip-path="url(#p46de80549e)" style="fill: #577ddf"/>
    <path d="M 152.986412 303.45598 
L 178.174837 310.887075 
L 193.902994 298.059146 
L 168.841621 290.745083 
z
" clip-path="url(#p46de80549e)" style="fill: #577ddf"/>
    <path d="M 255.734726 404.037904 
L 270.836899 390.48212 
L 296.462736 398.282245 
L 281.496118 411.963321 
z
" clip-path="url(#p46de80549e)" style="fill: #3f599f"/>
    <path d="M 270.836899 390.48212 
L 270.408512 305.884114 
L 296.488688 313.427723 
L 296.462736 398.282245 
z
" clip-path="url(#p46de80549e)" style="fill: #324880"/>
    <path d="M 233.516771 209.748531 
L 259.339537 216.819525 
L 274.578536 204.613639 
L 248.891417 197.655135 
z
" clip-path="url(#p46de80549e)" style="fill: #577ddf"/>
    <path d="M 255.734726 404.037904 
L 255.032997 318.994889 
L 270.408512 305.884114 
L 270.836899 390.48212 
z
" clip-path="url(#p46de80549e)" style="fill: #648fff"/>
    <path d="M 281.496118 411.963321 
L 296.462736 398.282245 
L 296.488688 313.427723 
L 281.253583 326.661849 
z
" clip-path="url(#p46de80549e)" style="fill: #324880"/>
    <path d="M 255.734726 404.037904 
L 281.496118 411.963321 
L 281.253583 326.661849 
L 255.032997 318.994889 
z
" clip-path="url(#p46de80549e)" style="fill: #648fff"/>
    <path d="M 255.032997 318.994889 
L 281.253583 326.661849 
L 296.488688 313.427723 
L 270.408512 305.884114 
z
" clip-path="url(#p46de80549e)" style="fill: #577ddf"/>
   </g>
   <g id="text_15">
    <!-- Real Amplitude (ρ) -->
    <g transform="translate(190.023516 51.6) scale(0.21 -0.21)">
     <defs>
      <path id="DejaVuSans-52" d="M 2841 2188 
Q 3044 2119 3236 1894 
Q 3428 1669 3622 1275 
L 4263 0 
L 3584 0 
L 2988 1197 
Q 2756 1666 2539 1819 
Q 2322 1972 1947 1972 
L 1259 1972 
L 1259 0 
L 628 0 
L 628 4666 
L 2053 4666 
Q 2853 4666 3247 4331 
Q 3641 3997 3641 3322 
Q 3641 2881 3436 2590 
Q 3231 2300 2841 2188 
z
M 1259 4147 
L 1259 2491 
L 2053 2491 
Q 2509 2491 2742 2702 
Q 2975 2913 2975 3322 
Q 2975 3731 2742 3939 
Q 2509 4147 2053 4147 
L 1259 4147 
z
" transform="scale(0.015625)"/>
      <path id="DejaVuSans-65" d="M 3597 1894 
L 3597 1613 
L 953 1613 
Q 991 1019 1311 708 
Q 1631 397 2203 397 
Q 2534 397 2845 478 
Q 3156 559 3463 722 
L 3463 178 
Q 3153 47 2828 -22 
Q 2503 -91 2169 -91 
Q 1331 -91 842 396 
Q 353 884 353 1716 
Q 353 2575 817 3079 
Q 1281 3584 2069 3584 
Q 2775 3584 3186 3129 
Q 3597 2675 3597 1894 
z
M 3022 2063 
Q 3016 2534 2758 2815 
Q 2500 3097 2075 3097 
Q 1594 3097 1305 2825 
Q 1016 2553 972 2059 
L 3022 2063 
z
" transform="scale(0.015625)"/>
      <path id="DejaVuSans-61" d="M 2194 1759 
Q 1497 1759 1228 1600 
Q 959 1441 959 1056 
Q 959 750 1161 570 
Q 1363 391 1709 391 
Q 2188 391 2477 730 
Q 2766 1069 2766 1631 
L 2766 1759 
L 2194 1759 
z
M 3341 1997 
L 3341 0 
L 2766 0 
L 2766 531 
Q 2569 213 2275 61 
Q 1981 -91 1556 -91 
Q 1019 -91 701 211 
Q 384 513 384 1019 
Q 384 1609 779 1909 
Q 1175 2209 1959 2209 
L 2766 2209 
L 2766 2266 
Q 2766 2663 2505 2880 
Q 2244 3097 1772 3097 
Q 1472 3097 1187 3025 
Q 903 2953 641 2809 
L 641 3341 
Q 956 3463 1253 3523 
Q 1550 3584 1831 3584 
Q 2591 3584 2966 3190 
Q 3341 2797 3341 1997 
z
" transform="scale(0.015625)"/>
      <path id="DejaVuSans-6c" d="M 603 4863 
L 1178 4863 
L 1178 0 
L 603 0 
L 603 4863 
z
" transform="scale(0.015625)"/>
      <path id="DejaVuSans-20" transform="scale(0.015625)"/>
      <path id="DejaVuSans-41" d="M 2188 4044 
L 1331 1722 
L 3047 1722 
L 2188 4044 
z
M 1831 4666 
L 2547 4666 
L 4325 0 
L 3669 0 
L 3244 1197 
L 1141 1197 
L 716 0 
L 50 0 
L 1831 4666 
z
" transform="scale(0.015625)"/>
      <path id="DejaVuSans-6d" d="M 3328 2828 
Q 3544 3216 3844 3400 
Q 4144 3584 4550 3584 
Q 5097 3584 5394 3201 
Q 5691 2819 5691 2113 
L 5691 0 
L 5113 0 
L 5113 2094 
Q 5113 2597 4934 2840 
Q 4756 3084 4391 3084 
Q 3944 3084 3684 2787 
Q 3425 2491 3425 1978 
L 3425 0 
L 2847 0 
L 2847 2094 
Q 2847 2600 2669 2842 
Q 2491 3084 2119 3084 
Q 1678 3084 1418 2786 
Q 1159 2488 1159 1978 
L 1159 0 
L 581 0 
L 581 3500 
L 1159 3500 
L 1159 2956 
Q 1356 3278 1631 3431 
Q 1906 3584 2284 3584 
Q 2666 3584 2933 3390 
Q 3200 3197 3328 2828 
z
" transform="scale(0.015625)"/>
      <path id="DejaVuSans-70" d="M 1159 525 
L 1159 -1331 
L 581 -1331 
L 581 3500 
L 1159 3500 
L 1159 2969 
Q 1341 3281 1617 3432 
Q 1894 3584 2278 3584 
Q 2916 3584 3314 3078 
Q 3713 2572 3713 1747 
Q 3713 922 3314 415 
Q 2916 -91 2278 -91 
Q 1894 -91 1617 61 
Q 1341 213 1159 525 
z
M 3116 1747 
Q 3116 2381 2855 2742 
Q 2594 3103 2138 3103 
Q 1681 3103 1420 2742 
Q 1159 2381 1159 1747 
Q 1159 1113 1420 752 
Q 1681 391 2138 391 
Q 2594 391 2855 752 
Q 3116 1113 3116 1747 
z
" transform="scale(0.015625)"/>
      <path id="DejaVuSans-69" d="M 603 3500 
L 1178 3500 
L 1178 0 
L 603 0 
L 603 3500 
z
M 603 4863 
L 1178 4863 
L 1178 4134 
L 603 4134 
L 603 4863 
z
" transform="scale(0.015625)"/>
      <path id="DejaVuSans-74" d="M 1172 4494 
L 1172 3500 
L 2356 3500 
L 2356 3053 
L 1172 3053 
L 1172 1153 
Q 1172 725 1289 603 
Q 1406 481 1766 481 
L 2356 481 
L 2356 0 
L 1766 0 
Q 1100 0 847 248 
Q 594 497 594 1153 
L 594 3053 
L 172 3053 
L 172 3500 
L 594 3500 
L 594 4494 
L 1172 4494 
z
" transform="scale(0.015625)"/>
      <path id="DejaVuSans-75" d="M 544 1381 
L 544 3500 
L 1119 3500 
L 1119 1403 
Q 1119 906 1312 657 
Q 1506 409 1894 409 
Q 2359 409 2629 706 
Q 2900 1003 2900 1516 
L 2900 3500 
L 3475 3500 
L 3475 0 
L 2900 0 
L 2900 538 
Q 2691 219 2414 64 
Q 2138 -91 1772 -91 
Q 1169 -91 856 284 
Q 544 659 544 1381 
z
M 1991 3584 
L 1991 3584 
z
" transform="scale(0.015625)"/>
      <path id="DejaVuSans-64" d="M 2906 2969 
L 2906 4863 
L 3481 4863 
L 3481 0 
L 2906 0 
L 2906 525 
Q 2725 213 2448 61 
Q 2172 -91 1784 -91 
Q 1150 -91 751 415 
Q 353 922 353 1747 
Q 353 2572 751 3078 
Q 1150 3584 1784 3584 
Q 2172 3584 2448 3432 
Q 2725 3281 2906 2969 
z
M 947 1747 
Q 947 1113 1208 752 
Q 1469 391 1925 391 
Q 2381 391 2643 752 
Q 2906 1113 2906 1747 
Q 2906 2381 2643 2742 
Q 2381 3103 1925 3103 
Q 1469 3103 1208 2742 
Q 947 2381 947 1747 
z
" transform="scale(0.015625)"/>
      <path id="DejaVuSans-28" d="M 1984 4856 
Q 1566 4138 1362 3434 
Q 1159 2731 1159 2009 
Q 1159 1288 1364 580 
Q 1569 -128 1984 -844 
L 1484 -844 
Q 1016 -109 783 600 
Q 550 1309 550 2009 
Q 550 2706 781 3412 
Q 1013 4119 1484 4856 
L 1984 4856 
z
" transform="scale(0.015625)"/>
      <path id="DejaVuSans-3c1" d="M 863 2875 
Q 1053 3194 1525 3475 
Q 1709 3584 2278 3584 
Q 2916 3584 3314 3078 
Q 3713 2572 3713 1747 
Q 3713 922 3314 415 
Q 2916 -91 2278 -91 
Q 1894 -91 1617 61 
Q 1341 213 1159 525 
L 1159 -1331 
L 581 -1331 
L 581 1716 
Q 581 2438 863 2875 
z
M 3116 1747 
Q 3116 2381 2855 2742 
Q 2594 3103 2138 3103 
Q 1681 3103 1420 2742 
Q 1159 2381 1159 1747 
Q 1159 1113 1420 752 
Q 1681 391 2138 391 
Q 2594 391 2855 752 
Q 3116 1113 3116 1747 
z
" transform="scale(0.015625)"/>
      <path id="DejaVuSans-29" d="M 513 4856 
L 1013 4856 
Q 1481 4119 1714 3412 
Q 1947 2706 1947 2009 
Q 1947 1309 1714 600 
Q 1481 -109 1013 -844 
L 513 -844 
Q 928 -128 1133 580 
Q 1338 1288 1338 2009 
Q 1338 2731 1133 3434 
Q 928 4138 513 4856 
z
" transform="scale(0.015625)"/>
     </defs>
     <use xlink:href="#DejaVuSans-52"/>
     <use xlink:href="#DejaVuSans-65" x="64.982422"/>
     <use xlink:href="#DejaVuSans-61" x="126.505859"/>
     <use xlink:href="#DejaVuSans-6c" x="187.785156"/>
     <use xlink:href="#DejaVuSans-20" x="215.568359"/>
     <use xlink:href="#DejaVuSans-41" x="247.355469"/>
     <use xlink:href="#DejaVuSans-6d" x="315.763672"/>
     <use xlink:href="#DejaVuSans-70" x="413.175781"/>
     <use xlink:href="#DejaVuSans-6c" x="476.652344"/>
     <use xlink:href="#DejaVuSans-69" x="504.435547"/>
     <use xlink:href="#DejaVuSans-74" x="532.21875"/>
     <use xlink:href="#DejaVuSans-75" x="571.427734"/>
     <use xlink:href="#DejaVuSans-64" x="634.806641"/>
     <use xlink:href="#DejaVuSans-65" x="698.283203"/>
     <use xlink:href="#DejaVuSans-20" x="759.806641"/>
     <use xlink:href="#DejaVuSans-28" x="791.59375"/>
     <use xlink:href="#DejaVuSans-3c1" x="830.607422"/>
     <use xlink:href="#DejaVuSans-29" x="894.083984"/>
    </g>
   </g>
  </g>
  <g id="patch_6">
   <path d="M 604.8 576 
L 1123.2 576 
L 1123.2 57.6 
L 604.8 57.6 
z
" style="fill: #ffffff"/>
  </g>
  <g id="pane3d_4">
   <g id="patch_7">
    <path d="M 706.07018 436.456468 
L 829.494133 330.550231 
L 827.743197 126.70673 
L 698.643358 223.613571 
" style="fill: #f2f2f2; opacity: 0.5; stroke: #f2f2f2; stroke-linejoin: miter"/>
   </g>
  </g>
  <g id="pane3d_5">
   <g id="patch_8">
    <path d="M 829.494133 330.550231 
L 1031.554898 390.069341 
L 1038.583588 181.103065 
L 827.743197 126.70673 
" style="fill: #e6e6e6; opacity: 0.5; stroke: #e6e6e6; stroke-linejoin: miter"/>
   </g>
  </g>
  <g id="pane3d_6">
   <g id="patch_9">
    <path d="M 706.07018 436.456468 
L 916.912731 504.076731 
L 1031.554898 390.069341 
L 829.494133 330.550231 
" style="fill: #ececec; opacity: 0.5; stroke: #ececec; stroke-linejoin: miter"/>
   </g>
  </g>
  <g id="grid3d_4">
   <g id="Line3DCollection_4">
    <path d="M 734.635886 445.617904 
L 856.925726 338.630493 
L 856.328796 134.081748 
" style="fill: none; stroke: #b0b0b0; stroke-width: 0.8"/>
    <path d="M 784.310046 461.549127 
L 904.58611 352.669358 
L 906.022474 146.902603 
" style="fill: none; stroke: #b0b0b0; stroke-width: 0.8"/>
    <path d="M 834.89502 477.772462 
L 953.066152 366.949661 
L 956.607663 159.953465 
" style="fill: none; stroke: #b0b0b0; stroke-width: 0.8"/>
    <path d="M 886.41609 494.296016 
L 1002.38718 381.477685 
L 1008.108569 173.24058 
" style="fill: none; stroke: #b0b0b0; stroke-width: 0.8"/>
   </g>
  </g>
  <g id="grid3d_5">
   <g id="Line3DCollection_5">
    <path d="M 717.757365 209.265931 
L 724.301379 420.812846 
L 933.880707 487.202708 
" style="fill: none; stroke: #b0b0b0; stroke-width: 0.8"/>
    <path d="M 749.704273 185.285468 
L 754.805664 394.638072 
L 962.24502 458.995448 
" style="fill: none; stroke: #b0b0b0; stroke-width: 0.8"/>
    <path d="M 780.65707 162.051218 
L 784.400054 369.24405 
L 989.731787 431.660877 
" style="fill: none; stroke: #b0b0b0; stroke-width: 0.8"/>
    <path d="M 810.661448 139.528886 
L 813.124663 344.596362 
L 1016.38111 405.159111 
" style="fill: none; stroke: #b0b0b0; stroke-width: 0.8"/>
   </g>
  </g>
  <g id="grid3d_6">
   <g id="Line3DCollection_6">
    <path d="M 1031.752702 384.188536 
L 829.444784 324.805039 
L 705.861415 430.473528 
" style="fill: none; stroke: #b0b0b0; stroke-width: 0.8"/>
    <path d="M 1032.680795 356.595902 
L 829.213296 297.85532 
L 704.881703 402.396298 
" style="fill: none; stroke: #b0b0b0; stroke-width: 0.8"/>
    <path d="M 1033.619666 328.6828 
L 828.979216 270.603707 
L 703.890299 373.983946 
" style="fill: none; stroke: #b0b0b0; stroke-width: 0.8"/>
    <path d="M 1034.569506 300.443613 
L 828.742498 243.045097 
L 702.886989 345.230436 
" style="fill: none; stroke: #b0b0b0; stroke-width: 0.8"/>
    <path d="M 1035.530507 271.872594 
L 828.503098 215.174274 
L 701.87156 316.129585 
" style="fill: none; stroke: #b0b0b0; stroke-width: 0.8"/>
    <path d="M 1036.502868 242.96386 
L 828.260971 186.985903 
L 700.843791 286.675062 
" style="fill: none; stroke: #b0b0b0; stroke-width: 0.8"/>
    <path d="M 1037.48679 213.711387 
L 828.01607 158.474524 
L 699.803454 256.860379 
" style="fill: none; stroke: #b0b0b0; stroke-width: 0.8"/>
    <path d="M 1038.482481 184.109008 
L 827.768346 129.634554 
L 698.750318 226.678891 
" style="fill: none; stroke: #b0b0b0; stroke-width: 0.8"/>
   </g>
  </g>
  <g id="axis3d_4">
   <g id="line2d_18">
    <path d="M 706.07018 436.456468 
L 916.912731 504.076731 
" style="fill: none; stroke: #000000; stroke-width: 0.8; stroke-linecap: square"/>
   </g>
   <g id="xtick_15">
    <g id="line2d_19">
     <path d="M 735.677227 444.706868 
L 732.549953 447.442819 
" style="fill: none; stroke: #000000; stroke-width: 0.8; stroke-linecap: square"/>
    </g>
    <g id="text_16">
     <!-- 00 -->
     <g transform="translate(707.351686 489.365693) rotate(-45) scale(0.21 -0.21)">
      <use xlink:href="#DejaVuSans-30"/>
      <use xlink:href="#DejaVuSans-30" x="63.623047"/>
     </g>
    </g>
   </g>
   <g id="xtick_16">
    <g id="line2d_20">
     <path d="M 785.334802 460.621468 
L 782.257306 463.407368 
" style="fill: none; stroke: #000000; stroke-width: 0.8; stroke-linecap: square"/>
    </g>
    <g id="text_17">
     <!-- 01 -->
     <g transform="translate(757.023931 505.435143) rotate(-45) scale(0.21 -0.21)">
      <use xlink:href="#DejaVuSans-30"/>
      <use xlink:href="#DejaVuSans-31" x="63.623047"/>
     </g>
    </g>
   </g>
   <g id="xtick_17">
    <g id="line2d_21">
     <path d="M 835.902405 476.82772 
L 832.877048 479.664949 
" style="fill: none; stroke: #000000; stroke-width: 0.8; stroke-linecap: square"/>
    </g>
    <g id="text_18">
     <!-- 10 -->
     <g transform="translate(807.60781 521.799516) rotate(-45) scale(0.21 -0.21)">
      <use xlink:href="#DejaVuSans-31"/>
      <use xlink:href="#DejaVuSans-30" x="63.623047"/>
     </g>
    </g>
   </g>
   <g id="xtick_18">
    <g id="line2d_22">
     <path d="M 887.405283 493.333715 
L 884.434531 496.223705 
" style="fill: none; stroke: #000000; stroke-width: 0.8; stroke-linecap: square"/>
    </g>
    <g id="text_19">
     <!-- 11 -->
     <g transform="translate(859.128654 538.467006) rotate(-45) scale(0.21 -0.21)">
      <use xlink:href="#DejaVuSans-31"/>
      <use xlink:href="#DejaVuSans-31" x="63.623047"/>
     </g>
    </g>
   </g>
  </g>
  <g id="axis3d_5">
   <g id="line2d_23">
    <path d="M 1031.554898 390.069341 
L 916.912731 504.076731 
" style="fill: none; stroke: #000000; stroke-width: 0.8; stroke-linecap: square"/>
   </g>
   <g id="xtick_19">
    <g id="line2d_24">
     <path d="M 932.140222 486.651363 
L 937.364886 488.306415 
" style="fill: none; stroke: #000000; stroke-width: 0.8; stroke-linecap: square"/>
    </g>
    <g id="text_20">
     <!-- 00 -->
     <g transform="translate(944.70027 499.207917) rotate(-337.5) scale(0.21 -0.21)">
      <use xlink:href="#DejaVuSans-30"/>
      <use xlink:href="#DejaVuSans-30" x="63.623047"/>
     </g>
    </g>
   </g>
   <g id="xtick_20">
    <g id="line2d_25">
     <path d="M 960.5233 458.46129 
L 965.691587 460.064734 
" style="fill: none; stroke: #000000; stroke-width: 0.8; stroke-linecap: square"/>
    </g>
    <g id="text_21">
     <!-- 01 -->
     <g transform="translate(972.913817 470.822876) rotate(-337.5) scale(0.21 -0.21)">
      <use xlink:href="#DejaVuSans-30"/>
      <use xlink:href="#DejaVuSans-31" x="63.623047"/>
     </g>
    </g>
   </g>
   <g id="xtick_21">
    <g id="line2d_26">
     <path d="M 988.028511 431.143114 
L 993.141381 432.697327 
" style="fill: none; stroke: #000000; stroke-width: 0.8; stroke-linecap: square"/>
    </g>
    <g id="text_22">
     <!-- 10 -->
     <g transform="translate(1000.254695 443.315808) rotate(-337.5) scale(0.21 -0.21)">
      <use xlink:href="#DejaVuSans-31"/>
      <use xlink:href="#DejaVuSans-30" x="63.623047"/>
     </g>
    </g>
   </g>
   <g id="xtick_22">
    <g id="line2d_27">
     <path d="M 1014.695964 404.657001 
L 1019.754368 406.164215 
" style="fill: none; stroke: #000000; stroke-width: 0.8; stroke-linecap: square"/>
    </g>
    <g id="text_23">
     <!-- 11 -->
     <g transform="translate(1026.762776 416.646599) rotate(-337.5) scale(0.21 -0.21)">
      <use xlink:href="#DejaVuSans-31"/>
      <use xlink:href="#DejaVuSans-31" x="63.623047"/>
     </g>
    </g>
   </g>
  </g>
  <g id="axis3d_6">
   <g id="line2d_28">
    <path d="M 1031.554898 390.069341 
L 1038.583588 181.103065 
" style="fill: none; stroke: #000000; stroke-width: 0.8; stroke-linecap: square"/>
   </g>
   <g id="xtick_23">
    <g id="line2d_29">
     <path d="M 1030.075866 383.696334 
L 1035.109303 385.173801 
" style="fill: none; stroke: #000000; stroke-width: 0.8; stroke-linecap: square"/>
    </g>
    <g id="text_24">
     <!-- −0.3 -->
     <g transform="translate(1045.248406 377.904454) scale(0.21 -0.21)">
      <use xlink:href="#DejaVuSans-2212"/>
      <use xlink:href="#DejaVuSans-30" x="83.789062"/>
      <use xlink:href="#DejaVuSans-2e" x="147.412109"/>
      <use xlink:href="#DejaVuSans-33" x="179.199219"/>
     </g>
    </g>
   </g>
   <g id="xtick_24">
    <g id="line2d_30">
     <path d="M 1030.994008 356.108931 
L 1036.05733 357.5707 
" style="fill: none; stroke: #000000; stroke-width: 0.8; stroke-linecap: square"/>
    </g>
    <g id="text_25">
     <!-- −0.2 -->
     <g transform="translate(1046.253271 350.332199) scale(0.21 -0.21)">
      <use xlink:href="#DejaVuSans-2212"/>
      <use xlink:href="#DejaVuSans-30" x="83.789062"/>
      <use xlink:href="#DejaVuSans-2e" x="147.412109"/>
      <use xlink:href="#DejaVuSans-32" x="179.199219"/>
     </g>
    </g>
   </g>
   <g id="xtick_25">
    <g id="line2d_31">
     <path d="M 1031.922811 328.201215 
L 1037.016375 329.646821 
" style="fill: none; stroke: #000000; stroke-width: 0.8; stroke-linecap: square"/>
    </g>
    <g id="text_26">
     <!-- −0.1 -->
     <g transform="translate(1047.269794 322.44008) scale(0.21 -0.21)">
      <use xlink:href="#DejaVuSans-2212"/>
      <use xlink:href="#DejaVuSans-30" x="83.789062"/>
      <use xlink:href="#DejaVuSans-2e" x="147.412109"/>
      <use xlink:href="#DejaVuSans-31" x="179.199219"/>
     </g>
    </g>
   </g>
   <g id="xtick_26">
    <g id="line2d_32">
     <path d="M 1032.862461 299.967573 
L 1037.986629 301.396538 
" style="fill: none; stroke: #000000; stroke-width: 0.8; stroke-linecap: square"/>
    </g>
    <g id="text_27">
     <!-- 0.0 -->
     <g transform="translate(1048.298179 294.222497) scale(0.21 -0.21)">
      <use xlink:href="#DejaVuSans-30"/>
      <use xlink:href="#DejaVuSans-2e" x="63.623047"/>
      <use xlink:href="#DejaVuSans-30" x="95.410156"/>
     </g>
    </g>
   </g>
   <g id="xtick_27">
    <g id="line2d_33">
     <path d="M 1033.81315 271.402264 
L 1038.968292 272.814095 
" style="fill: none; stroke: #000000; stroke-width: 0.8; stroke-linecap: square"/>
    </g>
    <g id="text_28">
     <!-- 0.1 -->
     <g transform="translate(1049.338633 265.673721) scale(0.21 -0.21)">
      <use xlink:href="#DejaVuSans-30"/>
      <use xlink:href="#DejaVuSans-2e" x="63.623047"/>
      <use xlink:href="#DejaVuSans-31" x="95.410156"/>
     </g>
    </g>
   </g>
   <g id="xtick_28">
    <g id="line2d_34">
     <path d="M 1034.775072 242.499407 
L 1039.961565 243.8936 
" style="fill: none; stroke: #000000; stroke-width: 0.8; stroke-linecap: square"/>
    </g>
    <g id="text_29">
     <!-- 0.2 -->
     <g transform="translate(1050.391372 236.787886) scale(0.21 -0.21)">
      <use xlink:href="#DejaVuSans-30"/>
      <use xlink:href="#DejaVuSans-2e" x="63.623047"/>
      <use xlink:href="#DejaVuSans-32" x="95.410156"/>
     </g>
    </g>
   </g>
   <g id="xtick_29">
    <g id="line2d_35">
     <path d="M 1035.748429 213.252986 
L 1040.966656 214.629018 
" style="fill: none; stroke: #000000; stroke-width: 0.8; stroke-linecap: square"/>
    </g>
    <g id="text_30">
     <!-- 0.3 -->
     <g transform="translate(1051.456614 207.558987) scale(0.21 -0.21)">
      <use xlink:href="#DejaVuSans-30"/>
      <use xlink:href="#DejaVuSans-2e" x="63.623047"/>
      <use xlink:href="#DejaVuSans-33" x="95.410156"/>
     </g>
    </g>
   </g>
   <g id="xtick_30">
    <g id="line2d_36">
     <path d="M 1036.733425 183.656836 
L 1041.983776 185.014173 
" style="fill: none; stroke: #000000; stroke-width: 0.8; stroke-linecap: square"/>
    </g>
    <g id="text_31">
     <!-- 0.4 -->
     <g transform="translate(1052.534582 177.980876) scale(0.21 -0.21)">
      <use xlink:href="#DejaVuSans-30"/>
      <use xlink:href="#DejaVuSans-2e" x="63.623047"/>
      <use xlink:href="#DejaVuSans-34" x="95.410156"/>
     </g>
    </g>
   </g>
  </g>
  <g id="axes_2">
   <g id="Poly3DCollection_4">
    <path d="M 835.225499 255.237769 
L 835.314604 267.460535 
L 859.391847 274.272543 
L 859.362727 262.013877 
z
" clip-path="url(#pa31bb8ea69)" style="fill: #648fff"/>
    <path d="M 820.886198 267.011693 
L 821.01195 279.296743 
L 835.314604 267.460535 
L 835.225499 255.237769 
z
" clip-path="url(#pa31bb8ea69)" style="fill: #324880"/>
    <path d="M 821.01195 279.296743 
L 845.208559 286.211713 
L 859.391847 274.272543 
L 835.314604 267.460535 
z
" clip-path="url(#pa31bb8ea69)" style="fill: #577ddf"/>
    <path d="M 820.886198 267.011693 
L 835.225499 255.237769 
L 859.362727 262.013877 
L 845.143387 273.890479 
z
" clip-path="url(#pa31bb8ea69)" style="fill: #3f599f"/>
    <path d="M 845.143387 273.890479 
L 859.362727 262.013877 
L 859.391847 274.272543 
L 845.208559 286.211713 
z
" clip-path="url(#pa31bb8ea69)" style="fill: #648fff"/>
    <path d="M 820.886198 267.011693 
L 845.143387 273.890479 
L 845.208559 286.211713 
L 821.01195 279.296743 
z
" clip-path="url(#pa31bb8ea69)" style="fill: #324880"/>
    <path d="M 841.326371 395.148648 
L 865.804936 402.627416 
L 879.944894 389.715135 
L 855.588941 382.348599 
z
" clip-path="url(#pa31bb8ea69)" style="fill: #577ddf"/>
    <path d="M 855.30081 292.993687 
L 855.588941 382.348599 
L 879.944894 389.715135 
L 880.112713 300.101803 
z
" clip-path="url(#pa31bb8ea69)" style="fill: #648fff"/>
    <path d="M 840.767394 305.34545 
L 841.326371 395.148648 
L 855.588941 382.348599 
L 855.30081 292.993687 
z
" clip-path="url(#pa31bb8ea69)" style="fill: #324880"/>
    <path d="M 865.706552 312.563912 
L 880.112713 300.101803 
L 879.944894 389.715135 
L 865.804936 402.627416 
z
" clip-path="url(#pa31bb8ea69)" style="fill: #648fff"/>
    <path d="M 840.767394 305.34545 
L 865.706552 312.563912 
L 865.804936 402.627416 
L 841.326371 395.148648 
z
" clip-path="url(#pa31bb8ea69)" style="fill: #324880"/>
    <path d="M 840.767394 305.34545 
L 855.30081 292.993687 
L 880.112713 300.101803 
L 865.706552 312.563912 
z
" clip-path="url(#pa31bb8ea69)" style="fill: #3f599f"/>
    <path d="M 826.007988 317.889279 
L 826.007988 317.889279 
L 851.075368 325.220678 
L 851.075368 325.220678 
z
" clip-path="url(#pa31bb8ea69)" style="fill: #648fff"/>
    <path d="M 811.017279 330.62969 
L 811.017279 330.62969 
L 826.007988 317.889279 
L 826.007988 317.889279 
z
" clip-path="url(#pa31bb8ea69)" style="fill: #324880"/>
    <path d="M 955.888163 321.809959 
L 955.888163 321.809959 
L 981.603319 329.176839 
L 981.603319 329.176839 
z
" clip-path="url(#pa31bb8ea69)" style="fill: #648fff"/>
    <path d="M 781.816016 436.019414 
L 806.858731 443.938684 
L 821.936879 430.267344 
L 797.02108 422.470911 
z
" clip-path="url(#pa31bb8ea69)" style="fill: #577ddf"/>
    <path d="M 811.017279 330.62969 
L 826.007988 317.889279 
L 851.075368 325.220678 
L 836.213847 338.076697 
z
" clip-path="url(#pa31bb8ea69)" style="fill: #3f599f"/>
    <path d="M 811.017279 330.62969 
L 836.213847 338.076697 
L 851.075368 325.220678 
L 826.007988 317.889279 
z
" clip-path="url(#pa31bb8ea69)" style="fill: #577ddf"/>
    <path d="M 941.88121 334.61213 
L 941.88121 334.61213 
L 955.888163 321.809959 
L 955.888163 321.809959 
z
" clip-path="url(#pa31bb8ea69)" style="fill: #324880"/>
    <path d="M 836.213847 338.076697 
L 851.075368 325.220678 
L 851.075368 325.220678 
L 836.213847 338.076697 
z
" clip-path="url(#pa31bb8ea69)" style="fill: #648fff"/>
    <path d="M 941.88121 334.61213 
L 955.888163 321.809959 
L 981.603319 329.176839 
L 967.735464 342.095461 
z
" clip-path="url(#pa31bb8ea69)" style="fill: #3f599f"/>
    <path d="M 941.88121 334.61213 
L 967.735464 342.095461 
L 981.603319 329.176839 
L 955.888163 321.809959 
z
" clip-path="url(#pa31bb8ea69)" style="fill: #577ddf"/>
    <path d="M 745.822976 328.645702 
L 745.822976 328.645702 
L 770.69298 336.074647 
L 770.69298 336.074647 
z
" clip-path="url(#pa31bb8ea69)" style="fill: #648fff"/>
    <path d="M 795.789786 343.57134 
L 797.02108 422.470911 
L 821.936879 430.267344 
L 821.116509 351.136712 
z
" clip-path="url(#pa31bb8ea69)" style="fill: #648fff"/>
    <path d="M 811.017279 330.62969 
L 836.213847 338.076697 
L 836.213847 338.076697 
L 811.017279 330.62969 
z
" clip-path="url(#pa31bb8ea69)" style="fill: #324880"/>
    <path d="M 730.099809 341.555911 
L 730.099809 341.555911 
L 745.822976 328.645702 
L 745.822976 328.645702 
z
" clip-path="url(#pa31bb8ea69)" style="fill: #324880"/>
    <path d="M 967.735464 342.095461 
L 981.603319 329.176839 
L 981.603319 329.176839 
L 967.735464 342.095461 
z
" clip-path="url(#pa31bb8ea69)" style="fill: #648fff"/>
    <path d="M 780.319854 356.719036 
L 781.816016 436.019414 
L 797.02108 422.470911 
L 795.789786 343.57134 
z
" clip-path="url(#pa31bb8ea69)" style="fill: #324880"/>
    <path d="M 941.88121 334.61213 
L 967.735464 342.095461 
L 967.735464 342.095461 
L 941.88121 334.61213 
z
" clip-path="url(#pa31bb8ea69)" style="fill: #324880"/>
    <path d="M 730.099809 341.555911 
L 745.822976 328.645702 
L 770.69298 336.074647 
L 755.094953 349.102788 
z
" clip-path="url(#pa31bb8ea69)" style="fill: #3f599f"/>
    <path d="M 730.099809 341.555911 
L 755.094953 349.102788 
L 770.69298 336.074647 
L 745.822976 328.645702 
z
" clip-path="url(#pa31bb8ea69)" style="fill: #577ddf"/>
    <path d="M 912.758682 410.679704 
L 938.620172 418.552163 
L 952.792036 404.962026 
L 927.069072 397.212732 
z
" clip-path="url(#pa31bb8ea69)" style="fill: #577ddf"/>
    <path d="M 755.094953 349.102788 
L 770.69298 336.074647 
L 770.69298 336.074647 
L 755.094953 349.102788 
z
" clip-path="url(#pa31bb8ea69)" style="fill: #648fff"/>
    <path d="M 927.65247 347.61701 
L 927.069072 397.212732 
L 952.792036 404.962026 
L 953.647016 355.219576 
z
" clip-path="url(#pa31bb8ea69)" style="fill: #648fff"/>
    <path d="M 805.777694 364.405617 
L 821.116509 351.136712 
L 821.936879 430.267344 
L 806.858731 443.938684 
z
" clip-path="url(#pa31bb8ea69)" style="fill: #648fff"/>
    <path d="M 730.099809 341.555911 
L 755.094953 349.102788 
L 755.094953 349.102788 
L 730.099809 341.555911 
z
" clip-path="url(#pa31bb8ea69)" style="fill: #324880"/>
    <path d="M 913.196633 360.829454 
L 912.758682 410.679704 
L 927.069072 397.212732 
L 927.65247 347.61701 
z
" clip-path="url(#pa31bb8ea69)" style="fill: #324880"/>
    <path d="M 780.319854 356.719036 
L 805.777694 364.405617 
L 806.858731 443.938684 
L 781.816016 436.019414 
z
" clip-path="url(#pa31bb8ea69)" style="fill: #324880"/>
    <path d="M 939.332669 368.554128 
L 953.647016 355.219576 
L 952.792036 404.962026 
L 938.620172 418.552163 
z
" clip-path="url(#pa31bb8ea69)" style="fill: #648fff"/>
    <path d="M 780.319854 356.719036 
L 795.789786 343.57134 
L 821.116509 351.136712 
L 805.777694 364.405617 
z
" clip-path="url(#pa31bb8ea69)" style="fill: #3f599f"/>
    <path d="M 913.196633 360.829454 
L 939.332669 368.554128 
L 938.620172 418.552163 
L 912.758682 410.679704 
z
" clip-path="url(#pa31bb8ea69)" style="fill: #324880"/>
    <path d="M 913.196633 360.829454 
L 927.65247 347.61701 
L 953.647016 355.219576 
L 939.332669 368.554128 
z
" clip-path="url(#pa31bb8ea69)" style="fill: #3f599f"/>
    <path d="M 846.676324 358.771711 
L 846.796017 382.408772 
L 872.465212 390.185013 
L 872.472463 366.477303 
z
" clip-path="url(#pa31bb8ea69)" style="fill: #648fff"/>
    <path d="M 831.667767 395.923126 
L 857.472977 403.82449 
L 872.465212 390.185013 
L 846.796017 382.408772 
z
" clip-path="url(#pa31bb8ea69)" style="fill: #577ddf"/>
    <path d="M 831.471715 372.163509 
L 831.667767 395.923126 
L 846.796017 382.408772 
L 846.676324 358.771711 
z
" clip-path="url(#pa31bb8ea69)" style="fill: #324880"/>
    <path d="M 857.405219 379.993708 
L 872.472463 366.477303 
L 872.465212 390.185013 
L 857.472977 403.82449 
z
" clip-path="url(#pa31bb8ea69)" style="fill: #648fff"/>
    <path d="M 831.471715 372.163509 
L 846.676324 358.771711 
L 872.472463 366.477303 
L 857.405219 379.993708 
z
" clip-path="url(#pa31bb8ea69)" style="fill: #3f599f"/>
    <path d="M 831.471715 372.163509 
L 857.405219 379.993708 
L 857.472977 403.82449 
L 831.667767 395.923126 
z
" clip-path="url(#pa31bb8ea69)" style="fill: #324880"/>
   </g>
   <g id="Poly3DCollection_5">
    <path d="M 709.701554 344.310271 
L 915.863708 406.895182 
L 1028.112062 301.315556 
L 830.353749 246.0754 
z
" clip-path="url(#pa31bb8ea69)" style="fill-opacity: 0.25"/>
   </g>
   <g id="Poly3DCollection_6">
    <path d="M 869.613385 280.829614 
L 883.710115 268.848984 
L 908.27042 275.743863 
L 894.299004 287.829894 
z
" clip-path="url(#pa31bb8ea69)" style="fill: #3f599f"/>
    <path d="M 883.710115 268.848984 
L 883.837291 219.855011 
L 908.645095 226.602835 
L 908.27042 275.743863 
z
" clip-path="url(#pa31bb8ea69)" style="fill: #324880"/>
    <path d="M 869.613385 280.829614 
L 869.599343 231.580494 
L 883.837291 219.855011 
L 883.710115 268.848984 
z
" clip-path="url(#pa31bb8ea69)" style="fill: #648fff"/>
    <path d="M 933.046446 282.699303 
L 933.046446 282.699303 
L 958.041049 289.716104 
L 958.041049 289.716104 
z
" clip-path="url(#pa31bb8ea69)" style="fill: #324880"/>
    <path d="M 806.329262 278.964315 
L 806.023368 255.863311 
L 830.515845 262.778163 
L 830.707283 285.948132 
z
" clip-path="url(#pa31bb8ea69)" style="fill: #324880"/>
    <path d="M 791.549699 291.099735 
L 806.329262 278.964315 
L 830.707283 285.948132 
L 816.04942 298.191006 
z
" clip-path="url(#pa31bb8ea69)" style="fill: #3f599f"/>
    <path d="M 919.203108 294.892131 
L 919.203108 294.892131 
L 933.046446 282.699303 
L 933.046446 282.699303 
z
" clip-path="url(#pa31bb8ea69)" style="fill: #648fff"/>
    <path d="M 791.549699 291.099735 
L 791.171015 267.879078 
L 806.023368 255.863311 
L 806.329262 278.964315 
z
" clip-path="url(#pa31bb8ea69)" style="fill: #648fff"/>
    <path d="M 894.299004 287.829894 
L 908.27042 275.743863 
L 908.645095 226.602835 
L 894.535012 238.432518 
z
" clip-path="url(#pa31bb8ea69)" style="fill: #324880"/>
    <path d="M 919.203108 294.892131 
L 933.046446 282.699303 
L 958.041049 289.716104 
L 944.32861 302.017151 
z
" clip-path="url(#pa31bb8ea69)" style="fill: #3f599f"/>
    <path d="M 919.203108 294.892131 
L 944.32861 302.017151 
L 958.041049 289.716104 
L 933.046446 282.699303 
z
" clip-path="url(#pa31bb8ea69)" style="fill: #577ddf"/>
    <path d="M 869.613385 280.829614 
L 894.299004 287.829894 
L 894.535012 238.432518 
L 869.599343 231.580494 
z
" clip-path="url(#pa31bb8ea69)" style="fill: #648fff"/>
    <path d="M 869.599343 231.580494 
L 894.535012 238.432518 
L 908.645095 226.602835 
L 883.837291 219.855011 
z
" clip-path="url(#pa31bb8ea69)" style="fill: #577ddf"/>
    <path d="M 944.32861 302.017151 
L 958.041049 289.716104 
L 958.041049 289.716104 
L 944.32861 302.017151 
z
" clip-path="url(#pa31bb8ea69)" style="fill: #324880"/>
    <path d="M 816.04942 298.191006 
L 830.707283 285.948132 
L 830.515845 262.778163 
L 815.786335 274.900833 
z
" clip-path="url(#pa31bb8ea69)" style="fill: #324880"/>
    <path d="M 791.171015 267.879078 
L 815.786335 274.900833 
L 830.515845 262.778163 
L 806.023368 255.863311 
z
" clip-path="url(#pa31bb8ea69)" style="fill: #577ddf"/>
    <path d="M 919.203108 294.892131 
L 944.32861 302.017151 
L 944.32861 302.017151 
L 919.203108 294.892131 
z
" clip-path="url(#pa31bb8ea69)" style="fill: #648fff"/>
    <path d="M 791.549699 291.099735 
L 816.04942 298.191006 
L 815.786335 274.900833 
L 791.171015 267.879078 
z
" clip-path="url(#pa31bb8ea69)" style="fill: #648fff"/>
    <path d="M 983.257133 296.795082 
L 983.257133 296.795082 
L 1008.697656 303.937068 
L 1008.697656 303.937068 
z
" clip-path="url(#pa31bb8ea69)" style="fill: #324880"/>
    <path d="M 969.678475 309.205796 
L 969.678475 309.205796 
L 983.257133 296.795082 
L 983.257133 296.795082 
z
" clip-path="url(#pa31bb8ea69)" style="fill: #648fff"/>
    <path d="M 969.678475 309.205796 
L 995.255722 316.458922 
L 1008.697656 303.937068 
L 983.257133 296.795082 
z
" clip-path="url(#pa31bb8ea69)" style="fill: #577ddf"/>
    <path d="M 969.678475 309.205796 
L 983.257133 296.795082 
L 1008.697656 303.937068 
L 995.255722 316.458922 
z
" clip-path="url(#pa31bb8ea69)" style="fill: #3f599f"/>
    <path d="M 995.255722 316.458922 
L 1008.697656 303.937068 
L 1008.697656 303.937068 
L 995.255722 316.458922 
z
" clip-path="url(#pa31bb8ea69)" style="fill: #324880"/>
    <path d="M 905.145915 307.273317 
L 905.145915 307.273317 
L 930.403389 314.50908 
L 930.403389 314.50908 
z
" clip-path="url(#pa31bb8ea69)" style="fill: #324880"/>
    <path d="M 969.678475 309.205796 
L 995.255722 316.458922 
L 995.255722 316.458922 
L 969.678475 309.205796 
z
" clip-path="url(#pa31bb8ea69)" style="fill: #648fff"/>
    <path d="M 761.301945 315.936004 
L 776.542362 303.422179 
L 801.16465 310.623404 
L 786.047662 323.249759 
z
" clip-path="url(#pa31bb8ea69)" style="fill: #3f599f"/>
    <path d="M 890.869873 319.847258 
L 890.869873 319.847258 
L 905.145915 307.273317 
L 905.145915 307.273317 
z
" clip-path="url(#pa31bb8ea69)" style="fill: #648fff"/>
    <path d="M 890.869873 319.847258 
L 905.145915 307.273317 
L 930.403389 314.50908 
L 916.260396 327.196366 
z
" clip-path="url(#pa31bb8ea69)" style="fill: #3f599f"/>
    <path d="M 890.869873 319.847258 
L 916.260396 327.196366 
L 930.403389 314.50908 
L 905.145915 307.273317 
z
" clip-path="url(#pa31bb8ea69)" style="fill: #577ddf"/>
    <path d="M 776.542362 303.422179 
L 774.983146 223.204897 
L 800.006615 230.161109 
L 801.16465 310.623404 
z
" clip-path="url(#pa31bb8ea69)" style="fill: #324880"/>
    <path d="M 916.260396 327.196366 
L 930.403389 314.50908 
L 930.403389 314.50908 
L 916.260396 327.196366 
z
" clip-path="url(#pa31bb8ea69)" style="fill: #324880"/>
    <path d="M 761.301945 315.936004 
L 759.476874 235.293613 
L 774.983146 223.204897 
L 776.542362 303.422179 
z
" clip-path="url(#pa31bb8ea69)" style="fill: #648fff"/>
    <path d="M 890.869873 319.847258 
L 916.260396 327.196366 
L 916.260396 327.196366 
L 890.869873 319.847258 
z
" clip-path="url(#pa31bb8ea69)" style="fill: #648fff"/>
    <path d="M 786.047662 323.249759 
L 801.16465 310.623404 
L 800.006615 230.161109 
L 784.627799 242.360347 
z
" clip-path="url(#pa31bb8ea69)" style="fill: #324880"/>
    <path d="M 761.301945 315.936004 
L 786.047662 323.249759 
L 784.627799 242.360347 
L 759.476874 235.293613 
z
" clip-path="url(#pa31bb8ea69)" style="fill: #648fff"/>
    <path d="M 759.476874 235.293613 
L 784.627799 242.360347 
L 800.006615 230.161109 
L 774.983146 223.204897 
z
" clip-path="url(#pa31bb8ea69)" style="fill: #577ddf"/>
    <path d="M 861.640476 345.591701 
L 876.369832 332.618493 
L 901.89448 340.083629 
L 887.30033 353.175636 
z
" clip-path="url(#pa31bb8ea69)" style="fill: #3f599f"/>
    <path d="M 876.369832 332.618493 
L 876.474579 238.293072 
L 902.500431 245.467042 
L 901.89448 340.083629 
z
" clip-path="url(#pa31bb8ea69)" style="fill: #324880"/>
    <path d="M 861.640476 345.591701 
L 861.456138 250.761097 
L 876.474579 238.293072 
L 876.369832 332.618493 
z
" clip-path="url(#pa31bb8ea69)" style="fill: #648fff"/>
    <path d="M 887.30033 353.175636 
L 901.89448 340.083629 
L 902.500431 245.467042 
L 887.622577 258.051494 
z
" clip-path="url(#pa31bb8ea69)" style="fill: #324880"/>
    <path d="M 861.640476 345.591701 
L 887.30033 353.175636 
L 887.622577 258.051494 
L 861.456138 250.761097 
z
" clip-path="url(#pa31bb8ea69)" style="fill: #648fff"/>
    <path d="M 861.456138 250.761097 
L 887.622577 258.051494 
L 902.500431 245.467042 
L 876.474579 238.293072 
z
" clip-path="url(#pa31bb8ea69)" style="fill: #577ddf"/>
    <path d="M 898.50822 374.254471 
L 898.582309 361.353405 
L 924.932506 369.164035 
L 924.786948 382.104217 
z
" clip-path="url(#pa31bb8ea69)" style="fill: #324880"/>
    <path d="M 883.58157 387.897231 
L 883.615724 374.928309 
L 898.582309 361.353405 
L 898.50822 374.254471 
z
" clip-path="url(#pa31bb8ea69)" style="fill: #648fff"/>
    <path d="M 883.58157 387.897231 
L 898.50822 374.254471 
L 924.786948 382.104217 
L 910.004195 395.875113 
z
" clip-path="url(#pa31bb8ea69)" style="fill: #3f599f"/>
    <path d="M 883.615724 374.928309 
L 910.110607 382.866785 
L 924.932506 369.164035 
L 898.582309 361.353405 
z
" clip-path="url(#pa31bb8ea69)" style="fill: #577ddf"/>
    <path d="M 910.004195 395.875113 
L 924.786948 382.104217 
L 924.932506 369.164035 
L 910.110607 382.866785 
z
" clip-path="url(#pa31bb8ea69)" style="fill: #324880"/>
    <path d="M 883.58157 387.897231 
L 910.004195 395.875113 
L 910.110607 382.866785 
L 883.615724 374.928309 
z
" clip-path="url(#pa31bb8ea69)" style="fill: #648fff"/>
   </g>
   <g id="text_32">
    <!-- Imaginary Amplitude (ρ) -->
    <g transform="translate(735.696563 51.6) scale(0.21 -0.21)">
     <defs>
      <path id="DejaVuSans-49" d="M 628 4666 
L 1259 4666 
L 1259 0 
L 628 0 
L 628 4666 
z
" transform="scale(0.015625)"/>
      <path id="DejaVuSans-67" d="M 2906 1791 
Q 2906 2416 2648 2759 
Q 2391 3103 1925 3103 
Q 1463 3103 1205 2759 
Q 947 2416 947 1791 
Q 947 1169 1205 825 
Q 1463 481 1925 481 
Q 2391 481 2648 825 
Q 2906 1169 2906 1791 
z
M 3481 434 
Q 3481 -459 3084 -895 
Q 2688 -1331 1869 -1331 
Q 1566 -1331 1297 -1286 
Q 1028 -1241 775 -1147 
L 775 -588 
Q 1028 -725 1275 -790 
Q 1522 -856 1778 -856 
Q 2344 -856 2625 -561 
Q 2906 -266 2906 331 
L 2906 616 
Q 2728 306 2450 153 
Q 2172 0 1784 0 
Q 1141 0 747 490 
Q 353 981 353 1791 
Q 353 2603 747 3093 
Q 1141 3584 1784 3584 
Q 2172 3584 2450 3431 
Q 2728 3278 2906 2969 
L 2906 3500 
L 3481 3500 
L 3481 434 
z
" transform="scale(0.015625)"/>
      <path id="DejaVuSans-6e" d="M 3513 2113 
L 3513 0 
L 2938 0 
L 2938 2094 
Q 2938 2591 2744 2837 
Q 2550 3084 2163 3084 
Q 1697 3084 1428 2787 
Q 1159 2491 1159 1978 
L 1159 0 
L 581 0 
L 581 3500 
L 1159 3500 
L 1159 2956 
Q 1366 3272 1645 3428 
Q 1925 3584 2291 3584 
Q 2894 3584 3203 3211 
Q 3513 2838 3513 2113 
z
" transform="scale(0.015625)"/>
      <path id="DejaVuSans-72" d="M 2631 2963 
Q 2534 3019 2420 3045 
Q 2306 3072 2169 3072 
Q 1681 3072 1420 2755 
Q 1159 2438 1159 1844 
L 1159 0 
L 581 0 
L 581 3500 
L 1159 3500 
L 1159 2956 
Q 1341 3275 1631 3429 
Q 1922 3584 2338 3584 
Q 2397 3584 2469 3576 
Q 2541 3569 2628 3553 
L 2631 2963 
z
" transform="scale(0.015625)"/>
      <path id="DejaVuSans-79" d="M 2059 -325 
Q 1816 -950 1584 -1140 
Q 1353 -1331 966 -1331 
L 506 -1331 
L 506 -850 
L 844 -850 
Q 1081 -850 1212 -737 
Q 1344 -625 1503 -206 
L 1606 56 
L 191 3500 
L 800 3500 
L 1894 763 
L 2988 3500 
L 3597 3500 
L 2059 -325 
z
" transform="scale(0.015625)"/>
     </defs>
     <use xlink:href="#DejaVuSans-49"/>
     <use xlink:href="#DejaVuSans-6d" x="29.492188"/>
     <use xlink:href="#DejaVuSans-61" x="126.904297"/>
     <use xlink:href="#DejaVuSans-67" x="188.183594"/>
     <use xlink:href="#DejaVuSans-69" x="251.660156"/>
     <use xlink:href="#DejaVuSans-6e" x="279.443359"/>
     <use xlink:href="#DejaVuSans-61" x="342.822266"/>
     <use xlink:href="#DejaVuSans-72" x="404.101562"/>
     <use xlink:href="#DejaVuSans-79" x="445.214844"/>
     <use xlink:href="#DejaVuSans-20" x="504.394531"/>
     <use xlink:href="#DejaVuSans-41" x="536.181641"/>
     <use xlink:href="#DejaVuSans-6d" x="604.589844"/>
     <use xlink:href="#DejaVuSans-70" x="702.001953"/>
     <use xlink:href="#DejaVuSans-6c" x="765.478516"/>
     <use xlink:href="#DejaVuSans-69" x="793.261719"/>
     <use xlink:href="#DejaVuSans-74" x="821.044922"/>
     <use xlink:href="#DejaVuSans-75" x="860.253906"/>
     <use xlink:href="#DejaVuSans-64" x="923.632812"/>
     <use xlink:href="#DejaVuSans-65" x="987.109375"/>
     <use xlink:href="#DejaVuSans-20" x="1048.632812"/>
     <use xlink:href="#DejaVuSans-28" x="1080.419922"/>
     <use xlink:href="#DejaVuSans-3c1" x="1119.433594"/>
     <use xlink:href="#DejaVuSans-29" x="1182.910156"/>
    </g>
   </g>
  </g>
 </g>
 <defs>
  <clipPath id="p46de80549e">
   <rect x="28.8" y="57.6" width="518.4" height="518.4"/>
  </clipPath>
  <clipPath id="pa31bb8ea69">
   <rect x="604.8" y="57.6" width="518.4" height="518.4"/>
  </clipPath>
 </defs>
</svg>
