<?xml version="1.0" encoding="utf-8" standalone="no"?>
<!DOCTYPE svg PUBLIC "-//W3C//DTD SVG 1.1//EN"
  "http://www.w3.org/Graphics/SVG/1.1/DTD/svg11.dtd">
<svg xmlns:xlink="http://www.w3.org/1999/xlink" width="1152pt" height="576pt" viewBox="0 0 1152 576" xmlns="http://www.w3.org/2000/svg" version="1.1">
 <metadata>
  <rdf:RDF xmlns:dc="http://purl.org/dc/elements/1.1/" xmlns:cc="http://creativecommons.org/ns#" xmlns:rdf="http://www.w3.org/1999/02/22-rdf-syntax-ns#">
   <cc:Work>
    <dc:type rdf:resource="http://purl.org/dc/dcmitype/StillImage"/>
    <dc:date>2024-11-04T21:01:56.122186</dc:date>
    <dc:format>image/svg+xml</dc:format>
    <dc:creator>
     <cc:Agent>
      <dc:title>Matplotlib v3.9.2, https://matplotlib.org/</dc:title>
     </cc:Agent>
    </dc:creator>
   </cc:Work>
  </rdf:RDF>
 </metadata>
 <defs>
  <style type="text/css">*{stroke-linejoin: round; stroke-linecap: butt}</style>
 </defs>
 <g id="figure_1">
  <g id="patch_1">
   <path d="M 0 576 
L 1152 576 
L 1152 0 
L 0 0 
z
" style="fill: #ffffff"/>
  </g>
  <g id="patch_2">
   <path d="M 28.8 576 
L 547.2 576 
L 547.2 57.6 
L 28.8 57.6 
z
" style="fill: #ffffff"/>
  </g>
  <g id="pane3d_1">
   <g id="patch_3">
    <path d="M 130.07018 436.456468 
L 253.494133 330.550231 
L 251.743197 126.70673 
L 122.643358 223.613571 
" style="fill: #f2f2f2; opacity: 0.5; stroke: #f2f2f2; stroke-linejoin: miter"/>
   </g>
  </g>
  <g id="pane3d_2">
   <g id="patch_4">
    <path d="M 253.494133 330.550231 
L 455.554898 390.069341 
L 462.583588 181.103065 
L 251.743197 126.70673 
" style="fill: #e6e6e6; opacity: 0.5; stroke: #e6e6e6; stroke-linejoin: miter"/>
   </g>
  </g>
  <g id="pane3d_3">
   <g id="patch_5">
    <path d="M 130.07018 436.456468 
L 340.912731 504.076731 
L 455.554898 390.069341 
L 253.494133 330.550231 
" style="fill: #ececec; opacity: 0.5; stroke: #ececec; stroke-linejoin: miter"/>
   </g>
  </g>
  <g id="grid3d_1">
   <g id="Line3DCollection_1">
    <path d="M 148.107564 442.241318 
L 270.817434 335.65299 
L 269.793879 131.363764 
" style="fill: none; stroke: #b0b0b0; stroke-width: 0.8"/>
    <path d="M 204.73198 460.40159 
L 325.154862 351.658648 
L 326.443642 145.979273 
" style="fill: none; stroke: #b0b0b0; stroke-width: 0.8"/>
    <path d="M 262.543747 478.942662 
L 380.560935 367.979086 
L 384.255639 160.894634 
" style="fill: none; stroke: #b0b0b0; stroke-width: 0.8"/>
    <path d="M 321.580608 497.876639 
L 437.067491 384.623682 
L 443.266006 176.119173 
" style="fill: none; stroke: #b0b0b0; stroke-width: 0.8"/>
   </g>
  </g>
  <g id="grid3d_2">
   <g id="Line3DCollection_2">
    <path d="M 134.777648 214.505149 
L 141.642324 426.526772 
L 351.684419 493.364686 
" style="fill: none; stroke: #b0b0b0; stroke-width: 0.8"/>
    <path d="M 171.455878 186.973191 
L 176.657452 396.481386 
L 384.248591 460.980823 
" style="fill: none; stroke: #b0b0b0; stroke-width: 0.8"/>
    <path d="M 206.831169 160.419264 
L 210.480196 367.459145 
L 415.662622 429.740732 
" style="fill: none; stroke: #b0b0b0; stroke-width: 0.8"/>
    <path d="M 240.971738 134.792162 
L 243.170446 339.408664 
L 445.986389 399.584868 
" style="fill: none; stroke: #b0b0b0; stroke-width: 0.8"/>
   </g>
  </g>
  <g id="grid3d_3">
   <g id="Line3DCollection_3">
    <path d="M 456.039898 375.650061 
L 253.37314 316.464346 
L 129.558278 421.786044 
" style="fill: none; stroke: #b0b0b0; stroke-width: 0.8"/>
    <path d="M 456.768392 353.991602 
L 253.191452 295.312264 
L 128.789218 399.745802 
" style="fill: none; stroke: #b0b0b0; stroke-width: 0.8"/>
    <path d="M 457.503506 332.136293 
L 253.008171 273.974753 
L 128.012975 377.4997 
" style="fill: none; stroke: #b0b0b0; stroke-width: 0.8"/>
    <path d="M 458.245333 310.081439 
L 252.823277 252.449363 
L 127.229448 355.044842 
" style="fill: none; stroke: #b0b0b0; stroke-width: 0.8"/>
    <path d="M 458.993963 287.824294 
L 252.636747 230.733602 
L 126.438533 332.378274 
" style="fill: none; stroke: #b0b0b0; stroke-width: 0.8"/>
    <path d="M 459.749492 265.362063 
L 252.44856 208.824933 
L 125.640126 309.496988 
" style="fill: none; stroke: #b0b0b0; stroke-width: 0.8"/>
    <path d="M 460.512015 242.691898 
L 252.258694 186.720775 
L 124.83412 286.397919 
" style="fill: none; stroke: #b0b0b0; stroke-width: 0.8"/>
    <path d="M 461.281629 219.810898 
L 252.067126 164.418498 
L 124.020406 263.077943 
" style="fill: none; stroke: #b0b0b0; stroke-width: 0.8"/>
    <path d="M 462.058435 196.716108 
L 251.873834 141.915428 
L 123.198872 239.533875 
" style="fill: none; stroke: #b0b0b0; stroke-width: 0.8"/>
   </g>
  </g>
  <g id="axis3d_1">
   <g id="line2d_1">
    <path d="M 130.07018 436.456468 
L 340.912731 504.076731 
" style="fill: none; stroke: #000000; stroke-width: 0.8; stroke-linecap: square"/>
   </g>
   <g id="xtick_1">
    <g id="line2d_2">
     <path d="M 149.15236 441.333787 
L 146.014717 444.059209 
" style="fill: none; stroke: #000000; stroke-width: 0.8; stroke-linecap: square"/>
    </g>
    <g id="text_1">
     <!-- 00 -->
     <g transform="translate(120.823877 485.959845) rotate(-45) scale(0.21 -0.21)">
      <defs>
       <path id="DejaVuSans-30" d="M 2034 4250 
Q 1547 4250 1301 3770 
Q 1056 3291 1056 2328 
Q 1056 1369 1301 889 
Q 1547 409 2034 409 
Q 2525 409 2770 889 
Q 3016 1369 3016 2328 
Q 3016 3291 2770 3770 
Q 2525 4250 2034 4250 
z
M 2034 4750 
Q 2819 4750 3233 4129 
Q 3647 3509 3647 2328 
Q 3647 1150 3233 529 
Q 2819 -91 2034 -91 
Q 1250 -91 836 529 
Q 422 1150 422 2328 
Q 422 3509 836 4129 
Q 1250 4750 2034 4750 
z
" transform="scale(0.015625)"/>
      </defs>
      <use xlink:href="#DejaVuSans-30"/>
      <use xlink:href="#DejaVuSans-30" x="63.623047"/>
     </g>
    </g>
   </g>
   <g id="xtick_2">
    <g id="line2d_3">
     <path d="M 205.757946 459.475133 
L 202.676818 462.257419 
" style="fill: none; stroke: #000000; stroke-width: 0.8; stroke-linecap: square"/>
    </g>
    <g id="text_2">
     <!-- 01 -->
     <g transform="translate(177.445975 504.27764) rotate(-45) scale(0.21 -0.21)">
      <defs>
       <path id="DejaVuSans-31" d="M 794 531 
L 1825 531 
L 1825 4091 
L 703 3866 
L 703 4441 
L 1819 4666 
L 2450 4666 
L 2450 531 
L 3481 531 
L 3481 0 
L 794 0 
L 794 531 
z
" transform="scale(0.015625)"/>
      </defs>
      <use xlink:href="#DejaVuSans-30"/>
      <use xlink:href="#DejaVuSans-31" x="63.623047"/>
     </g>
    </g>
   </g>
   <g id="xtick_3">
    <g id="line2d_4">
     <path d="M 263.54986 477.996682 
L 260.528321 480.837631 
" style="fill: none; stroke: #000000; stroke-width: 0.8; stroke-linecap: square"/>
    </g>
    <g id="text_3">
     <!-- 10 -->
     <g transform="translate(235.256492 522.9799) rotate(-45) scale(0.21 -0.21)">
      <use xlink:href="#DejaVuSans-31"/>
      <use xlink:href="#DejaVuSans-30" x="63.623047"/>
     </g>
    </g>
   </g>
   <g id="xtick_4">
    <g id="line2d_5">
     <path d="M 322.565792 496.910512 
L 319.607072 499.811999 
" style="fill: none; stroke: #000000; stroke-width: 0.8; stroke-linecap: square"/>
    </g>
    <g id="text_4">
     <!-- 11 -->
     <g transform="translate(294.293241 542.078858) rotate(-45) scale(0.21 -0.21)">
      <use xlink:href="#DejaVuSans-31"/>
      <use xlink:href="#DejaVuSans-31" x="63.623047"/>
     </g>
    </g>
   </g>
  </g>
  <g id="axis3d_2">
   <g id="line2d_6">
    <path d="M 455.554898 390.069341 
L 340.912731 504.076731 
" style="fill: none; stroke: #000000; stroke-width: 0.8; stroke-linecap: square"/>
   </g>
   <g id="xtick_5">
    <g id="line2d_7">
     <path d="M 349.939872 492.809551 
L 355.176743 494.475986 
" style="fill: none; stroke: #000000; stroke-width: 0.8; stroke-linecap: square"/>
    </g>
    <g id="text_5">
     <!-- 00 -->
     <g transform="translate(362.536948 505.408703) rotate(-337.5) scale(0.21 -0.21)">
      <use xlink:href="#DejaVuSans-30"/>
      <use xlink:href="#DejaVuSans-30" x="63.623047"/>
     </g>
    </g>
   </g>
   <g id="xtick_6">
    <g id="line2d_8">
     <path d="M 382.525541 460.445465 
L 387.697822 462.052514 
" style="fill: none; stroke: #000000; stroke-width: 0.8; stroke-linecap: square"/>
    </g>
    <g id="text_6">
     <!-- 01 -->
     <g transform="translate(394.927992 472.820772) rotate(-337.5) scale(0.21 -0.21)">
      <use xlink:href="#DejaVuSans-30"/>
      <use xlink:href="#DejaVuSans-31" x="63.623047"/>
     </g>
    </g>
   </g>
   <g id="xtick_7">
    <g id="line2d_9">
     <path d="M 413.960652 429.224112 
L 419.0696 430.774895 
" style="fill: none; stroke: #000000; stroke-width: 0.8; stroke-linecap: square"/>
    </g>
    <g id="text_7">
     <!-- 10 -->
     <g transform="translate(426.175291 441.383538) rotate(-337.5) scale(0.21 -0.21)">
      <use xlink:href="#DejaVuSans-31"/>
      <use xlink:href="#DejaVuSans-30" x="63.623047"/>
     </g>
    </g>
   </g>
   <g id="xtick_8">
    <g id="line2d_10">
     <path d="M 444.305087 399.08602 
L 449.351944 400.58344 
" style="fill: none; stroke: #000000; stroke-width: 0.8; stroke-linecap: square"/>
    </g>
    <g id="text_8">
     <!-- 11 -->
     <g transform="translate(456.338373 411.037112) rotate(-337.5) scale(0.21 -0.21)">
      <use xlink:href="#DejaVuSans-31"/>
      <use xlink:href="#DejaVuSans-31" x="63.623047"/>
     </g>
    </g>
   </g>
  </g>
  <g id="axis3d_3">
   <g id="line2d_11">
    <path d="M 455.554898 390.069341 
L 462.583588 181.103065 
" style="fill: none; stroke: #000000; stroke-width: 0.8; stroke-linecap: square"/>
   </g>
   <g id="xtick_9">
    <g id="line2d_12">
     <path d="M 454.359983 375.159468 
L 459.402667 376.632106 
" style="fill: none; stroke: #000000; stroke-width: 0.8; stroke-linecap: square"/>
    </g>
    <g id="text_9">
     <!-- 0.150 -->
     <g transform="translate(469.55936 369.372247) scale(0.21 -0.21)">
      <defs>
       <path id="DejaVuSans-2e" d="M 684 794 
L 1344 794 
L 1344 0 
L 684 0 
L 684 794 
z
" transform="scale(0.015625)"/>
       <path id="DejaVuSans-35" d="M 691 4666 
L 3169 4666 
L 3169 4134 
L 1269 4134 
L 1269 2991 
Q 1406 3038 1543 3061 
Q 1681 3084 1819 3084 
Q 2600 3084 3056 2656 
Q 3513 2228 3513 1497 
Q 3513 744 3044 326 
Q 2575 -91 1722 -91 
Q 1428 -91 1123 -41 
Q 819 9 494 109 
L 494 744 
Q 775 591 1075 516 
Q 1375 441 1709 441 
Q 2250 441 2565 725 
Q 2881 1009 2881 1497 
Q 2881 1984 2565 2268 
Q 2250 2553 1709 2553 
Q 1456 2553 1204 2497 
Q 953 2441 691 2322 
L 691 4666 
z
" transform="scale(0.015625)"/>
      </defs>
      <use xlink:href="#DejaVuSans-30"/>
      <use xlink:href="#DejaVuSans-2e" x="63.623047"/>
      <use xlink:href="#DejaVuSans-31" x="95.410156"/>
      <use xlink:href="#DejaVuSans-35" x="159.033203"/>
      <use xlink:href="#DejaVuSans-30" x="222.65625"/>
     </g>
    </g>
   </g>
   <g id="xtick_10">
    <g id="line2d_13">
     <path d="M 455.080666 353.505129 
L 460.146809 354.965402 
" style="fill: none; stroke: #000000; stroke-width: 0.8; stroke-linecap: square"/>
    </g>
    <g id="text_10">
     <!-- 0.175 -->
     <g transform="translate(470.348114 347.729841) scale(0.21 -0.21)">
      <defs>
       <path id="DejaVuSans-37" d="M 525 4666 
L 3525 4666 
L 3525 4397 
L 1831 0 
L 1172 0 
L 2766 4134 
L 525 4134 
L 525 4666 
z
" transform="scale(0.015625)"/>
      </defs>
      <use xlink:href="#DejaVuSans-30"/>
      <use xlink:href="#DejaVuSans-2e" x="63.623047"/>
      <use xlink:href="#DejaVuSans-31" x="95.410156"/>
      <use xlink:href="#DejaVuSans-37" x="159.033203"/>
      <use xlink:href="#DejaVuSans-35" x="222.65625"/>
     </g>
    </g>
   </g>
   <g id="xtick_11">
    <g id="line2d_14">
     <path d="M 455.807897 331.654036 
L 460.897718 333.101657 
" style="fill: none; stroke: #000000; stroke-width: 0.8; stroke-linecap: square"/>
    </g>
    <g id="text_11">
     <!-- 0.200 -->
     <g transform="translate(471.144028 325.890957) scale(0.21 -0.21)">
      <defs>
       <path id="DejaVuSans-32" d="M 1228 531 
L 3431 531 
L 3431 0 
L 469 0 
L 469 531 
Q 828 903 1448 1529 
Q 2069 2156 2228 2338 
Q 2531 2678 2651 2914 
Q 2772 3150 2772 3378 
Q 2772 3750 2511 3984 
Q 2250 4219 1831 4219 
Q 1534 4219 1204 4116 
Q 875 4013 500 3803 
L 500 4441 
Q 881 4594 1212 4672 
Q 1544 4750 1819 4750 
Q 2544 4750 2975 4387 
Q 3406 4025 3406 3419 
Q 3406 3131 3298 2873 
Q 3191 2616 2906 2266 
Q 2828 2175 2409 1742 
Q 1991 1309 1228 531 
z
" transform="scale(0.015625)"/>
      </defs>
      <use xlink:href="#DejaVuSans-30"/>
      <use xlink:href="#DejaVuSans-2e" x="63.623047"/>
      <use xlink:href="#DejaVuSans-32" x="95.410156"/>
      <use xlink:href="#DejaVuSans-30" x="159.033203"/>
      <use xlink:href="#DejaVuSans-30" x="222.65625"/>
     </g>
    </g>
   </g>
   <g id="xtick_12">
    <g id="line2d_15">
     <path d="M 456.541766 309.603495 
L 461.655488 311.038173 
" style="fill: none; stroke: #000000; stroke-width: 0.8; stroke-linecap: square"/>
    </g>
    <g id="text_12">
     <!-- 0.225 -->
     <g transform="translate(471.9472 303.852908) scale(0.21 -0.21)">
      <use xlink:href="#DejaVuSans-30"/>
      <use xlink:href="#DejaVuSans-2e" x="63.623047"/>
      <use xlink:href="#DejaVuSans-32" x="95.410156"/>
      <use xlink:href="#DejaVuSans-32" x="159.033203"/>
      <use xlink:href="#DejaVuSans-35" x="222.65625"/>
     </g>
    </g>
   </g>
   <g id="xtick_13">
    <g id="line2d_16">
     <path d="M 457.282364 287.350764 
L 462.420212 288.772198 
" style="fill: none; stroke: #000000; stroke-width: 0.8; stroke-linecap: square"/>
    </g>
    <g id="text_13">
     <!-- 0.250 -->
     <g transform="translate(472.757731 281.612955) scale(0.21 -0.21)">
      <use xlink:href="#DejaVuSans-30"/>
      <use xlink:href="#DejaVuSans-2e" x="63.623047"/>
      <use xlink:href="#DejaVuSans-32" x="95.410156"/>
      <use xlink:href="#DejaVuSans-35" x="159.033203"/>
      <use xlink:href="#DejaVuSans-30" x="222.65625"/>
     </g>
    </g>
   </g>
   <g id="xtick_14">
    <g id="line2d_17">
     <path d="M 458.029785 264.893048 
L 463.191986 266.300934 
" style="fill: none; stroke: #000000; stroke-width: 0.8; stroke-linecap: square"/>
    </g>
    <g id="text_14">
     <!-- 0.275 -->
     <g transform="translate(473.575722 259.168313) scale(0.21 -0.21)">
      <use xlink:href="#DejaVuSans-30"/>
      <use xlink:href="#DejaVuSans-2e" x="63.623047"/>
      <use xlink:href="#DejaVuSans-32" x="95.410156"/>
      <use xlink:href="#DejaVuSans-37" x="159.033203"/>
      <use xlink:href="#DejaVuSans-35" x="222.65625"/>
     </g>
    </g>
   </g>
   <g id="xtick_15">
    <g id="line2d_18">
     <path d="M 458.784122 242.227502 
L 463.970909 243.621527 
" style="fill: none; stroke: #000000; stroke-width: 0.8; stroke-linecap: square"/>
    </g>
    <g id="text_15">
     <!-- 0.300 -->
     <g transform="translate(474.401276 236.516141) scale(0.21 -0.21)">
      <defs>
       <path id="DejaVuSans-33" d="M 2597 2516 
Q 3050 2419 3304 2112 
Q 3559 1806 3559 1356 
Q 3559 666 3084 287 
Q 2609 -91 1734 -91 
Q 1441 -91 1130 -33 
Q 819 25 488 141 
L 488 750 
Q 750 597 1062 519 
Q 1375 441 1716 441 
Q 2309 441 2620 675 
Q 2931 909 2931 1356 
Q 2931 1769 2642 2001 
Q 2353 2234 1838 2234 
L 1294 2234 
L 1294 2753 
L 1863 2753 
Q 2328 2753 2575 2939 
Q 2822 3125 2822 3475 
Q 2822 3834 2567 4026 
Q 2313 4219 1838 4219 
Q 1578 4219 1281 4162 
Q 984 4106 628 3988 
L 628 4550 
Q 988 4650 1302 4700 
Q 1616 4750 1894 4750 
Q 2613 4750 3031 4423 
Q 3450 4097 3450 3541 
Q 3450 3153 3228 2886 
Q 3006 2619 2597 2516 
z
" transform="scale(0.015625)"/>
      </defs>
      <use xlink:href="#DejaVuSans-30"/>
      <use xlink:href="#DejaVuSans-2e" x="63.623047"/>
      <use xlink:href="#DejaVuSans-33" x="95.410156"/>
      <use xlink:href="#DejaVuSans-30" x="159.033203"/>
      <use xlink:href="#DejaVuSans-30" x="222.65625"/>
     </g>
    </g>
   </g>
   <g id="xtick_16">
    <g id="line2d_19">
     <path d="M 459.545472 219.351227 
L 464.757081 220.731071 
" style="fill: none; stroke: #000000; stroke-width: 0.8; stroke-linecap: square"/>
    </g>
    <g id="text_16">
     <!-- 0.325 -->
     <g transform="translate(475.234498 213.653549) scale(0.21 -0.21)">
      <use xlink:href="#DejaVuSans-30"/>
      <use xlink:href="#DejaVuSans-2e" x="63.623047"/>
      <use xlink:href="#DejaVuSans-33" x="95.410156"/>
      <use xlink:href="#DejaVuSans-32" x="159.033203"/>
      <use xlink:href="#DejaVuSans-35" x="222.65625"/>
     </g>
    </g>
   </g>
   <g id="xtick_17">
    <g id="line2d_20">
     <path d="M 460.313934 196.261271 
L 465.550603 197.626609 
" style="fill: none; stroke: #000000; stroke-width: 0.8; stroke-linecap: square"/>
    </g>
    <g id="text_17">
     <!-- 0.350 -->
     <g transform="translate(476.075497 190.57759) scale(0.21 -0.21)">
      <use xlink:href="#DejaVuSans-30"/>
      <use xlink:href="#DejaVuSans-2e" x="63.623047"/>
      <use xlink:href="#DejaVuSans-33" x="95.410156"/>
      <use xlink:href="#DejaVuSans-35" x="159.033203"/>
      <use xlink:href="#DejaVuSans-30" x="222.65625"/>
     </g>
    </g>
   </g>
  </g>
  <g id="axes_1">
   <g id="Poly3DCollection_1">
    <path d="M 240.303891 457.285357 
L 255.98088 442.892409 
L 282.301944 451.173411 
L 266.767595 465.703389 
z
" clip-path="url(#p38b16344da)" style="fill: #3f599f"/>
    <path d="M 293.484895 474.202089 
L 308.873163 459.533115 
L 335.698118 467.972649 
L 320.459455 482.782623 
z
" clip-path="url(#p38b16344da)" style="fill: #3f599f"/>
    <path d="M 208.163782 486.792996 
L 224.36703 471.916892 
L 250.9745 480.475383 
L 234.91614 495.495491 
z
" clip-path="url(#p38b16344da)" style="fill: #3f599f"/>
    <path d="M 347.695008 491.446178 
L 362.780462 476.493161 
L 390.123918 485.095823 
L 375.195361 500.193965 
z
" clip-path="url(#p38b16344da)" style="fill: #3f599f"/>
    <path d="M 255.98088 442.892409 
L 253.777632 176.388575 
L 281.581147 183.807497 
L 282.301944 451.173411 
z
" clip-path="url(#p38b16344da)" style="fill: #324880"/>
    <path d="M 240.303891 457.285357 
L 237.188719 189.285711 
L 253.777632 176.388575 
L 255.98088 442.892409 
z
" clip-path="url(#p38b16344da)" style="fill: #648fff"/>
    <path d="M 308.873163 459.533115 
L 309.449126 264.174428 
L 337.396596 271.994516 
L 335.698118 467.972649 
z
" clip-path="url(#p38b16344da)" style="fill: #324880"/>
    <path d="M 261.929188 504.282788 
L 277.839077 489.116575 
L 304.964507 497.841672 
L 289.206754 513.156133 
z
" clip-path="url(#p38b16344da)" style="fill: #3f599f"/>
    <path d="M 293.484895 474.202089 
L 293.421198 277.768717 
L 309.449126 264.174428 
L 308.873163 459.533115 
z
" clip-path="url(#p38b16344da)" style="fill: #648fff"/>
    <path d="M 402.964394 509.027218 
L 417.73228 493.781828 
L 445.609416 502.552394 
L 431.006064 517.947197 
z
" clip-path="url(#p38b16344da)" style="fill: #3f599f"/>
    <path d="M 266.767595 465.703389 
L 282.301944 451.173411 
L 281.581147 183.807497 
L 265.151385 196.834437 
z
" clip-path="url(#p38b16344da)" style="fill: #324880"/>
    <path d="M 224.36703 471.916892 
L 221.737633 297.28858 
L 249.327346 305.296164 
L 250.9745 480.475383 
z
" clip-path="url(#p38b16344da)" style="fill: #324880"/>
    <path d="M 240.303891 457.285357 
L 266.767595 465.703389 
L 265.151385 196.834437 
L 237.188719 189.285711 
z
" clip-path="url(#p38b16344da)" style="fill: #648fff"/>
    <path d="M 320.459455 482.782623 
L 335.698118 467.972649 
L 337.396596 271.994516 
L 321.531118 285.724967 
z
" clip-path="url(#p38b16344da)" style="fill: #324880"/>
    <path d="M 208.163782 486.792996 
L 204.903216 311.208954 
L 221.737633 297.28858 
L 224.36703 471.916892 
z
" clip-path="url(#p38b16344da)" style="fill: #648fff"/>
    <path d="M 362.780462 476.493161 
L 365.230206 307.0882 
L 393.579173 315.157046 
L 390.123918 485.095823 
z
" clip-path="url(#p38b16344da)" style="fill: #324880"/>
    <path d="M 174.930953 517.303854 
L 191.687411 501.919852 
L 218.585777 510.770016 
L 201.976439 526.305479 
z
" clip-path="url(#p38b16344da)" style="fill: #3f599f"/>
    <path d="M 293.484895 474.202089 
L 320.459455 482.782623 
L 321.531118 285.724967 
L 293.421198 277.768717 
z
" clip-path="url(#p38b16344da)" style="fill: #648fff"/>
    <path d="M 347.695008 491.446178 
L 349.616025 321.115149 
L 365.230206 307.0882 
L 362.780462 476.493161 
z
" clip-path="url(#p38b16344da)" style="fill: #648fff"/>
    <path d="M 277.839077 489.116575 
L 277.366664 360.484821 
L 305.239946 368.809454 
L 304.964507 497.841672 
z
" clip-path="url(#p38b16344da)" style="fill: #324880"/>
    <path d="M 316.752744 522.116795 
L 332.354608 506.651902 
L 360.013273 515.548518 
L 344.571139 531.16607 
z
" clip-path="url(#p38b16344da)" style="fill: #3f599f"/>
    <path d="M 261.929188 504.282788 
L 261.011044 374.956364 
L 277.366664 360.484821 
L 277.839077 489.116575 
z
" clip-path="url(#p38b16344da)" style="fill: #648fff"/>
    <path d="M 234.91614 495.495491 
L 250.9745 480.475383 
L 249.327346 305.296164 
L 232.648669 319.356367 
z
" clip-path="url(#p38b16344da)" style="fill: #324880"/>
    <path d="M 208.163782 486.792996 
L 234.91614 495.495491 
L 232.648669 319.356367 
L 204.903216 311.208954 
z
" clip-path="url(#p38b16344da)" style="fill: #648fff"/>
    <path d="M 375.195361 500.193965 
L 390.123918 485.095823 
L 393.579173 315.157046 
L 378.13375 329.325112 
z
" clip-path="url(#p38b16344da)" style="fill: #324880"/>
    <path d="M 347.695008 491.446178 
L 375.195361 500.193965 
L 378.13375 329.325112 
L 349.616025 321.115149 
z
" clip-path="url(#p38b16344da)" style="fill: #648fff"/>
    <path d="M 289.206754 513.156133 
L 304.964507 497.841672 
L 305.239946 368.809454 
L 289.044983 383.426394 
z
" clip-path="url(#p38b16344da)" style="fill: #324880"/>
    <path d="M 229.289995 535.396327 
L 245.748485 519.707156 
L 273.179453 528.732559 
L 256.875627 544.577731 
z
" clip-path="url(#p38b16344da)" style="fill: #3f599f"/>
    <path d="M 332.354608 506.651902 
L 333.250834 394.912075 
L 361.581024 403.462222 
L 360.013273 515.548518 
z
" clip-path="url(#p38b16344da)" style="fill: #324880"/>
    <path d="M 261.929188 504.282788 
L 289.206754 513.156133 
L 289.044983 383.426394 
L 261.011044 374.956364 
z
" clip-path="url(#p38b16344da)" style="fill: #648fff"/>
    <path d="M 316.752744 522.116795 
L 317.279145 409.775995 
L 333.250834 394.912075 
L 332.354608 506.651902 
z
" clip-path="url(#p38b16344da)" style="fill: #648fff"/>
    <path d="M 372.666 540.305279 
L 387.94447 524.532796 
L 416.152248 533.606038 
L 401.041469 549.53577 
z
" clip-path="url(#p38b16344da)" style="fill: #3f599f"/>
    <path d="M 191.687411 501.919852 
L 187.673725 320.83577 
L 215.601952 329.111469 
L 218.585777 510.770016 
z
" clip-path="url(#p38b16344da)" style="fill: #324880"/>
    <path d="M 174.930953 517.303854 
L 170.225112 335.223212 
L 187.673725 320.83577 
L 191.687411 501.919852 
z
" clip-path="url(#p38b16344da)" style="fill: #648fff"/>
    <path d="M 293.421198 277.768717 
L 321.531118 285.724967 
L 337.396596 271.994516 
L 309.449126 264.174428 
z
" clip-path="url(#p38b16344da)" style="fill: #577ddf"/>
    <path d="M 140.548714 548.86998 
L 157.887205 532.951616 
L 185.080917 542.108623 
L 167.891749 558.186427 
z
" clip-path="url(#p38b16344da)" style="fill: #3f599f"/>
    <path d="M 344.571139 531.16607 
L 360.013273 515.548518 
L 361.581024 403.462222 
L 345.776969 418.476432 
z
" clip-path="url(#p38b16344da)" style="fill: #324880"/>
    <path d="M 316.752744 522.116795 
L 344.571139 531.16607 
L 345.776969 418.476432 
L 317.279145 409.775995 
z
" clip-path="url(#p38b16344da)" style="fill: #648fff"/>
    <path d="M 417.73228 493.781828 
L 424.644603 230.782424 
L 454.135485 238.696856 
L 445.609416 502.552394 
z
" clip-path="url(#p38b16344da)" style="fill: #324880"/>
    <path d="M 284.737421 553.85105 
L 300.882674 537.84754 
L 328.862221 547.053438 
L 312.879545 563.217673 
z
" clip-path="url(#p38b16344da)" style="fill: #3f599f"/>
    <path d="M 204.903216 311.208954 
L 232.648669 319.356367 
L 249.327346 305.296164 
L 221.737633 297.28858 
z
" clip-path="url(#p38b16344da)" style="fill: #577ddf"/>
    <path d="M 261.011044 374.956364 
L 289.044983 383.426394 
L 305.239946 368.809454 
L 277.366664 360.484821 
z
" clip-path="url(#p38b16344da)" style="fill: #577ddf"/>
    <path d="M 402.964394 509.027218 
L 409.099321 244.54243 
L 424.644603 230.782424 
L 417.73228 493.781828 
z
" clip-path="url(#p38b16344da)" style="fill: #648fff"/>
    <path d="M 349.616025 321.115149 
L 378.13375 329.325112 
L 393.579173 315.157046 
L 365.230206 307.0882 
z
" clip-path="url(#p38b16344da)" style="fill: #577ddf"/>
    <path d="M 201.976439 526.305479 
L 218.585777 510.770016 
L 215.601952 329.111469 
L 198.31185 343.64613 
z
" clip-path="url(#p38b16344da)" style="fill: #324880"/>
    <path d="M 237.188719 189.285711 
L 265.151385 196.834437 
L 281.581147 183.807497 
L 253.777632 176.388575 
z
" clip-path="url(#p38b16344da)" style="fill: #577ddf"/>
    <path d="M 245.748485 519.707156 
L 243.988948 353.831185 
L 272.395806 362.332133 
L 273.179453 528.732559 
z
" clip-path="url(#p38b16344da)" style="fill: #324880"/>
    <path d="M 174.930953 517.303854 
L 201.976439 526.305479 
L 198.31185 343.64613 
L 170.225112 335.223212 
z
" clip-path="url(#p38b16344da)" style="fill: #648fff"/>
    <path d="M 229.289995 535.396327 
L 226.921658 368.610603 
L 243.988948 353.831185 
L 245.748485 519.707156 
z
" clip-path="url(#p38b16344da)" style="fill: #648fff"/>
    <path d="M 431.006064 517.947197 
L 445.609416 502.552394 
L 454.135485 238.696856 
L 438.774606 252.599407 
z
" clip-path="url(#p38b16344da)" style="fill: #324880"/>
    <path d="M 317.279145 409.775995 
L 345.776969 418.476432 
L 361.581024 403.462222 
L 333.250834 394.912075 
z
" clip-path="url(#p38b16344da)" style="fill: #577ddf"/>
    <path d="M 387.94447 524.532796 
L 391.397565 352.182884 
L 420.676504 360.709777 
L 416.152248 533.606038 
z
" clip-path="url(#p38b16344da)" style="fill: #324880"/>
    <path d="M 195.510539 567.59683 
L 212.546502 551.357179 
L 240.288059 560.698663 
L 223.409275 577.102619 
z
" clip-path="url(#p38b16344da)" style="fill: #3f599f"/>
    <path d="M 402.964394 509.027218 
L 431.006064 517.947197 
L 438.774606 252.599407 
L 409.099321 244.54243 
z
" clip-path="url(#p38b16344da)" style="fill: #648fff"/>
    <path d="M 372.666 540.305279 
L 375.577197 367.007635 
L 391.397565 352.182884 
L 387.94447 524.532796 
z
" clip-path="url(#p38b16344da)" style="fill: #648fff"/>
    <path d="M 300.882674 537.84754 
L 301.048924 407.007641 
L 329.824843 415.804196 
L 328.862221 547.053438 
z
" clip-path="url(#p38b16344da)" style="fill: #324880"/>
    <path d="M 341.306251 572.679013 
L 357.12225 556.35162 
L 385.666999 565.743482 
L 370.021877 582.236516 
z
" clip-path="url(#p38b16344da)" style="fill: #3f599f"/>
    <path d="M 256.875627 544.577731 
L 273.179453 528.732559 
L 272.395806 362.332133 
L 255.494365 377.263819 
z
" clip-path="url(#p38b16344da)" style="fill: #324880"/>
    <path d="M 284.737421 553.85105 
L 284.44438 422.301145 
L 301.048924 407.007641 
L 300.882674 537.84754 
z
" clip-path="url(#p38b16344da)" style="fill: #648fff"/>
    <path d="M 229.289995 535.396327 
L 256.875627 544.577731 
L 255.494365 377.263819 
L 226.921658 368.610603 
z
" clip-path="url(#p38b16344da)" style="fill: #648fff"/>
    <path d="M 401.041469 549.53577 
L 416.152248 533.606038 
L 420.676504 360.709777 
L 405.036952 375.687887 
z
" clip-path="url(#p38b16344da)" style="fill: #324880"/>
    <path d="M 372.666 540.305279 
L 401.041469 549.53577 
L 405.036952 375.687887 
L 375.577197 367.007635 
z
" clip-path="url(#p38b16344da)" style="fill: #648fff"/>
    <path d="M 312.879545 563.217673 
L 328.862221 547.053438 
L 329.824843 415.804196 
L 313.3923 431.255692 
z
" clip-path="url(#p38b16344da)" style="fill: #324880"/>
    <path d="M 251.592236 586.705249 
L 268.309767 570.134484 
L 296.615892 579.666077 
L 280.063787 596.40621 
z
" clip-path="url(#p38b16344da)" style="fill: #3f599f"/>
    <path d="M 284.737421 553.85105 
L 312.879545 563.217673 
L 313.3923 431.255692 
L 284.44438 422.301145 
z
" clip-path="url(#p38b16344da)" style="fill: #648fff"/>
    <path d="M 170.225112 335.223212 
L 198.31185 343.64613 
L 215.601952 329.111469 
L 187.673725 320.83577 
z
" clip-path="url(#p38b16344da)" style="fill: #577ddf"/>
    <path d="M 212.546502 551.357179 
L 209.252155 367.104427 
L 238.090601 375.858215 
L 240.288059 560.698663 
z
" clip-path="url(#p38b16344da)" style="fill: #324880"/>
    <path d="M 195.510539 567.59683 
L 191.499465 382.324658 
L 209.252155 367.104427 
L 212.546502 551.357179 
z
" clip-path="url(#p38b16344da)" style="fill: #648fff"/>
    <path d="M 226.921658 368.610603 
L 255.494365 377.263819 
L 272.395806 362.332133 
L 243.988948 353.831185 
z
" clip-path="url(#p38b16344da)" style="fill: #577ddf"/>
    <path d="M 357.12225 556.35162 
L 359.849638 354.073366 
L 389.668651 362.815815 
L 385.666999 565.743482 
z
" clip-path="url(#p38b16344da)" style="fill: #324880"/>
    <path d="M 157.887205 532.951616 
L 148.285067 208.698036 
L 177.342121 216.773334 
L 185.080917 542.108623 
z
" clip-path="url(#p38b16344da)" style="fill: #324880"/>
    <path d="M 308.828384 606.207018 
L 325.210787 589.294908 
L 354.098892 599.022472 
L 337.890574 616.109224 
z
" clip-path="url(#p38b16344da)" style="fill: #3f599f"/>
    <path d="M 284.44438 422.301145 
L 313.3923 431.255692 
L 329.824843 415.804196 
L 301.048924 407.007641 
z
" clip-path="url(#p38b16344da)" style="fill: #577ddf"/>
    <path d="M 341.306251 572.679013 
L 343.357792 369.274262 
L 359.849638 354.073366 
L 357.12225 556.35162 
z
" clip-path="url(#p38b16344da)" style="fill: #648fff"/>
    <path d="M 140.548714 548.86998 
L 129.632258 222.73959 
L 148.285067 208.698036 
L 157.887205 532.951616 
z
" clip-path="url(#p38b16344da)" style="fill: #648fff"/>
    <path d="M 375.577197 367.007635 
L 405.036952 375.687887 
L 420.676504 360.709777 
L 391.397565 352.182884 
z
" clip-path="url(#p38b16344da)" style="fill: #577ddf"/>
    <path d="M 223.409275 577.102619 
L 240.288059 560.698663 
L 238.090601 375.858215 
L 220.5077 391.238665 
z
" clip-path="url(#p38b16344da)" style="fill: #324880"/>
    <path d="M 409.099321 244.54243 
L 438.774606 252.599407 
L 454.135485 238.696856 
L 424.644603 230.782424 
z
" clip-path="url(#p38b16344da)" style="fill: #577ddf"/>
    <path d="M 195.510539 567.59683 
L 223.409275 577.102619 
L 220.5077 391.238665 
L 191.499465 382.324658 
z
" clip-path="url(#p38b16344da)" style="fill: #648fff"/>
    <path d="M 268.309767 570.134484 
L 267.259075 389.356604 
L 296.679612 398.311586 
L 296.615892 579.666077 
z
" clip-path="url(#p38b16344da)" style="fill: #324880"/>
    <path d="M 251.592236 586.705249 
L 249.867899 404.927224 
L 267.259075 389.356604 
L 268.309767 570.134484 
z
" clip-path="url(#p38b16344da)" style="fill: #648fff"/>
    <path d="M 370.021877 582.236516 
L 385.666999 565.743482 
L 389.668651 362.815815 
L 373.363421 378.177779 
z
" clip-path="url(#p38b16344da)" style="fill: #324880"/>
    <path d="M 167.891749 558.186427 
L 185.080917 542.108623 
L 177.342121 216.773334 
L 158.859526 230.965504 
z
" clip-path="url(#p38b16344da)" style="fill: #324880"/>
    <path d="M 341.306251 572.679013 
L 370.021877 582.236516 
L 373.363421 378.177779 
L 343.357792 369.274262 
z
" clip-path="url(#p38b16344da)" style="fill: #648fff"/>
    <path d="M 140.548714 548.86998 
L 167.891749 558.186427 
L 158.859526 230.965504 
L 129.632258 222.73959 
z
" clip-path="url(#p38b16344da)" style="fill: #648fff"/>
    <path d="M 280.063787 596.40621 
L 296.615892 579.666077 
L 296.679612 398.311586 
L 279.467158 414.047694 
z
" clip-path="url(#p38b16344da)" style="fill: #324880"/>
    <path d="M 251.592236 586.705249 
L 280.063787 596.40621 
L 279.467158 414.047694 
L 249.867899 404.927224 
z
" clip-path="url(#p38b16344da)" style="fill: #648fff"/>
    <path d="M 191.499465 382.324658 
L 220.5077 391.238665 
L 238.090601 375.858215 
L 209.252155 367.104427 
z
" clip-path="url(#p38b16344da)" style="fill: #577ddf"/>
    <path d="M 343.357792 369.274262 
L 373.363421 378.177779 
L 389.668651 362.815815 
L 359.849638 354.073366 
z
" clip-path="url(#p38b16344da)" style="fill: #577ddf"/>
    <path d="M 325.210787 589.294908 
L 327.067478 308.137002 
L 357.751077 316.935185 
L 354.098892 599.022472 
z
" clip-path="url(#p38b16344da)" style="fill: #324880"/>
    <path d="M 308.828384 606.207018 
L 309.686111 323.436875 
L 327.067478 308.137002 
L 325.210787 589.294908 
z
" clip-path="url(#p38b16344da)" style="fill: #648fff"/>
    <path d="M 249.867899 404.927224 
L 279.467158 414.047694 
L 296.679612 398.311586 
L 267.259075 389.356604 
z
" clip-path="url(#p38b16344da)" style="fill: #577ddf"/>
    <path d="M 337.890574 616.109224 
L 354.098892 599.022472 
L 357.751077 316.935185 
L 340.566258 332.402888 
z
" clip-path="url(#p38b16344da)" style="fill: #324880"/>
    <path d="M 308.828384 606.207018 
L 337.890574 616.109224 
L 340.566258 332.402888 
L 309.686111 323.436875 
z
" clip-path="url(#p38b16344da)" style="fill: #648fff"/>
    <path d="M 129.632258 222.73959 
L 158.859526 230.965504 
L 177.342121 216.773334 
L 148.285067 208.698036 
z
" clip-path="url(#p38b16344da)" style="fill: #577ddf"/>
    <path d="M 309.686111 323.436875 
L 340.566258 332.402888 
L 357.751077 316.935185 
L 327.067478 308.137002 
z
" clip-path="url(#p38b16344da)" style="fill: #577ddf"/>
   </g>
   <g id="text_18">
    <!-- Real Amplitude (ρ) -->
    <g transform="translate(190.023516 51.6) scale(0.21 -0.21)">
     <defs>
      <path id="DejaVuSans-52" d="M 2841 2188 
Q 3044 2119 3236 1894 
Q 3428 1669 3622 1275 
L 4263 0 
L 3584 0 
L 2988 1197 
Q 2756 1666 2539 1819 
Q 2322 1972 1947 1972 
L 1259 1972 
L 1259 0 
L 628 0 
L 628 4666 
L 2053 4666 
Q 2853 4666 3247 4331 
Q 3641 3997 3641 3322 
Q 3641 2881 3436 2590 
Q 3231 2300 2841 2188 
z
M 1259 4147 
L 1259 2491 
L 2053 2491 
Q 2509 2491 2742 2702 
Q 2975 2913 2975 3322 
Q 2975 3731 2742 3939 
Q 2509 4147 2053 4147 
L 1259 4147 
z
" transform="scale(0.015625)"/>
      <path id="DejaVuSans-65" d="M 3597 1894 
L 3597 1613 
L 953 1613 
Q 991 1019 1311 708 
Q 1631 397 2203 397 
Q 2534 397 2845 478 
Q 3156 559 3463 722 
L 3463 178 
Q 3153 47 2828 -22 
Q 2503 -91 2169 -91 
Q 1331 -91 842 396 
Q 353 884 353 1716 
Q 353 2575 817 3079 
Q 1281 3584 2069 3584 
Q 2775 3584 3186 3129 
Q 3597 2675 3597 1894 
z
M 3022 2063 
Q 3016 2534 2758 2815 
Q 2500 3097 2075 3097 
Q 1594 3097 1305 2825 
Q 1016 2553 972 2059 
L 3022 2063 
z
" transform="scale(0.015625)"/>
      <path id="DejaVuSans-61" d="M 2194 1759 
Q 1497 1759 1228 1600 
Q 959 1441 959 1056 
Q 959 750 1161 570 
Q 1363 391 1709 391 
Q 2188 391 2477 730 
Q 2766 1069 2766 1631 
L 2766 1759 
L 2194 1759 
z
M 3341 1997 
L 3341 0 
L 2766 0 
L 2766 531 
Q 2569 213 2275 61 
Q 1981 -91 1556 -91 
Q 1019 -91 701 211 
Q 384 513 384 1019 
Q 384 1609 779 1909 
Q 1175 2209 1959 2209 
L 2766 2209 
L 2766 2266 
Q 2766 2663 2505 2880 
Q 2244 3097 1772 3097 
Q 1472 3097 1187 3025 
Q 903 2953 641 2809 
L 641 3341 
Q 956 3463 1253 3523 
Q 1550 3584 1831 3584 
Q 2591 3584 2966 3190 
Q 3341 2797 3341 1997 
z
" transform="scale(0.015625)"/>
      <path id="DejaVuSans-6c" d="M 603 4863 
L 1178 4863 
L 1178 0 
L 603 0 
L 603 4863 
z
" transform="scale(0.015625)"/>
      <path id="DejaVuSans-20" transform="scale(0.015625)"/>
      <path id="DejaVuSans-41" d="M 2188 4044 
L 1331 1722 
L 3047 1722 
L 2188 4044 
z
M 1831 4666 
L 2547 4666 
L 4325 0 
L 3669 0 
L 3244 1197 
L 1141 1197 
L 716 0 
L 50 0 
L 1831 4666 
z
" transform="scale(0.015625)"/>
      <path id="DejaVuSans-6d" d="M 3328 2828 
Q 3544 3216 3844 3400 
Q 4144 3584 4550 3584 
Q 5097 3584 5394 3201 
Q 5691 2819 5691 2113 
L 5691 0 
L 5113 0 
L 5113 2094 
Q 5113 2597 4934 2840 
Q 4756 3084 4391 3084 
Q 3944 3084 3684 2787 
Q 3425 2491 3425 1978 
L 3425 0 
L 2847 0 
L 2847 2094 
Q 2847 2600 2669 2842 
Q 2491 3084 2119 3084 
Q 1678 3084 1418 2786 
Q 1159 2488 1159 1978 
L 1159 0 
L 581 0 
L 581 3500 
L 1159 3500 
L 1159 2956 
Q 1356 3278 1631 3431 
Q 1906 3584 2284 3584 
Q 2666 3584 2933 3390 
Q 3200 3197 3328 2828 
z
" transform="scale(0.015625)"/>
      <path id="DejaVuSans-70" d="M 1159 525 
L 1159 -1331 
L 581 -1331 
L 581 3500 
L 1159 3500 
L 1159 2969 
Q 1341 3281 1617 3432 
Q 1894 3584 2278 3584 
Q 2916 3584 3314 3078 
Q 3713 2572 3713 1747 
Q 3713 922 3314 415 
Q 2916 -91 2278 -91 
Q 1894 -91 1617 61 
Q 1341 213 1159 525 
z
M 3116 1747 
Q 3116 2381 2855 2742 
Q 2594 3103 2138 3103 
Q 1681 3103 1420 2742 
Q 1159 2381 1159 1747 
Q 1159 1113 1420 752 
Q 1681 391 2138 391 
Q 2594 391 2855 752 
Q 3116 1113 3116 1747 
z
" transform="scale(0.015625)"/>
      <path id="DejaVuSans-69" d="M 603 3500 
L 1178 3500 
L 1178 0 
L 603 0 
L 603 3500 
z
M 603 4863 
L 1178 4863 
L 1178 4134 
L 603 4134 
L 603 4863 
z
" transform="scale(0.015625)"/>
      <path id="DejaVuSans-74" d="M 1172 4494 
L 1172 3500 
L 2356 3500 
L 2356 3053 
L 1172 3053 
L 1172 1153 
Q 1172 725 1289 603 
Q 1406 481 1766 481 
L 2356 481 
L 2356 0 
L 1766 0 
Q 1100 0 847 248 
Q 594 497 594 1153 
L 594 3053 
L 172 3053 
L 172 3500 
L 594 3500 
L 594 4494 
L 1172 4494 
z
" transform="scale(0.015625)"/>
      <path id="DejaVuSans-75" d="M 544 1381 
L 544 3500 
L 1119 3500 
L 1119 1403 
Q 1119 906 1312 657 
Q 1506 409 1894 409 
Q 2359 409 2629 706 
Q 2900 1003 2900 1516 
L 2900 3500 
L 3475 3500 
L 3475 0 
L 2900 0 
L 2900 538 
Q 2691 219 2414 64 
Q 2138 -91 1772 -91 
Q 1169 -91 856 284 
Q 544 659 544 1381 
z
M 1991 3584 
L 1991 3584 
z
" transform="scale(0.015625)"/>
      <path id="DejaVuSans-64" d="M 2906 2969 
L 2906 4863 
L 3481 4863 
L 3481 0 
L 2906 0 
L 2906 525 
Q 2725 213 2448 61 
Q 2172 -91 1784 -91 
Q 1150 -91 751 415 
Q 353 922 353 1747 
Q 353 2572 751 3078 
Q 1150 3584 1784 3584 
Q 2172 3584 2448 3432 
Q 2725 3281 2906 2969 
z
M 947 1747 
Q 947 1113 1208 752 
Q 1469 391 1925 391 
Q 2381 391 2643 752 
Q 2906 1113 2906 1747 
Q 2906 2381 2643 2742 
Q 2381 3103 1925 3103 
Q 1469 3103 1208 2742 
Q 947 2381 947 1747 
z
" transform="scale(0.015625)"/>
      <path id="DejaVuSans-28" d="M 1984 4856 
Q 1566 4138 1362 3434 
Q 1159 2731 1159 2009 
Q 1159 1288 1364 580 
Q 1569 -128 1984 -844 
L 1484 -844 
Q 1016 -109 783 600 
Q 550 1309 550 2009 
Q 550 2706 781 3412 
Q 1013 4119 1484 4856 
L 1984 4856 
z
" transform="scale(0.015625)"/>
      <path id="DejaVuSans-3c1" d="M 863 2875 
Q 1053 3194 1525 3475 
Q 1709 3584 2278 3584 
Q 2916 3584 3314 3078 
Q 3713 2572 3713 1747 
Q 3713 922 3314 415 
Q 2916 -91 2278 -91 
Q 1894 -91 1617 61 
Q 1341 213 1159 525 
L 1159 -1331 
L 581 -1331 
L 581 1716 
Q 581 2438 863 2875 
z
M 3116 1747 
Q 3116 2381 2855 2742 
Q 2594 3103 2138 3103 
Q 1681 3103 1420 2742 
Q 1159 2381 1159 1747 
Q 1159 1113 1420 752 
Q 1681 391 2138 391 
Q 2594 391 2855 752 
Q 3116 1113 3116 1747 
z
" transform="scale(0.015625)"/>
      <path id="DejaVuSans-29" d="M 513 4856 
L 1013 4856 
Q 1481 4119 1714 3412 
Q 1947 2706 1947 2009 
Q 1947 1309 1714 600 
Q 1481 -109 1013 -844 
L 513 -844 
Q 928 -128 1133 580 
Q 1338 1288 1338 2009 
Q 1338 2731 1133 3434 
Q 928 4138 513 4856 
z
" transform="scale(0.015625)"/>
     </defs>
     <use xlink:href="#DejaVuSans-52"/>
     <use xlink:href="#DejaVuSans-65" x="64.982422"/>
     <use xlink:href="#DejaVuSans-61" x="126.505859"/>
     <use xlink:href="#DejaVuSans-6c" x="187.785156"/>
     <use xlink:href="#DejaVuSans-20" x="215.568359"/>
     <use xlink:href="#DejaVuSans-41" x="247.355469"/>
     <use xlink:href="#DejaVuSans-6d" x="315.763672"/>
     <use xlink:href="#DejaVuSans-70" x="413.175781"/>
     <use xlink:href="#DejaVuSans-6c" x="476.652344"/>
     <use xlink:href="#DejaVuSans-69" x="504.435547"/>
     <use xlink:href="#DejaVuSans-74" x="532.21875"/>
     <use xlink:href="#DejaVuSans-75" x="571.427734"/>
     <use xlink:href="#DejaVuSans-64" x="634.806641"/>
     <use xlink:href="#DejaVuSans-65" x="698.283203"/>
     <use xlink:href="#DejaVuSans-20" x="759.806641"/>
     <use xlink:href="#DejaVuSans-28" x="791.59375"/>
     <use xlink:href="#DejaVuSans-3c1" x="830.607422"/>
     <use xlink:href="#DejaVuSans-29" x="894.083984"/>
    </g>
   </g>
  </g>
  <g id="patch_6">
   <path d="M 604.8 576 
L 1123.2 576 
L 1123.2 57.6 
L 604.8 57.6 
z
" style="fill: #ffffff"/>
  </g>
  <g id="pane3d_4">
   <g id="patch_7">
    <path d="M 706.07018 436.456468 
L 829.494133 330.550231 
L 827.743197 126.70673 
L 698.643358 223.613571 
" style="fill: #f2f2f2; opacity: 0.5; stroke: #f2f2f2; stroke-linejoin: miter"/>
   </g>
  </g>
  <g id="pane3d_5">
   <g id="patch_8">
    <path d="M 829.494133 330.550231 
L 1031.554898 390.069341 
L 1038.583588 181.103065 
L 827.743197 126.70673 
" style="fill: #e6e6e6; opacity: 0.5; stroke: #e6e6e6; stroke-linejoin: miter"/>
   </g>
  </g>
  <g id="pane3d_6">
   <g id="patch_9">
    <path d="M 706.07018 436.456468 
L 916.912731 504.076731 
L 1031.554898 390.069341 
L 829.494133 330.550231 
" style="fill: #ececec; opacity: 0.5; stroke: #ececec; stroke-linejoin: miter"/>
   </g>
  </g>
  <g id="grid3d_4">
   <g id="Line3DCollection_4">
    <path d="M 734.635886 445.617904 
L 856.925726 338.630493 
L 856.328796 134.081748 
" style="fill: none; stroke: #b0b0b0; stroke-width: 0.8"/>
    <path d="M 784.310046 461.549127 
L 904.58611 352.669358 
L 906.022474 146.902603 
" style="fill: none; stroke: #b0b0b0; stroke-width: 0.8"/>
    <path d="M 834.89502 477.772462 
L 953.066152 366.949661 
L 956.607663 159.953465 
" style="fill: none; stroke: #b0b0b0; stroke-width: 0.8"/>
    <path d="M 886.41609 494.296016 
L 1002.38718 381.477685 
L 1008.108569 173.24058 
" style="fill: none; stroke: #b0b0b0; stroke-width: 0.8"/>
   </g>
  </g>
  <g id="grid3d_5">
   <g id="Line3DCollection_5">
    <path d="M 717.757365 209.265931 
L 724.301379 420.812846 
L 933.880707 487.202708 
" style="fill: none; stroke: #b0b0b0; stroke-width: 0.8"/>
    <path d="M 749.704273 185.285468 
L 754.805664 394.638072 
L 962.24502 458.995448 
" style="fill: none; stroke: #b0b0b0; stroke-width: 0.8"/>
    <path d="M 780.65707 162.051218 
L 784.400054 369.24405 
L 989.731787 431.660877 
" style="fill: none; stroke: #b0b0b0; stroke-width: 0.8"/>
    <path d="M 810.661448 139.528886 
L 813.124663 344.596362 
L 1016.38111 405.159111 
" style="fill: none; stroke: #b0b0b0; stroke-width: 0.8"/>
   </g>
  </g>
  <g id="grid3d_6">
   <g id="Line3DCollection_6">
    <path d="M 1032.338615 366.769062 
L 829.298633 307.790172 
L 705.24295 412.749156 
" style="fill: none; stroke: #b0b0b0; stroke-width: 0.8"/>
    <path d="M 1033.637036 328.166403 
L 828.974886 270.099653 
L 703.871954 373.458228 
" style="fill: none; stroke: #b0b0b0; stroke-width: 0.8"/>
    <path d="M 1034.956525 288.937349 
L 828.646074 231.819414 
L 702.478091 333.51194 
" style="fill: none; stroke: #b0b0b0; stroke-width: 0.8"/>
    <path d="M 1036.297601 249.066528 
L 828.312076 192.935506 
L 701.060782 292.893759 
" style="fill: none; stroke: #b0b0b0; stroke-width: 0.8"/>
    <path d="M 1037.660797 208.538063 
L 827.97277 153.433537 
L 699.619433 251.586589 
" style="fill: none; stroke: #b0b0b0; stroke-width: 0.8"/>
   </g>
  </g>
  <g id="axis3d_4">
   <g id="line2d_21">
    <path d="M 706.07018 436.456468 
L 916.912731 504.076731 
" style="fill: none; stroke: #000000; stroke-width: 0.8; stroke-linecap: square"/>
   </g>
   <g id="xtick_18">
    <g id="line2d_22">
     <path d="M 735.677227 444.706868 
L 732.549953 447.442819 
" style="fill: none; stroke: #000000; stroke-width: 0.8; stroke-linecap: square"/>
    </g>
    <g id="text_19">
     <!-- 00 -->
     <g transform="translate(707.351686 489.365693) rotate(-45) scale(0.21 -0.21)">
      <use xlink:href="#DejaVuSans-30"/>
      <use xlink:href="#DejaVuSans-30" x="63.623047"/>
     </g>
    </g>
   </g>
   <g id="xtick_19">
    <g id="line2d_23">
     <path d="M 785.334802 460.621468 
L 782.257306 463.407368 
" style="fill: none; stroke: #000000; stroke-width: 0.8; stroke-linecap: square"/>
    </g>
    <g id="text_20">
     <!-- 01 -->
     <g transform="translate(757.023931 505.435143) rotate(-45) scale(0.21 -0.21)">
      <use xlink:href="#DejaVuSans-30"/>
      <use xlink:href="#DejaVuSans-31" x="63.623047"/>
     </g>
    </g>
   </g>
   <g id="xtick_20">
    <g id="line2d_24">
     <path d="M 835.902405 476.82772 
L 832.877048 479.664949 
" style="fill: none; stroke: #000000; stroke-width: 0.8; stroke-linecap: square"/>
    </g>
    <g id="text_21">
     <!-- 10 -->
     <g transform="translate(807.60781 521.799516) rotate(-45) scale(0.21 -0.21)">
      <use xlink:href="#DejaVuSans-31"/>
      <use xlink:href="#DejaVuSans-30" x="63.623047"/>
     </g>
    </g>
   </g>
   <g id="xtick_21">
    <g id="line2d_25">
     <path d="M 887.405283 493.333715 
L 884.434531 496.223705 
" style="fill: none; stroke: #000000; stroke-width: 0.8; stroke-linecap: square"/>
    </g>
    <g id="text_22">
     <!-- 11 -->
     <g transform="translate(859.128654 538.467006) rotate(-45) scale(0.21 -0.21)">
      <use xlink:href="#DejaVuSans-31"/>
      <use xlink:href="#DejaVuSans-31" x="63.623047"/>
     </g>
    </g>
   </g>
  </g>
  <g id="axis3d_5">
   <g id="line2d_26">
    <path d="M 1031.554898 390.069341 
L 916.912731 504.076731 
" style="fill: none; stroke: #000000; stroke-width: 0.8; stroke-linecap: square"/>
   </g>
   <g id="xtick_22">
    <g id="line2d_27">
     <path d="M 932.140222 486.651363 
L 937.364886 488.306415 
" style="fill: none; stroke: #000000; stroke-width: 0.8; stroke-linecap: square"/>
    </g>
    <g id="text_23">
     <!-- 00 -->
     <g transform="translate(944.70027 499.207917) rotate(-337.5) scale(0.21 -0.21)">
      <use xlink:href="#DejaVuSans-30"/>
      <use xlink:href="#DejaVuSans-30" x="63.623047"/>
     </g>
    </g>
   </g>
   <g id="xtick_23">
    <g id="line2d_28">
     <path d="M 960.5233 458.46129 
L 965.691587 460.064734 
" style="fill: none; stroke: #000000; stroke-width: 0.8; stroke-linecap: square"/>
    </g>
    <g id="text_24">
     <!-- 01 -->
     <g transform="translate(972.913817 470.822876) rotate(-337.5) scale(0.21 -0.21)">
      <use xlink:href="#DejaVuSans-30"/>
      <use xlink:href="#DejaVuSans-31" x="63.623047"/>
     </g>
    </g>
   </g>
   <g id="xtick_24">
    <g id="line2d_29">
     <path d="M 988.028511 431.143114 
L 993.141381 432.697327 
" style="fill: none; stroke: #000000; stroke-width: 0.8; stroke-linecap: square"/>
    </g>
    <g id="text_25">
     <!-- 10 -->
     <g transform="translate(1000.254695 443.315808) rotate(-337.5) scale(0.21 -0.21)">
      <use xlink:href="#DejaVuSans-31"/>
      <use xlink:href="#DejaVuSans-30" x="63.623047"/>
     </g>
    </g>
   </g>
   <g id="xtick_25">
    <g id="line2d_30">
     <path d="M 1014.695964 404.657001 
L 1019.754368 406.164215 
" style="fill: none; stroke: #000000; stroke-width: 0.8; stroke-linecap: square"/>
    </g>
    <g id="text_26">
     <!-- 11 -->
     <g transform="translate(1026.762776 416.646599) rotate(-337.5) scale(0.21 -0.21)">
      <use xlink:href="#DejaVuSans-31"/>
      <use xlink:href="#DejaVuSans-31" x="63.623047"/>
     </g>
    </g>
   </g>
  </g>
  <g id="axis3d_6">
   <g id="line2d_31">
    <path d="M 1031.554898 390.069341 
L 1038.583588 181.103065 
" style="fill: none; stroke: #000000; stroke-width: 0.8; stroke-linecap: square"/>
   </g>
   <g id="xtick_26">
    <g id="line2d_32">
     <path d="M 1030.655498 366.280152 
L 1035.7078 367.74774 
" style="fill: none; stroke: #000000; stroke-width: 0.8; stroke-linecap: square"/>
    </g>
    <g id="text_27">
     <!-- −0.1 -->
     <g transform="translate(1045.882788 360.497803) scale(0.21 -0.21)">
      <defs>
       <path id="DejaVuSans-2212" d="M 678 2272 
L 4684 2272 
L 4684 1741 
L 678 1741 
L 678 2272 
z
" transform="scale(0.015625)"/>
      </defs>
      <use xlink:href="#DejaVuSans-2212"/>
      <use xlink:href="#DejaVuSans-30" x="83.789062"/>
      <use xlink:href="#DejaVuSans-2e" x="147.412109"/>
      <use xlink:href="#DejaVuSans-31" x="179.199219"/>
     </g>
    </g>
   </g>
   <g id="xtick_27">
    <g id="line2d_33">
     <path d="M 1031.939994 327.684918 
L 1037.034117 329.130223 
" style="fill: none; stroke: #000000; stroke-width: 0.8; stroke-linecap: square"/>
    </g>
    <g id="text_28">
     <!-- 0.0 -->
     <g transform="translate(1047.2886 321.924075) scale(0.21 -0.21)">
      <use xlink:href="#DejaVuSans-30"/>
      <use xlink:href="#DejaVuSans-2e" x="63.623047"/>
      <use xlink:href="#DejaVuSans-30" x="95.410156"/>
     </g>
    </g>
   </g>
   <g id="xtick_28">
    <g id="line2d_34">
     <path d="M 1033.245328 288.463596 
L 1038.381969 289.885697 
" style="fill: none; stroke: #000000; stroke-width: 0.8; stroke-linecap: square"/>
    </g>
    <g id="text_29">
     <!-- 0.1 -->
     <g transform="translate(1048.717197 282.725144) scale(0.21 -0.21)">
      <use xlink:href="#DejaVuSans-30"/>
      <use xlink:href="#DejaVuSans-2e" x="63.623047"/>
      <use xlink:href="#DejaVuSans-31" x="95.410156"/>
     </g>
    </g>
   </g>
   <g id="xtick_29">
    <g id="line2d_35">
     <path d="M 1034.57201 248.600827 
L 1039.751883 249.998768 
" style="fill: none; stroke: #000000; stroke-width: 0.8; stroke-linecap: square"/>
    </g>
    <g id="text_30">
     <!-- 0.2 -->
     <g transform="translate(1050.169139 242.885687) scale(0.21 -0.21)">
      <use xlink:href="#DejaVuSans-30"/>
      <use xlink:href="#DejaVuSans-2e" x="63.623047"/>
      <use xlink:href="#DejaVuSans-32" x="95.410156"/>
     </g>
    </g>
   </g>
   <g id="xtick_30">
    <g id="line2d_36">
     <path d="M 1035.920568 208.080744 
L 1041.144407 209.453532 
" style="fill: none; stroke: #000000; stroke-width: 0.8; stroke-linecap: square"/>
    </g>
    <g id="text_31">
     <!-- 0.3 -->
     <g transform="translate(1051.645001 202.389875) scale(0.21 -0.21)">
      <use xlink:href="#DejaVuSans-30"/>
      <use xlink:href="#DejaVuSans-2e" x="63.623047"/>
      <use xlink:href="#DejaVuSans-33" x="95.410156"/>
     </g>
    </g>
   </g>
  </g>
  <g id="axes_2">
   <g id="Poly3DCollection_2">
    <path d="M 821.606816 337.410625 
L 845.516833 344.4931 
L 859.529603 332.264261 
L 835.736155 325.285999 
z
" clip-path="url(#p80e29fc8fd)" style="fill: #577ddf"/>
    <path d="M 835.423778 282.436248 
L 835.736155 325.285999 
L 859.529603 332.264261 
L 859.427525 289.291882 
z
" clip-path="url(#p80e29fc8fd)" style="fill: #648fff"/>
    <path d="M 821.166019 294.348141 
L 821.606816 337.410625 
L 835.736155 325.285999 
L 835.423778 282.436248 
z
" clip-path="url(#p80e29fc8fd)" style="fill: #324880"/>
    <path d="M 845.288404 301.307074 
L 859.427525 289.291882 
L 859.529603 332.264261 
L 845.516833 344.4931 
z
" clip-path="url(#p80e29fc8fd)" style="fill: #648fff"/>
    <path d="M 821.166019 294.348141 
L 845.288404 301.307074 
L 845.516833 344.4931 
L 821.606816 337.410625 
z
" clip-path="url(#p80e29fc8fd)" style="fill: #324880"/>
    <path d="M 821.166019 294.348141 
L 835.423778 282.436248 
L 859.427525 289.291882 
L 845.288404 301.307074 
z
" clip-path="url(#p80e29fc8fd)" style="fill: #3f599f"/>
    <path d="M 806.693081 306.439809 
L 807.072781 335.114596 
L 831.172566 342.262022 
L 830.934961 313.504395 
z
" clip-path="url(#p80e29fc8fd)" style="fill: #648fff"/>
    <path d="M 792.470028 347.533848 
L 816.688761 354.789964 
L 831.172566 342.262022 
L 807.072781 335.114596 
z
" clip-path="url(#p80e29fc8fd)" style="fill: #577ddf"/>
    <path d="M 792.000055 318.715353 
L 792.470028 347.533848 
L 807.072781 335.114596 
L 806.693081 306.439809 
z
" clip-path="url(#p80e29fc8fd)" style="fill: #324880"/>
    <path d="M 932.696633 310.218037 
L 932.696633 310.218037 
L 957.548153 317.3158 
L 957.548153 317.3158 
z
" clip-path="url(#p80e29fc8fd)" style="fill: #648fff"/>
    <path d="M 816.362285 325.888017 
L 830.934961 313.504395 
L 831.172566 342.262022 
L 816.688761 354.789964 
z
" clip-path="url(#p80e29fc8fd)" style="fill: #648fff"/>
    <path d="M 792.000055 318.715353 
L 806.693081 306.439809 
L 830.934961 313.504395 
L 816.362285 325.888017 
z
" clip-path="url(#p80e29fc8fd)" style="fill: #3f599f"/>
    <path d="M 918.929278 322.551323 
L 918.929278 322.551323 
L 932.696633 310.218037 
L 932.696633 310.218037 
z
" clip-path="url(#p80e29fc8fd)" style="fill: #324880"/>
    <path d="M 792.000055 318.715353 
L 816.362285 325.888017 
L 816.688761 354.789964 
L 792.470028 347.533848 
z
" clip-path="url(#p80e29fc8fd)" style="fill: #324880"/>
    <path d="M 763.342974 406.120684 
L 787.635283 413.696335 
L 802.459863 400.617052 
L 778.286551 393.155814 
z
" clip-path="url(#p80e29fc8fd)" style="fill: #577ddf"/>
    <path d="M 918.929278 322.551323 
L 932.696633 310.218037 
L 957.548153 317.3158 
L 943.910191 329.757928 
z
" clip-path="url(#p80e29fc8fd)" style="fill: #3f599f"/>
    <path d="M 918.929278 322.551323 
L 943.910191 329.757928 
L 957.548153 317.3158 
L 932.696633 310.218037 
z
" clip-path="url(#p80e29fc8fd)" style="fill: #577ddf"/>
    <path d="M 943.910191 329.757928 
L 957.548153 317.3158 
L 957.548153 317.3158 
L 943.910191 329.757928 
z
" clip-path="url(#p80e29fc8fd)" style="fill: #648fff"/>
    <path d="M 777.081882 331.179001 
L 778.286551 393.155814 
L 802.459863 400.617052 
L 801.565314 338.462241 
z
" clip-path="url(#p80e29fc8fd)" style="fill: #648fff"/>
    <path d="M 918.929278 322.551323 
L 943.910191 329.757928 
L 943.910191 329.757928 
L 918.929278 322.551323 
z
" clip-path="url(#p80e29fc8fd)" style="fill: #324880"/>
    <path d="M 761.933348 343.835107 
L 763.342974 406.120684 
L 778.286551 393.155814 
L 777.081882 331.179001 
z
" clip-path="url(#p80e29fc8fd)" style="fill: #324880"/>
    <path d="M 786.53883 351.231501 
L 801.565314 338.462241 
L 802.459863 400.617052 
L 787.635283 413.696335 
z
" clip-path="url(#p80e29fc8fd)" style="fill: #648fff"/>
    <path d="M 761.933348 343.835107 
L 786.53883 351.231501 
L 787.635283 413.696335 
L 763.342974 406.120684 
z
" clip-path="url(#p80e29fc8fd)" style="fill: #324880"/>
    <path d="M 761.933348 343.835107 
L 777.081882 331.179001 
L 801.565314 338.462241 
L 786.53883 351.231501 
z
" clip-path="url(#p80e29fc8fd)" style="fill: #3f599f"/>
    <path d="M 876.338641 360.705531 
L 876.317743 379.524586 
L 901.593194 387.128255 
L 901.714069 368.254119 
z
" clip-path="url(#p80e29fc8fd)" style="fill: #648fff"/>
    <path d="M 861.695355 373.823508 
L 861.732122 392.73811 
L 876.317743 379.524586 
L 876.338641 360.705531 
z
" clip-path="url(#p80e29fc8fd)" style="fill: #324880"/>
    <path d="M 861.732122 392.73811 
L 887.140142 400.46159 
L 901.593194 387.128255 
L 876.317743 379.524586 
z
" clip-path="url(#p80e29fc8fd)" style="fill: #577ddf"/>
    <path d="M 861.695355 373.823508 
L 876.338641 360.705531 
L 901.714069 368.254119 
L 887.204406 381.491514 
z
" clip-path="url(#p80e29fc8fd)" style="fill: #3f599f"/>
    <path d="M 887.204406 381.491514 
L 901.714069 368.254119 
L 901.593194 387.128255 
L 887.140142 400.46159 
z
" clip-path="url(#p80e29fc8fd)" style="fill: #648fff"/>
    <path d="M 861.695355 373.823508 
L 887.204406 381.491514 
L 887.140142 400.46159 
L 861.732122 392.73811 
z
" clip-path="url(#p80e29fc8fd)" style="fill: #324880"/>
    <path d="M 927.320112 375.871309 
L 926.983719 404.468726 
L 952.666957 412.239093 
L 953.15993 383.558042 
z
" clip-path="url(#p80e29fc8fd)" style="fill: #648fff"/>
    <path d="M 912.694614 417.97225 
L 938.515948 425.865925 
L 952.666957 412.239093 
L 926.983719 404.468726 
z
" clip-path="url(#p80e29fc8fd)" style="fill: #577ddf"/>
    <path d="M 912.947127 389.22976 
L 912.694614 417.97225 
L 926.983719 404.468726 
L 927.320112 375.871309 
z
" clip-path="url(#p80e29fc8fd)" style="fill: #324880"/>
    <path d="M 938.926743 397.039218 
L 953.15993 383.558042 
L 952.666957 412.239093 
L 938.515948 425.865925 
z
" clip-path="url(#p80e29fc8fd)" style="fill: #648fff"/>
    <path d="M 912.947127 389.22976 
L 927.320112 375.871309 
L 953.15993 383.558042 
L 938.926743 397.039218 
z
" clip-path="url(#p80e29fc8fd)" style="fill: #3f599f"/>
    <path d="M 912.947127 389.22976 
L 938.926743 397.039218 
L 938.515948 425.865925 
L 912.694614 417.97225 
z
" clip-path="url(#p80e29fc8fd)" style="fill: #324880"/>
   </g>
   <g id="Poly3DCollection_3">
    <path d="M 710.646071 372.527832 
L 915.591151 435.794767 
L 1027.215922 329.048315 
L 830.577712 273.165825 
z
" clip-path="url(#p80e29fc8fd)" style="fill-opacity: 0.25"/>
   </g>
   <g id="Poly3DCollection_4">
    <path d="M 883.639101 296.206872 
L 883.711846 268.182131 
L 908.275519 275.075038 
L 908.061218 303.181995 
z
" clip-path="url(#p80e29fc8fd)" style="fill: #324880"/>
    <path d="M 869.621224 308.326715 
L 883.639101 296.206872 
L 908.061218 303.181995 
L 894.167244 315.40786 
z
" clip-path="url(#p80e29fc8fd)" style="fill: #3f599f"/>
    <path d="M 869.621224 308.326715 
L 869.613193 280.159338 
L 883.711846 268.182131 
L 883.639101 296.206872 
z
" clip-path="url(#p80e29fc8fd)" style="fill: #648fff"/>
    <path d="M 894.167244 315.40786 
L 908.061218 303.181995 
L 908.275519 275.075038 
L 894.302216 287.15763 
z
" clip-path="url(#p80e29fc8fd)" style="fill: #324880"/>
    <path d="M 869.613193 280.159338 
L 894.302216 287.15763 
L 908.275519 275.075038 
L 883.711846 268.182131 
z
" clip-path="url(#p80e29fc8fd)" style="fill: #577ddf"/>
    <path d="M 869.621224 308.326715 
L 894.167244 315.40786 
L 894.302216 287.15763 
L 869.613193 280.159338 
z
" clip-path="url(#p80e29fc8fd)" style="fill: #648fff"/>
    <path d="M 855.389928 320.631079 
L 855.329742 301.966176 
L 880.095861 309.1009 
L 880.060804 327.820684 
z
" clip-path="url(#p80e29fc8fd)" style="fill: #324880"/>
    <path d="M 982.618635 324.476099 
L 982.618635 324.476099 
L 1007.910984 331.699766 
L 1007.910984 331.699766 
z
" clip-path="url(#p80e29fc8fd)" style="fill: #324880"/>
    <path d="M 840.940302 333.124212 
L 840.823531 314.364101 
L 855.329742 301.966176 
L 855.389928 320.631079 
z
" clip-path="url(#p80e29fc8fd)" style="fill: #648fff"/>
    <path d="M 840.940302 333.124212 
L 855.389928 320.631079 
L 880.060804 327.820684 
L 865.736986 340.424786 
z
" clip-path="url(#p80e29fc8fd)" style="fill: #3f599f"/>
    <path d="M 969.112898 337.028517 
L 969.112898 337.028517 
L 982.618635 324.476099 
L 982.618635 324.476099 
z
" clip-path="url(#p80e29fc8fd)" style="fill: #324880"/>
    <path d="M 969.112898 337.028517 
L 982.618635 324.476099 
L 1007.910984 331.699766 
L 994.540365 344.363947 
z
" clip-path="url(#p80e29fc8fd)" style="fill: #3f599f"/>
    <path d="M 969.112898 337.028517 
L 994.540365 344.363947 
L 1007.910984 331.699766 
L 982.618635 324.476099 
z
" clip-path="url(#p80e29fc8fd)" style="fill: #577ddf"/>
    <path d="M 840.823531 314.364101 
L 865.716433 321.609379 
L 880.095861 309.1009 
L 855.329742 301.966176 
z
" clip-path="url(#p80e29fc8fd)" style="fill: #577ddf"/>
    <path d="M 865.736986 340.424786 
L 880.060804 327.820684 
L 880.095861 309.1009 
L 865.716433 321.609379 
z
" clip-path="url(#p80e29fc8fd)" style="fill: #324880"/>
    <path d="M 994.540365 344.363947 
L 1007.910984 331.699766 
L 1007.910984 331.699766 
L 994.540365 344.363947 
z
" clip-path="url(#p80e29fc8fd)" style="fill: #324880"/>
    <path d="M 904.95046 335.074045 
L 904.95046 335.074045 
L 930.061821 342.392016 
L 930.061821 342.392016 
z
" clip-path="url(#p80e29fc8fd)" style="fill: #324880"/>
    <path d="M 840.940302 333.124212 
L 865.736986 340.424786 
L 865.716433 321.609379 
L 840.823531 314.364101 
z
" clip-path="url(#p80e29fc8fd)" style="fill: #648fff"/>
    <path d="M 969.112898 337.028517 
L 994.540365 344.363947 
L 994.540365 344.363947 
L 969.112898 337.028517 
z
" clip-path="url(#p80e29fc8fd)" style="fill: #324880"/>
    <path d="M 890.755269 347.790603 
L 890.755269 347.790603 
L 904.95046 335.074045 
L 904.95046 335.074045 
z
" clip-path="url(#p80e29fc8fd)" style="fill: #648fff"/>
    <path d="M 890.755269 347.790603 
L 904.95046 335.074045 
L 930.061821 342.392016 
L 915.998133 355.222541 
z
" clip-path="url(#p80e29fc8fd)" style="fill: #3f599f"/>
    <path d="M 890.755269 347.790603 
L 915.998133 355.222541 
L 930.061821 342.392016 
L 904.95046 335.074045 
z
" clip-path="url(#p80e29fc8fd)" style="fill: #577ddf"/>
    <path d="M 915.998133 355.222541 
L 930.061821 342.392016 
L 930.061821 342.392016 
L 915.998133 355.222541 
z
" clip-path="url(#p80e29fc8fd)" style="fill: #324880"/>
    <path d="M 826.267283 345.81049 
L 826.267283 345.81049 
L 851.190728 353.224624 
L 851.190728 353.224624 
z
" clip-path="url(#p80e29fc8fd)" style="fill: #324880"/>
    <path d="M 890.755269 347.790603 
L 915.998133 355.222541 
L 915.998133 355.222541 
L 890.755269 347.790603 
z
" clip-path="url(#p80e29fc8fd)" style="fill: #648fff"/>
    <path d="M 811.365649 358.694428 
L 811.365649 358.694428 
L 826.267283 345.81049 
L 826.267283 345.81049 
z
" clip-path="url(#p80e29fc8fd)" style="fill: #648fff"/>
    <path d="M 955.39786 349.775463 
L 955.39786 349.775463 
L 980.961608 357.225269 
L 980.961608 357.225269 
z
" clip-path="url(#p80e29fc8fd)" style="fill: #324880"/>
    <path d="M 811.365649 358.694428 
L 826.267283 345.81049 
L 851.190728 353.224624 
L 836.416806 366.224791 
z
" clip-path="url(#p80e29fc8fd)" style="fill: #3f599f"/>
    <path d="M 811.365649 358.694428 
L 836.416806 366.224791 
L 851.190728 353.224624 
L 826.267283 345.81049 
z
" clip-path="url(#p80e29fc8fd)" style="fill: #577ddf"/>
    <path d="M 941.468617 362.721493 
L 941.468617 362.721493 
L 955.39786 349.775463 
L 955.39786 349.775463 
z
" clip-path="url(#p80e29fc8fd)" style="fill: #648fff"/>
    <path d="M 836.416806 366.224791 
L 851.190728 353.224624 
L 851.190728 353.224624 
L 836.416806 366.224791 
z
" clip-path="url(#p80e29fc8fd)" style="fill: #324880"/>
    <path d="M 941.468617 362.721493 
L 967.169814 370.288372 
L 980.961608 357.225269 
L 955.39786 349.775463 
z
" clip-path="url(#p80e29fc8fd)" style="fill: #577ddf"/>
    <path d="M 941.468617 362.721493 
L 955.39786 349.775463 
L 980.961608 357.225269 
L 967.169814 370.288372 
z
" clip-path="url(#p80e29fc8fd)" style="fill: #3f599f"/>
    <path d="M 746.549074 356.688167 
L 746.549074 356.688167 
L 771.27745 364.200371 
L 771.27745 364.200371 
z
" clip-path="url(#p80e29fc8fd)" style="fill: #324880"/>
    <path d="M 811.365649 358.694428 
L 836.416806 366.224791 
L 836.416806 366.224791 
L 811.365649 358.694428 
z
" clip-path="url(#p80e29fc8fd)" style="fill: #648fff"/>
    <path d="M 730.923516 369.742811 
L 730.923516 369.742811 
L 746.549074 356.688167 
L 746.549074 356.688167 
z
" clip-path="url(#p80e29fc8fd)" style="fill: #648fff"/>
    <path d="M 967.169814 370.288372 
L 980.961608 357.225269 
L 980.961608 357.225269 
L 967.169814 370.288372 
z
" clip-path="url(#p80e29fc8fd)" style="fill: #324880"/>
    <path d="M 941.468617 362.721493 
L 967.169814 370.288372 
L 967.169814 370.288372 
L 941.468617 362.721493 
z
" clip-path="url(#p80e29fc8fd)" style="fill: #648fff"/>
    <path d="M 730.923516 369.742811 
L 746.549074 356.688167 
L 771.27745 364.200371 
L 755.775625 377.373568 
z
" clip-path="url(#p80e29fc8fd)" style="fill: #3f599f"/>
    <path d="M 730.923516 369.742811 
L 755.775625 377.373568 
L 771.27745 364.200371 
L 746.549074 356.688167 
z
" clip-path="url(#p80e29fc8fd)" style="fill: #577ddf"/>
    <path d="M 755.775625 377.373568 
L 771.27745 364.200371 
L 771.27745 364.200371 
L 755.775625 377.373568 
z
" clip-path="url(#p80e29fc8fd)" style="fill: #324880"/>
    <path d="M 730.923516 369.742811 
L 755.775625 377.373568 
L 755.775625 377.373568 
L 730.923516 369.742811 
z
" clip-path="url(#p80e29fc8fd)" style="fill: #648fff"/>
    <path d="M 780.854829 385.074053 
L 796.230016 371.780681 
L 821.409834 379.430029 
L 806.164254 392.845227 
z
" clip-path="url(#p80e29fc8fd)" style="fill: #3f599f"/>
    <path d="M 796.230016 371.780681 
L 795.220983 307.123283 
L 820.737493 314.577908 
L 821.409834 379.430029 
z
" clip-path="url(#p80e29fc8fd)" style="fill: #324880"/>
    <path d="M 780.854829 385.074053 
L 779.628562 320.078845 
L 795.220983 307.123283 
L 796.230016 371.780681 
z
" clip-path="url(#p80e29fc8fd)" style="fill: #648fff"/>
    <path d="M 846.820023 387.14936 
L 846.668257 357.178676 
L 872.472952 364.879467 
L 872.463758 394.93964 
z
" clip-path="url(#p80e29fc8fd)" style="fill: #324880"/>
    <path d="M 806.164254 392.845227 
L 821.409834 379.430029 
L 820.737493 314.577908 
L 805.278153 327.65382 
z
" clip-path="url(#p80e29fc8fd)" style="fill: #324880"/>
    <path d="M 831.707084 400.688068 
L 846.820023 387.14936 
L 872.463758 394.93964 
L 857.486565 408.603571 
z
" clip-path="url(#p80e29fc8fd)" style="fill: #3f599f"/>
    <path d="M 831.707084 400.688068 
L 831.458502 370.562146 
L 846.668257 357.178676 
L 846.820023 387.14936 
z
" clip-path="url(#p80e29fc8fd)" style="fill: #648fff"/>
    <path d="M 780.854829 385.074053 
L 806.164254 392.845227 
L 805.278153 327.65382 
L 779.628562 320.078845 
z
" clip-path="url(#p80e29fc8fd)" style="fill: #648fff"/>
    <path d="M 779.628562 320.078845 
L 805.278153 327.65382 
L 820.737493 314.577908 
L 795.220983 307.123283 
z
" clip-path="url(#p80e29fc8fd)" style="fill: #577ddf"/>
    <path d="M 857.486565 408.603571 
L 872.463758 394.93964 
L 872.472952 364.879467 
L 857.400653 378.387509 
z
" clip-path="url(#p80e29fc8fd)" style="fill: #324880"/>
    <path d="M 831.458502 370.562146 
L 857.400653 378.387509 
L 872.472952 364.879467 
L 846.668257 357.178676 
z
" clip-path="url(#p80e29fc8fd)" style="fill: #577ddf"/>
    <path d="M 831.707084 400.688068 
L 857.486565 408.603571 
L 857.400653 378.387509 
L 831.458502 370.562146 
z
" clip-path="url(#p80e29fc8fd)" style="fill: #648fff"/>
    <path d="M 883.505999 416.592751 
L 898.344275 402.801852 
L 924.464869 410.736996 
L 909.768753 424.656641 
z
" clip-path="url(#p80e29fc8fd)" style="fill: #3f599f"/>
    <path d="M 898.344275 402.801852 
L 898.607244 357.011521 
L 924.981495 364.808914 
L 924.464869 410.736996 
z
" clip-path="url(#p80e29fc8fd)" style="fill: #324880"/>
    <path d="M 883.505999 416.592751 
L 883.627219 370.563461 
L 898.607244 357.011521 
L 898.344275 402.801852 
z
" clip-path="url(#p80e29fc8fd)" style="fill: #648fff"/>
    <path d="M 909.768753 424.656641 
L 924.464869 410.736996 
L 924.981495 364.808914 
L 910.146422 378.488599 
z
" clip-path="url(#p80e29fc8fd)" style="fill: #324880"/>
    <path d="M 883.505999 416.592751 
L 909.768753 424.656641 
L 910.146422 378.488599 
L 883.627219 370.563461 
z
" clip-path="url(#p80e29fc8fd)" style="fill: #648fff"/>
    <path d="M 883.627219 370.563461 
L 910.146422 378.488599 
L 924.981495 364.808914 
L 898.607244 357.011521 
z
" clip-path="url(#p80e29fc8fd)" style="fill: #577ddf"/>
   </g>
   <g id="text_32">
    <!-- Imaginary Amplitude (ρ) -->
    <g transform="translate(735.696563 51.6) scale(0.21 -0.21)">
     <defs>
      <path id="DejaVuSans-49" d="M 628 4666 
L 1259 4666 
L 1259 0 
L 628 0 
L 628 4666 
z
" transform="scale(0.015625)"/>
      <path id="DejaVuSans-67" d="M 2906 1791 
Q 2906 2416 2648 2759 
Q 2391 3103 1925 3103 
Q 1463 3103 1205 2759 
Q 947 2416 947 1791 
Q 947 1169 1205 825 
Q 1463 481 1925 481 
Q 2391 481 2648 825 
Q 2906 1169 2906 1791 
z
M 3481 434 
Q 3481 -459 3084 -895 
Q 2688 -1331 1869 -1331 
Q 1566 -1331 1297 -1286 
Q 1028 -1241 775 -1147 
L 775 -588 
Q 1028 -725 1275 -790 
Q 1522 -856 1778 -856 
Q 2344 -856 2625 -561 
Q 2906 -266 2906 331 
L 2906 616 
Q 2728 306 2450 153 
Q 2172 0 1784 0 
Q 1141 0 747 490 
Q 353 981 353 1791 
Q 353 2603 747 3093 
Q 1141 3584 1784 3584 
Q 2172 3584 2450 3431 
Q 2728 3278 2906 2969 
L 2906 3500 
L 3481 3500 
L 3481 434 
z
" transform="scale(0.015625)"/>
      <path id="DejaVuSans-6e" d="M 3513 2113 
L 3513 0 
L 2938 0 
L 2938 2094 
Q 2938 2591 2744 2837 
Q 2550 3084 2163 3084 
Q 1697 3084 1428 2787 
Q 1159 2491 1159 1978 
L 1159 0 
L 581 0 
L 581 3500 
L 1159 3500 
L 1159 2956 
Q 1366 3272 1645 3428 
Q 1925 3584 2291 3584 
Q 2894 3584 3203 3211 
Q 3513 2838 3513 2113 
z
" transform="scale(0.015625)"/>
      <path id="DejaVuSans-72" d="M 2631 2963 
Q 2534 3019 2420 3045 
Q 2306 3072 2169 3072 
Q 1681 3072 1420 2755 
Q 1159 2438 1159 1844 
L 1159 0 
L 581 0 
L 581 3500 
L 1159 3500 
L 1159 2956 
Q 1341 3275 1631 3429 
Q 1922 3584 2338 3584 
Q 2397 3584 2469 3576 
Q 2541 3569 2628 3553 
L 2631 2963 
z
" transform="scale(0.015625)"/>
      <path id="DejaVuSans-79" d="M 2059 -325 
Q 1816 -950 1584 -1140 
Q 1353 -1331 966 -1331 
L 506 -1331 
L 506 -850 
L 844 -850 
Q 1081 -850 1212 -737 
Q 1344 -625 1503 -206 
L 1606 56 
L 191 3500 
L 800 3500 
L 1894 763 
L 2988 3500 
L 3597 3500 
L 2059 -325 
z
" transform="scale(0.015625)"/>
     </defs>
     <use xlink:href="#DejaVuSans-49"/>
     <use xlink:href="#DejaVuSans-6d" x="29.492188"/>
     <use xlink:href="#DejaVuSans-61" x="126.904297"/>
     <use xlink:href="#DejaVuSans-67" x="188.183594"/>
     <use xlink:href="#DejaVuSans-69" x="251.660156"/>
     <use xlink:href="#DejaVuSans-6e" x="279.443359"/>
     <use xlink:href="#DejaVuSans-61" x="342.822266"/>
     <use xlink:href="#DejaVuSans-72" x="404.101562"/>
     <use xlink:href="#DejaVuSans-79" x="445.214844"/>
     <use xlink:href="#DejaVuSans-20" x="504.394531"/>
     <use xlink:href="#DejaVuSans-41" x="536.181641"/>
     <use xlink:href="#DejaVuSans-6d" x="604.589844"/>
     <use xlink:href="#DejaVuSans-70" x="702.001953"/>
     <use xlink:href="#DejaVuSans-6c" x="765.478516"/>
     <use xlink:href="#DejaVuSans-69" x="793.261719"/>
     <use xlink:href="#DejaVuSans-74" x="821.044922"/>
     <use xlink:href="#DejaVuSans-75" x="860.253906"/>
     <use xlink:href="#DejaVuSans-64" x="923.632812"/>
     <use xlink:href="#DejaVuSans-65" x="987.109375"/>
     <use xlink:href="#DejaVuSans-20" x="1048.632812"/>
     <use xlink:href="#DejaVuSans-28" x="1080.419922"/>
     <use xlink:href="#DejaVuSans-3c1" x="1119.433594"/>
     <use xlink:href="#DejaVuSans-29" x="1182.910156"/>
    </g>
   </g>
  </g>
 </g>
 <defs>
  <clipPath id="p38b16344da">
   <rect x="28.8" y="57.6" width="518.4" height="518.4"/>
  </clipPath>
  <clipPath id="p80e29fc8fd">
   <rect x="604.8" y="57.6" width="518.4" height="518.4"/>
  </clipPath>
 </defs>
</svg>
