<?xml version="1.0" encoding="utf-8" standalone="no"?>
<!DOCTYPE svg PUBLIC "-//W3C//DTD SVG 1.1//EN"
  "http://www.w3.org/Graphics/SVG/1.1/DTD/svg11.dtd">
<svg xmlns:xlink="http://www.w3.org/1999/xlink" width="1152pt" height="576pt" viewBox="0 0 1152 576" xmlns="http://www.w3.org/2000/svg" version="1.1">
 <metadata>
  <rdf:RDF xmlns:dc="http://purl.org/dc/elements/1.1/" xmlns:cc="http://creativecommons.org/ns#" xmlns:rdf="http://www.w3.org/1999/02/22-rdf-syntax-ns#">
   <cc:Work>
    <dc:type rdf:resource="http://purl.org/dc/dcmitype/StillImage"/>
    <dc:date>2024-11-04T21:02:32.352797</dc:date>
    <dc:format>image/svg+xml</dc:format>
    <dc:creator>
     <cc:Agent>
      <dc:title>Matplotlib v3.9.2, https://matplotlib.org/</dc:title>
     </cc:Agent>
    </dc:creator>
   </cc:Work>
  </rdf:RDF>
 </metadata>
 <defs>
  <style type="text/css">*{stroke-linejoin: round; stroke-linecap: butt}</style>
 </defs>
 <g id="figure_1">
  <g id="patch_1">
   <path d="M 0 576 
L 1152 576 
L 1152 0 
L 0 0 
z
" style="fill: #ffffff"/>
  </g>
  <g id="patch_2">
   <path d="M 28.8 576 
L 547.2 576 
L 547.2 57.6 
L 28.8 57.6 
z
" style="fill: #ffffff"/>
  </g>
  <g id="pane3d_1">
   <g id="patch_3">
    <path d="M 130.07018 436.456468 
L 253.494133 330.550231 
L 251.743197 126.70673 
L 122.643358 223.613571 
" style="fill: #f2f2f2; opacity: 0.5; stroke: #f2f2f2; stroke-linejoin: miter"/>
   </g>
  </g>
  <g id="pane3d_2">
   <g id="patch_4">
    <path d="M 253.494133 330.550231 
L 455.554898 390.069341 
L 462.583588 181.103065 
L 251.743197 126.70673 
" style="fill: #e6e6e6; opacity: 0.5; stroke: #e6e6e6; stroke-linejoin: miter"/>
   </g>
  </g>
  <g id="pane3d_3">
   <g id="patch_5">
    <path d="M 130.07018 436.456468 
L 340.912731 504.076731 
L 455.554898 390.069341 
L 253.494133 330.550231 
" style="fill: #ececec; opacity: 0.5; stroke: #ececec; stroke-linejoin: miter"/>
   </g>
  </g>
  <g id="grid3d_1">
   <g id="Line3DCollection_1">
    <path d="M 158.635886 445.617904 
L 280.925726 338.630493 
L 280.328796 134.081748 
" style="fill: none; stroke: #b0b0b0; stroke-width: 0.8"/>
    <path d="M 208.310046 461.549127 
L 328.58611 352.669358 
L 330.022474 146.902603 
" style="fill: none; stroke: #b0b0b0; stroke-width: 0.8"/>
    <path d="M 258.89502 477.772462 
L 377.066152 366.949661 
L 380.607663 159.953465 
" style="fill: none; stroke: #b0b0b0; stroke-width: 0.8"/>
    <path d="M 310.41609 494.296016 
L 426.38718 381.477685 
L 432.108569 173.24058 
" style="fill: none; stroke: #b0b0b0; stroke-width: 0.8"/>
   </g>
  </g>
  <g id="grid3d_2">
   <g id="Line3DCollection_2">
    <path d="M 141.757365 209.265931 
L 148.301379 420.812846 
L 357.880707 487.202708 
" style="fill: none; stroke: #b0b0b0; stroke-width: 0.8"/>
    <path d="M 173.704273 185.285468 
L 178.805664 394.638072 
L 386.24502 458.995448 
" style="fill: none; stroke: #b0b0b0; stroke-width: 0.8"/>
    <path d="M 204.65707 162.051218 
L 208.400054 369.24405 
L 413.731787 431.660877 
" style="fill: none; stroke: #b0b0b0; stroke-width: 0.8"/>
    <path d="M 234.661448 139.528886 
L 237.124663 344.596362 
L 440.38111 405.159111 
" style="fill: none; stroke: #b0b0b0; stroke-width: 0.8"/>
   </g>
  </g>
  <g id="grid3d_3">
   <g id="Line3DCollection_3">
    <path d="M 455.685695 386.18068 
L 253.4615 326.751188 
L 129.932136 432.500316 
" style="fill: none; stroke: #b0b0b0; stroke-width: 0.8"/>
    <path d="M 456.763169 354.146881 
L 253.192755 295.463889 
L 128.794733 399.903838 
" style="fill: none; stroke: #b0b0b0; stroke-width: 0.8"/>
    <path d="M 457.85519 321.680564 
L 252.920509 263.769163 
L 127.641547 366.855045 
" style="fill: none; stroke: #b0b0b0; stroke-width: 0.8"/>
    <path d="M 458.962056 288.772909 
L 252.644696 231.658998 
L 126.472247 333.344456 
" style="fill: none; stroke: #b0b0b0; stroke-width: 0.8"/>
    <path d="M 460.084072 255.414856 
L 252.365243 199.125173 
L 125.286493 299.362325 
" style="fill: none; stroke: #b0b0b0; stroke-width: 0.8"/>
    <path d="M 461.22155 221.597094 
L 252.082078 166.159247 
L 124.083936 264.898627 
" style="fill: none; stroke: #b0b0b0; stroke-width: 0.8"/>
    <path d="M 462.374812 187.310054 
L 251.795128 132.752554 
L 122.864215 229.943053 
" style="fill: none; stroke: #b0b0b0; stroke-width: 0.8"/>
   </g>
  </g>
  <g id="axis3d_1">
   <g id="line2d_1">
    <path d="M 130.07018 436.456468 
L 340.912731 504.076731 
" style="fill: none; stroke: #000000; stroke-width: 0.8; stroke-linecap: square"/>
   </g>
   <g id="xtick_1">
    <g id="line2d_2">
     <path d="M 159.677227 444.706868 
L 156.549953 447.442819 
" style="fill: none; stroke: #000000; stroke-width: 0.8; stroke-linecap: square"/>
    </g>
    <g id="text_1">
     <!-- 00 -->
     <g transform="translate(131.351686 489.365693) rotate(-45) scale(0.21 -0.21)">
      <defs>
       <path id="DejaVuSans-30" d="M 2034 4250 
Q 1547 4250 1301 3770 
Q 1056 3291 1056 2328 
Q 1056 1369 1301 889 
Q 1547 409 2034 409 
Q 2525 409 2770 889 
Q 3016 1369 3016 2328 
Q 3016 3291 2770 3770 
Q 2525 4250 2034 4250 
z
M 2034 4750 
Q 2819 4750 3233 4129 
Q 3647 3509 3647 2328 
Q 3647 1150 3233 529 
Q 2819 -91 2034 -91 
Q 1250 -91 836 529 
Q 422 1150 422 2328 
Q 422 3509 836 4129 
Q 1250 4750 2034 4750 
z
" transform="scale(0.015625)"/>
      </defs>
      <use xlink:href="#DejaVuSans-30"/>
      <use xlink:href="#DejaVuSans-30" x="63.623047"/>
     </g>
    </g>
   </g>
   <g id="xtick_2">
    <g id="line2d_3">
     <path d="M 209.334802 460.621468 
L 206.257306 463.407368 
" style="fill: none; stroke: #000000; stroke-width: 0.8; stroke-linecap: square"/>
    </g>
    <g id="text_2">
     <!-- 01 -->
     <g transform="translate(181.023931 505.435143) rotate(-45) scale(0.21 -0.21)">
      <defs>
       <path id="DejaVuSans-31" d="M 794 531 
L 1825 531 
L 1825 4091 
L 703 3866 
L 703 4441 
L 1819 4666 
L 2450 4666 
L 2450 531 
L 3481 531 
L 3481 0 
L 794 0 
L 794 531 
z
" transform="scale(0.015625)"/>
      </defs>
      <use xlink:href="#DejaVuSans-30"/>
      <use xlink:href="#DejaVuSans-31" x="63.623047"/>
     </g>
    </g>
   </g>
   <g id="xtick_3">
    <g id="line2d_4">
     <path d="M 259.902405 476.82772 
L 256.877048 479.664949 
" style="fill: none; stroke: #000000; stroke-width: 0.8; stroke-linecap: square"/>
    </g>
    <g id="text_3">
     <!-- 10 -->
     <g transform="translate(231.60781 521.799516) rotate(-45) scale(0.21 -0.21)">
      <use xlink:href="#DejaVuSans-31"/>
      <use xlink:href="#DejaVuSans-30" x="63.623047"/>
     </g>
    </g>
   </g>
   <g id="xtick_4">
    <g id="line2d_5">
     <path d="M 311.405283 493.333715 
L 308.434531 496.223705 
" style="fill: none; stroke: #000000; stroke-width: 0.8; stroke-linecap: square"/>
    </g>
    <g id="text_4">
     <!-- 11 -->
     <g transform="translate(283.128654 538.467006) rotate(-45) scale(0.21 -0.21)">
      <use xlink:href="#DejaVuSans-31"/>
      <use xlink:href="#DejaVuSans-31" x="63.623047"/>
     </g>
    </g>
   </g>
  </g>
  <g id="axis3d_2">
   <g id="line2d_6">
    <path d="M 455.554898 390.069341 
L 340.912731 504.076731 
" style="fill: none; stroke: #000000; stroke-width: 0.8; stroke-linecap: square"/>
   </g>
   <g id="xtick_5">
    <g id="line2d_7">
     <path d="M 356.140222 486.651363 
L 361.364886 488.306415 
" style="fill: none; stroke: #000000; stroke-width: 0.8; stroke-linecap: square"/>
    </g>
    <g id="text_5">
     <!-- 00 -->
     <g transform="translate(368.70027 499.207917) rotate(-337.5) scale(0.21 -0.21)">
      <use xlink:href="#DejaVuSans-30"/>
      <use xlink:href="#DejaVuSans-30" x="63.623047"/>
     </g>
    </g>
   </g>
   <g id="xtick_6">
    <g id="line2d_8">
     <path d="M 384.5233 458.46129 
L 389.691587 460.064734 
" style="fill: none; stroke: #000000; stroke-width: 0.8; stroke-linecap: square"/>
    </g>
    <g id="text_6">
     <!-- 01 -->
     <g transform="translate(396.913817 470.822876) rotate(-337.5) scale(0.21 -0.21)">
      <use xlink:href="#DejaVuSans-30"/>
      <use xlink:href="#DejaVuSans-31" x="63.623047"/>
     </g>
    </g>
   </g>
   <g id="xtick_7">
    <g id="line2d_9">
     <path d="M 412.028511 431.143114 
L 417.141381 432.697327 
" style="fill: none; stroke: #000000; stroke-width: 0.8; stroke-linecap: square"/>
    </g>
    <g id="text_7">
     <!-- 10 -->
     <g transform="translate(424.254695 443.315808) rotate(-337.5) scale(0.21 -0.21)">
      <use xlink:href="#DejaVuSans-31"/>
      <use xlink:href="#DejaVuSans-30" x="63.623047"/>
     </g>
    </g>
   </g>
   <g id="xtick_8">
    <g id="line2d_10">
     <path d="M 438.695964 404.657001 
L 443.754368 406.164215 
" style="fill: none; stroke: #000000; stroke-width: 0.8; stroke-linecap: square"/>
    </g>
    <g id="text_8">
     <!-- 11 -->
     <g transform="translate(450.762776 416.646599) rotate(-337.5) scale(0.21 -0.21)">
      <use xlink:href="#DejaVuSans-31"/>
      <use xlink:href="#DejaVuSans-31" x="63.623047"/>
     </g>
    </g>
   </g>
  </g>
  <g id="axis3d_3">
   <g id="line2d_11">
    <path d="M 455.554898 390.069341 
L 462.583588 181.103065 
" style="fill: none; stroke: #000000; stroke-width: 0.8; stroke-linecap: square"/>
   </g>
   <g id="xtick_9">
    <g id="line2d_12">
     <path d="M 454.009577 385.688104 
L 459.040857 387.166693 
" style="fill: none; stroke: #000000; stroke-width: 0.8; stroke-linecap: square"/>
    </g>
    <g id="text_9">
     <!-- −0.3 -->
     <g transform="translate(469.175855 379.89514) scale(0.21 -0.21)">
      <defs>
       <path id="DejaVuSans-2212" d="M 678 2272 
L 4684 2272 
L 4684 1741 
L 678 1741 
L 678 2272 
z
" transform="scale(0.015625)"/>
       <path id="DejaVuSans-2e" d="M 684 794 
L 1344 794 
L 1344 0 
L 684 0 
L 684 794 
z
" transform="scale(0.015625)"/>
       <path id="DejaVuSans-33" d="M 2597 2516 
Q 3050 2419 3304 2112 
Q 3559 1806 3559 1356 
Q 3559 666 3084 287 
Q 2609 -91 1734 -91 
Q 1441 -91 1130 -33 
Q 819 25 488 141 
L 488 750 
Q 750 597 1062 519 
Q 1375 441 1716 441 
Q 2309 441 2620 675 
Q 2931 909 2931 1356 
Q 2931 1769 2642 2001 
Q 2353 2234 1838 2234 
L 1294 2234 
L 1294 2753 
L 1863 2753 
Q 2328 2753 2575 2939 
Q 2822 3125 2822 3475 
Q 2822 3834 2567 4026 
Q 2313 4219 1838 4219 
Q 1578 4219 1281 4162 
Q 984 4106 628 3988 
L 628 4550 
Q 988 4650 1302 4700 
Q 1616 4750 1894 4750 
Q 2613 4750 3031 4423 
Q 3450 4097 3450 3541 
Q 3450 3153 3228 2886 
Q 3006 2619 2597 2516 
z
" transform="scale(0.015625)"/>
      </defs>
      <use xlink:href="#DejaVuSans-2212"/>
      <use xlink:href="#DejaVuSans-30" x="83.789062"/>
      <use xlink:href="#DejaVuSans-2e" x="147.412109"/>
      <use xlink:href="#DejaVuSans-33" x="179.199219"/>
     </g>
    </g>
   </g>
   <g id="xtick_10">
    <g id="line2d_13">
     <path d="M 455.075499 353.660379 
L 460.141474 355.120741 
" style="fill: none; stroke: #000000; stroke-width: 0.8; stroke-linecap: square"/>
    </g>
    <g id="text_10">
     <!-- −0.2 -->
     <g transform="translate(470.342459 347.885005) scale(0.21 -0.21)">
      <defs>
       <path id="DejaVuSans-32" d="M 1228 531 
L 3431 531 
L 3431 0 
L 469 0 
L 469 531 
Q 828 903 1448 1529 
Q 2069 2156 2228 2338 
Q 2531 2678 2651 2914 
Q 2772 3150 2772 3378 
Q 2772 3750 2511 3984 
Q 2250 4219 1831 4219 
Q 1534 4219 1204 4116 
Q 875 4013 500 3803 
L 500 4441 
Q 881 4594 1212 4672 
Q 1544 4750 1819 4750 
Q 2544 4750 2975 4387 
Q 3406 4025 3406 3419 
Q 3406 3131 3298 2873 
Q 3191 2616 2906 2266 
Q 2828 2175 2409 1742 
Q 1991 1309 1228 531 
z
" transform="scale(0.015625)"/>
      </defs>
      <use xlink:href="#DejaVuSans-2212"/>
      <use xlink:href="#DejaVuSans-30" x="83.789062"/>
      <use xlink:href="#DejaVuSans-2e" x="147.412109"/>
      <use xlink:href="#DejaVuSans-32" x="179.199219"/>
     </g>
    </g>
   </g>
   <g id="xtick_11">
    <g id="line2d_14">
     <path d="M 456.155809 321.200345 
L 461.25696 322.641852 
" style="fill: none; stroke: #000000; stroke-width: 0.8; stroke-linecap: square"/>
    </g>
    <g id="text_11">
     <!-- −0.1 -->
     <g transform="translate(471.524795 315.443166) scale(0.21 -0.21)">
      <use xlink:href="#DejaVuSans-2212"/>
      <use xlink:href="#DejaVuSans-30" x="83.789062"/>
      <use xlink:href="#DejaVuSans-2e" x="147.412109"/>
      <use xlink:href="#DejaVuSans-31" x="179.199219"/>
     </g>
    </g>
   </g>
   <g id="xtick_12">
    <g id="line2d_15">
     <path d="M 457.2508 288.299189 
L 462.387618 289.721192 
" style="fill: none; stroke: #000000; stroke-width: 0.8; stroke-linecap: square"/>
    </g>
    <g id="text_12">
     <!-- 0.0 -->
     <g transform="translate(472.723186 282.560832) scale(0.21 -0.21)">
      <use xlink:href="#DejaVuSans-30"/>
      <use xlink:href="#DejaVuSans-2e" x="63.623047"/>
      <use xlink:href="#DejaVuSans-30" x="95.410156"/>
     </g>
    </g>
   </g>
   <g id="xtick_13">
    <g id="line2d_16">
     <path d="M 458.360773 254.947859 
L 463.533761 256.349686 
" style="fill: none; stroke: #000000; stroke-width: 0.8; stroke-linecap: square"/>
    </g>
    <g id="text_13">
     <!-- 0.1 -->
     <g transform="translate(473.937959 249.228971) scale(0.21 -0.21)">
      <use xlink:href="#DejaVuSans-30"/>
      <use xlink:href="#DejaVuSans-2e" x="63.623047"/>
      <use xlink:href="#DejaVuSans-31" x="95.410156"/>
     </g>
    </g>
   </g>
   <g id="xtick_14">
    <g id="line2d_17">
     <path d="M 459.486038 221.137051 
L 464.695709 222.51801 
" style="fill: none; stroke: #000000; stroke-width: 0.8; stroke-linecap: square"/>
    </g>
    <g id="text_14">
     <!-- 0.2 -->
     <g transform="translate(475.169454 215.438299) scale(0.21 -0.21)">
      <use xlink:href="#DejaVuSans-30"/>
      <use xlink:href="#DejaVuSans-2e" x="63.623047"/>
      <use xlink:href="#DejaVuSans-32" x="95.410156"/>
     </g>
    </g>
   </g>
   <g id="xtick_15">
    <g id="line2d_18">
     <path d="M 460.626913 186.857204 
L 465.87379 188.216578 
" style="fill: none; stroke: #000000; stroke-width: 0.8; stroke-linecap: square"/>
    </g>
    <g id="text_15">
     <!-- 0.3 -->
     <g transform="translate(476.418017 181.179278) scale(0.21 -0.21)">
      <use xlink:href="#DejaVuSans-30"/>
      <use xlink:href="#DejaVuSans-2e" x="63.623047"/>
      <use xlink:href="#DejaVuSans-33" x="95.410156"/>
     </g>
    </g>
   </g>
  </g>
  <g id="axes_1">
   <g id="Poly3DCollection_1">
    <path d="M 259.142047 243.790395 
L 259.36955 274.997655 
L 283.409803 281.831668 
L 283.335454 250.532641 
z
" clip-path="url(#p1ef1c3e68c)" style="fill: #648fff"/>
    <path d="M 245.089492 286.87204 
L 269.248745 293.809188 
L 283.409803 281.831668 
L 259.36955 274.997655 
z
" clip-path="url(#p1ef1c3e68c)" style="fill: #577ddf"/>
    <path d="M 244.768419 255.505568 
L 245.089492 286.87204 
L 259.36955 274.997655 
L 259.142047 243.790395 
z
" clip-path="url(#p1ef1c3e68c)" style="fill: #324880"/>
    <path d="M 342.317798 384.316179 
L 366.975911 391.699912 
L 380.447419 378.951453 
L 355.915368 371.677828 
z
" clip-path="url(#p1ef1c3e68c)" style="fill: #577ddf"/>
    <path d="M 269.082346 262.350221 
L 283.335454 250.532641 
L 283.409803 281.831668 
L 269.248745 293.809188 
z
" clip-path="url(#p1ef1c3e68c)" style="fill: #648fff"/>
    <path d="M 244.768419 255.505568 
L 259.142047 243.790395 
L 283.335454 250.532641 
L 269.082346 262.350221 
z
" clip-path="url(#p1ef1c3e68c)" style="fill: #3f599f"/>
    <path d="M 244.768419 255.505568 
L 269.082346 262.350221 
L 269.248745 293.809188 
L 245.089492 286.87204 
z
" clip-path="url(#p1ef1c3e68c)" style="fill: #324880"/>
    <path d="M 357.193697 271.115538 
L 355.915368 371.677828 
L 380.447419 378.951453 
L 382.248536 278.097848 
z
" clip-path="url(#p1ef1c3e68c)" style="fill: #648fff"/>
    <path d="M 343.318381 283.248526 
L 342.317798 384.316179 
L 355.915368 371.677828 
L 357.193697 271.115538 
z
" clip-path="url(#p1ef1c3e68c)" style="fill: #324880"/>
    <path d="M 368.504756 290.338783 
L 382.248536 278.097848 
L 380.447419 378.951453 
L 366.975911 391.699912 
z
" clip-path="url(#p1ef1c3e68c)" style="fill: #648fff"/>
    <path d="M 343.318381 283.248526 
L 368.504756 290.338783 
L 366.975911 391.699912 
L 342.317798 384.316179 
z
" clip-path="url(#p1ef1c3e68c)" style="fill: #324880"/>
    <path d="M 343.318381 283.248526 
L 357.193697 271.115538 
L 382.248536 278.097848 
L 368.504756 290.338783 
z
" clip-path="url(#p1ef1c3e68c)" style="fill: #3f599f"/>
    <path d="M 279.263294 281.359371 
L 279.344119 306.424887 
L 304.087486 313.572779 
L 304.134566 288.432765 
z
" clip-path="url(#p1ef1c3e68c)" style="fill: #648fff"/>
    <path d="M 186.425949 365.601133 
L 210.922006 373.060991 
L 225.87791 360.181976 
L 201.502833 352.835732 
z
" clip-path="url(#p1ef1c3e68c)" style="fill: #577ddf"/>
    <path d="M 264.851426 318.845656 
L 289.721343 326.104203 
L 304.087486 313.572779 
L 279.344119 306.424887 
z
" clip-path="url(#p1ef1c3e68c)" style="fill: #577ddf"/>
    <path d="M 264.694602 293.650894 
L 264.851426 318.845656 
L 279.344119 306.424887 
L 279.263294 281.359371 
z
" clip-path="url(#p1ef1c3e68c)" style="fill: #324880"/>
    <path d="M 200.315232 291.736973 
L 201.502833 352.835732 
L 225.87791 360.181976 
L 224.99597 298.903246 
z
" clip-path="url(#p1ef1c3e68c)" style="fill: #648fff"/>
    <path d="M 364.547689 425.463057 
L 389.907363 433.211024 
L 403.529187 419.834723 
L 378.303317 412.205078 
z
" clip-path="url(#p1ef1c3e68c)" style="fill: #577ddf"/>
    <path d="M 185.036117 304.190159 
L 186.425949 365.601133 
L 201.502833 352.835732 
L 200.315232 291.736973 
z
" clip-path="url(#p1ef1c3e68c)" style="fill: #324880"/>
    <path d="M 289.693738 300.834362 
L 304.134566 288.432765 
L 304.087486 313.572779 
L 289.721343 326.104203 
z
" clip-path="url(#p1ef1c3e68c)" style="fill: #648fff"/>
    <path d="M 264.694602 293.650894 
L 279.263294 281.359371 
L 304.134566 288.432765 
L 289.693738 300.834362 
z
" clip-path="url(#p1ef1c3e68c)" style="fill: #3f599f"/>
    <path d="M 264.694602 293.650894 
L 289.693738 300.834362 
L 289.721343 326.104203 
L 264.851426 318.845656 
z
" clip-path="url(#p1ef1c3e68c)" style="fill: #324880"/>
    <path d="M 209.840868 311.468689 
L 224.99597 298.903246 
L 225.87791 360.181976 
L 210.922006 373.060991 
z
" clip-path="url(#p1ef1c3e68c)" style="fill: #648fff"/>
    <path d="M 380.094593 310.035811 
L 378.303317 412.205078 
L 403.529187 419.834723 
L 405.873505 317.367339 
z
" clip-path="url(#p1ef1c3e68c)" style="fill: #648fff"/>
    <path d="M 185.036117 304.190159 
L 209.840868 311.468689 
L 210.922006 373.060991 
L 186.425949 365.601133 
z
" clip-path="url(#p1ef1c3e68c)" style="fill: #324880"/>
    <path d="M 366.054933 322.77665 
L 364.547689 425.463057 
L 378.303317 412.205078 
L 380.094593 310.035811 
z
" clip-path="url(#p1ef1c3e68c)" style="fill: #324880"/>
    <path d="M 185.036117 304.190159 
L 200.315232 291.736973 
L 224.99597 298.903246 
L 209.840868 311.468689 
z
" clip-path="url(#p1ef1c3e68c)" style="fill: #3f599f"/>
    <path d="M 391.97364 330.224356 
L 405.873505 317.367339 
L 403.529187 419.834723 
L 389.907363 433.211024 
z
" clip-path="url(#p1ef1c3e68c)" style="fill: #648fff"/>
    <path d="M 366.054933 322.77665 
L 391.97364 330.224356 
L 389.907363 433.211024 
L 364.547689 425.463057 
z
" clip-path="url(#p1ef1c3e68c)" style="fill: #324880"/>
    <path d="M 366.054933 322.77665 
L 380.094593 310.035811 
L 405.873505 317.367339 
L 391.97364 330.224356 
z
" clip-path="url(#p1ef1c3e68c)" style="fill: #3f599f"/>
    <path d="M 300.382964 320.792533 
L 300.354672 346.269197 
L 325.806796 353.775078 
L 325.970445 328.222086 
z
" clip-path="url(#p1ef1c3e68c)" style="fill: #648fff"/>
    <path d="M 205.272092 407.190078 
L 230.465743 415.026156 
L 245.638626 401.498706 
L 220.57341 393.784908 
z
" clip-path="url(#p1ef1c3e68c)" style="fill: #577ddf"/>
    <path d="M 285.667149 359.313089 
L 311.253708 366.938075 
L 325.806796 353.775078 
L 300.354672 346.269197 
z
" clip-path="url(#p1ef1c3e68c)" style="fill: #577ddf"/>
    <path d="M 285.617368 333.704009 
L 285.667149 359.313089 
L 300.354672 346.269197 
L 300.382964 320.792533 
z
" clip-path="url(#p1ef1c3e68c)" style="fill: #324880"/>
    <path d="M 219.604418 331.693229 
L 220.57341 393.784908 
L 245.638626 401.498706 
L 244.992994 339.222788 
z
" clip-path="url(#p1ef1c3e68c)" style="fill: #648fff"/>
    <path d="M 204.094577 344.778795 
L 205.272092 407.190078 
L 220.57341 393.784908 
L 219.604418 331.693229 
z
" clip-path="url(#p1ef1c3e68c)" style="fill: #324880"/>
    <path d="M 311.340723 341.252088 
L 325.970445 328.222086 
L 325.806796 353.775078 
L 311.253708 366.938075 
z
" clip-path="url(#p1ef1c3e68c)" style="fill: #648fff"/>
    <path d="M 285.617368 333.704009 
L 300.382964 320.792533 
L 325.970445 328.222086 
L 311.340723 341.252088 
z
" clip-path="url(#p1ef1c3e68c)" style="fill: #3f599f"/>
    <path d="M 285.617368 333.704009 
L 311.340723 341.252088 
L 311.253708 366.938075 
L 285.667149 359.313089 
z
" clip-path="url(#p1ef1c3e68c)" style="fill: #324880"/>
    <path d="M 229.614909 352.42929 
L 244.992994 339.222788 
L 245.638626 401.498706 
L 230.465743 415.026156 
z
" clip-path="url(#p1ef1c3e68c)" style="fill: #648fff"/>
    <path d="M 204.094577 344.778795 
L 229.614909 352.42929 
L 230.465743 415.026156 
L 205.272092 407.190078 
z
" clip-path="url(#p1ef1c3e68c)" style="fill: #324880"/>
    <path d="M 204.094577 344.778795 
L 219.604418 331.693229 
L 244.992994 339.222788 
L 229.614909 352.42929 
z
" clip-path="url(#p1ef1c3e68c)" style="fill: #3f599f"/>
    <path d="M 322.577262 362.232164 
L 322.389099 394.996735 
L 348.552926 402.908689 
L 348.922592 370.045469 
z
" clip-path="url(#p1ef1c3e68c)" style="fill: #648fff"/>
    <path d="M 307.52666 408.747407 
L 333.833122 416.787945 
L 348.552926 402.908689 
L 322.389099 394.996735 
z
" clip-path="url(#p1ef1c3e68c)" style="fill: #577ddf"/>
    <path d="M 307.613398 375.811708 
L 307.52666 408.747407 
L 322.389099 394.996735 
L 322.577262 362.232164 
z
" clip-path="url(#p1ef1c3e68c)" style="fill: #324880"/>
    <path d="M 334.103358 383.752879 
L 348.922592 370.045469 
L 348.552926 402.908689 
L 333.833122 416.787945 
z
" clip-path="url(#p1ef1c3e68c)" style="fill: #648fff"/>
    <path d="M 307.613398 375.811708 
L 322.577262 362.232164 
L 348.922592 370.045469 
L 334.103358 383.752879 
z
" clip-path="url(#p1ef1c3e68c)" style="fill: #3f599f"/>
    <path d="M 307.613398 375.811708 
L 334.103358 383.752879 
L 333.833122 416.787945 
L 307.52666 408.747407 
z
" clip-path="url(#p1ef1c3e68c)" style="fill: #324880"/>
   </g>
   <g id="Poly3DCollection_2">
    <path d="M 133.303844 332.428654 
L 339.97851 394.722549 
L 452.48932 289.640604 
L 254.259491 234.67403 
z
" clip-path="url(#p1ef1c3e68c)" style="fill-opacity: 0.25"/>
   </g>
   <g id="Poly3DCollection_3">
    <path d="M 307.740006 257.333728 
L 307.803887 232.723762 
L 332.54668 239.510629 
L 332.358478 264.194432 
z
" clip-path="url(#p1ef1c3e68c)" style="fill: #324880"/>
    <path d="M 293.610085 269.255064 
L 307.740006 257.333728 
L 332.358478 264.194432 
L 318.354469 276.220895 
z
" clip-path="url(#p1ef1c3e68c)" style="fill: #3f599f"/>
    <path d="M 293.610085 269.255064 
L 293.603032 244.516988 
L 307.803887 232.723762 
L 307.740006 257.333728 
z
" clip-path="url(#p1ef1c3e68c)" style="fill: #648fff"/>
    <path d="M 318.354469 276.220895 
L 332.358478 264.194432 
L 332.54668 239.510629 
L 318.473016 251.40838 
z
" clip-path="url(#p1ef1c3e68c)" style="fill: #324880"/>
    <path d="M 293.603032 244.516988 
L 318.473016 251.40838 
L 332.54668 239.510629 
L 307.803887 232.723762 
z
" clip-path="url(#p1ef1c3e68c)" style="fill: #577ddf"/>
    <path d="M 230.176118 267.398968 
L 229.745398 234.871159 
L 254.341876 241.722504 
L 254.611442 274.348379 
z
" clip-path="url(#p1ef1c3e68c)" style="fill: #324880"/>
    <path d="M 293.610085 269.255064 
L 318.354469 276.220895 
L 318.473016 251.40838 
L 293.603032 244.516988 
z
" clip-path="url(#p1ef1c3e68c)" style="fill: #648fff"/>
    <path d="M 215.360117 279.474695 
L 230.176118 267.398968 
L 254.611442 274.348379 
L 239.917712 286.531287 
z
" clip-path="url(#p1ef1c3e68c)" style="fill: #3f599f"/>
    <path d="M 215.360117 279.474695 
L 214.826878 246.776739 
L 229.745398 234.871159 
L 230.176118 267.398968 
z
" clip-path="url(#p1ef1c3e68c)" style="fill: #648fff"/>
    <path d="M 239.917712 286.531287 
L 254.611442 274.348379 
L 254.341876 241.722504 
L 239.54724 253.734466 
z
" clip-path="url(#p1ef1c3e68c)" style="fill: #324880"/>
    <path d="M 214.826878 246.776739 
L 239.54724 253.734466 
L 254.341876 241.722504 
L 229.745398 234.871159 
z
" clip-path="url(#p1ef1c3e68c)" style="fill: #577ddf"/>
    <path d="M 215.360117 279.474695 
L 239.917712 286.531287 
L 239.54724 253.734466 
L 214.826878 246.776739 
z
" clip-path="url(#p1ef1c3e68c)" style="fill: #648fff"/>
    <path d="M 393.916581 297.492507 
L 407.525922 285.142178 
L 433.028834 292.249358 
L 419.556897 304.710553 
z
" clip-path="url(#p1ef1c3e68c)" style="fill: #3f599f"/>
    <path d="M 314.918124 308.082556 
L 329.2282 295.5694 
L 354.547193 302.770126 
L 340.370818 315.396354 
z
" clip-path="url(#p1ef1c3e68c)" style="fill: #3f599f"/>
    <path d="M 407.525922 285.142178 
L 409.915165 181.560531 
L 435.972954 188.347376 
L 433.028834 292.249358 
z
" clip-path="url(#p1ef1c3e68c)" style="fill: #324880"/>
    <path d="M 393.916581 297.492507 
L 396.033475 193.35503 
L 409.915165 181.560531 
L 407.525922 285.142178 
z
" clip-path="url(#p1ef1c3e68c)" style="fill: #648fff"/>
    <path d="M 419.556897 304.710553 
L 433.028834 292.249358 
L 435.972954 188.347376 
L 422.234786 200.250024 
z
" clip-path="url(#p1ef1c3e68c)" style="fill: #324880"/>
    <path d="M 234.8706 318.813237 
L 249.898822 306.134011 
L 275.026797 313.430143 
L 260.12839 326.224704 
z
" clip-path="url(#p1ef1c3e68c)" style="fill: #3f599f"/>
    <path d="M 329.2282 295.5694 
L 329.987414 187.581891 
L 355.874158 194.447387 
L 354.547193 302.770126 
z
" clip-path="url(#p1ef1c3e68c)" style="fill: #324880"/>
    <path d="M 393.916581 297.492507 
L 419.556897 304.710553 
L 422.234786 200.250024 
L 396.033475 193.35503 
z
" clip-path="url(#p1ef1c3e68c)" style="fill: #648fff"/>
    <path d="M 314.918124 308.082556 
L 315.363401 199.513374 
L 329.987414 187.581891 
L 329.2282 295.5694 
z
" clip-path="url(#p1ef1c3e68c)" style="fill: #648fff"/>
    <path d="M 249.898822 306.134011 
L 249.291399 240.725767 
L 274.756525 247.820953 
L 275.026797 313.430143 
z
" clip-path="url(#p1ef1c3e68c)" style="fill: #324880"/>
    <path d="M 234.8706 318.813237 
L 234.054354 253.056342 
L 249.291399 240.725767 
L 249.898822 306.134011 
z
" clip-path="url(#p1ef1c3e68c)" style="fill: #648fff"/>
    <path d="M 153.752973 329.687369 
L 169.51726 316.838746 
L 194.446886 324.232192 
L 178.808334 337.198475 
z
" clip-path="url(#p1ef1c3e68c)" style="fill: #3f599f"/>
    <path d="M 340.370818 315.396354 
L 354.547193 302.770126 
L 355.874158 194.447387 
L 341.389947 206.489104 
z
" clip-path="url(#p1ef1c3e68c)" style="fill: #324880"/>
    <path d="M 396.033475 193.35503 
L 422.234786 200.250024 
L 435.972954 188.347376 
L 409.915165 181.560531 
z
" clip-path="url(#p1ef1c3e68c)" style="fill: #577ddf"/>
    <path d="M 314.918124 308.082556 
L 340.370818 315.396354 
L 341.389947 206.489104 
L 315.363401 199.513374 
z
" clip-path="url(#p1ef1c3e68c)" style="fill: #648fff"/>
    <path d="M 260.12839 326.224704 
L 275.026797 313.430143 
L 274.756525 247.820953 
L 259.652797 260.265219 
z
" clip-path="url(#p1ef1c3e68c)" style="fill: #324880"/>
    <path d="M 169.51726 316.838746 
L 167.917124 255.040316 
L 193.158726 262.243678 
L 194.446886 324.232192 
z
" clip-path="url(#p1ef1c3e68c)" style="fill: #324880"/>
    <path d="M 234.8706 318.813237 
L 260.12839 326.224704 
L 259.652797 260.265219 
L 234.054354 253.056342 
z
" clip-path="url(#p1ef1c3e68c)" style="fill: #648fff"/>
    <path d="M 153.752973 329.687369 
L 151.937396 267.559138 
L 167.917124 255.040316 
L 169.51726 316.838746 
z
" clip-path="url(#p1ef1c3e68c)" style="fill: #648fff"/>
    <path d="M 234.054354 253.056342 
L 259.652797 260.265219 
L 274.756525 247.820953 
L 249.291399 240.725767 
z
" clip-path="url(#p1ef1c3e68c)" style="fill: #577ddf"/>
    <path d="M 178.808334 337.198475 
L 194.446886 324.232192 
L 193.158726 262.243678 
L 177.307866 274.878617 
z
" clip-path="url(#p1ef1c3e68c)" style="fill: #324880"/>
    <path d="M 315.363401 199.513374 
L 341.389947 206.489104 
L 355.874158 194.447387 
L 329.987414 187.581891 
z
" clip-path="url(#p1ef1c3e68c)" style="fill: #577ddf"/>
    <path d="M 351.792419 335.719727 
L 352.091622 310.283926 
L 378.290653 317.772939 
L 377.852125 343.286395 
z
" clip-path="url(#p1ef1c3e68c)" style="fill: #324880"/>
    <path d="M 153.752973 329.687369 
L 178.808334 337.198475 
L 177.307866 274.878617 
L 151.937396 267.559138 
z
" clip-path="url(#p1ef1c3e68c)" style="fill: #648fff"/>
    <path d="M 337.301702 348.869894 
L 351.792419 335.719727 
L 377.852125 343.286395 
L 363.503614 356.558398 
z
" clip-path="url(#p1ef1c3e68c)" style="fill: #3f599f"/>
    <path d="M 337.301702 348.869894 
L 337.526348 323.299369 
L 352.091622 310.283926 
L 351.792419 335.719727 
z
" clip-path="url(#p1ef1c3e68c)" style="fill: #648fff"/>
    <path d="M 151.937396 267.559138 
L 177.307866 274.878617 
L 193.158726 262.243678 
L 167.917124 255.040316 
z
" clip-path="url(#p1ef1c3e68c)" style="fill: #577ddf"/>
    <path d="M 363.503614 356.558398 
L 377.852125 343.286395 
L 378.290653 317.772939 
L 363.869122 330.909611 
z
" clip-path="url(#p1ef1c3e68c)" style="fill: #324880"/>
    <path d="M 337.526348 323.299369 
L 363.869122 330.909611 
L 378.290653 317.772939 
L 352.091622 310.283926 
z
" clip-path="url(#p1ef1c3e68c)" style="fill: #577ddf"/>
    <path d="M 270.615812 346.821816 
L 270.445544 313.197189 
L 296.486444 320.763518 
L 296.476129 354.49128 
z
" clip-path="url(#p1ef1c3e68c)" style="fill: #324880"/>
    <path d="M 337.301702 348.869894 
L 363.503614 356.558398 
L 363.869122 330.909611 
L 337.526348 323.299369 
z
" clip-path="url(#p1ef1c3e68c)" style="fill: #648fff"/>
    <path d="M 255.372594 360.150939 
L 270.615812 346.821816 
L 296.476129 354.49128 
L 281.370961 367.94474 
z
" clip-path="url(#p1ef1c3e68c)" style="fill: #3f599f"/>
    <path d="M 255.372594 360.150939 
L 255.093666 326.347383 
L 270.445544 313.197189 
L 270.615812 346.821816 
z
" clip-path="url(#p1ef1c3e68c)" style="fill: #648fff"/>
    <path d="M 281.370961 367.94474 
L 296.476129 354.49128 
L 296.486444 320.763518 
L 281.274553 334.037245 
z
" clip-path="url(#p1ef1c3e68c)" style="fill: #324880"/>
    <path d="M 255.093666 326.347383 
L 281.274553 334.037245 
L 296.486444 320.763518 
L 270.445544 313.197189 
z
" clip-path="url(#p1ef1c3e68c)" style="fill: #577ddf"/>
    <path d="M 255.372594 360.150939 
L 281.370961 367.94474 
L 281.274553 334.037245 
L 255.093666 326.347383 
z
" clip-path="url(#p1ef1c3e68c)" style="fill: #648fff"/>
   </g>
   <g id="text_16">
    <!-- Real Amplitude (ρ) -->
    <g transform="translate(190.023516 51.6) scale(0.21 -0.21)">
     <defs>
      <path id="DejaVuSans-52" d="M 2841 2188 
Q 3044 2119 3236 1894 
Q 3428 1669 3622 1275 
L 4263 0 
L 3584 0 
L 2988 1197 
Q 2756 1666 2539 1819 
Q 2322 1972 1947 1972 
L 1259 1972 
L 1259 0 
L 628 0 
L 628 4666 
L 2053 4666 
Q 2853 4666 3247 4331 
Q 3641 3997 3641 3322 
Q 3641 2881 3436 2590 
Q 3231 2300 2841 2188 
z
M 1259 4147 
L 1259 2491 
L 2053 2491 
Q 2509 2491 2742 2702 
Q 2975 2913 2975 3322 
Q 2975 3731 2742 3939 
Q 2509 4147 2053 4147 
L 1259 4147 
z
" transform="scale(0.015625)"/>
      <path id="DejaVuSans-65" d="M 3597 1894 
L 3597 1613 
L 953 1613 
Q 991 1019 1311 708 
Q 1631 397 2203 397 
Q 2534 397 2845 478 
Q 3156 559 3463 722 
L 3463 178 
Q 3153 47 2828 -22 
Q 2503 -91 2169 -91 
Q 1331 -91 842 396 
Q 353 884 353 1716 
Q 353 2575 817 3079 
Q 1281 3584 2069 3584 
Q 2775 3584 3186 3129 
Q 3597 2675 3597 1894 
z
M 3022 2063 
Q 3016 2534 2758 2815 
Q 2500 3097 2075 3097 
Q 1594 3097 1305 2825 
Q 1016 2553 972 2059 
L 3022 2063 
z
" transform="scale(0.015625)"/>
      <path id="DejaVuSans-61" d="M 2194 1759 
Q 1497 1759 1228 1600 
Q 959 1441 959 1056 
Q 959 750 1161 570 
Q 1363 391 1709 391 
Q 2188 391 2477 730 
Q 2766 1069 2766 1631 
L 2766 1759 
L 2194 1759 
z
M 3341 1997 
L 3341 0 
L 2766 0 
L 2766 531 
Q 2569 213 2275 61 
Q 1981 -91 1556 -91 
Q 1019 -91 701 211 
Q 384 513 384 1019 
Q 384 1609 779 1909 
Q 1175 2209 1959 2209 
L 2766 2209 
L 2766 2266 
Q 2766 2663 2505 2880 
Q 2244 3097 1772 3097 
Q 1472 3097 1187 3025 
Q 903 2953 641 2809 
L 641 3341 
Q 956 3463 1253 3523 
Q 1550 3584 1831 3584 
Q 2591 3584 2966 3190 
Q 3341 2797 3341 1997 
z
" transform="scale(0.015625)"/>
      <path id="DejaVuSans-6c" d="M 603 4863 
L 1178 4863 
L 1178 0 
L 603 0 
L 603 4863 
z
" transform="scale(0.015625)"/>
      <path id="DejaVuSans-20" transform="scale(0.015625)"/>
      <path id="DejaVuSans-41" d="M 2188 4044 
L 1331 1722 
L 3047 1722 
L 2188 4044 
z
M 1831 4666 
L 2547 4666 
L 4325 0 
L 3669 0 
L 3244 1197 
L 1141 1197 
L 716 0 
L 50 0 
L 1831 4666 
z
" transform="scale(0.015625)"/>
      <path id="DejaVuSans-6d" d="M 3328 2828 
Q 3544 3216 3844 3400 
Q 4144 3584 4550 3584 
Q 5097 3584 5394 3201 
Q 5691 2819 5691 2113 
L 5691 0 
L 5113 0 
L 5113 2094 
Q 5113 2597 4934 2840 
Q 4756 3084 4391 3084 
Q 3944 3084 3684 2787 
Q 3425 2491 3425 1978 
L 3425 0 
L 2847 0 
L 2847 2094 
Q 2847 2600 2669 2842 
Q 2491 3084 2119 3084 
Q 1678 3084 1418 2786 
Q 1159 2488 1159 1978 
L 1159 0 
L 581 0 
L 581 3500 
L 1159 3500 
L 1159 2956 
Q 1356 3278 1631 3431 
Q 1906 3584 2284 3584 
Q 2666 3584 2933 3390 
Q 3200 3197 3328 2828 
z
" transform="scale(0.015625)"/>
      <path id="DejaVuSans-70" d="M 1159 525 
L 1159 -1331 
L 581 -1331 
L 581 3500 
L 1159 3500 
L 1159 2969 
Q 1341 3281 1617 3432 
Q 1894 3584 2278 3584 
Q 2916 3584 3314 3078 
Q 3713 2572 3713 1747 
Q 3713 922 3314 415 
Q 2916 -91 2278 -91 
Q 1894 -91 1617 61 
Q 1341 213 1159 525 
z
M 3116 1747 
Q 3116 2381 2855 2742 
Q 2594 3103 2138 3103 
Q 1681 3103 1420 2742 
Q 1159 2381 1159 1747 
Q 1159 1113 1420 752 
Q 1681 391 2138 391 
Q 2594 391 2855 752 
Q 3116 1113 3116 1747 
z
" transform="scale(0.015625)"/>
      <path id="DejaVuSans-69" d="M 603 3500 
L 1178 3500 
L 1178 0 
L 603 0 
L 603 3500 
z
M 603 4863 
L 1178 4863 
L 1178 4134 
L 603 4134 
L 603 4863 
z
" transform="scale(0.015625)"/>
      <path id="DejaVuSans-74" d="M 1172 4494 
L 1172 3500 
L 2356 3500 
L 2356 3053 
L 1172 3053 
L 1172 1153 
Q 1172 725 1289 603 
Q 1406 481 1766 481 
L 2356 481 
L 2356 0 
L 1766 0 
Q 1100 0 847 248 
Q 594 497 594 1153 
L 594 3053 
L 172 3053 
L 172 3500 
L 594 3500 
L 594 4494 
L 1172 4494 
z
" transform="scale(0.015625)"/>
      <path id="DejaVuSans-75" d="M 544 1381 
L 544 3500 
L 1119 3500 
L 1119 1403 
Q 1119 906 1312 657 
Q 1506 409 1894 409 
Q 2359 409 2629 706 
Q 2900 1003 2900 1516 
L 2900 3500 
L 3475 3500 
L 3475 0 
L 2900 0 
L 2900 538 
Q 2691 219 2414 64 
Q 2138 -91 1772 -91 
Q 1169 -91 856 284 
Q 544 659 544 1381 
z
M 1991 3584 
L 1991 3584 
z
" transform="scale(0.015625)"/>
      <path id="DejaVuSans-64" d="M 2906 2969 
L 2906 4863 
L 3481 4863 
L 3481 0 
L 2906 0 
L 2906 525 
Q 2725 213 2448 61 
Q 2172 -91 1784 -91 
Q 1150 -91 751 415 
Q 353 922 353 1747 
Q 353 2572 751 3078 
Q 1150 3584 1784 3584 
Q 2172 3584 2448 3432 
Q 2725 3281 2906 2969 
z
M 947 1747 
Q 947 1113 1208 752 
Q 1469 391 1925 391 
Q 2381 391 2643 752 
Q 2906 1113 2906 1747 
Q 2906 2381 2643 2742 
Q 2381 3103 1925 3103 
Q 1469 3103 1208 2742 
Q 947 2381 947 1747 
z
" transform="scale(0.015625)"/>
      <path id="DejaVuSans-28" d="M 1984 4856 
Q 1566 4138 1362 3434 
Q 1159 2731 1159 2009 
Q 1159 1288 1364 580 
Q 1569 -128 1984 -844 
L 1484 -844 
Q 1016 -109 783 600 
Q 550 1309 550 2009 
Q 550 2706 781 3412 
Q 1013 4119 1484 4856 
L 1984 4856 
z
" transform="scale(0.015625)"/>
      <path id="DejaVuSans-3c1" d="M 863 2875 
Q 1053 3194 1525 3475 
Q 1709 3584 2278 3584 
Q 2916 3584 3314 3078 
Q 3713 2572 3713 1747 
Q 3713 922 3314 415 
Q 2916 -91 2278 -91 
Q 1894 -91 1617 61 
Q 1341 213 1159 525 
L 1159 -1331 
L 581 -1331 
L 581 1716 
Q 581 2438 863 2875 
z
M 3116 1747 
Q 3116 2381 2855 2742 
Q 2594 3103 2138 3103 
Q 1681 3103 1420 2742 
Q 1159 2381 1159 1747 
Q 1159 1113 1420 752 
Q 1681 391 2138 391 
Q 2594 391 2855 752 
Q 3116 1113 3116 1747 
z
" transform="scale(0.015625)"/>
      <path id="DejaVuSans-29" d="M 513 4856 
L 1013 4856 
Q 1481 4119 1714 3412 
Q 1947 2706 1947 2009 
Q 1947 1309 1714 600 
Q 1481 -109 1013 -844 
L 513 -844 
Q 928 -128 1133 580 
Q 1338 1288 1338 2009 
Q 1338 2731 1133 3434 
Q 928 4138 513 4856 
z
" transform="scale(0.015625)"/>
     </defs>
     <use xlink:href="#DejaVuSans-52"/>
     <use xlink:href="#DejaVuSans-65" x="64.982422"/>
     <use xlink:href="#DejaVuSans-61" x="126.505859"/>
     <use xlink:href="#DejaVuSans-6c" x="187.785156"/>
     <use xlink:href="#DejaVuSans-20" x="215.568359"/>
     <use xlink:href="#DejaVuSans-41" x="247.355469"/>
     <use xlink:href="#DejaVuSans-6d" x="315.763672"/>
     <use xlink:href="#DejaVuSans-70" x="413.175781"/>
     <use xlink:href="#DejaVuSans-6c" x="476.652344"/>
     <use xlink:href="#DejaVuSans-69" x="504.435547"/>
     <use xlink:href="#DejaVuSans-74" x="532.21875"/>
     <use xlink:href="#DejaVuSans-75" x="571.427734"/>
     <use xlink:href="#DejaVuSans-64" x="634.806641"/>
     <use xlink:href="#DejaVuSans-65" x="698.283203"/>
     <use xlink:href="#DejaVuSans-20" x="759.806641"/>
     <use xlink:href="#DejaVuSans-28" x="791.59375"/>
     <use xlink:href="#DejaVuSans-3c1" x="830.607422"/>
     <use xlink:href="#DejaVuSans-29" x="894.083984"/>
    </g>
   </g>
  </g>
  <g id="patch_6">
   <path d="M 604.8 576 
L 1123.2 576 
L 1123.2 57.6 
L 604.8 57.6 
z
" style="fill: #ffffff"/>
  </g>
  <g id="pane3d_4">
   <g id="patch_7">
    <path d="M 706.07018 436.456468 
L 829.494133 330.550231 
L 827.743197 126.70673 
L 698.643358 223.613571 
" style="fill: #f2f2f2; opacity: 0.5; stroke: #f2f2f2; stroke-linejoin: miter"/>
   </g>
  </g>
  <g id="pane3d_5">
   <g id="patch_8">
    <path d="M 829.494133 330.550231 
L 1031.554898 390.069341 
L 1038.583588 181.103065 
L 827.743197 126.70673 
" style="fill: #e6e6e6; opacity: 0.5; stroke: #e6e6e6; stroke-linejoin: miter"/>
   </g>
  </g>
  <g id="pane3d_6">
   <g id="patch_9">
    <path d="M 706.07018 436.456468 
L 916.912731 504.076731 
L 1031.554898 390.069341 
L 829.494133 330.550231 
" style="fill: #ececec; opacity: 0.5; stroke: #ececec; stroke-linejoin: miter"/>
   </g>
  </g>
  <g id="grid3d_4">
   <g id="Line3DCollection_4">
    <path d="M 734.635886 445.617904 
L 856.925726 338.630493 
L 856.328796 134.081748 
" style="fill: none; stroke: #b0b0b0; stroke-width: 0.8"/>
    <path d="M 784.310046 461.549127 
L 904.58611 352.669358 
L 906.022474 146.902603 
" style="fill: none; stroke: #b0b0b0; stroke-width: 0.8"/>
    <path d="M 834.89502 477.772462 
L 953.066152 366.949661 
L 956.607663 159.953465 
" style="fill: none; stroke: #b0b0b0; stroke-width: 0.8"/>
    <path d="M 886.41609 494.296016 
L 1002.38718 381.477685 
L 1008.108569 173.24058 
" style="fill: none; stroke: #b0b0b0; stroke-width: 0.8"/>
   </g>
  </g>
  <g id="grid3d_5">
   <g id="Line3DCollection_5">
    <path d="M 717.757365 209.265931 
L 724.301379 420.812846 
L 933.880707 487.202708 
" style="fill: none; stroke: #b0b0b0; stroke-width: 0.8"/>
    <path d="M 749.704273 185.285468 
L 754.805664 394.638072 
L 962.24502 458.995448 
" style="fill: none; stroke: #b0b0b0; stroke-width: 0.8"/>
    <path d="M 780.65707 162.051218 
L 784.400054 369.24405 
L 989.731787 431.660877 
" style="fill: none; stroke: #b0b0b0; stroke-width: 0.8"/>
    <path d="M 810.661448 139.528886 
L 813.124663 344.596362 
L 1016.38111 405.159111 
" style="fill: none; stroke: #b0b0b0; stroke-width: 0.8"/>
   </g>
  </g>
  <g id="grid3d_6">
   <g id="Line3DCollection_6">
    <path d="M 1031.993098 377.041454 
L 829.384815 317.823438 
L 705.607678 423.201776 
" style="fill: none; stroke: #b0b0b0; stroke-width: 0.8"/>
    <path d="M 1033.224813 340.42198 
L 829.077649 282.06333 
L 704.307284 385.934199 
" style="fill: none; stroke: #b0b0b0; stroke-width: 0.8"/>
    <path d="M 1034.475521 303.237836 
L 828.765916 245.771469 
L 702.98628 348.075965 
" style="fill: none; stroke: #b0b0b0; stroke-width: 0.8"/>
    <path d="M 1035.745665 265.475858 
L 828.449513 208.935906 
L 701.644172 309.612921 
" style="fill: none; stroke: #b0b0b0; stroke-width: 0.8"/>
    <path d="M 1037.035701 227.122473 
L 828.128334 171.54433 
L 700.28045 270.530457 
" style="fill: none; stroke: #b0b0b0; stroke-width: 0.8"/>
    <path d="M 1038.3461 188.163678 
L 827.80227 133.584056 
L 698.894588 230.813488 
" style="fill: none; stroke: #b0b0b0; stroke-width: 0.8"/>
   </g>
  </g>
  <g id="axis3d_4">
   <g id="line2d_19">
    <path d="M 706.07018 436.456468 
L 916.912731 504.076731 
" style="fill: none; stroke: #000000; stroke-width: 0.8; stroke-linecap: square"/>
   </g>
   <g id="xtick_16">
    <g id="line2d_20">
     <path d="M 735.677227 444.706868 
L 732.549953 447.442819 
" style="fill: none; stroke: #000000; stroke-width: 0.8; stroke-linecap: square"/>
    </g>
    <g id="text_17">
     <!-- 00 -->
     <g transform="translate(707.351686 489.365693) rotate(-45) scale(0.21 -0.21)">
      <use xlink:href="#DejaVuSans-30"/>
      <use xlink:href="#DejaVuSans-30" x="63.623047"/>
     </g>
    </g>
   </g>
   <g id="xtick_17">
    <g id="line2d_21">
     <path d="M 785.334802 460.621468 
L 782.257306 463.407368 
" style="fill: none; stroke: #000000; stroke-width: 0.8; stroke-linecap: square"/>
    </g>
    <g id="text_18">
     <!-- 01 -->
     <g transform="translate(757.023931 505.435143) rotate(-45) scale(0.21 -0.21)">
      <use xlink:href="#DejaVuSans-30"/>
      <use xlink:href="#DejaVuSans-31" x="63.623047"/>
     </g>
    </g>
   </g>
   <g id="xtick_18">
    <g id="line2d_22">
     <path d="M 835.902405 476.82772 
L 832.877048 479.664949 
" style="fill: none; stroke: #000000; stroke-width: 0.8; stroke-linecap: square"/>
    </g>
    <g id="text_19">
     <!-- 10 -->
     <g transform="translate(807.60781 521.799516) rotate(-45) scale(0.21 -0.21)">
      <use xlink:href="#DejaVuSans-31"/>
      <use xlink:href="#DejaVuSans-30" x="63.623047"/>
     </g>
    </g>
   </g>
   <g id="xtick_19">
    <g id="line2d_23">
     <path d="M 887.405283 493.333715 
L 884.434531 496.223705 
" style="fill: none; stroke: #000000; stroke-width: 0.8; stroke-linecap: square"/>
    </g>
    <g id="text_20">
     <!-- 11 -->
     <g transform="translate(859.128654 538.467006) rotate(-45) scale(0.21 -0.21)">
      <use xlink:href="#DejaVuSans-31"/>
      <use xlink:href="#DejaVuSans-31" x="63.623047"/>
     </g>
    </g>
   </g>
  </g>
  <g id="axis3d_5">
   <g id="line2d_24">
    <path d="M 1031.554898 390.069341 
L 916.912731 504.076731 
" style="fill: none; stroke: #000000; stroke-width: 0.8; stroke-linecap: square"/>
   </g>
   <g id="xtick_20">
    <g id="line2d_25">
     <path d="M 932.140222 486.651363 
L 937.364886 488.306415 
" style="fill: none; stroke: #000000; stroke-width: 0.8; stroke-linecap: square"/>
    </g>
    <g id="text_21">
     <!-- 00 -->
     <g transform="translate(944.70027 499.207917) rotate(-337.5) scale(0.21 -0.21)">
      <use xlink:href="#DejaVuSans-30"/>
      <use xlink:href="#DejaVuSans-30" x="63.623047"/>
     </g>
    </g>
   </g>
   <g id="xtick_21">
    <g id="line2d_26">
     <path d="M 960.5233 458.46129 
L 965.691587 460.064734 
" style="fill: none; stroke: #000000; stroke-width: 0.8; stroke-linecap: square"/>
    </g>
    <g id="text_22">
     <!-- 01 -->
     <g transform="translate(972.913817 470.822876) rotate(-337.5) scale(0.21 -0.21)">
      <use xlink:href="#DejaVuSans-30"/>
      <use xlink:href="#DejaVuSans-31" x="63.623047"/>
     </g>
    </g>
   </g>
   <g id="xtick_22">
    <g id="line2d_27">
     <path d="M 988.028511 431.143114 
L 993.141381 432.697327 
" style="fill: none; stroke: #000000; stroke-width: 0.8; stroke-linecap: square"/>
    </g>
    <g id="text_23">
     <!-- 10 -->
     <g transform="translate(1000.254695 443.315808) rotate(-337.5) scale(0.21 -0.21)">
      <use xlink:href="#DejaVuSans-31"/>
      <use xlink:href="#DejaVuSans-30" x="63.623047"/>
     </g>
    </g>
   </g>
   <g id="xtick_23">
    <g id="line2d_28">
     <path d="M 1014.695964 404.657001 
L 1019.754368 406.164215 
" style="fill: none; stroke: #000000; stroke-width: 0.8; stroke-linecap: square"/>
    </g>
    <g id="text_24">
     <!-- 11 -->
     <g transform="translate(1026.762776 416.646599) rotate(-337.5) scale(0.21 -0.21)">
      <use xlink:href="#DejaVuSans-31"/>
      <use xlink:href="#DejaVuSans-31" x="63.623047"/>
     </g>
    </g>
   </g>
  </g>
  <g id="axis3d_6">
   <g id="line2d_29">
    <path d="M 1031.554898 390.069341 
L 1038.583588 181.103065 
" style="fill: none; stroke: #000000; stroke-width: 0.8; stroke-linecap: square"/>
   </g>
   <g id="xtick_24">
    <g id="line2d_30">
     <path d="M 1030.313685 376.550598 
L 1035.354862 378.024025 
" style="fill: none; stroke: #000000; stroke-width: 0.8; stroke-linecap: square"/>
    </g>
    <g id="text_25">
     <!-- −0.2 -->
     <g transform="translate(1045.508688 370.762616) scale(0.21 -0.21)">
      <use xlink:href="#DejaVuSans-2212"/>
      <use xlink:href="#DejaVuSans-30" x="83.789062"/>
      <use xlink:href="#DejaVuSans-2e" x="147.412109"/>
      <use xlink:href="#DejaVuSans-32" x="179.199219"/>
     </g>
    </g>
   </g>
   <g id="xtick_25">
    <g id="line2d_31">
     <path d="M 1031.532193 339.938119 
L 1036.613037 341.390557 
" style="fill: none; stroke: #000000; stroke-width: 0.8; stroke-linecap: square"/>
    </g>
    <g id="text_26">
     <!-- −0.1 -->
     <g transform="translate(1046.842285 334.170391) scale(0.21 -0.21)">
      <use xlink:href="#DejaVuSans-2212"/>
      <use xlink:href="#DejaVuSans-30" x="83.789062"/>
      <use xlink:href="#DejaVuSans-2e" x="147.412109"/>
      <use xlink:href="#DejaVuSans-31" x="179.199219"/>
     </g>
    </g>
   </g>
   <g id="xtick_26">
    <g id="line2d_32">
     <path d="M 1032.769485 302.761243 
L 1037.890624 304.191868 
" style="fill: none; stroke: #000000; stroke-width: 0.8; stroke-linecap: square"/>
    </g>
    <g id="text_27">
     <!-- 0.0 -->
     <g transform="translate(1048.196422 297.014566) scale(0.21 -0.21)">
      <use xlink:href="#DejaVuSans-30"/>
      <use xlink:href="#DejaVuSans-2e" x="63.623047"/>
      <use xlink:href="#DejaVuSans-30" x="95.410156"/>
     </g>
    </g>
   </g>
   <g id="xtick_27">
    <g id="line2d_33">
     <path d="M 1034.025998 265.00682 
L 1039.188076 266.414775 
" style="fill: none; stroke: #000000; stroke-width: 0.8; stroke-linecap: square"/>
    </g>
    <g id="text_28">
     <!-- 0.1 -->
     <g transform="translate(1049.571578 259.282018) scale(0.21 -0.21)">
      <use xlink:href="#DejaVuSans-30"/>
      <use xlink:href="#DejaVuSans-2e" x="63.623047"/>
      <use xlink:href="#DejaVuSans-31" x="95.410156"/>
     </g>
    </g>
   </g>
   <g id="xtick_28">
    <g id="line2d_34">
     <path d="M 1035.302185 226.661285 
L 1040.505861 228.045682 
" style="fill: none; stroke: #000000; stroke-width: 0.8; stroke-linecap: square"/>
    </g>
    <g id="text_29">
     <!-- 0.2 -->
     <g transform="translate(1050.968245 220.959215) scale(0.21 -0.21)">
      <use xlink:href="#DejaVuSans-30"/>
      <use xlink:href="#DejaVuSans-2e" x="63.623047"/>
      <use xlink:href="#DejaVuSans-32" x="95.410156"/>
     </g>
    </g>
   </g>
   <g id="xtick_29">
    <g id="line2d_35">
     <path d="M 1036.598509 187.710647 
L 1041.84446 189.070563 
" style="fill: none; stroke: #000000; stroke-width: 0.8; stroke-linecap: square"/>
    </g>
    <g id="text_30">
     <!-- 0.3 -->
     <g transform="translate(1052.386933 182.032197) scale(0.21 -0.21)">
      <use xlink:href="#DejaVuSans-30"/>
      <use xlink:href="#DejaVuSans-2e" x="63.623047"/>
      <use xlink:href="#DejaVuSans-33" x="95.410156"/>
     </g>
    </g>
   </g>
  </g>
  <g id="axes_2">
   <g id="Poly3DCollection_4">
    <path d="M 821.716621 348.137754 
L 845.573734 355.250488 
L 859.555032 342.969318 
L 835.813976 335.961011 
z
" clip-path="url(#p2be5a8bc27)" style="fill: #577ddf"/>
    <path d="M 835.245481 257.978751 
L 835.813976 335.961011 
L 859.555032 342.969318 
L 859.369258 264.762933 
z
" clip-path="url(#p2be5a8bc27)" style="fill: #648fff"/>
    <path d="M 820.914398 269.766682 
L 821.716621 348.137754 
L 835.813976 335.961011 
L 835.245481 257.978751 
z
" clip-path="url(#p2be5a8bc27)" style="fill: #324880"/>
    <path d="M 845.158002 276.653607 
L 859.369258 264.762933 
L 859.555032 342.969318 
L 845.573734 355.250488 
z
" clip-path="url(#p2be5a8bc27)" style="fill: #648fff"/>
    <path d="M 820.914398 269.766682 
L 845.158002 276.653607 
L 845.573734 355.250488 
L 821.716621 348.137754 
z
" clip-path="url(#p2be5a8bc27)" style="fill: #324880"/>
    <path d="M 820.914398 269.766682 
L 835.245481 257.978751 
L 859.369258 264.762933 
L 845.158002 276.653607 
z
" clip-path="url(#p2be5a8bc27)" style="fill: #3f599f"/>
    <path d="M 841.326371 395.148648 
L 865.804936 402.627416 
L 879.944894 389.715135 
L 855.588941 382.348599 
z
" clip-path="url(#p2be5a8bc27)" style="fill: #577ddf"/>
    <path d="M 855.309792 295.779237 
L 855.588941 382.348599 
L 879.944894 389.715135 
L 880.107481 302.895629 
z
" clip-path="url(#p2be5a8bc27)" style="fill: #648fff"/>
    <path d="M 840.784822 308.145358 
L 841.326371 395.148648 
L 855.588941 382.348599 
L 855.309792 295.779237 
z
" clip-path="url(#p2be5a8bc27)" style="fill: #324880"/>
    <path d="M 865.709619 315.372162 
L 880.107481 302.895629 
L 879.944894 389.715135 
L 865.804936 402.627416 
z
" clip-path="url(#p2be5a8bc27)" style="fill: #648fff"/>
    <path d="M 840.784822 308.145358 
L 865.709619 315.372162 
L 865.804936 402.627416 
L 841.326371 395.148648 
z
" clip-path="url(#p2be5a8bc27)" style="fill: #324880"/>
    <path d="M 840.784822 308.145358 
L 855.309792 295.779237 
L 880.107481 302.895629 
L 865.709619 315.372162 
z
" clip-path="url(#p2be5a8bc27)" style="fill: #3f599f"/>
    <path d="M 826.034125 320.703658 
L 826.034125 320.703658 
L 851.086996 328.043462 
L 851.086996 328.043462 
z
" clip-path="url(#p2be5a8bc27)" style="fill: #648fff"/>
    <path d="M 811.052395 333.458651 
L 811.052395 333.458651 
L 826.034125 320.703658 
L 826.034125 320.703658 
z
" clip-path="url(#p2be5a8bc27)" style="fill: #324880"/>
    <path d="M 955.838742 324.628838 
L 955.838742 324.628838 
L 981.538634 332.004143 
L 981.538634 332.004143 
z
" clip-path="url(#p2be5a8bc27)" style="fill: #648fff"/>
    <path d="M 912.404191 451.02988 
L 938.043508 459.018441 
L 952.099948 445.227487 
L 926.596782 437.362855 
z
" clip-path="url(#p2be5a8bc27)" style="fill: #577ddf"/>
    <path d="M 811.052395 333.458651 
L 836.234306 340.914128 
L 851.086996 328.043462 
L 826.034125 320.703658 
z
" clip-path="url(#p2be5a8bc27)" style="fill: #577ddf"/>
    <path d="M 811.052395 333.458651 
L 826.034125 320.703658 
L 851.086996 328.043462 
L 836.234306 340.914128 
z
" clip-path="url(#p2be5a8bc27)" style="fill: #3f599f"/>
    <path d="M 941.83962 337.445625 
L 941.83962 337.445625 
L 955.838742 324.628838 
L 955.838742 324.628838 
z
" clip-path="url(#p2be5a8bc27)" style="fill: #324880"/>
    <path d="M 836.234306 340.914128 
L 851.086996 328.043462 
L 851.086996 328.043462 
L 836.234306 340.914128 
z
" clip-path="url(#p2be5a8bc27)" style="fill: #648fff"/>
    <path d="M 941.83962 337.445625 
L 955.838742 324.628838 
L 981.538634 332.004143 
L 967.678443 344.937445 
z
" clip-path="url(#p2be5a8bc27)" style="fill: #3f599f"/>
    <path d="M 941.83962 337.445625 
L 967.678443 344.937445 
L 981.538634 332.004143 
L 955.838742 324.628838 
z
" clip-path="url(#p2be5a8bc27)" style="fill: #577ddf"/>
    <path d="M 745.896167 331.4724 
L 745.896167 331.4724 
L 770.751897 338.909805 
L 770.751897 338.909805 
z
" clip-path="url(#p2be5a8bc27)" style="fill: #648fff"/>
    <path d="M 811.052395 333.458651 
L 836.234306 340.914128 
L 836.234306 340.914128 
L 811.052395 333.458651 
z
" clip-path="url(#p2be5a8bc27)" style="fill: #324880"/>
    <path d="M 730.182842 344.397284 
L 730.182842 344.397284 
L 745.896167 331.4724 
L 745.896167 331.4724 
z
" clip-path="url(#p2be5a8bc27)" style="fill: #324880"/>
    <path d="M 967.678443 344.937445 
L 981.538634 332.004143 
L 981.538634 332.004143 
L 967.678443 344.937445 
z
" clip-path="url(#p2be5a8bc27)" style="fill: #648fff"/>
    <path d="M 927.618966 350.465233 
L 926.596782 437.362855 
L 952.099948 445.227487 
L 953.597913 358.076353 
z
" clip-path="url(#p2be5a8bc27)" style="fill: #648fff"/>
    <path d="M 941.83962 337.445625 
L 967.678443 344.937445 
L 967.678443 344.937445 
L 941.83962 337.445625 
z
" clip-path="url(#p2be5a8bc27)" style="fill: #324880"/>
    <path d="M 730.182842 344.397284 
L 755.16357 351.952686 
L 770.751897 338.909805 
L 745.896167 331.4724 
z
" clip-path="url(#p2be5a8bc27)" style="fill: #577ddf"/>
    <path d="M 730.182842 344.397284 
L 745.896167 331.4724 
L 770.751897 338.909805 
L 755.16357 351.952686 
z
" clip-path="url(#p2be5a8bc27)" style="fill: #3f599f"/>
    <path d="M 913.17148 363.692516 
L 912.404191 451.02988 
L 926.596782 437.362855 
L 927.618966 350.465233 
z
" clip-path="url(#p2be5a8bc27)" style="fill: #324880"/>
    <path d="M 832.181855 458.225834 
L 857.650636 466.308575 
L 872.446198 452.355388 
L 847.109923 444.398986 
z
" clip-path="url(#p2be5a8bc27)" style="fill: #577ddf"/>
    <path d="M 755.16357 351.952686 
L 770.751897 338.909805 
L 770.751897 338.909805 
L 755.16357 351.952686 
z
" clip-path="url(#p2be5a8bc27)" style="fill: #648fff"/>
    <path d="M 730.182842 344.397284 
L 755.16357 351.952686 
L 755.16357 351.952686 
L 730.182842 344.397284 
z
" clip-path="url(#p2be5a8bc27)" style="fill: #324880"/>
    <path d="M 795.834163 346.414995 
L 795.955164 354.168554 
L 821.226702 361.765651 
L 821.146078 353.9889 
z
" clip-path="url(#p2be5a8bc27)" style="fill: #648fff"/>
    <path d="M 939.291746 371.425807 
L 953.597913 358.076353 
L 952.099948 445.227487 
L 938.043508 459.018441 
z
" clip-path="url(#p2be5a8bc27)" style="fill: #648fff"/>
    <path d="M 846.69081 361.63247 
L 847.109923 444.398986 
L 872.446198 452.355388 
L 872.471586 369.34667 
z
" clip-path="url(#p2be5a8bc27)" style="fill: #648fff"/>
    <path d="M 780.373785 359.577495 
L 780.52083 367.371285 
L 795.955164 354.168554 
L 795.834163 346.414995 
z
" clip-path="url(#p2be5a8bc27)" style="fill: #324880"/>
    <path d="M 913.17148 363.692516 
L 939.291746 371.425807 
L 938.043508 459.018441 
L 912.404191 451.02988 
z
" clip-path="url(#p2be5a8bc27)" style="fill: #324880"/>
    <path d="M 831.495444 375.0392 
L 832.181855 458.225834 
L 847.109923 444.398986 
L 846.69081 361.63247 
z
" clip-path="url(#p2be5a8bc27)" style="fill: #324880"/>
    <path d="M 780.52083 367.371285 
L 805.922917 375.089827 
L 821.226702 361.765651 
L 795.955164 354.168554 
z
" clip-path="url(#p2be5a8bc27)" style="fill: #577ddf"/>
    <path d="M 780.373785 359.577495 
L 795.834163 346.414995 
L 821.146078 353.9889 
L 805.816664 367.272674 
z
" clip-path="url(#p2be5a8bc27)" style="fill: #3f599f"/>
    <path d="M 805.816664 367.272674 
L 821.146078 353.9889 
L 821.226702 361.765651 
L 805.922917 375.089827 
z
" clip-path="url(#p2be5a8bc27)" style="fill: #648fff"/>
    <path d="M 913.17148 363.692516 
L 927.618966 350.465233 
L 953.597913 358.076353 
L 939.291746 371.425807 
z
" clip-path="url(#p2be5a8bc27)" style="fill: #3f599f"/>
    <path d="M 857.41342 382.878072 
L 872.471586 369.34667 
L 872.446198 452.355388 
L 857.650636 466.308575 
z
" clip-path="url(#p2be5a8bc27)" style="fill: #648fff"/>
    <path d="M 780.373785 359.577495 
L 805.816664 367.272674 
L 805.922917 375.089827 
L 780.52083 367.371285 
z
" clip-path="url(#p2be5a8bc27)" style="fill: #324880"/>
    <path d="M 831.495444 375.0392 
L 857.41342 382.878072 
L 857.650636 466.308575 
L 832.181855 458.225834 
z
" clip-path="url(#p2be5a8bc27)" style="fill: #324880"/>
    <path d="M 831.495444 375.0392 
L 846.69081 361.63247 
L 872.471586 369.34667 
L 857.41342 382.878072 
z
" clip-path="url(#p2be5a8bc27)" style="fill: #3f599f"/>
   </g>
   <g id="Poly3DCollection_5">
    <path d="M 709.796766 347.15476 
L 915.836227 409.809004 
L 1028.021739 304.110792 
L 830.376319 248.805413 
z
" clip-path="url(#p2be5a8bc27)" style="fill-opacity: 0.25"/>
   </g>
   <g id="Poly3DCollection_6">
    <path d="M 869.614175 283.600916 
L 883.702958 271.60615 
L 908.249336 278.509178 
L 894.285724 290.609408 
z
" clip-path="url(#p2be5a8bc27)" style="fill: #3f599f"/>
    <path d="M 933.01119 285.472802 
L 933.01119 285.472802 
L 957.991371 292.497825 
L 957.991371 292.497825 
z
" clip-path="url(#p2be5a8bc27)" style="fill: #324880"/>
    <path d="M 883.702958 271.60615 
L 883.929297 184.410378 
L 908.916174 191.049134 
L 908.249336 278.509178 
z
" clip-path="url(#p2be5a8bc27)" style="fill: #324880"/>
    <path d="M 791.595089 293.883073 
L 806.365929 281.733423 
L 830.73023 288.725442 
L 816.080954 300.982611 
z
" clip-path="url(#p2be5a8bc27)" style="fill: #3f599f"/>
    <path d="M 919.175509 297.679895 
L 919.175509 297.679895 
L 933.01119 285.472802 
L 933.01119 285.472802 
z
" clip-path="url(#p2be5a8bc27)" style="fill: #648fff"/>
    <path d="M 869.614175 283.600916 
L 869.589184 195.946606 
L 883.929297 184.410378 
L 883.702958 271.60615 
z
" clip-path="url(#p2be5a8bc27)" style="fill: #648fff"/>
    <path d="M 919.175509 297.679895 
L 944.286437 304.813202 
L 957.991371 292.497825 
L 933.01119 285.472802 
z
" clip-path="url(#p2be5a8bc27)" style="fill: #577ddf"/>
    <path d="M 919.175509 297.679895 
L 933.01119 285.472802 
L 957.991371 292.497825 
L 944.286437 304.813202 
z
" clip-path="url(#p2be5a8bc27)" style="fill: #3f599f"/>
    <path d="M 944.286437 304.813202 
L 957.991371 292.497825 
L 957.991371 292.497825 
L 944.286437 304.813202 
z
" clip-path="url(#p2be5a8bc27)" style="fill: #324880"/>
    <path d="M 806.365929 281.733423 
L 805.268109 198.826469 
L 830.043147 205.566913 
L 830.73023 288.725442 
z
" clip-path="url(#p2be5a8bc27)" style="fill: #324880"/>
    <path d="M 894.285724 290.609408 
L 908.249336 278.509178 
L 908.916174 191.049134 
L 894.705786 202.688622 
z
" clip-path="url(#p2be5a8bc27)" style="fill: #324880"/>
    <path d="M 919.175509 297.679895 
L 944.286437 304.813202 
L 944.286437 304.813202 
L 919.175509 297.679895 
z
" clip-path="url(#p2be5a8bc27)" style="fill: #648fff"/>
    <path d="M 791.595089 293.883073 
L 790.235922 210.539616 
L 805.268109 198.826469 
L 806.365929 281.733423 
z
" clip-path="url(#p2be5a8bc27)" style="fill: #648fff"/>
    <path d="M 869.614175 283.600916 
L 894.285724 290.609408 
L 894.705786 202.688622 
L 869.589184 195.946606 
z
" clip-path="url(#p2be5a8bc27)" style="fill: #648fff"/>
    <path d="M 983.192778 299.585063 
L 983.192778 299.585063 
L 1008.618365 306.735345 
L 1008.618365 306.735345 
z
" clip-path="url(#p2be5a8bc27)" style="fill: #324880"/>
    <path d="M 969.621468 312.01017 
L 969.621468 312.01017 
L 983.192778 299.585063 
L 983.192778 299.585063 
z
" clip-path="url(#p2be5a8bc27)" style="fill: #324880"/>
    <path d="M 816.080954 300.982611 
L 830.73023 288.725442 
L 830.043147 205.566913 
L 815.136642 217.385496 
z
" clip-path="url(#p2be5a8bc27)" style="fill: #324880"/>
    <path d="M 969.621468 312.01017 
L 983.192778 299.585063 
L 1008.618365 306.735345 
L 995.183617 319.271656 
z
" clip-path="url(#p2be5a8bc27)" style="fill: #3f599f"/>
    <path d="M 969.621468 312.01017 
L 995.183617 319.271656 
L 1008.618365 306.735345 
L 983.192778 299.585063 
z
" clip-path="url(#p2be5a8bc27)" style="fill: #577ddf"/>
    <path d="M 869.589184 195.946606 
L 894.705786 202.688622 
L 908.916174 191.049134 
L 883.929297 184.410378 
z
" clip-path="url(#p2be5a8bc27)" style="fill: #577ddf"/>
    <path d="M 776.596741 306.219859 
L 776.447994 298.567207 
L 801.094567 305.75394 
L 801.205035 313.429414 
z
" clip-path="url(#p2be5a8bc27)" style="fill: #324880"/>
    <path d="M 791.595089 293.883073 
L 816.080954 300.982611 
L 815.136642 217.385496 
L 790.235922 210.539616 
z
" clip-path="url(#p2be5a8bc27)" style="fill: #648fff"/>
    <path d="M 995.183617 319.271656 
L 1008.618365 306.735345 
L 1008.618365 306.735345 
L 995.183617 319.271656 
z
" clip-path="url(#p2be5a8bc27)" style="fill: #324880"/>
    <path d="M 905.126215 310.075456 
L 905.126215 310.075456 
L 930.368961 317.31957 
L 930.368961 317.31957 
z
" clip-path="url(#p2be5a8bc27)" style="fill: #324880"/>
    <path d="M 761.365588 318.748136 
L 761.1915 311.05589 
L 776.447994 298.567207 
L 776.596741 306.219859 
z
" clip-path="url(#p2be5a8bc27)" style="fill: #648fff"/>
    <path d="M 969.621468 312.01017 
L 995.183617 319.271656 
L 995.183617 319.271656 
L 969.621468 312.01017 
z
" clip-path="url(#p2be5a8bc27)" style="fill: #324880"/>
    <path d="M 761.365588 318.748136 
L 776.596741 306.219859 
L 801.205035 313.429414 
L 786.097171 326.070287 
z
" clip-path="url(#p2be5a8bc27)" style="fill: #3f599f"/>
    <path d="M 890.858321 322.663886 
L 890.858321 322.663886 
L 905.126215 310.075456 
L 905.126215 310.075456 
z
" clip-path="url(#p2be5a8bc27)" style="fill: #324880"/>
    <path d="M 790.235922 210.539616 
L 815.136642 217.385496 
L 830.043147 205.566913 
L 805.268109 198.826469 
z
" clip-path="url(#p2be5a8bc27)" style="fill: #577ddf"/>
    <path d="M 761.1915 311.05589 
L 785.961745 318.355042 
L 801.094567 305.75394 
L 776.447994 298.567207 
z
" clip-path="url(#p2be5a8bc27)" style="fill: #577ddf"/>
    <path d="M 890.858321 322.663886 
L 905.126215 310.075456 
L 930.368961 317.31957 
L 916.23396 330.021408 
z
" clip-path="url(#p2be5a8bc27)" style="fill: #3f599f"/>
    <path d="M 890.858321 322.663886 
L 916.23396 330.021408 
L 930.368961 317.31957 
L 905.126215 310.075456 
z
" clip-path="url(#p2be5a8bc27)" style="fill: #577ddf"/>
    <path d="M 786.097171 326.070287 
L 801.205035 313.429414 
L 801.094567 305.75394 
L 785.961745 318.355042 
z
" clip-path="url(#p2be5a8bc27)" style="fill: #324880"/>
    <path d="M 916.23396 330.021408 
L 930.368961 317.31957 
L 930.368961 317.31957 
L 916.23396 330.021408 
z
" clip-path="url(#p2be5a8bc27)" style="fill: #324880"/>
    <path d="M 761.365588 318.748136 
L 786.097171 326.070287 
L 785.961745 318.355042 
L 761.1915 311.05589 
z
" clip-path="url(#p2be5a8bc27)" style="fill: #648fff"/>
    <path d="M 890.858321 322.663886 
L 916.23396 330.021408 
L 916.23396 330.021408 
L 890.858321 322.663886 
z
" clip-path="url(#p2be5a8bc27)" style="fill: #324880"/>
    <path d="M 861.646008 348.437638 
L 876.366687 335.44972 
L 901.876294 342.923335 
L 887.29066 356.030117 
z
" clip-path="url(#p2be5a8bc27)" style="fill: #3f599f"/>
    <path d="M 876.366687 335.44972 
L 876.468047 244.175237 
L 902.46264 251.367856 
L 901.876294 342.923335 
z
" clip-path="url(#p2be5a8bc27)" style="fill: #324880"/>
    <path d="M 861.646008 348.437638 
L 861.467635 256.675621 
L 876.468047 244.175237 
L 876.366687 335.44972 
z
" clip-path="url(#p2be5a8bc27)" style="fill: #648fff"/>
    <path d="M 887.29066 356.030117 
L 901.876294 342.923335 
L 902.46264 251.367856 
L 887.602477 263.984828 
z
" clip-path="url(#p2be5a8bc27)" style="fill: #324880"/>
    <path d="M 861.646008 348.437638 
L 887.29066 356.030117 
L 887.602477 263.984828 
L 861.467635 256.675621 
z
" clip-path="url(#p2be5a8bc27)" style="fill: #648fff"/>
    <path d="M 861.467635 256.675621 
L 887.602477 263.984828 
L 902.46264 251.367856 
L 876.468047 244.175237 
z
" clip-path="url(#p2be5a8bc27)" style="fill: #577ddf"/>
    <path d="M 883.573951 390.790304 
L 898.491692 377.132483 
L 924.754476 384.99091 
L 909.980457 398.77693 
z
" clip-path="url(#p2be5a8bc27)" style="fill: #3f599f"/>
    <path d="M 898.491692 377.132483 
L 898.977952 292.460572 
L 925.709866 300.056815 
L 924.754476 384.99091 
z
" clip-path="url(#p2be5a8bc27)" style="fill: #324880"/>
    <path d="M 883.573951 390.790304 
L 883.798136 305.663524 
L 898.977952 292.460572 
L 898.491692 377.132483 
z
" clip-path="url(#p2be5a8bc27)" style="fill: #648fff"/>
    <path d="M 909.980457 398.77693 
L 924.754476 384.99091 
L 925.709866 300.056815 
L 910.678981 313.385913 
z
" clip-path="url(#p2be5a8bc27)" style="fill: #324880"/>
    <path d="M 883.573951 390.790304 
L 909.980457 398.77693 
L 910.678981 313.385913 
L 883.798136 305.663524 
z
" clip-path="url(#p2be5a8bc27)" style="fill: #648fff"/>
    <path d="M 883.798136 305.663524 
L 910.678981 313.385913 
L 925.709866 300.056815 
L 898.977952 292.460572 
z
" clip-path="url(#p2be5a8bc27)" style="fill: #577ddf"/>
   </g>
   <g id="text_31">
    <!-- Imaginary Amplitude (ρ) -->
    <g transform="translate(735.696563 51.6) scale(0.21 -0.21)">
     <defs>
      <path id="DejaVuSans-49" d="M 628 4666 
L 1259 4666 
L 1259 0 
L 628 0 
L 628 4666 
z
" transform="scale(0.015625)"/>
      <path id="DejaVuSans-67" d="M 2906 1791 
Q 2906 2416 2648 2759 
Q 2391 3103 1925 3103 
Q 1463 3103 1205 2759 
Q 947 2416 947 1791 
Q 947 1169 1205 825 
Q 1463 481 1925 481 
Q 2391 481 2648 825 
Q 2906 1169 2906 1791 
z
M 3481 434 
Q 3481 -459 3084 -895 
Q 2688 -1331 1869 -1331 
Q 1566 -1331 1297 -1286 
Q 1028 -1241 775 -1147 
L 775 -588 
Q 1028 -725 1275 -790 
Q 1522 -856 1778 -856 
Q 2344 -856 2625 -561 
Q 2906 -266 2906 331 
L 2906 616 
Q 2728 306 2450 153 
Q 2172 0 1784 0 
Q 1141 0 747 490 
Q 353 981 353 1791 
Q 353 2603 747 3093 
Q 1141 3584 1784 3584 
Q 2172 3584 2450 3431 
Q 2728 3278 2906 2969 
L 2906 3500 
L 3481 3500 
L 3481 434 
z
" transform="scale(0.015625)"/>
      <path id="DejaVuSans-6e" d="M 3513 2113 
L 3513 0 
L 2938 0 
L 2938 2094 
Q 2938 2591 2744 2837 
Q 2550 3084 2163 3084 
Q 1697 3084 1428 2787 
Q 1159 2491 1159 1978 
L 1159 0 
L 581 0 
L 581 3500 
L 1159 3500 
L 1159 2956 
Q 1366 3272 1645 3428 
Q 1925 3584 2291 3584 
Q 2894 3584 3203 3211 
Q 3513 2838 3513 2113 
z
" transform="scale(0.015625)"/>
      <path id="DejaVuSans-72" d="M 2631 2963 
Q 2534 3019 2420 3045 
Q 2306 3072 2169 3072 
Q 1681 3072 1420 2755 
Q 1159 2438 1159 1844 
L 1159 0 
L 581 0 
L 581 3500 
L 1159 3500 
L 1159 2956 
Q 1341 3275 1631 3429 
Q 1922 3584 2338 3584 
Q 2397 3584 2469 3576 
Q 2541 3569 2628 3553 
L 2631 2963 
z
" transform="scale(0.015625)"/>
      <path id="DejaVuSans-79" d="M 2059 -325 
Q 1816 -950 1584 -1140 
Q 1353 -1331 966 -1331 
L 506 -1331 
L 506 -850 
L 844 -850 
Q 1081 -850 1212 -737 
Q 1344 -625 1503 -206 
L 1606 56 
L 191 3500 
L 800 3500 
L 1894 763 
L 2988 3500 
L 3597 3500 
L 2059 -325 
z
" transform="scale(0.015625)"/>
     </defs>
     <use xlink:href="#DejaVuSans-49"/>
     <use xlink:href="#DejaVuSans-6d" x="29.492188"/>
     <use xlink:href="#DejaVuSans-61" x="126.904297"/>
     <use xlink:href="#DejaVuSans-67" x="188.183594"/>
     <use xlink:href="#DejaVuSans-69" x="251.660156"/>
     <use xlink:href="#DejaVuSans-6e" x="279.443359"/>
     <use xlink:href="#DejaVuSans-61" x="342.822266"/>
     <use xlink:href="#DejaVuSans-72" x="404.101562"/>
     <use xlink:href="#DejaVuSans-79" x="445.214844"/>
     <use xlink:href="#DejaVuSans-20" x="504.394531"/>
     <use xlink:href="#DejaVuSans-41" x="536.181641"/>
     <use xlink:href="#DejaVuSans-6d" x="604.589844"/>
     <use xlink:href="#DejaVuSans-70" x="702.001953"/>
     <use xlink:href="#DejaVuSans-6c" x="765.478516"/>
     <use xlink:href="#DejaVuSans-69" x="793.261719"/>
     <use xlink:href="#DejaVuSans-74" x="821.044922"/>
     <use xlink:href="#DejaVuSans-75" x="860.253906"/>
     <use xlink:href="#DejaVuSans-64" x="923.632812"/>
     <use xlink:href="#DejaVuSans-65" x="987.109375"/>
     <use xlink:href="#DejaVuSans-20" x="1048.632812"/>
     <use xlink:href="#DejaVuSans-28" x="1080.419922"/>
     <use xlink:href="#DejaVuSans-3c1" x="1119.433594"/>
     <use xlink:href="#DejaVuSans-29" x="1182.910156"/>
    </g>
   </g>
  </g>
 </g>
 <defs>
  <clipPath id="p1ef1c3e68c">
   <rect x="28.8" y="57.6" width="518.4" height="518.4"/>
  </clipPath>
  <clipPath id="p2be5a8bc27">
   <rect x="604.8" y="57.6" width="518.4" height="518.4"/>
  </clipPath>
 </defs>
</svg>
