<?xml version="1.0" encoding="utf-8" standalone="no"?>
<!DOCTYPE svg PUBLIC "-//W3C//DTD SVG 1.1//EN"
  "http://www.w3.org/Graphics/SVG/1.1/DTD/svg11.dtd">
<svg xmlns:xlink="http://www.w3.org/1999/xlink" width="1152pt" height="576pt" viewBox="0 0 1152 576" xmlns="http://www.w3.org/2000/svg" version="1.1">
 <metadata>
  <rdf:RDF xmlns:dc="http://purl.org/dc/elements/1.1/" xmlns:cc="http://creativecommons.org/ns#" xmlns:rdf="http://www.w3.org/1999/02/22-rdf-syntax-ns#">
   <cc:Work>
    <dc:type rdf:resource="http://purl.org/dc/dcmitype/StillImage"/>
    <dc:date>2024-11-02T19:03:10.359373</dc:date>
    <dc:format>image/svg+xml</dc:format>
    <dc:creator>
     <cc:Agent>
      <dc:title>Matplotlib v3.9.2, https://matplotlib.org/</dc:title>
     </cc:Agent>
    </dc:creator>
   </cc:Work>
  </rdf:RDF>
 </metadata>
 <defs>
  <style type="text/css">*{stroke-linejoin: round; stroke-linecap: butt}</style>
 </defs>
 <g id="figure_1">
  <g id="patch_1">
   <path d="M 0 576 
L 1152 576 
L 1152 0 
L 0 0 
z
" style="fill: #ffffff"/>
  </g>
  <g id="patch_2">
   <path d="M 28.8 576 
L 547.2 576 
L 547.2 57.6 
L 28.8 57.6 
z
" style="fill: #ffffff"/>
  </g>
  <g id="pane3d_1">
   <g id="patch_3">
    <path d="M 130.07018 436.456468 
L 253.494133 330.550231 
L 251.743197 126.70673 
L 122.643358 223.613571 
" style="fill: #f2f2f2; opacity: 0.5; stroke: #f2f2f2; stroke-linejoin: miter"/>
   </g>
  </g>
  <g id="pane3d_2">
   <g id="patch_4">
    <path d="M 253.494133 330.550231 
L 455.554898 390.069341 
L 462.583588 181.103065 
L 251.743197 126.70673 
" style="fill: #e6e6e6; opacity: 0.5; stroke: #e6e6e6; stroke-linejoin: miter"/>
   </g>
  </g>
  <g id="pane3d_3">
   <g id="patch_5">
    <path d="M 130.07018 436.456468 
L 340.912731 504.076731 
L 455.554898 390.069341 
L 253.494133 330.550231 
" style="fill: #ececec; opacity: 0.5; stroke: #ececec; stroke-linejoin: miter"/>
   </g>
  </g>
  <g id="grid3d_1">
   <g id="Line3DCollection_1">
    <path d="M 158.635886 445.617904 
L 280.925726 338.630493 
L 280.328796 134.081748 
" style="fill: none; stroke: #b0b0b0; stroke-width: 0.8"/>
    <path d="M 208.310046 461.549127 
L 328.58611 352.669358 
L 330.022474 146.902603 
" style="fill: none; stroke: #b0b0b0; stroke-width: 0.8"/>
    <path d="M 258.89502 477.772462 
L 377.066152 366.949661 
L 380.607663 159.953465 
" style="fill: none; stroke: #b0b0b0; stroke-width: 0.8"/>
    <path d="M 310.41609 494.296016 
L 426.38718 381.477685 
L 432.108569 173.24058 
" style="fill: none; stroke: #b0b0b0; stroke-width: 0.8"/>
   </g>
  </g>
  <g id="grid3d_2">
   <g id="Line3DCollection_2">
    <path d="M 141.757365 209.265931 
L 148.301379 420.812846 
L 357.880707 487.202708 
" style="fill: none; stroke: #b0b0b0; stroke-width: 0.8"/>
    <path d="M 173.704273 185.285468 
L 178.805664 394.638072 
L 386.24502 458.995448 
" style="fill: none; stroke: #b0b0b0; stroke-width: 0.8"/>
    <path d="M 204.65707 162.051218 
L 208.400054 369.24405 
L 413.731787 431.660877 
" style="fill: none; stroke: #b0b0b0; stroke-width: 0.8"/>
    <path d="M 234.661448 139.528886 
L 237.124663 344.596362 
L 440.38111 405.159111 
" style="fill: none; stroke: #b0b0b0; stroke-width: 0.8"/>
   </g>
  </g>
  <g id="grid3d_3">
   <g id="Line3DCollection_3">
    <path d="M 456.167366 371.860374 
L 253.341345 312.762777 
L 129.423726 417.929949 
" style="fill: none; stroke: #b0b0b0; stroke-width: 0.8"/>
    <path d="M 457.113127 343.742449 
L 253.105495 285.305083 
L 128.42522 389.314078 
" style="fill: none; stroke: #b0b0b0; stroke-width: 0.8"/>
    <path d="M 458.070054 315.292562 
L 252.866958 257.534756 
L 127.414598 360.35099 
" style="fill: none; stroke: #b0b0b0; stroke-width: 0.8"/>
    <path d="M 459.038345 286.504799 
L 252.625691 229.446425 
L 126.391638 331.034325 
" style="fill: none; stroke: #b0b0b0; stroke-width: 0.8"/>
    <path d="M 460.018205 257.373106 
L 252.381644 201.034597 
L 125.356114 301.357569 
" style="fill: none; stroke: #b0b0b0; stroke-width: 0.8"/>
    <path d="M 461.009842 227.891281 
L 252.134771 172.293651 
L 124.307792 271.314048 
" style="fill: none; stroke: #b0b0b0; stroke-width: 0.8"/>
    <path d="M 462.013469 198.052975 
L 251.885021 143.217835 
L 123.246434 240.896919 
" style="fill: none; stroke: #b0b0b0; stroke-width: 0.8"/>
   </g>
  </g>
  <g id="axis3d_1">
   <g id="line2d_1">
    <path d="M 130.07018 436.456468 
L 340.912731 504.076731 
" style="fill: none; stroke: #000000; stroke-width: 0.8; stroke-linecap: square"/>
   </g>
   <g id="xtick_1">
    <g id="line2d_2">
     <path d="M 159.677227 444.706868 
L 156.549953 447.442819 
" style="fill: none; stroke: #000000; stroke-width: 0.8; stroke-linecap: square"/>
    </g>
    <g id="text_1">
     <!-- 00 -->
     <g transform="translate(131.351686 489.365693) rotate(-45) scale(0.21 -0.21)">
      <defs>
       <path id="DejaVuSans-30" d="M 2034 4250 
Q 1547 4250 1301 3770 
Q 1056 3291 1056 2328 
Q 1056 1369 1301 889 
Q 1547 409 2034 409 
Q 2525 409 2770 889 
Q 3016 1369 3016 2328 
Q 3016 3291 2770 3770 
Q 2525 4250 2034 4250 
z
M 2034 4750 
Q 2819 4750 3233 4129 
Q 3647 3509 3647 2328 
Q 3647 1150 3233 529 
Q 2819 -91 2034 -91 
Q 1250 -91 836 529 
Q 422 1150 422 2328 
Q 422 3509 836 4129 
Q 1250 4750 2034 4750 
z
" transform="scale(0.015625)"/>
      </defs>
      <use xlink:href="#DejaVuSans-30"/>
      <use xlink:href="#DejaVuSans-30" x="63.623047"/>
     </g>
    </g>
   </g>
   <g id="xtick_2">
    <g id="line2d_3">
     <path d="M 209.334802 460.621468 
L 206.257306 463.407368 
" style="fill: none; stroke: #000000; stroke-width: 0.8; stroke-linecap: square"/>
    </g>
    <g id="text_2">
     <!-- 01 -->
     <g transform="translate(181.023931 505.435143) rotate(-45) scale(0.21 -0.21)">
      <defs>
       <path id="DejaVuSans-31" d="M 794 531 
L 1825 531 
L 1825 4091 
L 703 3866 
L 703 4441 
L 1819 4666 
L 2450 4666 
L 2450 531 
L 3481 531 
L 3481 0 
L 794 0 
L 794 531 
z
" transform="scale(0.015625)"/>
      </defs>
      <use xlink:href="#DejaVuSans-30"/>
      <use xlink:href="#DejaVuSans-31" x="63.623047"/>
     </g>
    </g>
   </g>
   <g id="xtick_3">
    <g id="line2d_4">
     <path d="M 259.902405 476.82772 
L 256.877048 479.664949 
" style="fill: none; stroke: #000000; stroke-width: 0.8; stroke-linecap: square"/>
    </g>
    <g id="text_3">
     <!-- 10 -->
     <g transform="translate(231.60781 521.799516) rotate(-45) scale(0.21 -0.21)">
      <use xlink:href="#DejaVuSans-31"/>
      <use xlink:href="#DejaVuSans-30" x="63.623047"/>
     </g>
    </g>
   </g>
   <g id="xtick_4">
    <g id="line2d_5">
     <path d="M 311.405283 493.333715 
L 308.434531 496.223705 
" style="fill: none; stroke: #000000; stroke-width: 0.8; stroke-linecap: square"/>
    </g>
    <g id="text_4">
     <!-- 11 -->
     <g transform="translate(283.128654 538.467006) rotate(-45) scale(0.21 -0.21)">
      <use xlink:href="#DejaVuSans-31"/>
      <use xlink:href="#DejaVuSans-31" x="63.623047"/>
     </g>
    </g>
   </g>
  </g>
  <g id="axis3d_2">
   <g id="line2d_6">
    <path d="M 455.554898 390.069341 
L 340.912731 504.076731 
" style="fill: none; stroke: #000000; stroke-width: 0.8; stroke-linecap: square"/>
   </g>
   <g id="xtick_5">
    <g id="line2d_7">
     <path d="M 356.140222 486.651363 
L 361.364886 488.306415 
" style="fill: none; stroke: #000000; stroke-width: 0.8; stroke-linecap: square"/>
    </g>
    <g id="text_5">
     <!-- 00 -->
     <g transform="translate(368.70027 499.207917) rotate(-337.5) scale(0.21 -0.21)">
      <use xlink:href="#DejaVuSans-30"/>
      <use xlink:href="#DejaVuSans-30" x="63.623047"/>
     </g>
    </g>
   </g>
   <g id="xtick_6">
    <g id="line2d_8">
     <path d="M 384.5233 458.46129 
L 389.691587 460.064734 
" style="fill: none; stroke: #000000; stroke-width: 0.8; stroke-linecap: square"/>
    </g>
    <g id="text_6">
     <!-- 01 -->
     <g transform="translate(396.913817 470.822876) rotate(-337.5) scale(0.21 -0.21)">
      <use xlink:href="#DejaVuSans-30"/>
      <use xlink:href="#DejaVuSans-31" x="63.623047"/>
     </g>
    </g>
   </g>
   <g id="xtick_7">
    <g id="line2d_9">
     <path d="M 412.028511 431.143114 
L 417.141381 432.697327 
" style="fill: none; stroke: #000000; stroke-width: 0.8; stroke-linecap: square"/>
    </g>
    <g id="text_7">
     <!-- 10 -->
     <g transform="translate(424.254695 443.315808) rotate(-337.5) scale(0.21 -0.21)">
      <use xlink:href="#DejaVuSans-31"/>
      <use xlink:href="#DejaVuSans-30" x="63.623047"/>
     </g>
    </g>
   </g>
   <g id="xtick_8">
    <g id="line2d_10">
     <path d="M 438.695964 404.657001 
L 443.754368 406.164215 
" style="fill: none; stroke: #000000; stroke-width: 0.8; stroke-linecap: square"/>
    </g>
    <g id="text_8">
     <!-- 11 -->
     <g transform="translate(450.762776 416.646599) rotate(-337.5) scale(0.21 -0.21)">
      <use xlink:href="#DejaVuSans-31"/>
      <use xlink:href="#DejaVuSans-31" x="63.623047"/>
     </g>
    </g>
   </g>
  </g>
  <g id="axis3d_3">
   <g id="line2d_11">
    <path d="M 455.554898 390.069341 
L 462.583588 181.103065 
" style="fill: none; stroke: #000000; stroke-width: 0.8; stroke-linecap: square"/>
   </g>
   <g id="xtick_9">
    <g id="line2d_12">
     <path d="M 454.486085 371.370498 
L 459.532873 372.840985 
" style="fill: none; stroke: #000000; stroke-width: 0.8; stroke-linecap: square"/>
    </g>
    <g id="text_9">
     <!-- −0.2 -->
     <g transform="translate(469.697373 365.585353) scale(0.21 -0.21)">
      <defs>
       <path id="DejaVuSans-2212" d="M 678 2272 
L 4684 2272 
L 4684 1741 
L 678 1741 
L 678 2272 
z
" transform="scale(0.015625)"/>
       <path id="DejaVuSans-2e" d="M 684 794 
L 1344 794 
L 1344 0 
L 684 0 
L 684 794 
z
" transform="scale(0.015625)"/>
       <path id="DejaVuSans-32" d="M 1228 531 
L 3431 531 
L 3431 0 
L 469 0 
L 469 531 
Q 828 903 1448 1529 
Q 2069 2156 2228 2338 
Q 2531 2678 2651 2914 
Q 2772 3150 2772 3378 
Q 2772 3750 2511 3984 
Q 2250 4219 1831 4219 
Q 1534 4219 1204 4116 
Q 875 4013 500 3803 
L 500 4441 
Q 881 4594 1212 4672 
Q 1544 4750 1819 4750 
Q 2544 4750 2975 4387 
Q 3406 4025 3406 3419 
Q 3406 3131 3298 2873 
Q 3191 2616 2906 2266 
Q 2828 2175 2409 1742 
Q 1991 1309 1228 531 
z
" transform="scale(0.015625)"/>
      </defs>
      <use xlink:href="#DejaVuSans-2212"/>
      <use xlink:href="#DejaVuSans-30" x="83.789062"/>
      <use xlink:href="#DejaVuSans-2e" x="147.412109"/>
      <use xlink:href="#DejaVuSans-32" x="179.199219"/>
     </g>
    </g>
   </g>
   <g id="xtick_10">
    <g id="line2d_13">
     <path d="M 455.421705 343.257946 
L 460.498951 344.712308 
" style="fill: none; stroke: #000000; stroke-width: 0.8; stroke-linecap: square"/>
    </g>
    <g id="text_10">
     <!-- −0.1 -->
     <g transform="translate(470.721362 337.488363) scale(0.21 -0.21)">
      <use xlink:href="#DejaVuSans-2212"/>
      <use xlink:href="#DejaVuSans-30" x="83.789062"/>
      <use xlink:href="#DejaVuSans-2e" x="147.412109"/>
      <use xlink:href="#DejaVuSans-31" x="179.199219"/>
     </g>
    </g>
   </g>
   <g id="xtick_11">
    <g id="line2d_14">
     <path d="M 456.368368 314.813594 
L 461.476442 316.251346 
" style="fill: none; stroke: #000000; stroke-width: 0.8; stroke-linecap: square"/>
    </g>
    <g id="text_11">
     <!-- 0.0 -->
     <g transform="translate(471.757427 309.060039) scale(0.21 -0.21)">
      <use xlink:href="#DejaVuSans-30"/>
      <use xlink:href="#DejaVuSans-2e" x="63.623047"/>
      <use xlink:href="#DejaVuSans-30" x="95.410156"/>
     </g>
    </g>
   </g>
   <g id="xtick_12">
    <g id="line2d_15">
     <path d="M 457.32627 286.031532 
L 462.465548 287.452176 
" style="fill: none; stroke: #000000; stroke-width: 0.8; stroke-linecap: square"/>
    </g>
    <g id="text_12">
     <!-- 0.1 -->
     <g transform="translate(472.805782 280.294487) scale(0.21 -0.21)">
      <use xlink:href="#DejaVuSans-30"/>
      <use xlink:href="#DejaVuSans-2e" x="63.623047"/>
      <use xlink:href="#DejaVuSans-31" x="95.410156"/>
     </g>
    </g>
   </g>
   <g id="xtick_13">
    <g id="line2d_16">
     <path d="M 458.295613 256.905711 
L 463.466478 258.308734 
" style="fill: none; stroke: #000000; stroke-width: 0.8; stroke-linecap: square"/>
    </g>
    <g id="text_13">
     <!-- 0.2 -->
     <g transform="translate(473.866648 251.185668) scale(0.21 -0.21)">
      <use xlink:href="#DejaVuSans-30"/>
      <use xlink:href="#DejaVuSans-2e" x="63.623047"/>
      <use xlink:href="#DejaVuSans-32" x="95.410156"/>
     </g>
    </g>
   </g>
   <g id="xtick_14">
    <g id="line2d_17">
     <path d="M 459.276603 227.429934 
L 464.479445 228.814808 
" style="fill: none; stroke: #000000; stroke-width: 0.8; stroke-linecap: square"/>
    </g>
    <g id="text_14">
     <!-- 0.3 -->
     <g transform="translate(474.940248 221.727403) scale(0.21 -0.21)">
      <defs>
       <path id="DejaVuSans-33" d="M 2597 2516 
Q 3050 2419 3304 2112 
Q 3559 1806 3559 1356 
Q 3559 666 3084 287 
Q 2609 -91 1734 -91 
Q 1441 -91 1130 -33 
Q 819 25 488 141 
L 488 750 
Q 750 597 1062 519 
Q 1375 441 1716 441 
Q 2309 441 2620 675 
Q 2931 909 2931 1356 
Q 2931 1769 2642 2001 
Q 2353 2234 1838 2234 
L 1294 2234 
L 1294 2753 
L 1863 2753 
Q 2328 2753 2575 2939 
Q 2822 3125 2822 3475 
Q 2822 3834 2567 4026 
Q 2313 4219 1838 4219 
Q 1578 4219 1281 4162 
Q 984 4106 628 3988 
L 628 4550 
Q 988 4650 1302 4700 
Q 1616 4750 1894 4750 
Q 2613 4750 3031 4423 
Q 3450 4097 3450 3541 
Q 3450 3153 3228 2886 
Q 3006 2619 2597 2516 
z
" transform="scale(0.015625)"/>
      </defs>
      <use xlink:href="#DejaVuSans-30"/>
      <use xlink:href="#DejaVuSans-2e" x="63.623047"/>
      <use xlink:href="#DejaVuSans-33" x="95.410156"/>
     </g>
    </g>
   </g>
   <g id="xtick_15">
    <g id="line2d_18">
     <path d="M 460.269451 197.597856 
L 465.504669 198.964039 
" style="fill: none; stroke: #000000; stroke-width: 0.8; stroke-linecap: square"/>
    </g>
    <g id="text_15">
     <!-- 0.4 -->
     <g transform="translate(476.026816 191.91336) scale(0.21 -0.21)">
      <defs>
       <path id="DejaVuSans-34" d="M 2419 4116 
L 825 1625 
L 2419 1625 
L 2419 4116 
z
M 2253 4666 
L 3047 4666 
L 3047 1625 
L 3713 1625 
L 3713 1100 
L 3047 1100 
L 3047 0 
L 2419 0 
L 2419 1100 
L 313 1100 
L 313 1709 
L 2253 4666 
z
" transform="scale(0.015625)"/>
      </defs>
      <use xlink:href="#DejaVuSans-30"/>
      <use xlink:href="#DejaVuSans-2e" x="63.623047"/>
      <use xlink:href="#DejaVuSans-34" x="95.410156"/>
     </g>
    </g>
   </g>
  </g>
  <g id="axes_1">
   <g id="Poly3DCollection_1">
    <path d="M 230.524125 293.680286 
L 230.806783 315.026511 
L 255.006114 322.11606 
L 254.82923 300.707533 
z
" clip-path="url(#p161ae0f42c)" style="fill: #648fff"/>
    <path d="M 356.859084 297.438524 
L 356.473067 327.805293 
L 381.233156 334.95408 
L 381.777047 304.49886 
z
" clip-path="url(#p161ae0f42c)" style="fill: #648fff"/>
    <path d="M 216.140794 327.34536 
L 240.460054 334.543174 
L 255.006114 322.11606 
L 230.806783 315.026511 
z
" clip-path="url(#p161ae0f42c)" style="fill: #577ddf"/>
    <path d="M 215.790916 305.891053 
L 216.140794 327.34536 
L 230.806783 315.026511 
L 230.524125 293.680286 
z
" clip-path="url(#p161ae0f42c)" style="fill: #324880"/>
    <path d="M 342.754286 340.227094 
L 367.64281 347.485103 
L 381.233156 334.95408 
L 356.473067 327.805293 
z
" clip-path="url(#p161ae0f42c)" style="fill: #577ddf"/>
    <path d="M 343.05644 309.70688 
L 342.754286 340.227094 
L 356.473067 327.805293 
L 356.859084 297.438524 
z
" clip-path="url(#p161ae0f42c)" style="fill: #324880"/>
    <path d="M 187.342974 406.120684 
L 211.635283 413.696335 
L 226.459863 400.617052 
L 202.286551 393.155814 
z
" clip-path="url(#p161ae0f42c)" style="fill: #577ddf"/>
    <path d="M 240.216997 313.026092 
L 254.82923 300.707533 
L 255.006114 322.11606 
L 240.460054 334.543174 
z
" clip-path="url(#p161ae0f42c)" style="fill: #648fff"/>
    <path d="M 215.790916 305.891053 
L 230.524125 293.680286 
L 254.82923 300.707533 
L 240.216997 313.026092 
z
" clip-path="url(#p161ae0f42c)" style="fill: #3f599f"/>
    <path d="M 368.104495 316.875773 
L 381.777047 304.49886 
L 381.233156 334.95408 
L 367.64281 347.485103 
z
" clip-path="url(#p161ae0f42c)" style="fill: #648fff"/>
    <path d="M 215.790916 305.891053 
L 240.216997 313.026092 
L 240.460054 334.543174 
L 216.140794 327.34536 
z
" clip-path="url(#p161ae0f42c)" style="fill: #324880"/>
    <path d="M 343.05644 309.70688 
L 356.859084 297.438524 
L 381.777047 304.49886 
L 368.104495 316.875773 
z
" clip-path="url(#p161ae0f42c)" style="fill: #3f599f"/>
    <path d="M 343.05644 309.70688 
L 368.104495 316.875773 
L 367.64281 347.485103 
L 342.754286 340.227094 
z
" clip-path="url(#p161ae0f42c)" style="fill: #324880"/>
    <path d="M 200.831343 318.289429 
L 202.286551 393.155814 
L 226.459863 400.617052 
L 225.379258 325.53476 
z
" clip-path="url(#p161ae0f42c)" style="fill: #648fff"/>
    <path d="M 279.348543 307.796714 
L 279.354348 309.597038 
L 304.081528 316.754277 
L 304.084909 314.94865 
z
" clip-path="url(#p161ae0f42c)" style="fill: #648fff"/>
    <path d="M 185.640147 330.879771 
L 187.342974 406.120684 
L 202.286551 393.155814 
L 200.831343 318.289429 
z
" clip-path="url(#p161ae0f42c)" style="fill: #324880"/>
    <path d="M 264.860008 320.224499 
L 264.871272 322.034022 
L 279.354348 309.597038 
L 279.348543 307.796714 
z
" clip-path="url(#p161ae0f42c)" style="fill: #324880"/>
    <path d="M 264.871272 322.034022 
L 289.724836 329.301985 
L 304.081528 316.754277 
L 279.354348 309.597038 
z
" clip-path="url(#p161ae0f42c)" style="fill: #577ddf"/>
    <path d="M 264.860008 320.224499 
L 279.348543 307.796714 
L 304.084909 314.94865 
L 289.722853 327.48712 
z
" clip-path="url(#p161ae0f42c)" style="fill: #3f599f"/>
    <path d="M 210.310752 338.237971 
L 225.379258 325.53476 
L 226.459863 400.617052 
L 211.635283 413.696335 
z
" clip-path="url(#p161ae0f42c)" style="fill: #648fff"/>
    <path d="M 289.722853 327.48712 
L 304.084909 314.94865 
L 304.081528 316.754277 
L 289.724836 329.301985 
z
" clip-path="url(#p161ae0f42c)" style="fill: #648fff"/>
    <path d="M 185.640147 330.879771 
L 210.310752 338.237971 
L 211.635283 413.696335 
L 187.342974 406.120684 
z
" clip-path="url(#p161ae0f42c)" style="fill: #324880"/>
    <path d="M 264.860008 320.224499 
L 289.722853 327.48712 
L 289.724836 329.301985 
L 264.871272 322.034022 
z
" clip-path="url(#p161ae0f42c)" style="fill: #324880"/>
    <path d="M 185.640147 330.879771 
L 200.831343 318.289429 
L 225.379258 325.53476 
L 210.310752 338.237971 
z
" clip-path="url(#p161ae0f42c)" style="fill: #3f599f"/>
    <path d="M 379.625537 336.789438 
L 379.084578 367.644191 
L 404.551601 375.146216 
L 405.259588 344.200919 
z
" clip-path="url(#p161ae0f42c)" style="fill: #648fff"/>
    <path d="M 365.205009 380.680806 
L 390.808431 388.300281 
L 404.551601 375.146216 
L 379.084578 367.644191 
z
" clip-path="url(#p161ae0f42c)" style="fill: #577ddf"/>
    <path d="M 365.660204 349.668983 
L 365.205009 380.680806 
L 379.084578 367.644191 
L 379.625537 336.789438 
z
" clip-path="url(#p161ae0f42c)" style="fill: #324880"/>
    <path d="M 206.048618 448.347906 
L 231.02678 456.302263 
L 246.064427 442.570234 
L 221.212532 434.738939 
z
" clip-path="url(#p161ae0f42c)" style="fill: #577ddf"/>
    <path d="M 391.432468 357.197252 
L 405.259588 344.200919 
L 404.551601 375.146216 
L 390.808431 388.300281 
z
" clip-path="url(#p161ae0f42c)" style="fill: #648fff"/>
    <path d="M 365.660204 349.668983 
L 379.625537 336.789438 
L 405.259588 344.200919 
L 391.432468 357.197252 
z
" clip-path="url(#p161ae0f42c)" style="fill: #3f599f"/>
    <path d="M 365.660204 349.668983 
L 391.432468 357.197252 
L 390.808431 388.300281 
L 365.205009 380.680806 
z
" clip-path="url(#p161ae0f42c)" style="fill: #324880"/>
    <path d="M 220.0256 358.68197 
L 221.212532 434.738939 
L 246.064427 442.570234 
L 245.273633 366.292512 
z
" clip-path="url(#p161ae0f42c)" style="fill: #648fff"/>
    <path d="M 300.353124 347.663338 
L 300.351093 349.492918 
L 325.78609 357.00837 
L 325.797841 355.173361 
z
" clip-path="url(#p161ae0f42c)" style="fill: #648fff"/>
    <path d="M 204.606425 371.908027 
L 206.048618 448.347906 
L 221.212532 434.738939 
L 220.0256 358.68197 
z
" clip-path="url(#p161ae0f42c)" style="fill: #324880"/>
    <path d="M 285.669873 360.714415 
L 285.673447 362.553413 
L 300.351093 349.492918 
L 300.353124 347.663338 
z
" clip-path="url(#p161ae0f42c)" style="fill: #324880"/>
    <path d="M 285.673447 362.553413 
L 311.242698 370.18804 
L 325.78609 357.00837 
L 300.351093 349.492918 
z
" clip-path="url(#p161ae0f42c)" style="fill: #577ddf"/>
    <path d="M 285.669873 360.714415 
L 300.353124 347.663338 
L 325.797841 355.173361 
L 311.248947 368.343572 
z
" clip-path="url(#p161ae0f42c)" style="fill: #3f599f"/>
    <path d="M 229.984766 379.640114 
L 245.273633 366.292512 
L 246.064427 442.570234 
L 231.02678 456.302263 
z
" clip-path="url(#p161ae0f42c)" style="fill: #648fff"/>
    <path d="M 311.248947 368.343572 
L 325.797841 355.173361 
L 325.78609 357.00837 
L 311.242698 370.18804 
z
" clip-path="url(#p161ae0f42c)" style="fill: #648fff"/>
    <path d="M 204.606425 371.908027 
L 229.984766 379.640114 
L 231.02678 456.302263 
L 206.048618 448.347906 
z
" clip-path="url(#p161ae0f42c)" style="fill: #324880"/>
    <path d="M 285.669873 360.714415 
L 311.248947 368.343572 
L 311.242698 370.18804 
L 285.673447 362.553413 
z
" clip-path="url(#p161ae0f42c)" style="fill: #324880"/>
    <path d="M 204.606425 371.908027 
L 220.0256 358.68197 
L 245.273633 366.292512 
L 229.984766 379.640114 
z
" clip-path="url(#p161ae0f42c)" style="fill: #3f599f"/>
    <path d="M 270.753299 373.972876 
L 270.864915 396.014714 
L 296.461039 403.831133 
L 296.4678 381.724027 
z
" clip-path="url(#p161ae0f42c)" style="fill: #648fff"/>
    <path d="M 255.780611 409.598762 
L 281.511975 417.540587 
L 296.461039 403.831133 
L 270.864915 396.014714 
z
" clip-path="url(#p161ae0f42c)" style="fill: #577ddf"/>
    <path d="M 255.597799 387.443706 
L 255.780611 409.598762 
L 270.864915 396.014714 
L 270.753299 373.972876 
z
" clip-path="url(#p161ae0f42c)" style="fill: #324880"/>
    <path d="M 281.448796 395.319799 
L 296.4678 381.724027 
L 296.461039 403.831133 
L 281.511975 417.540587 
z
" clip-path="url(#p161ae0f42c)" style="fill: #648fff"/>
    <path d="M 255.597799 387.443706 
L 270.753299 373.972876 
L 296.4678 381.724027 
L 281.448796 395.319799 
z
" clip-path="url(#p161ae0f42c)" style="fill: #3f599f"/>
    <path d="M 255.597799 387.443706 
L 281.448796 395.319799 
L 281.511975 417.540587 
L 255.780611 409.598762 
z
" clip-path="url(#p161ae0f42c)" style="fill: #324880"/>
   </g>
   <g id="Poly3DCollection_2">
    <path d="M 134.207495 359.425321 
L 339.717695 422.37716 
L 451.632069 316.169866 
L 254.473698 260.584341 
z
" clip-path="url(#p161ae0f42c)" style="fill-opacity: 0.25"/>
   </g>
   <g id="Poly3DCollection_3">
    <path d="M 245.036068 281.652903 
L 259.331694 269.804802 
L 283.397432 276.623665 
L 269.221058 288.574782 
z
" clip-path="url(#p161ae0f42c)" style="fill: #3f599f"/>
    <path d="M 259.331694 269.804802 
L 258.946968 217.030677 
L 283.271698 223.692859 
L 283.397432 276.623665 
z
" clip-path="url(#p161ae0f42c)" style="fill: #324880"/>
    <path d="M 245.036068 281.652903 
L 244.493079 228.606935 
L 258.946968 217.030677 
L 259.331694 269.804802 
z
" clip-path="url(#p161ae0f42c)" style="fill: #648fff"/>
    <path d="M 307.67208 283.501721 
L 307.683475 279.112149 
L 332.191938 286.037288 
L 332.158371 290.439745 
z
" clip-path="url(#p161ae0f42c)" style="fill: #324880"/>
    <path d="M 293.617583 295.557203 
L 293.616326 291.145277 
L 307.683475 279.112149 
L 307.67208 283.501721 
z
" clip-path="url(#p161ae0f42c)" style="fill: #648fff"/>
    <path d="M 269.221058 288.574782 
L 283.397432 276.623665 
L 283.271698 223.692859 
L 268.939641 235.370865 
z
" clip-path="url(#p161ae0f42c)" style="fill: #324880"/>
    <path d="M 293.617583 295.557203 
L 307.67208 283.501721 
L 332.158371 290.439745 
L 318.228432 302.600966 
z
" clip-path="url(#p161ae0f42c)" style="fill: #3f599f"/>
    <path d="M 245.036068 281.652903 
L 269.221058 288.574782 
L 268.939641 235.370865 
L 244.493079 228.606935 
z
" clip-path="url(#p161ae0f42c)" style="fill: #648fff"/>
    <path d="M 293.616326 291.145277 
L 318.249573 298.176055 
L 332.191938 286.037288 
L 307.683475 279.112149 
z
" clip-path="url(#p161ae0f42c)" style="fill: #577ddf"/>
    <path d="M 244.493079 228.606935 
L 268.939641 235.370865 
L 283.271698 223.692859 
L 258.946968 217.030677 
z
" clip-path="url(#p161ae0f42c)" style="fill: #577ddf"/>
    <path d="M 318.228432 302.600966 
L 332.158371 290.439745 
L 332.191938 286.037288 
L 318.249573 298.176055 
z
" clip-path="url(#p161ae0f42c)" style="fill: #324880"/>
    <path d="M 293.617583 295.557203 
L 318.228432 302.600966 
L 318.249573 298.176055 
L 293.616326 291.145277 
z
" clip-path="url(#p161ae0f42c)" style="fill: #648fff"/>
    <path d="M 393.375535 324.108486 
L 406.915141 311.621568 
L 432.276294 318.807478 
L 418.872551 331.405874 
z
" clip-path="url(#p161ae0f42c)" style="fill: #3f599f"/>
    <path d="M 329.041224 322.164179 
L 329.12968 309.582517 
L 354.375017 316.825163 
L 354.220433 329.444152 
z
" clip-path="url(#p161ae0f42c)" style="fill: #324880"/>
    <path d="M 406.915141 311.621568 
L 408.686883 234.81064 
L 434.459347 241.764624 
L 432.276294 318.807478 
z
" clip-path="url(#p161ae0f42c)" style="fill: #324880"/>
    <path d="M 314.808487 334.814819 
L 314.860354 322.1684 
L 329.12968 309.582517 
L 329.041224 322.164179 
z
" clip-path="url(#p161ae0f42c)" style="fill: #648fff"/>
    <path d="M 393.375535 324.108486 
L 394.945118 246.895167 
L 408.686883 234.81064 
L 406.915141 311.621568 
z
" clip-path="url(#p161ae0f42c)" style="fill: #648fff"/>
    <path d="M 314.808487 334.814819 
L 329.041224 322.164179 
L 354.220433 329.444152 
L 340.119916 342.208476 
z
" clip-path="url(#p161ae0f42c)" style="fill: #3f599f"/>
    <path d="M 314.860354 322.1684 
L 340.23861 329.524443 
L 354.375017 316.825163 
L 329.12968 309.582517 
z
" clip-path="url(#p161ae0f42c)" style="fill: #577ddf"/>
    <path d="M 340.119916 342.208476 
L 354.220433 329.444152 
L 354.375017 316.825163 
L 340.23861 329.524443 
z
" clip-path="url(#p161ae0f42c)" style="fill: #324880"/>
    <path d="M 418.872551 331.405874 
L 432.276294 318.807478 
L 434.459347 241.764624 
L 420.85794 253.958763 
z
" clip-path="url(#p161ae0f42c)" style="fill: #324880"/>
    <path d="M 314.808487 334.814819 
L 340.119916 342.208476 
L 340.23861 329.524443 
L 314.860354 322.1684 
z
" clip-path="url(#p161ae0f42c)" style="fill: #648fff"/>
    <path d="M 393.375535 324.108486 
L 418.872551 331.405874 
L 420.85794 253.958763 
L 394.945118 246.895167 
z
" clip-path="url(#p161ae0f42c)" style="fill: #648fff"/>
    <path d="M 235.203883 345.662541 
L 250.146876 332.844936 
L 275.13716 340.220832 
L 260.322563 353.154382 
z
" clip-path="url(#p161ae0f42c)" style="fill: #3f599f"/>
    <path d="M 394.945118 246.895167 
L 420.85794 253.958763 
L 434.459347 241.764624 
L 408.686883 234.81064 
z
" clip-path="url(#p161ae0f42c)" style="fill: #577ddf"/>
    <path d="M 250.146876 332.844936 
L 249.507867 264.0354 
L 274.852846 271.203114 
L 275.13716 340.220832 
z
" clip-path="url(#p161ae0f42c)" style="fill: #324880"/>
    <path d="M 235.203883 345.662541 
L 234.345261 276.491821 
L 249.507867 264.0354 
L 250.146876 332.844936 
z
" clip-path="url(#p161ae0f42c)" style="fill: #648fff"/>
    <path d="M 154.541035 356.654469 
L 170.211908 343.666573 
L 195.006054 351.1403 
L 179.459565 364.246465 
z
" clip-path="url(#p161ae0f42c)" style="fill: #3f599f"/>
    <path d="M 260.322563 353.154382 
L 275.13716 340.220832 
L 274.852846 271.203114 
L 259.822303 283.773835 
z
" clip-path="url(#p161ae0f42c)" style="fill: #324880"/>
    <path d="M 235.203883 345.662541 
L 260.322563 353.154382 
L 259.822303 283.773835 
L 234.345261 276.491821 
z
" clip-path="url(#p161ae0f42c)" style="fill: #648fff"/>
    <path d="M 234.345261 276.491821 
L 259.822303 283.773835 
L 274.852846 271.203114 
L 249.507867 264.0354 
z
" clip-path="url(#p161ae0f42c)" style="fill: #577ddf"/>
    <path d="M 351.474438 362.751822 
L 351.527766 358.218308 
L 377.464253 365.852633 
L 377.386098 370.399663 
z
" clip-path="url(#p161ae0f42c)" style="fill: #324880"/>
    <path d="M 337.062979 376.042808 
L 337.103013 371.485847 
L 351.527766 358.218308 
L 351.474438 362.751822 
z
" clip-path="url(#p161ae0f42c)" style="fill: #648fff"/>
    <path d="M 170.211908 343.666573 
L 166.695621 207.86499 
L 192.175277 214.918404 
L 195.006054 351.1403 
z
" clip-path="url(#p161ae0f42c)" style="fill: #324880"/>
    <path d="M 337.062979 376.042808 
L 351.474438 362.751822 
L 377.386098 370.399663 
L 363.115221 383.813092 
z
" clip-path="url(#p161ae0f42c)" style="fill: #3f599f"/>
    <path d="M 154.541035 356.654469 
L 150.551185 220.123617 
L 166.695621 207.86499 
L 170.211908 343.666573 
z
" clip-path="url(#p161ae0f42c)" style="fill: #648fff"/>
    <path d="M 337.103013 371.485847 
L 363.180354 379.242516 
L 377.464253 365.852633 
L 351.527766 358.218308 
z
" clip-path="url(#p161ae0f42c)" style="fill: #577ddf"/>
    <path d="M 363.115221 383.813092 
L 377.386098 370.399663 
L 377.464253 365.852633 
L 363.180354 379.242516 
z
" clip-path="url(#p161ae0f42c)" style="fill: #324880"/>
    <path d="M 337.062979 376.042808 
L 363.115221 383.813092 
L 363.180354 379.242516 
L 337.103013 371.485847 
z
" clip-path="url(#p161ae0f42c)" style="fill: #648fff"/>
    <path d="M 179.459565 364.246465 
L 195.006054 351.1403 
L 192.175277 214.918404 
L 176.162124 227.291839 
z
" clip-path="url(#p161ae0f42c)" style="fill: #324880"/>
    <path d="M 154.541035 356.654469 
L 179.459565 364.246465 
L 176.162124 227.291839 
L 150.551185 220.123617 
z
" clip-path="url(#p161ae0f42c)" style="fill: #648fff"/>
    <path d="M 307.541087 403.269408 
L 322.420397 389.546947 
L 348.614412 397.442638 
L 333.878067 411.293567 
z
" clip-path="url(#p161ae0f42c)" style="fill: #3f599f"/>
    <path d="M 150.551185 220.123617 
L 176.162124 227.291839 
L 192.175277 214.918404 
L 166.695621 207.86499 
z
" clip-path="url(#p161ae0f42c)" style="fill: #577ddf"/>
    <path d="M 322.420397 389.546947 
L 322.738754 334.111798 
L 349.239877 341.838764 
L 348.614412 397.442638 
z
" clip-path="url(#p161ae0f42c)" style="fill: #324880"/>
    <path d="M 307.541087 403.269408 
L 307.687848 347.541557 
L 322.738754 334.111798 
L 322.420397 389.546947 
z
" clip-path="url(#p161ae0f42c)" style="fill: #648fff"/>
    <path d="M 333.878067 411.293567 
L 348.614412 397.442638 
L 349.239877 341.838764 
L 334.335328 355.395727 
z
" clip-path="url(#p161ae0f42c)" style="fill: #324880"/>
    <path d="M 307.541087 403.269408 
L 333.878067 411.293567 
L 334.335328 355.395727 
L 307.687848 347.541557 
z
" clip-path="url(#p161ae0f42c)" style="fill: #648fff"/>
    <path d="M 307.687848 347.541557 
L 334.335328 355.395727 
L 349.239877 341.838764 
L 322.738754 334.111798 
z
" clip-path="url(#p161ae0f42c)" style="fill: #577ddf"/>
   </g>
   <g id="text_16">
    <!-- Real Amplitude (ρ) -->
    <g transform="translate(190.023516 51.6) scale(0.21 -0.21)">
     <defs>
      <path id="DejaVuSans-52" d="M 2841 2188 
Q 3044 2119 3236 1894 
Q 3428 1669 3622 1275 
L 4263 0 
L 3584 0 
L 2988 1197 
Q 2756 1666 2539 1819 
Q 2322 1972 1947 1972 
L 1259 1972 
L 1259 0 
L 628 0 
L 628 4666 
L 2053 4666 
Q 2853 4666 3247 4331 
Q 3641 3997 3641 3322 
Q 3641 2881 3436 2590 
Q 3231 2300 2841 2188 
z
M 1259 4147 
L 1259 2491 
L 2053 2491 
Q 2509 2491 2742 2702 
Q 2975 2913 2975 3322 
Q 2975 3731 2742 3939 
Q 2509 4147 2053 4147 
L 1259 4147 
z
" transform="scale(0.015625)"/>
      <path id="DejaVuSans-65" d="M 3597 1894 
L 3597 1613 
L 953 1613 
Q 991 1019 1311 708 
Q 1631 397 2203 397 
Q 2534 397 2845 478 
Q 3156 559 3463 722 
L 3463 178 
Q 3153 47 2828 -22 
Q 2503 -91 2169 -91 
Q 1331 -91 842 396 
Q 353 884 353 1716 
Q 353 2575 817 3079 
Q 1281 3584 2069 3584 
Q 2775 3584 3186 3129 
Q 3597 2675 3597 1894 
z
M 3022 2063 
Q 3016 2534 2758 2815 
Q 2500 3097 2075 3097 
Q 1594 3097 1305 2825 
Q 1016 2553 972 2059 
L 3022 2063 
z
" transform="scale(0.015625)"/>
      <path id="DejaVuSans-61" d="M 2194 1759 
Q 1497 1759 1228 1600 
Q 959 1441 959 1056 
Q 959 750 1161 570 
Q 1363 391 1709 391 
Q 2188 391 2477 730 
Q 2766 1069 2766 1631 
L 2766 1759 
L 2194 1759 
z
M 3341 1997 
L 3341 0 
L 2766 0 
L 2766 531 
Q 2569 213 2275 61 
Q 1981 -91 1556 -91 
Q 1019 -91 701 211 
Q 384 513 384 1019 
Q 384 1609 779 1909 
Q 1175 2209 1959 2209 
L 2766 2209 
L 2766 2266 
Q 2766 2663 2505 2880 
Q 2244 3097 1772 3097 
Q 1472 3097 1187 3025 
Q 903 2953 641 2809 
L 641 3341 
Q 956 3463 1253 3523 
Q 1550 3584 1831 3584 
Q 2591 3584 2966 3190 
Q 3341 2797 3341 1997 
z
" transform="scale(0.015625)"/>
      <path id="DejaVuSans-6c" d="M 603 4863 
L 1178 4863 
L 1178 0 
L 603 0 
L 603 4863 
z
" transform="scale(0.015625)"/>
      <path id="DejaVuSans-20" transform="scale(0.015625)"/>
      <path id="DejaVuSans-41" d="M 2188 4044 
L 1331 1722 
L 3047 1722 
L 2188 4044 
z
M 1831 4666 
L 2547 4666 
L 4325 0 
L 3669 0 
L 3244 1197 
L 1141 1197 
L 716 0 
L 50 0 
L 1831 4666 
z
" transform="scale(0.015625)"/>
      <path id="DejaVuSans-6d" d="M 3328 2828 
Q 3544 3216 3844 3400 
Q 4144 3584 4550 3584 
Q 5097 3584 5394 3201 
Q 5691 2819 5691 2113 
L 5691 0 
L 5113 0 
L 5113 2094 
Q 5113 2597 4934 2840 
Q 4756 3084 4391 3084 
Q 3944 3084 3684 2787 
Q 3425 2491 3425 1978 
L 3425 0 
L 2847 0 
L 2847 2094 
Q 2847 2600 2669 2842 
Q 2491 3084 2119 3084 
Q 1678 3084 1418 2786 
Q 1159 2488 1159 1978 
L 1159 0 
L 581 0 
L 581 3500 
L 1159 3500 
L 1159 2956 
Q 1356 3278 1631 3431 
Q 1906 3584 2284 3584 
Q 2666 3584 2933 3390 
Q 3200 3197 3328 2828 
z
" transform="scale(0.015625)"/>
      <path id="DejaVuSans-70" d="M 1159 525 
L 1159 -1331 
L 581 -1331 
L 581 3500 
L 1159 3500 
L 1159 2969 
Q 1341 3281 1617 3432 
Q 1894 3584 2278 3584 
Q 2916 3584 3314 3078 
Q 3713 2572 3713 1747 
Q 3713 922 3314 415 
Q 2916 -91 2278 -91 
Q 1894 -91 1617 61 
Q 1341 213 1159 525 
z
M 3116 1747 
Q 3116 2381 2855 2742 
Q 2594 3103 2138 3103 
Q 1681 3103 1420 2742 
Q 1159 2381 1159 1747 
Q 1159 1113 1420 752 
Q 1681 391 2138 391 
Q 2594 391 2855 752 
Q 3116 1113 3116 1747 
z
" transform="scale(0.015625)"/>
      <path id="DejaVuSans-69" d="M 603 3500 
L 1178 3500 
L 1178 0 
L 603 0 
L 603 3500 
z
M 603 4863 
L 1178 4863 
L 1178 4134 
L 603 4134 
L 603 4863 
z
" transform="scale(0.015625)"/>
      <path id="DejaVuSans-74" d="M 1172 4494 
L 1172 3500 
L 2356 3500 
L 2356 3053 
L 1172 3053 
L 1172 1153 
Q 1172 725 1289 603 
Q 1406 481 1766 481 
L 2356 481 
L 2356 0 
L 1766 0 
Q 1100 0 847 248 
Q 594 497 594 1153 
L 594 3053 
L 172 3053 
L 172 3500 
L 594 3500 
L 594 4494 
L 1172 4494 
z
" transform="scale(0.015625)"/>
      <path id="DejaVuSans-75" d="M 544 1381 
L 544 3500 
L 1119 3500 
L 1119 1403 
Q 1119 906 1312 657 
Q 1506 409 1894 409 
Q 2359 409 2629 706 
Q 2900 1003 2900 1516 
L 2900 3500 
L 3475 3500 
L 3475 0 
L 2900 0 
L 2900 538 
Q 2691 219 2414 64 
Q 2138 -91 1772 -91 
Q 1169 -91 856 284 
Q 544 659 544 1381 
z
M 1991 3584 
L 1991 3584 
z
" transform="scale(0.015625)"/>
      <path id="DejaVuSans-64" d="M 2906 2969 
L 2906 4863 
L 3481 4863 
L 3481 0 
L 2906 0 
L 2906 525 
Q 2725 213 2448 61 
Q 2172 -91 1784 -91 
Q 1150 -91 751 415 
Q 353 922 353 1747 
Q 353 2572 751 3078 
Q 1150 3584 1784 3584 
Q 2172 3584 2448 3432 
Q 2725 3281 2906 2969 
z
M 947 1747 
Q 947 1113 1208 752 
Q 1469 391 1925 391 
Q 2381 391 2643 752 
Q 2906 1113 2906 1747 
Q 2906 2381 2643 2742 
Q 2381 3103 1925 3103 
Q 1469 3103 1208 2742 
Q 947 2381 947 1747 
z
" transform="scale(0.015625)"/>
      <path id="DejaVuSans-28" d="M 1984 4856 
Q 1566 4138 1362 3434 
Q 1159 2731 1159 2009 
Q 1159 1288 1364 580 
Q 1569 -128 1984 -844 
L 1484 -844 
Q 1016 -109 783 600 
Q 550 1309 550 2009 
Q 550 2706 781 3412 
Q 1013 4119 1484 4856 
L 1984 4856 
z
" transform="scale(0.015625)"/>
      <path id="DejaVuSans-3c1" d="M 863 2875 
Q 1053 3194 1525 3475 
Q 1709 3584 2278 3584 
Q 2916 3584 3314 3078 
Q 3713 2572 3713 1747 
Q 3713 922 3314 415 
Q 2916 -91 2278 -91 
Q 1894 -91 1617 61 
Q 1341 213 1159 525 
L 1159 -1331 
L 581 -1331 
L 581 1716 
Q 581 2438 863 2875 
z
M 3116 1747 
Q 3116 2381 2855 2742 
Q 2594 3103 2138 3103 
Q 1681 3103 1420 2742 
Q 1159 2381 1159 1747 
Q 1159 1113 1420 752 
Q 1681 391 2138 391 
Q 2594 391 2855 752 
Q 3116 1113 3116 1747 
z
" transform="scale(0.015625)"/>
      <path id="DejaVuSans-29" d="M 513 4856 
L 1013 4856 
Q 1481 4119 1714 3412 
Q 1947 2706 1947 2009 
Q 1947 1309 1714 600 
Q 1481 -109 1013 -844 
L 513 -844 
Q 928 -128 1133 580 
Q 1338 1288 1338 2009 
Q 1338 2731 1133 3434 
Q 928 4138 513 4856 
z
" transform="scale(0.015625)"/>
     </defs>
     <use xlink:href="#DejaVuSans-52"/>
     <use xlink:href="#DejaVuSans-65" x="64.982422"/>
     <use xlink:href="#DejaVuSans-61" x="126.505859"/>
     <use xlink:href="#DejaVuSans-6c" x="187.785156"/>
     <use xlink:href="#DejaVuSans-20" x="215.568359"/>
     <use xlink:href="#DejaVuSans-41" x="247.355469"/>
     <use xlink:href="#DejaVuSans-6d" x="315.763672"/>
     <use xlink:href="#DejaVuSans-70" x="413.175781"/>
     <use xlink:href="#DejaVuSans-6c" x="476.652344"/>
     <use xlink:href="#DejaVuSans-69" x="504.435547"/>
     <use xlink:href="#DejaVuSans-74" x="532.21875"/>
     <use xlink:href="#DejaVuSans-75" x="571.427734"/>
     <use xlink:href="#DejaVuSans-64" x="634.806641"/>
     <use xlink:href="#DejaVuSans-65" x="698.283203"/>
     <use xlink:href="#DejaVuSans-20" x="759.806641"/>
     <use xlink:href="#DejaVuSans-28" x="791.59375"/>
     <use xlink:href="#DejaVuSans-3c1" x="830.607422"/>
     <use xlink:href="#DejaVuSans-29" x="894.083984"/>
    </g>
   </g>
  </g>
  <g id="patch_6">
   <path d="M 604.8 576 
L 1123.2 576 
L 1123.2 57.6 
L 604.8 57.6 
z
" style="fill: #ffffff"/>
  </g>
  <g id="pane3d_4">
   <g id="patch_7">
    <path d="M 706.07018 436.456468 
L 829.494133 330.550231 
L 827.743197 126.70673 
L 698.643358 223.613571 
" style="fill: #f2f2f2; opacity: 0.5; stroke: #f2f2f2; stroke-linejoin: miter"/>
   </g>
  </g>
  <g id="pane3d_5">
   <g id="patch_8">
    <path d="M 829.494133 330.550231 
L 1031.554898 390.069341 
L 1038.583588 181.103065 
L 827.743197 126.70673 
" style="fill: #e6e6e6; opacity: 0.5; stroke: #e6e6e6; stroke-linejoin: miter"/>
   </g>
  </g>
  <g id="pane3d_6">
   <g id="patch_9">
    <path d="M 706.07018 436.456468 
L 916.912731 504.076731 
L 1031.554898 390.069341 
L 829.494133 330.550231 
" style="fill: #ececec; opacity: 0.5; stroke: #ececec; stroke-linejoin: miter"/>
   </g>
  </g>
  <g id="grid3d_4">
   <g id="Line3DCollection_4">
    <path d="M 734.635886 445.617904 
L 856.925726 338.630493 
L 856.328796 134.081748 
" style="fill: none; stroke: #b0b0b0; stroke-width: 0.8"/>
    <path d="M 784.310046 461.549127 
L 904.58611 352.669358 
L 906.022474 146.902603 
" style="fill: none; stroke: #b0b0b0; stroke-width: 0.8"/>
    <path d="M 834.89502 477.772462 
L 953.066152 366.949661 
L 956.607663 159.953465 
" style="fill: none; stroke: #b0b0b0; stroke-width: 0.8"/>
    <path d="M 886.41609 494.296016 
L 1002.38718 381.477685 
L 1008.108569 173.24058 
" style="fill: none; stroke: #b0b0b0; stroke-width: 0.8"/>
   </g>
  </g>
  <g id="grid3d_5">
   <g id="Line3DCollection_5">
    <path d="M 717.757365 209.265931 
L 724.301379 420.812846 
L 933.880707 487.202708 
" style="fill: none; stroke: #b0b0b0; stroke-width: 0.8"/>
    <path d="M 749.704273 185.285468 
L 754.805664 394.638072 
L 962.24502 458.995448 
" style="fill: none; stroke: #b0b0b0; stroke-width: 0.8"/>
    <path d="M 780.65707 162.051218 
L 784.400054 369.24405 
L 989.731787 431.660877 
" style="fill: none; stroke: #b0b0b0; stroke-width: 0.8"/>
    <path d="M 810.661448 139.528886 
L 813.124663 344.596362 
L 1016.38111 405.159111 
" style="fill: none; stroke: #b0b0b0; stroke-width: 0.8"/>
   </g>
  </g>
  <g id="grid3d_6">
   <g id="Line3DCollection_6">
    <path d="M 1032.399268 364.965812 
L 829.283505 306.029055 
L 705.17892 410.914141 
" style="fill: none; stroke: #b0b0b0; stroke-width: 0.8"/>
    <path d="M 1033.311965 337.830913 
L 829.055921 279.533797 
L 704.215252 383.296682 
" style="fill: none; stroke: #b0b0b0; stroke-width: 0.8"/>
    <path d="M 1034.235043 310.387369 
L 828.825841 252.747901 
L 703.240318 355.35636 
" style="fill: none; stroke: #b0b0b0; stroke-width: 0.8"/>
    <path d="M 1035.16868 282.629883 
L 828.593223 225.666561 
L 702.253919 327.087479 
" style="fill: none; stroke: #b0b0b0; stroke-width: 0.8"/>
    <path d="M 1036.11306 254.553037 
L 828.358025 198.284859 
L 701.255853 298.48421 
" style="fill: none; stroke: #b0b0b0; stroke-width: 0.8"/>
    <path d="M 1037.068367 226.151287 
L 828.120204 170.597772 
L 700.24591 269.540586 
" style="fill: none; stroke: #b0b0b0; stroke-width: 0.8"/>
    <path d="M 1038.034794 197.418961 
L 827.879715 142.600161 
L 699.223877 240.250493 
" style="fill: none; stroke: #b0b0b0; stroke-width: 0.8"/>
   </g>
  </g>
  <g id="axis3d_4">
   <g id="line2d_19">
    <path d="M 706.07018 436.456468 
L 916.912731 504.076731 
" style="fill: none; stroke: #000000; stroke-width: 0.8; stroke-linecap: square"/>
   </g>
   <g id="xtick_16">
    <g id="line2d_20">
     <path d="M 735.677227 444.706868 
L 732.549953 447.442819 
" style="fill: none; stroke: #000000; stroke-width: 0.8; stroke-linecap: square"/>
    </g>
    <g id="text_17">
     <!-- 00 -->
     <g transform="translate(707.351686 489.365693) rotate(-45) scale(0.21 -0.21)">
      <use xlink:href="#DejaVuSans-30"/>
      <use xlink:href="#DejaVuSans-30" x="63.623047"/>
     </g>
    </g>
   </g>
   <g id="xtick_17">
    <g id="line2d_21">
     <path d="M 785.334802 460.621468 
L 782.257306 463.407368 
" style="fill: none; stroke: #000000; stroke-width: 0.8; stroke-linecap: square"/>
    </g>
    <g id="text_18">
     <!-- 01 -->
     <g transform="translate(757.023931 505.435143) rotate(-45) scale(0.21 -0.21)">
      <use xlink:href="#DejaVuSans-30"/>
      <use xlink:href="#DejaVuSans-31" x="63.623047"/>
     </g>
    </g>
   </g>
   <g id="xtick_18">
    <g id="line2d_22">
     <path d="M 835.902405 476.82772 
L 832.877048 479.664949 
" style="fill: none; stroke: #000000; stroke-width: 0.8; stroke-linecap: square"/>
    </g>
    <g id="text_19">
     <!-- 10 -->
     <g transform="translate(807.60781 521.799516) rotate(-45) scale(0.21 -0.21)">
      <use xlink:href="#DejaVuSans-31"/>
      <use xlink:href="#DejaVuSans-30" x="63.623047"/>
     </g>
    </g>
   </g>
   <g id="xtick_19">
    <g id="line2d_23">
     <path d="M 887.405283 493.333715 
L 884.434531 496.223705 
" style="fill: none; stroke: #000000; stroke-width: 0.8; stroke-linecap: square"/>
    </g>
    <g id="text_20">
     <!-- 11 -->
     <g transform="translate(859.128654 538.467006) rotate(-45) scale(0.21 -0.21)">
      <use xlink:href="#DejaVuSans-31"/>
      <use xlink:href="#DejaVuSans-31" x="63.623047"/>
     </g>
    </g>
   </g>
  </g>
  <g id="axis3d_5">
   <g id="line2d_24">
    <path d="M 1031.554898 390.069341 
L 916.912731 504.076731 
" style="fill: none; stroke: #000000; stroke-width: 0.8; stroke-linecap: square"/>
   </g>
   <g id="xtick_20">
    <g id="line2d_25">
     <path d="M 932.140222 486.651363 
L 937.364886 488.306415 
" style="fill: none; stroke: #000000; stroke-width: 0.8; stroke-linecap: square"/>
    </g>
    <g id="text_21">
     <!-- 00 -->
     <g transform="translate(944.70027 499.207917) rotate(-337.5) scale(0.21 -0.21)">
      <use xlink:href="#DejaVuSans-30"/>
      <use xlink:href="#DejaVuSans-30" x="63.623047"/>
     </g>
    </g>
   </g>
   <g id="xtick_21">
    <g id="line2d_26">
     <path d="M 960.5233 458.46129 
L 965.691587 460.064734 
" style="fill: none; stroke: #000000; stroke-width: 0.8; stroke-linecap: square"/>
    </g>
    <g id="text_22">
     <!-- 01 -->
     <g transform="translate(972.913817 470.822876) rotate(-337.5) scale(0.21 -0.21)">
      <use xlink:href="#DejaVuSans-30"/>
      <use xlink:href="#DejaVuSans-31" x="63.623047"/>
     </g>
    </g>
   </g>
   <g id="xtick_22">
    <g id="line2d_27">
     <path d="M 988.028511 431.143114 
L 993.141381 432.697327 
" style="fill: none; stroke: #000000; stroke-width: 0.8; stroke-linecap: square"/>
    </g>
    <g id="text_23">
     <!-- 10 -->
     <g transform="translate(1000.254695 443.315808) rotate(-337.5) scale(0.21 -0.21)">
      <use xlink:href="#DejaVuSans-31"/>
      <use xlink:href="#DejaVuSans-30" x="63.623047"/>
     </g>
    </g>
   </g>
   <g id="xtick_23">
    <g id="line2d_28">
     <path d="M 1014.695964 404.657001 
L 1019.754368 406.164215 
" style="fill: none; stroke: #000000; stroke-width: 0.8; stroke-linecap: square"/>
    </g>
    <g id="text_24">
     <!-- 11 -->
     <g transform="translate(1026.762776 416.646599) rotate(-337.5) scale(0.21 -0.21)">
      <use xlink:href="#DejaVuSans-31"/>
      <use xlink:href="#DejaVuSans-31" x="63.623047"/>
     </g>
    </g>
   </g>
  </g>
  <g id="axis3d_6">
   <g id="line2d_29">
    <path d="M 1031.554898 390.069341 
L 1038.583588 181.103065 
" style="fill: none; stroke: #000000; stroke-width: 0.8; stroke-linecap: square"/>
   </g>
   <g id="xtick_24">
    <g id="line2d_30">
     <path d="M 1030.715501 364.477244 
L 1035.769756 365.943804 
" style="fill: none; stroke: #000000; stroke-width: 0.8; stroke-linecap: square"/>
    </g>
    <g id="text_25">
     <!-- −0.2 -->
     <g transform="translate(1045.948458 358.695889) scale(0.21 -0.21)">
      <use xlink:href="#DejaVuSans-2212"/>
      <use xlink:href="#DejaVuSans-30" x="83.789062"/>
      <use xlink:href="#DejaVuSans-2e" x="147.412109"/>
      <use xlink:href="#DejaVuSans-32" x="179.199219"/>
     </g>
    </g>
   </g>
   <g id="xtick_25">
    <g id="line2d_31">
     <path d="M 1031.61841 337.347553 
L 1036.702061 338.798487 
" style="fill: none; stroke: #000000; stroke-width: 0.8; stroke-linecap: square"/>
    </g>
    <g id="text_26">
     <!-- −0.1 -->
     <g transform="translate(1046.936645 331.581276) scale(0.21 -0.21)">
      <use xlink:href="#DejaVuSans-2212"/>
      <use xlink:href="#DejaVuSans-30" x="83.789062"/>
      <use xlink:href="#DejaVuSans-2e" x="147.412109"/>
      <use xlink:href="#DejaVuSans-31" x="179.199219"/>
     </g>
    </g>
   </g>
   <g id="xtick_26">
    <g id="line2d_32">
     <path d="M 1032.531586 309.909366 
L 1037.644976 311.344224 
" style="fill: none; stroke: #000000; stroke-width: 0.8; stroke-linecap: square"/>
    </g>
    <g id="text_27">
     <!-- 0.0 -->
     <g transform="translate(1047.936059 304.158603) scale(0.21 -0.21)">
      <use xlink:href="#DejaVuSans-30"/>
      <use xlink:href="#DejaVuSans-2e" x="63.623047"/>
      <use xlink:href="#DejaVuSans-30" x="95.410156"/>
     </g>
    </g>
   </g>
   <g id="xtick_27">
    <g id="line2d_33">
     <path d="M 1033.455206 282.157391 
L 1038.598685 283.575709 
" style="fill: none; stroke: #000000; stroke-width: 0.8; stroke-linecap: square"/>
    </g>
    <g id="text_28">
     <!-- 0.1 -->
     <g transform="translate(1048.946893 276.42259) scale(0.21 -0.21)">
      <use xlink:href="#DejaVuSans-30"/>
      <use xlink:href="#DejaVuSans-2e" x="63.623047"/>
      <use xlink:href="#DejaVuSans-31" x="95.410156"/>
     </g>
    </g>
   </g>
   <g id="xtick_28">
    <g id="line2d_34">
     <path d="M 1034.389449 254.086216 
L 1039.563372 255.487516 
" style="fill: none; stroke: #000000; stroke-width: 0.8; stroke-linecap: square"/>
    </g>
    <g id="text_29">
     <!-- 0.2 -->
     <g transform="translate(1049.969343 248.367835) scale(0.21 -0.21)">
      <use xlink:href="#DejaVuSans-30"/>
      <use xlink:href="#DejaVuSans-2e" x="63.623047"/>
      <use xlink:href="#DejaVuSans-32" x="95.410156"/>
     </g>
    </g>
   </g>
   <g id="xtick_29">
    <g id="line2d_35">
     <path d="M 1035.3345 225.6903 
L 1040.53923 227.074093 
" style="fill: none; stroke: #000000; stroke-width: 0.8; stroke-linecap: square"/>
    </g>
    <g id="text_30">
     <!-- 0.3 -->
     <g transform="translate(1051.003611 219.988812) scale(0.21 -0.21)">
      <use xlink:href="#DejaVuSans-30"/>
      <use xlink:href="#DejaVuSans-2e" x="63.623047"/>
      <use xlink:href="#DejaVuSans-33" x="95.410156"/>
     </g>
    </g>
   </g>
   <g id="xtick_30">
    <g id="line2d_36">
     <path d="M 1036.290547 196.963976 
L 1041.526453 198.329758 
" style="fill: none; stroke: #000000; stroke-width: 0.8; stroke-linecap: square"/>
    </g>
    <g id="text_31">
     <!-- 0.4 -->
     <g transform="translate(1052.049903 191.279867) scale(0.21 -0.21)">
      <use xlink:href="#DejaVuSans-30"/>
      <use xlink:href="#DejaVuSans-2e" x="63.623047"/>
      <use xlink:href="#DejaVuSans-34" x="95.410156"/>
     </g>
    </g>
   </g>
  </g>
  <g id="axes_2">
   <g id="Poly3DCollection_4">
    <path d="M 821.791079 355.411799 
L 845.612317 362.544934 
L 859.572276 350.22848 
L 835.866748 343.199915 
z
" clip-path="url(#p0d1c357262)" style="fill: #577ddf"/>
    <path d="M 835.296612 264.99246 
L 835.866748 343.199915 
L 859.572276 350.22848 
L 859.385967 271.797241 
z
" clip-path="url(#p0d1c357262)" style="fill: #648fff"/>
    <path d="M 820.986558 276.816129 
L 821.791079 355.411799 
L 835.866748 343.199915 
L 835.296612 264.99246 
z
" clip-path="url(#p0d1c357262)" style="fill: #324880"/>
    <path d="M 845.195399 283.723815 
L 859.385967 271.797241 
L 859.572276 350.22848 
L 845.612317 362.544934 
z
" clip-path="url(#p0d1c357262)" style="fill: #648fff"/>
    <path d="M 820.986558 276.816129 
L 845.195399 283.723815 
L 845.612317 362.544934 
L 821.791079 355.411799 
z
" clip-path="url(#p0d1c357262)" style="fill: #324880"/>
    <path d="M 820.986558 276.816129 
L 835.296612 264.99246 
L 859.385967 271.797241 
L 845.195399 283.723815 
z
" clip-path="url(#p0d1c357262)" style="fill: #3f599f"/>
    <path d="M 932.920978 292.569469 
L 932.920978 292.569469 
L 957.864259 299.615467 
L 957.864259 299.615467 
z
" clip-path="url(#p0d1c357262)" style="fill: #648fff"/>
    <path d="M 919.104891 304.81295 
L 919.104891 304.81295 
L 932.920978 292.569469 
L 932.920978 292.569469 
z
" clip-path="url(#p0d1c357262)" style="fill: #324880"/>
    <path d="M 855.332775 302.906645 
L 855.422099 330.607936 
L 880.042066 337.826614 
L 880.094094 310.04415 
z
" clip-path="url(#p0d1c357262)" style="fill: #648fff"/>
    <path d="M 919.104891 304.81295 
L 932.920978 292.569469 
L 957.864259 299.615467 
L 944.178529 311.967395 
z
" clip-path="url(#p0d1c357262)" style="fill: #3f599f"/>
    <path d="M 919.104891 304.81295 
L 944.178529 311.967395 
L 957.864259 299.615467 
L 932.920978 292.569469 
z
" clip-path="url(#p0d1c357262)" style="fill: #577ddf"/>
    <path d="M 841.002717 343.151505 
L 865.747972 350.481368 
L 880.042066 337.826614 
L 855.422099 330.607936 
z
" clip-path="url(#p0d1c357262)" style="fill: #577ddf"/>
    <path d="M 840.829415 315.309393 
L 841.002717 343.151505 
L 855.422099 330.607936 
L 855.332775 302.906645 
z
" clip-path="url(#p0d1c357262)" style="fill: #324880"/>
    <path d="M 762.723854 378.764309 
L 787.153727 386.262119 
L 802.06696 373.317467 
L 777.75742 365.933539 
z
" clip-path="url(#p0d1c357262)" style="fill: #577ddf"/>
    <path d="M 944.178529 311.967395 
L 957.864259 299.615467 
L 957.864259 299.615467 
L 944.178529 311.967395 
z
" clip-path="url(#p0d1c357262)" style="fill: #648fff"/>
    <path d="M 776.735881 313.378209 
L 777.75742 365.933539 
L 802.06696 373.317467 
L 801.308366 320.609016 
z
" clip-path="url(#p0d1c357262)" style="fill: #648fff"/>
    <path d="M 919.104891 304.81295 
L 944.178529 311.967395 
L 944.178529 311.967395 
L 919.104891 304.81295 
z
" clip-path="url(#p0d1c357262)" style="fill: #324880"/>
    <path d="M 983.028115 306.723773 
L 983.028115 306.723773 
L 1008.415486 313.895218 
L 1008.415486 313.895218 
z
" clip-path="url(#p0d1c357262)" style="fill: #648fff"/>
    <path d="M 761.528428 325.943354 
L 762.723854 378.764309 
L 777.75742 365.933539 
L 776.735881 313.378209 
z
" clip-path="url(#p0d1c357262)" style="fill: #324880"/>
    <path d="M 865.717468 322.557473 
L 880.094094 310.04415 
L 880.042066 337.826614 
L 865.747972 350.481368 
z
" clip-path="url(#p0d1c357262)" style="fill: #648fff"/>
    <path d="M 840.829415 315.309393 
L 855.332775 302.906645 
L 880.094094 310.04415 
L 865.717468 322.557473 
z
" clip-path="url(#p0d1c357262)" style="fill: #3f599f"/>
    <path d="M 969.475607 319.185595 
L 969.475607 319.185595 
L 983.028115 306.723773 
L 983.028115 306.723773 
z
" clip-path="url(#p0d1c357262)" style="fill: #324880"/>
    <path d="M 840.829415 315.309393 
L 865.717468 322.557473 
L 865.747972 350.481368 
L 841.002717 343.151505 
z
" clip-path="url(#p0d1c357262)" style="fill: #324880"/>
    <path d="M 969.475607 319.185595 
L 983.028115 306.723773 
L 1008.415486 313.895218 
L 994.999125 326.468407 
z
" clip-path="url(#p0d1c357262)" style="fill: #3f599f"/>
    <path d="M 969.475607 319.185595 
L 994.999125 326.468407 
L 1008.415486 313.895218 
L 983.028115 306.723773 
z
" clip-path="url(#p0d1c357262)" style="fill: #577ddf"/>
    <path d="M 786.223846 333.286918 
L 801.308366 320.609016 
L 802.06696 373.317467 
L 787.153727 386.262119 
z
" clip-path="url(#p0d1c357262)" style="fill: #648fff"/>
    <path d="M 994.999125 326.468407 
L 1008.415486 313.895218 
L 1008.415486 313.895218 
L 994.999125 326.468407 
z
" clip-path="url(#p0d1c357262)" style="fill: #648fff"/>
    <path d="M 761.528428 325.943354 
L 786.223846 333.286918 
L 787.153727 386.262119 
L 762.723854 378.764309 
z
" clip-path="url(#p0d1c357262)" style="fill: #324880"/>
    <path d="M 969.475607 319.185595 
L 994.999125 326.468407 
L 994.999125 326.468407 
L 969.475607 319.185595 
z
" clip-path="url(#p0d1c357262)" style="fill: #324880"/>
    <path d="M 761.528428 325.943354 
L 776.735881 313.378209 
L 801.308366 320.609016 
L 786.223846 333.286918 
z
" clip-path="url(#p0d1c357262)" style="fill: #3f599f"/>
    <path d="M 912.49732 440.42939 
L 938.195 448.387755 
L 952.281772 434.649033 
L 926.720865 426.814404 
z
" clip-path="url(#p0d1c357262)" style="fill: #577ddf"/>
    <path d="M 927.533246 357.752498 
L 926.720865 426.814404 
L 952.281772 434.649033 
L 953.472284 365.385432 
z
" clip-path="url(#p0d1c357262)" style="fill: #648fff"/>
    <path d="M 913.107127 371.017624 
L 912.49732 440.42939 
L 926.720865 426.814404 
L 927.533246 357.752498 
z
" clip-path="url(#p0d1c357262)" style="fill: #324880"/>
    <path d="M 939.187047 378.772891 
L 953.472284 365.385432 
L 952.281772 434.649033 
L 938.195 448.387755 
z
" clip-path="url(#p0d1c357262)" style="fill: #648fff"/>
    <path d="M 913.107127 371.017624 
L 939.187047 378.772891 
L 938.195 448.387755 
L 912.49732 440.42939 
z
" clip-path="url(#p0d1c357262)" style="fill: #324880"/>
    <path d="M 846.727873 368.951705 
L 846.897392 402.428217 
L 872.459072 410.26345 
L 872.46934 376.687856 
z
" clip-path="url(#p0d1c357262)" style="fill: #648fff"/>
    <path d="M 831.833801 416.044901 
L 857.530357 424.005672 
L 872.459072 410.26345 
L 846.897392 402.428217 
z
" clip-path="url(#p0d1c357262)" style="fill: #577ddf"/>
    <path d="M 913.107127 371.017624 
L 927.533246 357.752498 
L 953.472284 365.385432 
L 939.187047 378.772891 
z
" clip-path="url(#p0d1c357262)" style="fill: #3f599f"/>
    <path d="M 831.556153 382.396516 
L 831.833801 416.044901 
L 846.897392 402.428217 
L 846.727873 368.951705 
z
" clip-path="url(#p0d1c357262)" style="fill: #324880"/>
    <path d="M 857.434402 390.2575 
L 872.46934 376.687856 
L 872.459072 410.26345 
L 857.530357 424.005672 
z
" clip-path="url(#p0d1c357262)" style="fill: #648fff"/>
    <path d="M 831.556153 382.396516 
L 846.727873 368.951705 
L 872.46934 376.687856 
L 857.434402 390.2575 
z
" clip-path="url(#p0d1c357262)" style="fill: #3f599f"/>
    <path d="M 831.556153 382.396516 
L 857.434402 390.2575 
L 857.530357 424.005672 
L 831.833801 416.044901 
z
" clip-path="url(#p0d1c357262)" style="fill: #324880"/>
   </g>
   <g id="Poly3DCollection_5">
    <path d="M 710.040372 354.432503 
L 915.765922 417.263545 
L 1027.790629 311.262908 
L 830.434071 255.791135 
z
" clip-path="url(#p0d1c357262)" style="fill-opacity: 0.25"/>
   </g>
   <g id="Poly3DCollection_6">
    <path d="M 869.616196 290.691979 
L 883.684645 278.661151 
L 908.195386 285.584964 
L 894.251745 297.721421 
z
" clip-path="url(#p0d1c357262)" style="fill: #3f599f"/>
    <path d="M 883.684645 278.661151 
L 883.863222 209.865176 
L 908.721495 216.582488 
L 908.195386 285.584964 
z
" clip-path="url(#p0d1c357262)" style="fill: #324880"/>
    <path d="M 869.616196 290.691979 
L 869.59648 221.537716 
L 883.863222 209.865176 
L 883.684645 278.661151 
z
" clip-path="url(#p0d1c357262)" style="fill: #648fff"/>
    <path d="M 806.459752 288.818889 
L 806.024666 255.961326 
L 830.516657 262.876473 
L 830.788945 295.831832 
z
" clip-path="url(#p0d1c357262)" style="fill: #324880"/>
    <path d="M 791.711231 301.00484 
L 806.459752 288.818889 
L 830.788945 295.831832 
L 816.16164 308.125465 
z
" clip-path="url(#p0d1c357262)" style="fill: #3f599f"/>
    <path d="M 791.711231 301.00484 
L 791.172622 267.977605 
L 806.024666 255.961326 
L 806.459752 288.818889 
z
" clip-path="url(#p0d1c357262)" style="fill: #648fff"/>
    <path d="M 894.251745 297.721421 
L 908.195386 285.584964 
L 908.721495 216.582488 
L 894.58314 228.358968 
z
" clip-path="url(#p0d1c357262)" style="fill: #324880"/>
    <path d="M 869.616196 290.691979 
L 894.251745 297.721421 
L 894.58314 228.358968 
L 869.59648 221.537716 
z
" clip-path="url(#p0d1c357262)" style="fill: #648fff"/>
    <path d="M 816.16164 308.125465 
L 830.788945 295.831832 
L 830.516657 262.876473 
L 815.787451 274.999657 
z
" clip-path="url(#p0d1c357262)" style="fill: #324880"/>
    <path d="M 791.172622 267.977605 
L 815.787451 274.999657 
L 830.516657 262.876473 
L 806.024666 255.961326 
z
" clip-path="url(#p0d1c357262)" style="fill: #577ddf"/>
    <path d="M 791.711231 301.00484 
L 816.16164 308.125465 
L 815.787451 274.999657 
L 791.172622 267.977605 
z
" clip-path="url(#p0d1c357262)" style="fill: #648fff"/>
    <path d="M 869.59648 221.537716 
L 894.58314 228.358968 
L 908.721495 216.582488 
L 883.863222 209.865176 
z
" clip-path="url(#p0d1c357262)" style="fill: #577ddf"/>
    <path d="M 905.075807 317.245183 
L 905.075807 317.245183 
L 930.28087 324.510598 
L 930.28087 324.510598 
z
" clip-path="url(#p0d1c357262)" style="fill: #324880"/>
    <path d="M 890.828765 329.870567 
L 890.828765 329.870567 
L 905.075807 317.245183 
L 905.075807 317.245183 
z
" clip-path="url(#p0d1c357262)" style="fill: #648fff"/>
    <path d="M 890.828765 329.870567 
L 916.16632 337.249553 
L 930.28087 324.510598 
L 905.075807 317.245183 
z
" clip-path="url(#p0d1c357262)" style="fill: #577ddf"/>
    <path d="M 890.828765 329.870567 
L 905.075807 317.245183 
L 930.28087 324.510598 
L 916.16632 337.249553 
z
" clip-path="url(#p0d1c357262)" style="fill: #3f599f"/>
    <path d="M 916.16632 337.249553 
L 930.28087 324.510598 
L 930.28087 324.510598 
L 916.16632 337.249553 
z
" clip-path="url(#p0d1c357262)" style="fill: #324880"/>
    <path d="M 826.100997 327.904603 
L 826.100997 327.904603 
L 851.116748 335.265847 
L 851.116748 335.265847 
z
" clip-path="url(#p0d1c357262)" style="fill: #324880"/>
    <path d="M 890.828765 329.870567 
L 916.16632 337.249553 
L 916.16632 337.249553 
L 890.828765 329.870567 
z
" clip-path="url(#p0d1c357262)" style="fill: #648fff"/>
    <path d="M 811.142243 340.696789 
L 811.142243 340.696789 
L 826.100997 327.904603 
L 826.100997 327.904603 
z
" clip-path="url(#p0d1c357262)" style="fill: #648fff"/>
    <path d="M 955.71229 331.841261 
L 955.71229 331.841261 
L 981.373132 339.238055 
L 981.373132 339.238055 
z
" clip-path="url(#p0d1c357262)" style="fill: #324880"/>
    <path d="M 811.142243 340.696789 
L 826.100997 327.904603 
L 851.116748 335.265847 
L 836.286652 348.173868 
z
" clip-path="url(#p0d1c357262)" style="fill: #3f599f"/>
    <path d="M 811.142243 340.696789 
L 836.286652 348.173868 
L 851.116748 335.265847 
L 826.100997 327.904603 
z
" clip-path="url(#p0d1c357262)" style="fill: #577ddf"/>
    <path d="M 941.733208 344.695327 
L 941.733208 344.695327 
L 955.71229 331.841261 
L 955.71229 331.841261 
z
" clip-path="url(#p0d1c357262)" style="fill: #648fff"/>
    <path d="M 836.286652 348.173868 
L 851.116748 335.265847 
L 851.116748 335.265847 
L 836.286652 348.173868 
z
" clip-path="url(#p0d1c357262)" style="fill: #324880"/>
    <path d="M 941.733208 344.695327 
L 955.71229 331.841261 
L 981.373132 339.238055 
L 967.532554 352.2088 
z
" clip-path="url(#p0d1c357262)" style="fill: #3f599f"/>
    <path d="M 941.733208 344.695327 
L 967.532554 352.2088 
L 981.373132 339.238055 
L 955.71229 331.841261 
z
" clip-path="url(#p0d1c357262)" style="fill: #577ddf"/>
    <path d="M 746.083433 338.704766 
L 746.083433 338.704766 
L 770.902638 346.163747 
L 770.902638 346.163747 
z
" clip-path="url(#p0d1c357262)" style="fill: #324880"/>
    <path d="M 811.142243 340.696789 
L 836.286652 348.173868 
L 836.286652 348.173868 
L 811.142243 340.696789 
z
" clip-path="url(#p0d1c357262)" style="fill: #648fff"/>
    <path d="M 730.395288 351.667081 
L 730.395288 351.667081 
L 746.083433 338.704766 
L 746.083433 338.704766 
z
" clip-path="url(#p0d1c357262)" style="fill: #648fff"/>
    <path d="M 967.532554 352.2088 
L 981.373132 339.238055 
L 981.373132 339.238055 
L 967.532554 352.2088 
z
" clip-path="url(#p0d1c357262)" style="fill: #324880"/>
    <path d="M 941.733208 344.695327 
L 967.532554 352.2088 
L 967.532554 352.2088 
L 941.733208 344.695327 
z
" clip-path="url(#p0d1c357262)" style="fill: #648fff"/>
    <path d="M 730.395288 351.667081 
L 746.083433 338.704766 
L 770.902638 346.163747 
L 755.339127 359.244222 
z
" clip-path="url(#p0d1c357262)" style="fill: #3f599f"/>
    <path d="M 730.395288 351.667081 
L 755.339127 359.244222 
L 770.902638 346.163747 
L 746.083433 338.704766 
z
" clip-path="url(#p0d1c357262)" style="fill: #577ddf"/>
    <path d="M 876.358643 342.693637 
L 876.390272 314.211875 
L 902.012717 321.621513 
L 901.829763 350.188879 
z
" clip-path="url(#p0d1c357262)" style="fill: #324880"/>
    <path d="M 755.339127 359.244222 
L 770.902638 346.163747 
L 770.902638 346.163747 
L 755.339127 359.244222 
z
" clip-path="url(#p0d1c357262)" style="fill: #324880"/>
    <path d="M 861.660162 355.719073 
L 876.358643 342.693637 
L 901.829763 350.188879 
L 887.265919 363.333341 
z
" clip-path="url(#p0d1c357262)" style="fill: #3f599f"/>
    <path d="M 861.660162 355.719073 
L 861.604509 327.088801 
L 876.390272 314.211875 
L 876.358643 342.693637 
z
" clip-path="url(#p0d1c357262)" style="fill: #648fff"/>
    <path d="M 730.395288 351.667081 
L 755.339127 359.244222 
L 755.339127 359.244222 
L 730.395288 351.667081 
z
" clip-path="url(#p0d1c357262)" style="fill: #648fff"/>
    <path d="M 887.265919 363.333341 
L 901.829763 350.188879 
L 902.012717 321.621513 
L 887.363201 334.616811 
z
" clip-path="url(#p0d1c357262)" style="fill: #324880"/>
    <path d="M 861.604509 327.088801 
L 887.363201 334.616811 
L 902.012717 321.621513 
L 876.390272 314.211875 
z
" clip-path="url(#p0d1c357262)" style="fill: #577ddf"/>
    <path d="M 780.511766 366.890864 
L 795.947705 353.690607 
L 821.221732 361.286277 
L 805.916368 374.607969 
z
" clip-path="url(#p0d1c357262)" style="fill: #3f599f"/>
    <path d="M 861.660162 355.719073 
L 887.265919 363.333341 
L 887.363201 334.616811 
L 861.604509 327.088801 
z
" clip-path="url(#p0d1c357262)" style="fill: #648fff"/>
    <path d="M 795.947705 353.690607 
L 795.09543 299.078003 
L 820.653829 306.507841 
L 821.221732 361.286277 
z
" clip-path="url(#p0d1c357262)" style="fill: #324880"/>
    <path d="M 780.511766 366.890864 
L 779.475961 311.99056 
L 795.09543 299.078003 
L 795.947705 353.690607 
z
" clip-path="url(#p0d1c357262)" style="fill: #648fff"/>
    <path d="M 805.916368 374.607969 
L 821.221732 361.286277 
L 820.653829 306.507841 
L 805.167875 319.54055 
z
" clip-path="url(#p0d1c357262)" style="fill: #324880"/>
    <path d="M 780.511766 366.890864 
L 805.916368 374.607969 
L 805.167875 319.54055 
L 779.475961 311.99056 
z
" clip-path="url(#p0d1c357262)" style="fill: #648fff"/>
    <path d="M 779.475961 311.99056 
L 805.167875 319.54055 
L 820.653829 306.507841 
L 795.09543 299.078003 
z
" clip-path="url(#p0d1c357262)" style="fill: #577ddf"/>
    <path d="M 883.554459 398.191937 
L 898.449405 384.495714 
L 924.671401 392.376279 
L 909.919727 406.200862 
z
" clip-path="url(#p0d1c357262)" style="fill: #3f599f"/>
    <path d="M 898.449405 384.495714 
L 898.937035 299.585398 
L 925.629467 307.204243 
L 924.671401 392.376279 
z
" clip-path="url(#p0d1c357262)" style="fill: #324880"/>
    <path d="M 883.554459 398.191937 
L 883.779269 312.827566 
L 898.937035 299.585398 
L 898.449405 384.495714 
z
" clip-path="url(#p0d1c357262)" style="fill: #648fff"/>
    <path d="M 909.919727 406.200862 
L 924.671401 392.376279 
L 925.629467 307.204243 
L 910.62019 320.572745 
z
" clip-path="url(#p0d1c357262)" style="fill: #324880"/>
    <path d="M 883.554459 398.191937 
L 909.919727 406.200862 
L 910.62019 320.572745 
L 883.779269 312.827566 
z
" clip-path="url(#p0d1c357262)" style="fill: #648fff"/>
    <path d="M 883.779269 312.827566 
L 910.62019 320.572745 
L 925.629467 307.204243 
L 898.937035 299.585398 
z
" clip-path="url(#p0d1c357262)" style="fill: #577ddf"/>
   </g>
   <g id="text_32">
    <!-- Imaginary Amplitude (ρ) -->
    <g transform="translate(735.696563 51.6) scale(0.21 -0.21)">
     <defs>
      <path id="DejaVuSans-49" d="M 628 4666 
L 1259 4666 
L 1259 0 
L 628 0 
L 628 4666 
z
" transform="scale(0.015625)"/>
      <path id="DejaVuSans-67" d="M 2906 1791 
Q 2906 2416 2648 2759 
Q 2391 3103 1925 3103 
Q 1463 3103 1205 2759 
Q 947 2416 947 1791 
Q 947 1169 1205 825 
Q 1463 481 1925 481 
Q 2391 481 2648 825 
Q 2906 1169 2906 1791 
z
M 3481 434 
Q 3481 -459 3084 -895 
Q 2688 -1331 1869 -1331 
Q 1566 -1331 1297 -1286 
Q 1028 -1241 775 -1147 
L 775 -588 
Q 1028 -725 1275 -790 
Q 1522 -856 1778 -856 
Q 2344 -856 2625 -561 
Q 2906 -266 2906 331 
L 2906 616 
Q 2728 306 2450 153 
Q 2172 0 1784 0 
Q 1141 0 747 490 
Q 353 981 353 1791 
Q 353 2603 747 3093 
Q 1141 3584 1784 3584 
Q 2172 3584 2450 3431 
Q 2728 3278 2906 2969 
L 2906 3500 
L 3481 3500 
L 3481 434 
z
" transform="scale(0.015625)"/>
      <path id="DejaVuSans-6e" d="M 3513 2113 
L 3513 0 
L 2938 0 
L 2938 2094 
Q 2938 2591 2744 2837 
Q 2550 3084 2163 3084 
Q 1697 3084 1428 2787 
Q 1159 2491 1159 1978 
L 1159 0 
L 581 0 
L 581 3500 
L 1159 3500 
L 1159 2956 
Q 1366 3272 1645 3428 
Q 1925 3584 2291 3584 
Q 2894 3584 3203 3211 
Q 3513 2838 3513 2113 
z
" transform="scale(0.015625)"/>
      <path id="DejaVuSans-72" d="M 2631 2963 
Q 2534 3019 2420 3045 
Q 2306 3072 2169 3072 
Q 1681 3072 1420 2755 
Q 1159 2438 1159 1844 
L 1159 0 
L 581 0 
L 581 3500 
L 1159 3500 
L 1159 2956 
Q 1341 3275 1631 3429 
Q 1922 3584 2338 3584 
Q 2397 3584 2469 3576 
Q 2541 3569 2628 3553 
L 2631 2963 
z
" transform="scale(0.015625)"/>
      <path id="DejaVuSans-79" d="M 2059 -325 
Q 1816 -950 1584 -1140 
Q 1353 -1331 966 -1331 
L 506 -1331 
L 506 -850 
L 844 -850 
Q 1081 -850 1212 -737 
Q 1344 -625 1503 -206 
L 1606 56 
L 191 3500 
L 800 3500 
L 1894 763 
L 2988 3500 
L 3597 3500 
L 2059 -325 
z
" transform="scale(0.015625)"/>
     </defs>
     <use xlink:href="#DejaVuSans-49"/>
     <use xlink:href="#DejaVuSans-6d" x="29.492188"/>
     <use xlink:href="#DejaVuSans-61" x="126.904297"/>
     <use xlink:href="#DejaVuSans-67" x="188.183594"/>
     <use xlink:href="#DejaVuSans-69" x="251.660156"/>
     <use xlink:href="#DejaVuSans-6e" x="279.443359"/>
     <use xlink:href="#DejaVuSans-61" x="342.822266"/>
     <use xlink:href="#DejaVuSans-72" x="404.101562"/>
     <use xlink:href="#DejaVuSans-79" x="445.214844"/>
     <use xlink:href="#DejaVuSans-20" x="504.394531"/>
     <use xlink:href="#DejaVuSans-41" x="536.181641"/>
     <use xlink:href="#DejaVuSans-6d" x="604.589844"/>
     <use xlink:href="#DejaVuSans-70" x="702.001953"/>
     <use xlink:href="#DejaVuSans-6c" x="765.478516"/>
     <use xlink:href="#DejaVuSans-69" x="793.261719"/>
     <use xlink:href="#DejaVuSans-74" x="821.044922"/>
     <use xlink:href="#DejaVuSans-75" x="860.253906"/>
     <use xlink:href="#DejaVuSans-64" x="923.632812"/>
     <use xlink:href="#DejaVuSans-65" x="987.109375"/>
     <use xlink:href="#DejaVuSans-20" x="1048.632812"/>
     <use xlink:href="#DejaVuSans-28" x="1080.419922"/>
     <use xlink:href="#DejaVuSans-3c1" x="1119.433594"/>
     <use xlink:href="#DejaVuSans-29" x="1182.910156"/>
    </g>
   </g>
  </g>
 </g>
 <defs>
  <clipPath id="p161ae0f42c">
   <rect x="28.8" y="57.6" width="518.4" height="518.4"/>
  </clipPath>
  <clipPath id="p0d1c357262">
   <rect x="604.8" y="57.6" width="518.4" height="518.4"/>
  </clipPath>
 </defs>
</svg>
