<?xml version="1.0" encoding="utf-8" standalone="no"?>
<!DOCTYPE svg PUBLIC "-//W3C//DTD SVG 1.1//EN"
  "http://www.w3.org/Graphics/SVG/1.1/DTD/svg11.dtd">
<svg xmlns:xlink="http://www.w3.org/1999/xlink" width="1152pt" height="576pt" viewBox="0 0 1152 576" xmlns="http://www.w3.org/2000/svg" version="1.1">
 <metadata>
  <rdf:RDF xmlns:dc="http://purl.org/dc/elements/1.1/" xmlns:cc="http://creativecommons.org/ns#" xmlns:rdf="http://www.w3.org/1999/02/22-rdf-syntax-ns#">
   <cc:Work>
    <dc:type rdf:resource="http://purl.org/dc/dcmitype/StillImage"/>
    <dc:date>2024-11-02T19:03:07.420204</dc:date>
    <dc:format>image/svg+xml</dc:format>
    <dc:creator>
     <cc:Agent>
      <dc:title>Matplotlib v3.9.2, https://matplotlib.org/</dc:title>
     </cc:Agent>
    </dc:creator>
   </cc:Work>
  </rdf:RDF>
 </metadata>
 <defs>
  <style type="text/css">*{stroke-linejoin: round; stroke-linecap: butt}</style>
 </defs>
 <g id="figure_1">
  <g id="patch_1">
   <path d="M 0 576 
L 1152 576 
L 1152 0 
L 0 0 
z
" style="fill: #ffffff"/>
  </g>
  <g id="patch_2">
   <path d="M 28.8 576 
L 547.2 576 
L 547.2 57.6 
L 28.8 57.6 
z
" style="fill: #ffffff"/>
  </g>
  <g id="pane3d_1">
   <g id="patch_3">
    <path d="M 130.07018 436.456468 
L 253.494133 330.550231 
L 251.743197 126.70673 
L 122.643358 223.613571 
" style="fill: #f2f2f2; opacity: 0.5; stroke: #f2f2f2; stroke-linejoin: miter"/>
   </g>
  </g>
  <g id="pane3d_2">
   <g id="patch_4">
    <path d="M 253.494133 330.550231 
L 455.554898 390.069341 
L 462.583588 181.103065 
L 251.743197 126.70673 
" style="fill: #e6e6e6; opacity: 0.5; stroke: #e6e6e6; stroke-linejoin: miter"/>
   </g>
  </g>
  <g id="pane3d_3">
   <g id="patch_5">
    <path d="M 130.07018 436.456468 
L 340.912731 504.076731 
L 455.554898 390.069341 
L 253.494133 330.550231 
" style="fill: #ececec; opacity: 0.5; stroke: #ececec; stroke-linejoin: miter"/>
   </g>
  </g>
  <g id="grid3d_1">
   <g id="Line3DCollection_1">
    <path d="M 158.635886 445.617904 
L 280.925726 338.630493 
L 280.328796 134.081748 
" style="fill: none; stroke: #b0b0b0; stroke-width: 0.8"/>
    <path d="M 208.310046 461.549127 
L 328.58611 352.669358 
L 330.022474 146.902603 
" style="fill: none; stroke: #b0b0b0; stroke-width: 0.8"/>
    <path d="M 258.89502 477.772462 
L 377.066152 366.949661 
L 380.607663 159.953465 
" style="fill: none; stroke: #b0b0b0; stroke-width: 0.8"/>
    <path d="M 310.41609 494.296016 
L 426.38718 381.477685 
L 432.108569 173.24058 
" style="fill: none; stroke: #b0b0b0; stroke-width: 0.8"/>
   </g>
  </g>
  <g id="grid3d_2">
   <g id="Line3DCollection_2">
    <path d="M 141.757365 209.265931 
L 148.301379 420.812846 
L 357.880707 487.202708 
" style="fill: none; stroke: #b0b0b0; stroke-width: 0.8"/>
    <path d="M 173.704273 185.285468 
L 178.805664 394.638072 
L 386.24502 458.995448 
" style="fill: none; stroke: #b0b0b0; stroke-width: 0.8"/>
    <path d="M 204.65707 162.051218 
L 208.400054 369.24405 
L 413.731787 431.660877 
" style="fill: none; stroke: #b0b0b0; stroke-width: 0.8"/>
    <path d="M 234.661448 139.528886 
L 237.124663 344.596362 
L 440.38111 405.159111 
" style="fill: none; stroke: #b0b0b0; stroke-width: 0.8"/>
   </g>
  </g>
  <g id="grid3d_3">
   <g id="Line3DCollection_3">
    <path d="M 455.835659 381.722188 
L 253.424089 322.395713 
L 129.773856 427.964226 
" style="fill: none; stroke: #b0b0b0; stroke-width: 0.8"/>
    <path d="M 456.854531 351.430627 
L 253.169973 292.81161 
L 128.698269 397.139322 
" style="fill: none; stroke: #b0b0b0; stroke-width: 0.8"/>
    <path d="M 457.886395 320.752819 
L 252.912732 262.863689 
L 127.608587 365.910475 
" style="fill: none; stroke: #b0b0b0; stroke-width: 0.8"/>
    <path d="M 458.931501 289.681331 
L 252.652308 232.545197 
L 126.504531 334.269692 
" style="fill: none; stroke: #b0b0b0; stroke-width: 0.8"/>
    <path d="M 459.990105 258.208535 
L 252.388641 201.849213 
L 125.385815 302.208768 
" style="fill: none; stroke: #b0b0b0; stroke-width: 0.8"/>
    <path d="M 461.06247 226.326606 
L 252.121671 170.768644 
L 124.252145 269.719279 
" style="fill: none; stroke: #b0b0b0; stroke-width: 0.8"/>
    <path d="M 462.148867 194.027515 
L 251.851336 139.296216 
L 123.103219 236.792574 
" style="fill: none; stroke: #b0b0b0; stroke-width: 0.8"/>
   </g>
  </g>
  <g id="axis3d_1">
   <g id="line2d_1">
    <path d="M 130.07018 436.456468 
L 340.912731 504.076731 
" style="fill: none; stroke: #000000; stroke-width: 0.8; stroke-linecap: square"/>
   </g>
   <g id="xtick_1">
    <g id="line2d_2">
     <path d="M 159.677227 444.706868 
L 156.549953 447.442819 
" style="fill: none; stroke: #000000; stroke-width: 0.8; stroke-linecap: square"/>
    </g>
    <g id="text_1">
     <!-- 00 -->
     <g transform="translate(131.351686 489.365693) rotate(-45) scale(0.21 -0.21)">
      <defs>
       <path id="DejaVuSans-30" d="M 2034 4250 
Q 1547 4250 1301 3770 
Q 1056 3291 1056 2328 
Q 1056 1369 1301 889 
Q 1547 409 2034 409 
Q 2525 409 2770 889 
Q 3016 1369 3016 2328 
Q 3016 3291 2770 3770 
Q 2525 4250 2034 4250 
z
M 2034 4750 
Q 2819 4750 3233 4129 
Q 3647 3509 3647 2328 
Q 3647 1150 3233 529 
Q 2819 -91 2034 -91 
Q 1250 -91 836 529 
Q 422 1150 422 2328 
Q 422 3509 836 4129 
Q 1250 4750 2034 4750 
z
" transform="scale(0.015625)"/>
      </defs>
      <use xlink:href="#DejaVuSans-30"/>
      <use xlink:href="#DejaVuSans-30" x="63.623047"/>
     </g>
    </g>
   </g>
   <g id="xtick_2">
    <g id="line2d_3">
     <path d="M 209.334802 460.621468 
L 206.257306 463.407368 
" style="fill: none; stroke: #000000; stroke-width: 0.8; stroke-linecap: square"/>
    </g>
    <g id="text_2">
     <!-- 01 -->
     <g transform="translate(181.023931 505.435143) rotate(-45) scale(0.21 -0.21)">
      <defs>
       <path id="DejaVuSans-31" d="M 794 531 
L 1825 531 
L 1825 4091 
L 703 3866 
L 703 4441 
L 1819 4666 
L 2450 4666 
L 2450 531 
L 3481 531 
L 3481 0 
L 794 0 
L 794 531 
z
" transform="scale(0.015625)"/>
      </defs>
      <use xlink:href="#DejaVuSans-30"/>
      <use xlink:href="#DejaVuSans-31" x="63.623047"/>
     </g>
    </g>
   </g>
   <g id="xtick_3">
    <g id="line2d_4">
     <path d="M 259.902405 476.82772 
L 256.877048 479.664949 
" style="fill: none; stroke: #000000; stroke-width: 0.8; stroke-linecap: square"/>
    </g>
    <g id="text_3">
     <!-- 10 -->
     <g transform="translate(231.60781 521.799516) rotate(-45) scale(0.21 -0.21)">
      <use xlink:href="#DejaVuSans-31"/>
      <use xlink:href="#DejaVuSans-30" x="63.623047"/>
     </g>
    </g>
   </g>
   <g id="xtick_4">
    <g id="line2d_5">
     <path d="M 311.405283 493.333715 
L 308.434531 496.223705 
" style="fill: none; stroke: #000000; stroke-width: 0.8; stroke-linecap: square"/>
    </g>
    <g id="text_4">
     <!-- 11 -->
     <g transform="translate(283.128654 538.467006) rotate(-45) scale(0.21 -0.21)">
      <use xlink:href="#DejaVuSans-31"/>
      <use xlink:href="#DejaVuSans-31" x="63.623047"/>
     </g>
    </g>
   </g>
  </g>
  <g id="axis3d_2">
   <g id="line2d_6">
    <path d="M 455.554898 390.069341 
L 340.912731 504.076731 
" style="fill: none; stroke: #000000; stroke-width: 0.8; stroke-linecap: square"/>
   </g>
   <g id="xtick_5">
    <g id="line2d_7">
     <path d="M 356.140222 486.651363 
L 361.364886 488.306415 
" style="fill: none; stroke: #000000; stroke-width: 0.8; stroke-linecap: square"/>
    </g>
    <g id="text_5">
     <!-- 00 -->
     <g transform="translate(368.70027 499.207917) rotate(-337.5) scale(0.21 -0.21)">
      <use xlink:href="#DejaVuSans-30"/>
      <use xlink:href="#DejaVuSans-30" x="63.623047"/>
     </g>
    </g>
   </g>
   <g id="xtick_6">
    <g id="line2d_8">
     <path d="M 384.5233 458.46129 
L 389.691587 460.064734 
" style="fill: none; stroke: #000000; stroke-width: 0.8; stroke-linecap: square"/>
    </g>
    <g id="text_6">
     <!-- 01 -->
     <g transform="translate(396.913817 470.822876) rotate(-337.5) scale(0.21 -0.21)">
      <use xlink:href="#DejaVuSans-30"/>
      <use xlink:href="#DejaVuSans-31" x="63.623047"/>
     </g>
    </g>
   </g>
   <g id="xtick_7">
    <g id="line2d_9">
     <path d="M 412.028511 431.143114 
L 417.141381 432.697327 
" style="fill: none; stroke: #000000; stroke-width: 0.8; stroke-linecap: square"/>
    </g>
    <g id="text_7">
     <!-- 10 -->
     <g transform="translate(424.254695 443.315808) rotate(-337.5) scale(0.21 -0.21)">
      <use xlink:href="#DejaVuSans-31"/>
      <use xlink:href="#DejaVuSans-30" x="63.623047"/>
     </g>
    </g>
   </g>
   <g id="xtick_8">
    <g id="line2d_10">
     <path d="M 438.695964 404.657001 
L 443.754368 406.164215 
" style="fill: none; stroke: #000000; stroke-width: 0.8; stroke-linecap: square"/>
    </g>
    <g id="text_8">
     <!-- 11 -->
     <g transform="translate(450.762776 416.646599) rotate(-337.5) scale(0.21 -0.21)">
      <use xlink:href="#DejaVuSans-31"/>
      <use xlink:href="#DejaVuSans-31" x="63.623047"/>
     </g>
    </g>
   </g>
  </g>
  <g id="axis3d_3">
   <g id="line2d_11">
    <path d="M 455.554898 390.069341 
L 462.583588 181.103065 
" style="fill: none; stroke: #000000; stroke-width: 0.8; stroke-linecap: square"/>
   </g>
   <g id="xtick_9">
    <g id="line2d_12">
     <path d="M 454.157933 381.23045 
L 459.194042 382.706524 
" style="fill: none; stroke: #000000; stroke-width: 0.8; stroke-linecap: square"/>
    </g>
    <g id="text_9">
     <!-- −0.2 -->
     <g transform="translate(469.338225 375.439912) scale(0.21 -0.21)">
      <defs>
       <path id="DejaVuSans-2212" d="M 678 2272 
L 4684 2272 
L 4684 1741 
L 678 1741 
L 678 2272 
z
" transform="scale(0.015625)"/>
       <path id="DejaVuSans-2e" d="M 684 794 
L 1344 794 
L 1344 0 
L 684 0 
L 684 794 
z
" transform="scale(0.015625)"/>
       <path id="DejaVuSans-32" d="M 1228 531 
L 3431 531 
L 3431 0 
L 469 0 
L 469 531 
Q 828 903 1448 1529 
Q 2069 2156 2228 2338 
Q 2531 2678 2651 2914 
Q 2772 3150 2772 3378 
Q 2772 3750 2511 3984 
Q 2250 4219 1831 4219 
Q 1534 4219 1204 4116 
Q 875 4013 500 3803 
L 500 4441 
Q 881 4594 1212 4672 
Q 1544 4750 1819 4750 
Q 2544 4750 2975 4387 
Q 3406 4025 3406 3419 
Q 3406 3131 3298 2873 
Q 3191 2616 2906 2266 
Q 2828 2175 2409 1742 
Q 1991 1309 1228 531 
z
" transform="scale(0.015625)"/>
      </defs>
      <use xlink:href="#DejaVuSans-2212"/>
      <use xlink:href="#DejaVuSans-30" x="83.789062"/>
      <use xlink:href="#DejaVuSans-2e" x="147.412109"/>
      <use xlink:href="#DejaVuSans-32" x="179.199219"/>
     </g>
    </g>
   </g>
   <g id="xtick_10">
    <g id="line2d_13">
     <path d="M 455.165882 350.944645 
L 460.234799 352.403445 
" style="fill: none; stroke: #000000; stroke-width: 0.8; stroke-linecap: square"/>
    </g>
    <g id="text_10">
     <!-- −0.1 -->
     <g transform="translate(470.441378 345.170779) scale(0.21 -0.21)">
      <use xlink:href="#DejaVuSans-2212"/>
      <use xlink:href="#DejaVuSans-30" x="83.789062"/>
      <use xlink:href="#DejaVuSans-2e" x="147.412109"/>
      <use xlink:href="#DejaVuSans-31" x="179.199219"/>
     </g>
    </g>
   </g>
   <g id="xtick_11">
    <g id="line2d_14">
     <path d="M 456.186679 320.272781 
L 461.288836 321.713744 
" style="fill: none; stroke: #000000; stroke-width: 0.8; stroke-linecap: square"/>
    </g>
    <g id="text_11">
     <!-- 0.0 -->
     <g transform="translate(471.558581 314.516128) scale(0.21 -0.21)">
      <use xlink:href="#DejaVuSans-30"/>
      <use xlink:href="#DejaVuSans-2e" x="63.623047"/>
      <use xlink:href="#DejaVuSans-30" x="95.410156"/>
     </g>
    </g>
   </g>
   <g id="xtick_12">
    <g id="line2d_15">
     <path d="M 457.220572 289.20743 
L 462.356406 290.629977 
" style="fill: none; stroke: #000000; stroke-width: 0.8; stroke-linecap: square"/>
    </g>
    <g id="text_12">
     <!-- 0.1 -->
     <g transform="translate(472.690104 283.468549) scale(0.21 -0.21)">
      <use xlink:href="#DejaVuSans-30"/>
      <use xlink:href="#DejaVuSans-2e" x="63.623047"/>
      <use xlink:href="#DejaVuSans-31" x="95.410156"/>
     </g>
    </g>
   </g>
   <g id="xtick_13">
    <g id="line2d_16">
     <path d="M 458.267815 257.74097 
L 463.437773 259.144503 
" style="fill: none; stroke: #000000; stroke-width: 0.8; stroke-linecap: square"/>
    </g>
    <g id="text_13">
     <!-- 0.2 -->
     <g transform="translate(473.836225 252.020436) scale(0.21 -0.21)">
      <use xlink:href="#DejaVuSans-30"/>
      <use xlink:href="#DejaVuSans-2e" x="63.623047"/>
      <use xlink:href="#DejaVuSans-32" x="95.410156"/>
     </g>
    </g>
   </g>
   <g id="xtick_14">
    <g id="line2d_17">
     <path d="M 459.328666 225.865583 
L 464.533206 227.249485 
" style="fill: none; stroke: #000000; stroke-width: 0.8; stroke-linecap: square"/>
    </g>
    <g id="text_14">
     <!-- 0.3 -->
     <g transform="translate(474.997227 220.16399) scale(0.21 -0.21)">
      <defs>
       <path id="DejaVuSans-33" d="M 2597 2516 
Q 3050 2419 3304 2112 
Q 3559 1806 3559 1356 
Q 3559 666 3084 287 
Q 2609 -91 1734 -91 
Q 1441 -91 1130 -33 
Q 819 25 488 141 
L 488 750 
Q 750 597 1062 519 
Q 1375 441 1716 441 
Q 2309 441 2620 675 
Q 2931 909 2931 1356 
Q 2931 1769 2642 2001 
Q 2353 2234 1838 2234 
L 1294 2234 
L 1294 2753 
L 1863 2753 
Q 2328 2753 2575 2939 
Q 2822 3125 2822 3475 
Q 2822 3834 2567 4026 
Q 2313 4219 1838 4219 
Q 1578 4219 1281 4162 
Q 984 4106 628 3988 
L 628 4550 
Q 988 4650 1302 4700 
Q 1616 4750 1894 4750 
Q 2613 4750 3031 4423 
Q 3450 4097 3450 3541 
Q 3450 3153 3228 2886 
Q 3006 2619 2597 2516 
z
" transform="scale(0.015625)"/>
      </defs>
      <use xlink:href="#DejaVuSans-30"/>
      <use xlink:href="#DejaVuSans-2e" x="63.623047"/>
      <use xlink:href="#DejaVuSans-33" x="95.410156"/>
     </g>
    </g>
   </g>
   <g id="xtick_15">
    <g id="line2d_18">
     <path d="M 460.403395 193.573244 
L 465.642981 194.936881 
" style="fill: none; stroke: #000000; stroke-width: 0.8; stroke-linecap: square"/>
    </g>
    <g id="text_15">
     <!-- 0.4 -->
     <g transform="translate(476.173402 187.891205) scale(0.21 -0.21)">
      <defs>
       <path id="DejaVuSans-34" d="M 2419 4116 
L 825 1625 
L 2419 1625 
L 2419 4116 
z
M 2253 4666 
L 3047 4666 
L 3047 1625 
L 3713 1625 
L 3713 1100 
L 3047 1100 
L 3047 0 
L 2419 0 
L 2419 1100 
L 313 1100 
L 313 1709 
L 2253 4666 
z
" transform="scale(0.015625)"/>
      </defs>
      <use xlink:href="#DejaVuSans-30"/>
      <use xlink:href="#DejaVuSans-2e" x="63.623047"/>
      <use xlink:href="#DejaVuSans-34" x="95.410156"/>
     </g>
    </g>
   </g>
  </g>
  <g id="axes_1">
   <g id="Poly3DCollection_1">
    <path d="M 230.595784 299.091947 
L 230.922243 323.746024 
L 255.078366 330.860785 
L 254.874074 306.135067 
z
" clip-path="url(#p3084cee93b)" style="fill: #648fff"/>
    <path d="M 342.601863 355.623175 
L 367.40992 362.925492 
L 380.958779 350.317843 
L 356.278325 343.125067 
z
" clip-path="url(#p3084cee93b)" style="fill: #577ddf"/>
    <path d="M 356.790184 302.858682 
L 356.278325 343.125067 
L 380.958779 350.317843 
L 381.679966 309.934928 
z
" clip-path="url(#p3084cee93b)" style="fill: #648fff"/>
    <path d="M 216.283705 336.10861 
L 240.55933 343.331823 
L 255.078366 330.860785 
L 230.922243 323.746024 
z
" clip-path="url(#p3084cee93b)" style="fill: #577ddf"/>
    <path d="M 215.879619 311.33025 
L 216.283705 336.10861 
L 230.922243 323.746024 
L 230.595784 299.091947 
z
" clip-path="url(#p3084cee93b)" style="fill: #324880"/>
    <path d="M 343.002507 315.15464 
L 342.601863 355.623175 
L 356.278325 343.125067 
L 356.790184 302.858682 
z
" clip-path="url(#p3084cee93b)" style="fill: #324880"/>
    <path d="M 240.278619 318.481284 
L 254.874074 306.135067 
L 255.078366 330.860785 
L 240.55933 343.331823 
z
" clip-path="url(#p3084cee93b)" style="fill: #648fff"/>
    <path d="M 215.879619 311.33025 
L 230.595784 299.091947 
L 254.874074 306.135067 
L 240.278619 318.481284 
z
" clip-path="url(#p3084cee93b)" style="fill: #3f599f"/>
    <path d="M 368.022084 322.339565 
L 381.679966 309.934928 
L 380.958779 350.317843 
L 367.40992 362.925492 
z
" clip-path="url(#p3084cee93b)" style="fill: #648fff"/>
    <path d="M 187.342974 406.120684 
L 211.635283 413.696335 
L 226.459863 400.617052 
L 202.286551 393.155814 
z
" clip-path="url(#p3084cee93b)" style="fill: #577ddf"/>
    <path d="M 215.879619 311.33025 
L 240.278619 318.481284 
L 240.55933 343.331823 
L 216.283705 336.10861 
z
" clip-path="url(#p3084cee93b)" style="fill: #324880"/>
    <path d="M 343.002507 315.15464 
L 368.022084 322.339565 
L 367.40992 362.925492 
L 342.601863 355.623175 
z
" clip-path="url(#p3084cee93b)" style="fill: #324880"/>
    <path d="M 343.002507 315.15464 
L 356.790184 302.858682 
L 381.679966 309.934928 
L 368.022084 322.339565 
z
" clip-path="url(#p3084cee93b)" style="fill: #3f599f"/>
    <path d="M 200.937606 323.756374 
L 202.286551 393.155814 
L 226.459863 400.617052 
L 225.458172 331.017821 
z
" clip-path="url(#p3084cee93b)" style="fill: #648fff"/>
    <path d="M 279.366096 313.24019 
L 279.388288 320.122419 
L 304.061759 327.310536 
L 304.074685 320.408139 
z
" clip-path="url(#p3084cee93b)" style="fill: #648fff"/>
    <path d="M 185.764506 336.374674 
L 187.342974 406.120684 
L 202.286551 393.155814 
L 200.937606 323.756374 
z
" clip-path="url(#p3084cee93b)" style="fill: #324880"/>
    <path d="M 264.894064 325.695755 
L 264.93712 332.612972 
L 279.388288 320.122419 
L 279.366096 313.24019 
z
" clip-path="url(#p3084cee93b)" style="fill: #324880"/>
    <path d="M 264.93712 332.612972 
L 289.736426 339.912048 
L 304.061759 327.310536 
L 279.388288 320.122419 
z
" clip-path="url(#p3084cee93b)" style="fill: #577ddf"/>
    <path d="M 264.894064 325.695755 
L 279.366096 313.24019 
L 304.074685 320.408139 
L 289.728848 332.974511 
z
" clip-path="url(#p3084cee93b)" style="fill: #3f599f"/>
    <path d="M 210.40749 343.749112 
L 225.458172 331.017821 
L 226.459863 400.617052 
L 211.635283 413.696335 
z
" clip-path="url(#p3084cee93b)" style="fill: #648fff"/>
    <path d="M 289.728848 332.974511 
L 304.074685 320.408139 
L 304.061759 327.310536 
L 289.736426 339.912048 
z
" clip-path="url(#p3084cee93b)" style="fill: #648fff"/>
    <path d="M 185.764506 336.374674 
L 210.40749 343.749112 
L 211.635283 413.696335 
L 187.342974 406.120684 
z
" clip-path="url(#p3084cee93b)" style="fill: #324880"/>
    <path d="M 264.894064 325.695755 
L 289.728848 332.974511 
L 289.736426 339.912048 
L 264.93712 332.612972 
z
" clip-path="url(#p3084cee93b)" style="fill: #324880"/>
    <path d="M 185.764506 336.374674 
L 200.937606 323.756374 
L 225.458172 331.017821 
L 210.40749 343.749112 
z
" clip-path="url(#p3084cee93b)" style="fill: #3f599f"/>
    <path d="M 364.975437 396.321227 
L 390.49372 403.986009 
L 404.194525 390.753585 
L 378.811732 383.206567 
z
" clip-path="url(#p3084cee93b)" style="fill: #577ddf"/>
    <path d="M 379.528969 342.297388 
L 378.811732 383.206567 
L 404.194525 390.753585 
L 405.133201 349.725163 
z
" clip-path="url(#p3084cee93b)" style="fill: #648fff"/>
    <path d="M 365.578943 355.2052 
L 364.975437 396.321227 
L 378.811732 383.206567 
L 379.528969 342.297388 
z
" clip-path="url(#p3084cee93b)" style="fill: #324880"/>
    <path d="M 391.321063 362.749884 
L 405.133201 349.725163 
L 404.194525 390.753585 
L 390.49372 403.986009 
z
" clip-path="url(#p3084cee93b)" style="fill: #648fff"/>
    <path d="M 206.048618 448.347906 
L 231.02678 456.302263 
L 246.064427 442.570234 
L 221.212532 434.738939 
z
" clip-path="url(#p3084cee93b)" style="fill: #577ddf"/>
    <path d="M 365.578943 355.2052 
L 391.321063 362.749884 
L 390.49372 403.986009 
L 364.975437 396.321227 
z
" clip-path="url(#p3084cee93b)" style="fill: #324880"/>
    <path d="M 365.578943 355.2052 
L 379.528969 342.297388 
L 405.133201 349.725163 
L 391.321063 362.749884 
z
" clip-path="url(#p3084cee93b)" style="fill: #3f599f"/>
    <path d="M 220.112304 364.23783 
L 221.212532 434.738939 
L 246.064427 442.570234 
L 245.331404 371.864871 
z
" clip-path="url(#p3084cee93b)" style="fill: #648fff"/>
    <path d="M 300.346981 353.195168 
L 300.339215 360.188667 
L 325.717389 367.735732 
L 325.762309 360.721587 
z
" clip-path="url(#p3084cee93b)" style="fill: #648fff"/>
    <path d="M 204.711788 377.492508 
L 206.048618 448.347906 
L 221.212532 434.738939 
L 220.112304 364.23783 
z
" clip-path="url(#p3084cee93b)" style="fill: #324880"/>
    <path d="M 285.680681 366.274689 
L 285.694345 373.304003 
L 300.339215 360.188667 
L 300.346981 353.195168 
z
" clip-path="url(#p3084cee93b)" style="fill: #324880"/>
    <path d="M 285.694345 373.304003 
L 311.206171 380.970475 
L 325.717389 367.735732 
L 300.339215 360.188667 
z
" clip-path="url(#p3084cee93b)" style="fill: #577ddf"/>
    <path d="M 285.680681 366.274689 
L 300.346981 353.195168 
L 325.762309 360.721587 
L 311.230054 373.920364 
z
" clip-path="url(#p3084cee93b)" style="fill: #3f599f"/>
    <path d="M 230.060898 385.241215 
L 245.331404 371.864871 
L 246.064427 442.570234 
L 231.02678 456.302263 
z
" clip-path="url(#p3084cee93b)" style="fill: #648fff"/>
    <path d="M 311.230054 373.920364 
L 325.762309 360.721587 
L 325.717389 367.735732 
L 311.206171 380.970475 
z
" clip-path="url(#p3084cee93b)" style="fill: #648fff"/>
    <path d="M 204.711788 377.492508 
L 230.060898 385.241215 
L 231.02678 456.302263 
L 206.048618 448.347906 
z
" clip-path="url(#p3084cee93b)" style="fill: #324880"/>
    <path d="M 285.680681 366.274689 
L 311.230054 373.920364 
L 311.206171 380.970475 
L 285.694345 373.304003 
z
" clip-path="url(#p3084cee93b)" style="fill: #324880"/>
    <path d="M 204.711788 377.492508 
L 220.112304 364.23783 
L 245.331404 371.864871 
L 230.060898 385.241215 
z
" clip-path="url(#p3084cee93b)" style="fill: #3f599f"/>
    <path d="M 270.781601 379.561804 
L 270.910494 405.015585 
L 296.458278 412.858387 
L 296.466086 387.329593 
z
" clip-path="url(#p3084cee93b)" style="fill: #648fff"/>
    <path d="M 255.855259 418.645397 
L 281.537773 426.613787 
L 296.458278 412.858387 
L 270.910494 405.015585 
z
" clip-path="url(#p3084cee93b)" style="fill: #577ddf"/>
    <path d="M 255.644154 393.061496 
L 255.855259 418.645397 
L 270.910494 405.015585 
L 270.781601 379.561804 
z
" clip-path="url(#p3084cee93b)" style="fill: #324880"/>
    <path d="M 281.464816 400.954347 
L 296.466086 387.329593 
L 296.458278 412.858387 
L 281.537773 426.613787 
z
" clip-path="url(#p3084cee93b)" style="fill: #648fff"/>
    <path d="M 255.644154 393.061496 
L 270.781601 379.561804 
L 296.466086 387.329593 
L 281.464816 400.954347 
z
" clip-path="url(#p3084cee93b)" style="fill: #3f599f"/>
    <path d="M 255.644154 393.061496 
L 281.464816 400.954347 
L 281.537773 426.613787 
L 255.855259 418.645397 
z
" clip-path="url(#p3084cee93b)" style="fill: #324880"/>
   </g>
   <g id="Poly3DCollection_2">
    <path d="M 134.393518 364.982797 
L 339.664018 428.068622 
L 451.455566 321.632082 
L 254.517811 265.920324 
z
" clip-path="url(#p3084cee93b)" style="fill-opacity: 0.25"/>
   </g>
   <g id="Poly3DCollection_3">
    <path d="M 245.091183 287.037238 
L 259.370748 275.162021 
L 283.410195 281.996514 
L 269.249621 293.974867 
z
" clip-path="url(#p3084cee93b)" style="fill: #3f599f"/>
    <path d="M 259.370748 275.162021 
L 258.97378 220.708652 
L 283.280461 227.381913 
L 283.410195 281.996514 
z
" clip-path="url(#p3084cee93b)" style="fill: #324880"/>
    <path d="M 245.091183 287.037238 
L 244.530924 232.304133 
L 258.97378 220.708652 
L 259.370748 275.162021 
z
" clip-path="url(#p3084cee93b)" style="fill: #648fff"/>
    <path d="M 307.658093 288.89027 
L 307.697092 273.866219 
L 332.232053 280.775915 
L 332.117166 295.844063 
z
" clip-path="url(#p3084cee93b)" style="fill: #324880"/>
    <path d="M 269.249621 293.974867 
L 283.410195 281.996514 
L 283.280461 227.381913 
L 268.959256 239.079235 
z
" clip-path="url(#p3084cee93b)" style="fill: #324880"/>
    <path d="M 293.619128 300.97311 
L 293.614822 285.872555 
L 307.697092 273.866219 
L 307.658093 288.89027 
z
" clip-path="url(#p3084cee93b)" style="fill: #648fff"/>
    <path d="M 293.619128 300.97311 
L 307.658093 288.89027 
L 332.117166 295.844063 
L 318.20248 308.032764 
z
" clip-path="url(#p3084cee93b)" style="fill: #3f599f"/>
    <path d="M 245.091183 287.037238 
L 269.249621 293.974867 
L 268.959256 239.079235 
L 244.530924 232.304133 
z
" clip-path="url(#p3084cee93b)" style="fill: #648fff"/>
    <path d="M 244.530924 232.304133 
L 268.959256 239.079235 
L 283.280461 227.381913 
L 258.97378 220.708652 
z
" clip-path="url(#p3084cee93b)" style="fill: #577ddf"/>
    <path d="M 293.614822 285.872555 
L 318.274839 292.887768 
L 332.232053 280.775915 
L 307.697092 273.866219 
z
" clip-path="url(#p3084cee93b)" style="fill: #577ddf"/>
    <path d="M 318.20248 308.032764 
L 332.117166 295.844063 
L 332.232053 280.775915 
L 318.274839 292.887768 
z
" clip-path="url(#p3084cee93b)" style="fill: #324880"/>
    <path d="M 293.619128 300.97311 
L 318.20248 308.032764 
L 318.274839 292.887768 
L 293.614822 285.872555 
z
" clip-path="url(#p3084cee93b)" style="fill: #648fff"/>
    <path d="M 393.26414 329.58838 
L 406.789383 317.073616 
L 432.121353 324.275578 
L 418.731657 336.90194 
z
" clip-path="url(#p3084cee93b)" style="fill: #3f599f"/>
    <path d="M 329.002728 327.639751 
L 329.134594 308.883539 
L 354.383605 316.124103 
L 354.153159 334.935879 
z
" clip-path="url(#p3084cee93b)" style="fill: #324880"/>
    <path d="M 406.789383 317.073616 
L 408.896499 225.72308 
L 434.717646 232.648908 
L 432.121353 324.275578 
z
" clip-path="url(#p3084cee93b)" style="fill: #324880"/>
    <path d="M 314.785915 340.318415 
L 314.863235 321.465809 
L 329.134594 308.883539 
L 329.002728 327.639751 
z
" clip-path="url(#p3084cee93b)" style="fill: #648fff"/>
    <path d="M 314.785915 340.318415 
L 329.002728 327.639751 
L 354.153159 334.935879 
L 340.068262 347.728347 
z
" clip-path="url(#p3084cee93b)" style="fill: #3f599f"/>
    <path d="M 393.26414 329.58838 
L 395.130842 237.758752 
L 408.896499 225.72308 
L 406.789383 317.073616 
z
" clip-path="url(#p3084cee93b)" style="fill: #648fff"/>
    <path d="M 314.863235 321.465809 
L 340.245205 328.819754 
L 354.383605 316.124103 
L 329.134594 308.883539 
z
" clip-path="url(#p3084cee93b)" style="fill: #577ddf"/>
    <path d="M 340.068262 347.728347 
L 354.153159 334.935879 
L 354.383605 316.124103 
L 340.245205 328.819754 
z
" clip-path="url(#p3084cee93b)" style="fill: #324880"/>
    <path d="M 418.731657 336.90194 
L 432.121353 324.275578 
L 434.717646 232.648908 
L 421.092883 244.793953 
z
" clip-path="url(#p3084cee93b)" style="fill: #324880"/>
    <path d="M 314.785915 340.318415 
L 340.068262 347.728347 
L 340.245205 328.819754 
L 314.863235 321.465809 
z
" clip-path="url(#p3084cee93b)" style="fill: #648fff"/>
    <path d="M 235.272496 351.189989 
L 250.197946 338.344183 
L 275.15988 345.736336 
L 260.362536 358.698209 
z
" clip-path="url(#p3084cee93b)" style="fill: #3f599f"/>
    <path d="M 393.26414 329.58838 
L 418.731657 336.90194 
L 421.092883 244.793953 
L 395.130842 237.758752 
z
" clip-path="url(#p3084cee93b)" style="fill: #648fff"/>
    <path d="M 250.197946 338.344183 
L 249.585765 272.423641 
L 274.887507 279.617206 
L 275.15988 345.736336 
z
" clip-path="url(#p3084cee93b)" style="fill: #324880"/>
    <path d="M 235.272496 351.189989 
L 234.449942 284.924916 
L 249.585765 272.423641 
L 250.197946 338.344183 
z
" clip-path="url(#p3084cee93b)" style="fill: #648fff"/>
    <path d="M 395.130842 237.758752 
L 421.092883 244.793953 
L 434.717646 232.648908 
L 408.896499 225.72308 
z
" clip-path="url(#p3084cee93b)" style="fill: #577ddf"/>
    <path d="M 154.703265 362.20592 
L 170.354916 349.189645 
L 195.121167 356.679731 
L 179.593624 369.814397 
z
" clip-path="url(#p3084cee93b)" style="fill: #3f599f"/>
    <path d="M 260.362536 358.698209 
L 275.15988 345.736336 
L 274.887507 279.617206 
L 259.883297 292.232995 
z
" clip-path="url(#p3084cee93b)" style="fill: #324880"/>
    <path d="M 235.272496 351.189989 
L 260.362536 358.698209 
L 259.883297 292.232995 
L 234.449942 284.924916 
z
" clip-path="url(#p3084cee93b)" style="fill: #648fff"/>
    <path d="M 234.449942 284.924916 
L 259.883297 292.232995 
L 274.887507 279.617206 
L 249.585765 272.423641 
z
" clip-path="url(#p3084cee93b)" style="fill: #577ddf"/>
    <path d="M 351.40898 368.316516 
L 351.591504 352.799822 
L 377.557665 360.417942 
L 377.290167 375.980893 
z
" clip-path="url(#p3084cee93b)" style="fill: #324880"/>
    <path d="M 170.354916 349.189645 
L 166.695621 207.86499 
L 192.175277 214.918404 
L 195.121167 356.679731 
z
" clip-path="url(#p3084cee93b)" style="fill: #324880"/>
    <path d="M 337.013839 381.636187 
L 337.150864 366.039248 
L 351.591504 352.799822 
L 351.40898 368.316516 
z
" clip-path="url(#p3084cee93b)" style="fill: #648fff"/>
    <path d="M 337.013839 381.636187 
L 351.40898 368.316516 
L 377.290167 375.980893 
L 363.035276 389.423128 
z
" clip-path="url(#p3084cee93b)" style="fill: #3f599f"/>
    <path d="M 154.703265 362.20592 
L 150.551185 220.123617 
L 166.695621 207.86499 
L 170.354916 349.189645 
z
" clip-path="url(#p3084cee93b)" style="fill: #648fff"/>
    <path d="M 337.150864 366.039248 
L 363.258204 373.779591 
L 377.557665 360.417942 
L 351.591504 352.799822 
z
" clip-path="url(#p3084cee93b)" style="fill: #577ddf"/>
    <path d="M 363.035276 389.423128 
L 377.290167 375.980893 
L 377.557665 360.417942 
L 363.258204 373.779591 
z
" clip-path="url(#p3084cee93b)" style="fill: #324880"/>
    <path d="M 179.593624 369.814397 
L 195.121167 356.679731 
L 192.175277 214.918404 
L 176.162124 227.29184 
z
" clip-path="url(#p3084cee93b)" style="fill: #324880"/>
    <path d="M 337.013839 381.636187 
L 363.035276 389.423128 
L 363.258204 373.779591 
L 337.150864 366.039248 
z
" clip-path="url(#p3084cee93b)" style="fill: #648fff"/>
    <path d="M 154.703265 362.20592 
L 179.593624 369.814397 
L 176.162124 227.29184 
L 150.551185 220.123617 
z
" clip-path="url(#p3084cee93b)" style="fill: #648fff"/>
    <path d="M 307.526204 408.920783 
L 322.388109 395.16922 
L 348.55098 403.081688 
L 333.831699 416.961838 
z
" clip-path="url(#p3084cee93b)" style="fill: #3f599f"/>
    <path d="M 150.551185 220.123617 
L 176.162124 227.29184 
L 192.175277 214.918404 
L 166.695621 207.86499 
z
" clip-path="url(#p3084cee93b)" style="fill: #577ddf"/>
    <path d="M 322.388109 395.16922 
L 322.71655 337.97817 
L 349.196252 345.717099 
L 348.55098 403.081688 
z
" clip-path="url(#p3084cee93b)" style="fill: #324880"/>
    <path d="M 307.526204 408.920783 
L 307.677612 351.428683 
L 322.71655 337.97817 
L 322.388109 395.16922 
z
" clip-path="url(#p3084cee93b)" style="fill: #648fff"/>
    <path d="M 333.831699 416.961838 
L 348.55098 403.081688 
L 349.196252 345.717099 
L 334.303432 359.29491 
z
" clip-path="url(#p3084cee93b)" style="fill: #324880"/>
    <path d="M 307.526204 408.920783 
L 333.831699 416.961838 
L 334.303432 359.29491 
L 307.677612 351.428683 
z
" clip-path="url(#p3084cee93b)" style="fill: #648fff"/>
    <path d="M 307.677612 351.428683 
L 334.303432 359.29491 
L 349.196252 345.717099 
L 322.71655 337.97817 
z
" clip-path="url(#p3084cee93b)" style="fill: #577ddf"/>
   </g>
   <g id="text_16">
    <!-- Real Amplitude (ρ) -->
    <g transform="translate(190.023516 51.6) scale(0.21 -0.21)">
     <defs>
      <path id="DejaVuSans-52" d="M 2841 2188 
Q 3044 2119 3236 1894 
Q 3428 1669 3622 1275 
L 4263 0 
L 3584 0 
L 2988 1197 
Q 2756 1666 2539 1819 
Q 2322 1972 1947 1972 
L 1259 1972 
L 1259 0 
L 628 0 
L 628 4666 
L 2053 4666 
Q 2853 4666 3247 4331 
Q 3641 3997 3641 3322 
Q 3641 2881 3436 2590 
Q 3231 2300 2841 2188 
z
M 1259 4147 
L 1259 2491 
L 2053 2491 
Q 2509 2491 2742 2702 
Q 2975 2913 2975 3322 
Q 2975 3731 2742 3939 
Q 2509 4147 2053 4147 
L 1259 4147 
z
" transform="scale(0.015625)"/>
      <path id="DejaVuSans-65" d="M 3597 1894 
L 3597 1613 
L 953 1613 
Q 991 1019 1311 708 
Q 1631 397 2203 397 
Q 2534 397 2845 478 
Q 3156 559 3463 722 
L 3463 178 
Q 3153 47 2828 -22 
Q 2503 -91 2169 -91 
Q 1331 -91 842 396 
Q 353 884 353 1716 
Q 353 2575 817 3079 
Q 1281 3584 2069 3584 
Q 2775 3584 3186 3129 
Q 3597 2675 3597 1894 
z
M 3022 2063 
Q 3016 2534 2758 2815 
Q 2500 3097 2075 3097 
Q 1594 3097 1305 2825 
Q 1016 2553 972 2059 
L 3022 2063 
z
" transform="scale(0.015625)"/>
      <path id="DejaVuSans-61" d="M 2194 1759 
Q 1497 1759 1228 1600 
Q 959 1441 959 1056 
Q 959 750 1161 570 
Q 1363 391 1709 391 
Q 2188 391 2477 730 
Q 2766 1069 2766 1631 
L 2766 1759 
L 2194 1759 
z
M 3341 1997 
L 3341 0 
L 2766 0 
L 2766 531 
Q 2569 213 2275 61 
Q 1981 -91 1556 -91 
Q 1019 -91 701 211 
Q 384 513 384 1019 
Q 384 1609 779 1909 
Q 1175 2209 1959 2209 
L 2766 2209 
L 2766 2266 
Q 2766 2663 2505 2880 
Q 2244 3097 1772 3097 
Q 1472 3097 1187 3025 
Q 903 2953 641 2809 
L 641 3341 
Q 956 3463 1253 3523 
Q 1550 3584 1831 3584 
Q 2591 3584 2966 3190 
Q 3341 2797 3341 1997 
z
" transform="scale(0.015625)"/>
      <path id="DejaVuSans-6c" d="M 603 4863 
L 1178 4863 
L 1178 0 
L 603 0 
L 603 4863 
z
" transform="scale(0.015625)"/>
      <path id="DejaVuSans-20" transform="scale(0.015625)"/>
      <path id="DejaVuSans-41" d="M 2188 4044 
L 1331 1722 
L 3047 1722 
L 2188 4044 
z
M 1831 4666 
L 2547 4666 
L 4325 0 
L 3669 0 
L 3244 1197 
L 1141 1197 
L 716 0 
L 50 0 
L 1831 4666 
z
" transform="scale(0.015625)"/>
      <path id="DejaVuSans-6d" d="M 3328 2828 
Q 3544 3216 3844 3400 
Q 4144 3584 4550 3584 
Q 5097 3584 5394 3201 
Q 5691 2819 5691 2113 
L 5691 0 
L 5113 0 
L 5113 2094 
Q 5113 2597 4934 2840 
Q 4756 3084 4391 3084 
Q 3944 3084 3684 2787 
Q 3425 2491 3425 1978 
L 3425 0 
L 2847 0 
L 2847 2094 
Q 2847 2600 2669 2842 
Q 2491 3084 2119 3084 
Q 1678 3084 1418 2786 
Q 1159 2488 1159 1978 
L 1159 0 
L 581 0 
L 581 3500 
L 1159 3500 
L 1159 2956 
Q 1356 3278 1631 3431 
Q 1906 3584 2284 3584 
Q 2666 3584 2933 3390 
Q 3200 3197 3328 2828 
z
" transform="scale(0.015625)"/>
      <path id="DejaVuSans-70" d="M 1159 525 
L 1159 -1331 
L 581 -1331 
L 581 3500 
L 1159 3500 
L 1159 2969 
Q 1341 3281 1617 3432 
Q 1894 3584 2278 3584 
Q 2916 3584 3314 3078 
Q 3713 2572 3713 1747 
Q 3713 922 3314 415 
Q 2916 -91 2278 -91 
Q 1894 -91 1617 61 
Q 1341 213 1159 525 
z
M 3116 1747 
Q 3116 2381 2855 2742 
Q 2594 3103 2138 3103 
Q 1681 3103 1420 2742 
Q 1159 2381 1159 1747 
Q 1159 1113 1420 752 
Q 1681 391 2138 391 
Q 2594 391 2855 752 
Q 3116 1113 3116 1747 
z
" transform="scale(0.015625)"/>
      <path id="DejaVuSans-69" d="M 603 3500 
L 1178 3500 
L 1178 0 
L 603 0 
L 603 3500 
z
M 603 4863 
L 1178 4863 
L 1178 4134 
L 603 4134 
L 603 4863 
z
" transform="scale(0.015625)"/>
      <path id="DejaVuSans-74" d="M 1172 4494 
L 1172 3500 
L 2356 3500 
L 2356 3053 
L 1172 3053 
L 1172 1153 
Q 1172 725 1289 603 
Q 1406 481 1766 481 
L 2356 481 
L 2356 0 
L 1766 0 
Q 1100 0 847 248 
Q 594 497 594 1153 
L 594 3053 
L 172 3053 
L 172 3500 
L 594 3500 
L 594 4494 
L 1172 4494 
z
" transform="scale(0.015625)"/>
      <path id="DejaVuSans-75" d="M 544 1381 
L 544 3500 
L 1119 3500 
L 1119 1403 
Q 1119 906 1312 657 
Q 1506 409 1894 409 
Q 2359 409 2629 706 
Q 2900 1003 2900 1516 
L 2900 3500 
L 3475 3500 
L 3475 0 
L 2900 0 
L 2900 538 
Q 2691 219 2414 64 
Q 2138 -91 1772 -91 
Q 1169 -91 856 284 
Q 544 659 544 1381 
z
M 1991 3584 
L 1991 3584 
z
" transform="scale(0.015625)"/>
      <path id="DejaVuSans-64" d="M 2906 2969 
L 2906 4863 
L 3481 4863 
L 3481 0 
L 2906 0 
L 2906 525 
Q 2725 213 2448 61 
Q 2172 -91 1784 -91 
Q 1150 -91 751 415 
Q 353 922 353 1747 
Q 353 2572 751 3078 
Q 1150 3584 1784 3584 
Q 2172 3584 2448 3432 
Q 2725 3281 2906 2969 
z
M 947 1747 
Q 947 1113 1208 752 
Q 1469 391 1925 391 
Q 2381 391 2643 752 
Q 2906 1113 2906 1747 
Q 2906 2381 2643 2742 
Q 2381 3103 1925 3103 
Q 1469 3103 1208 2742 
Q 947 2381 947 1747 
z
" transform="scale(0.015625)"/>
      <path id="DejaVuSans-28" d="M 1984 4856 
Q 1566 4138 1362 3434 
Q 1159 2731 1159 2009 
Q 1159 1288 1364 580 
Q 1569 -128 1984 -844 
L 1484 -844 
Q 1016 -109 783 600 
Q 550 1309 550 2009 
Q 550 2706 781 3412 
Q 1013 4119 1484 4856 
L 1984 4856 
z
" transform="scale(0.015625)"/>
      <path id="DejaVuSans-3c1" d="M 863 2875 
Q 1053 3194 1525 3475 
Q 1709 3584 2278 3584 
Q 2916 3584 3314 3078 
Q 3713 2572 3713 1747 
Q 3713 922 3314 415 
Q 2916 -91 2278 -91 
Q 1894 -91 1617 61 
Q 1341 213 1159 525 
L 1159 -1331 
L 581 -1331 
L 581 1716 
Q 581 2438 863 2875 
z
M 3116 1747 
Q 3116 2381 2855 2742 
Q 2594 3103 2138 3103 
Q 1681 3103 1420 2742 
Q 1159 2381 1159 1747 
Q 1159 1113 1420 752 
Q 1681 391 2138 391 
Q 2594 391 2855 752 
Q 3116 1113 3116 1747 
z
" transform="scale(0.015625)"/>
      <path id="DejaVuSans-29" d="M 513 4856 
L 1013 4856 
Q 1481 4119 1714 3412 
Q 1947 2706 1947 2009 
Q 1947 1309 1714 600 
Q 1481 -109 1013 -844 
L 513 -844 
Q 928 -128 1133 580 
Q 1338 1288 1338 2009 
Q 1338 2731 1133 3434 
Q 928 4138 513 4856 
z
" transform="scale(0.015625)"/>
     </defs>
     <use xlink:href="#DejaVuSans-52"/>
     <use xlink:href="#DejaVuSans-65" x="64.982422"/>
     <use xlink:href="#DejaVuSans-61" x="126.505859"/>
     <use xlink:href="#DejaVuSans-6c" x="187.785156"/>
     <use xlink:href="#DejaVuSans-20" x="215.568359"/>
     <use xlink:href="#DejaVuSans-41" x="247.355469"/>
     <use xlink:href="#DejaVuSans-6d" x="315.763672"/>
     <use xlink:href="#DejaVuSans-70" x="413.175781"/>
     <use xlink:href="#DejaVuSans-6c" x="476.652344"/>
     <use xlink:href="#DejaVuSans-69" x="504.435547"/>
     <use xlink:href="#DejaVuSans-74" x="532.21875"/>
     <use xlink:href="#DejaVuSans-75" x="571.427734"/>
     <use xlink:href="#DejaVuSans-64" x="634.806641"/>
     <use xlink:href="#DejaVuSans-65" x="698.283203"/>
     <use xlink:href="#DejaVuSans-20" x="759.806641"/>
     <use xlink:href="#DejaVuSans-28" x="791.59375"/>
     <use xlink:href="#DejaVuSans-3c1" x="830.607422"/>
     <use xlink:href="#DejaVuSans-29" x="894.083984"/>
    </g>
   </g>
  </g>
  <g id="patch_6">
   <path d="M 604.8 576 
L 1123.2 576 
L 1123.2 57.6 
L 604.8 57.6 
z
" style="fill: #ffffff"/>
  </g>
  <g id="pane3d_4">
   <g id="patch_7">
    <path d="M 706.07018 436.456468 
L 829.494133 330.550231 
L 827.743197 126.70673 
L 698.643358 223.613571 
" style="fill: #f2f2f2; opacity: 0.5; stroke: #f2f2f2; stroke-linejoin: miter"/>
   </g>
  </g>
  <g id="pane3d_5">
   <g id="patch_8">
    <path d="M 829.494133 330.550231 
L 1031.554898 390.069341 
L 1038.583588 181.103065 
L 827.743197 126.70673 
" style="fill: #e6e6e6; opacity: 0.5; stroke: #e6e6e6; stroke-linejoin: miter"/>
   </g>
  </g>
  <g id="pane3d_6">
   <g id="patch_9">
    <path d="M 706.07018 436.456468 
L 916.912731 504.076731 
L 1031.554898 390.069341 
L 829.494133 330.550231 
" style="fill: #ececec; opacity: 0.5; stroke: #ececec; stroke-linejoin: miter"/>
   </g>
  </g>
  <g id="grid3d_4">
   <g id="Line3DCollection_4">
    <path d="M 734.635886 445.617904 
L 856.925726 338.630493 
L 856.328796 134.081748 
" style="fill: none; stroke: #b0b0b0; stroke-width: 0.8"/>
    <path d="M 784.310046 461.549127 
L 904.58611 352.669358 
L 906.022474 146.902603 
" style="fill: none; stroke: #b0b0b0; stroke-width: 0.8"/>
    <path d="M 834.89502 477.772462 
L 953.066152 366.949661 
L 956.607663 159.953465 
" style="fill: none; stroke: #b0b0b0; stroke-width: 0.8"/>
    <path d="M 886.41609 494.296016 
L 1002.38718 381.477685 
L 1008.108569 173.24058 
" style="fill: none; stroke: #b0b0b0; stroke-width: 0.8"/>
   </g>
  </g>
  <g id="grid3d_5">
   <g id="Line3DCollection_5">
    <path d="M 717.757365 209.265931 
L 724.301379 420.812846 
L 933.880707 487.202708 
" style="fill: none; stroke: #b0b0b0; stroke-width: 0.8"/>
    <path d="M 749.704273 185.285468 
L 754.805664 394.638072 
L 962.24502 458.995448 
" style="fill: none; stroke: #b0b0b0; stroke-width: 0.8"/>
    <path d="M 780.65707 162.051218 
L 784.400054 369.24405 
L 989.731787 431.660877 
" style="fill: none; stroke: #b0b0b0; stroke-width: 0.8"/>
    <path d="M 810.661448 139.528886 
L 813.124663 344.596362 
L 1016.38111 405.159111 
" style="fill: none; stroke: #b0b0b0; stroke-width: 0.8"/>
   </g>
  </g>
  <g id="grid3d_6">
   <g id="Line3DCollection_6">
    <path d="M 1031.647149 387.32668 
L 829.471117 327.870755 
L 705.972819 433.666224 
" style="fill: none; stroke: #b0b0b0; stroke-width: 0.8"/>
    <path d="M 1032.551188 360.449154 
L 829.245617 301.618134 
L 705.018537 406.317755 
" style="fill: none; stroke: #b0b0b0; stroke-width: 0.8"/>
    <path d="M 1033.465461 333.267399 
L 829.017656 275.078893 
L 704.053154 378.651169 
" style="fill: none; stroke: #b0b0b0; stroke-width: 0.8"/>
    <path d="M 1034.390141 305.776222 
L 828.787191 248.248313 
L 703.076476 350.660881 
" style="fill: none; stroke: #b0b0b0; stroke-width: 0.8"/>
    <path d="M 1035.325407 277.970308 
L 828.554183 221.12157 
L 702.088304 322.341177 
" style="fill: none; stroke: #b0b0b0; stroke-width: 0.8"/>
    <path d="M 1036.271443 249.844222 
L 828.318589 193.693732 
L 701.088434 293.686208 
" style="fill: none; stroke: #b0b0b0; stroke-width: 0.8"/>
    <path d="M 1037.228435 221.392401 
L 828.080365 165.95976 
L 700.076656 264.689984 
" style="fill: none; stroke: #b0b0b0; stroke-width: 0.8"/>
    <path d="M 1038.196574 192.609153 
L 827.839467 137.914497 
L 699.052756 235.346372 
" style="fill: none; stroke: #b0b0b0; stroke-width: 0.8"/>
   </g>
  </g>
  <g id="axis3d_4">
   <g id="line2d_19">
    <path d="M 706.07018 436.456468 
L 916.912731 504.076731 
" style="fill: none; stroke: #000000; stroke-width: 0.8; stroke-linecap: square"/>
   </g>
   <g id="xtick_16">
    <g id="line2d_20">
     <path d="M 735.677227 444.706868 
L 732.549953 447.442819 
" style="fill: none; stroke: #000000; stroke-width: 0.8; stroke-linecap: square"/>
    </g>
    <g id="text_17">
     <!-- 00 -->
     <g transform="translate(707.351686 489.365693) rotate(-45) scale(0.21 -0.21)">
      <use xlink:href="#DejaVuSans-30"/>
      <use xlink:href="#DejaVuSans-30" x="63.623047"/>
     </g>
    </g>
   </g>
   <g id="xtick_17">
    <g id="line2d_21">
     <path d="M 785.334802 460.621468 
L 782.257306 463.407368 
" style="fill: none; stroke: #000000; stroke-width: 0.8; stroke-linecap: square"/>
    </g>
    <g id="text_18">
     <!-- 01 -->
     <g transform="translate(757.023931 505.435143) rotate(-45) scale(0.21 -0.21)">
      <use xlink:href="#DejaVuSans-30"/>
      <use xlink:href="#DejaVuSans-31" x="63.623047"/>
     </g>
    </g>
   </g>
   <g id="xtick_18">
    <g id="line2d_22">
     <path d="M 835.902405 476.82772 
L 832.877048 479.664949 
" style="fill: none; stroke: #000000; stroke-width: 0.8; stroke-linecap: square"/>
    </g>
    <g id="text_19">
     <!-- 10 -->
     <g transform="translate(807.60781 521.799516) rotate(-45) scale(0.21 -0.21)">
      <use xlink:href="#DejaVuSans-31"/>
      <use xlink:href="#DejaVuSans-30" x="63.623047"/>
     </g>
    </g>
   </g>
   <g id="xtick_19">
    <g id="line2d_23">
     <path d="M 887.405283 493.333715 
L 884.434531 496.223705 
" style="fill: none; stroke: #000000; stroke-width: 0.8; stroke-linecap: square"/>
    </g>
    <g id="text_20">
     <!-- 11 -->
     <g transform="translate(859.128654 538.467006) rotate(-45) scale(0.21 -0.21)">
      <use xlink:href="#DejaVuSans-31"/>
      <use xlink:href="#DejaVuSans-31" x="63.623047"/>
     </g>
    </g>
   </g>
  </g>
  <g id="axis3d_5">
   <g id="line2d_24">
    <path d="M 1031.554898 390.069341 
L 916.912731 504.076731 
" style="fill: none; stroke: #000000; stroke-width: 0.8; stroke-linecap: square"/>
   </g>
   <g id="xtick_20">
    <g id="line2d_25">
     <path d="M 932.140222 486.651363 
L 937.364886 488.306415 
" style="fill: none; stroke: #000000; stroke-width: 0.8; stroke-linecap: square"/>
    </g>
    <g id="text_21">
     <!-- 00 -->
     <g transform="translate(944.70027 499.207917) rotate(-337.5) scale(0.21 -0.21)">
      <use xlink:href="#DejaVuSans-30"/>
      <use xlink:href="#DejaVuSans-30" x="63.623047"/>
     </g>
    </g>
   </g>
   <g id="xtick_21">
    <g id="line2d_26">
     <path d="M 960.5233 458.46129 
L 965.691587 460.064734 
" style="fill: none; stroke: #000000; stroke-width: 0.8; stroke-linecap: square"/>
    </g>
    <g id="text_22">
     <!-- 01 -->
     <g transform="translate(972.913817 470.822876) rotate(-337.5) scale(0.21 -0.21)">
      <use xlink:href="#DejaVuSans-30"/>
      <use xlink:href="#DejaVuSans-31" x="63.623047"/>
     </g>
    </g>
   </g>
   <g id="xtick_22">
    <g id="line2d_27">
     <path d="M 988.028511 431.143114 
L 993.141381 432.697327 
" style="fill: none; stroke: #000000; stroke-width: 0.8; stroke-linecap: square"/>
    </g>
    <g id="text_23">
     <!-- 10 -->
     <g transform="translate(1000.254695 443.315808) rotate(-337.5) scale(0.21 -0.21)">
      <use xlink:href="#DejaVuSans-31"/>
      <use xlink:href="#DejaVuSans-30" x="63.623047"/>
     </g>
    </g>
   </g>
   <g id="xtick_23">
    <g id="line2d_28">
     <path d="M 1014.695964 404.657001 
L 1019.754368 406.164215 
" style="fill: none; stroke: #000000; stroke-width: 0.8; stroke-linecap: square"/>
    </g>
    <g id="text_24">
     <!-- 11 -->
     <g transform="translate(1026.762776 416.646599) rotate(-337.5) scale(0.21 -0.21)">
      <use xlink:href="#DejaVuSans-31"/>
      <use xlink:href="#DejaVuSans-31" x="63.623047"/>
     </g>
    </g>
   </g>
  </g>
  <g id="axis3d_6">
   <g id="line2d_29">
    <path d="M 1031.554898 390.069341 
L 1038.583588 181.103065 
" style="fill: none; stroke: #000000; stroke-width: 0.8; stroke-linecap: square"/>
   </g>
   <g id="xtick_24">
    <g id="line2d_30">
     <path d="M 1029.971444 386.833889 
L 1035.001483 388.313123 
" style="fill: none; stroke: #000000; stroke-width: 0.8; stroke-linecap: square"/>
    </g>
    <g id="text_25">
     <!-- −0.3 -->
     <g transform="translate(1045.13412 381.040302) scale(0.21 -0.21)">
      <use xlink:href="#DejaVuSans-2212"/>
      <use xlink:href="#DejaVuSans-30" x="83.789062"/>
      <use xlink:href="#DejaVuSans-2e" x="147.412109"/>
      <use xlink:href="#DejaVuSans-33" x="179.199219"/>
     </g>
    </g>
   </g>
   <g id="xtick_25">
    <g id="line2d_31">
     <path d="M 1030.865792 359.961447 
L 1035.92494 361.425424 
" style="fill: none; stroke: #000000; stroke-width: 0.8; stroke-linecap: square"/>
    </g>
    <g id="text_26">
     <!-- −0.2 -->
     <g transform="translate(1046.112945 354.182583) scale(0.21 -0.21)">
      <use xlink:href="#DejaVuSans-2212"/>
      <use xlink:href="#DejaVuSans-30" x="83.789062"/>
      <use xlink:href="#DejaVuSans-2e" x="147.412109"/>
      <use xlink:href="#DejaVuSans-32" x="179.199219"/>
     </g>
    </g>
   </g>
   <g id="xtick_26">
    <g id="line2d_32">
     <path d="M 1031.77026 332.784923 
L 1036.858855 334.233204 
" style="fill: none; stroke: #000000; stroke-width: 0.8; stroke-linecap: square"/>
    </g>
    <g id="text_27">
     <!-- −0.1 -->
     <g transform="translate(1047.102836 327.021208) scale(0.21 -0.21)">
      <use xlink:href="#DejaVuSans-2212"/>
      <use xlink:href="#DejaVuSans-30" x="83.789062"/>
      <use xlink:href="#DejaVuSans-2e" x="147.412109"/>
      <use xlink:href="#DejaVuSans-31" x="179.199219"/>
     </g>
    </g>
   </g>
   <g id="xtick_27">
    <g id="line2d_33">
     <path d="M 1032.685021 305.299128 
L 1037.803409 306.731258 
" style="fill: none; stroke: #000000; stroke-width: 0.8; stroke-linecap: square"/>
    </g>
    <g id="text_28">
     <!-- 0.0 -->
     <g transform="translate(1048.103982 299.550998) scale(0.21 -0.21)">
      <use xlink:href="#DejaVuSans-30"/>
      <use xlink:href="#DejaVuSans-2e" x="63.623047"/>
      <use xlink:href="#DejaVuSans-30" x="95.410156"/>
     </g>
    </g>
   </g>
   <g id="xtick_28">
    <g id="line2d_34">
     <path d="M 1033.610251 277.498751 
L 1038.758782 278.914265 
" style="fill: none; stroke: #000000; stroke-width: 0.8; stroke-linecap: square"/>
    </g>
    <g id="text_29">
     <!-- 0.1 -->
     <g transform="translate(1049.116577 271.766656) scale(0.21 -0.21)">
      <use xlink:href="#DejaVuSans-30"/>
      <use xlink:href="#DejaVuSans-2e" x="63.623047"/>
      <use xlink:href="#DejaVuSans-31" x="95.410156"/>
     </g>
    </g>
   </g>
   <g id="xtick_29">
    <g id="line2d_35">
     <path d="M 1034.546132 249.378361 
L 1039.725162 250.77678 
" style="fill: none; stroke: #000000; stroke-width: 0.8; stroke-linecap: square"/>
    </g>
    <g id="text_30">
     <!-- 0.2 -->
     <g transform="translate(1050.140818 243.662762) scale(0.21 -0.21)">
      <use xlink:href="#DejaVuSans-30"/>
      <use xlink:href="#DejaVuSans-2e" x="63.623047"/>
      <use xlink:href="#DejaVuSans-32" x="95.410156"/>
     </g>
    </g>
   </g>
   <g id="xtick_30">
    <g id="line2d_36">
     <path d="M 1035.492849 220.932401 
L 1040.702742 222.313232 
" style="fill: none; stroke: #000000; stroke-width: 0.8; stroke-linecap: square"/>
    </g>
    <g id="text_31">
     <!-- 0.3 -->
     <g transform="translate(1051.176908 215.233771) scale(0.21 -0.21)">
      <use xlink:href="#DejaVuSans-30"/>
      <use xlink:href="#DejaVuSans-2e" x="63.623047"/>
      <use xlink:href="#DejaVuSans-33" x="95.410156"/>
     </g>
    </g>
   </g>
   <g id="xtick_31">
    <g id="line2d_37">
     <path d="M 1036.45059 192.155182 
L 1041.691715 193.51792 
" style="fill: none; stroke: #000000; stroke-width: 0.8; stroke-linecap: square"/>
    </g>
    <g id="text_32">
     <!-- 0.4 -->
     <g transform="translate(1052.225052 186.474011) scale(0.21 -0.21)">
      <use xlink:href="#DejaVuSans-30"/>
      <use xlink:href="#DejaVuSans-2e" x="63.623047"/>
      <use xlink:href="#DejaVuSans-34" x="95.410156"/>
     </g>
    </g>
   </g>
  </g>
  <g id="axes_2">
   <g id="Poly3DCollection_4">
    <path d="M 821.791079 355.411799 
L 845.612317 362.544934 
L 859.572276 350.22848 
L 835.866748 343.199915 
z
" clip-path="url(#p882587d660)" style="fill: #577ddf"/>
    <path d="M 835.263634 260.468848 
L 835.866748 343.199915 
L 859.572276 350.22848 
L 859.37519 267.260353 
z
" clip-path="url(#p882587d660)" style="fill: #648fff"/>
    <path d="M 820.940018 272.269484 
L 821.791079 355.411799 
L 835.866748 343.199915 
L 835.263634 260.468848 
z
" clip-path="url(#p882587d660)" style="fill: #324880"/>
    <path d="M 845.171279 279.16379 
L 859.37519 267.260353 
L 859.572276 350.22848 
L 845.612317 362.544934 
z
" clip-path="url(#p882587d660)" style="fill: #648fff"/>
    <path d="M 820.940018 272.269484 
L 845.171279 279.16379 
L 845.612317 362.544934 
L 821.791079 355.411799 
z
" clip-path="url(#p882587d660)" style="fill: #324880"/>
    <path d="M 820.940018 272.269484 
L 835.263634 260.468848 
L 859.37519 267.260353 
L 845.171279 279.16379 
z
" clip-path="url(#p882587d660)" style="fill: #3f599f"/>
    <path d="M 855.317952 298.309757 
L 855.415191 328.465519 
L 880.04609 335.677969 
L 880.102728 305.433655 
z
" clip-path="url(#p882587d660)" style="fill: #648fff"/>
    <path d="M 840.989314 340.998284 
L 865.745613 348.321874 
L 880.04609 335.677969 
L 855.415191 328.465519 
z
" clip-path="url(#p882587d660)" style="fill: #577ddf"/>
    <path d="M 840.800655 310.6889 
L 840.989314 340.998284 
L 855.415191 328.465519 
L 855.317952 298.309757 
z
" clip-path="url(#p882587d660)" style="fill: #324880"/>
    <path d="M 762.669594 376.36682 
L 787.111522 383.857741 
L 802.032527 370.925003 
L 777.71105 363.547915 
z
" clip-path="url(#p882587d660)" style="fill: #577ddf"/>
    <path d="M 776.646142 308.76138 
L 777.71105 363.547915 
L 802.032527 370.925003 
L 801.241722 315.978491 
z
" clip-path="url(#p882587d660)" style="fill: #648fff"/>
    <path d="M 983.134316 302.119601 
L 983.134316 302.119601 
L 1008.546334 309.277407 
L 1008.546334 309.277407 
z
" clip-path="url(#p882587d660)" style="fill: #648fff"/>
    <path d="M 761.423404 321.302766 
L 762.669594 376.36682 
L 777.71105 363.547915 
L 776.646142 308.76138 
z
" clip-path="url(#p882587d660)" style="fill: #324880"/>
    <path d="M 865.712406 317.923269 
L 880.102728 305.433655 
L 880.04609 335.677969 
L 865.745613 348.321874 
z
" clip-path="url(#p882587d660)" style="fill: #648fff"/>
    <path d="M 840.800655 310.6889 
L 855.317952 298.309757 
L 880.102728 305.433655 
L 865.712406 317.923269 
z
" clip-path="url(#p882587d660)" style="fill: #3f599f"/>
    <path d="M 969.569681 314.557762 
L 969.569681 314.557762 
L 983.134316 302.119601 
L 983.134316 302.119601 
z
" clip-path="url(#p882587d660)" style="fill: #324880"/>
    <path d="M 840.800655 310.6889 
L 865.712406 317.923269 
L 865.745613 348.321874 
L 840.989314 340.998284 
z
" clip-path="url(#p882587d660)" style="fill: #324880"/>
    <path d="M 969.569681 314.557762 
L 983.134316 302.119601 
L 1008.546334 309.277407 
L 995.118114 321.826831 
z
" clip-path="url(#p882587d660)" style="fill: #3f599f"/>
    <path d="M 969.569681 314.557762 
L 995.118114 321.826831 
L 1008.546334 309.277407 
L 983.134316 302.119601 
z
" clip-path="url(#p882587d660)" style="fill: #577ddf"/>
    <path d="M 786.142147 328.632531 
L 801.241722 315.978491 
L 802.032527 370.925003 
L 787.111522 383.857741 
z
" clip-path="url(#p882587d660)" style="fill: #648fff"/>
    <path d="M 995.118114 321.826831 
L 1008.546334 309.277407 
L 1008.546334 309.277407 
L 995.118114 321.826831 
z
" clip-path="url(#p882587d660)" style="fill: #648fff"/>
    <path d="M 761.423404 321.302766 
L 786.142147 328.632531 
L 787.111522 383.857741 
L 762.669594 376.36682 
z
" clip-path="url(#p882587d660)" style="fill: #324880"/>
    <path d="M 969.569681 314.557762 
L 995.118114 321.826831 
L 995.118114 321.826831 
L 969.569681 314.557762 
z
" clip-path="url(#p882587d660)" style="fill: #324880"/>
    <path d="M 761.423404 321.302766 
L 776.646142 308.76138 
L 801.241722 315.978491 
L 786.142147 328.632531 
z
" clip-path="url(#p882587d660)" style="fill: #3f599f"/>
    <path d="M 955.793845 327.189585 
L 955.793845 327.189585 
L 981.479873 334.57253 
L 981.479873 334.57253 
z
" clip-path="url(#p882587d660)" style="fill: #648fff"/>
    <path d="M 941.801838 340.019627 
L 941.801838 340.019627 
L 955.793845 327.189585 
L 955.793845 327.189585 
z
" clip-path="url(#p882587d660)" style="fill: #324880"/>
    <path d="M 941.801838 340.019627 
L 955.793845 327.189585 
L 981.479873 334.57253 
L 967.626645 347.519147 
z
" clip-path="url(#p882587d660)" style="fill: #3f599f"/>
    <path d="M 941.801838 340.019627 
L 967.626645 347.519147 
L 981.479873 334.57253 
L 955.793845 327.189585 
z
" clip-path="url(#p882587d660)" style="fill: #577ddf"/>
    <path d="M 912.555614 433.794012 
L 938.289829 441.733364 
L 952.395583 428.027528 
L 926.798532 420.211787 
z
" clip-path="url(#p882587d660)" style="fill: #577ddf"/>
    <path d="M 967.626645 347.519147 
L 981.479873 334.57253 
L 981.479873 334.57253 
L 967.626645 347.519147 
z
" clip-path="url(#p882587d660)" style="fill: #648fff"/>
    <path d="M 941.801838 340.019627 
L 967.626645 347.519147 
L 967.626645 347.519147 
L 941.801838 340.019627 
z
" clip-path="url(#p882587d660)" style="fill: #324880"/>
    <path d="M 927.588531 353.052592 
L 926.798532 420.211787 
L 952.395583 428.027528 
L 953.553308 360.671468 
z
" clip-path="url(#p882587d660)" style="fill: #648fff"/>
    <path d="M 913.148631 366.293331 
L 912.555614 433.794012 
L 926.798532 420.211787 
L 927.588531 353.052592 
z
" clip-path="url(#p882587d660)" style="fill: #324880"/>
    <path d="M 939.254572 374.034437 
L 953.553308 360.671468 
L 952.395583 428.027528 
L 938.289829 441.733364 
z
" clip-path="url(#p882587d660)" style="fill: #648fff"/>
    <path d="M 913.148631 366.293331 
L 939.254572 374.034437 
L 938.289829 441.733364 
L 912.555614 433.794012 
z
" clip-path="url(#p882587d660)" style="fill: #324880"/>
    <path d="M 831.846032 417.52722 
L 857.534584 425.492335 
L 872.458619 411.742599 
L 846.90486 403.90305 
z
" clip-path="url(#p882587d660)" style="fill: #577ddf"/>
    <path d="M 846.70397 364.231197 
L 846.90486 403.90305 
L 872.458619 411.742599 
L 872.470788 371.953203 
z
" clip-path="url(#p882587d660)" style="fill: #648fff"/>
    <path d="M 913.148631 366.293331 
L 927.588531 353.052592 
L 953.553308 360.671468 
L 939.254572 374.034437 
z
" clip-path="url(#p882587d660)" style="fill: #3f599f"/>
    <path d="M 831.516999 377.651468 
L 831.846032 417.52722 
L 846.90486 403.90305 
L 846.70397 364.231197 
z
" clip-path="url(#p882587d660)" style="fill: #324880"/>
    <path d="M 857.42087 385.498203 
L 872.470788 371.953203 
L 872.458619 411.742599 
L 857.534584 425.492335 
z
" clip-path="url(#p882587d660)" style="fill: #648fff"/>
    <path d="M 831.516999 377.651468 
L 857.42087 385.498203 
L 857.534584 425.492335 
L 831.846032 417.52722 
z
" clip-path="url(#p882587d660)" style="fill: #324880"/>
    <path d="M 831.516999 377.651468 
L 846.70397 364.231197 
L 872.470788 371.953203 
L 857.42087 385.498203 
z
" clip-path="url(#p882587d660)" style="fill: #3f599f"/>
   </g>
   <g id="Poly3DCollection_5">
    <path d="M 709.883259 349.738733 
L 915.811265 412.455847 
L 1027.939685 306.650096 
L 830.396823 251.28556 
z
" clip-path="url(#p882587d660)" style="fill-opacity: 0.25"/>
   </g>
   <g id="Poly3DCollection_6">
    <path d="M 869.614892 286.118514 
L 883.696457 274.110927 
L 908.230182 281.021344 
L 894.27366 293.134454 
z
" clip-path="url(#p882587d660)" style="fill: #3f599f"/>
    <path d="M 883.696457 274.110927 
L 883.869955 207.271589 
L 908.741331 213.98095 
L 908.230182 281.021344 
z
" clip-path="url(#p882587d660)" style="fill: #324880"/>
    <path d="M 869.614892 286.118514 
L 869.595737 218.930333 
L 883.869955 207.271589 
L 883.696457 274.110927 
z
" clip-path="url(#p882587d660)" style="fill: #648fff"/>
    <path d="M 932.979161 287.992392 
L 932.979161 287.992392 
L 957.946241 295.024873 
L 957.946241 295.024873 
z
" clip-path="url(#p882587d660)" style="fill: #324880"/>
    <path d="M 791.636325 296.411587 
L 806.39924 284.249031 
L 830.751076 291.248489 
L 816.109601 303.518623 
z
" clip-path="url(#p882587d660)" style="fill: #3f599f"/>
    <path d="M 919.150436 300.212422 
L 919.150436 300.212422 
L 932.979161 287.992392 
L 932.979161 287.992392 
z
" clip-path="url(#p882587d660)" style="fill: #648fff"/>
    <path d="M 806.39924 284.249031 
L 805.882369 245.215149 
L 830.427601 252.097887 
L 830.751076 291.248489 
z
" clip-path="url(#p882587d660)" style="fill: #324880"/>
    <path d="M 791.636325 296.411587 
L 790.996456 257.175198 
L 805.882369 245.215149 
L 806.39924 284.249031 
z
" clip-path="url(#p882587d660)" style="fill: #648fff"/>
    <path d="M 919.150436 300.212422 
L 932.979161 287.992392 
L 957.946241 295.024873 
L 944.248125 307.353245 
z
" clip-path="url(#p882587d660)" style="fill: #3f599f"/>
    <path d="M 919.150436 300.212422 
L 944.248125 307.353245 
L 957.946241 295.024873 
L 932.979161 287.992392 
z
" clip-path="url(#p882587d660)" style="fill: #577ddf"/>
    <path d="M 894.27366 293.134454 
L 908.230182 281.021344 
L 908.741331 213.98095 
L 894.595636 225.743566 
z
" clip-path="url(#p882587d660)" style="fill: #324880"/>
    <path d="M 869.614892 286.118514 
L 894.27366 293.134454 
L 894.595636 225.743566 
L 869.595737 218.930333 
z
" clip-path="url(#p882587d660)" style="fill: #648fff"/>
    <path d="M 944.248125 307.353245 
L 957.946241 295.024873 
L 957.946241 295.024873 
L 944.248125 307.353245 
z
" clip-path="url(#p882587d660)" style="fill: #324880"/>
    <path d="M 919.150436 300.212422 
L 944.248125 307.353245 
L 944.248125 307.353245 
L 919.150436 300.212422 
z
" clip-path="url(#p882587d660)" style="fill: #648fff"/>
    <path d="M 816.109601 303.518623 
L 830.751076 291.248489 
L 830.427601 252.097887 
L 815.665058 264.164577 
z
" clip-path="url(#p882587d660)" style="fill: #324880"/>
    <path d="M 869.595737 218.930333 
L 894.595636 225.743566 
L 908.741331 213.98095 
L 883.869955 207.271589 
z
" clip-path="url(#p882587d660)" style="fill: #577ddf"/>
    <path d="M 791.636325 296.411587 
L 816.109601 303.518623 
L 815.665058 264.164577 
L 790.996456 257.175198 
z
" clip-path="url(#p882587d660)" style="fill: #648fff"/>
    <path d="M 790.996456 257.175198 
L 815.665058 264.164577 
L 830.427601 252.097887 
L 805.882369 245.215149 
z
" clip-path="url(#p882587d660)" style="fill: #577ddf"/>
    <path d="M 905.108318 312.621022 
L 905.108318 312.621022 
L 930.337684 319.87271 
L 930.337684 319.87271 
z
" clip-path="url(#p882587d660)" style="fill: #324880"/>
    <path d="M 890.847827 325.222591 
L 890.847827 325.222591 
L 905.108318 312.621022 
L 905.108318 312.621022 
z
" clip-path="url(#p882587d660)" style="fill: #648fff"/>
    <path d="M 890.847827 325.222591 
L 905.108318 312.621022 
L 930.337684 319.87271 
L 916.209945 332.587746 
z
" clip-path="url(#p882587d660)" style="fill: #3f599f"/>
    <path d="M 890.847827 325.222591 
L 916.209945 332.587746 
L 930.337684 319.87271 
L 905.108318 312.621022 
z
" clip-path="url(#p882587d660)" style="fill: #577ddf"/>
    <path d="M 916.209945 332.587746 
L 930.337684 319.87271 
L 930.337684 319.87271 
L 916.209945 332.587746 
z
" clip-path="url(#p882587d660)" style="fill: #324880"/>
    <path d="M 826.057867 323.260324 
L 826.057867 323.260324 
L 851.097559 330.607751 
L 851.097559 330.607751 
z
" clip-path="url(#p882587d660)" style="fill: #324880"/>
    <path d="M 890.847827 325.222591 
L 916.209945 332.587746 
L 916.209945 332.587746 
L 890.847827 325.222591 
z
" clip-path="url(#p882587d660)" style="fill: #648fff"/>
    <path d="M 811.084295 336.028541 
L 811.084295 336.028541 
L 826.057867 323.260324 
L 826.057867 323.260324 
z
" clip-path="url(#p882587d660)" style="fill: #648fff"/>
    <path d="M 811.084295 336.028541 
L 826.057867 323.260324 
L 851.097559 330.607751 
L 836.252892 343.491699 
z
" clip-path="url(#p882587d660)" style="fill: #3f599f"/>
    <path d="M 811.084295 336.028541 
L 836.252892 343.491699 
L 851.097559 330.607751 
L 826.057867 323.260324 
z
" clip-path="url(#p882587d660)" style="fill: #577ddf"/>
    <path d="M 836.252892 343.491699 
L 851.097559 330.607751 
L 851.097559 330.607751 
L 836.252892 343.491699 
z
" clip-path="url(#p882587d660)" style="fill: #324880"/>
    <path d="M 745.962655 334.040238 
L 745.962655 334.040238 
L 770.805417 341.485315 
L 770.805417 341.485315 
z
" clip-path="url(#p882587d660)" style="fill: #324880"/>
    <path d="M 811.084295 336.028541 
L 836.252892 343.491699 
L 836.252892 343.491699 
L 811.084295 336.028541 
z
" clip-path="url(#p882587d660)" style="fill: #648fff"/>
    <path d="M 730.258271 346.978432 
L 730.258271 346.978432 
L 745.962655 334.040238 
L 745.962655 334.040238 
z
" clip-path="url(#p882587d660)" style="fill: #648fff"/>
    <path d="M 730.258271 346.978432 
L 745.962655 334.040238 
L 770.805417 341.485315 
L 755.225902 354.541563 
z
" clip-path="url(#p882587d660)" style="fill: #3f599f"/>
    <path d="M 730.258271 346.978432 
L 755.225902 354.541563 
L 770.805417 341.485315 
L 745.962655 334.040238 
z
" clip-path="url(#p882587d660)" style="fill: #577ddf"/>
    <path d="M 876.363831 338.021665 
L 876.3983 306.983091 
L 902.059152 314.370759 
L 901.859773 345.502971 
z
" clip-path="url(#p882587d660)" style="fill: #324880"/>
    <path d="M 755.225902 354.541563 
L 770.805417 341.485315 
L 770.805417 341.485315 
L 755.225902 354.541563 
z
" clip-path="url(#p882587d660)" style="fill: #324880"/>
    <path d="M 861.651034 351.022924 
L 876.363831 338.021665 
L 901.859773 345.502971 
L 887.281876 358.62315 
z
" clip-path="url(#p882587d660)" style="fill: #3f599f"/>
    <path d="M 861.651034 351.022924 
L 861.590383 319.8219 
L 876.3983 306.983091 
L 876.363831 338.021665 
z
" clip-path="url(#p882587d660)" style="fill: #648fff"/>
    <path d="M 730.258271 346.978432 
L 755.225902 354.541563 
L 755.225902 354.541563 
L 730.258271 346.978432 
z
" clip-path="url(#p882587d660)" style="fill: #648fff"/>
    <path d="M 887.281876 358.62315 
L 901.859773 345.502971 
L 902.059152 314.370759 
L 887.387894 327.327767 
z
" clip-path="url(#p882587d660)" style="fill: #324880"/>
    <path d="M 861.590383 319.8219 
L 887.387894 327.327767 
L 902.059152 314.370759 
L 876.3983 306.983091 
z
" clip-path="url(#p882587d660)" style="fill: #577ddf"/>
    <path d="M 780.422775 362.174136 
L 795.874477 348.99821 
L 821.17294 356.579855 
L 805.852064 369.877112 
z
" clip-path="url(#p882587d660)" style="fill: #3f599f"/>
    <path d="M 861.651034 351.022924 
L 887.281876 358.62315 
L 887.387894 327.327767 
L 861.590383 319.8219 
z
" clip-path="url(#p882587d660)" style="fill: #648fff"/>
    <path d="M 795.874477 348.99821 
L 794.985149 292.01134 
L 820.58034 299.419304 
L 821.17294 356.579855 
z
" clip-path="url(#p882587d660)" style="fill: #324880"/>
    <path d="M 780.422775 362.174136 
L 779.341918 304.885946 
L 794.985149 292.01134 
L 795.874477 348.99821 
z
" clip-path="url(#p882587d660)" style="fill: #648fff"/>
    <path d="M 805.852064 369.877112 
L 821.17294 356.579855 
L 820.58034 299.419304 
L 805.071008 312.413885 
z
" clip-path="url(#p882587d660)" style="fill: #324880"/>
    <path d="M 780.422775 362.174136 
L 805.852064 369.877112 
L 805.071008 312.413885 
L 779.341918 304.885946 
z
" clip-path="url(#p882587d660)" style="fill: #648fff"/>
    <path d="M 779.341918 304.885946 
L 805.071008 312.413885 
L 820.58034 299.419304 
L 794.985149 292.01134 
z
" clip-path="url(#p882587d660)" style="fill: #577ddf"/>
    <path d="M 883.56703 393.418332 
L 898.476678 379.746854 
L 924.72498 387.613155 
L 909.958894 401.412888 
z
" clip-path="url(#p882587d660)" style="fill: #3f599f"/>
    <path d="M 898.476678 379.746854 
L 898.993593 289.737032 
L 925.740599 297.324609 
L 924.72498 387.613155 
z
" clip-path="url(#p882587d660)" style="fill: #324880"/>
    <path d="M 883.56703 393.418332 
L 883.805348 302.924947 
L 898.993593 289.737032 
L 898.476678 379.746854 
z
" clip-path="url(#p882587d660)" style="fill: #648fff"/>
    <path d="M 909.958894 401.412888 
L 924.72498 387.613155 
L 925.740599 297.324609 
L 910.701455 310.638598 
z
" clip-path="url(#p882587d660)" style="fill: #324880"/>
    <path d="M 883.56703 393.418332 
L 909.958894 401.412888 
L 910.701455 310.638598 
L 883.805348 302.924947 
z
" clip-path="url(#p882587d660)" style="fill: #648fff"/>
    <path d="M 883.805348 302.924947 
L 910.701455 310.638598 
L 925.740599 297.324609 
L 898.993593 289.737032 
z
" clip-path="url(#p882587d660)" style="fill: #577ddf"/>
   </g>
   <g id="text_33">
    <!-- Imaginary Amplitude (ρ) -->
    <g transform="translate(735.696563 51.6) scale(0.21 -0.21)">
     <defs>
      <path id="DejaVuSans-49" d="M 628 4666 
L 1259 4666 
L 1259 0 
L 628 0 
L 628 4666 
z
" transform="scale(0.015625)"/>
      <path id="DejaVuSans-67" d="M 2906 1791 
Q 2906 2416 2648 2759 
Q 2391 3103 1925 3103 
Q 1463 3103 1205 2759 
Q 947 2416 947 1791 
Q 947 1169 1205 825 
Q 1463 481 1925 481 
Q 2391 481 2648 825 
Q 2906 1169 2906 1791 
z
M 3481 434 
Q 3481 -459 3084 -895 
Q 2688 -1331 1869 -1331 
Q 1566 -1331 1297 -1286 
Q 1028 -1241 775 -1147 
L 775 -588 
Q 1028 -725 1275 -790 
Q 1522 -856 1778 -856 
Q 2344 -856 2625 -561 
Q 2906 -266 2906 331 
L 2906 616 
Q 2728 306 2450 153 
Q 2172 0 1784 0 
Q 1141 0 747 490 
Q 353 981 353 1791 
Q 353 2603 747 3093 
Q 1141 3584 1784 3584 
Q 2172 3584 2450 3431 
Q 2728 3278 2906 2969 
L 2906 3500 
L 3481 3500 
L 3481 434 
z
" transform="scale(0.015625)"/>
      <path id="DejaVuSans-6e" d="M 3513 2113 
L 3513 0 
L 2938 0 
L 2938 2094 
Q 2938 2591 2744 2837 
Q 2550 3084 2163 3084 
Q 1697 3084 1428 2787 
Q 1159 2491 1159 1978 
L 1159 0 
L 581 0 
L 581 3500 
L 1159 3500 
L 1159 2956 
Q 1366 3272 1645 3428 
Q 1925 3584 2291 3584 
Q 2894 3584 3203 3211 
Q 3513 2838 3513 2113 
z
" transform="scale(0.015625)"/>
      <path id="DejaVuSans-72" d="M 2631 2963 
Q 2534 3019 2420 3045 
Q 2306 3072 2169 3072 
Q 1681 3072 1420 2755 
Q 1159 2438 1159 1844 
L 1159 0 
L 581 0 
L 581 3500 
L 1159 3500 
L 1159 2956 
Q 1341 3275 1631 3429 
Q 1922 3584 2338 3584 
Q 2397 3584 2469 3576 
Q 2541 3569 2628 3553 
L 2631 2963 
z
" transform="scale(0.015625)"/>
      <path id="DejaVuSans-79" d="M 2059 -325 
Q 1816 -950 1584 -1140 
Q 1353 -1331 966 -1331 
L 506 -1331 
L 506 -850 
L 844 -850 
Q 1081 -850 1212 -737 
Q 1344 -625 1503 -206 
L 1606 56 
L 191 3500 
L 800 3500 
L 1894 763 
L 2988 3500 
L 3597 3500 
L 2059 -325 
z
" transform="scale(0.015625)"/>
     </defs>
     <use xlink:href="#DejaVuSans-49"/>
     <use xlink:href="#DejaVuSans-6d" x="29.492188"/>
     <use xlink:href="#DejaVuSans-61" x="126.904297"/>
     <use xlink:href="#DejaVuSans-67" x="188.183594"/>
     <use xlink:href="#DejaVuSans-69" x="251.660156"/>
     <use xlink:href="#DejaVuSans-6e" x="279.443359"/>
     <use xlink:href="#DejaVuSans-61" x="342.822266"/>
     <use xlink:href="#DejaVuSans-72" x="404.101562"/>
     <use xlink:href="#DejaVuSans-79" x="445.214844"/>
     <use xlink:href="#DejaVuSans-20" x="504.394531"/>
     <use xlink:href="#DejaVuSans-41" x="536.181641"/>
     <use xlink:href="#DejaVuSans-6d" x="604.589844"/>
     <use xlink:href="#DejaVuSans-70" x="702.001953"/>
     <use xlink:href="#DejaVuSans-6c" x="765.478516"/>
     <use xlink:href="#DejaVuSans-69" x="793.261719"/>
     <use xlink:href="#DejaVuSans-74" x="821.044922"/>
     <use xlink:href="#DejaVuSans-75" x="860.253906"/>
     <use xlink:href="#DejaVuSans-64" x="923.632812"/>
     <use xlink:href="#DejaVuSans-65" x="987.109375"/>
     <use xlink:href="#DejaVuSans-20" x="1048.632812"/>
     <use xlink:href="#DejaVuSans-28" x="1080.419922"/>
     <use xlink:href="#DejaVuSans-3c1" x="1119.433594"/>
     <use xlink:href="#DejaVuSans-29" x="1182.910156"/>
    </g>
   </g>
  </g>
 </g>
 <defs>
  <clipPath id="p3084cee93b">
   <rect x="28.8" y="57.6" width="518.4" height="518.4"/>
  </clipPath>
  <clipPath id="p882587d660">
   <rect x="604.8" y="57.6" width="518.4" height="518.4"/>
  </clipPath>
 </defs>
</svg>
