<?xml version="1.0" encoding="utf-8" standalone="no"?>
<!DOCTYPE svg PUBLIC "-//W3C//DTD SVG 1.1//EN"
  "http://www.w3.org/Graphics/SVG/1.1/DTD/svg11.dtd">
<svg xmlns:xlink="http://www.w3.org/1999/xlink" width="1501.678088pt" height="438.279994pt" viewBox="0 0 1501.678088 438.279994" xmlns="http://www.w3.org/2000/svg" version="1.1">
 <metadata>
  <rdf:RDF xmlns:dc="http://purl.org/dc/elements/1.1/" xmlns:cc="http://creativecommons.org/ns#" xmlns:rdf="http://www.w3.org/1999/02/22-rdf-syntax-ns#">
   <cc:Work>
    <dc:type rdf:resource="http://purl.org/dc/dcmitype/StillImage"/>
    <dc:date>2024-11-13T19:53:26.842637</dc:date>
    <dc:format>image/svg+xml</dc:format>
    <dc:creator>
     <cc:Agent>
      <dc:title>Matplotlib v3.9.2, https://matplotlib.org/</dc:title>
     </cc:Agent>
    </dc:creator>
   </cc:Work>
  </rdf:RDF>
 </metadata>
 <defs>
  <style type="text/css">*{stroke-linejoin: round; stroke-linecap: butt}</style>
 </defs>
 <g id="figure_1">
  <g id="patch_1">
   <path d="M -0 438.279994 
L 1501.678088 438.279994 
L 1501.678088 0 
L -0 0 
z
" style="fill: #ffffff"/>
  </g>
  <g id="axes_1">
   <g id="line2d_1">
    <path d="M 76.870625 59.801849 
L 1488.852662 59.801849 
" clip-path="url(#p0e82dda038)" style="fill: none; stroke: #000000; stroke-width: 2; stroke-linecap: square"/>
   </g>
   <g id="line2d_2">
    <path d="M 76.870625 116.056113 
L 1488.852662 116.056113 
" clip-path="url(#p0e82dda038)" style="fill: none; stroke: #000000; stroke-width: 2; stroke-linecap: square"/>
   </g>
   <g id="line2d_3">
    <path d="M 76.870625 172.310378 
L 1488.852662 172.310378 
" clip-path="url(#p0e82dda038)" style="fill: none; stroke: #000000; stroke-width: 2; stroke-linecap: square"/>
   </g>
   <g id="line2d_4">
    <path d="M 1488.852662 59.801849 
L 1488.852662 172.310378 
" clip-path="url(#p0e82dda038)" style="fill: none; stroke: #000000; stroke-width: 1.5; stroke-linecap: square"/>
   </g>
   <g id="line2d_5">
    <path d="M 76.870625 284.818907 
L 1488.852662 284.818907 
" clip-path="url(#p0e82dda038)" style="fill: none; stroke: #000000; stroke-width: 2; stroke-linecap: square"/>
   </g>
   <g id="line2d_6">
    <path d="M 76.870625 341.073171 
L 1488.852662 341.073171 
" clip-path="url(#p0e82dda038)" style="fill: none; stroke: #000000; stroke-width: 2; stroke-linecap: square"/>
   </g>
   <g id="line2d_7">
    <path d="M 76.870625 397.327435 
L 1488.852662 397.327435 
" clip-path="url(#p0e82dda038)" style="fill: none; stroke: #000000; stroke-width: 2; stroke-linecap: square"/>
   </g>
   <g id="line2d_8">
    <path d="M 76.308083 284.818907 
L 76.308083 397.327435 
" clip-path="url(#p0e82dda038)" style="fill: none; stroke: #000000; stroke-width: 1.5; stroke-linecap: square"/>
   </g>
   <g id="text_1">
    <!-- Global Phase: 4.823985030065344 -->
    <g transform="translate(7.2 14.798437) scale(0.1 -0.1)">
     <defs>
      <path id="DejaVuSans-47" d="M 3809 666 
L 3809 1919 
L 2778 1919 
L 2778 2438 
L 4434 2438 
L 4434 434 
Q 4069 175 3628 42 
Q 3188 -91 2688 -91 
Q 1594 -91 976 548 
Q 359 1188 359 2328 
Q 359 3472 976 4111 
Q 1594 4750 2688 4750 
Q 3144 4750 3555 4637 
Q 3966 4525 4313 4306 
L 4313 3634 
Q 3963 3931 3569 4081 
Q 3175 4231 2741 4231 
Q 1884 4231 1454 3753 
Q 1025 3275 1025 2328 
Q 1025 1384 1454 906 
Q 1884 428 2741 428 
Q 3075 428 3337 486 
Q 3600 544 3809 666 
z
" transform="scale(0.015625)"/>
      <path id="DejaVuSans-6c" d="M 603 4863 
L 1178 4863 
L 1178 0 
L 603 0 
L 603 4863 
z
" transform="scale(0.015625)"/>
      <path id="DejaVuSans-6f" d="M 1959 3097 
Q 1497 3097 1228 2736 
Q 959 2375 959 1747 
Q 959 1119 1226 758 
Q 1494 397 1959 397 
Q 2419 397 2687 759 
Q 2956 1122 2956 1747 
Q 2956 2369 2687 2733 
Q 2419 3097 1959 3097 
z
M 1959 3584 
Q 2709 3584 3137 3096 
Q 3566 2609 3566 1747 
Q 3566 888 3137 398 
Q 2709 -91 1959 -91 
Q 1206 -91 779 398 
Q 353 888 353 1747 
Q 353 2609 779 3096 
Q 1206 3584 1959 3584 
z
" transform="scale(0.015625)"/>
      <path id="DejaVuSans-62" d="M 3116 1747 
Q 3116 2381 2855 2742 
Q 2594 3103 2138 3103 
Q 1681 3103 1420 2742 
Q 1159 2381 1159 1747 
Q 1159 1113 1420 752 
Q 1681 391 2138 391 
Q 2594 391 2855 752 
Q 3116 1113 3116 1747 
z
M 1159 2969 
Q 1341 3281 1617 3432 
Q 1894 3584 2278 3584 
Q 2916 3584 3314 3078 
Q 3713 2572 3713 1747 
Q 3713 922 3314 415 
Q 2916 -91 2278 -91 
Q 1894 -91 1617 61 
Q 1341 213 1159 525 
L 1159 0 
L 581 0 
L 581 4863 
L 1159 4863 
L 1159 2969 
z
" transform="scale(0.015625)"/>
      <path id="DejaVuSans-61" d="M 2194 1759 
Q 1497 1759 1228 1600 
Q 959 1441 959 1056 
Q 959 750 1161 570 
Q 1363 391 1709 391 
Q 2188 391 2477 730 
Q 2766 1069 2766 1631 
L 2766 1759 
L 2194 1759 
z
M 3341 1997 
L 3341 0 
L 2766 0 
L 2766 531 
Q 2569 213 2275 61 
Q 1981 -91 1556 -91 
Q 1019 -91 701 211 
Q 384 513 384 1019 
Q 384 1609 779 1909 
Q 1175 2209 1959 2209 
L 2766 2209 
L 2766 2266 
Q 2766 2663 2505 2880 
Q 2244 3097 1772 3097 
Q 1472 3097 1187 3025 
Q 903 2953 641 2809 
L 641 3341 
Q 956 3463 1253 3523 
Q 1550 3584 1831 3584 
Q 2591 3584 2966 3190 
Q 3341 2797 3341 1997 
z
" transform="scale(0.015625)"/>
      <path id="DejaVuSans-20" transform="scale(0.015625)"/>
      <path id="DejaVuSans-50" d="M 1259 4147 
L 1259 2394 
L 2053 2394 
Q 2494 2394 2734 2622 
Q 2975 2850 2975 3272 
Q 2975 3691 2734 3919 
Q 2494 4147 2053 4147 
L 1259 4147 
z
M 628 4666 
L 2053 4666 
Q 2838 4666 3239 4311 
Q 3641 3956 3641 3272 
Q 3641 2581 3239 2228 
Q 2838 1875 2053 1875 
L 1259 1875 
L 1259 0 
L 628 0 
L 628 4666 
z
" transform="scale(0.015625)"/>
      <path id="DejaVuSans-68" d="M 3513 2113 
L 3513 0 
L 2938 0 
L 2938 2094 
Q 2938 2591 2744 2837 
Q 2550 3084 2163 3084 
Q 1697 3084 1428 2787 
Q 1159 2491 1159 1978 
L 1159 0 
L 581 0 
L 581 4863 
L 1159 4863 
L 1159 2956 
Q 1366 3272 1645 3428 
Q 1925 3584 2291 3584 
Q 2894 3584 3203 3211 
Q 3513 2838 3513 2113 
z
" transform="scale(0.015625)"/>
      <path id="DejaVuSans-73" d="M 2834 3397 
L 2834 2853 
Q 2591 2978 2328 3040 
Q 2066 3103 1784 3103 
Q 1356 3103 1142 2972 
Q 928 2841 928 2578 
Q 928 2378 1081 2264 
Q 1234 2150 1697 2047 
L 1894 2003 
Q 2506 1872 2764 1633 
Q 3022 1394 3022 966 
Q 3022 478 2636 193 
Q 2250 -91 1575 -91 
Q 1294 -91 989 -36 
Q 684 19 347 128 
L 347 722 
Q 666 556 975 473 
Q 1284 391 1588 391 
Q 1994 391 2212 530 
Q 2431 669 2431 922 
Q 2431 1156 2273 1281 
Q 2116 1406 1581 1522 
L 1381 1569 
Q 847 1681 609 1914 
Q 372 2147 372 2553 
Q 372 3047 722 3315 
Q 1072 3584 1716 3584 
Q 2034 3584 2315 3537 
Q 2597 3491 2834 3397 
z
" transform="scale(0.015625)"/>
      <path id="DejaVuSans-65" d="M 3597 1894 
L 3597 1613 
L 953 1613 
Q 991 1019 1311 708 
Q 1631 397 2203 397 
Q 2534 397 2845 478 
Q 3156 559 3463 722 
L 3463 178 
Q 3153 47 2828 -22 
Q 2503 -91 2169 -91 
Q 1331 -91 842 396 
Q 353 884 353 1716 
Q 353 2575 817 3079 
Q 1281 3584 2069 3584 
Q 2775 3584 3186 3129 
Q 3597 2675 3597 1894 
z
M 3022 2063 
Q 3016 2534 2758 2815 
Q 2500 3097 2075 3097 
Q 1594 3097 1305 2825 
Q 1016 2553 972 2059 
L 3022 2063 
z
" transform="scale(0.015625)"/>
      <path id="DejaVuSans-3a" d="M 750 794 
L 1409 794 
L 1409 0 
L 750 0 
L 750 794 
z
M 750 3309 
L 1409 3309 
L 1409 2516 
L 750 2516 
L 750 3309 
z
" transform="scale(0.015625)"/>
      <path id="DejaVuSans-34" d="M 2419 4116 
L 825 1625 
L 2419 1625 
L 2419 4116 
z
M 2253 4666 
L 3047 4666 
L 3047 1625 
L 3713 1625 
L 3713 1100 
L 3047 1100 
L 3047 0 
L 2419 0 
L 2419 1100 
L 313 1100 
L 313 1709 
L 2253 4666 
z
" transform="scale(0.015625)"/>
      <path id="DejaVuSans-2e" d="M 684 794 
L 1344 794 
L 1344 0 
L 684 0 
L 684 794 
z
" transform="scale(0.015625)"/>
      <path id="DejaVuSans-38" d="M 2034 2216 
Q 1584 2216 1326 1975 
Q 1069 1734 1069 1313 
Q 1069 891 1326 650 
Q 1584 409 2034 409 
Q 2484 409 2743 651 
Q 3003 894 3003 1313 
Q 3003 1734 2745 1975 
Q 2488 2216 2034 2216 
z
M 1403 2484 
Q 997 2584 770 2862 
Q 544 3141 544 3541 
Q 544 4100 942 4425 
Q 1341 4750 2034 4750 
Q 2731 4750 3128 4425 
Q 3525 4100 3525 3541 
Q 3525 3141 3298 2862 
Q 3072 2584 2669 2484 
Q 3125 2378 3379 2068 
Q 3634 1759 3634 1313 
Q 3634 634 3220 271 
Q 2806 -91 2034 -91 
Q 1263 -91 848 271 
Q 434 634 434 1313 
Q 434 1759 690 2068 
Q 947 2378 1403 2484 
z
M 1172 3481 
Q 1172 3119 1398 2916 
Q 1625 2713 2034 2713 
Q 2441 2713 2670 2916 
Q 2900 3119 2900 3481 
Q 2900 3844 2670 4047 
Q 2441 4250 2034 4250 
Q 1625 4250 1398 4047 
Q 1172 3844 1172 3481 
z
" transform="scale(0.015625)"/>
      <path id="DejaVuSans-32" d="M 1228 531 
L 3431 531 
L 3431 0 
L 469 0 
L 469 531 
Q 828 903 1448 1529 
Q 2069 2156 2228 2338 
Q 2531 2678 2651 2914 
Q 2772 3150 2772 3378 
Q 2772 3750 2511 3984 
Q 2250 4219 1831 4219 
Q 1534 4219 1204 4116 
Q 875 4013 500 3803 
L 500 4441 
Q 881 4594 1212 4672 
Q 1544 4750 1819 4750 
Q 2544 4750 2975 4387 
Q 3406 4025 3406 3419 
Q 3406 3131 3298 2873 
Q 3191 2616 2906 2266 
Q 2828 2175 2409 1742 
Q 1991 1309 1228 531 
z
" transform="scale(0.015625)"/>
      <path id="DejaVuSans-33" d="M 2597 2516 
Q 3050 2419 3304 2112 
Q 3559 1806 3559 1356 
Q 3559 666 3084 287 
Q 2609 -91 1734 -91 
Q 1441 -91 1130 -33 
Q 819 25 488 141 
L 488 750 
Q 750 597 1062 519 
Q 1375 441 1716 441 
Q 2309 441 2620 675 
Q 2931 909 2931 1356 
Q 2931 1769 2642 2001 
Q 2353 2234 1838 2234 
L 1294 2234 
L 1294 2753 
L 1863 2753 
Q 2328 2753 2575 2939 
Q 2822 3125 2822 3475 
Q 2822 3834 2567 4026 
Q 2313 4219 1838 4219 
Q 1578 4219 1281 4162 
Q 984 4106 628 3988 
L 628 4550 
Q 988 4650 1302 4700 
Q 1616 4750 1894 4750 
Q 2613 4750 3031 4423 
Q 3450 4097 3450 3541 
Q 3450 3153 3228 2886 
Q 3006 2619 2597 2516 
z
" transform="scale(0.015625)"/>
      <path id="DejaVuSans-39" d="M 703 97 
L 703 672 
Q 941 559 1184 500 
Q 1428 441 1663 441 
Q 2288 441 2617 861 
Q 2947 1281 2994 2138 
Q 2813 1869 2534 1725 
Q 2256 1581 1919 1581 
Q 1219 1581 811 2004 
Q 403 2428 403 3163 
Q 403 3881 828 4315 
Q 1253 4750 1959 4750 
Q 2769 4750 3195 4129 
Q 3622 3509 3622 2328 
Q 3622 1225 3098 567 
Q 2575 -91 1691 -91 
Q 1453 -91 1209 -44 
Q 966 3 703 97 
z
M 1959 2075 
Q 2384 2075 2632 2365 
Q 2881 2656 2881 3163 
Q 2881 3666 2632 3958 
Q 2384 4250 1959 4250 
Q 1534 4250 1286 3958 
Q 1038 3666 1038 3163 
Q 1038 2656 1286 2365 
Q 1534 2075 1959 2075 
z
" transform="scale(0.015625)"/>
      <path id="DejaVuSans-35" d="M 691 4666 
L 3169 4666 
L 3169 4134 
L 1269 4134 
L 1269 2991 
Q 1406 3038 1543 3061 
Q 1681 3084 1819 3084 
Q 2600 3084 3056 2656 
Q 3513 2228 3513 1497 
Q 3513 744 3044 326 
Q 2575 -91 1722 -91 
Q 1428 -91 1123 -41 
Q 819 9 494 109 
L 494 744 
Q 775 591 1075 516 
Q 1375 441 1709 441 
Q 2250 441 2565 725 
Q 2881 1009 2881 1497 
Q 2881 1984 2565 2268 
Q 2250 2553 1709 2553 
Q 1456 2553 1204 2497 
Q 953 2441 691 2322 
L 691 4666 
z
" transform="scale(0.015625)"/>
      <path id="DejaVuSans-30" d="M 2034 4250 
Q 1547 4250 1301 3770 
Q 1056 3291 1056 2328 
Q 1056 1369 1301 889 
Q 1547 409 2034 409 
Q 2525 409 2770 889 
Q 3016 1369 3016 2328 
Q 3016 3291 2770 3770 
Q 2525 4250 2034 4250 
z
M 2034 4750 
Q 2819 4750 3233 4129 
Q 3647 3509 3647 2328 
Q 3647 1150 3233 529 
Q 2819 -91 2034 -91 
Q 1250 -91 836 529 
Q 422 1150 422 2328 
Q 422 3509 836 4129 
Q 1250 4750 2034 4750 
z
" transform="scale(0.015625)"/>
      <path id="DejaVuSans-36" d="M 2113 2584 
Q 1688 2584 1439 2293 
Q 1191 2003 1191 1497 
Q 1191 994 1439 701 
Q 1688 409 2113 409 
Q 2538 409 2786 701 
Q 3034 994 3034 1497 
Q 3034 2003 2786 2293 
Q 2538 2584 2113 2584 
z
M 3366 4563 
L 3366 3988 
Q 3128 4100 2886 4159 
Q 2644 4219 2406 4219 
Q 1781 4219 1451 3797 
Q 1122 3375 1075 2522 
Q 1259 2794 1537 2939 
Q 1816 3084 2150 3084 
Q 2853 3084 3261 2657 
Q 3669 2231 3669 1497 
Q 3669 778 3244 343 
Q 2819 -91 2113 -91 
Q 1303 -91 875 529 
Q 447 1150 447 2328 
Q 447 3434 972 4092 
Q 1497 4750 2381 4750 
Q 2619 4750 2861 4703 
Q 3103 4656 3366 4563 
z
" transform="scale(0.015625)"/>
     </defs>
     <use xlink:href="#DejaVuSans-47"/>
     <use xlink:href="#DejaVuSans-6c" x="77.490234"/>
     <use xlink:href="#DejaVuSans-6f" x="105.273438"/>
     <use xlink:href="#DejaVuSans-62" x="166.455078"/>
     <use xlink:href="#DejaVuSans-61" x="229.931641"/>
     <use xlink:href="#DejaVuSans-6c" x="291.210938"/>
     <use xlink:href="#DejaVuSans-20" x="318.994141"/>
     <use xlink:href="#DejaVuSans-50" x="350.78125"/>
     <use xlink:href="#DejaVuSans-68" x="411.083984"/>
     <use xlink:href="#DejaVuSans-61" x="474.462891"/>
     <use xlink:href="#DejaVuSans-73" x="535.742188"/>
     <use xlink:href="#DejaVuSans-65" x="587.841797"/>
     <use xlink:href="#DejaVuSans-3a" x="649.365234"/>
     <use xlink:href="#DejaVuSans-20" x="683.056641"/>
     <use xlink:href="#DejaVuSans-34" x="714.84375"/>
     <use xlink:href="#DejaVuSans-2e" x="778.466797"/>
     <use xlink:href="#DejaVuSans-38" x="810.253906"/>
     <use xlink:href="#DejaVuSans-32" x="873.876953"/>
     <use xlink:href="#DejaVuSans-33" x="937.5"/>
     <use xlink:href="#DejaVuSans-39" x="1001.123047"/>
     <use xlink:href="#DejaVuSans-38" x="1064.746094"/>
     <use xlink:href="#DejaVuSans-35" x="1128.369141"/>
     <use xlink:href="#DejaVuSans-30" x="1191.992188"/>
     <use xlink:href="#DejaVuSans-33" x="1255.615234"/>
     <use xlink:href="#DejaVuSans-30" x="1319.238281"/>
     <use xlink:href="#DejaVuSans-30" x="1382.861328"/>
     <use xlink:href="#DejaVuSans-36" x="1446.484375"/>
     <use xlink:href="#DejaVuSans-35" x="1510.107422"/>
     <use xlink:href="#DejaVuSans-33" x="1573.730469"/>
     <use xlink:href="#DejaVuSans-34" x="1637.353516"/>
     <use xlink:href="#DejaVuSans-34" x="1700.976562"/>
    </g>
   </g>
   <g id="patch_2">
    <path d="M 71.245199 31.674717 
L -1335.111411 31.674717 
L -1335.111411 256.691774 
L 71.245199 256.691774 
z
" clip-path="url(#p0e82dda038)" style="fill: #ffffff; stroke: #ffffff; stroke-width: 1.5; stroke-linejoin: miter"/>
   </g>
   <g id="patch_3">
    <path d="M 71.245199 256.691774 
L -1335.111411 256.691774 
L -1335.111411 706.72589 
L 71.245199 706.72589 
z
" clip-path="url(#p0e82dda038)" style="fill: #ffffff; stroke: #ffffff; stroke-width: 1.5; stroke-linejoin: miter"/>
   </g>
   <g id="line2d_9">
    <path d="M 219.756457 116.056113 
L 219.756457 59.801849 
" clip-path="url(#p0e82dda038)" style="fill: none; stroke: #002d9c; stroke-width: 2; stroke-linecap: square"/>
   </g>
   <g id="line2d_10">
    <path d="M 388.51925 116.056113 
L 388.51925 59.801849 
" clip-path="url(#p0e82dda038)" style="fill: none; stroke: #002d9c; stroke-width: 2; stroke-linecap: square"/>
   </g>
   <g id="line2d_11">
    <path d="M 557.282043 172.310378 
L 557.282043 59.801849 
" clip-path="url(#p0e82dda038)" style="fill: none; stroke: #002d9c; stroke-width: 2; stroke-linecap: square"/>
   </g>
   <g id="line2d_12">
    <path d="M 726.044836 172.310378 
L 726.044836 116.056113 
" clip-path="url(#p0e82dda038)" style="fill: none; stroke: #002d9c; stroke-width: 2; stroke-linecap: square"/>
   </g>
   <g id="line2d_13">
    <path d="M 894.80763 172.310378 
L 894.80763 59.801849 
" clip-path="url(#p0e82dda038)" style="fill: none; stroke: #002d9c; stroke-width: 2; stroke-linecap: square"/>
   </g>
   <g id="line2d_14">
    <path d="M 1063.570423 172.310378 
L 1063.570423 116.056113 
" clip-path="url(#p0e82dda038)" style="fill: none; stroke: #002d9c; stroke-width: 2; stroke-linecap: square"/>
   </g>
   <g id="line2d_15">
    <path d="M 1232.333216 172.310378 
L 1232.333216 59.801849 
" clip-path="url(#p0e82dda038)" style="fill: none; stroke: #002d9c; stroke-width: 2; stroke-linecap: square"/>
   </g>
   <g id="line2d_16">
    <path d="M 1401.096009 172.310378 
L 1401.096009 116.056113 
" clip-path="url(#p0e82dda038)" style="fill: none; stroke: #002d9c; stroke-width: 2; stroke-linecap: square"/>
   </g>
   <g id="line2d_17">
    <path d="M 219.756457 397.327435 
L 219.756457 284.818907 
" clip-path="url(#p0e82dda038)" style="fill: none; stroke: #002d9c; stroke-width: 2; stroke-linecap: square"/>
   </g>
   <g id="line2d_18">
    <path d="M 388.51925 341.073171 
L 388.51925 284.818907 
" clip-path="url(#p0e82dda038)" style="fill: none; stroke: #002d9c; stroke-width: 2; stroke-linecap: square"/>
   </g>
   <g id="line2d_19">
    <path d="M 557.282043 341.073171 
L 557.282043 284.818907 
" clip-path="url(#p0e82dda038)" style="fill: none; stroke: #002d9c; stroke-width: 2; stroke-linecap: square"/>
   </g>
   <g id="line2d_20">
    <path d="M 726.044836 397.327435 
L 726.044836 284.818907 
" clip-path="url(#p0e82dda038)" style="fill: none; stroke: #002d9c; stroke-width: 2; stroke-linecap: square"/>
   </g>
   <g id="line2d_21">
    <path d="M 894.80763 397.327435 
L 894.80763 341.073171 
" clip-path="url(#p0e82dda038)" style="fill: none; stroke: #002d9c; stroke-width: 2; stroke-linecap: square"/>
   </g>
   <g id="line2d_22">
    <path d="M 1063.570423 397.327435 
L 1063.570423 284.818907 
" clip-path="url(#p0e82dda038)" style="fill: none; stroke: #002d9c; stroke-width: 2; stroke-linecap: square"/>
   </g>
   <g id="line2d_23">
    <path d="M 1232.333216 397.327435 
L 1232.333216 341.073171 
" clip-path="url(#p0e82dda038)" style="fill: none; stroke: #002d9c; stroke-width: 2; stroke-linecap: square"/>
   </g>
   <g id="patch_4">
    <path d="M 97.580633 78.084485 
L 173.169488 78.084485 
L 173.169488 41.519213 
L 97.580633 41.519213 
z
" clip-path="url(#p0e82dda038)" style="fill: #9f1853; stroke: #9f1853; stroke-width: 1.5; stroke-linejoin: miter"/>
   </g>
   <g id="patch_5">
    <path d="M 100.446787 134.338749 
L 170.303333 134.338749 
L 170.303333 97.773477 
L 100.446787 97.773477 
z
" clip-path="url(#p0e82dda038)" style="fill: #9f1853; stroke: #9f1853; stroke-width: 1.5; stroke-linejoin: miter"/>
   </g>
   <g id="patch_6">
    <path d="M 97.521566 190.593014 
L 173.228555 190.593014 
L 173.228555 154.027742 
L 97.521566 154.027742 
z
" clip-path="url(#p0e82dda038)" style="fill: #9f1853; stroke: #9f1853; stroke-width: 1.5; stroke-linejoin: miter"/>
   </g>
   <g id="patch_7">
    <path d="M 219.756457 65.28664 
C 221.21104 65.28664 222.606244 64.708728 223.63479 63.680182 
C 224.663335 62.651636 225.241248 61.256433 225.241248 59.801849 
C 225.241248 58.347266 224.663335 56.952062 223.63479 55.923516 
C 222.606244 54.89497 221.21104 54.317058 219.756457 54.317058 
C 218.301873 54.317058 216.90667 54.89497 215.878124 55.923516 
C 214.849578 56.952062 214.271666 58.347266 214.271666 59.801849 
C 214.271666 61.256433 214.849578 62.651636 215.878124 63.680182 
C 216.90667 64.708728 218.301873 65.28664 219.756457 65.28664 
z
" clip-path="url(#p0e82dda038)" style="fill: #002d9c; stroke: #002d9c; stroke-width: 1.5; stroke-linejoin: miter"/>
   </g>
   <g id="patch_8">
    <path d="M 219.756457 128.853959 
C 223.150485 128.853959 226.40596 127.505497 228.8059 125.105557 
C 231.20584 122.705616 232.554302 119.450142 232.554302 116.056113 
C 232.554302 112.662085 231.20584 109.406611 228.8059 107.00667 
C 226.40596 104.60673 223.150485 103.258268 219.756457 103.258268 
C 216.362429 103.258268 213.106954 104.60673 210.707014 107.00667 
C 208.307073 109.406611 206.958612 112.662085 206.958612 116.056113 
C 206.958612 119.450142 208.307073 122.705616 210.707014 125.105557 
C 213.106954 127.505497 216.362429 128.853959 219.756457 128.853959 
z
" clip-path="url(#p0e82dda038)" style="fill: #002d9c; stroke: #002d9c; stroke-width: 2; stroke-linejoin: miter"/>
   </g>
   <g id="patch_9">
    <path d="M 278.353711 78.084485 
L 329.921995 78.084485 
L 329.921995 41.519213 
L 278.353711 41.519213 
z
" clip-path="url(#p0e82dda038)" style="fill: #9f1853; stroke: #9f1853; stroke-width: 1.5; stroke-linejoin: miter"/>
   </g>
   <g id="patch_10">
    <path d="M 258.192183 134.338749 
L 350.083524 134.338749 
L 350.083524 97.773477 
L 258.192183 97.773477 
z
" clip-path="url(#p0e82dda038)" style="fill: #9f1853; stroke: #9f1853; stroke-width: 1.5; stroke-linejoin: miter"/>
   </g>
   <g id="patch_11">
    <path d="M 388.51925 65.28664 
C 389.973833 65.28664 391.369037 64.708728 392.397583 63.680182 
C 393.426129 62.651636 394.004041 61.256433 394.004041 59.801849 
C 394.004041 58.347266 393.426129 56.952062 392.397583 55.923516 
C 391.369037 54.89497 389.973833 54.317058 388.51925 54.317058 
C 387.064666 54.317058 385.669463 54.89497 384.640917 55.923516 
C 383.612371 56.952062 383.034459 58.347266 383.034459 59.801849 
C 383.034459 61.256433 383.612371 62.651636 384.640917 63.680182 
C 385.669463 64.708728 387.064666 65.28664 388.51925 65.28664 
z
" clip-path="url(#p0e82dda038)" style="fill: #002d9c; stroke: #002d9c; stroke-width: 1.5; stroke-linejoin: miter"/>
   </g>
   <g id="patch_12">
    <path d="M 388.51925 128.853959 
C 391.913278 128.853959 395.168753 127.505497 397.568693 125.105557 
C 399.968633 122.705616 401.317095 119.450142 401.317095 116.056113 
C 401.317095 112.662085 399.968633 109.406611 397.568693 107.00667 
C 395.168753 104.60673 391.913278 103.258268 388.51925 103.258268 
C 385.125222 103.258268 381.869747 104.60673 379.469807 107.00667 
C 377.069867 109.406611 375.721405 112.662085 375.721405 116.056113 
C 375.721405 119.450142 377.069867 122.705616 379.469807 125.105557 
C 381.869747 127.505497 385.125222 128.853959 388.51925 128.853959 
z
" clip-path="url(#p0e82dda038)" style="fill: #002d9c; stroke: #002d9c; stroke-width: 2; stroke-linejoin: miter"/>
   </g>
   <g id="patch_13">
    <path d="M 440.200043 78.084485 
L 505.60125 78.084485 
L 505.60125 41.519213 
L 440.200043 41.519213 
z
" clip-path="url(#p0e82dda038)" style="fill: #9f1853; stroke: #9f1853; stroke-width: 1.5; stroke-linejoin: miter"/>
   </g>
   <g id="patch_14">
    <path d="M 434.988085 134.338749 
L 510.813208 134.338749 
L 510.813208 97.773477 
L 434.988085 97.773477 
z
" clip-path="url(#p0e82dda038)" style="fill: #9f1853; stroke: #9f1853; stroke-width: 1.5; stroke-linejoin: miter"/>
   </g>
   <g id="patch_15">
    <path d="M 557.282043 65.28664 
C 558.736627 65.28664 560.13183 64.708728 561.160376 63.680182 
C 562.188922 62.651636 562.766834 61.256433 562.766834 59.801849 
C 562.766834 58.347266 562.188922 56.952062 561.160376 55.923516 
C 560.13183 54.89497 558.736627 54.317058 557.282043 54.317058 
C 555.82746 54.317058 554.432256 54.89497 553.40371 55.923516 
C 552.375165 56.952062 551.797252 58.347266 551.797252 59.801849 
C 551.797252 61.256433 552.375165 62.651636 553.40371 63.680182 
C 554.432256 64.708728 555.82746 65.28664 557.282043 65.28664 
z
" clip-path="url(#p0e82dda038)" style="fill: #002d9c; stroke: #002d9c; stroke-width: 1.5; stroke-linejoin: miter"/>
   </g>
   <g id="patch_16">
    <path d="M 557.282043 185.108223 
C 560.676071 185.108223 563.931546 183.759761 566.331486 181.359821 
C 568.731427 178.959881 570.079888 175.704406 570.079888 172.310378 
C 570.079888 168.91635 568.731427 165.660875 566.331486 163.260935 
C 563.931546 160.860994 560.676071 159.512533 557.282043 159.512533 
C 553.888015 159.512533 550.63254 160.860994 548.2326 163.260935 
C 545.83266 165.660875 544.484198 168.91635 544.484198 172.310378 
C 544.484198 175.704406 545.83266 178.959881 548.2326 181.359821 
C 550.63254 183.759761 553.888015 185.108223 557.282043 185.108223 
z
" clip-path="url(#p0e82dda038)" style="fill: #002d9c; stroke: #002d9c; stroke-width: 2; stroke-linejoin: miter"/>
   </g>
   <g id="patch_17">
    <path d="M 610.310126 190.593014 
L 673.016754 190.593014 
L 673.016754 154.027742 
L 610.310126 154.027742 
z
" clip-path="url(#p0e82dda038)" style="fill: #9f1853; stroke: #9f1853; stroke-width: 1.5; stroke-linejoin: miter"/>
   </g>
   <g id="patch_18">
    <path d="M 726.044836 121.540904 
C 727.49942 121.540904 728.894623 120.962992 729.923169 119.934446 
C 730.951715 118.9059 731.529627 117.510697 731.529627 116.056113 
C 731.529627 114.60153 730.951715 113.206327 729.923169 112.177781 
C 728.894623 111.149235 727.49942 110.571323 726.044836 110.571323 
C 724.590253 110.571323 723.19505 111.149235 722.166504 112.177781 
C 721.137958 113.206327 720.560046 114.60153 720.560046 116.056113 
C 720.560046 117.510697 721.137958 118.9059 722.166504 119.934446 
C 723.19505 120.962992 724.590253 121.540904 726.044836 121.540904 
z
" clip-path="url(#p0e82dda038)" style="fill: #002d9c; stroke: #002d9c; stroke-width: 1.5; stroke-linejoin: miter"/>
   </g>
   <g id="patch_19">
    <path d="M 726.044836 185.108223 
C 729.438865 185.108223 732.694339 183.759761 735.094279 181.359821 
C 737.49422 178.959881 738.842682 175.704406 738.842682 172.310378 
C 738.842682 168.91635 737.49422 165.660875 735.094279 163.260935 
C 732.694339 160.860994 729.438865 159.512533 726.044836 159.512533 
C 722.650808 159.512533 719.395334 160.860994 716.995393 163.260935 
C 714.595453 165.660875 713.246991 168.91635 713.246991 172.310378 
C 713.246991 175.704406 714.595453 178.959881 716.995393 181.359821 
C 719.395334 183.759761 722.650808 185.108223 726.044836 185.108223 
z
" clip-path="url(#p0e82dda038)" style="fill: #002d9c; stroke: #002d9c; stroke-width: 2; stroke-linejoin: miter"/>
   </g>
   <g id="patch_20">
    <path d="M 771.397024 190.593014 
L 849.455442 190.593014 
L 849.455442 154.027742 
L 771.397024 154.027742 
z
" clip-path="url(#p0e82dda038)" style="fill: #9f1853; stroke: #9f1853; stroke-width: 1.5; stroke-linejoin: miter"/>
   </g>
   <g id="patch_21">
    <path d="M 894.80763 65.28664 
C 896.262213 65.28664 897.657416 64.708728 898.685962 63.680182 
C 899.714508 62.651636 900.29242 61.256433 900.29242 59.801849 
C 900.29242 58.347266 899.714508 56.952062 898.685962 55.923516 
C 897.657416 54.89497 896.262213 54.317058 894.80763 54.317058 
C 893.353046 54.317058 891.957843 54.89497 890.929297 55.923516 
C 889.900751 56.952062 889.322839 58.347266 889.322839 59.801849 
C 889.322839 61.256433 889.900751 62.651636 890.929297 63.680182 
C 891.957843 64.708728 893.353046 65.28664 894.80763 65.28664 
z
" clip-path="url(#p0e82dda038)" style="fill: #002d9c; stroke: #002d9c; stroke-width: 1.5; stroke-linejoin: miter"/>
   </g>
   <g id="patch_22">
    <path d="M 894.80763 185.108223 
C 898.201658 185.108223 901.457132 183.759761 903.857073 181.359821 
C 906.257013 178.959881 907.605475 175.704406 907.605475 172.310378 
C 907.605475 168.91635 906.257013 165.660875 903.857073 163.260935 
C 901.457132 160.860994 898.201658 159.512533 894.80763 159.512533 
C 891.413601 159.512533 888.158127 160.860994 885.758187 163.260935 
C 883.358246 165.660875 882.009784 168.91635 882.009784 172.310378 
C 882.009784 175.704406 883.358246 178.959881 885.758187 181.359821 
C 888.158127 183.759761 891.413601 185.108223 894.80763 185.108223 
z
" clip-path="url(#p0e82dda038)" style="fill: #002d9c; stroke: #002d9c; stroke-width: 2; stroke-linejoin: miter"/>
   </g>
   <g id="patch_23">
    <path d="M 947.776645 190.593014 
L 1010.601407 190.593014 
L 1010.601407 154.027742 
L 947.776645 154.027742 
z
" clip-path="url(#p0e82dda038)" style="fill: #9f1853; stroke: #9f1853; stroke-width: 1.5; stroke-linejoin: miter"/>
   </g>
   <g id="patch_24">
    <path d="M 1063.570423 121.540904 
C 1065.025006 121.540904 1066.42021 120.962992 1067.448756 119.934446 
C 1068.477301 118.9059 1069.055214 117.510697 1069.055214 116.056113 
C 1069.055214 114.60153 1068.477301 113.206327 1067.448756 112.177781 
C 1066.42021 111.149235 1065.025006 110.571323 1063.570423 110.571323 
C 1062.115839 110.571323 1060.720636 111.149235 1059.69209 112.177781 
C 1058.663544 113.206327 1058.085632 114.60153 1058.085632 116.056113 
C 1058.085632 117.510697 1058.663544 118.9059 1059.69209 119.934446 
C 1060.720636 120.962992 1062.115839 121.540904 1063.570423 121.540904 
z
" clip-path="url(#p0e82dda038)" style="fill: #002d9c; stroke: #002d9c; stroke-width: 1.5; stroke-linejoin: miter"/>
   </g>
   <g id="patch_25">
    <path d="M 1063.570423 185.108223 
C 1066.964451 185.108223 1070.219926 183.759761 1072.619866 181.359821 
C 1075.019806 178.959881 1076.368268 175.704406 1076.368268 172.310378 
C 1076.368268 168.91635 1075.019806 165.660875 1072.619866 163.260935 
C 1070.219926 160.860994 1066.964451 159.512533 1063.570423 159.512533 
C 1060.176395 159.512533 1056.92092 160.860994 1054.52098 163.260935 
C 1052.121039 165.660875 1050.772578 168.91635 1050.772578 172.310378 
C 1050.772578 175.704406 1052.121039 178.959881 1054.52098 181.359821 
C 1056.92092 183.759761 1060.176395 185.108223 1063.570423 185.108223 
z
" clip-path="url(#p0e82dda038)" style="fill: #002d9c; stroke: #002d9c; stroke-width: 2; stroke-linejoin: miter"/>
   </g>
   <g id="patch_26">
    <path d="M 1119.239643 190.593014 
L 1176.663996 190.593014 
L 1176.663996 154.027742 
L 1119.239643 154.027742 
z
" clip-path="url(#p0e82dda038)" style="fill: #9f1853; stroke: #9f1853; stroke-width: 1.5; stroke-linejoin: miter"/>
   </g>
   <g id="patch_27">
    <path d="M 1232.333216 65.28664 
C 1233.7878 65.28664 1235.183003 64.708728 1236.211549 63.680182 
C 1237.240095 62.651636 1237.818007 61.256433 1237.818007 59.801849 
C 1237.818007 58.347266 1237.240095 56.952062 1236.211549 55.923516 
C 1235.183003 54.89497 1233.7878 54.317058 1232.333216 54.317058 
C 1230.878633 54.317058 1229.483429 54.89497 1228.454883 55.923516 
C 1227.426337 56.952062 1226.848425 58.347266 1226.848425 59.801849 
C 1226.848425 61.256433 1227.426337 62.651636 1228.454883 63.680182 
C 1229.483429 64.708728 1230.878633 65.28664 1232.333216 65.28664 
z
" clip-path="url(#p0e82dda038)" style="fill: #002d9c; stroke: #002d9c; stroke-width: 1.5; stroke-linejoin: miter"/>
   </g>
   <g id="patch_28">
    <path d="M 1232.333216 185.108223 
C 1235.727244 185.108223 1238.982719 183.759761 1241.382659 181.359821 
C 1243.782599 178.959881 1245.131061 175.704406 1245.131061 172.310378 
C 1245.131061 168.91635 1243.782599 165.660875 1241.382659 163.260935 
C 1238.982719 160.860994 1235.727244 159.512533 1232.333216 159.512533 
C 1228.939188 159.512533 1225.683713 160.860994 1223.283773 163.260935 
C 1220.883833 165.660875 1219.535371 168.91635 1219.535371 172.310378 
C 1219.535371 175.704406 1220.883833 178.959881 1223.283773 181.359821 
C 1225.683713 183.759761 1228.939188 185.108223 1232.333216 185.108223 
z
" clip-path="url(#p0e82dda038)" style="fill: #002d9c; stroke: #002d9c; stroke-width: 2; stroke-linejoin: miter"/>
   </g>
   <g id="patch_29">
    <path d="M 1288.702802 190.593014 
L 1344.726424 190.593014 
L 1344.726424 154.027742 
L 1288.702802 154.027742 
z
" clip-path="url(#p0e82dda038)" style="fill: #9f1853; stroke: #9f1853; stroke-width: 1.5; stroke-linejoin: miter"/>
   </g>
   <g id="patch_30">
    <path d="M 1401.096009 121.540904 
C 1402.550593 121.540904 1403.945796 120.962992 1404.974342 119.934446 
C 1406.002888 118.9059 1406.5808 117.510697 1406.5808 116.056113 
C 1406.5808 114.60153 1406.002888 113.206327 1404.974342 112.177781 
C 1403.945796 111.149235 1402.550593 110.571323 1401.096009 110.571323 
C 1399.641426 110.571323 1398.246222 111.149235 1397.217676 112.177781 
C 1396.189131 113.206327 1395.611218 114.60153 1395.611218 116.056113 
C 1395.611218 117.510697 1396.189131 118.9059 1397.217676 119.934446 
C 1398.246222 120.962992 1399.641426 121.540904 1401.096009 121.540904 
z
" clip-path="url(#p0e82dda038)" style="fill: #002d9c; stroke: #002d9c; stroke-width: 1.5; stroke-linejoin: miter"/>
   </g>
   <g id="patch_31">
    <path d="M 1401.096009 185.108223 
C 1404.490037 185.108223 1407.745512 183.759761 1410.145452 181.359821 
C 1412.545393 178.959881 1413.893854 175.704406 1413.893854 172.310378 
C 1413.893854 168.91635 1412.545393 165.660875 1410.145452 163.260935 
C 1407.745512 160.860994 1404.490037 159.512533 1401.096009 159.512533 
C 1397.701981 159.512533 1394.446507 160.860994 1392.046566 163.260935 
C 1389.646626 165.660875 1388.298164 168.91635 1388.298164 172.310378 
C 1388.298164 175.704406 1389.646626 178.959881 1392.046566 181.359821 
C 1394.446507 183.759761 1397.701981 185.108223 1401.096009 185.108223 
z
" clip-path="url(#p0e82dda038)" style="fill: #002d9c; stroke: #002d9c; stroke-width: 2; stroke-linejoin: miter"/>
   </g>
   <g id="patch_32">
    <path d="M 94.351638 359.355807 
L 176.398482 359.355807 
L 176.398482 322.790535 
L 94.351638 322.790535 
z
" clip-path="url(#p0e82dda038)" style="fill: #9f1853; stroke: #9f1853; stroke-width: 1.5; stroke-linejoin: miter"/>
   </g>
   <g id="patch_33">
    <path d="M 100.73931 415.610071 
L 170.010811 415.610071 
L 170.010811 379.0448 
L 100.73931 379.0448 
z
" clip-path="url(#p0e82dda038)" style="fill: #9f1853; stroke: #9f1853; stroke-width: 1.5; stroke-linejoin: miter"/>
   </g>
   <g id="patch_34">
    <path d="M 219.756457 290.303697 
C 221.21104 290.303697 222.606244 289.725785 223.63479 288.697239 
C 224.663335 287.668694 225.241248 286.27349 225.241248 284.818907 
C 225.241248 283.364323 224.663335 281.96912 223.63479 280.940574 
C 222.606244 279.912028 221.21104 279.334116 219.756457 279.334116 
C 218.301873 279.334116 216.90667 279.912028 215.878124 280.940574 
C 214.849578 281.96912 214.271666 283.364323 214.271666 284.818907 
C 214.271666 286.27349 214.849578 287.668694 215.878124 288.697239 
C 216.90667 289.725785 218.301873 290.303697 219.756457 290.303697 
z
" clip-path="url(#p0e82dda038)" style="fill: #002d9c; stroke: #002d9c; stroke-width: 1.5; stroke-linejoin: miter"/>
   </g>
   <g id="patch_35">
    <path d="M 219.756457 410.125281 
C 223.150485 410.125281 226.40596 408.776819 228.8059 406.376879 
C 231.20584 403.976938 232.554302 400.721464 232.554302 397.327435 
C 232.554302 393.933407 231.20584 390.677933 228.8059 388.277992 
C 226.40596 385.878052 223.150485 384.52959 219.756457 384.52959 
C 216.362429 384.52959 213.106954 385.878052 210.707014 388.277992 
C 208.307073 390.677933 206.958612 393.933407 206.958612 397.327435 
C 206.958612 400.721464 208.307073 403.976938 210.707014 406.376879 
C 213.106954 408.776819 216.362429 410.125281 219.756457 410.125281 
z
" clip-path="url(#p0e82dda038)" style="fill: #002d9c; stroke: #002d9c; stroke-width: 2; stroke-linejoin: miter"/>
   </g>
   <g id="patch_36">
    <path d="M 262.354998 303.101543 
L 345.920708 303.101543 
L 345.920708 266.536271 
L 262.354998 266.536271 
z
" clip-path="url(#p0e82dda038)" style="fill: #9f1853; stroke: #9f1853; stroke-width: 1.5; stroke-linejoin: miter"/>
   </g>
   <g id="patch_37">
    <path d="M 263.938556 415.610071 
L 344.337151 415.610071 
L 344.337151 379.0448 
L 263.938556 379.0448 
z
" clip-path="url(#p0e82dda038)" style="fill: #9f1853; stroke: #9f1853; stroke-width: 1.5; stroke-linejoin: miter"/>
   </g>
   <g id="patch_38">
    <path d="M 388.51925 290.303697 
C 389.973833 290.303697 391.369037 289.725785 392.397583 288.697239 
C 393.426129 287.668694 394.004041 286.27349 394.004041 284.818907 
C 394.004041 283.364323 393.426129 281.96912 392.397583 280.940574 
C 391.369037 279.912028 389.973833 279.334116 388.51925 279.334116 
C 387.064666 279.334116 385.669463 279.912028 384.640917 280.940574 
C 383.612371 281.96912 383.034459 283.364323 383.034459 284.818907 
C 383.034459 286.27349 383.612371 287.668694 384.640917 288.697239 
C 385.669463 289.725785 387.064666 290.303697 388.51925 290.303697 
z
" clip-path="url(#p0e82dda038)" style="fill: #002d9c; stroke: #002d9c; stroke-width: 1.5; stroke-linejoin: miter"/>
   </g>
   <g id="patch_39">
    <path d="M 388.51925 353.871016 
C 391.913278 353.871016 395.168753 352.522554 397.568693 350.122614 
C 399.968633 347.722674 401.317095 344.467199 401.317095 341.073171 
C 401.317095 337.679143 399.968633 334.423668 397.568693 332.023728 
C 395.168753 329.623788 391.913278 328.275326 388.51925 328.275326 
C 385.125222 328.275326 381.869747 329.623788 379.469807 332.023728 
C 377.069867 334.423668 375.721405 337.679143 375.721405 341.073171 
C 375.721405 344.467199 377.069867 347.722674 379.469807 350.122614 
C 381.869747 352.522554 385.125222 353.871016 388.51925 353.871016 
z
" clip-path="url(#p0e82dda038)" style="fill: #002d9c; stroke: #002d9c; stroke-width: 2; stroke-linejoin: miter"/>
   </g>
   <g id="patch_40">
    <path d="M 447.116504 303.101543 
L 498.684789 303.101543 
L 498.684789 266.536271 
L 447.116504 266.536271 
z
" clip-path="url(#p0e82dda038)" style="fill: #9f1853; stroke: #9f1853; stroke-width: 1.5; stroke-linejoin: miter"/>
   </g>
   <g id="patch_41">
    <path d="M 426.954976 359.355807 
L 518.846317 359.355807 
L 518.846317 322.790535 
L 426.954976 322.790535 
z
" clip-path="url(#p0e82dda038)" style="fill: #9f1853; stroke: #9f1853; stroke-width: 1.5; stroke-linejoin: miter"/>
   </g>
   <g id="patch_42">
    <path d="M 557.282043 290.303697 
C 558.736627 290.303697 560.13183 289.725785 561.160376 288.697239 
C 562.188922 287.668694 562.766834 286.27349 562.766834 284.818907 
C 562.766834 283.364323 562.188922 281.96912 561.160376 280.940574 
C 560.13183 279.912028 558.736627 279.334116 557.282043 279.334116 
C 555.82746 279.334116 554.432256 279.912028 553.40371 280.940574 
C 552.375165 281.96912 551.797252 283.364323 551.797252 284.818907 
C 551.797252 286.27349 552.375165 287.668694 553.40371 288.697239 
C 554.432256 289.725785 555.82746 290.303697 557.282043 290.303697 
z
" clip-path="url(#p0e82dda038)" style="fill: #002d9c; stroke: #002d9c; stroke-width: 1.5; stroke-linejoin: miter"/>
   </g>
   <g id="patch_43">
    <path d="M 557.282043 353.871016 
C 560.676071 353.871016 563.931546 352.522554 566.331486 350.122614 
C 568.731427 347.722674 570.079888 344.467199 570.079888 341.073171 
C 570.079888 337.679143 568.731427 334.423668 566.331486 332.023728 
C 563.931546 329.623788 560.676071 328.275326 557.282043 328.275326 
C 553.888015 328.275326 550.63254 329.623788 548.2326 332.023728 
C 545.83266 334.423668 544.484198 337.679143 544.484198 341.073171 
C 544.484198 344.467199 545.83266 347.722674 548.2326 350.122614 
C 550.63254 352.522554 553.888015 353.871016 557.282043 353.871016 
z
" clip-path="url(#p0e82dda038)" style="fill: #002d9c; stroke: #002d9c; stroke-width: 2; stroke-linejoin: miter"/>
   </g>
   <g id="patch_44">
    <path d="M 598.769563 303.101543 
L 684.557316 303.101543 
L 684.557316 266.536271 
L 598.769563 266.536271 
z
" clip-path="url(#p0e82dda038)" style="fill: #9f1853; stroke: #9f1853; stroke-width: 1.5; stroke-linejoin: miter"/>
   </g>
   <g id="patch_45">
    <path d="M 592.964123 359.355807 
L 690.362756 359.355807 
L 690.362756 322.790535 
L 592.964123 322.790535 
z
" clip-path="url(#p0e82dda038)" style="fill: #9f1853; stroke: #9f1853; stroke-width: 1.5; stroke-linejoin: miter"/>
   </g>
   <g id="patch_46">
    <path d="M 726.044836 290.303697 
C 727.49942 290.303697 728.894623 289.725785 729.923169 288.697239 
C 730.951715 287.668694 731.529627 286.27349 731.529627 284.818907 
C 731.529627 283.364323 730.951715 281.96912 729.923169 280.940574 
C 728.894623 279.912028 727.49942 279.334116 726.044836 279.334116 
C 724.590253 279.334116 723.19505 279.912028 722.166504 280.940574 
C 721.137958 281.96912 720.560046 283.364323 720.560046 284.818907 
C 720.560046 286.27349 721.137958 287.668694 722.166504 288.697239 
C 723.19505 289.725785 724.590253 290.303697 726.044836 290.303697 
z
" clip-path="url(#p0e82dda038)" style="fill: #002d9c; stroke: #002d9c; stroke-width: 1.5; stroke-linejoin: miter"/>
   </g>
   <g id="patch_47">
    <path d="M 726.044836 410.125281 
C 729.438865 410.125281 732.694339 408.776819 735.094279 406.376879 
C 737.49422 403.976938 738.842682 400.721464 738.842682 397.327435 
C 738.842682 393.933407 737.49422 390.677933 735.094279 388.277992 
C 732.694339 385.878052 729.438865 384.52959 726.044836 384.52959 
C 722.650808 384.52959 719.395334 385.878052 716.995393 388.277992 
C 714.595453 390.677933 713.246991 393.933407 713.246991 397.327435 
C 713.246991 400.721464 714.595453 403.976938 716.995393 406.376879 
C 719.395334 408.776819 722.650808 410.125281 726.044836 410.125281 
z
" clip-path="url(#p0e82dda038)" style="fill: #002d9c; stroke: #002d9c; stroke-width: 2; stroke-linejoin: miter"/>
   </g>
   <g id="patch_48">
    <path d="M 775.790482 415.610071 
L 845.061984 415.610071 
L 845.061984 379.0448 
L 775.790482 379.0448 
z
" clip-path="url(#p0e82dda038)" style="fill: #9f1853; stroke: #9f1853; stroke-width: 1.5; stroke-linejoin: miter"/>
   </g>
   <g id="patch_49">
    <path d="M 894.80763 346.557962 
C 896.262213 346.557962 897.657416 345.98005 898.685962 344.951504 
C 899.714508 343.922958 900.29242 342.527755 900.29242 341.073171 
C 900.29242 339.618588 899.714508 338.223384 898.685962 337.194838 
C 897.657416 336.166292 896.262213 335.58838 894.80763 335.58838 
C 893.353046 335.58838 891.957843 336.166292 890.929297 337.194838 
C 889.900751 338.223384 889.322839 339.618588 889.322839 341.073171 
C 889.322839 342.527755 889.900751 343.922958 890.929297 344.951504 
C 891.957843 345.98005 893.353046 346.557962 894.80763 346.557962 
z
" clip-path="url(#p0e82dda038)" style="fill: #002d9c; stroke: #002d9c; stroke-width: 1.5; stroke-linejoin: miter"/>
   </g>
   <g id="patch_50">
    <path d="M 894.80763 410.125281 
C 898.201658 410.125281 901.457132 408.776819 903.857073 406.376879 
C 906.257013 403.976938 907.605475 400.721464 907.605475 397.327435 
C 907.605475 393.933407 906.257013 390.677933 903.857073 388.277992 
C 901.457132 385.878052 898.201658 384.52959 894.80763 384.52959 
C 891.413601 384.52959 888.158127 385.878052 885.758187 388.277992 
C 883.358246 390.677933 882.009784 393.933407 882.009784 397.327435 
C 882.009784 400.721464 883.358246 403.976938 885.758187 406.376879 
C 888.158127 408.776819 891.413601 410.125281 894.80763 410.125281 
z
" clip-path="url(#p0e82dda038)" style="fill: #002d9c; stroke: #002d9c; stroke-width: 2; stroke-linejoin: miter"/>
   </g>
   <g id="patch_51">
    <path d="M 950.125261 415.610071 
L 1008.252792 415.610071 
L 1008.252792 379.0448 
L 950.125261 379.0448 
z
" clip-path="url(#p0e82dda038)" style="fill: #9f1853; stroke: #9f1853; stroke-width: 1.5; stroke-linejoin: miter"/>
   </g>
   <g id="patch_52">
    <path d="M 1063.570423 290.303697 
C 1065.025006 290.303697 1066.42021 289.725785 1067.448756 288.697239 
C 1068.477301 287.668694 1069.055214 286.27349 1069.055214 284.818907 
C 1069.055214 283.364323 1068.477301 281.96912 1067.448756 280.940574 
C 1066.42021 279.912028 1065.025006 279.334116 1063.570423 279.334116 
C 1062.115839 279.334116 1060.720636 279.912028 1059.69209 280.940574 
C 1058.663544 281.96912 1058.085632 283.364323 1058.085632 284.818907 
C 1058.085632 286.27349 1058.663544 287.668694 1059.69209 288.697239 
C 1060.720636 289.725785 1062.115839 290.303697 1063.570423 290.303697 
z
" clip-path="url(#p0e82dda038)" style="fill: #002d9c; stroke: #002d9c; stroke-width: 1.5; stroke-linejoin: miter"/>
   </g>
   <g id="patch_53">
    <path d="M 1063.570423 410.125281 
C 1066.964451 410.125281 1070.219926 408.776819 1072.619866 406.376879 
C 1075.019806 403.976938 1076.368268 400.721464 1076.368268 397.327435 
C 1076.368268 393.933407 1075.019806 390.677933 1072.619866 388.277992 
C 1070.219926 385.878052 1066.964451 384.52959 1063.570423 384.52959 
C 1060.176395 384.52959 1056.92092 385.878052 1054.52098 388.277992 
C 1052.121039 390.677933 1050.772578 393.933407 1050.772578 397.327435 
C 1050.772578 400.721464 1052.121039 403.976938 1054.52098 406.376879 
C 1056.92092 408.776819 1060.176395 410.125281 1063.570423 410.125281 
z
" clip-path="url(#p0e82dda038)" style="fill: #002d9c; stroke: #002d9c; stroke-width: 2; stroke-linejoin: miter"/>
   </g>
   <g id="patch_54">
    <path d="M 1116.598505 415.610071 
L 1179.305134 415.610071 
L 1179.305134 379.0448 
L 1116.598505 379.0448 
z
" clip-path="url(#p0e82dda038)" style="fill: #9f1853; stroke: #9f1853; stroke-width: 1.5; stroke-linejoin: miter"/>
   </g>
   <g id="patch_55">
    <path d="M 1232.333216 346.557962 
C 1233.7878 346.557962 1235.183003 345.98005 1236.211549 344.951504 
C 1237.240095 343.922958 1237.818007 342.527755 1237.818007 341.073171 
C 1237.818007 339.618588 1237.240095 338.223384 1236.211549 337.194838 
C 1235.183003 336.166292 1233.7878 335.58838 1232.333216 335.58838 
C 1230.878633 335.58838 1229.483429 336.166292 1228.454883 337.194838 
C 1227.426337 338.223384 1226.848425 339.618588 1226.848425 341.073171 
C 1226.848425 342.527755 1227.426337 343.922958 1228.454883 344.951504 
C 1229.483429 345.98005 1230.878633 346.557962 1232.333216 346.557962 
z
" clip-path="url(#p0e82dda038)" style="fill: #002d9c; stroke: #002d9c; stroke-width: 1.5; stroke-linejoin: miter"/>
   </g>
   <g id="patch_56">
    <path d="M 1232.333216 410.125281 
C 1235.727244 410.125281 1238.982719 408.776819 1241.382659 406.376879 
C 1243.782599 403.976938 1245.131061 400.721464 1245.131061 397.327435 
C 1245.131061 393.933407 1243.782599 390.677933 1241.382659 388.277992 
C 1238.982719 385.878052 1235.727244 384.52959 1232.333216 384.52959 
C 1228.939188 384.52959 1225.683713 385.878052 1223.283773 388.277992 
C 1220.883833 390.677933 1219.535371 393.933407 1219.535371 397.327435 
C 1219.535371 400.721464 1220.883833 403.976938 1223.283773 406.376879 
C 1225.683713 408.776819 1228.939188 410.125281 1232.333216 410.125281 
z
" clip-path="url(#p0e82dda038)" style="fill: #002d9c; stroke: #002d9c; stroke-width: 2; stroke-linejoin: miter"/>
   </g>
   <g id="line2d_24">
    <path d="M 219.756457 123.369168 
L 219.756457 108.743059 
" clip-path="url(#p0e82dda038)" style="fill: none; stroke: #ffffff; stroke-width: 2; stroke-linecap: square"/>
   </g>
   <g id="line2d_25">
    <path d="M 212.443402 116.056113 
L 227.069511 116.056113 
" clip-path="url(#p0e82dda038)" style="fill: none; stroke: #ffffff; stroke-width: 2; stroke-linecap: square"/>
   </g>
   <g id="line2d_26">
    <path d="M 388.51925 123.369168 
L 388.51925 108.743059 
" clip-path="url(#p0e82dda038)" style="fill: none; stroke: #ffffff; stroke-width: 2; stroke-linecap: square"/>
   </g>
   <g id="line2d_27">
    <path d="M 381.206196 116.056113 
L 395.832304 116.056113 
" clip-path="url(#p0e82dda038)" style="fill: none; stroke: #ffffff; stroke-width: 2; stroke-linecap: square"/>
   </g>
   <g id="line2d_28">
    <path d="M 557.282043 179.623432 
L 557.282043 164.997323 
" clip-path="url(#p0e82dda038)" style="fill: none; stroke: #ffffff; stroke-width: 2; stroke-linecap: square"/>
   </g>
   <g id="line2d_29">
    <path d="M 549.968989 172.310378 
L 564.595098 172.310378 
" clip-path="url(#p0e82dda038)" style="fill: none; stroke: #ffffff; stroke-width: 2; stroke-linecap: square"/>
   </g>
   <g id="line2d_30">
    <path d="M 726.044836 179.623432 
L 726.044836 164.997323 
" clip-path="url(#p0e82dda038)" style="fill: none; stroke: #ffffff; stroke-width: 2; stroke-linecap: square"/>
   </g>
   <g id="line2d_31">
    <path d="M 718.731782 172.310378 
L 733.357891 172.310378 
" clip-path="url(#p0e82dda038)" style="fill: none; stroke: #ffffff; stroke-width: 2; stroke-linecap: square"/>
   </g>
   <g id="line2d_32">
    <path d="M 894.80763 179.623432 
L 894.80763 164.997323 
" clip-path="url(#p0e82dda038)" style="fill: none; stroke: #ffffff; stroke-width: 2; stroke-linecap: square"/>
   </g>
   <g id="line2d_33">
    <path d="M 887.494575 172.310378 
L 902.120684 172.310378 
" clip-path="url(#p0e82dda038)" style="fill: none; stroke: #ffffff; stroke-width: 2; stroke-linecap: square"/>
   </g>
   <g id="line2d_34">
    <path d="M 1063.570423 179.623432 
L 1063.570423 164.997323 
" clip-path="url(#p0e82dda038)" style="fill: none; stroke: #ffffff; stroke-width: 2; stroke-linecap: square"/>
   </g>
   <g id="line2d_35">
    <path d="M 1056.257368 172.310378 
L 1070.883477 172.310378 
" clip-path="url(#p0e82dda038)" style="fill: none; stroke: #ffffff; stroke-width: 2; stroke-linecap: square"/>
   </g>
   <g id="line2d_36">
    <path d="M 1232.333216 179.623432 
L 1232.333216 164.997323 
" clip-path="url(#p0e82dda038)" style="fill: none; stroke: #ffffff; stroke-width: 2; stroke-linecap: square"/>
   </g>
   <g id="line2d_37">
    <path d="M 1225.020162 172.310378 
L 1239.64627 172.310378 
" clip-path="url(#p0e82dda038)" style="fill: none; stroke: #ffffff; stroke-width: 2; stroke-linecap: square"/>
   </g>
   <g id="line2d_38">
    <path d="M 1401.096009 179.623432 
L 1401.096009 164.997323 
" clip-path="url(#p0e82dda038)" style="fill: none; stroke: #ffffff; stroke-width: 2; stroke-linecap: square"/>
   </g>
   <g id="line2d_39">
    <path d="M 1393.782955 172.310378 
L 1408.409064 172.310378 
" clip-path="url(#p0e82dda038)" style="fill: none; stroke: #ffffff; stroke-width: 2; stroke-linecap: square"/>
   </g>
   <g id="line2d_40">
    <path d="M 219.756457 404.64049 
L 219.756457 390.014381 
" clip-path="url(#p0e82dda038)" style="fill: none; stroke: #ffffff; stroke-width: 2; stroke-linecap: square"/>
   </g>
   <g id="line2d_41">
    <path d="M 212.443402 397.327435 
L 227.069511 397.327435 
" clip-path="url(#p0e82dda038)" style="fill: none; stroke: #ffffff; stroke-width: 2; stroke-linecap: square"/>
   </g>
   <g id="line2d_42">
    <path d="M 388.51925 348.386225 
L 388.51925 333.760117 
" clip-path="url(#p0e82dda038)" style="fill: none; stroke: #ffffff; stroke-width: 2; stroke-linecap: square"/>
   </g>
   <g id="line2d_43">
    <path d="M 381.206196 341.073171 
L 395.832304 341.073171 
" clip-path="url(#p0e82dda038)" style="fill: none; stroke: #ffffff; stroke-width: 2; stroke-linecap: square"/>
   </g>
   <g id="line2d_44">
    <path d="M 557.282043 348.386225 
L 557.282043 333.760117 
" clip-path="url(#p0e82dda038)" style="fill: none; stroke: #ffffff; stroke-width: 2; stroke-linecap: square"/>
   </g>
   <g id="line2d_45">
    <path d="M 549.968989 341.073171 
L 564.595098 341.073171 
" clip-path="url(#p0e82dda038)" style="fill: none; stroke: #ffffff; stroke-width: 2; stroke-linecap: square"/>
   </g>
   <g id="line2d_46">
    <path d="M 726.044836 404.64049 
L 726.044836 390.014381 
" clip-path="url(#p0e82dda038)" style="fill: none; stroke: #ffffff; stroke-width: 2; stroke-linecap: square"/>
   </g>
   <g id="line2d_47">
    <path d="M 718.731782 397.327435 
L 733.357891 397.327435 
" clip-path="url(#p0e82dda038)" style="fill: none; stroke: #ffffff; stroke-width: 2; stroke-linecap: square"/>
   </g>
   <g id="line2d_48">
    <path d="M 894.80763 404.64049 
L 894.80763 390.014381 
" clip-path="url(#p0e82dda038)" style="fill: none; stroke: #ffffff; stroke-width: 2; stroke-linecap: square"/>
   </g>
   <g id="line2d_49">
    <path d="M 887.494575 397.327435 
L 902.120684 397.327435 
" clip-path="url(#p0e82dda038)" style="fill: none; stroke: #ffffff; stroke-width: 2; stroke-linecap: square"/>
   </g>
   <g id="line2d_50">
    <path d="M 1063.570423 404.64049 
L 1063.570423 390.014381 
" clip-path="url(#p0e82dda038)" style="fill: none; stroke: #ffffff; stroke-width: 2; stroke-linecap: square"/>
   </g>
   <g id="line2d_51">
    <path d="M 1056.257368 397.327435 
L 1070.883477 397.327435 
" clip-path="url(#p0e82dda038)" style="fill: none; stroke: #ffffff; stroke-width: 2; stroke-linecap: square"/>
   </g>
   <g id="line2d_52">
    <path d="M 1232.333216 404.64049 
L 1232.333216 390.014381 
" clip-path="url(#p0e82dda038)" style="fill: none; stroke: #ffffff; stroke-width: 2; stroke-linecap: square"/>
   </g>
   <g id="line2d_53">
    <path d="M 1225.020162 397.327435 
L 1239.64627 397.327435 
" clip-path="url(#p0e82dda038)" style="fill: none; stroke: #ffffff; stroke-width: 2; stroke-linecap: square"/>
   </g>
   <g id="text_2">
    <g clip-path="url(#p0e82dda038)">
     <!-- ${q}_{0}$ -->
     <g transform="translate(47.582272 64.252826) scale(0.1625 -0.1625)">
      <defs>
       <path id="DejaVuSans-Oblique-71" d="M 2669 525 
Q 2438 222 2123 65 
Q 1809 -91 1428 -91 
Q 897 -91 595 267 
Q 294 625 294 1253 
Q 294 1759 480 2231 
Q 666 2703 1013 3078 
Q 1238 3322 1530 3453 
Q 1822 3584 2144 3584 
Q 2531 3584 2781 3431 
Q 3031 3278 3144 2969 
L 3244 3494 
L 3822 3494 
L 2888 -1319 
L 2309 -1319 
L 2669 525 
z
M 891 1338 
Q 891 875 1084 633 
Q 1278 391 1644 391 
Q 2188 391 2572 911 
Q 2956 1431 2956 2175 
Q 2956 2625 2757 2864 
Q 2559 3103 2188 3103 
Q 1916 3103 1684 2976 
Q 1453 2850 1281 2606 
Q 1100 2350 995 2006 
Q 891 1663 891 1338 
z
" transform="scale(0.015625)"/>
      </defs>
      <use xlink:href="#DejaVuSans-Oblique-71"/>
      <use xlink:href="#DejaVuSans-30" transform="translate(63.476562 -16.40625) scale(0.7)"/>
     </g>
    </g>
   </g>
   <g id="text_3">
    <g clip-path="url(#p0e82dda038)">
     <!-- ${q}_{1}$ -->
     <g transform="translate(47.582272 120.50709) scale(0.1625 -0.1625)">
      <defs>
       <path id="DejaVuSans-31" d="M 794 531 
L 1825 531 
L 1825 4091 
L 703 3866 
L 703 4441 
L 1819 4666 
L 2450 4666 
L 2450 531 
L 3481 531 
L 3481 0 
L 794 0 
L 794 531 
z
" transform="scale(0.015625)"/>
      </defs>
      <use xlink:href="#DejaVuSans-Oblique-71"/>
      <use xlink:href="#DejaVuSans-31" transform="translate(63.476562 -16.40625) scale(0.7)"/>
     </g>
    </g>
   </g>
   <g id="text_4">
    <g clip-path="url(#p0e82dda038)">
     <!-- ${q}_{2}$ -->
     <g transform="translate(47.582272 176.761354) scale(0.1625 -0.1625)">
      <use xlink:href="#DejaVuSans-Oblique-71"/>
      <use xlink:href="#DejaVuSans-32" transform="translate(63.476562 -16.40625) scale(0.7)"/>
     </g>
    </g>
   </g>
   <g id="text_5">
    <g clip-path="url(#p0e82dda038)">
     <!-- ${q}_{0}$ -->
     <g transform="translate(47.582272 289.269883) scale(0.1625 -0.1625)">
      <use xlink:href="#DejaVuSans-Oblique-71"/>
      <use xlink:href="#DejaVuSans-30" transform="translate(63.476562 -16.40625) scale(0.7)"/>
     </g>
    </g>
   </g>
   <g id="text_6">
    <g clip-path="url(#p0e82dda038)">
     <!-- ${q}_{1}$ -->
     <g transform="translate(47.582272 345.524148) scale(0.1625 -0.1625)">
      <use xlink:href="#DejaVuSans-Oblique-71"/>
      <use xlink:href="#DejaVuSans-31" transform="translate(63.476562 -16.40625) scale(0.7)"/>
     </g>
    </g>
   </g>
   <g id="text_7">
    <g clip-path="url(#p0e82dda038)">
     <!-- ${q}_{2}$ -->
     <g transform="translate(47.582272 401.778412) scale(0.1625 -0.1625)">
      <use xlink:href="#DejaVuSans-Oblique-71"/>
      <use xlink:href="#DejaVuSans-32" transform="translate(63.476562 -16.40625) scale(0.7)"/>
     </g>
    </g>
   </g>
   <g id="text_8">
    <g clip-path="url(#p0e82dda038)">
     <!-- $\pi$/2, $-$1.57, $-$$\pi$ -->
     <g style="fill: #ffffff" transform="translate(106.37506 72.978931) scale(0.08 -0.08)">
      <defs>
       <path id="DejaVuSans-Oblique-3c0" d="M 584 3500 
L 3938 3500 
L 3825 2925 
L 3384 2925 
L 2966 775 
Q 2922 550 2981 450 
Q 3038 353 3209 353 
Q 3256 353 3325 363 
Q 3397 369 3419 372 
L 3338 -44 
Q 3222 -84 3103 -103 
Q 2981 -122 2866 -122 
Q 2491 -122 2388 81 
Q 2284 288 2391 838 
L 2797 2925 
L 1506 2925 
L 938 0 
L 350 0 
L 919 2925 
L 472 2925 
L 584 3500 
z
" transform="scale(0.015625)"/>
       <path id="DejaVuSans-2f" d="M 1625 4666 
L 2156 4666 
L 531 -594 
L 0 -594 
L 1625 4666 
z
" transform="scale(0.015625)"/>
       <path id="DejaVuSans-2c" d="M 750 794 
L 1409 794 
L 1409 256 
L 897 -744 
L 494 -744 
L 750 256 
L 750 794 
z
" transform="scale(0.015625)"/>
       <path id="DejaVuSans-2212" d="M 678 2272 
L 4684 2272 
L 4684 1741 
L 678 1741 
L 678 2272 
z
" transform="scale(0.015625)"/>
       <path id="DejaVuSans-37" d="M 525 4666 
L 3525 4666 
L 3525 4397 
L 1831 0 
L 1172 0 
L 2766 4134 
L 525 4134 
L 525 4666 
z
" transform="scale(0.015625)"/>
      </defs>
      <use xlink:href="#DejaVuSans-Oblique-3c0" transform="translate(0 0.78125)"/>
      <use xlink:href="#DejaVuSans-2f" transform="translate(60.205078 0.78125)"/>
      <use xlink:href="#DejaVuSans-32" transform="translate(90.271484 0.78125)"/>
      <use xlink:href="#DejaVuSans-2c" transform="translate(153.894531 0.78125)"/>
      <use xlink:href="#DejaVuSans-20" transform="translate(185.681641 0.78125)"/>
      <use xlink:href="#DejaVuSans-2212" transform="translate(217.46875 0.78125)"/>
      <use xlink:href="#DejaVuSans-31" transform="translate(301.257812 0.78125)"/>
      <use xlink:href="#DejaVuSans-2e" transform="translate(364.880859 0.78125)"/>
      <use xlink:href="#DejaVuSans-35" transform="translate(396.667969 0.78125)"/>
      <use xlink:href="#DejaVuSans-37" transform="translate(453.041016 0.78125)"/>
      <use xlink:href="#DejaVuSans-2c" transform="translate(516.664062 0.78125)"/>
      <use xlink:href="#DejaVuSans-20" transform="translate(548.451172 0.78125)"/>
      <use xlink:href="#DejaVuSans-2212" transform="translate(580.238281 0.78125)"/>
      <use xlink:href="#DejaVuSans-Oblique-3c0" transform="translate(664.027344 0.78125)"/>
     </g>
    </g>
   </g>
   <g id="text_9">
    <g clip-path="url(#p0e82dda038)">
     <!-- $\mathrm{U_3}$ -->
     <g style="fill: #ffffff" transform="translate(127.44506 57.904246) scale(0.13 -0.13)">
      <defs>
       <path id="DejaVuSans-55" d="M 556 4666 
L 1191 4666 
L 1191 1831 
Q 1191 1081 1462 751 
Q 1734 422 2344 422 
Q 2950 422 3222 751 
Q 3494 1081 3494 1831 
L 3494 4666 
L 4128 4666 
L 4128 1753 
Q 4128 841 3676 375 
Q 3225 -91 2344 -91 
Q 1459 -91 1007 375 
Q 556 841 556 1753 
L 556 4666 
z
" transform="scale(0.015625)"/>
      </defs>
      <use xlink:href="#DejaVuSans-55" transform="translate(0 0.09375)"/>
      <use xlink:href="#DejaVuSans-33" transform="translate(74.150391 -16.3125) scale(0.7)"/>
     </g>
    </g>
   </g>
   <g id="text_10">
    <g clip-path="url(#p0e82dda038)">
     <!-- 1.12, 2.4, 2.7 -->
     <g style="fill: #ffffff" transform="translate(108.66131 129.233195) scale(0.08 -0.08)">
      <use xlink:href="#DejaVuSans-31"/>
      <use xlink:href="#DejaVuSans-2e" x="63.623047"/>
      <use xlink:href="#DejaVuSans-31" x="95.410156"/>
      <use xlink:href="#DejaVuSans-32" x="159.033203"/>
      <use xlink:href="#DejaVuSans-2c" x="222.65625"/>
      <use xlink:href="#DejaVuSans-20" x="254.443359"/>
      <use xlink:href="#DejaVuSans-32" x="286.230469"/>
      <use xlink:href="#DejaVuSans-2e" x="349.853516"/>
      <use xlink:href="#DejaVuSans-34" x="381.640625"/>
      <use xlink:href="#DejaVuSans-2c" x="445.263672"/>
      <use xlink:href="#DejaVuSans-20" x="477.050781"/>
      <use xlink:href="#DejaVuSans-32" x="508.837891"/>
      <use xlink:href="#DejaVuSans-2e" x="572.460938"/>
      <use xlink:href="#DejaVuSans-37" x="604.248047"/>
     </g>
    </g>
   </g>
   <g id="text_11">
    <g clip-path="url(#p0e82dda038)">
     <!-- $\mathrm{U_3}$ -->
     <g style="fill: #ffffff" transform="translate(127.44506 114.15851) scale(0.13 -0.13)">
      <use xlink:href="#DejaVuSans-55" transform="translate(0 0.09375)"/>
      <use xlink:href="#DejaVuSans-33" transform="translate(74.150391 -16.3125) scale(0.7)"/>
     </g>
    </g>
   </g>
   <g id="text_12">
    <g clip-path="url(#p0e82dda038)">
     <!-- $\pi$/2, $-$2.54, $-$$\pi$ -->
     <g style="fill: #ffffff" transform="translate(106.09506 185.487459) scale(0.08 -0.08)">
      <use xlink:href="#DejaVuSans-Oblique-3c0" transform="translate(0 0.78125)"/>
      <use xlink:href="#DejaVuSans-2f" transform="translate(60.205078 0.78125)"/>
      <use xlink:href="#DejaVuSans-32" transform="translate(90.271484 0.78125)"/>
      <use xlink:href="#DejaVuSans-2c" transform="translate(153.894531 0.78125)"/>
      <use xlink:href="#DejaVuSans-20" transform="translate(185.681641 0.78125)"/>
      <use xlink:href="#DejaVuSans-2212" transform="translate(217.46875 0.78125)"/>
      <use xlink:href="#DejaVuSans-32" transform="translate(301.257812 0.78125)"/>
      <use xlink:href="#DejaVuSans-2e" transform="translate(364.880859 0.78125)"/>
      <use xlink:href="#DejaVuSans-35" transform="translate(396.667969 0.78125)"/>
      <use xlink:href="#DejaVuSans-34" transform="translate(460.291016 0.78125)"/>
      <use xlink:href="#DejaVuSans-2c" transform="translate(523.914062 0.78125)"/>
      <use xlink:href="#DejaVuSans-20" transform="translate(555.701172 0.78125)"/>
      <use xlink:href="#DejaVuSans-2212" transform="translate(587.488281 0.78125)"/>
      <use xlink:href="#DejaVuSans-Oblique-3c0" transform="translate(671.277344 0.78125)"/>
     </g>
    </g>
   </g>
   <g id="text_13">
    <g clip-path="url(#p0e82dda038)">
     <!-- $\mathrm{U_3}$ -->
     <g style="fill: #ffffff" transform="translate(127.44506 170.412775) scale(0.13 -0.13)">
      <use xlink:href="#DejaVuSans-55" transform="translate(0 0.09375)"/>
      <use xlink:href="#DejaVuSans-33" transform="translate(74.150391 -16.3125) scale(0.7)"/>
     </g>
    </g>
   </g>
   <g id="text_14">
    <g clip-path="url(#p0e82dda038)">
     <!-- $\pi$/2, 0, $\pi$/2 -->
     <g style="fill: #ffffff" transform="translate(284.177853 72.978931) scale(0.08 -0.08)">
      <use xlink:href="#DejaVuSans-Oblique-3c0" transform="translate(0 0.78125)"/>
      <use xlink:href="#DejaVuSans-2f" transform="translate(60.205078 0.78125)"/>
      <use xlink:href="#DejaVuSans-32" transform="translate(90.271484 0.78125)"/>
      <use xlink:href="#DejaVuSans-2c" transform="translate(153.894531 0.78125)"/>
      <use xlink:href="#DejaVuSans-20" transform="translate(185.681641 0.78125)"/>
      <use xlink:href="#DejaVuSans-30" transform="translate(217.46875 0.78125)"/>
      <use xlink:href="#DejaVuSans-2c" transform="translate(281.091797 0.78125)"/>
      <use xlink:href="#DejaVuSans-20" transform="translate(312.878906 0.78125)"/>
      <use xlink:href="#DejaVuSans-Oblique-3c0" transform="translate(344.666016 0.78125)"/>
      <use xlink:href="#DejaVuSans-2f" transform="translate(404.871094 0.78125)"/>
      <use xlink:href="#DejaVuSans-32" transform="translate(434.9375 0.78125)"/>
     </g>
    </g>
   </g>
   <g id="text_15">
    <g clip-path="url(#p0e82dda038)">
     <!-- $\mathrm{U_3}$ -->
     <g style="fill: #ffffff" transform="translate(296.207853 57.904246) scale(0.13 -0.13)">
      <use xlink:href="#DejaVuSans-55" transform="translate(0 0.09375)"/>
      <use xlink:href="#DejaVuSans-33" transform="translate(74.150391 -16.3125) scale(0.7)"/>
     </g>
    </g>
   </g>
   <g id="text_16">
    <g clip-path="url(#p0e82dda038)">
     <!-- 2.06, 2.75, $-$2.29 -->
     <g style="fill: #ffffff" transform="translate(269.577853 129.233195) scale(0.08 -0.08)">
      <use xlink:href="#DejaVuSans-32" transform="translate(0 0.78125)"/>
      <use xlink:href="#DejaVuSans-2e" transform="translate(63.623047 0.78125)"/>
      <use xlink:href="#DejaVuSans-30" transform="translate(95.410156 0.78125)"/>
      <use xlink:href="#DejaVuSans-36" transform="translate(159.033203 0.78125)"/>
      <use xlink:href="#DejaVuSans-2c" transform="translate(222.65625 0.78125)"/>
      <use xlink:href="#DejaVuSans-20" transform="translate(254.443359 0.78125)"/>
      <use xlink:href="#DejaVuSans-32" transform="translate(286.230469 0.78125)"/>
      <use xlink:href="#DejaVuSans-2e" transform="translate(349.853516 0.78125)"/>
      <use xlink:href="#DejaVuSans-37" transform="translate(373.890625 0.78125)"/>
      <use xlink:href="#DejaVuSans-35" transform="translate(437.513672 0.78125)"/>
      <use xlink:href="#DejaVuSans-2c" transform="translate(501.136719 0.78125)"/>
      <use xlink:href="#DejaVuSans-20" transform="translate(532.923828 0.78125)"/>
      <use xlink:href="#DejaVuSans-2212" transform="translate(564.710938 0.78125)"/>
      <use xlink:href="#DejaVuSans-32" transform="translate(648.5 0.78125)"/>
      <use xlink:href="#DejaVuSans-2e" transform="translate(712.123047 0.78125)"/>
      <use xlink:href="#DejaVuSans-32" transform="translate(738.410156 0.78125)"/>
      <use xlink:href="#DejaVuSans-39" transform="translate(800.283203 0.78125)"/>
     </g>
    </g>
   </g>
   <g id="text_17">
    <g clip-path="url(#p0e82dda038)">
     <!-- $\mathrm{U_3}$ -->
     <g style="fill: #ffffff" transform="translate(296.207853 114.15851) scale(0.13 -0.13)">
      <use xlink:href="#DejaVuSans-55" transform="translate(0 0.09375)"/>
      <use xlink:href="#DejaVuSans-33" transform="translate(74.150391 -16.3125) scale(0.7)"/>
     </g>
    </g>
   </g>
   <g id="text_18">
    <g clip-path="url(#p0e82dda038)">
     <!-- $\pi$/2, 0.763, 0 -->
     <g style="fill: #ffffff" transform="translate(447.940647 72.978931) scale(0.08 -0.08)">
      <use xlink:href="#DejaVuSans-Oblique-3c0" transform="translate(0 0.78125)"/>
      <use xlink:href="#DejaVuSans-2f" transform="translate(60.205078 0.78125)"/>
      <use xlink:href="#DejaVuSans-32" transform="translate(90.271484 0.78125)"/>
      <use xlink:href="#DejaVuSans-2c" transform="translate(153.894531 0.78125)"/>
      <use xlink:href="#DejaVuSans-20" transform="translate(185.681641 0.78125)"/>
      <use xlink:href="#DejaVuSans-30" transform="translate(217.46875 0.78125)"/>
      <use xlink:href="#DejaVuSans-2e" transform="translate(281.091797 0.78125)"/>
      <use xlink:href="#DejaVuSans-37" transform="translate(305.128906 0.78125)"/>
      <use xlink:href="#DejaVuSans-36" transform="translate(368.751953 0.78125)"/>
      <use xlink:href="#DejaVuSans-33" transform="translate(432.375 0.78125)"/>
      <use xlink:href="#DejaVuSans-2c" transform="translate(495.998047 0.78125)"/>
      <use xlink:href="#DejaVuSans-20" transform="translate(527.785156 0.78125)"/>
      <use xlink:href="#DejaVuSans-30" transform="translate(559.572266 0.78125)"/>
     </g>
    </g>
   </g>
   <g id="text_19">
    <g clip-path="url(#p0e82dda038)">
     <!-- $\mathrm{U_3}$ -->
     <g style="fill: #ffffff" transform="translate(464.970647 57.904246) scale(0.13 -0.13)">
      <use xlink:href="#DejaVuSans-55" transform="translate(0 0.09375)"/>
      <use xlink:href="#DejaVuSans-33" transform="translate(74.150391 -16.3125) scale(0.7)"/>
     </g>
    </g>
   </g>
   <g id="text_20">
    <g clip-path="url(#p0e82dda038)">
     <!-- $\pi$/2, $-$2.28, $-$$\pi$ -->
     <g style="fill: #ffffff" transform="translate(443.860647 129.233195) scale(0.08 -0.08)">
      <use xlink:href="#DejaVuSans-Oblique-3c0" transform="translate(0 0.78125)"/>
      <use xlink:href="#DejaVuSans-2f" transform="translate(60.205078 0.78125)"/>
      <use xlink:href="#DejaVuSans-32" transform="translate(90.271484 0.78125)"/>
      <use xlink:href="#DejaVuSans-2c" transform="translate(153.894531 0.78125)"/>
      <use xlink:href="#DejaVuSans-20" transform="translate(185.681641 0.78125)"/>
      <use xlink:href="#DejaVuSans-2212" transform="translate(217.46875 0.78125)"/>
      <use xlink:href="#DejaVuSans-32" transform="translate(301.257812 0.78125)"/>
      <use xlink:href="#DejaVuSans-2e" transform="translate(364.880859 0.78125)"/>
      <use xlink:href="#DejaVuSans-32" transform="translate(391.167969 0.78125)"/>
      <use xlink:href="#DejaVuSans-38" transform="translate(454.791016 0.78125)"/>
      <use xlink:href="#DejaVuSans-2c" transform="translate(518.414062 0.78125)"/>
      <use xlink:href="#DejaVuSans-20" transform="translate(550.201172 0.78125)"/>
      <use xlink:href="#DejaVuSans-2212" transform="translate(581.988281 0.78125)"/>
      <use xlink:href="#DejaVuSans-Oblique-3c0" transform="translate(665.777344 0.78125)"/>
     </g>
    </g>
   </g>
   <g id="text_21">
    <g clip-path="url(#p0e82dda038)">
     <!-- $\mathrm{U_3}$ -->
     <g style="fill: #ffffff" transform="translate(464.970647 114.15851) scale(0.13 -0.13)">
      <use xlink:href="#DejaVuSans-55" transform="translate(0 0.09375)"/>
      <use xlink:href="#DejaVuSans-33" transform="translate(74.150391 -16.3125) scale(0.7)"/>
     </g>
    </g>
   </g>
   <g id="text_22">
    <g clip-path="url(#p0e82dda038)">
     <!-- 0, 0, 0.0802 -->
     <g style="fill: #ffffff" transform="translate(617.49219 185.487459) scale(0.08 -0.08)">
      <use xlink:href="#DejaVuSans-30"/>
      <use xlink:href="#DejaVuSans-2c" x="63.623047"/>
      <use xlink:href="#DejaVuSans-20" x="95.410156"/>
      <use xlink:href="#DejaVuSans-30" x="127.197266"/>
      <use xlink:href="#DejaVuSans-2c" x="190.820312"/>
      <use xlink:href="#DejaVuSans-20" x="222.607422"/>
      <use xlink:href="#DejaVuSans-30" x="254.394531"/>
      <use xlink:href="#DejaVuSans-2e" x="318.017578"/>
      <use xlink:href="#DejaVuSans-30" x="349.804688"/>
      <use xlink:href="#DejaVuSans-38" x="413.427734"/>
      <use xlink:href="#DejaVuSans-30" x="477.050781"/>
      <use xlink:href="#DejaVuSans-32" x="540.673828"/>
     </g>
    </g>
   </g>
   <g id="text_23">
    <g clip-path="url(#p0e82dda038)">
     <!-- $\mathrm{U_3}$ -->
     <g style="fill: #ffffff" transform="translate(633.73344 170.412775) scale(0.13 -0.13)">
      <use xlink:href="#DejaVuSans-55" transform="translate(0 0.09375)"/>
      <use xlink:href="#DejaVuSans-33" transform="translate(74.150391 -16.3125) scale(0.7)"/>
     </g>
    </g>
   </g>
   <g id="text_24">
    <g clip-path="url(#p0e82dda038)">
     <!-- 0, 0, $-$0.00349 -->
     <g style="fill: #ffffff" transform="translate(780.346233 185.487459) scale(0.08 -0.08)">
      <use xlink:href="#DejaVuSans-30" transform="translate(0 0.78125)"/>
      <use xlink:href="#DejaVuSans-2c" transform="translate(63.623047 0.78125)"/>
      <use xlink:href="#DejaVuSans-20" transform="translate(95.410156 0.78125)"/>
      <use xlink:href="#DejaVuSans-30" transform="translate(127.197266 0.78125)"/>
      <use xlink:href="#DejaVuSans-2c" transform="translate(190.820312 0.78125)"/>
      <use xlink:href="#DejaVuSans-20" transform="translate(222.607422 0.78125)"/>
      <use xlink:href="#DejaVuSans-2212" transform="translate(254.394531 0.78125)"/>
      <use xlink:href="#DejaVuSans-30" transform="translate(338.183594 0.78125)"/>
      <use xlink:href="#DejaVuSans-2e" transform="translate(401.806641 0.78125)"/>
      <use xlink:href="#DejaVuSans-30" transform="translate(433.59375 0.78125)"/>
      <use xlink:href="#DejaVuSans-30" transform="translate(497.216797 0.78125)"/>
      <use xlink:href="#DejaVuSans-33" transform="translate(560.839844 0.78125)"/>
      <use xlink:href="#DejaVuSans-34" transform="translate(624.462891 0.78125)"/>
      <use xlink:href="#DejaVuSans-39" transform="translate(688.085938 0.78125)"/>
     </g>
    </g>
   </g>
   <g id="text_25">
    <g clip-path="url(#p0e82dda038)">
     <!-- $\mathrm{U_3}$ -->
     <g style="fill: #ffffff" transform="translate(802.496233 170.412775) scale(0.13 -0.13)">
      <use xlink:href="#DejaVuSans-55" transform="translate(0 0.09375)"/>
      <use xlink:href="#DejaVuSans-33" transform="translate(74.150391 -16.3125) scale(0.7)"/>
     </g>
    </g>
   </g>
   <g id="text_26">
    <g clip-path="url(#p0e82dda038)">
     <!-- 0, 0, 0.0877 -->
     <g style="fill: #ffffff" transform="translate(955.017776 185.487459) scale(0.08 -0.08)">
      <use xlink:href="#DejaVuSans-30"/>
      <use xlink:href="#DejaVuSans-2c" x="63.623047"/>
      <use xlink:href="#DejaVuSans-20" x="95.410156"/>
      <use xlink:href="#DejaVuSans-30" x="127.197266"/>
      <use xlink:href="#DejaVuSans-2c" x="190.820312"/>
      <use xlink:href="#DejaVuSans-20" x="222.607422"/>
      <use xlink:href="#DejaVuSans-30" x="254.394531"/>
      <use xlink:href="#DejaVuSans-2e" x="318.017578"/>
      <use xlink:href="#DejaVuSans-30" x="349.804688"/>
      <use xlink:href="#DejaVuSans-38" x="413.427734"/>
      <use xlink:href="#DejaVuSans-37" x="477.050781"/>
      <use xlink:href="#DejaVuSans-37" x="540.673828"/>
     </g>
    </g>
   </g>
   <g id="text_27">
    <g clip-path="url(#p0e82dda038)">
     <!-- $\mathrm{U_3}$ -->
     <g style="fill: #ffffff" transform="translate(971.259026 170.412775) scale(0.13 -0.13)">
      <use xlink:href="#DejaVuSans-55" transform="translate(0 0.09375)"/>
      <use xlink:href="#DejaVuSans-33" transform="translate(74.150391 -16.3125) scale(0.7)"/>
     </g>
    </g>
   </g>
   <g id="text_28">
    <g clip-path="url(#p0e82dda038)">
     <!-- 1.09, 0, $-$$\pi$ -->
     <g style="fill: #ffffff" transform="translate(1125.631819 185.487459) scale(0.08 -0.08)">
      <use xlink:href="#DejaVuSans-31" transform="translate(0 0.78125)"/>
      <use xlink:href="#DejaVuSans-2e" transform="translate(63.623047 0.78125)"/>
      <use xlink:href="#DejaVuSans-30" transform="translate(95.410156 0.78125)"/>
      <use xlink:href="#DejaVuSans-39" transform="translate(159.033203 0.78125)"/>
      <use xlink:href="#DejaVuSans-2c" transform="translate(222.65625 0.78125)"/>
      <use xlink:href="#DejaVuSans-20" transform="translate(254.443359 0.78125)"/>
      <use xlink:href="#DejaVuSans-30" transform="translate(286.230469 0.78125)"/>
      <use xlink:href="#DejaVuSans-2c" transform="translate(349.853516 0.78125)"/>
      <use xlink:href="#DejaVuSans-20" transform="translate(381.640625 0.78125)"/>
      <use xlink:href="#DejaVuSans-2212" transform="translate(413.427734 0.78125)"/>
      <use xlink:href="#DejaVuSans-Oblique-3c0" transform="translate(497.216797 0.78125)"/>
     </g>
    </g>
   </g>
   <g id="text_29">
    <g clip-path="url(#p0e82dda038)">
     <!-- $\mathrm{U_3}$ -->
     <g style="fill: #ffffff" transform="translate(1140.021819 170.412775) scale(0.13 -0.13)">
      <use xlink:href="#DejaVuSans-55" transform="translate(0 0.09375)"/>
      <use xlink:href="#DejaVuSans-33" transform="translate(74.150391 -16.3125) scale(0.7)"/>
     </g>
    </g>
   </g>
   <g id="text_30">
    <g clip-path="url(#p0e82dda038)">
     <!-- 0.206, 0, 0 -->
     <g style="fill: #ffffff" transform="translate(1295.088363 185.487459) scale(0.08 -0.08)">
      <use xlink:href="#DejaVuSans-30"/>
      <use xlink:href="#DejaVuSans-2e" x="63.623047"/>
      <use xlink:href="#DejaVuSans-32" x="95.410156"/>
      <use xlink:href="#DejaVuSans-30" x="159.033203"/>
      <use xlink:href="#DejaVuSans-36" x="222.65625"/>
      <use xlink:href="#DejaVuSans-2c" x="286.279297"/>
      <use xlink:href="#DejaVuSans-20" x="318.066406"/>
      <use xlink:href="#DejaVuSans-30" x="349.853516"/>
      <use xlink:href="#DejaVuSans-2c" x="413.476562"/>
      <use xlink:href="#DejaVuSans-20" x="445.263672"/>
      <use xlink:href="#DejaVuSans-30" x="477.050781"/>
     </g>
    </g>
   </g>
   <g id="text_31">
    <g clip-path="url(#p0e82dda038)">
     <!-- $\mathrm{U_3}$ -->
     <g style="fill: #ffffff" transform="translate(1308.784613 170.412775) scale(0.13 -0.13)">
      <use xlink:href="#DejaVuSans-55" transform="translate(0 0.09375)"/>
      <use xlink:href="#DejaVuSans-33" transform="translate(74.150391 -16.3125) scale(0.7)"/>
     </g>
    </g>
   </g>
   <g id="text_32">
    <g clip-path="url(#p0e82dda038)">
     <!-- 0.954, $\pi$/2, 1.66 -->
     <g style="fill: #ffffff" transform="translate(103.77506 354.250253) scale(0.08 -0.08)">
      <use xlink:href="#DejaVuSans-30" transform="translate(0 0.78125)"/>
      <use xlink:href="#DejaVuSans-2e" transform="translate(63.623047 0.78125)"/>
      <use xlink:href="#DejaVuSans-39" transform="translate(95.410156 0.78125)"/>
      <use xlink:href="#DejaVuSans-35" transform="translate(159.033203 0.78125)"/>
      <use xlink:href="#DejaVuSans-34" transform="translate(222.65625 0.78125)"/>
      <use xlink:href="#DejaVuSans-2c" transform="translate(286.279297 0.78125)"/>
      <use xlink:href="#DejaVuSans-20" transform="translate(318.066406 0.78125)"/>
      <use xlink:href="#DejaVuSans-Oblique-3c0" transform="translate(349.853516 0.78125)"/>
      <use xlink:href="#DejaVuSans-2f" transform="translate(410.058594 0.78125)"/>
      <use xlink:href="#DejaVuSans-32" transform="translate(440.125 0.78125)"/>
      <use xlink:href="#DejaVuSans-2c" transform="translate(503.748047 0.78125)"/>
      <use xlink:href="#DejaVuSans-20" transform="translate(535.535156 0.78125)"/>
      <use xlink:href="#DejaVuSans-31" transform="translate(567.322266 0.78125)"/>
      <use xlink:href="#DejaVuSans-2e" transform="translate(630.945312 0.78125)"/>
      <use xlink:href="#DejaVuSans-36" transform="translate(662.732422 0.78125)"/>
      <use xlink:href="#DejaVuSans-36" transform="translate(726.355469 0.78125)"/>
     </g>
    </g>
   </g>
   <g id="text_33">
    <g clip-path="url(#p0e82dda038)">
     <!-- $\mathrm{U_3}$ -->
     <g style="fill: #ffffff" transform="translate(127.44506 339.175568) scale(0.13 -0.13)">
      <use xlink:href="#DejaVuSans-55" transform="translate(0 0.09375)"/>
      <use xlink:href="#DejaVuSans-33" transform="translate(74.150391 -16.3125) scale(0.7)"/>
     </g>
    </g>
   </g>
   <g id="text_34">
    <g clip-path="url(#p0e82dda038)">
     <!-- 0.00589, 0, 0 -->
     <g style="fill: #ffffff" transform="translate(108.65881 410.504517) scale(0.08 -0.08)">
      <use xlink:href="#DejaVuSans-30"/>
      <use xlink:href="#DejaVuSans-2e" x="63.623047"/>
      <use xlink:href="#DejaVuSans-30" x="95.410156"/>
      <use xlink:href="#DejaVuSans-30" x="159.033203"/>
      <use xlink:href="#DejaVuSans-35" x="222.65625"/>
      <use xlink:href="#DejaVuSans-38" x="286.279297"/>
      <use xlink:href="#DejaVuSans-39" x="349.902344"/>
      <use xlink:href="#DejaVuSans-2c" x="413.525391"/>
      <use xlink:href="#DejaVuSans-20" x="445.3125"/>
      <use xlink:href="#DejaVuSans-30" x="477.099609"/>
      <use xlink:href="#DejaVuSans-2c" x="540.722656"/>
      <use xlink:href="#DejaVuSans-20" x="572.509766"/>
      <use xlink:href="#DejaVuSans-30" x="604.296875"/>
     </g>
    </g>
   </g>
   <g id="text_35">
    <g clip-path="url(#p0e82dda038)">
     <!-- $\mathrm{U_3}$ -->
     <g style="fill: #ffffff" transform="translate(127.44506 395.429832) scale(0.13 -0.13)">
      <use xlink:href="#DejaVuSans-55" transform="translate(0 0.09375)"/>
      <use xlink:href="#DejaVuSans-33" transform="translate(74.150391 -16.3125) scale(0.7)"/>
     </g>
    </g>
   </g>
   <g id="text_36">
    <g clip-path="url(#p0e82dda038)">
     <!-- $\pi$/2, $\pi$/2, $-$0.956 -->
     <g style="fill: #ffffff" transform="translate(271.897853 297.995988) scale(0.08 -0.08)">
      <use xlink:href="#DejaVuSans-Oblique-3c0" transform="translate(0 0.78125)"/>
      <use xlink:href="#DejaVuSans-2f" transform="translate(60.205078 0.78125)"/>
      <use xlink:href="#DejaVuSans-32" transform="translate(90.271484 0.78125)"/>
      <use xlink:href="#DejaVuSans-2c" transform="translate(153.894531 0.78125)"/>
      <use xlink:href="#DejaVuSans-20" transform="translate(185.681641 0.78125)"/>
      <use xlink:href="#DejaVuSans-Oblique-3c0" transform="translate(217.46875 0.78125)"/>
      <use xlink:href="#DejaVuSans-2f" transform="translate(277.673828 0.78125)"/>
      <use xlink:href="#DejaVuSans-32" transform="translate(307.740234 0.78125)"/>
      <use xlink:href="#DejaVuSans-2c" transform="translate(371.363281 0.78125)"/>
      <use xlink:href="#DejaVuSans-20" transform="translate(403.150391 0.78125)"/>
      <use xlink:href="#DejaVuSans-2212" transform="translate(434.9375 0.78125)"/>
      <use xlink:href="#DejaVuSans-30" transform="translate(518.726562 0.78125)"/>
      <use xlink:href="#DejaVuSans-2e" transform="translate(582.349609 0.78125)"/>
      <use xlink:href="#DejaVuSans-39" transform="translate(614.136719 0.78125)"/>
      <use xlink:href="#DejaVuSans-35" transform="translate(677.759766 0.78125)"/>
      <use xlink:href="#DejaVuSans-36" transform="translate(741.382812 0.78125)"/>
     </g>
    </g>
   </g>
   <g id="text_37">
    <g clip-path="url(#p0e82dda038)">
     <!-- $\mathrm{U_3}$ -->
     <g style="fill: #ffffff" transform="translate(296.207853 282.921303) scale(0.13 -0.13)">
      <use xlink:href="#DejaVuSans-55" transform="translate(0 0.09375)"/>
      <use xlink:href="#DejaVuSans-33" transform="translate(74.150391 -16.3125) scale(0.7)"/>
     </g>
    </g>
   </g>
   <g id="text_38">
    <g clip-path="url(#p0e82dda038)">
     <!-- 1.35, 0.605, $-$$\pi$ -->
     <g style="fill: #ffffff" transform="translate(272.897853 410.504517) scale(0.08 -0.08)">
      <use xlink:href="#DejaVuSans-31" transform="translate(0 0.78125)"/>
      <use xlink:href="#DejaVuSans-2e" transform="translate(63.623047 0.78125)"/>
      <use xlink:href="#DejaVuSans-33" transform="translate(95.410156 0.78125)"/>
      <use xlink:href="#DejaVuSans-35" transform="translate(159.033203 0.78125)"/>
      <use xlink:href="#DejaVuSans-2c" transform="translate(222.65625 0.78125)"/>
      <use xlink:href="#DejaVuSans-20" transform="translate(254.443359 0.78125)"/>
      <use xlink:href="#DejaVuSans-30" transform="translate(286.230469 0.78125)"/>
      <use xlink:href="#DejaVuSans-2e" transform="translate(349.853516 0.78125)"/>
      <use xlink:href="#DejaVuSans-36" transform="translate(381.640625 0.78125)"/>
      <use xlink:href="#DejaVuSans-30" transform="translate(445.263672 0.78125)"/>
      <use xlink:href="#DejaVuSans-35" transform="translate(508.886719 0.78125)"/>
      <use xlink:href="#DejaVuSans-2c" transform="translate(572.509766 0.78125)"/>
      <use xlink:href="#DejaVuSans-20" transform="translate(604.296875 0.78125)"/>
      <use xlink:href="#DejaVuSans-2212" transform="translate(636.083984 0.78125)"/>
      <use xlink:href="#DejaVuSans-Oblique-3c0" transform="translate(719.873047 0.78125)"/>
     </g>
    </g>
   </g>
   <g id="text_39">
    <g clip-path="url(#p0e82dda038)">
     <!-- $\mathrm{U_3}$ -->
     <g style="fill: #ffffff" transform="translate(296.207853 395.429832) scale(0.13 -0.13)">
      <use xlink:href="#DejaVuSans-55" transform="translate(0 0.09375)"/>
      <use xlink:href="#DejaVuSans-33" transform="translate(74.150391 -16.3125) scale(0.7)"/>
     </g>
    </g>
   </g>
   <g id="text_40">
    <g clip-path="url(#p0e82dda038)">
     <!-- $\pi$/2, 0, $\pi$/2 -->
     <g style="fill: #ffffff" transform="translate(452.940647 297.995988) scale(0.08 -0.08)">
      <use xlink:href="#DejaVuSans-Oblique-3c0" transform="translate(0 0.78125)"/>
      <use xlink:href="#DejaVuSans-2f" transform="translate(60.205078 0.78125)"/>
      <use xlink:href="#DejaVuSans-32" transform="translate(90.271484 0.78125)"/>
      <use xlink:href="#DejaVuSans-2c" transform="translate(153.894531 0.78125)"/>
      <use xlink:href="#DejaVuSans-20" transform="translate(185.681641 0.78125)"/>
      <use xlink:href="#DejaVuSans-30" transform="translate(217.46875 0.78125)"/>
      <use xlink:href="#DejaVuSans-2c" transform="translate(281.091797 0.78125)"/>
      <use xlink:href="#DejaVuSans-20" transform="translate(312.878906 0.78125)"/>
      <use xlink:href="#DejaVuSans-Oblique-3c0" transform="translate(344.666016 0.78125)"/>
      <use xlink:href="#DejaVuSans-2f" transform="translate(404.871094 0.78125)"/>
      <use xlink:href="#DejaVuSans-32" transform="translate(434.9375 0.78125)"/>
     </g>
    </g>
   </g>
   <g id="text_41">
    <g clip-path="url(#p0e82dda038)">
     <!-- $\mathrm{U_3}$ -->
     <g style="fill: #ffffff" transform="translate(464.970647 282.921303) scale(0.13 -0.13)">
      <use xlink:href="#DejaVuSans-55" transform="translate(0 0.09375)"/>
      <use xlink:href="#DejaVuSans-33" transform="translate(74.150391 -16.3125) scale(0.7)"/>
     </g>
    </g>
   </g>
   <g id="text_42">
    <g clip-path="url(#p0e82dda038)">
     <!-- 2.06, 2.75, $-$2.29 -->
     <g style="fill: #ffffff" transform="translate(438.340647 354.250253) scale(0.08 -0.08)">
      <use xlink:href="#DejaVuSans-32" transform="translate(0 0.78125)"/>
      <use xlink:href="#DejaVuSans-2e" transform="translate(63.623047 0.78125)"/>
      <use xlink:href="#DejaVuSans-30" transform="translate(95.410156 0.78125)"/>
      <use xlink:href="#DejaVuSans-36" transform="translate(159.033203 0.78125)"/>
      <use xlink:href="#DejaVuSans-2c" transform="translate(222.65625 0.78125)"/>
      <use xlink:href="#DejaVuSans-20" transform="translate(254.443359 0.78125)"/>
      <use xlink:href="#DejaVuSans-32" transform="translate(286.230469 0.78125)"/>
      <use xlink:href="#DejaVuSans-2e" transform="translate(349.853516 0.78125)"/>
      <use xlink:href="#DejaVuSans-37" transform="translate(373.890625 0.78125)"/>
      <use xlink:href="#DejaVuSans-35" transform="translate(437.513672 0.78125)"/>
      <use xlink:href="#DejaVuSans-2c" transform="translate(501.136719 0.78125)"/>
      <use xlink:href="#DejaVuSans-20" transform="translate(532.923828 0.78125)"/>
      <use xlink:href="#DejaVuSans-2212" transform="translate(564.710938 0.78125)"/>
      <use xlink:href="#DejaVuSans-32" transform="translate(648.5 0.78125)"/>
      <use xlink:href="#DejaVuSans-2e" transform="translate(712.123047 0.78125)"/>
      <use xlink:href="#DejaVuSans-32" transform="translate(738.410156 0.78125)"/>
      <use xlink:href="#DejaVuSans-39" transform="translate(800.283203 0.78125)"/>
     </g>
    </g>
   </g>
   <g id="text_43">
    <g clip-path="url(#p0e82dda038)">
     <!-- $\mathrm{U_3}$ -->
     <g style="fill: #ffffff" transform="translate(464.970647 339.175568) scale(0.13 -0.13)">
      <use xlink:href="#DejaVuSans-55" transform="translate(0 0.09375)"/>
      <use xlink:href="#DejaVuSans-33" transform="translate(74.150391 -16.3125) scale(0.7)"/>
     </g>
    </g>
   </g>
   <g id="text_44">
    <g clip-path="url(#p0e82dda038)">
     <!-- $\pi$/2, $-$1.57, $-$$\pi$/2 -->
     <g style="fill: #ffffff" transform="translate(608.94344 297.995988) scale(0.08 -0.08)">
      <use xlink:href="#DejaVuSans-Oblique-3c0" transform="translate(0 0.78125)"/>
      <use xlink:href="#DejaVuSans-2f" transform="translate(60.205078 0.78125)"/>
      <use xlink:href="#DejaVuSans-32" transform="translate(90.271484 0.78125)"/>
      <use xlink:href="#DejaVuSans-2c" transform="translate(153.894531 0.78125)"/>
      <use xlink:href="#DejaVuSans-20" transform="translate(185.681641 0.78125)"/>
      <use xlink:href="#DejaVuSans-2212" transform="translate(217.46875 0.78125)"/>
      <use xlink:href="#DejaVuSans-31" transform="translate(301.257812 0.78125)"/>
      <use xlink:href="#DejaVuSans-2e" transform="translate(364.880859 0.78125)"/>
      <use xlink:href="#DejaVuSans-35" transform="translate(396.667969 0.78125)"/>
      <use xlink:href="#DejaVuSans-37" transform="translate(453.041016 0.78125)"/>
      <use xlink:href="#DejaVuSans-2c" transform="translate(516.664062 0.78125)"/>
      <use xlink:href="#DejaVuSans-20" transform="translate(548.451172 0.78125)"/>
      <use xlink:href="#DejaVuSans-2212" transform="translate(580.238281 0.78125)"/>
      <use xlink:href="#DejaVuSans-Oblique-3c0" transform="translate(664.027344 0.78125)"/>
      <use xlink:href="#DejaVuSans-2f" transform="translate(724.232422 0.78125)"/>
      <use xlink:href="#DejaVuSans-32" transform="translate(754.298828 0.78125)"/>
     </g>
    </g>
   </g>
   <g id="text_45">
    <g clip-path="url(#p0e82dda038)">
     <!-- $\mathrm{U_3}$ -->
     <g style="fill: #ffffff" transform="translate(633.73344 282.921303) scale(0.13 -0.13)">
      <use xlink:href="#DejaVuSans-55" transform="translate(0 0.09375)"/>
      <use xlink:href="#DejaVuSans-33" transform="translate(74.150391 -16.3125) scale(0.7)"/>
     </g>
    </g>
   </g>
   <g id="text_46">
    <g clip-path="url(#p0e82dda038)">
     <!-- 0.954, $-$0.535, $\pi$/2 -->
     <g style="fill: #ffffff" transform="translate(604.14344 354.250253) scale(0.08 -0.08)">
      <use xlink:href="#DejaVuSans-30" transform="translate(0 0.78125)"/>
      <use xlink:href="#DejaVuSans-2e" transform="translate(63.623047 0.78125)"/>
      <use xlink:href="#DejaVuSans-39" transform="translate(95.410156 0.78125)"/>
      <use xlink:href="#DejaVuSans-35" transform="translate(159.033203 0.78125)"/>
      <use xlink:href="#DejaVuSans-34" transform="translate(222.65625 0.78125)"/>
      <use xlink:href="#DejaVuSans-2c" transform="translate(286.279297 0.78125)"/>
      <use xlink:href="#DejaVuSans-20" transform="translate(318.066406 0.78125)"/>
      <use xlink:href="#DejaVuSans-2212" transform="translate(349.853516 0.78125)"/>
      <use xlink:href="#DejaVuSans-30" transform="translate(433.642578 0.78125)"/>
      <use xlink:href="#DejaVuSans-2e" transform="translate(497.265625 0.78125)"/>
      <use xlink:href="#DejaVuSans-35" transform="translate(529.052734 0.78125)"/>
      <use xlink:href="#DejaVuSans-33" transform="translate(592.675781 0.78125)"/>
      <use xlink:href="#DejaVuSans-35" transform="translate(656.298828 0.78125)"/>
      <use xlink:href="#DejaVuSans-2c" transform="translate(719.921875 0.78125)"/>
      <use xlink:href="#DejaVuSans-20" transform="translate(751.708984 0.78125)"/>
      <use xlink:href="#DejaVuSans-Oblique-3c0" transform="translate(783.496094 0.78125)"/>
      <use xlink:href="#DejaVuSans-2f" transform="translate(843.701172 0.78125)"/>
      <use xlink:href="#DejaVuSans-32" transform="translate(873.767578 0.78125)"/>
     </g>
    </g>
   </g>
   <g id="text_47">
    <g clip-path="url(#p0e82dda038)">
     <!-- $\mathrm{U_3}$ -->
     <g style="fill: #ffffff" transform="translate(633.73344 339.175568) scale(0.13 -0.13)">
      <use xlink:href="#DejaVuSans-55" transform="translate(0 0.09375)"/>
      <use xlink:href="#DejaVuSans-33" transform="translate(74.150391 -16.3125) scale(0.7)"/>
     </g>
    </g>
   </g>
   <g id="text_48">
    <g clip-path="url(#p0e82dda038)">
     <!-- 0, 0, 0.00349 -->
     <g style="fill: #ffffff" transform="translate(783.709983 410.504517) scale(0.08 -0.08)">
      <use xlink:href="#DejaVuSans-30"/>
      <use xlink:href="#DejaVuSans-2c" x="63.623047"/>
      <use xlink:href="#DejaVuSans-20" x="95.410156"/>
      <use xlink:href="#DejaVuSans-30" x="127.197266"/>
      <use xlink:href="#DejaVuSans-2c" x="190.820312"/>
      <use xlink:href="#DejaVuSans-20" x="222.607422"/>
      <use xlink:href="#DejaVuSans-30" x="254.394531"/>
      <use xlink:href="#DejaVuSans-2e" x="318.017578"/>
      <use xlink:href="#DejaVuSans-30" x="349.804688"/>
      <use xlink:href="#DejaVuSans-30" x="413.427734"/>
      <use xlink:href="#DejaVuSans-33" x="477.050781"/>
      <use xlink:href="#DejaVuSans-34" x="540.673828"/>
      <use xlink:href="#DejaVuSans-39" x="604.296875"/>
     </g>
    </g>
   </g>
   <g id="text_49">
    <g clip-path="url(#p0e82dda038)">
     <!-- $\mathrm{U_3}$ -->
     <g style="fill: #ffffff" transform="translate(802.496233 395.429832) scale(0.13 -0.13)">
      <use xlink:href="#DejaVuSans-55" transform="translate(0 0.09375)"/>
      <use xlink:href="#DejaVuSans-33" transform="translate(74.150391 -16.3125) scale(0.7)"/>
     </g>
    </g>
   </g>
   <g id="text_50">
    <g clip-path="url(#p0e82dda038)">
     <!-- 0, 0, $-$1.66 -->
     <g style="fill: #ffffff" transform="translate(956.749026 410.504517) scale(0.08 -0.08)">
      <use xlink:href="#DejaVuSans-30" transform="translate(0 0.78125)"/>
      <use xlink:href="#DejaVuSans-2c" transform="translate(63.623047 0.78125)"/>
      <use xlink:href="#DejaVuSans-20" transform="translate(95.410156 0.78125)"/>
      <use xlink:href="#DejaVuSans-30" transform="translate(127.197266 0.78125)"/>
      <use xlink:href="#DejaVuSans-2c" transform="translate(190.820312 0.78125)"/>
      <use xlink:href="#DejaVuSans-20" transform="translate(222.607422 0.78125)"/>
      <use xlink:href="#DejaVuSans-2212" transform="translate(254.394531 0.78125)"/>
      <use xlink:href="#DejaVuSans-31" transform="translate(338.183594 0.78125)"/>
      <use xlink:href="#DejaVuSans-2e" transform="translate(401.806641 0.78125)"/>
      <use xlink:href="#DejaVuSans-36" transform="translate(433.59375 0.78125)"/>
      <use xlink:href="#DejaVuSans-36" transform="translate(497.216797 0.78125)"/>
     </g>
    </g>
   </g>
   <g id="text_51">
    <g clip-path="url(#p0e82dda038)">
     <!-- $\mathrm{U_3}$ -->
     <g style="fill: #ffffff" transform="translate(971.259026 395.429832) scale(0.13 -0.13)">
      <use xlink:href="#DejaVuSans-55" transform="translate(0 0.09375)"/>
      <use xlink:href="#DejaVuSans-33" transform="translate(74.150391 -16.3125) scale(0.7)"/>
     </g>
    </g>
   </g>
   <g id="text_52">
    <g clip-path="url(#p0e82dda038)">
     <!-- 0, 0, 0.0802 -->
     <g style="fill: #ffffff" transform="translate(1123.780569 410.504517) scale(0.08 -0.08)">
      <use xlink:href="#DejaVuSans-30"/>
      <use xlink:href="#DejaVuSans-2c" x="63.623047"/>
      <use xlink:href="#DejaVuSans-20" x="95.410156"/>
      <use xlink:href="#DejaVuSans-30" x="127.197266"/>
      <use xlink:href="#DejaVuSans-2c" x="190.820312"/>
      <use xlink:href="#DejaVuSans-20" x="222.607422"/>
      <use xlink:href="#DejaVuSans-30" x="254.394531"/>
      <use xlink:href="#DejaVuSans-2e" x="318.017578"/>
      <use xlink:href="#DejaVuSans-30" x="349.804688"/>
      <use xlink:href="#DejaVuSans-38" x="413.427734"/>
      <use xlink:href="#DejaVuSans-30" x="477.050781"/>
      <use xlink:href="#DejaVuSans-32" x="540.673828"/>
     </g>
    </g>
   </g>
   <g id="text_53">
    <g clip-path="url(#p0e82dda038)">
     <!-- $\mathrm{U_3}$ -->
     <g style="fill: #ffffff" transform="translate(1140.021819 395.429832) scale(0.13 -0.13)">
      <use xlink:href="#DejaVuSans-55" transform="translate(0 0.09375)"/>
      <use xlink:href="#DejaVuSans-33" transform="translate(74.150391 -16.3125) scale(0.7)"/>
     </g>
    </g>
   </g>
  </g>
 </g>
 <defs>
  <clipPath id="p0e82dda038">
   <rect x="7.2" y="14.798437" width="1487.278088" height="416.281557"/>
  </clipPath>
 </defs>
</svg>
