<?xml version="1.0" encoding="utf-8" standalone="no"?>
<!DOCTYPE svg PUBLIC "-//W3C//DTD SVG 1.1//EN"
  "http://www.w3.org/Graphics/SVG/1.1/DTD/svg11.dtd">
<svg xmlns:xlink="http://www.w3.org/1999/xlink" width="1080pt" height="360pt" viewBox="0 0 1080 360" xmlns="http://www.w3.org/2000/svg" version="1.1">
 <metadata>
  <rdf:RDF xmlns:dc="http://purl.org/dc/elements/1.1/" xmlns:cc="http://creativecommons.org/ns#" xmlns:rdf="http://www.w3.org/1999/02/22-rdf-syntax-ns#">
   <cc:Work>
    <dc:type rdf:resource="http://purl.org/dc/dcmitype/StillImage"/>
    <dc:date>2024-11-21T22:19:44.461354</dc:date>
    <dc:format>image/svg+xml</dc:format>
    <dc:creator>
     <cc:Agent>
      <dc:title>Matplotlib v3.9.2, https://matplotlib.org/</dc:title>
     </cc:Agent>
    </dc:creator>
   </cc:Work>
  </rdf:RDF>
 </metadata>
 <defs>
  <style type="text/css">*{stroke-linejoin: round; stroke-linecap: butt}</style>
 </defs>
 <g id="figure_1">
  <g id="patch_1">
   <path d="M 0 360 
L 1080 360 
L 1080 0 
L 0 0 
z
" style="fill: #ffffff"/>
  </g>
  <g id="axes_1">
   <g id="patch_2">
    <path d="M 44.203125 318.84375 
L 350.600864 318.84375 
L 350.600864 10.8 
L 44.203125 10.8 
z
" style="fill: #ffffff"/>
   </g>
   <g id="patch_3">
    <path d="M 58.130295 318.84375 
L 64.05675 318.84375 
L 64.05675 293.33288 
L 58.130295 293.33288 
z
" clip-path="url(#p863bf747e0)" style="fill: #228b22; stroke: #000000; stroke-linejoin: miter"/>
   </g>
   <g id="patch_4">
    <path d="M 64.05675 318.84375 
L 69.983206 318.84375 
L 69.983206 306.088315 
L 64.05675 306.088315 
z
" clip-path="url(#p863bf747e0)" style="fill: #228b22; stroke: #000000; stroke-linejoin: miter"/>
   </g>
   <g id="patch_5">
    <path d="M 69.983206 318.84375 
L 75.909661 318.84375 
L 75.909661 306.088315 
L 69.983206 306.088315 
z
" clip-path="url(#p863bf747e0)" style="fill: #228b22; stroke: #000000; stroke-linejoin: miter"/>
   </g>
   <g id="patch_6">
    <path d="M 75.909661 318.84375 
L 81.836116 318.84375 
L 81.836116 280.577446 
L 75.909661 280.577446 
z
" clip-path="url(#p863bf747e0)" style="fill: #228b22; stroke: #000000; stroke-linejoin: miter"/>
   </g>
   <g id="patch_7">
    <path d="M 81.836116 318.84375 
L 87.762571 318.84375 
L 87.762571 242.311141 
L 81.836116 242.311141 
z
" clip-path="url(#p863bf747e0)" style="fill: #228b22; stroke: #000000; stroke-linejoin: miter"/>
   </g>
   <g id="patch_8">
    <path d="M 87.762571 318.84375 
L 93.689027 318.84375 
L 93.689027 255.066576 
L 87.762571 255.066576 
z
" clip-path="url(#p863bf747e0)" style="fill: #228b22; stroke: #000000; stroke-linejoin: miter"/>
   </g>
   <g id="patch_9">
    <path d="M 93.689027 318.84375 
L 99.615482 318.84375 
L 99.615482 229.555707 
L 93.689027 229.555707 
z
" clip-path="url(#p863bf747e0)" style="fill: #228b22; stroke: #000000; stroke-linejoin: miter"/>
   </g>
   <g id="patch_10">
    <path d="M 99.615482 318.84375 
L 105.541937 318.84375 
L 105.541937 280.577446 
L 99.615482 280.577446 
z
" clip-path="url(#p863bf747e0)" style="fill: #228b22; stroke: #000000; stroke-linejoin: miter"/>
   </g>
   <g id="patch_11">
    <path d="M 105.541937 318.84375 
L 111.468393 318.84375 
L 111.468393 191.289402 
L 105.541937 191.289402 
z
" clip-path="url(#p863bf747e0)" style="fill: #228b22; stroke: #000000; stroke-linejoin: miter"/>
   </g>
   <g id="patch_12">
    <path d="M 111.468393 318.84375 
L 117.394848 318.84375 
L 117.394848 204.044837 
L 111.468393 204.044837 
z
" clip-path="url(#p863bf747e0)" style="fill: #228b22; stroke: #000000; stroke-linejoin: miter"/>
   </g>
   <g id="patch_13">
    <path d="M 117.394848 318.84375 
L 123.321303 318.84375 
L 123.321303 140.267663 
L 117.394848 140.267663 
z
" clip-path="url(#p863bf747e0)" style="fill: #228b22; stroke: #000000; stroke-linejoin: miter"/>
   </g>
   <g id="patch_14">
    <path d="M 123.321303 318.84375 
L 129.247759 318.84375 
L 129.247759 178.533967 
L 123.321303 178.533967 
z
" clip-path="url(#p863bf747e0)" style="fill: #228b22; stroke: #000000; stroke-linejoin: miter"/>
   </g>
   <g id="patch_15">
    <path d="M 129.247759 318.84375 
L 135.174214 318.84375 
L 135.174214 127.512228 
L 129.247759 127.512228 
z
" clip-path="url(#p863bf747e0)" style="fill: #228b22; stroke: #000000; stroke-linejoin: miter"/>
   </g>
   <g id="patch_16">
    <path d="M 135.174214 318.84375 
L 141.100669 318.84375 
L 141.100669 38.224185 
L 135.174214 38.224185 
z
" clip-path="url(#p863bf747e0)" style="fill: #228b22; stroke: #000000; stroke-linejoin: miter"/>
   </g>
   <g id="patch_17">
    <path d="M 141.100669 318.84375 
L 147.027125 318.84375 
L 147.027125 25.46875 
L 141.100669 25.46875 
z
" clip-path="url(#p863bf747e0)" style="fill: #228b22; stroke: #000000; stroke-linejoin: miter"/>
   </g>
   <g id="patch_18">
    <path d="M 147.027125 318.84375 
L 152.95358 318.84375 
L 152.95358 76.490489 
L 147.027125 76.490489 
z
" clip-path="url(#p863bf747e0)" style="fill: #228b22; stroke: #000000; stroke-linejoin: miter"/>
   </g>
   <g id="patch_19">
    <path d="M 152.95358 318.84375 
L 158.880035 318.84375 
L 158.880035 140.267663 
L 152.95358 140.267663 
z
" clip-path="url(#p863bf747e0)" style="fill: #228b22; stroke: #000000; stroke-linejoin: miter"/>
   </g>
   <g id="patch_20">
    <path d="M 158.880035 318.84375 
L 164.80649 318.84375 
L 164.80649 165.778533 
L 158.880035 165.778533 
z
" clip-path="url(#p863bf747e0)" style="fill: #228b22; stroke: #000000; stroke-linejoin: miter"/>
   </g>
   <g id="patch_21">
    <path d="M 164.80649 318.84375 
L 170.732946 318.84375 
L 170.732946 127.512228 
L 164.80649 127.512228 
z
" clip-path="url(#p863bf747e0)" style="fill: #228b22; stroke: #000000; stroke-linejoin: miter"/>
   </g>
   <g id="patch_22">
    <path d="M 170.732946 318.84375 
L 176.659401 318.84375 
L 176.659401 153.023098 
L 170.732946 153.023098 
z
" clip-path="url(#p863bf747e0)" style="fill: #228b22; stroke: #000000; stroke-linejoin: miter"/>
   </g>
   <g id="patch_23">
    <path d="M 176.659401 318.84375 
L 182.585856 318.84375 
L 182.585856 76.490489 
L 176.659401 76.490489 
z
" clip-path="url(#p863bf747e0)" style="fill: #228b22; stroke: #000000; stroke-linejoin: miter"/>
   </g>
   <g id="patch_24">
    <path d="M 182.585856 318.84375 
L 188.512312 318.84375 
L 188.512312 127.512228 
L 182.585856 127.512228 
z
" clip-path="url(#p863bf747e0)" style="fill: #228b22; stroke: #000000; stroke-linejoin: miter"/>
   </g>
   <g id="patch_25">
    <path d="M 188.512312 318.84375 
L 194.438767 318.84375 
L 194.438767 140.267663 
L 188.512312 140.267663 
z
" clip-path="url(#p863bf747e0)" style="fill: #228b22; stroke: #000000; stroke-linejoin: miter"/>
   </g>
   <g id="patch_26">
    <path d="M 194.438767 318.84375 
L 200.365222 318.84375 
L 200.365222 127.512228 
L 194.438767 127.512228 
z
" clip-path="url(#p863bf747e0)" style="fill: #228b22; stroke: #000000; stroke-linejoin: miter"/>
   </g>
   <g id="patch_27">
    <path d="M 200.365222 318.84375 
L 206.291678 318.84375 
L 206.291678 140.267663 
L 200.365222 140.267663 
z
" clip-path="url(#p863bf747e0)" style="fill: #228b22; stroke: #000000; stroke-linejoin: miter"/>
   </g>
   <g id="patch_28">
    <path d="M 206.291678 318.84375 
L 212.218133 318.84375 
L 212.218133 140.267663 
L 206.291678 140.267663 
z
" clip-path="url(#p863bf747e0)" style="fill: #228b22; stroke: #000000; stroke-linejoin: miter"/>
   </g>
   <g id="patch_29">
    <path d="M 212.218133 318.84375 
L 218.144588 318.84375 
L 218.144588 165.778533 
L 212.218133 165.778533 
z
" clip-path="url(#p863bf747e0)" style="fill: #228b22; stroke: #000000; stroke-linejoin: miter"/>
   </g>
   <g id="patch_30">
    <path d="M 218.144588 318.84375 
L 224.071043 318.84375 
L 224.071043 267.822011 
L 218.144588 267.822011 
z
" clip-path="url(#p863bf747e0)" style="fill: #228b22; stroke: #000000; stroke-linejoin: miter"/>
   </g>
   <g id="patch_31">
    <path d="M 224.071043 318.84375 
L 229.997499 318.84375 
L 229.997499 89.245924 
L 224.071043 89.245924 
z
" clip-path="url(#p863bf747e0)" style="fill: #228b22; stroke: #000000; stroke-linejoin: miter"/>
   </g>
   <g id="patch_32">
    <path d="M 229.997499 318.84375 
L 235.923954 318.84375 
L 235.923954 165.778533 
L 229.997499 165.778533 
z
" clip-path="url(#p863bf747e0)" style="fill: #228b22; stroke: #000000; stroke-linejoin: miter"/>
   </g>
   <g id="patch_33">
    <path d="M 235.923954 318.84375 
L 241.850409 318.84375 
L 241.850409 191.289402 
L 235.923954 191.289402 
z
" clip-path="url(#p863bf747e0)" style="fill: #228b22; stroke: #000000; stroke-linejoin: miter"/>
   </g>
   <g id="patch_34">
    <path d="M 241.850409 318.84375 
L 247.776865 318.84375 
L 247.776865 76.490489 
L 241.850409 76.490489 
z
" clip-path="url(#p863bf747e0)" style="fill: #228b22; stroke: #000000; stroke-linejoin: miter"/>
   </g>
   <g id="patch_35">
    <path d="M 247.776865 318.84375 
L 253.70332 318.84375 
L 253.70332 165.778533 
L 247.776865 165.778533 
z
" clip-path="url(#p863bf747e0)" style="fill: #228b22; stroke: #000000; stroke-linejoin: miter"/>
   </g>
   <g id="patch_36">
    <path d="M 253.70332 318.84375 
L 259.629775 318.84375 
L 259.629775 114.756793 
L 253.70332 114.756793 
z
" clip-path="url(#p863bf747e0)" style="fill: #228b22; stroke: #000000; stroke-linejoin: miter"/>
   </g>
   <g id="patch_37">
    <path d="M 259.629775 318.84375 
L 265.556231 318.84375 
L 265.556231 229.555707 
L 259.629775 229.555707 
z
" clip-path="url(#p863bf747e0)" style="fill: #228b22; stroke: #000000; stroke-linejoin: miter"/>
   </g>
   <g id="patch_38">
    <path d="M 265.556231 318.84375 
L 271.482686 318.84375 
L 271.482686 153.023098 
L 265.556231 153.023098 
z
" clip-path="url(#p863bf747e0)" style="fill: #228b22; stroke: #000000; stroke-linejoin: miter"/>
   </g>
   <g id="patch_39">
    <path d="M 271.482686 318.84375 
L 277.409141 318.84375 
L 277.409141 153.023098 
L 271.482686 153.023098 
z
" clip-path="url(#p863bf747e0)" style="fill: #228b22; stroke: #000000; stroke-linejoin: miter"/>
   </g>
   <g id="patch_40">
    <path d="M 277.409141 318.84375 
L 283.335597 318.84375 
L 283.335597 255.066576 
L 277.409141 255.066576 
z
" clip-path="url(#p863bf747e0)" style="fill: #228b22; stroke: #000000; stroke-linejoin: miter"/>
   </g>
   <g id="patch_41">
    <path d="M 283.335597 318.84375 
L 289.262052 318.84375 
L 289.262052 216.800272 
L 283.335597 216.800272 
z
" clip-path="url(#p863bf747e0)" style="fill: #228b22; stroke: #000000; stroke-linejoin: miter"/>
   </g>
   <g id="patch_42">
    <path d="M 289.262052 318.84375 
L 295.188507 318.84375 
L 295.188507 267.822011 
L 289.262052 267.822011 
z
" clip-path="url(#p863bf747e0)" style="fill: #228b22; stroke: #000000; stroke-linejoin: miter"/>
   </g>
   <g id="patch_43">
    <path d="M 295.188507 318.84375 
L 301.114962 318.84375 
L 301.114962 280.577446 
L 295.188507 280.577446 
z
" clip-path="url(#p863bf747e0)" style="fill: #228b22; stroke: #000000; stroke-linejoin: miter"/>
   </g>
   <g id="patch_44">
    <path d="M 301.114962 318.84375 
L 307.041418 318.84375 
L 307.041418 255.066576 
L 301.114962 255.066576 
z
" clip-path="url(#p863bf747e0)" style="fill: #228b22; stroke: #000000; stroke-linejoin: miter"/>
   </g>
   <g id="patch_45">
    <path d="M 307.041418 318.84375 
L 312.967873 318.84375 
L 312.967873 267.822011 
L 307.041418 267.822011 
z
" clip-path="url(#p863bf747e0)" style="fill: #228b22; stroke: #000000; stroke-linejoin: miter"/>
   </g>
   <g id="patch_46">
    <path d="M 312.967873 318.84375 
L 318.894328 318.84375 
L 318.894328 267.822011 
L 312.967873 267.822011 
z
" clip-path="url(#p863bf747e0)" style="fill: #228b22; stroke: #000000; stroke-linejoin: miter"/>
   </g>
   <g id="patch_47">
    <path d="M 318.894328 318.84375 
L 324.820784 318.84375 
L 324.820784 255.066576 
L 318.894328 255.066576 
z
" clip-path="url(#p863bf747e0)" style="fill: #228b22; stroke: #000000; stroke-linejoin: miter"/>
   </g>
   <g id="patch_48">
    <path d="M 324.820784 318.84375 
L 330.747239 318.84375 
L 330.747239 306.088315 
L 324.820784 306.088315 
z
" clip-path="url(#p863bf747e0)" style="fill: #228b22; stroke: #000000; stroke-linejoin: miter"/>
   </g>
   <g id="patch_49">
    <path d="M 330.747239 318.84375 
L 336.673694 318.84375 
L 336.673694 267.822011 
L 330.747239 267.822011 
z
" clip-path="url(#p863bf747e0)" style="fill: #228b22; stroke: #000000; stroke-linejoin: miter"/>
   </g>
   <g id="matplotlib.axis_1">
    <g id="xtick_1">
     <g id="line2d_1">
      <path d="M 45.672483 318.84375 
L 45.672483 10.8 
" clip-path="url(#p863bf747e0)" style="fill: none; stroke-dasharray: 2.96,1.28; stroke-dashoffset: 0; stroke: #b0b0b0; stroke-width: 0.8"/>
     </g>
     <g id="line2d_2">
      <defs>
       <path id="mef71760ee0" d="M 0 0 
L 0 3.5 
" style="stroke: #000000; stroke-width: 0.8"/>
      </defs>
      <g>
       <use xlink:href="#mef71760ee0" x="45.672483" y="318.84375" style="stroke: #000000; stroke-width: 0.8"/>
      </g>
     </g>
     <g id="text_1">
      <!-- 0.5 -->
      <g transform="translate(37.720921 333.442187) scale(0.1 -0.1)">
       <defs>
        <path id="DejaVuSans-30" d="M 2034 4250 
Q 1547 4250 1301 3770 
Q 1056 3291 1056 2328 
Q 1056 1369 1301 889 
Q 1547 409 2034 409 
Q 2525 409 2770 889 
Q 3016 1369 3016 2328 
Q 3016 3291 2770 3770 
Q 2525 4250 2034 4250 
z
M 2034 4750 
Q 2819 4750 3233 4129 
Q 3647 3509 3647 2328 
Q 3647 1150 3233 529 
Q 2819 -91 2034 -91 
Q 1250 -91 836 529 
Q 422 1150 422 2328 
Q 422 3509 836 4129 
Q 1250 4750 2034 4750 
z
" transform="scale(0.015625)"/>
        <path id="DejaVuSans-2e" d="M 684 794 
L 1344 794 
L 1344 0 
L 684 0 
L 684 794 
z
" transform="scale(0.015625)"/>
        <path id="DejaVuSans-35" d="M 691 4666 
L 3169 4666 
L 3169 4134 
L 1269 4134 
L 1269 2991 
Q 1406 3038 1543 3061 
Q 1681 3084 1819 3084 
Q 2600 3084 3056 2656 
Q 3513 2228 3513 1497 
Q 3513 744 3044 326 
Q 2575 -91 1722 -91 
Q 1428 -91 1123 -41 
Q 819 9 494 109 
L 494 744 
Q 775 591 1075 516 
Q 1375 441 1709 441 
Q 2250 441 2565 725 
Q 2881 1009 2881 1497 
Q 2881 1984 2565 2268 
Q 2250 2553 1709 2553 
Q 1456 2553 1204 2497 
Q 953 2441 691 2322 
L 691 4666 
z
" transform="scale(0.015625)"/>
       </defs>
       <use xlink:href="#DejaVuSans-30"/>
       <use xlink:href="#DejaVuSans-2e" x="63.623047"/>
       <use xlink:href="#DejaVuSans-35" x="95.410156"/>
      </g>
     </g>
    </g>
    <g id="xtick_2">
     <g id="line2d_3">
      <path d="M 105.260355 318.84375 
L 105.260355 10.8 
" clip-path="url(#p863bf747e0)" style="fill: none; stroke-dasharray: 2.96,1.28; stroke-dashoffset: 0; stroke: #b0b0b0; stroke-width: 0.8"/>
     </g>
     <g id="line2d_4">
      <g>
       <use xlink:href="#mef71760ee0" x="105.260355" y="318.84375" style="stroke: #000000; stroke-width: 0.8"/>
      </g>
     </g>
     <g id="text_2">
      <!-- 0.6 -->
      <g transform="translate(97.308792 333.442187) scale(0.1 -0.1)">
       <defs>
        <path id="DejaVuSans-36" d="M 2113 2584 
Q 1688 2584 1439 2293 
Q 1191 2003 1191 1497 
Q 1191 994 1439 701 
Q 1688 409 2113 409 
Q 2538 409 2786 701 
Q 3034 994 3034 1497 
Q 3034 2003 2786 2293 
Q 2538 2584 2113 2584 
z
M 3366 4563 
L 3366 3988 
Q 3128 4100 2886 4159 
Q 2644 4219 2406 4219 
Q 1781 4219 1451 3797 
Q 1122 3375 1075 2522 
Q 1259 2794 1537 2939 
Q 1816 3084 2150 3084 
Q 2853 3084 3261 2657 
Q 3669 2231 3669 1497 
Q 3669 778 3244 343 
Q 2819 -91 2113 -91 
Q 1303 -91 875 529 
Q 447 1150 447 2328 
Q 447 3434 972 4092 
Q 1497 4750 2381 4750 
Q 2619 4750 2861 4703 
Q 3103 4656 3366 4563 
z
" transform="scale(0.015625)"/>
       </defs>
       <use xlink:href="#DejaVuSans-30"/>
       <use xlink:href="#DejaVuSans-2e" x="63.623047"/>
       <use xlink:href="#DejaVuSans-36" x="95.410156"/>
      </g>
     </g>
    </g>
    <g id="xtick_3">
     <g id="line2d_5">
      <path d="M 164.848226 318.84375 
L 164.848226 10.8 
" clip-path="url(#p863bf747e0)" style="fill: none; stroke-dasharray: 2.96,1.28; stroke-dashoffset: 0; stroke: #b0b0b0; stroke-width: 0.8"/>
     </g>
     <g id="line2d_6">
      <g>
       <use xlink:href="#mef71760ee0" x="164.848226" y="318.84375" style="stroke: #000000; stroke-width: 0.8"/>
      </g>
     </g>
     <g id="text_3">
      <!-- 0.7 -->
      <g transform="translate(156.896664 333.442187) scale(0.1 -0.1)">
       <defs>
        <path id="DejaVuSans-37" d="M 525 4666 
L 3525 4666 
L 3525 4397 
L 1831 0 
L 1172 0 
L 2766 4134 
L 525 4134 
L 525 4666 
z
" transform="scale(0.015625)"/>
       </defs>
       <use xlink:href="#DejaVuSans-30"/>
       <use xlink:href="#DejaVuSans-2e" x="63.623047"/>
       <use xlink:href="#DejaVuSans-37" x="95.410156"/>
      </g>
     </g>
    </g>
    <g id="xtick_4">
     <g id="line2d_7">
      <path d="M 224.436098 318.84375 
L 224.436098 10.8 
" clip-path="url(#p863bf747e0)" style="fill: none; stroke-dasharray: 2.96,1.28; stroke-dashoffset: 0; stroke: #b0b0b0; stroke-width: 0.8"/>
     </g>
     <g id="line2d_8">
      <g>
       <use xlink:href="#mef71760ee0" x="224.436098" y="318.84375" style="stroke: #000000; stroke-width: 0.8"/>
      </g>
     </g>
     <g id="text_4">
      <!-- 0.8 -->
      <g transform="translate(216.484535 333.442187) scale(0.1 -0.1)">
       <defs>
        <path id="DejaVuSans-38" d="M 2034 2216 
Q 1584 2216 1326 1975 
Q 1069 1734 1069 1313 
Q 1069 891 1326 650 
Q 1584 409 2034 409 
Q 2484 409 2743 651 
Q 3003 894 3003 1313 
Q 3003 1734 2745 1975 
Q 2488 2216 2034 2216 
z
M 1403 2484 
Q 997 2584 770 2862 
Q 544 3141 544 3541 
Q 544 4100 942 4425 
Q 1341 4750 2034 4750 
Q 2731 4750 3128 4425 
Q 3525 4100 3525 3541 
Q 3525 3141 3298 2862 
Q 3072 2584 2669 2484 
Q 3125 2378 3379 2068 
Q 3634 1759 3634 1313 
Q 3634 634 3220 271 
Q 2806 -91 2034 -91 
Q 1263 -91 848 271 
Q 434 634 434 1313 
Q 434 1759 690 2068 
Q 947 2378 1403 2484 
z
M 1172 3481 
Q 1172 3119 1398 2916 
Q 1625 2713 2034 2713 
Q 2441 2713 2670 2916 
Q 2900 3119 2900 3481 
Q 2900 3844 2670 4047 
Q 2441 4250 2034 4250 
Q 1625 4250 1398 4047 
Q 1172 3844 1172 3481 
z
" transform="scale(0.015625)"/>
       </defs>
       <use xlink:href="#DejaVuSans-30"/>
       <use xlink:href="#DejaVuSans-2e" x="63.623047"/>
       <use xlink:href="#DejaVuSans-38" x="95.410156"/>
      </g>
     </g>
    </g>
    <g id="xtick_5">
     <g id="line2d_9">
      <path d="M 284.023969 318.84375 
L 284.023969 10.8 
" clip-path="url(#p863bf747e0)" style="fill: none; stroke-dasharray: 2.96,1.28; stroke-dashoffset: 0; stroke: #b0b0b0; stroke-width: 0.8"/>
     </g>
     <g id="line2d_10">
      <g>
       <use xlink:href="#mef71760ee0" x="284.023969" y="318.84375" style="stroke: #000000; stroke-width: 0.8"/>
      </g>
     </g>
     <g id="text_5">
      <!-- 0.9 -->
      <g transform="translate(276.072406 333.442187) scale(0.1 -0.1)">
       <defs>
        <path id="DejaVuSans-39" d="M 703 97 
L 703 672 
Q 941 559 1184 500 
Q 1428 441 1663 441 
Q 2288 441 2617 861 
Q 2947 1281 2994 2138 
Q 2813 1869 2534 1725 
Q 2256 1581 1919 1581 
Q 1219 1581 811 2004 
Q 403 2428 403 3163 
Q 403 3881 828 4315 
Q 1253 4750 1959 4750 
Q 2769 4750 3195 4129 
Q 3622 3509 3622 2328 
Q 3622 1225 3098 567 
Q 2575 -91 1691 -91 
Q 1453 -91 1209 -44 
Q 966 3 703 97 
z
M 1959 2075 
Q 2384 2075 2632 2365 
Q 2881 2656 2881 3163 
Q 2881 3666 2632 3958 
Q 2384 4250 1959 4250 
Q 1534 4250 1286 3958 
Q 1038 3666 1038 3163 
Q 1038 2656 1286 2365 
Q 1534 2075 1959 2075 
z
" transform="scale(0.015625)"/>
       </defs>
       <use xlink:href="#DejaVuSans-30"/>
       <use xlink:href="#DejaVuSans-2e" x="63.623047"/>
       <use xlink:href="#DejaVuSans-39" x="95.410156"/>
      </g>
     </g>
    </g>
    <g id="xtick_6">
     <g id="line2d_11">
      <path d="M 343.61184 318.84375 
L 343.61184 10.8 
" clip-path="url(#p863bf747e0)" style="fill: none; stroke-dasharray: 2.96,1.28; stroke-dashoffset: 0; stroke: #b0b0b0; stroke-width: 0.8"/>
     </g>
     <g id="line2d_12">
      <g>
       <use xlink:href="#mef71760ee0" x="343.61184" y="318.84375" style="stroke: #000000; stroke-width: 0.8"/>
      </g>
     </g>
     <g id="text_6">
      <!-- 1.0 -->
      <g transform="translate(335.660278 333.442187) scale(0.1 -0.1)">
       <defs>
        <path id="DejaVuSans-31" d="M 794 531 
L 1825 531 
L 1825 4091 
L 703 3866 
L 703 4441 
L 1819 4666 
L 2450 4666 
L 2450 531 
L 3481 531 
L 3481 0 
L 794 0 
L 794 531 
z
" transform="scale(0.015625)"/>
       </defs>
       <use xlink:href="#DejaVuSans-31"/>
       <use xlink:href="#DejaVuSans-2e" x="63.623047"/>
       <use xlink:href="#DejaVuSans-30" x="95.410156"/>
      </g>
     </g>
    </g>
    <g id="text_7">
     <!-- Factor of $\pi$ -->
     <g transform="translate(170.601995 347.120312) scale(0.1 -0.1)">
      <defs>
       <path id="DejaVuSans-46" d="M 628 4666 
L 3309 4666 
L 3309 4134 
L 1259 4134 
L 1259 2759 
L 3109 2759 
L 3109 2228 
L 1259 2228 
L 1259 0 
L 628 0 
L 628 4666 
z
" transform="scale(0.015625)"/>
       <path id="DejaVuSans-61" d="M 2194 1759 
Q 1497 1759 1228 1600 
Q 959 1441 959 1056 
Q 959 750 1161 570 
Q 1363 391 1709 391 
Q 2188 391 2477 730 
Q 2766 1069 2766 1631 
L 2766 1759 
L 2194 1759 
z
M 3341 1997 
L 3341 0 
L 2766 0 
L 2766 531 
Q 2569 213 2275 61 
Q 1981 -91 1556 -91 
Q 1019 -91 701 211 
Q 384 513 384 1019 
Q 384 1609 779 1909 
Q 1175 2209 1959 2209 
L 2766 2209 
L 2766 2266 
Q 2766 2663 2505 2880 
Q 2244 3097 1772 3097 
Q 1472 3097 1187 3025 
Q 903 2953 641 2809 
L 641 3341 
Q 956 3463 1253 3523 
Q 1550 3584 1831 3584 
Q 2591 3584 2966 3190 
Q 3341 2797 3341 1997 
z
" transform="scale(0.015625)"/>
       <path id="DejaVuSans-63" d="M 3122 3366 
L 3122 2828 
Q 2878 2963 2633 3030 
Q 2388 3097 2138 3097 
Q 1578 3097 1268 2742 
Q 959 2388 959 1747 
Q 959 1106 1268 751 
Q 1578 397 2138 397 
Q 2388 397 2633 464 
Q 2878 531 3122 666 
L 3122 134 
Q 2881 22 2623 -34 
Q 2366 -91 2075 -91 
Q 1284 -91 818 406 
Q 353 903 353 1747 
Q 353 2603 823 3093 
Q 1294 3584 2113 3584 
Q 2378 3584 2631 3529 
Q 2884 3475 3122 3366 
z
" transform="scale(0.015625)"/>
       <path id="DejaVuSans-74" d="M 1172 4494 
L 1172 3500 
L 2356 3500 
L 2356 3053 
L 1172 3053 
L 1172 1153 
Q 1172 725 1289 603 
Q 1406 481 1766 481 
L 2356 481 
L 2356 0 
L 1766 0 
Q 1100 0 847 248 
Q 594 497 594 1153 
L 594 3053 
L 172 3053 
L 172 3500 
L 594 3500 
L 594 4494 
L 1172 4494 
z
" transform="scale(0.015625)"/>
       <path id="DejaVuSans-6f" d="M 1959 3097 
Q 1497 3097 1228 2736 
Q 959 2375 959 1747 
Q 959 1119 1226 758 
Q 1494 397 1959 397 
Q 2419 397 2687 759 
Q 2956 1122 2956 1747 
Q 2956 2369 2687 2733 
Q 2419 3097 1959 3097 
z
M 1959 3584 
Q 2709 3584 3137 3096 
Q 3566 2609 3566 1747 
Q 3566 888 3137 398 
Q 2709 -91 1959 -91 
Q 1206 -91 779 398 
Q 353 888 353 1747 
Q 353 2609 779 3096 
Q 1206 3584 1959 3584 
z
" transform="scale(0.015625)"/>
       <path id="DejaVuSans-72" d="M 2631 2963 
Q 2534 3019 2420 3045 
Q 2306 3072 2169 3072 
Q 1681 3072 1420 2755 
Q 1159 2438 1159 1844 
L 1159 0 
L 581 0 
L 581 3500 
L 1159 3500 
L 1159 2956 
Q 1341 3275 1631 3429 
Q 1922 3584 2338 3584 
Q 2397 3584 2469 3576 
Q 2541 3569 2628 3553 
L 2631 2963 
z
" transform="scale(0.015625)"/>
       <path id="DejaVuSans-20" transform="scale(0.015625)"/>
       <path id="DejaVuSans-66" d="M 2375 4863 
L 2375 4384 
L 1825 4384 
Q 1516 4384 1395 4259 
Q 1275 4134 1275 3809 
L 1275 3500 
L 2222 3500 
L 2222 3053 
L 1275 3053 
L 1275 0 
L 697 0 
L 697 3053 
L 147 3053 
L 147 3500 
L 697 3500 
L 697 3744 
Q 697 4328 969 4595 
Q 1241 4863 1831 4863 
L 2375 4863 
z
" transform="scale(0.015625)"/>
       <path id="DejaVuSans-Oblique-3c0" d="M 584 3500 
L 3938 3500 
L 3825 2925 
L 3384 2925 
L 2966 775 
Q 2922 550 2981 450 
Q 3038 353 3209 353 
Q 3256 353 3325 363 
Q 3397 369 3419 372 
L 3338 -44 
Q 3222 -84 3103 -103 
Q 2981 -122 2866 -122 
Q 2491 -122 2388 81 
Q 2284 288 2391 838 
L 2797 2925 
L 1506 2925 
L 938 0 
L 350 0 
L 919 2925 
L 472 2925 
L 584 3500 
z
" transform="scale(0.015625)"/>
      </defs>
      <use xlink:href="#DejaVuSans-46" transform="translate(0 0.015625)"/>
      <use xlink:href="#DejaVuSans-61" transform="translate(57.519531 0.015625)"/>
      <use xlink:href="#DejaVuSans-63" transform="translate(118.798828 0.015625)"/>
      <use xlink:href="#DejaVuSans-74" transform="translate(173.779297 0.015625)"/>
      <use xlink:href="#DejaVuSans-6f" transform="translate(212.988281 0.015625)"/>
      <use xlink:href="#DejaVuSans-72" transform="translate(274.169922 0.015625)"/>
      <use xlink:href="#DejaVuSans-20" transform="translate(315.283203 0.015625)"/>
      <use xlink:href="#DejaVuSans-6f" transform="translate(347.070312 0.015625)"/>
      <use xlink:href="#DejaVuSans-66" transform="translate(408.251953 0.015625)"/>
      <use xlink:href="#DejaVuSans-20" transform="translate(443.457031 0.015625)"/>
      <use xlink:href="#DejaVuSans-Oblique-3c0" transform="translate(475.244141 0.015625)"/>
     </g>
    </g>
   </g>
   <g id="matplotlib.axis_2">
    <g id="ytick_1">
     <g id="line2d_13">
      <path d="M 44.203125 318.84375 
L 350.600864 318.84375 
" clip-path="url(#p863bf747e0)" style="fill: none; stroke-dasharray: 2.96,1.28; stroke-dashoffset: 0; stroke: #b0b0b0; stroke-width: 0.8"/>
     </g>
     <g id="line2d_14">
      <defs>
       <path id="m27e236e076" d="M 0 0 
L -3.5 0 
" style="stroke: #000000; stroke-width: 0.8"/>
      </defs>
      <g>
       <use xlink:href="#m27e236e076" x="44.203125" y="318.84375" style="stroke: #000000; stroke-width: 0.8"/>
      </g>
     </g>
     <g id="text_8">
      <!-- 0 -->
      <g transform="translate(30.840625 322.642969) scale(0.1 -0.1)">
       <use xlink:href="#DejaVuSans-30"/>
      </g>
     </g>
    </g>
    <g id="ytick_2">
     <g id="line2d_15">
      <path d="M 44.203125 255.066576 
L 350.600864 255.066576 
" clip-path="url(#p863bf747e0)" style="fill: none; stroke-dasharray: 2.96,1.28; stroke-dashoffset: 0; stroke: #b0b0b0; stroke-width: 0.8"/>
     </g>
     <g id="line2d_16">
      <g>
       <use xlink:href="#m27e236e076" x="44.203125" y="255.066576" style="stroke: #000000; stroke-width: 0.8"/>
      </g>
     </g>
     <g id="text_9">
      <!-- 5 -->
      <g transform="translate(30.840625 258.865795) scale(0.1 -0.1)">
       <use xlink:href="#DejaVuSans-35"/>
      </g>
     </g>
    </g>
    <g id="ytick_3">
     <g id="line2d_17">
      <path d="M 44.203125 191.289402 
L 350.600864 191.289402 
" clip-path="url(#p863bf747e0)" style="fill: none; stroke-dasharray: 2.96,1.28; stroke-dashoffset: 0; stroke: #b0b0b0; stroke-width: 0.8"/>
     </g>
     <g id="line2d_18">
      <g>
       <use xlink:href="#m27e236e076" x="44.203125" y="191.289402" style="stroke: #000000; stroke-width: 0.8"/>
      </g>
     </g>
     <g id="text_10">
      <!-- 10 -->
      <g transform="translate(24.478125 195.088621) scale(0.1 -0.1)">
       <use xlink:href="#DejaVuSans-31"/>
       <use xlink:href="#DejaVuSans-30" x="63.623047"/>
      </g>
     </g>
    </g>
    <g id="ytick_4">
     <g id="line2d_19">
      <path d="M 44.203125 127.512228 
L 350.600864 127.512228 
" clip-path="url(#p863bf747e0)" style="fill: none; stroke-dasharray: 2.96,1.28; stroke-dashoffset: 0; stroke: #b0b0b0; stroke-width: 0.8"/>
     </g>
     <g id="line2d_20">
      <g>
       <use xlink:href="#m27e236e076" x="44.203125" y="127.512228" style="stroke: #000000; stroke-width: 0.8"/>
      </g>
     </g>
     <g id="text_11">
      <!-- 15 -->
      <g transform="translate(24.478125 131.311447) scale(0.1 -0.1)">
       <use xlink:href="#DejaVuSans-31"/>
       <use xlink:href="#DejaVuSans-35" x="63.623047"/>
      </g>
     </g>
    </g>
    <g id="ytick_5">
     <g id="line2d_21">
      <path d="M 44.203125 63.735054 
L 350.600864 63.735054 
" clip-path="url(#p863bf747e0)" style="fill: none; stroke-dasharray: 2.96,1.28; stroke-dashoffset: 0; stroke: #b0b0b0; stroke-width: 0.8"/>
     </g>
     <g id="line2d_22">
      <g>
       <use xlink:href="#m27e236e076" x="44.203125" y="63.735054" style="stroke: #000000; stroke-width: 0.8"/>
      </g>
     </g>
     <g id="text_12">
      <!-- 20 -->
      <g transform="translate(24.478125 67.534273) scale(0.1 -0.1)">
       <defs>
        <path id="DejaVuSans-32" d="M 1228 531 
L 3431 531 
L 3431 0 
L 469 0 
L 469 531 
Q 828 903 1448 1529 
Q 2069 2156 2228 2338 
Q 2531 2678 2651 2914 
Q 2772 3150 2772 3378 
Q 2772 3750 2511 3984 
Q 2250 4219 1831 4219 
Q 1534 4219 1204 4116 
Q 875 4013 500 3803 
L 500 4441 
Q 881 4594 1212 4672 
Q 1544 4750 1819 4750 
Q 2544 4750 2975 4387 
Q 3406 4025 3406 3419 
Q 3406 3131 3298 2873 
Q 3191 2616 2906 2266 
Q 2828 2175 2409 1742 
Q 1991 1309 1228 531 
z
" transform="scale(0.015625)"/>
       </defs>
       <use xlink:href="#DejaVuSans-32"/>
       <use xlink:href="#DejaVuSans-30" x="63.623047"/>
      </g>
     </g>
    </g>
    <g id="text_13">
     <!-- Frequency -->
     <g transform="translate(18.398438 190.651563) rotate(-90) scale(0.1 -0.1)">
      <defs>
       <path id="DejaVuSans-65" d="M 3597 1894 
L 3597 1613 
L 953 1613 
Q 991 1019 1311 708 
Q 1631 397 2203 397 
Q 2534 397 2845 478 
Q 3156 559 3463 722 
L 3463 178 
Q 3153 47 2828 -22 
Q 2503 -91 2169 -91 
Q 1331 -91 842 396 
Q 353 884 353 1716 
Q 353 2575 817 3079 
Q 1281 3584 2069 3584 
Q 2775 3584 3186 3129 
Q 3597 2675 3597 1894 
z
M 3022 2063 
Q 3016 2534 2758 2815 
Q 2500 3097 2075 3097 
Q 1594 3097 1305 2825 
Q 1016 2553 972 2059 
L 3022 2063 
z
" transform="scale(0.015625)"/>
       <path id="DejaVuSans-71" d="M 947 1747 
Q 947 1113 1208 752 
Q 1469 391 1925 391 
Q 2381 391 2643 752 
Q 2906 1113 2906 1747 
Q 2906 2381 2643 2742 
Q 2381 3103 1925 3103 
Q 1469 3103 1208 2742 
Q 947 2381 947 1747 
z
M 2906 525 
Q 2725 213 2448 61 
Q 2172 -91 1784 -91 
Q 1150 -91 751 415 
Q 353 922 353 1747 
Q 353 2572 751 3078 
Q 1150 3584 1784 3584 
Q 2172 3584 2448 3432 
Q 2725 3281 2906 2969 
L 2906 3500 
L 3481 3500 
L 3481 -1331 
L 2906 -1331 
L 2906 525 
z
" transform="scale(0.015625)"/>
       <path id="DejaVuSans-75" d="M 544 1381 
L 544 3500 
L 1119 3500 
L 1119 1403 
Q 1119 906 1312 657 
Q 1506 409 1894 409 
Q 2359 409 2629 706 
Q 2900 1003 2900 1516 
L 2900 3500 
L 3475 3500 
L 3475 0 
L 2900 0 
L 2900 538 
Q 2691 219 2414 64 
Q 2138 -91 1772 -91 
Q 1169 -91 856 284 
Q 544 659 544 1381 
z
M 1991 3584 
L 1991 3584 
z
" transform="scale(0.015625)"/>
       <path id="DejaVuSans-6e" d="M 3513 2113 
L 3513 0 
L 2938 0 
L 2938 2094 
Q 2938 2591 2744 2837 
Q 2550 3084 2163 3084 
Q 1697 3084 1428 2787 
Q 1159 2491 1159 1978 
L 1159 0 
L 581 0 
L 581 3500 
L 1159 3500 
L 1159 2956 
Q 1366 3272 1645 3428 
Q 1925 3584 2291 3584 
Q 2894 3584 3203 3211 
Q 3513 2838 3513 2113 
z
" transform="scale(0.015625)"/>
       <path id="DejaVuSans-79" d="M 2059 -325 
Q 1816 -950 1584 -1140 
Q 1353 -1331 966 -1331 
L 506 -1331 
L 506 -850 
L 844 -850 
Q 1081 -850 1212 -737 
Q 1344 -625 1503 -206 
L 1606 56 
L 191 3500 
L 800 3500 
L 1894 763 
L 2988 3500 
L 3597 3500 
L 2059 -325 
z
" transform="scale(0.015625)"/>
      </defs>
      <use xlink:href="#DejaVuSans-46"/>
      <use xlink:href="#DejaVuSans-72" x="50.269531"/>
      <use xlink:href="#DejaVuSans-65" x="89.132812"/>
      <use xlink:href="#DejaVuSans-71" x="150.65625"/>
      <use xlink:href="#DejaVuSans-75" x="214.132812"/>
      <use xlink:href="#DejaVuSans-65" x="277.511719"/>
      <use xlink:href="#DejaVuSans-6e" x="339.035156"/>
      <use xlink:href="#DejaVuSans-63" x="402.414062"/>
      <use xlink:href="#DejaVuSans-79" x="457.394531"/>
     </g>
    </g>
   </g>
   <g id="patch_50">
    <path d="M 44.203125 318.84375 
L 44.203125 10.8 
" style="fill: none; stroke: #000000; stroke-width: 0.8; stroke-linejoin: miter; stroke-linecap: square"/>
   </g>
   <g id="patch_51">
    <path d="M 350.600864 318.84375 
L 350.600864 10.8 
" style="fill: none; stroke: #000000; stroke-width: 0.8; stroke-linejoin: miter; stroke-linecap: square"/>
   </g>
   <g id="patch_52">
    <path d="M 44.203125 318.84375 
L 350.600864 318.84375 
" style="fill: none; stroke: #000000; stroke-width: 0.8; stroke-linejoin: miter; stroke-linecap: square"/>
   </g>
   <g id="patch_53">
    <path d="M 44.203125 10.8 
L 350.600864 10.8 
" style="fill: none; stroke: #000000; stroke-width: 0.8; stroke-linejoin: miter; stroke-linecap: square"/>
   </g>
   <g id="legend_1">
    <g id="patch_54">
     <path d="M 305.400864 33.478125 
L 343.600864 33.478125 
Q 345.600864 33.478125 345.600864 31.478125 
L 345.600864 17.8 
Q 345.600864 15.8 343.600864 15.8 
L 305.400864 15.8 
Q 303.400864 15.8 303.400864 17.8 
L 303.400864 31.478125 
Q 303.400864 33.478125 305.400864 33.478125 
z
" style="fill: #ffffff; opacity: 0.8; stroke: #cccccc; stroke-linejoin: miter"/>
    </g>
    <g id="patch_55">
     <path d="M 307.400864 27.398438 
L 327.400864 27.398438 
L 327.400864 20.398438 
L 307.400864 20.398438 
z
" style="fill: #228b22; stroke: #000000; stroke-linejoin: miter"/>
    </g>
    <g id="text_14">
     <!-- $\theta$ -->
     <g transform="translate(335.400864 27.398438) scale(0.1 -0.1)">
      <defs>
       <path id="DejaVuSans-Oblique-3b8" d="M 2913 2219 
L 925 2219 
Q 791 1284 928 888 
Q 1100 400 1566 400 
Q 2034 400 2391 891 
Q 2703 1322 2913 2219 
z
M 3009 2750 
Q 3094 3638 2984 3950 
Q 2813 4444 2353 4444 
Q 1875 4444 1525 3956 
Q 1250 3563 1034 2750 
L 3009 2750 
z
M 2444 4913 
Q 3194 4913 3494 4250 
Q 3794 3591 3566 2422 
Q 3341 1256 2781 594 
Q 2225 -72 1475 -72 
Q 722 -72 425 594 
Q 128 1256 353 2422 
Q 581 3591 1134 4250 
Q 1691 4913 2444 4913 
z
" transform="scale(0.015625)"/>
      </defs>
      <use xlink:href="#DejaVuSans-Oblique-3b8" transform="translate(0 0.234375)"/>
     </g>
    </g>
   </g>
  </g>
  <g id="axes_2">
   <g id="patch_56">
    <path d="M 403.502693 318.84375 
L 709.900432 318.84375 
L 709.900432 10.8 
L 403.502693 10.8 
z
" style="fill: #ffffff"/>
   </g>
   <g id="patch_57">
    <path d="M 417.429863 318.84375 
L 423.356318 318.84375 
L 423.356318 25.46875 
L 417.429863 25.46875 
z
" clip-path="url(#p924eb486d7)" style="fill: #ff8c00; stroke: #000000; stroke-linejoin: miter"/>
   </g>
   <g id="patch_58">
    <path d="M 423.356318 318.84375 
L 429.282773 318.84375 
L 429.282773 318.84375 
L 423.356318 318.84375 
z
" clip-path="url(#p924eb486d7)" style="fill: #ff8c00; stroke: #000000; stroke-linejoin: miter"/>
   </g>
   <g id="patch_59">
    <path d="M 429.282773 318.84375 
L 435.209229 318.84375 
L 435.209229 318.84375 
L 429.282773 318.84375 
z
" clip-path="url(#p924eb486d7)" style="fill: #ff8c00; stroke: #000000; stroke-linejoin: miter"/>
   </g>
   <g id="patch_60">
    <path d="M 435.209229 318.84375 
L 441.135684 318.84375 
L 441.135684 318.84375 
L 435.209229 318.84375 
z
" clip-path="url(#p924eb486d7)" style="fill: #ff8c00; stroke: #000000; stroke-linejoin: miter"/>
   </g>
   <g id="patch_61">
    <path d="M 441.135684 318.84375 
L 447.062139 318.84375 
L 447.062139 318.84375 
L 441.135684 318.84375 
z
" clip-path="url(#p924eb486d7)" style="fill: #ff8c00; stroke: #000000; stroke-linejoin: miter"/>
   </g>
   <g id="patch_62">
    <path d="M 447.062139 318.84375 
L 452.988595 318.84375 
L 452.988595 318.84375 
L 447.062139 318.84375 
z
" clip-path="url(#p924eb486d7)" style="fill: #ff8c00; stroke: #000000; stroke-linejoin: miter"/>
   </g>
   <g id="patch_63">
    <path d="M 452.988595 318.84375 
L 458.91505 318.84375 
L 458.91505 318.84375 
L 452.988595 318.84375 
z
" clip-path="url(#p924eb486d7)" style="fill: #ff8c00; stroke: #000000; stroke-linejoin: miter"/>
   </g>
   <g id="patch_64">
    <path d="M 458.91505 318.84375 
L 464.841505 318.84375 
L 464.841505 318.84375 
L 458.91505 318.84375 
z
" clip-path="url(#p924eb486d7)" style="fill: #ff8c00; stroke: #000000; stroke-linejoin: miter"/>
   </g>
   <g id="patch_65">
    <path d="M 464.841505 318.84375 
L 470.767961 318.84375 
L 470.767961 318.84375 
L 464.841505 318.84375 
z
" clip-path="url(#p924eb486d7)" style="fill: #ff8c00; stroke: #000000; stroke-linejoin: miter"/>
   </g>
   <g id="patch_66">
    <path d="M 470.767961 318.84375 
L 476.694416 318.84375 
L 476.694416 318.84375 
L 470.767961 318.84375 
z
" clip-path="url(#p924eb486d7)" style="fill: #ff8c00; stroke: #000000; stroke-linejoin: miter"/>
   </g>
   <g id="patch_67">
    <path d="M 476.694416 318.84375 
L 482.620871 318.84375 
L 482.620871 318.84375 
L 476.694416 318.84375 
z
" clip-path="url(#p924eb486d7)" style="fill: #ff8c00; stroke: #000000; stroke-linejoin: miter"/>
   </g>
   <g id="patch_68">
    <path d="M 482.620871 318.84375 
L 488.547327 318.84375 
L 488.547327 318.84375 
L 482.620871 318.84375 
z
" clip-path="url(#p924eb486d7)" style="fill: #ff8c00; stroke: #000000; stroke-linejoin: miter"/>
   </g>
   <g id="patch_69">
    <path d="M 488.547327 318.84375 
L 494.473782 318.84375 
L 494.473782 318.84375 
L 488.547327 318.84375 
z
" clip-path="url(#p924eb486d7)" style="fill: #ff8c00; stroke: #000000; stroke-linejoin: miter"/>
   </g>
   <g id="patch_70">
    <path d="M 494.473782 318.84375 
L 500.400237 318.84375 
L 500.400237 318.84375 
L 494.473782 318.84375 
z
" clip-path="url(#p924eb486d7)" style="fill: #ff8c00; stroke: #000000; stroke-linejoin: miter"/>
   </g>
   <g id="patch_71">
    <path d="M 500.400237 318.84375 
L 506.326692 318.84375 
L 506.326692 318.84375 
L 500.400237 318.84375 
z
" clip-path="url(#p924eb486d7)" style="fill: #ff8c00; stroke: #000000; stroke-linejoin: miter"/>
   </g>
   <g id="patch_72">
    <path d="M 506.326692 318.84375 
L 512.253148 318.84375 
L 512.253148 318.84375 
L 506.326692 318.84375 
z
" clip-path="url(#p924eb486d7)" style="fill: #ff8c00; stroke: #000000; stroke-linejoin: miter"/>
   </g>
   <g id="patch_73">
    <path d="M 512.253148 318.84375 
L 518.179603 318.84375 
L 518.179603 318.84375 
L 512.253148 318.84375 
z
" clip-path="url(#p924eb486d7)" style="fill: #ff8c00; stroke: #000000; stroke-linejoin: miter"/>
   </g>
   <g id="patch_74">
    <path d="M 518.179603 318.84375 
L 524.106058 318.84375 
L 524.106058 318.84375 
L 518.179603 318.84375 
z
" clip-path="url(#p924eb486d7)" style="fill: #ff8c00; stroke: #000000; stroke-linejoin: miter"/>
   </g>
   <g id="patch_75">
    <path d="M 524.106058 318.84375 
L 530.032514 318.84375 
L 530.032514 318.84375 
L 524.106058 318.84375 
z
" clip-path="url(#p924eb486d7)" style="fill: #ff8c00; stroke: #000000; stroke-linejoin: miter"/>
   </g>
   <g id="patch_76">
    <path d="M 530.032514 318.84375 
L 535.958969 318.84375 
L 535.958969 318.84375 
L 530.032514 318.84375 
z
" clip-path="url(#p924eb486d7)" style="fill: #ff8c00; stroke: #000000; stroke-linejoin: miter"/>
   </g>
   <g id="patch_77">
    <path d="M 535.958969 318.84375 
L 541.885424 318.84375 
L 541.885424 318.84375 
L 535.958969 318.84375 
z
" clip-path="url(#p924eb486d7)" style="fill: #ff8c00; stroke: #000000; stroke-linejoin: miter"/>
   </g>
   <g id="patch_78">
    <path d="M 541.885424 318.84375 
L 547.81188 318.84375 
L 547.81188 318.84375 
L 541.885424 318.84375 
z
" clip-path="url(#p924eb486d7)" style="fill: #ff8c00; stroke: #000000; stroke-linejoin: miter"/>
   </g>
   <g id="patch_79">
    <path d="M 547.81188 318.84375 
L 553.738335 318.84375 
L 553.738335 318.84375 
L 547.81188 318.84375 
z
" clip-path="url(#p924eb486d7)" style="fill: #ff8c00; stroke: #000000; stroke-linejoin: miter"/>
   </g>
   <g id="patch_80">
    <path d="M 553.738335 318.84375 
L 559.66479 318.84375 
L 559.66479 318.84375 
L 553.738335 318.84375 
z
" clip-path="url(#p924eb486d7)" style="fill: #ff8c00; stroke: #000000; stroke-linejoin: miter"/>
   </g>
   <g id="patch_81">
    <path d="M 559.66479 318.84375 
L 565.591245 318.84375 
L 565.591245 318.84375 
L 559.66479 318.84375 
z
" clip-path="url(#p924eb486d7)" style="fill: #ff8c00; stroke: #000000; stroke-linejoin: miter"/>
   </g>
   <g id="patch_82">
    <path d="M 565.591245 318.84375 
L 571.517701 318.84375 
L 571.517701 318.84375 
L 565.591245 318.84375 
z
" clip-path="url(#p924eb486d7)" style="fill: #ff8c00; stroke: #000000; stroke-linejoin: miter"/>
   </g>
   <g id="patch_83">
    <path d="M 571.517701 318.84375 
L 577.444156 318.84375 
L 577.444156 318.84375 
L 571.517701 318.84375 
z
" clip-path="url(#p924eb486d7)" style="fill: #ff8c00; stroke: #000000; stroke-linejoin: miter"/>
   </g>
   <g id="patch_84">
    <path d="M 577.444156 318.84375 
L 583.370611 318.84375 
L 583.370611 318.84375 
L 577.444156 318.84375 
z
" clip-path="url(#p924eb486d7)" style="fill: #ff8c00; stroke: #000000; stroke-linejoin: miter"/>
   </g>
   <g id="patch_85">
    <path d="M 583.370611 318.84375 
L 589.297067 318.84375 
L 589.297067 318.84375 
L 583.370611 318.84375 
z
" clip-path="url(#p924eb486d7)" style="fill: #ff8c00; stroke: #000000; stroke-linejoin: miter"/>
   </g>
   <g id="patch_86">
    <path d="M 589.297067 318.84375 
L 595.223522 318.84375 
L 595.223522 318.84375 
L 589.297067 318.84375 
z
" clip-path="url(#p924eb486d7)" style="fill: #ff8c00; stroke: #000000; stroke-linejoin: miter"/>
   </g>
   <g id="patch_87">
    <path d="M 595.223522 318.84375 
L 601.149977 318.84375 
L 601.149977 318.84375 
L 595.223522 318.84375 
z
" clip-path="url(#p924eb486d7)" style="fill: #ff8c00; stroke: #000000; stroke-linejoin: miter"/>
   </g>
   <g id="patch_88">
    <path d="M 601.149977 318.84375 
L 607.076433 318.84375 
L 607.076433 318.84375 
L 601.149977 318.84375 
z
" clip-path="url(#p924eb486d7)" style="fill: #ff8c00; stroke: #000000; stroke-linejoin: miter"/>
   </g>
   <g id="patch_89">
    <path d="M 607.076433 318.84375 
L 613.002888 318.84375 
L 613.002888 318.84375 
L 607.076433 318.84375 
z
" clip-path="url(#p924eb486d7)" style="fill: #ff8c00; stroke: #000000; stroke-linejoin: miter"/>
   </g>
   <g id="patch_90">
    <path d="M 613.002888 318.84375 
L 618.929343 318.84375 
L 618.929343 318.84375 
L 613.002888 318.84375 
z
" clip-path="url(#p924eb486d7)" style="fill: #ff8c00; stroke: #000000; stroke-linejoin: miter"/>
   </g>
   <g id="patch_91">
    <path d="M 618.929343 318.84375 
L 624.855798 318.84375 
L 624.855798 318.84375 
L 618.929343 318.84375 
z
" clip-path="url(#p924eb486d7)" style="fill: #ff8c00; stroke: #000000; stroke-linejoin: miter"/>
   </g>
   <g id="patch_92">
    <path d="M 624.855798 318.84375 
L 630.782254 318.84375 
L 630.782254 318.84375 
L 624.855798 318.84375 
z
" clip-path="url(#p924eb486d7)" style="fill: #ff8c00; stroke: #000000; stroke-linejoin: miter"/>
   </g>
   <g id="patch_93">
    <path d="M 630.782254 318.84375 
L 636.708709 318.84375 
L 636.708709 318.84375 
L 630.782254 318.84375 
z
" clip-path="url(#p924eb486d7)" style="fill: #ff8c00; stroke: #000000; stroke-linejoin: miter"/>
   </g>
   <g id="patch_94">
    <path d="M 636.708709 318.84375 
L 642.635164 318.84375 
L 642.635164 318.84375 
L 636.708709 318.84375 
z
" clip-path="url(#p924eb486d7)" style="fill: #ff8c00; stroke: #000000; stroke-linejoin: miter"/>
   </g>
   <g id="patch_95">
    <path d="M 642.635164 318.84375 
L 648.56162 318.84375 
L 648.56162 318.181504 
L 642.635164 318.181504 
z
" clip-path="url(#p924eb486d7)" style="fill: #ff8c00; stroke: #000000; stroke-linejoin: miter"/>
   </g>
   <g id="patch_96">
    <path d="M 648.56162 318.84375 
L 654.488075 318.84375 
L 654.488075 317.519258 
L 648.56162 317.519258 
z
" clip-path="url(#p924eb486d7)" style="fill: #ff8c00; stroke: #000000; stroke-linejoin: miter"/>
   </g>
   <g id="patch_97">
    <path d="M 654.488075 318.84375 
L 660.41453 318.84375 
L 660.41453 317.519258 
L 654.488075 317.519258 
z
" clip-path="url(#p924eb486d7)" style="fill: #ff8c00; stroke: #000000; stroke-linejoin: miter"/>
   </g>
   <g id="patch_98">
    <path d="M 660.41453 318.84375 
L 666.340986 318.84375 
L 666.340986 317.519258 
L 660.41453 317.519258 
z
" clip-path="url(#p924eb486d7)" style="fill: #ff8c00; stroke: #000000; stroke-linejoin: miter"/>
   </g>
   <g id="patch_99">
    <path d="M 666.340986 318.84375 
L 672.267441 318.84375 
L 672.267441 317.519258 
L 666.340986 317.519258 
z
" clip-path="url(#p924eb486d7)" style="fill: #ff8c00; stroke: #000000; stroke-linejoin: miter"/>
   </g>
   <g id="patch_100">
    <path d="M 672.267441 318.84375 
L 678.193896 318.84375 
L 678.193896 316.857012 
L 672.267441 316.857012 
z
" clip-path="url(#p924eb486d7)" style="fill: #ff8c00; stroke: #000000; stroke-linejoin: miter"/>
   </g>
   <g id="patch_101">
    <path d="M 678.193896 318.84375 
L 684.120352 318.84375 
L 684.120352 316.194766 
L 678.193896 316.194766 
z
" clip-path="url(#p924eb486d7)" style="fill: #ff8c00; stroke: #000000; stroke-linejoin: miter"/>
   </g>
   <g id="patch_102">
    <path d="M 684.120352 318.84375 
L 690.046807 318.84375 
L 690.046807 318.181504 
L 684.120352 318.181504 
z
" clip-path="url(#p924eb486d7)" style="fill: #ff8c00; stroke: #000000; stroke-linejoin: miter"/>
   </g>
   <g id="patch_103">
    <path d="M 690.046807 318.84375 
L 695.973262 318.84375 
L 695.973262 308.910059 
L 690.046807 308.910059 
z
" clip-path="url(#p924eb486d7)" style="fill: #ff8c00; stroke: #000000; stroke-linejoin: miter"/>
   </g>
   <g id="matplotlib.axis_3">
    <g id="xtick_7">
     <g id="line2d_23">
      <path d="M 417.429863 318.84375 
L 417.429863 10.8 
" clip-path="url(#p924eb486d7)" style="fill: none; stroke-dasharray: 2.96,1.28; stroke-dashoffset: 0; stroke: #b0b0b0; stroke-width: 0.8"/>
     </g>
     <g id="line2d_24">
      <g>
       <use xlink:href="#mef71760ee0" x="417.429863" y="318.84375" style="stroke: #000000; stroke-width: 0.8"/>
      </g>
     </g>
     <g id="text_15">
      <!-- 0.0 -->
      <g transform="translate(409.4783 333.442187) scale(0.1 -0.1)">
       <use xlink:href="#DejaVuSans-30"/>
       <use xlink:href="#DejaVuSans-2e" x="63.623047"/>
       <use xlink:href="#DejaVuSans-30" x="95.410156"/>
      </g>
     </g>
    </g>
    <g id="xtick_8">
     <g id="line2d_25">
      <path d="M 481.009437 318.84375 
L 481.009437 10.8 
" clip-path="url(#p924eb486d7)" style="fill: none; stroke-dasharray: 2.96,1.28; stroke-dashoffset: 0; stroke: #b0b0b0; stroke-width: 0.8"/>
     </g>
     <g id="line2d_26">
      <g>
       <use xlink:href="#mef71760ee0" x="481.009437" y="318.84375" style="stroke: #000000; stroke-width: 0.8"/>
      </g>
     </g>
     <g id="text_16">
      <!-- 0.2 -->
      <g transform="translate(473.057875 333.442187) scale(0.1 -0.1)">
       <use xlink:href="#DejaVuSans-30"/>
       <use xlink:href="#DejaVuSans-2e" x="63.623047"/>
       <use xlink:href="#DejaVuSans-32" x="95.410156"/>
      </g>
     </g>
    </g>
    <g id="xtick_9">
     <g id="line2d_27">
      <path d="M 544.589011 318.84375 
L 544.589011 10.8 
" clip-path="url(#p924eb486d7)" style="fill: none; stroke-dasharray: 2.96,1.28; stroke-dashoffset: 0; stroke: #b0b0b0; stroke-width: 0.8"/>
     </g>
     <g id="line2d_28">
      <g>
       <use xlink:href="#mef71760ee0" x="544.589011" y="318.84375" style="stroke: #000000; stroke-width: 0.8"/>
      </g>
     </g>
     <g id="text_17">
      <!-- 0.4 -->
      <g transform="translate(536.637449 333.442187) scale(0.1 -0.1)">
       <defs>
        <path id="DejaVuSans-34" d="M 2419 4116 
L 825 1625 
L 2419 1625 
L 2419 4116 
z
M 2253 4666 
L 3047 4666 
L 3047 1625 
L 3713 1625 
L 3713 1100 
L 3047 1100 
L 3047 0 
L 2419 0 
L 2419 1100 
L 313 1100 
L 313 1709 
L 2253 4666 
z
" transform="scale(0.015625)"/>
       </defs>
       <use xlink:href="#DejaVuSans-30"/>
       <use xlink:href="#DejaVuSans-2e" x="63.623047"/>
       <use xlink:href="#DejaVuSans-34" x="95.410156"/>
      </g>
     </g>
    </g>
    <g id="xtick_10">
     <g id="line2d_29">
      <path d="M 608.168585 318.84375 
L 608.168585 10.8 
" clip-path="url(#p924eb486d7)" style="fill: none; stroke-dasharray: 2.96,1.28; stroke-dashoffset: 0; stroke: #b0b0b0; stroke-width: 0.8"/>
     </g>
     <g id="line2d_30">
      <g>
       <use xlink:href="#mef71760ee0" x="608.168585" y="318.84375" style="stroke: #000000; stroke-width: 0.8"/>
      </g>
     </g>
     <g id="text_18">
      <!-- 0.6 -->
      <g transform="translate(600.217023 333.442187) scale(0.1 -0.1)">
       <use xlink:href="#DejaVuSans-30"/>
       <use xlink:href="#DejaVuSans-2e" x="63.623047"/>
       <use xlink:href="#DejaVuSans-36" x="95.410156"/>
      </g>
     </g>
    </g>
    <g id="xtick_11">
     <g id="line2d_31">
      <path d="M 671.74816 318.84375 
L 671.74816 10.8 
" clip-path="url(#p924eb486d7)" style="fill: none; stroke-dasharray: 2.96,1.28; stroke-dashoffset: 0; stroke: #b0b0b0; stroke-width: 0.8"/>
     </g>
     <g id="line2d_32">
      <g>
       <use xlink:href="#mef71760ee0" x="671.74816" y="318.84375" style="stroke: #000000; stroke-width: 0.8"/>
      </g>
     </g>
     <g id="text_19">
      <!-- 0.8 -->
      <g transform="translate(663.796597 333.442187) scale(0.1 -0.1)">
       <use xlink:href="#DejaVuSans-30"/>
       <use xlink:href="#DejaVuSans-2e" x="63.623047"/>
       <use xlink:href="#DejaVuSans-38" x="95.410156"/>
      </g>
     </g>
    </g>
    <g id="text_20">
     <!-- Factor of $\pi$ -->
     <g transform="translate(529.901563 347.120312) scale(0.1 -0.1)">
      <use xlink:href="#DejaVuSans-46" transform="translate(0 0.015625)"/>
      <use xlink:href="#DejaVuSans-61" transform="translate(57.519531 0.015625)"/>
      <use xlink:href="#DejaVuSans-63" transform="translate(118.798828 0.015625)"/>
      <use xlink:href="#DejaVuSans-74" transform="translate(173.779297 0.015625)"/>
      <use xlink:href="#DejaVuSans-6f" transform="translate(212.988281 0.015625)"/>
      <use xlink:href="#DejaVuSans-72" transform="translate(274.169922 0.015625)"/>
      <use xlink:href="#DejaVuSans-20" transform="translate(315.283203 0.015625)"/>
      <use xlink:href="#DejaVuSans-6f" transform="translate(347.070312 0.015625)"/>
      <use xlink:href="#DejaVuSans-66" transform="translate(408.251953 0.015625)"/>
      <use xlink:href="#DejaVuSans-20" transform="translate(443.457031 0.015625)"/>
      <use xlink:href="#DejaVuSans-Oblique-3c0" transform="translate(475.244141 0.015625)"/>
     </g>
    </g>
   </g>
   <g id="matplotlib.axis_4">
    <g id="ytick_6">
     <g id="line2d_33">
      <path d="M 403.502693 318.84375 
L 709.900432 318.84375 
" clip-path="url(#p924eb486d7)" style="fill: none; stroke-dasharray: 2.96,1.28; stroke-dashoffset: 0; stroke: #b0b0b0; stroke-width: 0.8"/>
     </g>
     <g id="line2d_34">
      <g>
       <use xlink:href="#m27e236e076" x="403.502693" y="318.84375" style="stroke: #000000; stroke-width: 0.8"/>
      </g>
     </g>
     <g id="text_21">
      <!-- 0 -->
      <g transform="translate(390.140193 322.642969) scale(0.1 -0.1)">
       <use xlink:href="#DejaVuSans-30"/>
      </g>
     </g>
    </g>
    <g id="ytick_7">
     <g id="line2d_35">
      <path d="M 403.502693 252.619145 
L 709.900432 252.619145 
" clip-path="url(#p924eb486d7)" style="fill: none; stroke-dasharray: 2.96,1.28; stroke-dashoffset: 0; stroke: #b0b0b0; stroke-width: 0.8"/>
     </g>
     <g id="line2d_36">
      <g>
       <use xlink:href="#m27e236e076" x="403.502693" y="252.619145" style="stroke: #000000; stroke-width: 0.8"/>
      </g>
     </g>
     <g id="text_22">
      <!-- 100 -->
      <g transform="translate(377.415193 256.418364) scale(0.1 -0.1)">
       <use xlink:href="#DejaVuSans-31"/>
       <use xlink:href="#DejaVuSans-30" x="63.623047"/>
       <use xlink:href="#DejaVuSans-30" x="127.246094"/>
      </g>
     </g>
    </g>
    <g id="ytick_8">
     <g id="line2d_37">
      <path d="M 403.502693 186.39454 
L 709.900432 186.39454 
" clip-path="url(#p924eb486d7)" style="fill: none; stroke-dasharray: 2.96,1.28; stroke-dashoffset: 0; stroke: #b0b0b0; stroke-width: 0.8"/>
     </g>
     <g id="line2d_38">
      <g>
       <use xlink:href="#m27e236e076" x="403.502693" y="186.39454" style="stroke: #000000; stroke-width: 0.8"/>
      </g>
     </g>
     <g id="text_23">
      <!-- 200 -->
      <g transform="translate(377.415193 190.193759) scale(0.1 -0.1)">
       <use xlink:href="#DejaVuSans-32"/>
       <use xlink:href="#DejaVuSans-30" x="63.623047"/>
       <use xlink:href="#DejaVuSans-30" x="127.246094"/>
      </g>
     </g>
    </g>
    <g id="ytick_9">
     <g id="line2d_39">
      <path d="M 403.502693 120.169935 
L 709.900432 120.169935 
" clip-path="url(#p924eb486d7)" style="fill: none; stroke-dasharray: 2.96,1.28; stroke-dashoffset: 0; stroke: #b0b0b0; stroke-width: 0.8"/>
     </g>
     <g id="line2d_40">
      <g>
       <use xlink:href="#m27e236e076" x="403.502693" y="120.169935" style="stroke: #000000; stroke-width: 0.8"/>
      </g>
     </g>
     <g id="text_24">
      <!-- 300 -->
      <g transform="translate(377.415193 123.969154) scale(0.1 -0.1)">
       <defs>
        <path id="DejaVuSans-33" d="M 2597 2516 
Q 3050 2419 3304 2112 
Q 3559 1806 3559 1356 
Q 3559 666 3084 287 
Q 2609 -91 1734 -91 
Q 1441 -91 1130 -33 
Q 819 25 488 141 
L 488 750 
Q 750 597 1062 519 
Q 1375 441 1716 441 
Q 2309 441 2620 675 
Q 2931 909 2931 1356 
Q 2931 1769 2642 2001 
Q 2353 2234 1838 2234 
L 1294 2234 
L 1294 2753 
L 1863 2753 
Q 2328 2753 2575 2939 
Q 2822 3125 2822 3475 
Q 2822 3834 2567 4026 
Q 2313 4219 1838 4219 
Q 1578 4219 1281 4162 
Q 984 4106 628 3988 
L 628 4550 
Q 988 4650 1302 4700 
Q 1616 4750 1894 4750 
Q 2613 4750 3031 4423 
Q 3450 4097 3450 3541 
Q 3450 3153 3228 2886 
Q 3006 2619 2597 2516 
z
" transform="scale(0.015625)"/>
       </defs>
       <use xlink:href="#DejaVuSans-33"/>
       <use xlink:href="#DejaVuSans-30" x="63.623047"/>
       <use xlink:href="#DejaVuSans-30" x="127.246094"/>
      </g>
     </g>
    </g>
    <g id="ytick_10">
     <g id="line2d_41">
      <path d="M 403.502693 53.94533 
L 709.900432 53.94533 
" clip-path="url(#p924eb486d7)" style="fill: none; stroke-dasharray: 2.96,1.28; stroke-dashoffset: 0; stroke: #b0b0b0; stroke-width: 0.8"/>
     </g>
     <g id="line2d_42">
      <g>
       <use xlink:href="#m27e236e076" x="403.502693" y="53.94533" style="stroke: #000000; stroke-width: 0.8"/>
      </g>
     </g>
     <g id="text_25">
      <!-- 400 -->
      <g transform="translate(377.415193 57.744549) scale(0.1 -0.1)">
       <use xlink:href="#DejaVuSans-34"/>
       <use xlink:href="#DejaVuSans-30" x="63.623047"/>
       <use xlink:href="#DejaVuSans-30" x="127.246094"/>
      </g>
     </g>
    </g>
    <g id="text_26">
     <!-- Frequency -->
     <g transform="translate(371.335505 190.651563) rotate(-90) scale(0.1 -0.1)">
      <use xlink:href="#DejaVuSans-46"/>
      <use xlink:href="#DejaVuSans-72" x="50.269531"/>
      <use xlink:href="#DejaVuSans-65" x="89.132812"/>
      <use xlink:href="#DejaVuSans-71" x="150.65625"/>
      <use xlink:href="#DejaVuSans-75" x="214.132812"/>
      <use xlink:href="#DejaVuSans-65" x="277.511719"/>
      <use xlink:href="#DejaVuSans-6e" x="339.035156"/>
      <use xlink:href="#DejaVuSans-63" x="402.414062"/>
      <use xlink:href="#DejaVuSans-79" x="457.394531"/>
     </g>
    </g>
   </g>
   <g id="patch_104">
    <path d="M 403.502693 318.84375 
L 403.502693 10.8 
" style="fill: none; stroke: #000000; stroke-width: 0.8; stroke-linejoin: miter; stroke-linecap: square"/>
   </g>
   <g id="patch_105">
    <path d="M 709.900432 318.84375 
L 709.900432 10.8 
" style="fill: none; stroke: #000000; stroke-width: 0.8; stroke-linejoin: miter; stroke-linecap: square"/>
   </g>
   <g id="patch_106">
    <path d="M 403.502693 318.84375 
L 709.900432 318.84375 
" style="fill: none; stroke: #000000; stroke-width: 0.8; stroke-linejoin: miter; stroke-linecap: square"/>
   </g>
   <g id="patch_107">
    <path d="M 403.502693 10.8 
L 709.900432 10.8 
" style="fill: none; stroke: #000000; stroke-width: 0.8; stroke-linejoin: miter; stroke-linecap: square"/>
   </g>
   <g id="legend_2">
    <g id="patch_108">
     <path d="M 664.300432 33.5 
L 702.900432 33.5 
Q 704.900432 33.5 704.900432 31.5 
L 704.900432 17.8 
Q 704.900432 15.8 702.900432 15.8 
L 664.300432 15.8 
Q 662.300432 15.8 662.300432 17.8 
L 662.300432 31.5 
Q 662.300432 33.5 664.300432 33.5 
z
" style="fill: #ffffff; opacity: 0.8; stroke: #cccccc; stroke-linejoin: miter"/>
    </g>
    <g id="patch_109">
     <path d="M 666.300432 27.4 
L 686.300432 27.4 
L 686.300432 20.4 
L 666.300432 20.4 
z
" style="fill: #ff8c00; stroke: #000000; stroke-linejoin: miter"/>
    </g>
    <g id="text_27">
     <!-- $\phi$ -->
     <g transform="translate(694.300432 27.4) scale(0.1 -0.1)">
      <defs>
       <path id="DejaVuSans-Oblique-3d5" d="M 2991 4863 
L 2738 3572 
Q 3363 3572 3684 3094 
Q 4016 2606 3850 1747 
Q 3681 888 3159 400 
Q 2653 -78 2028 -78 
L 1784 -1331 
L 1213 -1331 
L 1456 -78 
Q 834 -78 509 400 
Q 178 888 347 1747 
Q 513 2606 1034 3094 
Q 1544 3572 2166 3572 
L 2419 4863 
L 2991 4863 
z
M 2128 434 
Q 2481 434 2784 756 
Q 3116 1116 3244 1747 
Q 3369 2372 3169 2738 
Q 2991 3059 2638 3059 
L 2128 434 
z
M 1556 434 
L 2066 3059 
Q 1716 3059 1413 2738 
Q 1072 2372 953 1747 
Q 834 1116 1028 756 
Q 1203 434 1556 434 
z
" transform="scale(0.015625)"/>
      </defs>
      <use xlink:href="#DejaVuSans-Oblique-3d5" transform="translate(0 0.015625)"/>
     </g>
    </g>
   </g>
  </g>
  <g id="axes_3">
   <g id="patch_110">
    <path d="M 762.802261 318.84375 
L 1069.2 318.84375 
L 1069.2 10.8 
L 762.802261 10.8 
z
" style="fill: #ffffff"/>
   </g>
   <g id="patch_111">
    <path d="M 776.729431 318.84375 
L 782.655886 318.84375 
L 782.655886 304.274337 
L 776.729431 304.274337 
z
" clip-path="url(#p10e5562b77)" style="fill: #1e90ff; stroke: #000000; stroke-linejoin: miter"/>
   </g>
   <g id="patch_112">
    <path d="M 782.655886 318.84375 
L 788.582341 318.84375 
L 788.582341 315.53252 
L 782.655886 315.53252 
z
" clip-path="url(#p10e5562b77)" style="fill: #1e90ff; stroke: #000000; stroke-linejoin: miter"/>
   </g>
   <g id="patch_113">
    <path d="M 788.582341 318.84375 
L 794.508797 318.84375 
L 794.508797 315.53252 
L 788.582341 315.53252 
z
" clip-path="url(#p10e5562b77)" style="fill: #1e90ff; stroke: #000000; stroke-linejoin: miter"/>
   </g>
   <g id="patch_114">
    <path d="M 794.508797 318.84375 
L 800.435252 318.84375 
L 800.435252 318.84375 
L 794.508797 318.84375 
z
" clip-path="url(#p10e5562b77)" style="fill: #1e90ff; stroke: #000000; stroke-linejoin: miter"/>
   </g>
   <g id="patch_115">
    <path d="M 800.435252 318.84375 
L 806.361707 318.84375 
L 806.361707 318.84375 
L 800.435252 318.84375 
z
" clip-path="url(#p10e5562b77)" style="fill: #1e90ff; stroke: #000000; stroke-linejoin: miter"/>
   </g>
   <g id="patch_116">
    <path d="M 806.361707 318.84375 
L 812.288163 318.84375 
L 812.288163 318.84375 
L 806.361707 318.84375 
z
" clip-path="url(#p10e5562b77)" style="fill: #1e90ff; stroke: #000000; stroke-linejoin: miter"/>
   </g>
   <g id="patch_117">
    <path d="M 812.288163 318.84375 
L 818.214618 318.84375 
L 818.214618 318.84375 
L 812.288163 318.84375 
z
" clip-path="url(#p10e5562b77)" style="fill: #1e90ff; stroke: #000000; stroke-linejoin: miter"/>
   </g>
   <g id="patch_118">
    <path d="M 818.214618 318.84375 
L 824.141073 318.84375 
L 824.141073 318.84375 
L 818.214618 318.84375 
z
" clip-path="url(#p10e5562b77)" style="fill: #1e90ff; stroke: #000000; stroke-linejoin: miter"/>
   </g>
   <g id="patch_119">
    <path d="M 824.141073 318.84375 
L 830.067528 318.84375 
L 830.067528 318.84375 
L 824.141073 318.84375 
z
" clip-path="url(#p10e5562b77)" style="fill: #1e90ff; stroke: #000000; stroke-linejoin: miter"/>
   </g>
   <g id="patch_120">
    <path d="M 830.067528 318.84375 
L 835.993984 318.84375 
L 835.993984 318.84375 
L 830.067528 318.84375 
z
" clip-path="url(#p10e5562b77)" style="fill: #1e90ff; stroke: #000000; stroke-linejoin: miter"/>
   </g>
   <g id="patch_121">
    <path d="M 835.993984 318.84375 
L 841.920439 318.84375 
L 841.920439 318.84375 
L 835.993984 318.84375 
z
" clip-path="url(#p10e5562b77)" style="fill: #1e90ff; stroke: #000000; stroke-linejoin: miter"/>
   </g>
   <g id="patch_122">
    <path d="M 841.920439 318.84375 
L 847.846894 318.84375 
L 847.846894 318.84375 
L 841.920439 318.84375 
z
" clip-path="url(#p10e5562b77)" style="fill: #1e90ff; stroke: #000000; stroke-linejoin: miter"/>
   </g>
   <g id="patch_123">
    <path d="M 847.846894 318.84375 
L 853.77335 318.84375 
L 853.77335 318.84375 
L 847.846894 318.84375 
z
" clip-path="url(#p10e5562b77)" style="fill: #1e90ff; stroke: #000000; stroke-linejoin: miter"/>
   </g>
   <g id="patch_124">
    <path d="M 853.77335 318.84375 
L 859.699805 318.84375 
L 859.699805 318.84375 
L 853.77335 318.84375 
z
" clip-path="url(#p10e5562b77)" style="fill: #1e90ff; stroke: #000000; stroke-linejoin: miter"/>
   </g>
   <g id="patch_125">
    <path d="M 859.699805 318.84375 
L 865.62626 318.84375 
L 865.62626 318.84375 
L 859.699805 318.84375 
z
" clip-path="url(#p10e5562b77)" style="fill: #1e90ff; stroke: #000000; stroke-linejoin: miter"/>
   </g>
   <g id="patch_126">
    <path d="M 865.62626 318.84375 
L 871.552716 318.84375 
L 871.552716 318.84375 
L 865.62626 318.84375 
z
" clip-path="url(#p10e5562b77)" style="fill: #1e90ff; stroke: #000000; stroke-linejoin: miter"/>
   </g>
   <g id="patch_127">
    <path d="M 871.552716 318.84375 
L 877.479171 318.84375 
L 877.479171 318.84375 
L 871.552716 318.84375 
z
" clip-path="url(#p10e5562b77)" style="fill: #1e90ff; stroke: #000000; stroke-linejoin: miter"/>
   </g>
   <g id="patch_128">
    <path d="M 877.479171 318.84375 
L 883.405626 318.84375 
L 883.405626 318.84375 
L 877.479171 318.84375 
z
" clip-path="url(#p10e5562b77)" style="fill: #1e90ff; stroke: #000000; stroke-linejoin: miter"/>
   </g>
   <g id="patch_129">
    <path d="M 883.405626 318.84375 
L 889.332082 318.84375 
L 889.332082 318.84375 
L 883.405626 318.84375 
z
" clip-path="url(#p10e5562b77)" style="fill: #1e90ff; stroke: #000000; stroke-linejoin: miter"/>
   </g>
   <g id="patch_130">
    <path d="M 889.332082 318.84375 
L 895.258537 318.84375 
L 895.258537 318.84375 
L 889.332082 318.84375 
z
" clip-path="url(#p10e5562b77)" style="fill: #1e90ff; stroke: #000000; stroke-linejoin: miter"/>
   </g>
   <g id="patch_131">
    <path d="M 895.258537 318.84375 
L 901.184992 318.84375 
L 901.184992 318.84375 
L 895.258537 318.84375 
z
" clip-path="url(#p10e5562b77)" style="fill: #1e90ff; stroke: #000000; stroke-linejoin: miter"/>
   </g>
   <g id="patch_132">
    <path d="M 901.184992 318.84375 
L 907.111447 318.84375 
L 907.111447 318.84375 
L 901.184992 318.84375 
z
" clip-path="url(#p10e5562b77)" style="fill: #1e90ff; stroke: #000000; stroke-linejoin: miter"/>
   </g>
   <g id="patch_133">
    <path d="M 907.111447 318.84375 
L 913.037903 318.84375 
L 913.037903 318.84375 
L 907.111447 318.84375 
z
" clip-path="url(#p10e5562b77)" style="fill: #1e90ff; stroke: #000000; stroke-linejoin: miter"/>
   </g>
   <g id="patch_134">
    <path d="M 913.037903 318.84375 
L 918.964358 318.84375 
L 918.964358 318.84375 
L 913.037903 318.84375 
z
" clip-path="url(#p10e5562b77)" style="fill: #1e90ff; stroke: #000000; stroke-linejoin: miter"/>
   </g>
   <g id="patch_135">
    <path d="M 918.964358 318.84375 
L 924.890813 318.84375 
L 924.890813 318.84375 
L 918.964358 318.84375 
z
" clip-path="url(#p10e5562b77)" style="fill: #1e90ff; stroke: #000000; stroke-linejoin: miter"/>
   </g>
   <g id="patch_136">
    <path d="M 924.890813 318.84375 
L 930.817269 318.84375 
L 930.817269 318.84375 
L 924.890813 318.84375 
z
" clip-path="url(#p10e5562b77)" style="fill: #1e90ff; stroke: #000000; stroke-linejoin: miter"/>
   </g>
   <g id="patch_137">
    <path d="M 930.817269 318.84375 
L 936.743724 318.84375 
L 936.743724 318.84375 
L 930.817269 318.84375 
z
" clip-path="url(#p10e5562b77)" style="fill: #1e90ff; stroke: #000000; stroke-linejoin: miter"/>
   </g>
   <g id="patch_138">
    <path d="M 936.743724 318.84375 
L 942.670179 318.84375 
L 942.670179 318.84375 
L 936.743724 318.84375 
z
" clip-path="url(#p10e5562b77)" style="fill: #1e90ff; stroke: #000000; stroke-linejoin: miter"/>
   </g>
   <g id="patch_139">
    <path d="M 942.670179 318.84375 
L 948.596635 318.84375 
L 948.596635 318.84375 
L 942.670179 318.84375 
z
" clip-path="url(#p10e5562b77)" style="fill: #1e90ff; stroke: #000000; stroke-linejoin: miter"/>
   </g>
   <g id="patch_140">
    <path d="M 948.596635 318.84375 
L 954.52309 318.84375 
L 954.52309 318.84375 
L 948.596635 318.84375 
z
" clip-path="url(#p10e5562b77)" style="fill: #1e90ff; stroke: #000000; stroke-linejoin: miter"/>
   </g>
   <g id="patch_141">
    <path d="M 954.52309 318.84375 
L 960.449545 318.84375 
L 960.449545 318.84375 
L 954.52309 318.84375 
z
" clip-path="url(#p10e5562b77)" style="fill: #1e90ff; stroke: #000000; stroke-linejoin: miter"/>
   </g>
   <g id="patch_142">
    <path d="M 960.449545 318.84375 
L 966.376 318.84375 
L 966.376 318.84375 
L 960.449545 318.84375 
z
" clip-path="url(#p10e5562b77)" style="fill: #1e90ff; stroke: #000000; stroke-linejoin: miter"/>
   </g>
   <g id="patch_143">
    <path d="M 966.376 318.84375 
L 972.302456 318.84375 
L 972.302456 318.84375 
L 966.376 318.84375 
z
" clip-path="url(#p10e5562b77)" style="fill: #1e90ff; stroke: #000000; stroke-linejoin: miter"/>
   </g>
   <g id="patch_144">
    <path d="M 972.302456 318.84375 
L 978.228911 318.84375 
L 978.228911 318.84375 
L 972.302456 318.84375 
z
" clip-path="url(#p10e5562b77)" style="fill: #1e90ff; stroke: #000000; stroke-linejoin: miter"/>
   </g>
   <g id="patch_145">
    <path d="M 978.228911 318.84375 
L 984.155366 318.84375 
L 984.155366 318.84375 
L 978.228911 318.84375 
z
" clip-path="url(#p10e5562b77)" style="fill: #1e90ff; stroke: #000000; stroke-linejoin: miter"/>
   </g>
   <g id="patch_146">
    <path d="M 984.155366 318.84375 
L 990.081822 318.84375 
L 990.081822 318.84375 
L 984.155366 318.84375 
z
" clip-path="url(#p10e5562b77)" style="fill: #1e90ff; stroke: #000000; stroke-linejoin: miter"/>
   </g>
   <g id="patch_147">
    <path d="M 990.081822 318.84375 
L 996.008277 318.84375 
L 996.008277 318.84375 
L 990.081822 318.84375 
z
" clip-path="url(#p10e5562b77)" style="fill: #1e90ff; stroke: #000000; stroke-linejoin: miter"/>
   </g>
   <g id="patch_148">
    <path d="M 996.008277 318.84375 
L 1001.934732 318.84375 
L 1001.934732 318.84375 
L 996.008277 318.84375 
z
" clip-path="url(#p10e5562b77)" style="fill: #1e90ff; stroke: #000000; stroke-linejoin: miter"/>
   </g>
   <g id="patch_149">
    <path d="M 1001.934732 318.84375 
L 1007.861188 318.84375 
L 1007.861188 318.84375 
L 1001.934732 318.84375 
z
" clip-path="url(#p10e5562b77)" style="fill: #1e90ff; stroke: #000000; stroke-linejoin: miter"/>
   </g>
   <g id="patch_150">
    <path d="M 1007.861188 318.84375 
L 1013.787643 318.84375 
L 1013.787643 318.84375 
L 1007.861188 318.84375 
z
" clip-path="url(#p10e5562b77)" style="fill: #1e90ff; stroke: #000000; stroke-linejoin: miter"/>
   </g>
   <g id="patch_151">
    <path d="M 1013.787643 318.84375 
L 1019.714098 318.84375 
L 1019.714098 318.84375 
L 1013.787643 318.84375 
z
" clip-path="url(#p10e5562b77)" style="fill: #1e90ff; stroke: #000000; stroke-linejoin: miter"/>
   </g>
   <g id="patch_152">
    <path d="M 1019.714098 318.84375 
L 1025.640554 318.84375 
L 1025.640554 318.84375 
L 1019.714098 318.84375 
z
" clip-path="url(#p10e5562b77)" style="fill: #1e90ff; stroke: #000000; stroke-linejoin: miter"/>
   </g>
   <g id="patch_153">
    <path d="M 1025.640554 318.84375 
L 1031.567009 318.84375 
L 1031.567009 318.84375 
L 1025.640554 318.84375 
z
" clip-path="url(#p10e5562b77)" style="fill: #1e90ff; stroke: #000000; stroke-linejoin: miter"/>
   </g>
   <g id="patch_154">
    <path d="M 1031.567009 318.84375 
L 1037.493464 318.84375 
L 1037.493464 318.84375 
L 1031.567009 318.84375 
z
" clip-path="url(#p10e5562b77)" style="fill: #1e90ff; stroke: #000000; stroke-linejoin: miter"/>
   </g>
   <g id="patch_155">
    <path d="M 1037.493464 318.84375 
L 1043.419919 318.84375 
L 1043.419919 318.84375 
L 1037.493464 318.84375 
z
" clip-path="url(#p10e5562b77)" style="fill: #1e90ff; stroke: #000000; stroke-linejoin: miter"/>
   </g>
   <g id="patch_156">
    <path d="M 1043.419919 318.84375 
L 1049.346375 318.84375 
L 1049.346375 318.84375 
L 1043.419919 318.84375 
z
" clip-path="url(#p10e5562b77)" style="fill: #1e90ff; stroke: #000000; stroke-linejoin: miter"/>
   </g>
   <g id="patch_157">
    <path d="M 1049.346375 318.84375 
L 1055.27283 318.84375 
L 1055.27283 25.46875 
L 1049.346375 25.46875 
z
" clip-path="url(#p10e5562b77)" style="fill: #1e90ff; stroke: #000000; stroke-linejoin: miter"/>
   </g>
   <g id="matplotlib.axis_5">
    <g id="xtick_12">
     <g id="line2d_43">
      <path d="M 805.694291 318.84375 
L 805.694291 10.8 
" clip-path="url(#p10e5562b77)" style="fill: none; stroke-dasharray: 2.96,1.28; stroke-dashoffset: 0; stroke: #b0b0b0; stroke-width: 0.8"/>
     </g>
     <g id="line2d_44">
      <g>
       <use xlink:href="#mef71760ee0" x="805.694291" y="318.84375" style="stroke: #000000; stroke-width: 0.8"/>
      </g>
     </g>
     <g id="text_28">
      <!-- −0.6 -->
      <g transform="translate(793.552885 333.442187) scale(0.1 -0.1)">
       <defs>
        <path id="DejaVuSans-2212" d="M 678 2272 
L 4684 2272 
L 4684 1741 
L 678 1741 
L 678 2272 
z
" transform="scale(0.015625)"/>
       </defs>
       <use xlink:href="#DejaVuSans-2212"/>
       <use xlink:href="#DejaVuSans-30" x="83.789062"/>
       <use xlink:href="#DejaVuSans-2e" x="147.412109"/>
       <use xlink:href="#DejaVuSans-36" x="179.199219"/>
      </g>
     </g>
    </g>
    <g id="xtick_13">
     <g id="line2d_45">
      <path d="M 851.072207 318.84375 
L 851.072207 10.8 
" clip-path="url(#p10e5562b77)" style="fill: none; stroke-dasharray: 2.96,1.28; stroke-dashoffset: 0; stroke: #b0b0b0; stroke-width: 0.8"/>
     </g>
     <g id="line2d_46">
      <g>
       <use xlink:href="#mef71760ee0" x="851.072207" y="318.84375" style="stroke: #000000; stroke-width: 0.8"/>
      </g>
     </g>
     <g id="text_29">
      <!-- −0.4 -->
      <g transform="translate(838.930801 333.442187) scale(0.1 -0.1)">
       <use xlink:href="#DejaVuSans-2212"/>
       <use xlink:href="#DejaVuSans-30" x="83.789062"/>
       <use xlink:href="#DejaVuSans-2e" x="147.412109"/>
       <use xlink:href="#DejaVuSans-34" x="179.199219"/>
      </g>
     </g>
    </g>
    <g id="xtick_14">
     <g id="line2d_47">
      <path d="M 896.450123 318.84375 
L 896.450123 10.8 
" clip-path="url(#p10e5562b77)" style="fill: none; stroke-dasharray: 2.96,1.28; stroke-dashoffset: 0; stroke: #b0b0b0; stroke-width: 0.8"/>
     </g>
     <g id="line2d_48">
      <g>
       <use xlink:href="#mef71760ee0" x="896.450123" y="318.84375" style="stroke: #000000; stroke-width: 0.8"/>
      </g>
     </g>
     <g id="text_30">
      <!-- −0.2 -->
      <g transform="translate(884.308717 333.442187) scale(0.1 -0.1)">
       <use xlink:href="#DejaVuSans-2212"/>
       <use xlink:href="#DejaVuSans-30" x="83.789062"/>
       <use xlink:href="#DejaVuSans-2e" x="147.412109"/>
       <use xlink:href="#DejaVuSans-32" x="179.199219"/>
      </g>
     </g>
    </g>
    <g id="xtick_15">
     <g id="line2d_49">
      <path d="M 941.82804 318.84375 
L 941.82804 10.8 
" clip-path="url(#p10e5562b77)" style="fill: none; stroke-dasharray: 2.96,1.28; stroke-dashoffset: 0; stroke: #b0b0b0; stroke-width: 0.8"/>
     </g>
     <g id="line2d_50">
      <g>
       <use xlink:href="#mef71760ee0" x="941.82804" y="318.84375" style="stroke: #000000; stroke-width: 0.8"/>
      </g>
     </g>
     <g id="text_31">
      <!-- 0.0 -->
      <g transform="translate(933.876477 333.442187) scale(0.1 -0.1)">
       <use xlink:href="#DejaVuSans-30"/>
       <use xlink:href="#DejaVuSans-2e" x="63.623047"/>
       <use xlink:href="#DejaVuSans-30" x="95.410156"/>
      </g>
     </g>
    </g>
    <g id="xtick_16">
     <g id="line2d_51">
      <path d="M 987.205956 318.84375 
L 987.205956 10.8 
" clip-path="url(#p10e5562b77)" style="fill: none; stroke-dasharray: 2.96,1.28; stroke-dashoffset: 0; stroke: #b0b0b0; stroke-width: 0.8"/>
     </g>
     <g id="line2d_52">
      <g>
       <use xlink:href="#mef71760ee0" x="987.205956" y="318.84375" style="stroke: #000000; stroke-width: 0.8"/>
      </g>
     </g>
     <g id="text_32">
      <!-- 0.2 -->
      <g transform="translate(979.254393 333.442187) scale(0.1 -0.1)">
       <use xlink:href="#DejaVuSans-30"/>
       <use xlink:href="#DejaVuSans-2e" x="63.623047"/>
       <use xlink:href="#DejaVuSans-32" x="95.410156"/>
      </g>
     </g>
    </g>
    <g id="xtick_17">
     <g id="line2d_53">
      <path d="M 1032.583872 318.84375 
L 1032.583872 10.8 
" clip-path="url(#p10e5562b77)" style="fill: none; stroke-dasharray: 2.96,1.28; stroke-dashoffset: 0; stroke: #b0b0b0; stroke-width: 0.8"/>
     </g>
     <g id="line2d_54">
      <g>
       <use xlink:href="#mef71760ee0" x="1032.583872" y="318.84375" style="stroke: #000000; stroke-width: 0.8"/>
      </g>
     </g>
     <g id="text_33">
      <!-- 0.4 -->
      <g transform="translate(1024.632309 333.442187) scale(0.1 -0.1)">
       <use xlink:href="#DejaVuSans-30"/>
       <use xlink:href="#DejaVuSans-2e" x="63.623047"/>
       <use xlink:href="#DejaVuSans-34" x="95.410156"/>
      </g>
     </g>
    </g>
    <g id="text_34">
     <!-- Factor of $\pi$ -->
     <g transform="translate(889.20113 347.120312) scale(0.1 -0.1)">
      <use xlink:href="#DejaVuSans-46" transform="translate(0 0.015625)"/>
      <use xlink:href="#DejaVuSans-61" transform="translate(57.519531 0.015625)"/>
      <use xlink:href="#DejaVuSans-63" transform="translate(118.798828 0.015625)"/>
      <use xlink:href="#DejaVuSans-74" transform="translate(173.779297 0.015625)"/>
      <use xlink:href="#DejaVuSans-6f" transform="translate(212.988281 0.015625)"/>
      <use xlink:href="#DejaVuSans-72" transform="translate(274.169922 0.015625)"/>
      <use xlink:href="#DejaVuSans-20" transform="translate(315.283203 0.015625)"/>
      <use xlink:href="#DejaVuSans-6f" transform="translate(347.070312 0.015625)"/>
      <use xlink:href="#DejaVuSans-66" transform="translate(408.251953 0.015625)"/>
      <use xlink:href="#DejaVuSans-20" transform="translate(443.457031 0.015625)"/>
      <use xlink:href="#DejaVuSans-Oblique-3c0" transform="translate(475.244141 0.015625)"/>
     </g>
    </g>
   </g>
   <g id="matplotlib.axis_6">
    <g id="ytick_11">
     <g id="line2d_55">
      <path d="M 762.802261 318.84375 
L 1069.2 318.84375 
" clip-path="url(#p10e5562b77)" style="fill: none; stroke-dasharray: 2.96,1.28; stroke-dashoffset: 0; stroke: #b0b0b0; stroke-width: 0.8"/>
     </g>
     <g id="line2d_56">
      <g>
       <use xlink:href="#m27e236e076" x="762.802261" y="318.84375" style="stroke: #000000; stroke-width: 0.8"/>
      </g>
     </g>
     <g id="text_35">
      <!-- 0 -->
      <g transform="translate(749.439761 322.642969) scale(0.1 -0.1)">
       <use xlink:href="#DejaVuSans-30"/>
      </g>
     </g>
    </g>
    <g id="ytick_12">
     <g id="line2d_57">
      <path d="M 762.802261 252.619145 
L 1069.2 252.619145 
" clip-path="url(#p10e5562b77)" style="fill: none; stroke-dasharray: 2.96,1.28; stroke-dashoffset: 0; stroke: #b0b0b0; stroke-width: 0.8"/>
     </g>
     <g id="line2d_58">
      <g>
       <use xlink:href="#m27e236e076" x="762.802261" y="252.619145" style="stroke: #000000; stroke-width: 0.8"/>
      </g>
     </g>
     <g id="text_36">
      <!-- 100 -->
      <g transform="translate(736.714761 256.418364) scale(0.1 -0.1)">
       <use xlink:href="#DejaVuSans-31"/>
       <use xlink:href="#DejaVuSans-30" x="63.623047"/>
       <use xlink:href="#DejaVuSans-30" x="127.246094"/>
      </g>
     </g>
    </g>
    <g id="ytick_13">
     <g id="line2d_59">
      <path d="M 762.802261 186.39454 
L 1069.2 186.39454 
" clip-path="url(#p10e5562b77)" style="fill: none; stroke-dasharray: 2.96,1.28; stroke-dashoffset: 0; stroke: #b0b0b0; stroke-width: 0.8"/>
     </g>
     <g id="line2d_60">
      <g>
       <use xlink:href="#m27e236e076" x="762.802261" y="186.39454" style="stroke: #000000; stroke-width: 0.8"/>
      </g>
     </g>
     <g id="text_37">
      <!-- 200 -->
      <g transform="translate(736.714761 190.193759) scale(0.1 -0.1)">
       <use xlink:href="#DejaVuSans-32"/>
       <use xlink:href="#DejaVuSans-30" x="63.623047"/>
       <use xlink:href="#DejaVuSans-30" x="127.246094"/>
      </g>
     </g>
    </g>
    <g id="ytick_14">
     <g id="line2d_61">
      <path d="M 762.802261 120.169935 
L 1069.2 120.169935 
" clip-path="url(#p10e5562b77)" style="fill: none; stroke-dasharray: 2.96,1.28; stroke-dashoffset: 0; stroke: #b0b0b0; stroke-width: 0.8"/>
     </g>
     <g id="line2d_62">
      <g>
       <use xlink:href="#m27e236e076" x="762.802261" y="120.169935" style="stroke: #000000; stroke-width: 0.8"/>
      </g>
     </g>
     <g id="text_38">
      <!-- 300 -->
      <g transform="translate(736.714761 123.969154) scale(0.1 -0.1)">
       <use xlink:href="#DejaVuSans-33"/>
       <use xlink:href="#DejaVuSans-30" x="63.623047"/>
       <use xlink:href="#DejaVuSans-30" x="127.246094"/>
      </g>
     </g>
    </g>
    <g id="ytick_15">
     <g id="line2d_63">
      <path d="M 762.802261 53.94533 
L 1069.2 53.94533 
" clip-path="url(#p10e5562b77)" style="fill: none; stroke-dasharray: 2.96,1.28; stroke-dashoffset: 0; stroke: #b0b0b0; stroke-width: 0.8"/>
     </g>
     <g id="line2d_64">
      <g>
       <use xlink:href="#m27e236e076" x="762.802261" y="53.94533" style="stroke: #000000; stroke-width: 0.8"/>
      </g>
     </g>
     <g id="text_39">
      <!-- 400 -->
      <g transform="translate(736.714761 57.744549) scale(0.1 -0.1)">
       <use xlink:href="#DejaVuSans-34"/>
       <use xlink:href="#DejaVuSans-30" x="63.623047"/>
       <use xlink:href="#DejaVuSans-30" x="127.246094"/>
      </g>
     </g>
    </g>
    <g id="text_40">
     <!-- Frequency -->
     <g transform="translate(730.635073 190.651563) rotate(-90) scale(0.1 -0.1)">
      <use xlink:href="#DejaVuSans-46"/>
      <use xlink:href="#DejaVuSans-72" x="50.269531"/>
      <use xlink:href="#DejaVuSans-65" x="89.132812"/>
      <use xlink:href="#DejaVuSans-71" x="150.65625"/>
      <use xlink:href="#DejaVuSans-75" x="214.132812"/>
      <use xlink:href="#DejaVuSans-65" x="277.511719"/>
      <use xlink:href="#DejaVuSans-6e" x="339.035156"/>
      <use xlink:href="#DejaVuSans-63" x="402.414062"/>
      <use xlink:href="#DejaVuSans-79" x="457.394531"/>
     </g>
    </g>
   </g>
   <g id="patch_158">
    <path d="M 762.802261 318.84375 
L 762.802261 10.8 
" style="fill: none; stroke: #000000; stroke-width: 0.8; stroke-linejoin: miter; stroke-linecap: square"/>
   </g>
   <g id="patch_159">
    <path d="M 1069.2 318.84375 
L 1069.2 10.8 
" style="fill: none; stroke: #000000; stroke-width: 0.8; stroke-linejoin: miter; stroke-linecap: square"/>
   </g>
   <g id="patch_160">
    <path d="M 762.802261 318.84375 
L 1069.2 318.84375 
" style="fill: none; stroke: #000000; stroke-width: 0.8; stroke-linejoin: miter; stroke-linecap: square"/>
   </g>
   <g id="patch_161">
    <path d="M 762.802261 10.8 
L 1069.2 10.8 
" style="fill: none; stroke: #000000; stroke-width: 0.8; stroke-linejoin: miter; stroke-linecap: square"/>
   </g>
   <g id="legend_3">
    <g id="patch_162">
     <path d="M 769.802261 33.478125 
L 807.802261 33.478125 
Q 809.802261 33.478125 809.802261 31.478125 
L 809.802261 17.8 
Q 809.802261 15.8 807.802261 15.8 
L 769.802261 15.8 
Q 767.802261 15.8 767.802261 17.8 
L 767.802261 31.478125 
Q 767.802261 33.478125 769.802261 33.478125 
z
" style="fill: #ffffff; opacity: 0.8; stroke: #cccccc; stroke-linejoin: miter"/>
    </g>
    <g id="patch_163">
     <path d="M 771.802261 27.398438 
L 791.802261 27.398438 
L 791.802261 20.398438 
L 771.802261 20.398438 
z
" style="fill: #1e90ff; stroke: #000000; stroke-linejoin: miter"/>
    </g>
    <g id="text_41">
     <!-- $\lambda$ -->
     <g transform="translate(799.802261 27.398438) scale(0.1 -0.1)">
      <defs>
       <path id="DejaVuSans-Oblique-3bb" d="M 2350 4316 
L 3125 0 
L 2516 0 
L 2038 2588 
L 328 0 
L -281 0 
L 1903 3356 
L 1794 3975 
Q 1725 4369 1391 4369 
L 1091 4369 
L 1184 4863 
L 1550 4856 
Q 2253 4847 2350 4316 
z
" transform="scale(0.015625)"/>
      </defs>
      <use xlink:href="#DejaVuSans-Oblique-3bb" transform="translate(0 0.015625)"/>
     </g>
    </g>
   </g>
  </g>
 </g>
 <defs>
  <clipPath id="p863bf747e0">
   <rect x="44.203125" y="10.8" width="306.397739" height="308.04375"/>
  </clipPath>
  <clipPath id="p924eb486d7">
   <rect x="403.502693" y="10.8" width="306.397739" height="308.04375"/>
  </clipPath>
  <clipPath id="p10e5562b77">
   <rect x="762.802261" y="10.8" width="306.397739" height="308.04375"/>
  </clipPath>
 </defs>
</svg>
