<?xml version="1.0" encoding="utf-8" standalone="no"?>
<!DOCTYPE svg PUBLIC "-//W3C//DTD SVG 1.1//EN"
  "http://www.w3.org/Graphics/SVG/1.1/DTD/svg11.dtd">
<svg xmlns:xlink="http://www.w3.org/1999/xlink" width="868.008411pt" height="257.679996pt" viewBox="0 0 868.008411 257.679996" xmlns="http://www.w3.org/2000/svg" version="1.1">
 <metadata>
  <rdf:RDF xmlns:dc="http://purl.org/dc/elements/1.1/" xmlns:cc="http://creativecommons.org/ns#" xmlns:rdf="http://www.w3.org/1999/02/22-rdf-syntax-ns#">
   <cc:Work>
    <dc:type rdf:resource="http://purl.org/dc/dcmitype/StillImage"/>
    <dc:date>2025-07-13T20:39:39.368277</dc:date>
    <dc:format>image/svg+xml</dc:format>
    <dc:creator>
     <cc:Agent>
      <dc:title>Matplotlib v3.9.2, https://matplotlib.org/</dc:title>
     </cc:Agent>
    </dc:creator>
   </cc:Work>
  </rdf:RDF>
 </metadata>
 <defs>
  <style type="text/css">*{stroke-linejoin: round; stroke-linecap: butt}</style>
 </defs>
 <g id="figure_1">
  <g id="patch_1">
   <path d="M 0 257.679996 
L 868.008411 257.679996 
L 868.008411 0 
L 0 0 
z
" style="fill: #ffffff"/>
  </g>
  <g id="axes_1">
   <g id="line2d_1">
    <path d="M 75.677513 51.432727 
L 855.27932 51.432727 
" clip-path="url(#p0d60d66c6c)" style="fill: none; stroke: #000000; stroke-width: 2; stroke-linecap: square"/>
   </g>
   <g id="line2d_2">
    <path d="M 75.677513 106.723635 
L 855.27932 106.723635 
" clip-path="url(#p0d60d66c6c)" style="fill: none; stroke: #000000; stroke-width: 2; stroke-linecap: square"/>
   </g>
   <g id="line2d_3">
    <path d="M 75.677513 162.014543 
L 855.27932 162.014543 
" clip-path="url(#p0d60d66c6c)" style="fill: none; stroke: #000000; stroke-width: 2; stroke-linecap: square"/>
   </g>
   <g id="line2d_4">
    <path d="M 86.735695 222.834542 
L 92.264786 211.776361 
" clip-path="url(#p0d60d66c6c)" style="fill: none; stroke: #778899; stroke-width: 1.5; stroke-linecap: square"/>
   </g>
   <g id="line2d_5">
    <path d="M 75.677513 215.508497 
L 855.27932 215.508497 
" clip-path="url(#p0d60d66c6c)" style="fill: none; stroke: #778899; stroke-width: 2; stroke-linecap: square"/>
   </g>
   <g id="line2d_6">
    <path d="M 75.677513 219.102406 
L 855.27932 219.102406 
" clip-path="url(#p0d60d66c6c)" style="fill: none; stroke: #778899; stroke-width: 2; stroke-linecap: square"/>
   </g>
   <g id="patch_2">
    <path d="M 70.148423 23.787272 
L -1312.124285 23.787272 
L -1312.124285 300.241814 
L 70.148423 300.241814 
z
" clip-path="url(#p0d60d66c6c)" style="fill: #ffffff; stroke: #ffffff; stroke-width: 1.5; stroke-linejoin: miter"/>
   </g>
   <g id="patch_3">
    <path d="M 87.565059 69.402272 
L 123.504149 69.402272 
L 123.504149 33.463181 
L 87.565059 33.463181 
z
" clip-path="url(#p0d60d66c6c)" style="fill: #fa4d56; stroke: #fa4d56; stroke-width: 1.5; stroke-linejoin: miter"/>
   </g>
   <g id="patch_4">
    <path d="M 87.565059 124.69318 
L 123.504149 124.69318 
L 123.504149 88.75409 
L 87.565059 88.75409 
z
" clip-path="url(#p0d60d66c6c)" style="fill: #fa4d56; stroke: #fa4d56; stroke-width: 1.5; stroke-linejoin: miter"/>
   </g>
   <g id="patch_5">
    <path d="M 87.565059 179.984088 
L 123.504149 179.984088 
L 123.504149 144.044998 
L 87.565059 144.044998 
z
" clip-path="url(#p0d60d66c6c)" style="fill: #fa4d56; stroke: #fa4d56; stroke-width: 1.5; stroke-linejoin: miter"/>
   </g>
   <g id="patch_6">
    <path d="M 153.214719 179.984088 
L 444.890847 179.984088 
L 444.890847 33.463181 
L 153.214719 33.463181 
z
" clip-path="url(#p0d60d66c6c)" style="fill: #9f1853; stroke: #9f1853; stroke-width: 1.5; stroke-linejoin: miter"/>
   </g>
   <g id="patch_7">
    <path d="M 485.018224 179.984088 
L 776.578242 179.984088 
L 776.578242 33.463181 
L 485.018224 33.463181 
z
" clip-path="url(#p0d60d66c6c)" style="fill: #9f1853; stroke: #9f1853; stroke-width: 1.5; stroke-linejoin: miter"/>
   </g>
   <g id="patch_8">
    <path d="M 806.346867 179.984088 
L 842.285957 179.984088 
L 842.285957 144.044998 
L 806.346867 144.044998 
z
" clip-path="url(#p0d60d66c6c)" style="fill: #fa4d56; stroke: #fa4d56; stroke-width: 1.5; stroke-linejoin: miter"/>
   </g>
   <g id="patch_9">
    <path d="M 806.346867 124.69318 
L 842.285957 124.69318 
L 842.285957 88.75409 
L 806.346867 88.75409 
z
" clip-path="url(#p0d60d66c6c)" style="fill: #fa4d56; stroke: #fa4d56; stroke-width: 1.5; stroke-linejoin: miter"/>
   </g>
   <g id="patch_10">
    <path d="M 806.346867 69.402272 
L 842.285957 69.402272 
L 842.285957 33.463181 
L 806.346867 33.463181 
z
" clip-path="url(#p0d60d66c6c)" style="fill: #fa4d56; stroke: #fa4d56; stroke-width: 1.5; stroke-linejoin: miter"/>
   </g>
   <g id="text_1">
    <g clip-path="url(#p0d60d66c6c)">
     <!-- ${q}_{0}$ -->
     <g transform="translate(46.581832 55.883703) scale(0.1625 -0.1625)">
      <defs>
       <path id="DejaVuSans-Oblique-71" d="M 2669 525 
Q 2438 222 2123 65 
Q 1809 -91 1428 -91 
Q 897 -91 595 267 
Q 294 625 294 1253 
Q 294 1759 480 2231 
Q 666 2703 1013 3078 
Q 1238 3322 1530 3453 
Q 1822 3584 2144 3584 
Q 2531 3584 2781 3431 
Q 3031 3278 3144 2969 
L 3244 3494 
L 3822 3494 
L 2888 -1319 
L 2309 -1319 
L 2669 525 
z
M 891 1338 
Q 891 875 1084 633 
Q 1278 391 1644 391 
Q 2188 391 2572 911 
Q 2956 1431 2956 2175 
Q 2956 2625 2757 2864 
Q 2559 3103 2188 3103 
Q 1916 3103 1684 2976 
Q 1453 2850 1281 2606 
Q 1100 2350 995 2006 
Q 891 1663 891 1338 
z
" transform="scale(0.015625)"/>
       <path id="DejaVuSans-30" d="M 2034 4250 
Q 1547 4250 1301 3770 
Q 1056 3291 1056 2328 
Q 1056 1369 1301 889 
Q 1547 409 2034 409 
Q 2525 409 2770 889 
Q 3016 1369 3016 2328 
Q 3016 3291 2770 3770 
Q 2525 4250 2034 4250 
z
M 2034 4750 
Q 2819 4750 3233 4129 
Q 3647 3509 3647 2328 
Q 3647 1150 3233 529 
Q 2819 -91 2034 -91 
Q 1250 -91 836 529 
Q 422 1150 422 2328 
Q 422 3509 836 4129 
Q 1250 4750 2034 4750 
z
" transform="scale(0.015625)"/>
      </defs>
      <use xlink:href="#DejaVuSans-Oblique-71"/>
      <use xlink:href="#DejaVuSans-30" transform="translate(63.476562 -16.40625) scale(0.7)"/>
     </g>
    </g>
   </g>
   <g id="text_2">
    <g clip-path="url(#p0d60d66c6c)">
     <!-- ${q}_{1}$ -->
     <g transform="translate(46.581832 111.174611) scale(0.1625 -0.1625)">
      <defs>
       <path id="DejaVuSans-31" d="M 794 531 
L 1825 531 
L 1825 4091 
L 703 3866 
L 703 4441 
L 1819 4666 
L 2450 4666 
L 2450 531 
L 3481 531 
L 3481 0 
L 794 0 
L 794 531 
z
" transform="scale(0.015625)"/>
      </defs>
      <use xlink:href="#DejaVuSans-Oblique-71"/>
      <use xlink:href="#DejaVuSans-31" transform="translate(63.476562 -16.40625) scale(0.7)"/>
     </g>
    </g>
   </g>
   <g id="text_3">
    <g clip-path="url(#p0d60d66c6c)">
     <!-- ${q}_{2}$ -->
     <g transform="translate(46.581832 166.46552) scale(0.1625 -0.1625)">
      <defs>
       <path id="DejaVuSans-32" d="M 1228 531 
L 3431 531 
L 3431 0 
L 469 0 
L 469 531 
Q 828 903 1448 1529 
Q 2069 2156 2228 2338 
Q 2531 2678 2651 2914 
Q 2772 3150 2772 3378 
Q 2772 3750 2511 3984 
Q 2250 4219 1831 4219 
Q 1534 4219 1204 4116 
Q 875 4013 500 3803 
L 500 4441 
Q 881 4594 1212 4672 
Q 1544 4750 1819 4750 
Q 2544 4750 2975 4387 
Q 3406 4025 3406 3419 
Q 3406 3131 3298 2873 
Q 3191 2616 2906 2266 
Q 2828 2175 2409 1742 
Q 1991 1309 1228 531 
z
" transform="scale(0.015625)"/>
      </defs>
      <use xlink:href="#DejaVuSans-Oblique-71"/>
      <use xlink:href="#DejaVuSans-32" transform="translate(63.476562 -16.40625) scale(0.7)"/>
     </g>
    </g>
   </g>
   <g id="text_4">
    <g clip-path="url(#p0d60d66c6c)">
     <!-- 1 -->
     <g transform="translate(81.206604 209.613486) scale(0.104 -0.104)">
      <use xlink:href="#DejaVuSans-31"/>
     </g>
    </g>
   </g>
   <g id="text_5">
    <g clip-path="url(#p0d60d66c6c)">
     <!-- c -->
     <g transform="translate(55.684371 221.789436) scale(0.1625 -0.1625)">
      <defs>
       <path id="DejaVuSans-63" d="M 3122 3366 
L 3122 2828 
Q 2878 2963 2633 3030 
Q 2388 3097 2138 3097 
Q 1578 3097 1268 2742 
Q 959 2388 959 1747 
Q 959 1106 1268 751 
Q 1578 397 2138 397 
Q 2388 397 2633 464 
Q 2878 531 3122 666 
L 3122 134 
Q 2881 22 2623 -34 
Q 2366 -91 2075 -91 
Q 1284 -91 818 406 
Q 353 903 353 1747 
Q 353 2603 823 3093 
Q 1294 3584 2113 3584 
Q 2378 3584 2631 3529 
Q 2884 3475 3122 3366 
z
" transform="scale(0.015625)"/>
      </defs>
      <use xlink:href="#DejaVuSans-63"/>
     </g>
    </g>
   </g>
   <g id="text_6">
    <g clip-path="url(#p0d60d66c6c)">
     <!-- H -->
     <g transform="translate(100.646401 55.019914) scale(0.13 -0.13)">
      <defs>
       <path id="DejaVuSans-48" d="M 628 4666 
L 1259 4666 
L 1259 2753 
L 3553 2753 
L 3553 4666 
L 4184 4666 
L 4184 0 
L 3553 0 
L 3553 2222 
L 1259 2222 
L 1259 0 
L 628 0 
L 628 4666 
z
" transform="scale(0.015625)"/>
      </defs>
      <use xlink:href="#DejaVuSans-48"/>
     </g>
    </g>
   </g>
   <g id="text_7">
    <g clip-path="url(#p0d60d66c6c)">
     <!-- H -->
     <g transform="translate(100.646401 110.310822) scale(0.13 -0.13)">
      <use xlink:href="#DejaVuSans-48"/>
     </g>
    </g>
   </g>
   <g id="text_8">
    <g clip-path="url(#p0d60d66c6c)">
     <!-- H -->
     <g transform="translate(100.646401 165.601731) scale(0.13 -0.13)">
      <use xlink:href="#DejaVuSans-48"/>
     </g>
    </g>
   </g>
   <g id="text_9">
    <g clip-path="url(#p0d60d66c6c)">
     <!-- 0 -->
     <g style="fill: #ffffff" transform="translate(157.085082 55.019914) scale(0.13 -0.13)">
      <use xlink:href="#DejaVuSans-30"/>
     </g>
    </g>
   </g>
   <g id="text_10">
    <g clip-path="url(#p0d60d66c6c)">
     <!-- 1 -->
     <g style="fill: #ffffff" transform="translate(157.085082 110.310822) scale(0.13 -0.13)">
      <use xlink:href="#DejaVuSans-31"/>
     </g>
    </g>
   </g>
   <g id="text_11">
    <g clip-path="url(#p0d60d66c6c)">
     <!-- 2 -->
     <g style="fill: #ffffff" transform="translate(157.085082 165.601731) scale(0.13 -0.13)">
      <use xlink:href="#DejaVuSans-32"/>
     </g>
    </g>
   </g>
   <g id="text_12">
    <g clip-path="url(#p0d60d66c6c)">
     <!-- 0.582, 0.551, 0.492, 0.878, 0.606, 0.952, 0.494, 0.599 -->
     <g style="fill: #ffffff" transform="translate(195.727283 134.917862) scale(0.08 -0.08)">
      <defs>
       <path id="DejaVuSans-2e" d="M 684 794 
L 1344 794 
L 1344 0 
L 684 0 
L 684 794 
z
" transform="scale(0.015625)"/>
       <path id="DejaVuSans-35" d="M 691 4666 
L 3169 4666 
L 3169 4134 
L 1269 4134 
L 1269 2991 
Q 1406 3038 1543 3061 
Q 1681 3084 1819 3084 
Q 2600 3084 3056 2656 
Q 3513 2228 3513 1497 
Q 3513 744 3044 326 
Q 2575 -91 1722 -91 
Q 1428 -91 1123 -41 
Q 819 9 494 109 
L 494 744 
Q 775 591 1075 516 
Q 1375 441 1709 441 
Q 2250 441 2565 725 
Q 2881 1009 2881 1497 
Q 2881 1984 2565 2268 
Q 2250 2553 1709 2553 
Q 1456 2553 1204 2497 
Q 953 2441 691 2322 
L 691 4666 
z
" transform="scale(0.015625)"/>
       <path id="DejaVuSans-38" d="M 2034 2216 
Q 1584 2216 1326 1975 
Q 1069 1734 1069 1313 
Q 1069 891 1326 650 
Q 1584 409 2034 409 
Q 2484 409 2743 651 
Q 3003 894 3003 1313 
Q 3003 1734 2745 1975 
Q 2488 2216 2034 2216 
z
M 1403 2484 
Q 997 2584 770 2862 
Q 544 3141 544 3541 
Q 544 4100 942 4425 
Q 1341 4750 2034 4750 
Q 2731 4750 3128 4425 
Q 3525 4100 3525 3541 
Q 3525 3141 3298 2862 
Q 3072 2584 2669 2484 
Q 3125 2378 3379 2068 
Q 3634 1759 3634 1313 
Q 3634 634 3220 271 
Q 2806 -91 2034 -91 
Q 1263 -91 848 271 
Q 434 634 434 1313 
Q 434 1759 690 2068 
Q 947 2378 1403 2484 
z
M 1172 3481 
Q 1172 3119 1398 2916 
Q 1625 2713 2034 2713 
Q 2441 2713 2670 2916 
Q 2900 3119 2900 3481 
Q 2900 3844 2670 4047 
Q 2441 4250 2034 4250 
Q 1625 4250 1398 4047 
Q 1172 3844 1172 3481 
z
" transform="scale(0.015625)"/>
       <path id="DejaVuSans-2c" d="M 750 794 
L 1409 794 
L 1409 256 
L 897 -744 
L 494 -744 
L 750 256 
L 750 794 
z
" transform="scale(0.015625)"/>
       <path id="DejaVuSans-20" transform="scale(0.015625)"/>
       <path id="DejaVuSans-34" d="M 2419 4116 
L 825 1625 
L 2419 1625 
L 2419 4116 
z
M 2253 4666 
L 3047 4666 
L 3047 1625 
L 3713 1625 
L 3713 1100 
L 3047 1100 
L 3047 0 
L 2419 0 
L 2419 1100 
L 313 1100 
L 313 1709 
L 2253 4666 
z
" transform="scale(0.015625)"/>
       <path id="DejaVuSans-39" d="M 703 97 
L 703 672 
Q 941 559 1184 500 
Q 1428 441 1663 441 
Q 2288 441 2617 861 
Q 2947 1281 2994 2138 
Q 2813 1869 2534 1725 
Q 2256 1581 1919 1581 
Q 1219 1581 811 2004 
Q 403 2428 403 3163 
Q 403 3881 828 4315 
Q 1253 4750 1959 4750 
Q 2769 4750 3195 4129 
Q 3622 3509 3622 2328 
Q 3622 1225 3098 567 
Q 2575 -91 1691 -91 
Q 1453 -91 1209 -44 
Q 966 3 703 97 
z
M 1959 2075 
Q 2384 2075 2632 2365 
Q 2881 2656 2881 3163 
Q 2881 3666 2632 3958 
Q 2384 4250 1959 4250 
Q 1534 4250 1286 3958 
Q 1038 3666 1038 3163 
Q 1038 2656 1286 2365 
Q 1534 2075 1959 2075 
z
" transform="scale(0.015625)"/>
       <path id="DejaVuSans-37" d="M 525 4666 
L 3525 4666 
L 3525 4397 
L 1831 0 
L 1172 0 
L 2766 4134 
L 525 4134 
L 525 4666 
z
" transform="scale(0.015625)"/>
       <path id="DejaVuSans-36" d="M 2113 2584 
Q 1688 2584 1439 2293 
Q 1191 2003 1191 1497 
Q 1191 994 1439 701 
Q 1688 409 2113 409 
Q 2538 409 2786 701 
Q 3034 994 3034 1497 
Q 3034 2003 2786 2293 
Q 2538 2584 2113 2584 
z
M 3366 4563 
L 3366 3988 
Q 3128 4100 2886 4159 
Q 2644 4219 2406 4219 
Q 1781 4219 1451 3797 
Q 1122 3375 1075 2522 
Q 1259 2794 1537 2939 
Q 1816 3084 2150 3084 
Q 2853 3084 3261 2657 
Q 3669 2231 3669 1497 
Q 3669 778 3244 343 
Q 2819 -91 2113 -91 
Q 1303 -91 875 529 
Q 447 1150 447 2328 
Q 447 3434 972 4092 
Q 1497 4750 2381 4750 
Q 2619 4750 2861 4703 
Q 3103 4656 3366 4563 
z
" transform="scale(0.015625)"/>
      </defs>
      <use xlink:href="#DejaVuSans-30"/>
      <use xlink:href="#DejaVuSans-2e" x="63.623047"/>
      <use xlink:href="#DejaVuSans-35" x="95.410156"/>
      <use xlink:href="#DejaVuSans-38" x="159.033203"/>
      <use xlink:href="#DejaVuSans-32" x="222.65625"/>
      <use xlink:href="#DejaVuSans-2c" x="286.279297"/>
      <use xlink:href="#DejaVuSans-20" x="318.066406"/>
      <use xlink:href="#DejaVuSans-30" x="349.853516"/>
      <use xlink:href="#DejaVuSans-2e" x="413.476562"/>
      <use xlink:href="#DejaVuSans-35" x="445.263672"/>
      <use xlink:href="#DejaVuSans-35" x="508.886719"/>
      <use xlink:href="#DejaVuSans-31" x="572.509766"/>
      <use xlink:href="#DejaVuSans-2c" x="636.132812"/>
      <use xlink:href="#DejaVuSans-20" x="667.919922"/>
      <use xlink:href="#DejaVuSans-30" x="699.707031"/>
      <use xlink:href="#DejaVuSans-2e" x="763.330078"/>
      <use xlink:href="#DejaVuSans-34" x="795.117188"/>
      <use xlink:href="#DejaVuSans-39" x="858.740234"/>
      <use xlink:href="#DejaVuSans-32" x="922.363281"/>
      <use xlink:href="#DejaVuSans-2c" x="985.986328"/>
      <use xlink:href="#DejaVuSans-20" x="1017.773438"/>
      <use xlink:href="#DejaVuSans-30" x="1049.560547"/>
      <use xlink:href="#DejaVuSans-2e" x="1113.183594"/>
      <use xlink:href="#DejaVuSans-38" x="1144.970703"/>
      <use xlink:href="#DejaVuSans-37" x="1208.59375"/>
      <use xlink:href="#DejaVuSans-38" x="1272.216797"/>
      <use xlink:href="#DejaVuSans-2c" x="1335.839844"/>
      <use xlink:href="#DejaVuSans-20" x="1367.626953"/>
      <use xlink:href="#DejaVuSans-30" x="1399.414062"/>
      <use xlink:href="#DejaVuSans-2e" x="1463.037109"/>
      <use xlink:href="#DejaVuSans-36" x="1494.824219"/>
      <use xlink:href="#DejaVuSans-30" x="1558.447266"/>
      <use xlink:href="#DejaVuSans-36" x="1622.070312"/>
      <use xlink:href="#DejaVuSans-2c" x="1685.693359"/>
      <use xlink:href="#DejaVuSans-20" x="1717.480469"/>
      <use xlink:href="#DejaVuSans-30" x="1749.267578"/>
      <use xlink:href="#DejaVuSans-2e" x="1812.890625"/>
      <use xlink:href="#DejaVuSans-39" x="1844.677734"/>
      <use xlink:href="#DejaVuSans-35" x="1908.300781"/>
      <use xlink:href="#DejaVuSans-32" x="1971.923828"/>
      <use xlink:href="#DejaVuSans-2c" x="2035.546875"/>
      <use xlink:href="#DejaVuSans-20" x="2067.333984"/>
      <use xlink:href="#DejaVuSans-30" x="2099.121094"/>
      <use xlink:href="#DejaVuSans-2e" x="2162.744141"/>
      <use xlink:href="#DejaVuSans-34" x="2194.53125"/>
      <use xlink:href="#DejaVuSans-39" x="2258.154297"/>
      <use xlink:href="#DejaVuSans-34" x="2321.777344"/>
      <use xlink:href="#DejaVuSans-2c" x="2385.400391"/>
      <use xlink:href="#DejaVuSans-20" x="2417.1875"/>
      <use xlink:href="#DejaVuSans-30" x="2448.974609"/>
      <use xlink:href="#DejaVuSans-2e" x="2512.597656"/>
      <use xlink:href="#DejaVuSans-35" x="2544.384766"/>
      <use xlink:href="#DejaVuSans-39" x="2608.007812"/>
      <use xlink:href="#DejaVuSans-39" x="2671.630859"/>
     </g>
    </g>
   </g>
   <g id="text_13">
    <g clip-path="url(#p0d60d66c6c)">
     <!-- U_iqc -->
     <g style="fill: #ffffff" transform="translate(287.621345 106.812587) scale(0.13 -0.13)">
      <defs>
       <path id="DejaVuSans-55" d="M 556 4666 
L 1191 4666 
L 1191 1831 
Q 1191 1081 1462 751 
Q 1734 422 2344 422 
Q 2950 422 3222 751 
Q 3494 1081 3494 1831 
L 3494 4666 
L 4128 4666 
L 4128 1753 
Q 4128 841 3676 375 
Q 3225 -91 2344 -91 
Q 1459 -91 1007 375 
Q 556 841 556 1753 
L 556 4666 
z
" transform="scale(0.015625)"/>
       <path id="DejaVuSans-5f" d="M 3263 -1063 
L 3263 -1509 
L -63 -1509 
L -63 -1063 
L 3263 -1063 
z
" transform="scale(0.015625)"/>
       <path id="DejaVuSans-69" d="M 603 3500 
L 1178 3500 
L 1178 0 
L 603 0 
L 603 3500 
z
M 603 4863 
L 1178 4863 
L 1178 4134 
L 603 4134 
L 603 4863 
z
" transform="scale(0.015625)"/>
       <path id="DejaVuSans-71" d="M 947 1747 
Q 947 1113 1208 752 
Q 1469 391 1925 391 
Q 2381 391 2643 752 
Q 2906 1113 2906 1747 
Q 2906 2381 2643 2742 
Q 2381 3103 1925 3103 
Q 1469 3103 1208 2742 
Q 947 2381 947 1747 
z
M 2906 525 
Q 2725 213 2448 61 
Q 2172 -91 1784 -91 
Q 1150 -91 751 415 
Q 353 922 353 1747 
Q 353 2572 751 3078 
Q 1150 3584 1784 3584 
Q 2172 3584 2448 3432 
Q 2725 3281 2906 2969 
L 2906 3500 
L 3481 3500 
L 3481 -1331 
L 2906 -1331 
L 2906 525 
z
" transform="scale(0.015625)"/>
      </defs>
      <use xlink:href="#DejaVuSans-55"/>
      <use xlink:href="#DejaVuSans-5f" x="73.193359"/>
      <use xlink:href="#DejaVuSans-69" x="123.193359"/>
      <use xlink:href="#DejaVuSans-71" x="150.976562"/>
      <use xlink:href="#DejaVuSans-63" x="214.453125"/>
     </g>
    </g>
   </g>
   <g id="text_14">
    <g clip-path="url(#p0d60d66c6c)">
     <!-- 0 -->
     <g style="fill: #ffffff" transform="translate(488.888587 55.019914) scale(0.13 -0.13)">
      <use xlink:href="#DejaVuSans-30"/>
     </g>
    </g>
   </g>
   <g id="text_15">
    <g clip-path="url(#p0d60d66c6c)">
     <!-- 1 -->
     <g style="fill: #ffffff" transform="translate(488.888587 110.310822) scale(0.13 -0.13)">
      <use xlink:href="#DejaVuSans-31"/>
     </g>
    </g>
   </g>
   <g id="text_16">
    <g clip-path="url(#p0d60d66c6c)">
     <!-- 2 -->
     <g style="fill: #ffffff" transform="translate(488.888587 165.601731) scale(0.13 -0.13)">
      <use xlink:href="#DejaVuSans-32"/>
     </g>
    </g>
   </g>
   <g id="text_17">
    <g clip-path="url(#p0d60d66c6c)">
     <!-- 0.357, 0.204, 0.625, 0.141, 0.619, 0.227, 0.642, 0.448 -->
     <g style="fill: #ffffff" transform="translate(527.472733 134.917862) scale(0.08 -0.08)">
      <defs>
       <path id="DejaVuSans-33" d="M 2597 2516 
Q 3050 2419 3304 2112 
Q 3559 1806 3559 1356 
Q 3559 666 3084 287 
Q 2609 -91 1734 -91 
Q 1441 -91 1130 -33 
Q 819 25 488 141 
L 488 750 
Q 750 597 1062 519 
Q 1375 441 1716 441 
Q 2309 441 2620 675 
Q 2931 909 2931 1356 
Q 2931 1769 2642 2001 
Q 2353 2234 1838 2234 
L 1294 2234 
L 1294 2753 
L 1863 2753 
Q 2328 2753 2575 2939 
Q 2822 3125 2822 3475 
Q 2822 3834 2567 4026 
Q 2313 4219 1838 4219 
Q 1578 4219 1281 4162 
Q 984 4106 628 3988 
L 628 4550 
Q 988 4650 1302 4700 
Q 1616 4750 1894 4750 
Q 2613 4750 3031 4423 
Q 3450 4097 3450 3541 
Q 3450 3153 3228 2886 
Q 3006 2619 2597 2516 
z
" transform="scale(0.015625)"/>
      </defs>
      <use xlink:href="#DejaVuSans-30"/>
      <use xlink:href="#DejaVuSans-2e" x="63.623047"/>
      <use xlink:href="#DejaVuSans-33" x="95.410156"/>
      <use xlink:href="#DejaVuSans-35" x="159.033203"/>
      <use xlink:href="#DejaVuSans-37" x="222.65625"/>
      <use xlink:href="#DejaVuSans-2c" x="286.279297"/>
      <use xlink:href="#DejaVuSans-20" x="318.066406"/>
      <use xlink:href="#DejaVuSans-30" x="349.853516"/>
      <use xlink:href="#DejaVuSans-2e" x="413.476562"/>
      <use xlink:href="#DejaVuSans-32" x="445.263672"/>
      <use xlink:href="#DejaVuSans-30" x="508.886719"/>
      <use xlink:href="#DejaVuSans-34" x="572.509766"/>
      <use xlink:href="#DejaVuSans-2c" x="636.132812"/>
      <use xlink:href="#DejaVuSans-20" x="667.919922"/>
      <use xlink:href="#DejaVuSans-30" x="699.707031"/>
      <use xlink:href="#DejaVuSans-2e" x="763.330078"/>
      <use xlink:href="#DejaVuSans-36" x="795.117188"/>
      <use xlink:href="#DejaVuSans-32" x="858.740234"/>
      <use xlink:href="#DejaVuSans-35" x="922.363281"/>
      <use xlink:href="#DejaVuSans-2c" x="985.986328"/>
      <use xlink:href="#DejaVuSans-20" x="1017.773438"/>
      <use xlink:href="#DejaVuSans-30" x="1049.560547"/>
      <use xlink:href="#DejaVuSans-2e" x="1113.183594"/>
      <use xlink:href="#DejaVuSans-31" x="1144.970703"/>
      <use xlink:href="#DejaVuSans-34" x="1208.59375"/>
      <use xlink:href="#DejaVuSans-31" x="1272.216797"/>
      <use xlink:href="#DejaVuSans-2c" x="1335.839844"/>
      <use xlink:href="#DejaVuSans-20" x="1367.626953"/>
      <use xlink:href="#DejaVuSans-30" x="1399.414062"/>
      <use xlink:href="#DejaVuSans-2e" x="1463.037109"/>
      <use xlink:href="#DejaVuSans-36" x="1494.824219"/>
      <use xlink:href="#DejaVuSans-31" x="1558.447266"/>
      <use xlink:href="#DejaVuSans-39" x="1622.070312"/>
      <use xlink:href="#DejaVuSans-2c" x="1685.693359"/>
      <use xlink:href="#DejaVuSans-20" x="1717.480469"/>
      <use xlink:href="#DejaVuSans-30" x="1749.267578"/>
      <use xlink:href="#DejaVuSans-2e" x="1812.890625"/>
      <use xlink:href="#DejaVuSans-32" x="1844.677734"/>
      <use xlink:href="#DejaVuSans-32" x="1908.300781"/>
      <use xlink:href="#DejaVuSans-37" x="1971.923828"/>
      <use xlink:href="#DejaVuSans-2c" x="2035.546875"/>
      <use xlink:href="#DejaVuSans-20" x="2067.333984"/>
      <use xlink:href="#DejaVuSans-30" x="2099.121094"/>
      <use xlink:href="#DejaVuSans-2e" x="2162.744141"/>
      <use xlink:href="#DejaVuSans-36" x="2194.53125"/>
      <use xlink:href="#DejaVuSans-34" x="2258.154297"/>
      <use xlink:href="#DejaVuSans-32" x="2321.777344"/>
      <use xlink:href="#DejaVuSans-2c" x="2385.400391"/>
      <use xlink:href="#DejaVuSans-20" x="2417.1875"/>
      <use xlink:href="#DejaVuSans-30" x="2448.974609"/>
      <use xlink:href="#DejaVuSans-2e" x="2512.597656"/>
      <use xlink:href="#DejaVuSans-34" x="2544.384766"/>
      <use xlink:href="#DejaVuSans-34" x="2608.007812"/>
      <use xlink:href="#DejaVuSans-38" x="2671.630859"/>
     </g>
    </g>
   </g>
   <g id="text_18">
    <g clip-path="url(#p0d60d66c6c)">
     <!-- U_iqc -->
     <g style="fill: #ffffff" transform="translate(619.366795 106.812587) scale(0.13 -0.13)">
      <use xlink:href="#DejaVuSans-55"/>
      <use xlink:href="#DejaVuSans-5f" x="73.193359"/>
      <use xlink:href="#DejaVuSans-69" x="123.193359"/>
      <use xlink:href="#DejaVuSans-71" x="150.976562"/>
      <use xlink:href="#DejaVuSans-63" x="214.453125"/>
     </g>
    </g>
   </g>
   <g id="text_19">
    <g clip-path="url(#p0d60d66c6c)">
     <!-- H -->
     <g transform="translate(819.428209 165.601731) scale(0.13 -0.13)">
      <use xlink:href="#DejaVuSans-48"/>
     </g>
    </g>
   </g>
   <g id="text_20">
    <g clip-path="url(#p0d60d66c6c)">
     <!-- H -->
     <g transform="translate(819.428209 110.310822) scale(0.13 -0.13)">
      <use xlink:href="#DejaVuSans-48"/>
     </g>
    </g>
   </g>
   <g id="text_21">
    <g clip-path="url(#p0d60d66c6c)">
     <!-- H -->
     <g transform="translate(819.428209 55.019914) scale(0.13 -0.13)">
      <use xlink:href="#DejaVuSans-48"/>
     </g>
    </g>
   </g>
  </g>
 </g>
 <defs>
  <clipPath id="p0d60d66c6c">
   <rect x="7.2" y="7.2" width="853.608411" height="243.279996"/>
  </clipPath>
 </defs>
</svg>
