<?xml version="1.0" encoding="utf-8" standalone="no"?>
<!DOCTYPE svg PUBLIC "-//W3C//DTD SVG 1.1//EN"
  "http://www.w3.org/Graphics/SVG/1.1/DTD/svg11.dtd">
<svg xmlns:xlink="http://www.w3.org/1999/xlink" width="1239.929981pt" height="365.018033pt" viewBox="0 0 1239.929981 365.018033" xmlns="http://www.w3.org/2000/svg" version="1.1">
 <metadata>
  <rdf:RDF xmlns:dc="http://purl.org/dc/elements/1.1/" xmlns:cc="http://creativecommons.org/ns#" xmlns:rdf="http://www.w3.org/1999/02/22-rdf-syntax-ns#">
   <cc:Work>
    <dc:type rdf:resource="http://purl.org/dc/dcmitype/StillImage"/>
    <dc:date>2024-11-04T22:12:41.309055</dc:date>
    <dc:format>image/svg+xml</dc:format>
    <dc:creator>
     <cc:Agent>
      <dc:title>Matplotlib v3.9.2, https://matplotlib.org/</dc:title>
     </cc:Agent>
    </dc:creator>
   </cc:Work>
  </rdf:RDF>
 </metadata>
 <defs>
  <style type="text/css">*{stroke-linejoin: round; stroke-linecap: butt}</style>
 </defs>
 <g id="figure_1">
  <g id="patch_1">
   <path d="M -0 365.018033 
L 1239.929981 365.018033 
L 1239.929981 0 
L -0 0 
z
" style="fill: #ffffff"/>
  </g>
  <g id="axes_1">
   <g id="line2d_1">
    <path d="M 64.609196 51.881637 
L 1228.094581 51.881637 
" clip-path="url(#p64e7da9658)" style="fill: none; stroke: #000000; stroke-width: 2; stroke-linecap: square"/>
   </g>
   <g id="line2d_2">
    <path d="M 64.609196 98.235636 
L 1228.094581 98.235636 
" clip-path="url(#p64e7da9658)" style="fill: none; stroke: #000000; stroke-width: 2; stroke-linecap: square"/>
   </g>
   <g id="line2d_3">
    <path d="M 64.609196 144.589636 
L 1228.094581 144.589636 
" clip-path="url(#p64e7da9658)" style="fill: none; stroke: #000000; stroke-width: 2; stroke-linecap: square"/>
   </g>
   <g id="line2d_4">
    <path d="M 1228.094581 51.881637 
L 1228.094581 144.589636 
" clip-path="url(#p64e7da9658)" style="fill: none; stroke: #000000; stroke-width: 1.5; stroke-linecap: square"/>
   </g>
   <g id="line2d_5">
    <path d="M 64.609196 237.297635 
L 1228.094581 237.297635 
" clip-path="url(#p64e7da9658)" style="fill: none; stroke: #000000; stroke-width: 2; stroke-linecap: square"/>
   </g>
   <g id="line2d_6">
    <path d="M 64.609196 283.651634 
L 1228.094581 283.651634 
" clip-path="url(#p64e7da9658)" style="fill: none; stroke: #000000; stroke-width: 2; stroke-linecap: square"/>
   </g>
   <g id="line2d_7">
    <path d="M 64.609196 330.005633 
L 1228.094581 330.005633 
" clip-path="url(#p64e7da9658)" style="fill: none; stroke: #000000; stroke-width: 2; stroke-linecap: square"/>
   </g>
   <g id="line2d_8">
    <path d="M 64.145656 237.297635 
L 64.145656 330.005633 
" clip-path="url(#p64e7da9658)" style="fill: none; stroke: #000000; stroke-width: 1.5; stroke-linecap: square"/>
   </g>
   <g id="text_1">
    <!-- Global Phase: 0.7281163423393406 -->
    <g transform="translate(7.2 14.798437) scale(0.1 -0.1)">
     <defs>
      <path id="DejaVuSans-47" d="M 3809 666 
L 3809 1919 
L 2778 1919 
L 2778 2438 
L 4434 2438 
L 4434 434 
Q 4069 175 3628 42 
Q 3188 -91 2688 -91 
Q 1594 -91 976 548 
Q 359 1188 359 2328 
Q 359 3472 976 4111 
Q 1594 4750 2688 4750 
Q 3144 4750 3555 4637 
Q 3966 4525 4313 4306 
L 4313 3634 
Q 3963 3931 3569 4081 
Q 3175 4231 2741 4231 
Q 1884 4231 1454 3753 
Q 1025 3275 1025 2328 
Q 1025 1384 1454 906 
Q 1884 428 2741 428 
Q 3075 428 3337 486 
Q 3600 544 3809 666 
z
" transform="scale(0.015625)"/>
      <path id="DejaVuSans-6c" d="M 603 4863 
L 1178 4863 
L 1178 0 
L 603 0 
L 603 4863 
z
" transform="scale(0.015625)"/>
      <path id="DejaVuSans-6f" d="M 1959 3097 
Q 1497 3097 1228 2736 
Q 959 2375 959 1747 
Q 959 1119 1226 758 
Q 1494 397 1959 397 
Q 2419 397 2687 759 
Q 2956 1122 2956 1747 
Q 2956 2369 2687 2733 
Q 2419 3097 1959 3097 
z
M 1959 3584 
Q 2709 3584 3137 3096 
Q 3566 2609 3566 1747 
Q 3566 888 3137 398 
Q 2709 -91 1959 -91 
Q 1206 -91 779 398 
Q 353 888 353 1747 
Q 353 2609 779 3096 
Q 1206 3584 1959 3584 
z
" transform="scale(0.015625)"/>
      <path id="DejaVuSans-62" d="M 3116 1747 
Q 3116 2381 2855 2742 
Q 2594 3103 2138 3103 
Q 1681 3103 1420 2742 
Q 1159 2381 1159 1747 
Q 1159 1113 1420 752 
Q 1681 391 2138 391 
Q 2594 391 2855 752 
Q 3116 1113 3116 1747 
z
M 1159 2969 
Q 1341 3281 1617 3432 
Q 1894 3584 2278 3584 
Q 2916 3584 3314 3078 
Q 3713 2572 3713 1747 
Q 3713 922 3314 415 
Q 2916 -91 2278 -91 
Q 1894 -91 1617 61 
Q 1341 213 1159 525 
L 1159 0 
L 581 0 
L 581 4863 
L 1159 4863 
L 1159 2969 
z
" transform="scale(0.015625)"/>
      <path id="DejaVuSans-61" d="M 2194 1759 
Q 1497 1759 1228 1600 
Q 959 1441 959 1056 
Q 959 750 1161 570 
Q 1363 391 1709 391 
Q 2188 391 2477 730 
Q 2766 1069 2766 1631 
L 2766 1759 
L 2194 1759 
z
M 3341 1997 
L 3341 0 
L 2766 0 
L 2766 531 
Q 2569 213 2275 61 
Q 1981 -91 1556 -91 
Q 1019 -91 701 211 
Q 384 513 384 1019 
Q 384 1609 779 1909 
Q 1175 2209 1959 2209 
L 2766 2209 
L 2766 2266 
Q 2766 2663 2505 2880 
Q 2244 3097 1772 3097 
Q 1472 3097 1187 3025 
Q 903 2953 641 2809 
L 641 3341 
Q 956 3463 1253 3523 
Q 1550 3584 1831 3584 
Q 2591 3584 2966 3190 
Q 3341 2797 3341 1997 
z
" transform="scale(0.015625)"/>
      <path id="DejaVuSans-20" transform="scale(0.015625)"/>
      <path id="DejaVuSans-50" d="M 1259 4147 
L 1259 2394 
L 2053 2394 
Q 2494 2394 2734 2622 
Q 2975 2850 2975 3272 
Q 2975 3691 2734 3919 
Q 2494 4147 2053 4147 
L 1259 4147 
z
M 628 4666 
L 2053 4666 
Q 2838 4666 3239 4311 
Q 3641 3956 3641 3272 
Q 3641 2581 3239 2228 
Q 2838 1875 2053 1875 
L 1259 1875 
L 1259 0 
L 628 0 
L 628 4666 
z
" transform="scale(0.015625)"/>
      <path id="DejaVuSans-68" d="M 3513 2113 
L 3513 0 
L 2938 0 
L 2938 2094 
Q 2938 2591 2744 2837 
Q 2550 3084 2163 3084 
Q 1697 3084 1428 2787 
Q 1159 2491 1159 1978 
L 1159 0 
L 581 0 
L 581 4863 
L 1159 4863 
L 1159 2956 
Q 1366 3272 1645 3428 
Q 1925 3584 2291 3584 
Q 2894 3584 3203 3211 
Q 3513 2838 3513 2113 
z
" transform="scale(0.015625)"/>
      <path id="DejaVuSans-73" d="M 2834 3397 
L 2834 2853 
Q 2591 2978 2328 3040 
Q 2066 3103 1784 3103 
Q 1356 3103 1142 2972 
Q 928 2841 928 2578 
Q 928 2378 1081 2264 
Q 1234 2150 1697 2047 
L 1894 2003 
Q 2506 1872 2764 1633 
Q 3022 1394 3022 966 
Q 3022 478 2636 193 
Q 2250 -91 1575 -91 
Q 1294 -91 989 -36 
Q 684 19 347 128 
L 347 722 
Q 666 556 975 473 
Q 1284 391 1588 391 
Q 1994 391 2212 530 
Q 2431 669 2431 922 
Q 2431 1156 2273 1281 
Q 2116 1406 1581 1522 
L 1381 1569 
Q 847 1681 609 1914 
Q 372 2147 372 2553 
Q 372 3047 722 3315 
Q 1072 3584 1716 3584 
Q 2034 3584 2315 3537 
Q 2597 3491 2834 3397 
z
" transform="scale(0.015625)"/>
      <path id="DejaVuSans-65" d="M 3597 1894 
L 3597 1613 
L 953 1613 
Q 991 1019 1311 708 
Q 1631 397 2203 397 
Q 2534 397 2845 478 
Q 3156 559 3463 722 
L 3463 178 
Q 3153 47 2828 -22 
Q 2503 -91 2169 -91 
Q 1331 -91 842 396 
Q 353 884 353 1716 
Q 353 2575 817 3079 
Q 1281 3584 2069 3584 
Q 2775 3584 3186 3129 
Q 3597 2675 3597 1894 
z
M 3022 2063 
Q 3016 2534 2758 2815 
Q 2500 3097 2075 3097 
Q 1594 3097 1305 2825 
Q 1016 2553 972 2059 
L 3022 2063 
z
" transform="scale(0.015625)"/>
      <path id="DejaVuSans-3a" d="M 750 794 
L 1409 794 
L 1409 0 
L 750 0 
L 750 794 
z
M 750 3309 
L 1409 3309 
L 1409 2516 
L 750 2516 
L 750 3309 
z
" transform="scale(0.015625)"/>
      <path id="DejaVuSans-30" d="M 2034 4250 
Q 1547 4250 1301 3770 
Q 1056 3291 1056 2328 
Q 1056 1369 1301 889 
Q 1547 409 2034 409 
Q 2525 409 2770 889 
Q 3016 1369 3016 2328 
Q 3016 3291 2770 3770 
Q 2525 4250 2034 4250 
z
M 2034 4750 
Q 2819 4750 3233 4129 
Q 3647 3509 3647 2328 
Q 3647 1150 3233 529 
Q 2819 -91 2034 -91 
Q 1250 -91 836 529 
Q 422 1150 422 2328 
Q 422 3509 836 4129 
Q 1250 4750 2034 4750 
z
" transform="scale(0.015625)"/>
      <path id="DejaVuSans-2e" d="M 684 794 
L 1344 794 
L 1344 0 
L 684 0 
L 684 794 
z
" transform="scale(0.015625)"/>
      <path id="DejaVuSans-37" d="M 525 4666 
L 3525 4666 
L 3525 4397 
L 1831 0 
L 1172 0 
L 2766 4134 
L 525 4134 
L 525 4666 
z
" transform="scale(0.015625)"/>
      <path id="DejaVuSans-32" d="M 1228 531 
L 3431 531 
L 3431 0 
L 469 0 
L 469 531 
Q 828 903 1448 1529 
Q 2069 2156 2228 2338 
Q 2531 2678 2651 2914 
Q 2772 3150 2772 3378 
Q 2772 3750 2511 3984 
Q 2250 4219 1831 4219 
Q 1534 4219 1204 4116 
Q 875 4013 500 3803 
L 500 4441 
Q 881 4594 1212 4672 
Q 1544 4750 1819 4750 
Q 2544 4750 2975 4387 
Q 3406 4025 3406 3419 
Q 3406 3131 3298 2873 
Q 3191 2616 2906 2266 
Q 2828 2175 2409 1742 
Q 1991 1309 1228 531 
z
" transform="scale(0.015625)"/>
      <path id="DejaVuSans-38" d="M 2034 2216 
Q 1584 2216 1326 1975 
Q 1069 1734 1069 1313 
Q 1069 891 1326 650 
Q 1584 409 2034 409 
Q 2484 409 2743 651 
Q 3003 894 3003 1313 
Q 3003 1734 2745 1975 
Q 2488 2216 2034 2216 
z
M 1403 2484 
Q 997 2584 770 2862 
Q 544 3141 544 3541 
Q 544 4100 942 4425 
Q 1341 4750 2034 4750 
Q 2731 4750 3128 4425 
Q 3525 4100 3525 3541 
Q 3525 3141 3298 2862 
Q 3072 2584 2669 2484 
Q 3125 2378 3379 2068 
Q 3634 1759 3634 1313 
Q 3634 634 3220 271 
Q 2806 -91 2034 -91 
Q 1263 -91 848 271 
Q 434 634 434 1313 
Q 434 1759 690 2068 
Q 947 2378 1403 2484 
z
M 1172 3481 
Q 1172 3119 1398 2916 
Q 1625 2713 2034 2713 
Q 2441 2713 2670 2916 
Q 2900 3119 2900 3481 
Q 2900 3844 2670 4047 
Q 2441 4250 2034 4250 
Q 1625 4250 1398 4047 
Q 1172 3844 1172 3481 
z
" transform="scale(0.015625)"/>
      <path id="DejaVuSans-31" d="M 794 531 
L 1825 531 
L 1825 4091 
L 703 3866 
L 703 4441 
L 1819 4666 
L 2450 4666 
L 2450 531 
L 3481 531 
L 3481 0 
L 794 0 
L 794 531 
z
" transform="scale(0.015625)"/>
      <path id="DejaVuSans-36" d="M 2113 2584 
Q 1688 2584 1439 2293 
Q 1191 2003 1191 1497 
Q 1191 994 1439 701 
Q 1688 409 2113 409 
Q 2538 409 2786 701 
Q 3034 994 3034 1497 
Q 3034 2003 2786 2293 
Q 2538 2584 2113 2584 
z
M 3366 4563 
L 3366 3988 
Q 3128 4100 2886 4159 
Q 2644 4219 2406 4219 
Q 1781 4219 1451 3797 
Q 1122 3375 1075 2522 
Q 1259 2794 1537 2939 
Q 1816 3084 2150 3084 
Q 2853 3084 3261 2657 
Q 3669 2231 3669 1497 
Q 3669 778 3244 343 
Q 2819 -91 2113 -91 
Q 1303 -91 875 529 
Q 447 1150 447 2328 
Q 447 3434 972 4092 
Q 1497 4750 2381 4750 
Q 2619 4750 2861 4703 
Q 3103 4656 3366 4563 
z
" transform="scale(0.015625)"/>
      <path id="DejaVuSans-33" d="M 2597 2516 
Q 3050 2419 3304 2112 
Q 3559 1806 3559 1356 
Q 3559 666 3084 287 
Q 2609 -91 1734 -91 
Q 1441 -91 1130 -33 
Q 819 25 488 141 
L 488 750 
Q 750 597 1062 519 
Q 1375 441 1716 441 
Q 2309 441 2620 675 
Q 2931 909 2931 1356 
Q 2931 1769 2642 2001 
Q 2353 2234 1838 2234 
L 1294 2234 
L 1294 2753 
L 1863 2753 
Q 2328 2753 2575 2939 
Q 2822 3125 2822 3475 
Q 2822 3834 2567 4026 
Q 2313 4219 1838 4219 
Q 1578 4219 1281 4162 
Q 984 4106 628 3988 
L 628 4550 
Q 988 4650 1302 4700 
Q 1616 4750 1894 4750 
Q 2613 4750 3031 4423 
Q 3450 4097 3450 3541 
Q 3450 3153 3228 2886 
Q 3006 2619 2597 2516 
z
" transform="scale(0.015625)"/>
      <path id="DejaVuSans-34" d="M 2419 4116 
L 825 1625 
L 2419 1625 
L 2419 4116 
z
M 2253 4666 
L 3047 4666 
L 3047 1625 
L 3713 1625 
L 3713 1100 
L 3047 1100 
L 3047 0 
L 2419 0 
L 2419 1100 
L 313 1100 
L 313 1709 
L 2253 4666 
z
" transform="scale(0.015625)"/>
      <path id="DejaVuSans-39" d="M 703 97 
L 703 672 
Q 941 559 1184 500 
Q 1428 441 1663 441 
Q 2288 441 2617 861 
Q 2947 1281 2994 2138 
Q 2813 1869 2534 1725 
Q 2256 1581 1919 1581 
Q 1219 1581 811 2004 
Q 403 2428 403 3163 
Q 403 3881 828 4315 
Q 1253 4750 1959 4750 
Q 2769 4750 3195 4129 
Q 3622 3509 3622 2328 
Q 3622 1225 3098 567 
Q 2575 -91 1691 -91 
Q 1453 -91 1209 -44 
Q 966 3 703 97 
z
M 1959 2075 
Q 2384 2075 2632 2365 
Q 2881 2656 2881 3163 
Q 2881 3666 2632 3958 
Q 2384 4250 1959 4250 
Q 1534 4250 1286 3958 
Q 1038 3666 1038 3163 
Q 1038 2656 1286 2365 
Q 1534 2075 1959 2075 
z
" transform="scale(0.015625)"/>
     </defs>
     <use xlink:href="#DejaVuSans-47"/>
     <use xlink:href="#DejaVuSans-6c" x="77.490234"/>
     <use xlink:href="#DejaVuSans-6f" x="105.273438"/>
     <use xlink:href="#DejaVuSans-62" x="166.455078"/>
     <use xlink:href="#DejaVuSans-61" x="229.931641"/>
     <use xlink:href="#DejaVuSans-6c" x="291.210938"/>
     <use xlink:href="#DejaVuSans-20" x="318.994141"/>
     <use xlink:href="#DejaVuSans-50" x="350.78125"/>
     <use xlink:href="#DejaVuSans-68" x="411.083984"/>
     <use xlink:href="#DejaVuSans-61" x="474.462891"/>
     <use xlink:href="#DejaVuSans-73" x="535.742188"/>
     <use xlink:href="#DejaVuSans-65" x="587.841797"/>
     <use xlink:href="#DejaVuSans-3a" x="649.365234"/>
     <use xlink:href="#DejaVuSans-20" x="683.056641"/>
     <use xlink:href="#DejaVuSans-30" x="714.84375"/>
     <use xlink:href="#DejaVuSans-2e" x="778.466797"/>
     <use xlink:href="#DejaVuSans-37" x="810.253906"/>
     <use xlink:href="#DejaVuSans-32" x="873.876953"/>
     <use xlink:href="#DejaVuSans-38" x="937.5"/>
     <use xlink:href="#DejaVuSans-31" x="1001.123047"/>
     <use xlink:href="#DejaVuSans-31" x="1064.746094"/>
     <use xlink:href="#DejaVuSans-36" x="1128.369141"/>
     <use xlink:href="#DejaVuSans-33" x="1191.992188"/>
     <use xlink:href="#DejaVuSans-34" x="1255.615234"/>
     <use xlink:href="#DejaVuSans-32" x="1319.238281"/>
     <use xlink:href="#DejaVuSans-33" x="1382.861328"/>
     <use xlink:href="#DejaVuSans-33" x="1446.484375"/>
     <use xlink:href="#DejaVuSans-39" x="1510.107422"/>
     <use xlink:href="#DejaVuSans-33" x="1573.730469"/>
     <use xlink:href="#DejaVuSans-34" x="1637.353516"/>
     <use xlink:href="#DejaVuSans-30" x="1700.976562"/>
     <use xlink:href="#DejaVuSans-36" x="1764.599609"/>
    </g>
   </g>
   <g id="patch_2">
    <path d="M 59.973797 28.704637 
L -1098.876188 28.704637 
L -1098.876188 214.120635 
L 59.973797 214.120635 
z
" clip-path="url(#p64e7da9658)" style="fill: #ffffff; stroke: #ffffff; stroke-width: 1.5; stroke-linejoin: miter"/>
   </g>
   <g id="patch_3">
    <path d="M 59.973797 214.120635 
L -1098.876188 214.120635 
L -1098.876188 584.95263 
L 59.973797 584.95263 
z
" clip-path="url(#p64e7da9658)" style="fill: #ffffff; stroke: #ffffff; stroke-width: 1.5; stroke-linejoin: miter"/>
   </g>
   <g id="line2d_9">
    <path d="M 228.702354 98.235636 
L 228.702354 51.881637 
" clip-path="url(#p64e7da9658)" style="fill: none; stroke: #002d9c; stroke-width: 2; stroke-linecap: square"/>
   </g>
   <g id="line2d_10">
    <path d="M 367.764352 144.589636 
L 367.764352 51.881637 
" clip-path="url(#p64e7da9658)" style="fill: none; stroke: #002d9c; stroke-width: 2; stroke-linecap: square"/>
   </g>
   <g id="line2d_11">
    <path d="M 506.826351 144.589636 
L 506.826351 98.235636 
" clip-path="url(#p64e7da9658)" style="fill: none; stroke: #002d9c; stroke-width: 2; stroke-linecap: square"/>
   </g>
   <g id="line2d_12">
    <path d="M 645.888349 144.589636 
L 645.888349 51.881637 
" clip-path="url(#p64e7da9658)" style="fill: none; stroke: #002d9c; stroke-width: 2; stroke-linecap: square"/>
   </g>
   <g id="line2d_13">
    <path d="M 784.950347 144.589636 
L 784.950347 98.235636 
" clip-path="url(#p64e7da9658)" style="fill: none; stroke: #002d9c; stroke-width: 2; stroke-linecap: square"/>
   </g>
   <g id="line2d_14">
    <path d="M 924.012345 144.589636 
L 924.012345 51.881637 
" clip-path="url(#p64e7da9658)" style="fill: none; stroke: #002d9c; stroke-width: 2; stroke-linecap: square"/>
   </g>
   <g id="line2d_15">
    <path d="M 1063.074343 144.589636 
L 1063.074343 98.235636 
" clip-path="url(#p64e7da9658)" style="fill: none; stroke: #002d9c; stroke-width: 2; stroke-linecap: square"/>
   </g>
   <g id="line2d_16">
    <path d="M 1202.136341 144.589636 
L 1202.136341 51.881637 
" clip-path="url(#p64e7da9658)" style="fill: none; stroke: #002d9c; stroke-width: 2; stroke-linecap: square"/>
   </g>
   <g id="line2d_17">
    <path d="M 182.348355 283.651634 
L 182.348355 237.297635 
" clip-path="url(#p64e7da9658)" style="fill: none; stroke: #002d9c; stroke-width: 2; stroke-linecap: square"/>
   </g>
   <g id="line2d_18">
    <path d="M 367.764352 330.005633 
L 367.764352 237.297635 
" clip-path="url(#p64e7da9658)" style="fill: none; stroke: #002d9c; stroke-width: 2; stroke-linecap: square"/>
   </g>
   <g id="line2d_19">
    <path d="M 506.826351 330.005633 
L 506.826351 283.651634 
" clip-path="url(#p64e7da9658)" style="fill: none; stroke: #002d9c; stroke-width: 2; stroke-linecap: square"/>
   </g>
   <g id="line2d_20">
    <path d="M 599.534349 330.005633 
L 599.534349 237.297635 
" clip-path="url(#p64e7da9658)" style="fill: none; stroke: #002d9c; stroke-width: 2; stroke-linecap: square"/>
   </g>
   <g id="line2d_21">
    <path d="M 738.596348 330.005633 
L 738.596348 283.651634 
" clip-path="url(#p64e7da9658)" style="fill: none; stroke: #002d9c; stroke-width: 2; stroke-linecap: square"/>
   </g>
   <g id="patch_4">
    <path d="M 115.329743 66.946687 
L 156.658968 66.946687 
L 156.658968 36.816587 
L 115.329743 36.816587 
z
" clip-path="url(#p64e7da9658)" style="fill: #9f1853; stroke: #9f1853; stroke-width: 1.5; stroke-linejoin: miter"/>
   </g>
   <g id="patch_5">
    <path d="M 90.166474 113.300686 
L 181.822237 113.300686 
L 181.822237 83.170587 
L 90.166474 83.170587 
z
" clip-path="url(#p64e7da9658)" style="fill: #9f1853; stroke: #9f1853; stroke-width: 1.5; stroke-linejoin: miter"/>
   </g>
   <g id="patch_6">
    <path d="M 102.097993 159.654686 
L 169.890718 159.654686 
L 169.890718 129.524586 
L 102.097993 129.524586 
z
" clip-path="url(#p64e7da9658)" style="fill: #9f1853; stroke: #9f1853; stroke-width: 1.5; stroke-linejoin: miter"/>
   </g>
   <g id="patch_7">
    <path d="M 228.702354 56.401152 
C 229.900944 56.401152 231.050603 55.924947 231.898134 55.077417 
C 232.745665 54.229886 233.221869 53.080226 233.221869 51.881637 
C 233.221869 50.683048 232.745665 49.533388 231.898134 48.685857 
C 231.050603 47.838327 229.900944 47.362122 228.702354 47.362122 
C 227.503765 47.362122 226.354105 47.838327 225.506575 48.685857 
C 224.659044 49.533388 224.182839 50.683048 224.182839 51.881637 
C 224.182839 53.080226 224.659044 54.229886 225.506575 55.077417 
C 226.354105 55.924947 227.503765 56.401152 228.702354 56.401152 
z
" clip-path="url(#p64e7da9658)" style="fill: #002d9c; stroke: #002d9c; stroke-width: 1.5; stroke-linejoin: miter"/>
   </g>
   <g id="patch_8">
    <path d="M 228.702354 108.781171 
C 231.499063 108.781171 234.181602 107.670027 236.159173 105.692456 
C 238.136745 103.714884 239.247889 101.032345 239.247889 98.235636 
C 239.247889 95.438928 238.136745 92.756389 236.159173 90.778817 
C 234.181602 88.801246 231.499063 87.690102 228.702354 87.690102 
C 225.905646 87.690102 223.223107 88.801246 221.245535 90.778817 
C 219.267964 92.756389 218.156819 95.438928 218.156819 98.235636 
C 218.156819 101.032345 219.267964 103.714884 221.245535 105.692456 
C 223.223107 107.670027 225.905646 108.781171 228.702354 108.781171 
z
" clip-path="url(#p64e7da9658)" style="fill: #002d9c; stroke: #002d9c; stroke-width: 2; stroke-linejoin: miter"/>
   </g>
   <g id="patch_9">
    <path d="M 267.667526 66.946687 
L 328.799181 66.946687 
L 328.799181 36.816587 
L 267.667526 36.816587 
z
" clip-path="url(#p64e7da9658)" style="fill: #9f1853; stroke: #9f1853; stroke-width: 1.5; stroke-linejoin: miter"/>
   </g>
   <g id="patch_10">
    <path d="M 269.887883 113.300686 
L 326.578824 113.300686 
L 326.578824 83.170587 
L 269.887883 83.170587 
z
" clip-path="url(#p64e7da9658)" style="fill: #9f1853; stroke: #9f1853; stroke-width: 1.5; stroke-linejoin: miter"/>
   </g>
   <g id="patch_11">
    <path d="M 367.764352 56.401152 
C 368.962942 56.401152 370.112601 55.924947 370.960132 55.077417 
C 371.807663 54.229886 372.283867 53.080226 372.283867 51.881637 
C 372.283867 50.683048 371.807663 49.533388 370.960132 48.685857 
C 370.112601 47.838327 368.962942 47.362122 367.764352 47.362122 
C 366.565763 47.362122 365.416103 47.838327 364.568573 48.685857 
C 363.721042 49.533388 363.244837 50.683048 363.244837 51.881637 
C 363.244837 53.080226 363.721042 54.229886 364.568573 55.077417 
C 365.416103 55.924947 366.565763 56.401152 367.764352 56.401152 
z
" clip-path="url(#p64e7da9658)" style="fill: #002d9c; stroke: #002d9c; stroke-width: 1.5; stroke-linejoin: miter"/>
   </g>
   <g id="patch_12">
    <path d="M 367.764352 155.135171 
C 370.561061 155.135171 373.2436 154.024027 375.221172 152.046455 
C 377.198743 150.068883 378.309887 147.386344 378.309887 144.589636 
C 378.309887 141.792927 377.198743 139.110388 375.221172 137.132817 
C 373.2436 135.155245 370.561061 134.044101 367.764352 134.044101 
C 364.967644 134.044101 362.285105 135.155245 360.307533 137.132817 
C 358.329962 139.110388 357.218818 141.792927 357.218818 144.589636 
C 357.218818 147.386344 358.329962 150.068883 360.307533 152.046455 
C 362.285105 154.024027 364.967644 155.135171 367.764352 155.135171 
z
" clip-path="url(#p64e7da9658)" style="fill: #002d9c; stroke: #002d9c; stroke-width: 2; stroke-linejoin: miter"/>
   </g>
   <g id="patch_13">
    <path d="M 408.852537 159.654686 
L 465.738166 159.654686 
L 465.738166 129.524586 
L 408.852537 129.524586 
z
" clip-path="url(#p64e7da9658)" style="fill: #9f1853; stroke: #9f1853; stroke-width: 1.5; stroke-linejoin: miter"/>
   </g>
   <g id="patch_14">
    <path d="M 506.826351 102.755151 
C 508.02494 102.755151 509.1746 102.278947 510.02213 101.431416 
C 510.869661 100.583885 511.345866 99.434226 511.345866 98.235636 
C 511.345866 97.037047 510.869661 95.887387 510.02213 95.039857 
C 509.1746 94.192326 508.02494 93.716121 506.826351 93.716121 
C 505.627761 93.716121 504.478102 94.192326 503.630571 95.039857 
C 502.78304 95.887387 502.306836 97.037047 502.306836 98.235636 
C 502.306836 99.434226 502.78304 100.583885 503.630571 101.431416 
C 504.478102 102.278947 505.627761 102.755151 506.826351 102.755151 
z
" clip-path="url(#p64e7da9658)" style="fill: #002d9c; stroke: #002d9c; stroke-width: 1.5; stroke-linejoin: miter"/>
   </g>
   <g id="patch_15">
    <path d="M 506.826351 155.135171 
C 509.623059 155.135171 512.305598 154.024027 514.28317 152.046455 
C 516.260741 150.068883 517.371885 147.386344 517.371885 144.589636 
C 517.371885 141.792927 516.260741 139.110388 514.28317 137.132817 
C 512.305598 135.155245 509.623059 134.044101 506.826351 134.044101 
C 504.029642 134.044101 501.347103 135.155245 499.369531 137.132817 
C 497.39196 139.110388 496.280816 141.792927 496.280816 144.589636 
C 496.280816 147.386344 497.39196 150.068883 499.369531 152.046455 
C 501.347103 154.024027 504.029642 155.135171 506.826351 155.135171 
z
" clip-path="url(#p64e7da9658)" style="fill: #002d9c; stroke: #002d9c; stroke-width: 2; stroke-linejoin: miter"/>
   </g>
   <g id="patch_16">
    <path d="M 550.521948 159.654686 
L 602.192751 159.654686 
L 602.192751 129.524586 
L 550.521948 129.524586 
z
" clip-path="url(#p64e7da9658)" style="fill: #9f1853; stroke: #9f1853; stroke-width: 1.5; stroke-linejoin: miter"/>
   </g>
   <g id="patch_17">
    <path d="M 645.888349 56.401152 
C 647.086938 56.401152 648.236598 55.924947 649.084128 55.077417 
C 649.931659 54.229886 650.407864 53.080226 650.407864 51.881637 
C 650.407864 50.683048 649.931659 49.533388 649.084128 48.685857 
C 648.236598 47.838327 647.086938 47.362122 645.888349 47.362122 
C 644.689759 47.362122 643.5401 47.838327 642.692569 48.685857 
C 641.845038 49.533388 641.368834 50.683048 641.368834 51.881637 
C 641.368834 53.080226 641.845038 54.229886 642.692569 55.077417 
C 643.5401 55.924947 644.689759 56.401152 645.888349 56.401152 
z
" clip-path="url(#p64e7da9658)" style="fill: #002d9c; stroke: #002d9c; stroke-width: 1.5; stroke-linejoin: miter"/>
   </g>
   <g id="patch_18">
    <path d="M 645.888349 155.135171 
C 648.685057 155.135171 651.367596 154.024027 653.345168 152.046455 
C 655.32274 150.068883 656.433884 147.386344 656.433884 144.589636 
C 656.433884 141.792927 655.32274 139.110388 653.345168 137.132817 
C 651.367596 135.155245 648.685057 134.044101 645.888349 134.044101 
C 643.09164 134.044101 640.409101 135.155245 638.43153 137.132817 
C 636.453958 139.110388 635.342814 141.792927 635.342814 144.589636 
C 635.342814 147.386344 636.453958 150.068883 638.43153 152.046455 
C 640.409101 154.024027 643.09164 155.135171 645.888349 155.135171 
z
" clip-path="url(#p64e7da9658)" style="fill: #002d9c; stroke: #002d9c; stroke-width: 2; stroke-linejoin: miter"/>
   </g>
   <g id="patch_19">
    <path d="M 691.373211 159.654686 
L 739.465485 159.654686 
L 739.465485 129.524586 
L 691.373211 129.524586 
z
" clip-path="url(#p64e7da9658)" style="fill: #9f1853; stroke: #9f1853; stroke-width: 1.5; stroke-linejoin: miter"/>
   </g>
   <g id="patch_20">
    <path d="M 784.950347 102.755151 
C 786.148936 102.755151 787.298596 102.278947 788.146127 101.431416 
C 788.993657 100.583885 789.469862 99.434226 789.469862 98.235636 
C 789.469862 97.037047 788.993657 95.887387 788.146127 95.039857 
C 787.298596 94.192326 786.148936 93.716121 784.950347 93.716121 
C 783.751758 93.716121 782.602098 94.192326 781.754567 95.039857 
C 780.907037 95.887387 780.430832 97.037047 780.430832 98.235636 
C 780.430832 99.434226 780.907037 100.583885 781.754567 101.431416 
C 782.602098 102.278947 783.751758 102.755151 784.950347 102.755151 
z
" clip-path="url(#p64e7da9658)" style="fill: #002d9c; stroke: #002d9c; stroke-width: 1.5; stroke-linejoin: miter"/>
   </g>
   <g id="patch_21">
    <path d="M 784.950347 155.135171 
C 787.747055 155.135171 790.429595 154.024027 792.407166 152.046455 
C 794.384738 150.068883 795.495882 147.386344 795.495882 144.589636 
C 795.495882 141.792927 794.384738 139.110388 792.407166 137.132817 
C 790.429595 135.155245 787.747055 134.044101 784.950347 134.044101 
C 782.153638 134.044101 779.471099 135.155245 777.493528 137.132817 
C 775.515956 139.110388 774.404812 141.792927 774.404812 144.589636 
C 774.404812 147.386344 775.515956 150.068883 777.493528 152.046455 
C 779.471099 154.024027 782.153638 155.135171 784.950347 155.135171 
z
" clip-path="url(#p64e7da9658)" style="fill: #002d9c; stroke: #002d9c; stroke-width: 2; stroke-linejoin: miter"/>
   </g>
   <g id="patch_22">
    <path d="M 828.117509 159.654686 
L 880.845183 159.654686 
L 880.845183 129.524586 
L 828.117509 129.524586 
z
" clip-path="url(#p64e7da9658)" style="fill: #9f1853; stroke: #9f1853; stroke-width: 1.5; stroke-linejoin: miter"/>
   </g>
   <g id="patch_23">
    <path d="M 924.012345 56.401152 
C 925.210934 56.401152 926.360594 55.924947 927.208125 55.077417 
C 928.055655 54.229886 928.53186 53.080226 928.53186 51.881637 
C 928.53186 50.683048 928.055655 49.533388 927.208125 48.685857 
C 926.360594 47.838327 925.210934 47.362122 924.012345 47.362122 
C 922.813756 47.362122 921.664096 47.838327 920.816565 48.685857 
C 919.969035 49.533388 919.49283 50.683048 919.49283 51.881637 
C 919.49283 53.080226 919.969035 54.229886 920.816565 55.077417 
C 921.664096 55.924947 922.813756 56.401152 924.012345 56.401152 
z
" clip-path="url(#p64e7da9658)" style="fill: #002d9c; stroke: #002d9c; stroke-width: 1.5; stroke-linejoin: miter"/>
   </g>
   <g id="patch_24">
    <path d="M 924.012345 155.135171 
C 926.809054 155.135171 929.491593 154.024027 931.469164 152.046455 
C 933.446736 150.068883 934.55788 147.386344 934.55788 144.589636 
C 934.55788 141.792927 933.446736 139.110388 931.469164 137.132817 
C 929.491593 135.155245 926.809054 134.044101 924.012345 134.044101 
C 921.215637 134.044101 918.533097 135.155245 916.555526 137.132817 
C 914.577954 139.110388 913.46681 141.792927 913.46681 144.589636 
C 913.46681 147.386344 914.577954 150.068883 916.555526 152.046455 
C 918.533097 154.024027 921.215637 155.135171 924.012345 155.135171 
z
" clip-path="url(#p64e7da9658)" style="fill: #002d9c; stroke: #002d9c; stroke-width: 2; stroke-linejoin: miter"/>
   </g>
   <g id="patch_25">
    <path d="M 967.756614 159.654686 
L 1019.330074 159.654686 
L 1019.330074 129.524586 
L 967.756614 129.524586 
z
" clip-path="url(#p64e7da9658)" style="fill: #9f1853; stroke: #9f1853; stroke-width: 1.5; stroke-linejoin: miter"/>
   </g>
   <g id="patch_26">
    <path d="M 1063.074343 102.755151 
C 1064.272933 102.755151 1065.422592 102.278947 1066.270123 101.431416 
C 1067.117654 100.583885 1067.593858 99.434226 1067.593858 98.235636 
C 1067.593858 97.037047 1067.117654 95.887387 1066.270123 95.039857 
C 1065.422592 94.192326 1064.272933 93.716121 1063.074343 93.716121 
C 1061.875754 93.716121 1060.726094 94.192326 1059.878564 95.039857 
C 1059.031033 95.887387 1058.554828 97.037047 1058.554828 98.235636 
C 1058.554828 99.434226 1059.031033 100.583885 1059.878564 101.431416 
C 1060.726094 102.278947 1061.875754 102.755151 1063.074343 102.755151 
z
" clip-path="url(#p64e7da9658)" style="fill: #002d9c; stroke: #002d9c; stroke-width: 1.5; stroke-linejoin: miter"/>
   </g>
   <g id="patch_27">
    <path d="M 1063.074343 155.135171 
C 1065.871052 155.135171 1068.553591 154.024027 1070.531162 152.046455 
C 1072.508734 150.068883 1073.619878 147.386344 1073.619878 144.589636 
C 1073.619878 141.792927 1072.508734 139.110388 1070.531162 137.132817 
C 1068.553591 135.155245 1065.871052 134.044101 1063.074343 134.044101 
C 1060.277635 134.044101 1057.595096 135.155245 1055.617524 137.132817 
C 1053.639952 139.110388 1052.528808 141.792927 1052.528808 144.589636 
C 1052.528808 147.386344 1053.639952 150.068883 1055.617524 152.046455 
C 1057.595096 154.024027 1060.277635 155.135171 1063.074343 155.135171 
z
" clip-path="url(#p64e7da9658)" style="fill: #002d9c; stroke: #002d9c; stroke-width: 2; stroke-linejoin: miter"/>
   </g>
   <g id="patch_28">
    <path d="M 1094.314621 113.300686 
L 1170.896063 113.300686 
L 1170.896063 83.170587 
L 1094.314621 83.170587 
z
" clip-path="url(#p64e7da9658)" style="fill: #9f1853; stroke: #9f1853; stroke-width: 1.5; stroke-linejoin: miter"/>
   </g>
   <g id="patch_29">
    <path d="M 1106.769941 159.654686 
L 1158.440744 159.654686 
L 1158.440744 129.524586 
L 1106.769941 129.524586 
z
" clip-path="url(#p64e7da9658)" style="fill: #9f1853; stroke: #9f1853; stroke-width: 1.5; stroke-linejoin: miter"/>
   </g>
   <g id="patch_30">
    <path d="M 1202.136341 56.401152 
C 1203.334931 56.401152 1204.48459 55.924947 1205.332121 55.077417 
C 1206.179652 54.229886 1206.655856 53.080226 1206.655856 51.881637 
C 1206.655856 50.683048 1206.179652 49.533388 1205.332121 48.685857 
C 1204.48459 47.838327 1203.334931 47.362122 1202.136341 47.362122 
C 1200.937752 47.362122 1199.788092 47.838327 1198.940562 48.685857 
C 1198.093031 49.533388 1197.616826 50.683048 1197.616826 51.881637 
C 1197.616826 53.080226 1198.093031 54.229886 1198.940562 55.077417 
C 1199.788092 55.924947 1200.937752 56.401152 1202.136341 56.401152 
z
" clip-path="url(#p64e7da9658)" style="fill: #002d9c; stroke: #002d9c; stroke-width: 1.5; stroke-linejoin: miter"/>
   </g>
   <g id="patch_31">
    <path d="M 1202.136341 155.135171 
C 1204.93305 155.135171 1207.615589 154.024027 1209.593161 152.046455 
C 1211.570732 150.068883 1212.681876 147.386344 1212.681876 144.589636 
C 1212.681876 141.792927 1211.570732 139.110388 1209.593161 137.132817 
C 1207.615589 135.155245 1204.93305 134.044101 1202.136341 134.044101 
C 1199.339633 134.044101 1196.657094 135.155245 1194.679522 137.132817 
C 1192.701951 139.110388 1191.590806 141.792927 1191.590806 144.589636 
C 1191.590806 147.386344 1192.701951 150.068883 1194.679522 152.046455 
C 1196.657094 154.024027 1199.339633 155.135171 1202.136341 155.135171 
z
" clip-path="url(#p64e7da9658)" style="fill: #002d9c; stroke: #002d9c; stroke-width: 2; stroke-linejoin: miter"/>
   </g>
   <g id="patch_32">
    <path d="M 79.498101 252.362684 
L 146.136611 252.362684 
L 146.136611 222.232585 
L 79.498101 222.232585 
z
" clip-path="url(#p64e7da9658)" style="fill: #9f1853; stroke: #9f1853; stroke-width: 1.5; stroke-linejoin: miter"/>
   </g>
   <g id="patch_33">
    <path d="M 75.926525 345.070683 
L 149.708186 345.070683 
L 149.708186 314.940584 
L 75.926525 314.940584 
z
" clip-path="url(#p64e7da9658)" style="fill: #9f1853; stroke: #9f1853; stroke-width: 1.5; stroke-linejoin: miter"/>
   </g>
   <g id="patch_34">
    <path d="M 182.348355 241.817149 
C 183.546944 241.817149 184.696604 241.340945 185.544135 240.493414 
C 186.391665 239.645884 186.86787 238.496224 186.86787 237.297635 
C 186.86787 236.099045 186.391665 234.949386 185.544135 234.101855 
C 184.696604 233.254324 183.546944 232.77812 182.348355 232.77812 
C 181.149766 232.77812 180.000106 233.254324 179.152575 234.101855 
C 178.305045 234.949386 177.82884 236.099045 177.82884 237.297635 
C 177.82884 238.496224 178.305045 239.645884 179.152575 240.493414 
C 180.000106 241.340945 181.149766 241.817149 182.348355 241.817149 
z
" clip-path="url(#p64e7da9658)" style="fill: #002d9c; stroke: #002d9c; stroke-width: 1.5; stroke-linejoin: miter"/>
   </g>
   <g id="patch_35">
    <path d="M 182.348355 294.197169 
C 185.145063 294.197169 187.827603 293.086025 189.805174 291.108453 
C 191.782746 289.130882 192.89389 286.448342 192.89389 283.651634 
C 192.89389 280.854925 191.782746 278.172386 189.805174 276.194815 
C 187.827603 274.217243 185.145063 273.106099 182.348355 273.106099 
C 179.551646 273.106099 176.869107 274.217243 174.891536 276.194815 
C 172.913964 278.172386 171.80282 280.854925 171.80282 283.651634 
C 171.80282 286.448342 172.913964 289.130882 174.891536 291.108453 
C 176.869107 293.086025 179.551646 294.197169 182.348355 294.197169 
z
" clip-path="url(#p64e7da9658)" style="fill: #002d9c; stroke: #002d9c; stroke-width: 2; stroke-linejoin: miter"/>
   </g>
   <g id="patch_36">
    <path d="M 251.058888 252.362684 
L 299.053819 252.362684 
L 299.053819 222.232585 
L 251.058888 222.232585 
z
" clip-path="url(#p64e7da9658)" style="fill: #9f1853; stroke: #9f1853; stroke-width: 1.5; stroke-linejoin: miter"/>
   </g>
   <g id="patch_37">
    <path d="M 228.554021 298.716684 
L 321.558686 298.716684 
L 321.558686 268.586584 
L 228.554021 268.586584 
z
" clip-path="url(#p64e7da9658)" style="fill: #9f1853; stroke: #9f1853; stroke-width: 1.5; stroke-linejoin: miter"/>
   </g>
   <g id="patch_38">
    <path d="M 367.764352 241.817149 
C 368.962942 241.817149 370.112601 241.340945 370.960132 240.493414 
C 371.807663 239.645884 372.283867 238.496224 372.283867 237.297635 
C 372.283867 236.099045 371.807663 234.949386 370.960132 234.101855 
C 370.112601 233.254324 368.962942 232.77812 367.764352 232.77812 
C 366.565763 232.77812 365.416103 233.254324 364.568573 234.101855 
C 363.721042 234.949386 363.244837 236.099045 363.244837 237.297635 
C 363.244837 238.496224 363.721042 239.645884 364.568573 240.493414 
C 365.416103 241.340945 366.565763 241.817149 367.764352 241.817149 
z
" clip-path="url(#p64e7da9658)" style="fill: #002d9c; stroke: #002d9c; stroke-width: 1.5; stroke-linejoin: miter"/>
   </g>
   <g id="patch_39">
    <path d="M 367.764352 340.551168 
C 370.561061 340.551168 373.2436 339.440024 375.221172 337.462453 
C 377.198743 335.484881 378.309887 332.802342 378.309887 330.005633 
C 378.309887 327.208925 377.198743 324.526386 375.221172 322.548814 
C 373.2436 320.571243 370.561061 319.460098 367.764352 319.460098 
C 364.967644 319.460098 362.285105 320.571243 360.307533 322.548814 
C 358.329962 324.526386 357.218818 327.208925 357.218818 330.005633 
C 357.218818 332.802342 358.329962 335.484881 360.307533 337.462453 
C 362.285105 339.440024 364.967644 340.551168 367.764352 340.551168 
z
" clip-path="url(#p64e7da9658)" style="fill: #002d9c; stroke: #002d9c; stroke-width: 2; stroke-linejoin: miter"/>
   </g>
   <g id="patch_40">
    <path d="M 405.23229 345.070683 
L 469.358413 345.070683 
L 469.358413 314.940584 
L 405.23229 314.940584 
z
" clip-path="url(#p64e7da9658)" style="fill: #9f1853; stroke: #9f1853; stroke-width: 1.5; stroke-linejoin: miter"/>
   </g>
   <g id="patch_41">
    <path d="M 506.826351 288.171149 
C 508.02494 288.171149 509.1746 287.694944 510.02213 286.847414 
C 510.869661 285.999883 511.345866 284.850223 511.345866 283.651634 
C 511.345866 282.453045 510.869661 281.303385 510.02213 280.455854 
C 509.1746 279.608324 508.02494 279.132119 506.826351 279.132119 
C 505.627761 279.132119 504.478102 279.608324 503.630571 280.455854 
C 502.78304 281.303385 502.306836 282.453045 502.306836 283.651634 
C 502.306836 284.850223 502.78304 285.999883 503.630571 286.847414 
C 504.478102 287.694944 505.627761 288.171149 506.826351 288.171149 
z
" clip-path="url(#p64e7da9658)" style="fill: #002d9c; stroke: #002d9c; stroke-width: 1.5; stroke-linejoin: miter"/>
   </g>
   <g id="patch_42">
    <path d="M 506.826351 340.551168 
C 509.623059 340.551168 512.305598 339.440024 514.28317 337.462453 
C 516.260741 335.484881 517.371885 332.802342 517.371885 330.005633 
C 517.371885 327.208925 516.260741 324.526386 514.28317 322.548814 
C 512.305598 320.571243 509.623059 319.460098 506.826351 319.460098 
C 504.029642 319.460098 501.347103 320.571243 499.369531 322.548814 
C 497.39196 324.526386 496.280816 327.208925 496.280816 330.005633 
C 496.280816 332.802342 497.39196 335.484881 499.369531 337.462453 
C 501.347103 339.440024 504.029642 340.551168 506.826351 340.551168 
z
" clip-path="url(#p64e7da9658)" style="fill: #002d9c; stroke: #002d9c; stroke-width: 2; stroke-linejoin: miter"/>
   </g>
   <g id="patch_43">
    <path d="M 532.75446 345.070683 
L 573.60624 345.070683 
L 573.60624 314.940584 
L 532.75446 314.940584 
z
" clip-path="url(#p64e7da9658)" style="fill: #9f1853; stroke: #9f1853; stroke-width: 1.5; stroke-linejoin: miter"/>
   </g>
   <g id="patch_44">
    <path d="M 599.534349 241.817149 
C 600.732939 241.817149 601.882598 241.340945 602.730129 240.493414 
C 603.57766 239.645884 604.053864 238.496224 604.053864 237.297635 
C 604.053864 236.099045 603.57766 234.949386 602.730129 234.101855 
C 601.882598 233.254324 600.732939 232.77812 599.534349 232.77812 
C 598.33576 232.77812 597.1861 233.254324 596.33857 234.101855 
C 595.491039 234.949386 595.014834 236.099045 595.014834 237.297635 
C 595.014834 238.496224 595.491039 239.645884 596.33857 240.493414 
C 597.1861 241.340945 598.33576 241.817149 599.534349 241.817149 
z
" clip-path="url(#p64e7da9658)" style="fill: #002d9c; stroke: #002d9c; stroke-width: 1.5; stroke-linejoin: miter"/>
   </g>
   <g id="patch_45">
    <path d="M 599.534349 340.551168 
C 602.331058 340.551168 605.013597 339.440024 606.991169 337.462453 
C 608.96874 335.484881 610.079884 332.802342 610.079884 330.005633 
C 610.079884 327.208925 608.96874 324.526386 606.991169 322.548814 
C 605.013597 320.571243 602.331058 319.460098 599.534349 319.460098 
C 596.737641 319.460098 594.055102 320.571243 592.07753 322.548814 
C 590.099959 324.526386 588.988814 327.208925 588.988814 330.005633 
C 588.988814 332.802342 590.099959 335.484881 592.07753 337.462453 
C 594.055102 339.440024 596.737641 340.551168 599.534349 340.551168 
z
" clip-path="url(#p64e7da9658)" style="fill: #002d9c; stroke: #002d9c; stroke-width: 2; stroke-linejoin: miter"/>
   </g>
   <g id="patch_46">
    <path d="M 639.6097 345.070683 
L 698.520997 345.070683 
L 698.520997 314.940584 
L 639.6097 314.940584 
z
" clip-path="url(#p64e7da9658)" style="fill: #9f1853; stroke: #9f1853; stroke-width: 1.5; stroke-linejoin: miter"/>
   </g>
   <g id="patch_47">
    <path d="M 738.596348 288.171149 
C 739.794937 288.171149 740.944596 287.694944 741.792127 286.847414 
C 742.639658 285.999883 743.115862 284.850223 743.115862 283.651634 
C 743.115862 282.453045 742.639658 281.303385 741.792127 280.455854 
C 740.944596 279.608324 739.794937 279.132119 738.596348 279.132119 
C 737.397758 279.132119 736.248099 279.608324 735.400568 280.455854 
C 734.553037 281.303385 734.076833 282.453045 734.076833 283.651634 
C 734.076833 284.850223 734.553037 285.999883 735.400568 286.847414 
C 736.248099 287.694944 737.397758 288.171149 738.596348 288.171149 
z
" clip-path="url(#p64e7da9658)" style="fill: #002d9c; stroke: #002d9c; stroke-width: 1.5; stroke-linejoin: miter"/>
   </g>
   <g id="patch_48">
    <path d="M 738.596348 340.551168 
C 741.393056 340.551168 744.075595 339.440024 746.053167 337.462453 
C 748.030738 335.484881 749.141882 332.802342 749.141882 330.005633 
C 749.141882 327.208925 748.030738 324.526386 746.053167 322.548814 
C 744.075595 320.571243 741.393056 319.460098 738.596348 319.460098 
C 735.799639 319.460098 733.1171 320.571243 731.139528 322.548814 
C 729.161957 324.526386 728.050813 327.208925 728.050813 330.005633 
C 728.050813 332.802342 729.161957 335.484881 731.139528 337.462453 
C 733.1171 339.440024 735.799639 340.551168 738.596348 340.551168 
z
" clip-path="url(#p64e7da9658)" style="fill: #002d9c; stroke: #002d9c; stroke-width: 2; stroke-linejoin: miter"/>
   </g>
   <g id="line2d_22">
    <path d="M 228.702354 104.261656 
L 228.702354 92.209616 
" clip-path="url(#p64e7da9658)" style="fill: none; stroke: #ffffff; stroke-width: 2; stroke-linecap: square"/>
   </g>
   <g id="line2d_23">
    <path d="M 222.676334 98.235636 
L 234.728374 98.235636 
" clip-path="url(#p64e7da9658)" style="fill: none; stroke: #ffffff; stroke-width: 2; stroke-linecap: square"/>
   </g>
   <g id="line2d_24">
    <path d="M 367.764352 150.615656 
L 367.764352 138.563616 
" clip-path="url(#p64e7da9658)" style="fill: none; stroke: #ffffff; stroke-width: 2; stroke-linecap: square"/>
   </g>
   <g id="line2d_25">
    <path d="M 361.738333 144.589636 
L 373.790372 144.589636 
" clip-path="url(#p64e7da9658)" style="fill: none; stroke: #ffffff; stroke-width: 2; stroke-linecap: square"/>
   </g>
   <g id="line2d_26">
    <path d="M 506.826351 150.615656 
L 506.826351 138.563616 
" clip-path="url(#p64e7da9658)" style="fill: none; stroke: #ffffff; stroke-width: 2; stroke-linecap: square"/>
   </g>
   <g id="line2d_27">
    <path d="M 500.800331 144.589636 
L 512.852371 144.589636 
" clip-path="url(#p64e7da9658)" style="fill: none; stroke: #ffffff; stroke-width: 2; stroke-linecap: square"/>
   </g>
   <g id="line2d_28">
    <path d="M 645.888349 150.615656 
L 645.888349 138.563616 
" clip-path="url(#p64e7da9658)" style="fill: none; stroke: #ffffff; stroke-width: 2; stroke-linecap: square"/>
   </g>
   <g id="line2d_29">
    <path d="M 639.862329 144.589636 
L 651.914369 144.589636 
" clip-path="url(#p64e7da9658)" style="fill: none; stroke: #ffffff; stroke-width: 2; stroke-linecap: square"/>
   </g>
   <g id="line2d_30">
    <path d="M 784.950347 150.615656 
L 784.950347 138.563616 
" clip-path="url(#p64e7da9658)" style="fill: none; stroke: #ffffff; stroke-width: 2; stroke-linecap: square"/>
   </g>
   <g id="line2d_31">
    <path d="M 778.924327 144.589636 
L 790.976367 144.589636 
" clip-path="url(#p64e7da9658)" style="fill: none; stroke: #ffffff; stroke-width: 2; stroke-linecap: square"/>
   </g>
   <g id="line2d_32">
    <path d="M 924.012345 150.615656 
L 924.012345 138.563616 
" clip-path="url(#p64e7da9658)" style="fill: none; stroke: #ffffff; stroke-width: 2; stroke-linecap: square"/>
   </g>
   <g id="line2d_33">
    <path d="M 917.986325 144.589636 
L 930.038365 144.589636 
" clip-path="url(#p64e7da9658)" style="fill: none; stroke: #ffffff; stroke-width: 2; stroke-linecap: square"/>
   </g>
   <g id="line2d_34">
    <path d="M 1063.074343 150.615656 
L 1063.074343 138.563616 
" clip-path="url(#p64e7da9658)" style="fill: none; stroke: #ffffff; stroke-width: 2; stroke-linecap: square"/>
   </g>
   <g id="line2d_35">
    <path d="M 1057.048323 144.589636 
L 1069.100363 144.589636 
" clip-path="url(#p64e7da9658)" style="fill: none; stroke: #ffffff; stroke-width: 2; stroke-linecap: square"/>
   </g>
   <g id="line2d_36">
    <path d="M 1202.136341 150.615656 
L 1202.136341 138.563616 
" clip-path="url(#p64e7da9658)" style="fill: none; stroke: #ffffff; stroke-width: 2; stroke-linecap: square"/>
   </g>
   <g id="line2d_37">
    <path d="M 1196.110321 144.589636 
L 1208.162361 144.589636 
" clip-path="url(#p64e7da9658)" style="fill: none; stroke: #ffffff; stroke-width: 2; stroke-linecap: square"/>
   </g>
   <g id="line2d_38">
    <path d="M 182.348355 289.677654 
L 182.348355 277.625614 
" clip-path="url(#p64e7da9658)" style="fill: none; stroke: #ffffff; stroke-width: 2; stroke-linecap: square"/>
   </g>
   <g id="line2d_39">
    <path d="M 176.322335 283.651634 
L 188.374375 283.651634 
" clip-path="url(#p64e7da9658)" style="fill: none; stroke: #ffffff; stroke-width: 2; stroke-linecap: square"/>
   </g>
   <g id="line2d_40">
    <path d="M 367.764352 336.031653 
L 367.764352 323.979613 
" clip-path="url(#p64e7da9658)" style="fill: none; stroke: #ffffff; stroke-width: 2; stroke-linecap: square"/>
   </g>
   <g id="line2d_41">
    <path d="M 361.738333 330.005633 
L 373.790372 330.005633 
" clip-path="url(#p64e7da9658)" style="fill: none; stroke: #ffffff; stroke-width: 2; stroke-linecap: square"/>
   </g>
   <g id="line2d_42">
    <path d="M 506.826351 336.031653 
L 506.826351 323.979613 
" clip-path="url(#p64e7da9658)" style="fill: none; stroke: #ffffff; stroke-width: 2; stroke-linecap: square"/>
   </g>
   <g id="line2d_43">
    <path d="M 500.800331 330.005633 
L 512.852371 330.005633 
" clip-path="url(#p64e7da9658)" style="fill: none; stroke: #ffffff; stroke-width: 2; stroke-linecap: square"/>
   </g>
   <g id="line2d_44">
    <path d="M 599.534349 336.031653 
L 599.534349 323.979613 
" clip-path="url(#p64e7da9658)" style="fill: none; stroke: #ffffff; stroke-width: 2; stroke-linecap: square"/>
   </g>
   <g id="line2d_45">
    <path d="M 593.508329 330.005633 
L 605.560369 330.005633 
" clip-path="url(#p64e7da9658)" style="fill: none; stroke: #ffffff; stroke-width: 2; stroke-linecap: square"/>
   </g>
   <g id="line2d_46">
    <path d="M 738.596348 336.031653 
L 738.596348 323.979613 
" clip-path="url(#p64e7da9658)" style="fill: none; stroke: #ffffff; stroke-width: 2; stroke-linecap: square"/>
   </g>
   <g id="line2d_47">
    <path d="M 732.570328 330.005633 
L 744.622367 330.005633 
" clip-path="url(#p64e7da9658)" style="fill: none; stroke: #ffffff; stroke-width: 2; stroke-linecap: square"/>
   </g>
   <g id="text_2">
    <g clip-path="url(#p64e7da9658)">
     <!-- ${q}_{0}$ -->
     <g transform="translate(37.300897 56.332614) scale(0.1625 -0.1625)">
      <defs>
       <path id="DejaVuSans-Oblique-71" d="M 2669 525 
Q 2438 222 2123 65 
Q 1809 -91 1428 -91 
Q 897 -91 595 267 
Q 294 625 294 1253 
Q 294 1759 480 2231 
Q 666 2703 1013 3078 
Q 1238 3322 1530 3453 
Q 1822 3584 2144 3584 
Q 2531 3584 2781 3431 
Q 3031 3278 3144 2969 
L 3244 3494 
L 3822 3494 
L 2888 -1319 
L 2309 -1319 
L 2669 525 
z
M 891 1338 
Q 891 875 1084 633 
Q 1278 391 1644 391 
Q 2188 391 2572 911 
Q 2956 1431 2956 2175 
Q 2956 2625 2757 2864 
Q 2559 3103 2188 3103 
Q 1916 3103 1684 2976 
Q 1453 2850 1281 2606 
Q 1100 2350 995 2006 
Q 891 1663 891 1338 
z
" transform="scale(0.015625)"/>
      </defs>
      <use xlink:href="#DejaVuSans-Oblique-71"/>
      <use xlink:href="#DejaVuSans-30" transform="translate(63.476562 -16.40625) scale(0.7)"/>
     </g>
    </g>
   </g>
   <g id="text_3">
    <g clip-path="url(#p64e7da9658)">
     <!-- ${q}_{1}$ -->
     <g transform="translate(37.300897 102.686613) scale(0.1625 -0.1625)">
      <use xlink:href="#DejaVuSans-Oblique-71"/>
      <use xlink:href="#DejaVuSans-31" transform="translate(63.476562 -16.40625) scale(0.7)"/>
     </g>
    </g>
   </g>
   <g id="text_4">
    <g clip-path="url(#p64e7da9658)">
     <!-- ${q}_{2}$ -->
     <g transform="translate(37.300897 149.040612) scale(0.1625 -0.1625)">
      <use xlink:href="#DejaVuSans-Oblique-71"/>
      <use xlink:href="#DejaVuSans-32" transform="translate(63.476562 -16.40625) scale(0.7)"/>
     </g>
    </g>
   </g>
   <g id="text_5">
    <g clip-path="url(#p64e7da9658)">
     <!-- ${q}_{0}$ -->
     <g transform="translate(37.300897 241.748611) scale(0.1625 -0.1625)">
      <use xlink:href="#DejaVuSans-Oblique-71"/>
      <use xlink:href="#DejaVuSans-30" transform="translate(63.476562 -16.40625) scale(0.7)"/>
     </g>
    </g>
   </g>
   <g id="text_6">
    <g clip-path="url(#p64e7da9658)">
     <!-- ${q}_{1}$ -->
     <g transform="translate(37.300897 288.10261) scale(0.1625 -0.1625)">
      <use xlink:href="#DejaVuSans-Oblique-71"/>
      <use xlink:href="#DejaVuSans-31" transform="translate(63.476562 -16.40625) scale(0.7)"/>
     </g>
    </g>
   </g>
   <g id="text_7">
    <g clip-path="url(#p64e7da9658)">
     <!-- ${q}_{2}$ -->
     <g transform="translate(37.300897 334.45661) scale(0.1625 -0.1625)">
      <use xlink:href="#DejaVuSans-Oblique-71"/>
      <use xlink:href="#DejaVuSans-32" transform="translate(63.476562 -16.40625) scale(0.7)"/>
     </g>
    </g>
   </g>
   <g id="text_8">
    <g clip-path="url(#p64e7da9658)">
     <!-- $\pi$/2, 0, $-$$\pi$ -->
     <g style="fill: #ffffff" transform="translate(116.434356 63.128167) scale(0.08 -0.08)">
      <defs>
       <path id="DejaVuSans-Oblique-3c0" d="M 584 3500 
L 3938 3500 
L 3825 2925 
L 3384 2925 
L 2966 775 
Q 2922 550 2981 450 
Q 3038 353 3209 353 
Q 3256 353 3325 363 
Q 3397 369 3419 372 
L 3338 -44 
Q 3222 -84 3103 -103 
Q 2981 -122 2866 -122 
Q 2491 -122 2388 81 
Q 2284 288 2391 838 
L 2797 2925 
L 1506 2925 
L 938 0 
L 350 0 
L 919 2925 
L 472 2925 
L 584 3500 
z
" transform="scale(0.015625)"/>
       <path id="DejaVuSans-2f" d="M 1625 4666 
L 2156 4666 
L 531 -594 
L 0 -594 
L 1625 4666 
z
" transform="scale(0.015625)"/>
       <path id="DejaVuSans-2c" d="M 750 794 
L 1409 794 
L 1409 256 
L 897 -744 
L 494 -744 
L 750 256 
L 750 794 
z
" transform="scale(0.015625)"/>
       <path id="DejaVuSans-2212" d="M 678 2272 
L 4684 2272 
L 4684 1741 
L 678 1741 
L 678 2272 
z
" transform="scale(0.015625)"/>
      </defs>
      <use xlink:href="#DejaVuSans-Oblique-3c0" transform="translate(0 0.78125)"/>
      <use xlink:href="#DejaVuSans-2f" transform="translate(60.205078 0.78125)"/>
      <use xlink:href="#DejaVuSans-32" transform="translate(90.271484 0.78125)"/>
      <use xlink:href="#DejaVuSans-2c" transform="translate(153.894531 0.78125)"/>
      <use xlink:href="#DejaVuSans-20" transform="translate(185.681641 0.78125)"/>
      <use xlink:href="#DejaVuSans-30" transform="translate(217.46875 0.78125)"/>
      <use xlink:href="#DejaVuSans-2c" transform="translate(281.091797 0.78125)"/>
      <use xlink:href="#DejaVuSans-20" transform="translate(312.878906 0.78125)"/>
      <use xlink:href="#DejaVuSans-2212" transform="translate(344.666016 0.78125)"/>
      <use xlink:href="#DejaVuSans-Oblique-3c0" transform="translate(428.455078 0.78125)"/>
     </g>
    </g>
   </g>
   <g id="text_9">
    <g clip-path="url(#p64e7da9658)">
     <!-- $\mathrm{U_3}$ -->
     <g style="fill: #ffffff" transform="translate(128.064356 50.94931) scale(0.13 -0.13)">
      <defs>
       <path id="DejaVuSans-55" d="M 556 4666 
L 1191 4666 
L 1191 1831 
Q 1191 1081 1462 751 
Q 1734 422 2344 422 
Q 2950 422 3222 751 
Q 3494 1081 3494 1831 
L 3494 4666 
L 4128 4666 
L 4128 1753 
Q 4128 841 3676 375 
Q 3225 -91 2344 -91 
Q 1459 -91 1007 375 
Q 556 841 556 1753 
L 556 4666 
z
" transform="scale(0.015625)"/>
      </defs>
      <use xlink:href="#DejaVuSans-55" transform="translate(0 0.09375)"/>
      <use xlink:href="#DejaVuSans-33" transform="translate(74.150391 -16.3125) scale(0.7)"/>
     </g>
    </g>
   </g>
   <g id="text_10">
    <g clip-path="url(#p64e7da9658)">
     <!-- 1.59, $-$0.0267, 0.616 -->
     <g style="fill: #ffffff" transform="translate(93.394356 109.482166) scale(0.08 -0.08)">
      <defs>
       <path id="DejaVuSans-35" d="M 691 4666 
L 3169 4666 
L 3169 4134 
L 1269 4134 
L 1269 2991 
Q 1406 3038 1543 3061 
Q 1681 3084 1819 3084 
Q 2600 3084 3056 2656 
Q 3513 2228 3513 1497 
Q 3513 744 3044 326 
Q 2575 -91 1722 -91 
Q 1428 -91 1123 -41 
Q 819 9 494 109 
L 494 744 
Q 775 591 1075 516 
Q 1375 441 1709 441 
Q 2250 441 2565 725 
Q 2881 1009 2881 1497 
Q 2881 1984 2565 2268 
Q 2250 2553 1709 2553 
Q 1456 2553 1204 2497 
Q 953 2441 691 2322 
L 691 4666 
z
" transform="scale(0.015625)"/>
      </defs>
      <use xlink:href="#DejaVuSans-31" transform="translate(0 0.78125)"/>
      <use xlink:href="#DejaVuSans-2e" transform="translate(63.623047 0.78125)"/>
      <use xlink:href="#DejaVuSans-35" transform="translate(95.410156 0.78125)"/>
      <use xlink:href="#DejaVuSans-39" transform="translate(153.533203 0.78125)"/>
      <use xlink:href="#DejaVuSans-2c" transform="translate(217.15625 0.78125)"/>
      <use xlink:href="#DejaVuSans-20" transform="translate(248.943359 0.78125)"/>
      <use xlink:href="#DejaVuSans-2212" transform="translate(280.730469 0.78125)"/>
      <use xlink:href="#DejaVuSans-30" transform="translate(364.519531 0.78125)"/>
      <use xlink:href="#DejaVuSans-2e" transform="translate(428.142578 0.78125)"/>
      <use xlink:href="#DejaVuSans-30" transform="translate(459.929688 0.78125)"/>
      <use xlink:href="#DejaVuSans-32" transform="translate(523.552734 0.78125)"/>
      <use xlink:href="#DejaVuSans-36" transform="translate(587.175781 0.78125)"/>
      <use xlink:href="#DejaVuSans-37" transform="translate(650.798828 0.78125)"/>
      <use xlink:href="#DejaVuSans-2c" transform="translate(714.421875 0.78125)"/>
      <use xlink:href="#DejaVuSans-20" transform="translate(746.208984 0.78125)"/>
      <use xlink:href="#DejaVuSans-30" transform="translate(777.996094 0.78125)"/>
      <use xlink:href="#DejaVuSans-2e" transform="translate(841.619141 0.78125)"/>
      <use xlink:href="#DejaVuSans-36" transform="translate(873.40625 0.78125)"/>
      <use xlink:href="#DejaVuSans-31" transform="translate(937.029297 0.78125)"/>
      <use xlink:href="#DejaVuSans-36" transform="translate(1000.652344 0.78125)"/>
     </g>
    </g>
   </g>
   <g id="text_11">
    <g clip-path="url(#p64e7da9658)">
     <!-- $\mathrm{U_3}$ -->
     <g style="fill: #ffffff" transform="translate(128.064356 97.303309) scale(0.13 -0.13)">
      <use xlink:href="#DejaVuSans-55" transform="translate(0 0.09375)"/>
      <use xlink:href="#DejaVuSans-33" transform="translate(74.150391 -16.3125) scale(0.7)"/>
     </g>
    </g>
   </g>
   <g id="text_12">
    <g clip-path="url(#p64e7da9658)">
     <!-- $\pi$/2, $-$0.524, $-$$\pi$ -->
     <g style="fill: #ffffff" transform="translate(104.154356 155.836166) scale(0.08 -0.08)">
      <use xlink:href="#DejaVuSans-Oblique-3c0" transform="translate(0 0.78125)"/>
      <use xlink:href="#DejaVuSans-2f" transform="translate(60.205078 0.78125)"/>
      <use xlink:href="#DejaVuSans-32" transform="translate(90.271484 0.78125)"/>
      <use xlink:href="#DejaVuSans-2c" transform="translate(153.894531 0.78125)"/>
      <use xlink:href="#DejaVuSans-20" transform="translate(185.681641 0.78125)"/>
      <use xlink:href="#DejaVuSans-2212" transform="translate(217.46875 0.78125)"/>
      <use xlink:href="#DejaVuSans-30" transform="translate(301.257812 0.78125)"/>
      <use xlink:href="#DejaVuSans-2e" transform="translate(364.880859 0.78125)"/>
      <use xlink:href="#DejaVuSans-35" transform="translate(396.667969 0.78125)"/>
      <use xlink:href="#DejaVuSans-32" transform="translate(460.291016 0.78125)"/>
      <use xlink:href="#DejaVuSans-34" transform="translate(523.914062 0.78125)"/>
      <use xlink:href="#DejaVuSans-2c" transform="translate(587.537109 0.78125)"/>
      <use xlink:href="#DejaVuSans-20" transform="translate(619.324219 0.78125)"/>
      <use xlink:href="#DejaVuSans-2212" transform="translate(651.111328 0.78125)"/>
      <use xlink:href="#DejaVuSans-Oblique-3c0" transform="translate(734.900391 0.78125)"/>
     </g>
    </g>
   </g>
   <g id="text_13">
    <g clip-path="url(#p64e7da9658)">
     <!-- $\mathrm{U_3}$ -->
     <g style="fill: #ffffff" transform="translate(128.064356 143.657308) scale(0.13 -0.13)">
      <use xlink:href="#DejaVuSans-55" transform="translate(0 0.09375)"/>
      <use xlink:href="#DejaVuSans-33" transform="translate(74.150391 -16.3125) scale(0.7)"/>
     </g>
    </g>
   </g>
   <g id="text_14">
    <g clip-path="url(#p64e7da9658)">
     <!-- $\pi$, 1.37, $-$1.77 -->
     <g style="fill: #ffffff" transform="translate(269.953353 63.128167) scale(0.08 -0.08)">
      <use xlink:href="#DejaVuSans-Oblique-3c0" transform="translate(0 0.78125)"/>
      <use xlink:href="#DejaVuSans-2c" transform="translate(60.205078 0.78125)"/>
      <use xlink:href="#DejaVuSans-20" transform="translate(91.992188 0.78125)"/>
      <use xlink:href="#DejaVuSans-31" transform="translate(123.779297 0.78125)"/>
      <use xlink:href="#DejaVuSans-2e" transform="translate(187.402344 0.78125)"/>
      <use xlink:href="#DejaVuSans-33" transform="translate(219.189453 0.78125)"/>
      <use xlink:href="#DejaVuSans-37" transform="translate(282.8125 0.78125)"/>
      <use xlink:href="#DejaVuSans-2c" transform="translate(346.435547 0.78125)"/>
      <use xlink:href="#DejaVuSans-20" transform="translate(378.222656 0.78125)"/>
      <use xlink:href="#DejaVuSans-2212" transform="translate(410.009766 0.78125)"/>
      <use xlink:href="#DejaVuSans-31" transform="translate(493.798828 0.78125)"/>
      <use xlink:href="#DejaVuSans-2e" transform="translate(557.421875 0.78125)"/>
      <use xlink:href="#DejaVuSans-37" transform="translate(581.458984 0.78125)"/>
      <use xlink:href="#DejaVuSans-37" transform="translate(643.332031 0.78125)"/>
     </g>
    </g>
   </g>
   <g id="text_15">
    <g clip-path="url(#p64e7da9658)">
     <!-- $\mathrm{U_3}$ -->
     <g style="fill: #ffffff" transform="translate(290.303353 50.94931) scale(0.13 -0.13)">
      <use xlink:href="#DejaVuSans-55" transform="translate(0 0.09375)"/>
      <use xlink:href="#DejaVuSans-33" transform="translate(74.150391 -16.3125) scale(0.7)"/>
     </g>
    </g>
   </g>
   <g id="text_16">
    <g clip-path="url(#p64e7da9658)">
     <!-- 2.53, 0.6, $\pi$/2 -->
     <g style="fill: #ffffff" transform="translate(271.713353 109.482166) scale(0.08 -0.08)">
      <use xlink:href="#DejaVuSans-32" transform="translate(0 0.78125)"/>
      <use xlink:href="#DejaVuSans-2e" transform="translate(63.623047 0.78125)"/>
      <use xlink:href="#DejaVuSans-35" transform="translate(95.410156 0.78125)"/>
      <use xlink:href="#DejaVuSans-33" transform="translate(159.033203 0.78125)"/>
      <use xlink:href="#DejaVuSans-2c" transform="translate(222.65625 0.78125)"/>
      <use xlink:href="#DejaVuSans-20" transform="translate(254.443359 0.78125)"/>
      <use xlink:href="#DejaVuSans-30" transform="translate(286.230469 0.78125)"/>
      <use xlink:href="#DejaVuSans-2e" transform="translate(349.853516 0.78125)"/>
      <use xlink:href="#DejaVuSans-36" transform="translate(381.640625 0.78125)"/>
      <use xlink:href="#DejaVuSans-2c" transform="translate(445.263672 0.78125)"/>
      <use xlink:href="#DejaVuSans-20" transform="translate(477.050781 0.78125)"/>
      <use xlink:href="#DejaVuSans-Oblique-3c0" transform="translate(508.837891 0.78125)"/>
      <use xlink:href="#DejaVuSans-2f" transform="translate(569.042969 0.78125)"/>
      <use xlink:href="#DejaVuSans-32" transform="translate(599.109375 0.78125)"/>
     </g>
    </g>
   </g>
   <g id="text_17">
    <g clip-path="url(#p64e7da9658)">
     <!-- $\mathrm{U_3}$ -->
     <g style="fill: #ffffff" transform="translate(290.303353 97.303309) scale(0.13 -0.13)">
      <use xlink:href="#DejaVuSans-55" transform="translate(0 0.09375)"/>
      <use xlink:href="#DejaVuSans-33" transform="translate(74.150391 -16.3125) scale(0.7)"/>
     </g>
    </g>
   </g>
   <g id="text_18">
    <g clip-path="url(#p64e7da9658)">
     <!-- 0, 0, 0.00303 -->
     <g style="fill: #ffffff" transform="translate(410.579102 155.836166) scale(0.08 -0.08)">
      <use xlink:href="#DejaVuSans-30"/>
      <use xlink:href="#DejaVuSans-2c" x="63.623047"/>
      <use xlink:href="#DejaVuSans-20" x="95.410156"/>
      <use xlink:href="#DejaVuSans-30" x="127.197266"/>
      <use xlink:href="#DejaVuSans-2c" x="190.820312"/>
      <use xlink:href="#DejaVuSans-20" x="222.607422"/>
      <use xlink:href="#DejaVuSans-30" x="254.394531"/>
      <use xlink:href="#DejaVuSans-2e" x="318.017578"/>
      <use xlink:href="#DejaVuSans-30" x="349.804688"/>
      <use xlink:href="#DejaVuSans-30" x="413.427734"/>
      <use xlink:href="#DejaVuSans-33" x="477.050781"/>
      <use xlink:href="#DejaVuSans-30" x="540.673828"/>
      <use xlink:href="#DejaVuSans-33" x="604.296875"/>
     </g>
    </g>
   </g>
   <g id="text_19">
    <g clip-path="url(#p64e7da9658)">
     <!-- $\mathrm{U_3}$ -->
     <g style="fill: #ffffff" transform="translate(429.365352 143.657308) scale(0.13 -0.13)">
      <use xlink:href="#DejaVuSans-55" transform="translate(0 0.09375)"/>
      <use xlink:href="#DejaVuSans-33" transform="translate(74.150391 -16.3125) scale(0.7)"/>
     </g>
    </g>
   </g>
   <g id="text_20">
    <g clip-path="url(#p64e7da9658)">
     <!-- 0, 0, 0.0327 -->
     <g style="fill: #ffffff" transform="translate(552.1861 155.836166) scale(0.08 -0.08)">
      <use xlink:href="#DejaVuSans-30"/>
      <use xlink:href="#DejaVuSans-2c" x="63.623047"/>
      <use xlink:href="#DejaVuSans-20" x="95.410156"/>
      <use xlink:href="#DejaVuSans-30" x="127.197266"/>
      <use xlink:href="#DejaVuSans-2c" x="190.820312"/>
      <use xlink:href="#DejaVuSans-20" x="222.607422"/>
      <use xlink:href="#DejaVuSans-30" x="254.394531"/>
      <use xlink:href="#DejaVuSans-2e" x="318.017578"/>
      <use xlink:href="#DejaVuSans-30" x="349.804688"/>
      <use xlink:href="#DejaVuSans-33" x="413.427734"/>
      <use xlink:href="#DejaVuSans-32" x="477.050781"/>
      <use xlink:href="#DejaVuSans-37" x="540.673828"/>
     </g>
    </g>
   </g>
   <g id="text_21">
    <g clip-path="url(#p64e7da9658)">
     <!-- $\mathrm{U_3}$ -->
     <g style="fill: #ffffff" transform="translate(568.42735 143.657308) scale(0.13 -0.13)">
      <use xlink:href="#DejaVuSans-55" transform="translate(0 0.09375)"/>
      <use xlink:href="#DejaVuSans-33" transform="translate(74.150391 -16.3125) scale(0.7)"/>
     </g>
    </g>
   </g>
   <g id="text_22">
    <g clip-path="url(#p64e7da9658)">
     <!-- 0, 0, $-$2.17 -->
     <g style="fill: #ffffff" transform="translate(692.979348 155.836166) scale(0.08 -0.08)">
      <use xlink:href="#DejaVuSans-30" transform="translate(0 0.78125)"/>
      <use xlink:href="#DejaVuSans-2c" transform="translate(63.623047 0.78125)"/>
      <use xlink:href="#DejaVuSans-20" transform="translate(95.410156 0.78125)"/>
      <use xlink:href="#DejaVuSans-30" transform="translate(127.197266 0.78125)"/>
      <use xlink:href="#DejaVuSans-2c" transform="translate(190.820312 0.78125)"/>
      <use xlink:href="#DejaVuSans-20" transform="translate(222.607422 0.78125)"/>
      <use xlink:href="#DejaVuSans-2212" transform="translate(254.394531 0.78125)"/>
      <use xlink:href="#DejaVuSans-32" transform="translate(338.183594 0.78125)"/>
      <use xlink:href="#DejaVuSans-2e" transform="translate(401.806641 0.78125)"/>
      <use xlink:href="#DejaVuSans-31" transform="translate(433.59375 0.78125)"/>
      <use xlink:href="#DejaVuSans-37" transform="translate(497.216797 0.78125)"/>
     </g>
    </g>
   </g>
   <g id="text_23">
    <g clip-path="url(#p64e7da9658)">
     <!-- $\mathrm{U_3}$ -->
     <g style="fill: #ffffff" transform="translate(707.489348 143.657308) scale(0.13 -0.13)">
      <use xlink:href="#DejaVuSans-55" transform="translate(0 0.09375)"/>
      <use xlink:href="#DejaVuSans-33" transform="translate(74.150391 -16.3125) scale(0.7)"/>
     </g>
    </g>
   </g>
   <g id="text_24">
    <g clip-path="url(#p64e7da9658)">
     <!-- 0.312, 0, $-$$\pi$ -->
     <g style="fill: #ffffff" transform="translate(829.601346 155.836166) scale(0.08 -0.08)">
      <use xlink:href="#DejaVuSans-30" transform="translate(0 0.78125)"/>
      <use xlink:href="#DejaVuSans-2e" transform="translate(63.623047 0.78125)"/>
      <use xlink:href="#DejaVuSans-33" transform="translate(95.410156 0.78125)"/>
      <use xlink:href="#DejaVuSans-31" transform="translate(159.033203 0.78125)"/>
      <use xlink:href="#DejaVuSans-32" transform="translate(222.65625 0.78125)"/>
      <use xlink:href="#DejaVuSans-2c" transform="translate(286.279297 0.78125)"/>
      <use xlink:href="#DejaVuSans-20" transform="translate(318.066406 0.78125)"/>
      <use xlink:href="#DejaVuSans-30" transform="translate(349.853516 0.78125)"/>
      <use xlink:href="#DejaVuSans-2c" transform="translate(413.476562 0.78125)"/>
      <use xlink:href="#DejaVuSans-20" transform="translate(445.263672 0.78125)"/>
      <use xlink:href="#DejaVuSans-2212" transform="translate(477.050781 0.78125)"/>
      <use xlink:href="#DejaVuSans-Oblique-3c0" transform="translate(560.839844 0.78125)"/>
     </g>
    </g>
   </g>
   <g id="text_25">
    <g clip-path="url(#p64e7da9658)">
     <!-- $\mathrm{U_3}$ -->
     <g style="fill: #ffffff" transform="translate(846.551346 143.657308) scale(0.13 -0.13)">
      <use xlink:href="#DejaVuSans-55" transform="translate(0 0.09375)"/>
      <use xlink:href="#DejaVuSans-33" transform="translate(74.150391 -16.3125) scale(0.7)"/>
     </g>
    </g>
   </g>
   <g id="text_26">
    <g clip-path="url(#p64e7da9658)">
     <!-- 0.0518, 0, 0 -->
     <g style="fill: #ffffff" transform="translate(969.372094 155.836166) scale(0.08 -0.08)">
      <use xlink:href="#DejaVuSans-30"/>
      <use xlink:href="#DejaVuSans-2e" x="63.623047"/>
      <use xlink:href="#DejaVuSans-30" x="95.410156"/>
      <use xlink:href="#DejaVuSans-35" x="159.033203"/>
      <use xlink:href="#DejaVuSans-31" x="222.65625"/>
      <use xlink:href="#DejaVuSans-38" x="286.279297"/>
      <use xlink:href="#DejaVuSans-2c" x="349.902344"/>
      <use xlink:href="#DejaVuSans-20" x="381.689453"/>
      <use xlink:href="#DejaVuSans-30" x="413.476562"/>
      <use xlink:href="#DejaVuSans-2c" x="477.099609"/>
      <use xlink:href="#DejaVuSans-20" x="508.886719"/>
      <use xlink:href="#DejaVuSans-30" x="540.673828"/>
     </g>
    </g>
   </g>
   <g id="text_27">
    <g clip-path="url(#p64e7da9658)">
     <!-- $\mathrm{U_3}$ -->
     <g style="fill: #ffffff" transform="translate(985.613344 143.657308) scale(0.13 -0.13)">
      <use xlink:href="#DejaVuSans-55" transform="translate(0 0.09375)"/>
      <use xlink:href="#DejaVuSans-33" transform="translate(74.150391 -16.3125) scale(0.7)"/>
     </g>
    </g>
   </g>
   <g id="text_28">
    <g clip-path="url(#p64e7da9658)">
     <!-- 0.617, $-$$\pi$/2, $-$0.6 -->
     <g style="fill: #ffffff" transform="translate(1096.845342 109.482166) scale(0.08 -0.08)">
      <use xlink:href="#DejaVuSans-30" transform="translate(0 0.78125)"/>
      <use xlink:href="#DejaVuSans-2e" transform="translate(63.623047 0.78125)"/>
      <use xlink:href="#DejaVuSans-36" transform="translate(95.410156 0.78125)"/>
      <use xlink:href="#DejaVuSans-31" transform="translate(159.033203 0.78125)"/>
      <use xlink:href="#DejaVuSans-37" transform="translate(222.65625 0.78125)"/>
      <use xlink:href="#DejaVuSans-2c" transform="translate(286.279297 0.78125)"/>
      <use xlink:href="#DejaVuSans-20" transform="translate(318.066406 0.78125)"/>
      <use xlink:href="#DejaVuSans-2212" transform="translate(349.853516 0.78125)"/>
      <use xlink:href="#DejaVuSans-Oblique-3c0" transform="translate(433.642578 0.78125)"/>
      <use xlink:href="#DejaVuSans-2f" transform="translate(493.847656 0.78125)"/>
      <use xlink:href="#DejaVuSans-32" transform="translate(523.914062 0.78125)"/>
      <use xlink:href="#DejaVuSans-2c" transform="translate(587.537109 0.78125)"/>
      <use xlink:href="#DejaVuSans-20" transform="translate(619.324219 0.78125)"/>
      <use xlink:href="#DejaVuSans-2212" transform="translate(651.111328 0.78125)"/>
      <use xlink:href="#DejaVuSans-30" transform="translate(734.900391 0.78125)"/>
      <use xlink:href="#DejaVuSans-2e" transform="translate(798.523438 0.78125)"/>
      <use xlink:href="#DejaVuSans-36" transform="translate(830.310547 0.78125)"/>
     </g>
    </g>
   </g>
   <g id="text_29">
    <g clip-path="url(#p64e7da9658)">
     <!-- $\mathrm{U_3}$ -->
     <g style="fill: #ffffff" transform="translate(1124.675342 97.303309) scale(0.13 -0.13)">
      <use xlink:href="#DejaVuSans-55" transform="translate(0 0.09375)"/>
      <use xlink:href="#DejaVuSans-33" transform="translate(74.150391 -16.3125) scale(0.7)"/>
     </g>
    </g>
   </g>
   <g id="text_30">
    <g clip-path="url(#p64e7da9658)">
     <!-- 0.0264, 0, 0 -->
     <g style="fill: #ffffff" transform="translate(1108.434092 155.836166) scale(0.08 -0.08)">
      <use xlink:href="#DejaVuSans-30"/>
      <use xlink:href="#DejaVuSans-2e" x="63.623047"/>
      <use xlink:href="#DejaVuSans-30" x="95.410156"/>
      <use xlink:href="#DejaVuSans-32" x="159.033203"/>
      <use xlink:href="#DejaVuSans-36" x="222.65625"/>
      <use xlink:href="#DejaVuSans-34" x="286.279297"/>
      <use xlink:href="#DejaVuSans-2c" x="349.902344"/>
      <use xlink:href="#DejaVuSans-20" x="381.689453"/>
      <use xlink:href="#DejaVuSans-30" x="413.476562"/>
      <use xlink:href="#DejaVuSans-2c" x="477.099609"/>
      <use xlink:href="#DejaVuSans-20" x="508.886719"/>
      <use xlink:href="#DejaVuSans-30" x="540.673828"/>
     </g>
    </g>
   </g>
   <g id="text_31">
    <g clip-path="url(#p64e7da9658)">
     <!-- $\mathrm{U_3}$ -->
     <g style="fill: #ffffff" transform="translate(1124.675342 143.657308) scale(0.13 -0.13)">
      <use xlink:href="#DejaVuSans-55" transform="translate(0 0.09375)"/>
      <use xlink:href="#DejaVuSans-33" transform="translate(74.150391 -16.3125) scale(0.7)"/>
     </g>
    </g>
   </g>
   <g id="text_32">
    <g clip-path="url(#p64e7da9658)">
     <!-- $\pi$, $-$0.468, 2.67 -->
     <g style="fill: #ffffff" transform="translate(81.577356 248.544164) scale(0.08 -0.08)">
      <use xlink:href="#DejaVuSans-Oblique-3c0" transform="translate(0 0.78125)"/>
      <use xlink:href="#DejaVuSans-2c" transform="translate(60.205078 0.78125)"/>
      <use xlink:href="#DejaVuSans-20" transform="translate(91.992188 0.78125)"/>
      <use xlink:href="#DejaVuSans-2212" transform="translate(123.779297 0.78125)"/>
      <use xlink:href="#DejaVuSans-30" transform="translate(207.568359 0.78125)"/>
      <use xlink:href="#DejaVuSans-2e" transform="translate(271.191406 0.78125)"/>
      <use xlink:href="#DejaVuSans-34" transform="translate(302.978516 0.78125)"/>
      <use xlink:href="#DejaVuSans-36" transform="translate(366.601562 0.78125)"/>
      <use xlink:href="#DejaVuSans-38" transform="translate(430.224609 0.78125)"/>
      <use xlink:href="#DejaVuSans-2c" transform="translate(493.847656 0.78125)"/>
      <use xlink:href="#DejaVuSans-20" transform="translate(525.634766 0.78125)"/>
      <use xlink:href="#DejaVuSans-32" transform="translate(557.421875 0.78125)"/>
      <use xlink:href="#DejaVuSans-2e" transform="translate(621.044922 0.78125)"/>
      <use xlink:href="#DejaVuSans-36" transform="translate(652.832031 0.78125)"/>
      <use xlink:href="#DejaVuSans-37" transform="translate(716.455078 0.78125)"/>
     </g>
    </g>
   </g>
   <g id="text_33">
    <g clip-path="url(#p64e7da9658)">
     <!-- $\mathrm{U_3}$ -->
     <g style="fill: #ffffff" transform="translate(104.887356 236.365307) scale(0.13 -0.13)">
      <use xlink:href="#DejaVuSans-55" transform="translate(0 0.09375)"/>
      <use xlink:href="#DejaVuSans-33" transform="translate(74.150391 -16.3125) scale(0.7)"/>
     </g>
    </g>
   </g>
   <g id="text_34">
    <g clip-path="url(#p64e7da9658)">
     <!-- 1.19, $-$0.524, $-$$\pi$ -->
     <g style="fill: #ffffff" transform="translate(78.257356 341.252163) scale(0.08 -0.08)">
      <use xlink:href="#DejaVuSans-31" transform="translate(0 0.78125)"/>
      <use xlink:href="#DejaVuSans-2e" transform="translate(63.623047 0.78125)"/>
      <use xlink:href="#DejaVuSans-31" transform="translate(95.410156 0.78125)"/>
      <use xlink:href="#DejaVuSans-39" transform="translate(159.033203 0.78125)"/>
      <use xlink:href="#DejaVuSans-2c" transform="translate(222.65625 0.78125)"/>
      <use xlink:href="#DejaVuSans-20" transform="translate(254.443359 0.78125)"/>
      <use xlink:href="#DejaVuSans-2212" transform="translate(286.230469 0.78125)"/>
      <use xlink:href="#DejaVuSans-30" transform="translate(370.019531 0.78125)"/>
      <use xlink:href="#DejaVuSans-2e" transform="translate(433.642578 0.78125)"/>
      <use xlink:href="#DejaVuSans-35" transform="translate(465.429688 0.78125)"/>
      <use xlink:href="#DejaVuSans-32" transform="translate(529.052734 0.78125)"/>
      <use xlink:href="#DejaVuSans-34" transform="translate(592.675781 0.78125)"/>
      <use xlink:href="#DejaVuSans-2c" transform="translate(656.298828 0.78125)"/>
      <use xlink:href="#DejaVuSans-20" transform="translate(688.085938 0.78125)"/>
      <use xlink:href="#DejaVuSans-2212" transform="translate(719.873047 0.78125)"/>
      <use xlink:href="#DejaVuSans-Oblique-3c0" transform="translate(803.662109 0.78125)"/>
     </g>
    </g>
   </g>
   <g id="text_35">
    <g clip-path="url(#p64e7da9658)">
     <!-- $\mathrm{U_3}$ -->
     <g style="fill: #ffffff" transform="translate(104.887356 329.073306) scale(0.13 -0.13)">
      <use xlink:href="#DejaVuSans-55" transform="translate(0 0.09375)"/>
      <use xlink:href="#DejaVuSans-33" transform="translate(74.150391 -16.3125) scale(0.7)"/>
     </g>
    </g>
   </g>
   <g id="text_36">
    <g clip-path="url(#p64e7da9658)">
     <!-- 0, 1.43, $-$3 -->
     <g style="fill: #ffffff" transform="translate(252.616354 248.544164) scale(0.08 -0.08)">
      <use xlink:href="#DejaVuSans-30" transform="translate(0 0.78125)"/>
      <use xlink:href="#DejaVuSans-2c" transform="translate(63.623047 0.78125)"/>
      <use xlink:href="#DejaVuSans-20" transform="translate(95.410156 0.78125)"/>
      <use xlink:href="#DejaVuSans-31" transform="translate(127.197266 0.78125)"/>
      <use xlink:href="#DejaVuSans-2e" transform="translate(190.820312 0.78125)"/>
      <use xlink:href="#DejaVuSans-34" transform="translate(222.607422 0.78125)"/>
      <use xlink:href="#DejaVuSans-33" transform="translate(286.230469 0.78125)"/>
      <use xlink:href="#DejaVuSans-2c" transform="translate(349.853516 0.78125)"/>
      <use xlink:href="#DejaVuSans-20" transform="translate(381.640625 0.78125)"/>
      <use xlink:href="#DejaVuSans-2212" transform="translate(413.427734 0.78125)"/>
      <use xlink:href="#DejaVuSans-33" transform="translate(497.216797 0.78125)"/>
     </g>
    </g>
   </g>
   <g id="text_37">
    <g clip-path="url(#p64e7da9658)">
     <!-- $\mathrm{U_3}$ -->
     <g style="fill: #ffffff" transform="translate(267.126354 236.365307) scale(0.13 -0.13)">
      <use xlink:href="#DejaVuSans-55" transform="translate(0 0.09375)"/>
      <use xlink:href="#DejaVuSans-33" transform="translate(74.150391 -16.3125) scale(0.7)"/>
     </g>
    </g>
   </g>
   <g id="text_38">
    <g clip-path="url(#p64e7da9658)">
     <!-- 0.617, $-$0.0327, $-$$\pi$/2 -->
     <g style="fill: #ffffff" transform="translate(231.656354 294.898164) scale(0.08 -0.08)">
      <use xlink:href="#DejaVuSans-30" transform="translate(0 0.78125)"/>
      <use xlink:href="#DejaVuSans-2e" transform="translate(63.623047 0.78125)"/>
      <use xlink:href="#DejaVuSans-36" transform="translate(95.410156 0.78125)"/>
      <use xlink:href="#DejaVuSans-31" transform="translate(159.033203 0.78125)"/>
      <use xlink:href="#DejaVuSans-37" transform="translate(222.65625 0.78125)"/>
      <use xlink:href="#DejaVuSans-2c" transform="translate(286.279297 0.78125)"/>
      <use xlink:href="#DejaVuSans-20" transform="translate(318.066406 0.78125)"/>
      <use xlink:href="#DejaVuSans-2212" transform="translate(349.853516 0.78125)"/>
      <use xlink:href="#DejaVuSans-30" transform="translate(433.642578 0.78125)"/>
      <use xlink:href="#DejaVuSans-2e" transform="translate(497.265625 0.78125)"/>
      <use xlink:href="#DejaVuSans-30" transform="translate(529.052734 0.78125)"/>
      <use xlink:href="#DejaVuSans-33" transform="translate(592.675781 0.78125)"/>
      <use xlink:href="#DejaVuSans-32" transform="translate(656.298828 0.78125)"/>
      <use xlink:href="#DejaVuSans-37" transform="translate(719.921875 0.78125)"/>
      <use xlink:href="#DejaVuSans-2c" transform="translate(783.544922 0.78125)"/>
      <use xlink:href="#DejaVuSans-20" transform="translate(815.332031 0.78125)"/>
      <use xlink:href="#DejaVuSans-2212" transform="translate(847.119141 0.78125)"/>
      <use xlink:href="#DejaVuSans-Oblique-3c0" transform="translate(930.908203 0.78125)"/>
      <use xlink:href="#DejaVuSans-2f" transform="translate(991.113281 0.78125)"/>
      <use xlink:href="#DejaVuSans-32" transform="translate(1021.179688 0.78125)"/>
     </g>
    </g>
   </g>
   <g id="text_39">
    <g clip-path="url(#p64e7da9658)">
     <!-- $\mathrm{U_3}$ -->
     <g style="fill: #ffffff" transform="translate(267.126354 282.719306) scale(0.13 -0.13)">
      <use xlink:href="#DejaVuSans-55" transform="translate(0 0.09375)"/>
      <use xlink:href="#DejaVuSans-33" transform="translate(74.150391 -16.3125) scale(0.7)"/>
     </g>
    </g>
   </g>
   <g id="text_40">
    <g clip-path="url(#p64e7da9658)">
     <!-- 0, 0, $-$0.00303 -->
     <g style="fill: #ffffff" transform="translate(407.215352 341.252163) scale(0.08 -0.08)">
      <use xlink:href="#DejaVuSans-30" transform="translate(0 0.78125)"/>
      <use xlink:href="#DejaVuSans-2c" transform="translate(63.623047 0.78125)"/>
      <use xlink:href="#DejaVuSans-20" transform="translate(95.410156 0.78125)"/>
      <use xlink:href="#DejaVuSans-30" transform="translate(127.197266 0.78125)"/>
      <use xlink:href="#DejaVuSans-2c" transform="translate(190.820312 0.78125)"/>
      <use xlink:href="#DejaVuSans-20" transform="translate(222.607422 0.78125)"/>
      <use xlink:href="#DejaVuSans-2212" transform="translate(254.394531 0.78125)"/>
      <use xlink:href="#DejaVuSans-30" transform="translate(338.183594 0.78125)"/>
      <use xlink:href="#DejaVuSans-2e" transform="translate(401.806641 0.78125)"/>
      <use xlink:href="#DejaVuSans-30" transform="translate(433.59375 0.78125)"/>
      <use xlink:href="#DejaVuSans-30" transform="translate(497.216797 0.78125)"/>
      <use xlink:href="#DejaVuSans-33" transform="translate(560.839844 0.78125)"/>
      <use xlink:href="#DejaVuSans-30" transform="translate(624.462891 0.78125)"/>
      <use xlink:href="#DejaVuSans-33" transform="translate(688.085938 0.78125)"/>
     </g>
    </g>
   </g>
   <g id="text_41">
    <g clip-path="url(#p64e7da9658)">
     <!-- $\mathrm{U_3}$ -->
     <g style="fill: #ffffff" transform="translate(429.365352 329.073306) scale(0.13 -0.13)">
      <use xlink:href="#DejaVuSans-55" transform="translate(0 0.09375)"/>
      <use xlink:href="#DejaVuSans-33" transform="translate(74.150391 -16.3125) scale(0.7)"/>
     </g>
    </g>
   </g>
   <g id="text_42">
    <g clip-path="url(#p64e7da9658)">
     <!-- 0, 0, 2.54 -->
     <g style="fill: #ffffff" transform="translate(534.0991 341.252163) scale(0.08 -0.08)">
      <use xlink:href="#DejaVuSans-30"/>
      <use xlink:href="#DejaVuSans-2c" x="63.623047"/>
      <use xlink:href="#DejaVuSans-20" x="95.410156"/>
      <use xlink:href="#DejaVuSans-30" x="127.197266"/>
      <use xlink:href="#DejaVuSans-2c" x="190.820312"/>
      <use xlink:href="#DejaVuSans-20" x="222.607422"/>
      <use xlink:href="#DejaVuSans-32" x="254.394531"/>
      <use xlink:href="#DejaVuSans-2e" x="318.017578"/>
      <use xlink:href="#DejaVuSans-35" x="349.804688"/>
      <use xlink:href="#DejaVuSans-34" x="413.427734"/>
     </g>
    </g>
   </g>
   <g id="text_43">
    <g clip-path="url(#p64e7da9658)">
     <!-- $\mathrm{U_3}$ -->
     <g style="fill: #ffffff" transform="translate(545.25035 329.073306) scale(0.13 -0.13)">
      <use xlink:href="#DejaVuSans-55" transform="translate(0 0.09375)"/>
      <use xlink:href="#DejaVuSans-33" transform="translate(74.150391 -16.3125) scale(0.7)"/>
     </g>
    </g>
   </g>
   <g id="text_44">
    <g clip-path="url(#p64e7da9658)">
     <!-- 0, 0, $-$0.0327 -->
     <g style="fill: #ffffff" transform="translate(641.505348 341.252163) scale(0.08 -0.08)">
      <use xlink:href="#DejaVuSans-30" transform="translate(0 0.78125)"/>
      <use xlink:href="#DejaVuSans-2c" transform="translate(63.623047 0.78125)"/>
      <use xlink:href="#DejaVuSans-20" transform="translate(95.410156 0.78125)"/>
      <use xlink:href="#DejaVuSans-30" transform="translate(127.197266 0.78125)"/>
      <use xlink:href="#DejaVuSans-2c" transform="translate(190.820312 0.78125)"/>
      <use xlink:href="#DejaVuSans-20" transform="translate(222.607422 0.78125)"/>
      <use xlink:href="#DejaVuSans-2212" transform="translate(254.394531 0.78125)"/>
      <use xlink:href="#DejaVuSans-30" transform="translate(338.183594 0.78125)"/>
      <use xlink:href="#DejaVuSans-2e" transform="translate(401.806641 0.78125)"/>
      <use xlink:href="#DejaVuSans-30" transform="translate(433.59375 0.78125)"/>
      <use xlink:href="#DejaVuSans-33" transform="translate(497.216797 0.78125)"/>
      <use xlink:href="#DejaVuSans-32" transform="translate(560.839844 0.78125)"/>
      <use xlink:href="#DejaVuSans-37" transform="translate(624.462891 0.78125)"/>
     </g>
    </g>
   </g>
   <g id="text_45">
    <g clip-path="url(#p64e7da9658)">
     <!-- $\mathrm{U_3}$ -->
     <g style="fill: #ffffff" transform="translate(661.135348 329.073306) scale(0.13 -0.13)">
      <use xlink:href="#DejaVuSans-55" transform="translate(0 0.09375)"/>
      <use xlink:href="#DejaVuSans-33" transform="translate(74.150391 -16.3125) scale(0.7)"/>
     </g>
    </g>
   </g>
  </g>
 </g>
 <defs>
  <clipPath id="p64e7da9658">
   <rect x="7.2" y="14.798437" width="1225.529981" height="343.019595"/>
  </clipPath>
 </defs>
</svg>
