<?xml version="1.0" encoding="utf-8" standalone="no"?>
<!DOCTYPE svg PUBLIC "-//W3C//DTD SVG 1.1//EN"
  "http://www.w3.org/Graphics/SVG/1.1/DTD/svg11.dtd">
<svg xmlns:xlink="http://www.w3.org/1999/xlink" width="1239.929981pt" height="365.018033pt" viewBox="0 0 1239.929981 365.018033" xmlns="http://www.w3.org/2000/svg" version="1.1">
 <metadata>
  <rdf:RDF xmlns:dc="http://purl.org/dc/elements/1.1/" xmlns:cc="http://creativecommons.org/ns#" xmlns:rdf="http://www.w3.org/1999/02/22-rdf-syntax-ns#">
   <cc:Work>
    <dc:type rdf:resource="http://purl.org/dc/dcmitype/StillImage"/>
    <dc:date>2024-11-04T19:49:21.513745</dc:date>
    <dc:format>image/svg+xml</dc:format>
    <dc:creator>
     <cc:Agent>
      <dc:title>Matplotlib v3.9.2, https://matplotlib.org/</dc:title>
     </cc:Agent>
    </dc:creator>
   </cc:Work>
  </rdf:RDF>
 </metadata>
 <defs>
  <style type="text/css">*{stroke-linejoin: round; stroke-linecap: butt}</style>
 </defs>
 <g id="figure_1">
  <g id="patch_1">
   <path d="M -0 365.018033 
L 1239.929981 365.018033 
L 1239.929981 0 
L -0 0 
z
" style="fill: #ffffff"/>
  </g>
  <g id="axes_1">
   <g id="line2d_1">
    <path d="M 64.609196 51.881637 
L 1228.094581 51.881637 
" clip-path="url(#p1aebd4802e)" style="fill: none; stroke: #000000; stroke-width: 2; stroke-linecap: square"/>
   </g>
   <g id="line2d_2">
    <path d="M 64.609196 98.235636 
L 1228.094581 98.235636 
" clip-path="url(#p1aebd4802e)" style="fill: none; stroke: #000000; stroke-width: 2; stroke-linecap: square"/>
   </g>
   <g id="line2d_3">
    <path d="M 64.609196 144.589636 
L 1228.094581 144.589636 
" clip-path="url(#p1aebd4802e)" style="fill: none; stroke: #000000; stroke-width: 2; stroke-linecap: square"/>
   </g>
   <g id="line2d_4">
    <path d="M 1228.094581 51.881637 
L 1228.094581 144.589636 
" clip-path="url(#p1aebd4802e)" style="fill: none; stroke: #000000; stroke-width: 1.5; stroke-linecap: square"/>
   </g>
   <g id="line2d_5">
    <path d="M 64.609196 237.297635 
L 1228.094581 237.297635 
" clip-path="url(#p1aebd4802e)" style="fill: none; stroke: #000000; stroke-width: 2; stroke-linecap: square"/>
   </g>
   <g id="line2d_6">
    <path d="M 64.609196 283.651634 
L 1228.094581 283.651634 
" clip-path="url(#p1aebd4802e)" style="fill: none; stroke: #000000; stroke-width: 2; stroke-linecap: square"/>
   </g>
   <g id="line2d_7">
    <path d="M 64.609196 330.005633 
L 1228.094581 330.005633 
" clip-path="url(#p1aebd4802e)" style="fill: none; stroke: #000000; stroke-width: 2; stroke-linecap: square"/>
   </g>
   <g id="line2d_8">
    <path d="M 64.145656 237.297635 
L 64.145656 330.005633 
" clip-path="url(#p1aebd4802e)" style="fill: none; stroke: #000000; stroke-width: 1.5; stroke-linecap: square"/>
   </g>
   <g id="text_1">
    <!-- Global Phase: 3.263042133876876 -->
    <g transform="translate(7.2 14.798437) scale(0.1 -0.1)">
     <defs>
      <path id="DejaVuSans-47" d="M 3809 666 
L 3809 1919 
L 2778 1919 
L 2778 2438 
L 4434 2438 
L 4434 434 
Q 4069 175 3628 42 
Q 3188 -91 2688 -91 
Q 1594 -91 976 548 
Q 359 1188 359 2328 
Q 359 3472 976 4111 
Q 1594 4750 2688 4750 
Q 3144 4750 3555 4637 
Q 3966 4525 4313 4306 
L 4313 3634 
Q 3963 3931 3569 4081 
Q 3175 4231 2741 4231 
Q 1884 4231 1454 3753 
Q 1025 3275 1025 2328 
Q 1025 1384 1454 906 
Q 1884 428 2741 428 
Q 3075 428 3337 486 
Q 3600 544 3809 666 
z
" transform="scale(0.015625)"/>
      <path id="DejaVuSans-6c" d="M 603 4863 
L 1178 4863 
L 1178 0 
L 603 0 
L 603 4863 
z
" transform="scale(0.015625)"/>
      <path id="DejaVuSans-6f" d="M 1959 3097 
Q 1497 3097 1228 2736 
Q 959 2375 959 1747 
Q 959 1119 1226 758 
Q 1494 397 1959 397 
Q 2419 397 2687 759 
Q 2956 1122 2956 1747 
Q 2956 2369 2687 2733 
Q 2419 3097 1959 3097 
z
M 1959 3584 
Q 2709 3584 3137 3096 
Q 3566 2609 3566 1747 
Q 3566 888 3137 398 
Q 2709 -91 1959 -91 
Q 1206 -91 779 398 
Q 353 888 353 1747 
Q 353 2609 779 3096 
Q 1206 3584 1959 3584 
z
" transform="scale(0.015625)"/>
      <path id="DejaVuSans-62" d="M 3116 1747 
Q 3116 2381 2855 2742 
Q 2594 3103 2138 3103 
Q 1681 3103 1420 2742 
Q 1159 2381 1159 1747 
Q 1159 1113 1420 752 
Q 1681 391 2138 391 
Q 2594 391 2855 752 
Q 3116 1113 3116 1747 
z
M 1159 2969 
Q 1341 3281 1617 3432 
Q 1894 3584 2278 3584 
Q 2916 3584 3314 3078 
Q 3713 2572 3713 1747 
Q 3713 922 3314 415 
Q 2916 -91 2278 -91 
Q 1894 -91 1617 61 
Q 1341 213 1159 525 
L 1159 0 
L 581 0 
L 581 4863 
L 1159 4863 
L 1159 2969 
z
" transform="scale(0.015625)"/>
      <path id="DejaVuSans-61" d="M 2194 1759 
Q 1497 1759 1228 1600 
Q 959 1441 959 1056 
Q 959 750 1161 570 
Q 1363 391 1709 391 
Q 2188 391 2477 730 
Q 2766 1069 2766 1631 
L 2766 1759 
L 2194 1759 
z
M 3341 1997 
L 3341 0 
L 2766 0 
L 2766 531 
Q 2569 213 2275 61 
Q 1981 -91 1556 -91 
Q 1019 -91 701 211 
Q 384 513 384 1019 
Q 384 1609 779 1909 
Q 1175 2209 1959 2209 
L 2766 2209 
L 2766 2266 
Q 2766 2663 2505 2880 
Q 2244 3097 1772 3097 
Q 1472 3097 1187 3025 
Q 903 2953 641 2809 
L 641 3341 
Q 956 3463 1253 3523 
Q 1550 3584 1831 3584 
Q 2591 3584 2966 3190 
Q 3341 2797 3341 1997 
z
" transform="scale(0.015625)"/>
      <path id="DejaVuSans-20" transform="scale(0.015625)"/>
      <path id="DejaVuSans-50" d="M 1259 4147 
L 1259 2394 
L 2053 2394 
Q 2494 2394 2734 2622 
Q 2975 2850 2975 3272 
Q 2975 3691 2734 3919 
Q 2494 4147 2053 4147 
L 1259 4147 
z
M 628 4666 
L 2053 4666 
Q 2838 4666 3239 4311 
Q 3641 3956 3641 3272 
Q 3641 2581 3239 2228 
Q 2838 1875 2053 1875 
L 1259 1875 
L 1259 0 
L 628 0 
L 628 4666 
z
" transform="scale(0.015625)"/>
      <path id="DejaVuSans-68" d="M 3513 2113 
L 3513 0 
L 2938 0 
L 2938 2094 
Q 2938 2591 2744 2837 
Q 2550 3084 2163 3084 
Q 1697 3084 1428 2787 
Q 1159 2491 1159 1978 
L 1159 0 
L 581 0 
L 581 4863 
L 1159 4863 
L 1159 2956 
Q 1366 3272 1645 3428 
Q 1925 3584 2291 3584 
Q 2894 3584 3203 3211 
Q 3513 2838 3513 2113 
z
" transform="scale(0.015625)"/>
      <path id="DejaVuSans-73" d="M 2834 3397 
L 2834 2853 
Q 2591 2978 2328 3040 
Q 2066 3103 1784 3103 
Q 1356 3103 1142 2972 
Q 928 2841 928 2578 
Q 928 2378 1081 2264 
Q 1234 2150 1697 2047 
L 1894 2003 
Q 2506 1872 2764 1633 
Q 3022 1394 3022 966 
Q 3022 478 2636 193 
Q 2250 -91 1575 -91 
Q 1294 -91 989 -36 
Q 684 19 347 128 
L 347 722 
Q 666 556 975 473 
Q 1284 391 1588 391 
Q 1994 391 2212 530 
Q 2431 669 2431 922 
Q 2431 1156 2273 1281 
Q 2116 1406 1581 1522 
L 1381 1569 
Q 847 1681 609 1914 
Q 372 2147 372 2553 
Q 372 3047 722 3315 
Q 1072 3584 1716 3584 
Q 2034 3584 2315 3537 
Q 2597 3491 2834 3397 
z
" transform="scale(0.015625)"/>
      <path id="DejaVuSans-65" d="M 3597 1894 
L 3597 1613 
L 953 1613 
Q 991 1019 1311 708 
Q 1631 397 2203 397 
Q 2534 397 2845 478 
Q 3156 559 3463 722 
L 3463 178 
Q 3153 47 2828 -22 
Q 2503 -91 2169 -91 
Q 1331 -91 842 396 
Q 353 884 353 1716 
Q 353 2575 817 3079 
Q 1281 3584 2069 3584 
Q 2775 3584 3186 3129 
Q 3597 2675 3597 1894 
z
M 3022 2063 
Q 3016 2534 2758 2815 
Q 2500 3097 2075 3097 
Q 1594 3097 1305 2825 
Q 1016 2553 972 2059 
L 3022 2063 
z
" transform="scale(0.015625)"/>
      <path id="DejaVuSans-3a" d="M 750 794 
L 1409 794 
L 1409 0 
L 750 0 
L 750 794 
z
M 750 3309 
L 1409 3309 
L 1409 2516 
L 750 2516 
L 750 3309 
z
" transform="scale(0.015625)"/>
      <path id="DejaVuSans-33" d="M 2597 2516 
Q 3050 2419 3304 2112 
Q 3559 1806 3559 1356 
Q 3559 666 3084 287 
Q 2609 -91 1734 -91 
Q 1441 -91 1130 -33 
Q 819 25 488 141 
L 488 750 
Q 750 597 1062 519 
Q 1375 441 1716 441 
Q 2309 441 2620 675 
Q 2931 909 2931 1356 
Q 2931 1769 2642 2001 
Q 2353 2234 1838 2234 
L 1294 2234 
L 1294 2753 
L 1863 2753 
Q 2328 2753 2575 2939 
Q 2822 3125 2822 3475 
Q 2822 3834 2567 4026 
Q 2313 4219 1838 4219 
Q 1578 4219 1281 4162 
Q 984 4106 628 3988 
L 628 4550 
Q 988 4650 1302 4700 
Q 1616 4750 1894 4750 
Q 2613 4750 3031 4423 
Q 3450 4097 3450 3541 
Q 3450 3153 3228 2886 
Q 3006 2619 2597 2516 
z
" transform="scale(0.015625)"/>
      <path id="DejaVuSans-2e" d="M 684 794 
L 1344 794 
L 1344 0 
L 684 0 
L 684 794 
z
" transform="scale(0.015625)"/>
      <path id="DejaVuSans-32" d="M 1228 531 
L 3431 531 
L 3431 0 
L 469 0 
L 469 531 
Q 828 903 1448 1529 
Q 2069 2156 2228 2338 
Q 2531 2678 2651 2914 
Q 2772 3150 2772 3378 
Q 2772 3750 2511 3984 
Q 2250 4219 1831 4219 
Q 1534 4219 1204 4116 
Q 875 4013 500 3803 
L 500 4441 
Q 881 4594 1212 4672 
Q 1544 4750 1819 4750 
Q 2544 4750 2975 4387 
Q 3406 4025 3406 3419 
Q 3406 3131 3298 2873 
Q 3191 2616 2906 2266 
Q 2828 2175 2409 1742 
Q 1991 1309 1228 531 
z
" transform="scale(0.015625)"/>
      <path id="DejaVuSans-36" d="M 2113 2584 
Q 1688 2584 1439 2293 
Q 1191 2003 1191 1497 
Q 1191 994 1439 701 
Q 1688 409 2113 409 
Q 2538 409 2786 701 
Q 3034 994 3034 1497 
Q 3034 2003 2786 2293 
Q 2538 2584 2113 2584 
z
M 3366 4563 
L 3366 3988 
Q 3128 4100 2886 4159 
Q 2644 4219 2406 4219 
Q 1781 4219 1451 3797 
Q 1122 3375 1075 2522 
Q 1259 2794 1537 2939 
Q 1816 3084 2150 3084 
Q 2853 3084 3261 2657 
Q 3669 2231 3669 1497 
Q 3669 778 3244 343 
Q 2819 -91 2113 -91 
Q 1303 -91 875 529 
Q 447 1150 447 2328 
Q 447 3434 972 4092 
Q 1497 4750 2381 4750 
Q 2619 4750 2861 4703 
Q 3103 4656 3366 4563 
z
" transform="scale(0.015625)"/>
      <path id="DejaVuSans-30" d="M 2034 4250 
Q 1547 4250 1301 3770 
Q 1056 3291 1056 2328 
Q 1056 1369 1301 889 
Q 1547 409 2034 409 
Q 2525 409 2770 889 
Q 3016 1369 3016 2328 
Q 3016 3291 2770 3770 
Q 2525 4250 2034 4250 
z
M 2034 4750 
Q 2819 4750 3233 4129 
Q 3647 3509 3647 2328 
Q 3647 1150 3233 529 
Q 2819 -91 2034 -91 
Q 1250 -91 836 529 
Q 422 1150 422 2328 
Q 422 3509 836 4129 
Q 1250 4750 2034 4750 
z
" transform="scale(0.015625)"/>
      <path id="DejaVuSans-34" d="M 2419 4116 
L 825 1625 
L 2419 1625 
L 2419 4116 
z
M 2253 4666 
L 3047 4666 
L 3047 1625 
L 3713 1625 
L 3713 1100 
L 3047 1100 
L 3047 0 
L 2419 0 
L 2419 1100 
L 313 1100 
L 313 1709 
L 2253 4666 
z
" transform="scale(0.015625)"/>
      <path id="DejaVuSans-31" d="M 794 531 
L 1825 531 
L 1825 4091 
L 703 3866 
L 703 4441 
L 1819 4666 
L 2450 4666 
L 2450 531 
L 3481 531 
L 3481 0 
L 794 0 
L 794 531 
z
" transform="scale(0.015625)"/>
      <path id="DejaVuSans-38" d="M 2034 2216 
Q 1584 2216 1326 1975 
Q 1069 1734 1069 1313 
Q 1069 891 1326 650 
Q 1584 409 2034 409 
Q 2484 409 2743 651 
Q 3003 894 3003 1313 
Q 3003 1734 2745 1975 
Q 2488 2216 2034 2216 
z
M 1403 2484 
Q 997 2584 770 2862 
Q 544 3141 544 3541 
Q 544 4100 942 4425 
Q 1341 4750 2034 4750 
Q 2731 4750 3128 4425 
Q 3525 4100 3525 3541 
Q 3525 3141 3298 2862 
Q 3072 2584 2669 2484 
Q 3125 2378 3379 2068 
Q 3634 1759 3634 1313 
Q 3634 634 3220 271 
Q 2806 -91 2034 -91 
Q 1263 -91 848 271 
Q 434 634 434 1313 
Q 434 1759 690 2068 
Q 947 2378 1403 2484 
z
M 1172 3481 
Q 1172 3119 1398 2916 
Q 1625 2713 2034 2713 
Q 2441 2713 2670 2916 
Q 2900 3119 2900 3481 
Q 2900 3844 2670 4047 
Q 2441 4250 2034 4250 
Q 1625 4250 1398 4047 
Q 1172 3844 1172 3481 
z
" transform="scale(0.015625)"/>
      <path id="DejaVuSans-37" d="M 525 4666 
L 3525 4666 
L 3525 4397 
L 1831 0 
L 1172 0 
L 2766 4134 
L 525 4134 
L 525 4666 
z
" transform="scale(0.015625)"/>
     </defs>
     <use xlink:href="#DejaVuSans-47"/>
     <use xlink:href="#DejaVuSans-6c" x="77.490234"/>
     <use xlink:href="#DejaVuSans-6f" x="105.273438"/>
     <use xlink:href="#DejaVuSans-62" x="166.455078"/>
     <use xlink:href="#DejaVuSans-61" x="229.931641"/>
     <use xlink:href="#DejaVuSans-6c" x="291.210938"/>
     <use xlink:href="#DejaVuSans-20" x="318.994141"/>
     <use xlink:href="#DejaVuSans-50" x="350.78125"/>
     <use xlink:href="#DejaVuSans-68" x="411.083984"/>
     <use xlink:href="#DejaVuSans-61" x="474.462891"/>
     <use xlink:href="#DejaVuSans-73" x="535.742188"/>
     <use xlink:href="#DejaVuSans-65" x="587.841797"/>
     <use xlink:href="#DejaVuSans-3a" x="649.365234"/>
     <use xlink:href="#DejaVuSans-20" x="683.056641"/>
     <use xlink:href="#DejaVuSans-33" x="714.84375"/>
     <use xlink:href="#DejaVuSans-2e" x="778.466797"/>
     <use xlink:href="#DejaVuSans-32" x="810.253906"/>
     <use xlink:href="#DejaVuSans-36" x="873.876953"/>
     <use xlink:href="#DejaVuSans-33" x="937.5"/>
     <use xlink:href="#DejaVuSans-30" x="1001.123047"/>
     <use xlink:href="#DejaVuSans-34" x="1064.746094"/>
     <use xlink:href="#DejaVuSans-32" x="1128.369141"/>
     <use xlink:href="#DejaVuSans-31" x="1191.992188"/>
     <use xlink:href="#DejaVuSans-33" x="1255.615234"/>
     <use xlink:href="#DejaVuSans-33" x="1319.238281"/>
     <use xlink:href="#DejaVuSans-38" x="1382.861328"/>
     <use xlink:href="#DejaVuSans-37" x="1446.484375"/>
     <use xlink:href="#DejaVuSans-36" x="1510.107422"/>
     <use xlink:href="#DejaVuSans-38" x="1573.730469"/>
     <use xlink:href="#DejaVuSans-37" x="1637.353516"/>
     <use xlink:href="#DejaVuSans-36" x="1700.976562"/>
    </g>
   </g>
   <g id="patch_2">
    <path d="M 59.973797 28.704637 
L -1098.876188 28.704637 
L -1098.876188 214.120635 
L 59.973797 214.120635 
z
" clip-path="url(#p1aebd4802e)" style="fill: #ffffff; stroke: #ffffff; stroke-width: 1.5; stroke-linejoin: miter"/>
   </g>
   <g id="patch_3">
    <path d="M 59.973797 214.120635 
L -1098.876188 214.120635 
L -1098.876188 584.95263 
L 59.973797 584.95263 
z
" clip-path="url(#p1aebd4802e)" style="fill: #ffffff; stroke: #ffffff; stroke-width: 1.5; stroke-linejoin: miter"/>
   </g>
   <g id="line2d_9">
    <path d="M 182.348355 98.235636 
L 182.348355 51.881637 
" clip-path="url(#p1aebd4802e)" style="fill: none; stroke: #002d9c; stroke-width: 2; stroke-linecap: square"/>
   </g>
   <g id="line2d_10">
    <path d="M 321.410353 144.589636 
L 321.410353 51.881637 
" clip-path="url(#p1aebd4802e)" style="fill: none; stroke: #002d9c; stroke-width: 2; stroke-linecap: square"/>
   </g>
   <g id="line2d_11">
    <path d="M 460.472351 144.589636 
L 460.472351 98.235636 
" clip-path="url(#p1aebd4802e)" style="fill: none; stroke: #002d9c; stroke-width: 2; stroke-linecap: square"/>
   </g>
   <g id="line2d_12">
    <path d="M 599.534349 144.589636 
L 599.534349 51.881637 
" clip-path="url(#p1aebd4802e)" style="fill: none; stroke: #002d9c; stroke-width: 2; stroke-linecap: square"/>
   </g>
   <g id="line2d_13">
    <path d="M 738.596348 144.589636 
L 738.596348 98.235636 
" clip-path="url(#p1aebd4802e)" style="fill: none; stroke: #002d9c; stroke-width: 2; stroke-linecap: square"/>
   </g>
   <g id="line2d_14">
    <path d="M 877.658346 144.589636 
L 877.658346 51.881637 
" clip-path="url(#p1aebd4802e)" style="fill: none; stroke: #002d9c; stroke-width: 2; stroke-linecap: square"/>
   </g>
   <g id="line2d_15">
    <path d="M 970.366344 144.589636 
L 970.366344 98.235636 
" clip-path="url(#p1aebd4802e)" style="fill: none; stroke: #002d9c; stroke-width: 2; stroke-linecap: square"/>
   </g>
   <g id="line2d_16">
    <path d="M 1109.428343 144.589636 
L 1109.428343 51.881637 
" clip-path="url(#p1aebd4802e)" style="fill: none; stroke: #002d9c; stroke-width: 2; stroke-linecap: square"/>
   </g>
   <g id="line2d_17">
    <path d="M 89.640356 283.651634 
L 89.640356 237.297635 
" clip-path="url(#p1aebd4802e)" style="fill: none; stroke: #002d9c; stroke-width: 2; stroke-linecap: square"/>
   </g>
   <g id="line2d_18">
    <path d="M 228.702354 330.005633 
L 228.702354 237.297635 
" clip-path="url(#p1aebd4802e)" style="fill: none; stroke: #002d9c; stroke-width: 2; stroke-linecap: square"/>
   </g>
   <g id="line2d_19">
    <path d="M 321.410353 330.005633 
L 321.410353 283.651634 
" clip-path="url(#p1aebd4802e)" style="fill: none; stroke: #002d9c; stroke-width: 2; stroke-linecap: square"/>
   </g>
   <g id="line2d_20">
    <path d="M 460.472351 330.005633 
L 460.472351 237.297635 
" clip-path="url(#p1aebd4802e)" style="fill: none; stroke: #002d9c; stroke-width: 2; stroke-linecap: square"/>
   </g>
   <g id="line2d_21">
    <path d="M 599.534349 330.005633 
L 599.534349 283.651634 
" clip-path="url(#p1aebd4802e)" style="fill: none; stroke: #002d9c; stroke-width: 2; stroke-linecap: square"/>
   </g>
   <g id="patch_4">
    <path d="M 82.202857 66.946687 
L 143.431855 66.946687 
L 143.431855 36.816587 
L 82.202857 36.816587 
z
" clip-path="url(#p1aebd4802e)" style="fill: #9f1853; stroke: #9f1853; stroke-width: 1.5; stroke-linejoin: miter"/>
   </g>
   <g id="patch_5">
    <path d="M 77.42376 113.300686 
L 148.210952 113.300686 
L 148.210952 83.170587 
L 77.42376 83.170587 
z
" clip-path="url(#p1aebd4802e)" style="fill: #9f1853; stroke: #9f1853; stroke-width: 1.5; stroke-linejoin: miter"/>
   </g>
   <g id="patch_6">
    <path d="M 78.969665 159.654686 
L 146.665046 159.654686 
L 146.665046 129.524586 
L 78.969665 129.524586 
z
" clip-path="url(#p1aebd4802e)" style="fill: #9f1853; stroke: #9f1853; stroke-width: 1.5; stroke-linejoin: miter"/>
   </g>
   <g id="patch_7">
    <path d="M 182.348355 56.401152 
C 183.546944 56.401152 184.696604 55.924947 185.544135 55.077417 
C 186.391665 54.229886 186.86787 53.080226 186.86787 51.881637 
C 186.86787 50.683048 186.391665 49.533388 185.544135 48.685857 
C 184.696604 47.838327 183.546944 47.362122 182.348355 47.362122 
C 181.149766 47.362122 180.000106 47.838327 179.152575 48.685857 
C 178.305045 49.533388 177.82884 50.683048 177.82884 51.881637 
C 177.82884 53.080226 178.305045 54.229886 179.152575 55.077417 
C 180.000106 55.924947 181.149766 56.401152 182.348355 56.401152 
z
" clip-path="url(#p1aebd4802e)" style="fill: #002d9c; stroke: #002d9c; stroke-width: 1.5; stroke-linejoin: miter"/>
   </g>
   <g id="patch_8">
    <path d="M 182.348355 108.781171 
C 185.145063 108.781171 187.827603 107.670027 189.805174 105.692456 
C 191.782746 103.714884 192.89389 101.032345 192.89389 98.235636 
C 192.89389 95.438928 191.782746 92.756389 189.805174 90.778817 
C 187.827603 88.801246 185.145063 87.690102 182.348355 87.690102 
C 179.551646 87.690102 176.869107 88.801246 174.891536 90.778817 
C 172.913964 92.756389 171.80282 95.438928 171.80282 98.235636 
C 171.80282 101.032345 172.913964 103.714884 174.891536 105.692456 
C 176.869107 107.670027 179.551646 108.781171 182.348355 108.781171 
z
" clip-path="url(#p1aebd4802e)" style="fill: #002d9c; stroke: #002d9c; stroke-width: 2; stroke-linejoin: miter"/>
   </g>
   <g id="patch_9">
    <path d="M 217.498593 66.946687 
L 286.260115 66.946687 
L 286.260115 36.816587 
L 217.498593 36.816587 
z
" clip-path="url(#p1aebd4802e)" style="fill: #9f1853; stroke: #9f1853; stroke-width: 1.5; stroke-linejoin: miter"/>
   </g>
   <g id="patch_10">
    <path d="M 224.405339 113.300686 
L 279.353369 113.300686 
L 279.353369 83.170587 
L 224.405339 83.170587 
z
" clip-path="url(#p1aebd4802e)" style="fill: #9f1853; stroke: #9f1853; stroke-width: 1.5; stroke-linejoin: miter"/>
   </g>
   <g id="patch_11">
    <path d="M 321.410353 56.401152 
C 322.608942 56.401152 323.758602 55.924947 324.606133 55.077417 
C 325.453663 54.229886 325.929868 53.080226 325.929868 51.881637 
C 325.929868 50.683048 325.453663 49.533388 324.606133 48.685857 
C 323.758602 47.838327 322.608942 47.362122 321.410353 47.362122 
C 320.211764 47.362122 319.062104 47.838327 318.214573 48.685857 
C 317.367043 49.533388 316.890838 50.683048 316.890838 51.881637 
C 316.890838 53.080226 317.367043 54.229886 318.214573 55.077417 
C 319.062104 55.924947 320.211764 56.401152 321.410353 56.401152 
z
" clip-path="url(#p1aebd4802e)" style="fill: #002d9c; stroke: #002d9c; stroke-width: 1.5; stroke-linejoin: miter"/>
   </g>
   <g id="patch_12">
    <path d="M 321.410353 155.135171 
C 324.207062 155.135171 326.889601 154.024027 328.867172 152.046455 
C 330.844744 150.068883 331.955888 147.386344 331.955888 144.589636 
C 331.955888 141.792927 330.844744 139.110388 328.867172 137.132817 
C 326.889601 135.155245 324.207062 134.044101 321.410353 134.044101 
C 318.613645 134.044101 315.931105 135.155245 313.953534 137.132817 
C 311.975962 139.110388 310.864818 141.792927 310.864818 144.589636 
C 310.864818 147.386344 311.975962 150.068883 313.953534 152.046455 
C 315.931105 154.024027 318.613645 155.135171 321.410353 155.135171 
z
" clip-path="url(#p1aebd4802e)" style="fill: #002d9c; stroke: #002d9c; stroke-width: 2; stroke-linejoin: miter"/>
   </g>
   <g id="patch_13">
    <path d="M 364.287802 159.654686 
L 417.594902 159.654686 
L 417.594902 129.524586 
L 364.287802 129.524586 
z
" clip-path="url(#p1aebd4802e)" style="fill: #9f1853; stroke: #9f1853; stroke-width: 1.5; stroke-linejoin: miter"/>
   </g>
   <g id="patch_14">
    <path d="M 460.472351 102.755151 
C 461.670941 102.755151 462.8206 102.278947 463.668131 101.431416 
C 464.515662 100.583885 464.991866 99.434226 464.991866 98.235636 
C 464.991866 97.037047 464.515662 95.887387 463.668131 95.039857 
C 462.8206 94.192326 461.670941 93.716121 460.472351 93.716121 
C 459.273762 93.716121 458.124102 94.192326 457.276572 95.039857 
C 456.429041 95.887387 455.952836 97.037047 455.952836 98.235636 
C 455.952836 99.434226 456.429041 100.583885 457.276572 101.431416 
C 458.124102 102.278947 459.273762 102.755151 460.472351 102.755151 
z
" clip-path="url(#p1aebd4802e)" style="fill: #002d9c; stroke: #002d9c; stroke-width: 1.5; stroke-linejoin: miter"/>
   </g>
   <g id="patch_15">
    <path d="M 460.472351 155.135171 
C 463.26906 155.135171 465.951599 154.024027 467.92917 152.046455 
C 469.906742 150.068883 471.017886 147.386344 471.017886 144.589636 
C 471.017886 141.792927 469.906742 139.110388 467.92917 137.132817 
C 465.951599 135.155245 463.26906 134.044101 460.472351 134.044101 
C 457.675643 134.044101 454.993104 135.155245 453.015532 137.132817 
C 451.03796 139.110388 449.926816 141.792927 449.926816 144.589636 
C 449.926816 147.386344 451.03796 150.068883 453.015532 152.046455 
C 454.993104 154.024027 457.675643 155.135171 460.472351 155.135171 
z
" clip-path="url(#p1aebd4802e)" style="fill: #002d9c; stroke: #002d9c; stroke-width: 2; stroke-linejoin: miter"/>
   </g>
   <g id="patch_16">
    <path d="M 506.872705 159.654686 
L 553.133996 159.654686 
L 553.133996 129.524586 
L 506.872705 129.524586 
z
" clip-path="url(#p1aebd4802e)" style="fill: #9f1853; stroke: #9f1853; stroke-width: 1.5; stroke-linejoin: miter"/>
   </g>
   <g id="patch_17">
    <path d="M 599.534349 56.401152 
C 600.732939 56.401152 601.882598 55.924947 602.730129 55.077417 
C 603.57766 54.229886 604.053864 53.080226 604.053864 51.881637 
C 604.053864 50.683048 603.57766 49.533388 602.730129 48.685857 
C 601.882598 47.838327 600.732939 47.362122 599.534349 47.362122 
C 598.33576 47.362122 597.1861 47.838327 596.33857 48.685857 
C 595.491039 49.533388 595.014834 50.683048 595.014834 51.881637 
C 595.014834 53.080226 595.491039 54.229886 596.33857 55.077417 
C 597.1861 55.924947 598.33576 56.401152 599.534349 56.401152 
z
" clip-path="url(#p1aebd4802e)" style="fill: #002d9c; stroke: #002d9c; stroke-width: 1.5; stroke-linejoin: miter"/>
   </g>
   <g id="patch_18">
    <path d="M 599.534349 155.135171 
C 602.331058 155.135171 605.013597 154.024027 606.991169 152.046455 
C 608.96874 150.068883 610.079884 147.386344 610.079884 144.589636 
C 610.079884 141.792927 608.96874 139.110388 606.991169 137.132817 
C 605.013597 135.155245 602.331058 134.044101 599.534349 134.044101 
C 596.737641 134.044101 594.055102 135.155245 592.07753 137.132817 
C 590.099959 139.110388 588.988814 141.792927 588.988814 144.589636 
C 588.988814 147.386344 590.099959 150.068883 592.07753 152.046455 
C 594.055102 154.024027 596.737641 155.135171 599.534349 155.135171 
z
" clip-path="url(#p1aebd4802e)" style="fill: #002d9c; stroke: #002d9c; stroke-width: 2; stroke-linejoin: miter"/>
   </g>
   <g id="patch_19">
    <path d="M 645.019211 159.654686 
L 693.111486 159.654686 
L 693.111486 129.524586 
L 645.019211 129.524586 
z
" clip-path="url(#p1aebd4802e)" style="fill: #9f1853; stroke: #9f1853; stroke-width: 1.5; stroke-linejoin: miter"/>
   </g>
   <g id="patch_20">
    <path d="M 738.596348 102.755151 
C 739.794937 102.755151 740.944596 102.278947 741.792127 101.431416 
C 742.639658 100.583885 743.115862 99.434226 743.115862 98.235636 
C 743.115862 97.037047 742.639658 95.887387 741.792127 95.039857 
C 740.944596 94.192326 739.794937 93.716121 738.596348 93.716121 
C 737.397758 93.716121 736.248099 94.192326 735.400568 95.039857 
C 734.553037 95.887387 734.076833 97.037047 734.076833 98.235636 
C 734.076833 99.434226 734.553037 100.583885 735.400568 101.431416 
C 736.248099 102.278947 737.397758 102.755151 738.596348 102.755151 
z
" clip-path="url(#p1aebd4802e)" style="fill: #002d9c; stroke: #002d9c; stroke-width: 1.5; stroke-linejoin: miter"/>
   </g>
   <g id="patch_21">
    <path d="M 738.596348 155.135171 
C 741.393056 155.135171 744.075595 154.024027 746.053167 152.046455 
C 748.030738 150.068883 749.141882 147.386344 749.141882 144.589636 
C 749.141882 141.792927 748.030738 139.110388 746.053167 137.132817 
C 744.075595 135.155245 741.393056 134.044101 738.596348 134.044101 
C 735.799639 134.044101 733.1171 135.155245 731.139528 137.132817 
C 729.161957 139.110388 728.050813 141.792927 728.050813 144.589636 
C 728.050813 147.386344 729.161957 150.068883 731.139528 152.046455 
C 733.1171 154.024027 735.799639 155.135171 738.596348 155.135171 
z
" clip-path="url(#p1aebd4802e)" style="fill: #002d9c; stroke: #002d9c; stroke-width: 2; stroke-linejoin: miter"/>
   </g>
   <g id="patch_22">
    <path d="M 781.763509 159.654686 
L 834.491184 159.654686 
L 834.491184 129.524586 
L 781.763509 129.524586 
z
" clip-path="url(#p1aebd4802e)" style="fill: #9f1853; stroke: #9f1853; stroke-width: 1.5; stroke-linejoin: miter"/>
   </g>
   <g id="patch_23">
    <path d="M 877.658346 56.401152 
C 878.856935 56.401152 880.006595 55.924947 880.854125 55.077417 
C 881.701656 54.229886 882.177861 53.080226 882.177861 51.881637 
C 882.177861 50.683048 881.701656 49.533388 880.854125 48.685857 
C 880.006595 47.838327 878.856935 47.362122 877.658346 47.362122 
C 876.459756 47.362122 875.310097 47.838327 874.462566 48.685857 
C 873.615035 49.533388 873.138831 50.683048 873.138831 51.881637 
C 873.138831 53.080226 873.615035 54.229886 874.462566 55.077417 
C 875.310097 55.924947 876.459756 56.401152 877.658346 56.401152 
z
" clip-path="url(#p1aebd4802e)" style="fill: #002d9c; stroke: #002d9c; stroke-width: 1.5; stroke-linejoin: miter"/>
   </g>
   <g id="patch_24">
    <path d="M 877.658346 155.135171 
C 880.455054 155.135171 883.137593 154.024027 885.115165 152.046455 
C 887.092736 150.068883 888.203881 147.386344 888.203881 144.589636 
C 888.203881 141.792927 887.092736 139.110388 885.115165 137.132817 
C 883.137593 135.155245 880.455054 134.044101 877.658346 134.044101 
C 874.861637 134.044101 872.179098 135.155245 870.201526 137.132817 
C 868.223955 139.110388 867.112811 141.792927 867.112811 144.589636 
C 867.112811 147.386344 868.223955 150.068883 870.201526 152.046455 
C 872.179098 154.024027 874.861637 155.135171 877.658346 155.135171 
z
" clip-path="url(#p1aebd4802e)" style="fill: #002d9c; stroke: #002d9c; stroke-width: 2; stroke-linejoin: miter"/>
   </g>
   <g id="patch_25">
    <path d="M 903.683799 159.654686 
L 944.340891 159.654686 
L 944.340891 129.524586 
L 903.683799 129.524586 
z
" clip-path="url(#p1aebd4802e)" style="fill: #9f1853; stroke: #9f1853; stroke-width: 1.5; stroke-linejoin: miter"/>
   </g>
   <g id="patch_26">
    <path d="M 970.366344 102.755151 
C 971.564934 102.755151 972.714593 102.278947 973.562124 101.431416 
C 974.409655 100.583885 974.885859 99.434226 974.885859 98.235636 
C 974.885859 97.037047 974.409655 95.887387 973.562124 95.039857 
C 972.714593 94.192326 971.564934 93.716121 970.366344 93.716121 
C 969.167755 93.716121 968.018095 94.192326 967.170565 95.039857 
C 966.323034 95.887387 965.846829 97.037047 965.846829 98.235636 
C 965.846829 99.434226 966.323034 100.583885 967.170565 101.431416 
C 968.018095 102.278947 969.167755 102.755151 970.366344 102.755151 
z
" clip-path="url(#p1aebd4802e)" style="fill: #002d9c; stroke: #002d9c; stroke-width: 1.5; stroke-linejoin: miter"/>
   </g>
   <g id="patch_27">
    <path d="M 970.366344 155.135171 
C 973.163053 155.135171 975.845592 154.024027 977.823164 152.046455 
C 979.800735 150.068883 980.911879 147.386344 980.911879 144.589636 
C 980.911879 141.792927 979.800735 139.110388 977.823164 137.132817 
C 975.845592 135.155245 973.163053 134.044101 970.366344 134.044101 
C 967.569636 134.044101 964.887097 135.155245 962.909525 137.132817 
C 960.931954 139.110388 959.82081 141.792927 959.82081 144.589636 
C 959.82081 147.386344 960.931954 150.068883 962.909525 152.046455 
C 964.887097 154.024027 967.569636 155.135171 970.366344 155.135171 
z
" clip-path="url(#p1aebd4802e)" style="fill: #002d9c; stroke: #002d9c; stroke-width: 2; stroke-linejoin: miter"/>
   </g>
   <g id="patch_28">
    <path d="M 1009.282845 113.300686 
L 1070.511842 113.300686 
L 1070.511842 83.170587 
L 1009.282845 83.170587 
z
" clip-path="url(#p1aebd4802e)" style="fill: #9f1853; stroke: #9f1853; stroke-width: 1.5; stroke-linejoin: miter"/>
   </g>
   <g id="patch_29">
    <path d="M 1007.546887 159.654686 
L 1072.2478 159.654686 
L 1072.2478 129.524586 
L 1007.546887 129.524586 
z
" clip-path="url(#p1aebd4802e)" style="fill: #9f1853; stroke: #9f1853; stroke-width: 1.5; stroke-linejoin: miter"/>
   </g>
   <g id="patch_30">
    <path d="M 1109.428343 56.401152 
C 1110.626932 56.401152 1111.776592 55.924947 1112.624122 55.077417 
C 1113.471653 54.229886 1113.947858 53.080226 1113.947858 51.881637 
C 1113.947858 50.683048 1113.471653 49.533388 1112.624122 48.685857 
C 1111.776592 47.838327 1110.626932 47.362122 1109.428343 47.362122 
C 1108.229753 47.362122 1107.080094 47.838327 1106.232563 48.685857 
C 1105.385032 49.533388 1104.908828 50.683048 1104.908828 51.881637 
C 1104.908828 53.080226 1105.385032 54.229886 1106.232563 55.077417 
C 1107.080094 55.924947 1108.229753 56.401152 1109.428343 56.401152 
z
" clip-path="url(#p1aebd4802e)" style="fill: #002d9c; stroke: #002d9c; stroke-width: 1.5; stroke-linejoin: miter"/>
   </g>
   <g id="patch_31">
    <path d="M 1109.428343 155.135171 
C 1112.225051 155.135171 1114.90759 154.024027 1116.885162 152.046455 
C 1118.862733 150.068883 1119.973877 147.386344 1119.973877 144.589636 
C 1119.973877 141.792927 1118.862733 139.110388 1116.885162 137.132817 
C 1114.90759 135.155245 1112.225051 134.044101 1109.428343 134.044101 
C 1106.631634 134.044101 1103.949095 135.155245 1101.971523 137.132817 
C 1099.993952 139.110388 1098.882808 141.792927 1098.882808 144.589636 
C 1098.882808 147.386344 1099.993952 150.068883 1101.971523 152.046455 
C 1103.949095 154.024027 1106.631634 155.135171 1109.428343 155.135171 
z
" clip-path="url(#p1aebd4802e)" style="fill: #002d9c; stroke: #002d9c; stroke-width: 2; stroke-linejoin: miter"/>
   </g>
   <g id="patch_32">
    <path d="M 1144.57858 66.946687 
L 1213.340103 66.946687 
L 1213.340103 36.816587 
L 1144.57858 36.816587 
z
" clip-path="url(#p1aebd4802e)" style="fill: #9f1853; stroke: #9f1853; stroke-width: 1.5; stroke-linejoin: miter"/>
   </g>
   <g id="patch_33">
    <path d="M 1148.393514 159.654686 
L 1209.525169 159.654686 
L 1209.525169 129.524586 
L 1148.393514 129.524586 
z
" clip-path="url(#p1aebd4802e)" style="fill: #9f1853; stroke: #9f1853; stroke-width: 1.5; stroke-linejoin: miter"/>
   </g>
   <g id="patch_34">
    <path d="M 89.640356 241.817149 
C 90.838946 241.817149 91.988605 241.340945 92.836136 240.493414 
C 93.683666 239.645884 94.159871 238.496224 94.159871 237.297635 
C 94.159871 236.099045 93.683666 234.949386 92.836136 234.101855 
C 91.988605 233.254324 90.838946 232.77812 89.640356 232.77812 
C 88.441767 232.77812 87.292107 233.254324 86.444576 234.101855 
C 85.597046 234.949386 85.120841 236.099045 85.120841 237.297635 
C 85.120841 238.496224 85.597046 239.645884 86.444576 240.493414 
C 87.292107 241.340945 88.441767 241.817149 89.640356 241.817149 
z
" clip-path="url(#p1aebd4802e)" style="fill: #002d9c; stroke: #002d9c; stroke-width: 1.5; stroke-linejoin: miter"/>
   </g>
   <g id="patch_35">
    <path d="M 89.640356 294.197169 
C 92.437065 294.197169 95.119604 293.086025 97.097175 291.108453 
C 99.074747 289.130882 100.185891 286.448342 100.185891 283.651634 
C 100.185891 280.854925 99.074747 278.172386 97.097175 276.194815 
C 95.119604 274.217243 92.437065 273.106099 89.640356 273.106099 
C 86.843648 273.106099 84.161108 274.217243 82.183537 276.194815 
C 80.205965 278.172386 79.094821 280.854925 79.094821 283.651634 
C 79.094821 286.448342 80.205965 289.130882 82.183537 291.108453 
C 84.161108 293.086025 86.843648 294.197169 89.640356 294.197169 
z
" clip-path="url(#p1aebd4802e)" style="fill: #002d9c; stroke: #002d9c; stroke-width: 2; stroke-linejoin: miter"/>
   </g>
   <g id="patch_36">
    <path d="M 128.313498 252.362684 
L 190.029213 252.362684 
L 190.029213 222.232585 
L 128.313498 222.232585 
z
" clip-path="url(#p1aebd4802e)" style="fill: #9f1853; stroke: #9f1853; stroke-width: 1.5; stroke-linejoin: miter"/>
   </g>
   <g id="patch_37">
    <path d="M 134.88186 298.716684 
L 183.460851 298.716684 
L 183.460851 268.586584 
L 134.88186 268.586584 
z
" clip-path="url(#p1aebd4802e)" style="fill: #9f1853; stroke: #9f1853; stroke-width: 1.5; stroke-linejoin: miter"/>
   </g>
   <g id="patch_38">
    <path d="M 228.702354 241.817149 
C 229.900944 241.817149 231.050603 241.340945 231.898134 240.493414 
C 232.745665 239.645884 233.221869 238.496224 233.221869 237.297635 
C 233.221869 236.099045 232.745665 234.949386 231.898134 234.101855 
C 231.050603 233.254324 229.900944 232.77812 228.702354 232.77812 
C 227.503765 232.77812 226.354105 233.254324 225.506575 234.101855 
C 224.659044 234.949386 224.182839 236.099045 224.182839 237.297635 
C 224.182839 238.496224 224.659044 239.645884 225.506575 240.493414 
C 226.354105 241.340945 227.503765 241.817149 228.702354 241.817149 
z
" clip-path="url(#p1aebd4802e)" style="fill: #002d9c; stroke: #002d9c; stroke-width: 1.5; stroke-linejoin: miter"/>
   </g>
   <g id="patch_39">
    <path d="M 228.702354 340.551168 
C 231.499063 340.551168 234.181602 339.440024 236.159173 337.462453 
C 238.136745 335.484881 239.247889 332.802342 239.247889 330.005633 
C 239.247889 327.208925 238.136745 324.526386 236.159173 322.548814 
C 234.181602 320.571243 231.499063 319.460098 228.702354 319.460098 
C 225.905646 319.460098 223.223107 320.571243 221.245535 322.548814 
C 219.267964 324.526386 218.156819 327.208925 218.156819 330.005633 
C 218.156819 332.802342 219.267964 335.484881 221.245535 337.462453 
C 223.223107 339.440024 225.905646 340.551168 228.702354 340.551168 
z
" clip-path="url(#p1aebd4802e)" style="fill: #002d9c; stroke: #002d9c; stroke-width: 2; stroke-linejoin: miter"/>
   </g>
   <g id="patch_40">
    <path d="M 253.812316 345.070683 
L 296.300392 345.070683 
L 296.300392 314.940584 
L 253.812316 314.940584 
z
" clip-path="url(#p1aebd4802e)" style="fill: #9f1853; stroke: #9f1853; stroke-width: 1.5; stroke-linejoin: miter"/>
   </g>
   <g id="patch_41">
    <path d="M 321.410353 288.171149 
C 322.608942 288.171149 323.758602 287.694944 324.606133 286.847414 
C 325.453663 285.999883 325.929868 284.850223 325.929868 283.651634 
C 325.929868 282.453045 325.453663 281.303385 324.606133 280.455854 
C 323.758602 279.608324 322.608942 279.132119 321.410353 279.132119 
C 320.211764 279.132119 319.062104 279.608324 318.214573 280.455854 
C 317.367043 281.303385 316.890838 282.453045 316.890838 283.651634 
C 316.890838 284.850223 317.367043 285.999883 318.214573 286.847414 
C 319.062104 287.694944 320.211764 288.171149 321.410353 288.171149 
z
" clip-path="url(#p1aebd4802e)" style="fill: #002d9c; stroke: #002d9c; stroke-width: 1.5; stroke-linejoin: miter"/>
   </g>
   <g id="patch_42">
    <path d="M 321.410353 340.551168 
C 324.207062 340.551168 326.889601 339.440024 328.867172 337.462453 
C 330.844744 335.484881 331.955888 332.802342 331.955888 330.005633 
C 331.955888 327.208925 330.844744 324.526386 328.867172 322.548814 
C 326.889601 320.571243 324.207062 319.460098 321.410353 319.460098 
C 318.613645 319.460098 315.931105 320.571243 313.953534 322.548814 
C 311.975962 324.526386 310.864818 327.208925 310.864818 330.005633 
C 310.864818 332.802342 311.975962 335.484881 313.953534 337.462453 
C 315.931105 339.440024 318.613645 340.551168 321.410353 340.551168 
z
" clip-path="url(#p1aebd4802e)" style="fill: #002d9c; stroke: #002d9c; stroke-width: 2; stroke-linejoin: miter"/>
   </g>
   <g id="patch_43">
    <path d="M 366.943887 345.070683 
L 414.938818 345.070683 
L 414.938818 314.940584 
L 366.943887 314.940584 
z
" clip-path="url(#p1aebd4802e)" style="fill: #9f1853; stroke: #9f1853; stroke-width: 1.5; stroke-linejoin: miter"/>
   </g>
   <g id="patch_44">
    <path d="M 460.472351 241.817149 
C 461.670941 241.817149 462.8206 241.340945 463.668131 240.493414 
C 464.515662 239.645884 464.991866 238.496224 464.991866 237.297635 
C 464.991866 236.099045 464.515662 234.949386 463.668131 234.101855 
C 462.8206 233.254324 461.670941 232.77812 460.472351 232.77812 
C 459.273762 232.77812 458.124102 233.254324 457.276572 234.101855 
C 456.429041 234.949386 455.952836 236.099045 455.952836 237.297635 
C 455.952836 238.496224 456.429041 239.645884 457.276572 240.493414 
C 458.124102 241.340945 459.273762 241.817149 460.472351 241.817149 
z
" clip-path="url(#p1aebd4802e)" style="fill: #002d9c; stroke: #002d9c; stroke-width: 1.5; stroke-linejoin: miter"/>
   </g>
   <g id="patch_45">
    <path d="M 460.472351 340.551168 
C 463.26906 340.551168 465.951599 339.440024 467.92917 337.462453 
C 469.906742 335.484881 471.017886 332.802342 471.017886 330.005633 
C 471.017886 327.208925 469.906742 324.526386 467.92917 322.548814 
C 465.951599 320.571243 463.26906 319.460098 460.472351 319.460098 
C 457.675643 319.460098 454.993104 320.571243 453.015532 322.548814 
C 451.03796 324.526386 449.926816 327.208925 449.926816 330.005633 
C 449.926816 332.802342 451.03796 335.484881 453.015532 337.462453 
C 454.993104 339.440024 457.675643 340.551168 460.472351 340.551168 
z
" clip-path="url(#p1aebd4802e)" style="fill: #002d9c; stroke: #002d9c; stroke-width: 2; stroke-linejoin: miter"/>
   </g>
   <g id="patch_46">
    <path d="M 503.203786 345.070683 
L 556.802915 345.070683 
L 556.802915 314.940584 
L 503.203786 314.940584 
z
" clip-path="url(#p1aebd4802e)" style="fill: #9f1853; stroke: #9f1853; stroke-width: 1.5; stroke-linejoin: miter"/>
   </g>
   <g id="patch_47">
    <path d="M 599.534349 288.171149 
C 600.732939 288.171149 601.882598 287.694944 602.730129 286.847414 
C 603.57766 285.999883 604.053864 284.850223 604.053864 283.651634 
C 604.053864 282.453045 603.57766 281.303385 602.730129 280.455854 
C 601.882598 279.608324 600.732939 279.132119 599.534349 279.132119 
C 598.33576 279.132119 597.1861 279.608324 596.33857 280.455854 
C 595.491039 281.303385 595.014834 282.453045 595.014834 283.651634 
C 595.014834 284.850223 595.491039 285.999883 596.33857 286.847414 
C 597.1861 287.694944 598.33576 288.171149 599.534349 288.171149 
z
" clip-path="url(#p1aebd4802e)" style="fill: #002d9c; stroke: #002d9c; stroke-width: 1.5; stroke-linejoin: miter"/>
   </g>
   <g id="patch_48">
    <path d="M 599.534349 340.551168 
C 602.331058 340.551168 605.013597 339.440024 606.991169 337.462453 
C 608.96874 335.484881 610.079884 332.802342 610.079884 330.005633 
C 610.079884 327.208925 608.96874 324.526386 606.991169 322.548814 
C 605.013597 320.571243 602.331058 319.460098 599.534349 319.460098 
C 596.737641 319.460098 594.055102 320.571243 592.07753 322.548814 
C 590.099959 324.526386 588.988814 327.208925 588.988814 330.005633 
C 588.988814 332.802342 590.099959 335.484881 592.07753 337.462453 
C 594.055102 339.440024 596.737641 340.551168 599.534349 340.551168 
z
" clip-path="url(#p1aebd4802e)" style="fill: #002d9c; stroke: #002d9c; stroke-width: 2; stroke-linejoin: miter"/>
   </g>
   <g id="line2d_22">
    <path d="M 182.348355 104.261656 
L 182.348355 92.209616 
" clip-path="url(#p1aebd4802e)" style="fill: none; stroke: #ffffff; stroke-width: 2; stroke-linecap: square"/>
   </g>
   <g id="line2d_23">
    <path d="M 176.322335 98.235636 
L 188.374375 98.235636 
" clip-path="url(#p1aebd4802e)" style="fill: none; stroke: #ffffff; stroke-width: 2; stroke-linecap: square"/>
   </g>
   <g id="line2d_24">
    <path d="M 321.410353 150.615656 
L 321.410353 138.563616 
" clip-path="url(#p1aebd4802e)" style="fill: none; stroke: #ffffff; stroke-width: 2; stroke-linecap: square"/>
   </g>
   <g id="line2d_25">
    <path d="M 315.384333 144.589636 
L 327.436373 144.589636 
" clip-path="url(#p1aebd4802e)" style="fill: none; stroke: #ffffff; stroke-width: 2; stroke-linecap: square"/>
   </g>
   <g id="line2d_26">
    <path d="M 460.472351 150.615656 
L 460.472351 138.563616 
" clip-path="url(#p1aebd4802e)" style="fill: none; stroke: #ffffff; stroke-width: 2; stroke-linecap: square"/>
   </g>
   <g id="line2d_27">
    <path d="M 454.446331 144.589636 
L 466.498371 144.589636 
" clip-path="url(#p1aebd4802e)" style="fill: none; stroke: #ffffff; stroke-width: 2; stroke-linecap: square"/>
   </g>
   <g id="line2d_28">
    <path d="M 599.534349 150.615656 
L 599.534349 138.563616 
" clip-path="url(#p1aebd4802e)" style="fill: none; stroke: #ffffff; stroke-width: 2; stroke-linecap: square"/>
   </g>
   <g id="line2d_29">
    <path d="M 593.508329 144.589636 
L 605.560369 144.589636 
" clip-path="url(#p1aebd4802e)" style="fill: none; stroke: #ffffff; stroke-width: 2; stroke-linecap: square"/>
   </g>
   <g id="line2d_30">
    <path d="M 738.596348 150.615656 
L 738.596348 138.563616 
" clip-path="url(#p1aebd4802e)" style="fill: none; stroke: #ffffff; stroke-width: 2; stroke-linecap: square"/>
   </g>
   <g id="line2d_31">
    <path d="M 732.570328 144.589636 
L 744.622367 144.589636 
" clip-path="url(#p1aebd4802e)" style="fill: none; stroke: #ffffff; stroke-width: 2; stroke-linecap: square"/>
   </g>
   <g id="line2d_32">
    <path d="M 877.658346 150.615656 
L 877.658346 138.563616 
" clip-path="url(#p1aebd4802e)" style="fill: none; stroke: #ffffff; stroke-width: 2; stroke-linecap: square"/>
   </g>
   <g id="line2d_33">
    <path d="M 871.632326 144.589636 
L 883.684366 144.589636 
" clip-path="url(#p1aebd4802e)" style="fill: none; stroke: #ffffff; stroke-width: 2; stroke-linecap: square"/>
   </g>
   <g id="line2d_34">
    <path d="M 970.366344 150.615656 
L 970.366344 138.563616 
" clip-path="url(#p1aebd4802e)" style="fill: none; stroke: #ffffff; stroke-width: 2; stroke-linecap: square"/>
   </g>
   <g id="line2d_35">
    <path d="M 964.340325 144.589636 
L 976.392364 144.589636 
" clip-path="url(#p1aebd4802e)" style="fill: none; stroke: #ffffff; stroke-width: 2; stroke-linecap: square"/>
   </g>
   <g id="line2d_36">
    <path d="M 1109.428343 150.615656 
L 1109.428343 138.563616 
" clip-path="url(#p1aebd4802e)" style="fill: none; stroke: #ffffff; stroke-width: 2; stroke-linecap: square"/>
   </g>
   <g id="line2d_37">
    <path d="M 1103.402323 144.589636 
L 1115.454363 144.589636 
" clip-path="url(#p1aebd4802e)" style="fill: none; stroke: #ffffff; stroke-width: 2; stroke-linecap: square"/>
   </g>
   <g id="line2d_38">
    <path d="M 89.640356 289.677654 
L 89.640356 277.625614 
" clip-path="url(#p1aebd4802e)" style="fill: none; stroke: #ffffff; stroke-width: 2; stroke-linecap: square"/>
   </g>
   <g id="line2d_39">
    <path d="M 83.614336 283.651634 
L 95.666376 283.651634 
" clip-path="url(#p1aebd4802e)" style="fill: none; stroke: #ffffff; stroke-width: 2; stroke-linecap: square"/>
   </g>
   <g id="line2d_40">
    <path d="M 228.702354 336.031653 
L 228.702354 323.979613 
" clip-path="url(#p1aebd4802e)" style="fill: none; stroke: #ffffff; stroke-width: 2; stroke-linecap: square"/>
   </g>
   <g id="line2d_41">
    <path d="M 222.676334 330.005633 
L 234.728374 330.005633 
" clip-path="url(#p1aebd4802e)" style="fill: none; stroke: #ffffff; stroke-width: 2; stroke-linecap: square"/>
   </g>
   <g id="line2d_42">
    <path d="M 321.410353 336.031653 
L 321.410353 323.979613 
" clip-path="url(#p1aebd4802e)" style="fill: none; stroke: #ffffff; stroke-width: 2; stroke-linecap: square"/>
   </g>
   <g id="line2d_43">
    <path d="M 315.384333 330.005633 
L 327.436373 330.005633 
" clip-path="url(#p1aebd4802e)" style="fill: none; stroke: #ffffff; stroke-width: 2; stroke-linecap: square"/>
   </g>
   <g id="line2d_44">
    <path d="M 460.472351 336.031653 
L 460.472351 323.979613 
" clip-path="url(#p1aebd4802e)" style="fill: none; stroke: #ffffff; stroke-width: 2; stroke-linecap: square"/>
   </g>
   <g id="line2d_45">
    <path d="M 454.446331 330.005633 
L 466.498371 330.005633 
" clip-path="url(#p1aebd4802e)" style="fill: none; stroke: #ffffff; stroke-width: 2; stroke-linecap: square"/>
   </g>
   <g id="line2d_46">
    <path d="M 599.534349 336.031653 
L 599.534349 323.979613 
" clip-path="url(#p1aebd4802e)" style="fill: none; stroke: #ffffff; stroke-width: 2; stroke-linecap: square"/>
   </g>
   <g id="line2d_47">
    <path d="M 593.508329 330.005633 
L 605.560369 330.005633 
" clip-path="url(#p1aebd4802e)" style="fill: none; stroke: #ffffff; stroke-width: 2; stroke-linecap: square"/>
   </g>
   <g id="text_2">
    <g clip-path="url(#p1aebd4802e)">
     <!-- ${q}_{0}$ -->
     <g transform="translate(37.300897 56.332614) scale(0.1625 -0.1625)">
      <defs>
       <path id="DejaVuSans-Oblique-71" d="M 2669 525 
Q 2438 222 2123 65 
Q 1809 -91 1428 -91 
Q 897 -91 595 267 
Q 294 625 294 1253 
Q 294 1759 480 2231 
Q 666 2703 1013 3078 
Q 1238 3322 1530 3453 
Q 1822 3584 2144 3584 
Q 2531 3584 2781 3431 
Q 3031 3278 3144 2969 
L 3244 3494 
L 3822 3494 
L 2888 -1319 
L 2309 -1319 
L 2669 525 
z
M 891 1338 
Q 891 875 1084 633 
Q 1278 391 1644 391 
Q 2188 391 2572 911 
Q 2956 1431 2956 2175 
Q 2956 2625 2757 2864 
Q 2559 3103 2188 3103 
Q 1916 3103 1684 2976 
Q 1453 2850 1281 2606 
Q 1100 2350 995 2006 
Q 891 1663 891 1338 
z
" transform="scale(0.015625)"/>
      </defs>
      <use xlink:href="#DejaVuSans-Oblique-71"/>
      <use xlink:href="#DejaVuSans-30" transform="translate(63.476562 -16.40625) scale(0.7)"/>
     </g>
    </g>
   </g>
   <g id="text_3">
    <g clip-path="url(#p1aebd4802e)">
     <!-- ${q}_{1}$ -->
     <g transform="translate(37.300897 102.686613) scale(0.1625 -0.1625)">
      <use xlink:href="#DejaVuSans-Oblique-71"/>
      <use xlink:href="#DejaVuSans-31" transform="translate(63.476562 -16.40625) scale(0.7)"/>
     </g>
    </g>
   </g>
   <g id="text_4">
    <g clip-path="url(#p1aebd4802e)">
     <!-- ${q}_{2}$ -->
     <g transform="translate(37.300897 149.040612) scale(0.1625 -0.1625)">
      <use xlink:href="#DejaVuSans-Oblique-71"/>
      <use xlink:href="#DejaVuSans-32" transform="translate(63.476562 -16.40625) scale(0.7)"/>
     </g>
    </g>
   </g>
   <g id="text_5">
    <g clip-path="url(#p1aebd4802e)">
     <!-- ${q}_{0}$ -->
     <g transform="translate(37.300897 241.748611) scale(0.1625 -0.1625)">
      <use xlink:href="#DejaVuSans-Oblique-71"/>
      <use xlink:href="#DejaVuSans-30" transform="translate(63.476562 -16.40625) scale(0.7)"/>
     </g>
    </g>
   </g>
   <g id="text_6">
    <g clip-path="url(#p1aebd4802e)">
     <!-- ${q}_{1}$ -->
     <g transform="translate(37.300897 288.10261) scale(0.1625 -0.1625)">
      <use xlink:href="#DejaVuSans-Oblique-71"/>
      <use xlink:href="#DejaVuSans-31" transform="translate(63.476562 -16.40625) scale(0.7)"/>
     </g>
    </g>
   </g>
   <g id="text_7">
    <g clip-path="url(#p1aebd4802e)">
     <!-- ${q}_{2}$ -->
     <g transform="translate(37.300897 334.45661) scale(0.1625 -0.1625)">
      <use xlink:href="#DejaVuSans-Oblique-71"/>
      <use xlink:href="#DejaVuSans-32" transform="translate(63.476562 -16.40625) scale(0.7)"/>
     </g>
    </g>
   </g>
   <g id="text_8">
    <g clip-path="url(#p1aebd4802e)">
     <!-- 0.468, 0, $-$$\pi$/2 -->
     <g style="fill: #ffffff" transform="translate(84.217356 63.128167) scale(0.08 -0.08)">
      <defs>
       <path id="DejaVuSans-2c" d="M 750 794 
L 1409 794 
L 1409 256 
L 897 -744 
L 494 -744 
L 750 256 
L 750 794 
z
" transform="scale(0.015625)"/>
       <path id="DejaVuSans-2212" d="M 678 2272 
L 4684 2272 
L 4684 1741 
L 678 1741 
L 678 2272 
z
" transform="scale(0.015625)"/>
       <path id="DejaVuSans-Oblique-3c0" d="M 584 3500 
L 3938 3500 
L 3825 2925 
L 3384 2925 
L 2966 775 
Q 2922 550 2981 450 
Q 3038 353 3209 353 
Q 3256 353 3325 363 
Q 3397 369 3419 372 
L 3338 -44 
Q 3222 -84 3103 -103 
Q 2981 -122 2866 -122 
Q 2491 -122 2388 81 
Q 2284 288 2391 838 
L 2797 2925 
L 1506 2925 
L 938 0 
L 350 0 
L 919 2925 
L 472 2925 
L 584 3500 
z
" transform="scale(0.015625)"/>
       <path id="DejaVuSans-2f" d="M 1625 4666 
L 2156 4666 
L 531 -594 
L 0 -594 
L 1625 4666 
z
" transform="scale(0.015625)"/>
      </defs>
      <use xlink:href="#DejaVuSans-30" transform="translate(0 0.78125)"/>
      <use xlink:href="#DejaVuSans-2e" transform="translate(63.623047 0.78125)"/>
      <use xlink:href="#DejaVuSans-34" transform="translate(95.410156 0.78125)"/>
      <use xlink:href="#DejaVuSans-36" transform="translate(159.033203 0.78125)"/>
      <use xlink:href="#DejaVuSans-38" transform="translate(222.65625 0.78125)"/>
      <use xlink:href="#DejaVuSans-2c" transform="translate(286.279297 0.78125)"/>
      <use xlink:href="#DejaVuSans-20" transform="translate(318.066406 0.78125)"/>
      <use xlink:href="#DejaVuSans-30" transform="translate(349.853516 0.78125)"/>
      <use xlink:href="#DejaVuSans-2c" transform="translate(413.476562 0.78125)"/>
      <use xlink:href="#DejaVuSans-20" transform="translate(445.263672 0.78125)"/>
      <use xlink:href="#DejaVuSans-2212" transform="translate(477.050781 0.78125)"/>
      <use xlink:href="#DejaVuSans-Oblique-3c0" transform="translate(560.839844 0.78125)"/>
      <use xlink:href="#DejaVuSans-2f" transform="translate(621.044922 0.78125)"/>
      <use xlink:href="#DejaVuSans-32" transform="translate(651.111328 0.78125)"/>
     </g>
    </g>
   </g>
   <g id="text_9">
    <g clip-path="url(#p1aebd4802e)">
     <!-- $\mathrm{U_3}$ -->
     <g style="fill: #ffffff" transform="translate(104.887356 50.94931) scale(0.13 -0.13)">
      <defs>
       <path id="DejaVuSans-55" d="M 556 4666 
L 1191 4666 
L 1191 1831 
Q 1191 1081 1462 751 
Q 1734 422 2344 422 
Q 2950 422 3222 751 
Q 3494 1081 3494 1831 
L 3494 4666 
L 4128 4666 
L 4128 1753 
Q 4128 841 3676 375 
Q 3225 -91 2344 -91 
Q 1459 -91 1007 375 
Q 556 841 556 1753 
L 556 4666 
z
" transform="scale(0.015625)"/>
      </defs>
      <use xlink:href="#DejaVuSans-55" transform="translate(0 0.09375)"/>
      <use xlink:href="#DejaVuSans-33" transform="translate(74.150391 -16.3125) scale(0.7)"/>
     </g>
    </g>
   </g>
   <g id="text_10">
    <g clip-path="url(#p1aebd4802e)">
     <!-- 2.19, $-$$\pi$/2, $-$$\pi$/2 -->
     <g style="fill: #ffffff" transform="translate(79.777356 109.482166) scale(0.08 -0.08)">
      <defs>
       <path id="DejaVuSans-39" d="M 703 97 
L 703 672 
Q 941 559 1184 500 
Q 1428 441 1663 441 
Q 2288 441 2617 861 
Q 2947 1281 2994 2138 
Q 2813 1869 2534 1725 
Q 2256 1581 1919 1581 
Q 1219 1581 811 2004 
Q 403 2428 403 3163 
Q 403 3881 828 4315 
Q 1253 4750 1959 4750 
Q 2769 4750 3195 4129 
Q 3622 3509 3622 2328 
Q 3622 1225 3098 567 
Q 2575 -91 1691 -91 
Q 1453 -91 1209 -44 
Q 966 3 703 97 
z
M 1959 2075 
Q 2384 2075 2632 2365 
Q 2881 2656 2881 3163 
Q 2881 3666 2632 3958 
Q 2384 4250 1959 4250 
Q 1534 4250 1286 3958 
Q 1038 3666 1038 3163 
Q 1038 2656 1286 2365 
Q 1534 2075 1959 2075 
z
" transform="scale(0.015625)"/>
      </defs>
      <use xlink:href="#DejaVuSans-32" transform="translate(0 0.78125)"/>
      <use xlink:href="#DejaVuSans-2e" transform="translate(63.623047 0.78125)"/>
      <use xlink:href="#DejaVuSans-31" transform="translate(95.410156 0.78125)"/>
      <use xlink:href="#DejaVuSans-39" transform="translate(159.033203 0.78125)"/>
      <use xlink:href="#DejaVuSans-2c" transform="translate(222.65625 0.78125)"/>
      <use xlink:href="#DejaVuSans-20" transform="translate(254.443359 0.78125)"/>
      <use xlink:href="#DejaVuSans-2212" transform="translate(286.230469 0.78125)"/>
      <use xlink:href="#DejaVuSans-Oblique-3c0" transform="translate(370.019531 0.78125)"/>
      <use xlink:href="#DejaVuSans-2f" transform="translate(430.224609 0.78125)"/>
      <use xlink:href="#DejaVuSans-32" transform="translate(460.291016 0.78125)"/>
      <use xlink:href="#DejaVuSans-2c" transform="translate(523.914062 0.78125)"/>
      <use xlink:href="#DejaVuSans-20" transform="translate(555.701172 0.78125)"/>
      <use xlink:href="#DejaVuSans-2212" transform="translate(587.488281 0.78125)"/>
      <use xlink:href="#DejaVuSans-Oblique-3c0" transform="translate(671.277344 0.78125)"/>
      <use xlink:href="#DejaVuSans-2f" transform="translate(731.482422 0.78125)"/>
      <use xlink:href="#DejaVuSans-32" transform="translate(761.548828 0.78125)"/>
     </g>
    </g>
   </g>
   <g id="text_11">
    <g clip-path="url(#p1aebd4802e)">
     <!-- $\mathrm{U_3}$ -->
     <g style="fill: #ffffff" transform="translate(104.887356 97.303309) scale(0.13 -0.13)">
      <use xlink:href="#DejaVuSans-55" transform="translate(0 0.09375)"/>
      <use xlink:href="#DejaVuSans-33" transform="translate(74.150391 -16.3125) scale(0.7)"/>
     </g>
    </g>
   </g>
   <g id="text_12">
    <g clip-path="url(#p1aebd4802e)">
     <!-- $\pi$/2, $-$0.307, $-$$\pi$ -->
     <g style="fill: #ffffff" transform="translate(80.977356 155.836166) scale(0.08 -0.08)">
      <use xlink:href="#DejaVuSans-Oblique-3c0" transform="translate(0 0.78125)"/>
      <use xlink:href="#DejaVuSans-2f" transform="translate(60.205078 0.78125)"/>
      <use xlink:href="#DejaVuSans-32" transform="translate(90.271484 0.78125)"/>
      <use xlink:href="#DejaVuSans-2c" transform="translate(153.894531 0.78125)"/>
      <use xlink:href="#DejaVuSans-20" transform="translate(185.681641 0.78125)"/>
      <use xlink:href="#DejaVuSans-2212" transform="translate(217.46875 0.78125)"/>
      <use xlink:href="#DejaVuSans-30" transform="translate(301.257812 0.78125)"/>
      <use xlink:href="#DejaVuSans-2e" transform="translate(364.880859 0.78125)"/>
      <use xlink:href="#DejaVuSans-33" transform="translate(396.667969 0.78125)"/>
      <use xlink:href="#DejaVuSans-30" transform="translate(460.291016 0.78125)"/>
      <use xlink:href="#DejaVuSans-37" transform="translate(523.914062 0.78125)"/>
      <use xlink:href="#DejaVuSans-2c" transform="translate(587.537109 0.78125)"/>
      <use xlink:href="#DejaVuSans-20" transform="translate(619.324219 0.78125)"/>
      <use xlink:href="#DejaVuSans-2212" transform="translate(651.111328 0.78125)"/>
      <use xlink:href="#DejaVuSans-Oblique-3c0" transform="translate(734.900391 0.78125)"/>
     </g>
    </g>
   </g>
   <g id="text_13">
    <g clip-path="url(#p1aebd4802e)">
     <!-- $\mathrm{U_3}$ -->
     <g style="fill: #ffffff" transform="translate(104.887356 143.657308) scale(0.13 -0.13)">
      <use xlink:href="#DejaVuSans-55" transform="translate(0 0.09375)"/>
      <use xlink:href="#DejaVuSans-33" transform="translate(74.150391 -16.3125) scale(0.7)"/>
     </g>
    </g>
   </g>
   <g id="text_14">
    <g clip-path="url(#p1aebd4802e)">
     <!-- $\pi$/2, 0.356, $-$$\pi$/2 -->
     <g style="fill: #ffffff" transform="translate(219.639354 63.128167) scale(0.08 -0.08)">
      <defs>
       <path id="DejaVuSans-35" d="M 691 4666 
L 3169 4666 
L 3169 4134 
L 1269 4134 
L 1269 2991 
Q 1406 3038 1543 3061 
Q 1681 3084 1819 3084 
Q 2600 3084 3056 2656 
Q 3513 2228 3513 1497 
Q 3513 744 3044 326 
Q 2575 -91 1722 -91 
Q 1428 -91 1123 -41 
Q 819 9 494 109 
L 494 744 
Q 775 591 1075 516 
Q 1375 441 1709 441 
Q 2250 441 2565 725 
Q 2881 1009 2881 1497 
Q 2881 1984 2565 2268 
Q 2250 2553 1709 2553 
Q 1456 2553 1204 2497 
Q 953 2441 691 2322 
L 691 4666 
z
" transform="scale(0.015625)"/>
      </defs>
      <use xlink:href="#DejaVuSans-Oblique-3c0" transform="translate(0 0.78125)"/>
      <use xlink:href="#DejaVuSans-2f" transform="translate(60.205078 0.78125)"/>
      <use xlink:href="#DejaVuSans-32" transform="translate(90.271484 0.78125)"/>
      <use xlink:href="#DejaVuSans-2c" transform="translate(153.894531 0.78125)"/>
      <use xlink:href="#DejaVuSans-20" transform="translate(185.681641 0.78125)"/>
      <use xlink:href="#DejaVuSans-30" transform="translate(217.46875 0.78125)"/>
      <use xlink:href="#DejaVuSans-2e" transform="translate(281.091797 0.78125)"/>
      <use xlink:href="#DejaVuSans-33" transform="translate(312.878906 0.78125)"/>
      <use xlink:href="#DejaVuSans-35" transform="translate(376.501953 0.78125)"/>
      <use xlink:href="#DejaVuSans-36" transform="translate(440.125 0.78125)"/>
      <use xlink:href="#DejaVuSans-2c" transform="translate(503.748047 0.78125)"/>
      <use xlink:href="#DejaVuSans-20" transform="translate(535.535156 0.78125)"/>
      <use xlink:href="#DejaVuSans-2212" transform="translate(567.322266 0.78125)"/>
      <use xlink:href="#DejaVuSans-Oblique-3c0" transform="translate(651.111328 0.78125)"/>
      <use xlink:href="#DejaVuSans-2f" transform="translate(711.316406 0.78125)"/>
      <use xlink:href="#DejaVuSans-32" transform="translate(741.382812 0.78125)"/>
     </g>
    </g>
   </g>
   <g id="text_15">
    <g clip-path="url(#p1aebd4802e)">
     <!-- $\mathrm{U_3}$ -->
     <g style="fill: #ffffff" transform="translate(243.949354 50.94931) scale(0.13 -0.13)">
      <use xlink:href="#DejaVuSans-55" transform="translate(0 0.09375)"/>
      <use xlink:href="#DejaVuSans-33" transform="translate(74.150391 -16.3125) scale(0.7)"/>
     </g>
    </g>
   </g>
   <g id="text_16">
    <g clip-path="url(#p1aebd4802e)">
     <!-- $\pi$/2, 0.13, $-$$\pi$ -->
     <g style="fill: #ffffff" transform="translate(225.959354 109.482166) scale(0.08 -0.08)">
      <use xlink:href="#DejaVuSans-Oblique-3c0" transform="translate(0 0.78125)"/>
      <use xlink:href="#DejaVuSans-2f" transform="translate(60.205078 0.78125)"/>
      <use xlink:href="#DejaVuSans-32" transform="translate(90.271484 0.78125)"/>
      <use xlink:href="#DejaVuSans-2c" transform="translate(153.894531 0.78125)"/>
      <use xlink:href="#DejaVuSans-20" transform="translate(185.681641 0.78125)"/>
      <use xlink:href="#DejaVuSans-30" transform="translate(217.46875 0.78125)"/>
      <use xlink:href="#DejaVuSans-2e" transform="translate(281.091797 0.78125)"/>
      <use xlink:href="#DejaVuSans-31" transform="translate(312.878906 0.78125)"/>
      <use xlink:href="#DejaVuSans-33" transform="translate(376.501953 0.78125)"/>
      <use xlink:href="#DejaVuSans-2c" transform="translate(440.125 0.78125)"/>
      <use xlink:href="#DejaVuSans-20" transform="translate(471.912109 0.78125)"/>
      <use xlink:href="#DejaVuSans-2212" transform="translate(503.699219 0.78125)"/>
      <use xlink:href="#DejaVuSans-Oblique-3c0" transform="translate(587.488281 0.78125)"/>
     </g>
    </g>
   </g>
   <g id="text_17">
    <g clip-path="url(#p1aebd4802e)">
     <!-- $\mathrm{U_3}$ -->
     <g style="fill: #ffffff" transform="translate(243.949354 97.303309) scale(0.13 -0.13)">
      <use xlink:href="#DejaVuSans-55" transform="translate(0 0.09375)"/>
      <use xlink:href="#DejaVuSans-33" transform="translate(74.150391 -16.3125) scale(0.7)"/>
     </g>
    </g>
   </g>
   <g id="text_18">
    <g clip-path="url(#p1aebd4802e)">
     <!-- 0, 0, $-$0.356 -->
     <g style="fill: #ffffff" transform="translate(365.941352 155.836166) scale(0.08 -0.08)">
      <use xlink:href="#DejaVuSans-30" transform="translate(0 0.78125)"/>
      <use xlink:href="#DejaVuSans-2c" transform="translate(63.623047 0.78125)"/>
      <use xlink:href="#DejaVuSans-20" transform="translate(95.410156 0.78125)"/>
      <use xlink:href="#DejaVuSans-30" transform="translate(127.197266 0.78125)"/>
      <use xlink:href="#DejaVuSans-2c" transform="translate(190.820312 0.78125)"/>
      <use xlink:href="#DejaVuSans-20" transform="translate(222.607422 0.78125)"/>
      <use xlink:href="#DejaVuSans-2212" transform="translate(254.394531 0.78125)"/>
      <use xlink:href="#DejaVuSans-30" transform="translate(338.183594 0.78125)"/>
      <use xlink:href="#DejaVuSans-2e" transform="translate(401.806641 0.78125)"/>
      <use xlink:href="#DejaVuSans-33" transform="translate(433.59375 0.78125)"/>
      <use xlink:href="#DejaVuSans-35" transform="translate(497.216797 0.78125)"/>
      <use xlink:href="#DejaVuSans-36" transform="translate(560.839844 0.78125)"/>
     </g>
    </g>
   </g>
   <g id="text_19">
    <g clip-path="url(#p1aebd4802e)">
     <!-- $\mathrm{U_3}$ -->
     <g style="fill: #ffffff" transform="translate(383.011352 143.657308) scale(0.13 -0.13)">
      <use xlink:href="#DejaVuSans-55" transform="translate(0 0.09375)"/>
      <use xlink:href="#DejaVuSans-33" transform="translate(74.150391 -16.3125) scale(0.7)"/>
     </g>
    </g>
   </g>
   <g id="text_20">
    <g clip-path="url(#p1aebd4802e)">
     <!-- 0, 0, 0.468 -->
     <g style="fill: #ffffff" transform="translate(508.3771 155.836166) scale(0.08 -0.08)">
      <use xlink:href="#DejaVuSans-30"/>
      <use xlink:href="#DejaVuSans-2c" x="63.623047"/>
      <use xlink:href="#DejaVuSans-20" x="95.410156"/>
      <use xlink:href="#DejaVuSans-30" x="127.197266"/>
      <use xlink:href="#DejaVuSans-2c" x="190.820312"/>
      <use xlink:href="#DejaVuSans-20" x="222.607422"/>
      <use xlink:href="#DejaVuSans-30" x="254.394531"/>
      <use xlink:href="#DejaVuSans-2e" x="318.017578"/>
      <use xlink:href="#DejaVuSans-34" x="349.804688"/>
      <use xlink:href="#DejaVuSans-36" x="413.427734"/>
      <use xlink:href="#DejaVuSans-38" x="477.050781"/>
     </g>
    </g>
   </g>
   <g id="text_21">
    <g clip-path="url(#p1aebd4802e)">
     <!-- $\mathrm{U_3}$ -->
     <g style="fill: #ffffff" transform="translate(522.07335 143.657308) scale(0.13 -0.13)">
      <use xlink:href="#DejaVuSans-55" transform="translate(0 0.09375)"/>
      <use xlink:href="#DejaVuSans-33" transform="translate(74.150391 -16.3125) scale(0.7)"/>
     </g>
    </g>
   </g>
   <g id="text_22">
    <g clip-path="url(#p1aebd4802e)">
     <!-- 0, 0, $-$2.32 -->
     <g style="fill: #ffffff" transform="translate(646.625348 155.836166) scale(0.08 -0.08)">
      <use xlink:href="#DejaVuSans-30" transform="translate(0 0.78125)"/>
      <use xlink:href="#DejaVuSans-2c" transform="translate(63.623047 0.78125)"/>
      <use xlink:href="#DejaVuSans-20" transform="translate(95.410156 0.78125)"/>
      <use xlink:href="#DejaVuSans-30" transform="translate(127.197266 0.78125)"/>
      <use xlink:href="#DejaVuSans-2c" transform="translate(190.820312 0.78125)"/>
      <use xlink:href="#DejaVuSans-20" transform="translate(222.607422 0.78125)"/>
      <use xlink:href="#DejaVuSans-2212" transform="translate(254.394531 0.78125)"/>
      <use xlink:href="#DejaVuSans-32" transform="translate(338.183594 0.78125)"/>
      <use xlink:href="#DejaVuSans-2e" transform="translate(401.806641 0.78125)"/>
      <use xlink:href="#DejaVuSans-33" transform="translate(433.59375 0.78125)"/>
      <use xlink:href="#DejaVuSans-32" transform="translate(497.216797 0.78125)"/>
     </g>
    </g>
   </g>
   <g id="text_23">
    <g clip-path="url(#p1aebd4802e)">
     <!-- $\mathrm{U_3}$ -->
     <g style="fill: #ffffff" transform="translate(661.135348 143.657308) scale(0.13 -0.13)">
      <use xlink:href="#DejaVuSans-55" transform="translate(0 0.09375)"/>
      <use xlink:href="#DejaVuSans-33" transform="translate(74.150391 -16.3125) scale(0.7)"/>
     </g>
    </g>
   </g>
   <g id="text_24">
    <g clip-path="url(#p1aebd4802e)">
     <!-- 0.519, 0, $-$$\pi$ -->
     <g style="fill: #ffffff" transform="translate(783.247347 155.836166) scale(0.08 -0.08)">
      <use xlink:href="#DejaVuSans-30" transform="translate(0 0.78125)"/>
      <use xlink:href="#DejaVuSans-2e" transform="translate(63.623047 0.78125)"/>
      <use xlink:href="#DejaVuSans-35" transform="translate(95.410156 0.78125)"/>
      <use xlink:href="#DejaVuSans-31" transform="translate(159.033203 0.78125)"/>
      <use xlink:href="#DejaVuSans-39" transform="translate(222.65625 0.78125)"/>
      <use xlink:href="#DejaVuSans-2c" transform="translate(286.279297 0.78125)"/>
      <use xlink:href="#DejaVuSans-20" transform="translate(318.066406 0.78125)"/>
      <use xlink:href="#DejaVuSans-30" transform="translate(349.853516 0.78125)"/>
      <use xlink:href="#DejaVuSans-2c" transform="translate(413.476562 0.78125)"/>
      <use xlink:href="#DejaVuSans-20" transform="translate(445.263672 0.78125)"/>
      <use xlink:href="#DejaVuSans-2212" transform="translate(477.050781 0.78125)"/>
      <use xlink:href="#DejaVuSans-Oblique-3c0" transform="translate(560.839844 0.78125)"/>
     </g>
    </g>
   </g>
   <g id="text_25">
    <g clip-path="url(#p1aebd4802e)">
     <!-- $\mathrm{U_3}$ -->
     <g style="fill: #ffffff" transform="translate(800.197347 143.657308) scale(0.13 -0.13)">
      <use xlink:href="#DejaVuSans-55" transform="translate(0 0.09375)"/>
      <use xlink:href="#DejaVuSans-33" transform="translate(74.150391 -16.3125) scale(0.7)"/>
     </g>
    </g>
   </g>
   <g id="text_26">
    <g clip-path="url(#p1aebd4802e)">
     <!-- 0.33, 0, 0 -->
     <g style="fill: #ffffff" transform="translate(904.931095 155.836166) scale(0.08 -0.08)">
      <use xlink:href="#DejaVuSans-30"/>
      <use xlink:href="#DejaVuSans-2e" x="63.623047"/>
      <use xlink:href="#DejaVuSans-33" x="95.410156"/>
      <use xlink:href="#DejaVuSans-33" x="159.033203"/>
      <use xlink:href="#DejaVuSans-2c" x="222.65625"/>
      <use xlink:href="#DejaVuSans-20" x="254.443359"/>
      <use xlink:href="#DejaVuSans-30" x="286.230469"/>
      <use xlink:href="#DejaVuSans-2c" x="349.853516"/>
      <use xlink:href="#DejaVuSans-20" x="381.640625"/>
      <use xlink:href="#DejaVuSans-30" x="413.427734"/>
     </g>
    </g>
   </g>
   <g id="text_27">
    <g clip-path="url(#p1aebd4802e)">
     <!-- $\mathrm{U_3}$ -->
     <g style="fill: #ffffff" transform="translate(916.082345 143.657308) scale(0.13 -0.13)">
      <use xlink:href="#DejaVuSans-55" transform="translate(0 0.09375)"/>
      <use xlink:href="#DejaVuSans-33" transform="translate(74.150391 -16.3125) scale(0.7)"/>
     </g>
    </g>
   </g>
   <g id="text_28">
    <g clip-path="url(#p1aebd4802e)">
     <!-- $\pi$/2, 0, $-$0.954 -->
     <g style="fill: #ffffff" transform="translate(1011.297344 109.482166) scale(0.08 -0.08)">
      <use xlink:href="#DejaVuSans-Oblique-3c0" transform="translate(0 0.78125)"/>
      <use xlink:href="#DejaVuSans-2f" transform="translate(60.205078 0.78125)"/>
      <use xlink:href="#DejaVuSans-32" transform="translate(90.271484 0.78125)"/>
      <use xlink:href="#DejaVuSans-2c" transform="translate(153.894531 0.78125)"/>
      <use xlink:href="#DejaVuSans-20" transform="translate(185.681641 0.78125)"/>
      <use xlink:href="#DejaVuSans-30" transform="translate(217.46875 0.78125)"/>
      <use xlink:href="#DejaVuSans-2c" transform="translate(281.091797 0.78125)"/>
      <use xlink:href="#DejaVuSans-20" transform="translate(312.878906 0.78125)"/>
      <use xlink:href="#DejaVuSans-2212" transform="translate(344.666016 0.78125)"/>
      <use xlink:href="#DejaVuSans-30" transform="translate(428.455078 0.78125)"/>
      <use xlink:href="#DejaVuSans-2e" transform="translate(492.078125 0.78125)"/>
      <use xlink:href="#DejaVuSans-39" transform="translate(523.865234 0.78125)"/>
      <use xlink:href="#DejaVuSans-35" transform="translate(587.488281 0.78125)"/>
      <use xlink:href="#DejaVuSans-34" transform="translate(651.111328 0.78125)"/>
     </g>
    </g>
   </g>
   <g id="text_29">
    <g clip-path="url(#p1aebd4802e)">
     <!-- $\mathrm{U_3}$ -->
     <g style="fill: #ffffff" transform="translate(1031.967344 97.303309) scale(0.13 -0.13)">
      <use xlink:href="#DejaVuSans-55" transform="translate(0 0.09375)"/>
      <use xlink:href="#DejaVuSans-33" transform="translate(74.150391 -16.3125) scale(0.7)"/>
     </g>
    </g>
   </g>
   <g id="text_30">
    <g clip-path="url(#p1aebd4802e)">
     <!-- 0.0641, $-$$\pi$, $-$$\pi$ -->
     <g style="fill: #ffffff" transform="translate(1009.257344 155.836166) scale(0.08 -0.08)">
      <use xlink:href="#DejaVuSans-30" transform="translate(0 0.78125)"/>
      <use xlink:href="#DejaVuSans-2e" transform="translate(63.623047 0.78125)"/>
      <use xlink:href="#DejaVuSans-30" transform="translate(95.410156 0.78125)"/>
      <use xlink:href="#DejaVuSans-36" transform="translate(159.033203 0.78125)"/>
      <use xlink:href="#DejaVuSans-34" transform="translate(222.65625 0.78125)"/>
      <use xlink:href="#DejaVuSans-31" transform="translate(286.279297 0.78125)"/>
      <use xlink:href="#DejaVuSans-2c" transform="translate(349.902344 0.78125)"/>
      <use xlink:href="#DejaVuSans-20" transform="translate(381.689453 0.78125)"/>
      <use xlink:href="#DejaVuSans-2212" transform="translate(413.476562 0.78125)"/>
      <use xlink:href="#DejaVuSans-Oblique-3c0" transform="translate(497.265625 0.78125)"/>
      <use xlink:href="#DejaVuSans-2c" transform="translate(557.470703 0.78125)"/>
      <use xlink:href="#DejaVuSans-20" transform="translate(589.257812 0.78125)"/>
      <use xlink:href="#DejaVuSans-2212" transform="translate(621.044922 0.78125)"/>
      <use xlink:href="#DejaVuSans-Oblique-3c0" transform="translate(704.833984 0.78125)"/>
     </g>
    </g>
   </g>
   <g id="text_31">
    <g clip-path="url(#p1aebd4802e)">
     <!-- $\mathrm{U_3}$ -->
     <g style="fill: #ffffff" transform="translate(1031.967344 143.657308) scale(0.13 -0.13)">
      <use xlink:href="#DejaVuSans-55" transform="translate(0 0.09375)"/>
      <use xlink:href="#DejaVuSans-33" transform="translate(74.150391 -16.3125) scale(0.7)"/>
     </g>
    </g>
   </g>
   <g id="text_32">
    <g clip-path="url(#p1aebd4802e)">
     <!-- $\pi$/2, $\pi$/2, $-$0.356 -->
     <g style="fill: #ffffff" transform="translate(1146.719342 63.128167) scale(0.08 -0.08)">
      <use xlink:href="#DejaVuSans-Oblique-3c0" transform="translate(0 0.78125)"/>
      <use xlink:href="#DejaVuSans-2f" transform="translate(60.205078 0.78125)"/>
      <use xlink:href="#DejaVuSans-32" transform="translate(90.271484 0.78125)"/>
      <use xlink:href="#DejaVuSans-2c" transform="translate(153.894531 0.78125)"/>
      <use xlink:href="#DejaVuSans-20" transform="translate(185.681641 0.78125)"/>
      <use xlink:href="#DejaVuSans-Oblique-3c0" transform="translate(217.46875 0.78125)"/>
      <use xlink:href="#DejaVuSans-2f" transform="translate(277.673828 0.78125)"/>
      <use xlink:href="#DejaVuSans-32" transform="translate(307.740234 0.78125)"/>
      <use xlink:href="#DejaVuSans-2c" transform="translate(371.363281 0.78125)"/>
      <use xlink:href="#DejaVuSans-20" transform="translate(403.150391 0.78125)"/>
      <use xlink:href="#DejaVuSans-2212" transform="translate(434.9375 0.78125)"/>
      <use xlink:href="#DejaVuSans-30" transform="translate(518.726562 0.78125)"/>
      <use xlink:href="#DejaVuSans-2e" transform="translate(582.349609 0.78125)"/>
      <use xlink:href="#DejaVuSans-33" transform="translate(614.136719 0.78125)"/>
      <use xlink:href="#DejaVuSans-35" transform="translate(677.759766 0.78125)"/>
      <use xlink:href="#DejaVuSans-36" transform="translate(741.382812 0.78125)"/>
     </g>
    </g>
   </g>
   <g id="text_33">
    <g clip-path="url(#p1aebd4802e)">
     <!-- $\mathrm{U_3}$ -->
     <g style="fill: #ffffff" transform="translate(1171.029342 50.94931) scale(0.13 -0.13)">
      <use xlink:href="#DejaVuSans-55" transform="translate(0 0.09375)"/>
      <use xlink:href="#DejaVuSans-33" transform="translate(74.150391 -16.3125) scale(0.7)"/>
     </g>
    </g>
   </g>
   <g id="text_34">
    <g clip-path="url(#p1aebd4802e)">
     <!-- 1.22, 1.26, $-$$\pi$ -->
     <g style="fill: #ffffff" transform="translate(1150.719342 155.836166) scale(0.08 -0.08)">
      <use xlink:href="#DejaVuSans-31" transform="translate(0 0.78125)"/>
      <use xlink:href="#DejaVuSans-2e" transform="translate(63.623047 0.78125)"/>
      <use xlink:href="#DejaVuSans-32" transform="translate(89.910156 0.78125)"/>
      <use xlink:href="#DejaVuSans-32" transform="translate(153.533203 0.78125)"/>
      <use xlink:href="#DejaVuSans-2c" transform="translate(217.15625 0.78125)"/>
      <use xlink:href="#DejaVuSans-20" transform="translate(248.943359 0.78125)"/>
      <use xlink:href="#DejaVuSans-31" transform="translate(280.730469 0.78125)"/>
      <use xlink:href="#DejaVuSans-2e" transform="translate(344.353516 0.78125)"/>
      <use xlink:href="#DejaVuSans-32" transform="translate(370.640625 0.78125)"/>
      <use xlink:href="#DejaVuSans-36" transform="translate(434.263672 0.78125)"/>
      <use xlink:href="#DejaVuSans-2c" transform="translate(497.886719 0.78125)"/>
      <use xlink:href="#DejaVuSans-20" transform="translate(529.673828 0.78125)"/>
      <use xlink:href="#DejaVuSans-2212" transform="translate(561.460938 0.78125)"/>
      <use xlink:href="#DejaVuSans-Oblique-3c0" transform="translate(645.25 0.78125)"/>
     </g>
    </g>
   </g>
   <g id="text_35">
    <g clip-path="url(#p1aebd4802e)">
     <!-- $\mathrm{U_3}$ -->
     <g style="fill: #ffffff" transform="translate(1171.029342 143.657308) scale(0.13 -0.13)">
      <use xlink:href="#DejaVuSans-55" transform="translate(0 0.09375)"/>
      <use xlink:href="#DejaVuSans-33" transform="translate(74.150391 -16.3125) scale(0.7)"/>
     </g>
    </g>
   </g>
   <g id="text_36">
    <g clip-path="url(#p1aebd4802e)">
     <!-- $\pi$/2, 0.468, $\pi$/2 -->
     <g style="fill: #ffffff" transform="translate(130.291355 248.544164) scale(0.08 -0.08)">
      <use xlink:href="#DejaVuSans-Oblique-3c0" transform="translate(0 0.78125)"/>
      <use xlink:href="#DejaVuSans-2f" transform="translate(60.205078 0.78125)"/>
      <use xlink:href="#DejaVuSans-32" transform="translate(90.271484 0.78125)"/>
      <use xlink:href="#DejaVuSans-2c" transform="translate(153.894531 0.78125)"/>
      <use xlink:href="#DejaVuSans-20" transform="translate(185.681641 0.78125)"/>
      <use xlink:href="#DejaVuSans-30" transform="translate(217.46875 0.78125)"/>
      <use xlink:href="#DejaVuSans-2e" transform="translate(281.091797 0.78125)"/>
      <use xlink:href="#DejaVuSans-34" transform="translate(312.878906 0.78125)"/>
      <use xlink:href="#DejaVuSans-36" transform="translate(376.501953 0.78125)"/>
      <use xlink:href="#DejaVuSans-38" transform="translate(440.125 0.78125)"/>
      <use xlink:href="#DejaVuSans-2c" transform="translate(503.748047 0.78125)"/>
      <use xlink:href="#DejaVuSans-20" transform="translate(535.535156 0.78125)"/>
      <use xlink:href="#DejaVuSans-Oblique-3c0" transform="translate(567.322266 0.78125)"/>
      <use xlink:href="#DejaVuSans-2f" transform="translate(627.527344 0.78125)"/>
      <use xlink:href="#DejaVuSans-32" transform="translate(657.59375 0.78125)"/>
     </g>
    </g>
   </g>
   <g id="text_37">
    <g clip-path="url(#p1aebd4802e)">
     <!-- $\mathrm{U_3}$ -->
     <g style="fill: #ffffff" transform="translate(151.241355 236.365307) scale(0.13 -0.13)">
      <use xlink:href="#DejaVuSans-55" transform="translate(0 0.09375)"/>
      <use xlink:href="#DejaVuSans-33" transform="translate(74.150391 -16.3125) scale(0.7)"/>
     </g>
    </g>
   </g>
   <g id="text_38">
    <g clip-path="url(#p1aebd4802e)">
     <!-- $\pi$/2, 2.93, 0 -->
     <g style="fill: #ffffff" transform="translate(136.451355 294.898164) scale(0.08 -0.08)">
      <use xlink:href="#DejaVuSans-Oblique-3c0" transform="translate(0 0.78125)"/>
      <use xlink:href="#DejaVuSans-2f" transform="translate(60.205078 0.78125)"/>
      <use xlink:href="#DejaVuSans-32" transform="translate(90.271484 0.78125)"/>
      <use xlink:href="#DejaVuSans-2c" transform="translate(153.894531 0.78125)"/>
      <use xlink:href="#DejaVuSans-20" transform="translate(185.681641 0.78125)"/>
      <use xlink:href="#DejaVuSans-32" transform="translate(217.46875 0.78125)"/>
      <use xlink:href="#DejaVuSans-2e" transform="translate(281.091797 0.78125)"/>
      <use xlink:href="#DejaVuSans-39" transform="translate(312.878906 0.78125)"/>
      <use xlink:href="#DejaVuSans-33" transform="translate(376.501953 0.78125)"/>
      <use xlink:href="#DejaVuSans-2c" transform="translate(440.125 0.78125)"/>
      <use xlink:href="#DejaVuSans-20" transform="translate(471.912109 0.78125)"/>
      <use xlink:href="#DejaVuSans-30" transform="translate(503.699219 0.78125)"/>
     </g>
    </g>
   </g>
   <g id="text_39">
    <g clip-path="url(#p1aebd4802e)">
     <!-- $\mathrm{U_3}$ -->
     <g style="fill: #ffffff" transform="translate(151.241355 282.719306) scale(0.13 -0.13)">
      <use xlink:href="#DejaVuSans-55" transform="translate(0 0.09375)"/>
      <use xlink:href="#DejaVuSans-33" transform="translate(74.150391 -16.3125) scale(0.7)"/>
     </g>
    </g>
   </g>
   <g id="text_40">
    <g clip-path="url(#p1aebd4802e)">
     <!-- 0, 0, $-$1.1 -->
     <g style="fill: #ffffff" transform="translate(255.136354 341.252163) scale(0.08 -0.08)">
      <use xlink:href="#DejaVuSans-30" transform="translate(0 0.78125)"/>
      <use xlink:href="#DejaVuSans-2c" transform="translate(63.623047 0.78125)"/>
      <use xlink:href="#DejaVuSans-20" transform="translate(95.410156 0.78125)"/>
      <use xlink:href="#DejaVuSans-30" transform="translate(127.197266 0.78125)"/>
      <use xlink:href="#DejaVuSans-2c" transform="translate(190.820312 0.78125)"/>
      <use xlink:href="#DejaVuSans-20" transform="translate(222.607422 0.78125)"/>
      <use xlink:href="#DejaVuSans-2212" transform="translate(254.394531 0.78125)"/>
      <use xlink:href="#DejaVuSans-31" transform="translate(338.183594 0.78125)"/>
      <use xlink:href="#DejaVuSans-2e" transform="translate(401.806641 0.78125)"/>
      <use xlink:href="#DejaVuSans-31" transform="translate(433.59375 0.78125)"/>
     </g>
    </g>
   </g>
   <g id="text_41">
    <g clip-path="url(#p1aebd4802e)">
     <!-- $\mathrm{U_3}$ -->
     <g style="fill: #ffffff" transform="translate(267.126354 329.073306) scale(0.13 -0.13)">
      <use xlink:href="#DejaVuSans-55" transform="translate(0 0.09375)"/>
      <use xlink:href="#DejaVuSans-33" transform="translate(74.150391 -16.3125) scale(0.7)"/>
     </g>
    </g>
   </g>
   <g id="text_42">
    <g clip-path="url(#p1aebd4802e)">
     <!-- 0, 0, $-$1.21 -->
     <g style="fill: #ffffff" transform="translate(368.701352 341.252163) scale(0.08 -0.08)">
      <use xlink:href="#DejaVuSans-30" transform="translate(0 0.78125)"/>
      <use xlink:href="#DejaVuSans-2c" transform="translate(63.623047 0.78125)"/>
      <use xlink:href="#DejaVuSans-20" transform="translate(95.410156 0.78125)"/>
      <use xlink:href="#DejaVuSans-30" transform="translate(127.197266 0.78125)"/>
      <use xlink:href="#DejaVuSans-2c" transform="translate(190.820312 0.78125)"/>
      <use xlink:href="#DejaVuSans-20" transform="translate(222.607422 0.78125)"/>
      <use xlink:href="#DejaVuSans-2212" transform="translate(254.394531 0.78125)"/>
      <use xlink:href="#DejaVuSans-31" transform="translate(338.183594 0.78125)"/>
      <use xlink:href="#DejaVuSans-2e" transform="translate(401.806641 0.78125)"/>
      <use xlink:href="#DejaVuSans-32" transform="translate(428.09375 0.78125)"/>
      <use xlink:href="#DejaVuSans-31" transform="translate(491.716797 0.78125)"/>
     </g>
    </g>
   </g>
   <g id="text_43">
    <g clip-path="url(#p1aebd4802e)">
     <!-- $\mathrm{U_3}$ -->
     <g style="fill: #ffffff" transform="translate(383.011352 329.073306) scale(0.13 -0.13)">
      <use xlink:href="#DejaVuSans-55" transform="translate(0 0.09375)"/>
      <use xlink:href="#DejaVuSans-33" transform="translate(74.150391 -16.3125) scale(0.7)"/>
     </g>
    </g>
   </g>
   <g id="text_44">
    <g clip-path="url(#p1aebd4802e)">
     <!-- 0, 0, $-$0.824 -->
     <g style="fill: #ffffff" transform="translate(505.12335 341.252163) scale(0.08 -0.08)">
      <use xlink:href="#DejaVuSans-30" transform="translate(0 0.78125)"/>
      <use xlink:href="#DejaVuSans-2c" transform="translate(63.623047 0.78125)"/>
      <use xlink:href="#DejaVuSans-20" transform="translate(95.410156 0.78125)"/>
      <use xlink:href="#DejaVuSans-30" transform="translate(127.197266 0.78125)"/>
      <use xlink:href="#DejaVuSans-2c" transform="translate(190.820312 0.78125)"/>
      <use xlink:href="#DejaVuSans-20" transform="translate(222.607422 0.78125)"/>
      <use xlink:href="#DejaVuSans-2212" transform="translate(254.394531 0.78125)"/>
      <use xlink:href="#DejaVuSans-30" transform="translate(338.183594 0.78125)"/>
      <use xlink:href="#DejaVuSans-2e" transform="translate(401.806641 0.78125)"/>
      <use xlink:href="#DejaVuSans-38" transform="translate(430.96875 0.78125)"/>
      <use xlink:href="#DejaVuSans-32" transform="translate(494.591797 0.78125)"/>
      <use xlink:href="#DejaVuSans-34" transform="translate(558.214844 0.78125)"/>
     </g>
    </g>
   </g>
   <g id="text_45">
    <g clip-path="url(#p1aebd4802e)">
     <!-- $\mathrm{U_3}$ -->
     <g style="fill: #ffffff" transform="translate(522.07335 329.073306) scale(0.13 -0.13)">
      <use xlink:href="#DejaVuSans-55" transform="translate(0 0.09375)"/>
      <use xlink:href="#DejaVuSans-33" transform="translate(74.150391 -16.3125) scale(0.7)"/>
     </g>
    </g>
   </g>
  </g>
 </g>
 <defs>
  <clipPath id="p1aebd4802e">
   <rect x="7.2" y="14.798437" width="1225.529981" height="343.019595"/>
  </clipPath>
 </defs>
</svg>
