<?xml version="1.0" encoding="utf-8" standalone="no"?>
<!DOCTYPE svg PUBLIC "-//W3C//DTD SVG 1.1//EN"
  "http://www.w3.org/Graphics/SVG/1.1/DTD/svg11.dtd">
<svg xmlns:xlink="http://www.w3.org/1999/xlink" width="864pt" height="288pt" viewBox="0 0 864 288" xmlns="http://www.w3.org/2000/svg" version="1.1">
 <metadata>
  <rdf:RDF xmlns:dc="http://purl.org/dc/elements/1.1/" xmlns:cc="http://creativecommons.org/ns#" xmlns:rdf="http://www.w3.org/1999/02/22-rdf-syntax-ns#">
   <cc:Work>
    <dc:type rdf:resource="http://purl.org/dc/dcmitype/StillImage"/>
    <dc:date>2024-12-01T00:08:00.341371</dc:date>
    <dc:format>image/svg+xml</dc:format>
    <dc:creator>
     <cc:Agent>
      <dc:title>Matplotlib v3.9.2, https://matplotlib.org/</dc:title>
     </cc:Agent>
    </dc:creator>
   </cc:Work>
  </rdf:RDF>
 </metadata>
 <defs>
  <style type="text/css">*{stroke-linejoin: round; stroke-linecap: butt}</style>
 </defs>
 <g id="figure_1">
  <g id="patch_1">
   <path d="M 0 288 
L 864 288 
L 864 0 
L 0 0 
z
" style="fill: #ffffff"/>
  </g>
  <g id="axes_1">
   <g id="line2d_1">
    <path d="M 161.61621 50.266667 
L 758.549543 50.266667 
" clip-path="url(#p6b4044aa23)" style="fill: none; stroke: #000000; stroke-width: 1.979859; stroke-linecap: square"/>
   </g>
   <g id="line2d_2">
    <path d="M 161.61621 99.6 
L 758.549543 99.6 
" clip-path="url(#p6b4044aa23)" style="fill: none; stroke: #000000; stroke-width: 1.979859; stroke-linecap: square"/>
   </g>
   <g id="line2d_3">
    <path d="M 161.61621 148.933333 
L 758.549543 148.933333 
" clip-path="url(#p6b4044aa23)" style="fill: none; stroke: #000000; stroke-width: 1.979859; stroke-linecap: square"/>
   </g>
   <g id="line2d_4">
    <path d="M 161.61621 198.266667 
L 758.549543 198.266667 
" clip-path="url(#p6b4044aa23)" style="fill: none; stroke: #000000; stroke-width: 1.979859; stroke-linecap: square"/>
   </g>
   <g id="line2d_5">
    <path d="M 161.61621 247.6 
L 758.549543 247.6 
" clip-path="url(#p6b4044aa23)" style="fill: none; stroke: #000000; stroke-width: 1.979859; stroke-linecap: square"/>
   </g>
   <g id="patch_2">
    <path d="M 156.682877 25.6 
L -1076.650457 25.6 
L -1076.650457 321.6 
L 156.682877 321.6 
z
" clip-path="url(#p6b4044aa23)" style="fill: #ffffff; stroke: #ffffff; stroke-width: 1.484894; stroke-linejoin: miter"/>
   </g>
   <g id="line2d_6">
    <path d="M 237.589543 148.933333 
L 237.589543 99.6 
" clip-path="url(#p6b4044aa23)" style="fill: none; stroke: #002d9c; stroke-width: 1.979859; stroke-linecap: square"/>
   </g>
   <g id="line2d_7">
    <path d="M 286.922877 198.266667 
L 286.922877 148.933333 
" clip-path="url(#p6b4044aa23)" style="fill: none; stroke: #002d9c; stroke-width: 1.979859; stroke-linecap: square"/>
   </g>
   <g id="line2d_8">
    <path d="M 336.25621 247.6 
L 336.25621 198.266667 
" clip-path="url(#p6b4044aa23)" style="fill: none; stroke: #002d9c; stroke-width: 1.979859; stroke-linecap: square"/>
   </g>
   <g id="line2d_9">
    <path d="M 484.25621 148.933333 
L 484.25621 99.6 
" clip-path="url(#p6b4044aa23)" style="fill: none; stroke: #002d9c; stroke-width: 1.979859; stroke-linecap: square"/>
   </g>
   <g id="line2d_10">
    <path d="M 533.589543 198.266667 
L 533.589543 148.933333 
" clip-path="url(#p6b4044aa23)" style="fill: none; stroke: #002d9c; stroke-width: 1.979859; stroke-linecap: square"/>
   </g>
   <g id="line2d_11">
    <path d="M 582.922877 247.6 
L 582.922877 198.266667 
" clip-path="url(#p6b4044aa23)" style="fill: none; stroke: #002d9c; stroke-width: 1.979859; stroke-linecap: square"/>
   </g>
   <g id="patch_3">
    <path d="M 375.969543 74.933333 
L 395.209543 74.933333 
L 395.209543 25.6 
L 375.969543 25.6 
z
" clip-path="url(#p6b4044aa23)" style="fill: #a8a8a8; opacity: 0.6"/>
   </g>
   <g id="patch_4">
    <path d="M 375.969543 124.266667 
L 395.209543 124.266667 
L 395.209543 74.933333 
L 375.969543 74.933333 
z
" clip-path="url(#p6b4044aa23)" style="fill: #a8a8a8; opacity: 0.6"/>
   </g>
   <g id="patch_5">
    <path d="M 375.969543 173.6 
L 395.209543 173.6 
L 395.209543 124.266667 
L 375.969543 124.266667 
z
" clip-path="url(#p6b4044aa23)" style="fill: #a8a8a8; opacity: 0.6"/>
   </g>
   <g id="patch_6">
    <path d="M 375.969543 222.933333 
L 395.209543 222.933333 
L 395.209543 173.6 
L 375.969543 173.6 
z
" clip-path="url(#p6b4044aa23)" style="fill: #a8a8a8; opacity: 0.6"/>
   </g>
   <g id="patch_7">
    <path d="M 375.969543 272.266667 
L 395.209543 272.266667 
L 395.209543 222.933333 
L 375.969543 222.933333 
z
" clip-path="url(#p6b4044aa23)" style="fill: #a8a8a8; opacity: 0.6"/>
   </g>
   <g id="patch_8">
    <path d="M 622.63621 74.933333 
L 641.87621 74.933333 
L 641.87621 25.6 
L 622.63621 25.6 
z
" clip-path="url(#p6b4044aa23)" style="fill: #a8a8a8; opacity: 0.6"/>
   </g>
   <g id="patch_9">
    <path d="M 622.63621 124.266667 
L 641.87621 124.266667 
L 641.87621 74.933333 
L 622.63621 74.933333 
z
" clip-path="url(#p6b4044aa23)" style="fill: #a8a8a8; opacity: 0.6"/>
   </g>
   <g id="patch_10">
    <path d="M 622.63621 173.6 
L 641.87621 173.6 
L 641.87621 124.266667 
L 622.63621 124.266667 
z
" clip-path="url(#p6b4044aa23)" style="fill: #a8a8a8; opacity: 0.6"/>
   </g>
   <g id="patch_11">
    <path d="M 622.63621 222.933333 
L 641.87621 222.933333 
L 641.87621 173.6 
L 622.63621 173.6 
z
" clip-path="url(#p6b4044aa23)" style="fill: #a8a8a8; opacity: 0.6"/>
   </g>
   <g id="patch_12">
    <path d="M 622.63621 272.266667 
L 641.87621 272.266667 
L 641.87621 222.933333 
L 622.63621 222.933333 
z
" clip-path="url(#p6b4044aa23)" style="fill: #a8a8a8; opacity: 0.6"/>
   </g>
   <g id="patch_13">
    <path d="M 172.222877 66.3 
L 204.289543 66.3 
L 204.289543 34.233333 
L 172.222877 34.233333 
z
" clip-path="url(#p6b4044aa23)" style="fill: #fa4d56; stroke: #fa4d56; stroke-width: 1.484894; stroke-linejoin: miter"/>
   </g>
   <g id="patch_14">
    <path d="M 172.222877 115.633333 
L 204.289543 115.633333 
L 204.289543 83.566667 
L 172.222877 83.566667 
z
" clip-path="url(#p6b4044aa23)" style="fill: #9f1853; stroke: #9f1853; stroke-width: 1.484894; stroke-linejoin: miter"/>
   </g>
   <g id="patch_15">
    <path d="M 172.222877 164.966667 
L 204.289543 164.966667 
L 204.289543 132.9 
L 172.222877 132.9 
z
" clip-path="url(#p6b4044aa23)" style="fill: #9f1853; stroke: #9f1853; stroke-width: 1.484894; stroke-linejoin: miter"/>
   </g>
   <g id="patch_16">
    <path d="M 172.222877 214.3 
L 204.289543 214.3 
L 204.289543 182.233333 
L 172.222877 182.233333 
z
" clip-path="url(#p6b4044aa23)" style="fill: #9f1853; stroke: #9f1853; stroke-width: 1.484894; stroke-linejoin: miter"/>
   </g>
   <g id="patch_17">
    <path d="M 172.222877 263.633333 
L 204.289543 263.633333 
L 204.289543 231.566667 
L 172.222877 231.566667 
z
" clip-path="url(#p6b4044aa23)" style="fill: #9f1853; stroke: #9f1853; stroke-width: 1.484894; stroke-linejoin: miter"/>
   </g>
   <g id="patch_18">
    <path d="M 237.589543 104.41 
C 238.86517 104.41 240.088723 103.903188 240.990727 103.001184 
C 241.892731 102.099179 242.399543 100.875627 242.399543 99.6 
C 242.399543 98.324373 241.892731 97.100821 240.990727 96.198816 
C 240.088723 95.296812 238.86517 94.79 237.589543 94.79 
C 236.313916 94.79 235.090364 95.296812 234.18836 96.198816 
C 233.286355 97.100821 232.779543 98.324373 232.779543 99.6 
C 232.779543 100.875627 233.286355 102.099179 234.18836 103.001184 
C 235.090364 103.903188 236.313916 104.41 237.589543 104.41 
z
" clip-path="url(#p6b4044aa23)" style="fill: #002d9c; stroke: #002d9c; stroke-width: 1.484894; stroke-linejoin: miter"/>
   </g>
   <g id="patch_19">
    <path d="M 237.589543 160.156667 
C 240.566006 160.156667 243.420961 158.974105 245.525638 156.869428 
C 247.630315 154.764751 248.812877 151.909796 248.812877 148.933333 
C 248.812877 145.956871 247.630315 143.101915 245.525638 140.997238 
C 243.420961 138.892561 240.566006 137.71 237.589543 137.71 
C 234.613081 137.71 231.758125 138.892561 229.653448 140.997238 
C 227.548771 143.101915 226.36621 145.956871 226.36621 148.933333 
C 226.36621 151.909796 227.548771 154.764751 229.653448 156.869428 
C 231.758125 158.974105 234.613081 160.156667 237.589543 160.156667 
z
" clip-path="url(#p6b4044aa23)" style="fill: #002d9c; stroke: #002d9c; stroke-width: 1.979859; stroke-linejoin: miter"/>
   </g>
   <g id="patch_20">
    <path d="M 286.922877 153.743333 
C 288.198504 153.743333 289.422056 153.236521 290.32406 152.334517 
C 291.226065 151.432513 291.732877 150.20896 291.732877 148.933333 
C 291.732877 147.657706 291.226065 146.434154 290.32406 145.53215 
C 289.422056 144.630145 288.198504 144.123333 286.922877 144.123333 
C 285.64725 144.123333 284.423697 144.630145 283.521693 145.53215 
C 282.619689 146.434154 282.112877 147.657706 282.112877 148.933333 
C 282.112877 150.20896 282.619689 151.432513 283.521693 152.334517 
C 284.423697 153.236521 285.64725 153.743333 286.922877 153.743333 
z
" clip-path="url(#p6b4044aa23)" style="fill: #002d9c; stroke: #002d9c; stroke-width: 1.484894; stroke-linejoin: miter"/>
   </g>
   <g id="patch_21">
    <path d="M 286.922877 209.49 
C 289.899339 209.49 292.754295 208.307439 294.858972 206.202762 
C 296.963649 204.098085 298.14621 201.243129 298.14621 198.266667 
C 298.14621 195.290204 296.963649 192.435249 294.858972 190.330572 
C 292.754295 188.225895 289.899339 187.043333 286.922877 187.043333 
C 283.946414 187.043333 281.091459 188.225895 278.986782 190.330572 
C 276.882105 192.435249 275.699543 195.290204 275.699543 198.266667 
C 275.699543 201.243129 276.882105 204.098085 278.986782 206.202762 
C 281.091459 208.307439 283.946414 209.49 286.922877 209.49 
z
" clip-path="url(#p6b4044aa23)" style="fill: #002d9c; stroke: #002d9c; stroke-width: 1.979859; stroke-linejoin: miter"/>
   </g>
   <g id="patch_22">
    <path d="M 336.25621 203.076667 
C 337.531837 203.076667 338.755389 202.569855 339.657394 201.66785 
C 340.559398 200.765846 341.06621 199.542294 341.06621 198.266667 
C 341.06621 196.99104 340.559398 195.767487 339.657394 194.865483 
C 338.755389 193.963479 337.531837 193.456667 336.25621 193.456667 
C 334.980583 193.456667 333.757031 193.963479 332.855026 194.865483 
C 331.953022 195.767487 331.44621 196.99104 331.44621 198.266667 
C 331.44621 199.542294 331.953022 200.765846 332.855026 201.66785 
C 333.757031 202.569855 334.980583 203.076667 336.25621 203.076667 
z
" clip-path="url(#p6b4044aa23)" style="fill: #002d9c; stroke: #002d9c; stroke-width: 1.484894; stroke-linejoin: miter"/>
   </g>
   <g id="patch_23">
    <path d="M 336.25621 258.823333 
C 339.232673 258.823333 342.087628 257.640772 344.192305 255.536095 
C 346.296982 253.431418 347.479543 250.576463 347.479543 247.6 
C 347.479543 244.623537 346.296982 241.768582 344.192305 239.663905 
C 342.087628 237.559228 339.232673 236.376667 336.25621 236.376667 
C 333.279747 236.376667 330.424792 237.559228 328.320115 239.663905 
C 326.215438 241.768582 325.032877 244.623537 325.032877 247.6 
C 325.032877 250.576463 326.215438 253.431418 328.320115 255.536095 
C 330.424792 257.640772 333.279747 258.823333 336.25621 258.823333 
z
" clip-path="url(#p6b4044aa23)" style="fill: #002d9c; stroke: #002d9c; stroke-width: 1.979859; stroke-linejoin: miter"/>
   </g>
   <g id="patch_24">
    <path d="M 418.889543 115.633333 
L 450.95621 115.633333 
L 450.95621 83.566667 
L 418.889543 83.566667 
z
" clip-path="url(#p6b4044aa23)" style="fill: #9f1853; stroke: #9f1853; stroke-width: 1.484894; stroke-linejoin: miter"/>
   </g>
   <g id="patch_25">
    <path d="M 418.889543 164.966667 
L 450.95621 164.966667 
L 450.95621 132.9 
L 418.889543 132.9 
z
" clip-path="url(#p6b4044aa23)" style="fill: #9f1853; stroke: #9f1853; stroke-width: 1.484894; stroke-linejoin: miter"/>
   </g>
   <g id="patch_26">
    <path d="M 418.889543 214.3 
L 450.95621 214.3 
L 450.95621 182.233333 
L 418.889543 182.233333 
z
" clip-path="url(#p6b4044aa23)" style="fill: #9f1853; stroke: #9f1853; stroke-width: 1.484894; stroke-linejoin: miter"/>
   </g>
   <g id="patch_27">
    <path d="M 418.889543 263.633333 
L 450.95621 263.633333 
L 450.95621 231.566667 
L 418.889543 231.566667 
z
" clip-path="url(#p6b4044aa23)" style="fill: #9f1853; stroke: #9f1853; stroke-width: 1.484894; stroke-linejoin: miter"/>
   </g>
   <g id="patch_28">
    <path d="M 484.25621 104.41 
C 485.531837 104.41 486.755389 103.903188 487.657394 103.001184 
C 488.559398 102.099179 489.06621 100.875627 489.06621 99.6 
C 489.06621 98.324373 488.559398 97.100821 487.657394 96.198816 
C 486.755389 95.296812 485.531837 94.79 484.25621 94.79 
C 482.980583 94.79 481.757031 95.296812 480.855026 96.198816 
C 479.953022 97.100821 479.44621 98.324373 479.44621 99.6 
C 479.44621 100.875627 479.953022 102.099179 480.855026 103.001184 
C 481.757031 103.903188 482.980583 104.41 484.25621 104.41 
z
" clip-path="url(#p6b4044aa23)" style="fill: #002d9c; stroke: #002d9c; stroke-width: 1.484894; stroke-linejoin: miter"/>
   </g>
   <g id="patch_29">
    <path d="M 484.25621 160.156667 
C 487.232673 160.156667 490.087628 158.974105 492.192305 156.869428 
C 494.296982 154.764751 495.479543 151.909796 495.479543 148.933333 
C 495.479543 145.956871 494.296982 143.101915 492.192305 140.997238 
C 490.087628 138.892561 487.232673 137.71 484.25621 137.71 
C 481.279747 137.71 478.424792 138.892561 476.320115 140.997238 
C 474.215438 143.101915 473.032877 145.956871 473.032877 148.933333 
C 473.032877 151.909796 474.215438 154.764751 476.320115 156.869428 
C 478.424792 158.974105 481.279747 160.156667 484.25621 160.156667 
z
" clip-path="url(#p6b4044aa23)" style="fill: #002d9c; stroke: #002d9c; stroke-width: 1.979859; stroke-linejoin: miter"/>
   </g>
   <g id="patch_30">
    <path d="M 533.589543 153.743333 
C 534.86517 153.743333 536.088723 153.236521 536.990727 152.334517 
C 537.892731 151.432513 538.399543 150.20896 538.399543 148.933333 
C 538.399543 147.657706 537.892731 146.434154 536.990727 145.53215 
C 536.088723 144.630145 534.86517 144.123333 533.589543 144.123333 
C 532.313916 144.123333 531.090364 144.630145 530.18836 145.53215 
C 529.286355 146.434154 528.779543 147.657706 528.779543 148.933333 
C 528.779543 150.20896 529.286355 151.432513 530.18836 152.334517 
C 531.090364 153.236521 532.313916 153.743333 533.589543 153.743333 
z
" clip-path="url(#p6b4044aa23)" style="fill: #002d9c; stroke: #002d9c; stroke-width: 1.484894; stroke-linejoin: miter"/>
   </g>
   <g id="patch_31">
    <path d="M 533.589543 209.49 
C 536.566006 209.49 539.420961 208.307439 541.525638 206.202762 
C 543.630315 204.098085 544.812877 201.243129 544.812877 198.266667 
C 544.812877 195.290204 543.630315 192.435249 541.525638 190.330572 
C 539.420961 188.225895 536.566006 187.043333 533.589543 187.043333 
C 530.613081 187.043333 527.758125 188.225895 525.653448 190.330572 
C 523.548771 192.435249 522.36621 195.290204 522.36621 198.266667 
C 522.36621 201.243129 523.548771 204.098085 525.653448 206.202762 
C 527.758125 208.307439 530.613081 209.49 533.589543 209.49 
z
" clip-path="url(#p6b4044aa23)" style="fill: #002d9c; stroke: #002d9c; stroke-width: 1.979859; stroke-linejoin: miter"/>
   </g>
   <g id="patch_32">
    <path d="M 582.922877 203.076667 
C 584.198504 203.076667 585.422056 202.569855 586.32406 201.66785 
C 587.226065 200.765846 587.732877 199.542294 587.732877 198.266667 
C 587.732877 196.99104 587.226065 195.767487 586.32406 194.865483 
C 585.422056 193.963479 584.198504 193.456667 582.922877 193.456667 
C 581.64725 193.456667 580.423697 193.963479 579.521693 194.865483 
C 578.619689 195.767487 578.112877 196.99104 578.112877 198.266667 
C 578.112877 199.542294 578.619689 200.765846 579.521693 201.66785 
C 580.423697 202.569855 581.64725 203.076667 582.922877 203.076667 
z
" clip-path="url(#p6b4044aa23)" style="fill: #002d9c; stroke: #002d9c; stroke-width: 1.484894; stroke-linejoin: miter"/>
   </g>
   <g id="patch_33">
    <path d="M 582.922877 258.823333 
C 585.899339 258.823333 588.754295 257.640772 590.858972 255.536095 
C 592.963649 253.431418 594.14621 250.576463 594.14621 247.6 
C 594.14621 244.623537 592.963649 241.768582 590.858972 239.663905 
C 588.754295 237.559228 585.899339 236.376667 582.922877 236.376667 
C 579.946414 236.376667 577.091459 237.559228 574.986782 239.663905 
C 572.882105 241.768582 571.699543 244.623537 571.699543 247.6 
C 571.699543 250.576463 572.882105 253.431418 574.986782 255.536095 
C 577.091459 257.640772 579.946414 258.823333 582.922877 258.823333 
z
" clip-path="url(#p6b4044aa23)" style="fill: #002d9c; stroke: #002d9c; stroke-width: 1.979859; stroke-linejoin: miter"/>
   </g>
   <g id="patch_34">
    <path d="M 673.942877 263.633333 
L 738.569543 263.633333 
L 738.569543 34.233333 
L 673.942877 34.233333 
z
" clip-path="url(#p6b4044aa23)" style="fill: #9f1853; stroke: #9f1853; stroke-width: 1.484894; stroke-linejoin: miter"/>
   </g>
   <g id="line2d_12">
    <path d="M 237.589543 155.346667 
L 237.589543 142.52 
" clip-path="url(#p6b4044aa23)" style="fill: none; stroke: #ffffff; stroke-width: 1.979859; stroke-linecap: square"/>
   </g>
   <g id="line2d_13">
    <path d="M 231.17621 148.933333 
L 244.002877 148.933333 
" clip-path="url(#p6b4044aa23)" style="fill: none; stroke: #ffffff; stroke-width: 1.979859; stroke-linecap: square"/>
   </g>
   <g id="line2d_14">
    <path d="M 286.922877 204.68 
L 286.922877 191.853333 
" clip-path="url(#p6b4044aa23)" style="fill: none; stroke: #ffffff; stroke-width: 1.979859; stroke-linecap: square"/>
   </g>
   <g id="line2d_15">
    <path d="M 280.509543 198.266667 
L 293.33621 198.266667 
" clip-path="url(#p6b4044aa23)" style="fill: none; stroke: #ffffff; stroke-width: 1.979859; stroke-linecap: square"/>
   </g>
   <g id="line2d_16">
    <path d="M 336.25621 254.013333 
L 336.25621 241.186667 
" clip-path="url(#p6b4044aa23)" style="fill: none; stroke: #ffffff; stroke-width: 1.979859; stroke-linecap: square"/>
   </g>
   <g id="line2d_17">
    <path d="M 329.842877 247.6 
L 342.669543 247.6 
" clip-path="url(#p6b4044aa23)" style="fill: none; stroke: #ffffff; stroke-width: 1.979859; stroke-linecap: square"/>
   </g>
   <g id="line2d_18">
    <path d="M 484.25621 155.346667 
L 484.25621 142.52 
" clip-path="url(#p6b4044aa23)" style="fill: none; stroke: #ffffff; stroke-width: 1.979859; stroke-linecap: square"/>
   </g>
   <g id="line2d_19">
    <path d="M 477.842877 148.933333 
L 490.669543 148.933333 
" clip-path="url(#p6b4044aa23)" style="fill: none; stroke: #ffffff; stroke-width: 1.979859; stroke-linecap: square"/>
   </g>
   <g id="line2d_20">
    <path d="M 533.589543 204.68 
L 533.589543 191.853333 
" clip-path="url(#p6b4044aa23)" style="fill: none; stroke: #ffffff; stroke-width: 1.979859; stroke-linecap: square"/>
   </g>
   <g id="line2d_21">
    <path d="M 527.17621 198.266667 
L 540.002877 198.266667 
" clip-path="url(#p6b4044aa23)" style="fill: none; stroke: #ffffff; stroke-width: 1.979859; stroke-linecap: square"/>
   </g>
   <g id="line2d_22">
    <path d="M 582.922877 254.013333 
L 582.922877 241.186667 
" clip-path="url(#p6b4044aa23)" style="fill: none; stroke: #ffffff; stroke-width: 1.979859; stroke-linecap: square"/>
   </g>
   <g id="line2d_23">
    <path d="M 576.509543 247.6 
L 589.33621 247.6 
" clip-path="url(#p6b4044aa23)" style="fill: none; stroke: #ffffff; stroke-width: 1.979859; stroke-linecap: square"/>
   </g>
   <g id="text_1">
    <g clip-path="url(#p6b4044aa23)">
     <!-- ${q}_{0}$ -->
     <g transform="translate(133.893687 54.67282) scale(0.160864 -0.160864)">
      <defs>
       <path id="DejaVuSans-Oblique-71" d="M 2669 525 
Q 2438 222 2123 65 
Q 1809 -91 1428 -91 
Q 897 -91 595 267 
Q 294 625 294 1253 
Q 294 1759 480 2231 
Q 666 2703 1013 3078 
Q 1238 3322 1530 3453 
Q 1822 3584 2144 3584 
Q 2531 3584 2781 3431 
Q 3031 3278 3144 2969 
L 3244 3494 
L 3822 3494 
L 2888 -1319 
L 2309 -1319 
L 2669 525 
z
M 891 1338 
Q 891 875 1084 633 
Q 1278 391 1644 391 
Q 2188 391 2572 911 
Q 2956 1431 2956 2175 
Q 2956 2625 2757 2864 
Q 2559 3103 2188 3103 
Q 1916 3103 1684 2976 
Q 1453 2850 1281 2606 
Q 1100 2350 995 2006 
Q 891 1663 891 1338 
z
" transform="scale(0.015625)"/>
       <path id="DejaVuSans-30" d="M 2034 4250 
Q 1547 4250 1301 3770 
Q 1056 3291 1056 2328 
Q 1056 1369 1301 889 
Q 1547 409 2034 409 
Q 2525 409 2770 889 
Q 3016 1369 3016 2328 
Q 3016 3291 2770 3770 
Q 2525 4250 2034 4250 
z
M 2034 4750 
Q 2819 4750 3233 4129 
Q 3647 3509 3647 2328 
Q 3647 1150 3233 529 
Q 2819 -91 2034 -91 
Q 1250 -91 836 529 
Q 422 1150 422 2328 
Q 422 3509 836 4129 
Q 1250 4750 2034 4750 
z
" transform="scale(0.015625)"/>
      </defs>
      <use xlink:href="#DejaVuSans-Oblique-71"/>
      <use xlink:href="#DejaVuSans-30" transform="translate(63.476562 -16.40625) scale(0.7)"/>
     </g>
    </g>
   </g>
   <g id="text_2">
    <g clip-path="url(#p6b4044aa23)">
     <!-- ${q}_{1}$ -->
     <g transform="translate(133.893687 104.006154) scale(0.160864 -0.160864)">
      <defs>
       <path id="DejaVuSans-31" d="M 794 531 
L 1825 531 
L 1825 4091 
L 703 3866 
L 703 4441 
L 1819 4666 
L 2450 4666 
L 2450 531 
L 3481 531 
L 3481 0 
L 794 0 
L 794 531 
z
" transform="scale(0.015625)"/>
      </defs>
      <use xlink:href="#DejaVuSans-Oblique-71"/>
      <use xlink:href="#DejaVuSans-31" transform="translate(63.476562 -16.40625) scale(0.7)"/>
     </g>
    </g>
   </g>
   <g id="text_3">
    <g clip-path="url(#p6b4044aa23)">
     <!-- ${q}_{2}$ -->
     <g transform="translate(133.893687 153.339487) scale(0.160864 -0.160864)">
      <defs>
       <path id="DejaVuSans-32" d="M 1228 531 
L 3431 531 
L 3431 0 
L 469 0 
L 469 531 
Q 828 903 1448 1529 
Q 2069 2156 2228 2338 
Q 2531 2678 2651 2914 
Q 2772 3150 2772 3378 
Q 2772 3750 2511 3984 
Q 2250 4219 1831 4219 
Q 1534 4219 1204 4116 
Q 875 4013 500 3803 
L 500 4441 
Q 881 4594 1212 4672 
Q 1544 4750 1819 4750 
Q 2544 4750 2975 4387 
Q 3406 4025 3406 3419 
Q 3406 3131 3298 2873 
Q 3191 2616 2906 2266 
Q 2828 2175 2409 1742 
Q 1991 1309 1228 531 
z
" transform="scale(0.015625)"/>
      </defs>
      <use xlink:href="#DejaVuSans-Oblique-71"/>
      <use xlink:href="#DejaVuSans-32" transform="translate(63.476562 -16.40625) scale(0.7)"/>
     </g>
    </g>
   </g>
   <g id="text_4">
    <g clip-path="url(#p6b4044aa23)">
     <!-- ${q}_{3}$ -->
     <g transform="translate(133.893687 202.67282) scale(0.160864 -0.160864)">
      <defs>
       <path id="DejaVuSans-33" d="M 2597 2516 
Q 3050 2419 3304 2112 
Q 3559 1806 3559 1356 
Q 3559 666 3084 287 
Q 2609 -91 1734 -91 
Q 1441 -91 1130 -33 
Q 819 25 488 141 
L 488 750 
Q 750 597 1062 519 
Q 1375 441 1716 441 
Q 2309 441 2620 675 
Q 2931 909 2931 1356 
Q 2931 1769 2642 2001 
Q 2353 2234 1838 2234 
L 1294 2234 
L 1294 2753 
L 1863 2753 
Q 2328 2753 2575 2939 
Q 2822 3125 2822 3475 
Q 2822 3834 2567 4026 
Q 2313 4219 1838 4219 
Q 1578 4219 1281 4162 
Q 984 4106 628 3988 
L 628 4550 
Q 988 4650 1302 4700 
Q 1616 4750 1894 4750 
Q 2613 4750 3031 4423 
Q 3450 4097 3450 3541 
Q 3450 3153 3228 2886 
Q 3006 2619 2597 2516 
z
" transform="scale(0.015625)"/>
      </defs>
      <use xlink:href="#DejaVuSans-Oblique-71"/>
      <use xlink:href="#DejaVuSans-33" transform="translate(63.476562 -16.40625) scale(0.7)"/>
     </g>
    </g>
   </g>
   <g id="text_5">
    <g clip-path="url(#p6b4044aa23)">
     <!-- ${q}_{4}$ -->
     <g transform="translate(133.893687 252.006154) scale(0.160864 -0.160864)">
      <defs>
       <path id="DejaVuSans-34" d="M 2419 4116 
L 825 1625 
L 2419 1625 
L 2419 4116 
z
M 2253 4666 
L 3047 4666 
L 3047 1625 
L 3713 1625 
L 3713 1100 
L 3047 1100 
L 3047 0 
L 2419 0 
L 2419 1100 
L 313 1100 
L 313 1709 
L 2253 4666 
z
" transform="scale(0.015625)"/>
      </defs>
      <use xlink:href="#DejaVuSans-Oblique-71"/>
      <use xlink:href="#DejaVuSans-34" transform="translate(63.476562 -16.40625) scale(0.7)"/>
     </g>
    </g>
   </g>
   <g id="text_6">
    <g clip-path="url(#p6b4044aa23)">
     <!-- H -->
     <g transform="translate(183.417233 53.81773) scale(0.128691 -0.128691)">
      <defs>
       <path id="DejaVuSans-48" d="M 628 4666 
L 1259 4666 
L 1259 2753 
L 3553 2753 
L 3553 4666 
L 4184 4666 
L 4184 0 
L 3553 0 
L 3553 2222 
L 1259 2222 
L 1259 0 
L 628 0 
L 628 4666 
z
" transform="scale(0.015625)"/>
      </defs>
      <use xlink:href="#DejaVuSans-48"/>
     </g>
    </g>
   </g>
   <g id="text_7">
    <g clip-path="url(#p6b4044aa23)">
     <!-- 3.92 -->
     <g style="fill: #ffffff" transform="translate(179.439649 111.40527) scale(0.079194 -0.079194)">
      <defs>
       <path id="DejaVuSans-2e" d="M 684 794 
L 1344 794 
L 1344 0 
L 684 0 
L 684 794 
z
" transform="scale(0.015625)"/>
       <path id="DejaVuSans-39" d="M 703 97 
L 703 672 
Q 941 559 1184 500 
Q 1428 441 1663 441 
Q 2288 441 2617 861 
Q 2947 1281 2994 2138 
Q 2813 1869 2534 1725 
Q 2256 1581 1919 1581 
Q 1219 1581 811 2004 
Q 403 2428 403 3163 
Q 403 3881 828 4315 
Q 1253 4750 1959 4750 
Q 2769 4750 3195 4129 
Q 3622 3509 3622 2328 
Q 3622 1225 3098 567 
Q 2575 -91 1691 -91 
Q 1453 -91 1209 -44 
Q 966 3 703 97 
z
M 1959 2075 
Q 2384 2075 2632 2365 
Q 2881 2656 2881 3163 
Q 2881 3666 2632 3958 
Q 2384 4250 1959 4250 
Q 1534 4250 1286 3958 
Q 1038 3666 1038 3163 
Q 1038 2656 1286 2365 
Q 1534 2075 1959 2075 
z
" transform="scale(0.015625)"/>
      </defs>
      <use xlink:href="#DejaVuSans-33"/>
      <use xlink:href="#DejaVuSans-2e" x="63.623047"/>
      <use xlink:href="#DejaVuSans-39" x="95.410156"/>
      <use xlink:href="#DejaVuSans-32" x="159.033203"/>
     </g>
    </g>
   </g>
   <g id="text_8">
    <g clip-path="url(#p6b4044aa23)">
     <!-- $\mathrm{R_X}$ -->
     <g style="fill: #ffffff" transform="translate(180.406068 98.341063) scale(0.128691 -0.128691)">
      <defs>
       <path id="DejaVuSans-52" d="M 2841 2188 
Q 3044 2119 3236 1894 
Q 3428 1669 3622 1275 
L 4263 0 
L 3584 0 
L 2988 1197 
Q 2756 1666 2539 1819 
Q 2322 1972 1947 1972 
L 1259 1972 
L 1259 0 
L 628 0 
L 628 4666 
L 2053 4666 
Q 2853 4666 3247 4331 
Q 3641 3997 3641 3322 
Q 3641 2881 3436 2590 
Q 3231 2300 2841 2188 
z
M 1259 4147 
L 1259 2491 
L 2053 2491 
Q 2509 2491 2742 2702 
Q 2975 2913 2975 3322 
Q 2975 3731 2742 3939 
Q 2509 4147 2053 4147 
L 1259 4147 
z
" transform="scale(0.015625)"/>
       <path id="DejaVuSans-58" d="M 403 4666 
L 1081 4666 
L 2241 2931 
L 3406 4666 
L 4084 4666 
L 2584 2425 
L 4184 0 
L 3506 0 
L 2194 1984 
L 872 0 
L 191 0 
L 1856 2491 
L 403 4666 
z
" transform="scale(0.015625)"/>
      </defs>
      <use xlink:href="#DejaVuSans-52" transform="translate(0 0.09375)"/>
      <use xlink:href="#DejaVuSans-58" transform="translate(70.439453 -16.3125) scale(0.7)"/>
     </g>
    </g>
   </g>
   <g id="text_9">
    <g clip-path="url(#p6b4044aa23)">
     <!-- 4.88 -->
     <g style="fill: #ffffff" transform="translate(179.439649 160.738603) scale(0.079194 -0.079194)">
      <defs>
       <path id="DejaVuSans-38" d="M 2034 2216 
Q 1584 2216 1326 1975 
Q 1069 1734 1069 1313 
Q 1069 891 1326 650 
Q 1584 409 2034 409 
Q 2484 409 2743 651 
Q 3003 894 3003 1313 
Q 3003 1734 2745 1975 
Q 2488 2216 2034 2216 
z
M 1403 2484 
Q 997 2584 770 2862 
Q 544 3141 544 3541 
Q 544 4100 942 4425 
Q 1341 4750 2034 4750 
Q 2731 4750 3128 4425 
Q 3525 4100 3525 3541 
Q 3525 3141 3298 2862 
Q 3072 2584 2669 2484 
Q 3125 2378 3379 2068 
Q 3634 1759 3634 1313 
Q 3634 634 3220 271 
Q 2806 -91 2034 -91 
Q 1263 -91 848 271 
Q 434 634 434 1313 
Q 434 1759 690 2068 
Q 947 2378 1403 2484 
z
M 1172 3481 
Q 1172 3119 1398 2916 
Q 1625 2713 2034 2713 
Q 2441 2713 2670 2916 
Q 2900 3119 2900 3481 
Q 2900 3844 2670 4047 
Q 2441 4250 2034 4250 
Q 1625 4250 1398 4047 
Q 1172 3844 1172 3481 
z
" transform="scale(0.015625)"/>
      </defs>
      <use xlink:href="#DejaVuSans-34"/>
      <use xlink:href="#DejaVuSans-2e" x="63.623047"/>
      <use xlink:href="#DejaVuSans-38" x="95.410156"/>
      <use xlink:href="#DejaVuSans-38" x="159.033203"/>
     </g>
    </g>
   </g>
   <g id="text_10">
    <g clip-path="url(#p6b4044aa23)">
     <!-- $\mathrm{R_X}$ -->
     <g style="fill: #ffffff" transform="translate(180.406068 147.674397) scale(0.128691 -0.128691)">
      <use xlink:href="#DejaVuSans-52" transform="translate(0 0.09375)"/>
      <use xlink:href="#DejaVuSans-58" transform="translate(70.439453 -16.3125) scale(0.7)"/>
     </g>
    </g>
   </g>
   <g id="text_11">
    <g clip-path="url(#p6b4044aa23)">
     <!-- 3.85 -->
     <g style="fill: #ffffff" transform="translate(179.439649 210.071936) scale(0.079194 -0.079194)">
      <defs>
       <path id="DejaVuSans-35" d="M 691 4666 
L 3169 4666 
L 3169 4134 
L 1269 4134 
L 1269 2991 
Q 1406 3038 1543 3061 
Q 1681 3084 1819 3084 
Q 2600 3084 3056 2656 
Q 3513 2228 3513 1497 
Q 3513 744 3044 326 
Q 2575 -91 1722 -91 
Q 1428 -91 1123 -41 
Q 819 9 494 109 
L 494 744 
Q 775 591 1075 516 
Q 1375 441 1709 441 
Q 2250 441 2565 725 
Q 2881 1009 2881 1497 
Q 2881 1984 2565 2268 
Q 2250 2553 1709 2553 
Q 1456 2553 1204 2497 
Q 953 2441 691 2322 
L 691 4666 
z
" transform="scale(0.015625)"/>
      </defs>
      <use xlink:href="#DejaVuSans-33"/>
      <use xlink:href="#DejaVuSans-2e" x="63.623047"/>
      <use xlink:href="#DejaVuSans-38" x="95.410156"/>
      <use xlink:href="#DejaVuSans-35" x="159.033203"/>
     </g>
    </g>
   </g>
   <g id="text_12">
    <g clip-path="url(#p6b4044aa23)">
     <!-- $\mathrm{R_X}$ -->
     <g style="fill: #ffffff" transform="translate(180.406068 197.00773) scale(0.128691 -0.128691)">
      <use xlink:href="#DejaVuSans-52" transform="translate(0 0.09375)"/>
      <use xlink:href="#DejaVuSans-58" transform="translate(70.439453 -16.3125) scale(0.7)"/>
     </g>
    </g>
   </g>
   <g id="text_13">
    <g clip-path="url(#p6b4044aa23)">
     <!-- 5.76 -->
     <g style="fill: #ffffff" transform="translate(179.439649 259.40527) scale(0.079194 -0.079194)">
      <defs>
       <path id="DejaVuSans-37" d="M 525 4666 
L 3525 4666 
L 3525 4397 
L 1831 0 
L 1172 0 
L 2766 4134 
L 525 4134 
L 525 4666 
z
" transform="scale(0.015625)"/>
       <path id="DejaVuSans-36" d="M 2113 2584 
Q 1688 2584 1439 2293 
Q 1191 2003 1191 1497 
Q 1191 994 1439 701 
Q 1688 409 2113 409 
Q 2538 409 2786 701 
Q 3034 994 3034 1497 
Q 3034 2003 2786 2293 
Q 2538 2584 2113 2584 
z
M 3366 4563 
L 3366 3988 
Q 3128 4100 2886 4159 
Q 2644 4219 2406 4219 
Q 1781 4219 1451 3797 
Q 1122 3375 1075 2522 
Q 1259 2794 1537 2939 
Q 1816 3084 2150 3084 
Q 2853 3084 3261 2657 
Q 3669 2231 3669 1497 
Q 3669 778 3244 343 
Q 2819 -91 2113 -91 
Q 1303 -91 875 529 
Q 447 1150 447 2328 
Q 447 3434 972 4092 
Q 1497 4750 2381 4750 
Q 2619 4750 2861 4703 
Q 3103 4656 3366 4563 
z
" transform="scale(0.015625)"/>
      </defs>
      <use xlink:href="#DejaVuSans-35"/>
      <use xlink:href="#DejaVuSans-2e" x="63.623047"/>
      <use xlink:href="#DejaVuSans-37" x="95.410156"/>
      <use xlink:href="#DejaVuSans-36" x="159.033203"/>
     </g>
    </g>
   </g>
   <g id="text_14">
    <g clip-path="url(#p6b4044aa23)">
     <!-- $\mathrm{R_X}$ -->
     <g style="fill: #ffffff" transform="translate(180.406068 246.341063) scale(0.128691 -0.128691)">
      <use xlink:href="#DejaVuSans-52" transform="translate(0 0.09375)"/>
      <use xlink:href="#DejaVuSans-58" transform="translate(70.439453 -16.3125) scale(0.7)"/>
     </g>
    </g>
   </g>
   <g id="line2d_24">
    <path d="M 385.589543 25.6 
L 385.589543 74.933333 
" clip-path="url(#p6b4044aa23)" style="fill: none; stroke-dasharray: 3.66274,1.583887; stroke-dashoffset: 0; stroke: #000000; stroke-width: 0.98993"/>
   </g>
   <g id="line2d_25">
    <path d="M 385.589543 74.933333 
L 385.589543 124.266667 
" clip-path="url(#p6b4044aa23)" style="fill: none; stroke-dasharray: 3.66274,1.583887; stroke-dashoffset: 0; stroke: #000000; stroke-width: 0.98993"/>
   </g>
   <g id="line2d_26">
    <path d="M 385.589543 124.266667 
L 385.589543 173.6 
" clip-path="url(#p6b4044aa23)" style="fill: none; stroke-dasharray: 3.66274,1.583887; stroke-dashoffset: 0; stroke: #000000; stroke-width: 0.98993"/>
   </g>
   <g id="line2d_27">
    <path d="M 385.589543 173.6 
L 385.589543 222.933333 
" clip-path="url(#p6b4044aa23)" style="fill: none; stroke-dasharray: 3.66274,1.583887; stroke-dashoffset: 0; stroke: #000000; stroke-width: 0.98993"/>
   </g>
   <g id="line2d_28">
    <path d="M 385.589543 222.933333 
L 385.589543 272.266667 
" clip-path="url(#p6b4044aa23)" style="fill: none; stroke-dasharray: 3.66274,1.583887; stroke-dashoffset: 0; stroke: #000000; stroke-width: 0.98993"/>
   </g>
   <g id="text_15">
    <g clip-path="url(#p6b4044aa23)">
     <!-- 3.92 -->
     <g style="fill: #ffffff" transform="translate(426.106316 111.40527) scale(0.079194 -0.079194)">
      <use xlink:href="#DejaVuSans-33"/>
      <use xlink:href="#DejaVuSans-2e" x="63.623047"/>
      <use xlink:href="#DejaVuSans-39" x="95.410156"/>
      <use xlink:href="#DejaVuSans-32" x="159.033203"/>
     </g>
    </g>
   </g>
   <g id="text_16">
    <g clip-path="url(#p6b4044aa23)">
     <!-- $\mathrm{R_X}$ -->
     <g style="fill: #ffffff" transform="translate(427.072734 98.341063) scale(0.128691 -0.128691)">
      <use xlink:href="#DejaVuSans-52" transform="translate(0 0.09375)"/>
      <use xlink:href="#DejaVuSans-58" transform="translate(70.439453 -16.3125) scale(0.7)"/>
     </g>
    </g>
   </g>
   <g id="text_17">
    <g clip-path="url(#p6b4044aa23)">
     <!-- 4.88 -->
     <g style="fill: #ffffff" transform="translate(426.106316 160.738603) scale(0.079194 -0.079194)">
      <use xlink:href="#DejaVuSans-34"/>
      <use xlink:href="#DejaVuSans-2e" x="63.623047"/>
      <use xlink:href="#DejaVuSans-38" x="95.410156"/>
      <use xlink:href="#DejaVuSans-38" x="159.033203"/>
     </g>
    </g>
   </g>
   <g id="text_18">
    <g clip-path="url(#p6b4044aa23)">
     <!-- $\mathrm{R_X}$ -->
     <g style="fill: #ffffff" transform="translate(427.072734 147.674397) scale(0.128691 -0.128691)">
      <use xlink:href="#DejaVuSans-52" transform="translate(0 0.09375)"/>
      <use xlink:href="#DejaVuSans-58" transform="translate(70.439453 -16.3125) scale(0.7)"/>
     </g>
    </g>
   </g>
   <g id="text_19">
    <g clip-path="url(#p6b4044aa23)">
     <!-- 3.85 -->
     <g style="fill: #ffffff" transform="translate(426.106316 210.071936) scale(0.079194 -0.079194)">
      <use xlink:href="#DejaVuSans-33"/>
      <use xlink:href="#DejaVuSans-2e" x="63.623047"/>
      <use xlink:href="#DejaVuSans-38" x="95.410156"/>
      <use xlink:href="#DejaVuSans-35" x="159.033203"/>
     </g>
    </g>
   </g>
   <g id="text_20">
    <g clip-path="url(#p6b4044aa23)">
     <!-- $\mathrm{R_X}$ -->
     <g style="fill: #ffffff" transform="translate(427.072734 197.00773) scale(0.128691 -0.128691)">
      <use xlink:href="#DejaVuSans-52" transform="translate(0 0.09375)"/>
      <use xlink:href="#DejaVuSans-58" transform="translate(70.439453 -16.3125) scale(0.7)"/>
     </g>
    </g>
   </g>
   <g id="text_21">
    <g clip-path="url(#p6b4044aa23)">
     <!-- 5.76 -->
     <g style="fill: #ffffff" transform="translate(426.106316 259.40527) scale(0.079194 -0.079194)">
      <use xlink:href="#DejaVuSans-35"/>
      <use xlink:href="#DejaVuSans-2e" x="63.623047"/>
      <use xlink:href="#DejaVuSans-37" x="95.410156"/>
      <use xlink:href="#DejaVuSans-36" x="159.033203"/>
     </g>
    </g>
   </g>
   <g id="text_22">
    <g clip-path="url(#p6b4044aa23)">
     <!-- $\mathrm{R_X}$ -->
     <g style="fill: #ffffff" transform="translate(427.072734 246.341063) scale(0.128691 -0.128691)">
      <use xlink:href="#DejaVuSans-52" transform="translate(0 0.09375)"/>
      <use xlink:href="#DejaVuSans-58" transform="translate(70.439453 -16.3125) scale(0.7)"/>
     </g>
    </g>
   </g>
   <g id="line2d_29">
    <path d="M 632.25621 25.6 
L 632.25621 74.933333 
" clip-path="url(#p6b4044aa23)" style="fill: none; stroke-dasharray: 3.66274,1.583887; stroke-dashoffset: 0; stroke: #000000; stroke-width: 0.98993"/>
   </g>
   <g id="line2d_30">
    <path d="M 632.25621 74.933333 
L 632.25621 124.266667 
" clip-path="url(#p6b4044aa23)" style="fill: none; stroke-dasharray: 3.66274,1.583887; stroke-dashoffset: 0; stroke: #000000; stroke-width: 0.98993"/>
   </g>
   <g id="line2d_31">
    <path d="M 632.25621 124.266667 
L 632.25621 173.6 
" clip-path="url(#p6b4044aa23)" style="fill: none; stroke-dasharray: 3.66274,1.583887; stroke-dashoffset: 0; stroke: #000000; stroke-width: 0.98993"/>
   </g>
   <g id="line2d_32">
    <path d="M 632.25621 173.6 
L 632.25621 222.933333 
" clip-path="url(#p6b4044aa23)" style="fill: none; stroke-dasharray: 3.66274,1.583887; stroke-dashoffset: 0; stroke: #000000; stroke-width: 0.98993"/>
   </g>
   <g id="line2d_33">
    <path d="M 632.25621 222.933333 
L 632.25621 272.266667 
" clip-path="url(#p6b4044aa23)" style="fill: none; stroke-dasharray: 3.66274,1.583887; stroke-dashoffset: 0; stroke: #000000; stroke-width: 0.98993"/>
   </g>
   <g id="text_23">
    <g clip-path="url(#p6b4044aa23)">
     <!-- 0 -->
     <g style="fill: #ffffff" transform="translate(677.39621 53.81773) scale(0.128691 -0.128691)">
      <use xlink:href="#DejaVuSans-30"/>
     </g>
    </g>
   </g>
   <g id="text_24">
    <g clip-path="url(#p6b4044aa23)">
     <!-- 1 -->
     <g style="fill: #ffffff" transform="translate(677.39621 103.151063) scale(0.128691 -0.128691)">
      <use xlink:href="#DejaVuSans-31"/>
     </g>
    </g>
   </g>
   <g id="text_25">
    <g clip-path="url(#p6b4044aa23)">
     <!-- 2 -->
     <g style="fill: #ffffff" transform="translate(677.39621 152.484397) scale(0.128691 -0.128691)">
      <use xlink:href="#DejaVuSans-32"/>
     </g>
    </g>
   </g>
   <g id="text_26">
    <g clip-path="url(#p6b4044aa23)">
     <!-- 3 -->
     <g style="fill: #ffffff" transform="translate(677.39621 201.81773) scale(0.128691 -0.128691)">
      <use xlink:href="#DejaVuSans-33"/>
     </g>
    </g>
   </g>
   <g id="text_27">
    <g clip-path="url(#p6b4044aa23)">
     <!-- 4 -->
     <g style="fill: #ffffff" transform="translate(677.39621 251.151063) scale(0.128691 -0.128691)">
      <use xlink:href="#DejaVuSans-34"/>
     </g>
    </g>
   </g>
   <g id="text_28">
    <g clip-path="url(#p6b4044aa23)">
     <!-- Unitary -->
     <g style="fill: #ffffff" transform="translate(688.188752 152.484397) scale(0.128691 -0.128691)">
      <defs>
       <path id="DejaVuSans-55" d="M 556 4666 
L 1191 4666 
L 1191 1831 
Q 1191 1081 1462 751 
Q 1734 422 2344 422 
Q 2950 422 3222 751 
Q 3494 1081 3494 1831 
L 3494 4666 
L 4128 4666 
L 4128 1753 
Q 4128 841 3676 375 
Q 3225 -91 2344 -91 
Q 1459 -91 1007 375 
Q 556 841 556 1753 
L 556 4666 
z
" transform="scale(0.015625)"/>
       <path id="DejaVuSans-6e" d="M 3513 2113 
L 3513 0 
L 2938 0 
L 2938 2094 
Q 2938 2591 2744 2837 
Q 2550 3084 2163 3084 
Q 1697 3084 1428 2787 
Q 1159 2491 1159 1978 
L 1159 0 
L 581 0 
L 581 3500 
L 1159 3500 
L 1159 2956 
Q 1366 3272 1645 3428 
Q 1925 3584 2291 3584 
Q 2894 3584 3203 3211 
Q 3513 2838 3513 2113 
z
" transform="scale(0.015625)"/>
       <path id="DejaVuSans-69" d="M 603 3500 
L 1178 3500 
L 1178 0 
L 603 0 
L 603 3500 
z
M 603 4863 
L 1178 4863 
L 1178 4134 
L 603 4134 
L 603 4863 
z
" transform="scale(0.015625)"/>
       <path id="DejaVuSans-74" d="M 1172 4494 
L 1172 3500 
L 2356 3500 
L 2356 3053 
L 1172 3053 
L 1172 1153 
Q 1172 725 1289 603 
Q 1406 481 1766 481 
L 2356 481 
L 2356 0 
L 1766 0 
Q 1100 0 847 248 
Q 594 497 594 1153 
L 594 3053 
L 172 3053 
L 172 3500 
L 594 3500 
L 594 4494 
L 1172 4494 
z
" transform="scale(0.015625)"/>
       <path id="DejaVuSans-61" d="M 2194 1759 
Q 1497 1759 1228 1600 
Q 959 1441 959 1056 
Q 959 750 1161 570 
Q 1363 391 1709 391 
Q 2188 391 2477 730 
Q 2766 1069 2766 1631 
L 2766 1759 
L 2194 1759 
z
M 3341 1997 
L 3341 0 
L 2766 0 
L 2766 531 
Q 2569 213 2275 61 
Q 1981 -91 1556 -91 
Q 1019 -91 701 211 
Q 384 513 384 1019 
Q 384 1609 779 1909 
Q 1175 2209 1959 2209 
L 2766 2209 
L 2766 2266 
Q 2766 2663 2505 2880 
Q 2244 3097 1772 3097 
Q 1472 3097 1187 3025 
Q 903 2953 641 2809 
L 641 3341 
Q 956 3463 1253 3523 
Q 1550 3584 1831 3584 
Q 2591 3584 2966 3190 
Q 3341 2797 3341 1997 
z
" transform="scale(0.015625)"/>
       <path id="DejaVuSans-72" d="M 2631 2963 
Q 2534 3019 2420 3045 
Q 2306 3072 2169 3072 
Q 1681 3072 1420 2755 
Q 1159 2438 1159 1844 
L 1159 0 
L 581 0 
L 581 3500 
L 1159 3500 
L 1159 2956 
Q 1341 3275 1631 3429 
Q 1922 3584 2338 3584 
Q 2397 3584 2469 3576 
Q 2541 3569 2628 3553 
L 2631 2963 
z
" transform="scale(0.015625)"/>
       <path id="DejaVuSans-79" d="M 2059 -325 
Q 1816 -950 1584 -1140 
Q 1353 -1331 966 -1331 
L 506 -1331 
L 506 -850 
L 844 -850 
Q 1081 -850 1212 -737 
Q 1344 -625 1503 -206 
L 1606 56 
L 191 3500 
L 800 3500 
L 1894 763 
L 2988 3500 
L 3597 3500 
L 2059 -325 
z
" transform="scale(0.015625)"/>
      </defs>
      <use xlink:href="#DejaVuSans-55"/>
      <use xlink:href="#DejaVuSans-6e" x="73.193359"/>
      <use xlink:href="#DejaVuSans-69" x="136.572266"/>
      <use xlink:href="#DejaVuSans-74" x="164.355469"/>
      <use xlink:href="#DejaVuSans-61" x="203.564453"/>
      <use xlink:href="#DejaVuSans-72" x="264.84375"/>
      <use xlink:href="#DejaVuSans-79" x="305.957031"/>
     </g>
    </g>
   </g>
  </g>
 </g>
 <defs>
  <clipPath id="p6b4044aa23">
   <rect x="100.517123" y="10.8" width="662.965753" height="266.4"/>
  </clipPath>
 </defs>
</svg>
