<?xml version="1.0" encoding="utf-8" standalone="no"?>
<!DOCTYPE svg PUBLIC "-//W3C//DTD SVG 1.1//EN"
  "http://www.w3.org/Graphics/SVG/1.1/DTD/svg11.dtd">
<svg xmlns:xlink="http://www.w3.org/1999/xlink" width="864pt" height="288pt" viewBox="0 0 864 288" xmlns="http://www.w3.org/2000/svg" version="1.1">
 <metadata>
  <rdf:RDF xmlns:dc="http://purl.org/dc/elements/1.1/" xmlns:cc="http://creativecommons.org/ns#" xmlns:rdf="http://www.w3.org/1999/02/22-rdf-syntax-ns#">
   <cc:Work>
    <dc:type rdf:resource="http://purl.org/dc/dcmitype/StillImage"/>
    <dc:date>2024-12-01T00:24:28.429642</dc:date>
    <dc:format>image/svg+xml</dc:format>
    <dc:creator>
     <cc:Agent>
      <dc:title>Matplotlib v3.9.2, https://matplotlib.org/</dc:title>
     </cc:Agent>
    </dc:creator>
   </cc:Work>
  </rdf:RDF>
 </metadata>
 <defs>
  <style type="text/css">*{stroke-linejoin: round; stroke-linecap: butt}</style>
 </defs>
 <g id="figure_1">
  <g id="patch_1">
   <path d="M 0 288 
L 864 288 
L 864 0 
L 0 0 
z
" style="fill: #ffffff"/>
  </g>
  <g id="axes_1">
   <g id="line2d_1">
    <path d="M 190.430846 51.10963 
L 740.218994 51.10963 
" clip-path="url(#p3d0a9c90a0)" style="fill: none; stroke: #000000; stroke-width: 2.39984; stroke-linecap: square"/>
   </g>
   <g id="line2d_2">
    <path d="M 190.430846 96.546667 
L 740.218994 96.546667 
" clip-path="url(#p3d0a9c90a0)" style="fill: none; stroke: #000000; stroke-width: 2.39984; stroke-linecap: square"/>
   </g>
   <g id="line2d_3">
    <path d="M 190.430846 141.983704 
L 740.218994 141.983704 
" clip-path="url(#p3d0a9c90a0)" style="fill: none; stroke: #000000; stroke-width: 2.39984; stroke-linecap: square"/>
   </g>
   <g id="line2d_4">
    <path d="M 190.430846 187.420741 
L 740.218994 187.420741 
" clip-path="url(#p3d0a9c90a0)" style="fill: none; stroke: #000000; stroke-width: 2.39984; stroke-linecap: square"/>
   </g>
   <g id="line2d_5">
    <path d="M 190.430846 232.857778 
L 740.218994 232.857778 
" clip-path="url(#p3d0a9c90a0)" style="fill: none; stroke: #000000; stroke-width: 2.39984; stroke-linecap: square"/>
   </g>
   <g id="patch_2">
    <path d="M 185.887142 28.391111 
L -950.038784 28.391111 
L -950.038784 301.013333 
L 185.887142 301.013333 
z
" clip-path="url(#p3d0a9c90a0)" style="fill: #ffffff; stroke: #ffffff; stroke-width: 1.79988; stroke-linejoin: miter"/>
   </g>
   <g id="line2d_6">
    <path d="M 260.403883 141.983704 
L 260.403883 96.546667 
" clip-path="url(#p3d0a9c90a0)" style="fill: none; stroke: #002d9c; stroke-width: 2.39984; stroke-linecap: square"/>
   </g>
   <g id="line2d_7">
    <path d="M 305.84092 187.420741 
L 305.84092 141.983704 
" clip-path="url(#p3d0a9c90a0)" style="fill: none; stroke: #002d9c; stroke-width: 2.39984; stroke-linecap: square"/>
   </g>
   <g id="line2d_8">
    <path d="M 351.277957 232.857778 
L 351.277957 187.420741 
" clip-path="url(#p3d0a9c90a0)" style="fill: none; stroke: #002d9c; stroke-width: 2.39984; stroke-linecap: square"/>
   </g>
   <g id="line2d_9">
    <path d="M 487.589068 141.983704 
L 487.589068 96.546667 
" clip-path="url(#p3d0a9c90a0)" style="fill: none; stroke: #002d9c; stroke-width: 2.39984; stroke-linecap: square"/>
   </g>
   <g id="line2d_10">
    <path d="M 533.026105 187.420741 
L 533.026105 141.983704 
" clip-path="url(#p3d0a9c90a0)" style="fill: none; stroke: #002d9c; stroke-width: 2.39984; stroke-linecap: square"/>
   </g>
   <g id="line2d_11">
    <path d="M 578.463142 232.857778 
L 578.463142 187.420741 
" clip-path="url(#p3d0a9c90a0)" style="fill: none; stroke: #002d9c; stroke-width: 2.39984; stroke-linecap: square"/>
   </g>
   <g id="patch_3">
    <path d="M 387.854772 73.828148 
L 405.575216 73.828148 
L 405.575216 28.391111 
L 387.854772 28.391111 
z
" clip-path="url(#p3d0a9c90a0)" style="fill: #a8a8a8; opacity: 0.6"/>
   </g>
   <g id="patch_4">
    <path d="M 387.854772 119.265185 
L 405.575216 119.265185 
L 405.575216 73.828148 
L 387.854772 73.828148 
z
" clip-path="url(#p3d0a9c90a0)" style="fill: #a8a8a8; opacity: 0.6"/>
   </g>
   <g id="patch_5">
    <path d="M 387.854772 164.702222 
L 405.575216 164.702222 
L 405.575216 119.265185 
L 387.854772 119.265185 
z
" clip-path="url(#p3d0a9c90a0)" style="fill: #a8a8a8; opacity: 0.6"/>
   </g>
   <g id="patch_6">
    <path d="M 387.854772 210.139259 
L 405.575216 210.139259 
L 405.575216 164.702222 
L 387.854772 164.702222 
z
" clip-path="url(#p3d0a9c90a0)" style="fill: #a8a8a8; opacity: 0.6"/>
   </g>
   <g id="patch_7">
    <path d="M 387.854772 255.576296 
L 405.575216 255.576296 
L 405.575216 210.139259 
L 387.854772 210.139259 
z
" clip-path="url(#p3d0a9c90a0)" style="fill: #a8a8a8; opacity: 0.6"/>
   </g>
   <g id="patch_8">
    <path d="M 615.039957 73.828148 
L 632.760401 73.828148 
L 632.760401 28.391111 
L 615.039957 28.391111 
z
" clip-path="url(#p3d0a9c90a0)" style="fill: #a8a8a8; opacity: 0.6"/>
   </g>
   <g id="patch_9">
    <path d="M 615.039957 119.265185 
L 632.760401 119.265185 
L 632.760401 73.828148 
L 615.039957 73.828148 
z
" clip-path="url(#p3d0a9c90a0)" style="fill: #a8a8a8; opacity: 0.6"/>
   </g>
   <g id="patch_10">
    <path d="M 615.039957 164.702222 
L 632.760401 164.702222 
L 632.760401 119.265185 
L 615.039957 119.265185 
z
" clip-path="url(#p3d0a9c90a0)" style="fill: #a8a8a8; opacity: 0.6"/>
   </g>
   <g id="patch_11">
    <path d="M 615.039957 210.139259 
L 632.760401 210.139259 
L 632.760401 164.702222 
L 615.039957 164.702222 
z
" clip-path="url(#p3d0a9c90a0)" style="fill: #a8a8a8; opacity: 0.6"/>
   </g>
   <g id="patch_12">
    <path d="M 615.039957 255.576296 
L 632.760401 255.576296 
L 632.760401 210.139259 
L 615.039957 210.139259 
z
" clip-path="url(#p3d0a9c90a0)" style="fill: #a8a8a8; opacity: 0.6"/>
   </g>
   <g id="patch_13">
    <path d="M 200.199809 65.876667 
L 229.733883 65.876667 
L 229.733883 36.342593 
L 200.199809 36.342593 
z
" clip-path="url(#p3d0a9c90a0)" style="fill: #fa4d56; stroke: #fa4d56; stroke-width: 1.79988; stroke-linejoin: miter"/>
   </g>
   <g id="patch_14">
    <path d="M 200.199809 111.313704 
L 229.733883 111.313704 
L 229.733883 81.77963 
L 200.199809 81.77963 
z
" clip-path="url(#p3d0a9c90a0)" style="fill: #9f1853; stroke: #9f1853; stroke-width: 1.79988; stroke-linejoin: miter"/>
   </g>
   <g id="patch_15">
    <path d="M 200.199809 156.750741 
L 229.733883 156.750741 
L 229.733883 127.216667 
L 200.199809 127.216667 
z
" clip-path="url(#p3d0a9c90a0)" style="fill: #9f1853; stroke: #9f1853; stroke-width: 1.79988; stroke-linejoin: miter"/>
   </g>
   <g id="patch_16">
    <path d="M 200.199809 202.187778 
L 229.733883 202.187778 
L 229.733883 172.653704 
L 200.199809 172.653704 
z
" clip-path="url(#p3d0a9c90a0)" style="fill: #9f1853; stroke: #9f1853; stroke-width: 1.79988; stroke-linejoin: miter"/>
   </g>
   <g id="patch_17">
    <path d="M 200.199809 247.624815 
L 229.733883 247.624815 
L 229.733883 218.090741 
L 200.199809 218.090741 
z
" clip-path="url(#p3d0a9c90a0)" style="fill: #9f1853; stroke: #9f1853; stroke-width: 1.79988; stroke-linejoin: miter"/>
   </g>
   <g id="patch_18">
    <path d="M 260.403883 100.976778 
C 261.578762 100.976778 262.705679 100.509993 263.536444 99.679228 
C 264.367209 98.848463 264.833994 97.721546 264.833994 96.546667 
C 264.833994 95.371787 264.367209 94.24487 263.536444 93.414105 
C 262.705679 92.58334 261.578762 92.116556 260.403883 92.116556 
C 259.229004 92.116556 258.102086 92.58334 257.271321 93.414105 
C 256.440556 94.24487 255.973772 95.371787 255.973772 96.546667 
C 255.973772 97.721546 256.440556 98.848463 257.271321 99.679228 
C 258.102086 100.509993 259.229004 100.976778 260.403883 100.976778 
z
" clip-path="url(#p3d0a9c90a0)" style="fill: #002d9c; stroke: #002d9c; stroke-width: 1.79988; stroke-linejoin: miter"/>
   </g>
   <g id="patch_19">
    <path d="M 260.403883 152.32063 
C 263.145268 152.32063 265.774741 151.231466 267.713193 149.293014 
C 269.651645 147.354562 270.740809 144.725089 270.740809 141.983704 
C 270.740809 139.242319 269.651645 136.612845 267.713193 134.674393 
C 265.774741 132.735942 263.145268 131.646778 260.403883 131.646778 
C 257.662498 131.646778 255.033024 132.735942 253.094572 134.674393 
C 251.156121 136.612845 250.066957 139.242319 250.066957 141.983704 
C 250.066957 144.725089 251.156121 147.354562 253.094572 149.293014 
C 255.033024 151.231466 257.662498 152.32063 260.403883 152.32063 
z
" clip-path="url(#p3d0a9c90a0)" style="fill: #002d9c; stroke: #002d9c; stroke-width: 2.39984; stroke-linejoin: miter"/>
   </g>
   <g id="patch_20">
    <path d="M 305.84092 146.413815 
C 307.015799 146.413815 308.142716 145.94703 308.973481 145.116265 
C 309.804246 144.2855 310.271031 143.158583 310.271031 141.983704 
C 310.271031 140.808825 309.804246 139.681907 308.973481 138.851142 
C 308.142716 138.020377 307.015799 137.553593 305.84092 137.553593 
C 304.666041 137.553593 303.539123 138.020377 302.708358 138.851142 
C 301.877593 139.681907 301.410809 140.808825 301.410809 141.983704 
C 301.410809 143.158583 301.877593 144.2855 302.708358 145.116265 
C 303.539123 145.94703 304.666041 146.413815 305.84092 146.413815 
z
" clip-path="url(#p3d0a9c90a0)" style="fill: #002d9c; stroke: #002d9c; stroke-width: 1.79988; stroke-linejoin: miter"/>
   </g>
   <g id="patch_21">
    <path d="M 305.84092 197.757667 
C 308.582305 197.757667 311.211778 196.668503 313.15023 194.730051 
C 315.088682 192.791599 316.177846 190.162126 316.177846 187.420741 
C 316.177846 184.679356 315.088682 182.049882 313.15023 180.11143 
C 311.211778 178.172979 308.582305 177.083815 305.84092 177.083815 
C 303.099535 177.083815 300.470061 178.172979 298.531609 180.11143 
C 296.593158 182.049882 295.503994 184.679356 295.503994 187.420741 
C 295.503994 190.162126 296.593158 192.791599 298.531609 194.730051 
C 300.470061 196.668503 303.099535 197.757667 305.84092 197.757667 
z
" clip-path="url(#p3d0a9c90a0)" style="fill: #002d9c; stroke: #002d9c; stroke-width: 2.39984; stroke-linejoin: miter"/>
   </g>
   <g id="patch_22">
    <path d="M 351.277957 191.850852 
C 352.452836 191.850852 353.579753 191.384067 354.410518 190.553302 
C 355.241283 189.722537 355.708068 188.59562 355.708068 187.420741 
C 355.708068 186.245862 355.241283 185.118944 354.410518 184.288179 
C 353.579753 183.457414 352.452836 182.99063 351.277957 182.99063 
C 350.103078 182.99063 348.97616 183.457414 348.145395 184.288179 
C 347.31463 185.118944 346.847846 186.245862 346.847846 187.420741 
C 346.847846 188.59562 347.31463 189.722537 348.145395 190.553302 
C 348.97616 191.384067 350.103078 191.850852 351.277957 191.850852 
z
" clip-path="url(#p3d0a9c90a0)" style="fill: #002d9c; stroke: #002d9c; stroke-width: 1.79988; stroke-linejoin: miter"/>
   </g>
   <g id="patch_23">
    <path d="M 351.277957 243.194704 
C 354.019342 243.194704 356.648815 242.10554 358.587267 240.167088 
C 360.525719 238.228636 361.614883 235.599163 361.614883 232.857778 
C 361.614883 230.116393 360.525719 227.486919 358.587267 225.548467 
C 356.648815 223.610016 354.019342 222.520852 351.277957 222.520852 
C 348.536572 222.520852 345.907098 223.610016 343.968646 225.548467 
C 342.030195 227.486919 340.941031 230.116393 340.941031 232.857778 
C 340.941031 235.599163 342.030195 238.228636 343.968646 240.167088 
C 345.907098 242.10554 348.536572 243.194704 351.277957 243.194704 
z
" clip-path="url(#p3d0a9c90a0)" style="fill: #002d9c; stroke: #002d9c; stroke-width: 2.39984; stroke-linejoin: miter"/>
   </g>
   <g id="patch_24">
    <path d="M 427.384994 111.313704 
L 456.919068 111.313704 
L 456.919068 81.77963 
L 427.384994 81.77963 
z
" clip-path="url(#p3d0a9c90a0)" style="fill: #9f1853; stroke: #9f1853; stroke-width: 1.79988; stroke-linejoin: miter"/>
   </g>
   <g id="patch_25">
    <path d="M 427.384994 156.750741 
L 456.919068 156.750741 
L 456.919068 127.216667 
L 427.384994 127.216667 
z
" clip-path="url(#p3d0a9c90a0)" style="fill: #9f1853; stroke: #9f1853; stroke-width: 1.79988; stroke-linejoin: miter"/>
   </g>
   <g id="patch_26">
    <path d="M 427.384994 202.187778 
L 456.919068 202.187778 
L 456.919068 172.653704 
L 427.384994 172.653704 
z
" clip-path="url(#p3d0a9c90a0)" style="fill: #9f1853; stroke: #9f1853; stroke-width: 1.79988; stroke-linejoin: miter"/>
   </g>
   <g id="patch_27">
    <path d="M 427.384994 247.624815 
L 456.919068 247.624815 
L 456.919068 218.090741 
L 427.384994 218.090741 
z
" clip-path="url(#p3d0a9c90a0)" style="fill: #9f1853; stroke: #9f1853; stroke-width: 1.79988; stroke-linejoin: miter"/>
   </g>
   <g id="patch_28">
    <path d="M 487.589068 100.976778 
C 488.763947 100.976778 489.890864 100.509993 490.721629 99.679228 
C 491.552395 98.848463 492.019179 97.721546 492.019179 96.546667 
C 492.019179 95.371787 491.552395 94.24487 490.721629 93.414105 
C 489.890864 92.58334 488.763947 92.116556 487.589068 92.116556 
C 486.414189 92.116556 485.287271 92.58334 484.456506 93.414105 
C 483.625741 94.24487 483.158957 95.371787 483.158957 96.546667 
C 483.158957 97.721546 483.625741 98.848463 484.456506 99.679228 
C 485.287271 100.509993 486.414189 100.976778 487.589068 100.976778 
z
" clip-path="url(#p3d0a9c90a0)" style="fill: #002d9c; stroke: #002d9c; stroke-width: 1.79988; stroke-linejoin: miter"/>
   </g>
   <g id="patch_29">
    <path d="M 487.589068 152.32063 
C 490.330453 152.32063 492.959927 151.231466 494.898378 149.293014 
C 496.83683 147.354562 497.925994 144.725089 497.925994 141.983704 
C 497.925994 139.242319 496.83683 136.612845 494.898378 134.674393 
C 492.959927 132.735942 490.330453 131.646778 487.589068 131.646778 
C 484.847683 131.646778 482.218209 132.735942 480.279757 134.674393 
C 478.341306 136.612845 477.252142 139.242319 477.252142 141.983704 
C 477.252142 144.725089 478.341306 147.354562 480.279757 149.293014 
C 482.218209 151.231466 484.847683 152.32063 487.589068 152.32063 
z
" clip-path="url(#p3d0a9c90a0)" style="fill: #002d9c; stroke: #002d9c; stroke-width: 2.39984; stroke-linejoin: miter"/>
   </g>
   <g id="patch_30">
    <path d="M 533.026105 146.413815 
C 534.200984 146.413815 535.327901 145.94703 536.158667 145.116265 
C 536.989432 144.2855 537.456216 143.158583 537.456216 141.983704 
C 537.456216 140.808825 536.989432 139.681907 536.158667 138.851142 
C 535.327901 138.020377 534.200984 137.553593 533.026105 137.553593 
C 531.851226 137.553593 530.724308 138.020377 529.893543 138.851142 
C 529.062778 139.681907 528.595994 140.808825 528.595994 141.983704 
C 528.595994 143.158583 529.062778 144.2855 529.893543 145.116265 
C 530.724308 145.94703 531.851226 146.413815 533.026105 146.413815 
z
" clip-path="url(#p3d0a9c90a0)" style="fill: #002d9c; stroke: #002d9c; stroke-width: 1.79988; stroke-linejoin: miter"/>
   </g>
   <g id="patch_31">
    <path d="M 533.026105 197.757667 
C 535.76749 197.757667 538.396964 196.668503 540.335415 194.730051 
C 542.273867 192.791599 543.363031 190.162126 543.363031 187.420741 
C 543.363031 184.679356 542.273867 182.049882 540.335415 180.11143 
C 538.396964 178.172979 535.76749 177.083815 533.026105 177.083815 
C 530.28472 177.083815 527.655246 178.172979 525.716795 180.11143 
C 523.778343 182.049882 522.689179 184.679356 522.689179 187.420741 
C 522.689179 190.162126 523.778343 192.791599 525.716795 194.730051 
C 527.655246 196.668503 530.28472 197.757667 533.026105 197.757667 
z
" clip-path="url(#p3d0a9c90a0)" style="fill: #002d9c; stroke: #002d9c; stroke-width: 2.39984; stroke-linejoin: miter"/>
   </g>
   <g id="patch_32">
    <path d="M 578.463142 191.850852 
C 579.638021 191.850852 580.764939 191.384067 581.595704 190.553302 
C 582.426469 189.722537 582.893253 188.59562 582.893253 187.420741 
C 582.893253 186.245862 582.426469 185.118944 581.595704 184.288179 
C 580.764939 183.457414 579.638021 182.99063 578.463142 182.99063 
C 577.288263 182.99063 576.161345 183.457414 575.33058 184.288179 
C 574.499815 185.118944 574.033031 186.245862 574.033031 187.420741 
C 574.033031 188.59562 574.499815 189.722537 575.33058 190.553302 
C 576.161345 191.384067 577.288263 191.850852 578.463142 191.850852 
z
" clip-path="url(#p3d0a9c90a0)" style="fill: #002d9c; stroke: #002d9c; stroke-width: 1.79988; stroke-linejoin: miter"/>
   </g>
   <g id="patch_33">
    <path d="M 578.463142 243.194704 
C 581.204527 243.194704 583.834001 242.10554 585.772452 240.167088 
C 587.710904 238.228636 588.800068 235.599163 588.800068 232.857778 
C 588.800068 230.116393 587.710904 227.486919 585.772452 225.548467 
C 583.834001 223.610016 581.204527 222.520852 578.463142 222.520852 
C 575.721757 222.520852 573.092283 223.610016 571.153832 225.548467 
C 569.21538 227.486919 568.126216 230.116393 568.126216 232.857778 
C 568.126216 235.599163 569.21538 238.228636 571.153832 240.167088 
C 573.092283 242.10554 575.721757 243.194704 578.463142 243.194704 
z
" clip-path="url(#p3d0a9c90a0)" style="fill: #002d9c; stroke: #002d9c; stroke-width: 2.39984; stroke-linejoin: miter"/>
   </g>
   <g id="patch_34">
    <path d="M 662.294475 247.624815 
L 721.816994 247.624815 
L 721.816994 36.342593 
L 662.294475 36.342593 
z
" clip-path="url(#p3d0a9c90a0)" style="fill: #9f1853; stroke: #9f1853; stroke-width: 1.79988; stroke-linejoin: miter"/>
   </g>
   <g id="line2d_12">
    <path d="M 260.403883 147.890519 
L 260.403883 136.076889 
" clip-path="url(#p3d0a9c90a0)" style="fill: none; stroke: #ffffff; stroke-width: 2.39984; stroke-linecap: square"/>
   </g>
   <g id="line2d_13">
    <path d="M 254.497068 141.983704 
L 266.310698 141.983704 
" clip-path="url(#p3d0a9c90a0)" style="fill: none; stroke: #ffffff; stroke-width: 2.39984; stroke-linecap: square"/>
   </g>
   <g id="line2d_14">
    <path d="M 305.84092 193.327556 
L 305.84092 181.513926 
" clip-path="url(#p3d0a9c90a0)" style="fill: none; stroke: #ffffff; stroke-width: 2.39984; stroke-linecap: square"/>
   </g>
   <g id="line2d_15">
    <path d="M 299.934105 187.420741 
L 311.747735 187.420741 
" clip-path="url(#p3d0a9c90a0)" style="fill: none; stroke: #ffffff; stroke-width: 2.39984; stroke-linecap: square"/>
   </g>
   <g id="line2d_16">
    <path d="M 351.277957 238.764593 
L 351.277957 226.950963 
" clip-path="url(#p3d0a9c90a0)" style="fill: none; stroke: #ffffff; stroke-width: 2.39984; stroke-linecap: square"/>
   </g>
   <g id="line2d_17">
    <path d="M 345.371142 232.857778 
L 357.184772 232.857778 
" clip-path="url(#p3d0a9c90a0)" style="fill: none; stroke: #ffffff; stroke-width: 2.39984; stroke-linecap: square"/>
   </g>
   <g id="line2d_18">
    <path d="M 487.589068 147.890519 
L 487.589068 136.076889 
" clip-path="url(#p3d0a9c90a0)" style="fill: none; stroke: #ffffff; stroke-width: 2.39984; stroke-linecap: square"/>
   </g>
   <g id="line2d_19">
    <path d="M 481.682253 141.983704 
L 493.495883 141.983704 
" clip-path="url(#p3d0a9c90a0)" style="fill: none; stroke: #ffffff; stroke-width: 2.39984; stroke-linecap: square"/>
   </g>
   <g id="line2d_20">
    <path d="M 533.026105 193.327556 
L 533.026105 181.513926 
" clip-path="url(#p3d0a9c90a0)" style="fill: none; stroke: #ffffff; stroke-width: 2.39984; stroke-linecap: square"/>
   </g>
   <g id="line2d_21">
    <path d="M 527.11929 187.420741 
L 538.93292 187.420741 
" clip-path="url(#p3d0a9c90a0)" style="fill: none; stroke: #ffffff; stroke-width: 2.39984; stroke-linecap: square"/>
   </g>
   <g id="line2d_22">
    <path d="M 578.463142 238.764593 
L 578.463142 226.950963 
" clip-path="url(#p3d0a9c90a0)" style="fill: none; stroke: #ffffff; stroke-width: 2.39984; stroke-linecap: square"/>
   </g>
   <g id="line2d_23">
    <path d="M 572.556327 232.857778 
L 584.369957 232.857778 
" clip-path="url(#p3d0a9c90a0)" style="fill: none; stroke: #ffffff; stroke-width: 2.39984; stroke-linecap: square"/>
   </g>
   <g id="text_1">
    <g clip-path="url(#p3d0a9c90a0)">
     <!-- ${q}_{0}$ -->
     <g transform="translate(159.699879 56.450446) scale(0.194987 -0.194987)">
      <defs>
       <path id="DejaVuSans-Oblique-71" d="M 2669 525 
Q 2438 222 2123 65 
Q 1809 -91 1428 -91 
Q 897 -91 595 267 
Q 294 625 294 1253 
Q 294 1759 480 2231 
Q 666 2703 1013 3078 
Q 1238 3322 1530 3453 
Q 1822 3584 2144 3584 
Q 2531 3584 2781 3431 
Q 3031 3278 3144 2969 
L 3244 3494 
L 3822 3494 
L 2888 -1319 
L 2309 -1319 
L 2669 525 
z
M 891 1338 
Q 891 875 1084 633 
Q 1278 391 1644 391 
Q 2188 391 2572 911 
Q 2956 1431 2956 2175 
Q 2956 2625 2757 2864 
Q 2559 3103 2188 3103 
Q 1916 3103 1684 2976 
Q 1453 2850 1281 2606 
Q 1100 2350 995 2006 
Q 891 1663 891 1338 
z
" transform="scale(0.015625)"/>
       <path id="DejaVuSans-30" d="M 2034 4250 
Q 1547 4250 1301 3770 
Q 1056 3291 1056 2328 
Q 1056 1369 1301 889 
Q 1547 409 2034 409 
Q 2525 409 2770 889 
Q 3016 1369 3016 2328 
Q 3016 3291 2770 3770 
Q 2525 4250 2034 4250 
z
M 2034 4750 
Q 2819 4750 3233 4129 
Q 3647 3509 3647 2328 
Q 3647 1150 3233 529 
Q 2819 -91 2034 -91 
Q 1250 -91 836 529 
Q 422 1150 422 2328 
Q 422 3509 836 4129 
Q 1250 4750 2034 4750 
z
" transform="scale(0.015625)"/>
      </defs>
      <use xlink:href="#DejaVuSans-Oblique-71"/>
      <use xlink:href="#DejaVuSans-30" transform="translate(63.476562 -16.40625) scale(0.7)"/>
     </g>
    </g>
   </g>
   <g id="text_2">
    <g clip-path="url(#p3d0a9c90a0)">
     <!-- ${q}_{1}$ -->
     <g transform="translate(159.699879 101.887483) scale(0.194987 -0.194987)">
      <defs>
       <path id="DejaVuSans-31" d="M 794 531 
L 1825 531 
L 1825 4091 
L 703 3866 
L 703 4441 
L 1819 4666 
L 2450 4666 
L 2450 531 
L 3481 531 
L 3481 0 
L 794 0 
L 794 531 
z
" transform="scale(0.015625)"/>
      </defs>
      <use xlink:href="#DejaVuSans-Oblique-71"/>
      <use xlink:href="#DejaVuSans-31" transform="translate(63.476562 -16.40625) scale(0.7)"/>
     </g>
    </g>
   </g>
   <g id="text_3">
    <g clip-path="url(#p3d0a9c90a0)">
     <!-- ${q}_{2}$ -->
     <g transform="translate(159.699879 147.32452) scale(0.194987 -0.194987)">
      <defs>
       <path id="DejaVuSans-32" d="M 1228 531 
L 3431 531 
L 3431 0 
L 469 0 
L 469 531 
Q 828 903 1448 1529 
Q 2069 2156 2228 2338 
Q 2531 2678 2651 2914 
Q 2772 3150 2772 3378 
Q 2772 3750 2511 3984 
Q 2250 4219 1831 4219 
Q 1534 4219 1204 4116 
Q 875 4013 500 3803 
L 500 4441 
Q 881 4594 1212 4672 
Q 1544 4750 1819 4750 
Q 2544 4750 2975 4387 
Q 3406 4025 3406 3419 
Q 3406 3131 3298 2873 
Q 3191 2616 2906 2266 
Q 2828 2175 2409 1742 
Q 1991 1309 1228 531 
z
" transform="scale(0.015625)"/>
      </defs>
      <use xlink:href="#DejaVuSans-Oblique-71"/>
      <use xlink:href="#DejaVuSans-32" transform="translate(63.476562 -16.40625) scale(0.7)"/>
     </g>
    </g>
   </g>
   <g id="text_4">
    <g clip-path="url(#p3d0a9c90a0)">
     <!-- ${q}_{3}$ -->
     <g transform="translate(159.699879 192.761557) scale(0.194987 -0.194987)">
      <defs>
       <path id="DejaVuSans-33" d="M 2597 2516 
Q 3050 2419 3304 2112 
Q 3559 1806 3559 1356 
Q 3559 666 3084 287 
Q 2609 -91 1734 -91 
Q 1441 -91 1130 -33 
Q 819 25 488 141 
L 488 750 
Q 750 597 1062 519 
Q 1375 441 1716 441 
Q 2309 441 2620 675 
Q 2931 909 2931 1356 
Q 2931 1769 2642 2001 
Q 2353 2234 1838 2234 
L 1294 2234 
L 1294 2753 
L 1863 2753 
Q 2328 2753 2575 2939 
Q 2822 3125 2822 3475 
Q 2822 3834 2567 4026 
Q 2313 4219 1838 4219 
Q 1578 4219 1281 4162 
Q 984 4106 628 3988 
L 628 4550 
Q 988 4650 1302 4700 
Q 1616 4750 1894 4750 
Q 2613 4750 3031 4423 
Q 3450 4097 3450 3541 
Q 3450 3153 3228 2886 
Q 3006 2619 2597 2516 
z
" transform="scale(0.015625)"/>
      </defs>
      <use xlink:href="#DejaVuSans-Oblique-71"/>
      <use xlink:href="#DejaVuSans-33" transform="translate(63.476562 -16.40625) scale(0.7)"/>
     </g>
    </g>
   </g>
   <g id="text_5">
    <g clip-path="url(#p3d0a9c90a0)">
     <!-- ${q}_{4}$ -->
     <g transform="translate(159.699879 238.198594) scale(0.194987 -0.194987)">
      <defs>
       <path id="DejaVuSans-34" d="M 2419 4116 
L 825 1625 
L 2419 1625 
L 2419 4116 
z
M 2253 4666 
L 3047 4666 
L 3047 1625 
L 3713 1625 
L 3713 1100 
L 3047 1100 
L 3047 0 
L 2419 0 
L 2419 1100 
L 313 1100 
L 313 1709 
L 2253 4666 
z
" transform="scale(0.015625)"/>
      </defs>
      <use xlink:href="#DejaVuSans-Oblique-71"/>
      <use xlink:href="#DejaVuSans-34" transform="translate(63.476562 -16.40625) scale(0.7)"/>
     </g>
    </g>
   </g>
   <g id="text_6">
    <g clip-path="url(#p3d0a9c90a0)">
     <!-- H -->
     <g transform="translate(209.101392 55.413968) scale(0.15599 -0.15599)">
      <defs>
       <path id="DejaVuSans-48" d="M 628 4666 
L 1259 4666 
L 1259 2753 
L 3553 2753 
L 3553 4666 
L 4184 4666 
L 4184 0 
L 3553 0 
L 3553 2222 
L 1259 2222 
L 1259 0 
L 628 0 
L 628 4666 
z
" transform="scale(0.015625)"/>
      </defs>
      <use xlink:href="#DejaVuSans-48"/>
     </g>
    </g>
   </g>
   <g id="text_7">
    <g clip-path="url(#p3d0a9c90a0)">
     <!-- 6.11 -->
     <g style="fill: #ffffff" transform="translate(204.280057 108.055713) scale(0.095994 -0.095994)">
      <defs>
       <path id="DejaVuSans-36" d="M 2113 2584 
Q 1688 2584 1439 2293 
Q 1191 2003 1191 1497 
Q 1191 994 1439 701 
Q 1688 409 2113 409 
Q 2538 409 2786 701 
Q 3034 994 3034 1497 
Q 3034 2003 2786 2293 
Q 2538 2584 2113 2584 
z
M 3366 4563 
L 3366 3988 
Q 3128 4100 2886 4159 
Q 2644 4219 2406 4219 
Q 1781 4219 1451 3797 
Q 1122 3375 1075 2522 
Q 1259 2794 1537 2939 
Q 1816 3084 2150 3084 
Q 2853 3084 3261 2657 
Q 3669 2231 3669 1497 
Q 3669 778 3244 343 
Q 2819 -91 2113 -91 
Q 1303 -91 875 529 
Q 447 1150 447 2328 
Q 447 3434 972 4092 
Q 1497 4750 2381 4750 
Q 2619 4750 2861 4703 
Q 3103 4656 3366 4563 
z
" transform="scale(0.015625)"/>
       <path id="DejaVuSans-2e" d="M 684 794 
L 1344 794 
L 1344 0 
L 684 0 
L 684 794 
z
" transform="scale(0.015625)"/>
      </defs>
      <use xlink:href="#DejaVuSans-36"/>
      <use xlink:href="#DejaVuSans-2e" x="63.623047"/>
      <use xlink:href="#DejaVuSans-31" x="95.410156"/>
      <use xlink:href="#DejaVuSans-31" x="159.033203"/>
     </g>
    </g>
   </g>
   <g id="text_8">
    <g clip-path="url(#p3d0a9c90a0)">
     <!-- $\mathrm{R_X}$ -->
     <g style="fill: #ffffff" transform="translate(205.451479 96.420894) scale(0.15599 -0.15599)">
      <defs>
       <path id="DejaVuSans-52" d="M 2841 2188 
Q 3044 2119 3236 1894 
Q 3428 1669 3622 1275 
L 4263 0 
L 3584 0 
L 2988 1197 
Q 2756 1666 2539 1819 
Q 2322 1972 1947 1972 
L 1259 1972 
L 1259 0 
L 628 0 
L 628 4666 
L 2053 4666 
Q 2853 4666 3247 4331 
Q 3641 3997 3641 3322 
Q 3641 2881 3436 2590 
Q 3231 2300 2841 2188 
z
M 1259 4147 
L 1259 2491 
L 2053 2491 
Q 2509 2491 2742 2702 
Q 2975 2913 2975 3322 
Q 2975 3731 2742 3939 
Q 2509 4147 2053 4147 
L 1259 4147 
z
" transform="scale(0.015625)"/>
       <path id="DejaVuSans-58" d="M 403 4666 
L 1081 4666 
L 2241 2931 
L 3406 4666 
L 4084 4666 
L 2584 2425 
L 4184 0 
L 3506 0 
L 2194 1984 
L 872 0 
L 191 0 
L 1856 2491 
L 403 4666 
z
" transform="scale(0.015625)"/>
      </defs>
      <use xlink:href="#DejaVuSans-52" transform="translate(0 0.09375)"/>
      <use xlink:href="#DejaVuSans-58" transform="translate(70.439453 -16.3125) scale(0.7)"/>
     </g>
    </g>
   </g>
   <g id="text_9">
    <g clip-path="url(#p3d0a9c90a0)">
     <!-- 4.87 -->
     <g style="fill: #ffffff" transform="translate(204.280057 153.49275) scale(0.095994 -0.095994)">
      <defs>
       <path id="DejaVuSans-38" d="M 2034 2216 
Q 1584 2216 1326 1975 
Q 1069 1734 1069 1313 
Q 1069 891 1326 650 
Q 1584 409 2034 409 
Q 2484 409 2743 651 
Q 3003 894 3003 1313 
Q 3003 1734 2745 1975 
Q 2488 2216 2034 2216 
z
M 1403 2484 
Q 997 2584 770 2862 
Q 544 3141 544 3541 
Q 544 4100 942 4425 
Q 1341 4750 2034 4750 
Q 2731 4750 3128 4425 
Q 3525 4100 3525 3541 
Q 3525 3141 3298 2862 
Q 3072 2584 2669 2484 
Q 3125 2378 3379 2068 
Q 3634 1759 3634 1313 
Q 3634 634 3220 271 
Q 2806 -91 2034 -91 
Q 1263 -91 848 271 
Q 434 634 434 1313 
Q 434 1759 690 2068 
Q 947 2378 1403 2484 
z
M 1172 3481 
Q 1172 3119 1398 2916 
Q 1625 2713 2034 2713 
Q 2441 2713 2670 2916 
Q 2900 3119 2900 3481 
Q 2900 3844 2670 4047 
Q 2441 4250 2034 4250 
Q 1625 4250 1398 4047 
Q 1172 3844 1172 3481 
z
" transform="scale(0.015625)"/>
       <path id="DejaVuSans-37" d="M 525 4666 
L 3525 4666 
L 3525 4397 
L 1831 0 
L 1172 0 
L 2766 4134 
L 525 4134 
L 525 4666 
z
" transform="scale(0.015625)"/>
      </defs>
      <use xlink:href="#DejaVuSans-34"/>
      <use xlink:href="#DejaVuSans-2e" x="63.623047"/>
      <use xlink:href="#DejaVuSans-38" x="95.410156"/>
      <use xlink:href="#DejaVuSans-37" x="159.033203"/>
     </g>
    </g>
   </g>
   <g id="text_10">
    <g clip-path="url(#p3d0a9c90a0)">
     <!-- $\mathrm{R_X}$ -->
     <g style="fill: #ffffff" transform="translate(205.451479 141.857931) scale(0.15599 -0.15599)">
      <use xlink:href="#DejaVuSans-52" transform="translate(0 0.09375)"/>
      <use xlink:href="#DejaVuSans-58" transform="translate(70.439453 -16.3125) scale(0.7)"/>
     </g>
    </g>
   </g>
   <g id="text_11">
    <g clip-path="url(#p3d0a9c90a0)">
     <!-- 4.97 -->
     <g style="fill: #ffffff" transform="translate(204.280057 198.929787) scale(0.095994 -0.095994)">
      <defs>
       <path id="DejaVuSans-39" d="M 703 97 
L 703 672 
Q 941 559 1184 500 
Q 1428 441 1663 441 
Q 2288 441 2617 861 
Q 2947 1281 2994 2138 
Q 2813 1869 2534 1725 
Q 2256 1581 1919 1581 
Q 1219 1581 811 2004 
Q 403 2428 403 3163 
Q 403 3881 828 4315 
Q 1253 4750 1959 4750 
Q 2769 4750 3195 4129 
Q 3622 3509 3622 2328 
Q 3622 1225 3098 567 
Q 2575 -91 1691 -91 
Q 1453 -91 1209 -44 
Q 966 3 703 97 
z
M 1959 2075 
Q 2384 2075 2632 2365 
Q 2881 2656 2881 3163 
Q 2881 3666 2632 3958 
Q 2384 4250 1959 4250 
Q 1534 4250 1286 3958 
Q 1038 3666 1038 3163 
Q 1038 2656 1286 2365 
Q 1534 2075 1959 2075 
z
" transform="scale(0.015625)"/>
      </defs>
      <use xlink:href="#DejaVuSans-34"/>
      <use xlink:href="#DejaVuSans-2e" x="63.623047"/>
      <use xlink:href="#DejaVuSans-39" x="95.410156"/>
      <use xlink:href="#DejaVuSans-37" x="159.033203"/>
     </g>
    </g>
   </g>
   <g id="text_12">
    <g clip-path="url(#p3d0a9c90a0)">
     <!-- $\mathrm{R_X}$ -->
     <g style="fill: #ffffff" transform="translate(205.451479 187.294968) scale(0.15599 -0.15599)">
      <use xlink:href="#DejaVuSans-52" transform="translate(0 0.09375)"/>
      <use xlink:href="#DejaVuSans-58" transform="translate(70.439453 -16.3125) scale(0.7)"/>
     </g>
    </g>
   </g>
   <g id="text_13">
    <g clip-path="url(#p3d0a9c90a0)">
     <!-- 4.77 -->
     <g style="fill: #ffffff" transform="translate(204.280057 244.366824) scale(0.095994 -0.095994)">
      <use xlink:href="#DejaVuSans-34"/>
      <use xlink:href="#DejaVuSans-2e" x="63.623047"/>
      <use xlink:href="#DejaVuSans-37" x="95.410156"/>
      <use xlink:href="#DejaVuSans-37" x="159.033203"/>
     </g>
    </g>
   </g>
   <g id="text_14">
    <g clip-path="url(#p3d0a9c90a0)">
     <!-- $\mathrm{R_X}$ -->
     <g style="fill: #ffffff" transform="translate(205.451479 232.732005) scale(0.15599 -0.15599)">
      <use xlink:href="#DejaVuSans-52" transform="translate(0 0.09375)"/>
      <use xlink:href="#DejaVuSans-58" transform="translate(70.439453 -16.3125) scale(0.7)"/>
     </g>
    </g>
   </g>
   <g id="line2d_24">
    <path d="M 396.714994 28.391111 
L 396.714994 73.828148 
" clip-path="url(#p3d0a9c90a0)" style="fill: none; stroke-dasharray: 4.439704,1.919872; stroke-dashoffset: 0; stroke: #000000; stroke-width: 1.19992"/>
   </g>
   <g id="line2d_25">
    <path d="M 396.714994 73.828148 
L 396.714994 119.265185 
" clip-path="url(#p3d0a9c90a0)" style="fill: none; stroke-dasharray: 4.439704,1.919872; stroke-dashoffset: 0; stroke: #000000; stroke-width: 1.19992"/>
   </g>
   <g id="line2d_26">
    <path d="M 396.714994 119.265185 
L 396.714994 164.702222 
" clip-path="url(#p3d0a9c90a0)" style="fill: none; stroke-dasharray: 4.439704,1.919872; stroke-dashoffset: 0; stroke: #000000; stroke-width: 1.19992"/>
   </g>
   <g id="line2d_27">
    <path d="M 396.714994 164.702222 
L 396.714994 210.139259 
" clip-path="url(#p3d0a9c90a0)" style="fill: none; stroke-dasharray: 4.439704,1.919872; stroke-dashoffset: 0; stroke: #000000; stroke-width: 1.19992"/>
   </g>
   <g id="line2d_28">
    <path d="M 396.714994 210.139259 
L 396.714994 255.576296 
" clip-path="url(#p3d0a9c90a0)" style="fill: none; stroke-dasharray: 4.439704,1.919872; stroke-dashoffset: 0; stroke: #000000; stroke-width: 1.19992"/>
   </g>
   <g id="text_15">
    <g clip-path="url(#p3d0a9c90a0)">
     <!-- 6.11 -->
     <g style="fill: #ffffff" transform="translate(431.465242 108.055713) scale(0.095994 -0.095994)">
      <use xlink:href="#DejaVuSans-36"/>
      <use xlink:href="#DejaVuSans-2e" x="63.623047"/>
      <use xlink:href="#DejaVuSans-31" x="95.410156"/>
      <use xlink:href="#DejaVuSans-31" x="159.033203"/>
     </g>
    </g>
   </g>
   <g id="text_16">
    <g clip-path="url(#p3d0a9c90a0)">
     <!-- $\mathrm{R_X}$ -->
     <g style="fill: #ffffff" transform="translate(432.636664 96.420894) scale(0.15599 -0.15599)">
      <use xlink:href="#DejaVuSans-52" transform="translate(0 0.09375)"/>
      <use xlink:href="#DejaVuSans-58" transform="translate(70.439453 -16.3125) scale(0.7)"/>
     </g>
    </g>
   </g>
   <g id="text_17">
    <g clip-path="url(#p3d0a9c90a0)">
     <!-- 4.87 -->
     <g style="fill: #ffffff" transform="translate(431.465242 153.49275) scale(0.095994 -0.095994)">
      <use xlink:href="#DejaVuSans-34"/>
      <use xlink:href="#DejaVuSans-2e" x="63.623047"/>
      <use xlink:href="#DejaVuSans-38" x="95.410156"/>
      <use xlink:href="#DejaVuSans-37" x="159.033203"/>
     </g>
    </g>
   </g>
   <g id="text_18">
    <g clip-path="url(#p3d0a9c90a0)">
     <!-- $\mathrm{R_X}$ -->
     <g style="fill: #ffffff" transform="translate(432.636664 141.857931) scale(0.15599 -0.15599)">
      <use xlink:href="#DejaVuSans-52" transform="translate(0 0.09375)"/>
      <use xlink:href="#DejaVuSans-58" transform="translate(70.439453 -16.3125) scale(0.7)"/>
     </g>
    </g>
   </g>
   <g id="text_19">
    <g clip-path="url(#p3d0a9c90a0)">
     <!-- 4.97 -->
     <g style="fill: #ffffff" transform="translate(431.465242 198.929787) scale(0.095994 -0.095994)">
      <use xlink:href="#DejaVuSans-34"/>
      <use xlink:href="#DejaVuSans-2e" x="63.623047"/>
      <use xlink:href="#DejaVuSans-39" x="95.410156"/>
      <use xlink:href="#DejaVuSans-37" x="159.033203"/>
     </g>
    </g>
   </g>
   <g id="text_20">
    <g clip-path="url(#p3d0a9c90a0)">
     <!-- $\mathrm{R_X}$ -->
     <g style="fill: #ffffff" transform="translate(432.636664 187.294968) scale(0.15599 -0.15599)">
      <use xlink:href="#DejaVuSans-52" transform="translate(0 0.09375)"/>
      <use xlink:href="#DejaVuSans-58" transform="translate(70.439453 -16.3125) scale(0.7)"/>
     </g>
    </g>
   </g>
   <g id="text_21">
    <g clip-path="url(#p3d0a9c90a0)">
     <!-- 4.77 -->
     <g style="fill: #ffffff" transform="translate(431.465242 244.366824) scale(0.095994 -0.095994)">
      <use xlink:href="#DejaVuSans-34"/>
      <use xlink:href="#DejaVuSans-2e" x="63.623047"/>
      <use xlink:href="#DejaVuSans-37" x="95.410156"/>
      <use xlink:href="#DejaVuSans-37" x="159.033203"/>
     </g>
    </g>
   </g>
   <g id="text_22">
    <g clip-path="url(#p3d0a9c90a0)">
     <!-- $\mathrm{R_X}$ -->
     <g style="fill: #ffffff" transform="translate(432.636664 232.732005) scale(0.15599 -0.15599)">
      <use xlink:href="#DejaVuSans-52" transform="translate(0 0.09375)"/>
      <use xlink:href="#DejaVuSans-58" transform="translate(70.439453 -16.3125) scale(0.7)"/>
     </g>
    </g>
   </g>
   <g id="line2d_29">
    <path d="M 623.900179 28.391111 
L 623.900179 73.828148 
" clip-path="url(#p3d0a9c90a0)" style="fill: none; stroke-dasharray: 4.439704,1.919872; stroke-dashoffset: 0; stroke: #000000; stroke-width: 1.19992"/>
   </g>
   <g id="line2d_30">
    <path d="M 623.900179 73.828148 
L 623.900179 119.265185 
" clip-path="url(#p3d0a9c90a0)" style="fill: none; stroke-dasharray: 4.439704,1.919872; stroke-dashoffset: 0; stroke: #000000; stroke-width: 1.19992"/>
   </g>
   <g id="line2d_31">
    <path d="M 623.900179 119.265185 
L 623.900179 164.702222 
" clip-path="url(#p3d0a9c90a0)" style="fill: none; stroke-dasharray: 4.439704,1.919872; stroke-dashoffset: 0; stroke: #000000; stroke-width: 1.19992"/>
   </g>
   <g id="line2d_32">
    <path d="M 623.900179 164.702222 
L 623.900179 210.139259 
" clip-path="url(#p3d0a9c90a0)" style="fill: none; stroke-dasharray: 4.439704,1.919872; stroke-dashoffset: 0; stroke: #000000; stroke-width: 1.19992"/>
   </g>
   <g id="line2d_33">
    <path d="M 623.900179 210.139259 
L 623.900179 255.576296 
" clip-path="url(#p3d0a9c90a0)" style="fill: none; stroke-dasharray: 4.439704,1.919872; stroke-dashoffset: 0; stroke: #000000; stroke-width: 1.19992"/>
   </g>
   <g id="text_23">
    <g clip-path="url(#p3d0a9c90a0)">
     <!-- 0 -->
     <g style="fill: #ffffff" transform="translate(665.475068 55.413968) scale(0.15599 -0.15599)">
      <use xlink:href="#DejaVuSans-30"/>
     </g>
    </g>
   </g>
   <g id="text_24">
    <g clip-path="url(#p3d0a9c90a0)">
     <!-- 1 -->
     <g style="fill: #ffffff" transform="translate(665.475068 100.851005) scale(0.15599 -0.15599)">
      <use xlink:href="#DejaVuSans-31"/>
     </g>
    </g>
   </g>
   <g id="text_25">
    <g clip-path="url(#p3d0a9c90a0)">
     <!-- 2 -->
     <g style="fill: #ffffff" transform="translate(665.475068 146.288042) scale(0.15599 -0.15599)">
      <use xlink:href="#DejaVuSans-32"/>
     </g>
    </g>
   </g>
   <g id="text_26">
    <g clip-path="url(#p3d0a9c90a0)">
     <!-- 3 -->
     <g style="fill: #ffffff" transform="translate(665.475068 191.725079) scale(0.15599 -0.15599)">
      <use xlink:href="#DejaVuSans-33"/>
     </g>
    </g>
   </g>
   <g id="text_27">
    <g clip-path="url(#p3d0a9c90a0)">
     <!-- 4 -->
     <g style="fill: #ffffff" transform="translate(665.475068 237.162116) scale(0.15599 -0.15599)">
      <use xlink:href="#DejaVuSans-34"/>
     </g>
    </g>
   </g>
   <g id="text_28">
    <g clip-path="url(#p3d0a9c90a0)">
     <!-- Unitary -->
     <g style="fill: #ffffff" transform="translate(668.575955 146.288042) scale(0.15599 -0.15599)">
      <defs>
       <path id="DejaVuSans-55" d="M 556 4666 
L 1191 4666 
L 1191 1831 
Q 1191 1081 1462 751 
Q 1734 422 2344 422 
Q 2950 422 3222 751 
Q 3494 1081 3494 1831 
L 3494 4666 
L 4128 4666 
L 4128 1753 
Q 4128 841 3676 375 
Q 3225 -91 2344 -91 
Q 1459 -91 1007 375 
Q 556 841 556 1753 
L 556 4666 
z
" transform="scale(0.015625)"/>
       <path id="DejaVuSans-6e" d="M 3513 2113 
L 3513 0 
L 2938 0 
L 2938 2094 
Q 2938 2591 2744 2837 
Q 2550 3084 2163 3084 
Q 1697 3084 1428 2787 
Q 1159 2491 1159 1978 
L 1159 0 
L 581 0 
L 581 3500 
L 1159 3500 
L 1159 2956 
Q 1366 3272 1645 3428 
Q 1925 3584 2291 3584 
Q 2894 3584 3203 3211 
Q 3513 2838 3513 2113 
z
" transform="scale(0.015625)"/>
       <path id="DejaVuSans-69" d="M 603 3500 
L 1178 3500 
L 1178 0 
L 603 0 
L 603 3500 
z
M 603 4863 
L 1178 4863 
L 1178 4134 
L 603 4134 
L 603 4863 
z
" transform="scale(0.015625)"/>
       <path id="DejaVuSans-74" d="M 1172 4494 
L 1172 3500 
L 2356 3500 
L 2356 3053 
L 1172 3053 
L 1172 1153 
Q 1172 725 1289 603 
Q 1406 481 1766 481 
L 2356 481 
L 2356 0 
L 1766 0 
Q 1100 0 847 248 
Q 594 497 594 1153 
L 594 3053 
L 172 3053 
L 172 3500 
L 594 3500 
L 594 4494 
L 1172 4494 
z
" transform="scale(0.015625)"/>
       <path id="DejaVuSans-61" d="M 2194 1759 
Q 1497 1759 1228 1600 
Q 959 1441 959 1056 
Q 959 750 1161 570 
Q 1363 391 1709 391 
Q 2188 391 2477 730 
Q 2766 1069 2766 1631 
L 2766 1759 
L 2194 1759 
z
M 3341 1997 
L 3341 0 
L 2766 0 
L 2766 531 
Q 2569 213 2275 61 
Q 1981 -91 1556 -91 
Q 1019 -91 701 211 
Q 384 513 384 1019 
Q 384 1609 779 1909 
Q 1175 2209 1959 2209 
L 2766 2209 
L 2766 2266 
Q 2766 2663 2505 2880 
Q 2244 3097 1772 3097 
Q 1472 3097 1187 3025 
Q 903 2953 641 2809 
L 641 3341 
Q 956 3463 1253 3523 
Q 1550 3584 1831 3584 
Q 2591 3584 2966 3190 
Q 3341 2797 3341 1997 
z
" transform="scale(0.015625)"/>
       <path id="DejaVuSans-72" d="M 2631 2963 
Q 2534 3019 2420 3045 
Q 2306 3072 2169 3072 
Q 1681 3072 1420 2755 
Q 1159 2438 1159 1844 
L 1159 0 
L 581 0 
L 581 3500 
L 1159 3500 
L 1159 2956 
Q 1341 3275 1631 3429 
Q 1922 3584 2338 3584 
Q 2397 3584 2469 3576 
Q 2541 3569 2628 3553 
L 2631 2963 
z
" transform="scale(0.015625)"/>
       <path id="DejaVuSans-79" d="M 2059 -325 
Q 1816 -950 1584 -1140 
Q 1353 -1331 966 -1331 
L 506 -1331 
L 506 -850 
L 844 -850 
Q 1081 -850 1212 -737 
Q 1344 -625 1503 -206 
L 1606 56 
L 191 3500 
L 800 3500 
L 1894 763 
L 2988 3500 
L 3597 3500 
L 2059 -325 
z
" transform="scale(0.015625)"/>
      </defs>
      <use xlink:href="#DejaVuSans-55"/>
      <use xlink:href="#DejaVuSans-6e" x="73.193359"/>
      <use xlink:href="#DejaVuSans-69" x="136.572266"/>
      <use xlink:href="#DejaVuSans-74" x="164.355469"/>
      <use xlink:href="#DejaVuSans-61" x="203.564453"/>
      <use xlink:href="#DejaVuSans-72" x="264.84375"/>
      <use xlink:href="#DejaVuSans-79" x="305.957031"/>
     </g>
    </g>
   </g>
  </g>
 </g>
 <defs>
  <clipPath id="p3d0a9c90a0">
   <rect x="134.157302" y="14.76" width="610.605395" height="245.36"/>
  </clipPath>
 </defs>
</svg>
