<?xml version="1.0" encoding="utf-8" standalone="no"?>
<!DOCTYPE svg PUBLIC "-//W3C//DTD SVG 1.1//EN"
  "http://www.w3.org/Graphics/SVG/1.1/DTD/svg11.dtd">
<svg xmlns:xlink="http://www.w3.org/1999/xlink" width="1152pt" height="576pt" viewBox="0 0 1152 576" xmlns="http://www.w3.org/2000/svg" version="1.1">
 <metadata>
  <rdf:RDF xmlns:dc="http://purl.org/dc/elements/1.1/" xmlns:cc="http://creativecommons.org/ns#" xmlns:rdf="http://www.w3.org/1999/02/22-rdf-syntax-ns#">
   <cc:Work>
    <dc:type rdf:resource="http://purl.org/dc/dcmitype/StillImage"/>
    <dc:date>2024-11-02T19:02:00.805757</dc:date>
    <dc:format>image/svg+xml</dc:format>
    <dc:creator>
     <cc:Agent>
      <dc:title>Matplotlib v3.9.2, https://matplotlib.org/</dc:title>
     </cc:Agent>
    </dc:creator>
   </cc:Work>
  </rdf:RDF>
 </metadata>
 <defs>
  <style type="text/css">*{stroke-linejoin: round; stroke-linecap: butt}</style>
 </defs>
 <g id="figure_1">
  <g id="patch_1">
   <path d="M 0 576 
L 1152 576 
L 1152 0 
L 0 0 
z
" style="fill: #ffffff"/>
  </g>
  <g id="patch_2">
   <path d="M 28.8 576 
L 547.2 576 
L 547.2 57.6 
L 28.8 57.6 
z
" style="fill: #ffffff"/>
  </g>
  <g id="pane3d_1">
   <g id="patch_3">
    <path d="M 130.07018 436.456468 
L 253.494133 330.550231 
L 251.743197 126.70673 
L 122.643358 223.613571 
" style="fill: #f2f2f2; opacity: 0.5; stroke: #f2f2f2; stroke-linejoin: miter"/>
   </g>
  </g>
  <g id="pane3d_2">
   <g id="patch_4">
    <path d="M 253.494133 330.550231 
L 455.554898 390.069341 
L 462.583588 181.103065 
L 251.743197 126.70673 
" style="fill: #e6e6e6; opacity: 0.5; stroke: #e6e6e6; stroke-linejoin: miter"/>
   </g>
  </g>
  <g id="pane3d_3">
   <g id="patch_5">
    <path d="M 130.07018 436.456468 
L 340.912731 504.076731 
L 455.554898 390.069341 
L 253.494133 330.550231 
" style="fill: #ececec; opacity: 0.5; stroke: #ececec; stroke-linejoin: miter"/>
   </g>
  </g>
  <g id="grid3d_1">
   <g id="Line3DCollection_1">
    <path d="M 158.635886 445.617904 
L 280.925726 338.630493 
L 280.328796 134.081748 
" style="fill: none; stroke: #b0b0b0; stroke-width: 0.8"/>
    <path d="M 208.310046 461.549127 
L 328.58611 352.669358 
L 330.022474 146.902603 
" style="fill: none; stroke: #b0b0b0; stroke-width: 0.8"/>
    <path d="M 258.89502 477.772462 
L 377.066152 366.949661 
L 380.607663 159.953465 
" style="fill: none; stroke: #b0b0b0; stroke-width: 0.8"/>
    <path d="M 310.41609 494.296016 
L 426.38718 381.477685 
L 432.108569 173.24058 
" style="fill: none; stroke: #b0b0b0; stroke-width: 0.8"/>
   </g>
  </g>
  <g id="grid3d_2">
   <g id="Line3DCollection_2">
    <path d="M 141.757365 209.265931 
L 148.301379 420.812846 
L 357.880707 487.202708 
" style="fill: none; stroke: #b0b0b0; stroke-width: 0.8"/>
    <path d="M 173.704273 185.285468 
L 178.805664 394.638072 
L 386.24502 458.995448 
" style="fill: none; stroke: #b0b0b0; stroke-width: 0.8"/>
    <path d="M 204.65707 162.051218 
L 208.400054 369.24405 
L 413.731787 431.660877 
" style="fill: none; stroke: #b0b0b0; stroke-width: 0.8"/>
    <path d="M 234.661448 139.528886 
L 237.124663 344.596362 
L 440.38111 405.159111 
" style="fill: none; stroke: #b0b0b0; stroke-width: 0.8"/>
   </g>
  </g>
  <g id="grid3d_3">
   <g id="Line3DCollection_3">
    <path d="M 455.800147 382.777964 
L 253.432948 323.427068 
L 129.811338 429.038398 
" style="fill: none; stroke: #b0b0b0; stroke-width: 0.8"/>
    <path d="M 456.971007 347.967758 
L 253.14093 289.430454 
L 128.575287 393.614802 
" style="fill: none; stroke: #b0b0b0; stroke-width: 0.8"/>
    <path d="M 458.159043 312.646879 
L 252.844781 254.952857 
L 127.320599 357.657102 
" style="fill: none; stroke: #b0b0b0; stroke-width: 0.8"/>
    <path d="M 459.364637 276.804005 
L 252.544412 219.983996 
L 126.046849 321.153126 
" style="fill: none; stroke: #b0b0b0; stroke-width: 0.8"/>
    <path d="M 460.58818 240.427479 
L 252.239733 184.513295 
L 124.7536 284.090329 
" style="fill: none; stroke: #b0b0b0; stroke-width: 0.8"/>
    <path d="M 461.830077 203.505294 
L 251.930649 148.529875 
L 123.440401 246.455781 
" style="fill: none; stroke: #b0b0b0; stroke-width: 0.8"/>
   </g>
  </g>
  <g id="axis3d_1">
   <g id="line2d_1">
    <path d="M 130.07018 436.456468 
L 340.912731 504.076731 
" style="fill: none; stroke: #000000; stroke-width: 0.8; stroke-linecap: square"/>
   </g>
   <g id="xtick_1">
    <g id="line2d_2">
     <path d="M 159.677227 444.706868 
L 156.549953 447.442819 
" style="fill: none; stroke: #000000; stroke-width: 0.8; stroke-linecap: square"/>
    </g>
    <g id="text_1">
     <!-- 00 -->
     <g transform="translate(131.351686 489.365693) rotate(-45) scale(0.21 -0.21)">
      <defs>
       <path id="DejaVuSans-30" d="M 2034 4250 
Q 1547 4250 1301 3770 
Q 1056 3291 1056 2328 
Q 1056 1369 1301 889 
Q 1547 409 2034 409 
Q 2525 409 2770 889 
Q 3016 1369 3016 2328 
Q 3016 3291 2770 3770 
Q 2525 4250 2034 4250 
z
M 2034 4750 
Q 2819 4750 3233 4129 
Q 3647 3509 3647 2328 
Q 3647 1150 3233 529 
Q 2819 -91 2034 -91 
Q 1250 -91 836 529 
Q 422 1150 422 2328 
Q 422 3509 836 4129 
Q 1250 4750 2034 4750 
z
" transform="scale(0.015625)"/>
      </defs>
      <use xlink:href="#DejaVuSans-30"/>
      <use xlink:href="#DejaVuSans-30" x="63.623047"/>
     </g>
    </g>
   </g>
   <g id="xtick_2">
    <g id="line2d_3">
     <path d="M 209.334802 460.621468 
L 206.257306 463.407368 
" style="fill: none; stroke: #000000; stroke-width: 0.8; stroke-linecap: square"/>
    </g>
    <g id="text_2">
     <!-- 01 -->
     <g transform="translate(181.023931 505.435143) rotate(-45) scale(0.21 -0.21)">
      <defs>
       <path id="DejaVuSans-31" d="M 794 531 
L 1825 531 
L 1825 4091 
L 703 3866 
L 703 4441 
L 1819 4666 
L 2450 4666 
L 2450 531 
L 3481 531 
L 3481 0 
L 794 0 
L 794 531 
z
" transform="scale(0.015625)"/>
      </defs>
      <use xlink:href="#DejaVuSans-30"/>
      <use xlink:href="#DejaVuSans-31" x="63.623047"/>
     </g>
    </g>
   </g>
   <g id="xtick_3">
    <g id="line2d_4">
     <path d="M 259.902405 476.82772 
L 256.877048 479.664949 
" style="fill: none; stroke: #000000; stroke-width: 0.8; stroke-linecap: square"/>
    </g>
    <g id="text_3">
     <!-- 10 -->
     <g transform="translate(231.60781 521.799516) rotate(-45) scale(0.21 -0.21)">
      <use xlink:href="#DejaVuSans-31"/>
      <use xlink:href="#DejaVuSans-30" x="63.623047"/>
     </g>
    </g>
   </g>
   <g id="xtick_4">
    <g id="line2d_5">
     <path d="M 311.405283 493.333715 
L 308.434531 496.223705 
" style="fill: none; stroke: #000000; stroke-width: 0.8; stroke-linecap: square"/>
    </g>
    <g id="text_4">
     <!-- 11 -->
     <g transform="translate(283.128654 538.467006) rotate(-45) scale(0.21 -0.21)">
      <use xlink:href="#DejaVuSans-31"/>
      <use xlink:href="#DejaVuSans-31" x="63.623047"/>
     </g>
    </g>
   </g>
  </g>
  <g id="axis3d_2">
   <g id="line2d_6">
    <path d="M 455.554898 390.069341 
L 340.912731 504.076731 
" style="fill: none; stroke: #000000; stroke-width: 0.8; stroke-linecap: square"/>
   </g>
   <g id="xtick_5">
    <g id="line2d_7">
     <path d="M 356.140222 486.651363 
L 361.364886 488.306415 
" style="fill: none; stroke: #000000; stroke-width: 0.8; stroke-linecap: square"/>
    </g>
    <g id="text_5">
     <!-- 00 -->
     <g transform="translate(368.70027 499.207917) rotate(-337.5) scale(0.21 -0.21)">
      <use xlink:href="#DejaVuSans-30"/>
      <use xlink:href="#DejaVuSans-30" x="63.623047"/>
     </g>
    </g>
   </g>
   <g id="xtick_6">
    <g id="line2d_8">
     <path d="M 384.5233 458.46129 
L 389.691587 460.064734 
" style="fill: none; stroke: #000000; stroke-width: 0.8; stroke-linecap: square"/>
    </g>
    <g id="text_6">
     <!-- 01 -->
     <g transform="translate(396.913817 470.822876) rotate(-337.5) scale(0.21 -0.21)">
      <use xlink:href="#DejaVuSans-30"/>
      <use xlink:href="#DejaVuSans-31" x="63.623047"/>
     </g>
    </g>
   </g>
   <g id="xtick_7">
    <g id="line2d_9">
     <path d="M 412.028511 431.143114 
L 417.141381 432.697327 
" style="fill: none; stroke: #000000; stroke-width: 0.8; stroke-linecap: square"/>
    </g>
    <g id="text_7">
     <!-- 10 -->
     <g transform="translate(424.254695 443.315808) rotate(-337.5) scale(0.21 -0.21)">
      <use xlink:href="#DejaVuSans-31"/>
      <use xlink:href="#DejaVuSans-30" x="63.623047"/>
     </g>
    </g>
   </g>
   <g id="xtick_8">
    <g id="line2d_10">
     <path d="M 438.695964 404.657001 
L 443.754368 406.164215 
" style="fill: none; stroke: #000000; stroke-width: 0.8; stroke-linecap: square"/>
    </g>
    <g id="text_8">
     <!-- 11 -->
     <g transform="translate(450.762776 416.646599) rotate(-337.5) scale(0.21 -0.21)">
      <use xlink:href="#DejaVuSans-31"/>
      <use xlink:href="#DejaVuSans-31" x="63.623047"/>
     </g>
    </g>
   </g>
  </g>
  <g id="axis3d_3">
   <g id="line2d_11">
    <path d="M 455.554898 390.069341 
L 462.583588 181.103065 
" style="fill: none; stroke: #000000; stroke-width: 0.8; stroke-linecap: square"/>
   </g>
   <g id="xtick_9">
    <g id="line2d_12">
     <path d="M 454.122802 382.286027 
L 459.157767 383.762698 
" style="fill: none; stroke: #000000; stroke-width: 0.8; stroke-linecap: square"/>
    </g>
    <g id="text_9">
     <!-- −0.2 -->
     <g transform="translate(469.299776 376.494914) scale(0.21 -0.21)">
      <defs>
       <path id="DejaVuSans-2212" d="M 678 2272 
L 4684 2272 
L 4684 1741 
L 678 1741 
L 678 2272 
z
" transform="scale(0.015625)"/>
       <path id="DejaVuSans-2e" d="M 684 794 
L 1344 794 
L 1344 0 
L 684 0 
L 684 794 
z
" transform="scale(0.015625)"/>
       <path id="DejaVuSans-32" d="M 1228 531 
L 3431 531 
L 3431 0 
L 469 0 
L 469 531 
Q 828 903 1448 1529 
Q 2069 2156 2228 2338 
Q 2531 2678 2651 2914 
Q 2772 3150 2772 3378 
Q 2772 3750 2511 3984 
Q 2250 4219 1831 4219 
Q 1534 4219 1204 4116 
Q 875 4013 500 3803 
L 500 4441 
Q 881 4594 1212 4672 
Q 1544 4750 1819 4750 
Q 2544 4750 2975 4387 
Q 3406 4025 3406 3419 
Q 3406 3131 3298 2873 
Q 3191 2616 2906 2266 
Q 2828 2175 2409 1742 
Q 1991 1309 1228 531 
z
" transform="scale(0.015625)"/>
      </defs>
      <use xlink:href="#DejaVuSans-2212"/>
      <use xlink:href="#DejaVuSans-30" x="83.789062"/>
      <use xlink:href="#DejaVuSans-2e" x="147.412109"/>
      <use xlink:href="#DejaVuSans-32" x="179.199219"/>
     </g>
    </g>
   </g>
   <g id="xtick_10">
    <g id="line2d_13">
     <path d="M 455.281108 347.482442 
L 460.353777 348.939245 
" style="fill: none; stroke: #000000; stroke-width: 0.8; stroke-linecap: square"/>
    </g>
    <g id="text_10">
     <!-- −0.1 -->
     <g transform="translate(470.567487 341.710502) scale(0.21 -0.21)">
      <use xlink:href="#DejaVuSans-2212"/>
      <use xlink:href="#DejaVuSans-30" x="83.789062"/>
      <use xlink:href="#DejaVuSans-2e" x="147.412109"/>
      <use xlink:href="#DejaVuSans-31" x="179.199219"/>
     </g>
    </g>
   </g>
   <g id="xtick_11">
    <g id="line2d_14">
     <path d="M 456.456402 312.168431 
L 461.567343 313.604623 
" style="fill: none; stroke: #000000; stroke-width: 0.8; stroke-linecap: square"/>
    </g>
    <g id="text_11">
     <!-- 0.0 -->
     <g transform="translate(471.853775 306.416381) scale(0.21 -0.21)">
      <use xlink:href="#DejaVuSans-30"/>
      <use xlink:href="#DejaVuSans-2e" x="63.623047"/>
      <use xlink:href="#DejaVuSans-30" x="95.410156"/>
     </g>
    </g>
   </g>
   <g id="xtick_12">
    <g id="line2d_15">
     <path d="M 457.64906 276.332682 
L 462.798855 277.747492 
" style="fill: none; stroke: #000000; stroke-width: 0.8; stroke-linecap: square"/>
    </g>
    <g id="text_12">
     <!-- 0.1 -->
     <g transform="translate(473.15905 270.601265) scale(0.21 -0.21)">
      <use xlink:href="#DejaVuSans-30"/>
      <use xlink:href="#DejaVuSans-2e" x="63.623047"/>
      <use xlink:href="#DejaVuSans-31" x="95.410156"/>
     </g>
    </g>
   </g>
   <g id="xtick_13">
    <g id="line2d_16">
     <path d="M 458.859469 239.963547 
L 464.048713 241.356177 
" style="fill: none; stroke: #000000; stroke-width: 0.8; stroke-linecap: square"/>
    </g>
    <g id="text_13">
     <!-- 0.2 -->
     <g transform="translate(474.483736 234.253533) scale(0.21 -0.21)">
      <use xlink:href="#DejaVuSans-30"/>
      <use xlink:href="#DejaVuSans-2e" x="63.623047"/>
      <use xlink:href="#DejaVuSans-32" x="95.410156"/>
     </g>
    </g>
   </g>
   <g id="xtick_14">
    <g id="line2d_17">
     <path d="M 460.088029 203.049029 
L 465.31733 204.418651 
" style="fill: none; stroke: #000000; stroke-width: 0.8; stroke-linecap: square"/>
    </g>
    <g id="text_14">
     <!-- 0.3 -->
     <g transform="translate(475.82827 197.361214) scale(0.21 -0.21)">
      <defs>
       <path id="DejaVuSans-33" d="M 2597 2516 
Q 3050 2419 3304 2112 
Q 3559 1806 3559 1356 
Q 3559 666 3084 287 
Q 2609 -91 1734 -91 
Q 1441 -91 1130 -33 
Q 819 25 488 141 
L 488 750 
Q 750 597 1062 519 
Q 1375 441 1716 441 
Q 2309 441 2620 675 
Q 2931 909 2931 1356 
Q 2931 1769 2642 2001 
Q 2353 2234 1838 2234 
L 1294 2234 
L 1294 2753 
L 1863 2753 
Q 2328 2753 2575 2939 
Q 2822 3125 2822 3475 
Q 2822 3834 2567 4026 
Q 2313 4219 1838 4219 
Q 1578 4219 1281 4162 
Q 984 4106 628 3988 
L 628 4550 
Q 988 4650 1302 4700 
Q 1616 4750 1894 4750 
Q 2613 4750 3031 4423 
Q 3450 4097 3450 3541 
Q 3450 3153 3228 2886 
Q 3006 2619 2597 2516 
z
" transform="scale(0.015625)"/>
      </defs>
      <use xlink:href="#DejaVuSans-30"/>
      <use xlink:href="#DejaVuSans-2e" x="63.623047"/>
      <use xlink:href="#DejaVuSans-33" x="95.410156"/>
     </g>
    </g>
   </g>
  </g>
  <g id="axes_1">
   <g id="Poly3DCollection_1">
    <path d="M 245.791079 355.411799 
L 269.612317 362.544934 
L 283.572276 350.22848 
L 259.866748 343.199915 
z
" clip-path="url(#pb12efc11be)" style="fill: #577ddf"/>
    <path d="M 259.312771 267.209165 
L 259.866748 343.199915 
L 283.572276 350.22848 
L 283.391248 274.020438 
z
" clip-path="url(#pb12efc11be)" style="fill: #648fff"/>
    <path d="M 245.009364 279.044097 
L 245.791079 355.411799 
L 259.866748 343.199915 
L 259.312771 267.209165 
z
" clip-path="url(#pb12efc11be)" style="fill: #324880"/>
    <path d="M 293.638733 369.739508 
L 317.872991 376.99632 
L 331.593953 364.466656 
L 307.480474 357.317135 
z
" clip-path="url(#pb12efc11be)" style="fill: #577ddf"/>
    <path d="M 269.207219 285.958326 
L 283.391248 274.020438 
L 283.572276 350.22848 
L 269.612317 362.544934 
z
" clip-path="url(#pb12efc11be)" style="fill: #648fff"/>
    <path d="M 245.009364 279.044097 
L 269.207219 285.958326 
L 269.612317 362.544934 
L 245.791079 355.411799 
z
" clip-path="url(#pb12efc11be)" style="fill: #324880"/>
    <path d="M 307.678858 280.890869 
L 307.480474 357.317135 
L 331.593953 364.466656 
L 332.178336 287.821234 
z
" clip-path="url(#pb12efc11be)" style="fill: #648fff"/>
    <path d="M 293.616835 292.933063 
L 293.638733 369.739508 
L 307.480474 357.317135 
L 307.678858 280.890869 
z
" clip-path="url(#pb12efc11be)" style="fill: #324880"/>
    <path d="M 217.005775 380.385588 
L 241.060907 387.734988 
L 255.443436 375.045713 
L 231.505663 367.805657 
z
" clip-path="url(#pb12efc11be)" style="fill: #577ddf"/>
    <path d="M 245.009364 279.044097 
L 259.312771 267.209165 
L 283.391248 274.020438 
L 269.207219 285.958326 
z
" clip-path="url(#pb12efc11be)" style="fill: #3f599f"/>
    <path d="M 318.241006 299.969106 
L 332.178336 287.821234 
L 331.593953 364.466656 
L 317.872991 376.99632 
z
" clip-path="url(#pb12efc11be)" style="fill: #648fff"/>
    <path d="M 230.489404 291.058208 
L 231.505663 367.805657 
L 255.443436 375.045713 
L 254.807501 298.077746 
z
" clip-path="url(#pb12efc11be)" style="fill: #648fff"/>
    <path d="M 293.616835 292.933063 
L 318.241006 299.969106 
L 317.872991 376.99632 
L 293.638733 369.739508 
z
" clip-path="url(#pb12efc11be)" style="fill: #324880"/>
    <path d="M 215.747937 303.2556 
L 217.005775 380.385588 
L 231.505663 367.805657 
L 230.489404 291.058208 
z
" clip-path="url(#pb12efc11be)" style="fill: #324880"/>
    <path d="M 265.326371 395.148648 
L 289.804936 402.627416 
L 303.944894 389.715135 
L 279.588941 382.348599 
z
" clip-path="url(#pb12efc11be)" style="fill: #577ddf"/>
    <path d="M 293.616835 292.933063 
L 307.678858 280.890869 
L 332.178336 287.821234 
L 318.241006 299.969106 
z
" clip-path="url(#pb12efc11be)" style="fill: #3f599f"/>
    <path d="M 240.187139 310.38287 
L 254.807501 298.077746 
L 255.443436 375.045713 
L 241.060907 387.734988 
z
" clip-path="url(#pb12efc11be)" style="fill: #648fff"/>
    <path d="M 215.747937 303.2556 
L 240.187139 310.38287 
L 241.060907 387.734988 
L 217.005775 380.385588 
z
" clip-path="url(#pb12efc11be)" style="fill: #324880"/>
    <path d="M 279.340038 305.159182 
L 279.588941 382.348599 
L 303.944894 389.715135 
L 304.089863 312.30334 
z
" clip-path="url(#pb12efc11be)" style="fill: #648fff"/>
    <path d="M 264.843507 317.573473 
L 265.326371 395.148648 
L 279.588941 382.348599 
L 279.340038 305.159182 
z
" clip-path="url(#pb12efc11be)" style="fill: #324880"/>
    <path d="M 215.747937 303.2556 
L 230.489404 291.058208 
L 254.807501 298.077746 
L 240.187139 310.38287 
z
" clip-path="url(#pb12efc11be)" style="fill: #3f599f"/>
    <path d="M 289.719949 324.828256 
L 304.089863 312.30334 
L 303.944894 389.715135 
L 289.804936 402.627416 
z
" clip-path="url(#pb12efc11be)" style="fill: #648fff"/>
    <path d="M 264.843507 317.573473 
L 289.719949 324.828256 
L 289.804936 402.627416 
L 265.326371 395.148648 
z
" clip-path="url(#pb12efc11be)" style="fill: #324880"/>
    <path d="M 264.843507 317.573473 
L 279.340038 305.159182 
L 304.089863 312.30334 
L 289.719949 324.828256 
z
" clip-path="url(#pb12efc11be)" style="fill: #3f599f"/>
    <path d="M 285.817832 436.830448 
L 310.990344 444.680593 
L 325.311406 431.128178 
L 300.269021 423.398695 
z
" clip-path="url(#pb12efc11be)" style="fill: #577ddf"/>
    <path d="M 300.356101 344.982886 
L 300.269021 423.398695 
L 325.311406 431.128178 
L 325.815059 352.484943 
z
" clip-path="url(#pb12efc11be)" style="fill: #648fff"/>
    <path d="M 285.664635 358.020144 
L 285.817832 436.830448 
L 300.269021 423.398695 
L 300.356101 344.982886 
z
" clip-path="url(#pb12efc11be)" style="fill: #324880"/>
    <path d="M 336.390382 452.601693 
L 362.021045 460.594713 
L 376.072987 446.796046 
L 350.578383 438.926983 
z
" clip-path="url(#pb12efc11be)" style="fill: #577ddf"/>
    <path d="M 311.258101 365.641276 
L 325.815059 352.484943 
L 325.311406 431.128178 
L 310.990344 444.680593 
z
" clip-path="url(#pb12efc11be)" style="fill: #648fff"/>
    <path d="M 285.664635 358.020144 
L 311.258101 365.641276 
L 310.990344 444.680593 
L 285.817832 436.830448 
z
" clip-path="url(#pb12efc11be)" style="fill: #324880"/>
    <path d="M 351.506156 360.055404 
L 350.578383 438.926983 
L 376.072987 446.796046 
L 377.432583 367.695211 
z
" clip-path="url(#pb12efc11be)" style="fill: #648fff"/>
    <path d="M 337.08679 373.332453 
L 336.390382 452.601693 
L 350.578383 438.926983 
L 351.506156 360.055404 
z
" clip-path="url(#pb12efc11be)" style="fill: #324880"/>
    <path d="M 256.232215 464.328996 
L 281.668038 472.429097 
L 296.444335 458.445881 
L 271.140677 450.472227 
z
" clip-path="url(#pb12efc11be)" style="fill: #577ddf"/>
    <path d="M 285.664635 358.020144 
L 300.356101 344.982886 
L 325.815059 352.484943 
L 311.258101 365.641276 
z
" clip-path="url(#pb12efc11be)" style="fill: #3f599f"/>
    <path d="M 363.153961 381.094644 
L 377.432583 367.695211 
L 376.072987 446.796046 
L 362.021045 460.594713 
z
" clip-path="url(#pb12efc11be)" style="fill: #648fff"/>
    <path d="M 270.739586 371.264684 
L 271.140677 450.472227 
L 296.444335 458.445881 
L 296.468631 379.007751 
z
" clip-path="url(#pb12efc11be)" style="fill: #648fff"/>
    <path d="M 337.08679 373.332453 
L 363.153961 381.094644 
L 362.021045 460.594713 
L 336.390382 452.601693 
z
" clip-path="url(#pb12efc11be)" style="fill: #324880"/>
    <path d="M 255.575337 384.721491 
L 256.232215 464.328996 
L 271.140677 450.472227 
L 270.739586 371.264684 
z
" clip-path="url(#pb12efc11be)" style="fill: #324880"/>
    <path d="M 307.337424 480.603576 
L 333.243605 488.853463 
L 347.746364 474.612105 
L 321.978509 466.492174 
z
" clip-path="url(#pb12efc11be)" style="fill: #577ddf"/>
    <path d="M 337.08679 373.332453 
L 351.506156 360.055404 
L 377.432583 367.695211 
L 363.153961 381.094644 
z
" clip-path="url(#pb12efc11be)" style="fill: #3f599f"/>
    <path d="M 281.441033 392.589441 
L 296.468631 379.007751 
L 296.444335 458.445881 
L 281.668038 472.429097 
z
" clip-path="url(#pb12efc11be)" style="fill: #648fff"/>
    <path d="M 255.575337 384.721491 
L 281.441033 392.589441 
L 281.668038 472.429097 
L 256.232215 464.328996 
z
" clip-path="url(#pb12efc11be)" style="fill: #324880"/>
    <path d="M 322.436043 386.822553 
L 321.978509 466.492174 
L 347.746364 474.612105 
L 348.645149 394.710092 
z
" clip-path="url(#pb12efc11be)" style="fill: #648fff"/>
    <path d="M 307.548299 400.530873 
L 307.337424 480.603576 
L 321.978509 466.492174 
L 322.436043 386.822553 
z
" clip-path="url(#pb12efc11be)" style="fill: #324880"/>
    <path d="M 255.575337 384.721491 
L 270.739586 371.264684 
L 296.468631 379.007751 
L 281.441033 392.589441 
z
" clip-path="url(#pb12efc11be)" style="fill: #3f599f"/>
    <path d="M 333.900537 408.546822 
L 348.645149 394.710092 
L 347.746364 474.612105 
L 333.243605 488.853463 
z
" clip-path="url(#pb12efc11be)" style="fill: #648fff"/>
    <path d="M 307.548299 400.530873 
L 333.900537 408.546822 
L 333.243605 488.853463 
L 307.337424 480.603576 
z
" clip-path="url(#pb12efc11be)" style="fill: #324880"/>
    <path d="M 307.548299 400.530873 
L 322.436043 386.822553 
L 348.645149 394.710092 
L 333.900537 408.546822 
z
" clip-path="url(#pb12efc11be)" style="fill: #3f599f"/>
   </g>
   <g id="Poly3DCollection_2">
    <path d="M 134.117356 356.73241 
L 339.743706 419.619146 
L 451.717591 313.523231 
L 254.452324 257.999019 
z
" clip-path="url(#pb12efc11be)" style="fill-opacity: 0.25"/>
   </g>
   <g id="Poly3DCollection_3">
    <path d="M 343.082573 307.067267 
L 356.892468 294.812319 
L 381.824086 301.864926 
L 368.144426 314.228373 
z
" clip-path="url(#pb12efc11be)" style="fill: #3f599f"/>
    <path d="M 356.892468 294.812319 
L 357.527672 244.842657 
L 382.719149 251.745838 
L 381.824086 301.864926 
z
" clip-path="url(#pb12efc11be)" style="fill: #324880"/>
    <path d="M 343.082573 307.067267 
L 343.579845 256.838354 
L 357.527672 244.842657 
L 356.892468 294.812319 
z
" clip-path="url(#pb12efc11be)" style="fill: #648fff"/>
    <path d="M 368.144426 314.228373 
L 381.824086 301.864926 
L 382.719149 251.745838 
L 368.904308 263.848839 
z
" clip-path="url(#pb12efc11be)" style="fill: #324880"/>
    <path d="M 393.42951 321.453264 
L 406.976075 308.979872 
L 432.351369 316.157985 
L 418.94082 328.742796 
z
" clip-path="url(#pb12efc11be)" style="fill: #3f599f"/>
    <path d="M 343.082573 307.067267 
L 368.144426 314.228373 
L 368.904308 263.848839 
L 343.579845 256.838354 
z
" clip-path="url(#pb12efc11be)" style="fill: #648fff"/>
    <path d="M 406.976075 308.979872 
L 408.135598 258.710668 
L 433.780048 265.737976 
L 432.351369 316.157985 
z
" clip-path="url(#pb12efc11be)" style="fill: #324880"/>
    <path d="M 343.579845 256.838354 
L 368.904308 263.848839 
L 382.719149 251.745838 
L 357.527672 244.842657 
z
" clip-path="url(#pb12efc11be)" style="fill: #577ddf"/>
    <path d="M 393.42951 321.453264 
L 394.456695 270.92242 
L 408.135598 258.710668 
L 406.976075 308.979872 
z
" clip-path="url(#pb12efc11be)" style="fill: #648fff"/>
    <path d="M 185.57989 328.217258 
L 200.779854 315.640497 
L 225.341021 322.878 
L 210.263879 335.56757 
z
" clip-path="url(#pb12efc11be)" style="fill: #3f599f"/>
    <path d="M 314.819424 332.148083 
L 329.059877 319.511056 
L 354.25303 326.783183 
L 340.144945 339.533833 
z
" clip-path="url(#pb12efc11be)" style="fill: #3f599f"/>
    <path d="M 418.94082 328.742796 
L 432.351369 316.157985 
L 433.780048 265.737976 
L 420.240096 278.059952 
z
" clip-path="url(#pb12efc11be)" style="fill: #324880"/>
    <path d="M 329.059877 319.511056 
L 329.414852 269.020824 
L 354.873401 276.141135 
L 354.25303 326.783183 
z
" clip-path="url(#pb12efc11be)" style="fill: #324880"/>
    <path d="M 393.42951 321.453264 
L 418.94082 328.742796 
L 420.240096 278.059952 
L 394.456695 270.92242 
z
" clip-path="url(#pb12efc11be)" style="fill: #648fff"/>
    <path d="M 314.819424 332.148083 
L 315.027581 281.394461 
L 329.414852 269.020824 
L 329.059877 319.511056 
z
" clip-path="url(#pb12efc11be)" style="fill: #648fff"/>
    <path d="M 394.456695 270.92242 
L 420.240096 278.059952 
L 433.780048 265.737976 
L 408.135598 258.710668 
z
" clip-path="url(#pb12efc11be)" style="fill: #577ddf"/>
    <path d="M 235.170637 342.984217 
L 250.122131 330.180313 
L 275.12615 337.548312 
L 260.303194 350.468102 
z
" clip-path="url(#pb12efc11be)" style="fill: #3f599f"/>
    <path d="M 200.779854 315.640497 
L 198.219714 183.92844 
L 223.439549 190.76036 
L 225.341021 322.878 
z
" clip-path="url(#pb12efc11be)" style="fill: #324880"/>
    <path d="M 340.144945 339.533833 
L 354.25303 326.783183 
L 354.873401 276.141135 
L 340.621317 288.6272 
z
" clip-path="url(#pb12efc11be)" style="fill: #324880"/>
    <path d="M 185.57989 328.217258 
L 182.583102 195.801472 
L 198.219714 183.92844 
L 200.779854 315.640497 
z
" clip-path="url(#pb12efc11be)" style="fill: #648fff"/>
    <path d="M 365.699579 346.9864 
L 379.672328 334.120587 
L 405.320829 341.524152 
L 391.48645 354.506694 
z
" clip-path="url(#pb12efc11be)" style="fill: #3f599f"/>
    <path d="M 314.819424 332.148083 
L 340.144945 339.533833 
L 340.621317 288.6272 
L 315.027581 281.394461 
z
" clip-path="url(#pb12efc11be)" style="fill: #648fff"/>
    <path d="M 379.672328 334.120587 
L 380.56288 283.326033 
L 406.486446 290.576402 
L 405.320829 341.524152 
z
" clip-path="url(#pb12efc11be)" style="fill: #324880"/>
    <path d="M 315.027581 281.394461 
L 340.621317 288.6272 
L 354.873401 276.141135 
L 329.414852 269.020824 
z
" clip-path="url(#pb12efc11be)" style="fill: #577ddf"/>
    <path d="M 365.699579 346.9864 
L 366.449049 295.926064 
L 380.56288 283.326033 
L 379.672328 334.120587 
z
" clip-path="url(#pb12efc11be)" style="fill: #648fff"/>
    <path d="M 154.462425 353.964485 
L 170.142614 340.990376 
L 194.950276 348.456155 
L 179.394606 361.548474 
z
" clip-path="url(#pb12efc11be)" style="fill: #3f599f"/>
    <path d="M 210.263879 335.56757 
L 225.341021 322.878 
L 223.439549 190.76036 
L 207.932387 202.742813 
z
" clip-path="url(#pb12efc11be)" style="fill: #324880"/>
    <path d="M 185.57989 328.217258 
L 210.263879 335.56757 
L 207.932387 202.742813 
L 182.583102 195.801472 
z
" clip-path="url(#pb12efc11be)" style="fill: #648fff"/>
    <path d="M 250.122131 330.180313 
L 248.891417 197.655135 
L 274.578536 204.613639 
L 275.12615 337.548312 
z
" clip-path="url(#pb12efc11be)" style="fill: #324880"/>
    <path d="M 391.48645 354.506694 
L 405.320829 341.524152 
L 406.486446 290.576402 
L 392.513999 303.291967 
z
" clip-path="url(#pb12efc11be)" style="fill: #324880"/>
    <path d="M 235.170637 342.984217 
L 233.516771 209.748531 
L 248.891417 197.655135 
L 250.122131 330.180313 
z
" clip-path="url(#pb12efc11be)" style="fill: #648fff"/>
    <path d="M 365.699579 346.9864 
L 391.48645 354.506694 
L 392.513999 303.291967 
L 366.449049 295.926064 
z
" clip-path="url(#pb12efc11be)" style="fill: #648fff"/>
    <path d="M 366.449049 295.926064 
L 392.513999 303.291967 
L 406.486446 290.576402 
L 380.56288 283.326033 
z
" clip-path="url(#pb12efc11be)" style="fill: #577ddf"/>
    <path d="M 204.55537 369.201995 
L 219.983587 355.989843 
L 245.24564 363.59237 
L 229.947875 376.926008 
z
" clip-path="url(#pb12efc11be)" style="fill: #3f599f"/>
    <path d="M 260.303194 350.468102 
L 275.12615 337.548312 
L 274.578536 204.613639 
L 259.339537 216.819525 
z
" clip-path="url(#pb12efc11be)" style="fill: #324880"/>
    <path d="M 170.142614 340.990376 
L 166.695621 207.86499 
L 192.175277 214.918404 
L 194.950276 348.456155 
z
" clip-path="url(#pb12efc11be)" style="fill: #324880"/>
    <path d="M 235.170637 342.984217 
L 260.303194 350.468102 
L 259.339537 216.819525 
L 233.516771 209.748531 
z
" clip-path="url(#pb12efc11be)" style="fill: #648fff"/>
    <path d="M 182.583102 195.801472 
L 207.932387 202.742813 
L 223.439549 190.76036 
L 198.219714 183.92844 
z
" clip-path="url(#pb12efc11be)" style="fill: #577ddf"/>
    <path d="M 154.462425 353.964485 
L 150.551185 220.123617 
L 166.695621 207.86499 
L 170.142614 340.990376 
z
" clip-path="url(#pb12efc11be)" style="fill: #648fff"/>
    <path d="M 179.394606 361.548474 
L 194.950276 348.456155 
L 192.175277 214.918404 
L 176.162124 227.29184 
z
" clip-path="url(#pb12efc11be)" style="fill: #324880"/>
    <path d="M 154.462425 353.964485 
L 179.394606 361.548474 
L 176.162124 227.29184 
L 150.551185 220.123617 
z
" clip-path="url(#pb12efc11be)" style="fill: #648fff"/>
    <path d="M 219.983587 355.989843 
L 217.893152 222.037763 
L 243.852605 229.223997 
L 245.24564 363.59237 
z
" clip-path="url(#pb12efc11be)" style="fill: #324880"/>
    <path d="M 233.516771 209.748531 
L 259.339537 216.819525 
L 274.578536 204.613639 
L 248.891417 197.655135 
z
" clip-path="url(#pb12efc11be)" style="fill: #577ddf"/>
    <path d="M 204.55537 369.201995 
L 202.014465 234.527628 
L 217.893152 222.037763 
L 219.983587 355.989843 
z
" clip-path="url(#pb12efc11be)" style="fill: #648fff"/>
    <path d="M 229.947875 376.926008 
L 245.24564 363.59237 
L 243.852605 229.223997 
L 228.111637 241.831942 
z
" clip-path="url(#pb12efc11be)" style="fill: #324880"/>
    <path d="M 204.55537 369.201995 
L 229.947875 376.926008 
L 228.111637 241.831942 
L 202.014465 234.527628 
z
" clip-path="url(#pb12efc11be)" style="fill: #648fff"/>
    <path d="M 150.551185 220.123617 
L 176.162124 227.29184 
L 192.175277 214.918404 
L 166.695621 207.86499 
z
" clip-path="url(#pb12efc11be)" style="fill: #577ddf"/>
    <path d="M 202.014465 234.527628 
L 228.111637 241.831942 
L 243.852605 229.223997 
L 217.893152 222.037763 
z
" clip-path="url(#pb12efc11be)" style="fill: #577ddf"/>
   </g>
   <g id="text_15">
    <!-- Real Amplitude (ρ) -->
    <g transform="translate(190.023516 51.6) scale(0.21 -0.21)">
     <defs>
      <path id="DejaVuSans-52" d="M 2841 2188 
Q 3044 2119 3236 1894 
Q 3428 1669 3622 1275 
L 4263 0 
L 3584 0 
L 2988 1197 
Q 2756 1666 2539 1819 
Q 2322 1972 1947 1972 
L 1259 1972 
L 1259 0 
L 628 0 
L 628 4666 
L 2053 4666 
Q 2853 4666 3247 4331 
Q 3641 3997 3641 3322 
Q 3641 2881 3436 2590 
Q 3231 2300 2841 2188 
z
M 1259 4147 
L 1259 2491 
L 2053 2491 
Q 2509 2491 2742 2702 
Q 2975 2913 2975 3322 
Q 2975 3731 2742 3939 
Q 2509 4147 2053 4147 
L 1259 4147 
z
" transform="scale(0.015625)"/>
      <path id="DejaVuSans-65" d="M 3597 1894 
L 3597 1613 
L 953 1613 
Q 991 1019 1311 708 
Q 1631 397 2203 397 
Q 2534 397 2845 478 
Q 3156 559 3463 722 
L 3463 178 
Q 3153 47 2828 -22 
Q 2503 -91 2169 -91 
Q 1331 -91 842 396 
Q 353 884 353 1716 
Q 353 2575 817 3079 
Q 1281 3584 2069 3584 
Q 2775 3584 3186 3129 
Q 3597 2675 3597 1894 
z
M 3022 2063 
Q 3016 2534 2758 2815 
Q 2500 3097 2075 3097 
Q 1594 3097 1305 2825 
Q 1016 2553 972 2059 
L 3022 2063 
z
" transform="scale(0.015625)"/>
      <path id="DejaVuSans-61" d="M 2194 1759 
Q 1497 1759 1228 1600 
Q 959 1441 959 1056 
Q 959 750 1161 570 
Q 1363 391 1709 391 
Q 2188 391 2477 730 
Q 2766 1069 2766 1631 
L 2766 1759 
L 2194 1759 
z
M 3341 1997 
L 3341 0 
L 2766 0 
L 2766 531 
Q 2569 213 2275 61 
Q 1981 -91 1556 -91 
Q 1019 -91 701 211 
Q 384 513 384 1019 
Q 384 1609 779 1909 
Q 1175 2209 1959 2209 
L 2766 2209 
L 2766 2266 
Q 2766 2663 2505 2880 
Q 2244 3097 1772 3097 
Q 1472 3097 1187 3025 
Q 903 2953 641 2809 
L 641 3341 
Q 956 3463 1253 3523 
Q 1550 3584 1831 3584 
Q 2591 3584 2966 3190 
Q 3341 2797 3341 1997 
z
" transform="scale(0.015625)"/>
      <path id="DejaVuSans-6c" d="M 603 4863 
L 1178 4863 
L 1178 0 
L 603 0 
L 603 4863 
z
" transform="scale(0.015625)"/>
      <path id="DejaVuSans-20" transform="scale(0.015625)"/>
      <path id="DejaVuSans-41" d="M 2188 4044 
L 1331 1722 
L 3047 1722 
L 2188 4044 
z
M 1831 4666 
L 2547 4666 
L 4325 0 
L 3669 0 
L 3244 1197 
L 1141 1197 
L 716 0 
L 50 0 
L 1831 4666 
z
" transform="scale(0.015625)"/>
      <path id="DejaVuSans-6d" d="M 3328 2828 
Q 3544 3216 3844 3400 
Q 4144 3584 4550 3584 
Q 5097 3584 5394 3201 
Q 5691 2819 5691 2113 
L 5691 0 
L 5113 0 
L 5113 2094 
Q 5113 2597 4934 2840 
Q 4756 3084 4391 3084 
Q 3944 3084 3684 2787 
Q 3425 2491 3425 1978 
L 3425 0 
L 2847 0 
L 2847 2094 
Q 2847 2600 2669 2842 
Q 2491 3084 2119 3084 
Q 1678 3084 1418 2786 
Q 1159 2488 1159 1978 
L 1159 0 
L 581 0 
L 581 3500 
L 1159 3500 
L 1159 2956 
Q 1356 3278 1631 3431 
Q 1906 3584 2284 3584 
Q 2666 3584 2933 3390 
Q 3200 3197 3328 2828 
z
" transform="scale(0.015625)"/>
      <path id="DejaVuSans-70" d="M 1159 525 
L 1159 -1331 
L 581 -1331 
L 581 3500 
L 1159 3500 
L 1159 2969 
Q 1341 3281 1617 3432 
Q 1894 3584 2278 3584 
Q 2916 3584 3314 3078 
Q 3713 2572 3713 1747 
Q 3713 922 3314 415 
Q 2916 -91 2278 -91 
Q 1894 -91 1617 61 
Q 1341 213 1159 525 
z
M 3116 1747 
Q 3116 2381 2855 2742 
Q 2594 3103 2138 3103 
Q 1681 3103 1420 2742 
Q 1159 2381 1159 1747 
Q 1159 1113 1420 752 
Q 1681 391 2138 391 
Q 2594 391 2855 752 
Q 3116 1113 3116 1747 
z
" transform="scale(0.015625)"/>
      <path id="DejaVuSans-69" d="M 603 3500 
L 1178 3500 
L 1178 0 
L 603 0 
L 603 3500 
z
M 603 4863 
L 1178 4863 
L 1178 4134 
L 603 4134 
L 603 4863 
z
" transform="scale(0.015625)"/>
      <path id="DejaVuSans-74" d="M 1172 4494 
L 1172 3500 
L 2356 3500 
L 2356 3053 
L 1172 3053 
L 1172 1153 
Q 1172 725 1289 603 
Q 1406 481 1766 481 
L 2356 481 
L 2356 0 
L 1766 0 
Q 1100 0 847 248 
Q 594 497 594 1153 
L 594 3053 
L 172 3053 
L 172 3500 
L 594 3500 
L 594 4494 
L 1172 4494 
z
" transform="scale(0.015625)"/>
      <path id="DejaVuSans-75" d="M 544 1381 
L 544 3500 
L 1119 3500 
L 1119 1403 
Q 1119 906 1312 657 
Q 1506 409 1894 409 
Q 2359 409 2629 706 
Q 2900 1003 2900 1516 
L 2900 3500 
L 3475 3500 
L 3475 0 
L 2900 0 
L 2900 538 
Q 2691 219 2414 64 
Q 2138 -91 1772 -91 
Q 1169 -91 856 284 
Q 544 659 544 1381 
z
M 1991 3584 
L 1991 3584 
z
" transform="scale(0.015625)"/>
      <path id="DejaVuSans-64" d="M 2906 2969 
L 2906 4863 
L 3481 4863 
L 3481 0 
L 2906 0 
L 2906 525 
Q 2725 213 2448 61 
Q 2172 -91 1784 -91 
Q 1150 -91 751 415 
Q 353 922 353 1747 
Q 353 2572 751 3078 
Q 1150 3584 1784 3584 
Q 2172 3584 2448 3432 
Q 2725 3281 2906 2969 
z
M 947 1747 
Q 947 1113 1208 752 
Q 1469 391 1925 391 
Q 2381 391 2643 752 
Q 2906 1113 2906 1747 
Q 2906 2381 2643 2742 
Q 2381 3103 1925 3103 
Q 1469 3103 1208 2742 
Q 947 2381 947 1747 
z
" transform="scale(0.015625)"/>
      <path id="DejaVuSans-28" d="M 1984 4856 
Q 1566 4138 1362 3434 
Q 1159 2731 1159 2009 
Q 1159 1288 1364 580 
Q 1569 -128 1984 -844 
L 1484 -844 
Q 1016 -109 783 600 
Q 550 1309 550 2009 
Q 550 2706 781 3412 
Q 1013 4119 1484 4856 
L 1984 4856 
z
" transform="scale(0.015625)"/>
      <path id="DejaVuSans-3c1" d="M 863 2875 
Q 1053 3194 1525 3475 
Q 1709 3584 2278 3584 
Q 2916 3584 3314 3078 
Q 3713 2572 3713 1747 
Q 3713 922 3314 415 
Q 2916 -91 2278 -91 
Q 1894 -91 1617 61 
Q 1341 213 1159 525 
L 1159 -1331 
L 581 -1331 
L 581 1716 
Q 581 2438 863 2875 
z
M 3116 1747 
Q 3116 2381 2855 2742 
Q 2594 3103 2138 3103 
Q 1681 3103 1420 2742 
Q 1159 2381 1159 1747 
Q 1159 1113 1420 752 
Q 1681 391 2138 391 
Q 2594 391 2855 752 
Q 3116 1113 3116 1747 
z
" transform="scale(0.015625)"/>
      <path id="DejaVuSans-29" d="M 513 4856 
L 1013 4856 
Q 1481 4119 1714 3412 
Q 1947 2706 1947 2009 
Q 1947 1309 1714 600 
Q 1481 -109 1013 -844 
L 513 -844 
Q 928 -128 1133 580 
Q 1338 1288 1338 2009 
Q 1338 2731 1133 3434 
Q 928 4138 513 4856 
z
" transform="scale(0.015625)"/>
     </defs>
     <use xlink:href="#DejaVuSans-52"/>
     <use xlink:href="#DejaVuSans-65" x="64.982422"/>
     <use xlink:href="#DejaVuSans-61" x="126.505859"/>
     <use xlink:href="#DejaVuSans-6c" x="187.785156"/>
     <use xlink:href="#DejaVuSans-20" x="215.568359"/>
     <use xlink:href="#DejaVuSans-41" x="247.355469"/>
     <use xlink:href="#DejaVuSans-6d" x="315.763672"/>
     <use xlink:href="#DejaVuSans-70" x="413.175781"/>
     <use xlink:href="#DejaVuSans-6c" x="476.652344"/>
     <use xlink:href="#DejaVuSans-69" x="504.435547"/>
     <use xlink:href="#DejaVuSans-74" x="532.21875"/>
     <use xlink:href="#DejaVuSans-75" x="571.427734"/>
     <use xlink:href="#DejaVuSans-64" x="634.806641"/>
     <use xlink:href="#DejaVuSans-65" x="698.283203"/>
     <use xlink:href="#DejaVuSans-20" x="759.806641"/>
     <use xlink:href="#DejaVuSans-28" x="791.59375"/>
     <use xlink:href="#DejaVuSans-3c1" x="830.607422"/>
     <use xlink:href="#DejaVuSans-29" x="894.083984"/>
    </g>
   </g>
  </g>
  <g id="patch_6">
   <path d="M 604.8 576 
L 1123.2 576 
L 1123.2 57.6 
L 604.8 57.6 
z
" style="fill: #ffffff"/>
  </g>
  <g id="pane3d_4">
   <g id="patch_7">
    <path d="M 706.07018 436.456468 
L 829.494133 330.550231 
L 827.743197 126.70673 
L 698.643358 223.613571 
" style="fill: #f2f2f2; opacity: 0.5; stroke: #f2f2f2; stroke-linejoin: miter"/>
   </g>
  </g>
  <g id="pane3d_5">
   <g id="patch_8">
    <path d="M 829.494133 330.550231 
L 1031.554898 390.069341 
L 1038.583588 181.103065 
L 827.743197 126.70673 
" style="fill: #e6e6e6; opacity: 0.5; stroke: #e6e6e6; stroke-linejoin: miter"/>
   </g>
  </g>
  <g id="pane3d_6">
   <g id="patch_9">
    <path d="M 706.07018 436.456468 
L 916.912731 504.076731 
L 1031.554898 390.069341 
L 829.494133 330.550231 
" style="fill: #ececec; opacity: 0.5; stroke: #ececec; stroke-linejoin: miter"/>
   </g>
  </g>
  <g id="grid3d_4">
   <g id="Line3DCollection_4">
    <path d="M 734.635886 445.617904 
L 856.925726 338.630493 
L 856.328796 134.081748 
" style="fill: none; stroke: #b0b0b0; stroke-width: 0.8"/>
    <path d="M 784.310046 461.549127 
L 904.58611 352.669358 
L 906.022474 146.902603 
" style="fill: none; stroke: #b0b0b0; stroke-width: 0.8"/>
    <path d="M 834.89502 477.772462 
L 953.066152 366.949661 
L 956.607663 159.953465 
" style="fill: none; stroke: #b0b0b0; stroke-width: 0.8"/>
    <path d="M 886.41609 494.296016 
L 1002.38718 381.477685 
L 1008.108569 173.24058 
" style="fill: none; stroke: #b0b0b0; stroke-width: 0.8"/>
   </g>
  </g>
  <g id="grid3d_5">
   <g id="Line3DCollection_5">
    <path d="M 717.757365 209.265931 
L 724.301379 420.812846 
L 933.880707 487.202708 
" style="fill: none; stroke: #b0b0b0; stroke-width: 0.8"/>
    <path d="M 749.704273 185.285468 
L 754.805664 394.638072 
L 962.24502 458.995448 
" style="fill: none; stroke: #b0b0b0; stroke-width: 0.8"/>
    <path d="M 780.65707 162.051218 
L 784.400054 369.24405 
L 989.731787 431.660877 
" style="fill: none; stroke: #b0b0b0; stroke-width: 0.8"/>
    <path d="M 810.661448 139.528886 
L 813.124663 344.596362 
L 1016.38111 405.159111 
" style="fill: none; stroke: #b0b0b0; stroke-width: 0.8"/>
   </g>
  </g>
  <g id="grid3d_6">
   <g id="Line3DCollection_6">
    <path d="M 1032.214068 370.471906 
L 829.329697 311.406645 
L 705.374427 416.517108 
" style="fill: none; stroke: #b0b0b0; stroke-width: 0.8"/>
    <path d="M 1033.06973 345.03266 
L 829.116315 286.56475 
L 704.471044 390.627339 
" style="fill: none; stroke: #b0b0b0; stroke-width: 0.8"/>
    <path d="M 1033.934524 319.321919 
L 828.900736 261.467162 
L 703.557752 364.453605 
" style="fill: none; stroke: #b0b0b0; stroke-width: 0.8"/>
    <path d="M 1034.808597 293.335316 
L 828.682927 236.109913 
L 702.634388 337.99121 
" style="fill: none; stroke: #b0b0b0; stroke-width: 0.8"/>
    <path d="M 1035.692099 267.068386 
L 828.462853 210.488952 
L 701.700784 311.235351 
" style="fill: none; stroke: #b0b0b0; stroke-width: 0.8"/>
    <path d="M 1036.585183 240.516569 
L 828.240479 184.600144 
L 700.756768 284.181119 
" style="fill: none; stroke: #b0b0b0; stroke-width: 0.8"/>
    <path d="M 1037.488007 213.675204 
L 828.015767 158.439266 
L 699.802167 256.823495 
" style="fill: none; stroke: #b0b0b0; stroke-width: 0.8"/>
    <path d="M 1038.400729 186.53953 
L 827.788681 132.002006 
L 698.836799 229.157347 
" style="fill: none; stroke: #b0b0b0; stroke-width: 0.8"/>
   </g>
  </g>
  <g id="axis3d_4">
   <g id="line2d_18">
    <path d="M 706.07018 436.456468 
L 916.912731 504.076731 
" style="fill: none; stroke: #000000; stroke-width: 0.8; stroke-linecap: square"/>
   </g>
   <g id="xtick_15">
    <g id="line2d_19">
     <path d="M 735.677227 444.706868 
L 732.549953 447.442819 
" style="fill: none; stroke: #000000; stroke-width: 0.8; stroke-linecap: square"/>
    </g>
    <g id="text_16">
     <!-- 00 -->
     <g transform="translate(707.351686 489.365693) rotate(-45) scale(0.21 -0.21)">
      <use xlink:href="#DejaVuSans-30"/>
      <use xlink:href="#DejaVuSans-30" x="63.623047"/>
     </g>
    </g>
   </g>
   <g id="xtick_16">
    <g id="line2d_20">
     <path d="M 785.334802 460.621468 
L 782.257306 463.407368 
" style="fill: none; stroke: #000000; stroke-width: 0.8; stroke-linecap: square"/>
    </g>
    <g id="text_17">
     <!-- 01 -->
     <g transform="translate(757.023931 505.435143) rotate(-45) scale(0.21 -0.21)">
      <use xlink:href="#DejaVuSans-30"/>
      <use xlink:href="#DejaVuSans-31" x="63.623047"/>
     </g>
    </g>
   </g>
   <g id="xtick_17">
    <g id="line2d_21">
     <path d="M 835.902405 476.82772 
L 832.877048 479.664949 
" style="fill: none; stroke: #000000; stroke-width: 0.8; stroke-linecap: square"/>
    </g>
    <g id="text_18">
     <!-- 10 -->
     <g transform="translate(807.60781 521.799516) rotate(-45) scale(0.21 -0.21)">
      <use xlink:href="#DejaVuSans-31"/>
      <use xlink:href="#DejaVuSans-30" x="63.623047"/>
     </g>
    </g>
   </g>
   <g id="xtick_18">
    <g id="line2d_22">
     <path d="M 887.405283 493.333715 
L 884.434531 496.223705 
" style="fill: none; stroke: #000000; stroke-width: 0.8; stroke-linecap: square"/>
    </g>
    <g id="text_19">
     <!-- 11 -->
     <g transform="translate(859.128654 538.467006) rotate(-45) scale(0.21 -0.21)">
      <use xlink:href="#DejaVuSans-31"/>
      <use xlink:href="#DejaVuSans-31" x="63.623047"/>
     </g>
    </g>
   </g>
  </g>
  <g id="axis3d_5">
   <g id="line2d_23">
    <path d="M 1031.554898 390.069341 
L 916.912731 504.076731 
" style="fill: none; stroke: #000000; stroke-width: 0.8; stroke-linecap: square"/>
   </g>
   <g id="xtick_19">
    <g id="line2d_24">
     <path d="M 932.140222 486.651363 
L 937.364886 488.306415 
" style="fill: none; stroke: #000000; stroke-width: 0.8; stroke-linecap: square"/>
    </g>
    <g id="text_20">
     <!-- 00 -->
     <g transform="translate(944.70027 499.207917) rotate(-337.5) scale(0.21 -0.21)">
      <use xlink:href="#DejaVuSans-30"/>
      <use xlink:href="#DejaVuSans-30" x="63.623047"/>
     </g>
    </g>
   </g>
   <g id="xtick_20">
    <g id="line2d_25">
     <path d="M 960.5233 458.46129 
L 965.691587 460.064734 
" style="fill: none; stroke: #000000; stroke-width: 0.8; stroke-linecap: square"/>
    </g>
    <g id="text_21">
     <!-- 01 -->
     <g transform="translate(972.913817 470.822876) rotate(-337.5) scale(0.21 -0.21)">
      <use xlink:href="#DejaVuSans-30"/>
      <use xlink:href="#DejaVuSans-31" x="63.623047"/>
     </g>
    </g>
   </g>
   <g id="xtick_21">
    <g id="line2d_26">
     <path d="M 988.028511 431.143114 
L 993.141381 432.697327 
" style="fill: none; stroke: #000000; stroke-width: 0.8; stroke-linecap: square"/>
    </g>
    <g id="text_22">
     <!-- 10 -->
     <g transform="translate(1000.254695 443.315808) rotate(-337.5) scale(0.21 -0.21)">
      <use xlink:href="#DejaVuSans-31"/>
      <use xlink:href="#DejaVuSans-30" x="63.623047"/>
     </g>
    </g>
   </g>
   <g id="xtick_22">
    <g id="line2d_27">
     <path d="M 1014.695964 404.657001 
L 1019.754368 406.164215 
" style="fill: none; stroke: #000000; stroke-width: 0.8; stroke-linecap: square"/>
    </g>
    <g id="text_23">
     <!-- 11 -->
     <g transform="translate(1026.762776 416.646599) rotate(-337.5) scale(0.21 -0.21)">
      <use xlink:href="#DejaVuSans-31"/>
      <use xlink:href="#DejaVuSans-31" x="63.623047"/>
     </g>
    </g>
   </g>
  </g>
  <g id="axis3d_6">
   <g id="line2d_28">
    <path d="M 1031.554898 390.069341 
L 1038.583588 181.103065 
" style="fill: none; stroke: #000000; stroke-width: 0.8; stroke-linecap: square"/>
   </g>
   <g id="xtick_23">
    <g id="line2d_29">
     <path d="M 1030.532286 369.982293 
L 1035.580578 371.45199 
" style="fill: none; stroke: #000000; stroke-width: 0.8; stroke-linecap: square"/>
    </g>
    <g id="text_24">
     <!-- 0.00 -->
     <g transform="translate(1045.747938 364.197909) scale(0.21 -0.21)">
      <use xlink:href="#DejaVuSans-30"/>
      <use xlink:href="#DejaVuSans-2e" x="63.623047"/>
      <use xlink:href="#DejaVuSans-30" x="95.410156"/>
      <use xlink:href="#DejaVuSans-30" x="159.033203"/>
     </g>
    </g>
   </g>
   <g id="xtick_24">
    <g id="line2d_30">
     <path d="M 1031.378773 344.547908 
L 1036.454622 346.003016 
" style="fill: none; stroke: #000000; stroke-width: 0.8; stroke-linecap: square"/>
    </g>
    <g id="text_25">
     <!-- 0.05 -->
     <g transform="translate(1046.674376 338.777604) scale(0.21 -0.21)">
      <defs>
       <path id="DejaVuSans-35" d="M 691 4666 
L 3169 4666 
L 3169 4134 
L 1269 4134 
L 1269 2991 
Q 1406 3038 1543 3061 
Q 1681 3084 1819 3084 
Q 2600 3084 3056 2656 
Q 3513 2228 3513 1497 
Q 3513 744 3044 326 
Q 2575 -91 1722 -91 
Q 1428 -91 1123 -41 
Q 819 9 494 109 
L 494 744 
Q 775 591 1075 516 
Q 1375 441 1709 441 
Q 2250 441 2565 725 
Q 2881 1009 2881 1497 
Q 2881 1984 2565 2268 
Q 2250 2553 1709 2553 
Q 1456 2553 1204 2497 
Q 953 2441 691 2322 
L 691 4666 
z
" transform="scale(0.015625)"/>
      </defs>
      <use xlink:href="#DejaVuSans-30"/>
      <use xlink:href="#DejaVuSans-2e" x="63.623047"/>
      <use xlink:href="#DejaVuSans-30" x="95.410156"/>
      <use xlink:href="#DejaVuSans-35" x="159.033203"/>
     </g>
    </g>
   </g>
   <g id="xtick_25">
    <g id="line2d_31">
     <path d="M 1032.234292 318.842162 
L 1037.337999 320.282284 
" style="fill: none; stroke: #000000; stroke-width: 0.8; stroke-linecap: square"/>
    </g>
    <g id="text_26">
     <!-- 0.10 -->
     <g transform="translate(1047.61069 313.08632) scale(0.21 -0.21)">
      <use xlink:href="#DejaVuSans-30"/>
      <use xlink:href="#DejaVuSans-2e" x="63.623047"/>
      <use xlink:href="#DejaVuSans-31" x="95.410156"/>
      <use xlink:href="#DejaVuSans-30" x="159.033203"/>
     </g>
    </g>
   </g>
   <g id="xtick_26">
    <g id="line2d_32">
     <path d="M 1033.098987 292.860688 
L 1038.23086 294.285418 
" style="fill: none; stroke: #000000; stroke-width: 0.8; stroke-linecap: square"/>
    </g>
    <g id="text_27">
     <!-- 0.15 -->
     <g transform="translate(1048.557039 287.119699) scale(0.21 -0.21)">
      <use xlink:href="#DejaVuSans-30"/>
      <use xlink:href="#DejaVuSans-2e" x="63.623047"/>
      <use xlink:href="#DejaVuSans-31" x="95.410156"/>
      <use xlink:href="#DejaVuSans-35" x="159.033203"/>
     </g>
    </g>
   </g>
   <g id="xtick_27">
    <g id="line2d_33">
     <path d="M 1033.973008 266.599026 
L 1039.133359 268.007947 
" style="fill: none; stroke: #000000; stroke-width: 0.8; stroke-linecap: square"/>
    </g>
    <g id="text_28">
     <!-- 0.20 -->
     <g transform="translate(1049.513584 260.873291) scale(0.21 -0.21)">
      <use xlink:href="#DejaVuSans-30"/>
      <use xlink:href="#DejaVuSans-2e" x="63.623047"/>
      <use xlink:href="#DejaVuSans-32" x="95.410156"/>
      <use xlink:href="#DejaVuSans-30" x="159.033203"/>
     </g>
    </g>
   </g>
   <g id="xtick_28">
    <g id="line2d_34">
     <path d="M 1034.856505 240.052619 
L 1040.045652 241.445304 
" style="fill: none; stroke: #000000; stroke-width: 0.8; stroke-linecap: square"/>
    </g>
    <g id="text_29">
     <!-- 0.25 -->
     <g transform="translate(1050.480492 234.342551) scale(0.21 -0.21)">
      <use xlink:href="#DejaVuSans-30"/>
      <use xlink:href="#DejaVuSans-2e" x="63.623047"/>
      <use xlink:href="#DejaVuSans-32" x="95.410156"/>
      <use xlink:href="#DejaVuSans-35" x="159.033203"/>
     </g>
    </g>
   </g>
   <g id="xtick_29">
    <g id="line2d_35">
     <path d="M 1035.749633 213.216811 
L 1040.967899 214.59282 
" style="fill: none; stroke: #000000; stroke-width: 0.8; stroke-linecap: square"/>
    </g>
    <g id="text_30">
     <!-- 0.30 -->
     <g transform="translate(1051.457931 207.522833) scale(0.21 -0.21)">
      <use xlink:href="#DejaVuSans-30"/>
      <use xlink:href="#DejaVuSans-2e" x="63.623047"/>
      <use xlink:href="#DejaVuSans-33" x="95.410156"/>
      <use xlink:href="#DejaVuSans-30" x="159.033203"/>
     </g>
    </g>
   </g>
   <g id="xtick_30">
    <g id="line2d_36">
     <path d="M 1036.652552 186.086843 
L 1041.900265 187.445727 
" style="fill: none; stroke: #000000; stroke-width: 0.8; stroke-linecap: square"/>
    </g>
    <g id="text_31">
     <!-- 0.35 -->
     <g transform="translate(1052.446076 180.40939) scale(0.21 -0.21)">
      <use xlink:href="#DejaVuSans-30"/>
      <use xlink:href="#DejaVuSans-2e" x="63.623047"/>
      <use xlink:href="#DejaVuSans-33" x="95.410156"/>
      <use xlink:href="#DejaVuSans-35" x="159.033203"/>
     </g>
    </g>
   </g>
  </g>
  <g id="axes_2">
   <g id="Poly3DCollection_4">
    <path d="M 835.726477 323.958449 
L 835.866748 343.199915 
L 859.572276 350.22848 
L 859.526441 330.932961 
z
" clip-path="url(#pd70730b15d)" style="fill: #648fff"/>
    <path d="M 821.59316 336.076569 
L 821.791079 355.411799 
L 835.866748 343.199915 
L 835.726477 323.958449 
z
" clip-path="url(#pd70730b15d)" style="fill: #324880"/>
    <path d="M 821.791079 355.411799 
L 845.612317 362.544934 
L 859.572276 350.22848 
L 835.866748 343.199915 
z
" clip-path="url(#pd70730b15d)" style="fill: #577ddf"/>
    <path d="M 821.59316 336.076569 
L 835.726477 323.958449 
L 859.526441 330.932961 
L 845.509757 343.155267 
z
" clip-path="url(#pd70730b15d)" style="fill: #3f599f"/>
    <path d="M 845.509757 343.155267 
L 859.526441 330.932961 
L 859.572276 350.22848 
L 845.612317 362.544934 
z
" clip-path="url(#pd70730b15d)" style="fill: #648fff"/>
    <path d="M 821.59316 336.076569 
L 845.509757 343.155267 
L 845.612317 362.544934 
L 821.791079 355.411799 
z
" clip-path="url(#pd70730b15d)" style="fill: #324880"/>
    <path d="M 883.530701 337.967341 
L 883.480474 357.317135 
L 907.593953 364.466656 
L 907.741901 345.062365 
z
" clip-path="url(#pd70730b15d)" style="fill: #648fff"/>
    <path d="M 869.63319 350.295182 
L 869.638733 369.739508 
L 883.480474 357.317135 
L 883.530701 337.967341 
z
" clip-path="url(#pd70730b15d)" style="fill: #324880"/>
    <path d="M 869.638733 369.739508 
L 893.872991 376.99632 
L 907.593953 364.466656 
L 883.480474 357.317135 
z
" clip-path="url(#pd70730b15d)" style="fill: #577ddf"/>
    <path d="M 869.63319 350.295182 
L 883.530701 337.967341 
L 907.741901 345.062365 
L 893.966153 357.497113 
z
" clip-path="url(#pd70730b15d)" style="fill: #3f599f"/>
    <path d="M 893.966153 357.497113 
L 907.741901 345.062365 
L 907.593953 364.466656 
L 893.872991 376.99632 
z
" clip-path="url(#pd70730b15d)" style="fill: #648fff"/>
    <path d="M 807.248383 348.375999 
L 807.505663 367.805657 
L 831.443436 375.045713 
L 831.282449 355.561234 
z
" clip-path="url(#pd70730b15d)" style="fill: #648fff"/>
    <path d="M 869.63319 350.295182 
L 893.966153 357.497113 
L 893.872991 376.99632 
L 869.638733 369.739508 
z
" clip-path="url(#pd70730b15d)" style="fill: #324880"/>
    <path d="M 792.687365 360.860837 
L 793.005775 380.385588 
L 807.505663 367.805657 
L 807.248383 348.375999 
z
" clip-path="url(#pd70730b15d)" style="fill: #324880"/>
    <path d="M 793.005775 380.385588 
L 817.060907 387.734988 
L 831.443436 375.045713 
L 807.505663 367.805657 
z
" clip-path="url(#pd70730b15d)" style="fill: #577ddf"/>
    <path d="M 792.687365 360.860837 
L 807.248383 348.375999 
L 831.282449 355.561234 
L 816.839733 368.155033 
z
" clip-path="url(#pd70730b15d)" style="fill: #3f599f"/>
    <path d="M 816.839733 368.155033 
L 831.282449 355.561234 
L 831.443436 375.045713 
L 817.060907 387.734988 
z
" clip-path="url(#pd70730b15d)" style="fill: #648fff"/>
    <path d="M 792.687365 360.860837 
L 816.839733 368.155033 
L 817.060907 387.734988 
L 793.005775 380.385588 
z
" clip-path="url(#pd70730b15d)" style="fill: #324880"/>
    <path d="M 855.525934 362.809077 
L 855.588941 382.348599 
L 879.944894 389.715135 
L 879.981589 370.120351 
z
" clip-path="url(#pd70730b15d)" style="fill: #648fff"/>
    <path d="M 841.204151 375.51327 
L 841.326371 395.148648 
L 855.588941 382.348599 
L 855.525934 362.809077 
z
" clip-path="url(#pd70730b15d)" style="fill: #324880"/>
    <path d="M 841.326371 395.148648 
L 865.804936 402.627416 
L 879.944894 389.715135 
L 855.588941 382.348599 
z
" clip-path="url(#pd70730b15d)" style="fill: #577ddf"/>
    <path d="M 981.644243 366.719236 
L 981.644243 366.719236 
L 1006.710546 374.064845 
L 1006.710546 374.064845 
z
" clip-path="url(#pd70730b15d)" style="fill: #648fff"/>
    <path d="M 841.204151 375.51327 
L 855.525934 362.809077 
L 879.981589 370.120351 
L 865.783425 382.936395 
z
" clip-path="url(#pd70730b15d)" style="fill: #3f599f"/>
    <path d="M 865.783425 382.936395 
L 879.981589 370.120351 
L 879.944894 389.715135 
L 865.804936 402.627416 
z
" clip-path="url(#pd70730b15d)" style="fill: #648fff"/>
    <path d="M 968.249885 379.483187 
L 968.249885 379.483187 
L 981.644243 366.719236 
L 981.644243 366.719236 
z
" clip-path="url(#pd70730b15d)" style="fill: #324880"/>
    <path d="M 841.204151 375.51327 
L 865.783425 382.936395 
L 865.804936 402.627416 
L 841.326371 395.148648 
z
" clip-path="url(#pd70730b15d)" style="fill: #324880"/>
    <path d="M 968.249885 379.483187 
L 981.644243 366.719236 
L 1006.710546 374.064845 
L 993.448874 386.941439 
z
" clip-path="url(#pd70730b15d)" style="fill: #3f599f"/>
    <path d="M 968.249885 379.483187 
L 993.448874 386.941439 
L 1006.710546 374.064845 
L 981.644243 366.719236 
z
" clip-path="url(#pd70730b15d)" style="fill: #577ddf"/>
    <path d="M 993.448874 386.941439 
L 1006.710546 374.064845 
L 1006.710546 374.064845 
L 993.448874 386.941439 
z
" clip-path="url(#pd70730b15d)" style="fill: #648fff"/>
    <path d="M 904.65221 377.495891 
L 904.65221 377.495891 
L 929.540645 384.936548 
L 929.540645 384.936548 
z
" clip-path="url(#pd70730b15d)" style="fill: #648fff"/>
    <path d="M 968.249885 379.483187 
L 993.448874 386.941439 
L 993.448874 386.941439 
L 968.249885 379.483187 
z
" clip-path="url(#pd70730b15d)" style="fill: #324880"/>
    <path d="M 890.58041 390.42527 
L 890.58041 390.42527 
L 904.65221 377.495891 
L 904.65221 377.495891 
z
" clip-path="url(#pd70730b15d)" style="fill: #324880"/>
    <path d="M 890.58041 390.42527 
L 904.65221 377.495891 
L 929.540645 384.936548 
L 915.598011 397.980773 
z
" clip-path="url(#pd70730b15d)" style="fill: #3f599f"/>
    <path d="M 890.58041 390.42527 
L 915.598011 397.980773 
L 929.540645 384.936548 
L 904.65221 377.495891 
z
" clip-path="url(#pd70730b15d)" style="fill: #577ddf"/>
    <path d="M 915.598011 397.980773 
L 929.540645 384.936548 
L 929.540645 384.936548 
L 915.598011 397.980773 
z
" clip-path="url(#pd70730b15d)" style="fill: #648fff"/>
    <path d="M 826.662909 388.412134 
L 826.662909 388.412134 
L 851.366731 395.949697 
L 851.366731 395.949697 
z
" clip-path="url(#pd70730b15d)" style="fill: #648fff"/>
    <path d="M 890.58041 390.42527 
L 915.598011 397.980773 
L 915.598011 397.980773 
L 890.58041 390.42527 
z
" clip-path="url(#pd70730b15d)" style="fill: #324880"/>
    <path d="M 811.897125 401.510179 
L 811.897125 401.510179 
L 826.662909 388.412134 
L 826.662909 388.412134 
z
" clip-path="url(#pd70730b15d)" style="fill: #324880"/>
    <path d="M 954.649791 392.44319 
L 954.649791 392.44319 
L 979.982597 400.016697 
L 979.982597 400.016697 
z
" clip-path="url(#pd70730b15d)" style="fill: #648fff"/>
    <path d="M 811.897125 401.510179 
L 826.662909 388.412134 
L 851.366731 395.949697 
L 836.72642 409.164848 
z
" clip-path="url(#pd70730b15d)" style="fill: #3f599f"/>
    <path d="M 811.897125 401.510179 
L 836.72642 409.164848 
L 851.366731 395.949697 
L 826.662909 388.412134 
z
" clip-path="url(#pd70730b15d)" style="fill: #577ddf"/>
    <path d="M 940.839186 405.603797 
L 940.839186 405.603797 
L 954.649791 392.44319 
L 954.649791 392.44319 
z
" clip-path="url(#pd70730b15d)" style="fill: #324880"/>
    <path d="M 836.72642 409.164848 
L 851.366731 395.949697 
L 851.366731 395.949697 
L 836.72642 409.164848 
z
" clip-path="url(#pd70730b15d)" style="fill: #648fff"/>
    <path d="M 940.839186 405.603797 
L 966.306944 413.295251 
L 979.982597 400.016697 
L 954.649791 392.44319 
z
" clip-path="url(#pd70730b15d)" style="fill: #577ddf"/>
    <path d="M 940.839186 405.603797 
L 954.649791 392.44319 
L 979.982597 400.016697 
L 966.306944 413.295251 
z
" clip-path="url(#pd70730b15d)" style="fill: #3f599f"/>
    <path d="M 811.897125 401.510179 
L 836.72642 409.164848 
L 836.72642 409.164848 
L 811.897125 401.510179 
z
" clip-path="url(#pd70730b15d)" style="fill: #324880"/>
    <path d="M 966.306944 413.295251 
L 979.982597 400.016697 
L 979.982597 400.016697 
L 966.306944 413.295251 
z
" clip-path="url(#pd70730b15d)" style="fill: #648fff"/>
    <path d="M 940.839186 405.603797 
L 966.306944 413.295251 
L 966.306944 413.295251 
L 940.839186 405.603797 
z
" clip-path="url(#pd70730b15d)" style="fill: #324880"/>
    <path d="M 796.901557 414.812055 
L 796.901557 414.812055 
L 821.85725 422.586579 
L 821.85725 422.586579 
z
" clip-path="url(#pd70730b15d)" style="fill: #648fff"/>
    <path d="M 781.670799 428.322557 
L 781.670799 428.322557 
L 796.901557 414.812055 
L 796.901557 414.812055 
z
" clip-path="url(#pd70730b15d)" style="fill: #324880"/>
    <path d="M 781.670799 428.322557 
L 796.901557 414.812055 
L 821.85725 422.586579 
L 806.753813 436.219773 
z
" clip-path="url(#pd70730b15d)" style="fill: #3f599f"/>
    <path d="M 781.670799 428.322557 
L 806.753813 436.219773 
L 821.85725 422.586579 
L 796.901557 414.812055 
z
" clip-path="url(#pd70730b15d)" style="fill: #577ddf"/>
    <path d="M 806.753813 436.219773 
L 821.85725 422.586579 
L 821.85725 422.586579 
L 806.753813 436.219773 
z
" clip-path="url(#pd70730b15d)" style="fill: #648fff"/>
    <path d="M 781.670799 428.322557 
L 806.753813 436.219773 
L 806.753813 436.219773 
L 781.670799 428.322557 
z
" clip-path="url(#pd70730b15d)" style="fill: #324880"/>
   </g>
   <g id="Poly3DCollection_5">
    <path d="M 712.086856 415.57146 
L 915.17562 479.85409 
L 1025.848407 371.368701 
L 830.919649 314.52646 
z
" clip-path="url(#pd70730b15d)" style="fill-opacity: 0.25"/>
   </g>
   <g id="Poly3DCollection_6">
    <path d="M 932.162727 352.218818 
L 932.162727 352.218818 
L 956.795914 359.437504 
L 956.795914 359.437504 
z
" clip-path="url(#pd70730b15d)" style="fill: #324880"/>
    <path d="M 918.511388 364.761872 
L 918.511388 364.761872 
L 932.162727 352.218818 
L 932.162727 352.218818 
z
" clip-path="url(#pd70730b15d)" style="fill: #648fff"/>
    <path d="M 918.511388 364.761872 
L 932.162727 352.218818 
L 956.795914 359.437504 
L 943.271686 372.090283 
z
" clip-path="url(#pd70730b15d)" style="fill: #3f599f"/>
    <path d="M 918.511388 364.761872 
L 943.271686 372.090283 
L 956.795914 359.437504 
L 932.162727 352.218818 
z
" clip-path="url(#pd70730b15d)" style="fill: #577ddf"/>
    <path d="M 943.271686 372.090283 
L 956.795914 359.437504 
L 956.795914 359.437504 
L 943.271686 372.090283 
z
" clip-path="url(#pd70730b15d)" style="fill: #324880"/>
    <path d="M 918.511388 364.761872 
L 943.271686 372.090283 
L 943.271686 372.090283 
L 918.511388 364.761872 
z
" clip-path="url(#pd70730b15d)" style="fill: #648fff"/>
    <path d="M 777.905179 373.535307 
L 777.905179 373.535307 
L 802.176679 380.940962 
L 802.176679 380.940962 
z
" clip-path="url(#pd70730b15d)" style="fill: #324880"/>
    <path d="M 762.896747 386.403765 
L 762.896747 386.403765 
L 777.905179 373.535307 
L 777.905179 373.535307 
z
" clip-path="url(#pd70730b15d)" style="fill: #648fff"/>
    <path d="M 762.896747 386.403765 
L 787.288207 393.923452 
L 802.176679 380.940962 
L 777.905179 373.535307 
z
" clip-path="url(#pd70730b15d)" style="fill: #577ddf"/>
    <path d="M 762.896747 386.403765 
L 777.905179 373.535307 
L 802.176679 380.940962 
L 787.288207 393.923452 
z
" clip-path="url(#pd70730b15d)" style="fill: #3f599f"/>
    <path d="M 787.288207 393.923452 
L 802.176679 380.940962 
L 802.176679 380.940962 
L 787.288207 393.923452 
z
" clip-path="url(#pd70730b15d)" style="fill: #324880"/>
    <path d="M 762.896747 386.403765 
L 787.288207 393.923452 
L 787.288207 393.923452 
L 762.896747 386.403765 
z
" clip-path="url(#pd70730b15d)" style="fill: #648fff"/>
    <path d="M 747.656835 399.470696 
L 747.656835 399.470696 
L 772.169079 407.107071 
L 772.169079 407.107071 
z
" clip-path="url(#pd70730b15d)" style="fill: #324880"/>
    <path d="M 732.180047 412.74073 
L 732.180047 412.74073 
L 747.656835 399.470696 
L 747.656835 399.470696 
z
" clip-path="url(#pd70730b15d)" style="fill: #648fff"/>
    <path d="M 732.180047 412.74073 
L 747.656835 399.470696 
L 772.169079 407.107071 
L 756.813892 420.496528 
z
" clip-path="url(#pd70730b15d)" style="fill: #3f599f"/>
    <path d="M 732.180047 412.74073 
L 756.813892 420.496528 
L 772.169079 407.107071 
L 747.656835 399.470696 
z
" clip-path="url(#pd70730b15d)" style="fill: #577ddf"/>
    <path d="M 876.291057 403.554541 
L 876.31328 383.543528 
L 901.56738 391.158872 
L 901.438855 411.227569 
z
" clip-path="url(#pd70730b15d)" style="fill: #324880"/>
    <path d="M 756.813892 420.496528 
L 772.169079 407.107071 
L 772.169079 407.107071 
L 756.813892 420.496528 
z
" clip-path="url(#pd70730b15d)" style="fill: #324880"/>
    <path d="M 861.779067 416.888374 
L 861.739974 396.777305 
L 876.31328 383.543528 
L 876.291057 403.554541 
z
" clip-path="url(#pd70730b15d)" style="fill: #648fff"/>
    <path d="M 861.779067 416.888374 
L 876.291057 403.554541 
L 901.438855 411.227569 
L 887.058093 424.68169 
z
" clip-path="url(#pd70730b15d)" style="fill: #3f599f"/>
    <path d="M 732.180047 412.74073 
L 756.813892 420.496528 
L 756.813892 420.496528 
L 732.180047 412.74073 
z
" clip-path="url(#pd70730b15d)" style="fill: #648fff"/>
    <path d="M 861.739974 396.777305 
L 887.126419 404.512543 
L 901.56738 391.158872 
L 876.31328 383.543528 
z
" clip-path="url(#pd70730b15d)" style="fill: #577ddf"/>
    <path d="M 887.058093 424.68169 
L 901.438855 411.227569 
L 901.56738 391.158872 
L 887.126419 404.512543 
z
" clip-path="url(#pd70730b15d)" style="fill: #324880"/>
    <path d="M 861.779067 416.888374 
L 887.058093 424.68169 
L 887.126419 404.512543 
L 861.739974 396.777305 
z
" clip-path="url(#pd70730b15d)" style="fill: #648fff"/>
    <path d="M 926.813143 418.969703 
L 927.049893 398.843094 
L 952.763931 406.597132 
L 952.416993 426.78188 
z
" clip-path="url(#pd70730b15d)" style="fill: #324880"/>
    <path d="M 912.566581 432.545748 
L 912.744286 412.318295 
L 927.049893 398.843094 
L 926.813143 418.969703 
z
" clip-path="url(#pd70730b15d)" style="fill: #648fff"/>
    <path d="M 912.566581 432.545748 
L 926.813143 418.969703 
L 952.416993 426.78188 
L 938.307668 440.481514 
z
" clip-path="url(#pd70730b15d)" style="fill: #3f599f"/>
    <path d="M 912.744286 412.318295 
L 938.596754 420.195529 
L 952.763931 406.597132 
L 927.049893 398.843094 
z
" clip-path="url(#pd70730b15d)" style="fill: #577ddf"/>
    <path d="M 938.307668 440.481514 
L 952.416993 426.78188 
L 952.763931 406.597132 
L 938.596754 420.195529 
z
" clip-path="url(#pd70730b15d)" style="fill: #324880"/>
    <path d="M 847.039195 430.431587 
L 846.936847 410.219779 
L 872.456682 418.077764 
L 872.450482 438.348044 
z
" clip-path="url(#pd70730b15d)" style="fill: #324880"/>
    <path d="M 912.566581 432.545748 
L 938.307668 440.481514 
L 938.596754 420.195529 
L 912.744286 412.318295 
z
" clip-path="url(#pd70730b15d)" style="fill: #648fff"/>
    <path d="M 832.066032 444.189153 
L 831.898418 423.875927 
L 846.936847 410.219779 
L 847.039195 430.431587 
z
" clip-path="url(#pd70730b15d)" style="fill: #648fff"/>
    <path d="M 832.066032 444.189153 
L 847.039195 430.431587 
L 872.450482 438.348044 
L 857.610612 452.231691 
z
" clip-path="url(#pd70730b15d)" style="fill: #3f599f"/>
    <path d="M 831.898418 423.875927 
L 857.552688 431.859604 
L 872.456682 418.077764 
L 846.936847 410.219779 
z
" clip-path="url(#pd70730b15d)" style="fill: #577ddf"/>
    <path d="M 857.610612 452.231691 
L 872.450482 438.348044 
L 872.456682 418.077764 
L 857.552688 431.859604 
z
" clip-path="url(#pd70730b15d)" style="fill: #324880"/>
    <path d="M 832.066032 444.189153 
L 857.610612 452.231691 
L 857.552688 431.859604 
L 831.898418 423.875927 
z
" clip-path="url(#pd70730b15d)" style="fill: #648fff"/>
    <path d="M 898.094259 446.336928 
L 898.211006 426.007952 
L 924.203065 434.011343 
L 923.97373 454.399239 
z
" clip-path="url(#pd70730b15d)" style="fill: #324880"/>
    <path d="M 883.390767 460.348397 
L 883.444573 439.917228 
L 898.211006 426.007952 
L 898.094259 446.336928 
z
" clip-path="url(#pd70730b15d)" style="fill: #648fff"/>
    <path d="M 883.390767 460.348397 
L 898.094259 446.336928 
L 923.97373 454.399239 
L 909.409772 468.540304 
z
" clip-path="url(#pd70730b15d)" style="fill: #3f599f"/>
    <path d="M 883.444573 439.917228 
L 909.57739 448.04983 
L 924.203065 434.011343 
L 898.211006 426.007952 
z
" clip-path="url(#pd70730b15d)" style="fill: #577ddf"/>
    <path d="M 909.409772 468.540304 
L 923.97373 454.399239 
L 924.203065 434.011343 
L 909.57739 448.04983 
z
" clip-path="url(#pd70730b15d)" style="fill: #324880"/>
    <path d="M 883.390767 460.348397 
L 909.409772 468.540304 
L 909.57739 448.04983 
L 883.444573 439.917228 
z
" clip-path="url(#pd70730b15d)" style="fill: #648fff"/>
   </g>
   <g id="text_32">
    <!-- Imaginary Amplitude (ρ) -->
    <g transform="translate(735.696563 51.6) scale(0.21 -0.21)">
     <defs>
      <path id="DejaVuSans-49" d="M 628 4666 
L 1259 4666 
L 1259 0 
L 628 0 
L 628 4666 
z
" transform="scale(0.015625)"/>
      <path id="DejaVuSans-67" d="M 2906 1791 
Q 2906 2416 2648 2759 
Q 2391 3103 1925 3103 
Q 1463 3103 1205 2759 
Q 947 2416 947 1791 
Q 947 1169 1205 825 
Q 1463 481 1925 481 
Q 2391 481 2648 825 
Q 2906 1169 2906 1791 
z
M 3481 434 
Q 3481 -459 3084 -895 
Q 2688 -1331 1869 -1331 
Q 1566 -1331 1297 -1286 
Q 1028 -1241 775 -1147 
L 775 -588 
Q 1028 -725 1275 -790 
Q 1522 -856 1778 -856 
Q 2344 -856 2625 -561 
Q 2906 -266 2906 331 
L 2906 616 
Q 2728 306 2450 153 
Q 2172 0 1784 0 
Q 1141 0 747 490 
Q 353 981 353 1791 
Q 353 2603 747 3093 
Q 1141 3584 1784 3584 
Q 2172 3584 2450 3431 
Q 2728 3278 2906 2969 
L 2906 3500 
L 3481 3500 
L 3481 434 
z
" transform="scale(0.015625)"/>
      <path id="DejaVuSans-6e" d="M 3513 2113 
L 3513 0 
L 2938 0 
L 2938 2094 
Q 2938 2591 2744 2837 
Q 2550 3084 2163 3084 
Q 1697 3084 1428 2787 
Q 1159 2491 1159 1978 
L 1159 0 
L 581 0 
L 581 3500 
L 1159 3500 
L 1159 2956 
Q 1366 3272 1645 3428 
Q 1925 3584 2291 3584 
Q 2894 3584 3203 3211 
Q 3513 2838 3513 2113 
z
" transform="scale(0.015625)"/>
      <path id="DejaVuSans-72" d="M 2631 2963 
Q 2534 3019 2420 3045 
Q 2306 3072 2169 3072 
Q 1681 3072 1420 2755 
Q 1159 2438 1159 1844 
L 1159 0 
L 581 0 
L 581 3500 
L 1159 3500 
L 1159 2956 
Q 1341 3275 1631 3429 
Q 1922 3584 2338 3584 
Q 2397 3584 2469 3576 
Q 2541 3569 2628 3553 
L 2631 2963 
z
" transform="scale(0.015625)"/>
      <path id="DejaVuSans-79" d="M 2059 -325 
Q 1816 -950 1584 -1140 
Q 1353 -1331 966 -1331 
L 506 -1331 
L 506 -850 
L 844 -850 
Q 1081 -850 1212 -737 
Q 1344 -625 1503 -206 
L 1606 56 
L 191 3500 
L 800 3500 
L 1894 763 
L 2988 3500 
L 3597 3500 
L 2059 -325 
z
" transform="scale(0.015625)"/>
     </defs>
     <use xlink:href="#DejaVuSans-49"/>
     <use xlink:href="#DejaVuSans-6d" x="29.492188"/>
     <use xlink:href="#DejaVuSans-61" x="126.904297"/>
     <use xlink:href="#DejaVuSans-67" x="188.183594"/>
     <use xlink:href="#DejaVuSans-69" x="251.660156"/>
     <use xlink:href="#DejaVuSans-6e" x="279.443359"/>
     <use xlink:href="#DejaVuSans-61" x="342.822266"/>
     <use xlink:href="#DejaVuSans-72" x="404.101562"/>
     <use xlink:href="#DejaVuSans-79" x="445.214844"/>
     <use xlink:href="#DejaVuSans-20" x="504.394531"/>
     <use xlink:href="#DejaVuSans-41" x="536.181641"/>
     <use xlink:href="#DejaVuSans-6d" x="604.589844"/>
     <use xlink:href="#DejaVuSans-70" x="702.001953"/>
     <use xlink:href="#DejaVuSans-6c" x="765.478516"/>
     <use xlink:href="#DejaVuSans-69" x="793.261719"/>
     <use xlink:href="#DejaVuSans-74" x="821.044922"/>
     <use xlink:href="#DejaVuSans-75" x="860.253906"/>
     <use xlink:href="#DejaVuSans-64" x="923.632812"/>
     <use xlink:href="#DejaVuSans-65" x="987.109375"/>
     <use xlink:href="#DejaVuSans-20" x="1048.632812"/>
     <use xlink:href="#DejaVuSans-28" x="1080.419922"/>
     <use xlink:href="#DejaVuSans-3c1" x="1119.433594"/>
     <use xlink:href="#DejaVuSans-29" x="1182.910156"/>
    </g>
   </g>
  </g>
 </g>
 <defs>
  <clipPath id="pb12efc11be">
   <rect x="28.8" y="57.6" width="518.4" height="518.4"/>
  </clipPath>
  <clipPath id="pd70730b15d">
   <rect x="604.8" y="57.6" width="518.4" height="518.4"/>
  </clipPath>
 </defs>
</svg>
