<?xml version="1.0" encoding="utf-8" standalone="no"?>
<!DOCTYPE svg PUBLIC "-//W3C//DTD SVG 1.1//EN"
  "http://www.w3.org/Graphics/SVG/1.1/DTD/svg11.dtd">
<svg xmlns:xlink="http://www.w3.org/1999/xlink" width="1152pt" height="576pt" viewBox="0 0 1152 576" xmlns="http://www.w3.org/2000/svg" version="1.1">
 <metadata>
  <rdf:RDF xmlns:dc="http://purl.org/dc/elements/1.1/" xmlns:cc="http://creativecommons.org/ns#" xmlns:rdf="http://www.w3.org/1999/02/22-rdf-syntax-ns#">
   <cc:Work>
    <dc:type rdf:resource="http://purl.org/dc/dcmitype/StillImage"/>
    <dc:date>2024-11-04T20:42:35.332061</dc:date>
    <dc:format>image/svg+xml</dc:format>
    <dc:creator>
     <cc:Agent>
      <dc:title>Matplotlib v3.9.2, https://matplotlib.org/</dc:title>
     </cc:Agent>
    </dc:creator>
   </cc:Work>
  </rdf:RDF>
 </metadata>
 <defs>
  <style type="text/css">*{stroke-linejoin: round; stroke-linecap: butt}</style>
 </defs>
 <g id="figure_1">
  <g id="patch_1">
   <path d="M 0 576 
L 1152 576 
L 1152 0 
L 0 0 
z
" style="fill: #ffffff"/>
  </g>
  <g id="patch_2">
   <path d="M 28.8 576 
L 547.2 576 
L 547.2 57.6 
L 28.8 57.6 
z
" style="fill: #ffffff"/>
  </g>
  <g id="pane3d_1">
   <g id="patch_3">
    <path d="M 130.07018 436.456468 
L 253.494133 330.550231 
L 251.743197 126.70673 
L 122.643358 223.613571 
" style="fill: #f2f2f2; opacity: 0.5; stroke: #f2f2f2; stroke-linejoin: miter"/>
   </g>
  </g>
  <g id="pane3d_2">
   <g id="patch_4">
    <path d="M 253.494133 330.550231 
L 455.554898 390.069341 
L 462.583588 181.103065 
L 251.743197 126.70673 
" style="fill: #e6e6e6; opacity: 0.5; stroke: #e6e6e6; stroke-linejoin: miter"/>
   </g>
  </g>
  <g id="pane3d_3">
   <g id="patch_5">
    <path d="M 130.07018 436.456468 
L 340.912731 504.076731 
L 455.554898 390.069341 
L 253.494133 330.550231 
" style="fill: #ececec; opacity: 0.5; stroke: #ececec; stroke-linejoin: miter"/>
   </g>
  </g>
  <g id="grid3d_1">
   <g id="Line3DCollection_1">
    <path d="M 158.635886 445.617904 
L 280.925726 338.630493 
L 280.328796 134.081748 
" style="fill: none; stroke: #b0b0b0; stroke-width: 0.8"/>
    <path d="M 208.310046 461.549127 
L 328.58611 352.669358 
L 330.022474 146.902603 
" style="fill: none; stroke: #b0b0b0; stroke-width: 0.8"/>
    <path d="M 258.89502 477.772462 
L 377.066152 366.949661 
L 380.607663 159.953465 
" style="fill: none; stroke: #b0b0b0; stroke-width: 0.8"/>
    <path d="M 310.41609 494.296016 
L 426.38718 381.477685 
L 432.108569 173.24058 
" style="fill: none; stroke: #b0b0b0; stroke-width: 0.8"/>
   </g>
  </g>
  <g id="grid3d_2">
   <g id="Line3DCollection_2">
    <path d="M 141.757365 209.265931 
L 148.301379 420.812846 
L 357.880707 487.202708 
" style="fill: none; stroke: #b0b0b0; stroke-width: 0.8"/>
    <path d="M 173.704273 185.285468 
L 178.805664 394.638072 
L 386.24502 458.995448 
" style="fill: none; stroke: #b0b0b0; stroke-width: 0.8"/>
    <path d="M 204.65707 162.051218 
L 208.400054 369.24405 
L 413.731787 431.660877 
" style="fill: none; stroke: #b0b0b0; stroke-width: 0.8"/>
    <path d="M 234.661448 139.528886 
L 237.124663 344.596362 
L 440.38111 405.159111 
" style="fill: none; stroke: #b0b0b0; stroke-width: 0.8"/>
   </g>
  </g>
  <g id="grid3d_3">
   <g id="Line3DCollection_3">
    <path d="M 456.565872 360.012593 
L 253.241955 301.191809 
L 129.003034 405.873476 
" style="fill: none; stroke: #b0b0b0; stroke-width: 0.8"/>
    <path d="M 457.763391 324.409799 
L 252.94339 266.432953 
L 127.738504 369.633718 
" style="fill: none; stroke: #b0b0b0; stroke-width: 0.8"/>
    <path d="M 458.978795 288.275272 
L 252.640526 231.17354 
L 126.454561 332.837605 
" style="fill: none; stroke: #b0b0b0; stroke-width: 0.8"/>
    <path d="M 460.212487 251.597013 
L 252.333268 195.402679 
L 125.150754 295.472228 
" style="fill: none; stroke: #b0b0b0; stroke-width: 0.8"/>
    <path d="M 461.464884 214.362655 
L 252.021521 159.109159 
L 123.826619 257.524273 
" style="fill: none; stroke: #b0b0b0; stroke-width: 0.8"/>
   </g>
  </g>
  <g id="axis3d_1">
   <g id="line2d_1">
    <path d="M 130.07018 436.456468 
L 340.912731 504.076731 
" style="fill: none; stroke: #000000; stroke-width: 0.8; stroke-linecap: square"/>
   </g>
   <g id="xtick_1">
    <g id="line2d_2">
     <path d="M 159.677227 444.706868 
L 156.549953 447.442819 
" style="fill: none; stroke: #000000; stroke-width: 0.8; stroke-linecap: square"/>
    </g>
    <g id="text_1">
     <!-- 00 -->
     <g transform="translate(131.351686 489.365693) rotate(-45) scale(0.21 -0.21)">
      <defs>
       <path id="DejaVuSans-30" d="M 2034 4250 
Q 1547 4250 1301 3770 
Q 1056 3291 1056 2328 
Q 1056 1369 1301 889 
Q 1547 409 2034 409 
Q 2525 409 2770 889 
Q 3016 1369 3016 2328 
Q 3016 3291 2770 3770 
Q 2525 4250 2034 4250 
z
M 2034 4750 
Q 2819 4750 3233 4129 
Q 3647 3509 3647 2328 
Q 3647 1150 3233 529 
Q 2819 -91 2034 -91 
Q 1250 -91 836 529 
Q 422 1150 422 2328 
Q 422 3509 836 4129 
Q 1250 4750 2034 4750 
z
" transform="scale(0.015625)"/>
      </defs>
      <use xlink:href="#DejaVuSans-30"/>
      <use xlink:href="#DejaVuSans-30" x="63.623047"/>
     </g>
    </g>
   </g>
   <g id="xtick_2">
    <g id="line2d_3">
     <path d="M 209.334802 460.621468 
L 206.257306 463.407368 
" style="fill: none; stroke: #000000; stroke-width: 0.8; stroke-linecap: square"/>
    </g>
    <g id="text_2">
     <!-- 01 -->
     <g transform="translate(181.023931 505.435143) rotate(-45) scale(0.21 -0.21)">
      <defs>
       <path id="DejaVuSans-31" d="M 794 531 
L 1825 531 
L 1825 4091 
L 703 3866 
L 703 4441 
L 1819 4666 
L 2450 4666 
L 2450 531 
L 3481 531 
L 3481 0 
L 794 0 
L 794 531 
z
" transform="scale(0.015625)"/>
      </defs>
      <use xlink:href="#DejaVuSans-30"/>
      <use xlink:href="#DejaVuSans-31" x="63.623047"/>
     </g>
    </g>
   </g>
   <g id="xtick_3">
    <g id="line2d_4">
     <path d="M 259.902405 476.82772 
L 256.877048 479.664949 
" style="fill: none; stroke: #000000; stroke-width: 0.8; stroke-linecap: square"/>
    </g>
    <g id="text_3">
     <!-- 10 -->
     <g transform="translate(231.60781 521.799516) rotate(-45) scale(0.21 -0.21)">
      <use xlink:href="#DejaVuSans-31"/>
      <use xlink:href="#DejaVuSans-30" x="63.623047"/>
     </g>
    </g>
   </g>
   <g id="xtick_4">
    <g id="line2d_5">
     <path d="M 311.405283 493.333715 
L 308.434531 496.223705 
" style="fill: none; stroke: #000000; stroke-width: 0.8; stroke-linecap: square"/>
    </g>
    <g id="text_4">
     <!-- 11 -->
     <g transform="translate(283.128654 538.467006) rotate(-45) scale(0.21 -0.21)">
      <use xlink:href="#DejaVuSans-31"/>
      <use xlink:href="#DejaVuSans-31" x="63.623047"/>
     </g>
    </g>
   </g>
  </g>
  <g id="axis3d_2">
   <g id="line2d_6">
    <path d="M 455.554898 390.069341 
L 340.912731 504.076731 
" style="fill: none; stroke: #000000; stroke-width: 0.8; stroke-linecap: square"/>
   </g>
   <g id="xtick_5">
    <g id="line2d_7">
     <path d="M 356.140222 486.651363 
L 361.364886 488.306415 
" style="fill: none; stroke: #000000; stroke-width: 0.8; stroke-linecap: square"/>
    </g>
    <g id="text_5">
     <!-- 00 -->
     <g transform="translate(368.70027 499.207917) rotate(-337.5) scale(0.21 -0.21)">
      <use xlink:href="#DejaVuSans-30"/>
      <use xlink:href="#DejaVuSans-30" x="63.623047"/>
     </g>
    </g>
   </g>
   <g id="xtick_6">
    <g id="line2d_8">
     <path d="M 384.5233 458.46129 
L 389.691587 460.064734 
" style="fill: none; stroke: #000000; stroke-width: 0.8; stroke-linecap: square"/>
    </g>
    <g id="text_6">
     <!-- 01 -->
     <g transform="translate(396.913817 470.822876) rotate(-337.5) scale(0.21 -0.21)">
      <use xlink:href="#DejaVuSans-30"/>
      <use xlink:href="#DejaVuSans-31" x="63.623047"/>
     </g>
    </g>
   </g>
   <g id="xtick_7">
    <g id="line2d_9">
     <path d="M 412.028511 431.143114 
L 417.141381 432.697327 
" style="fill: none; stroke: #000000; stroke-width: 0.8; stroke-linecap: square"/>
    </g>
    <g id="text_7">
     <!-- 10 -->
     <g transform="translate(424.254695 443.315808) rotate(-337.5) scale(0.21 -0.21)">
      <use xlink:href="#DejaVuSans-31"/>
      <use xlink:href="#DejaVuSans-30" x="63.623047"/>
     </g>
    </g>
   </g>
   <g id="xtick_8">
    <g id="line2d_10">
     <path d="M 438.695964 404.657001 
L 443.754368 406.164215 
" style="fill: none; stroke: #000000; stroke-width: 0.8; stroke-linecap: square"/>
    </g>
    <g id="text_8">
     <!-- 11 -->
     <g transform="translate(450.762776 416.646599) rotate(-337.5) scale(0.21 -0.21)">
      <use xlink:href="#DejaVuSans-31"/>
      <use xlink:href="#DejaVuSans-31" x="63.623047"/>
     </g>
    </g>
   </g>
  </g>
  <g id="axis3d_3">
   <g id="line2d_11">
    <path d="M 455.554898 390.069341 
L 462.583588 181.103065 
" style="fill: none; stroke: #000000; stroke-width: 0.8; stroke-linecap: square"/>
   </g>
   <g id="xtick_9">
    <g id="line2d_12">
     <path d="M 454.880318 359.52497 
L 459.939939 360.988697 
" style="fill: none; stroke: #000000; stroke-width: 0.8; stroke-linecap: square"/>
    </g>
    <g id="text_9">
     <!-- −0.1 -->
     <g transform="translate(470.128843 353.746347) scale(0.21 -0.21)">
      <defs>
       <path id="DejaVuSans-2212" d="M 678 2272 
L 4684 2272 
L 4684 1741 
L 678 1741 
L 678 2272 
z
" transform="scale(0.015625)"/>
       <path id="DejaVuSans-2e" d="M 684 794 
L 1344 794 
L 1344 0 
L 684 0 
L 684 794 
z
" transform="scale(0.015625)"/>
      </defs>
      <use xlink:href="#DejaVuSans-2212"/>
      <use xlink:href="#DejaVuSans-30" x="83.789062"/>
      <use xlink:href="#DejaVuSans-2e" x="147.412109"/>
      <use xlink:href="#DejaVuSans-31" x="179.199219"/>
     </g>
    </g>
   </g>
   <g id="xtick_10">
    <g id="line2d_13">
     <path d="M 456.064994 323.929046 
L 461.163188 325.372153 
" style="fill: none; stroke: #000000; stroke-width: 0.8; stroke-linecap: square"/>
    </g>
    <g id="text_10">
     <!-- 0.0 -->
     <g transform="translate(471.425405 318.170324) scale(0.21 -0.21)">
      <use xlink:href="#DejaVuSans-30"/>
      <use xlink:href="#DejaVuSans-2e" x="63.623047"/>
      <use xlink:href="#DejaVuSans-30" x="95.410156"/>
     </g>
    </g>
   </g>
   <g id="xtick_11">
    <g id="line2d_14">
     <path d="M 457.267358 287.801652 
L 462.404717 289.223357 
" style="fill: none; stroke: #000000; stroke-width: 0.8; stroke-linecap: square"/>
    </g>
    <g id="text_11">
     <!-- 0.1 -->
     <g transform="translate(472.741308 282.063583) scale(0.21 -0.21)">
      <use xlink:href="#DejaVuSans-30"/>
      <use xlink:href="#DejaVuSans-2e" x="63.623047"/>
      <use xlink:href="#DejaVuSans-31" x="95.410156"/>
     </g>
    </g>
   </g>
   <g id="xtick_12">
    <g id="line2d_15">
     <path d="M 458.487809 251.130795 
L 463.664938 252.530287 
" style="fill: none; stroke: #000000; stroke-width: 0.8; stroke-linecap: square"/>
    </g>
    <g id="text_12">
     <!-- 0.2 -->
     <g transform="translate(474.076989 245.414159) scale(0.21 -0.21)">
      <defs>
       <path id="DejaVuSans-32" d="M 1228 531 
L 3431 531 
L 3431 0 
L 469 0 
L 469 531 
Q 828 903 1448 1529 
Q 2069 2156 2228 2338 
Q 2531 2678 2651 2914 
Q 2772 3150 2772 3378 
Q 2772 3750 2511 3984 
Q 2250 4219 1831 4219 
Q 1534 4219 1204 4116 
Q 875 4013 500 3803 
L 500 4441 
Q 881 4594 1212 4672 
Q 1544 4750 1819 4750 
Q 2544 4750 2975 4387 
Q 3406 4025 3406 3419 
Q 3406 3131 3298 2873 
Q 3191 2616 2906 2266 
Q 2828 2175 2409 1742 
Q 1991 1309 1228 531 
z
" transform="scale(0.015625)"/>
      </defs>
      <use xlink:href="#DejaVuSans-30"/>
      <use xlink:href="#DejaVuSans-2e" x="63.623047"/>
      <use xlink:href="#DejaVuSans-32" x="95.410156"/>
     </g>
    </g>
   </g>
   <g id="xtick_13">
    <g id="line2d_16">
     <path d="M 459.726759 213.904118 
L 464.944279 215.280558 
" style="fill: none; stroke: #000000; stroke-width: 0.8; stroke-linecap: square"/>
    </g>
    <g id="text_13">
     <!-- 0.3 -->
     <g transform="translate(475.432898 208.209725) scale(0.21 -0.21)">
      <defs>
       <path id="DejaVuSans-33" d="M 2597 2516 
Q 3050 2419 3304 2112 
Q 3559 1806 3559 1356 
Q 3559 666 3084 287 
Q 2609 -91 1734 -91 
Q 1441 -91 1130 -33 
Q 819 25 488 141 
L 488 750 
Q 750 597 1062 519 
Q 1375 441 1716 441 
Q 2309 441 2620 675 
Q 2931 909 2931 1356 
Q 2931 1769 2642 2001 
Q 2353 2234 1838 2234 
L 1294 2234 
L 1294 2753 
L 1863 2753 
Q 2328 2753 2575 2939 
Q 2822 3125 2822 3475 
Q 2822 3834 2567 4026 
Q 2313 4219 1838 4219 
Q 1578 4219 1281 4162 
Q 984 4106 628 3988 
L 628 4550 
Q 988 4650 1302 4700 
Q 1616 4750 1894 4750 
Q 2613 4750 3031 4423 
Q 3450 4097 3450 3541 
Q 3450 3153 3228 2886 
Q 3006 2619 2597 2516 
z
" transform="scale(0.015625)"/>
      </defs>
      <use xlink:href="#DejaVuSans-30"/>
      <use xlink:href="#DejaVuSans-2e" x="63.623047"/>
      <use xlink:href="#DejaVuSans-33" x="95.410156"/>
     </g>
    </g>
   </g>
  </g>
  <g id="axes_1">
   <g id="Poly3DCollection_1">
    <path d="M 245.791079 355.411799 
L 269.612317 362.544934 
L 283.572276 350.22848 
L 259.866748 343.199915 
z
" clip-path="url(#p2d8327a028)" style="fill: #577ddf"/>
    <path d="M 259.396906 278.750181 
L 259.866748 343.199915 
L 283.572276 350.22848 
L 283.418743 285.595113 
z
" clip-path="url(#p2d8327a028)" style="fill: #648fff"/>
    <path d="M 245.128098 290.643509 
L 245.791079 355.411799 
L 259.866748 343.199915 
L 259.396906 278.750181 
z
" clip-path="url(#p2d8327a028)" style="fill: #324880"/>
    <path d="M 293.638733 369.739508 
L 317.872991 376.99632 
L 331.593953 364.466656 
L 307.480474 357.317135 
z
" clip-path="url(#p2d8327a028)" style="fill: #577ddf"/>
    <path d="M 269.268752 297.591659 
L 283.418743 285.595113 
L 283.572276 350.22848 
L 269.612317 362.544934 
z
" clip-path="url(#p2d8327a028)" style="fill: #648fff"/>
    <path d="M 245.128098 290.643509 
L 269.268752 297.591659 
L 269.612317 362.544934 
L 245.791079 355.411799 
z
" clip-path="url(#p2d8327a028)" style="fill: #324880"/>
    <path d="M 307.648725 292.499356 
L 307.480474 357.317135 
L 331.593953 364.466656 
L 332.089568 299.463682 
z
" clip-path="url(#p2d8327a028)" style="fill: #648fff"/>
    <path d="M 293.620162 304.600469 
L 293.638733 369.739508 
L 307.480474 357.317135 
L 307.648725 292.499356 
z
" clip-path="url(#p2d8327a028)" style="fill: #324880"/>
    <path d="M 245.128098 290.643509 
L 259.396906 278.750181 
L 283.418743 285.595113 
L 269.268752 297.591659 
z
" clip-path="url(#p2d8327a028)" style="fill: #3f599f"/>
    <path d="M 217.005775 380.385588 
L 241.060907 387.734988 
L 255.443436 375.045713 
L 231.505663 367.805657 
z
" clip-path="url(#p2d8327a028)" style="fill: #577ddf"/>
    <path d="M 318.185099 311.670736 
L 332.089568 299.463682 
L 331.593953 364.466656 
L 317.872991 376.99632 
z
" clip-path="url(#p2d8327a028)" style="fill: #648fff"/>
    <path d="M 230.643778 302.71647 
L 231.505663 367.805657 
L 255.443436 375.045713 
L 254.904108 309.770191 
z
" clip-path="url(#p2d8327a028)" style="fill: #648fff"/>
    <path d="M 293.620162 304.600469 
L 318.185099 311.670736 
L 317.872991 376.99632 
L 293.638733 369.739508 
z
" clip-path="url(#p2d8327a028)" style="fill: #324880"/>
    <path d="M 215.939027 314.973165 
L 217.005775 380.385588 
L 231.505663 367.805657 
L 230.643778 302.71647 
z
" clip-path="url(#p2d8327a028)" style="fill: #324880"/>
    <path d="M 293.620162 304.600469 
L 307.648725 292.499356 
L 332.089568 299.463682 
L 318.185099 311.670736 
z
" clip-path="url(#p2d8327a028)" style="fill: #3f599f"/>
    <path d="M 265.326371 395.148648 
L 289.804936 402.627416 
L 303.944894 389.715135 
L 279.588941 382.348599 
z
" clip-path="url(#p2d8327a028)" style="fill: #577ddf"/>
    <path d="M 240.31989 322.13488 
L 254.904108 309.770191 
L 255.443436 375.045713 
L 241.060907 387.734988 
z
" clip-path="url(#p2d8327a028)" style="fill: #648fff"/>
    <path d="M 215.939027 314.973165 
L 240.31989 322.13488 
L 241.060907 387.734988 
L 217.005775 380.385588 
z
" clip-path="url(#p2d8327a028)" style="fill: #324880"/>
    <path d="M 279.377852 316.885962 
L 279.588941 382.348599 
L 303.944894 389.715135 
L 304.067838 324.064605 
z
" clip-path="url(#p2d8327a028)" style="fill: #648fff"/>
    <path d="M 264.916872 329.36008 
L 265.326371 395.148648 
L 279.588941 382.348599 
L 279.377852 316.885962 
z
" clip-path="url(#p2d8327a028)" style="fill: #324880"/>
    <path d="M 215.939027 314.973165 
L 230.643778 302.71647 
L 254.904108 309.770191 
L 240.31989 322.13488 
z
" clip-path="url(#p2d8327a028)" style="fill: #3f599f"/>
    <path d="M 289.732862 336.649611 
L 304.067838 324.064605 
L 303.944894 389.715135 
L 289.804936 402.627416 
z
" clip-path="url(#p2d8327a028)" style="fill: #648fff"/>
    <path d="M 264.916872 329.36008 
L 289.732862 336.649611 
L 289.804936 402.627416 
L 265.326371 395.148648 
z
" clip-path="url(#p2d8327a028)" style="fill: #324880"/>
    <path d="M 264.916872 329.36008 
L 279.377852 316.885962 
L 304.067838 324.064605 
L 289.732862 336.649611 
z
" clip-path="url(#p2d8327a028)" style="fill: #3f599f"/>
    <path d="M 285.817832 436.830448 
L 310.990344 444.680593 
L 325.311406 431.128178 
L 300.269021 423.398695 
z
" clip-path="url(#p2d8327a028)" style="fill: #577ddf"/>
    <path d="M 300.342867 356.899944 
L 300.269021 423.398695 
L 325.311406 431.128178 
L 325.738513 364.437312 
z
" clip-path="url(#p2d8327a028)" style="fill: #648fff"/>
    <path d="M 285.687919 369.998458 
L 285.817832 436.830448 
L 300.269021 423.398695 
L 300.342867 356.899944 
z
" clip-path="url(#p2d8327a028)" style="fill: #324880"/>
    <path d="M 336.390382 452.601693 
L 362.021045 460.594713 
L 376.072987 446.796046 
L 350.578383 438.926983 
z
" clip-path="url(#p2d8327a028)" style="fill: #577ddf"/>
    <path d="M 311.217402 377.655162 
L 325.738513 364.437312 
L 325.311406 431.128178 
L 310.990344 444.680593 
z
" clip-path="url(#p2d8327a028)" style="fill: #648fff"/>
    <path d="M 285.687919 369.998458 
L 311.217402 377.655162 
L 310.990344 444.680593 
L 285.817832 436.830448 
z
" clip-path="url(#p2d8327a028)" style="fill: #324880"/>
    <path d="M 351.365142 372.043236 
L 350.578383 438.926983 
L 376.072987 446.796046 
L 377.225922 379.718654 
z
" clip-path="url(#p2d8327a028)" style="fill: #648fff"/>
    <path d="M 336.98093 385.382061 
L 336.390382 452.601693 
L 350.578383 438.926983 
L 351.365142 372.043236 
z
" clip-path="url(#p2d8327a028)" style="fill: #324880"/>
    <path d="M 285.687919 369.998458 
L 300.342867 356.899944 
L 325.738513 364.437312 
L 311.217402 377.655162 
z
" clip-path="url(#p2d8327a028)" style="fill: #3f599f"/>
    <path d="M 256.232215 464.328996 
L 281.668038 472.429097 
L 296.444335 458.445881 
L 271.140677 450.472227 
z
" clip-path="url(#p2d8327a028)" style="fill: #577ddf"/>
    <path d="M 362.981737 393.180123 
L 377.225922 379.718654 
L 376.072987 446.796046 
L 362.021045 460.594713 
z
" clip-path="url(#p2d8327a028)" style="fill: #648fff"/>
    <path d="M 270.800554 383.304706 
L 271.140677 450.472227 
L 296.444335 458.445881 
L 296.464938 391.083603 
z
" clip-path="url(#p2d8327a028)" style="fill: #648fff"/>
    <path d="M 336.98093 385.382061 
L 362.981737 393.180123 
L 362.021045 460.594713 
L 336.390382 452.601693 
z
" clip-path="url(#p2d8327a028)" style="fill: #324880"/>
    <path d="M 255.675198 396.823668 
L 256.232215 464.328996 
L 271.140677 450.472227 
L 270.800554 383.304706 
z
" clip-path="url(#p2d8327a028)" style="fill: #324880"/>
    <path d="M 336.98093 385.382061 
L 351.365142 372.043236 
L 377.225922 379.718654 
L 362.981737 393.180123 
z
" clip-path="url(#p2d8327a028)" style="fill: #3f599f"/>
    <path d="M 307.337424 480.603576 
L 333.243605 488.853463 
L 347.746364 474.612105 
L 321.978509 466.492174 
z
" clip-path="url(#p2d8327a028)" style="fill: #577ddf"/>
    <path d="M 281.475545 404.727708 
L 296.464938 391.083603 
L 296.444335 458.445881 
L 281.668038 472.429097 
z
" clip-path="url(#p2d8327a028)" style="fill: #648fff"/>
    <path d="M 255.675198 396.823668 
L 281.475545 404.727708 
L 281.668038 472.429097 
L 256.232215 464.328996 
z
" clip-path="url(#p2d8327a028)" style="fill: #324880"/>
    <path d="M 322.366486 398.934386 
L 321.978509 466.492174 
L 347.746364 474.612105 
L 348.508502 406.858054 
z
" clip-path="url(#p2d8327a028)" style="fill: #648fff"/>
    <path d="M 307.516237 412.705377 
L 307.337424 480.603576 
L 321.978509 466.492174 
L 322.366486 398.934386 
z
" clip-path="url(#p2d8327a028)" style="fill: #324880"/>
    <path d="M 255.675198 396.823668 
L 270.800554 383.304706 
L 296.464938 391.083603 
L 281.475545 404.727708 
z
" clip-path="url(#p2d8327a028)" style="fill: #3f599f"/>
    <path d="M 333.800648 420.757712 
L 348.508502 406.858054 
L 347.746364 474.612105 
L 333.243605 488.853463 
z
" clip-path="url(#p2d8327a028)" style="fill: #648fff"/>
    <path d="M 307.516237 412.705377 
L 333.800648 420.757712 
L 333.243605 488.853463 
L 307.337424 480.603576 
z
" clip-path="url(#p2d8327a028)" style="fill: #324880"/>
    <path d="M 307.516237 412.705377 
L 322.366486 398.934386 
L 348.508502 406.858054 
L 333.800648 420.757712 
z
" clip-path="url(#p2d8327a028)" style="fill: #3f599f"/>
   </g>
   <g id="Poly3DCollection_2">
    <path d="M 134.5181 368.704697 
L 339.628072 431.879977 
L 451.337354 325.29037 
L 254.547358 269.494298 
z
" clip-path="url(#p2d8327a028)" style="fill-opacity: 0.25"/>
   </g>
   <g id="Poly3DCollection_3">
    <path d="M 342.966385 318.803273 
L 356.744037 306.488881 
L 381.614946 313.575752 
L 367.966889 325.998905 
z
" clip-path="url(#p2d8327a028)" style="fill: #3f599f"/>
    <path d="M 356.744037 306.488881 
L 357.254859 266.304042 
L 382.33472 273.271954 
L 381.614946 313.575752 
z
" clip-path="url(#p2d8327a028)" style="fill: #324880"/>
    <path d="M 342.966385 318.803273 
L 343.366263 278.41205 
L 357.254859 266.304042 
L 356.744037 306.488881 
z
" clip-path="url(#p2d8327a028)" style="fill: #648fff"/>
    <path d="M 367.966889 325.998905 
L 381.614946 313.575752 
L 382.33472 273.271954 
L 368.577925 285.487794 
z
" clip-path="url(#p2d8327a028)" style="fill: #324880"/>
    <path d="M 342.966385 318.803273 
L 367.966889 325.998905 
L 368.577925 285.487794 
L 343.366263 278.41205 
z
" clip-path="url(#p2d8327a028)" style="fill: #648fff"/>
    <path d="M 343.366263 278.41205 
L 368.577925 285.487794 
L 382.33472 273.271954 
L 357.254859 266.304042 
z
" clip-path="url(#p2d8327a028)" style="fill: #577ddf"/>
    <path d="M 393.189535 333.258473 
L 406.705156 320.725114 
L 432.017582 327.937794 
L 418.637296 340.582834 
z
" clip-path="url(#p2d8327a028)" style="fill: #3f599f"/>
    <path d="M 406.705156 320.725114 
L 407.637571 280.30182 
L 433.1664 287.394469 
L 432.017582 327.937794 
z
" clip-path="url(#p2d8327a028)" style="fill: #324880"/>
    <path d="M 393.189535 333.258473 
L 394.015488 292.626939 
L 407.637571 280.30182 
L 406.705156 320.725114 
z
" clip-path="url(#p2d8327a028)" style="fill: #648fff"/>
    <path d="M 185.847793 340.054791 
L 201.008775 327.417819 
L 225.511023 334.690029 
L 210.472278 347.440072 
z
" clip-path="url(#p2d8327a028)" style="fill: #3f599f"/>
    <path d="M 418.637296 340.582834 
L 432.017582 327.937794 
L 433.1664 287.394469 
L 419.682003 299.830339 
z
" clip-path="url(#p2d8327a028)" style="fill: #324880"/>
    <path d="M 314.770797 344.004337 
L 328.976945 331.306959 
L 354.108103 338.613874 
L 340.033669 351.425137 
z
" clip-path="url(#p2d8327a028)" style="fill: #3f599f"/>
    <path d="M 328.976945 331.306959 
L 329.262381 290.707744 
L 354.606928 297.893842 
L 354.108103 338.613874 
z
" clip-path="url(#p2d8327a028)" style="fill: #324880"/>
    <path d="M 393.189535 333.258473 
L 418.637296 340.582834 
L 419.682003 299.830339 
L 394.015488 292.626939 
z
" clip-path="url(#p2d8327a028)" style="fill: #648fff"/>
    <path d="M 394.015488 292.626939 
L 419.682003 299.830339 
L 433.1664 287.394469 
L 407.637571 280.30182 
z
" clip-path="url(#p2d8327a028)" style="fill: #577ddf"/>
    <path d="M 314.770797 344.004337 
L 314.938167 303.195522 
L 329.262381 290.707744 
L 328.976945 331.306959 
z
" clip-path="url(#p2d8327a028)" style="fill: #648fff"/>
    <path d="M 340.033669 351.425137 
L 354.108103 338.613874 
L 354.606928 297.893842 
L 340.416687 310.494576 
z
" clip-path="url(#p2d8327a028)" style="fill: #324880"/>
    <path d="M 235.318447 354.89184 
L 250.232149 342.027201 
L 275.175097 349.430209 
L 260.389307 362.410996 
z
" clip-path="url(#p2d8327a028)" style="fill: #3f599f"/>
    <path d="M 314.770797 344.004337 
L 340.033669 351.425137 
L 340.416687 310.494576 
L 314.938167 303.195522 
z
" clip-path="url(#p2d8327a028)" style="fill: #648fff"/>
    <path d="M 314.938167 303.195522 
L 340.416687 310.494576 
L 354.606928 297.893842 
L 329.262381 290.707744 
z
" clip-path="url(#p2d8327a028)" style="fill: #577ddf"/>
    <path d="M 201.008775 327.417819 
L 198.219714 183.92844 
L 223.439549 190.76036 
L 225.511023 334.690029 
z
" clip-path="url(#p2d8327a028)" style="fill: #324880"/>
    <path d="M 365.52452 358.912905 
L 379.464295 345.986218 
L 405.048556 353.424873 
L 391.246453 366.468551 
z
" clip-path="url(#p2d8327a028)" style="fill: #3f599f"/>
    <path d="M 379.464295 345.986218 
L 380.180343 305.144833 
L 405.985742 312.461599 
L 405.048556 353.424873 
z
" clip-path="url(#p2d8327a028)" style="fill: #324880"/>
    <path d="M 185.847793 340.054791 
L 182.583102 195.801472 
L 198.219714 183.92844 
L 201.008775 327.417819 
z
" clip-path="url(#p2d8327a028)" style="fill: #648fff"/>
    <path d="M 365.52452 358.912905 
L 366.127099 317.860062 
L 380.180343 305.144833 
L 379.464295 345.986218 
z
" clip-path="url(#p2d8327a028)" style="fill: #648fff"/>
    <path d="M 154.811913 365.923798 
L 170.450692 352.888573 
L 195.19826 360.389583 
L 179.683404 373.543279 
z
" clip-path="url(#p2d8327a028)" style="fill: #3f599f"/>
    <path d="M 210.472278 347.440072 
L 225.511023 334.690029 
L 223.439549 190.76036 
L 207.932387 202.742814 
z
" clip-path="url(#p2d8327a028)" style="fill: #324880"/>
    <path d="M 391.246453 366.468551 
L 405.048556 353.424873 
L 405.985742 312.461599 
L 392.072583 325.292891 
z
" clip-path="url(#p2d8327a028)" style="fill: #324880"/>
    <path d="M 185.847793 340.054791 
L 210.472278 347.440072 
L 207.932387 202.742814 
L 182.583102 195.801472 
z
" clip-path="url(#p2d8327a028)" style="fill: #648fff"/>
    <path d="M 365.52452 358.912905 
L 391.246453 366.468551 
L 392.072583 325.292891 
L 366.127099 317.860062 
z
" clip-path="url(#p2d8327a028)" style="fill: #648fff"/>
    <path d="M 366.127099 317.860062 
L 392.072583 325.292891 
L 405.985742 312.461599 
L 380.180343 305.144833 
z
" clip-path="url(#p2d8327a028)" style="fill: #577ddf"/>
    <path d="M 250.232149 342.027201 
L 248.891417 197.655135 
L 274.578536 204.613639 
L 275.175097 349.430209 
z
" clip-path="url(#p2d8327a028)" style="fill: #324880"/>
    <path d="M 235.318447 354.89184 
L 233.516771 209.748531 
L 248.891417 197.655135 
L 250.232149 342.027201 
z
" clip-path="url(#p2d8327a028)" style="fill: #648fff"/>
    <path d="M 204.782349 381.232441 
L 220.17037 367.958652 
L 245.370093 375.59671 
L 230.111883 388.992245 
z
" clip-path="url(#p2d8327a028)" style="fill: #3f599f"/>
    <path d="M 260.389307 362.410996 
L 275.175097 349.430209 
L 274.578536 204.613639 
L 259.339537 216.819525 
z
" clip-path="url(#p2d8327a028)" style="fill: #324880"/>
    <path d="M 170.450692 352.888573 
L 166.695621 207.86499 
L 192.175277 214.918404 
L 195.19826 360.389583 
z
" clip-path="url(#p2d8327a028)" style="fill: #324880"/>
    <path d="M 235.318447 354.89184 
L 260.389307 362.410996 
L 259.339537 216.819525 
L 233.516771 209.748531 
z
" clip-path="url(#p2d8327a028)" style="fill: #648fff"/>
    <path d="M 154.811913 365.923798 
L 150.551185 220.123617 
L 166.695621 207.86499 
L 170.450692 352.888573 
z
" clip-path="url(#p2d8327a028)" style="fill: #648fff"/>
    <path d="M 182.583102 195.801472 
L 207.932387 202.742814 
L 223.439549 190.76036 
L 198.219714 183.92844 
z
" clip-path="url(#p2d8327a028)" style="fill: #577ddf"/>
    <path d="M 179.683404 373.543279 
L 195.19826 360.389583 
L 192.175277 214.918404 
L 176.162124 227.29184 
z
" clip-path="url(#p2d8327a028)" style="fill: #324880"/>
    <path d="M 154.811913 365.923798 
L 179.683404 373.543279 
L 176.162124 227.29184 
L 150.551185 220.123617 
z
" clip-path="url(#p2d8327a028)" style="fill: #648fff"/>
    <path d="M 220.17037 367.958652 
L 217.893152 222.037764 
L 243.852605 229.223997 
L 245.370093 375.59671 
z
" clip-path="url(#p2d8327a028)" style="fill: #324880"/>
    <path d="M 204.782349 381.232441 
L 202.014465 234.527628 
L 217.893152 222.037764 
L 220.17037 367.958652 
z
" clip-path="url(#p2d8327a028)" style="fill: #648fff"/>
    <path d="M 233.516771 209.748531 
L 259.339537 216.819525 
L 274.578536 204.613639 
L 248.891417 197.655135 
z
" clip-path="url(#p2d8327a028)" style="fill: #577ddf"/>
    <path d="M 230.111883 388.992245 
L 245.370093 375.59671 
L 243.852605 229.223997 
L 228.111637 241.831942 
z
" clip-path="url(#p2d8327a028)" style="fill: #324880"/>
    <path d="M 204.782349 381.232441 
L 230.111883 388.992245 
L 228.111637 241.831942 
L 202.014465 234.527628 
z
" clip-path="url(#p2d8327a028)" style="fill: #648fff"/>
    <path d="M 150.551185 220.123617 
L 176.162124 227.29184 
L 192.175277 214.918404 
L 166.695621 207.86499 
z
" clip-path="url(#p2d8327a028)" style="fill: #577ddf"/>
    <path d="M 202.014465 234.527628 
L 228.111637 241.831942 
L 243.852605 229.223997 
L 217.893152 222.037764 
z
" clip-path="url(#p2d8327a028)" style="fill: #577ddf"/>
   </g>
   <g id="text_14">
    <!-- Real Amplitude (ρ) -->
    <g transform="translate(190.023516 51.6) scale(0.21 -0.21)">
     <defs>
      <path id="DejaVuSans-52" d="M 2841 2188 
Q 3044 2119 3236 1894 
Q 3428 1669 3622 1275 
L 4263 0 
L 3584 0 
L 2988 1197 
Q 2756 1666 2539 1819 
Q 2322 1972 1947 1972 
L 1259 1972 
L 1259 0 
L 628 0 
L 628 4666 
L 2053 4666 
Q 2853 4666 3247 4331 
Q 3641 3997 3641 3322 
Q 3641 2881 3436 2590 
Q 3231 2300 2841 2188 
z
M 1259 4147 
L 1259 2491 
L 2053 2491 
Q 2509 2491 2742 2702 
Q 2975 2913 2975 3322 
Q 2975 3731 2742 3939 
Q 2509 4147 2053 4147 
L 1259 4147 
z
" transform="scale(0.015625)"/>
      <path id="DejaVuSans-65" d="M 3597 1894 
L 3597 1613 
L 953 1613 
Q 991 1019 1311 708 
Q 1631 397 2203 397 
Q 2534 397 2845 478 
Q 3156 559 3463 722 
L 3463 178 
Q 3153 47 2828 -22 
Q 2503 -91 2169 -91 
Q 1331 -91 842 396 
Q 353 884 353 1716 
Q 353 2575 817 3079 
Q 1281 3584 2069 3584 
Q 2775 3584 3186 3129 
Q 3597 2675 3597 1894 
z
M 3022 2063 
Q 3016 2534 2758 2815 
Q 2500 3097 2075 3097 
Q 1594 3097 1305 2825 
Q 1016 2553 972 2059 
L 3022 2063 
z
" transform="scale(0.015625)"/>
      <path id="DejaVuSans-61" d="M 2194 1759 
Q 1497 1759 1228 1600 
Q 959 1441 959 1056 
Q 959 750 1161 570 
Q 1363 391 1709 391 
Q 2188 391 2477 730 
Q 2766 1069 2766 1631 
L 2766 1759 
L 2194 1759 
z
M 3341 1997 
L 3341 0 
L 2766 0 
L 2766 531 
Q 2569 213 2275 61 
Q 1981 -91 1556 -91 
Q 1019 -91 701 211 
Q 384 513 384 1019 
Q 384 1609 779 1909 
Q 1175 2209 1959 2209 
L 2766 2209 
L 2766 2266 
Q 2766 2663 2505 2880 
Q 2244 3097 1772 3097 
Q 1472 3097 1187 3025 
Q 903 2953 641 2809 
L 641 3341 
Q 956 3463 1253 3523 
Q 1550 3584 1831 3584 
Q 2591 3584 2966 3190 
Q 3341 2797 3341 1997 
z
" transform="scale(0.015625)"/>
      <path id="DejaVuSans-6c" d="M 603 4863 
L 1178 4863 
L 1178 0 
L 603 0 
L 603 4863 
z
" transform="scale(0.015625)"/>
      <path id="DejaVuSans-20" transform="scale(0.015625)"/>
      <path id="DejaVuSans-41" d="M 2188 4044 
L 1331 1722 
L 3047 1722 
L 2188 4044 
z
M 1831 4666 
L 2547 4666 
L 4325 0 
L 3669 0 
L 3244 1197 
L 1141 1197 
L 716 0 
L 50 0 
L 1831 4666 
z
" transform="scale(0.015625)"/>
      <path id="DejaVuSans-6d" d="M 3328 2828 
Q 3544 3216 3844 3400 
Q 4144 3584 4550 3584 
Q 5097 3584 5394 3201 
Q 5691 2819 5691 2113 
L 5691 0 
L 5113 0 
L 5113 2094 
Q 5113 2597 4934 2840 
Q 4756 3084 4391 3084 
Q 3944 3084 3684 2787 
Q 3425 2491 3425 1978 
L 3425 0 
L 2847 0 
L 2847 2094 
Q 2847 2600 2669 2842 
Q 2491 3084 2119 3084 
Q 1678 3084 1418 2786 
Q 1159 2488 1159 1978 
L 1159 0 
L 581 0 
L 581 3500 
L 1159 3500 
L 1159 2956 
Q 1356 3278 1631 3431 
Q 1906 3584 2284 3584 
Q 2666 3584 2933 3390 
Q 3200 3197 3328 2828 
z
" transform="scale(0.015625)"/>
      <path id="DejaVuSans-70" d="M 1159 525 
L 1159 -1331 
L 581 -1331 
L 581 3500 
L 1159 3500 
L 1159 2969 
Q 1341 3281 1617 3432 
Q 1894 3584 2278 3584 
Q 2916 3584 3314 3078 
Q 3713 2572 3713 1747 
Q 3713 922 3314 415 
Q 2916 -91 2278 -91 
Q 1894 -91 1617 61 
Q 1341 213 1159 525 
z
M 3116 1747 
Q 3116 2381 2855 2742 
Q 2594 3103 2138 3103 
Q 1681 3103 1420 2742 
Q 1159 2381 1159 1747 
Q 1159 1113 1420 752 
Q 1681 391 2138 391 
Q 2594 391 2855 752 
Q 3116 1113 3116 1747 
z
" transform="scale(0.015625)"/>
      <path id="DejaVuSans-69" d="M 603 3500 
L 1178 3500 
L 1178 0 
L 603 0 
L 603 3500 
z
M 603 4863 
L 1178 4863 
L 1178 4134 
L 603 4134 
L 603 4863 
z
" transform="scale(0.015625)"/>
      <path id="DejaVuSans-74" d="M 1172 4494 
L 1172 3500 
L 2356 3500 
L 2356 3053 
L 1172 3053 
L 1172 1153 
Q 1172 725 1289 603 
Q 1406 481 1766 481 
L 2356 481 
L 2356 0 
L 1766 0 
Q 1100 0 847 248 
Q 594 497 594 1153 
L 594 3053 
L 172 3053 
L 172 3500 
L 594 3500 
L 594 4494 
L 1172 4494 
z
" transform="scale(0.015625)"/>
      <path id="DejaVuSans-75" d="M 544 1381 
L 544 3500 
L 1119 3500 
L 1119 1403 
Q 1119 906 1312 657 
Q 1506 409 1894 409 
Q 2359 409 2629 706 
Q 2900 1003 2900 1516 
L 2900 3500 
L 3475 3500 
L 3475 0 
L 2900 0 
L 2900 538 
Q 2691 219 2414 64 
Q 2138 -91 1772 -91 
Q 1169 -91 856 284 
Q 544 659 544 1381 
z
M 1991 3584 
L 1991 3584 
z
" transform="scale(0.015625)"/>
      <path id="DejaVuSans-64" d="M 2906 2969 
L 2906 4863 
L 3481 4863 
L 3481 0 
L 2906 0 
L 2906 525 
Q 2725 213 2448 61 
Q 2172 -91 1784 -91 
Q 1150 -91 751 415 
Q 353 922 353 1747 
Q 353 2572 751 3078 
Q 1150 3584 1784 3584 
Q 2172 3584 2448 3432 
Q 2725 3281 2906 2969 
z
M 947 1747 
Q 947 1113 1208 752 
Q 1469 391 1925 391 
Q 2381 391 2643 752 
Q 2906 1113 2906 1747 
Q 2906 2381 2643 2742 
Q 2381 3103 1925 3103 
Q 1469 3103 1208 2742 
Q 947 2381 947 1747 
z
" transform="scale(0.015625)"/>
      <path id="DejaVuSans-28" d="M 1984 4856 
Q 1566 4138 1362 3434 
Q 1159 2731 1159 2009 
Q 1159 1288 1364 580 
Q 1569 -128 1984 -844 
L 1484 -844 
Q 1016 -109 783 600 
Q 550 1309 550 2009 
Q 550 2706 781 3412 
Q 1013 4119 1484 4856 
L 1984 4856 
z
" transform="scale(0.015625)"/>
      <path id="DejaVuSans-3c1" d="M 863 2875 
Q 1053 3194 1525 3475 
Q 1709 3584 2278 3584 
Q 2916 3584 3314 3078 
Q 3713 2572 3713 1747 
Q 3713 922 3314 415 
Q 2916 -91 2278 -91 
Q 1894 -91 1617 61 
Q 1341 213 1159 525 
L 1159 -1331 
L 581 -1331 
L 581 1716 
Q 581 2438 863 2875 
z
M 3116 1747 
Q 3116 2381 2855 2742 
Q 2594 3103 2138 3103 
Q 1681 3103 1420 2742 
Q 1159 2381 1159 1747 
Q 1159 1113 1420 752 
Q 1681 391 2138 391 
Q 2594 391 2855 752 
Q 3116 1113 3116 1747 
z
" transform="scale(0.015625)"/>
      <path id="DejaVuSans-29" d="M 513 4856 
L 1013 4856 
Q 1481 4119 1714 3412 
Q 1947 2706 1947 2009 
Q 1947 1309 1714 600 
Q 1481 -109 1013 -844 
L 513 -844 
Q 928 -128 1133 580 
Q 1338 1288 1338 2009 
Q 1338 2731 1133 3434 
Q 928 4138 513 4856 
z
" transform="scale(0.015625)"/>
     </defs>
     <use xlink:href="#DejaVuSans-52"/>
     <use xlink:href="#DejaVuSans-65" x="64.982422"/>
     <use xlink:href="#DejaVuSans-61" x="126.505859"/>
     <use xlink:href="#DejaVuSans-6c" x="187.785156"/>
     <use xlink:href="#DejaVuSans-20" x="215.568359"/>
     <use xlink:href="#DejaVuSans-41" x="247.355469"/>
     <use xlink:href="#DejaVuSans-6d" x="315.763672"/>
     <use xlink:href="#DejaVuSans-70" x="413.175781"/>
     <use xlink:href="#DejaVuSans-6c" x="476.652344"/>
     <use xlink:href="#DejaVuSans-69" x="504.435547"/>
     <use xlink:href="#DejaVuSans-74" x="532.21875"/>
     <use xlink:href="#DejaVuSans-75" x="571.427734"/>
     <use xlink:href="#DejaVuSans-64" x="634.806641"/>
     <use xlink:href="#DejaVuSans-65" x="698.283203"/>
     <use xlink:href="#DejaVuSans-20" x="759.806641"/>
     <use xlink:href="#DejaVuSans-28" x="791.59375"/>
     <use xlink:href="#DejaVuSans-3c1" x="830.607422"/>
     <use xlink:href="#DejaVuSans-29" x="894.083984"/>
    </g>
   </g>
  </g>
  <g id="patch_6">
   <path d="M 604.8 576 
L 1123.2 576 
L 1123.2 57.6 
L 604.8 57.6 
z
" style="fill: #ffffff"/>
  </g>
  <g id="pane3d_4">
   <g id="patch_7">
    <path d="M 706.07018 436.456468 
L 829.494133 330.550231 
L 827.743197 126.70673 
L 698.643358 223.613571 
" style="fill: #f2f2f2; opacity: 0.5; stroke: #f2f2f2; stroke-linejoin: miter"/>
   </g>
  </g>
  <g id="pane3d_5">
   <g id="patch_8">
    <path d="M 829.494133 330.550231 
L 1031.554898 390.069341 
L 1038.583588 181.103065 
L 827.743197 126.70673 
" style="fill: #e6e6e6; opacity: 0.5; stroke: #e6e6e6; stroke-linejoin: miter"/>
   </g>
  </g>
  <g id="pane3d_6">
   <g id="patch_9">
    <path d="M 706.07018 436.456468 
L 916.912731 504.076731 
L 1031.554898 390.069341 
L 829.494133 330.550231 
" style="fill: #ececec; opacity: 0.5; stroke: #ececec; stroke-linejoin: miter"/>
   </g>
  </g>
  <g id="grid3d_4">
   <g id="Line3DCollection_4">
    <path d="M 734.635886 445.617904 
L 856.925726 338.630493 
L 856.328796 134.081748 
" style="fill: none; stroke: #b0b0b0; stroke-width: 0.8"/>
    <path d="M 784.310046 461.549127 
L 904.58611 352.669358 
L 906.022474 146.902603 
" style="fill: none; stroke: #b0b0b0; stroke-width: 0.8"/>
    <path d="M 834.89502 477.772462 
L 953.066152 366.949661 
L 956.607663 159.953465 
" style="fill: none; stroke: #b0b0b0; stroke-width: 0.8"/>
    <path d="M 886.41609 494.296016 
L 1002.38718 381.477685 
L 1008.108569 173.24058 
" style="fill: none; stroke: #b0b0b0; stroke-width: 0.8"/>
   </g>
  </g>
  <g id="grid3d_5">
   <g id="Line3DCollection_5">
    <path d="M 717.757365 209.265931 
L 724.301379 420.812846 
L 933.880707 487.202708 
" style="fill: none; stroke: #b0b0b0; stroke-width: 0.8"/>
    <path d="M 749.704273 185.285468 
L 754.805664 394.638072 
L 962.24502 458.995448 
" style="fill: none; stroke: #b0b0b0; stroke-width: 0.8"/>
    <path d="M 780.65707 162.051218 
L 784.400054 369.24405 
L 989.731787 431.660877 
" style="fill: none; stroke: #b0b0b0; stroke-width: 0.8"/>
    <path d="M 810.661448 139.528886 
L 813.124663 344.596362 
L 1016.38111 405.159111 
" style="fill: none; stroke: #b0b0b0; stroke-width: 0.8"/>
   </g>
  </g>
  <g id="grid3d_6">
   <g id="Line3DCollection_6">
    <path d="M 1032.888584 350.418224 
L 829.161482 291.823079 
L 704.662315 396.108909 
" style="fill: none; stroke: #b0b0b0; stroke-width: 0.8"/>
    <path d="M 1034.318789 307.897562 
L 828.804972 250.318293 
L 703.151852 352.821048 
" style="fill: none; stroke: #b0b0b0; stroke-width: 0.8"/>
    <path d="M 1035.77449 264.618881 
L 828.442335 208.10019 
L 701.613707 308.739841 
" style="fill: none; stroke: #b0b0b0; stroke-width: 0.8"/>
    <path d="M 1037.256375 220.561728 
L 828.073411 165.150219 
L 700.047111 263.843275 
" style="fill: none; stroke: #b0b0b0; stroke-width: 0.8"/>
   </g>
  </g>
  <g id="axis3d_4">
   <g id="line2d_17">
    <path d="M 706.07018 436.456468 
L 916.912731 504.076731 
" style="fill: none; stroke: #000000; stroke-width: 0.8; stroke-linecap: square"/>
   </g>
   <g id="xtick_14">
    <g id="line2d_18">
     <path d="M 735.677227 444.706868 
L 732.549953 447.442819 
" style="fill: none; stroke: #000000; stroke-width: 0.8; stroke-linecap: square"/>
    </g>
    <g id="text_15">
     <!-- 00 -->
     <g transform="translate(707.351686 489.365693) rotate(-45) scale(0.21 -0.21)">
      <use xlink:href="#DejaVuSans-30"/>
      <use xlink:href="#DejaVuSans-30" x="63.623047"/>
     </g>
    </g>
   </g>
   <g id="xtick_15">
    <g id="line2d_19">
     <path d="M 785.334802 460.621468 
L 782.257306 463.407368 
" style="fill: none; stroke: #000000; stroke-width: 0.8; stroke-linecap: square"/>
    </g>
    <g id="text_16">
     <!-- 01 -->
     <g transform="translate(757.023931 505.435143) rotate(-45) scale(0.21 -0.21)">
      <use xlink:href="#DejaVuSans-30"/>
      <use xlink:href="#DejaVuSans-31" x="63.623047"/>
     </g>
    </g>
   </g>
   <g id="xtick_16">
    <g id="line2d_20">
     <path d="M 835.902405 476.82772 
L 832.877048 479.664949 
" style="fill: none; stroke: #000000; stroke-width: 0.8; stroke-linecap: square"/>
    </g>
    <g id="text_17">
     <!-- 10 -->
     <g transform="translate(807.60781 521.799516) rotate(-45) scale(0.21 -0.21)">
      <use xlink:href="#DejaVuSans-31"/>
      <use xlink:href="#DejaVuSans-30" x="63.623047"/>
     </g>
    </g>
   </g>
   <g id="xtick_17">
    <g id="line2d_21">
     <path d="M 887.405283 493.333715 
L 884.434531 496.223705 
" style="fill: none; stroke: #000000; stroke-width: 0.8; stroke-linecap: square"/>
    </g>
    <g id="text_18">
     <!-- 11 -->
     <g transform="translate(859.128654 538.467006) rotate(-45) scale(0.21 -0.21)">
      <use xlink:href="#DejaVuSans-31"/>
      <use xlink:href="#DejaVuSans-31" x="63.623047"/>
     </g>
    </g>
   </g>
  </g>
  <g id="axis3d_5">
   <g id="line2d_22">
    <path d="M 1031.554898 390.069341 
L 916.912731 504.076731 
" style="fill: none; stroke: #000000; stroke-width: 0.8; stroke-linecap: square"/>
   </g>
   <g id="xtick_18">
    <g id="line2d_23">
     <path d="M 932.140222 486.651363 
L 937.364886 488.306415 
" style="fill: none; stroke: #000000; stroke-width: 0.8; stroke-linecap: square"/>
    </g>
    <g id="text_19">
     <!-- 00 -->
     <g transform="translate(944.70027 499.207917) rotate(-337.5) scale(0.21 -0.21)">
      <use xlink:href="#DejaVuSans-30"/>
      <use xlink:href="#DejaVuSans-30" x="63.623047"/>
     </g>
    </g>
   </g>
   <g id="xtick_19">
    <g id="line2d_24">
     <path d="M 960.5233 458.46129 
L 965.691587 460.064734 
" style="fill: none; stroke: #000000; stroke-width: 0.8; stroke-linecap: square"/>
    </g>
    <g id="text_20">
     <!-- 01 -->
     <g transform="translate(972.913817 470.822876) rotate(-337.5) scale(0.21 -0.21)">
      <use xlink:href="#DejaVuSans-30"/>
      <use xlink:href="#DejaVuSans-31" x="63.623047"/>
     </g>
    </g>
   </g>
   <g id="xtick_20">
    <g id="line2d_25">
     <path d="M 988.028511 431.143114 
L 993.141381 432.697327 
" style="fill: none; stroke: #000000; stroke-width: 0.8; stroke-linecap: square"/>
    </g>
    <g id="text_21">
     <!-- 10 -->
     <g transform="translate(1000.254695 443.315808) rotate(-337.5) scale(0.21 -0.21)">
      <use xlink:href="#DejaVuSans-31"/>
      <use xlink:href="#DejaVuSans-30" x="63.623047"/>
     </g>
    </g>
   </g>
   <g id="xtick_21">
    <g id="line2d_26">
     <path d="M 1014.695964 404.657001 
L 1019.754368 406.164215 
" style="fill: none; stroke: #000000; stroke-width: 0.8; stroke-linecap: square"/>
    </g>
    <g id="text_22">
     <!-- 11 -->
     <g transform="translate(1026.762776 416.646599) rotate(-337.5) scale(0.21 -0.21)">
      <use xlink:href="#DejaVuSans-31"/>
      <use xlink:href="#DejaVuSans-31" x="63.623047"/>
     </g>
    </g>
   </g>
  </g>
  <g id="axis3d_6">
   <g id="line2d_27">
    <path d="M 1031.554898 390.069341 
L 1038.583588 181.103065 
" style="fill: none; stroke: #000000; stroke-width: 0.8; stroke-linecap: square"/>
   </g>
   <g id="xtick_22">
    <g id="line2d_28">
     <path d="M 1031.19957 349.932436 
L 1036.269584 351.390653 
" style="fill: none; stroke: #000000; stroke-width: 0.8; stroke-linecap: square"/>
    </g>
    <g id="text_23">
     <!-- 0.0 -->
     <g transform="translate(1046.478247 344.159133) scale(0.21 -0.21)">
      <use xlink:href="#DejaVuSans-30"/>
      <use xlink:href="#DejaVuSans-2e" x="63.623047"/>
      <use xlink:href="#DejaVuSans-30" x="95.410156"/>
     </g>
    </g>
   </g>
   <g id="xtick_23">
    <g id="line2d_29">
     <path d="M 1032.614434 307.420049 
L 1037.730522 308.853435 
" style="fill: none; stroke: #000000; stroke-width: 0.8; stroke-linecap: square"/>
    </g>
    <g id="text_24">
     <!-- 0.1 -->
     <g transform="translate(1048.02673 301.670708) scale(0.21 -0.21)">
      <use xlink:href="#DejaVuSans-30"/>
      <use xlink:href="#DejaVuSans-2e" x="63.623047"/>
      <use xlink:href="#DejaVuSans-31" x="95.410156"/>
     </g>
    </g>
   </g>
   <g id="xtick_24">
    <g id="line2d_30">
     <path d="M 1034.054514 264.150016 
L 1039.217521 265.557451 
" style="fill: none; stroke: #000000; stroke-width: 0.8; stroke-linecap: square"/>
    </g>
    <g id="text_25">
     <!-- 0.2 -->
     <g transform="translate(1049.602785 258.425717) scale(0.21 -0.21)">
      <use xlink:href="#DejaVuSans-30"/>
      <use xlink:href="#DejaVuSans-2e" x="63.623047"/>
      <use xlink:href="#DejaVuSans-32" x="95.410156"/>
     </g>
    </g>
   </g>
   <g id="xtick_25">
    <g id="line2d_31">
     <path d="M 1035.520489 220.101901 
L 1040.731283 221.482214 
" style="fill: none; stroke: #000000; stroke-width: 0.8; stroke-linecap: square"/>
    </g>
    <g id="text_26">
     <!-- 0.3 -->
     <g transform="translate(1051.207157 214.403771) scale(0.21 -0.21)">
      <use xlink:href="#DejaVuSans-30"/>
      <use xlink:href="#DejaVuSans-2e" x="63.623047"/>
      <use xlink:href="#DejaVuSans-33" x="95.410156"/>
     </g>
    </g>
   </g>
  </g>
  <g id="axes_2">
   <g id="Poly3DCollection_4">
    <path d="M 982.10613 346.694909 
L 982.10613 346.694909 
L 1007.279573 353.983122 
L 1007.279573 353.983122 
z
" clip-path="url(#pd186ef3122)" style="fill: #648fff"/>
    <path d="M 968.658961 359.359298 
L 968.658961 359.359298 
L 982.10613 346.694909 
L 982.10613 346.694909 
z
" clip-path="url(#pd186ef3122)" style="fill: #324880"/>
    <path d="M 968.658961 359.359298 
L 982.10613 346.694909 
L 1007.279573 353.983122 
L 993.96624 366.759748 
z
" clip-path="url(#pd186ef3122)" style="fill: #3f599f"/>
    <path d="M 968.658961 359.359298 
L 993.96624 366.759748 
L 1007.279573 353.983122 
L 982.10613 346.694909 
z
" clip-path="url(#pd186ef3122)" style="fill: #577ddf"/>
    <path d="M 993.96624 366.759748 
L 1007.279573 353.983122 
L 1007.279573 353.983122 
L 993.96624 366.759748 
z
" clip-path="url(#pd186ef3122)" style="fill: #648fff"/>
    <path d="M 968.658961 359.359298 
L 993.96624 366.759748 
L 993.96624 366.759748 
L 968.658961 359.359298 
z
" clip-path="url(#pd186ef3122)" style="fill: #324880"/>
    <path d="M 826.475383 368.219077 
L 826.475383 368.219077 
L 851.283307 375.698557 
L 851.283307 375.698557 
z
" clip-path="url(#pd186ef3122)" style="fill: #648fff"/>
    <path d="M 811.645216 381.216372 
L 811.645216 381.216372 
L 826.475383 368.219077 
L 826.475383 368.219077 
z
" clip-path="url(#pd186ef3122)" style="fill: #324880"/>
    <path d="M 955.00437 372.219035 
L 955.00437 372.219035 
L 980.446631 379.734334 
L 980.446631 379.734334 
z
" clip-path="url(#pd186ef3122)" style="fill: #648fff"/>
    <path d="M 811.645216 381.216372 
L 826.475383 368.219077 
L 851.283307 375.698557 
L 836.579672 388.812553 
z
" clip-path="url(#pd186ef3122)" style="fill: #3f599f"/>
    <path d="M 811.645216 381.216372 
L 836.579672 388.812553 
L 851.283307 375.698557 
L 826.475383 368.219077 
z
" clip-path="url(#pd186ef3122)" style="fill: #577ddf"/>
    <path d="M 941.13752 385.278675 
L 941.13752 385.278675 
L 955.00437 372.219035 
L 955.00437 372.219035 
z
" clip-path="url(#pd186ef3122)" style="fill: #324880"/>
    <path d="M 861.817832 436.830448 
L 886.990344 444.680593 
L 901.311406 431.128178 
L 876.269021 423.398695 
z
" clip-path="url(#pd186ef3122)" style="fill: #577ddf"/>
    <path d="M 876.313611 383.245084 
L 876.269021 423.398695 
L 901.311406 431.128178 
L 901.569297 390.859562 
z
" clip-path="url(#pd186ef3122)" style="fill: #648fff"/>
    <path d="M 836.579672 388.812553 
L 851.283307 375.698557 
L 851.283307 375.698557 
L 836.579672 388.812553 
z
" clip-path="url(#pd186ef3122)" style="fill: #648fff"/>
    <path d="M 941.13752 385.278675 
L 955.00437 372.219035 
L 980.446631 379.734334 
L 966.715914 392.911517 
z
" clip-path="url(#pd186ef3122)" style="fill: #3f599f"/>
    <path d="M 941.13752 385.278675 
L 966.715914 392.911517 
L 980.446631 379.734334 
L 955.00437 372.219035 
z
" clip-path="url(#pd186ef3122)" style="fill: #577ddf"/>
    <path d="M 861.739391 396.477359 
L 861.817832 436.830448 
L 876.269021 423.398695 
L 876.313611 383.245084 
z
" clip-path="url(#pd186ef3122)" style="fill: #324880"/>
    <path d="M 811.645216 381.216372 
L 836.579672 388.812553 
L 836.579672 388.812553 
L 811.645216 381.216372 
z
" clip-path="url(#pd186ef3122)" style="fill: #324880"/>
    <path d="M 966.715914 392.911517 
L 980.446631 379.734334 
L 980.446631 379.734334 
L 966.715914 392.911517 
z
" clip-path="url(#pd186ef3122)" style="fill: #648fff"/>
    <path d="M 941.13752 385.278675 
L 966.715914 392.911517 
L 966.715914 392.911517 
L 941.13752 385.278675 
z
" clip-path="url(#pd186ef3122)" style="fill: #324880"/>
    <path d="M 887.127438 404.211725 
L 901.569297 390.859562 
L 901.311406 431.128178 
L 886.990344 444.680593 
z
" clip-path="url(#pd186ef3122)" style="fill: #648fff"/>
    <path d="M 861.739391 396.477359 
L 887.127438 404.211725 
L 886.990344 444.680593 
L 861.817832 436.830448 
z
" clip-path="url(#pd186ef3122)" style="fill: #324880"/>
    <path d="M 861.739391 396.477359 
L 876.313611 383.245084 
L 901.569297 390.859562 
L 887.127438 404.211725 
z
" clip-path="url(#pd186ef3122)" style="fill: #3f599f"/>
    <path d="M 912.390382 452.601693 
L 938.021045 460.594713 
L 952.072987 446.796046 
L 926.578383 438.926983 
z
" clip-path="url(#pd186ef3122)" style="fill: #577ddf"/>
    <path d="M 927.053425 398.542915 
L 926.578383 438.926983 
L 952.072987 446.796046 
L 952.769106 406.29608 
z
" clip-path="url(#pd186ef3122)" style="fill: #648fff"/>
    <path d="M 912.746936 412.016601 
L 912.390382 452.601693 
L 926.578383 438.926983 
L 927.053425 398.542915 
z
" clip-path="url(#pd186ef3122)" style="fill: #324880"/>
    <path d="M 796.583272 394.416797 
L 796.583272 394.416797 
L 821.645196 402.132432 
L 821.645196 402.132432 
z
" clip-path="url(#pd186ef3122)" style="fill: #648fff"/>
    <path d="M 781.284074 407.825154 
L 781.284074 407.825154 
L 796.583272 394.416797 
L 796.583272 394.416797 
z
" clip-path="url(#pd186ef3122)" style="fill: #324880"/>
    <path d="M 781.284074 407.825154 
L 796.583272 394.416797 
L 821.645196 402.132432 
L 806.474401 415.663082 
z
" clip-path="url(#pd186ef3122)" style="fill: #3f599f"/>
    <path d="M 781.284074 407.825154 
L 806.474401 415.663082 
L 821.645196 402.132432 
L 796.583272 394.416797 
z
" clip-path="url(#pd186ef3122)" style="fill: #577ddf"/>
    <path d="M 938.601065 419.892957 
L 952.769106 406.29608 
L 952.072987 446.796046 
L 938.021045 460.594713 
z
" clip-path="url(#pd186ef3122)" style="fill: #648fff"/>
    <path d="M 832.232215 464.328996 
L 857.668038 472.429097 
L 872.444335 458.445881 
L 847.140677 450.472227 
z
" clip-path="url(#pd186ef3122)" style="fill: #577ddf"/>
    <path d="M 846.93532 409.918321 
L 847.140677 450.472227 
L 872.444335 458.445881 
L 872.456774 417.775428 
z
" clip-path="url(#pd186ef3122)" style="fill: #648fff"/>
    <path d="M 912.746936 412.016601 
L 938.601065 419.892957 
L 938.021045 460.594713 
L 912.390382 452.601693 
z
" clip-path="url(#pd186ef3122)" style="fill: #324880"/>
    <path d="M 806.474401 415.663082 
L 821.645196 402.132432 
L 821.645196 402.132432 
L 806.474401 415.663082 
z
" clip-path="url(#pd186ef3122)" style="fill: #648fff"/>
    <path d="M 912.746936 412.016601 
L 927.053425 398.542915 
L 952.769106 406.29608 
L 938.601065 419.892957 
z
" clip-path="url(#pd186ef3122)" style="fill: #3f599f"/>
    <path d="M 831.895918 423.572945 
L 832.232215 464.328996 
L 847.140677 450.472227 
L 846.93532 409.918321 
z
" clip-path="url(#pd186ef3122)" style="fill: #324880"/>
    <path d="M 781.284074 407.825154 
L 806.474401 415.663082 
L 806.474401 415.663082 
L 781.284074 407.825154 
z
" clip-path="url(#pd186ef3122)" style="fill: #324880"/>
    <path d="M 857.551824 431.555738 
L 872.456774 417.775428 
L 872.444335 458.445881 
L 857.668038 472.429097 
z
" clip-path="url(#pd186ef3122)" style="fill: #648fff"/>
    <path d="M 831.895918 423.572945 
L 857.551824 431.555738 
L 857.668038 472.429097 
L 832.232215 464.328996 
z
" clip-path="url(#pd186ef3122)" style="fill: #324880"/>
    <path d="M 831.895918 423.572945 
L 846.93532 409.918321 
L 872.456774 417.775428 
L 857.551824 431.555738 
z
" clip-path="url(#pd186ef3122)" style="fill: #3f599f"/>
    <path d="M 883.337424 480.603576 
L 909.243605 488.853463 
L 923.746364 474.612105 
L 897.978509 466.492174 
z
" clip-path="url(#pd186ef3122)" style="fill: #577ddf"/>
    <path d="M 898.212747 425.704734 
L 897.978509 466.492174 
L 923.746364 474.612105 
L 924.206486 433.70724 
z
" clip-path="url(#pd186ef3122)" style="fill: #648fff"/>
    <path d="M 883.445376 439.612474 
L 883.337424 480.603576 
L 897.978509 466.492174 
L 898.212747 425.704734 
z
" clip-path="url(#pd186ef3122)" style="fill: #324880"/>
    <path d="M 909.579891 447.744186 
L 924.206486 433.70724 
L 923.746364 474.612105 
L 909.243605 488.853463 
z
" clip-path="url(#pd186ef3122)" style="fill: #648fff"/>
    <path d="M 883.445376 439.612474 
L 909.579891 447.744186 
L 909.243605 488.853463 
L 883.337424 480.603576 
z
" clip-path="url(#pd186ef3122)" style="fill: #324880"/>
    <path d="M 883.445376 439.612474 
L 898.212747 425.704734 
L 924.206486 433.70724 
L 909.579891 447.744186 
z
" clip-path="url(#pd186ef3122)" style="fill: #3f599f"/>
   </g>
   <g id="Poly3DCollection_5">
    <path d="M 711.403979 395.170437 
L 915.372531 458.975381 
L 1026.496636 351.308014 
L 830.757539 294.917631 
z
" clip-path="url(#pd186ef3122)" style="fill-opacity: 0.25"/>
   </g>
   <g id="Poly3DCollection_6">
    <path d="M 821.390667 316.294551 
L 835.582973 304.273536 
L 859.479547 311.192071 
L 845.404823 323.316861 
z
" clip-path="url(#pd186ef3122)" style="fill: #3f599f"/>
    <path d="M 835.582973 304.273536 
L 835.294576 264.71331 
L 859.385302 271.517272 
L 859.479547 311.192071 
z
" clip-path="url(#pd186ef3122)" style="fill: #324880"/>
    <path d="M 821.390667 316.294551 
L 820.983686 276.535559 
L 835.294576 264.71331 
L 835.582973 304.273536 
z
" clip-path="url(#pd186ef3122)" style="fill: #648fff"/>
    <path d="M 845.404823 323.316861 
L 859.479547 311.192071 
L 859.385302 271.517272 
L 845.193911 283.44242 
z
" clip-path="url(#pd186ef3122)" style="fill: #324880"/>
    <path d="M 821.390667 316.294551 
L 845.404823 323.316861 
L 845.193911 283.44242 
L 820.983686 276.535559 
z
" clip-path="url(#pd186ef3122)" style="fill: #648fff"/>
    <path d="M 820.983686 276.535559 
L 845.193911 283.44242 
L 859.385302 271.517272 
L 835.294576 264.71331 
z
" clip-path="url(#pd186ef3122)" style="fill: #577ddf"/>
    <path d="M 869.627517 330.400152 
L 883.58209 318.170237 
L 907.893274 325.208809 
L 894.061478 337.545222 
z
" clip-path="url(#pd186ef3122)" style="fill: #3f599f"/>
    <path d="M 883.58209 318.170237 
L 883.685374 278.38036 
L 908.197533 285.303348 
L 907.893274 325.208809 
z
" clip-path="url(#pd186ef3122)" style="fill: #324880"/>
    <path d="M 869.627517 330.400152 
L 869.616116 290.409756 
L 883.685374 278.38036 
L 883.58209 318.170237 
z
" clip-path="url(#pd186ef3122)" style="fill: #648fff"/>
    <path d="M 932.415822 332.308575 
L 932.415822 332.308575 
L 957.152502 339.470337 
L 957.152502 339.470337 
z
" clip-path="url(#pd186ef3122)" style="fill: #324880"/>
    <path d="M 894.061478 337.545222 
L 907.893274 325.208809 
L 908.197533 285.303348 
L 894.253097 297.438366 
z
" clip-path="url(#pd186ef3122)" style="fill: #324880"/>
    <path d="M 792.361557 340.882476 
L 806.985142 328.496164 
L 831.117726 335.624602 
L 816.613411 348.119466 
z
" clip-path="url(#pd186ef3122)" style="fill: #3f599f"/>
    <path d="M 918.70948 344.752884 
L 918.70948 344.752884 
L 932.415822 332.308575 
L 932.415822 332.308575 
z
" clip-path="url(#pd186ef3122)" style="fill: #648fff"/>
    <path d="M 806.985142 328.496164 
L 806.456018 288.536888 
L 830.786608 295.549 
L 831.117726 335.624602 
z
" clip-path="url(#pd186ef3122)" style="fill: #324880"/>
    <path d="M 869.627517 330.400152 
L 894.061478 337.545222 
L 894.253097 297.438366 
L 869.616116 290.409756 
z
" clip-path="url(#pd186ef3122)" style="fill: #648fff"/>
    <path d="M 869.616116 290.409756 
L 894.253097 297.438366 
L 908.197533 285.303348 
L 883.685374 278.38036 
z
" clip-path="url(#pd186ef3122)" style="fill: #577ddf"/>
    <path d="M 792.361557 340.882476 
L 791.706609 300.721398 
L 806.456018 288.536888 
L 806.985142 328.496164 
z
" clip-path="url(#pd186ef3122)" style="fill: #648fff"/>
    <path d="M 918.70948 344.752884 
L 932.415822 332.308575 
L 957.152502 339.470337 
L 943.574349 352.023962 
z
" clip-path="url(#pd186ef3122)" style="fill: #3f599f"/>
    <path d="M 918.70948 344.752884 
L 943.574349 352.023962 
L 957.152502 339.470337 
L 932.415822 332.308575 
z
" clip-path="url(#pd186ef3122)" style="fill: #577ddf"/>
    <path d="M 943.574349 352.023962 
L 957.152502 339.470337 
L 957.152502 339.470337 
L 943.574349 352.023962 
z
" clip-path="url(#pd186ef3122)" style="fill: #324880"/>
    <path d="M 918.70948 344.752884 
L 943.574349 352.023962 
L 943.574349 352.023962 
L 918.70948 344.752884 
z
" clip-path="url(#pd186ef3122)" style="fill: #648fff"/>
    <path d="M 816.613411 348.119466 
L 831.117726 335.624602 
L 830.786608 295.549 
L 816.158428 307.841185 
z
" clip-path="url(#pd186ef3122)" style="fill: #324880"/>
    <path d="M 792.361557 340.882476 
L 816.613411 348.119466 
L 816.158428 307.841185 
L 791.706609 300.721398 
z
" clip-path="url(#pd186ef3122)" style="fill: #648fff"/>
    <path d="M 791.706609 300.721398 
L 816.158428 307.841185 
L 830.786608 295.549 
L 806.456018 288.536888 
z
" clip-path="url(#pd186ef3122)" style="fill: #577ddf"/>
    <path d="M 841.079083 355.420261 
L 855.461463 342.815411 
L 880.019139 350.069415 
L 865.761413 362.785709 
z
" clip-path="url(#pd186ef3122)" style="fill: #3f599f"/>
    <path d="M 855.461463 342.815411 
L 855.33186 302.622978 
L 880.094627 309.759645 
L 880.019139 350.069415 
z
" clip-path="url(#pd186ef3122)" style="fill: #324880"/>
    <path d="M 841.079083 355.420261 
L 840.82764 315.024272 
L 855.33186 302.622978 
L 855.461463 342.815411 
z
" clip-path="url(#pd186ef3122)" style="fill: #648fff"/>
    <path d="M 777.514923 353.457713 
L 777.514923 353.457713 
L 801.886888 360.805754 
L 801.886888 360.805754 
z
" clip-path="url(#pd186ef3122)" style="fill: #324880"/>
    <path d="M 762.440096 366.226231 
L 762.440096 366.226231 
L 777.514923 353.457713 
L 777.514923 353.457713 
z
" clip-path="url(#pd186ef3122)" style="fill: #648fff"/>
    <path d="M 904.793584 357.38745 
L 904.793584 357.38745 
L 929.787683 364.770368 
L 929.787683 364.770368 
z
" clip-path="url(#pd186ef3122)" style="fill: #324880"/>
    <path d="M 865.761413 362.785709 
L 880.019139 350.069415 
L 880.094627 309.759645 
L 865.717156 322.271507 
z
" clip-path="url(#pd186ef3122)" style="fill: #324880"/>
    <path d="M 762.440096 366.226231 
L 777.514923 353.457713 
L 801.886888 360.805754 
L 786.93301 373.687898 
z
" clip-path="url(#pd186ef3122)" style="fill: #3f599f"/>
    <path d="M 762.440096 366.226231 
L 786.93301 373.687898 
L 801.886888 360.805754 
L 777.514923 353.457713 
z
" clip-path="url(#pd186ef3122)" style="fill: #577ddf"/>
    <path d="M 890.663292 370.216673 
L 890.663292 370.216673 
L 904.793584 357.38745 
L 904.793584 357.38745 
z
" clip-path="url(#pd186ef3122)" style="fill: #648fff"/>
    <path d="M 841.079083 355.420261 
L 865.761413 362.785709 
L 865.717156 322.271507 
L 840.82764 315.024272 
z
" clip-path="url(#pd186ef3122)" style="fill: #648fff"/>
    <path d="M 840.82764 315.024272 
L 865.717156 322.271507 
L 880.094627 309.759645 
L 855.33186 302.622978 
z
" clip-path="url(#pd186ef3122)" style="fill: #577ddf"/>
    <path d="M 786.93301 373.687898 
L 801.886888 360.805754 
L 801.886888 360.805754 
L 786.93301 373.687898 
z
" clip-path="url(#pd186ef3122)" style="fill: #324880"/>
    <path d="M 890.663292 370.216673 
L 904.793584 357.38745 
L 929.787683 364.770368 
L 915.787663 377.71403 
z
" clip-path="url(#pd186ef3122)" style="fill: #3f599f"/>
    <path d="M 890.663292 370.216673 
L 915.787663 377.71403 
L 929.787683 364.770368 
L 904.793584 357.38745 
z
" clip-path="url(#pd186ef3122)" style="fill: #577ddf"/>
    <path d="M 762.440096 366.226231 
L 786.93301 373.687898 
L 786.93301 373.687898 
L 762.440096 366.226231 
z
" clip-path="url(#pd186ef3122)" style="fill: #648fff"/>
    <path d="M 915.787663 377.71403 
L 929.787683 364.770368 
L 929.787683 364.770368 
L 915.787663 377.71403 
z
" clip-path="url(#pd186ef3122)" style="fill: #324880"/>
    <path d="M 890.663292 370.216673 
L 915.787663 377.71403 
L 915.787663 377.71403 
L 890.663292 370.216673 
z
" clip-path="url(#pd186ef3122)" style="fill: #648fff"/>
    <path d="M 747.131776 379.19252 
L 747.131776 379.19252 
L 771.746471 386.77047 
L 771.746471 386.77047 
z
" clip-path="url(#pd186ef3122)" style="fill: #324880"/>
    <path d="M 731.584495 392.361211 
L 731.584495 392.361211 
L 747.131776 379.19252 
L 747.131776 379.19252 
z
" clip-path="url(#pd186ef3122)" style="fill: #648fff"/>
    <path d="M 731.584495 392.361211 
L 747.131776 379.19252 
L 771.746471 386.77047 
L 756.3218 400.058183 
z
" clip-path="url(#pd186ef3122)" style="fill: #3f599f"/>
    <path d="M 731.584495 392.361211 
L 756.3218 400.058183 
L 771.746471 386.77047 
L 747.131776 379.19252 
z
" clip-path="url(#pd186ef3122)" style="fill: #577ddf"/>
    <path d="M 756.3218 400.058183 
L 771.746471 386.77047 
L 771.746471 386.77047 
L 756.3218 400.058183 
z
" clip-path="url(#pd186ef3122)" style="fill: #324880"/>
    <path d="M 731.584495 392.361211 
L 756.3218 400.058183 
L 756.3218 400.058183 
L 731.584495 392.361211 
z
" clip-path="url(#pd186ef3122)" style="fill: #648fff"/>
   </g>
   <g id="text_27">
    <!-- Imaginary Amplitude (ρ) -->
    <g transform="translate(735.696563 51.6) scale(0.21 -0.21)">
     <defs>
      <path id="DejaVuSans-49" d="M 628 4666 
L 1259 4666 
L 1259 0 
L 628 0 
L 628 4666 
z
" transform="scale(0.015625)"/>
      <path id="DejaVuSans-67" d="M 2906 1791 
Q 2906 2416 2648 2759 
Q 2391 3103 1925 3103 
Q 1463 3103 1205 2759 
Q 947 2416 947 1791 
Q 947 1169 1205 825 
Q 1463 481 1925 481 
Q 2391 481 2648 825 
Q 2906 1169 2906 1791 
z
M 3481 434 
Q 3481 -459 3084 -895 
Q 2688 -1331 1869 -1331 
Q 1566 -1331 1297 -1286 
Q 1028 -1241 775 -1147 
L 775 -588 
Q 1028 -725 1275 -790 
Q 1522 -856 1778 -856 
Q 2344 -856 2625 -561 
Q 2906 -266 2906 331 
L 2906 616 
Q 2728 306 2450 153 
Q 2172 0 1784 0 
Q 1141 0 747 490 
Q 353 981 353 1791 
Q 353 2603 747 3093 
Q 1141 3584 1784 3584 
Q 2172 3584 2450 3431 
Q 2728 3278 2906 2969 
L 2906 3500 
L 3481 3500 
L 3481 434 
z
" transform="scale(0.015625)"/>
      <path id="DejaVuSans-6e" d="M 3513 2113 
L 3513 0 
L 2938 0 
L 2938 2094 
Q 2938 2591 2744 2837 
Q 2550 3084 2163 3084 
Q 1697 3084 1428 2787 
Q 1159 2491 1159 1978 
L 1159 0 
L 581 0 
L 581 3500 
L 1159 3500 
L 1159 2956 
Q 1366 3272 1645 3428 
Q 1925 3584 2291 3584 
Q 2894 3584 3203 3211 
Q 3513 2838 3513 2113 
z
" transform="scale(0.015625)"/>
      <path id="DejaVuSans-72" d="M 2631 2963 
Q 2534 3019 2420 3045 
Q 2306 3072 2169 3072 
Q 1681 3072 1420 2755 
Q 1159 2438 1159 1844 
L 1159 0 
L 581 0 
L 581 3500 
L 1159 3500 
L 1159 2956 
Q 1341 3275 1631 3429 
Q 1922 3584 2338 3584 
Q 2397 3584 2469 3576 
Q 2541 3569 2628 3553 
L 2631 2963 
z
" transform="scale(0.015625)"/>
      <path id="DejaVuSans-79" d="M 2059 -325 
Q 1816 -950 1584 -1140 
Q 1353 -1331 966 -1331 
L 506 -1331 
L 506 -850 
L 844 -850 
Q 1081 -850 1212 -737 
Q 1344 -625 1503 -206 
L 1606 56 
L 191 3500 
L 800 3500 
L 1894 763 
L 2988 3500 
L 3597 3500 
L 2059 -325 
z
" transform="scale(0.015625)"/>
     </defs>
     <use xlink:href="#DejaVuSans-49"/>
     <use xlink:href="#DejaVuSans-6d" x="29.492188"/>
     <use xlink:href="#DejaVuSans-61" x="126.904297"/>
     <use xlink:href="#DejaVuSans-67" x="188.183594"/>
     <use xlink:href="#DejaVuSans-69" x="251.660156"/>
     <use xlink:href="#DejaVuSans-6e" x="279.443359"/>
     <use xlink:href="#DejaVuSans-61" x="342.822266"/>
     <use xlink:href="#DejaVuSans-72" x="404.101562"/>
     <use xlink:href="#DejaVuSans-79" x="445.214844"/>
     <use xlink:href="#DejaVuSans-20" x="504.394531"/>
     <use xlink:href="#DejaVuSans-41" x="536.181641"/>
     <use xlink:href="#DejaVuSans-6d" x="604.589844"/>
     <use xlink:href="#DejaVuSans-70" x="702.001953"/>
     <use xlink:href="#DejaVuSans-6c" x="765.478516"/>
     <use xlink:href="#DejaVuSans-69" x="793.261719"/>
     <use xlink:href="#DejaVuSans-74" x="821.044922"/>
     <use xlink:href="#DejaVuSans-75" x="860.253906"/>
     <use xlink:href="#DejaVuSans-64" x="923.632812"/>
     <use xlink:href="#DejaVuSans-65" x="987.109375"/>
     <use xlink:href="#DejaVuSans-20" x="1048.632812"/>
     <use xlink:href="#DejaVuSans-28" x="1080.419922"/>
     <use xlink:href="#DejaVuSans-3c1" x="1119.433594"/>
     <use xlink:href="#DejaVuSans-29" x="1182.910156"/>
    </g>
   </g>
  </g>
 </g>
 <defs>
  <clipPath id="p2d8327a028">
   <rect x="28.8" y="57.6" width="518.4" height="518.4"/>
  </clipPath>
  <clipPath id="pd186ef3122">
   <rect x="604.8" y="57.6" width="518.4" height="518.4"/>
  </clipPath>
 </defs>
</svg>
