<?xml version="1.0" encoding="utf-8" standalone="no"?>
<!DOCTYPE svg PUBLIC "-//W3C//DTD SVG 1.1//EN"
  "http://www.w3.org/Graphics/SVG/1.1/DTD/svg11.dtd">
<svg xmlns:xlink="http://www.w3.org/1999/xlink" width="1152pt" height="576pt" viewBox="0 0 1152 576" xmlns="http://www.w3.org/2000/svg" version="1.1">
 <metadata>
  <rdf:RDF xmlns:dc="http://purl.org/dc/elements/1.1/" xmlns:cc="http://creativecommons.org/ns#" xmlns:rdf="http://www.w3.org/1999/02/22-rdf-syntax-ns#">
   <cc:Work>
    <dc:type rdf:resource="http://purl.org/dc/dcmitype/StillImage"/>
    <dc:date>2024-11-04T20:39:16.580939</dc:date>
    <dc:format>image/svg+xml</dc:format>
    <dc:creator>
     <cc:Agent>
      <dc:title>Matplotlib v3.9.2, https://matplotlib.org/</dc:title>
     </cc:Agent>
    </dc:creator>
   </cc:Work>
  </rdf:RDF>
 </metadata>
 <defs>
  <style type="text/css">*{stroke-linejoin: round; stroke-linecap: butt}</style>
 </defs>
 <g id="figure_1">
  <g id="patch_1">
   <path d="M 0 576 
L 1152 576 
L 1152 0 
L 0 0 
z
" style="fill: #ffffff"/>
  </g>
  <g id="patch_2">
   <path d="M 28.8 576 
L 547.2 576 
L 547.2 57.6 
L 28.8 57.6 
z
" style="fill: #ffffff"/>
  </g>
  <g id="pane3d_1">
   <g id="patch_3">
    <path d="M 130.07018 436.456468 
L 253.494133 330.550231 
L 251.743197 126.70673 
L 122.643358 223.613571 
" style="fill: #f2f2f2; opacity: 0.5; stroke: #f2f2f2; stroke-linejoin: miter"/>
   </g>
  </g>
  <g id="pane3d_2">
   <g id="patch_4">
    <path d="M 253.494133 330.550231 
L 455.554898 390.069341 
L 462.583588 181.103065 
L 251.743197 126.70673 
" style="fill: #e6e6e6; opacity: 0.5; stroke: #e6e6e6; stroke-linejoin: miter"/>
   </g>
  </g>
  <g id="pane3d_3">
   <g id="patch_5">
    <path d="M 130.07018 436.456468 
L 340.912731 504.076731 
L 455.554898 390.069341 
L 253.494133 330.550231 
" style="fill: #ececec; opacity: 0.5; stroke: #ececec; stroke-linejoin: miter"/>
   </g>
  </g>
  <g id="grid3d_1">
   <g id="Line3DCollection_1">
    <path d="M 148.107564 442.241318 
L 270.817434 335.65299 
L 269.793879 131.363764 
" style="fill: none; stroke: #b0b0b0; stroke-width: 0.8"/>
    <path d="M 204.73198 460.40159 
L 325.154862 351.658648 
L 326.443642 145.979273 
" style="fill: none; stroke: #b0b0b0; stroke-width: 0.8"/>
    <path d="M 262.543747 478.942662 
L 380.560935 367.979086 
L 384.255639 160.894634 
" style="fill: none; stroke: #b0b0b0; stroke-width: 0.8"/>
    <path d="M 321.580608 497.876639 
L 437.067491 384.623682 
L 443.266006 176.119173 
" style="fill: none; stroke: #b0b0b0; stroke-width: 0.8"/>
   </g>
  </g>
  <g id="grid3d_2">
   <g id="Line3DCollection_2">
    <path d="M 134.777648 214.505149 
L 141.642324 426.526772 
L 351.684419 493.364686 
" style="fill: none; stroke: #b0b0b0; stroke-width: 0.8"/>
    <path d="M 171.455878 186.973191 
L 176.657452 396.481386 
L 384.248591 460.980823 
" style="fill: none; stroke: #b0b0b0; stroke-width: 0.8"/>
    <path d="M 206.831169 160.419264 
L 210.480196 367.459145 
L 415.662622 429.740732 
" style="fill: none; stroke: #b0b0b0; stroke-width: 0.8"/>
    <path d="M 240.971738 134.792162 
L 243.170446 339.408664 
L 445.986389 399.584868 
" style="fill: none; stroke: #b0b0b0; stroke-width: 0.8"/>
   </g>
  </g>
  <g id="grid3d_3">
   <g id="Line3DCollection_3">
    <path d="M 456.462341 363.090631 
L 253.267775 304.197737 
L 129.112335 409.005888 
" style="fill: none; stroke: #b0b0b0; stroke-width: 0.8"/>
    <path d="M 457.495558 332.372604 
L 253.010153 274.205429 
L 128.021369 377.740267 
" style="fill: none; stroke: #b0b0b0; stroke-width: 0.8"/>
    <path d="M 458.542084 301.258895 
L 252.749331 243.840571 
L 126.91596 346.060698 
" style="fill: none; stroke: #b0b0b0; stroke-width: 0.8"/>
    <path d="M 459.602177 269.74181 
L 252.485248 213.096178 
L 125.795818 313.958905 
" style="fill: none; stroke: #b0b0b0; stroke-width: 0.8"/>
    <path d="M 460.676104 237.813453 
L 252.217845 181.965091 
L 124.660647 281.426392 
" style="fill: none; stroke: #b0b0b0; stroke-width: 0.8"/>
    <path d="M 461.764137 205.46572 
L 251.947056 150.439966 
L 123.510141 248.454431 
" style="fill: none; stroke: #b0b0b0; stroke-width: 0.8"/>
   </g>
  </g>
  <g id="axis3d_1">
   <g id="line2d_1">
    <path d="M 130.07018 436.456468 
L 340.912731 504.076731 
" style="fill: none; stroke: #000000; stroke-width: 0.8; stroke-linecap: square"/>
   </g>
   <g id="xtick_1">
    <g id="line2d_2">
     <path d="M 149.15236 441.333787 
L 146.014717 444.059209 
" style="fill: none; stroke: #000000; stroke-width: 0.8; stroke-linecap: square"/>
    </g>
    <g id="text_1">
     <!-- 00 -->
     <g transform="translate(120.823877 485.959845) rotate(-45) scale(0.21 -0.21)">
      <defs>
       <path id="DejaVuSans-30" d="M 2034 4250 
Q 1547 4250 1301 3770 
Q 1056 3291 1056 2328 
Q 1056 1369 1301 889 
Q 1547 409 2034 409 
Q 2525 409 2770 889 
Q 3016 1369 3016 2328 
Q 3016 3291 2770 3770 
Q 2525 4250 2034 4250 
z
M 2034 4750 
Q 2819 4750 3233 4129 
Q 3647 3509 3647 2328 
Q 3647 1150 3233 529 
Q 2819 -91 2034 -91 
Q 1250 -91 836 529 
Q 422 1150 422 2328 
Q 422 3509 836 4129 
Q 1250 4750 2034 4750 
z
" transform="scale(0.015625)"/>
      </defs>
      <use xlink:href="#DejaVuSans-30"/>
      <use xlink:href="#DejaVuSans-30" x="63.623047"/>
     </g>
    </g>
   </g>
   <g id="xtick_2">
    <g id="line2d_3">
     <path d="M 205.757946 459.475133 
L 202.676818 462.257419 
" style="fill: none; stroke: #000000; stroke-width: 0.8; stroke-linecap: square"/>
    </g>
    <g id="text_2">
     <!-- 01 -->
     <g transform="translate(177.445975 504.27764) rotate(-45) scale(0.21 -0.21)">
      <defs>
       <path id="DejaVuSans-31" d="M 794 531 
L 1825 531 
L 1825 4091 
L 703 3866 
L 703 4441 
L 1819 4666 
L 2450 4666 
L 2450 531 
L 3481 531 
L 3481 0 
L 794 0 
L 794 531 
z
" transform="scale(0.015625)"/>
      </defs>
      <use xlink:href="#DejaVuSans-30"/>
      <use xlink:href="#DejaVuSans-31" x="63.623047"/>
     </g>
    </g>
   </g>
   <g id="xtick_3">
    <g id="line2d_4">
     <path d="M 263.54986 477.996682 
L 260.528321 480.837631 
" style="fill: none; stroke: #000000; stroke-width: 0.8; stroke-linecap: square"/>
    </g>
    <g id="text_3">
     <!-- 10 -->
     <g transform="translate(235.256492 522.9799) rotate(-45) scale(0.21 -0.21)">
      <use xlink:href="#DejaVuSans-31"/>
      <use xlink:href="#DejaVuSans-30" x="63.623047"/>
     </g>
    </g>
   </g>
   <g id="xtick_4">
    <g id="line2d_5">
     <path d="M 322.565792 496.910512 
L 319.607072 499.811999 
" style="fill: none; stroke: #000000; stroke-width: 0.8; stroke-linecap: square"/>
    </g>
    <g id="text_4">
     <!-- 11 -->
     <g transform="translate(294.293241 542.078858) rotate(-45) scale(0.21 -0.21)">
      <use xlink:href="#DejaVuSans-31"/>
      <use xlink:href="#DejaVuSans-31" x="63.623047"/>
     </g>
    </g>
   </g>
  </g>
  <g id="axis3d_2">
   <g id="line2d_6">
    <path d="M 455.554898 390.069341 
L 340.912731 504.076731 
" style="fill: none; stroke: #000000; stroke-width: 0.8; stroke-linecap: square"/>
   </g>
   <g id="xtick_5">
    <g id="line2d_7">
     <path d="M 349.939872 492.809551 
L 355.176743 494.475986 
" style="fill: none; stroke: #000000; stroke-width: 0.8; stroke-linecap: square"/>
    </g>
    <g id="text_5">
     <!-- 00 -->
     <g transform="translate(362.536948 505.408703) rotate(-337.5) scale(0.21 -0.21)">
      <use xlink:href="#DejaVuSans-30"/>
      <use xlink:href="#DejaVuSans-30" x="63.623047"/>
     </g>
    </g>
   </g>
   <g id="xtick_6">
    <g id="line2d_8">
     <path d="M 382.525541 460.445465 
L 387.697822 462.052514 
" style="fill: none; stroke: #000000; stroke-width: 0.8; stroke-linecap: square"/>
    </g>
    <g id="text_6">
     <!-- 01 -->
     <g transform="translate(394.927992 472.820772) rotate(-337.5) scale(0.21 -0.21)">
      <use xlink:href="#DejaVuSans-30"/>
      <use xlink:href="#DejaVuSans-31" x="63.623047"/>
     </g>
    </g>
   </g>
   <g id="xtick_7">
    <g id="line2d_9">
     <path d="M 413.960652 429.224112 
L 419.0696 430.774895 
" style="fill: none; stroke: #000000; stroke-width: 0.8; stroke-linecap: square"/>
    </g>
    <g id="text_7">
     <!-- 10 -->
     <g transform="translate(426.175291 441.383538) rotate(-337.5) scale(0.21 -0.21)">
      <use xlink:href="#DejaVuSans-31"/>
      <use xlink:href="#DejaVuSans-30" x="63.623047"/>
     </g>
    </g>
   </g>
   <g id="xtick_8">
    <g id="line2d_10">
     <path d="M 444.305087 399.08602 
L 449.351944 400.58344 
" style="fill: none; stroke: #000000; stroke-width: 0.8; stroke-linecap: square"/>
    </g>
    <g id="text_8">
     <!-- 11 -->
     <g transform="translate(456.338373 411.037112) rotate(-337.5) scale(0.21 -0.21)">
      <use xlink:href="#DejaVuSans-31"/>
      <use xlink:href="#DejaVuSans-31" x="63.623047"/>
     </g>
    </g>
   </g>
  </g>
  <g id="axis3d_3">
   <g id="line2d_11">
    <path d="M 455.554898 390.069341 
L 462.583588 181.103065 
" style="fill: none; stroke: #000000; stroke-width: 0.8; stroke-linecap: square"/>
   </g>
   <g id="xtick_9">
    <g id="line2d_12">
     <path d="M 454.777897 362.60242 
L 459.834184 364.067909 
" style="fill: none; stroke: #000000; stroke-width: 0.8; stroke-linecap: square"/>
    </g>
    <g id="text_9">
     <!-- 0.05 -->
     <g transform="translate(470.016748 356.822098) scale(0.21 -0.21)">
      <defs>
       <path id="DejaVuSans-2e" d="M 684 794 
L 1344 794 
L 1344 0 
L 684 0 
L 684 794 
z
" transform="scale(0.015625)"/>
       <path id="DejaVuSans-35" d="M 691 4666 
L 3169 4666 
L 3169 4134 
L 1269 4134 
L 1269 2991 
Q 1406 3038 1543 3061 
Q 1681 3084 1819 3084 
Q 2600 3084 3056 2656 
Q 3513 2228 3513 1497 
Q 3513 744 3044 326 
Q 2575 -91 1722 -91 
Q 1428 -91 1123 -41 
Q 819 9 494 109 
L 494 744 
Q 775 591 1075 516 
Q 1375 441 1709 441 
Q 2250 441 2565 725 
Q 2881 1009 2881 1497 
Q 2881 1984 2565 2268 
Q 2250 2553 1709 2553 
Q 1456 2553 1204 2497 
Q 953 2441 691 2322 
L 691 4666 
z
" transform="scale(0.015625)"/>
      </defs>
      <use xlink:href="#DejaVuSans-30"/>
      <use xlink:href="#DejaVuSans-2e" x="63.623047"/>
      <use xlink:href="#DejaVuSans-30" x="95.410156"/>
      <use xlink:href="#DejaVuSans-35" x="159.033203"/>
     </g>
    </g>
   </g>
   <g id="xtick_10">
    <g id="line2d_13">
     <path d="M 455.800034 331.890301 
L 460.889599 333.338061 
" style="fill: none; stroke: #000000; stroke-width: 0.8; stroke-linecap: square"/>
    </g>
    <g id="text_10">
     <!-- 0.10 -->
     <g transform="translate(471.135422 326.127089) scale(0.21 -0.21)">
      <use xlink:href="#DejaVuSans-30"/>
      <use xlink:href="#DejaVuSans-2e" x="63.623047"/>
      <use xlink:href="#DejaVuSans-31" x="95.410156"/>
      <use xlink:href="#DejaVuSans-30" x="159.033203"/>
     </g>
    </g>
   </g>
   <g id="xtick_11">
    <g id="line2d_14">
     <path d="M 456.835333 300.782694 
L 461.958617 302.212144 
" style="fill: none; stroke: #000000; stroke-width: 0.8; stroke-linecap: square"/>
    </g>
    <g id="text_11">
     <!-- 0.15 -->
     <g transform="translate(472.268489 295.037151) scale(0.21 -0.21)">
      <use xlink:href="#DejaVuSans-30"/>
      <use xlink:href="#DejaVuSans-2e" x="63.623047"/>
      <use xlink:href="#DejaVuSans-31" x="95.410156"/>
      <use xlink:href="#DejaVuSans-35" x="159.033203"/>
     </g>
    </g>
   </g>
   <g id="xtick_12">
    <g id="line2d_15">
     <path d="M 457.884051 269.27191 
L 463.041503 270.682452 
" style="fill: none; stroke: #000000; stroke-width: 0.8; stroke-linecap: square"/>
    </g>
    <g id="text_12">
     <!-- 0.20 -->
     <g transform="translate(473.416228 263.544611) scale(0.21 -0.21)">
      <defs>
       <path id="DejaVuSans-32" d="M 1228 531 
L 3431 531 
L 3431 0 
L 469 0 
L 469 531 
Q 828 903 1448 1529 
Q 2069 2156 2228 2338 
Q 2531 2678 2651 2914 
Q 2772 3150 2772 3378 
Q 2772 3750 2511 3984 
Q 2250 4219 1831 4219 
Q 1534 4219 1204 4116 
Q 875 4013 500 3803 
L 500 4441 
Q 881 4594 1212 4672 
Q 1544 4750 1819 4750 
Q 2544 4750 2975 4387 
Q 3406 4025 3406 3419 
Q 3406 3131 3298 2873 
Q 3191 2616 2906 2266 
Q 2828 2175 2409 1742 
Q 1991 1309 1228 531 
z
" transform="scale(0.015625)"/>
      </defs>
      <use xlink:href="#DejaVuSans-30"/>
      <use xlink:href="#DejaVuSans-2e" x="63.623047"/>
      <use xlink:href="#DejaVuSans-32" x="95.410156"/>
      <use xlink:href="#DejaVuSans-30" x="159.033203"/>
     </g>
    </g>
   </g>
   <g id="xtick_13">
    <g id="line2d_16">
     <path d="M 458.946449 237.350058 
L 464.138528 238.741076 
" style="fill: none; stroke: #000000; stroke-width: 0.8; stroke-linecap: square"/>
    </g>
    <g id="text_13">
     <!-- 0.25 -->
     <g transform="translate(474.578927 231.6416) scale(0.21 -0.21)">
      <use xlink:href="#DejaVuSans-30"/>
      <use xlink:href="#DejaVuSans-2e" x="63.623047"/>
      <use xlink:href="#DejaVuSans-32" x="95.410156"/>
      <use xlink:href="#DejaVuSans-35" x="159.033203"/>
     </g>
    </g>
   </g>
   <g id="xtick_14">
    <g id="line2d_17">
     <path d="M 460.022798 205.009043 
L 465.249971 206.3799 
" style="fill: none; stroke: #000000; stroke-width: 0.8; stroke-linecap: square"/>
    </g>
    <g id="text_14">
     <!-- 0.30 -->
     <g transform="translate(475.756881 199.320038) scale(0.21 -0.21)">
      <defs>
       <path id="DejaVuSans-33" d="M 2597 2516 
Q 3050 2419 3304 2112 
Q 3559 1806 3559 1356 
Q 3559 666 3084 287 
Q 2609 -91 1734 -91 
Q 1441 -91 1130 -33 
Q 819 25 488 141 
L 488 750 
Q 750 597 1062 519 
Q 1375 441 1716 441 
Q 2309 441 2620 675 
Q 2931 909 2931 1356 
Q 2931 1769 2642 2001 
Q 2353 2234 1838 2234 
L 1294 2234 
L 1294 2753 
L 1863 2753 
Q 2328 2753 2575 2939 
Q 2822 3125 2822 3475 
Q 2822 3834 2567 4026 
Q 2313 4219 1838 4219 
Q 1578 4219 1281 4162 
Q 984 4106 628 3988 
L 628 4550 
Q 988 4650 1302 4700 
Q 1616 4750 1894 4750 
Q 2613 4750 3031 4423 
Q 3450 4097 3450 3541 
Q 3450 3153 3228 2886 
Q 3006 2619 2597 2516 
z
" transform="scale(0.015625)"/>
      </defs>
      <use xlink:href="#DejaVuSans-30"/>
      <use xlink:href="#DejaVuSans-2e" x="63.623047"/>
      <use xlink:href="#DejaVuSans-33" x="95.410156"/>
      <use xlink:href="#DejaVuSans-30" x="159.033203"/>
     </g>
    </g>
   </g>
  </g>
  <g id="axes_1">
   <g id="Poly3DCollection_1">
    <path d="M 255.105217 336.97267 
L 255.078115 333.694447 
L 282.00665 341.639487 
L 282.015516 344.928144 
z
" clip-path="url(#pb67feee0cf)" style="fill: #324880"/>
    <path d="M 239.066138 350.800912 
L 239.027822 347.504584 
L 255.078115 333.694447 
L 255.105217 336.97267 
z
" clip-path="url(#pb67feee0cf)" style="fill: #648fff"/>
    <path d="M 239.066138 350.800912 
L 255.105217 336.97267 
L 282.015516 344.928144 
L 266.12553 358.891028 
z
" clip-path="url(#pb67feee0cf)" style="fill: #3f599f"/>
    <path d="M 239.027822 347.504584 
L 266.105652 355.584181 
L 282.00665 341.639487 
L 255.078115 333.694447 
z
" clip-path="url(#pb67feee0cf)" style="fill: #577ddf"/>
    <path d="M 266.12553 358.891028 
L 282.015516 344.928144 
L 282.00665 341.639487 
L 266.105652 355.584181 
z
" clip-path="url(#pb67feee0cf)" style="fill: #324880"/>
    <path d="M 239.066138 350.800912 
L 266.12553 358.891028 
L 266.105652 355.584181 
L 239.027822 347.504584 
z
" clip-path="url(#pb67feee0cf)" style="fill: #648fff"/>
    <path d="M 309.187362 352.96094 
L 309.197089 349.661799 
L 336.653273 357.762517 
L 336.624589 361.07219 
z
" clip-path="url(#pb67feee0cf)" style="fill: #324880"/>
    <path d="M 293.450153 367.060441 
L 293.449077 363.743028 
L 309.197089 349.661799 
L 309.187362 352.96094 
z
" clip-path="url(#pb67feee0cf)" style="fill: #648fff"/>
    <path d="M 293.450153 367.060441 
L 309.187362 352.96094 
L 336.624589 361.07219 
L 321.043924 375.310323 
z
" clip-path="url(#pb67feee0cf)" style="fill: #3f599f"/>
    <path d="M 293.449077 363.743028 
L 321.062023 371.982295 
L 336.653273 357.762517 
L 309.197089 349.661799 
z
" clip-path="url(#pb67feee0cf)" style="fill: #577ddf"/>
    <path d="M 321.043924 375.310323 
L 336.624589 361.07219 
L 336.653273 357.762517 
L 321.062023 371.982295 
z
" clip-path="url(#pb67feee0cf)" style="fill: #324880"/>
    <path d="M 222.755118 364.86361 
L 222.70521 361.549033 
L 249.933541 369.766635 
L 249.964807 373.091815 
z
" clip-path="url(#pb67feee0cf)" style="fill: #324880"/>
    <path d="M 293.450153 367.060441 
L 321.043924 375.310323 
L 321.062023 371.982295 
L 293.449077 363.743028 
z
" clip-path="url(#pb67feee0cf)" style="fill: #648fff"/>
    <path d="M 206.165181 379.166779 
L 206.103289 375.833807 
L 222.70521 361.549033 
L 222.755118 364.86361 
z
" clip-path="url(#pb67feee0cf)" style="fill: #648fff"/>
    <path d="M 206.165181 379.166779 
L 222.755118 364.86361 
L 249.964807 373.091815 
L 233.526366 387.536638 
z
" clip-path="url(#pb67feee0cf)" style="fill: #3f599f"/>
    <path d="M 206.103289 375.833807 
L 233.483323 384.192981 
L 249.933541 369.766635 
L 222.70521 361.549033 
z
" clip-path="url(#pb67feee0cf)" style="fill: #577ddf"/>
    <path d="M 348.91084 383.64187 
L 364.331103 369.263049 
L 392.310889 377.534695 
L 377.054978 392.056299 
z
" clip-path="url(#pb67feee0cf)" style="fill: #3f599f"/>
    <path d="M 233.526366 387.536638 
L 249.964807 373.091815 
L 249.933541 369.766635 
L 233.483323 384.192981 
z
" clip-path="url(#pb67feee0cf)" style="fill: #324880"/>
    <path d="M 206.165181 379.166779 
L 233.526366 387.536638 
L 233.483323 384.192981 
L 206.103289 375.833807 
z
" clip-path="url(#pb67feee0cf)" style="fill: #648fff"/>
    <path d="M 277.443482 381.401361 
L 277.431231 378.065531 
L 305.202296 386.446932 
L 305.195153 389.79346 
z
" clip-path="url(#pb67feee0cf)" style="fill: #324880"/>
    <path d="M 261.160371 395.989953 
L 261.136557 392.635562 
L 277.431231 378.065531 
L 277.443482 381.401361 
z
" clip-path="url(#pb67feee0cf)" style="fill: #648fff"/>
    <path d="M 261.160371 395.989953 
L 277.443482 381.401361 
L 305.195153 389.79346 
L 289.071296 404.52798 
z
" clip-path="url(#pb67feee0cf)" style="fill: #3f599f"/>
    <path d="M 261.136557 392.635562 
L 289.0671 401.162807 
L 305.202296 386.446932 
L 277.431231 378.065531 
z
" clip-path="url(#pb67feee0cf)" style="fill: #577ddf"/>
    <path d="M 405.480493 400.554853 
L 420.568008 385.888329 
L 449.106605 394.325176 
L 434.191629 409.138801 
z
" clip-path="url(#pb67feee0cf)" style="fill: #3f599f"/>
    <path d="M 289.071296 404.52798 
L 305.195153 389.79346 
L 305.202296 386.446932 
L 289.0671 401.162807 
z
" clip-path="url(#pb67feee0cf)" style="fill: #324880"/>
    <path d="M 261.160371 395.989953 
L 289.071296 404.52798 
L 289.0671 401.162807 
L 261.136557 392.635562 
z
" clip-path="url(#pb67feee0cf)" style="fill: #648fff"/>
    <path d="M 172.119445 408.519628 
L 189.289113 393.716639 
L 216.802987 402.231842 
L 199.787198 417.183995 
z
" clip-path="url(#pb67feee0cf)" style="fill: #3f599f"/>
    <path d="M 317.263326 413.151997 
L 333.223907 398.26935 
L 361.533915 406.830291 
L 345.740728 421.86331 
z
" clip-path="url(#pb67feee0cf)" style="fill: #3f599f"/>
    <path d="M 364.331103 369.263049 
L 367.371214 159.032971 
L 396.599956 166.586763 
L 392.310889 377.534695 
z
" clip-path="url(#pb67feee0cf)" style="fill: #324880"/>
    <path d="M 348.91084 383.64187 
L 351.295894 172.166024 
L 367.371214 159.032971 
L 364.331103 369.263049 
z
" clip-path="url(#pb67feee0cf)" style="fill: #648fff"/>
    <path d="M 189.289113 393.716639 
L 187.068542 293.531922 
L 215.151953 301.715015 
L 216.802987 402.231842 
z
" clip-path="url(#pb67feee0cf)" style="fill: #324880"/>
    <path d="M 172.119445 408.519628 
L 169.515296 307.758667 
L 187.068542 293.531922 
L 189.289113 393.716639 
z
" clip-path="url(#pb67feee0cf)" style="fill: #648fff"/>
    <path d="M 377.054978 392.056299 
L 392.310889 377.534695 
L 396.599956 166.586763 
L 380.704133 179.856018 
z
" clip-path="url(#pb67feee0cf)" style="fill: #324880"/>
    <path d="M 227.735675 425.936274 
L 244.593594 410.832691 
L 272.665129 419.520484 
L 255.969172 434.777808 
z
" clip-path="url(#pb67feee0cf)" style="fill: #3f599f"/>
    <path d="M 348.91084 383.64187 
L 377.054978 392.056299 
L 380.704133 179.856018 
L 351.295894 172.166024 
z
" clip-path="url(#pb67feee0cf)" style="fill: #648fff"/>
    <path d="M 374.507858 430.663251 
L 390.129432 415.47757 
L 419.014799 424.212499 
L 403.569159 439.553181 
z
" clip-path="url(#pb67feee0cf)" style="fill: #3f599f"/>
    <path d="M 420.568008 385.888329 
L 426.131247 174.218745 
L 455.969811 181.930137 
L 449.106605 394.325176 
z
" clip-path="url(#pb67feee0cf)" style="fill: #324880"/>
    <path d="M 199.787198 417.183995 
L 216.802987 402.231842 
L 215.151953 301.715015 
L 197.758971 316.088165 
z
" clip-path="url(#pb67feee0cf)" style="fill: #324880"/>
    <path d="M 405.480493 400.554853 
L 410.419533 187.626331 
L 426.131247 174.218745 
L 420.568008 385.888329 
z
" clip-path="url(#pb67feee0cf)" style="fill: #648fff"/>
    <path d="M 172.119445 408.519628 
L 199.787198 417.183995 
L 197.758971 316.088165 
L 169.515296 307.758667 
z
" clip-path="url(#pb67feee0cf)" style="fill: #648fff"/>
    <path d="M 301.021874 428.296545 
L 301.026187 424.901676 
L 329.693176 433.7564 
L 329.668197 437.162228 
z
" clip-path="url(#pb67feee0cf)" style="fill: #324880"/>
    <path d="M 244.593594 410.832691 
L 243.523818 309.982159 
L 272.188605 318.334656 
L 272.665129 419.520484 
z
" clip-path="url(#pb67feee0cf)" style="fill: #324880"/>
    <path d="M 136.868122 438.911884 
L 154.648449 423.58241 
L 182.47126 432.399895 
L 164.847161 447.886582 
z
" clip-path="url(#pb67feee0cf)" style="fill: #3f599f"/>
    <path d="M 284.492071 443.70997 
L 284.484466 440.296092 
L 301.026187 424.901676 
L 301.021874 428.296545 
z
" clip-path="url(#pb67feee0cf)" style="fill: #648fff"/>
    <path d="M 227.735675 425.936274 
L 226.295349 324.503985 
L 243.523818 309.982159 
L 244.593594 410.832691 
z
" clip-path="url(#pb67feee0cf)" style="fill: #648fff"/>
    <path d="M 434.191629 409.138801 
L 449.106605 394.325176 
L 455.969811 181.930137 
L 440.446932 195.478229 
z
" clip-path="url(#pb67feee0cf)" style="fill: #324880"/>
    <path d="M 284.492071 443.70997 
L 301.021874 428.296545 
L 329.668197 437.162228 
L 313.308843 452.734162 
z
" clip-path="url(#pb67feee0cf)" style="fill: #3f599f"/>
    <path d="M 333.223907 398.26935 
L 334.930164 185.536333 
L 364.519638 193.366245 
L 361.533915 406.830291 
z
" clip-path="url(#pb67feee0cf)" style="fill: #324880"/>
    <path d="M 169.515296 307.758667 
L 197.758971 316.088165 
L 215.151953 301.715015 
L 187.068542 293.531922 
z
" clip-path="url(#pb67feee0cf)" style="fill: #577ddf"/>
    <path d="M 284.484466 440.296092 
L 313.322151 449.309245 
L 329.693176 433.7564 
L 301.026187 424.901676 
z
" clip-path="url(#pb67feee0cf)" style="fill: #577ddf"/>
    <path d="M 405.480493 400.554853 
L 434.191629 409.138801 
L 440.446932 195.478229 
L 410.419533 187.626331 
z
" clip-path="url(#pb67feee0cf)" style="fill: #648fff"/>
    <path d="M 317.263326 413.151997 
L 318.266084 199.150386 
L 334.930164 185.536333 
L 333.223907 398.26935 
z
" clip-path="url(#pb67feee0cf)" style="fill: #648fff"/>
    <path d="M 313.308843 452.734162 
L 329.668197 437.162228 
L 329.693176 433.7564 
L 313.322151 449.309245 
z
" clip-path="url(#pb67feee0cf)" style="fill: #324880"/>
    <path d="M 255.969172 434.777808 
L 272.665129 419.520484 
L 272.188605 318.334656 
L 255.129006 333.007478 
z
" clip-path="url(#pb67feee0cf)" style="fill: #324880"/>
    <path d="M 154.648449 423.58241 
L 151.647404 322.240431 
L 180.052593 330.720298 
L 182.47126 432.399895 
z
" clip-path="url(#pb67feee0cf)" style="fill: #324880"/>
    <path d="M 284.492071 443.70997 
L 313.308843 452.734162 
L 313.322151 449.309245 
L 284.484466 440.296092 
z
" clip-path="url(#pb67feee0cf)" style="fill: #648fff"/>
    <path d="M 227.735675 425.936274 
L 255.969172 434.777808 
L 255.129006 333.007478 
L 226.295349 324.503985 
z
" clip-path="url(#pb67feee0cf)" style="fill: #648fff"/>
    <path d="M 136.868122 438.911884 
L 133.456328 336.984132 
L 151.647404 322.240431 
L 154.648449 423.58241 
z
" clip-path="url(#pb67feee0cf)" style="fill: #648fff"/>
    <path d="M 358.608556 446.118911 
L 358.654626 442.702079 
L 387.915099 451.740121 
L 387.847503 455.168003 
z
" clip-path="url(#pb67feee0cf)" style="fill: #324880"/>
    <path d="M 345.740728 421.86331 
L 361.533915 406.830291 
L 364.519638 193.366245 
L 348.038535 207.12407 
z
" clip-path="url(#pb67feee0cf)" style="fill: #324880"/>
    <path d="M 193.115162 456.953968 
L 210.578871 441.307637 
L 238.975679 450.307031 
L 221.676623 466.115486 
z
" clip-path="url(#pb67feee0cf)" style="fill: #3f599f"/>
    <path d="M 342.424055 461.851812 
L 342.45871 458.415811 
L 358.654626 442.702079 
L 358.608556 446.118911 
z
" clip-path="url(#pb67feee0cf)" style="fill: #648fff"/>
    <path d="M 351.295894 172.166024 
L 380.704133 179.856018 
L 396.599956 166.586763 
L 367.371214 159.032971 
z
" clip-path="url(#pb67feee0cf)" style="fill: #577ddf"/>
    <path d="M 317.263326 413.151997 
L 345.740728 421.86331 
L 348.038535 207.12407 
L 318.266084 199.150386 
z
" clip-path="url(#pb67feee0cf)" style="fill: #648fff"/>
    <path d="M 342.424055 461.851812 
L 358.608556 446.118911 
L 387.847503 455.168003 
L 371.842366 471.06438 
z
" clip-path="url(#pb67feee0cf)" style="fill: #3f599f"/>
    <path d="M 390.129432 415.47757 
L 394.420987 201.278685 
L 424.639168 209.274965 
L 419.014799 424.212499 
z
" clip-path="url(#pb67feee0cf)" style="fill: #324880"/>
    <path d="M 164.847161 447.886582 
L 182.47126 432.399895 
L 180.052593 330.720298 
L 162.024272 345.618477 
z
" clip-path="url(#pb67feee0cf)" style="fill: #324880"/>
    <path d="M 226.295349 324.503985 
L 255.129006 333.007478 
L 272.188605 318.334656 
L 243.523818 309.982159 
z
" clip-path="url(#pb67feee0cf)" style="fill: #577ddf"/>
    <path d="M 342.45871 458.415811 
L 371.898814 467.617249 
L 387.915099 451.740121 
L 358.654626 442.702079 
z
" clip-path="url(#pb67feee0cf)" style="fill: #577ddf"/>
    <path d="M 374.507858 430.663251 
L 378.127681 215.182572 
L 394.420987 201.278685 
L 390.129432 415.47757 
z
" clip-path="url(#pb67feee0cf)" style="fill: #648fff"/>
    <path d="M 136.868122 438.911884 
L 164.847161 447.886582 
L 162.024272 345.618477 
L 133.456328 336.984132 
z
" clip-path="url(#pb67feee0cf)" style="fill: #648fff"/>
    <path d="M 371.842366 471.06438 
L 387.847503 455.168003 
L 387.915099 451.740121 
L 371.898814 467.617249 
z
" clip-path="url(#pb67feee0cf)" style="fill: #324880"/>
    <path d="M 267.666169 459.399497 
L 267.646216 455.96647 
L 296.656131 465.142342 
L 296.654921 468.586487 
z
" clip-path="url(#pb67feee0cf)" style="fill: #324880"/>
    <path d="M 210.578871 441.307637 
L 208.754826 339.288842 
L 237.758787 347.947461 
L 238.975679 450.307031 
z
" clip-path="url(#pb67feee0cf)" style="fill: #324880"/>
    <path d="M 342.424055 461.851812 
L 371.842366 471.06438 
L 371.898814 467.617249 
L 342.45871 458.415811 
z
" clip-path="url(#pb67feee0cf)" style="fill: #648fff"/>
    <path d="M 250.53614 475.37261 
L 250.503391 471.920298 
L 267.646216 455.96647 
L 267.666169 459.399497 
z
" clip-path="url(#pb67feee0cf)" style="fill: #648fff"/>
    <path d="M 193.115162 456.953968 
L 190.893693 354.34394 
L 208.754826 339.288842 
L 210.578871 441.307637 
z
" clip-path="url(#pb67feee0cf)" style="fill: #648fff"/>
    <path d="M 403.569159 439.553181 
L 419.014799 424.212499 
L 424.639168 209.274965 
L 408.538601 223.327252 
z
" clip-path="url(#pb67feee0cf)" style="fill: #324880"/>
    <path d="M 250.53614 475.37261 
L 267.666169 459.399497 
L 296.654921 468.586487 
L 279.698401 484.726844 
z
" clip-path="url(#pb67feee0cf)" style="fill: #3f599f"/>
    <path d="M 133.456328 336.984132 
L 162.024272 345.618477 
L 180.052593 330.720298 
L 151.647404 322.240431 
z
" clip-path="url(#pb67feee0cf)" style="fill: #577ddf"/>
    <path d="M 250.503391 471.920298 
L 279.68707 481.263335 
L 296.656131 465.142342 
L 267.646216 455.96647 
z
" clip-path="url(#pb67feee0cf)" style="fill: #577ddf"/>
    <path d="M 410.419533 187.626331 
L 440.446932 195.478229 
L 455.969811 181.930137 
L 426.131247 174.218745 
z
" clip-path="url(#pb67feee0cf)" style="fill: #577ddf"/>
    <path d="M 374.507858 430.663251 
L 403.569159 439.553181 
L 408.538601 223.327252 
L 378.127681 215.182572 
z
" clip-path="url(#pb67feee0cf)" style="fill: #648fff"/>
    <path d="M 279.698401 484.726844 
L 296.654921 468.586487 
L 296.656131 465.142342 
L 279.68707 481.263335 
z
" clip-path="url(#pb67feee0cf)" style="fill: #324880"/>
    <path d="M 221.676623 466.115486 
L 238.975679 450.307031 
L 237.758787 347.947461 
L 220.069387 363.161971 
z
" clip-path="url(#pb67feee0cf)" style="fill: #324880"/>
    <path d="M 250.53614 475.37261 
L 279.698401 484.726844 
L 279.68707 481.263335 
L 250.503391 471.920298 
z
" clip-path="url(#pb67feee0cf)" style="fill: #648fff"/>
    <path d="M 193.115162 456.953968 
L 221.676623 466.115486 
L 220.069387 363.161971 
L 190.893693 354.34394 
z
" clip-path="url(#pb67feee0cf)" style="fill: #648fff"/>
    <path d="M 325.94661 477.869482 
L 325.969428 474.414174 
L 355.590891 483.78348 
L 355.54601 487.249996 
z
" clip-path="url(#pb67feee0cf)" style="fill: #324880"/>
    <path d="M 309.168196 494.179723 
L 309.178736 490.704974 
L 325.969428 474.414174 
L 325.94661 477.869482 
z
" clip-path="url(#pb67feee0cf)" style="fill: #648fff"/>
    <path d="M 318.266084 199.150386 
L 348.038535 207.12407 
L 364.519638 193.366245 
L 334.930164 185.536333 
z
" clip-path="url(#pb67feee0cf)" style="fill: #577ddf"/>
    <path d="M 309.168196 494.179723 
L 325.94661 477.869482 
L 355.54601 487.249996 
L 338.950416 503.732818 
z
" clip-path="url(#pb67feee0cf)" style="fill: #3f599f"/>
    <path d="M 190.893693 354.34394 
L 220.069387 363.161971 
L 237.758787 347.947461 
L 208.754826 339.288842 
z
" clip-path="url(#pb67feee0cf)" style="fill: #577ddf"/>
    <path d="M 309.178736 490.704974 
L 338.983293 500.246783 
L 355.590891 483.78348 
L 325.969428 474.414174 
z
" clip-path="url(#pb67feee0cf)" style="fill: #577ddf"/>
    <path d="M 338.950416 503.732818 
L 355.54601 487.249996 
L 355.590891 483.78348 
L 338.983293 500.246783 
z
" clip-path="url(#pb67feee0cf)" style="fill: #324880"/>
    <path d="M 309.168196 494.179723 
L 338.950416 503.732818 
L 338.983293 500.246783 
L 309.178736 490.704974 
z
" clip-path="url(#pb67feee0cf)" style="fill: #648fff"/>
    <path d="M 378.127681 215.182572 
L 408.538601 223.327252 
L 424.639168 209.274965 
L 394.420987 201.278685 
z
" clip-path="url(#pb67feee0cf)" style="fill: #577ddf"/>
   </g>
   <g id="text_15">
    <!-- Real Amplitude (ρ) -->
    <g transform="translate(190.023516 51.6) scale(0.21 -0.21)">
     <defs>
      <path id="DejaVuSans-52" d="M 2841 2188 
Q 3044 2119 3236 1894 
Q 3428 1669 3622 1275 
L 4263 0 
L 3584 0 
L 2988 1197 
Q 2756 1666 2539 1819 
Q 2322 1972 1947 1972 
L 1259 1972 
L 1259 0 
L 628 0 
L 628 4666 
L 2053 4666 
Q 2853 4666 3247 4331 
Q 3641 3997 3641 3322 
Q 3641 2881 3436 2590 
Q 3231 2300 2841 2188 
z
M 1259 4147 
L 1259 2491 
L 2053 2491 
Q 2509 2491 2742 2702 
Q 2975 2913 2975 3322 
Q 2975 3731 2742 3939 
Q 2509 4147 2053 4147 
L 1259 4147 
z
" transform="scale(0.015625)"/>
      <path id="DejaVuSans-65" d="M 3597 1894 
L 3597 1613 
L 953 1613 
Q 991 1019 1311 708 
Q 1631 397 2203 397 
Q 2534 397 2845 478 
Q 3156 559 3463 722 
L 3463 178 
Q 3153 47 2828 -22 
Q 2503 -91 2169 -91 
Q 1331 -91 842 396 
Q 353 884 353 1716 
Q 353 2575 817 3079 
Q 1281 3584 2069 3584 
Q 2775 3584 3186 3129 
Q 3597 2675 3597 1894 
z
M 3022 2063 
Q 3016 2534 2758 2815 
Q 2500 3097 2075 3097 
Q 1594 3097 1305 2825 
Q 1016 2553 972 2059 
L 3022 2063 
z
" transform="scale(0.015625)"/>
      <path id="DejaVuSans-61" d="M 2194 1759 
Q 1497 1759 1228 1600 
Q 959 1441 959 1056 
Q 959 750 1161 570 
Q 1363 391 1709 391 
Q 2188 391 2477 730 
Q 2766 1069 2766 1631 
L 2766 1759 
L 2194 1759 
z
M 3341 1997 
L 3341 0 
L 2766 0 
L 2766 531 
Q 2569 213 2275 61 
Q 1981 -91 1556 -91 
Q 1019 -91 701 211 
Q 384 513 384 1019 
Q 384 1609 779 1909 
Q 1175 2209 1959 2209 
L 2766 2209 
L 2766 2266 
Q 2766 2663 2505 2880 
Q 2244 3097 1772 3097 
Q 1472 3097 1187 3025 
Q 903 2953 641 2809 
L 641 3341 
Q 956 3463 1253 3523 
Q 1550 3584 1831 3584 
Q 2591 3584 2966 3190 
Q 3341 2797 3341 1997 
z
" transform="scale(0.015625)"/>
      <path id="DejaVuSans-6c" d="M 603 4863 
L 1178 4863 
L 1178 0 
L 603 0 
L 603 4863 
z
" transform="scale(0.015625)"/>
      <path id="DejaVuSans-20" transform="scale(0.015625)"/>
      <path id="DejaVuSans-41" d="M 2188 4044 
L 1331 1722 
L 3047 1722 
L 2188 4044 
z
M 1831 4666 
L 2547 4666 
L 4325 0 
L 3669 0 
L 3244 1197 
L 1141 1197 
L 716 0 
L 50 0 
L 1831 4666 
z
" transform="scale(0.015625)"/>
      <path id="DejaVuSans-6d" d="M 3328 2828 
Q 3544 3216 3844 3400 
Q 4144 3584 4550 3584 
Q 5097 3584 5394 3201 
Q 5691 2819 5691 2113 
L 5691 0 
L 5113 0 
L 5113 2094 
Q 5113 2597 4934 2840 
Q 4756 3084 4391 3084 
Q 3944 3084 3684 2787 
Q 3425 2491 3425 1978 
L 3425 0 
L 2847 0 
L 2847 2094 
Q 2847 2600 2669 2842 
Q 2491 3084 2119 3084 
Q 1678 3084 1418 2786 
Q 1159 2488 1159 1978 
L 1159 0 
L 581 0 
L 581 3500 
L 1159 3500 
L 1159 2956 
Q 1356 3278 1631 3431 
Q 1906 3584 2284 3584 
Q 2666 3584 2933 3390 
Q 3200 3197 3328 2828 
z
" transform="scale(0.015625)"/>
      <path id="DejaVuSans-70" d="M 1159 525 
L 1159 -1331 
L 581 -1331 
L 581 3500 
L 1159 3500 
L 1159 2969 
Q 1341 3281 1617 3432 
Q 1894 3584 2278 3584 
Q 2916 3584 3314 3078 
Q 3713 2572 3713 1747 
Q 3713 922 3314 415 
Q 2916 -91 2278 -91 
Q 1894 -91 1617 61 
Q 1341 213 1159 525 
z
M 3116 1747 
Q 3116 2381 2855 2742 
Q 2594 3103 2138 3103 
Q 1681 3103 1420 2742 
Q 1159 2381 1159 1747 
Q 1159 1113 1420 752 
Q 1681 391 2138 391 
Q 2594 391 2855 752 
Q 3116 1113 3116 1747 
z
" transform="scale(0.015625)"/>
      <path id="DejaVuSans-69" d="M 603 3500 
L 1178 3500 
L 1178 0 
L 603 0 
L 603 3500 
z
M 603 4863 
L 1178 4863 
L 1178 4134 
L 603 4134 
L 603 4863 
z
" transform="scale(0.015625)"/>
      <path id="DejaVuSans-74" d="M 1172 4494 
L 1172 3500 
L 2356 3500 
L 2356 3053 
L 1172 3053 
L 1172 1153 
Q 1172 725 1289 603 
Q 1406 481 1766 481 
L 2356 481 
L 2356 0 
L 1766 0 
Q 1100 0 847 248 
Q 594 497 594 1153 
L 594 3053 
L 172 3053 
L 172 3500 
L 594 3500 
L 594 4494 
L 1172 4494 
z
" transform="scale(0.015625)"/>
      <path id="DejaVuSans-75" d="M 544 1381 
L 544 3500 
L 1119 3500 
L 1119 1403 
Q 1119 906 1312 657 
Q 1506 409 1894 409 
Q 2359 409 2629 706 
Q 2900 1003 2900 1516 
L 2900 3500 
L 3475 3500 
L 3475 0 
L 2900 0 
L 2900 538 
Q 2691 219 2414 64 
Q 2138 -91 1772 -91 
Q 1169 -91 856 284 
Q 544 659 544 1381 
z
M 1991 3584 
L 1991 3584 
z
" transform="scale(0.015625)"/>
      <path id="DejaVuSans-64" d="M 2906 2969 
L 2906 4863 
L 3481 4863 
L 3481 0 
L 2906 0 
L 2906 525 
Q 2725 213 2448 61 
Q 2172 -91 1784 -91 
Q 1150 -91 751 415 
Q 353 922 353 1747 
Q 353 2572 751 3078 
Q 1150 3584 1784 3584 
Q 2172 3584 2448 3432 
Q 2725 3281 2906 2969 
z
M 947 1747 
Q 947 1113 1208 752 
Q 1469 391 1925 391 
Q 2381 391 2643 752 
Q 2906 1113 2906 1747 
Q 2906 2381 2643 2742 
Q 2381 3103 1925 3103 
Q 1469 3103 1208 2742 
Q 947 2381 947 1747 
z
" transform="scale(0.015625)"/>
      <path id="DejaVuSans-28" d="M 1984 4856 
Q 1566 4138 1362 3434 
Q 1159 2731 1159 2009 
Q 1159 1288 1364 580 
Q 1569 -128 1984 -844 
L 1484 -844 
Q 1016 -109 783 600 
Q 550 1309 550 2009 
Q 550 2706 781 3412 
Q 1013 4119 1484 4856 
L 1984 4856 
z
" transform="scale(0.015625)"/>
      <path id="DejaVuSans-3c1" d="M 863 2875 
Q 1053 3194 1525 3475 
Q 1709 3584 2278 3584 
Q 2916 3584 3314 3078 
Q 3713 2572 3713 1747 
Q 3713 922 3314 415 
Q 2916 -91 2278 -91 
Q 1894 -91 1617 61 
Q 1341 213 1159 525 
L 1159 -1331 
L 581 -1331 
L 581 1716 
Q 581 2438 863 2875 
z
M 3116 1747 
Q 3116 2381 2855 2742 
Q 2594 3103 2138 3103 
Q 1681 3103 1420 2742 
Q 1159 2381 1159 1747 
Q 1159 1113 1420 752 
Q 1681 391 2138 391 
Q 2594 391 2855 752 
Q 3116 1113 3116 1747 
z
" transform="scale(0.015625)"/>
      <path id="DejaVuSans-29" d="M 513 4856 
L 1013 4856 
Q 1481 4119 1714 3412 
Q 1947 2706 1947 2009 
Q 1947 1309 1714 600 
Q 1481 -109 1013 -844 
L 513 -844 
Q 928 -128 1133 580 
Q 1338 1288 1338 2009 
Q 1338 2731 1133 3434 
Q 928 4138 513 4856 
z
" transform="scale(0.015625)"/>
     </defs>
     <use xlink:href="#DejaVuSans-52"/>
     <use xlink:href="#DejaVuSans-65" x="64.982422"/>
     <use xlink:href="#DejaVuSans-61" x="126.505859"/>
     <use xlink:href="#DejaVuSans-6c" x="187.785156"/>
     <use xlink:href="#DejaVuSans-20" x="215.568359"/>
     <use xlink:href="#DejaVuSans-41" x="247.355469"/>
     <use xlink:href="#DejaVuSans-6d" x="315.763672"/>
     <use xlink:href="#DejaVuSans-70" x="413.175781"/>
     <use xlink:href="#DejaVuSans-6c" x="476.652344"/>
     <use xlink:href="#DejaVuSans-69" x="504.435547"/>
     <use xlink:href="#DejaVuSans-74" x="532.21875"/>
     <use xlink:href="#DejaVuSans-75" x="571.427734"/>
     <use xlink:href="#DejaVuSans-64" x="634.806641"/>
     <use xlink:href="#DejaVuSans-65" x="698.283203"/>
     <use xlink:href="#DejaVuSans-20" x="759.806641"/>
     <use xlink:href="#DejaVuSans-28" x="791.59375"/>
     <use xlink:href="#DejaVuSans-3c1" x="830.607422"/>
     <use xlink:href="#DejaVuSans-29" x="894.083984"/>
    </g>
   </g>
  </g>
  <g id="patch_6">
   <path d="M 604.8 576 
L 1123.2 576 
L 1123.2 57.6 
L 604.8 57.6 
z
" style="fill: #ffffff"/>
  </g>
  <g id="pane3d_4">
   <g id="patch_7">
    <path d="M 706.07018 436.456468 
L 829.494133 330.550231 
L 827.743197 126.70673 
L 698.643358 223.613571 
" style="fill: #f2f2f2; opacity: 0.5; stroke: #f2f2f2; stroke-linejoin: miter"/>
   </g>
  </g>
  <g id="pane3d_5">
   <g id="patch_8">
    <path d="M 829.494133 330.550231 
L 1031.554898 390.069341 
L 1038.583588 181.103065 
L 827.743197 126.70673 
" style="fill: #e6e6e6; opacity: 0.5; stroke: #e6e6e6; stroke-linejoin: miter"/>
   </g>
  </g>
  <g id="pane3d_6">
   <g id="patch_9">
    <path d="M 706.07018 436.456468 
L 916.912731 504.076731 
L 1031.554898 390.069341 
L 829.494133 330.550231 
" style="fill: #ececec; opacity: 0.5; stroke: #ececec; stroke-linejoin: miter"/>
   </g>
  </g>
  <g id="grid3d_4">
   <g id="Line3DCollection_4">
    <path d="M 734.635886 445.617904 
L 856.925726 338.630493 
L 856.328796 134.081748 
" style="fill: none; stroke: #b0b0b0; stroke-width: 0.8"/>
    <path d="M 784.310046 461.549127 
L 904.58611 352.669358 
L 906.022474 146.902603 
" style="fill: none; stroke: #b0b0b0; stroke-width: 0.8"/>
    <path d="M 834.89502 477.772462 
L 953.066152 366.949661 
L 956.607663 159.953465 
" style="fill: none; stroke: #b0b0b0; stroke-width: 0.8"/>
    <path d="M 886.41609 494.296016 
L 1002.38718 381.477685 
L 1008.108569 173.24058 
" style="fill: none; stroke: #b0b0b0; stroke-width: 0.8"/>
   </g>
  </g>
  <g id="grid3d_5">
   <g id="Line3DCollection_5">
    <path d="M 717.757365 209.265931 
L 724.301379 420.812846 
L 933.880707 487.202708 
" style="fill: none; stroke: #b0b0b0; stroke-width: 0.8"/>
    <path d="M 749.704273 185.285468 
L 754.805664 394.638072 
L 962.24502 458.995448 
" style="fill: none; stroke: #b0b0b0; stroke-width: 0.8"/>
    <path d="M 780.65707 162.051218 
L 784.400054 369.24405 
L 989.731787 431.660877 
" style="fill: none; stroke: #b0b0b0; stroke-width: 0.8"/>
    <path d="M 810.661448 139.528886 
L 813.124663 344.596362 
L 1016.38111 405.159111 
" style="fill: none; stroke: #b0b0b0; stroke-width: 0.8"/>
   </g>
  </g>
  <g id="grid3d_6">
   <g id="Line3DCollection_6">
    <path d="M 1031.959188 378.049609 
L 829.393273 318.808206 
L 705.643471 424.227553 
" style="fill: none; stroke: #b0b0b0; stroke-width: 0.8"/>
    <path d="M 1033.152292 342.578055 
L 829.09573 284.168274 
L 704.383863 388.128865 
" style="fill: none; stroke: #b0b0b0; stroke-width: 0.8"/>
    <path d="M 1034.363217 306.576692 
L 828.793901 249.029395 
L 703.104919 351.476008 
" style="fill: none; stroke: #b0b0b0; stroke-width: 0.8"/>
    <path d="M 1035.592364 270.033562 
L 828.487692 213.380712 
L 701.806189 314.256123 
" style="fill: none; stroke: #b0b0b0; stroke-width: 0.8"/>
    <path d="M 1036.840148 232.936342 
L 828.177009 177.211048 
L 700.487211 276.455949 
" style="fill: none; stroke: #b0b0b0; stroke-width: 0.8"/>
    <path d="M 1038.106997 195.272335 
L 827.861752 140.5089 
L 699.147507 238.061808 
" style="fill: none; stroke: #b0b0b0; stroke-width: 0.8"/>
   </g>
  </g>
  <g id="axis3d_4">
   <g id="line2d_18">
    <path d="M 706.07018 436.456468 
L 916.912731 504.076731 
" style="fill: none; stroke: #000000; stroke-width: 0.8; stroke-linecap: square"/>
   </g>
   <g id="xtick_15">
    <g id="line2d_19">
     <path d="M 735.677227 444.706868 
L 732.549953 447.442819 
" style="fill: none; stroke: #000000; stroke-width: 0.8; stroke-linecap: square"/>
    </g>
    <g id="text_16">
     <!-- 00 -->
     <g transform="translate(707.351686 489.365693) rotate(-45) scale(0.21 -0.21)">
      <use xlink:href="#DejaVuSans-30"/>
      <use xlink:href="#DejaVuSans-30" x="63.623047"/>
     </g>
    </g>
   </g>
   <g id="xtick_16">
    <g id="line2d_20">
     <path d="M 785.334802 460.621468 
L 782.257306 463.407368 
" style="fill: none; stroke: #000000; stroke-width: 0.8; stroke-linecap: square"/>
    </g>
    <g id="text_17">
     <!-- 01 -->
     <g transform="translate(757.023931 505.435143) rotate(-45) scale(0.21 -0.21)">
      <use xlink:href="#DejaVuSans-30"/>
      <use xlink:href="#DejaVuSans-31" x="63.623047"/>
     </g>
    </g>
   </g>
   <g id="xtick_17">
    <g id="line2d_21">
     <path d="M 835.902405 476.82772 
L 832.877048 479.664949 
" style="fill: none; stroke: #000000; stroke-width: 0.8; stroke-linecap: square"/>
    </g>
    <g id="text_18">
     <!-- 10 -->
     <g transform="translate(807.60781 521.799516) rotate(-45) scale(0.21 -0.21)">
      <use xlink:href="#DejaVuSans-31"/>
      <use xlink:href="#DejaVuSans-30" x="63.623047"/>
     </g>
    </g>
   </g>
   <g id="xtick_18">
    <g id="line2d_22">
     <path d="M 887.405283 493.333715 
L 884.434531 496.223705 
" style="fill: none; stroke: #000000; stroke-width: 0.8; stroke-linecap: square"/>
    </g>
    <g id="text_19">
     <!-- 11 -->
     <g transform="translate(859.128654 538.467006) rotate(-45) scale(0.21 -0.21)">
      <use xlink:href="#DejaVuSans-31"/>
      <use xlink:href="#DejaVuSans-31" x="63.623047"/>
     </g>
    </g>
   </g>
  </g>
  <g id="axis3d_5">
   <g id="line2d_23">
    <path d="M 1031.554898 390.069341 
L 916.912731 504.076731 
" style="fill: none; stroke: #000000; stroke-width: 0.8; stroke-linecap: square"/>
   </g>
   <g id="xtick_19">
    <g id="line2d_24">
     <path d="M 932.140222 486.651363 
L 937.364886 488.306415 
" style="fill: none; stroke: #000000; stroke-width: 0.8; stroke-linecap: square"/>
    </g>
    <g id="text_20">
     <!-- 00 -->
     <g transform="translate(944.70027 499.207917) rotate(-337.5) scale(0.21 -0.21)">
      <use xlink:href="#DejaVuSans-30"/>
      <use xlink:href="#DejaVuSans-30" x="63.623047"/>
     </g>
    </g>
   </g>
   <g id="xtick_20">
    <g id="line2d_25">
     <path d="M 960.5233 458.46129 
L 965.691587 460.064734 
" style="fill: none; stroke: #000000; stroke-width: 0.8; stroke-linecap: square"/>
    </g>
    <g id="text_21">
     <!-- 01 -->
     <g transform="translate(972.913817 470.822876) rotate(-337.5) scale(0.21 -0.21)">
      <use xlink:href="#DejaVuSans-30"/>
      <use xlink:href="#DejaVuSans-31" x="63.623047"/>
     </g>
    </g>
   </g>
   <g id="xtick_21">
    <g id="line2d_26">
     <path d="M 988.028511 431.143114 
L 993.141381 432.697327 
" style="fill: none; stroke: #000000; stroke-width: 0.8; stroke-linecap: square"/>
    </g>
    <g id="text_22">
     <!-- 10 -->
     <g transform="translate(1000.254695 443.315808) rotate(-337.5) scale(0.21 -0.21)">
      <use xlink:href="#DejaVuSans-31"/>
      <use xlink:href="#DejaVuSans-30" x="63.623047"/>
     </g>
    </g>
   </g>
   <g id="xtick_22">
    <g id="line2d_27">
     <path d="M 1014.695964 404.657001 
L 1019.754368 406.164215 
" style="fill: none; stroke: #000000; stroke-width: 0.8; stroke-linecap: square"/>
    </g>
    <g id="text_23">
     <!-- 11 -->
     <g transform="translate(1026.762776 416.646599) rotate(-337.5) scale(0.21 -0.21)">
      <use xlink:href="#DejaVuSans-31"/>
      <use xlink:href="#DejaVuSans-31" x="63.623047"/>
     </g>
    </g>
   </g>
  </g>
  <g id="axis3d_6">
   <g id="line2d_28">
    <path d="M 1031.554898 390.069341 
L 1038.583588 181.103065 
" style="fill: none; stroke: #000000; stroke-width: 0.8; stroke-linecap: square"/>
   </g>
   <g id="xtick_23">
    <g id="line2d_29">
     <path d="M 1030.280138 377.558563 
L 1035.320224 379.032561 
" style="fill: none; stroke: #000000; stroke-width: 0.8; stroke-linecap: square"/>
    </g>
    <g id="text_24">
     <!-- −0.2 -->
     <g transform="translate(1045.471973 371.77003) scale(0.21 -0.21)">
      <defs>
       <path id="DejaVuSans-2212" d="M 678 2272 
L 4684 2272 
L 4684 1741 
L 678 1741 
L 678 2272 
z
" transform="scale(0.015625)"/>
      </defs>
      <use xlink:href="#DejaVuSans-2212"/>
      <use xlink:href="#DejaVuSans-30" x="83.789062"/>
      <use xlink:href="#DejaVuSans-2e" x="147.412109"/>
      <use xlink:href="#DejaVuSans-32" x="179.199219"/>
     </g>
    </g>
   </g>
   <g id="xtick_24">
    <g id="line2d_30">
     <path d="M 1031.46045 342.093777 
L 1036.538958 343.547465 
" style="fill: none; stroke: #000000; stroke-width: 0.8; stroke-linecap: square"/>
    </g>
    <g id="text_25">
     <!-- −0.1 -->
     <g transform="translate(1046.763767 336.324844) scale(0.21 -0.21)">
      <use xlink:href="#DejaVuSans-2212"/>
      <use xlink:href="#DejaVuSans-30" x="83.789062"/>
      <use xlink:href="#DejaVuSans-2e" x="147.412109"/>
      <use xlink:href="#DejaVuSans-31" x="179.199219"/>
     </g>
    </g>
   </g>
   <g id="xtick_25">
    <g id="line2d_31">
     <path d="M 1032.658385 306.09944 
L 1037.775906 307.532044 
" style="fill: none; stroke: #000000; stroke-width: 0.8; stroke-linecap: square"/>
    </g>
    <g id="text_26">
     <!-- 0.0 -->
     <g transform="translate(1048.074832 300.350853) scale(0.21 -0.21)">
      <use xlink:href="#DejaVuSans-30"/>
      <use xlink:href="#DejaVuSans-2e" x="63.623047"/>
      <use xlink:href="#DejaVuSans-30" x="95.410156"/>
     </g>
    </g>
   </g>
   <g id="xtick_26">
    <g id="line2d_32">
     <path d="M 1033.874343 269.563603 
L 1039.031479 270.974321 
" style="fill: none; stroke: #000000; stroke-width: 0.8; stroke-linecap: square"/>
    </g>
    <g id="text_27">
     <!-- 0.1 -->
     <g transform="translate(1049.405604 263.836134) scale(0.21 -0.21)">
      <use xlink:href="#DejaVuSans-30"/>
      <use xlink:href="#DejaVuSans-2e" x="63.623047"/>
      <use xlink:href="#DejaVuSans-31" x="95.410156"/>
     </g>
    </g>
   </g>
   <g id="xtick_27">
    <g id="line2d_33">
     <path d="M 1035.108732 232.473953 
L 1040.306101 233.861955 
" style="fill: none; stroke: #000000; stroke-width: 0.8; stroke-linecap: square"/>
    </g>
    <g id="text_28">
     <!-- 0.2 -->
     <g transform="translate(1050.75653 226.768404) scale(0.21 -0.21)">
      <use xlink:href="#DejaVuSans-30"/>
      <use xlink:href="#DejaVuSans-2e" x="63.623047"/>
      <use xlink:href="#DejaVuSans-32" x="95.410156"/>
     </g>
    </g>
   </g>
   <g id="xtick_28">
    <g id="line2d_34">
     <path d="M 1036.361975 194.817802 
L 1041.60021 196.182226 
" style="fill: none; stroke: #000000; stroke-width: 0.8; stroke-linecap: square"/>
    </g>
    <g id="text_29">
     <!-- 0.3 -->
     <g transform="translate(1052.128072 189.135003) scale(0.21 -0.21)">
      <use xlink:href="#DejaVuSans-30"/>
      <use xlink:href="#DejaVuSans-2e" x="63.623047"/>
      <use xlink:href="#DejaVuSans-33" x="95.410156"/>
     </g>
    </g>
   </g>
  </g>
  <g id="axes_2">
   <g id="Poly3DCollection_2">
    <path d="M 821.791079 355.411799 
L 845.612317 362.544934 
L 859.572276 350.22848 
L 835.866748 343.199915 
z
" clip-path="url(#pe54c668bba)" style="fill: #577ddf"/>
    <path d="M 835.269359 261.254105 
L 835.866748 343.199915 
L 859.572276 350.22848 
L 859.377061 268.047917 
z
" clip-path="url(#pe54c668bba)" style="fill: #648fff"/>
    <path d="M 820.948097 273.058744 
L 821.791079 355.411799 
L 835.866748 343.199915 
L 835.269359 261.254105 
z
" clip-path="url(#pe54c668bba)" style="fill: #324880"/>
    <path d="M 869.638733 369.739508 
L 893.872991 376.99632 
L 907.593953 364.466656 
L 883.480474 357.317135 
z
" clip-path="url(#pe54c668bba)" style="fill: #577ddf"/>
    <path d="M 845.175466 279.955375 
L 859.377061 268.047917 
L 859.572276 350.22848 
L 845.612317 362.544934 
z
" clip-path="url(#pe54c668bba)" style="fill: #648fff"/>
    <path d="M 820.948097 273.058744 
L 845.175466 279.955375 
L 845.612317 362.544934 
L 821.791079 355.411799 
z
" clip-path="url(#pe54c668bba)" style="fill: #324880"/>
    <path d="M 883.694406 274.900809 
L 883.480474 357.317135 
L 907.593953 364.466656 
L 908.224141 281.813554 
z
" clip-path="url(#pe54c668bba)" style="fill: #648fff"/>
    <path d="M 793.005775 380.385588 
L 817.060907 387.734988 
L 831.443436 375.045713 
L 807.505663 367.805657 
z
" clip-path="url(#pe54c668bba)" style="fill: #577ddf"/>
    <path d="M 869.615119 286.912435 
L 869.638733 369.739508 
L 883.480474 357.317135 
L 883.694406 274.900809 
z
" clip-path="url(#pe54c668bba)" style="fill: #324880"/>
    <path d="M 820.948097 273.058744 
L 835.269359 261.254105 
L 859.377061 268.047917 
L 845.175466 279.955375 
z
" clip-path="url(#pe54c668bba)" style="fill: #3f599f"/>
    <path d="M 894.269856 293.930722 
L 908.224141 281.813554 
L 907.593953 364.466656 
L 893.872991 376.99632 
z
" clip-path="url(#pe54c668bba)" style="fill: #648fff"/>
    <path d="M 806.409744 285.042325 
L 807.505663 367.805657 
L 831.443436 375.045713 
L 830.75765 292.044127 
z
" clip-path="url(#pe54c668bba)" style="fill: #648fff"/>
    <path d="M 869.615119 286.912435 
L 894.269856 293.930722 
L 893.872991 376.99632 
L 869.638733 369.739508 
z
" clip-path="url(#pe54c668bba)" style="fill: #324880"/>
    <path d="M 791.649328 297.208947 
L 793.005775 380.385588 
L 807.505663 367.805657 
L 806.409744 285.042325 
z
" clip-path="url(#pe54c668bba)" style="fill: #324880"/>
    <path d="M 841.326371 395.148648 
L 865.804936 402.627416 
L 879.944894 389.715135 
L 855.588941 382.348599 
z
" clip-path="url(#pe54c668bba)" style="fill: #577ddf"/>
    <path d="M 869.615119 286.912435 
L 883.694406 274.900809 
L 908.224141 281.813554 
L 894.269856 293.930722 
z
" clip-path="url(#pe54c668bba)" style="fill: #3f599f"/>
    <path d="M 816.118634 304.318345 
L 830.75765 292.044127 
L 831.443436 375.045713 
L 817.060907 387.734988 
z
" clip-path="url(#pe54c668bba)" style="fill: #648fff"/>
    <path d="M 791.649328 297.208947 
L 816.118634 304.318345 
L 817.060907 387.734988 
L 793.005775 380.385588 
z
" clip-path="url(#pe54c668bba)" style="fill: #324880"/>
    <path d="M 855.320525 299.107748 
L 855.588941 382.348599 
L 879.944894 389.715135 
L 880.101229 306.234012 
z
" clip-path="url(#pe54c668bba)" style="fill: #648fff"/>
    <path d="M 840.805647 311.490995 
L 841.326371 395.148648 
L 855.588941 382.348599 
L 855.320525 299.107748 
z
" clip-path="url(#pe54c668bba)" style="fill: #324880"/>
    <path d="M 791.649328 297.208947 
L 806.409744 285.042325 
L 830.75765 292.044127 
L 816.118634 304.318345 
z
" clip-path="url(#pe54c668bba)" style="fill: #3f599f"/>
    <path d="M 865.713285 318.727746 
L 880.101229 306.234012 
L 879.944894 389.715135 
L 865.804936 402.627416 
z
" clip-path="url(#pe54c668bba)" style="fill: #648fff"/>
    <path d="M 840.805647 311.490995 
L 865.713285 318.727746 
L 865.804936 402.627416 
L 841.326371 395.148648 
z
" clip-path="url(#pe54c668bba)" style="fill: #324880"/>
    <path d="M 840.805647 311.490995 
L 855.320525 299.107748 
L 880.101229 306.234012 
L 865.713285 318.727746 
z
" clip-path="url(#pe54c668bba)" style="fill: #3f599f"/>
    <path d="M 905.102674 313.423754 
L 905.102674 313.423754 
L 930.327822 320.677828 
L 930.327822 320.677828 
z
" clip-path="url(#pe54c668bba)" style="fill: #648fff"/>
    <path d="M 890.844518 326.029462 
L 890.844518 326.029462 
L 905.102674 313.423754 
L 905.102674 313.423754 
z
" clip-path="url(#pe54c668bba)" style="fill: #324880"/>
    <path d="M 890.844518 326.029462 
L 905.102674 313.423754 
L 930.327822 320.677828 
L 916.202372 333.397021 
z
" clip-path="url(#pe54c668bba)" style="fill: #3f599f"/>
    <path d="M 890.844518 326.029462 
L 916.202372 333.397021 
L 930.327822 320.677828 
L 905.102674 313.423754 
z
" clip-path="url(#pe54c668bba)" style="fill: #577ddf"/>
    <path d="M 916.202372 333.397021 
L 930.327822 320.677828 
L 930.327822 320.677828 
L 916.202372 333.397021 
z
" clip-path="url(#pe54c668bba)" style="fill: #648fff"/>
    <path d="M 826.065355 324.066552 
L 826.065355 324.066552 
L 851.10089 331.416381 
L 851.10089 331.416381 
z
" clip-path="url(#pe54c668bba)" style="fill: #648fff"/>
    <path d="M 890.844518 326.029462 
L 916.202372 333.397021 
L 916.202372 333.397021 
L 890.844518 326.029462 
z
" clip-path="url(#pe54c668bba)" style="fill: #324880"/>
    <path d="M 811.094355 336.838935 
L 811.094355 336.838935 
L 826.065355 324.066552 
L 826.065355 324.066552 
z
" clip-path="url(#pe54c668bba)" style="fill: #324880"/>
    <path d="M 811.094355 336.838935 
L 826.065355 324.066552 
L 851.10089 331.416381 
L 836.258752 344.304513 
z
" clip-path="url(#pe54c668bba)" style="fill: #3f599f"/>
    <path d="M 811.094355 336.838935 
L 836.258752 344.304513 
L 851.10089 331.416381 
L 826.065355 324.066552 
z
" clip-path="url(#pe54c668bba)" style="fill: #577ddf"/>
    <path d="M 836.258752 344.304513 
L 851.10089 331.416381 
L 851.10089 331.416381 
L 836.258752 344.304513 
z
" clip-path="url(#pe54c668bba)" style="fill: #648fff"/>
    <path d="M 745.983622 334.849986 
L 745.983622 334.849986 
L 770.822295 342.297479 
L 770.822295 342.297479 
z
" clip-path="url(#pe54c668bba)" style="fill: #648fff"/>
    <path d="M 811.094355 336.838935 
L 836.258752 344.304513 
L 836.258752 344.304513 
L 811.094355 336.838935 
z
" clip-path="url(#pe54c668bba)" style="fill: #324880"/>
    <path d="M 730.282057 347.792372 
L 730.282057 347.792372 
L 745.983622 334.849986 
L 745.983622 334.849986 
z
" clip-path="url(#pe54c668bba)" style="fill: #324880"/>
    <path d="M 730.282057 347.792372 
L 755.245557 355.357938 
L 770.822295 342.297479 
L 745.983622 334.849986 
z
" clip-path="url(#pe54c668bba)" style="fill: #577ddf"/>
    <path d="M 730.282057 347.792372 
L 745.983622 334.849986 
L 770.822295 342.297479 
L 755.245557 355.357938 
z
" clip-path="url(#pe54c668bba)" style="fill: #3f599f"/>
    <path d="M 755.245557 355.357938 
L 770.822295 342.297479 
L 770.822295 342.297479 
L 755.245557 355.357938 
z
" clip-path="url(#pe54c668bba)" style="fill: #648fff"/>
    <path d="M 730.282057 347.792372 
L 755.245557 355.357938 
L 755.245557 355.357938 
L 730.282057 347.792372 
z
" clip-path="url(#pe54c668bba)" style="fill: #324880"/>
   </g>
   <g id="Poly3DCollection_3">
    <path d="M 709.910533 350.553564 
L 915.803393 413.290481 
L 1027.91381 307.450856 
L 830.403289 252.067682 
z
" clip-path="url(#pe54c668bba)" style="fill-opacity: 0.25"/>
   </g>
   <g id="Poly3DCollection_4">
    <path d="M 932.969061 288.786941 
L 932.969061 288.786941 
L 957.932009 295.821771 
L 957.932009 295.821771 
z
" clip-path="url(#pe54c668bba)" style="fill: #324880"/>
    <path d="M 919.14253 301.011047 
L 919.14253 301.011047 
L 932.969061 288.786941 
L 932.969061 288.786941 
z
" clip-path="url(#pe54c668bba)" style="fill: #648fff"/>
    <path d="M 919.14253 301.011047 
L 932.969061 288.786941 
L 957.932009 295.821771 
L 944.236043 308.154237 
z
" clip-path="url(#pe54c668bba)" style="fill: #3f599f"/>
    <path d="M 919.14253 301.011047 
L 944.236043 308.154237 
L 957.932009 295.821771 
L 932.969061 288.786941 
z
" clip-path="url(#pe54c668bba)" style="fill: #577ddf"/>
    <path d="M 944.236043 308.154237 
L 957.932009 295.821771 
L 957.932009 295.821771 
L 944.236043 308.154237 
z
" clip-path="url(#pe54c668bba)" style="fill: #324880"/>
    <path d="M 919.14253 301.011047 
L 944.236043 308.154237 
L 944.236043 308.154237 
L 919.14253 301.011047 
z
" clip-path="url(#pe54c668bba)" style="fill: #648fff"/>
    <path d="M 983.11588 302.918859 
L 983.11588 302.918859 
L 1008.52362 310.079035 
L 1008.52362 310.079035 
z
" clip-path="url(#pe54c668bba)" style="fill: #324880"/>
    <path d="M 969.55335 315.361132 
L 969.55335 315.361132 
L 983.11588 302.918859 
L 983.11588 302.918859 
z
" clip-path="url(#pe54c668bba)" style="fill: #648fff"/>
    <path d="M 969.55335 315.361132 
L 983.11588 302.918859 
L 1008.52362 310.079035 
L 995.097458 322.63259 
z
" clip-path="url(#pe54c668bba)" style="fill: #3f599f"/>
    <path d="M 969.55335 315.361132 
L 995.097458 322.63259 
L 1008.52362 310.079035 
L 983.11588 302.918859 
z
" clip-path="url(#pe54c668bba)" style="fill: #577ddf"/>
    <path d="M 776.66172 309.562838 
L 776.66172 309.562838 
L 801.253291 316.782329 
L 801.253291 316.782329 
z
" clip-path="url(#pe54c668bba)" style="fill: #324880"/>
    <path d="M 761.441635 322.108353 
L 761.441635 322.108353 
L 776.66172 309.562838 
L 776.66172 309.562838 
z
" clip-path="url(#pe54c668bba)" style="fill: #648fff"/>
    <path d="M 995.097458 322.63259 
L 1008.52362 310.079035 
L 1008.52362 310.079035 
L 995.097458 322.63259 
z
" clip-path="url(#pe54c668bba)" style="fill: #324880"/>
    <path d="M 969.55335 315.361132 
L 995.097458 322.63259 
L 995.097458 322.63259 
L 969.55335 315.361132 
z
" clip-path="url(#pe54c668bba)" style="fill: #648fff"/>
    <path d="M 761.441635 322.108353 
L 786.15633 329.440516 
L 801.253291 316.782329 
L 776.66172 309.562838 
z
" clip-path="url(#pe54c668bba)" style="fill: #577ddf"/>
    <path d="M 761.441635 322.108353 
L 776.66172 309.562838 
L 801.253291 316.782329 
L 786.15633 329.440516 
z
" clip-path="url(#pe54c668bba)" style="fill: #3f599f"/>
    <path d="M 786.15633 329.440516 
L 801.253291 316.782329 
L 801.253291 316.782329 
L 786.15633 329.440516 
z
" clip-path="url(#pe54c668bba)" style="fill: #324880"/>
    <path d="M 761.441635 322.108353 
L 786.15633 329.440516 
L 786.15633 329.440516 
L 761.441635 322.108353 
z
" clip-path="url(#pe54c668bba)" style="fill: #648fff"/>
    <path d="M 955.779688 327.997099 
L 955.779688 327.997099 
L 981.461343 335.382451 
L 981.461343 335.382451 
z
" clip-path="url(#pe54c668bba)" style="fill: #324880"/>
    <path d="M 941.789924 340.831317 
L 941.789924 340.831317 
L 955.779688 327.997099 
L 955.779688 327.997099 
z
" clip-path="url(#pe54c668bba)" style="fill: #648fff"/>
    <path d="M 941.789924 340.831317 
L 955.779688 327.997099 
L 981.461343 335.382451 
L 967.610311 348.333262 
z
" clip-path="url(#pe54c668bba)" style="fill: #3f599f"/>
    <path d="M 941.789924 340.831317 
L 967.610311 348.333262 
L 981.461343 335.382451 
L 955.779688 327.997099 
z
" clip-path="url(#pe54c668bba)" style="fill: #577ddf"/>
    <path d="M 967.610311 348.333262 
L 981.461343 335.382451 
L 981.461343 335.382451 
L 967.610311 348.333262 
z
" clip-path="url(#pe54c668bba)" style="fill: #324880"/>
    <path d="M 941.789924 340.831317 
L 967.610311 348.333262 
L 967.610311 348.333262 
L 941.789924 340.831317 
z
" clip-path="url(#pe54c668bba)" style="fill: #648fff"/>
    <path d="M 861.652618 351.838168 
L 876.362931 338.832707 
L 901.854564 346.316435 
L 887.279106 359.440835 
z
" clip-path="url(#pe54c668bba)" style="fill: #3f599f"/>
    <path d="M 795.887189 349.812802 
L 795.887189 349.812802 
L 821.18141 357.396884 
L 821.18141 357.396884 
z
" clip-path="url(#pe54c668bba)" style="fill: #324880"/>
    <path d="M 780.438224 362.992957 
L 780.438224 362.992957 
L 795.887189 349.812802 
L 795.887189 349.812802 
z
" clip-path="url(#pe54c668bba)" style="fill: #648fff"/>
    <path d="M 876.362931 338.832707 
L 876.460253 251.194358 
L 902.417546 258.409145 
L 901.854564 346.316435 
z
" clip-path="url(#pe54c668bba)" style="fill: #324880"/>
    <path d="M 780.438224 362.992957 
L 795.887189 349.812802 
L 821.18141 357.396884 
L 805.863227 370.698388 
z
" clip-path="url(#pe54c668bba)" style="fill: #3f599f"/>
    <path d="M 780.438224 362.992957 
L 805.863227 370.698388 
L 821.18141 357.396884 
L 795.887189 349.812802 
z
" clip-path="url(#pe54c668bba)" style="fill: #577ddf"/>
    <path d="M 861.652618 351.838168 
L 861.481354 263.733208 
L 876.460253 251.194358 
L 876.362931 338.832707 
z
" clip-path="url(#pe54c668bba)" style="fill: #648fff"/>
    <path d="M 805.863227 370.698388 
L 821.18141 357.396884 
L 821.18141 357.396884 
L 805.863227 370.698388 
z
" clip-path="url(#pe54c668bba)" style="fill: #324880"/>
    <path d="M 913.141426 367.113467 
L 927.578933 353.868489 
L 953.539242 361.489809 
L 939.24285 374.857034 
z
" clip-path="url(#pe54c668bba)" style="fill: #3f599f"/>
    <path d="M 780.438224 362.992957 
L 805.863227 370.698388 
L 805.863227 370.698388 
L 780.438224 362.992957 
z
" clip-path="url(#pe54c668bba)" style="fill: #648fff"/>
    <path d="M 887.279106 359.440835 
L 901.854564 346.316435 
L 902.417546 258.409145 
L 887.578493 271.064773 
z
" clip-path="url(#pe54c668bba)" style="fill: #324880"/>
    <path d="M 861.652618 351.838168 
L 887.279106 359.440835 
L 887.578493 271.064773 
L 861.481354 263.733208 
z
" clip-path="url(#pe54c668bba)" style="fill: #648fff"/>
    <path d="M 927.578933 353.868489 
L 928.616172 265.69101 
L 955.059514 273.040893 
L 953.539242 361.489809 
z
" clip-path="url(#pe54c668bba)" style="fill: #324880"/>
    <path d="M 831.523796 378.475212 
L 846.708119 365.050675 
L 872.470537 372.775139 
L 857.423219 386.324423 
z
" clip-path="url(#pe54c668bba)" style="fill: #3f599f"/>
    <path d="M 913.141426 367.113467 
L 913.920234 278.465054 
L 928.616172 265.69101 
L 927.578933 353.868489 
z
" clip-path="url(#pe54c668bba)" style="fill: #648fff"/>
    <path d="M 861.481354 263.733208 
L 887.578493 271.064773 
L 902.417546 258.409145 
L 876.460253 251.194358 
z
" clip-path="url(#pe54c668bba)" style="fill: #577ddf"/>
    <path d="M 939.24285 374.857034 
L 953.539242 361.489809 
L 955.059514 273.040893 
L 940.510033 285.935024 
z
" clip-path="url(#pe54c668bba)" style="fill: #324880"/>
    <path d="M 846.708119 365.050675 
L 846.259591 276.475361 
L 872.49771 283.926561 
L 872.470537 372.775139 
z
" clip-path="url(#pe54c668bba)" style="fill: #324880"/>
    <path d="M 913.141426 367.113467 
L 939.24285 374.857034 
L 940.510033 285.935024 
L 913.920234 278.465054 
z
" clip-path="url(#pe54c668bba)" style="fill: #648fff"/>
    <path d="M 831.523796 378.475212 
L 830.789009 289.4258 
L 846.259591 276.475361 
L 846.708119 365.050675 
z
" clip-path="url(#pe54c668bba)" style="fill: #648fff"/>
    <path d="M 883.564848 394.247039 
L 898.471943 380.57126 
L 924.715678 388.44004 
L 909.952095 402.244093 
z
" clip-path="url(#pe54c668bba)" style="fill: #3f599f"/>
    <path d="M 913.920234 278.465054 
L 940.510033 285.935024 
L 955.059514 273.040893 
L 928.616172 265.69101 
z
" clip-path="url(#pe54c668bba)" style="fill: #577ddf"/>
    <path d="M 857.423219 386.324423 
L 872.470537 372.775139 
L 872.49771 283.926561 
L 857.169245 296.999589 
z
" clip-path="url(#pe54c668bba)" style="fill: #324880"/>
    <path d="M 831.523796 378.475212 
L 857.423219 386.324423 
L 857.169245 296.999589 
L 830.789009 289.4258 
z
" clip-path="url(#pe54c668bba)" style="fill: #648fff"/>
    <path d="M 898.471943 380.57126 
L 898.983766 291.448171 
L 925.72129 299.041195 
L 924.715678 388.44004 
z
" clip-path="url(#pe54c668bba)" style="fill: #324880"/>
    <path d="M 883.564848 394.247039 
L 883.800817 304.645537 
L 898.983766 291.448171 
L 898.471943 380.57126 
z
" clip-path="url(#pe54c668bba)" style="fill: #648fff"/>
    <path d="M 830.789009 289.4258 
L 857.169245 296.999589 
L 872.49771 283.926561 
L 846.259591 276.475361 
z
" clip-path="url(#pe54c668bba)" style="fill: #577ddf"/>
    <path d="M 909.952095 402.244093 
L 924.715678 388.44004 
L 925.72129 299.041195 
L 910.687335 312.36468 
z
" clip-path="url(#pe54c668bba)" style="fill: #324880"/>
    <path d="M 883.564848 394.247039 
L 909.952095 402.244093 
L 910.687335 312.36468 
L 883.800817 304.645537 
z
" clip-path="url(#pe54c668bba)" style="fill: #648fff"/>
    <path d="M 883.800817 304.645537 
L 910.687335 312.36468 
L 925.72129 299.041195 
L 898.983766 291.448171 
z
" clip-path="url(#pe54c668bba)" style="fill: #577ddf"/>
   </g>
   <g id="text_30">
    <!-- Imaginary Amplitude (ρ) -->
    <g transform="translate(735.696563 51.6) scale(0.21 -0.21)">
     <defs>
      <path id="DejaVuSans-49" d="M 628 4666 
L 1259 4666 
L 1259 0 
L 628 0 
L 628 4666 
z
" transform="scale(0.015625)"/>
      <path id="DejaVuSans-67" d="M 2906 1791 
Q 2906 2416 2648 2759 
Q 2391 3103 1925 3103 
Q 1463 3103 1205 2759 
Q 947 2416 947 1791 
Q 947 1169 1205 825 
Q 1463 481 1925 481 
Q 2391 481 2648 825 
Q 2906 1169 2906 1791 
z
M 3481 434 
Q 3481 -459 3084 -895 
Q 2688 -1331 1869 -1331 
Q 1566 -1331 1297 -1286 
Q 1028 -1241 775 -1147 
L 775 -588 
Q 1028 -725 1275 -790 
Q 1522 -856 1778 -856 
Q 2344 -856 2625 -561 
Q 2906 -266 2906 331 
L 2906 616 
Q 2728 306 2450 153 
Q 2172 0 1784 0 
Q 1141 0 747 490 
Q 353 981 353 1791 
Q 353 2603 747 3093 
Q 1141 3584 1784 3584 
Q 2172 3584 2450 3431 
Q 2728 3278 2906 2969 
L 2906 3500 
L 3481 3500 
L 3481 434 
z
" transform="scale(0.015625)"/>
      <path id="DejaVuSans-6e" d="M 3513 2113 
L 3513 0 
L 2938 0 
L 2938 2094 
Q 2938 2591 2744 2837 
Q 2550 3084 2163 3084 
Q 1697 3084 1428 2787 
Q 1159 2491 1159 1978 
L 1159 0 
L 581 0 
L 581 3500 
L 1159 3500 
L 1159 2956 
Q 1366 3272 1645 3428 
Q 1925 3584 2291 3584 
Q 2894 3584 3203 3211 
Q 3513 2838 3513 2113 
z
" transform="scale(0.015625)"/>
      <path id="DejaVuSans-72" d="M 2631 2963 
Q 2534 3019 2420 3045 
Q 2306 3072 2169 3072 
Q 1681 3072 1420 2755 
Q 1159 2438 1159 1844 
L 1159 0 
L 581 0 
L 581 3500 
L 1159 3500 
L 1159 2956 
Q 1341 3275 1631 3429 
Q 1922 3584 2338 3584 
Q 2397 3584 2469 3576 
Q 2541 3569 2628 3553 
L 2631 2963 
z
" transform="scale(0.015625)"/>
      <path id="DejaVuSans-79" d="M 2059 -325 
Q 1816 -950 1584 -1140 
Q 1353 -1331 966 -1331 
L 506 -1331 
L 506 -850 
L 844 -850 
Q 1081 -850 1212 -737 
Q 1344 -625 1503 -206 
L 1606 56 
L 191 3500 
L 800 3500 
L 1894 763 
L 2988 3500 
L 3597 3500 
L 2059 -325 
z
" transform="scale(0.015625)"/>
     </defs>
     <use xlink:href="#DejaVuSans-49"/>
     <use xlink:href="#DejaVuSans-6d" x="29.492188"/>
     <use xlink:href="#DejaVuSans-61" x="126.904297"/>
     <use xlink:href="#DejaVuSans-67" x="188.183594"/>
     <use xlink:href="#DejaVuSans-69" x="251.660156"/>
     <use xlink:href="#DejaVuSans-6e" x="279.443359"/>
     <use xlink:href="#DejaVuSans-61" x="342.822266"/>
     <use xlink:href="#DejaVuSans-72" x="404.101562"/>
     <use xlink:href="#DejaVuSans-79" x="445.214844"/>
     <use xlink:href="#DejaVuSans-20" x="504.394531"/>
     <use xlink:href="#DejaVuSans-41" x="536.181641"/>
     <use xlink:href="#DejaVuSans-6d" x="604.589844"/>
     <use xlink:href="#DejaVuSans-70" x="702.001953"/>
     <use xlink:href="#DejaVuSans-6c" x="765.478516"/>
     <use xlink:href="#DejaVuSans-69" x="793.261719"/>
     <use xlink:href="#DejaVuSans-74" x="821.044922"/>
     <use xlink:href="#DejaVuSans-75" x="860.253906"/>
     <use xlink:href="#DejaVuSans-64" x="923.632812"/>
     <use xlink:href="#DejaVuSans-65" x="987.109375"/>
     <use xlink:href="#DejaVuSans-20" x="1048.632812"/>
     <use xlink:href="#DejaVuSans-28" x="1080.419922"/>
     <use xlink:href="#DejaVuSans-3c1" x="1119.433594"/>
     <use xlink:href="#DejaVuSans-29" x="1182.910156"/>
    </g>
   </g>
  </g>
 </g>
 <defs>
  <clipPath id="pb67feee0cf">
   <rect x="28.8" y="57.6" width="518.4" height="518.4"/>
  </clipPath>
  <clipPath id="pe54c668bba">
   <rect x="604.8" y="57.6" width="518.4" height="518.4"/>
  </clipPath>
 </defs>
</svg>
