<?xml version="1.0" encoding="utf-8" standalone="no"?>
<!DOCTYPE svg PUBLIC "-//W3C//DTD SVG 1.1//EN"
  "http://www.w3.org/Graphics/SVG/1.1/DTD/svg11.dtd">
<svg xmlns:xlink="http://www.w3.org/1999/xlink" width="1152pt" height="576pt" viewBox="0 0 1152 576" xmlns="http://www.w3.org/2000/svg" version="1.1">
 <metadata>
  <rdf:RDF xmlns:dc="http://purl.org/dc/elements/1.1/" xmlns:cc="http://creativecommons.org/ns#" xmlns:rdf="http://www.w3.org/1999/02/22-rdf-syntax-ns#">
   <cc:Work>
    <dc:type rdf:resource="http://purl.org/dc/dcmitype/StillImage"/>
    <dc:date>2024-11-04T20:47:09.310540</dc:date>
    <dc:format>image/svg+xml</dc:format>
    <dc:creator>
     <cc:Agent>
      <dc:title>Matplotlib v3.9.2, https://matplotlib.org/</dc:title>
     </cc:Agent>
    </dc:creator>
   </cc:Work>
  </rdf:RDF>
 </metadata>
 <defs>
  <style type="text/css">*{stroke-linejoin: round; stroke-linecap: butt}</style>
 </defs>
 <g id="figure_1">
  <g id="patch_1">
   <path d="M 0 576 
L 1152 576 
L 1152 0 
L 0 0 
z
" style="fill: #ffffff"/>
  </g>
  <g id="patch_2">
   <path d="M 28.8 576 
L 547.2 576 
L 547.2 57.6 
L 28.8 57.6 
z
" style="fill: #ffffff"/>
  </g>
  <g id="pane3d_1">
   <g id="patch_3">
    <path d="M 130.07018 436.456468 
L 253.494133 330.550231 
L 251.743197 126.70673 
L 122.643358 223.613571 
" style="fill: #f2f2f2; opacity: 0.5; stroke: #f2f2f2; stroke-linejoin: miter"/>
   </g>
  </g>
  <g id="pane3d_2">
   <g id="patch_4">
    <path d="M 253.494133 330.550231 
L 455.554898 390.069341 
L 462.583588 181.103065 
L 251.743197 126.70673 
" style="fill: #e6e6e6; opacity: 0.5; stroke: #e6e6e6; stroke-linejoin: miter"/>
   </g>
  </g>
  <g id="pane3d_3">
   <g id="patch_5">
    <path d="M 130.07018 436.456468 
L 340.912731 504.076731 
L 455.554898 390.069341 
L 253.494133 330.550231 
" style="fill: #ececec; opacity: 0.5; stroke: #ececec; stroke-linejoin: miter"/>
   </g>
  </g>
  <g id="grid3d_1">
   <g id="Line3DCollection_1">
    <path d="M 158.635886 445.617904 
L 280.925726 338.630493 
L 280.328796 134.081748 
" style="fill: none; stroke: #b0b0b0; stroke-width: 0.8"/>
    <path d="M 208.310046 461.549127 
L 328.58611 352.669358 
L 330.022474 146.902603 
" style="fill: none; stroke: #b0b0b0; stroke-width: 0.8"/>
    <path d="M 258.89502 477.772462 
L 377.066152 366.949661 
L 380.607663 159.953465 
" style="fill: none; stroke: #b0b0b0; stroke-width: 0.8"/>
    <path d="M 310.41609 494.296016 
L 426.38718 381.477685 
L 432.108569 173.24058 
" style="fill: none; stroke: #b0b0b0; stroke-width: 0.8"/>
   </g>
  </g>
  <g id="grid3d_2">
   <g id="Line3DCollection_2">
    <path d="M 141.757365 209.265931 
L 148.301379 420.812846 
L 357.880707 487.202708 
" style="fill: none; stroke: #b0b0b0; stroke-width: 0.8"/>
    <path d="M 173.704273 185.285468 
L 178.805664 394.638072 
L 386.24502 458.995448 
" style="fill: none; stroke: #b0b0b0; stroke-width: 0.8"/>
    <path d="M 204.65707 162.051218 
L 208.400054 369.24405 
L 413.731787 431.660877 
" style="fill: none; stroke: #b0b0b0; stroke-width: 0.8"/>
    <path d="M 234.661448 139.528886 
L 237.124663 344.596362 
L 440.38111 405.159111 
" style="fill: none; stroke: #b0b0b0; stroke-width: 0.8"/>
   </g>
  </g>
  <g id="grid3d_3">
   <g id="Line3DCollection_3">
    <path d="M 455.798251 382.834345 
L 253.433421 323.482145 
L 129.81334 429.09576 
" style="fill: none; stroke: #b0b0b0; stroke-width: 0.8"/>
    <path d="M 456.964893 348.149533 
L 253.142454 289.607935 
L 128.581742 393.799816 
" style="fill: none; stroke: #b0b0b0; stroke-width: 0.8"/>
    <path d="M 458.148587 312.957727 
L 252.847386 255.256206 
L 127.331643 357.973618 
" style="fill: none; stroke: #b0b0b0; stroke-width: 0.8"/>
    <path d="M 459.349712 277.247729 
L 252.54813 220.416787 
L 126.062621 321.605125 
" style="fill: none; stroke: #b0b0b0; stroke-width: 0.8"/>
    <path d="M 460.568654 241.008009 
L 252.244594 185.07922 
L 124.774244 284.681932 
" style="fill: none; stroke: #b0b0b0; stroke-width: 0.8"/>
    <path d="M 461.805812 204.226691 
L 251.936686 149.232744 
L 123.466064 247.19125 
" style="fill: none; stroke: #b0b0b0; stroke-width: 0.8"/>
   </g>
  </g>
  <g id="axis3d_1">
   <g id="line2d_1">
    <path d="M 130.07018 436.456468 
L 340.912731 504.076731 
" style="fill: none; stroke: #000000; stroke-width: 0.8; stroke-linecap: square"/>
   </g>
   <g id="xtick_1">
    <g id="line2d_2">
     <path d="M 159.677227 444.706868 
L 156.549953 447.442819 
" style="fill: none; stroke: #000000; stroke-width: 0.8; stroke-linecap: square"/>
    </g>
    <g id="text_1">
     <!-- 00 -->
     <g transform="translate(131.351686 489.365693) rotate(-45) scale(0.21 -0.21)">
      <defs>
       <path id="DejaVuSans-30" d="M 2034 4250 
Q 1547 4250 1301 3770 
Q 1056 3291 1056 2328 
Q 1056 1369 1301 889 
Q 1547 409 2034 409 
Q 2525 409 2770 889 
Q 3016 1369 3016 2328 
Q 3016 3291 2770 3770 
Q 2525 4250 2034 4250 
z
M 2034 4750 
Q 2819 4750 3233 4129 
Q 3647 3509 3647 2328 
Q 3647 1150 3233 529 
Q 2819 -91 2034 -91 
Q 1250 -91 836 529 
Q 422 1150 422 2328 
Q 422 3509 836 4129 
Q 1250 4750 2034 4750 
z
" transform="scale(0.015625)"/>
      </defs>
      <use xlink:href="#DejaVuSans-30"/>
      <use xlink:href="#DejaVuSans-30" x="63.623047"/>
     </g>
    </g>
   </g>
   <g id="xtick_2">
    <g id="line2d_3">
     <path d="M 209.334802 460.621468 
L 206.257306 463.407368 
" style="fill: none; stroke: #000000; stroke-width: 0.8; stroke-linecap: square"/>
    </g>
    <g id="text_2">
     <!-- 01 -->
     <g transform="translate(181.023931 505.435143) rotate(-45) scale(0.21 -0.21)">
      <defs>
       <path id="DejaVuSans-31" d="M 794 531 
L 1825 531 
L 1825 4091 
L 703 3866 
L 703 4441 
L 1819 4666 
L 2450 4666 
L 2450 531 
L 3481 531 
L 3481 0 
L 794 0 
L 794 531 
z
" transform="scale(0.015625)"/>
      </defs>
      <use xlink:href="#DejaVuSans-30"/>
      <use xlink:href="#DejaVuSans-31" x="63.623047"/>
     </g>
    </g>
   </g>
   <g id="xtick_3">
    <g id="line2d_4">
     <path d="M 259.902405 476.82772 
L 256.877048 479.664949 
" style="fill: none; stroke: #000000; stroke-width: 0.8; stroke-linecap: square"/>
    </g>
    <g id="text_3">
     <!-- 10 -->
     <g transform="translate(231.60781 521.799516) rotate(-45) scale(0.21 -0.21)">
      <use xlink:href="#DejaVuSans-31"/>
      <use xlink:href="#DejaVuSans-30" x="63.623047"/>
     </g>
    </g>
   </g>
   <g id="xtick_4">
    <g id="line2d_5">
     <path d="M 311.405283 493.333715 
L 308.434531 496.223705 
" style="fill: none; stroke: #000000; stroke-width: 0.8; stroke-linecap: square"/>
    </g>
    <g id="text_4">
     <!-- 11 -->
     <g transform="translate(283.128654 538.467006) rotate(-45) scale(0.21 -0.21)">
      <use xlink:href="#DejaVuSans-31"/>
      <use xlink:href="#DejaVuSans-31" x="63.623047"/>
     </g>
    </g>
   </g>
  </g>
  <g id="axis3d_2">
   <g id="line2d_6">
    <path d="M 455.554898 390.069341 
L 340.912731 504.076731 
" style="fill: none; stroke: #000000; stroke-width: 0.8; stroke-linecap: square"/>
   </g>
   <g id="xtick_5">
    <g id="line2d_7">
     <path d="M 356.140222 486.651363 
L 361.364886 488.306415 
" style="fill: none; stroke: #000000; stroke-width: 0.8; stroke-linecap: square"/>
    </g>
    <g id="text_5">
     <!-- 00 -->
     <g transform="translate(368.70027 499.207917) rotate(-337.5) scale(0.21 -0.21)">
      <use xlink:href="#DejaVuSans-30"/>
      <use xlink:href="#DejaVuSans-30" x="63.623047"/>
     </g>
    </g>
   </g>
   <g id="xtick_6">
    <g id="line2d_8">
     <path d="M 384.5233 458.46129 
L 389.691587 460.064734 
" style="fill: none; stroke: #000000; stroke-width: 0.8; stroke-linecap: square"/>
    </g>
    <g id="text_6">
     <!-- 01 -->
     <g transform="translate(396.913817 470.822876) rotate(-337.5) scale(0.21 -0.21)">
      <use xlink:href="#DejaVuSans-30"/>
      <use xlink:href="#DejaVuSans-31" x="63.623047"/>
     </g>
    </g>
   </g>
   <g id="xtick_7">
    <g id="line2d_9">
     <path d="M 412.028511 431.143114 
L 417.141381 432.697327 
" style="fill: none; stroke: #000000; stroke-width: 0.8; stroke-linecap: square"/>
    </g>
    <g id="text_7">
     <!-- 10 -->
     <g transform="translate(424.254695 443.315808) rotate(-337.5) scale(0.21 -0.21)">
      <use xlink:href="#DejaVuSans-31"/>
      <use xlink:href="#DejaVuSans-30" x="63.623047"/>
     </g>
    </g>
   </g>
   <g id="xtick_8">
    <g id="line2d_10">
     <path d="M 438.695964 404.657001 
L 443.754368 406.164215 
" style="fill: none; stroke: #000000; stroke-width: 0.8; stroke-linecap: square"/>
    </g>
    <g id="text_8">
     <!-- 11 -->
     <g transform="translate(450.762776 416.646599) rotate(-337.5) scale(0.21 -0.21)">
      <use xlink:href="#DejaVuSans-31"/>
      <use xlink:href="#DejaVuSans-31" x="63.623047"/>
     </g>
    </g>
   </g>
  </g>
  <g id="axis3d_3">
   <g id="line2d_11">
    <path d="M 455.554898 390.069341 
L 462.583588 181.103065 
" style="fill: none; stroke: #000000; stroke-width: 0.8; stroke-linecap: square"/>
   </g>
   <g id="xtick_9">
    <g id="line2d_12">
     <path d="M 454.120926 382.342397 
L 459.15583 383.819099 
" style="fill: none; stroke: #000000; stroke-width: 0.8; stroke-linecap: square"/>
    </g>
    <g id="text_9">
     <!-- −0.2 -->
     <g transform="translate(469.297723 376.551254) scale(0.21 -0.21)">
      <defs>
       <path id="DejaVuSans-2212" d="M 678 2272 
L 4684 2272 
L 4684 1741 
L 678 1741 
L 678 2272 
z
" transform="scale(0.015625)"/>
       <path id="DejaVuSans-2e" d="M 684 794 
L 1344 794 
L 1344 0 
L 684 0 
L 684 794 
z
" transform="scale(0.015625)"/>
       <path id="DejaVuSans-32" d="M 1228 531 
L 3431 531 
L 3431 0 
L 469 0 
L 469 531 
Q 828 903 1448 1529 
Q 2069 2156 2228 2338 
Q 2531 2678 2651 2914 
Q 2772 3150 2772 3378 
Q 2772 3750 2511 3984 
Q 2250 4219 1831 4219 
Q 1534 4219 1204 4116 
Q 875 4013 500 3803 
L 500 4441 
Q 881 4594 1212 4672 
Q 1544 4750 1819 4750 
Q 2544 4750 2975 4387 
Q 3406 4025 3406 3419 
Q 3406 3131 3298 2873 
Q 3191 2616 2906 2266 
Q 2828 2175 2409 1742 
Q 1991 1309 1228 531 
z
" transform="scale(0.015625)"/>
      </defs>
      <use xlink:href="#DejaVuSans-2212"/>
      <use xlink:href="#DejaVuSans-30" x="83.789062"/>
      <use xlink:href="#DejaVuSans-2e" x="147.412109"/>
      <use xlink:href="#DejaVuSans-32" x="179.199219"/>
     </g>
    </g>
   </g>
   <g id="xtick_10">
    <g id="line2d_13">
     <path d="M 455.27506 347.664181 
L 460.347532 349.121089 
" style="fill: none; stroke: #000000; stroke-width: 0.8; stroke-linecap: square"/>
    </g>
    <g id="text_10">
     <!-- −0.1 -->
     <g transform="translate(470.560867 341.89214) scale(0.21 -0.21)">
      <use xlink:href="#DejaVuSans-2212"/>
      <use xlink:href="#DejaVuSans-30" x="83.789062"/>
      <use xlink:href="#DejaVuSans-2e" x="147.412109"/>
      <use xlink:href="#DejaVuSans-31" x="179.199219"/>
     </g>
    </g>
   </g>
   <g id="xtick_11">
    <g id="line2d_14">
     <path d="M 456.446059 312.479217 
L 461.556663 313.915593 
" style="fill: none; stroke: #000000; stroke-width: 0.8; stroke-linecap: square"/>
    </g>
    <g id="text_11">
     <!-- 0.0 -->
     <g transform="translate(471.842455 306.726991) scale(0.21 -0.21)">
      <use xlink:href="#DejaVuSans-30"/>
      <use xlink:href="#DejaVuSans-2e" x="63.623047"/>
      <use xlink:href="#DejaVuSans-30" x="95.410156"/>
     </g>
    </g>
   </g>
   <g id="xtick_12">
    <g id="line2d_15">
     <path d="M 457.634295 276.776317 
L 462.783609 278.191395 
" style="fill: none; stroke: #000000; stroke-width: 0.8; stroke-linecap: square"/>
    </g>
    <g id="text_12">
     <!-- 0.1 -->
     <g transform="translate(473.142891 271.044642) scale(0.21 -0.21)">
      <use xlink:href="#DejaVuSans-30"/>
      <use xlink:href="#DejaVuSans-2e" x="63.623047"/>
      <use xlink:href="#DejaVuSans-31" x="95.410156"/>
     </g>
    </g>
   </g>
   <g id="xtick_13">
    <g id="line2d_16">
     <path d="M 458.840152 240.543958 
L 464.028766 241.936945 
" style="fill: none; stroke: #000000; stroke-width: 0.8; stroke-linecap: square"/>
    </g>
    <g id="text_13">
     <!-- 0.2 -->
     <g transform="translate(474.462596 234.833598) scale(0.21 -0.21)">
      <use xlink:href="#DejaVuSans-30"/>
      <use xlink:href="#DejaVuSans-2e" x="63.623047"/>
      <use xlink:href="#DejaVuSans-32" x="95.410156"/>
     </g>
    </g>
   </g>
   <g id="xtick_14">
    <g id="line2d_17">
     <path d="M 460.064025 203.770275 
L 465.292543 205.140352 
" style="fill: none; stroke: #000000; stroke-width: 0.8; stroke-linecap: square"/>
    </g>
    <g id="text_14">
     <!-- 0.3 -->
     <g transform="translate(475.802 198.082022) scale(0.21 -0.21)">
      <defs>
       <path id="DejaVuSans-33" d="M 2597 2516 
Q 3050 2419 3304 2112 
Q 3559 1806 3559 1356 
Q 3559 666 3084 287 
Q 2609 -91 1734 -91 
Q 1441 -91 1130 -33 
Q 819 25 488 141 
L 488 750 
Q 750 597 1062 519 
Q 1375 441 1716 441 
Q 2309 441 2620 675 
Q 2931 909 2931 1356 
Q 2931 1769 2642 2001 
Q 2353 2234 1838 2234 
L 1294 2234 
L 1294 2753 
L 1863 2753 
Q 2328 2753 2575 2939 
Q 2822 3125 2822 3475 
Q 2822 3834 2567 4026 
Q 2313 4219 1838 4219 
Q 1578 4219 1281 4162 
Q 984 4106 628 3988 
L 628 4550 
Q 988 4650 1302 4700 
Q 1616 4750 1894 4750 
Q 2613 4750 3031 4423 
Q 3450 4097 3450 3541 
Q 3450 3153 3228 2886 
Q 3006 2619 2597 2516 
z
" transform="scale(0.015625)"/>
      </defs>
      <use xlink:href="#DejaVuSans-30"/>
      <use xlink:href="#DejaVuSans-2e" x="63.623047"/>
      <use xlink:href="#DejaVuSans-33" x="95.410156"/>
     </g>
    </g>
   </g>
  </g>
  <g id="axes_1">
   <g id="Poly3DCollection_1">
    <path d="M 245.791079 355.411799 
L 269.612317 362.544934 
L 283.572276 350.22848 
L 259.866748 343.199915 
z
" clip-path="url(#pccb0d13b4f)" style="fill: #577ddf"/>
    <path d="M 259.314995 267.514129 
L 259.866748 343.199915 
L 283.572276 350.22848 
L 283.391975 274.326294 
z
" clip-path="url(#pccb0d13b4f)" style="fill: #648fff"/>
    <path d="M 245.012501 279.350609 
L 245.791079 355.411799 
L 259.866748 343.199915 
L 259.314995 267.514129 
z
" clip-path="url(#pccb0d13b4f)" style="fill: #324880"/>
    <path d="M 293.638733 369.739508 
L 317.872991 376.99632 
L 331.593953 364.466656 
L 307.480474 357.317135 
z
" clip-path="url(#pccb0d13b4f)" style="fill: #577ddf"/>
    <path d="M 269.208845 286.265737 
L 283.391975 274.326294 
L 283.572276 350.22848 
L 269.612317 362.544934 
z
" clip-path="url(#pccb0d13b4f)" style="fill: #648fff"/>
    <path d="M 245.012501 279.350609 
L 269.208845 286.265737 
L 269.612317 362.544934 
L 245.791079 355.411799 
z
" clip-path="url(#pccb0d13b4f)" style="fill: #324880"/>
    <path d="M 307.678061 281.197622 
L 307.480474 357.317135 
L 331.593953 364.466656 
L 332.17599 288.128887 
z
" clip-path="url(#pccb0d13b4f)" style="fill: #648fff"/>
    <path d="M 293.616923 293.241378 
L 293.638733 369.739508 
L 307.480474 357.317135 
L 307.678061 281.197622 
z
" clip-path="url(#pccb0d13b4f)" style="fill: #324880"/>
    <path d="M 217.005775 380.385588 
L 241.060907 387.734988 
L 255.443436 375.045713 
L 231.505663 367.805657 
z
" clip-path="url(#pccb0d13b4f)" style="fill: #577ddf"/>
    <path d="M 245.012501 279.350609 
L 259.314995 267.514129 
L 283.391975 274.326294 
L 269.208845 286.265737 
z
" clip-path="url(#pccb0d13b4f)" style="fill: #3f599f"/>
    <path d="M 318.239529 300.278329 
L 332.17599 288.128887 
L 331.593953 364.466656 
L 317.872991 376.99632 
z
" clip-path="url(#pccb0d13b4f)" style="fill: #648fff"/>
    <path d="M 230.493484 291.366281 
L 231.505663 367.805657 
L 255.443436 375.045713 
L 254.810054 298.386725 
z
" clip-path="url(#pccb0d13b4f)" style="fill: #648fff"/>
    <path d="M 293.616923 293.241378 
L 318.239529 300.278329 
L 317.872991 376.99632 
L 293.638733 369.739508 
z
" clip-path="url(#pccb0d13b4f)" style="fill: #324880"/>
    <path d="M 215.752987 303.565245 
L 217.005775 380.385588 
L 231.505663 367.805657 
L 230.493484 291.366281 
z
" clip-path="url(#pccb0d13b4f)" style="fill: #324880"/>
    <path d="M 265.326371 395.148648 
L 289.804936 402.627416 
L 303.944894 389.715135 
L 279.588941 382.348599 
z
" clip-path="url(#pccb0d13b4f)" style="fill: #577ddf"/>
    <path d="M 293.616923 293.241378 
L 307.678061 281.197622 
L 332.17599 288.128887 
L 318.239529 300.278329 
z
" clip-path="url(#pccb0d13b4f)" style="fill: #3f599f"/>
    <path d="M 240.190647 310.693428 
L 254.810054 298.386725 
L 255.443436 375.045713 
L 241.060907 387.734988 
z
" clip-path="url(#pccb0d13b4f)" style="fill: #648fff"/>
    <path d="M 215.752987 303.565245 
L 240.190647 310.693428 
L 241.060907 387.734988 
L 217.005775 380.385588 
z
" clip-path="url(#pccb0d13b4f)" style="fill: #324880"/>
    <path d="M 279.341037 305.469071 
L 279.588941 382.348599 
L 303.944894 389.715135 
L 304.089281 312.614144 
z
" clip-path="url(#pccb0d13b4f)" style="fill: #648fff"/>
    <path d="M 264.845446 317.884949 
L 265.326371 395.148648 
L 279.588941 382.348599 
L 279.341037 305.469071 
z
" clip-path="url(#pccb0d13b4f)" style="fill: #324880"/>
    <path d="M 215.752987 303.565245 
L 230.493484 291.366281 
L 254.810054 298.386725 
L 240.190647 310.693428 
z
" clip-path="url(#pccb0d13b4f)" style="fill: #3f599f"/>
    <path d="M 289.72029 325.140654 
L 304.089281 312.614144 
L 303.944894 389.715135 
L 289.804936 402.627416 
z
" clip-path="url(#pccb0d13b4f)" style="fill: #648fff"/>
    <path d="M 264.845446 317.884949 
L 289.72029 325.140654 
L 289.804936 402.627416 
L 265.326371 395.148648 
z
" clip-path="url(#pccb0d13b4f)" style="fill: #324880"/>
    <path d="M 264.845446 317.884949 
L 279.341037 305.469071 
L 304.089281 312.614144 
L 289.72029 325.140654 
z
" clip-path="url(#pccb0d13b4f)" style="fill: #3f599f"/>
    <path d="M 285.817832 436.830448 
L 310.990344 444.680593 
L 325.311406 431.128178 
L 300.269021 423.398695 
z
" clip-path="url(#pccb0d13b4f)" style="fill: #577ddf"/>
    <path d="M 300.355751 345.297822 
L 300.269021 423.398695 
L 325.311406 431.128178 
L 325.813036 352.800815 
z
" clip-path="url(#pccb0d13b4f)" style="fill: #648fff"/>
    <path d="M 285.665251 358.336704 
L 285.817832 436.830448 
L 300.269021 423.398695 
L 300.355751 345.297822 
z
" clip-path="url(#pccb0d13b4f)" style="fill: #324880"/>
    <path d="M 336.390382 452.601693 
L 362.021045 460.594713 
L 376.072987 446.796046 
L 350.578383 438.926983 
z
" clip-path="url(#pccb0d13b4f)" style="fill: #577ddf"/>
    <path d="M 311.257025 365.958781 
L 325.813036 352.800815 
L 325.311406 431.128178 
L 310.990344 444.680593 
z
" clip-path="url(#pccb0d13b4f)" style="fill: #648fff"/>
    <path d="M 285.665251 358.336704 
L 311.257025 365.958781 
L 310.990344 444.680593 
L 285.817832 436.830448 
z
" clip-path="url(#pccb0d13b4f)" style="fill: #324880"/>
    <path d="M 351.50243 360.372218 
L 350.578383 438.926983 
L 376.072987 446.796046 
L 377.427121 368.012969 
z
" clip-path="url(#pccb0d13b4f)" style="fill: #648fff"/>
    <path d="M 337.083993 373.650905 
L 336.390382 452.601693 
L 350.578383 438.926983 
L 351.50243 360.372218 
z
" clip-path="url(#pccb0d13b4f)" style="fill: #324880"/>
    <path d="M 256.232215 464.328996 
L 281.668038 472.429097 
L 296.444335 458.445881 
L 271.140677 450.472227 
z
" clip-path="url(#pccb0d13b4f)" style="fill: #577ddf"/>
    <path d="M 285.665251 358.336704 
L 300.355751 345.297822 
L 325.813036 352.800815 
L 311.257025 365.958781 
z
" clip-path="url(#pccb0d13b4f)" style="fill: #3f599f"/>
    <path d="M 363.149409 381.414048 
L 377.427121 368.012969 
L 376.072987 446.796046 
L 362.021045 460.594713 
z
" clip-path="url(#pccb0d13b4f)" style="fill: #648fff"/>
    <path d="M 270.741197 371.582882 
L 271.140677 450.472227 
L 296.444335 458.445881 
L 296.468533 379.326899 
z
" clip-path="url(#pccb0d13b4f)" style="fill: #648fff"/>
    <path d="M 337.083993 373.650905 
L 363.149409 381.414048 
L 362.021045 460.594713 
L 336.390382 452.601693 
z
" clip-path="url(#pccb0d13b4f)" style="fill: #324880"/>
    <path d="M 255.577976 385.041338 
L 256.232215 464.328996 
L 271.140677 450.472227 
L 270.741197 371.582882 
z
" clip-path="url(#pccb0d13b4f)" style="fill: #324880"/>
    <path d="M 307.337424 480.603576 
L 333.243605 488.853463 
L 347.746364 474.612105 
L 321.978509 466.492174 
z
" clip-path="url(#pccb0d13b4f)" style="fill: #577ddf"/>
    <path d="M 337.083993 373.650905 
L 351.50243 360.372218 
L 377.427121 368.012969 
L 363.149409 381.414048 
z
" clip-path="url(#pccb0d13b4f)" style="fill: #3f599f"/>
    <path d="M 281.441945 392.910245 
L 296.468533 379.326899 
L 296.444335 458.445881 
L 281.668038 472.429097 
z
" clip-path="url(#pccb0d13b4f)" style="fill: #648fff"/>
    <path d="M 255.577976 385.041338 
L 281.441945 392.910245 
L 281.668038 472.429097 
L 256.232215 464.328996 
z
" clip-path="url(#pccb0d13b4f)" style="fill: #324880"/>
    <path d="M 322.434204 387.142656 
L 321.978509 466.492174 
L 347.746364 474.612105 
L 348.641538 395.031154 
z
" clip-path="url(#pccb0d13b4f)" style="fill: #648fff"/>
    <path d="M 307.547452 400.852639 
L 307.337424 480.603576 
L 321.978509 466.492174 
L 322.434204 387.142656 
z
" clip-path="url(#pccb0d13b4f)" style="fill: #324880"/>
    <path d="M 255.577976 385.041338 
L 270.741197 371.582882 
L 296.468533 379.326899 
L 281.441945 392.910245 
z
" clip-path="url(#pccb0d13b4f)" style="fill: #3f599f"/>
    <path d="M 333.897896 408.869553 
L 348.641538 395.031154 
L 347.746364 474.612105 
L 333.243605 488.853463 
z
" clip-path="url(#pccb0d13b4f)" style="fill: #648fff"/>
    <path d="M 307.547452 400.852639 
L 333.897896 408.869553 
L 333.243605 488.853463 
L 307.337424 480.603576 
z
" clip-path="url(#pccb0d13b4f)" style="fill: #324880"/>
    <path d="M 307.547452 400.852639 
L 322.434204 387.142656 
L 348.641538 395.031154 
L 333.897896 408.869553 
z
" clip-path="url(#pccb0d13b4f)" style="fill: #3f599f"/>
   </g>
   <g id="Poly3DCollection_2">
    <path d="M 134.127947 357.048811 
L 339.74065 419.943203 
L 451.707543 313.834191 
L 254.454835 258.30277 
z
" clip-path="url(#pccb0d13b4f)" style="fill-opacity: 0.25"/>
   </g>
   <g id="Poly3DCollection_3">
    <path d="M 343.079502 307.377402 
L 356.888545 295.120877 
L 381.818559 302.174393 
L 368.139735 314.539423 
z
" clip-path="url(#pccb0d13b4f)" style="fill: #3f599f"/>
    <path d="M 356.888545 295.120877 
L 357.51153 246.112556 
L 382.696401 253.01959 
L 381.818559 302.174393 
z
" clip-path="url(#pccb0d13b4f)" style="fill: #324880"/>
    <path d="M 343.079502 307.377402 
L 343.567207 258.114939 
L 357.51153 246.112556 
L 356.888545 295.120877 
z
" clip-path="url(#pccb0d13b4f)" style="fill: #648fff"/>
    <path d="M 368.139735 314.539423 
L 381.818559 302.174393 
L 382.696401 253.01959 
L 368.884995 265.12931 
z
" clip-path="url(#pccb0d13b4f)" style="fill: #324880"/>
    <path d="M 393.423168 321.765233 
L 406.968916 309.290251 
L 432.342549 316.469281 
L 418.932799 329.055689 
z
" clip-path="url(#pccb0d13b4f)" style="fill: #3f599f"/>
    <path d="M 343.079502 307.377402 
L 368.139735 314.539423 
L 368.884995 265.12931 
L 343.567207 258.114939 
z
" clip-path="url(#pccb0d13b4f)" style="fill: #648fff"/>
    <path d="M 406.968916 309.290251 
L 408.106128 259.988292 
L 433.743736 267.019491 
L 432.342549 316.469281 
z
" clip-path="url(#pccb0d13b4f)" style="fill: #324880"/>
    <path d="M 343.567207 258.114939 
L 368.884995 265.12931 
L 382.696401 253.01959 
L 357.51153 246.112556 
z
" clip-path="url(#pccb0d13b4f)" style="fill: #577ddf"/>
    <path d="M 393.423168 321.765233 
L 394.430586 272.206795 
L 408.106128 259.988292 
L 406.968916 309.290251 
z
" clip-path="url(#pccb0d13b4f)" style="fill: #648fff"/>
    <path d="M 185.58697 328.530085 
L 200.785904 315.951727 
L 225.345514 323.19015 
L 210.269386 335.881324 
z
" clip-path="url(#pccb0d13b4f)" style="fill: #3f599f"/>
    <path d="M 314.818139 332.461407 
L 329.057685 319.822779 
L 354.2492 327.095828 
L 340.142004 339.848086 
z
" clip-path="url(#pccb0d13b4f)" style="fill: #3f599f"/>
    <path d="M 418.932799 329.055689 
L 432.342549 316.469281 
L 433.743736 267.019491 
L 420.20707 279.348248 
z
" clip-path="url(#pccb0d13b4f)" style="fill: #324880"/>
    <path d="M 329.057685 319.822779 
L 329.40583 270.30415 
L 354.857632 277.428379 
L 354.2492 327.095828 
z
" clip-path="url(#pccb0d13b4f)" style="fill: #324880"/>
    <path d="M 393.423168 321.765233 
L 418.932799 329.055689 
L 420.20707 279.348248 
L 394.430586 272.206795 
z
" clip-path="url(#pccb0d13b4f)" style="fill: #648fff"/>
    <path d="M 314.818139 332.461407 
L 315.022289 282.684584 
L 329.40583 270.30415 
L 329.057685 319.822779 
z
" clip-path="url(#pccb0d13b4f)" style="fill: #648fff"/>
    <path d="M 394.430586 272.206795 
L 420.20707 279.348248 
L 433.743736 267.019491 
L 408.106128 259.988292 
z
" clip-path="url(#pccb0d13b4f)" style="fill: #577ddf"/>
    <path d="M 235.174543 343.298903 
L 250.125038 330.493388 
L 275.127444 337.862315 
L 260.30547 350.783724 
z
" clip-path="url(#pccb0d13b4f)" style="fill: #3f599f"/>
    <path d="M 200.785904 315.951727 
L 198.219714 183.92844 
L 223.439549 190.76036 
L 225.345514 323.19015 
z
" clip-path="url(#pccb0d13b4f)" style="fill: #324880"/>
    <path d="M 340.142004 339.848086 
L 354.2492 327.095828 
L 354.857632 277.428379 
L 340.609208 289.921272 
z
" clip-path="url(#pccb0d13b4f)" style="fill: #324880"/>
    <path d="M 185.58697 328.530085 
L 182.583102 195.801472 
L 198.219714 183.92844 
L 200.785904 315.951727 
z
" clip-path="url(#pccb0d13b4f)" style="fill: #648fff"/>
    <path d="M 365.694953 347.301586 
L 379.66683 334.434159 
L 405.313633 341.838654 
L 391.480108 354.822819 
z
" clip-path="url(#pccb0d13b4f)" style="fill: #3f599f"/>
    <path d="M 314.818139 332.461407 
L 340.142004 339.848086 
L 340.609208 289.921272 
L 315.022289 282.684584 
z
" clip-path="url(#pccb0d13b4f)" style="fill: #648fff"/>
    <path d="M 379.66683 334.434159 
L 380.540242 284.617213 
L 406.456815 291.871535 
L 405.313633 341.838654 
z
" clip-path="url(#pccb0d13b4f)" style="fill: #324880"/>
    <path d="M 315.022289 282.684584 
L 340.609208 289.921272 
L 354.857632 277.428379 
L 329.40583 270.30415 
z
" clip-path="url(#pccb0d13b4f)" style="fill: #577ddf"/>
    <path d="M 365.694953 347.301586 
L 366.429996 297.224104 
L 380.540242 284.617213 
L 379.66683 334.434159 
z
" clip-path="url(#pccb0d13b4f)" style="fill: #648fff"/>
    <path d="M 154.471661 354.280542 
L 170.150756 341.304812 
L 194.956829 348.771526 
L 179.402239 361.865473 
z
" clip-path="url(#pccb0d13b4f)" style="fill: #3f599f"/>
    <path d="M 210.269386 335.881324 
L 225.345514 323.19015 
L 223.439549 190.76036 
L 207.932387 202.742813 
z
" clip-path="url(#pccb0d13b4f)" style="fill: #324880"/>
    <path d="M 185.58697 328.530085 
L 210.269386 335.881324 
L 207.932387 202.742813 
L 182.583102 195.801472 
z
" clip-path="url(#pccb0d13b4f)" style="fill: #648fff"/>
    <path d="M 250.125038 330.493388 
L 248.891417 197.655135 
L 274.578536 204.613639 
L 275.127444 337.862315 
z
" clip-path="url(#pccb0d13b4f)" style="fill: #324880"/>
    <path d="M 391.480108 354.822819 
L 405.313633 341.838654 
L 406.456815 291.871535 
L 392.487876 304.593992 
z
" clip-path="url(#pccb0d13b4f)" style="fill: #324880"/>
    <path d="M 235.174543 343.298903 
L 233.516771 209.748531 
L 248.891417 197.655135 
L 250.125038 330.493388 
z
" clip-path="url(#pccb0d13b4f)" style="fill: #648fff"/>
    <path d="M 365.694953 347.301586 
L 391.480108 354.822819 
L 392.487876 304.593992 
L 366.429996 297.224104 
z
" clip-path="url(#pccb0d13b4f)" style="fill: #648fff"/>
    <path d="M 366.429996 297.224104 
L 392.487876 304.593992 
L 406.456815 291.871535 
L 380.540242 284.617213 
z
" clip-path="url(#pccb0d13b4f)" style="fill: #577ddf"/>
    <path d="M 204.561369 369.519939 
L 219.988523 356.306152 
L 245.248929 363.909621 
L 229.952209 377.244901 
z
" clip-path="url(#pccb0d13b4f)" style="fill: #3f599f"/>
    <path d="M 260.30547 350.783724 
L 275.127444 337.862315 
L 274.578536 204.613639 
L 259.339537 216.819525 
z
" clip-path="url(#pccb0d13b4f)" style="fill: #324880"/>
    <path d="M 170.150756 341.304812 
L 166.695621 207.86499 
L 192.175277 214.918404 
L 194.956829 348.771526 
z
" clip-path="url(#pccb0d13b4f)" style="fill: #324880"/>
    <path d="M 235.174543 343.298903 
L 260.30547 350.783724 
L 259.339537 216.819525 
L 233.516771 209.748531 
z
" clip-path="url(#pccb0d13b4f)" style="fill: #648fff"/>
    <path d="M 182.583102 195.801472 
L 207.932387 202.742813 
L 223.439549 190.76036 
L 198.219714 183.92844 
z
" clip-path="url(#pccb0d13b4f)" style="fill: #577ddf"/>
    <path d="M 154.471661 354.280542 
L 150.551185 220.123617 
L 166.695621 207.86499 
L 170.150756 341.304812 
z
" clip-path="url(#pccb0d13b4f)" style="fill: #648fff"/>
    <path d="M 179.402239 361.865473 
L 194.956829 348.771526 
L 192.175277 214.918404 
L 176.162124 227.29184 
z
" clip-path="url(#pccb0d13b4f)" style="fill: #324880"/>
    <path d="M 154.471661 354.280542 
L 179.402239 361.865473 
L 176.162124 227.29184 
L 150.551185 220.123617 
z
" clip-path="url(#pccb0d13b4f)" style="fill: #648fff"/>
    <path d="M 219.988523 356.306152 
L 217.893152 222.037763 
L 243.852605 229.223997 
L 245.248929 363.909621 
z
" clip-path="url(#pccb0d13b4f)" style="fill: #324880"/>
    <path d="M 233.516771 209.748531 
L 259.339537 216.819525 
L 274.578536 204.613639 
L 248.891417 197.655135 
z
" clip-path="url(#pccb0d13b4f)" style="fill: #577ddf"/>
    <path d="M 204.561369 369.519939 
L 202.014465 234.527628 
L 217.893152 222.037763 
L 219.988523 356.306152 
z
" clip-path="url(#pccb0d13b4f)" style="fill: #648fff"/>
    <path d="M 229.952209 377.244901 
L 245.248929 363.909621 
L 243.852605 229.223997 
L 228.111637 241.831942 
z
" clip-path="url(#pccb0d13b4f)" style="fill: #324880"/>
    <path d="M 204.561369 369.519939 
L 229.952209 377.244901 
L 228.111637 241.831942 
L 202.014465 234.527628 
z
" clip-path="url(#pccb0d13b4f)" style="fill: #648fff"/>
    <path d="M 150.551185 220.123617 
L 176.162124 227.29184 
L 192.175277 214.918404 
L 166.695621 207.86499 
z
" clip-path="url(#pccb0d13b4f)" style="fill: #577ddf"/>
    <path d="M 202.014465 234.527628 
L 228.111637 241.831942 
L 243.852605 229.223997 
L 217.893152 222.037763 
z
" clip-path="url(#pccb0d13b4f)" style="fill: #577ddf"/>
   </g>
   <g id="text_15">
    <!-- Real Amplitude (ρ) -->
    <g transform="translate(190.023516 51.6) scale(0.21 -0.21)">
     <defs>
      <path id="DejaVuSans-52" d="M 2841 2188 
Q 3044 2119 3236 1894 
Q 3428 1669 3622 1275 
L 4263 0 
L 3584 0 
L 2988 1197 
Q 2756 1666 2539 1819 
Q 2322 1972 1947 1972 
L 1259 1972 
L 1259 0 
L 628 0 
L 628 4666 
L 2053 4666 
Q 2853 4666 3247 4331 
Q 3641 3997 3641 3322 
Q 3641 2881 3436 2590 
Q 3231 2300 2841 2188 
z
M 1259 4147 
L 1259 2491 
L 2053 2491 
Q 2509 2491 2742 2702 
Q 2975 2913 2975 3322 
Q 2975 3731 2742 3939 
Q 2509 4147 2053 4147 
L 1259 4147 
z
" transform="scale(0.015625)"/>
      <path id="DejaVuSans-65" d="M 3597 1894 
L 3597 1613 
L 953 1613 
Q 991 1019 1311 708 
Q 1631 397 2203 397 
Q 2534 397 2845 478 
Q 3156 559 3463 722 
L 3463 178 
Q 3153 47 2828 -22 
Q 2503 -91 2169 -91 
Q 1331 -91 842 396 
Q 353 884 353 1716 
Q 353 2575 817 3079 
Q 1281 3584 2069 3584 
Q 2775 3584 3186 3129 
Q 3597 2675 3597 1894 
z
M 3022 2063 
Q 3016 2534 2758 2815 
Q 2500 3097 2075 3097 
Q 1594 3097 1305 2825 
Q 1016 2553 972 2059 
L 3022 2063 
z
" transform="scale(0.015625)"/>
      <path id="DejaVuSans-61" d="M 2194 1759 
Q 1497 1759 1228 1600 
Q 959 1441 959 1056 
Q 959 750 1161 570 
Q 1363 391 1709 391 
Q 2188 391 2477 730 
Q 2766 1069 2766 1631 
L 2766 1759 
L 2194 1759 
z
M 3341 1997 
L 3341 0 
L 2766 0 
L 2766 531 
Q 2569 213 2275 61 
Q 1981 -91 1556 -91 
Q 1019 -91 701 211 
Q 384 513 384 1019 
Q 384 1609 779 1909 
Q 1175 2209 1959 2209 
L 2766 2209 
L 2766 2266 
Q 2766 2663 2505 2880 
Q 2244 3097 1772 3097 
Q 1472 3097 1187 3025 
Q 903 2953 641 2809 
L 641 3341 
Q 956 3463 1253 3523 
Q 1550 3584 1831 3584 
Q 2591 3584 2966 3190 
Q 3341 2797 3341 1997 
z
" transform="scale(0.015625)"/>
      <path id="DejaVuSans-6c" d="M 603 4863 
L 1178 4863 
L 1178 0 
L 603 0 
L 603 4863 
z
" transform="scale(0.015625)"/>
      <path id="DejaVuSans-20" transform="scale(0.015625)"/>
      <path id="DejaVuSans-41" d="M 2188 4044 
L 1331 1722 
L 3047 1722 
L 2188 4044 
z
M 1831 4666 
L 2547 4666 
L 4325 0 
L 3669 0 
L 3244 1197 
L 1141 1197 
L 716 0 
L 50 0 
L 1831 4666 
z
" transform="scale(0.015625)"/>
      <path id="DejaVuSans-6d" d="M 3328 2828 
Q 3544 3216 3844 3400 
Q 4144 3584 4550 3584 
Q 5097 3584 5394 3201 
Q 5691 2819 5691 2113 
L 5691 0 
L 5113 0 
L 5113 2094 
Q 5113 2597 4934 2840 
Q 4756 3084 4391 3084 
Q 3944 3084 3684 2787 
Q 3425 2491 3425 1978 
L 3425 0 
L 2847 0 
L 2847 2094 
Q 2847 2600 2669 2842 
Q 2491 3084 2119 3084 
Q 1678 3084 1418 2786 
Q 1159 2488 1159 1978 
L 1159 0 
L 581 0 
L 581 3500 
L 1159 3500 
L 1159 2956 
Q 1356 3278 1631 3431 
Q 1906 3584 2284 3584 
Q 2666 3584 2933 3390 
Q 3200 3197 3328 2828 
z
" transform="scale(0.015625)"/>
      <path id="DejaVuSans-70" d="M 1159 525 
L 1159 -1331 
L 581 -1331 
L 581 3500 
L 1159 3500 
L 1159 2969 
Q 1341 3281 1617 3432 
Q 1894 3584 2278 3584 
Q 2916 3584 3314 3078 
Q 3713 2572 3713 1747 
Q 3713 922 3314 415 
Q 2916 -91 2278 -91 
Q 1894 -91 1617 61 
Q 1341 213 1159 525 
z
M 3116 1747 
Q 3116 2381 2855 2742 
Q 2594 3103 2138 3103 
Q 1681 3103 1420 2742 
Q 1159 2381 1159 1747 
Q 1159 1113 1420 752 
Q 1681 391 2138 391 
Q 2594 391 2855 752 
Q 3116 1113 3116 1747 
z
" transform="scale(0.015625)"/>
      <path id="DejaVuSans-69" d="M 603 3500 
L 1178 3500 
L 1178 0 
L 603 0 
L 603 3500 
z
M 603 4863 
L 1178 4863 
L 1178 4134 
L 603 4134 
L 603 4863 
z
" transform="scale(0.015625)"/>
      <path id="DejaVuSans-74" d="M 1172 4494 
L 1172 3500 
L 2356 3500 
L 2356 3053 
L 1172 3053 
L 1172 1153 
Q 1172 725 1289 603 
Q 1406 481 1766 481 
L 2356 481 
L 2356 0 
L 1766 0 
Q 1100 0 847 248 
Q 594 497 594 1153 
L 594 3053 
L 172 3053 
L 172 3500 
L 594 3500 
L 594 4494 
L 1172 4494 
z
" transform="scale(0.015625)"/>
      <path id="DejaVuSans-75" d="M 544 1381 
L 544 3500 
L 1119 3500 
L 1119 1403 
Q 1119 906 1312 657 
Q 1506 409 1894 409 
Q 2359 409 2629 706 
Q 2900 1003 2900 1516 
L 2900 3500 
L 3475 3500 
L 3475 0 
L 2900 0 
L 2900 538 
Q 2691 219 2414 64 
Q 2138 -91 1772 -91 
Q 1169 -91 856 284 
Q 544 659 544 1381 
z
M 1991 3584 
L 1991 3584 
z
" transform="scale(0.015625)"/>
      <path id="DejaVuSans-64" d="M 2906 2969 
L 2906 4863 
L 3481 4863 
L 3481 0 
L 2906 0 
L 2906 525 
Q 2725 213 2448 61 
Q 2172 -91 1784 -91 
Q 1150 -91 751 415 
Q 353 922 353 1747 
Q 353 2572 751 3078 
Q 1150 3584 1784 3584 
Q 2172 3584 2448 3432 
Q 2725 3281 2906 2969 
z
M 947 1747 
Q 947 1113 1208 752 
Q 1469 391 1925 391 
Q 2381 391 2643 752 
Q 2906 1113 2906 1747 
Q 2906 2381 2643 2742 
Q 2381 3103 1925 3103 
Q 1469 3103 1208 2742 
Q 947 2381 947 1747 
z
" transform="scale(0.015625)"/>
      <path id="DejaVuSans-28" d="M 1984 4856 
Q 1566 4138 1362 3434 
Q 1159 2731 1159 2009 
Q 1159 1288 1364 580 
Q 1569 -128 1984 -844 
L 1484 -844 
Q 1016 -109 783 600 
Q 550 1309 550 2009 
Q 550 2706 781 3412 
Q 1013 4119 1484 4856 
L 1984 4856 
z
" transform="scale(0.015625)"/>
      <path id="DejaVuSans-3c1" d="M 863 2875 
Q 1053 3194 1525 3475 
Q 1709 3584 2278 3584 
Q 2916 3584 3314 3078 
Q 3713 2572 3713 1747 
Q 3713 922 3314 415 
Q 2916 -91 2278 -91 
Q 1894 -91 1617 61 
Q 1341 213 1159 525 
L 1159 -1331 
L 581 -1331 
L 581 1716 
Q 581 2438 863 2875 
z
M 3116 1747 
Q 3116 2381 2855 2742 
Q 2594 3103 2138 3103 
Q 1681 3103 1420 2742 
Q 1159 2381 1159 1747 
Q 1159 1113 1420 752 
Q 1681 391 2138 391 
Q 2594 391 2855 752 
Q 3116 1113 3116 1747 
z
" transform="scale(0.015625)"/>
      <path id="DejaVuSans-29" d="M 513 4856 
L 1013 4856 
Q 1481 4119 1714 3412 
Q 1947 2706 1947 2009 
Q 1947 1309 1714 600 
Q 1481 -109 1013 -844 
L 513 -844 
Q 928 -128 1133 580 
Q 1338 1288 1338 2009 
Q 1338 2731 1133 3434 
Q 928 4138 513 4856 
z
" transform="scale(0.015625)"/>
     </defs>
     <use xlink:href="#DejaVuSans-52"/>
     <use xlink:href="#DejaVuSans-65" x="64.982422"/>
     <use xlink:href="#DejaVuSans-61" x="126.505859"/>
     <use xlink:href="#DejaVuSans-6c" x="187.785156"/>
     <use xlink:href="#DejaVuSans-20" x="215.568359"/>
     <use xlink:href="#DejaVuSans-41" x="247.355469"/>
     <use xlink:href="#DejaVuSans-6d" x="315.763672"/>
     <use xlink:href="#DejaVuSans-70" x="413.175781"/>
     <use xlink:href="#DejaVuSans-6c" x="476.652344"/>
     <use xlink:href="#DejaVuSans-69" x="504.435547"/>
     <use xlink:href="#DejaVuSans-74" x="532.21875"/>
     <use xlink:href="#DejaVuSans-75" x="571.427734"/>
     <use xlink:href="#DejaVuSans-64" x="634.806641"/>
     <use xlink:href="#DejaVuSans-65" x="698.283203"/>
     <use xlink:href="#DejaVuSans-20" x="759.806641"/>
     <use xlink:href="#DejaVuSans-28" x="791.59375"/>
     <use xlink:href="#DejaVuSans-3c1" x="830.607422"/>
     <use xlink:href="#DejaVuSans-29" x="894.083984"/>
    </g>
   </g>
  </g>
  <g id="patch_6">
   <path d="M 604.8 576 
L 1123.2 576 
L 1123.2 57.6 
L 604.8 57.6 
z
" style="fill: #ffffff"/>
  </g>
  <g id="pane3d_4">
   <g id="patch_7">
    <path d="M 706.07018 436.456468 
L 829.494133 330.550231 
L 827.743197 126.70673 
L 698.643358 223.613571 
" style="fill: #f2f2f2; opacity: 0.5; stroke: #f2f2f2; stroke-linejoin: miter"/>
   </g>
  </g>
  <g id="pane3d_5">
   <g id="patch_8">
    <path d="M 829.494133 330.550231 
L 1031.554898 390.069341 
L 1038.583588 181.103065 
L 827.743197 126.70673 
" style="fill: #e6e6e6; opacity: 0.5; stroke: #e6e6e6; stroke-linejoin: miter"/>
   </g>
  </g>
  <g id="pane3d_6">
   <g id="patch_9">
    <path d="M 706.07018 436.456468 
L 916.912731 504.076731 
L 1031.554898 390.069341 
L 829.494133 330.550231 
" style="fill: #ececec; opacity: 0.5; stroke: #ececec; stroke-linejoin: miter"/>
   </g>
  </g>
  <g id="grid3d_4">
   <g id="Line3DCollection_4">
    <path d="M 734.635886 445.617904 
L 856.925726 338.630493 
L 856.328796 134.081748 
" style="fill: none; stroke: #b0b0b0; stroke-width: 0.8"/>
    <path d="M 784.310046 461.549127 
L 904.58611 352.669358 
L 906.022474 146.902603 
" style="fill: none; stroke: #b0b0b0; stroke-width: 0.8"/>
    <path d="M 834.89502 477.772462 
L 953.066152 366.949661 
L 956.607663 159.953465 
" style="fill: none; stroke: #b0b0b0; stroke-width: 0.8"/>
    <path d="M 886.41609 494.296016 
L 1002.38718 381.477685 
L 1008.108569 173.24058 
" style="fill: none; stroke: #b0b0b0; stroke-width: 0.8"/>
   </g>
  </g>
  <g id="grid3d_5">
   <g id="Line3DCollection_5">
    <path d="M 717.757365 209.265931 
L 724.301379 420.812846 
L 933.880707 487.202708 
" style="fill: none; stroke: #b0b0b0; stroke-width: 0.8"/>
    <path d="M 749.704273 185.285468 
L 754.805664 394.638072 
L 962.24502 458.995448 
" style="fill: none; stroke: #b0b0b0; stroke-width: 0.8"/>
    <path d="M 780.65707 162.051218 
L 784.400054 369.24405 
L 989.731787 431.660877 
" style="fill: none; stroke: #b0b0b0; stroke-width: 0.8"/>
    <path d="M 810.661448 139.528886 
L 813.124663 344.596362 
L 1016.38111 405.159111 
" style="fill: none; stroke: #b0b0b0; stroke-width: 0.8"/>
   </g>
  </g>
  <g id="grid3d_6">
   <g id="Line3DCollection_6">
    <path d="M 1032.115018 373.416711 
L 829.354403 314.2829 
L 705.478984 419.513578 
" style="fill: none; stroke: #b0b0b0; stroke-width: 0.8"/>
    <path d="M 1032.978315 347.750476 
L 829.139108 289.218305 
L 704.56757 393.393647 
" style="fill: none; stroke: #b0b0b0; stroke-width: 0.8"/>
    <path d="M 1033.850914 321.807697 
L 828.921575 263.893245 
L 703.646063 366.984483 
" style="fill: none; stroke: #b0b0b0; stroke-width: 0.8"/>
    <path d="M 1034.732966 295.58388 
L 828.701771 238.303638 
L 702.714295 340.281255 
" style="fill: none; stroke: #b0b0b0; stroke-width: 0.8"/>
    <path d="M 1035.624625 269.074434 
L 828.479658 212.445318 
L 701.772095 313.279023 
" style="fill: none; stroke: #b0b0b0; stroke-width: 0.8"/>
    <path d="M 1036.526049 242.274666 
L 828.2552 186.314029 
L 700.819284 285.972737 
" style="fill: none; stroke: #b0b0b0; stroke-width: 0.8"/>
    <path d="M 1037.4374 215.179782 
L 828.028361 159.905426 
L 699.855684 258.357234 
" style="fill: none; stroke: #b0b0b0; stroke-width: 0.8"/>
    <path d="M 1038.358841 187.784878 
L 827.799101 133.215072 
L 698.88111 230.427229 
" style="fill: none; stroke: #b0b0b0; stroke-width: 0.8"/>
   </g>
  </g>
  <g id="axis3d_4">
   <g id="line2d_18">
    <path d="M 706.07018 436.456468 
L 916.912731 504.076731 
" style="fill: none; stroke: #000000; stroke-width: 0.8; stroke-linecap: square"/>
   </g>
   <g id="xtick_15">
    <g id="line2d_19">
     <path d="M 735.677227 444.706868 
L 732.549953 447.442819 
" style="fill: none; stroke: #000000; stroke-width: 0.8; stroke-linecap: square"/>
    </g>
    <g id="text_16">
     <!-- 00 -->
     <g transform="translate(707.351686 489.365693) rotate(-45) scale(0.21 -0.21)">
      <use xlink:href="#DejaVuSans-30"/>
      <use xlink:href="#DejaVuSans-30" x="63.623047"/>
     </g>
    </g>
   </g>
   <g id="xtick_16">
    <g id="line2d_20">
     <path d="M 785.334802 460.621468 
L 782.257306 463.407368 
" style="fill: none; stroke: #000000; stroke-width: 0.8; stroke-linecap: square"/>
    </g>
    <g id="text_17">
     <!-- 01 -->
     <g transform="translate(757.023931 505.435143) rotate(-45) scale(0.21 -0.21)">
      <use xlink:href="#DejaVuSans-30"/>
      <use xlink:href="#DejaVuSans-31" x="63.623047"/>
     </g>
    </g>
   </g>
   <g id="xtick_17">
    <g id="line2d_21">
     <path d="M 835.902405 476.82772 
L 832.877048 479.664949 
" style="fill: none; stroke: #000000; stroke-width: 0.8; stroke-linecap: square"/>
    </g>
    <g id="text_18">
     <!-- 10 -->
     <g transform="translate(807.60781 521.799516) rotate(-45) scale(0.21 -0.21)">
      <use xlink:href="#DejaVuSans-31"/>
      <use xlink:href="#DejaVuSans-30" x="63.623047"/>
     </g>
    </g>
   </g>
   <g id="xtick_18">
    <g id="line2d_22">
     <path d="M 887.405283 493.333715 
L 884.434531 496.223705 
" style="fill: none; stroke: #000000; stroke-width: 0.8; stroke-linecap: square"/>
    </g>
    <g id="text_19">
     <!-- 11 -->
     <g transform="translate(859.128654 538.467006) rotate(-45) scale(0.21 -0.21)">
      <use xlink:href="#DejaVuSans-31"/>
      <use xlink:href="#DejaVuSans-31" x="63.623047"/>
     </g>
    </g>
   </g>
  </g>
  <g id="axis3d_5">
   <g id="line2d_23">
    <path d="M 1031.554898 390.069341 
L 916.912731 504.076731 
" style="fill: none; stroke: #000000; stroke-width: 0.8; stroke-linecap: square"/>
   </g>
   <g id="xtick_19">
    <g id="line2d_24">
     <path d="M 932.140222 486.651363 
L 937.364886 488.306415 
" style="fill: none; stroke: #000000; stroke-width: 0.8; stroke-linecap: square"/>
    </g>
    <g id="text_20">
     <!-- 00 -->
     <g transform="translate(944.70027 499.207917) rotate(-337.5) scale(0.21 -0.21)">
      <use xlink:href="#DejaVuSans-30"/>
      <use xlink:href="#DejaVuSans-30" x="63.623047"/>
     </g>
    </g>
   </g>
   <g id="xtick_20">
    <g id="line2d_25">
     <path d="M 960.5233 458.46129 
L 965.691587 460.064734 
" style="fill: none; stroke: #000000; stroke-width: 0.8; stroke-linecap: square"/>
    </g>
    <g id="text_21">
     <!-- 01 -->
     <g transform="translate(972.913817 470.822876) rotate(-337.5) scale(0.21 -0.21)">
      <use xlink:href="#DejaVuSans-30"/>
      <use xlink:href="#DejaVuSans-31" x="63.623047"/>
     </g>
    </g>
   </g>
   <g id="xtick_21">
    <g id="line2d_26">
     <path d="M 988.028511 431.143114 
L 993.141381 432.697327 
" style="fill: none; stroke: #000000; stroke-width: 0.8; stroke-linecap: square"/>
    </g>
    <g id="text_22">
     <!-- 10 -->
     <g transform="translate(1000.254695 443.315808) rotate(-337.5) scale(0.21 -0.21)">
      <use xlink:href="#DejaVuSans-31"/>
      <use xlink:href="#DejaVuSans-30" x="63.623047"/>
     </g>
    </g>
   </g>
   <g id="xtick_22">
    <g id="line2d_27">
     <path d="M 1014.695964 404.657001 
L 1019.754368 406.164215 
" style="fill: none; stroke: #000000; stroke-width: 0.8; stroke-linecap: square"/>
    </g>
    <g id="text_23">
     <!-- 11 -->
     <g transform="translate(1026.762776 416.646599) rotate(-337.5) scale(0.21 -0.21)">
      <use xlink:href="#DejaVuSans-31"/>
      <use xlink:href="#DejaVuSans-31" x="63.623047"/>
     </g>
    </g>
   </g>
  </g>
  <g id="axis3d_6">
   <g id="line2d_28">
    <path d="M 1031.554898 390.069341 
L 1038.583588 181.103065 
" style="fill: none; stroke: #000000; stroke-width: 0.8; stroke-linecap: square"/>
   </g>
   <g id="xtick_23">
    <g id="line2d_29">
     <path d="M 1030.434298 372.92654 
L 1035.4794 374.397911 
" style="fill: none; stroke: #000000; stroke-width: 0.8; stroke-linecap: square"/>
    </g>
    <g id="text_24">
     <!-- 0.00 -->
     <g transform="translate(1045.640694 367.140541) scale(0.21 -0.21)">
      <use xlink:href="#DejaVuSans-30"/>
      <use xlink:href="#DejaVuSans-2e" x="63.623047"/>
      <use xlink:href="#DejaVuSans-30" x="95.410156"/>
      <use xlink:href="#DejaVuSans-30" x="159.033203"/>
     </g>
    </g>
   </g>
   <g id="xtick_24">
    <g id="line2d_30">
     <path d="M 1031.288338 347.265201 
L 1036.361243 348.721879 
" style="fill: none; stroke: #000000; stroke-width: 0.8; stroke-linecap: square"/>
    </g>
    <g id="text_25">
     <!-- 0.05 -->
     <g transform="translate(1046.5754 341.493383) scale(0.21 -0.21)">
      <defs>
       <path id="DejaVuSans-35" d="M 691 4666 
L 3169 4666 
L 3169 4134 
L 1269 4134 
L 1269 2991 
Q 1406 3038 1543 3061 
Q 1681 3084 1819 3084 
Q 2600 3084 3056 2656 
Q 3513 2228 3513 1497 
Q 3513 744 3044 326 
Q 2575 -91 1722 -91 
Q 1428 -91 1123 -41 
Q 819 9 494 109 
L 494 744 
Q 775 591 1075 516 
Q 1375 441 1709 441 
Q 2250 441 2565 725 
Q 2881 1009 2881 1497 
Q 2881 1984 2565 2268 
Q 2250 2553 1709 2553 
Q 1456 2553 1204 2497 
Q 953 2441 691 2322 
L 691 4666 
z
" transform="scale(0.015625)"/>
      </defs>
      <use xlink:href="#DejaVuSans-30"/>
      <use xlink:href="#DejaVuSans-2e" x="63.623047"/>
      <use xlink:href="#DejaVuSans-30" x="95.410156"/>
      <use xlink:href="#DejaVuSans-35" x="159.033203"/>
     </g>
    </g>
   </g>
   <g id="xtick_25">
    <g id="line2d_31">
     <path d="M 1032.151578 321.327453 
L 1037.252592 322.769035 
" style="fill: none; stroke: #000000; stroke-width: 0.8; stroke-linecap: square"/>
    </g>
    <g id="text_26">
     <!-- 0.10 -->
     <g transform="translate(1047.520165 315.570203) scale(0.21 -0.21)">
      <use xlink:href="#DejaVuSans-30"/>
      <use xlink:href="#DejaVuSans-2e" x="63.623047"/>
      <use xlink:href="#DejaVuSans-31" x="95.410156"/>
      <use xlink:href="#DejaVuSans-30" x="159.033203"/>
     </g>
    </g>
   </g>
   <g id="xtick_26">
    <g id="line2d_32">
     <path d="M 1033.024167 295.108805 
L 1038.153603 296.534877 
" style="fill: none; stroke: #000000; stroke-width: 0.8; stroke-linecap: square"/>
    </g>
    <g id="text_27">
     <!-- 0.15 -->
     <g transform="translate(1048.475154 289.366521) scale(0.21 -0.21)">
      <use xlink:href="#DejaVuSans-30"/>
      <use xlink:href="#DejaVuSans-2e" x="63.623047"/>
      <use xlink:href="#DejaVuSans-31" x="95.410156"/>
      <use xlink:href="#DejaVuSans-35" x="159.033203"/>
     </g>
    </g>
   </g>
   <g id="xtick_27">
    <g id="line2d_33">
     <path d="M 1033.906257 268.604668 
L 1039.064433 270.014806 
" style="fill: none; stroke: #000000; stroke-width: 0.8; stroke-linecap: square"/>
    </g>
    <g id="text_28">
     <!-- 0.20 -->
     <g transform="translate(1049.440531 262.87776) scale(0.21 -0.21)">
      <use xlink:href="#DejaVuSans-30"/>
      <use xlink:href="#DejaVuSans-2e" x="63.623047"/>
      <use xlink:href="#DejaVuSans-32" x="95.410156"/>
      <use xlink:href="#DejaVuSans-30" x="159.033203"/>
     </g>
    </g>
   </g>
   <g id="xtick_28">
    <g id="line2d_34">
     <path d="M 1034.798005 241.810355 
L 1039.985245 243.204124 
" style="fill: none; stroke: #000000; stroke-width: 0.8; stroke-linecap: square"/>
    </g>
    <g id="text_29">
     <!-- 0.25 -->
     <g transform="translate(1050.416469 236.099243) scale(0.21 -0.21)">
      <use xlink:href="#DejaVuSans-30"/>
      <use xlink:href="#DejaVuSans-2e" x="63.623047"/>
      <use xlink:href="#DejaVuSans-32" x="95.410156"/>
      <use xlink:href="#DejaVuSans-35" x="159.033203"/>
     </g>
    </g>
   </g>
   <g id="xtick_29">
    <g id="line2d_35">
     <path d="M 1035.699569 214.721074 
L 1040.916203 216.098026 
" style="fill: none; stroke: #000000; stroke-width: 0.8; stroke-linecap: square"/>
    </g>
    <g id="text_30">
     <!-- 0.30 -->
     <g transform="translate(1051.403142 209.026188) scale(0.21 -0.21)">
      <use xlink:href="#DejaVuSans-30"/>
      <use xlink:href="#DejaVuSans-2e" x="63.623047"/>
      <use xlink:href="#DejaVuSans-33" x="95.410156"/>
      <use xlink:href="#DejaVuSans-30" x="159.033203"/>
     </g>
    </g>
   </g>
   <g id="xtick_30">
    <g id="line2d_36">
     <path d="M 1036.611114 187.331927 
L 1041.857475 188.691603 
" style="fill: none; stroke: #000000; stroke-width: 0.8; stroke-linecap: square"/>
    </g>
    <g id="text_31">
     <!-- 0.35 -->
     <g transform="translate(1052.400727 181.65371) scale(0.21 -0.21)">
      <use xlink:href="#DejaVuSans-30"/>
      <use xlink:href="#DejaVuSans-2e" x="63.623047"/>
      <use xlink:href="#DejaVuSans-33" x="95.410156"/>
      <use xlink:href="#DejaVuSans-35" x="159.033203"/>
     </g>
    </g>
   </g>
  </g>
  <g id="axes_2">
   <g id="Poly3DCollection_4">
    <path d="M 835.747553 326.849486 
L 835.866748 343.199915 
L 859.572276 350.22848 
L 859.533328 333.832161 
z
" clip-path="url(#p20c262fe62)" style="fill: #648fff"/>
    <path d="M 821.622898 338.981767 
L 821.791079 355.411799 
L 835.866748 343.199915 
L 835.747553 326.849486 
z
" clip-path="url(#p20c262fe62)" style="fill: #324880"/>
    <path d="M 821.791079 355.411799 
L 845.612317 362.544934 
L 859.572276 350.22848 
L 835.866748 343.199915 
z
" clip-path="url(#p20c262fe62)" style="fill: #577ddf"/>
    <path d="M 821.622898 338.981767 
L 835.747553 326.849486 
L 859.533328 333.832161 
L 845.525167 346.068687 
z
" clip-path="url(#p20c262fe62)" style="fill: #3f599f"/>
    <path d="M 845.525167 346.068687 
L 859.533328 333.832161 
L 859.572276 350.22848 
L 845.612317 362.544934 
z
" clip-path="url(#p20c262fe62)" style="fill: #648fff"/>
    <path d="M 821.622898 338.981767 
L 845.525167 346.068687 
L 845.612317 362.544934 
L 821.791079 355.411799 
z
" clip-path="url(#p20c262fe62)" style="fill: #324880"/>
    <path d="M 883.523155 340.874739 
L 883.480474 357.317135 
L 907.593953 364.466656 
L 907.719671 347.977993 
z
" clip-path="url(#p20c262fe62)" style="fill: #648fff"/>
    <path d="M 869.634023 353.216858 
L 869.638733 369.739508 
L 883.480474 357.317135 
L 883.523155 340.874739 
z
" clip-path="url(#p20c262fe62)" style="fill: #324880"/>
    <path d="M 869.638733 369.739508 
L 893.872991 376.99632 
L 907.593953 364.466656 
L 883.480474 357.317135 
z
" clip-path="url(#p20c262fe62)" style="fill: #577ddf"/>
    <path d="M 869.634023 353.216858 
L 883.523155 340.874739 
L 907.719671 347.977993 
L 893.952154 360.427079 
z
" clip-path="url(#p20c262fe62)" style="fill: #3f599f"/>
    <path d="M 893.952154 360.427079 
L 907.719671 347.977993 
L 907.593953 364.466656 
L 893.872991 376.99632 
z
" clip-path="url(#p20c262fe62)" style="fill: #648fff"/>
    <path d="M 807.287041 351.295459 
L 807.505663 367.805657 
L 831.443436 375.045713 
L 831.306639 358.488975 
z
" clip-path="url(#p20c262fe62)" style="fill: #648fff"/>
    <path d="M 869.634023 353.216858 
L 893.952154 360.427079 
L 893.872991 376.99632 
L 869.638733 369.739508 
z
" clip-path="url(#p20c262fe62)" style="fill: #324880"/>
    <path d="M 792.73521 363.794661 
L 793.005775 380.385588 
L 807.505663 367.805657 
L 807.287041 351.295459 
z
" clip-path="url(#p20c262fe62)" style="fill: #324880"/>
    <path d="M 793.005775 380.385588 
L 817.060907 387.734988 
L 831.443436 375.045713 
L 807.505663 367.805657 
z
" clip-path="url(#p20c262fe62)" style="fill: #577ddf"/>
    <path d="M 932.125559 355.142712 
L 932.125559 355.142712 
L 956.743548 362.369697 
L 956.743548 362.369697 
z
" clip-path="url(#p20c262fe62)" style="fill: #648fff"/>
    <path d="M 792.73521 363.794661 
L 807.287041 351.295459 
L 831.306639 358.488975 
L 816.872967 371.097197 
z
" clip-path="url(#p20c262fe62)" style="fill: #3f599f"/>
    <path d="M 918.482299 367.700161 
L 918.482299 367.700161 
L 932.125559 355.142712 
L 932.125559 355.142712 
z
" clip-path="url(#p20c262fe62)" style="fill: #324880"/>
    <path d="M 816.872967 371.097197 
L 831.306639 358.488975 
L 831.443436 375.045713 
L 817.060907 387.734988 
z
" clip-path="url(#p20c262fe62)" style="fill: #648fff"/>
    <path d="M 792.73521 363.794661 
L 816.872967 371.097197 
L 817.060907 387.734988 
L 793.005775 380.385588 
z
" clip-path="url(#p20c262fe62)" style="fill: #324880"/>
    <path d="M 918.482299 367.700161 
L 932.125559 355.142712 
L 956.743548 362.369697 
L 943.227241 375.03693 
z
" clip-path="url(#p20c262fe62)" style="fill: #3f599f"/>
    <path d="M 918.482299 367.700161 
L 943.227241 375.03693 
L 956.743548 362.369697 
L 932.125559 355.142712 
z
" clip-path="url(#p20c262fe62)" style="fill: #577ddf"/>
    <path d="M 855.535402 365.745133 
L 855.588941 382.348599 
L 879.944894 389.715135 
L 879.976075 373.064755 
z
" clip-path="url(#p20c262fe62)" style="fill: #648fff"/>
    <path d="M 943.227241 375.03693 
L 956.743548 362.369697 
L 956.743548 362.369697 
L 943.227241 375.03693 
z
" clip-path="url(#p20c262fe62)" style="fill: #648fff"/>
    <path d="M 841.222516 378.463807 
L 841.326371 395.148648 
L 855.588941 382.348599 
L 855.535402 365.745133 
z
" clip-path="url(#p20c262fe62)" style="fill: #324880"/>
    <path d="M 841.326371 395.148648 
L 865.804936 402.627416 
L 879.944894 389.715135 
L 855.588941 382.348599 
z
" clip-path="url(#p20c262fe62)" style="fill: #577ddf"/>
    <path d="M 918.482299 367.700161 
L 943.227241 375.03693 
L 943.227241 375.03693 
L 918.482299 367.700161 
z
" clip-path="url(#p20c262fe62)" style="fill: #324880"/>
    <path d="M 841.222516 378.463807 
L 855.535402 365.745133 
L 879.976075 373.064755 
L 865.786658 385.895339 
z
" clip-path="url(#p20c262fe62)" style="fill: #3f599f"/>
    <path d="M 865.786658 385.895339 
L 879.976075 373.064755 
L 879.944894 389.715135 
L 865.804936 402.627416 
z
" clip-path="url(#p20c262fe62)" style="fill: #648fff"/>
    <path d="M 841.222516 378.463807 
L 865.786658 385.895339 
L 865.804936 402.627416 
L 841.326371 395.148648 
z
" clip-path="url(#p20c262fe62)" style="fill: #324880"/>
    <path d="M 777.962486 376.483598 
L 777.962486 376.483598 
L 802.219232 383.89765 
L 802.219232 383.89765 
z
" clip-path="url(#p20c262fe62)" style="fill: #648fff"/>
    <path d="M 762.963801 389.366622 
L 762.963801 389.366622 
L 777.962486 376.483598 
L 777.962486 376.483598 
z
" clip-path="url(#p20c262fe62)" style="fill: #324880"/>
    <path d="M 904.631451 380.448677 
L 904.631451 380.448677 
L 929.50437 387.897751 
L 929.50437 387.897751 
z
" clip-path="url(#p20c262fe62)" style="fill: #648fff"/>
    <path d="M 762.963801 389.366622 
L 777.962486 376.483598 
L 802.219232 383.89765 
L 787.340363 396.894765 
z
" clip-path="url(#p20c262fe62)" style="fill: #3f599f"/>
    <path d="M 762.963801 389.366622 
L 787.340363 396.894765 
L 802.219232 383.89765 
L 777.962486 376.483598 
z
" clip-path="url(#p20c262fe62)" style="fill: #577ddf"/>
    <path d="M 890.56824 393.392654 
L 890.56824 393.392654 
L 904.631451 380.448677 
L 904.631451 380.448677 
z
" clip-path="url(#p20c262fe62)" style="fill: #324880"/>
    <path d="M 787.340363 396.894765 
L 802.219232 383.89765 
L 802.219232 383.89765 
L 787.340363 396.894765 
z
" clip-path="url(#p20c262fe62)" style="fill: #648fff"/>
    <path d="M 890.56824 393.392654 
L 915.570164 400.956631 
L 929.50437 387.897751 
L 904.631451 380.448677 
z
" clip-path="url(#p20c262fe62)" style="fill: #577ddf"/>
    <path d="M 890.56824 393.392654 
L 904.631451 380.448677 
L 929.50437 387.897751 
L 915.570164 400.956631 
z
" clip-path="url(#p20c262fe62)" style="fill: #3f599f"/>
    <path d="M 762.963801 389.366622 
L 787.340363 396.894765 
L 787.340363 396.894765 
L 762.963801 389.366622 
z
" clip-path="url(#p20c262fe62)" style="fill: #324880"/>
    <path d="M 915.570164 400.956631 
L 929.50437 387.897751 
L 929.50437 387.897751 
L 915.570164 400.956631 
z
" clip-path="url(#p20c262fe62)" style="fill: #648fff"/>
    <path d="M 890.56824 393.392654 
L 915.570164 400.956631 
L 915.570164 400.956631 
L 890.56824 393.392654 
z
" clip-path="url(#p20c262fe62)" style="fill: #324880"/>
    <path d="M 747.733932 402.44822 
L 747.733932 402.44822 
L 772.231131 410.093108 
L 772.231131 410.093108 
z
" clip-path="url(#p20c262fe62)" style="fill: #648fff"/>
    <path d="M 732.267491 415.73302 
L 732.267491 415.73302 
L 747.733932 402.44822 
L 747.733932 402.44822 
z
" clip-path="url(#p20c262fe62)" style="fill: #324880"/>
    <path d="M 732.267491 415.73302 
L 747.733932 402.44822 
L 772.231131 410.093108 
L 756.886143 423.49739 
z
" clip-path="url(#p20c262fe62)" style="fill: #3f599f"/>
    <path d="M 732.267491 415.73302 
L 756.886143 423.49739 
L 772.231131 410.093108 
L 747.733932 402.44822 
z
" clip-path="url(#p20c262fe62)" style="fill: #577ddf"/>
    <path d="M 756.886143 423.49739 
L 772.231131 410.093108 
L 772.231131 410.093108 
L 756.886143 423.49739 
z
" clip-path="url(#p20c262fe62)" style="fill: #648fff"/>
    <path d="M 732.267491 415.73302 
L 756.886143 423.49739 
L 756.886143 423.49739 
L 732.267491 415.73302 
z
" clip-path="url(#p20c262fe62)" style="fill: #324880"/>
   </g>
   <g id="Poly3DCollection_5">
    <path d="M 712.187121 418.566885 
L 915.146714 482.919088 
L 1025.753217 374.314527 
L 830.943458 317.406401 
z
" clip-path="url(#p20c262fe62)" style="fill-opacity: 0.25"/>
   </g>
   <g id="Poly3DCollection_6">
    <path d="M 981.576416 369.659762 
L 981.576416 369.659762 
L 1006.626988 377.013737 
L 1006.626988 377.013737 
z
" clip-path="url(#p20c262fe62)" style="fill: #324880"/>
    <path d="M 968.189815 382.438225 
L 968.189815 382.438225 
L 981.576416 369.659762 
L 981.576416 369.659762 
z
" clip-path="url(#p20c262fe62)" style="fill: #648fff"/>
    <path d="M 968.189815 382.438225 
L 981.576416 369.659762 
L 1006.626988 377.013737 
L 993.372904 389.904902 
z
" clip-path="url(#p20c262fe62)" style="fill: #3f599f"/>
    <path d="M 968.189815 382.438225 
L 993.372904 389.904902 
L 1006.626988 377.013737 
L 981.576416 369.659762 
z
" clip-path="url(#p20c262fe62)" style="fill: #577ddf"/>
    <path d="M 993.372904 389.904902 
L 1006.626988 377.013737 
L 1006.626988 377.013737 
L 993.372904 389.904902 
z
" clip-path="url(#p20c262fe62)" style="fill: #324880"/>
    <path d="M 968.189815 382.438225 
L 993.372904 389.904902 
L 993.372904 389.904902 
L 968.189815 382.438225 
z
" clip-path="url(#p20c262fe62)" style="fill: #648fff"/>
    <path d="M 826.690445 391.377254 
L 826.690445 391.377254 
L 851.37898 398.923282 
L 851.37898 398.923282 
z
" clip-path="url(#p20c262fe62)" style="fill: #324880"/>
    <path d="M 811.934113 404.489981 
L 811.934113 404.489981 
L 826.690445 391.377254 
L 826.690445 391.377254 
z
" clip-path="url(#p20c262fe62)" style="fill: #648fff"/>
    <path d="M 954.597726 395.412841 
L 954.597726 395.412841 
L 979.914461 402.994831 
L 979.914461 402.994831 
z
" clip-path="url(#p20c262fe62)" style="fill: #324880"/>
    <path d="M 811.934113 404.489981 
L 826.690445 391.377254 
L 851.37898 398.923282 
L 836.747967 412.153172 
z
" clip-path="url(#p20c262fe62)" style="fill: #3f599f"/>
    <path d="M 811.934113 404.489981 
L 836.747967 412.153172 
L 851.37898 398.923282 
L 826.690445 391.377254 
z
" clip-path="url(#p20c262fe62)" style="fill: #577ddf"/>
    <path d="M 940.795381 408.588162 
L 940.795381 408.588162 
L 954.597726 395.412841 
L 954.597726 395.412841 
z
" clip-path="url(#p20c262fe62)" style="fill: #648fff"/>
    <path d="M 836.747967 412.153172 
L 851.37898 398.923282 
L 851.37898 398.923282 
L 836.747967 412.153172 
z
" clip-path="url(#p20c262fe62)" style="fill: #324880"/>
    <path d="M 940.795381 408.588162 
L 966.246896 416.288156 
L 979.914461 402.994831 
L 954.597726 395.412841 
z
" clip-path="url(#p20c262fe62)" style="fill: #577ddf"/>
    <path d="M 940.795381 408.588162 
L 954.597726 395.412841 
L 979.914461 402.994831 
L 966.246896 416.288156 
z
" clip-path="url(#p20c262fe62)" style="fill: #3f599f"/>
    <path d="M 811.934113 404.489981 
L 836.747967 412.153172 
L 836.747967 412.153172 
L 811.934113 404.489981 
z
" clip-path="url(#p20c262fe62)" style="fill: #648fff"/>
    <path d="M 966.246896 416.288156 
L 979.914461 402.994831 
L 979.914461 402.994831 
L 966.246896 416.288156 
z
" clip-path="url(#p20c262fe62)" style="fill: #324880"/>
    <path d="M 940.795381 408.588162 
L 966.246896 416.288156 
L 966.246896 416.288156 
L 940.795381 408.588162 
z
" clip-path="url(#p20c262fe62)" style="fill: #648fff"/>
    <path d="M 876.287746 406.536623 
L 876.306605 389.55415 
L 901.528775 397.1869 
L 901.419702 414.218182 
z
" clip-path="url(#p20c262fe62)" style="fill: #324880"/>
    <path d="M 861.784893 419.885254 
L 861.751716 402.818119 
L 876.306605 389.55415 
L 876.287746 406.536623 
z
" clip-path="url(#p20c262fe62)" style="fill: #648fff"/>
    <path d="M 861.784893 419.885254 
L 876.287746 406.536623 
L 901.419702 414.218182 
L 887.047912 427.687159 
z
" clip-path="url(#p20c262fe62)" style="fill: #3f599f"/>
    <path d="M 796.94829 417.80664 
L 796.94829 417.80664 
L 821.888385 425.589743 
L 821.888385 425.589743 
z
" clip-path="url(#p20c262fe62)" style="fill: #324880"/>
    <path d="M 861.751716 402.818119 
L 887.105896 410.570883 
L 901.528775 397.1869 
L 876.306605 389.55415 
z
" clip-path="url(#p20c262fe62)" style="fill: #577ddf"/>
    <path d="M 887.047912 427.687159 
L 901.419702 414.218182 
L 901.528775 397.1869 
L 887.105896 410.570883 
z
" clip-path="url(#p20c262fe62)" style="fill: #324880"/>
    <path d="M 781.727579 431.332022 
L 781.727579 431.332022 
L 796.94829 417.80664 
L 796.94829 417.80664 
z
" clip-path="url(#p20c262fe62)" style="fill: #648fff"/>
    <path d="M 861.784893 419.885254 
L 887.047912 427.687159 
L 887.105896 410.570883 
L 861.751716 402.818119 
z
" clip-path="url(#p20c262fe62)" style="fill: #648fff"/>
    <path d="M 781.727579 431.332022 
L 796.94829 417.80664 
L 821.888385 425.589743 
L 806.794836 439.237875 
z
" clip-path="url(#p20c262fe62)" style="fill: #3f599f"/>
    <path d="M 781.727579 431.332022 
L 806.794836 439.237875 
L 821.888385 425.589743 
L 796.94829 417.80664 
z
" clip-path="url(#p20c262fe62)" style="fill: #577ddf"/>
    <path d="M 926.777863 421.968881 
L 926.97878 404.888597 
L 952.659719 412.66018 
L 952.365295 429.789656 
z
" clip-path="url(#p20c262fe62)" style="fill: #324880"/>
    <path d="M 912.540101 435.559838 
L 912.690907 418.394231 
L 926.97878 404.888597 
L 926.777863 421.968881 
z
" clip-path="url(#p20c262fe62)" style="fill: #648fff"/>
    <path d="M 806.794836 439.237875 
L 821.888385 425.589743 
L 821.888385 425.589743 
L 806.794836 439.237875 
z
" clip-path="url(#p20c262fe62)" style="fill: #324880"/>
    <path d="M 912.540101 435.559838 
L 926.777863 421.968881 
L 952.365295 429.789656 
L 938.264593 443.504258 
z
" clip-path="url(#p20c262fe62)" style="fill: #3f599f"/>
    <path d="M 781.727579 431.332022 
L 806.794836 439.237875 
L 806.794836 439.237875 
L 781.727579 431.332022 
z
" clip-path="url(#p20c262fe62)" style="fill: #648fff"/>
    <path d="M 912.690907 418.394231 
L 938.509917 426.28913 
L 952.659719 412.66018 
L 926.97878 404.888597 
z
" clip-path="url(#p20c262fe62)" style="fill: #577ddf"/>
    <path d="M 938.264593 443.504258 
L 952.365295 429.789656 
L 952.659719 412.66018 
L 938.509917 426.28913 
z
" clip-path="url(#p20c262fe62)" style="fill: #324880"/>
    <path d="M 847.054446 433.443364 
L 846.96759 416.290994 
L 872.454819 424.166625 
L 872.449558 441.368466 
z
" clip-path="url(#p20c262fe62)" style="fill: #324880"/>
    <path d="M 912.540101 435.559838 
L 938.264593 443.504258 
L 938.509917 426.28913 
L 912.690907 418.394231 
z
" clip-path="url(#p20c262fe62)" style="fill: #648fff"/>
    <path d="M 832.091007 447.215925 
L 831.948767 429.97775 
L 846.96759 416.290994 
L 847.054446 433.443364 
z
" clip-path="url(#p20c262fe62)" style="fill: #648fff"/>
    <path d="M 832.091007 447.215925 
L 847.054446 433.443364 
L 872.449558 441.368466 
L 857.619242 455.267164 
z
" clip-path="url(#p20c262fe62)" style="fill: #3f599f"/>
    <path d="M 831.948767 429.97775 
L 857.570088 437.979192 
L 872.454819 424.166625 
L 846.96759 416.290994 
z
" clip-path="url(#p20c262fe62)" style="fill: #577ddf"/>
    <path d="M 857.619242 455.267164 
L 872.449558 441.368466 
L 872.454819 424.166625 
L 857.570088 437.979192 
z
" clip-path="url(#p20c262fe62)" style="fill: #324880"/>
    <path d="M 832.091007 447.215925 
L 857.619242 455.267164 
L 857.570088 437.979192 
L 831.948767 429.97775 
z
" clip-path="url(#p20c262fe62)" style="fill: #648fff"/>
    <path d="M 898.076863 449.366028 
L 898.175936 432.114528 
L 924.134175 440.135703 
L 923.939559 457.437049 
z
" clip-path="url(#p20c262fe62)" style="fill: #324880"/>
    <path d="M 883.38275 463.392604 
L 883.42841 446.054649 
L 898.175936 432.114528 
L 898.076863 449.366028 
z
" clip-path="url(#p20c262fe62)" style="fill: #648fff"/>
    <path d="M 883.38275 463.392604 
L 898.076863 449.366028 
L 923.939559 457.437049 
L 909.384798 471.593277 
z
" clip-path="url(#p20c262fe62)" style="fill: #3f599f"/>
    <path d="M 883.42841 446.054649 
L 909.527038 454.205153 
L 924.134175 440.135703 
L 898.175936 432.114528 
z
" clip-path="url(#p20c262fe62)" style="fill: #577ddf"/>
    <path d="M 909.384798 471.593277 
L 923.939559 457.437049 
L 924.134175 440.135703 
L 909.527038 454.205153 
z
" clip-path="url(#p20c262fe62)" style="fill: #324880"/>
    <path d="M 883.38275 463.392604 
L 909.384798 471.593277 
L 909.527038 454.205153 
L 883.42841 446.054649 
z
" clip-path="url(#p20c262fe62)" style="fill: #648fff"/>
   </g>
   <g id="text_32">
    <!-- Imaginary Amplitude (ρ) -->
    <g transform="translate(735.696563 51.6) scale(0.21 -0.21)">
     <defs>
      <path id="DejaVuSans-49" d="M 628 4666 
L 1259 4666 
L 1259 0 
L 628 0 
L 628 4666 
z
" transform="scale(0.015625)"/>
      <path id="DejaVuSans-67" d="M 2906 1791 
Q 2906 2416 2648 2759 
Q 2391 3103 1925 3103 
Q 1463 3103 1205 2759 
Q 947 2416 947 1791 
Q 947 1169 1205 825 
Q 1463 481 1925 481 
Q 2391 481 2648 825 
Q 2906 1169 2906 1791 
z
M 3481 434 
Q 3481 -459 3084 -895 
Q 2688 -1331 1869 -1331 
Q 1566 -1331 1297 -1286 
Q 1028 -1241 775 -1147 
L 775 -588 
Q 1028 -725 1275 -790 
Q 1522 -856 1778 -856 
Q 2344 -856 2625 -561 
Q 2906 -266 2906 331 
L 2906 616 
Q 2728 306 2450 153 
Q 2172 0 1784 0 
Q 1141 0 747 490 
Q 353 981 353 1791 
Q 353 2603 747 3093 
Q 1141 3584 1784 3584 
Q 2172 3584 2450 3431 
Q 2728 3278 2906 2969 
L 2906 3500 
L 3481 3500 
L 3481 434 
z
" transform="scale(0.015625)"/>
      <path id="DejaVuSans-6e" d="M 3513 2113 
L 3513 0 
L 2938 0 
L 2938 2094 
Q 2938 2591 2744 2837 
Q 2550 3084 2163 3084 
Q 1697 3084 1428 2787 
Q 1159 2491 1159 1978 
L 1159 0 
L 581 0 
L 581 3500 
L 1159 3500 
L 1159 2956 
Q 1366 3272 1645 3428 
Q 1925 3584 2291 3584 
Q 2894 3584 3203 3211 
Q 3513 2838 3513 2113 
z
" transform="scale(0.015625)"/>
      <path id="DejaVuSans-72" d="M 2631 2963 
Q 2534 3019 2420 3045 
Q 2306 3072 2169 3072 
Q 1681 3072 1420 2755 
Q 1159 2438 1159 1844 
L 1159 0 
L 581 0 
L 581 3500 
L 1159 3500 
L 1159 2956 
Q 1341 3275 1631 3429 
Q 1922 3584 2338 3584 
Q 2397 3584 2469 3576 
Q 2541 3569 2628 3553 
L 2631 2963 
z
" transform="scale(0.015625)"/>
      <path id="DejaVuSans-79" d="M 2059 -325 
Q 1816 -950 1584 -1140 
Q 1353 -1331 966 -1331 
L 506 -1331 
L 506 -850 
L 844 -850 
Q 1081 -850 1212 -737 
Q 1344 -625 1503 -206 
L 1606 56 
L 191 3500 
L 800 3500 
L 1894 763 
L 2988 3500 
L 3597 3500 
L 2059 -325 
z
" transform="scale(0.015625)"/>
     </defs>
     <use xlink:href="#DejaVuSans-49"/>
     <use xlink:href="#DejaVuSans-6d" x="29.492188"/>
     <use xlink:href="#DejaVuSans-61" x="126.904297"/>
     <use xlink:href="#DejaVuSans-67" x="188.183594"/>
     <use xlink:href="#DejaVuSans-69" x="251.660156"/>
     <use xlink:href="#DejaVuSans-6e" x="279.443359"/>
     <use xlink:href="#DejaVuSans-61" x="342.822266"/>
     <use xlink:href="#DejaVuSans-72" x="404.101562"/>
     <use xlink:href="#DejaVuSans-79" x="445.214844"/>
     <use xlink:href="#DejaVuSans-20" x="504.394531"/>
     <use xlink:href="#DejaVuSans-41" x="536.181641"/>
     <use xlink:href="#DejaVuSans-6d" x="604.589844"/>
     <use xlink:href="#DejaVuSans-70" x="702.001953"/>
     <use xlink:href="#DejaVuSans-6c" x="765.478516"/>
     <use xlink:href="#DejaVuSans-69" x="793.261719"/>
     <use xlink:href="#DejaVuSans-74" x="821.044922"/>
     <use xlink:href="#DejaVuSans-75" x="860.253906"/>
     <use xlink:href="#DejaVuSans-64" x="923.632812"/>
     <use xlink:href="#DejaVuSans-65" x="987.109375"/>
     <use xlink:href="#DejaVuSans-20" x="1048.632812"/>
     <use xlink:href="#DejaVuSans-28" x="1080.419922"/>
     <use xlink:href="#DejaVuSans-3c1" x="1119.433594"/>
     <use xlink:href="#DejaVuSans-29" x="1182.910156"/>
    </g>
   </g>
  </g>
 </g>
 <defs>
  <clipPath id="pccb0d13b4f">
   <rect x="28.8" y="57.6" width="518.4" height="518.4"/>
  </clipPath>
  <clipPath id="p20c262fe62">
   <rect x="604.8" y="57.6" width="518.4" height="518.4"/>
  </clipPath>
 </defs>
</svg>
