<?xml version="1.0" encoding="utf-8" standalone="no"?>
<!DOCTYPE svg PUBLIC "-//W3C//DTD SVG 1.1//EN"
  "http://www.w3.org/Graphics/SVG/1.1/DTD/svg11.dtd">
<svg xmlns:xlink="http://www.w3.org/1999/xlink" width="1152pt" height="576pt" viewBox="0 0 1152 576" xmlns="http://www.w3.org/2000/svg" version="1.1">
 <metadata>
  <rdf:RDF xmlns:dc="http://purl.org/dc/elements/1.1/" xmlns:cc="http://creativecommons.org/ns#" xmlns:rdf="http://www.w3.org/1999/02/22-rdf-syntax-ns#">
   <cc:Work>
    <dc:type rdf:resource="http://purl.org/dc/dcmitype/StillImage"/>
    <dc:date>2024-11-06T14:48:45.584118</dc:date>
    <dc:format>image/svg+xml</dc:format>
    <dc:creator>
     <cc:Agent>
      <dc:title>Matplotlib v3.9.2, https://matplotlib.org/</dc:title>
     </cc:Agent>
    </dc:creator>
   </cc:Work>
  </rdf:RDF>
 </metadata>
 <defs>
  <style type="text/css">*{stroke-linejoin: round; stroke-linecap: butt}</style>
 </defs>
 <g id="figure_1">
  <g id="patch_1">
   <path d="M 0 576 
L 1152 576 
L 1152 0 
L 0 0 
z
" style="fill: #ffffff"/>
  </g>
  <g id="patch_2">
   <path d="M 28.8 576 
L 547.2 576 
L 547.2 57.6 
L 28.8 57.6 
z
" style="fill: #ffffff"/>
  </g>
  <g id="pane3d_1">
   <g id="patch_3">
    <path d="M 130.07018 436.456468 
L 253.494133 330.550231 
L 251.743197 126.70673 
L 122.643358 223.613571 
" style="fill: #f2f2f2; opacity: 0.5; stroke: #f2f2f2; stroke-linejoin: miter"/>
   </g>
  </g>
  <g id="pane3d_2">
   <g id="patch_4">
    <path d="M 253.494133 330.550231 
L 455.554898 390.069341 
L 462.583588 181.103065 
L 251.743197 126.70673 
" style="fill: #e6e6e6; opacity: 0.5; stroke: #e6e6e6; stroke-linejoin: miter"/>
   </g>
  </g>
  <g id="pane3d_3">
   <g id="patch_5">
    <path d="M 130.07018 436.456468 
L 340.912731 504.076731 
L 455.554898 390.069341 
L 253.494133 330.550231 
" style="fill: #ececec; opacity: 0.5; stroke: #ececec; stroke-linejoin: miter"/>
   </g>
  </g>
  <g id="grid3d_1">
   <g id="Line3DCollection_1">
    <path d="M 148.107564 442.241318 
L 270.817434 335.65299 
L 269.793879 131.363764 
" style="fill: none; stroke: #b0b0b0; stroke-width: 0.8"/>
    <path d="M 204.73198 460.40159 
L 325.154862 351.658648 
L 326.443642 145.979273 
" style="fill: none; stroke: #b0b0b0; stroke-width: 0.8"/>
    <path d="M 262.543747 478.942662 
L 380.560935 367.979086 
L 384.255639 160.894634 
" style="fill: none; stroke: #b0b0b0; stroke-width: 0.8"/>
    <path d="M 321.580608 497.876639 
L 437.067491 384.623682 
L 443.266006 176.119173 
" style="fill: none; stroke: #b0b0b0; stroke-width: 0.8"/>
   </g>
  </g>
  <g id="grid3d_2">
   <g id="Line3DCollection_2">
    <path d="M 134.777648 214.505149 
L 141.642324 426.526772 
L 351.684419 493.364686 
" style="fill: none; stroke: #b0b0b0; stroke-width: 0.8"/>
    <path d="M 171.455878 186.973191 
L 176.657452 396.481386 
L 384.248591 460.980823 
" style="fill: none; stroke: #b0b0b0; stroke-width: 0.8"/>
    <path d="M 206.831169 160.419264 
L 210.480196 367.459145 
L 415.662622 429.740732 
" style="fill: none; stroke: #b0b0b0; stroke-width: 0.8"/>
    <path d="M 240.971738 134.792162 
L 243.170446 339.408664 
L 445.986389 399.584868 
" style="fill: none; stroke: #b0b0b0; stroke-width: 0.8"/>
   </g>
  </g>
  <g id="grid3d_3">
   <g id="Line3DCollection_3">
    <path d="M 456.396385 365.051543 
L 253.284225 306.112782 
L 129.181964 411.001383 
" style="fill: none; stroke: #b0b0b0; stroke-width: 0.8"/>
    <path d="M 457.425478 334.456103 
L 253.027623 276.239277 
L 128.095378 379.861255 
" style="fill: none; stroke: #b0b0b0; stroke-width: 0.8"/>
    <path d="M 458.46778 303.467981 
L 252.767845 245.99603 
L 126.994458 348.310332 
" style="fill: none; stroke: #b0b0b0; stroke-width: 0.8"/>
    <path d="M 459.523545 272.079569 
L 252.504832 215.376135 
L 125.878918 316.340432 
" style="fill: none; stroke: #b0b0b0; stroke-width: 0.8"/>
    <path d="M 460.593038 240.283061 
L 252.238523 184.372511 
L 124.748465 283.943155 
" style="fill: none; stroke: #b0b0b0; stroke-width: 0.8"/>
    <path d="M 461.676526 208.070444 
L 251.968856 152.977898 
L 123.602799 251.109873 
" style="fill: none; stroke: #b0b0b0; stroke-width: 0.8"/>
   </g>
  </g>
  <g id="axis3d_1">
   <g id="line2d_1">
    <path d="M 130.07018 436.456468 
L 340.912731 504.076731 
" style="fill: none; stroke: #000000; stroke-width: 0.8; stroke-linecap: square"/>
   </g>
   <g id="xtick_1">
    <g id="line2d_2">
     <path d="M 149.15236 441.333787 
L 146.014717 444.059209 
" style="fill: none; stroke: #000000; stroke-width: 0.8; stroke-linecap: square"/>
    </g>
    <g id="text_1">
     <!-- 00 -->
     <g transform="translate(120.823877 485.959845) rotate(-45) scale(0.21 -0.21)">
      <defs>
       <path id="DejaVuSans-30" d="M 2034 4250 
Q 1547 4250 1301 3770 
Q 1056 3291 1056 2328 
Q 1056 1369 1301 889 
Q 1547 409 2034 409 
Q 2525 409 2770 889 
Q 3016 1369 3016 2328 
Q 3016 3291 2770 3770 
Q 2525 4250 2034 4250 
z
M 2034 4750 
Q 2819 4750 3233 4129 
Q 3647 3509 3647 2328 
Q 3647 1150 3233 529 
Q 2819 -91 2034 -91 
Q 1250 -91 836 529 
Q 422 1150 422 2328 
Q 422 3509 836 4129 
Q 1250 4750 2034 4750 
z
" transform="scale(0.015625)"/>
      </defs>
      <use xlink:href="#DejaVuSans-30"/>
      <use xlink:href="#DejaVuSans-30" x="63.623047"/>
     </g>
    </g>
   </g>
   <g id="xtick_2">
    <g id="line2d_3">
     <path d="M 205.757946 459.475133 
L 202.676818 462.257419 
" style="fill: none; stroke: #000000; stroke-width: 0.8; stroke-linecap: square"/>
    </g>
    <g id="text_2">
     <!-- 01 -->
     <g transform="translate(177.445975 504.27764) rotate(-45) scale(0.21 -0.21)">
      <defs>
       <path id="DejaVuSans-31" d="M 794 531 
L 1825 531 
L 1825 4091 
L 703 3866 
L 703 4441 
L 1819 4666 
L 2450 4666 
L 2450 531 
L 3481 531 
L 3481 0 
L 794 0 
L 794 531 
z
" transform="scale(0.015625)"/>
      </defs>
      <use xlink:href="#DejaVuSans-30"/>
      <use xlink:href="#DejaVuSans-31" x="63.623047"/>
     </g>
    </g>
   </g>
   <g id="xtick_3">
    <g id="line2d_4">
     <path d="M 263.54986 477.996682 
L 260.528321 480.837631 
" style="fill: none; stroke: #000000; stroke-width: 0.8; stroke-linecap: square"/>
    </g>
    <g id="text_3">
     <!-- 10 -->
     <g transform="translate(235.256492 522.9799) rotate(-45) scale(0.21 -0.21)">
      <use xlink:href="#DejaVuSans-31"/>
      <use xlink:href="#DejaVuSans-30" x="63.623047"/>
     </g>
    </g>
   </g>
   <g id="xtick_4">
    <g id="line2d_5">
     <path d="M 322.565792 496.910512 
L 319.607072 499.811999 
" style="fill: none; stroke: #000000; stroke-width: 0.8; stroke-linecap: square"/>
    </g>
    <g id="text_4">
     <!-- 11 -->
     <g transform="translate(294.293241 542.078858) rotate(-45) scale(0.21 -0.21)">
      <use xlink:href="#DejaVuSans-31"/>
      <use xlink:href="#DejaVuSans-31" x="63.623047"/>
     </g>
    </g>
   </g>
  </g>
  <g id="axis3d_2">
   <g id="line2d_6">
    <path d="M 455.554898 390.069341 
L 340.912731 504.076731 
" style="fill: none; stroke: #000000; stroke-width: 0.8; stroke-linecap: square"/>
   </g>
   <g id="xtick_5">
    <g id="line2d_7">
     <path d="M 349.939872 492.809551 
L 355.176743 494.475986 
" style="fill: none; stroke: #000000; stroke-width: 0.8; stroke-linecap: square"/>
    </g>
    <g id="text_5">
     <!-- 00 -->
     <g transform="translate(362.536948 505.408703) rotate(-337.5) scale(0.21 -0.21)">
      <use xlink:href="#DejaVuSans-30"/>
      <use xlink:href="#DejaVuSans-30" x="63.623047"/>
     </g>
    </g>
   </g>
   <g id="xtick_6">
    <g id="line2d_8">
     <path d="M 382.525541 460.445465 
L 387.697822 462.052514 
" style="fill: none; stroke: #000000; stroke-width: 0.8; stroke-linecap: square"/>
    </g>
    <g id="text_6">
     <!-- 01 -->
     <g transform="translate(394.927992 472.820772) rotate(-337.5) scale(0.21 -0.21)">
      <use xlink:href="#DejaVuSans-30"/>
      <use xlink:href="#DejaVuSans-31" x="63.623047"/>
     </g>
    </g>
   </g>
   <g id="xtick_7">
    <g id="line2d_9">
     <path d="M 413.960652 429.224112 
L 419.0696 430.774895 
" style="fill: none; stroke: #000000; stroke-width: 0.8; stroke-linecap: square"/>
    </g>
    <g id="text_7">
     <!-- 10 -->
     <g transform="translate(426.175291 441.383538) rotate(-337.5) scale(0.21 -0.21)">
      <use xlink:href="#DejaVuSans-31"/>
      <use xlink:href="#DejaVuSans-30" x="63.623047"/>
     </g>
    </g>
   </g>
   <g id="xtick_8">
    <g id="line2d_10">
     <path d="M 444.305087 399.08602 
L 449.351944 400.58344 
" style="fill: none; stroke: #000000; stroke-width: 0.8; stroke-linecap: square"/>
    </g>
    <g id="text_8">
     <!-- 11 -->
     <g transform="translate(456.338373 411.037112) rotate(-337.5) scale(0.21 -0.21)">
      <use xlink:href="#DejaVuSans-31"/>
      <use xlink:href="#DejaVuSans-31" x="63.623047"/>
     </g>
    </g>
   </g>
  </g>
  <g id="axis3d_3">
   <g id="line2d_11">
    <path d="M 455.554898 390.069341 
L 462.583588 181.103065 
" style="fill: none; stroke: #000000; stroke-width: 0.8; stroke-linecap: square"/>
   </g>
   <g id="xtick_9">
    <g id="line2d_12">
     <path d="M 454.712648 364.562959 
L 459.766811 366.029568 
" style="fill: none; stroke: #000000; stroke-width: 0.8; stroke-linecap: square"/>
    </g>
    <g id="text_9">
     <!-- 0.20 -->
     <g transform="translate(469.945336 358.781556) scale(0.21 -0.21)">
      <defs>
       <path id="DejaVuSans-2e" d="M 684 794 
L 1344 794 
L 1344 0 
L 684 0 
L 684 794 
z
" transform="scale(0.015625)"/>
       <path id="DejaVuSans-32" d="M 1228 531 
L 3431 531 
L 3431 0 
L 469 0 
L 469 531 
Q 828 903 1448 1529 
Q 2069 2156 2228 2338 
Q 2531 2678 2651 2914 
Q 2772 3150 2772 3378 
Q 2772 3750 2511 3984 
Q 2250 4219 1831 4219 
Q 1534 4219 1204 4116 
Q 875 4013 500 3803 
L 500 4441 
Q 881 4594 1212 4672 
Q 1544 4750 1819 4750 
Q 2544 4750 2975 4387 
Q 3406 4025 3406 3419 
Q 3406 3131 3298 2873 
Q 3191 2616 2906 2266 
Q 2828 2175 2409 1742 
Q 1991 1309 1228 531 
z
" transform="scale(0.015625)"/>
      </defs>
      <use xlink:href="#DejaVuSans-30"/>
      <use xlink:href="#DejaVuSans-2e" x="63.623047"/>
      <use xlink:href="#DejaVuSans-32" x="95.410156"/>
      <use xlink:href="#DejaVuSans-30" x="159.033203"/>
     </g>
    </g>
   </g>
   <g id="xtick_10">
    <g id="line2d_13">
     <path d="M 455.730706 333.973396 
L 460.818014 335.422368 
" style="fill: none; stroke: #000000; stroke-width: 0.8; stroke-linecap: square"/>
    </g>
    <g id="text_10">
     <!-- 0.22 -->
     <g transform="translate(471.059546 328.209013) scale(0.21 -0.21)">
      <use xlink:href="#DejaVuSans-30"/>
      <use xlink:href="#DejaVuSans-2e" x="63.623047"/>
      <use xlink:href="#DejaVuSans-32" x="95.410156"/>
      <use xlink:href="#DejaVuSans-32" x="159.033203"/>
     </g>
    </g>
   </g>
   <g id="xtick_11">
    <g id="line2d_14">
     <path d="M 456.761827 302.991343 
L 461.882716 304.422104 
" style="fill: none; stroke: #000000; stroke-width: 0.8; stroke-linecap: square"/>
    </g>
    <g id="text_11">
     <!-- 0.24 -->
     <g transform="translate(472.188041 297.244534) scale(0.21 -0.21)">
      <defs>
       <path id="DejaVuSans-34" d="M 2419 4116 
L 825 1625 
L 2419 1625 
L 2419 4116 
z
M 2253 4666 
L 3047 4666 
L 3047 1625 
L 3713 1625 
L 3713 1100 
L 3047 1100 
L 3047 0 
L 2419 0 
L 2419 1100 
L 313 1100 
L 313 1709 
L 2253 4666 
z
" transform="scale(0.015625)"/>
      </defs>
      <use xlink:href="#DejaVuSans-30"/>
      <use xlink:href="#DejaVuSans-2e" x="63.623047"/>
      <use xlink:href="#DejaVuSans-32" x="95.410156"/>
      <use xlink:href="#DejaVuSans-34" x="159.033203"/>
     </g>
    </g>
   </g>
   <g id="xtick_12">
    <g id="line2d_15">
     <path d="M 457.806263 271.609197 
L 462.96118 273.021154 
" style="fill: none; stroke: #000000; stroke-width: 0.8; stroke-linecap: square"/>
    </g>
    <g id="text_12">
     <!-- 0.26 -->
     <g transform="translate(473.331096 265.880534) scale(0.21 -0.21)">
      <defs>
       <path id="DejaVuSans-36" d="M 2113 2584 
Q 1688 2584 1439 2293 
Q 1191 2003 1191 1497 
Q 1191 994 1439 701 
Q 1688 409 2113 409 
Q 2538 409 2786 701 
Q 3034 994 3034 1497 
Q 3034 2003 2786 2293 
Q 2538 2584 2113 2584 
z
M 3366 4563 
L 3366 3988 
Q 3128 4100 2886 4159 
Q 2644 4219 2406 4219 
Q 1781 4219 1451 3797 
Q 1122 3375 1075 2522 
Q 1259 2794 1537 2939 
Q 1816 3084 2150 3084 
Q 2853 3084 3261 2657 
Q 3669 2231 3669 1497 
Q 3669 778 3244 343 
Q 2819 -91 2113 -91 
Q 1303 -91 875 529 
Q 447 1150 447 2328 
Q 447 3434 972 4092 
Q 1497 4750 2381 4750 
Q 2619 4750 2861 4703 
Q 3103 4656 3366 4563 
z
" transform="scale(0.015625)"/>
      </defs>
      <use xlink:href="#DejaVuSans-30"/>
      <use xlink:href="#DejaVuSans-2e" x="63.623047"/>
      <use xlink:href="#DejaVuSans-32" x="95.410156"/>
      <use xlink:href="#DejaVuSans-36" x="159.033203"/>
     </g>
    </g>
   </g>
   <g id="xtick_13">
    <g id="line2d_16">
     <path d="M 458.864274 239.819158 
L 464.053675 241.2117 
" style="fill: none; stroke: #000000; stroke-width: 0.8; stroke-linecap: square"/>
    </g>
    <g id="text_13">
     <!-- 0.28 -->
     <g transform="translate(474.488995 234.10923) scale(0.21 -0.21)">
      <defs>
       <path id="DejaVuSans-38" d="M 2034 2216 
Q 1584 2216 1326 1975 
Q 1069 1734 1069 1313 
Q 1069 891 1326 650 
Q 1584 409 2034 409 
Q 2484 409 2743 651 
Q 3003 894 3003 1313 
Q 3003 1734 2745 1975 
Q 2488 2216 2034 2216 
z
M 1403 2484 
Q 997 2584 770 2862 
Q 544 3141 544 3541 
Q 544 4100 942 4425 
Q 1341 4750 2034 4750 
Q 2731 4750 3128 4425 
Q 3525 4100 3525 3541 
Q 3525 3141 3298 2862 
Q 3072 2584 2669 2484 
Q 3125 2378 3379 2068 
Q 3634 1759 3634 1313 
Q 3634 634 3220 271 
Q 2806 -91 2034 -91 
Q 1263 -91 848 271 
Q 434 634 434 1313 
Q 434 1759 690 2068 
Q 947 2378 1403 2484 
z
M 1172 3481 
Q 1172 3119 1398 2916 
Q 1625 2713 2034 2713 
Q 2441 2713 2670 2916 
Q 2900 3119 2900 3481 
Q 2900 3844 2670 4047 
Q 2441 4250 2034 4250 
Q 1625 4250 1398 4047 
Q 1172 3844 1172 3481 
z
" transform="scale(0.015625)"/>
      </defs>
      <use xlink:href="#DejaVuSans-30"/>
      <use xlink:href="#DejaVuSans-2e" x="63.623047"/>
      <use xlink:href="#DejaVuSans-32" x="95.410156"/>
      <use xlink:href="#DejaVuSans-38" x="159.033203"/>
     </g>
    </g>
   </g>
   <g id="xtick_14">
    <g id="line2d_17">
     <path d="M 459.936127 207.613222 
L 465.160475 208.985717 
" style="fill: none; stroke: #000000; stroke-width: 0.8; stroke-linecap: square"/>
    </g>
    <g id="text_14">
     <!-- 0.30 -->
     <g transform="translate(475.662029 201.922637) scale(0.21 -0.21)">
      <defs>
       <path id="DejaVuSans-33" d="M 2597 2516 
Q 3050 2419 3304 2112 
Q 3559 1806 3559 1356 
Q 3559 666 3084 287 
Q 2609 -91 1734 -91 
Q 1441 -91 1130 -33 
Q 819 25 488 141 
L 488 750 
Q 750 597 1062 519 
Q 1375 441 1716 441 
Q 2309 441 2620 675 
Q 2931 909 2931 1356 
Q 2931 1769 2642 2001 
Q 2353 2234 1838 2234 
L 1294 2234 
L 1294 2753 
L 1863 2753 
Q 2328 2753 2575 2939 
Q 2822 3125 2822 3475 
Q 2822 3834 2567 4026 
Q 2313 4219 1838 4219 
Q 1578 4219 1281 4162 
Q 984 4106 628 3988 
L 628 4550 
Q 988 4650 1302 4700 
Q 1616 4750 1894 4750 
Q 2613 4750 3031 4423 
Q 3450 4097 3450 3541 
Q 3450 3153 3228 2886 
Q 3006 2619 2597 2516 
z
" transform="scale(0.015625)"/>
      </defs>
      <use xlink:href="#DejaVuSans-30"/>
      <use xlink:href="#DejaVuSans-2e" x="63.623047"/>
      <use xlink:href="#DejaVuSans-33" x="95.410156"/>
      <use xlink:href="#DejaVuSans-30" x="159.033203"/>
     </g>
    </g>
   </g>
  </g>
  <g id="axes_1">
   <g id="Poly3DCollection_1">
    <path d="M 242.01472 604.468781 
L 257.191757 589.35965 
L 282.697921 598.053651 
L 267.654831 613.302118 
z
" clip-path="url(#pd0b513874c)" style="fill: #3f599f"/>
    <path d="M 293.532891 622.21743 
L 308.438903 606.827691 
L 334.417962 615.682881 
L 319.652228 631.215865 
z
" clip-path="url(#pd0b513874c)" style="fill: #3f599f"/>
    <path d="M 210.923773 635.420619 
L 226.59403 619.820475 
L 252.369115 628.796524 
L 236.834854 644.542868 
z
" clip-path="url(#pd0b513874c)" style="fill: #3f599f"/>
    <path d="M 346.01623 640.298591 
L 360.638414 624.620353 
L 387.10364 633.641259 
L 372.628354 649.466798 
z
" clip-path="url(#pd0b513874c)" style="fill: #3f599f"/>
    <path d="M 262.990327 653.751156 
L 278.385339 637.856548 
L 304.646102 647.001732 
L 289.393666 663.046708 
z
" clip-path="url(#pd0b513874c)" style="fill: #3f599f"/>
    <path d="M 257.191757 589.35965 
L 254.845257 305.527955 
L 281.930471 313.382447 
L 282.697921 598.053651 
z
" clip-path="url(#pd0b513874c)" style="fill: #324880"/>
    <path d="M 399.492116 658.721697 
L 413.817085 642.746771 
L 440.782256 651.938087 
L 426.611105 668.064525 
z
" clip-path="url(#pd0b513874c)" style="fill: #3f599f"/>
    <path d="M 242.01472 604.468781 
L 238.698595 319.180987 
L 254.845257 305.527955 
L 257.191757 589.35965 
z
" clip-path="url(#pd0b513874c)" style="fill: #648fff"/>
    <path d="M 178.809923 667.390783 
L 194.99784 651.275295 
L 221.045937 660.547344 
L 204.996051 676.816353 
z
" clip-path="url(#pd0b513874c)" style="fill: #3f599f"/>
    <path d="M 267.654831 613.302118 
L 282.697921 598.053651 
L 281.930471 313.382447 
L 265.934846 327.169291 
z
" clip-path="url(#pd0b513874c)" style="fill: #324880"/>
    <path d="M 242.01472 604.468781 
L 267.654831 613.302118 
L 265.934846 327.169291 
L 238.698595 319.180987 
z
" clip-path="url(#pd0b513874c)" style="fill: #648fff"/>
    <path d="M 316.04841 672.43077 
L 331.154868 656.233282 
L 357.915167 665.552427 
L 342.958168 681.904612 
z
" clip-path="url(#pd0b513874c)" style="fill: #3f599f"/>
    <path d="M 308.438903 606.827691 
L 309.280666 321.313782 
L 336.899748 329.323092 
L 334.417962 615.682881 
z
" clip-path="url(#pd0b513874c)" style="fill: #324880"/>
    <path d="M 293.532891 622.21743 
L 293.439833 335.236414 
L 309.280666 321.313782 
L 308.438903 606.827691 
z
" clip-path="url(#pd0b513874c)" style="fill: #648fff"/>
    <path d="M 231.433267 686.3323 
L 247.341742 669.907566 
L 273.888805 679.357226 
L 258.1252 695.939931 
z
" clip-path="url(#pd0b513874c)" style="fill: #3f599f"/>
    <path d="M 319.652228 631.215865 
L 334.417962 615.682881 
L 336.899748 329.323092 
L 321.217552 343.383528 
z
" clip-path="url(#pd0b513874c)" style="fill: #324880"/>
    <path d="M 226.59403 619.820475 
L 222.276353 333.067039 
L 249.664869 341.192603 
L 252.369115 628.796524 
z
" clip-path="url(#pd0b513874c)" style="fill: #324880"/>
    <path d="M 293.532891 622.21743 
L 319.652228 631.215865 
L 321.217552 343.383528 
L 293.439833 335.236414 
z
" clip-path="url(#pd0b513874c)" style="fill: #648fff"/>
    <path d="M 370.126617 691.469529 
L 384.930597 674.96042 
L 412.204822 684.458537 
L 397.557506 701.126839 
z
" clip-path="url(#pd0b513874c)" style="fill: #3f599f"/>
    <path d="M 210.923773 635.420619 
L 205.571417 347.192127 
L 222.276353 333.067039 
L 226.59403 619.820475 
z
" clip-path="url(#pd0b513874c)" style="fill: #648fff"/>
    <path d="M 145.621845 700.430368 
L 162.353503 683.773572 
L 188.678671 693.356507 
L 172.087054 710.174643 
z
" clip-path="url(#pd0b513874c)" style="fill: #3f599f"/>
    <path d="M 236.834854 644.542868 
L 252.369115 628.796524 
L 249.664869 341.192603 
L 233.113419 355.45852 
z
" clip-path="url(#pd0b513874c)" style="fill: #324880"/>
    <path d="M 285.075548 705.640578 
L 300.690743 688.89761 
L 327.751246 698.530033 
L 312.288083 715.435597 
z
" clip-path="url(#pd0b513874c)" style="fill: #3f599f"/>
    <path d="M 210.923773 635.420619 
L 236.834854 644.542868 
L 233.113419 355.45852 
L 205.571417 347.192127 
z
" clip-path="url(#pd0b513874c)" style="fill: #648fff"/>
    <path d="M 278.385339 637.856548 
L 277.325951 349.399032 
L 305.263688 357.687539 
L 304.646102 647.001732 
z
" clip-path="url(#pd0b513874c)" style="fill: #324880"/>
    <path d="M 262.990327 653.751156 
L 260.931897 363.807895 
L 277.325951 349.399032 
L 278.385339 637.856548 
z
" clip-path="url(#pd0b513874c)" style="fill: #648fff"/>
    <path d="M 194.99784 651.275295 
L 189.214827 390.365128 
L 216.747761 398.869564 
L 221.045937 660.547344 
z
" clip-path="url(#pd0b513874c)" style="fill: #324880"/>
    <path d="M 198.810312 720.01393 
L 215.258374 703.032099 
L 242.09632 712.801696 
L 225.795412 729.949624 
z
" clip-path="url(#pd0b513874c)" style="fill: #3f599f"/>
    <path d="M 178.809923 667.390783 
L 172.032343 405.149436 
L 189.214827 390.365128 
L 194.99784 651.275295 
z
" clip-path="url(#pd0b513874c)" style="fill: #648fff"/>
    <path d="M 289.393666 663.046708 
L 304.646102 647.001732 
L 305.263688 357.687539 
L 289.031035 372.241506 
z
" clip-path="url(#pd0b513874c)" style="fill: #324880"/>
    <path d="M 238.698595 319.180987 
L 265.934846 327.169291 
L 281.930471 313.382447 
L 254.845257 305.527955 
z
" clip-path="url(#pd0b513874c)" style="fill: #577ddf"/>
    <path d="M 339.766649 725.326374 
L 355.074073 708.255833 
L 382.663056 718.076373 
L 367.515166 735.314317 
z
" clip-path="url(#pd0b513874c)" style="fill: #3f599f"/>
    <path d="M 262.990327 653.751156 
L 289.393666 663.046708 
L 289.031035 372.241506 
L 260.931897 363.807895 
z
" clip-path="url(#pd0b513874c)" style="fill: #648fff"/>
    <path d="M 204.996051 676.816353 
L 221.045937 660.547344 
L 216.747761 398.869564 
L 199.719366 413.802952 
z
" clip-path="url(#pd0b513874c)" style="fill: #324880"/>
    <path d="M 360.638414 624.620353 
L 367.371214 159.032972 
L 396.599956 166.586764 
L 387.10364 633.641259 
z
" clip-path="url(#pd0b513874c)" style="fill: #324880"/>
    <path d="M 178.809923 667.390783 
L 204.996051 676.816353 
L 199.719366 413.802952 
L 172.032343 405.149436 
z
" clip-path="url(#pd0b513874c)" style="fill: #648fff"/>
    <path d="M 346.01623 640.298591 
L 351.295894 172.166025 
L 367.371214 159.032972 
L 360.638414 624.620353 
z
" clip-path="url(#pd0b513874c)" style="fill: #648fff"/>
    <path d="M 247.341742 669.907566 
L 244.557814 407.459596 
L 272.649193 416.136525 
L 273.888805 679.357226 
z
" clip-path="url(#pd0b513874c)" style="fill: #324880"/>
    <path d="M 253.046222 739.983151 
L 269.196293 722.666677 
L 296.562148 732.628445 
L 280.566685 750.115962 
z
" clip-path="url(#pd0b513874c)" style="fill: #3f599f"/>
    <path d="M 231.433267 686.3323 
L 227.68751 422.544332 
L 244.557814 407.459596 
L 247.341742 669.907566 
z
" clip-path="url(#pd0b513874c)" style="fill: #648fff"/>
    <path d="M 293.439833 335.236414 
L 321.217552 343.383528 
L 336.899748 329.323092 
L 309.280666 321.313782 
z
" clip-path="url(#pd0b513874c)" style="fill: #577ddf"/>
    <path d="M 372.628354 649.466798 
L 387.10364 633.641259 
L 396.599956 166.586764 
L 380.704133 179.856019 
z
" clip-path="url(#pd0b513874c)" style="fill: #324880"/>
    <path d="M 346.01623 640.298591 
L 372.628354 649.466798 
L 380.704133 179.856019 
L 351.295894 172.166025 
z
" clip-path="url(#pd0b513874c)" style="fill: #648fff"/>
    <path d="M 258.1252 695.939931 
L 273.888805 679.357226 
L 272.649193 416.136525 
L 255.94108 431.374921 
z
" clip-path="url(#pd0b513874c)" style="fill: #324880"/>
    <path d="M 162.353503 683.773572 
L 154.54809 420.193393 
L 182.390385 428.999946 
L 188.678671 693.356507 
z
" clip-path="url(#pd0b513874c)" style="fill: #324880"/>
    <path d="M 413.817085 642.746771 
L 426.131247 174.218746 
L 455.969811 181.930138 
L 440.782256 651.938087 
z
" clip-path="url(#pd0b513874c)" style="fill: #324880"/>
    <path d="M 231.433267 686.3323 
L 258.1252 695.939931 
L 255.94108 431.374921 
L 227.68751 422.544332 
z
" clip-path="url(#pd0b513874c)" style="fill: #648fff"/>
    <path d="M 145.621845 700.430368 
L 136.754048 435.503902 
L 154.54809 420.193393 
L 162.353503 683.773572 
z
" clip-path="url(#pd0b513874c)" style="fill: #648fff"/>
    <path d="M 399.492116 658.721697 
L 410.419533 187.626332 
L 426.131247 174.218746 
L 413.817085 642.746771 
z
" clip-path="url(#pd0b513874c)" style="fill: #648fff"/>
    <path d="M 205.571417 347.192127 
L 233.113419 355.45852 
L 249.664869 341.192603 
L 222.276353 333.067039 
z
" clip-path="url(#pd0b513874c)" style="fill: #577ddf"/>
    <path d="M 308.360823 760.349538 
L 324.197817 742.688431 
L 352.107311 752.848095 
L 336.43274 770.685389 
z
" clip-path="url(#pd0b513874c)" style="fill: #3f599f"/>
    <path d="M 300.690743 688.89761 
L 301.063264 395.722402 
L 329.907884 404.481916 
L 327.751246 698.530033 
z
" clip-path="url(#pd0b513874c)" style="fill: #324880"/>
    <path d="M 172.087054 710.174643 
L 188.678671 693.356507 
L 182.390385 428.999946 
L 164.752787 444.467586 
z
" clip-path="url(#pd0b513874c)" style="fill: #324880"/>
    <path d="M 426.611105 668.064525 
L 440.782256 651.938087 
L 455.969811 181.930138 
L 440.446932 195.47823 
z
" clip-path="url(#pd0b513874c)" style="fill: #324880"/>
    <path d="M 285.075548 705.640578 
L 284.419098 410.951643 
L 301.063264 395.722402 
L 300.690743 688.89761 
z
" clip-path="url(#pd0b513874c)" style="fill: #648fff"/>
    <path d="M 331.154868 656.233282 
L 334.930164 185.536334 
L 364.519638 193.366246 
L 357.915167 665.552427 
z
" clip-path="url(#pd0b513874c)" style="fill: #324880"/>
    <path d="M 145.621845 700.430368 
L 172.087054 710.174643 
L 164.752787 444.467586 
L 136.754048 435.503902 
z
" clip-path="url(#pd0b513874c)" style="fill: #648fff"/>
    <path d="M 399.492116 658.721697 
L 426.611105 668.064525 
L 440.446932 195.47823 
L 410.419533 187.626332 
z
" clip-path="url(#pd0b513874c)" style="fill: #648fff"/>
    <path d="M 316.04841 672.43077 
L 318.266084 199.150387 
L 334.930164 185.536334 
L 331.154868 656.233282 
z
" clip-path="url(#pd0b513874c)" style="fill: #648fff"/>
    <path d="M 215.258374 703.032099 
L 210.517886 437.896709 
L 238.934997 446.885076 
L 242.09632 712.801696 
z
" clip-path="url(#pd0b513874c)" style="fill: #324880"/>
    <path d="M 198.810312 720.01393 
L 193.040902 453.523913 
L 210.517886 437.896709 
L 215.258374 703.032099 
z
" clip-path="url(#pd0b513874c)" style="fill: #648fff"/>
    <path d="M 312.288083 715.435597 
L 327.751246 698.530033 
L 329.907884 404.481916 
L 313.436545 419.868862 
z
" clip-path="url(#pd0b513874c)" style="fill: #324880"/>
    <path d="M 260.931897 363.807895 
L 289.031035 372.241506 
L 305.263688 357.687539 
L 277.325951 349.399032 
z
" clip-path="url(#pd0b513874c)" style="fill: #577ddf"/>
    <path d="M 285.075548 705.640578 
L 312.288083 715.435597 
L 313.436545 419.868862 
L 284.419098 410.951643 
z
" clip-path="url(#pd0b513874c)" style="fill: #648fff"/>
    <path d="M 342.958168 681.904612 
L 357.915167 665.552427 
L 364.519638 193.366246 
L 348.038535 207.124071 
z
" clip-path="url(#pd0b513874c)" style="fill: #324880"/>
    <path d="M 172.032343 405.149436 
L 199.719366 413.802952 
L 216.747761 398.869564 
L 189.214827 390.365128 
z
" clip-path="url(#pd0b513874c)" style="fill: #577ddf"/>
    <path d="M 355.074073 708.255833 
L 359.050634 413.331965 
L 388.49616 422.273962 
L 382.663056 718.076373 
z
" clip-path="url(#pd0b513874c)" style="fill: #324880"/>
    <path d="M 316.04841 672.43077 
L 342.958168 681.904612 
L 348.038535 207.124071 
L 318.266084 199.150387 
z
" clip-path="url(#pd0b513874c)" style="fill: #648fff"/>
    <path d="M 225.795412 729.949624 
L 242.09632 712.801696 
L 238.934997 446.885076 
L 221.622903 462.674325 
z
" clip-path="url(#pd0b513874c)" style="fill: #324880"/>
    <path d="M 339.766649 725.326374 
L 342.756618 428.87908 
L 359.050634 413.331965 
L 355.074073 708.255833 
z
" clip-path="url(#pd0b513874c)" style="fill: #648fff"/>
    <path d="M 384.930597 674.96042 
L 394.420987 201.278686 
L 424.639168 209.274966 
L 412.204822 684.458537 
z
" clip-path="url(#pd0b513874c)" style="fill: #324880"/>
    <path d="M 198.810312 720.01393 
L 225.795412 729.949624 
L 221.622903 462.674325 
L 193.040902 453.523913 
z
" clip-path="url(#pd0b513874c)" style="fill: #648fff"/>
    <path d="M 370.126617 691.469529 
L 378.127681 215.182573 
L 394.420987 201.278686 
L 384.930597 674.96042 
z
" clip-path="url(#pd0b513874c)" style="fill: #648fff"/>
    <path d="M 367.515166 735.314317 
L 382.663056 718.076373 
L 388.49616 422.273962 
L 372.384074 437.983759 
z
" clip-path="url(#pd0b513874c)" style="fill: #324880"/>
    <path d="M 269.196293 722.666677 
L 267.474697 426.455596 
L 296.666534 435.534819 
L 296.562148 732.628445 
z
" clip-path="url(#pd0b513874c)" style="fill: #324880"/>
    <path d="M 339.766649 725.326374 
L 367.515166 735.314317 
L 372.384074 437.983759 
L 342.756618 428.87908 
z
" clip-path="url(#pd0b513874c)" style="fill: #648fff"/>
    <path d="M 397.557506 701.126839 
L 412.204822 684.458537 
L 424.639168 209.274966 
L 408.538601 223.327253 
z
" clip-path="url(#pd0b513874c)" style="fill: #324880"/>
    <path d="M 253.046222 739.983151 
L 250.221862 442.241763 
L 267.474697 426.455596 
L 269.196293 722.666677 
z
" clip-path="url(#pd0b513874c)" style="fill: #648fff"/>
    <path d="M 227.68751 422.544332 
L 255.94108 431.374921 
L 272.649193 416.136525 
L 244.557814 407.459596 
z
" clip-path="url(#pd0b513874c)" style="fill: #577ddf"/>
    <path d="M 370.126617 691.469529 
L 397.557506 701.126839 
L 408.538601 223.327253 
L 378.127681 215.182573 
z
" clip-path="url(#pd0b513874c)" style="fill: #648fff"/>
    <path d="M 280.566685 750.115962 
L 296.562148 732.628445 
L 296.666534 435.534819 
L 279.589651 451.487444 
z
" clip-path="url(#pd0b513874c)" style="fill: #324880"/>
    <path d="M 253.046222 739.983151 
L 280.566685 750.115962 
L 279.589651 451.487444 
L 250.221862 442.241763 
z
" clip-path="url(#pd0b513874c)" style="fill: #648fff"/>
    <path d="M 136.754048 435.503902 
L 164.752787 444.467586 
L 182.390385 428.999946 
L 154.54809 420.193393 
z
" clip-path="url(#pd0b513874c)" style="fill: #577ddf"/>
    <path d="M 324.197817 742.688431 
L 326.165589 444.709593 
L 355.976739 453.981434 
L 352.107311 752.848095 
z
" clip-path="url(#pd0b513874c)" style="fill: #324880"/>
    <path d="M 308.360823 760.349538 
L 309.269352 460.831323 
L 326.165589 444.709593 
L 324.197817 742.688431 
z
" clip-path="url(#pd0b513874c)" style="fill: #648fff"/>
    <path d="M 336.43274 770.685389 
L 352.107311 752.848095 
L 355.976739 453.981434 
L 339.265962 470.274973 
z
" clip-path="url(#pd0b513874c)" style="fill: #324880"/>
    <path d="M 284.419098 410.951643 
L 313.436545 419.868862 
L 329.907884 404.481916 
L 301.063264 395.722402 
z
" clip-path="url(#pd0b513874c)" style="fill: #577ddf"/>
    <path d="M 308.360823 760.349538 
L 336.43274 770.685389 
L 339.265962 470.274973 
L 309.269352 460.831323 
z
" clip-path="url(#pd0b513874c)" style="fill: #648fff"/>
    <path d="M 193.040902 453.523913 
L 221.622903 462.674325 
L 238.934997 446.885076 
L 210.517886 437.896709 
z
" clip-path="url(#pd0b513874c)" style="fill: #577ddf"/>
    <path d="M 351.295894 172.166025 
L 380.704133 179.856019 
L 396.599956 166.586764 
L 367.371214 159.032972 
z
" clip-path="url(#pd0b513874c)" style="fill: #577ddf"/>
    <path d="M 342.756618 428.87908 
L 372.384074 437.983759 
L 388.49616 422.273962 
L 359.050634 413.331965 
z
" clip-path="url(#pd0b513874c)" style="fill: #577ddf"/>
    <path d="M 410.419533 187.626332 
L 440.446932 195.47823 
L 455.969811 181.930138 
L 426.131247 174.218746 
z
" clip-path="url(#pd0b513874c)" style="fill: #577ddf"/>
    <path d="M 250.221862 442.241763 
L 279.589651 451.487444 
L 296.666534 435.534819 
L 267.474697 426.455596 
z
" clip-path="url(#pd0b513874c)" style="fill: #577ddf"/>
    <path d="M 318.266084 199.150387 
L 348.038535 207.124071 
L 364.519638 193.366246 
L 334.930164 185.536334 
z
" clip-path="url(#pd0b513874c)" style="fill: #577ddf"/>
    <path d="M 309.269352 460.831323 
L 339.265962 470.274973 
L 355.976739 453.981434 
L 326.165589 444.709593 
z
" clip-path="url(#pd0b513874c)" style="fill: #577ddf"/>
    <path d="M 378.127681 215.182573 
L 408.538601 223.327253 
L 424.639168 209.274966 
L 394.420987 201.278686 
z
" clip-path="url(#pd0b513874c)" style="fill: #577ddf"/>
   </g>
   <g id="text_15">
    <!-- Real Amplitude (ρ) -->
    <g transform="translate(190.023516 51.6) scale(0.21 -0.21)">
     <defs>
      <path id="DejaVuSans-52" d="M 2841 2188 
Q 3044 2119 3236 1894 
Q 3428 1669 3622 1275 
L 4263 0 
L 3584 0 
L 2988 1197 
Q 2756 1666 2539 1819 
Q 2322 1972 1947 1972 
L 1259 1972 
L 1259 0 
L 628 0 
L 628 4666 
L 2053 4666 
Q 2853 4666 3247 4331 
Q 3641 3997 3641 3322 
Q 3641 2881 3436 2590 
Q 3231 2300 2841 2188 
z
M 1259 4147 
L 1259 2491 
L 2053 2491 
Q 2509 2491 2742 2702 
Q 2975 2913 2975 3322 
Q 2975 3731 2742 3939 
Q 2509 4147 2053 4147 
L 1259 4147 
z
" transform="scale(0.015625)"/>
      <path id="DejaVuSans-65" d="M 3597 1894 
L 3597 1613 
L 953 1613 
Q 991 1019 1311 708 
Q 1631 397 2203 397 
Q 2534 397 2845 478 
Q 3156 559 3463 722 
L 3463 178 
Q 3153 47 2828 -22 
Q 2503 -91 2169 -91 
Q 1331 -91 842 396 
Q 353 884 353 1716 
Q 353 2575 817 3079 
Q 1281 3584 2069 3584 
Q 2775 3584 3186 3129 
Q 3597 2675 3597 1894 
z
M 3022 2063 
Q 3016 2534 2758 2815 
Q 2500 3097 2075 3097 
Q 1594 3097 1305 2825 
Q 1016 2553 972 2059 
L 3022 2063 
z
" transform="scale(0.015625)"/>
      <path id="DejaVuSans-61" d="M 2194 1759 
Q 1497 1759 1228 1600 
Q 959 1441 959 1056 
Q 959 750 1161 570 
Q 1363 391 1709 391 
Q 2188 391 2477 730 
Q 2766 1069 2766 1631 
L 2766 1759 
L 2194 1759 
z
M 3341 1997 
L 3341 0 
L 2766 0 
L 2766 531 
Q 2569 213 2275 61 
Q 1981 -91 1556 -91 
Q 1019 -91 701 211 
Q 384 513 384 1019 
Q 384 1609 779 1909 
Q 1175 2209 1959 2209 
L 2766 2209 
L 2766 2266 
Q 2766 2663 2505 2880 
Q 2244 3097 1772 3097 
Q 1472 3097 1187 3025 
Q 903 2953 641 2809 
L 641 3341 
Q 956 3463 1253 3523 
Q 1550 3584 1831 3584 
Q 2591 3584 2966 3190 
Q 3341 2797 3341 1997 
z
" transform="scale(0.015625)"/>
      <path id="DejaVuSans-6c" d="M 603 4863 
L 1178 4863 
L 1178 0 
L 603 0 
L 603 4863 
z
" transform="scale(0.015625)"/>
      <path id="DejaVuSans-20" transform="scale(0.015625)"/>
      <path id="DejaVuSans-41" d="M 2188 4044 
L 1331 1722 
L 3047 1722 
L 2188 4044 
z
M 1831 4666 
L 2547 4666 
L 4325 0 
L 3669 0 
L 3244 1197 
L 1141 1197 
L 716 0 
L 50 0 
L 1831 4666 
z
" transform="scale(0.015625)"/>
      <path id="DejaVuSans-6d" d="M 3328 2828 
Q 3544 3216 3844 3400 
Q 4144 3584 4550 3584 
Q 5097 3584 5394 3201 
Q 5691 2819 5691 2113 
L 5691 0 
L 5113 0 
L 5113 2094 
Q 5113 2597 4934 2840 
Q 4756 3084 4391 3084 
Q 3944 3084 3684 2787 
Q 3425 2491 3425 1978 
L 3425 0 
L 2847 0 
L 2847 2094 
Q 2847 2600 2669 2842 
Q 2491 3084 2119 3084 
Q 1678 3084 1418 2786 
Q 1159 2488 1159 1978 
L 1159 0 
L 581 0 
L 581 3500 
L 1159 3500 
L 1159 2956 
Q 1356 3278 1631 3431 
Q 1906 3584 2284 3584 
Q 2666 3584 2933 3390 
Q 3200 3197 3328 2828 
z
" transform="scale(0.015625)"/>
      <path id="DejaVuSans-70" d="M 1159 525 
L 1159 -1331 
L 581 -1331 
L 581 3500 
L 1159 3500 
L 1159 2969 
Q 1341 3281 1617 3432 
Q 1894 3584 2278 3584 
Q 2916 3584 3314 3078 
Q 3713 2572 3713 1747 
Q 3713 922 3314 415 
Q 2916 -91 2278 -91 
Q 1894 -91 1617 61 
Q 1341 213 1159 525 
z
M 3116 1747 
Q 3116 2381 2855 2742 
Q 2594 3103 2138 3103 
Q 1681 3103 1420 2742 
Q 1159 2381 1159 1747 
Q 1159 1113 1420 752 
Q 1681 391 2138 391 
Q 2594 391 2855 752 
Q 3116 1113 3116 1747 
z
" transform="scale(0.015625)"/>
      <path id="DejaVuSans-69" d="M 603 3500 
L 1178 3500 
L 1178 0 
L 603 0 
L 603 3500 
z
M 603 4863 
L 1178 4863 
L 1178 4134 
L 603 4134 
L 603 4863 
z
" transform="scale(0.015625)"/>
      <path id="DejaVuSans-74" d="M 1172 4494 
L 1172 3500 
L 2356 3500 
L 2356 3053 
L 1172 3053 
L 1172 1153 
Q 1172 725 1289 603 
Q 1406 481 1766 481 
L 2356 481 
L 2356 0 
L 1766 0 
Q 1100 0 847 248 
Q 594 497 594 1153 
L 594 3053 
L 172 3053 
L 172 3500 
L 594 3500 
L 594 4494 
L 1172 4494 
z
" transform="scale(0.015625)"/>
      <path id="DejaVuSans-75" d="M 544 1381 
L 544 3500 
L 1119 3500 
L 1119 1403 
Q 1119 906 1312 657 
Q 1506 409 1894 409 
Q 2359 409 2629 706 
Q 2900 1003 2900 1516 
L 2900 3500 
L 3475 3500 
L 3475 0 
L 2900 0 
L 2900 538 
Q 2691 219 2414 64 
Q 2138 -91 1772 -91 
Q 1169 -91 856 284 
Q 544 659 544 1381 
z
M 1991 3584 
L 1991 3584 
z
" transform="scale(0.015625)"/>
      <path id="DejaVuSans-64" d="M 2906 2969 
L 2906 4863 
L 3481 4863 
L 3481 0 
L 2906 0 
L 2906 525 
Q 2725 213 2448 61 
Q 2172 -91 1784 -91 
Q 1150 -91 751 415 
Q 353 922 353 1747 
Q 353 2572 751 3078 
Q 1150 3584 1784 3584 
Q 2172 3584 2448 3432 
Q 2725 3281 2906 2969 
z
M 947 1747 
Q 947 1113 1208 752 
Q 1469 391 1925 391 
Q 2381 391 2643 752 
Q 2906 1113 2906 1747 
Q 2906 2381 2643 2742 
Q 2381 3103 1925 3103 
Q 1469 3103 1208 2742 
Q 947 2381 947 1747 
z
" transform="scale(0.015625)"/>
      <path id="DejaVuSans-28" d="M 1984 4856 
Q 1566 4138 1362 3434 
Q 1159 2731 1159 2009 
Q 1159 1288 1364 580 
Q 1569 -128 1984 -844 
L 1484 -844 
Q 1016 -109 783 600 
Q 550 1309 550 2009 
Q 550 2706 781 3412 
Q 1013 4119 1484 4856 
L 1984 4856 
z
" transform="scale(0.015625)"/>
      <path id="DejaVuSans-3c1" d="M 863 2875 
Q 1053 3194 1525 3475 
Q 1709 3584 2278 3584 
Q 2916 3584 3314 3078 
Q 3713 2572 3713 1747 
Q 3713 922 3314 415 
Q 2916 -91 2278 -91 
Q 1894 -91 1617 61 
Q 1341 213 1159 525 
L 1159 -1331 
L 581 -1331 
L 581 1716 
Q 581 2438 863 2875 
z
M 3116 1747 
Q 3116 2381 2855 2742 
Q 2594 3103 2138 3103 
Q 1681 3103 1420 2742 
Q 1159 2381 1159 1747 
Q 1159 1113 1420 752 
Q 1681 391 2138 391 
Q 2594 391 2855 752 
Q 3116 1113 3116 1747 
z
" transform="scale(0.015625)"/>
      <path id="DejaVuSans-29" d="M 513 4856 
L 1013 4856 
Q 1481 4119 1714 3412 
Q 1947 2706 1947 2009 
Q 1947 1309 1714 600 
Q 1481 -109 1013 -844 
L 513 -844 
Q 928 -128 1133 580 
Q 1338 1288 1338 2009 
Q 1338 2731 1133 3434 
Q 928 4138 513 4856 
z
" transform="scale(0.015625)"/>
     </defs>
     <use xlink:href="#DejaVuSans-52"/>
     <use xlink:href="#DejaVuSans-65" x="64.982422"/>
     <use xlink:href="#DejaVuSans-61" x="126.505859"/>
     <use xlink:href="#DejaVuSans-6c" x="187.785156"/>
     <use xlink:href="#DejaVuSans-20" x="215.568359"/>
     <use xlink:href="#DejaVuSans-41" x="247.355469"/>
     <use xlink:href="#DejaVuSans-6d" x="315.763672"/>
     <use xlink:href="#DejaVuSans-70" x="413.175781"/>
     <use xlink:href="#DejaVuSans-6c" x="476.652344"/>
     <use xlink:href="#DejaVuSans-69" x="504.435547"/>
     <use xlink:href="#DejaVuSans-74" x="532.21875"/>
     <use xlink:href="#DejaVuSans-75" x="571.427734"/>
     <use xlink:href="#DejaVuSans-64" x="634.806641"/>
     <use xlink:href="#DejaVuSans-65" x="698.283203"/>
     <use xlink:href="#DejaVuSans-20" x="759.806641"/>
     <use xlink:href="#DejaVuSans-28" x="791.59375"/>
     <use xlink:href="#DejaVuSans-3c1" x="830.607422"/>
     <use xlink:href="#DejaVuSans-29" x="894.083984"/>
    </g>
   </g>
  </g>
  <g id="patch_6">
   <path d="M 604.8 576 
L 1123.2 576 
L 1123.2 57.6 
L 604.8 57.6 
z
" style="fill: #ffffff"/>
  </g>
  <g id="pane3d_4">
   <g id="patch_7">
    <path d="M 706.07018 436.456468 
L 829.494133 330.550231 
L 827.743197 126.70673 
L 698.643358 223.613571 
" style="fill: #f2f2f2; opacity: 0.5; stroke: #f2f2f2; stroke-linejoin: miter"/>
   </g>
  </g>
  <g id="pane3d_5">
   <g id="patch_8">
    <path d="M 829.494133 330.550231 
L 1031.554898 390.069341 
L 1038.583588 181.103065 
L 827.743197 126.70673 
" style="fill: #e6e6e6; opacity: 0.5; stroke: #e6e6e6; stroke-linejoin: miter"/>
   </g>
  </g>
  <g id="pane3d_6">
   <g id="patch_9">
    <path d="M 706.07018 436.456468 
L 916.912731 504.076731 
L 1031.554898 390.069341 
L 829.494133 330.550231 
" style="fill: #ececec; opacity: 0.5; stroke: #ececec; stroke-linejoin: miter"/>
   </g>
  </g>
  <g id="grid3d_4">
   <g id="Line3DCollection_4">
    <path d="M 734.635886 445.617904 
L 856.925726 338.630493 
L 856.328796 134.081748 
" style="fill: none; stroke: #b0b0b0; stroke-width: 0.8"/>
    <path d="M 784.310046 461.549127 
L 904.58611 352.669358 
L 906.022474 146.902603 
" style="fill: none; stroke: #b0b0b0; stroke-width: 0.8"/>
    <path d="M 834.89502 477.772462 
L 953.066152 366.949661 
L 956.607663 159.953465 
" style="fill: none; stroke: #b0b0b0; stroke-width: 0.8"/>
    <path d="M 886.41609 494.296016 
L 1002.38718 381.477685 
L 1008.108569 173.24058 
" style="fill: none; stroke: #b0b0b0; stroke-width: 0.8"/>
   </g>
  </g>
  <g id="grid3d_5">
   <g id="Line3DCollection_5">
    <path d="M 717.757365 209.265931 
L 724.301379 420.812846 
L 933.880707 487.202708 
" style="fill: none; stroke: #b0b0b0; stroke-width: 0.8"/>
    <path d="M 749.704273 185.285468 
L 754.805664 394.638072 
L 962.24502 458.995448 
" style="fill: none; stroke: #b0b0b0; stroke-width: 0.8"/>
    <path d="M 780.65707 162.051218 
L 784.400054 369.24405 
L 989.731787 431.660877 
" style="fill: none; stroke: #b0b0b0; stroke-width: 0.8"/>
    <path d="M 810.661448 139.528886 
L 813.124663 344.596362 
L 1016.38111 405.159111 
" style="fill: none; stroke: #b0b0b0; stroke-width: 0.8"/>
   </g>
  </g>
  <g id="grid3d_6">
   <g id="Line3DCollection_6">
    <path d="M 1032.017862 376.305212 
L 829.378637 317.104284 
L 705.581539 422.452658 
" style="fill: none; stroke: #b0b0b0; stroke-width: 0.8"/>
    <path d="M 1032.778679 353.685738 
L 829.188887 295.013599 
L 704.778356 399.434507 
" style="fill: none; stroke: #b0b0b0; stroke-width: 0.8"/>
    <path d="M 1033.546721 330.851485 
L 828.997399 272.720598 
L 703.967336 376.191745 
" style="fill: none; stroke: #b0b0b0; stroke-width: 0.8"/>
    <path d="M 1034.322091 307.79938 
L 828.804149 250.222487 
L 703.148363 352.72107 
" style="fill: none; stroke: #b0b0b0; stroke-width: 0.8"/>
    <path d="M 1035.104894 284.52629 
L 828.609113 227.516422 
L 702.32132 329.019111 
" style="fill: none; stroke: #b0b0b0; stroke-width: 0.8"/>
    <path d="M 1035.895236 261.029023 
L 828.412265 204.599507 
L 701.486087 305.082433 
" style="fill: none; stroke: #b0b0b0; stroke-width: 0.8"/>
    <path d="M 1036.693229 237.304323 
L 828.213581 181.468792 
L 700.642542 280.907533 
" style="fill: none; stroke: #b0b0b0; stroke-width: 0.8"/>
    <path d="M 1037.498983 213.348873 
L 828.013035 158.121271 
L 699.790559 256.490835 
" style="fill: none; stroke: #b0b0b0; stroke-width: 0.8"/>
    <path d="M 1038.312612 189.159289 
L 827.810601 134.55388 
L 698.930012 231.828695 
" style="fill: none; stroke: #b0b0b0; stroke-width: 0.8"/>
   </g>
  </g>
  <g id="axis3d_4">
   <g id="line2d_18">
    <path d="M 706.07018 436.456468 
L 916.912731 504.076731 
" style="fill: none; stroke: #000000; stroke-width: 0.8; stroke-linecap: square"/>
   </g>
   <g id="xtick_15">
    <g id="line2d_19">
     <path d="M 735.677227 444.706868 
L 732.549953 447.442819 
" style="fill: none; stroke: #000000; stroke-width: 0.8; stroke-linecap: square"/>
    </g>
    <g id="text_16">
     <!-- 00 -->
     <g transform="translate(707.351686 489.365693) rotate(-45) scale(0.21 -0.21)">
      <use xlink:href="#DejaVuSans-30"/>
      <use xlink:href="#DejaVuSans-30" x="63.623047"/>
     </g>
    </g>
   </g>
   <g id="xtick_16">
    <g id="line2d_20">
     <path d="M 785.334802 460.621468 
L 782.257306 463.407368 
" style="fill: none; stroke: #000000; stroke-width: 0.8; stroke-linecap: square"/>
    </g>
    <g id="text_17">
     <!-- 01 -->
     <g transform="translate(757.023931 505.435143) rotate(-45) scale(0.21 -0.21)">
      <use xlink:href="#DejaVuSans-30"/>
      <use xlink:href="#DejaVuSans-31" x="63.623047"/>
     </g>
    </g>
   </g>
   <g id="xtick_17">
    <g id="line2d_21">
     <path d="M 835.902405 476.82772 
L 832.877048 479.664949 
" style="fill: none; stroke: #000000; stroke-width: 0.8; stroke-linecap: square"/>
    </g>
    <g id="text_18">
     <!-- 10 -->
     <g transform="translate(807.60781 521.799516) rotate(-45) scale(0.21 -0.21)">
      <use xlink:href="#DejaVuSans-31"/>
      <use xlink:href="#DejaVuSans-30" x="63.623047"/>
     </g>
    </g>
   </g>
   <g id="xtick_18">
    <g id="line2d_22">
     <path d="M 887.405283 493.333715 
L 884.434531 496.223705 
" style="fill: none; stroke: #000000; stroke-width: 0.8; stroke-linecap: square"/>
    </g>
    <g id="text_19">
     <!-- 11 -->
     <g transform="translate(859.128654 538.467006) rotate(-45) scale(0.21 -0.21)">
      <use xlink:href="#DejaVuSans-31"/>
      <use xlink:href="#DejaVuSans-31" x="63.623047"/>
     </g>
    </g>
   </g>
  </g>
  <g id="axis3d_5">
   <g id="line2d_23">
    <path d="M 1031.554898 390.069341 
L 916.912731 504.076731 
" style="fill: none; stroke: #000000; stroke-width: 0.8; stroke-linecap: square"/>
   </g>
   <g id="xtick_19">
    <g id="line2d_24">
     <path d="M 932.140222 486.651363 
L 937.364886 488.306415 
" style="fill: none; stroke: #000000; stroke-width: 0.8; stroke-linecap: square"/>
    </g>
    <g id="text_20">
     <!-- 00 -->
     <g transform="translate(944.70027 499.207917) rotate(-337.5) scale(0.21 -0.21)">
      <use xlink:href="#DejaVuSans-30"/>
      <use xlink:href="#DejaVuSans-30" x="63.623047"/>
     </g>
    </g>
   </g>
   <g id="xtick_20">
    <g id="line2d_25">
     <path d="M 960.5233 458.46129 
L 965.691587 460.064734 
" style="fill: none; stroke: #000000; stroke-width: 0.8; stroke-linecap: square"/>
    </g>
    <g id="text_21">
     <!-- 01 -->
     <g transform="translate(972.913817 470.822876) rotate(-337.5) scale(0.21 -0.21)">
      <use xlink:href="#DejaVuSans-30"/>
      <use xlink:href="#DejaVuSans-31" x="63.623047"/>
     </g>
    </g>
   </g>
   <g id="xtick_21">
    <g id="line2d_26">
     <path d="M 988.028511 431.143114 
L 993.141381 432.697327 
" style="fill: none; stroke: #000000; stroke-width: 0.8; stroke-linecap: square"/>
    </g>
    <g id="text_22">
     <!-- 10 -->
     <g transform="translate(1000.254695 443.315808) rotate(-337.5) scale(0.21 -0.21)">
      <use xlink:href="#DejaVuSans-31"/>
      <use xlink:href="#DejaVuSans-30" x="63.623047"/>
     </g>
    </g>
   </g>
   <g id="xtick_22">
    <g id="line2d_27">
     <path d="M 1014.695964 404.657001 
L 1019.754368 406.164215 
" style="fill: none; stroke: #000000; stroke-width: 0.8; stroke-linecap: square"/>
    </g>
    <g id="text_23">
     <!-- 11 -->
     <g transform="translate(1026.762776 416.646599) rotate(-337.5) scale(0.21 -0.21)">
      <use xlink:href="#DejaVuSans-31"/>
      <use xlink:href="#DejaVuSans-31" x="63.623047"/>
     </g>
    </g>
   </g>
  </g>
  <g id="axis3d_6">
   <g id="line2d_28">
    <path d="M 1031.554898 390.069341 
L 1038.583588 181.103065 
" style="fill: none; stroke: #000000; stroke-width: 0.8; stroke-linecap: square"/>
   </g>
   <g id="xtick_23">
    <g id="line2d_29">
     <path d="M 1030.338183 375.814495 
L 1035.380158 377.287505 
" style="fill: none; stroke: #000000; stroke-width: 0.8; stroke-linecap: square"/>
    </g>
    <g id="text_24">
     <!-- −0.10 -->
     <g transform="translate(1045.535501 370.026915) scale(0.21 -0.21)">
      <defs>
       <path id="DejaVuSans-2212" d="M 678 2272 
L 4684 2272 
L 4684 1741 
L 678 1741 
L 678 2272 
z
" transform="scale(0.015625)"/>
      </defs>
      <use xlink:href="#DejaVuSans-2212"/>
      <use xlink:href="#DejaVuSans-30" x="83.789062"/>
      <use xlink:href="#DejaVuSans-2e" x="147.412109"/>
      <use xlink:href="#DejaVuSans-31" x="179.199219"/>
      <use xlink:href="#DejaVuSans-30" x="242.822266"/>
     </g>
    </g>
   </g>
   <g id="xtick_24">
    <g id="line2d_30">
     <path d="M 1031.090844 353.199323 
L 1036.157318 354.659421 
" style="fill: none; stroke: #000000; stroke-width: 0.8; stroke-linecap: square"/>
    </g>
    <g id="text_25">
     <!-- −0.05 -->
     <g transform="translate(1046.359252 347.424205) scale(0.21 -0.21)">
      <defs>
       <path id="DejaVuSans-35" d="M 691 4666 
L 3169 4666 
L 3169 4134 
L 1269 4134 
L 1269 2991 
Q 1406 3038 1543 3061 
Q 1681 3084 1819 3084 
Q 2600 3084 3056 2656 
Q 3513 2228 3513 1497 
Q 3513 744 3044 326 
Q 2575 -91 1722 -91 
Q 1428 -91 1123 -41 
Q 819 9 494 109 
L 494 744 
Q 775 591 1075 516 
Q 1375 441 1709 441 
Q 2250 441 2565 725 
Q 2881 1009 2881 1497 
Q 2881 1984 2565 2268 
Q 2250 2553 1709 2553 
Q 1456 2553 1204 2497 
Q 953 2441 691 2322 
L 691 4666 
z
" transform="scale(0.015625)"/>
      </defs>
      <use xlink:href="#DejaVuSans-2212"/>
      <use xlink:href="#DejaVuSans-30" x="83.789062"/>
      <use xlink:href="#DejaVuSans-2e" x="147.412109"/>
      <use xlink:href="#DejaVuSans-30" x="179.199219"/>
      <use xlink:href="#DejaVuSans-35" x="242.822266"/>
     </g>
    </g>
   </g>
   <g id="xtick_25">
    <g id="line2d_31">
     <path d="M 1031.850649 330.369478 
L 1036.941862 331.81635 
" style="fill: none; stroke: #000000; stroke-width: 0.8; stroke-linecap: square"/>
    </g>
    <g id="text_26">
     <!-- 0.00 -->
     <g transform="translate(1047.190817 324.607122) scale(0.21 -0.21)">
      <use xlink:href="#DejaVuSans-30"/>
      <use xlink:href="#DejaVuSans-2e" x="63.623047"/>
      <use xlink:href="#DejaVuSans-30" x="95.410156"/>
      <use xlink:href="#DejaVuSans-30" x="159.033203"/>
     </g>
    </g>
   </g>
   <g id="xtick_26">
    <g id="line2d_32">
     <path d="M 1032.617701 307.321886 
L 1037.733896 308.755214 
" style="fill: none; stroke: #000000; stroke-width: 0.8; stroke-linecap: square"/>
    </g>
    <g id="text_27">
     <!-- 0.05 -->
     <g transform="translate(1048.030305 301.572601) scale(0.21 -0.21)">
      <use xlink:href="#DejaVuSans-30"/>
      <use xlink:href="#DejaVuSans-2e" x="63.623047"/>
      <use xlink:href="#DejaVuSans-30" x="95.410156"/>
      <use xlink:href="#DejaVuSans-35" x="159.033203"/>
     </g>
    </g>
   </g>
   <g id="xtick_27">
    <g id="line2d_33">
     <path d="M 1033.392104 284.053419 
L 1038.533527 285.472876 
" style="fill: none; stroke: #000000; stroke-width: 0.8; stroke-linecap: square"/>
    </g>
    <g id="text_28">
     <!-- 0.10 -->
     <g transform="translate(1048.877832 278.317519) scale(0.21 -0.21)">
      <use xlink:href="#DejaVuSans-30"/>
      <use xlink:href="#DejaVuSans-2e" x="63.623047"/>
      <use xlink:href="#DejaVuSans-31" x="95.410156"/>
      <use xlink:href="#DejaVuSans-30" x="159.033203"/>
     </g>
    </g>
   </g>
   <g id="xtick_28">
    <g id="line2d_34">
     <path d="M 1034.173964 260.560885 
L 1039.340865 261.966136 
" style="fill: none; stroke: #000000; stroke-width: 0.8; stroke-linecap: square"/>
    </g>
    <g id="text_29">
     <!-- 0.15 -->
     <g transform="translate(1049.733514 254.838693) scale(0.21 -0.21)">
      <use xlink:href="#DejaVuSans-30"/>
      <use xlink:href="#DejaVuSans-2e" x="63.623047"/>
      <use xlink:href="#DejaVuSans-31" x="95.410156"/>
      <use xlink:href="#DejaVuSans-35" x="159.033203"/>
     </g>
    </g>
   </g>
   <g id="xtick_29">
    <g id="line2d_35">
     <path d="M 1034.96339 236.841033 
L 1040.156021 238.231737 
" style="fill: none; stroke: #000000; stroke-width: 0.8; stroke-linecap: square"/>
    </g>
    <g id="text_30">
     <!-- 0.20 -->
     <g transform="translate(1050.597468 231.132878) scale(0.21 -0.21)">
      <use xlink:href="#DejaVuSans-30"/>
      <use xlink:href="#DejaVuSans-2e" x="63.623047"/>
      <use xlink:href="#DejaVuSans-32" x="95.410156"/>
      <use xlink:href="#DejaVuSans-30" x="159.033203"/>
     </g>
    </g>
   </g>
   <g id="xtick_30">
    <g id="line2d_36">
     <path d="M 1035.760492 212.890547 
L 1040.979111 214.266353 
" style="fill: none; stroke: #000000; stroke-width: 0.8; stroke-linecap: square"/>
    </g>
    <g id="text_31">
     <!-- 0.25 -->
     <g transform="translate(1051.469815 207.196767) scale(0.21 -0.21)">
      <use xlink:href="#DejaVuSans-30"/>
      <use xlink:href="#DejaVuSans-2e" x="63.623047"/>
      <use xlink:href="#DejaVuSans-32" x="95.410156"/>
      <use xlink:href="#DejaVuSans-35" x="159.033203"/>
     </g>
    </g>
   </g>
   <g id="xtick_31">
    <g id="line2d_37">
     <path d="M 1036.565381 188.706047 
L 1041.810251 190.066596 
" style="fill: none; stroke: #000000; stroke-width: 0.8; stroke-linecap: square"/>
    </g>
    <g id="text_32">
     <!-- 0.30 -->
     <g transform="translate(1052.350678 183.026988) scale(0.21 -0.21)">
      <use xlink:href="#DejaVuSans-30"/>
      <use xlink:href="#DejaVuSans-2e" x="63.623047"/>
      <use xlink:href="#DejaVuSans-33" x="95.410156"/>
      <use xlink:href="#DejaVuSans-30" x="159.033203"/>
     </g>
    </g>
   </g>
  </g>
  <g id="axes_2">
   <g id="Poly3DCollection_2">
    <path d="M 982.556792 327.157173 
L 982.556792 327.157173 
L 1007.834792 334.388677 
L 1007.834792 334.388677 
z
" clip-path="url(#pde03c5f57b)" style="fill: #648fff"/>
    <path d="M 969.058121 339.723186 
L 969.058121 339.723186 
L 982.556792 327.157173 
L 982.556792 327.157173 
z
" clip-path="url(#pde03c5f57b)" style="fill: #324880"/>
    <path d="M 969.058121 339.723186 
L 982.556792 327.157173 
L 1007.834792 334.388677 
L 994.471084 347.066511 
z
" clip-path="url(#pde03c5f57b)" style="fill: #3f599f"/>
    <path d="M 969.058121 339.723186 
L 994.471084 347.066511 
L 1007.834792 334.388677 
L 982.556792 327.157173 
z
" clip-path="url(#pde03c5f57b)" style="fill: #577ddf"/>
    <path d="M 777.134137 333.867348 
L 777.134137 333.867348 
L 801.604119 341.158455 
L 801.604119 341.158455 
z
" clip-path="url(#pde03c5f57b)" style="fill: #648fff"/>
    <path d="M 761.994498 346.537103 
L 761.994498 346.537103 
L 777.134137 333.867348 
L 777.134137 333.867348 
z
" clip-path="url(#pde03c5f57b)" style="fill: #324880"/>
    <path d="M 994.471084 347.066511 
L 1007.834792 334.388677 
L 1007.834792 334.388677 
L 994.471084 347.066511 
z
" clip-path="url(#pde03c5f57b)" style="fill: #648fff"/>
    <path d="M 904.93153 337.766604 
L 904.93153 337.766604 
L 930.02874 345.092461 
L 930.02874 345.092461 
z
" clip-path="url(#pde03c5f57b)" style="fill: #648fff"/>
    <path d="M 969.058121 339.723186 
L 994.471084 347.066511 
L 994.471084 347.066511 
L 969.058121 339.723186 
z
" clip-path="url(#pde03c5f57b)" style="fill: #324880"/>
    <path d="M 761.994498 346.537103 
L 777.134137 333.867348 
L 801.604119 341.158455 
L 786.586397 353.941423 
z
" clip-path="url(#pde03c5f57b)" style="fill: #3f599f"/>
    <path d="M 761.994498 346.537103 
L 786.586397 353.941423 
L 801.604119 341.158455 
L 777.134137 333.867348 
z
" clip-path="url(#pde03c5f57b)" style="fill: #577ddf"/>
    <path d="M 890.74417 350.496842 
L 890.74417 350.496842 
L 904.93153 337.766604 
L 904.93153 337.766604 
z
" clip-path="url(#pde03c5f57b)" style="fill: #324880"/>
    <path d="M 786.586397 353.941423 
L 801.604119 341.158455 
L 801.604119 341.158455 
L 786.586397 353.941423 
z
" clip-path="url(#pde03c5f57b)" style="fill: #648fff"/>
    <path d="M 890.74417 350.496842 
L 904.93153 337.766604 
L 930.02874 345.092461 
L 915.972735 357.936724 
z
" clip-path="url(#pde03c5f57b)" style="fill: #3f599f"/>
    <path d="M 890.74417 350.496842 
L 915.972735 357.936724 
L 930.02874 345.092461 
L 904.93153 337.766604 
z
" clip-path="url(#pde03c5f57b)" style="fill: #577ddf"/>
    <path d="M 761.994498 346.537103 
L 786.586397 353.941423 
L 786.586397 353.941423 
L 761.994498 346.537103 
z
" clip-path="url(#pde03c5f57b)" style="fill: #324880"/>
    <path d="M 915.972735 357.936724 
L 930.02874 345.092461 
L 930.02874 345.092461 
L 915.972735 357.936724 
z
" clip-path="url(#pde03c5f57b)" style="fill: #648fff"/>
    <path d="M 826.292395 348.514607 
L 826.292395 348.514607 
L 851.2019 355.936676 
L 851.2019 355.936676 
z
" clip-path="url(#pde03c5f57b)" style="fill: #648fff"/>
    <path d="M 861.817832 436.830448 
L 886.990344 444.680593 
L 901.311406 431.128178 
L 876.269021 423.398695 
z
" clip-path="url(#pde03c5f57b)" style="fill: #577ddf"/>
    <path d="M 890.74417 350.496842 
L 915.972735 357.936724 
L 915.972735 357.936724 
L 890.74417 350.496842 
z
" clip-path="url(#pde03c5f57b)" style="fill: #324880"/>
    <path d="M 811.399386 361.41231 
L 811.399386 361.41231 
L 826.292395 348.514607 
L 826.292395 348.514607 
z
" clip-path="url(#pde03c5f57b)" style="fill: #324880"/>
    <path d="M 955.350376 352.483828 
L 955.350376 352.483828 
L 980.899462 359.941587 
L 980.899462 359.941587 
z
" clip-path="url(#pde03c5f57b)" style="fill: #648fff"/>
    <path d="M 876.33562 363.425552 
L 876.269021 423.398695 
L 901.311406 431.128178 
L 901.696598 370.982142 
z
" clip-path="url(#pde03c5f57b)" style="fill: #648fff"/>
    <path d="M 811.399386 361.41231 
L 826.292395 348.514607 
L 851.2019 355.936676 
L 836.43646 368.950667 
z
" clip-path="url(#pde03c5f57b)" style="fill: #3f599f"/>
    <path d="M 811.399386 361.41231 
L 836.43646 368.950667 
L 851.2019 355.936676 
L 826.292395 348.514607 
z
" clip-path="url(#pde03c5f57b)" style="fill: #577ddf"/>
    <path d="M 941.428661 365.443655 
L 941.428661 365.443655 
L 955.350376 352.483828 
L 955.350376 352.483828 
z
" clip-path="url(#pde03c5f57b)" style="fill: #324880"/>
    <path d="M 861.700669 376.557411 
L 861.817832 436.830448 
L 876.269021 423.398695 
L 876.33562 363.425552 
z
" clip-path="url(#pde03c5f57b)" style="fill: #324880"/>
    <path d="M 836.43646 368.950667 
L 851.2019 355.936676 
L 851.2019 355.936676 
L 836.43646 368.950667 
z
" clip-path="url(#pde03c5f57b)" style="fill: #648fff"/>
    <path d="M 941.428661 365.443655 
L 955.350376 352.483828 
L 980.899462 359.941587 
L 967.115037 373.018545 
z
" clip-path="url(#pde03c5f57b)" style="fill: #3f599f"/>
    <path d="M 941.428661 365.443655 
L 967.115037 373.018545 
L 980.899462 359.941587 
L 955.350376 352.483828 
z
" clip-path="url(#pde03c5f57b)" style="fill: #577ddf"/>
    <path d="M 811.399386 361.41231 
L 836.43646 368.950667 
L 836.43646 368.950667 
L 811.399386 361.41231 
z
" clip-path="url(#pde03c5f57b)" style="fill: #324880"/>
    <path d="M 967.115037 373.018545 
L 980.899462 359.941587 
L 980.899462 359.941587 
L 967.115037 373.018545 
z
" clip-path="url(#pde03c5f57b)" style="fill: #648fff"/>
    <path d="M 887.195117 384.233477 
L 901.696598 370.982142 
L 901.311406 431.128178 
L 886.990344 444.680593 
z
" clip-path="url(#pde03c5f57b)" style="fill: #648fff"/>
    <path d="M 912.390382 452.601693 
L 938.021045 460.594713 
L 952.072987 446.796046 
L 926.578383 438.926983 
z
" clip-path="url(#pde03c5f57b)" style="fill: #577ddf"/>
    <path d="M 941.428661 365.443655 
L 967.115037 373.018545 
L 967.115037 373.018545 
L 941.428661 365.443655 
z
" clip-path="url(#pde03c5f57b)" style="fill: #324880"/>
    <path d="M 861.700669 376.557411 
L 887.195117 384.233477 
L 886.990344 444.680593 
L 861.817832 436.830448 
z
" clip-path="url(#pde03c5f57b)" style="fill: #324880"/>
    <path d="M 927.287928 378.607368 
L 926.578383 438.926983 
L 952.072987 446.796046 
L 953.112764 386.30217 
z
" clip-path="url(#pde03c5f57b)" style="fill: #648fff"/>
    <path d="M 861.700669 376.557411 
L 876.33562 363.425552 
L 901.696598 370.982142 
L 887.195117 384.233477 
z
" clip-path="url(#pde03c5f57b)" style="fill: #3f599f"/>
    <path d="M 912.922967 391.979817 
L 912.390382 452.601693 
L 926.578383 438.926983 
L 927.287928 378.607368 
z
" clip-path="url(#pde03c5f57b)" style="fill: #324880"/>
    <path d="M 832.232215 464.328996 
L 857.668038 472.429097 
L 872.444335 458.445881 
L 847.140677 450.472227 
z
" clip-path="url(#pde03c5f57b)" style="fill: #577ddf"/>
    <path d="M 938.887437 399.797401 
L 953.112764 386.30217 
L 952.072987 446.796046 
L 938.021045 460.594713 
z
" clip-path="url(#pde03c5f57b)" style="fill: #648fff"/>
    <path d="M 846.833937 389.897245 
L 847.140677 450.472227 
L 872.444335 458.445881 
L 872.462915 397.695643 
z
" clip-path="url(#pde03c5f57b)" style="fill: #648fff"/>
    <path d="M 912.922967 391.979817 
L 938.887437 399.797401 
L 938.021045 460.594713 
L 912.390382 452.601693 
z
" clip-path="url(#pde03c5f57b)" style="fill: #324880"/>
    <path d="M 831.729875 403.450035 
L 832.232215 464.328996 
L 847.140677 450.472227 
L 846.833937 389.897245 
z
" clip-path="url(#pde03c5f57b)" style="fill: #324880"/>
    <path d="M 912.922967 391.979817 
L 927.287928 378.607368 
L 953.112764 386.30217 
L 938.887437 399.797401 
z
" clip-path="url(#pde03c5f57b)" style="fill: #3f599f"/>
    <path d="M 857.494441 411.373713 
L 872.462915 397.695643 
L 872.444335 458.445881 
L 857.668038 472.429097 
z
" clip-path="url(#pde03c5f57b)" style="fill: #648fff"/>
    <path d="M 883.337424 480.603576 
L 909.243605 488.853463 
L 923.746364 474.612105 
L 897.978509 466.492174 
z
" clip-path="url(#pde03c5f57b)" style="fill: #577ddf"/>
    <path d="M 831.729875 403.450035 
L 857.494441 411.373713 
L 857.668038 472.429097 
L 832.232215 464.328996 
z
" clip-path="url(#pde03c5f57b)" style="fill: #324880"/>
    <path d="M 898.328401 405.566006 
L 897.978509 466.492174 
L 923.746364 474.612105 
L 924.433684 413.509335 
z
" clip-path="url(#pde03c5f57b)" style="fill: #648fff"/>
    <path d="M 831.729875 403.450035 
L 846.833937 389.897245 
L 872.462915 397.695643 
L 857.494441 411.373713 
z
" clip-path="url(#pde03c5f57b)" style="fill: #3f599f"/>
    <path d="M 883.498683 419.371101 
L 883.337424 480.603576 
L 897.978509 466.492174 
L 898.328401 405.566006 
z
" clip-path="url(#pde03c5f57b)" style="fill: #324880"/>
    <path d="M 909.745958 427.443233 
L 924.433684 413.509335 
L 923.746364 474.612105 
L 909.243605 488.853463 
z
" clip-path="url(#pde03c5f57b)" style="fill: #648fff"/>
    <path d="M 883.498683 419.371101 
L 909.745958 427.443233 
L 909.243605 488.853463 
L 883.337424 480.603576 
z
" clip-path="url(#pde03c5f57b)" style="fill: #324880"/>
    <path d="M 883.498683 419.371101 
L 898.328401 405.566006 
L 924.433684 413.509335 
L 909.745958 427.443233 
z
" clip-path="url(#pde03c5f57b)" style="fill: #3f599f"/>
   </g>
   <g id="Poly3DCollection_3">
    <path d="M 710.737536 375.260369 
L 915.564764 438.592669 
L 1027.129127 331.734354 
L 830.599408 275.790214 
z
" clip-path="url(#pde03c5f57b)" style="fill-opacity: 0.25"/>
   </g>
   <g id="Poly3DCollection_4">
    <path d="M 821.193125 296.996148 
L 835.442985 285.071011 
L 859.433802 291.934279 
L 845.302452 303.962774 
z
" clip-path="url(#pde03c5f57b)" style="fill: #3f599f"/>
    <path d="M 835.442985 285.071011 
L 835.008877 225.522955 
L 859.291932 232.210683 
L 859.433802 291.934279 
z
" clip-path="url(#pde03c5f57b)" style="fill: #324880"/>
    <path d="M 821.193125 296.996148 
L 820.580461 237.143537 
L 835.008877 225.522955 
L 835.442985 285.071011 
z
" clip-path="url(#pde03c5f57b)" style="fill: #648fff"/>
    <path d="M 845.302452 303.962774 
L 859.433802 291.934279 
L 859.291932 232.210683 
L 844.98493 243.933226 
z
" clip-path="url(#pde03c5f57b)" style="fill: #324880"/>
    <path d="M 869.621984 310.990141 
L 883.632222 298.856937 
L 908.040954 305.839761 
L 894.154482 318.079046 
z
" clip-path="url(#pde03c5f57b)" style="fill: #3f599f"/>
    <path d="M 821.193125 296.996148 
L 845.302452 303.962774 
L 844.98493 243.933226 
L 820.580461 237.143537 
z
" clip-path="url(#pde03c5f57b)" style="fill: #648fff"/>
    <path d="M 883.632222 298.856937 
L 883.787707 238.956995 
L 908.499011 245.762666 
L 908.040954 305.839761 
z
" clip-path="url(#pde03c5f57b)" style="fill: #324880"/>
    <path d="M 820.580461 237.143537 
L 844.98493 243.933226 
L 859.291932 232.210683 
L 835.008877 225.522955 
z
" clip-path="url(#pde03c5f57b)" style="fill: #577ddf"/>
    <path d="M 869.621984 310.990141 
L 869.604818 250.782848 
L 883.787707 238.956995 
L 883.632222 298.856937 
z
" clip-path="url(#pde03c5f57b)" style="fill: #648fff"/>
    <path d="M 932.66275 312.883538 
L 932.66275 312.883538 
L 957.500412 319.989071 
L 957.500412 319.989071 
z
" clip-path="url(#pde03c5f57b)" style="fill: #324880"/>
    <path d="M 792.043676 321.390152 
L 806.728322 309.101161 
L 830.957014 316.173499 
L 816.392588 328.570625 
z
" clip-path="url(#pde03c5f57b)" style="fill: #3f599f"/>
    <path d="M 918.902756 325.230303 
L 918.902756 325.230303 
L 932.66275 312.883538 
L 932.66275 312.883538 
z
" clip-path="url(#pde03c5f57b)" style="fill: #648fff"/>
    <path d="M 894.154482 318.079046 
L 908.040954 305.839761 
L 908.499011 245.762666 
L 894.442989 257.693199 
z
" clip-path="url(#pde03c5f57b)" style="fill: #324880"/>
    <path d="M 918.902756 325.230303 
L 932.66275 312.883538 
L 957.500412 319.989071 
L 943.869666 332.444736 
z
" clip-path="url(#pde03c5f57b)" style="fill: #3f599f"/>
    <path d="M 918.902756 325.230303 
L 943.869666 332.444736 
L 957.500412 319.989071 
L 932.66275 312.883538 
z
" clip-path="url(#pde03c5f57b)" style="fill: #577ddf"/>
    <path d="M 806.728322 309.101161 
L 805.931713 248.941574 
L 830.458483 255.835574 
L 830.957014 316.173499 
z
" clip-path="url(#pde03c5f57b)" style="fill: #324880"/>
    <path d="M 869.621984 310.990141 
L 894.154482 318.079046 
L 894.442989 257.693199 
L 869.604818 250.782848 
z
" clip-path="url(#pde03c5f57b)" style="fill: #648fff"/>
    <path d="M 792.043676 321.390152 
L 791.057546 260.921163 
L 805.931713 248.941574 
L 806.728322 309.101161 
z
" clip-path="url(#pde03c5f57b)" style="fill: #648fff"/>
    <path d="M 943.869666 332.444736 
L 957.500412 319.989071 
L 957.500412 319.989071 
L 943.869666 332.444736 
z
" clip-path="url(#pde03c5f57b)" style="fill: #324880"/>
    <path d="M 869.604818 250.782848 
L 894.442989 257.693199 
L 908.499011 245.762666 
L 883.787707 238.956995 
z
" clip-path="url(#pde03c5f57b)" style="fill: #577ddf"/>
    <path d="M 918.902756 325.230303 
L 943.869666 332.444736 
L 943.869666 332.444736 
L 918.902756 325.230303 
z
" clip-path="url(#pde03c5f57b)" style="fill: #648fff"/>
    <path d="M 816.392588 328.570625 
L 830.957014 316.173499 
L 830.458483 255.835574 
L 815.707501 267.921896 
z
" clip-path="url(#pde03c5f57b)" style="fill: #324880"/>
    <path d="M 840.957049 335.814664 
L 855.39856 323.307968 
L 880.055776 330.505391 
L 865.739934 343.123115 
z
" clip-path="url(#pde03c5f57b)" style="fill: #3f599f"/>
    <path d="M 792.043676 321.390152 
L 816.392588 328.570625 
L 815.707501 267.921896 
L 791.057546 260.921163 
z
" clip-path="url(#pde03c5f57b)" style="fill: #648fff"/>
    <path d="M 855.39856 323.307968 
L 855.203418 262.790896 
L 880.169444 269.808362 
L 880.055776 330.505391 
z
" clip-path="url(#pde03c5f57b)" style="fill: #324880"/>
    <path d="M 791.057546 260.921163 
L 815.707501 267.921896 
L 830.458483 255.835574 
L 805.931713 248.941574 
z
" clip-path="url(#pde03c5f57b)" style="fill: #577ddf"/>
    <path d="M 840.957049 335.814664 
L 840.57842 274.985384 
L 855.203418 262.790896 
L 855.39856 323.307968 
z
" clip-path="url(#pde03c5f57b)" style="fill: #648fff"/>
    <path d="M 865.739934 343.123115 
L 880.055776 330.505391 
L 880.169444 269.808362 
L 865.673287 282.112475 
z
" clip-path="url(#pde03c5f57b)" style="fill: #324880"/>
    <path d="M 840.957049 335.814664 
L 865.739934 343.123115 
L 865.673287 282.112475 
L 840.57842 274.985384 
z
" clip-path="url(#pde03c5f57b)" style="fill: #648fff"/>
    <path d="M 840.57842 274.985384 
L 865.673287 282.112475 
L 880.169444 269.808362 
L 855.203418 262.790896 
z
" clip-path="url(#pde03c5f57b)" style="fill: #577ddf"/>
    <path d="M 746.619393 359.403913 
L 746.619393 359.403913 
L 771.334051 366.924101 
L 771.334051 366.924101 
z
" clip-path="url(#pde03c5f57b)" style="fill: #324880"/>
    <path d="M 731.003283 372.472408 
L 731.003283 372.472408 
L 746.619393 359.403913 
L 746.619393 359.403913 
z
" clip-path="url(#pde03c5f57b)" style="fill: #648fff"/>
    <path d="M 731.003283 372.472408 
L 746.619393 359.403913 
L 771.334051 366.924101 
L 755.841539 380.111207 
z
" clip-path="url(#pde03c5f57b)" style="fill: #3f599f"/>
    <path d="M 731.003283 372.472408 
L 755.841539 380.111207 
L 771.334051 366.924101 
L 746.619393 359.403913 
z
" clip-path="url(#pde03c5f57b)" style="fill: #577ddf"/>
    <path d="M 755.841539 380.111207 
L 771.334051 366.924101 
L 771.334051 366.924101 
L 755.841539 380.111207 
z
" clip-path="url(#pde03c5f57b)" style="fill: #324880"/>
    <path d="M 731.003283 372.472408 
L 755.841539 380.111207 
L 755.841539 380.111207 
L 731.003283 372.472408 
z
" clip-path="url(#pde03c5f57b)" style="fill: #648fff"/>
    <path d="M 796.272647 374.51243 
L 796.272647 374.51243 
L 821.438238 382.169829 
L 821.438238 382.169829 
z
" clip-path="url(#pde03c5f57b)" style="fill: #324880"/>
    <path d="M 780.906632 387.819769 
L 780.906632 387.819769 
L 796.272647 374.51243 
L 796.272647 374.51243 
z
" clip-path="url(#pde03c5f57b)" style="fill: #648fff"/>
    <path d="M 780.906632 387.819769 
L 796.272647 374.51243 
L 821.438238 382.169829 
L 806.201684 395.599052 
z
" clip-path="url(#pde03c5f57b)" style="fill: #3f599f"/>
    <path d="M 780.906632 387.819769 
L 806.201684 395.599052 
L 821.438238 382.169829 
L 796.272647 374.51243 
z
" clip-path="url(#pde03c5f57b)" style="fill: #577ddf"/>
    <path d="M 806.201684 395.599052 
L 821.438238 382.169829 
L 821.438238 382.169829 
L 806.201684 395.599052 
z
" clip-path="url(#pde03c5f57b)" style="fill: #324880"/>
    <path d="M 780.906632 387.819769 
L 806.201684 395.599052 
L 806.201684 395.599052 
L 780.906632 387.819769 
z
" clip-path="url(#pde03c5f57b)" style="fill: #648fff"/>
   </g>
   <g id="text_33">
    <!-- Imaginary Amplitude (ρ) -->
    <g transform="translate(735.696563 51.6) scale(0.21 -0.21)">
     <defs>
      <path id="DejaVuSans-49" d="M 628 4666 
L 1259 4666 
L 1259 0 
L 628 0 
L 628 4666 
z
" transform="scale(0.015625)"/>
      <path id="DejaVuSans-67" d="M 2906 1791 
Q 2906 2416 2648 2759 
Q 2391 3103 1925 3103 
Q 1463 3103 1205 2759 
Q 947 2416 947 1791 
Q 947 1169 1205 825 
Q 1463 481 1925 481 
Q 2391 481 2648 825 
Q 2906 1169 2906 1791 
z
M 3481 434 
Q 3481 -459 3084 -895 
Q 2688 -1331 1869 -1331 
Q 1566 -1331 1297 -1286 
Q 1028 -1241 775 -1147 
L 775 -588 
Q 1028 -725 1275 -790 
Q 1522 -856 1778 -856 
Q 2344 -856 2625 -561 
Q 2906 -266 2906 331 
L 2906 616 
Q 2728 306 2450 153 
Q 2172 0 1784 0 
Q 1141 0 747 490 
Q 353 981 353 1791 
Q 353 2603 747 3093 
Q 1141 3584 1784 3584 
Q 2172 3584 2450 3431 
Q 2728 3278 2906 2969 
L 2906 3500 
L 3481 3500 
L 3481 434 
z
" transform="scale(0.015625)"/>
      <path id="DejaVuSans-6e" d="M 3513 2113 
L 3513 0 
L 2938 0 
L 2938 2094 
Q 2938 2591 2744 2837 
Q 2550 3084 2163 3084 
Q 1697 3084 1428 2787 
Q 1159 2491 1159 1978 
L 1159 0 
L 581 0 
L 581 3500 
L 1159 3500 
L 1159 2956 
Q 1366 3272 1645 3428 
Q 1925 3584 2291 3584 
Q 2894 3584 3203 3211 
Q 3513 2838 3513 2113 
z
" transform="scale(0.015625)"/>
      <path id="DejaVuSans-72" d="M 2631 2963 
Q 2534 3019 2420 3045 
Q 2306 3072 2169 3072 
Q 1681 3072 1420 2755 
Q 1159 2438 1159 1844 
L 1159 0 
L 581 0 
L 581 3500 
L 1159 3500 
L 1159 2956 
Q 1341 3275 1631 3429 
Q 1922 3584 2338 3584 
Q 2397 3584 2469 3576 
Q 2541 3569 2628 3553 
L 2631 2963 
z
" transform="scale(0.015625)"/>
      <path id="DejaVuSans-79" d="M 2059 -325 
Q 1816 -950 1584 -1140 
Q 1353 -1331 966 -1331 
L 506 -1331 
L 506 -850 
L 844 -850 
Q 1081 -850 1212 -737 
Q 1344 -625 1503 -206 
L 1606 56 
L 191 3500 
L 800 3500 
L 1894 763 
L 2988 3500 
L 3597 3500 
L 2059 -325 
z
" transform="scale(0.015625)"/>
     </defs>
     <use xlink:href="#DejaVuSans-49"/>
     <use xlink:href="#DejaVuSans-6d" x="29.492188"/>
     <use xlink:href="#DejaVuSans-61" x="126.904297"/>
     <use xlink:href="#DejaVuSans-67" x="188.183594"/>
     <use xlink:href="#DejaVuSans-69" x="251.660156"/>
     <use xlink:href="#DejaVuSans-6e" x="279.443359"/>
     <use xlink:href="#DejaVuSans-61" x="342.822266"/>
     <use xlink:href="#DejaVuSans-72" x="404.101562"/>
     <use xlink:href="#DejaVuSans-79" x="445.214844"/>
     <use xlink:href="#DejaVuSans-20" x="504.394531"/>
     <use xlink:href="#DejaVuSans-41" x="536.181641"/>
     <use xlink:href="#DejaVuSans-6d" x="604.589844"/>
     <use xlink:href="#DejaVuSans-70" x="702.001953"/>
     <use xlink:href="#DejaVuSans-6c" x="765.478516"/>
     <use xlink:href="#DejaVuSans-69" x="793.261719"/>
     <use xlink:href="#DejaVuSans-74" x="821.044922"/>
     <use xlink:href="#DejaVuSans-75" x="860.253906"/>
     <use xlink:href="#DejaVuSans-64" x="923.632812"/>
     <use xlink:href="#DejaVuSans-65" x="987.109375"/>
     <use xlink:href="#DejaVuSans-20" x="1048.632812"/>
     <use xlink:href="#DejaVuSans-28" x="1080.419922"/>
     <use xlink:href="#DejaVuSans-3c1" x="1119.433594"/>
     <use xlink:href="#DejaVuSans-29" x="1182.910156"/>
    </g>
   </g>
  </g>
 </g>
 <defs>
  <clipPath id="pd0b513874c">
   <rect x="28.8" y="57.6" width="518.4" height="518.4"/>
  </clipPath>
  <clipPath id="pde03c5f57b">
   <rect x="604.8" y="57.6" width="518.4" height="518.4"/>
  </clipPath>
 </defs>
</svg>
