<?xml version="1.0" encoding="utf-8" standalone="no"?>
<!DOCTYPE svg PUBLIC "-//W3C//DTD SVG 1.1//EN"
  "http://www.w3.org/Graphics/SVG/1.1/DTD/svg11.dtd">
<svg xmlns:xlink="http://www.w3.org/1999/xlink" width="1152pt" height="576pt" viewBox="0 0 1152 576" xmlns="http://www.w3.org/2000/svg" version="1.1">
 <metadata>
  <rdf:RDF xmlns:dc="http://purl.org/dc/elements/1.1/" xmlns:cc="http://creativecommons.org/ns#" xmlns:rdf="http://www.w3.org/1999/02/22-rdf-syntax-ns#">
   <cc:Work>
    <dc:type rdf:resource="http://purl.org/dc/dcmitype/StillImage"/>
    <dc:date>2024-11-06T14:46:59.580218</dc:date>
    <dc:format>image/svg+xml</dc:format>
    <dc:creator>
     <cc:Agent>
      <dc:title>Matplotlib v3.9.2, https://matplotlib.org/</dc:title>
     </cc:Agent>
    </dc:creator>
   </cc:Work>
  </rdf:RDF>
 </metadata>
 <defs>
  <style type="text/css">*{stroke-linejoin: round; stroke-linecap: butt}</style>
 </defs>
 <g id="figure_1">
  <g id="patch_1">
   <path d="M 0 576 
L 1152 576 
L 1152 0 
L 0 0 
z
" style="fill: #ffffff"/>
  </g>
  <g id="patch_2">
   <path d="M 28.8 576 
L 547.2 576 
L 547.2 57.6 
L 28.8 57.6 
z
" style="fill: #ffffff"/>
  </g>
  <g id="pane3d_1">
   <g id="patch_3">
    <path d="M 130.07018 436.456468 
L 253.494133 330.550231 
L 251.743197 126.70673 
L 122.643358 223.613571 
" style="fill: #f2f2f2; opacity: 0.5; stroke: #f2f2f2; stroke-linejoin: miter"/>
   </g>
  </g>
  <g id="pane3d_2">
   <g id="patch_4">
    <path d="M 253.494133 330.550231 
L 455.554898 390.069341 
L 462.583588 181.103065 
L 251.743197 126.70673 
" style="fill: #e6e6e6; opacity: 0.5; stroke: #e6e6e6; stroke-linejoin: miter"/>
   </g>
  </g>
  <g id="pane3d_3">
   <g id="patch_5">
    <path d="M 130.07018 436.456468 
L 340.912731 504.076731 
L 455.554898 390.069341 
L 253.494133 330.550231 
" style="fill: #ececec; opacity: 0.5; stroke: #ececec; stroke-linejoin: miter"/>
   </g>
  </g>
  <g id="grid3d_1">
   <g id="Line3DCollection_1">
    <path d="M 148.107564 442.241318 
L 270.817434 335.65299 
L 269.793879 131.363764 
" style="fill: none; stroke: #b0b0b0; stroke-width: 0.8"/>
    <path d="M 204.73198 460.40159 
L 325.154862 351.658648 
L 326.443642 145.979273 
" style="fill: none; stroke: #b0b0b0; stroke-width: 0.8"/>
    <path d="M 262.543747 478.942662 
L 380.560935 367.979086 
L 384.255639 160.894634 
" style="fill: none; stroke: #b0b0b0; stroke-width: 0.8"/>
    <path d="M 321.580608 497.876639 
L 437.067491 384.623682 
L 443.266006 176.119173 
" style="fill: none; stroke: #b0b0b0; stroke-width: 0.8"/>
   </g>
  </g>
  <g id="grid3d_2">
   <g id="Line3DCollection_2">
    <path d="M 134.777648 214.505149 
L 141.642324 426.526772 
L 351.684419 493.364686 
" style="fill: none; stroke: #b0b0b0; stroke-width: 0.8"/>
    <path d="M 171.455878 186.973191 
L 176.657452 396.481386 
L 384.248591 460.980823 
" style="fill: none; stroke: #b0b0b0; stroke-width: 0.8"/>
    <path d="M 206.831169 160.419264 
L 210.480196 367.459145 
L 415.662622 429.740732 
" style="fill: none; stroke: #b0b0b0; stroke-width: 0.8"/>
    <path d="M 240.971738 134.792162 
L 243.170446 339.408664 
L 445.986389 399.584868 
" style="fill: none; stroke: #b0b0b0; stroke-width: 0.8"/>
   </g>
  </g>
  <g id="grid3d_3">
   <g id="Line3DCollection_3">
    <path d="M 455.814548 382.349836 
L 253.429355 323.008841 
L 129.796139 428.602811 
" style="fill: none; stroke: #b0b0b0; stroke-width: 0.8"/>
    <path d="M 456.546599 360.585599 
L 253.246762 301.751381 
L 129.023382 406.456613 
" style="fill: none; stroke: #b0b0b0; stroke-width: 0.8"/>
    <path d="M 457.285346 338.622302 
L 253.062558 280.306381 
L 128.243362 384.102266 
" style="fill: none; stroke: #b0b0b0; stroke-width: 0.8"/>
    <path d="M 458.030881 316.4572 
L 252.876721 258.671348 
L 127.455975 361.536822 
" style="fill: none; stroke: #b0b0b0; stroke-width: 0.8"/>
    <path d="M 458.783297 294.0875 
L 252.689231 236.843744 
L 126.661119 338.757276 
" style="fill: none; stroke: #b0b0b0; stroke-width: 0.8"/>
    <path d="M 459.542691 271.510355 
L 252.500064 214.820988 
L 125.858684 315.760568 
" style="fill: none; stroke: #b0b0b0; stroke-width: 0.8"/>
    <path d="M 460.30916 248.722867 
L 252.309198 192.60045 
L 125.048563 292.543575 
" style="fill: none; stroke: #b0b0b0; stroke-width: 0.8"/>
    <path d="M 461.082804 225.722082 
L 252.116611 170.179455 
L 124.230645 269.103119 
" style="fill: none; stroke: #b0b0b0; stroke-width: 0.8"/>
    <path d="M 461.863723 202.504991 
L 251.922278 147.555276 
L 123.404816 245.435957 
" style="fill: none; stroke: #b0b0b0; stroke-width: 0.8"/>
   </g>
  </g>
  <g id="axis3d_1">
   <g id="line2d_1">
    <path d="M 130.07018 436.456468 
L 340.912731 504.076731 
" style="fill: none; stroke: #000000; stroke-width: 0.8; stroke-linecap: square"/>
   </g>
   <g id="xtick_1">
    <g id="line2d_2">
     <path d="M 149.15236 441.333787 
L 146.014717 444.059209 
" style="fill: none; stroke: #000000; stroke-width: 0.8; stroke-linecap: square"/>
    </g>
    <g id="text_1">
     <!-- 00 -->
     <g transform="translate(120.823877 485.959845) rotate(-45) scale(0.21 -0.21)">
      <defs>
       <path id="DejaVuSans-30" d="M 2034 4250 
Q 1547 4250 1301 3770 
Q 1056 3291 1056 2328 
Q 1056 1369 1301 889 
Q 1547 409 2034 409 
Q 2525 409 2770 889 
Q 3016 1369 3016 2328 
Q 3016 3291 2770 3770 
Q 2525 4250 2034 4250 
z
M 2034 4750 
Q 2819 4750 3233 4129 
Q 3647 3509 3647 2328 
Q 3647 1150 3233 529 
Q 2819 -91 2034 -91 
Q 1250 -91 836 529 
Q 422 1150 422 2328 
Q 422 3509 836 4129 
Q 1250 4750 2034 4750 
z
" transform="scale(0.015625)"/>
      </defs>
      <use xlink:href="#DejaVuSans-30"/>
      <use xlink:href="#DejaVuSans-30" x="63.623047"/>
     </g>
    </g>
   </g>
   <g id="xtick_2">
    <g id="line2d_3">
     <path d="M 205.757946 459.475133 
L 202.676818 462.257419 
" style="fill: none; stroke: #000000; stroke-width: 0.8; stroke-linecap: square"/>
    </g>
    <g id="text_2">
     <!-- 01 -->
     <g transform="translate(177.445975 504.27764) rotate(-45) scale(0.21 -0.21)">
      <defs>
       <path id="DejaVuSans-31" d="M 794 531 
L 1825 531 
L 1825 4091 
L 703 3866 
L 703 4441 
L 1819 4666 
L 2450 4666 
L 2450 531 
L 3481 531 
L 3481 0 
L 794 0 
L 794 531 
z
" transform="scale(0.015625)"/>
      </defs>
      <use xlink:href="#DejaVuSans-30"/>
      <use xlink:href="#DejaVuSans-31" x="63.623047"/>
     </g>
    </g>
   </g>
   <g id="xtick_3">
    <g id="line2d_4">
     <path d="M 263.54986 477.996682 
L 260.528321 480.837631 
" style="fill: none; stroke: #000000; stroke-width: 0.8; stroke-linecap: square"/>
    </g>
    <g id="text_3">
     <!-- 10 -->
     <g transform="translate(235.256492 522.9799) rotate(-45) scale(0.21 -0.21)">
      <use xlink:href="#DejaVuSans-31"/>
      <use xlink:href="#DejaVuSans-30" x="63.623047"/>
     </g>
    </g>
   </g>
   <g id="xtick_4">
    <g id="line2d_5">
     <path d="M 322.565792 496.910512 
L 319.607072 499.811999 
" style="fill: none; stroke: #000000; stroke-width: 0.8; stroke-linecap: square"/>
    </g>
    <g id="text_4">
     <!-- 11 -->
     <g transform="translate(294.293241 542.078858) rotate(-45) scale(0.21 -0.21)">
      <use xlink:href="#DejaVuSans-31"/>
      <use xlink:href="#DejaVuSans-31" x="63.623047"/>
     </g>
    </g>
   </g>
  </g>
  <g id="axis3d_2">
   <g id="line2d_6">
    <path d="M 455.554898 390.069341 
L 340.912731 504.076731 
" style="fill: none; stroke: #000000; stroke-width: 0.8; stroke-linecap: square"/>
   </g>
   <g id="xtick_5">
    <g id="line2d_7">
     <path d="M 349.939872 492.809551 
L 355.176743 494.475986 
" style="fill: none; stroke: #000000; stroke-width: 0.8; stroke-linecap: square"/>
    </g>
    <g id="text_5">
     <!-- 00 -->
     <g transform="translate(362.536948 505.408703) rotate(-337.5) scale(0.21 -0.21)">
      <use xlink:href="#DejaVuSans-30"/>
      <use xlink:href="#DejaVuSans-30" x="63.623047"/>
     </g>
    </g>
   </g>
   <g id="xtick_6">
    <g id="line2d_8">
     <path d="M 382.525541 460.445465 
L 387.697822 462.052514 
" style="fill: none; stroke: #000000; stroke-width: 0.8; stroke-linecap: square"/>
    </g>
    <g id="text_6">
     <!-- 01 -->
     <g transform="translate(394.927992 472.820772) rotate(-337.5) scale(0.21 -0.21)">
      <use xlink:href="#DejaVuSans-30"/>
      <use xlink:href="#DejaVuSans-31" x="63.623047"/>
     </g>
    </g>
   </g>
   <g id="xtick_7">
    <g id="line2d_9">
     <path d="M 413.960652 429.224112 
L 419.0696 430.774895 
" style="fill: none; stroke: #000000; stroke-width: 0.8; stroke-linecap: square"/>
    </g>
    <g id="text_7">
     <!-- 10 -->
     <g transform="translate(426.175291 441.383538) rotate(-337.5) scale(0.21 -0.21)">
      <use xlink:href="#DejaVuSans-31"/>
      <use xlink:href="#DejaVuSans-30" x="63.623047"/>
     </g>
    </g>
   </g>
   <g id="xtick_8">
    <g id="line2d_10">
     <path d="M 444.305087 399.08602 
L 449.351944 400.58344 
" style="fill: none; stroke: #000000; stroke-width: 0.8; stroke-linecap: square"/>
    </g>
    <g id="text_8">
     <!-- 11 -->
     <g transform="translate(456.338373 411.037112) rotate(-337.5) scale(0.21 -0.21)">
      <use xlink:href="#DejaVuSans-31"/>
      <use xlink:href="#DejaVuSans-31" x="63.623047"/>
     </g>
    </g>
   </g>
  </g>
  <g id="axis3d_3">
   <g id="line2d_11">
    <path d="M 455.554898 390.069341 
L 462.583588 181.103065 
" style="fill: none; stroke: #000000; stroke-width: 0.8; stroke-linecap: square"/>
   </g>
   <g id="xtick_9">
    <g id="line2d_12">
     <path d="M 454.137048 381.857979 
L 459.172477 383.334408 
" style="fill: none; stroke: #000000; stroke-width: 0.8; stroke-linecap: square"/>
    </g>
    <g id="text_9">
     <!-- 0.075 -->
     <g transform="translate(469.315368 376.0671) scale(0.21 -0.21)">
      <defs>
       <path id="DejaVuSans-2e" d="M 684 794 
L 1344 794 
L 1344 0 
L 684 0 
L 684 794 
z
" transform="scale(0.015625)"/>
       <path id="DejaVuSans-37" d="M 525 4666 
L 3525 4666 
L 3525 4397 
L 1831 0 
L 1172 0 
L 2766 4134 
L 525 4134 
L 525 4666 
z
" transform="scale(0.015625)"/>
       <path id="DejaVuSans-35" d="M 691 4666 
L 3169 4666 
L 3169 4134 
L 1269 4134 
L 1269 2991 
Q 1406 3038 1543 3061 
Q 1681 3084 1819 3084 
Q 2600 3084 3056 2656 
Q 3513 2228 3513 1497 
Q 3513 744 3044 326 
Q 2575 -91 1722 -91 
Q 1428 -91 1123 -41 
Q 819 9 494 109 
L 494 744 
Q 775 591 1075 516 
Q 1375 441 1709 441 
Q 2250 441 2565 725 
Q 2881 1009 2881 1497 
Q 2881 1984 2565 2268 
Q 2250 2553 1709 2553 
Q 1456 2553 1204 2497 
Q 953 2441 691 2322 
L 691 4666 
z
" transform="scale(0.015625)"/>
      </defs>
      <use xlink:href="#DejaVuSans-30"/>
      <use xlink:href="#DejaVuSans-2e" x="63.623047"/>
      <use xlink:href="#DejaVuSans-30" x="95.410156"/>
      <use xlink:href="#DejaVuSans-37" x="159.033203"/>
      <use xlink:href="#DejaVuSans-35" x="222.65625"/>
     </g>
    </g>
   </g>
   <g id="xtick_10">
    <g id="line2d_13">
     <path d="M 454.861252 360.097866 
L 459.920252 361.561922 
" style="fill: none; stroke: #000000; stroke-width: 0.8; stroke-linecap: square"/>
    </g>
    <g id="text_10">
     <!-- 0.100 -->
     <g transform="translate(470.107976 354.318927) scale(0.21 -0.21)">
      <use xlink:href="#DejaVuSans-30"/>
      <use xlink:href="#DejaVuSans-2e" x="63.623047"/>
      <use xlink:href="#DejaVuSans-31" x="95.410156"/>
      <use xlink:href="#DejaVuSans-30" x="159.033203"/>
      <use xlink:href="#DejaVuSans-30" x="222.65625"/>
     </g>
    </g>
   </g>
   <g id="xtick_11">
    <g id="line2d_14">
     <path d="M 455.592077 338.138788 
L 460.67487 339.590182 
" style="fill: none; stroke: #000000; stroke-width: 0.8; stroke-linecap: square"/>
    </g>
    <g id="text_11">
     <!-- 0.125 -->
     <g transform="translate(470.907825 332.372068) scale(0.21 -0.21)">
      <defs>
       <path id="DejaVuSans-32" d="M 1228 531 
L 3431 531 
L 3431 0 
L 469 0 
L 469 531 
Q 828 903 1448 1529 
Q 2069 2156 2228 2338 
Q 2531 2678 2651 2914 
Q 2772 3150 2772 3378 
Q 2772 3750 2511 3984 
Q 2250 4219 1831 4219 
Q 1534 4219 1204 4116 
Q 875 4013 500 3803 
L 500 4441 
Q 881 4594 1212 4672 
Q 1544 4750 1819 4750 
Q 2544 4750 2975 4387 
Q 3406 4025 3406 3419 
Q 3406 3131 3298 2873 
Q 3191 2616 2906 2266 
Q 2828 2175 2409 1742 
Q 1991 1309 1228 531 
z
" transform="scale(0.015625)"/>
      </defs>
      <use xlink:href="#DejaVuSans-30"/>
      <use xlink:href="#DejaVuSans-2e" x="63.623047"/>
      <use xlink:href="#DejaVuSans-31" x="95.410156"/>
      <use xlink:href="#DejaVuSans-32" x="159.033203"/>
      <use xlink:href="#DejaVuSans-35" x="222.65625"/>
     </g>
    </g>
   </g>
   <g id="xtick_12">
    <g id="line2d_15">
     <path d="M 456.329615 315.978004 
L 461.436426 317.416442 
" style="fill: none; stroke: #000000; stroke-width: 0.8; stroke-linecap: square"/>
    </g>
    <g id="text_12">
     <!-- 0.150 -->
     <g transform="translate(471.715015 310.223788) scale(0.21 -0.21)">
      <use xlink:href="#DejaVuSans-30"/>
      <use xlink:href="#DejaVuSans-2e" x="63.623047"/>
      <use xlink:href="#DejaVuSans-31" x="95.410156"/>
      <use xlink:href="#DejaVuSans-35" x="159.033203"/>
      <use xlink:href="#DejaVuSans-30" x="222.65625"/>
     </g>
    </g>
   </g>
   <g id="xtick_13">
    <g id="line2d_16">
     <path d="M 457.073959 293.612722 
L 462.205016 295.037901 
" style="fill: none; stroke: #000000; stroke-width: 0.8; stroke-linecap: square"/>
    </g>
    <g id="text_13">
     <!-- 0.175 -->
     <g transform="translate(472.529647 287.871299) scale(0.21 -0.21)">
      <use xlink:href="#DejaVuSans-30"/>
      <use xlink:href="#DejaVuSans-2e" x="63.623047"/>
      <use xlink:href="#DejaVuSans-31" x="95.410156"/>
      <use xlink:href="#DejaVuSans-37" x="159.033203"/>
      <use xlink:href="#DejaVuSans-35" x="222.65625"/>
     </g>
    </g>
   </g>
   <g id="xtick_14">
    <g id="line2d_17">
     <path d="M 457.825203 271.040098 
L 462.980738 272.451711 
" style="fill: none; stroke: #000000; stroke-width: 0.8; stroke-linecap: square"/>
    </g>
    <g id="text_14">
     <!-- 0.200 -->
     <g transform="translate(473.351825 265.311767) scale(0.21 -0.21)">
      <use xlink:href="#DejaVuSans-30"/>
      <use xlink:href="#DejaVuSans-2e" x="63.623047"/>
      <use xlink:href="#DejaVuSans-32" x="95.410156"/>
      <use xlink:href="#DejaVuSans-30" x="159.033203"/>
      <use xlink:href="#DejaVuSans-30" x="222.65625"/>
     </g>
    </g>
   </g>
   <g id="xtick_15">
    <g id="line2d_18">
     <path d="M 458.583445 248.257235 
L 463.763691 249.654966 
" style="fill: none; stroke: #000000; stroke-width: 0.8; stroke-linecap: square"/>
    </g>
    <g id="text_15">
     <!-- 0.225 -->
     <g transform="translate(474.181653 242.542299) scale(0.21 -0.21)">
      <use xlink:href="#DejaVuSans-30"/>
      <use xlink:href="#DejaVuSans-2e" x="63.623047"/>
      <use xlink:href="#DejaVuSans-32" x="95.410156"/>
      <use xlink:href="#DejaVuSans-32" x="159.033203"/>
      <use xlink:href="#DejaVuSans-35" x="222.65625"/>
     </g>
    </g>
   </g>
   <g id="xtick_16">
    <g id="line2d_19">
     <path d="M 459.348782 225.261183 
L 464.553977 226.64471 
" style="fill: none; stroke: #000000; stroke-width: 0.8; stroke-linecap: square"/>
    </g>
    <g id="text_16">
     <!-- 0.250 -->
     <g transform="translate(475.019241 219.559953) scale(0.21 -0.21)">
      <use xlink:href="#DejaVuSans-30"/>
      <use xlink:href="#DejaVuSans-2e" x="63.623047"/>
      <use xlink:href="#DejaVuSans-32" x="95.410156"/>
      <use xlink:href="#DejaVuSans-35" x="159.033203"/>
      <use xlink:href="#DejaVuSans-30" x="222.65625"/>
     </g>
    </g>
   </g>
   <g id="xtick_17">
    <g id="line2d_20">
     <path d="M 460.121314 202.048935 
L 465.3517 203.417928 
" style="fill: none; stroke: #000000; stroke-width: 0.8; stroke-linecap: square"/>
    </g>
    <g id="text_17">
     <!-- 0.275 -->
     <g transform="translate(475.864696 196.361729) scale(0.21 -0.21)">
      <use xlink:href="#DejaVuSans-30"/>
      <use xlink:href="#DejaVuSans-2e" x="63.623047"/>
      <use xlink:href="#DejaVuSans-32" x="95.410156"/>
      <use xlink:href="#DejaVuSans-37" x="159.033203"/>
      <use xlink:href="#DejaVuSans-35" x="222.65625"/>
     </g>
    </g>
   </g>
  </g>
  <g id="axes_1">
   <g id="Poly3DCollection_1">
    <path d="M 239.672925 403.003082 
L 255.534455 388.893119 
L 282.155927 397.010981 
L 266.440309 411.256833 
z
" clip-path="url(#p69aeff7c10)" style="fill: #3f599f"/>
    <path d="M 255.534455 388.893119 
L 255.078115 333.694447 
L 282.00665 341.639487 
L 282.155927 397.010981 
z
" clip-path="url(#p69aeff7c10)" style="fill: #324880"/>
    <path d="M 239.672925 403.003082 
L 239.027822 347.504584 
L 255.078115 333.694447 
L 255.534455 388.893119 
z
" clip-path="url(#p69aeff7c10)" style="fill: #648fff"/>
    <path d="M 266.440309 411.256833 
L 282.155927 397.010981 
L 282.00665 341.639487 
L 266.105652 355.584181 
z
" clip-path="url(#p69aeff7c10)" style="fill: #324880"/>
    <path d="M 293.467186 419.5906 
L 309.033329 405.206885 
L 336.170371 413.481963 
L 320.75735 428.005551 
z
" clip-path="url(#p69aeff7c10)" style="fill: #3f599f"/>
    <path d="M 239.672925 403.003082 
L 266.440309 411.256833 
L 266.105652 355.584181 
L 239.027822 347.504584 
z
" clip-path="url(#p69aeff7c10)" style="fill: #648fff"/>
    <path d="M 309.033329 405.206885 
L 309.197089 349.661799 
L 336.653273 357.762517 
L 336.170371 413.481963 
z
" clip-path="url(#p69aeff7c10)" style="fill: #324880"/>
    <path d="M 239.027822 347.504584 
L 266.105652 355.584181 
L 282.00665 341.639487 
L 255.078115 333.694447 
z
" clip-path="url(#p69aeff7c10)" style="fill: #577ddf"/>
    <path d="M 293.467186 419.5906 
L 293.449077 363.743028 
L 309.197089 349.661799 
L 309.033329 405.206885 
z
" clip-path="url(#p69aeff7c10)" style="fill: #648fff"/>
    <path d="M 207.14515 431.938857 
L 223.545406 417.34966 
L 250.459866 425.742742 
L 234.207849 440.474828 
z
" clip-path="url(#p69aeff7c10)" style="fill: #3f599f"/>
    <path d="M 320.75735 428.005551 
L 336.170371 413.481963 
L 336.653273 357.762517 
L 321.062023 371.982295 
z
" clip-path="url(#p69aeff7c10)" style="fill: #324880"/>
    <path d="M 223.545406 417.34966 
L 222.70521 361.549033 
L 249.933541 369.766635 
L 250.459866 425.742742 
z
" clip-path="url(#p69aeff7c10)" style="fill: #324880"/>
    <path d="M 348.314666 436.502879 
L 363.570833 421.837368 
L 391.238569 430.274274 
L 376.143077 445.083799 
z
" clip-path="url(#p69aeff7c10)" style="fill: #3f599f"/>
    <path d="M 293.467186 419.5906 
L 320.75735 428.005551 
L 321.062023 371.982295 
L 293.449077 363.743028 
z
" clip-path="url(#p69aeff7c10)" style="fill: #648fff"/>
    <path d="M 207.14515 431.938857 
L 206.103289 375.833807 
L 222.70521 361.549033 
L 223.545406 417.34966 
z
" clip-path="url(#p69aeff7c10)" style="fill: #648fff"/>
    <path d="M 293.449077 363.743028 
L 321.062023 371.982295 
L 336.653273 357.762517 
L 309.197089 349.661799 
z
" clip-path="url(#p69aeff7c10)" style="fill: #577ddf"/>
    <path d="M 234.207849 440.474828 
L 250.459866 425.742742 
L 249.933541 369.766635 
L 233.483323 384.192981 
z
" clip-path="url(#p69aeff7c10)" style="fill: #324880"/>
    <path d="M 261.537386 449.094963 
L 277.637456 434.217879 
L 305.082053 442.77628 
L 289.137726 457.800513 
z
" clip-path="url(#p69aeff7c10)" style="fill: #3f599f"/>
    <path d="M 207.14515 431.938857 
L 234.207849 440.474828 
L 233.483323 384.192981 
L 206.103289 375.833807 
z
" clip-path="url(#p69aeff7c10)" style="fill: #648fff"/>
    <path d="M 277.637456 434.217879 
L 277.431231 378.065531 
L 305.202296 386.446932 
L 305.082053 442.77628 
z
" clip-path="url(#p69aeff7c10)" style="fill: #324880"/>
    <path d="M 206.103289 375.833807 
L 233.483323 384.192981 
L 249.933541 369.766635 
L 222.70521 361.549033 
z
" clip-path="url(#p69aeff7c10)" style="fill: #577ddf"/>
    <path d="M 404.246602 453.749551 
L 419.177509 438.79388 
L 447.391661 447.397408 
L 432.629341 462.501399 
z
" clip-path="url(#p69aeff7c10)" style="fill: #3f599f"/>
    <path d="M 261.537386 449.094963 
L 261.136557 392.635562 
L 277.431231 378.065531 
L 277.637456 434.217879 
z
" clip-path="url(#p69aeff7c10)" style="fill: #648fff"/>
    <path d="M 363.570833 421.837368 
L 366.105249 246.577098 
L 394.813675 254.440907 
L 391.238569 430.274274 
z
" clip-path="url(#p69aeff7c10)" style="fill: #324880"/>
    <path d="M 173.498279 461.870148 
L 190.46518 446.77688 
L 217.677275 455.459419 
L 200.86092 470.703064 
z
" clip-path="url(#p69aeff7c10)" style="fill: #3f599f"/>
    <path d="M 289.137726 457.800513 
L 305.082053 442.77628 
L 305.202296 386.446932 
L 289.0671 401.162807 
z
" clip-path="url(#p69aeff7c10)" style="fill: #324880"/>
    <path d="M 348.314666 436.502879 
L 350.30249 260.248238 
L 366.105249 246.577098 
L 363.570833 421.837368 
z
" clip-path="url(#p69aeff7c10)" style="fill: #648fff"/>
    <path d="M 317.012916 466.592755 
L 332.797611 451.419178 
L 360.788162 460.147832 
L 345.16708 475.47299 
z
" clip-path="url(#p69aeff7c10)" style="fill: #3f599f"/>
    <path d="M 261.537386 449.094963 
L 289.137726 457.800513 
L 289.0671 401.162807 
L 261.136557 392.635562 
z
" clip-path="url(#p69aeff7c10)" style="fill: #648fff"/>
    <path d="M 261.136557 392.635562 
L 289.0671 401.162807 
L 305.202296 386.446932 
L 277.431231 378.065531 
z
" clip-path="url(#p69aeff7c10)" style="fill: #577ddf"/>
    <path d="M 376.143077 445.083799 
L 391.238569 430.274274 
L 394.813675 254.440907 
L 379.184021 268.251319 
z
" clip-path="url(#p69aeff7c10)" style="fill: #324880"/>
    <path d="M 348.314666 436.502879 
L 376.143077 445.083799 
L 379.184021 268.251319 
L 350.30249 260.248238 
z
" clip-path="url(#p69aeff7c10)" style="fill: #648fff"/>
    <path d="M 419.177509 438.79388 
L 423.814012 262.384676 
L 453.110738 270.409632 
L 447.391661 447.397408 
z
" clip-path="url(#p69aeff7c10)" style="fill: #324880"/>
    <path d="M 228.498043 479.624586 
L 245.159991 464.228306 
L 272.917385 473.084834 
L 256.4138 488.636053 
z
" clip-path="url(#p69aeff7c10)" style="fill: #3f599f"/>
    <path d="M 404.246602 453.749551 
L 408.361833 276.336499 
L 423.814012 262.384676 
L 419.177509 438.79388 
z
" clip-path="url(#p69aeff7c10)" style="fill: #648fff"/>
    <path d="M 373.604428 484.442545 
L 389.057821 468.963522 
L 417.610782 477.867559 
L 402.329255 493.502775 
z
" clip-path="url(#p69aeff7c10)" style="fill: #3f599f"/>
    <path d="M 432.629341 462.501399 
L 447.391661 447.397408 
L 453.110738 270.409632 
L 437.84051 284.505049 
z
" clip-path="url(#p69aeff7c10)" style="fill: #324880"/>
    <path d="M 332.797611 451.419178 
L 334.219329 274.161958 
L 363.275608 282.308043 
L 360.788162 460.147832 
z
" clip-path="url(#p69aeff7c10)" style="fill: #324880"/>
    <path d="M 138.673549 492.849229 
L 156.236979 477.225306 
L 183.751309 486.212539 
L 166.340703 501.994859 
z
" clip-path="url(#p69aeff7c10)" style="fill: #3f599f"/>
    <path d="M 404.246602 453.749551 
L 432.629341 462.501399 
L 437.84051 284.505049 
L 408.361833 276.336499 
z
" clip-path="url(#p69aeff7c10)" style="fill: #648fff"/>
    <path d="M 317.012916 466.592755 
L 317.848235 288.324771 
L 334.219329 274.161958 
L 332.797611 451.419178 
z
" clip-path="url(#p69aeff7c10)" style="fill: #648fff"/>
    <path d="M 284.612426 497.738833 
L 300.953597 482.030324 
L 329.272849 491.066123 
L 313.098241 506.934321 
z
" clip-path="url(#p69aeff7c10)" style="fill: #3f599f"/>
    <path d="M 300.953597 482.030324 
L 301.026187 424.901676 
L 329.693176 433.7564 
L 329.272849 491.066123 
z
" clip-path="url(#p69aeff7c10)" style="fill: #324880"/>
    <path d="M 350.30249 260.248238 
L 379.184021 268.251319 
L 394.813675 254.440907 
L 366.105249 246.577098 
z
" clip-path="url(#p69aeff7c10)" style="fill: #577ddf"/>
    <path d="M 190.46518 446.77688 
L 184.582584 181.373812 
L 213.303186 189.160028 
L 217.677275 455.459419 
z
" clip-path="url(#p69aeff7c10)" style="fill: #324880"/>
    <path d="M 284.612426 497.738833 
L 284.484466 440.296092 
L 301.026187 424.901676 
L 300.953597 482.030324 
z
" clip-path="url(#p69aeff7c10)" style="fill: #648fff"/>
    <path d="M 345.16708 475.47299 
L 360.788162 460.147832 
L 363.275608 282.308043 
L 347.080912 296.617728 
z
" clip-path="url(#p69aeff7c10)" style="fill: #324880"/>
    <path d="M 173.498279 461.870148 
L 166.598788 194.911743 
L 184.582584 181.373812 
L 190.46518 446.77688 
z
" clip-path="url(#p69aeff7c10)" style="fill: #648fff"/>
    <path d="M 317.012916 466.592755 
L 345.16708 475.47299 
L 347.080912 296.617728 
L 317.848235 288.324771 
z
" clip-path="url(#p69aeff7c10)" style="fill: #648fff"/>
    <path d="M 389.057821 468.963522 
L 392.632634 290.538444 
L 422.2951 298.854476 
L 417.610782 477.867559 
z
" clip-path="url(#p69aeff7c10)" style="fill: #324880"/>
    <path d="M 194.290301 511.233854 
L 211.544062 495.290716 
L 239.619485 504.461225 
L 222.526691 520.567651 
z
" clip-path="url(#p69aeff7c10)" style="fill: #3f599f"/>
    <path d="M 313.098241 506.934321 
L 329.272849 491.066123 
L 329.693176 433.7564 
L 313.322151 449.309245 
z
" clip-path="url(#p69aeff7c10)" style="fill: #324880"/>
    <path d="M 373.604428 484.442545 
L 376.618899 304.997297 
L 392.632634 290.538444 
L 389.057821 468.963522 
z
" clip-path="url(#p69aeff7c10)" style="fill: #648fff"/>
    <path d="M 341.875657 516.223939 
L 357.879448 500.193606 
L 386.77779 509.414175 
L 370.949173 525.609142 
z
" clip-path="url(#p69aeff7c10)" style="fill: #3f599f"/>
    <path d="M 200.86092 470.703064 
L 217.677275 455.459419 
L 213.303186 189.160028 
L 195.486949 202.840524 
z
" clip-path="url(#p69aeff7c10)" style="fill: #324880"/>
    <path d="M 284.612426 497.738833 
L 313.098241 506.934321 
L 313.322151 449.309245 
L 284.484466 440.296092 
z
" clip-path="url(#p69aeff7c10)" style="fill: #648fff"/>
    <path d="M 357.879448 500.193606 
L 358.654626 442.702079 
L 387.915099 451.740121 
L 386.77779 509.414175 
z
" clip-path="url(#p69aeff7c10)" style="fill: #324880"/>
    <path d="M 284.484466 440.296092 
L 313.322151 449.309245 
L 329.693176 433.7564 
L 301.026187 424.901676 
z
" clip-path="url(#p69aeff7c10)" style="fill: #577ddf"/>
    <path d="M 408.361833 276.336499 
L 437.84051 284.505049 
L 453.110738 270.409632 
L 423.814012 262.384676 
z
" clip-path="url(#p69aeff7c10)" style="fill: #577ddf"/>
    <path d="M 173.498279 461.870148 
L 200.86092 470.703064 
L 195.486949 202.840524 
L 166.598788 194.911743 
z
" clip-path="url(#p69aeff7c10)" style="fill: #648fff"/>
    <path d="M 245.159991 464.228306 
L 242.325653 197.02808 
L 271.654769 204.979265 
L 272.917385 473.084834 
z
" clip-path="url(#p69aeff7c10)" style="fill: #324880"/>
    <path d="M 341.875657 516.223939 
L 342.45871 458.415811 
L 358.654626 442.702079 
L 357.879448 500.193606 
z
" clip-path="url(#p69aeff7c10)" style="fill: #648fff"/>
    <path d="M 402.329255 493.502775 
L 417.610782 477.867559 
L 422.2951 298.854476 
L 406.467002 313.464843 
z
" clip-path="url(#p69aeff7c10)" style="fill: #324880"/>
    <path d="M 228.498043 479.624586 
L 224.681525 210.853405 
L 242.325653 197.02808 
L 245.159991 464.228306 
z
" clip-path="url(#p69aeff7c10)" style="fill: #648fff"/>
    <path d="M 373.604428 484.442545 
L 402.329255 493.502775 
L 406.467002 313.464843 
L 376.618899 304.997297 
z
" clip-path="url(#p69aeff7c10)" style="fill: #648fff"/>
    <path d="M 251.054311 529.997717 
L 267.981914 513.72548 
L 296.635772 523.084927 
L 279.877688 539.525548 
z
" clip-path="url(#p69aeff7c10)" style="fill: #3f599f"/>
    <path d="M 370.949173 525.609142 
L 386.77779 509.414175 
L 387.915099 451.740121 
L 371.898814 467.617249 
z
" clip-path="url(#p69aeff7c10)" style="fill: #324880"/>
    <path d="M 267.981914 513.72548 
L 267.646216 455.96647 
L 296.656131 465.142342 
L 296.635772 523.084927 
z
" clip-path="url(#p69aeff7c10)" style="fill: #324880"/>
    <path d="M 317.848235 288.324771 
L 347.080912 296.617728 
L 363.275608 282.308043 
L 334.219329 274.161958 
z
" clip-path="url(#p69aeff7c10)" style="fill: #577ddf"/>
    <path d="M 256.4138 488.636053 
L 272.917385 473.084834 
L 271.654769 204.979265 
L 254.187417 218.951731 
z
" clip-path="url(#p69aeff7c10)" style="fill: #324880"/>
    <path d="M 341.875657 516.223939 
L 370.949173 525.609142 
L 371.898814 467.617249 
L 342.45871 458.415811 
z
" clip-path="url(#p69aeff7c10)" style="fill: #648fff"/>
    <path d="M 156.236979 477.225306 
L 148.285067 208.698036 
L 177.342121 216.773334 
L 183.751309 486.212539 
z
" clip-path="url(#p69aeff7c10)" style="fill: #324880"/>
    <path d="M 251.054311 529.997717 
L 250.503391 471.920298 
L 267.646216 455.96647 
L 267.981914 513.72548 
z
" clip-path="url(#p69aeff7c10)" style="fill: #648fff"/>
    <path d="M 342.45871 458.415811 
L 371.898814 467.617249 
L 387.915099 451.740121 
L 358.654626 442.702079 
z
" clip-path="url(#p69aeff7c10)" style="fill: #577ddf"/>
    <path d="M 228.498043 479.624586 
L 256.4138 488.636053 
L 254.187417 218.951731 
L 224.681525 210.853405 
z
" clip-path="url(#p69aeff7c10)" style="fill: #648fff"/>
    <path d="M 138.673549 492.849229 
L 129.632258 222.73959 
L 148.285067 208.698036 
L 156.236979 477.225306 
z
" clip-path="url(#p69aeff7c10)" style="fill: #648fff"/>
    <path d="M 279.877688 539.525548 
L 296.635772 523.084927 
L 296.656131 465.142342 
L 279.68707 481.263335 
z
" clip-path="url(#p69aeff7c10)" style="fill: #324880"/>
    <path d="M 309.001447 549.152672 
L 325.585574 532.54104 
L 354.835928 542.095325 
L 338.430307 558.880651 
z
" clip-path="url(#p69aeff7c10)" style="fill: #3f599f"/>
    <path d="M 166.340703 501.994859 
L 183.751309 486.212539 
L 177.342121 216.773334 
L 158.859526 230.965504 
z
" clip-path="url(#p69aeff7c10)" style="fill: #324880"/>
    <path d="M 251.054311 529.997717 
L 279.877688 539.525548 
L 279.68707 481.263335 
L 250.503391 471.920298 
z
" clip-path="url(#p69aeff7c10)" style="fill: #648fff"/>
    <path d="M 325.585574 532.54104 
L 325.969428 474.414174 
L 355.590891 483.78348 
L 354.835928 542.095325 
z
" clip-path="url(#p69aeff7c10)" style="fill: #324880"/>
    <path d="M 250.503391 471.920298 
L 279.68707 481.263335 
L 296.656131 465.142342 
L 267.646216 455.96647 
z
" clip-path="url(#p69aeff7c10)" style="fill: #577ddf"/>
    <path d="M 376.618899 304.997297 
L 406.467002 313.464843 
L 422.2951 298.854476 
L 392.632634 290.538444 
z
" clip-path="url(#p69aeff7c10)" style="fill: #577ddf"/>
    <path d="M 138.673549 492.849229 
L 166.340703 501.994859 
L 158.859526 230.965504 
L 129.632258 222.73959 
z
" clip-path="url(#p69aeff7c10)" style="fill: #648fff"/>
    <path d="M 211.544062 495.290716 
L 206.710238 224.93508 
L 236.394441 233.18467 
L 239.619485 504.461225 
z
" clip-path="url(#p69aeff7c10)" style="fill: #324880"/>
    <path d="M 309.001447 549.152672 
L 309.178736 490.704974 
L 325.969428 474.414174 
L 325.585574 532.54104 
z
" clip-path="url(#p69aeff7c10)" style="fill: #648fff"/>
    <path d="M 194.290301 511.233854 
L 188.402608 239.280302 
L 206.710238 224.93508 
L 211.544062 495.290716 
z
" clip-path="url(#p69aeff7c10)" style="fill: #648fff"/>
    <path d="M 166.598788 194.911743 
L 195.486949 202.840524 
L 213.303186 189.160028 
L 184.582584 181.373812 
z
" clip-path="url(#p69aeff7c10)" style="fill: #577ddf"/>
    <path d="M 338.430307 558.880651 
L 354.835928 542.095325 
L 355.590891 483.78348 
L 338.983293 500.246783 
z
" clip-path="url(#p69aeff7c10)" style="fill: #324880"/>
    <path d="M 222.526691 520.567651 
L 239.619485 504.461225 
L 236.394441 233.18467 
L 218.266651 247.685434 
z
" clip-path="url(#p69aeff7c10)" style="fill: #324880"/>
    <path d="M 309.001447 549.152672 
L 338.430307 558.880651 
L 338.983293 500.246783 
L 309.178736 490.704974 
z
" clip-path="url(#p69aeff7c10)" style="fill: #648fff"/>
    <path d="M 309.178736 490.704974 
L 338.983293 500.246783 
L 355.590891 483.78348 
L 325.969428 474.414174 
z
" clip-path="url(#p69aeff7c10)" style="fill: #577ddf"/>
    <path d="M 194.290301 511.233854 
L 222.526691 520.567651 
L 218.266651 247.685434 
L 188.402608 239.280302 
z
" clip-path="url(#p69aeff7c10)" style="fill: #648fff"/>
    <path d="M 224.681525 210.853405 
L 254.187417 218.951731 
L 271.654769 204.979265 
L 242.325653 197.02808 
z
" clip-path="url(#p69aeff7c10)" style="fill: #577ddf"/>
    <path d="M 129.632258 222.73959 
L 158.859526 230.965504 
L 177.342121 216.773334 
L 148.285067 208.698036 
z
" clip-path="url(#p69aeff7c10)" style="fill: #577ddf"/>
    <path d="M 188.402608 239.280302 
L 218.266651 247.685434 
L 236.394441 233.18467 
L 206.710238 224.93508 
z
" clip-path="url(#p69aeff7c10)" style="fill: #577ddf"/>
   </g>
   <g id="text_18">
    <!-- Real Amplitude (ρ) -->
    <g transform="translate(190.023516 51.6) scale(0.21 -0.21)">
     <defs>
      <path id="DejaVuSans-52" d="M 2841 2188 
Q 3044 2119 3236 1894 
Q 3428 1669 3622 1275 
L 4263 0 
L 3584 0 
L 2988 1197 
Q 2756 1666 2539 1819 
Q 2322 1972 1947 1972 
L 1259 1972 
L 1259 0 
L 628 0 
L 628 4666 
L 2053 4666 
Q 2853 4666 3247 4331 
Q 3641 3997 3641 3322 
Q 3641 2881 3436 2590 
Q 3231 2300 2841 2188 
z
M 1259 4147 
L 1259 2491 
L 2053 2491 
Q 2509 2491 2742 2702 
Q 2975 2913 2975 3322 
Q 2975 3731 2742 3939 
Q 2509 4147 2053 4147 
L 1259 4147 
z
" transform="scale(0.015625)"/>
      <path id="DejaVuSans-65" d="M 3597 1894 
L 3597 1613 
L 953 1613 
Q 991 1019 1311 708 
Q 1631 397 2203 397 
Q 2534 397 2845 478 
Q 3156 559 3463 722 
L 3463 178 
Q 3153 47 2828 -22 
Q 2503 -91 2169 -91 
Q 1331 -91 842 396 
Q 353 884 353 1716 
Q 353 2575 817 3079 
Q 1281 3584 2069 3584 
Q 2775 3584 3186 3129 
Q 3597 2675 3597 1894 
z
M 3022 2063 
Q 3016 2534 2758 2815 
Q 2500 3097 2075 3097 
Q 1594 3097 1305 2825 
Q 1016 2553 972 2059 
L 3022 2063 
z
" transform="scale(0.015625)"/>
      <path id="DejaVuSans-61" d="M 2194 1759 
Q 1497 1759 1228 1600 
Q 959 1441 959 1056 
Q 959 750 1161 570 
Q 1363 391 1709 391 
Q 2188 391 2477 730 
Q 2766 1069 2766 1631 
L 2766 1759 
L 2194 1759 
z
M 3341 1997 
L 3341 0 
L 2766 0 
L 2766 531 
Q 2569 213 2275 61 
Q 1981 -91 1556 -91 
Q 1019 -91 701 211 
Q 384 513 384 1019 
Q 384 1609 779 1909 
Q 1175 2209 1959 2209 
L 2766 2209 
L 2766 2266 
Q 2766 2663 2505 2880 
Q 2244 3097 1772 3097 
Q 1472 3097 1187 3025 
Q 903 2953 641 2809 
L 641 3341 
Q 956 3463 1253 3523 
Q 1550 3584 1831 3584 
Q 2591 3584 2966 3190 
Q 3341 2797 3341 1997 
z
" transform="scale(0.015625)"/>
      <path id="DejaVuSans-6c" d="M 603 4863 
L 1178 4863 
L 1178 0 
L 603 0 
L 603 4863 
z
" transform="scale(0.015625)"/>
      <path id="DejaVuSans-20" transform="scale(0.015625)"/>
      <path id="DejaVuSans-41" d="M 2188 4044 
L 1331 1722 
L 3047 1722 
L 2188 4044 
z
M 1831 4666 
L 2547 4666 
L 4325 0 
L 3669 0 
L 3244 1197 
L 1141 1197 
L 716 0 
L 50 0 
L 1831 4666 
z
" transform="scale(0.015625)"/>
      <path id="DejaVuSans-6d" d="M 3328 2828 
Q 3544 3216 3844 3400 
Q 4144 3584 4550 3584 
Q 5097 3584 5394 3201 
Q 5691 2819 5691 2113 
L 5691 0 
L 5113 0 
L 5113 2094 
Q 5113 2597 4934 2840 
Q 4756 3084 4391 3084 
Q 3944 3084 3684 2787 
Q 3425 2491 3425 1978 
L 3425 0 
L 2847 0 
L 2847 2094 
Q 2847 2600 2669 2842 
Q 2491 3084 2119 3084 
Q 1678 3084 1418 2786 
Q 1159 2488 1159 1978 
L 1159 0 
L 581 0 
L 581 3500 
L 1159 3500 
L 1159 2956 
Q 1356 3278 1631 3431 
Q 1906 3584 2284 3584 
Q 2666 3584 2933 3390 
Q 3200 3197 3328 2828 
z
" transform="scale(0.015625)"/>
      <path id="DejaVuSans-70" d="M 1159 525 
L 1159 -1331 
L 581 -1331 
L 581 3500 
L 1159 3500 
L 1159 2969 
Q 1341 3281 1617 3432 
Q 1894 3584 2278 3584 
Q 2916 3584 3314 3078 
Q 3713 2572 3713 1747 
Q 3713 922 3314 415 
Q 2916 -91 2278 -91 
Q 1894 -91 1617 61 
Q 1341 213 1159 525 
z
M 3116 1747 
Q 3116 2381 2855 2742 
Q 2594 3103 2138 3103 
Q 1681 3103 1420 2742 
Q 1159 2381 1159 1747 
Q 1159 1113 1420 752 
Q 1681 391 2138 391 
Q 2594 391 2855 752 
Q 3116 1113 3116 1747 
z
" transform="scale(0.015625)"/>
      <path id="DejaVuSans-69" d="M 603 3500 
L 1178 3500 
L 1178 0 
L 603 0 
L 603 3500 
z
M 603 4863 
L 1178 4863 
L 1178 4134 
L 603 4134 
L 603 4863 
z
" transform="scale(0.015625)"/>
      <path id="DejaVuSans-74" d="M 1172 4494 
L 1172 3500 
L 2356 3500 
L 2356 3053 
L 1172 3053 
L 1172 1153 
Q 1172 725 1289 603 
Q 1406 481 1766 481 
L 2356 481 
L 2356 0 
L 1766 0 
Q 1100 0 847 248 
Q 594 497 594 1153 
L 594 3053 
L 172 3053 
L 172 3500 
L 594 3500 
L 594 4494 
L 1172 4494 
z
" transform="scale(0.015625)"/>
      <path id="DejaVuSans-75" d="M 544 1381 
L 544 3500 
L 1119 3500 
L 1119 1403 
Q 1119 906 1312 657 
Q 1506 409 1894 409 
Q 2359 409 2629 706 
Q 2900 1003 2900 1516 
L 2900 3500 
L 3475 3500 
L 3475 0 
L 2900 0 
L 2900 538 
Q 2691 219 2414 64 
Q 2138 -91 1772 -91 
Q 1169 -91 856 284 
Q 544 659 544 1381 
z
M 1991 3584 
L 1991 3584 
z
" transform="scale(0.015625)"/>
      <path id="DejaVuSans-64" d="M 2906 2969 
L 2906 4863 
L 3481 4863 
L 3481 0 
L 2906 0 
L 2906 525 
Q 2725 213 2448 61 
Q 2172 -91 1784 -91 
Q 1150 -91 751 415 
Q 353 922 353 1747 
Q 353 2572 751 3078 
Q 1150 3584 1784 3584 
Q 2172 3584 2448 3432 
Q 2725 3281 2906 2969 
z
M 947 1747 
Q 947 1113 1208 752 
Q 1469 391 1925 391 
Q 2381 391 2643 752 
Q 2906 1113 2906 1747 
Q 2906 2381 2643 2742 
Q 2381 3103 1925 3103 
Q 1469 3103 1208 2742 
Q 947 2381 947 1747 
z
" transform="scale(0.015625)"/>
      <path id="DejaVuSans-28" d="M 1984 4856 
Q 1566 4138 1362 3434 
Q 1159 2731 1159 2009 
Q 1159 1288 1364 580 
Q 1569 -128 1984 -844 
L 1484 -844 
Q 1016 -109 783 600 
Q 550 1309 550 2009 
Q 550 2706 781 3412 
Q 1013 4119 1484 4856 
L 1984 4856 
z
" transform="scale(0.015625)"/>
      <path id="DejaVuSans-3c1" d="M 863 2875 
Q 1053 3194 1525 3475 
Q 1709 3584 2278 3584 
Q 2916 3584 3314 3078 
Q 3713 2572 3713 1747 
Q 3713 922 3314 415 
Q 2916 -91 2278 -91 
Q 1894 -91 1617 61 
Q 1341 213 1159 525 
L 1159 -1331 
L 581 -1331 
L 581 1716 
Q 581 2438 863 2875 
z
M 3116 1747 
Q 3116 2381 2855 2742 
Q 2594 3103 2138 3103 
Q 1681 3103 1420 2742 
Q 1159 2381 1159 1747 
Q 1159 1113 1420 752 
Q 1681 391 2138 391 
Q 2594 391 2855 752 
Q 3116 1113 3116 1747 
z
" transform="scale(0.015625)"/>
      <path id="DejaVuSans-29" d="M 513 4856 
L 1013 4856 
Q 1481 4119 1714 3412 
Q 1947 2706 1947 2009 
Q 1947 1309 1714 600 
Q 1481 -109 1013 -844 
L 513 -844 
Q 928 -128 1133 580 
Q 1338 1288 1338 2009 
Q 1338 2731 1133 3434 
Q 928 4138 513 4856 
z
" transform="scale(0.015625)"/>
     </defs>
     <use xlink:href="#DejaVuSans-52"/>
     <use xlink:href="#DejaVuSans-65" x="64.982422"/>
     <use xlink:href="#DejaVuSans-61" x="126.505859"/>
     <use xlink:href="#DejaVuSans-6c" x="187.785156"/>
     <use xlink:href="#DejaVuSans-20" x="215.568359"/>
     <use xlink:href="#DejaVuSans-41" x="247.355469"/>
     <use xlink:href="#DejaVuSans-6d" x="315.763672"/>
     <use xlink:href="#DejaVuSans-70" x="413.175781"/>
     <use xlink:href="#DejaVuSans-6c" x="476.652344"/>
     <use xlink:href="#DejaVuSans-69" x="504.435547"/>
     <use xlink:href="#DejaVuSans-74" x="532.21875"/>
     <use xlink:href="#DejaVuSans-75" x="571.427734"/>
     <use xlink:href="#DejaVuSans-64" x="634.806641"/>
     <use xlink:href="#DejaVuSans-65" x="698.283203"/>
     <use xlink:href="#DejaVuSans-20" x="759.806641"/>
     <use xlink:href="#DejaVuSans-28" x="791.59375"/>
     <use xlink:href="#DejaVuSans-3c1" x="830.607422"/>
     <use xlink:href="#DejaVuSans-29" x="894.083984"/>
    </g>
   </g>
  </g>
  <g id="patch_6">
   <path d="M 604.8 576 
L 1123.2 576 
L 1123.2 57.6 
L 604.8 57.6 
z
" style="fill: #ffffff"/>
  </g>
  <g id="pane3d_4">
   <g id="patch_7">
    <path d="M 706.07018 436.456468 
L 829.494133 330.550231 
L 827.743197 126.70673 
L 698.643358 223.613571 
" style="fill: #f2f2f2; opacity: 0.5; stroke: #f2f2f2; stroke-linejoin: miter"/>
   </g>
  </g>
  <g id="pane3d_5">
   <g id="patch_8">
    <path d="M 829.494133 330.550231 
L 1031.554898 390.069341 
L 1038.583588 181.103065 
L 827.743197 126.70673 
" style="fill: #e6e6e6; opacity: 0.5; stroke: #e6e6e6; stroke-linejoin: miter"/>
   </g>
  </g>
  <g id="pane3d_6">
   <g id="patch_9">
    <path d="M 706.07018 436.456468 
L 916.912731 504.076731 
L 1031.554898 390.069341 
L 829.494133 330.550231 
" style="fill: #ececec; opacity: 0.5; stroke: #ececec; stroke-linejoin: miter"/>
   </g>
  </g>
  <g id="grid3d_4">
   <g id="Line3DCollection_4">
    <path d="M 734.635886 445.617904 
L 856.925726 338.630493 
L 856.328796 134.081748 
" style="fill: none; stroke: #b0b0b0; stroke-width: 0.8"/>
    <path d="M 784.310046 461.549127 
L 904.58611 352.669358 
L 906.022474 146.902603 
" style="fill: none; stroke: #b0b0b0; stroke-width: 0.8"/>
    <path d="M 834.89502 477.772462 
L 953.066152 366.949661 
L 956.607663 159.953465 
" style="fill: none; stroke: #b0b0b0; stroke-width: 0.8"/>
    <path d="M 886.41609 494.296016 
L 1002.38718 381.477685 
L 1008.108569 173.24058 
" style="fill: none; stroke: #b0b0b0; stroke-width: 0.8"/>
   </g>
  </g>
  <g id="grid3d_5">
   <g id="Line3DCollection_5">
    <path d="M 717.757365 209.265931 
L 724.301379 420.812846 
L 933.880707 487.202708 
" style="fill: none; stroke: #b0b0b0; stroke-width: 0.8"/>
    <path d="M 749.704273 185.285468 
L 754.805664 394.638072 
L 962.24502 458.995448 
" style="fill: none; stroke: #b0b0b0; stroke-width: 0.8"/>
    <path d="M 780.65707 162.051218 
L 784.400054 369.24405 
L 989.731787 431.660877 
" style="fill: none; stroke: #b0b0b0; stroke-width: 0.8"/>
    <path d="M 810.661448 139.528886 
L 813.124663 344.596362 
L 1016.38111 405.159111 
" style="fill: none; stroke: #b0b0b0; stroke-width: 0.8"/>
   </g>
  </g>
  <g id="grid3d_6">
   <g id="Line3DCollection_6">
    <path d="M 1032.014026 376.419256 
L 829.379594 317.21568 
L 705.585588 422.568696 
" style="fill: none; stroke: #b0b0b0; stroke-width: 0.8"/>
    <path d="M 1033.291972 338.425312 
L 829.060906 280.11407 
L 704.236365 383.901743 
" style="fill: none; stroke: #b0b0b0; stroke-width: 0.8"/>
    <path d="M 1034.590367 299.823416 
L 828.7373 242.439976 
L 702.864951 344.598839 
" style="fill: none; stroke: #b0b0b0; stroke-width: 0.8"/>
    <path d="M 1035.909705 260.598861 
L 828.408662 204.180043 
L 701.470795 304.644167 
" style="fill: none; stroke: #b0b0b0; stroke-width: 0.8"/>
    <path d="M 1037.250498 220.736456 
L 828.074874 165.320501 
L 700.053326 264.021376 
" style="fill: none; stroke: #b0b0b0; stroke-width: 0.8"/>
   </g>
  </g>
  <g id="axis3d_4">
   <g id="line2d_21">
    <path d="M 706.07018 436.456468 
L 916.912731 504.076731 
" style="fill: none; stroke: #000000; stroke-width: 0.8; stroke-linecap: square"/>
   </g>
   <g id="xtick_18">
    <g id="line2d_22">
     <path d="M 735.677227 444.706868 
L 732.549953 447.442819 
" style="fill: none; stroke: #000000; stroke-width: 0.8; stroke-linecap: square"/>
    </g>
    <g id="text_19">
     <!-- 00 -->
     <g transform="translate(707.351686 489.365693) rotate(-45) scale(0.21 -0.21)">
      <use xlink:href="#DejaVuSans-30"/>
      <use xlink:href="#DejaVuSans-30" x="63.623047"/>
     </g>
    </g>
   </g>
   <g id="xtick_19">
    <g id="line2d_23">
     <path d="M 785.334802 460.621468 
L 782.257306 463.407368 
" style="fill: none; stroke: #000000; stroke-width: 0.8; stroke-linecap: square"/>
    </g>
    <g id="text_20">
     <!-- 01 -->
     <g transform="translate(757.023931 505.435143) rotate(-45) scale(0.21 -0.21)">
      <use xlink:href="#DejaVuSans-30"/>
      <use xlink:href="#DejaVuSans-31" x="63.623047"/>
     </g>
    </g>
   </g>
   <g id="xtick_20">
    <g id="line2d_24">
     <path d="M 835.902405 476.82772 
L 832.877048 479.664949 
" style="fill: none; stroke: #000000; stroke-width: 0.8; stroke-linecap: square"/>
    </g>
    <g id="text_21">
     <!-- 10 -->
     <g transform="translate(807.60781 521.799516) rotate(-45) scale(0.21 -0.21)">
      <use xlink:href="#DejaVuSans-31"/>
      <use xlink:href="#DejaVuSans-30" x="63.623047"/>
     </g>
    </g>
   </g>
   <g id="xtick_21">
    <g id="line2d_25">
     <path d="M 887.405283 493.333715 
L 884.434531 496.223705 
" style="fill: none; stroke: #000000; stroke-width: 0.8; stroke-linecap: square"/>
    </g>
    <g id="text_22">
     <!-- 11 -->
     <g transform="translate(859.128654 538.467006) rotate(-45) scale(0.21 -0.21)">
      <use xlink:href="#DejaVuSans-31"/>
      <use xlink:href="#DejaVuSans-31" x="63.623047"/>
     </g>
    </g>
   </g>
  </g>
  <g id="axis3d_5">
   <g id="line2d_26">
    <path d="M 1031.554898 390.069341 
L 916.912731 504.076731 
" style="fill: none; stroke: #000000; stroke-width: 0.8; stroke-linecap: square"/>
   </g>
   <g id="xtick_22">
    <g id="line2d_27">
     <path d="M 932.140222 486.651363 
L 937.364886 488.306415 
" style="fill: none; stroke: #000000; stroke-width: 0.8; stroke-linecap: square"/>
    </g>
    <g id="text_23">
     <!-- 00 -->
     <g transform="translate(944.70027 499.207917) rotate(-337.5) scale(0.21 -0.21)">
      <use xlink:href="#DejaVuSans-30"/>
      <use xlink:href="#DejaVuSans-30" x="63.623047"/>
     </g>
    </g>
   </g>
   <g id="xtick_23">
    <g id="line2d_28">
     <path d="M 960.5233 458.46129 
L 965.691587 460.064734 
" style="fill: none; stroke: #000000; stroke-width: 0.8; stroke-linecap: square"/>
    </g>
    <g id="text_24">
     <!-- 01 -->
     <g transform="translate(972.913817 470.822876) rotate(-337.5) scale(0.21 -0.21)">
      <use xlink:href="#DejaVuSans-30"/>
      <use xlink:href="#DejaVuSans-31" x="63.623047"/>
     </g>
    </g>
   </g>
   <g id="xtick_24">
    <g id="line2d_29">
     <path d="M 988.028511 431.143114 
L 993.141381 432.697327 
" style="fill: none; stroke: #000000; stroke-width: 0.8; stroke-linecap: square"/>
    </g>
    <g id="text_25">
     <!-- 10 -->
     <g transform="translate(1000.254695 443.315808) rotate(-337.5) scale(0.21 -0.21)">
      <use xlink:href="#DejaVuSans-31"/>
      <use xlink:href="#DejaVuSans-30" x="63.623047"/>
     </g>
    </g>
   </g>
   <g id="xtick_25">
    <g id="line2d_30">
     <path d="M 1014.695964 404.657001 
L 1019.754368 406.164215 
" style="fill: none; stroke: #000000; stroke-width: 0.8; stroke-linecap: square"/>
    </g>
    <g id="text_26">
     <!-- 11 -->
     <g transform="translate(1026.762776 416.646599) rotate(-337.5) scale(0.21 -0.21)">
      <use xlink:href="#DejaVuSans-31"/>
      <use xlink:href="#DejaVuSans-31" x="63.623047"/>
     </g>
    </g>
   </g>
  </g>
  <g id="axis3d_6">
   <g id="line2d_31">
    <path d="M 1031.554898 390.069341 
L 1038.583588 181.103065 
" style="fill: none; stroke: #000000; stroke-width: 0.8; stroke-linecap: square"/>
   </g>
   <g id="xtick_26">
    <g id="line2d_32">
     <path d="M 1030.334388 375.928517 
L 1035.376239 377.401591 
" style="fill: none; stroke: #000000; stroke-width: 0.8; stroke-linecap: square"/>
    </g>
    <g id="text_27">
     <!-- −0.2 -->
     <g transform="translate(1045.531348 370.140875) scale(0.21 -0.21)">
      <defs>
       <path id="DejaVuSans-2212" d="M 678 2272 
L 4684 2272 
L 4684 1741 
L 678 1741 
L 678 2272 
z
" transform="scale(0.015625)"/>
      </defs>
      <use xlink:href="#DejaVuSans-2212"/>
      <use xlink:href="#DejaVuSans-30" x="83.789062"/>
      <use xlink:href="#DejaVuSans-2e" x="147.412109"/>
      <use xlink:href="#DejaVuSans-32" x="179.199219"/>
     </g>
    </g>
   </g>
   <g id="xtick_27">
    <g id="line2d_33">
     <path d="M 1031.598631 337.941836 
L 1036.681639 339.393116 
" style="fill: none; stroke: #000000; stroke-width: 0.8; stroke-linecap: square"/>
    </g>
    <g id="text_28">
     <!-- −0.1 -->
     <g transform="translate(1046.914999 332.175226) scale(0.21 -0.21)">
      <use xlink:href="#DejaVuSans-2212"/>
      <use xlink:href="#DejaVuSans-30" x="83.789062"/>
      <use xlink:href="#DejaVuSans-2e" x="147.412109"/>
      <use xlink:href="#DejaVuSans-31" x="179.199219"/>
     </g>
    </g>
   </g>
   <g id="xtick_28">
    <g id="line2d_34">
     <path d="M 1032.883098 299.3475 
L 1038.007938 300.776096 
" style="fill: none; stroke: #000000; stroke-width: 0.8; stroke-linecap: square"/>
    </g>
    <g id="text_29">
     <!-- 0.0 -->
     <g transform="translate(1048.320764 293.60278) scale(0.21 -0.21)">
      <use xlink:href="#DejaVuSans-30"/>
      <use xlink:href="#DejaVuSans-2e" x="63.623047"/>
      <use xlink:href="#DejaVuSans-30" x="95.410156"/>
     </g>
    </g>
   </g>
   <g id="xtick_29">
    <g id="line2d_35">
     <path d="M 1034.188278 260.13081 
L 1039.355644 261.5358 
" style="fill: none; stroke: #000000; stroke-width: 0.8; stroke-linecap: square"/>
    </g>
    <g id="text_30">
     <!-- 0.1 -->
     <g transform="translate(1049.749179 254.408871) scale(0.21 -0.21)">
      <use xlink:href="#DejaVuSans-30"/>
      <use xlink:href="#DejaVuSans-2e" x="63.623047"/>
      <use xlink:href="#DejaVuSans-31" x="95.410156"/>
     </g>
    </g>
   </g>
   <g id="xtick_30">
    <g id="line2d_36">
     <path d="M 1035.514675 220.276592 
L 1040.725279 221.657014 
" style="fill: none; stroke: #000000; stroke-width: 0.8; stroke-linecap: square"/>
    </g>
    <g id="text_31">
     <!-- 0.2 -->
     <g transform="translate(1051.200794 214.578357) scale(0.21 -0.21)">
      <use xlink:href="#DejaVuSans-30"/>
      <use xlink:href="#DejaVuSans-2e" x="63.623047"/>
      <use xlink:href="#DejaVuSans-32" x="95.410156"/>
     </g>
    </g>
   </g>
  </g>
  <g id="axes_2">
   <g id="Poly3DCollection_2">
    <path d="M 983.271417 296.175829 
L 983.271417 296.175829 
L 1008.715255 303.315971 
L 1008.715255 303.315971 
z
" clip-path="url(#pe6980384df)" style="fill: #648fff"/>
    <path d="M 969.691128 308.583345 
L 969.691128 308.583345 
L 983.271417 296.175829 
L 983.271417 296.175829 
z
" clip-path="url(#pe6980384df)" style="fill: #324880"/>
    <path d="M 969.691128 308.583345 
L 983.271417 296.175829 
L 1008.715255 303.315971 
L 995.271727 315.834612 
z
" clip-path="url(#pe6980384df)" style="fill: #3f599f"/>
    <path d="M 969.691128 308.583345 
L 995.271727 315.834612 
L 1008.715255 303.315971 
L 983.271417 296.175829 
z
" clip-path="url(#pe6980384df)" style="fill: #577ddf"/>
    <path d="M 995.271727 315.834612 
L 1008.715255 303.315971 
L 1008.715255 303.315971 
L 995.271727 315.834612 
z
" clip-path="url(#pe6980384df)" style="fill: #648fff"/>
    <path d="M 905.150288 306.651361 
L 905.150288 306.651361 
L 930.411031 313.885269 
L 930.411031 313.885269 
z
" clip-path="url(#pe6980384df)" style="fill: #648fff"/>
    <path d="M 861.817832 436.830448 
L 886.990344 444.680593 
L 901.311406 431.128178 
L 876.269021 423.398695 
z
" clip-path="url(#pe6980384df)" style="fill: #577ddf"/>
    <path d="M 969.691128 308.583345 
L 995.271727 315.834612 
L 995.271727 315.834612 
L 969.691128 308.583345 
z
" clip-path="url(#pe6980384df)" style="fill: #324880"/>
    <path d="M 890.872437 319.222084 
L 890.872437 319.222084 
L 905.150288 306.651361 
L 905.150288 306.651361 
z
" clip-path="url(#pe6980384df)" style="fill: #324880"/>
    <path d="M 890.872437 319.222084 
L 905.150288 306.651361 
L 930.411031 313.885269 
L 916.266264 326.569322 
z
" clip-path="url(#pe6980384df)" style="fill: #3f599f"/>
    <path d="M 890.872437 319.222084 
L 916.266264 326.569322 
L 930.411031 313.885269 
L 905.150288 306.651361 
z
" clip-path="url(#pe6980384df)" style="fill: #577ddf"/>
    <path d="M 876.370529 331.990075 
L 876.269021 423.398695 
L 901.311406 431.128178 
L 901.898517 339.453327 
z
" clip-path="url(#pe6980384df)" style="fill: #648fff"/>
    <path d="M 916.266264 326.569322 
L 930.411031 313.885269 
L 930.411031 313.885269 
L 916.266264 326.569322 
z
" clip-path="url(#pe6980384df)" style="fill: #648fff"/>
    <path d="M 861.639248 344.960014 
L 861.817832 436.830448 
L 876.269021 423.398695 
L 876.370529 331.990075 
z
" clip-path="url(#pe6980384df)" style="fill: #324880"/>
    <path d="M 890.872437 319.222084 
L 916.266264 326.569322 
L 916.266264 326.569322 
L 890.872437 319.222084 
z
" clip-path="url(#pe6980384df)" style="fill: #324880"/>
    <path d="M 955.899133 321.184285 
L 955.899133 321.184285 
L 981.617676 328.549292 
L 981.617676 328.549292 
z
" clip-path="url(#pe6980384df)" style="fill: #648fff"/>
    <path d="M 912.390382 452.601693 
L 938.021045 460.594713 
L 952.072987 446.796046 
L 926.578383 438.926983 
z
" clip-path="url(#pe6980384df)" style="fill: #577ddf"/>
    <path d="M 941.890442 333.983207 
L 941.890442 333.983207 
L 955.899133 321.184285 
L 955.899133 321.184285 
z
" clip-path="url(#pe6980384df)" style="fill: #324880"/>
    <path d="M 887.302477 352.54205 
L 901.898517 339.453327 
L 901.311406 431.128178 
L 886.990344 444.680593 
z
" clip-path="url(#pe6980384df)" style="fill: #648fff"/>
    <path d="M 941.890442 333.983207 
L 955.899133 321.184285 
L 981.617676 328.549292 
L 967.74812 341.464652 
z
" clip-path="url(#pe6980384df)" style="fill: #3f599f"/>
    <path d="M 941.890442 333.983207 
L 967.74812 341.464652 
L 981.617676 328.549292 
L 955.899133 321.184285 
z
" clip-path="url(#pe6980384df)" style="fill: #577ddf"/>
    <path d="M 861.639248 344.960014 
L 887.302477 352.54205 
L 886.990344 444.680593 
L 861.817832 436.830448 
z
" clip-path="url(#pe6980384df)" style="fill: #324880"/>
    <path d="M 927.659907 346.984815 
L 926.578383 438.926983 
L 952.072987 446.796046 
L 953.657915 354.585481 
z
" clip-path="url(#pe6980384df)" style="fill: #648fff"/>
    <path d="M 967.74812 341.464652 
L 981.617676 328.549292 
L 981.617676 328.549292 
L 967.74812 341.464652 
z
" clip-path="url(#pe6980384df)" style="fill: #648fff"/>
    <path d="M 832.232215 464.328996 
L 857.668038 472.429097 
L 872.444335 458.445881 
L 847.140677 450.472227 
z
" clip-path="url(#pe6980384df)" style="fill: #577ddf"/>
    <path d="M 913.202216 360.193962 
L 912.390382 452.601693 
L 926.578383 438.926983 
L 927.659907 346.984815 
z
" clip-path="url(#pe6980384df)" style="fill: #324880"/>
    <path d="M 941.890442 333.983207 
L 967.74812 341.464652 
L 967.74812 341.464652 
L 941.890442 333.983207 
z
" clip-path="url(#pe6980384df)" style="fill: #324880"/>
    <path d="M 861.639248 344.960014 
L 876.370529 331.990075 
L 901.898517 339.453327 
L 887.302477 352.54205 
z
" clip-path="url(#pe6980384df)" style="fill: #3f599f"/>
    <path d="M 939.341753 367.91672 
L 953.657915 354.585481 
L 952.072987 446.796046 
L 938.021045 460.594713 
z
" clip-path="url(#pe6980384df)" style="fill: #648fff"/>
    <path d="M 846.673108 358.136731 
L 847.140677 450.472227 
L 872.444335 458.445881 
L 872.472658 365.840409 
z
" clip-path="url(#pe6980384df)" style="fill: #648fff"/>
    <path d="M 795.779936 342.940161 
L 795.779936 342.940161 
L 821.109946 350.503636 
L 821.109946 350.503636 
z
" clip-path="url(#pe6980384df)" style="fill: #648fff"/>
    <path d="M 913.202216 360.193962 
L 939.341753 367.91672 
L 938.021045 460.594713 
L 912.390382 452.601693 
z
" clip-path="url(#pe6980384df)" style="fill: #324880"/>
    <path d="M 831.466449 371.52521 
L 832.232215 464.328996 
L 847.140677 450.472227 
L 846.673108 358.136731 
z
" clip-path="url(#pe6980384df)" style="fill: #324880"/>
    <path d="M 780.307883 356.084567 
L 780.307883 356.084567 
L 795.779936 342.940161 
L 795.779936 342.940161 
z
" clip-path="url(#pe6980384df)" style="fill: #324880"/>
    <path d="M 883.337424 480.603576 
L 909.243605 488.853463 
L 923.746364 474.612105 
L 897.978509 466.492174 
z
" clip-path="url(#pe6980384df)" style="fill: #577ddf"/>
    <path d="M 780.307883 356.084567 
L 795.779936 342.940161 
L 821.109946 350.503636 
L 805.769044 363.769237 
z
" clip-path="url(#pe6980384df)" style="fill: #3f599f"/>
    <path d="M 780.307883 356.084567 
L 805.769044 363.769237 
L 821.109946 350.503636 
L 795.779936 342.940161 
z
" clip-path="url(#pe6980384df)" style="fill: #577ddf"/>
    <path d="M 857.403399 379.353482 
L 872.472658 365.840409 
L 872.444335 458.445881 
L 857.668038 472.429097 
z
" clip-path="url(#pe6980384df)" style="fill: #648fff"/>
    <path d="M 805.769044 363.769237 
L 821.109946 350.503636 
L 821.109946 350.503636 
L 805.769044 363.769237 
z
" clip-path="url(#pe6980384df)" style="fill: #648fff"/>
    <path d="M 913.202216 360.193962 
L 927.659907 346.984815 
L 953.657915 354.585481 
L 939.341753 367.91672 
z
" clip-path="url(#pe6980384df)" style="fill: #3f599f"/>
    <path d="M 831.466449 371.52521 
L 857.403399 379.353482 
L 857.668038 472.429097 
L 832.232215 464.328996 
z
" clip-path="url(#pe6980384df)" style="fill: #324880"/>
    <path d="M 780.307883 356.084567 
L 805.769044 363.769237 
L 805.769044 363.769237 
L 780.307883 356.084567 
z
" clip-path="url(#pe6980384df)" style="fill: #324880"/>
    <path d="M 898.511888 373.615656 
L 897.978509 466.492174 
L 923.746364 474.612105 
L 924.794155 381.463473 
z
" clip-path="url(#pe6980384df)" style="fill: #648fff"/>
    <path d="M 883.583261 387.25507 
L 883.337424 480.603576 
L 897.978509 466.492174 
L 898.511888 373.615656 
z
" clip-path="url(#pe6980384df)" style="fill: #324880"/>
    <path d="M 831.466449 371.52521 
L 846.673108 358.136731 
L 872.472658 365.840409 
L 857.403399 379.353482 
z
" clip-path="url(#pe6980384df)" style="fill: #3f599f"/>
    <path d="M 910.009464 395.231009 
L 924.794155 381.463473 
L 923.746364 474.612105 
L 909.243605 488.853463 
z
" clip-path="url(#pe6980384df)" style="fill: #648fff"/>
    <path d="M 883.583261 387.25507 
L 910.009464 395.231009 
L 909.243605 488.853463 
L 883.337424 480.603576 
z
" clip-path="url(#pe6980384df)" style="fill: #324880"/>
    <path d="M 883.583261 387.25507 
L 898.511888 373.615656 
L 924.794155 381.463473 
L 910.009464 395.231009 
z
" clip-path="url(#pe6980384df)" style="fill: #3f599f"/>
   </g>
   <g id="Poly3DCollection_3">
    <path d="M 709.68042 343.678905 
L 915.869808 406.24841 
L 1028.13211 300.695135 
L 830.34874 245.46947 
z
" clip-path="url(#pe6980384df)" style="fill-opacity: 0.25"/>
   </g>
   <g id="Poly3DCollection_4">
    <path d="M 820.879939 266.400213 
L 835.221064 254.629402 
L 859.361278 261.403716 
L 845.140143 273.277192 
z
" clip-path="url(#pe6980384df)" style="fill: #3f599f"/>
    <path d="M 835.221064 254.629402 
L 834.551207 162.742935 
L 859.142346 169.238793 
L 859.361278 261.403716 
z
" clip-path="url(#pe6980384df)" style="fill: #324880"/>
    <path d="M 820.879939 266.400213 
L 819.934425 174.030586 
L 834.551207 162.742935 
L 835.221064 254.629402 
z
" clip-path="url(#pe6980384df)" style="fill: #648fff"/>
    <path d="M 869.613209 280.21451 
L 883.711704 268.237021 
L 908.275099 275.13009 
L 894.301952 287.212966 
z
" clip-path="url(#pe6980384df)" style="fill: #3f599f"/>
    <path d="M 845.140143 273.277192 
L 859.361278 261.403716 
L 859.142346 169.238793 
L 844.650076 180.626756 
z
" clip-path="url(#pe6980384df)" style="fill: #324880"/>
    <path d="M 820.879939 266.400213 
L 845.140143 273.277192 
L 844.650076 180.626756 
L 819.934425 174.030586 
z
" clip-path="url(#pe6980384df)" style="fill: #648fff"/>
    <path d="M 933.054271 282.083711 
L 933.054271 282.083711 
L 958.052075 289.098685 
L 958.052075 289.098685 
z
" clip-path="url(#pe6980384df)" style="fill: #324880"/>
    <path d="M 883.711704 268.237021 
L 883.951667 175.792284 
L 908.982088 182.40418 
L 908.275099 275.13009 
z
" clip-path="url(#pe6980384df)" style="fill: #324880"/>
    <path d="M 791.539624 290.481957 
L 806.321123 278.349699 
L 830.702189 285.331693 
L 816.042421 297.571392 
z
" clip-path="url(#pe6980384df)" style="fill: #3f599f"/>
    <path d="M 919.209234 294.27337 
L 919.209234 294.27337 
L 933.054271 282.083711 
L 933.054271 282.083711 
z
" clip-path="url(#pe6980384df)" style="fill: #648fff"/>
    <path d="M 869.613209 280.21451 
L 869.586713 187.281903 
L 883.951667 175.792284 
L 883.711704 268.237021 
z
" clip-path="url(#pe6980384df)" style="fill: #648fff"/>
    <path d="M 919.209234 294.27337 
L 933.054271 282.083711 
L 958.052075 289.098685 
L 944.33797 301.396549 
z
" clip-path="url(#pe6980384df)" style="fill: #3f599f"/>
    <path d="M 919.209234 294.27337 
L 944.33797 301.396549 
L 958.052075 289.098685 
L 933.054271 282.083711 
z
" clip-path="url(#pe6980384df)" style="fill: #577ddf"/>
    <path d="M 819.934425 174.030586 
L 844.650076 180.626756 
L 859.142346 169.238793 
L 834.551207 162.742935 
z
" clip-path="url(#pe6980384df)" style="fill: #577ddf"/>
    <path d="M 944.33797 301.396549 
L 958.052075 289.098685 
L 958.052075 289.098685 
L 944.33797 301.396549 
z
" clip-path="url(#pe6980384df)" style="fill: #324880"/>
    <path d="M 894.301952 287.212966 
L 908.275099 275.13009 
L 908.982088 182.40418 
L 894.747313 193.996822 
z
" clip-path="url(#pe6980384df)" style="fill: #324880"/>
    <path d="M 806.321123 278.349699 
L 805.091551 185.492833 
L 829.932636 192.191657 
L 830.702189 285.331693 
z
" clip-path="url(#pe6980384df)" style="fill: #324880"/>
    <path d="M 919.209234 294.27337 
L 944.33797 301.396549 
L 944.33797 301.396549 
L 919.209234 294.27337 
z
" clip-path="url(#pe6980384df)" style="fill: #648fff"/>
    <path d="M 869.613209 280.21451 
L 894.301952 287.212966 
L 894.747313 193.996822 
L 869.586713 187.281903 
z
" clip-path="url(#pe6980384df)" style="fill: #648fff"/>
    <path d="M 791.539624 290.481957 
L 790.017298 197.133759 
L 805.091551 185.492833 
L 806.321123 278.349699 
z
" clip-path="url(#pe6980384df)" style="fill: #648fff"/>
    <path d="M 840.763526 304.72399 
L 855.298816 292.375418 
L 880.113875 299.481695 
L 865.705871 311.9406 
z
" clip-path="url(#pe6980384df)" style="fill: #3f599f"/>
    <path d="M 776.530292 302.801214 
L 776.530292 302.801214 
L 801.155686 310.000588 
L 801.155686 310.000588 
z
" clip-path="url(#pe6980384df)" style="fill: #324880"/>
    <path d="M 816.042421 297.571392 
L 830.702189 285.331693 
L 829.932636 192.191657 
L 814.984736 203.937653 
z
" clip-path="url(#pe6980384df)" style="fill: #324880"/>
    <path d="M 869.586713 187.281903 
L 894.747313 193.996822 
L 908.982088 182.40418 
L 883.951667 175.792284 
z
" clip-path="url(#pe6980384df)" style="fill: #577ddf"/>
    <path d="M 761.287819 315.311828 
L 761.287819 315.311828 
L 776.530292 302.801214 
L 776.530292 302.801214 
z
" clip-path="url(#pe6980384df)" style="fill: #648fff"/>
    <path d="M 791.539624 290.481957 
L 816.042421 297.571392 
L 814.984736 203.937653 
L 790.017298 197.133759 
z
" clip-path="url(#pe6980384df)" style="fill: #648fff"/>
    <path d="M 855.298816 292.375418 
L 854.997562 198.950844 
L 880.289367 205.771213 
L 880.113875 299.481695 
z
" clip-path="url(#pe6980384df)" style="fill: #324880"/>
    <path d="M 761.287819 315.311828 
L 786.036673 322.623718 
L 801.155686 310.000588 
L 776.530292 302.801214 
z
" clip-path="url(#pe6980384df)" style="fill: #577ddf"/>
    <path d="M 761.287819 315.311828 
L 776.530292 302.801214 
L 801.155686 310.000588 
L 786.036673 322.623718 
z
" clip-path="url(#pe6980384df)" style="fill: #3f599f"/>
    <path d="M 840.763526 304.72399 
L 840.178921 210.803338 
L 854.997562 198.950844 
L 855.298816 292.375418 
z
" clip-path="url(#pe6980384df)" style="fill: #648fff"/>
    <path d="M 786.036673 322.623718 
L 801.155686 310.000588 
L 801.155686 310.000588 
L 786.036673 322.623718 
z
" clip-path="url(#pe6980384df)" style="fill: #324880"/>
    <path d="M 790.017298 197.133759 
L 814.984736 203.937653 
L 829.932636 192.191657 
L 805.091551 185.492833 
z
" clip-path="url(#pe6980384df)" style="fill: #577ddf"/>
    <path d="M 761.287819 315.311828 
L 786.036673 322.623718 
L 786.036673 322.623718 
L 761.287819 315.311828 
z
" clip-path="url(#pe6980384df)" style="fill: #648fff"/>
    <path d="M 826.002187 317.264604 
L 826.002187 317.264604 
L 851.072787 324.594136 
L 851.072787 324.594136 
z
" clip-path="url(#pe6980384df)" style="fill: #324880"/>
    <path d="M 865.705871 311.9406 
L 880.113875 299.481695 
L 880.289367 205.771213 
L 865.602958 217.731661 
z
" clip-path="url(#pe6980384df)" style="fill: #324880"/>
    <path d="M 811.009485 330.001775 
L 811.009485 330.001775 
L 826.002187 317.264604 
L 826.002187 317.264604 
z
" clip-path="url(#pe6980384df)" style="fill: #648fff"/>
    <path d="M 840.763526 304.72399 
L 865.705871 311.9406 
L 865.602958 217.731661 
L 840.178921 210.803338 
z
" clip-path="url(#pe6980384df)" style="fill: #648fff"/>
    <path d="M 811.009485 330.001775 
L 826.002187 317.264604 
L 851.072787 324.594136 
L 836.209306 337.446901 
z
" clip-path="url(#pe6980384df)" style="fill: #3f599f"/>
    <path d="M 811.009485 330.001775 
L 836.209306 337.446901 
L 851.072787 324.594136 
L 826.002187 317.264604 
z
" clip-path="url(#pe6980384df)" style="fill: #577ddf"/>
    <path d="M 836.209306 337.446901 
L 851.072787 324.594136 
L 851.072787 324.594136 
L 836.209306 337.446901 
z
" clip-path="url(#pe6980384df)" style="fill: #324880"/>
    <path d="M 745.80673 328.01829 
L 745.80673 328.01829 
L 770.679903 335.445356 
L 770.679903 335.445356 
z
" clip-path="url(#pe6980384df)" style="fill: #324880"/>
    <path d="M 840.178921 210.803338 
L 865.602958 217.731661 
L 880.289367 205.771213 
L 854.997562 198.950844 
z
" clip-path="url(#pe6980384df)" style="fill: #577ddf"/>
    <path d="M 811.009485 330.001775 
L 836.209306 337.446901 
L 836.209306 337.446901 
L 811.009485 330.001775 
z
" clip-path="url(#pe6980384df)" style="fill: #648fff"/>
    <path d="M 730.081378 340.925238 
L 730.081378 340.925238 
L 745.80673 328.01829 
L 745.80673 328.01829 
z
" clip-path="url(#pe6980384df)" style="fill: #648fff"/>
    <path d="M 730.081378 340.925238 
L 745.80673 328.01829 
L 770.679903 335.445356 
L 755.079723 348.470221 
z
" clip-path="url(#pe6980384df)" style="fill: #3f599f"/>
    <path d="M 730.081378 340.925238 
L 755.079723 348.470221 
L 770.679903 335.445356 
L 745.80673 328.01829 
z
" clip-path="url(#pe6980384df)" style="fill: #577ddf"/>
    <path d="M 755.079723 348.470221 
L 770.679903 335.445356 
L 770.679903 335.445356 
L 755.079723 348.470221 
z
" clip-path="url(#pe6980384df)" style="fill: #324880"/>
    <path d="M 730.081378 340.925238 
L 755.079723 348.470221 
L 755.079723 348.470221 
L 730.081378 340.925238 
z
" clip-path="url(#pe6980384df)" style="fill: #648fff"/>
   </g>
   <g id="text_32">
    <!-- Imaginary Amplitude (ρ) -->
    <g transform="translate(735.696563 51.6) scale(0.21 -0.21)">
     <defs>
      <path id="DejaVuSans-49" d="M 628 4666 
L 1259 4666 
L 1259 0 
L 628 0 
L 628 4666 
z
" transform="scale(0.015625)"/>
      <path id="DejaVuSans-67" d="M 2906 1791 
Q 2906 2416 2648 2759 
Q 2391 3103 1925 3103 
Q 1463 3103 1205 2759 
Q 947 2416 947 1791 
Q 947 1169 1205 825 
Q 1463 481 1925 481 
Q 2391 481 2648 825 
Q 2906 1169 2906 1791 
z
M 3481 434 
Q 3481 -459 3084 -895 
Q 2688 -1331 1869 -1331 
Q 1566 -1331 1297 -1286 
Q 1028 -1241 775 -1147 
L 775 -588 
Q 1028 -725 1275 -790 
Q 1522 -856 1778 -856 
Q 2344 -856 2625 -561 
Q 2906 -266 2906 331 
L 2906 616 
Q 2728 306 2450 153 
Q 2172 0 1784 0 
Q 1141 0 747 490 
Q 353 981 353 1791 
Q 353 2603 747 3093 
Q 1141 3584 1784 3584 
Q 2172 3584 2450 3431 
Q 2728 3278 2906 2969 
L 2906 3500 
L 3481 3500 
L 3481 434 
z
" transform="scale(0.015625)"/>
      <path id="DejaVuSans-6e" d="M 3513 2113 
L 3513 0 
L 2938 0 
L 2938 2094 
Q 2938 2591 2744 2837 
Q 2550 3084 2163 3084 
Q 1697 3084 1428 2787 
Q 1159 2491 1159 1978 
L 1159 0 
L 581 0 
L 581 3500 
L 1159 3500 
L 1159 2956 
Q 1366 3272 1645 3428 
Q 1925 3584 2291 3584 
Q 2894 3584 3203 3211 
Q 3513 2838 3513 2113 
z
" transform="scale(0.015625)"/>
      <path id="DejaVuSans-72" d="M 2631 2963 
Q 2534 3019 2420 3045 
Q 2306 3072 2169 3072 
Q 1681 3072 1420 2755 
Q 1159 2438 1159 1844 
L 1159 0 
L 581 0 
L 581 3500 
L 1159 3500 
L 1159 2956 
Q 1341 3275 1631 3429 
Q 1922 3584 2338 3584 
Q 2397 3584 2469 3576 
Q 2541 3569 2628 3553 
L 2631 2963 
z
" transform="scale(0.015625)"/>
      <path id="DejaVuSans-79" d="M 2059 -325 
Q 1816 -950 1584 -1140 
Q 1353 -1331 966 -1331 
L 506 -1331 
L 506 -850 
L 844 -850 
Q 1081 -850 1212 -737 
Q 1344 -625 1503 -206 
L 1606 56 
L 191 3500 
L 800 3500 
L 1894 763 
L 2988 3500 
L 3597 3500 
L 2059 -325 
z
" transform="scale(0.015625)"/>
     </defs>
     <use xlink:href="#DejaVuSans-49"/>
     <use xlink:href="#DejaVuSans-6d" x="29.492188"/>
     <use xlink:href="#DejaVuSans-61" x="126.904297"/>
     <use xlink:href="#DejaVuSans-67" x="188.183594"/>
     <use xlink:href="#DejaVuSans-69" x="251.660156"/>
     <use xlink:href="#DejaVuSans-6e" x="279.443359"/>
     <use xlink:href="#DejaVuSans-61" x="342.822266"/>
     <use xlink:href="#DejaVuSans-72" x="404.101562"/>
     <use xlink:href="#DejaVuSans-79" x="445.214844"/>
     <use xlink:href="#DejaVuSans-20" x="504.394531"/>
     <use xlink:href="#DejaVuSans-41" x="536.181641"/>
     <use xlink:href="#DejaVuSans-6d" x="604.589844"/>
     <use xlink:href="#DejaVuSans-70" x="702.001953"/>
     <use xlink:href="#DejaVuSans-6c" x="765.478516"/>
     <use xlink:href="#DejaVuSans-69" x="793.261719"/>
     <use xlink:href="#DejaVuSans-74" x="821.044922"/>
     <use xlink:href="#DejaVuSans-75" x="860.253906"/>
     <use xlink:href="#DejaVuSans-64" x="923.632812"/>
     <use xlink:href="#DejaVuSans-65" x="987.109375"/>
     <use xlink:href="#DejaVuSans-20" x="1048.632812"/>
     <use xlink:href="#DejaVuSans-28" x="1080.419922"/>
     <use xlink:href="#DejaVuSans-3c1" x="1119.433594"/>
     <use xlink:href="#DejaVuSans-29" x="1182.910156"/>
    </g>
   </g>
  </g>
 </g>
 <defs>
  <clipPath id="p69aeff7c10">
   <rect x="28.8" y="57.6" width="518.4" height="518.4"/>
  </clipPath>
  <clipPath id="pe6980384df">
   <rect x="604.8" y="57.6" width="518.4" height="518.4"/>
  </clipPath>
 </defs>
</svg>
