<?xml version="1.0" encoding="utf-8" standalone="no"?>
<!DOCTYPE svg PUBLIC "-//W3C//DTD SVG 1.1//EN"
  "http://www.w3.org/Graphics/SVG/1.1/DTD/svg11.dtd">
<svg xmlns:xlink="http://www.w3.org/1999/xlink" width="1152pt" height="576pt" viewBox="0 0 1152 576" xmlns="http://www.w3.org/2000/svg" version="1.1">
 <metadata>
  <rdf:RDF xmlns:dc="http://purl.org/dc/elements/1.1/" xmlns:cc="http://creativecommons.org/ns#" xmlns:rdf="http://www.w3.org/1999/02/22-rdf-syntax-ns#">
   <cc:Work>
    <dc:type rdf:resource="http://purl.org/dc/dcmitype/StillImage"/>
    <dc:date>2024-11-02T18:35:46.086059</dc:date>
    <dc:format>image/svg+xml</dc:format>
    <dc:creator>
     <cc:Agent>
      <dc:title>Matplotlib v3.9.2, https://matplotlib.org/</dc:title>
     </cc:Agent>
    </dc:creator>
   </cc:Work>
  </rdf:RDF>
 </metadata>
 <defs>
  <style type="text/css">*{stroke-linejoin: round; stroke-linecap: butt}</style>
 </defs>
 <g id="figure_1">
  <g id="patch_1">
   <path d="M 0 576 
L 1152 576 
L 1152 0 
L 0 0 
z
" style="fill: #ffffff"/>
  </g>
  <g id="patch_2">
   <path d="M 28.8 576 
L 547.2 576 
L 547.2 57.6 
L 28.8 57.6 
z
" style="fill: #ffffff"/>
  </g>
  <g id="pane3d_1">
   <g id="patch_3">
    <path d="M 130.07018 436.456468 
L 253.494133 330.550231 
L 251.743197 126.70673 
L 122.643358 223.613571 
" style="fill: #f2f2f2; opacity: 0.5; stroke: #f2f2f2; stroke-linejoin: miter"/>
   </g>
  </g>
  <g id="pane3d_2">
   <g id="patch_4">
    <path d="M 253.494133 330.550231 
L 455.554898 390.069341 
L 462.583588 181.103065 
L 251.743197 126.70673 
" style="fill: #e6e6e6; opacity: 0.5; stroke: #e6e6e6; stroke-linejoin: miter"/>
   </g>
  </g>
  <g id="pane3d_3">
   <g id="patch_5">
    <path d="M 130.07018 436.456468 
L 340.912731 504.076731 
L 455.554898 390.069341 
L 253.494133 330.550231 
" style="fill: #ececec; opacity: 0.5; stroke: #ececec; stroke-linejoin: miter"/>
   </g>
  </g>
  <g id="grid3d_1">
   <g id="Line3DCollection_1">
    <path d="M 158.635886 445.617904 
L 280.925726 338.630493 
L 280.328796 134.081748 
" style="fill: none; stroke: #b0b0b0; stroke-width: 0.8"/>
    <path d="M 208.310046 461.549127 
L 328.58611 352.669358 
L 330.022474 146.902603 
" style="fill: none; stroke: #b0b0b0; stroke-width: 0.8"/>
    <path d="M 258.89502 477.772462 
L 377.066152 366.949661 
L 380.607663 159.953465 
" style="fill: none; stroke: #b0b0b0; stroke-width: 0.8"/>
    <path d="M 310.41609 494.296016 
L 426.38718 381.477685 
L 432.108569 173.24058 
" style="fill: none; stroke: #b0b0b0; stroke-width: 0.8"/>
   </g>
  </g>
  <g id="grid3d_2">
   <g id="Line3DCollection_2">
    <path d="M 141.757365 209.265931 
L 148.301379 420.812846 
L 357.880707 487.202708 
" style="fill: none; stroke: #b0b0b0; stroke-width: 0.8"/>
    <path d="M 173.704273 185.285468 
L 178.805664 394.638072 
L 386.24502 458.995448 
" style="fill: none; stroke: #b0b0b0; stroke-width: 0.8"/>
    <path d="M 204.65707 162.051218 
L 208.400054 369.24405 
L 413.731787 431.660877 
" style="fill: none; stroke: #b0b0b0; stroke-width: 0.8"/>
    <path d="M 234.661448 139.528886 
L 237.124663 344.596362 
L 440.38111 405.159111 
" style="fill: none; stroke: #b0b0b0; stroke-width: 0.8"/>
   </g>
  </g>
  <g id="grid3d_3">
   <g id="Line3DCollection_3">
    <path d="M 455.777489 383.451606 
L 253.4386 324.085137 
L 129.835253 429.72377 
" style="fill: none; stroke: #b0b0b0; stroke-width: 0.8"/>
    <path d="M 456.776561 353.748715 
L 253.189415 295.075094 
L 128.780593 399.498602 
" style="fill: none; stroke: #b0b0b0; stroke-width: 0.8"/>
    <path d="M 457.788128 323.674355 
L 252.937225 265.715134 
L 127.712377 368.884961 
" style="fill: none; stroke: #b0b0b0; stroke-width: 0.8"/>
    <path d="M 458.812425 293.221514 
L 252.681974 235.998889 
L 126.630344 337.875307 
" style="fill: none; stroke: #b0b0b0; stroke-width: 0.8"/>
    <path d="M 459.849695 262.383003 
L 252.423606 205.919831 
L 125.534222 306.461908 
" style="fill: none; stroke: #b0b0b0; stroke-width: 0.8"/>
    <path d="M 460.900184 231.151447 
L 252.162065 175.471278 
L 124.423735 274.636826 
" style="fill: none; stroke: #b0b0b0; stroke-width: 0.8"/>
    <path d="M 461.964148 199.519285 
L 251.897291 144.646377 
L 123.298599 242.391916 
" style="fill: none; stroke: #b0b0b0; stroke-width: 0.8"/>
   </g>
  </g>
  <g id="axis3d_1">
   <g id="line2d_1">
    <path d="M 130.07018 436.456468 
L 340.912731 504.076731 
" style="fill: none; stroke: #000000; stroke-width: 0.8; stroke-linecap: square"/>
   </g>
   <g id="xtick_1">
    <g id="line2d_2">
     <path d="M 159.677227 444.706868 
L 156.549953 447.442819 
" style="fill: none; stroke: #000000; stroke-width: 0.8; stroke-linecap: square"/>
    </g>
    <g id="text_1">
     <!-- 00 -->
     <g transform="translate(131.351686 489.365693) rotate(-45) scale(0.21 -0.21)">
      <defs>
       <path id="DejaVuSans-30" d="M 2034 4250 
Q 1547 4250 1301 3770 
Q 1056 3291 1056 2328 
Q 1056 1369 1301 889 
Q 1547 409 2034 409 
Q 2525 409 2770 889 
Q 3016 1369 3016 2328 
Q 3016 3291 2770 3770 
Q 2525 4250 2034 4250 
z
M 2034 4750 
Q 2819 4750 3233 4129 
Q 3647 3509 3647 2328 
Q 3647 1150 3233 529 
Q 2819 -91 2034 -91 
Q 1250 -91 836 529 
Q 422 1150 422 2328 
Q 422 3509 836 4129 
Q 1250 4750 2034 4750 
z
" transform="scale(0.015625)"/>
      </defs>
      <use xlink:href="#DejaVuSans-30"/>
      <use xlink:href="#DejaVuSans-30" x="63.623047"/>
     </g>
    </g>
   </g>
   <g id="xtick_2">
    <g id="line2d_3">
     <path d="M 209.334802 460.621468 
L 206.257306 463.407368 
" style="fill: none; stroke: #000000; stroke-width: 0.8; stroke-linecap: square"/>
    </g>
    <g id="text_2">
     <!-- 01 -->
     <g transform="translate(181.023931 505.435143) rotate(-45) scale(0.21 -0.21)">
      <defs>
       <path id="DejaVuSans-31" d="M 794 531 
L 1825 531 
L 1825 4091 
L 703 3866 
L 703 4441 
L 1819 4666 
L 2450 4666 
L 2450 531 
L 3481 531 
L 3481 0 
L 794 0 
L 794 531 
z
" transform="scale(0.015625)"/>
      </defs>
      <use xlink:href="#DejaVuSans-30"/>
      <use xlink:href="#DejaVuSans-31" x="63.623047"/>
     </g>
    </g>
   </g>
   <g id="xtick_3">
    <g id="line2d_4">
     <path d="M 259.902405 476.82772 
L 256.877048 479.664949 
" style="fill: none; stroke: #000000; stroke-width: 0.8; stroke-linecap: square"/>
    </g>
    <g id="text_3">
     <!-- 10 -->
     <g transform="translate(231.60781 521.799516) rotate(-45) scale(0.21 -0.21)">
      <use xlink:href="#DejaVuSans-31"/>
      <use xlink:href="#DejaVuSans-30" x="63.623047"/>
     </g>
    </g>
   </g>
   <g id="xtick_4">
    <g id="line2d_5">
     <path d="M 311.405283 493.333715 
L 308.434531 496.223705 
" style="fill: none; stroke: #000000; stroke-width: 0.8; stroke-linecap: square"/>
    </g>
    <g id="text_4">
     <!-- 11 -->
     <g transform="translate(283.128654 538.467006) rotate(-45) scale(0.21 -0.21)">
      <use xlink:href="#DejaVuSans-31"/>
      <use xlink:href="#DejaVuSans-31" x="63.623047"/>
     </g>
    </g>
   </g>
  </g>
  <g id="axis3d_2">
   <g id="line2d_6">
    <path d="M 455.554898 390.069341 
L 340.912731 504.076731 
" style="fill: none; stroke: #000000; stroke-width: 0.8; stroke-linecap: square"/>
   </g>
   <g id="xtick_5">
    <g id="line2d_7">
     <path d="M 356.140222 486.651363 
L 361.364886 488.306415 
" style="fill: none; stroke: #000000; stroke-width: 0.8; stroke-linecap: square"/>
    </g>
    <g id="text_5">
     <!-- 00 -->
     <g transform="translate(368.70027 499.207917) rotate(-337.5) scale(0.21 -0.21)">
      <use xlink:href="#DejaVuSans-30"/>
      <use xlink:href="#DejaVuSans-30" x="63.623047"/>
     </g>
    </g>
   </g>
   <g id="xtick_6">
    <g id="line2d_8">
     <path d="M 384.5233 458.46129 
L 389.691587 460.064734 
" style="fill: none; stroke: #000000; stroke-width: 0.8; stroke-linecap: square"/>
    </g>
    <g id="text_6">
     <!-- 01 -->
     <g transform="translate(396.913817 470.822876) rotate(-337.5) scale(0.21 -0.21)">
      <use xlink:href="#DejaVuSans-30"/>
      <use xlink:href="#DejaVuSans-31" x="63.623047"/>
     </g>
    </g>
   </g>
   <g id="xtick_7">
    <g id="line2d_9">
     <path d="M 412.028511 431.143114 
L 417.141381 432.697327 
" style="fill: none; stroke: #000000; stroke-width: 0.8; stroke-linecap: square"/>
    </g>
    <g id="text_7">
     <!-- 10 -->
     <g transform="translate(424.254695 443.315808) rotate(-337.5) scale(0.21 -0.21)">
      <use xlink:href="#DejaVuSans-31"/>
      <use xlink:href="#DejaVuSans-30" x="63.623047"/>
     </g>
    </g>
   </g>
   <g id="xtick_8">
    <g id="line2d_10">
     <path d="M 438.695964 404.657001 
L 443.754368 406.164215 
" style="fill: none; stroke: #000000; stroke-width: 0.8; stroke-linecap: square"/>
    </g>
    <g id="text_8">
     <!-- 11 -->
     <g transform="translate(450.762776 416.646599) rotate(-337.5) scale(0.21 -0.21)">
      <use xlink:href="#DejaVuSans-31"/>
      <use xlink:href="#DejaVuSans-31" x="63.623047"/>
     </g>
    </g>
   </g>
  </g>
  <g id="axis3d_3">
   <g id="line2d_11">
    <path d="M 455.554898 390.069341 
L 462.583588 181.103065 
" style="fill: none; stroke: #000000; stroke-width: 0.8; stroke-linecap: square"/>
   </g>
   <g id="xtick_9">
    <g id="line2d_12">
     <path d="M 454.100387 382.959542 
L 459.134622 384.436593 
" style="fill: none; stroke: #000000; stroke-width: 0.8; stroke-linecap: square"/>
    </g>
    <g id="text_9">
     <!-- 0.00 -->
     <g transform="translate(469.275243 377.168063) scale(0.21 -0.21)">
      <defs>
       <path id="DejaVuSans-2e" d="M 684 794 
L 1344 794 
L 1344 0 
L 684 0 
L 684 794 
z
" transform="scale(0.015625)"/>
      </defs>
      <use xlink:href="#DejaVuSans-30"/>
      <use xlink:href="#DejaVuSans-2e" x="63.623047"/>
      <use xlink:href="#DejaVuSans-30" x="95.410156"/>
      <use xlink:href="#DejaVuSans-30" x="159.033203"/>
     </g>
    </g>
   </g>
   <g id="xtick_10">
    <g id="line2d_13">
     <path d="M 455.088748 353.262289 
L 460.155154 354.722422 
" style="fill: none; stroke: #000000; stroke-width: 0.8; stroke-linecap: square"/>
    </g>
    <g id="text_10">
     <!-- 0.05 -->
     <g transform="translate(470.356959 347.487135) scale(0.21 -0.21)">
      <defs>
       <path id="DejaVuSans-35" d="M 691 4666 
L 3169 4666 
L 3169 4134 
L 1269 4134 
L 1269 2991 
Q 1406 3038 1543 3061 
Q 1681 3084 1819 3084 
Q 2600 3084 3056 2656 
Q 3513 2228 3513 1497 
Q 3513 744 3044 326 
Q 2575 -91 1722 -91 
Q 1428 -91 1123 -41 
Q 819 9 494 109 
L 494 744 
Q 775 591 1075 516 
Q 1375 441 1709 441 
Q 2250 441 2565 725 
Q 2881 1009 2881 1497 
Q 2881 1984 2565 2268 
Q 2250 2553 1709 2553 
Q 1456 2553 1204 2497 
Q 953 2441 691 2322 
L 691 4666 
z
" transform="scale(0.015625)"/>
      </defs>
      <use xlink:href="#DejaVuSans-30"/>
      <use xlink:href="#DejaVuSans-2e" x="63.623047"/>
      <use xlink:href="#DejaVuSans-30" x="95.410156"/>
      <use xlink:href="#DejaVuSans-35" x="159.033203"/>
     </g>
    </g>
   </g>
   <g id="xtick_11">
    <g id="line2d_14">
     <path d="M 456.089466 323.193746 
L 461.188456 324.636423 
" style="fill: none; stroke: #000000; stroke-width: 0.8; stroke-linecap: square"/>
    </g>
    <g id="text_11">
     <!-- 0.10 -->
     <g transform="translate(471.452187 317.43544) scale(0.21 -0.21)">
      <use xlink:href="#DejaVuSans-30"/>
      <use xlink:href="#DejaVuSans-2e" x="63.623047"/>
      <use xlink:href="#DejaVuSans-31" x="95.410156"/>
      <use xlink:href="#DejaVuSans-30" x="159.033203"/>
     </g>
    </g>
   </g>
   <g id="xtick_12">
    <g id="line2d_15">
     <path d="M 457.102774 292.746909 
L 462.23477 294.171571 
" style="fill: none; stroke: #000000; stroke-width: 0.8; stroke-linecap: square"/>
    </g>
    <g id="text_12">
     <!-- 0.15 -->
     <g transform="translate(472.561183 287.005985) scale(0.21 -0.21)">
      <use xlink:href="#DejaVuSans-30"/>
      <use xlink:href="#DejaVuSans-2e" x="63.623047"/>
      <use xlink:href="#DejaVuSans-31" x="95.410156"/>
      <use xlink:href="#DejaVuSans-35" x="159.033203"/>
     </g>
    </g>
   </g>
   <g id="xtick_13">
    <g id="line2d_16">
     <path d="M 458.128911 261.914591 
L 463.294343 263.320666 
" style="fill: none; stroke: #000000; stroke-width: 0.8; stroke-linecap: square"/>
    </g>
    <g id="text_13">
     <!-- 0.20 -->
     <g transform="translate(473.684207 256.191603) scale(0.21 -0.21)">
      <defs>
       <path id="DejaVuSans-32" d="M 1228 531 
L 3431 531 
L 3431 0 
L 469 0 
L 469 531 
Q 828 903 1448 1529 
Q 2069 2156 2228 2338 
Q 2531 2678 2651 2914 
Q 2772 3150 2772 3378 
Q 2772 3750 2511 3984 
Q 2250 4219 1831 4219 
Q 1534 4219 1204 4116 
Q 875 4013 500 3803 
L 500 4441 
Q 881 4594 1212 4672 
Q 1544 4750 1819 4750 
Q 2544 4750 2975 4387 
Q 3406 4025 3406 3419 
Q 3406 3131 3298 2873 
Q 3191 2616 2906 2266 
Q 2828 2175 2409 1742 
Q 1991 1309 1228 531 
z
" transform="scale(0.015625)"/>
      </defs>
      <use xlink:href="#DejaVuSans-30"/>
      <use xlink:href="#DejaVuSans-2e" x="63.623047"/>
      <use xlink:href="#DejaVuSans-32" x="95.410156"/>
      <use xlink:href="#DejaVuSans-30" x="159.033203"/>
     </g>
    </g>
   </g>
   <g id="xtick_14">
    <g id="line2d_17">
     <path d="M 459.168123 230.689426 
L 464.367429 232.076323 
" style="fill: none; stroke: #000000; stroke-width: 0.8; stroke-linecap: square"/>
    </g>
    <g id="text_14">
     <!-- 0.25 -->
     <g transform="translate(474.821528 224.984944) scale(0.21 -0.21)">
      <use xlink:href="#DejaVuSans-30"/>
      <use xlink:href="#DejaVuSans-2e" x="63.623047"/>
      <use xlink:href="#DejaVuSans-32" x="95.410156"/>
      <use xlink:href="#DejaVuSans-35" x="159.033203"/>
     </g>
    </g>
   </g>
   <g id="xtick_15">
    <g id="line2d_18">
     <path d="M 460.220661 199.063857 
L 465.454287 200.430966 
" style="fill: none; stroke: #000000; stroke-width: 0.8; stroke-linecap: square"/>
    </g>
    <g id="text_15">
     <!-- 0.30 -->
     <g transform="translate(475.97342 193.378468) scale(0.21 -0.21)">
      <defs>
       <path id="DejaVuSans-33" d="M 2597 2516 
Q 3050 2419 3304 2112 
Q 3559 1806 3559 1356 
Q 3559 666 3084 287 
Q 2609 -91 1734 -91 
Q 1441 -91 1130 -33 
Q 819 25 488 141 
L 488 750 
Q 750 597 1062 519 
Q 1375 441 1716 441 
Q 2309 441 2620 675 
Q 2931 909 2931 1356 
Q 2931 1769 2642 2001 
Q 2353 2234 1838 2234 
L 1294 2234 
L 1294 2753 
L 1863 2753 
Q 2328 2753 2575 2939 
Q 2822 3125 2822 3475 
Q 2822 3834 2567 4026 
Q 2313 4219 1838 4219 
Q 1578 4219 1281 4162 
Q 984 4106 628 3988 
L 628 4550 
Q 988 4650 1302 4700 
Q 1616 4750 1894 4750 
Q 2613 4750 3031 4423 
Q 3450 4097 3450 3541 
Q 3450 3153 3228 2886 
Q 3006 2619 2597 2516 
z
" transform="scale(0.015625)"/>
      </defs>
      <use xlink:href="#DejaVuSans-30"/>
      <use xlink:href="#DejaVuSans-2e" x="63.623047"/>
      <use xlink:href="#DejaVuSans-33" x="95.410156"/>
      <use xlink:href="#DejaVuSans-30" x="159.033203"/>
     </g>
    </g>
   </g>
  </g>
  <g id="axes_1">
   <g id="Poly3DCollection_1">
    <path d="M 259.819377 336.701897 
L 259.866748 343.199915 
L 283.572276 350.22848 
L 283.556797 343.712281 
z
" clip-path="url(#p8cbd61672c)" style="fill: #648fff"/>
    <path d="M 245.724241 348.882244 
L 245.791079 355.411799 
L 259.866748 343.199915 
L 259.819377 336.701897 
z
" clip-path="url(#p8cbd61672c)" style="fill: #324880"/>
    <path d="M 245.791079 355.411799 
L 269.612317 362.544934 
L 283.572276 350.22848 
L 259.866748 343.199915 
z
" clip-path="url(#p8cbd61672c)" style="fill: #577ddf"/>
    <path d="M 245.724241 348.882244 
L 259.819377 336.701897 
L 283.556797 343.712281 
L 269.577683 355.99707 
z
" clip-path="url(#p8cbd61672c)" style="fill: #3f599f"/>
    <path d="M 269.577683 355.99707 
L 283.556797 343.712281 
L 283.572276 350.22848 
L 269.612317 362.544934 
z
" clip-path="url(#p8cbd61672c)" style="fill: #648fff"/>
    <path d="M 245.724241 348.882244 
L 269.577683 355.99707 
L 269.612317 362.544934 
L 245.791079 355.411799 
z
" clip-path="url(#p8cbd61672c)" style="fill: #324880"/>
    <path d="M 307.497436 350.782682 
L 307.480474 357.317135 
L 331.593953 364.466656 
L 331.643915 357.913874 
z
" clip-path="url(#p8cbd61672c)" style="fill: #648fff"/>
    <path d="M 293.636861 363.173262 
L 293.638733 369.739508 
L 307.480474 357.317135 
L 307.497436 350.782682 
z
" clip-path="url(#p8cbd61672c)" style="fill: #324880"/>
    <path d="M 293.638733 369.739508 
L 317.872991 376.99632 
L 331.593953 364.466656 
L 307.480474 357.317135 
z
" clip-path="url(#p8cbd61672c)" style="fill: #577ddf"/>
    <path d="M 293.636861 363.173262 
L 307.497436 350.782682 
L 331.643915 357.913874 
L 317.904451 370.411617 
z
" clip-path="url(#p8cbd61672c)" style="fill: #3f599f"/>
    <path d="M 317.904451 370.411617 
L 331.643915 357.913874 
L 331.593953 364.466656 
L 317.872991 376.99632 
z
" clip-path="url(#p8cbd61672c)" style="fill: #648fff"/>
    <path d="M 231.41878 361.244344 
L 231.505663 367.805657 
L 255.443436 375.045713 
L 255.389072 368.465963 
z
" clip-path="url(#p8cbd61672c)" style="fill: #648fff"/>
    <path d="M 293.636861 363.173262 
L 317.904451 370.411617 
L 317.872991 376.99632 
L 293.638733 369.739508 
z
" clip-path="url(#p8cbd61672c)" style="fill: #324880"/>
    <path d="M 216.898252 373.792295 
L 217.005775 380.385588 
L 231.505663 367.805657 
L 231.41878 361.244344 
z
" clip-path="url(#p8cbd61672c)" style="fill: #324880"/>
    <path d="M 217.005775 380.385588 
L 241.060907 387.734988 
L 255.443436 375.045713 
L 231.505663 367.805657 
z
" clip-path="url(#p8cbd61672c)" style="fill: #577ddf"/>
    <path d="M 216.898252 373.792295 
L 231.41878 361.244344 
L 255.389072 368.465963 
L 240.98622 381.123131 
z
" clip-path="url(#p8cbd61672c)" style="fill: #3f599f"/>
    <path d="M 240.98622 381.123131 
L 255.389072 368.465963 
L 255.443436 375.045713 
L 241.060907 387.734988 
z
" clip-path="url(#p8cbd61672c)" style="fill: #648fff"/>
    <path d="M 216.898252 373.792295 
L 240.98622 381.123131 
L 241.060907 387.734988 
L 217.005775 380.385588 
z
" clip-path="url(#p8cbd61672c)" style="fill: #324880"/>
    <path d="M 279.567664 375.750338 
L 279.588941 382.348599 
L 303.944894 389.715135 
L 303.957285 383.098291 
z
" clip-path="url(#p8cbd61672c)" style="fill: #648fff"/>
    <path d="M 265.285099 388.518154 
L 265.326371 395.148648 
L 279.588941 382.348599 
L 279.567664 375.750338 
z
" clip-path="url(#p8cbd61672c)" style="fill: #324880"/>
    <path d="M 265.326371 395.148648 
L 289.804936 402.627416 
L 303.944894 389.715135 
L 279.588941 382.348599 
z
" clip-path="url(#p8cbd61672c)" style="fill: #577ddf"/>
    <path d="M 265.285099 388.518154 
L 279.567664 375.750338 
L 303.957285 383.098291 
L 289.797672 395.978212 
z
" clip-path="url(#p8cbd61672c)" style="fill: #3f599f"/>
    <path d="M 289.797672 395.978212 
L 303.957285 383.098291 
L 303.944894 389.715135 
L 289.804936 402.627416 
z
" clip-path="url(#p8cbd61672c)" style="fill: #648fff"/>
    <path d="M 265.285099 388.518154 
L 289.797672 395.978212 
L 289.804936 402.627416 
L 265.326371 395.148648 
z
" clip-path="url(#p8cbd61672c)" style="fill: #324880"/>
    <path d="M 300.276462 416.698004 
L 300.269021 423.398695 
L 325.311406 431.128178 
L 325.354441 424.408508 
z
" clip-path="url(#p8cbd61672c)" style="fill: #648fff"/>
    <path d="M 285.804742 430.096838 
L 285.817832 436.830448 
L 300.269021 423.398695 
L 300.276462 416.698004 
z
" clip-path="url(#p8cbd61672c)" style="fill: #324880"/>
    <path d="M 285.817832 436.830448 
L 310.990344 444.680593 
L 325.311406 431.128178 
L 300.269021 423.398695 
z
" clip-path="url(#p8cbd61672c)" style="fill: #577ddf"/>
    <path d="M 285.804742 430.096838 
L 300.276462 416.698004 
L 325.354441 424.408508 
L 311.01322 437.927879 
z
" clip-path="url(#p8cbd61672c)" style="fill: #3f599f"/>
    <path d="M 311.01322 437.927879 
L 325.354441 424.408508 
L 325.311406 431.128178 
L 310.990344 444.680593 
z
" clip-path="url(#p8cbd61672c)" style="fill: #648fff"/>
    <path d="M 285.804742 430.096838 
L 311.01322 437.927879 
L 310.990344 444.680593 
L 285.817832 436.830448 
z
" clip-path="url(#p8cbd61672c)" style="fill: #324880"/>
    <path d="M 350.657651 432.188261 
L 350.578383 438.926983 
L 376.072987 446.796046 
L 376.189142 440.038202 
z
" clip-path="url(#p8cbd61672c)" style="fill: #648fff"/>
    <path d="M 336.449876 445.829804 
L 336.390382 452.601693 
L 350.578383 438.926983 
L 350.657651 432.188261 
z
" clip-path="url(#p8cbd61672c)" style="fill: #324880"/>
    <path d="M 336.390382 452.601693 
L 362.021045 460.594713 
L 376.072987 446.796046 
L 350.578383 438.926983 
z
" clip-path="url(#p8cbd61672c)" style="fill: #577ddf"/>
    <path d="M 336.449876 445.829804 
L 350.657651 432.188261 
L 376.189142 440.038202 
L 362.117822 453.80358 
z
" clip-path="url(#p8cbd61672c)" style="fill: #3f599f"/>
    <path d="M 362.117822 453.80358 
L 376.189142 440.038202 
L 376.072987 446.796046 
L 362.021045 460.594713 
z
" clip-path="url(#p8cbd61672c)" style="fill: #648fff"/>
    <path d="M 271.106412 443.705483 
L 271.140677 450.472227 
L 296.444335 458.445881 
L 296.446411 451.659911 
z
" clip-path="url(#p8cbd61672c)" style="fill: #648fff"/>
    <path d="M 336.449876 445.829804 
L 362.117822 453.80358 
L 362.021045 460.594713 
L 336.390382 452.601693 
z
" clip-path="url(#p8cbd61672c)" style="fill: #324880"/>
    <path d="M 256.176104 457.528907 
L 256.232215 464.328996 
L 271.140677 450.472227 
L 271.106412 443.705483 
z
" clip-path="url(#p8cbd61672c)" style="fill: #324880"/>
    <path d="M 256.232215 464.328996 
L 281.668038 472.429097 
L 296.444335 458.445881 
L 271.140677 450.472227 
z
" clip-path="url(#p8cbd61672c)" style="fill: #577ddf"/>
    <path d="M 256.176104 457.528907 
L 271.106412 443.705483 
L 296.446411 451.659911 
L 281.648649 465.609661 
z
" clip-path="url(#p8cbd61672c)" style="fill: #3f599f"/>
    <path d="M 281.648649 465.609661 
L 296.446411 451.659911 
L 296.444335 458.445881 
L 281.668038 472.429097 
z
" clip-path="url(#p8cbd61672c)" style="fill: #648fff"/>
    <path d="M 256.176104 457.528907 
L 281.648649 465.609661 
L 281.668038 472.429097 
L 256.232215 464.328996 
z
" clip-path="url(#p8cbd61672c)" style="fill: #324880"/>
    <path d="M 322.017591 459.686908 
L 321.978509 466.492174 
L 347.746364 474.612105 
L 347.823131 467.787473 
z
" clip-path="url(#p8cbd61672c)" style="fill: #648fff"/>
    <path d="M 307.355435 473.764723 
L 307.337424 480.603576 
L 321.978509 466.492174 
L 322.017591 459.686908 
z
" clip-path="url(#p8cbd61672c)" style="fill: #324880"/>
    <path d="M 307.337424 480.603576 
L 333.243605 488.853463 
L 347.746364 474.612105 
L 321.978509 466.492174 
z
" clip-path="url(#p8cbd61672c)" style="fill: #577ddf"/>
    <path d="M 307.355435 473.764723 
L 322.017591 459.686908 
L 347.823131 467.787473 
L 333.299708 481.995125 
z
" clip-path="url(#p8cbd61672c)" style="fill: #3f599f"/>
    <path d="M 333.299708 481.995125 
L 347.823131 467.787473 
L 347.746364 474.612105 
L 333.243605 488.853463 
z
" clip-path="url(#p8cbd61672c)" style="fill: #648fff"/>
    <path d="M 307.355435 473.764723 
L 333.299708 481.995125 
L 333.243605 488.853463 
L 307.337424 480.603576 
z
" clip-path="url(#p8cbd61672c)" style="fill: #324880"/>
   </g>
   <g id="Poly3DCollection_2">
    <path d="M 136.528765 428.773531 
L 339.048227 493.361717 
L 449.428844 384.352887 
L 255.024599 327.221145 
z
" clip-path="url(#p8cbd61672c)" style="fill-opacity: 0.25"/>
   </g>
   <g id="Poly3DCollection_3">
    <path d="M 342.383171 377.712947 
L 355.998899 365.106643 
L 380.565102 372.361792 
L 367.075789 385.078076 
z
" clip-path="url(#p8cbd61672c)" style="fill: #3f599f"/>
    <path d="M 391.985121 392.507845 
L 405.345283 379.680135 
L 430.34225 387.062502 
L 417.114032 400.003109 
z
" clip-path="url(#p8cbd61672c)" style="fill: #3f599f"/>
    <path d="M 187.192294 399.462772 
L 202.157768 386.530321 
L 226.364238 393.972869 
L 211.518086 407.019606 
z
" clip-path="url(#p8cbd61672c)" style="fill: #3f599f"/>
    <path d="M 314.52677 403.504167 
L 328.560709 390.510657 
L 353.38076 397.988287 
L 339.475274 411.096894 
z
" clip-path="url(#p8cbd61672c)" style="fill: #3f599f"/>
    <path d="M 355.998899 365.106643 
L 358.551812 164.276685 
L 384.162427 170.929412 
L 380.565102 372.361792 
z
" clip-path="url(#p8cbd61672c)" style="fill: #324880"/>
    <path d="M 342.383171 377.712947 
L 344.381762 175.837788 
L 358.551812 164.276685 
L 355.998899 365.106643 
z
" clip-path="url(#p8cbd61672c)" style="fill: #648fff"/>
    <path d="M 202.157768 386.530321 
L 200.148472 283.15766 
L 224.872123 290.29811 
L 226.364238 393.972869 
z
" clip-path="url(#p8cbd61672c)" style="fill: #324880"/>
    <path d="M 187.192294 399.462772 
L 184.840939 295.566045 
L 200.148472 283.15766 
L 202.157768 386.530321 
z
" clip-path="url(#p8cbd61672c)" style="fill: #648fff"/>
    <path d="M 236.060151 414.643626 
L 250.784275 401.481081 
L 275.42072 409.05583 
L 260.821387 422.335731 
z
" clip-path="url(#p8cbd61672c)" style="fill: #3f599f"/>
    <path d="M 367.075789 385.078076 
L 380.565102 372.361792 
L 384.162427 170.929412 
L 370.129863 182.595643 
z
" clip-path="url(#p8cbd61672c)" style="fill: #324880"/>
    <path d="M 364.646117 418.757288 
L 378.420312 405.532046 
L 403.682289 413.142817 
L 390.042286 426.486256 
z
" clip-path="url(#p8cbd61672c)" style="fill: #3f599f"/>
    <path d="M 342.383171 377.712947 
L 367.075789 385.078076 
L 370.129863 182.595643 
L 344.381762 175.837788 
z
" clip-path="url(#p8cbd61672c)" style="fill: #648fff"/>
    <path d="M 211.518086 407.019606 
L 226.364238 393.972869 
L 224.872123 290.29811 
L 209.68903 302.818548 
z
" clip-path="url(#p8cbd61672c)" style="fill: #324880"/>
    <path d="M 405.345283 379.680135 
L 410.005538 177.642533 
L 436.084327 184.416874 
L 430.34225 387.062502 
z
" clip-path="url(#p8cbd61672c)" style="fill: #324880"/>
    <path d="M 187.192294 399.462772 
L 211.518086 407.019606 
L 209.68903 302.818548 
L 184.840939 295.566045 
z
" clip-path="url(#p8cbd61672c)" style="fill: #648fff"/>
    <path d="M 391.985121 392.507845 
L 396.113561 189.415334 
L 410.005538 177.642533 
L 405.345283 379.680135 
z
" clip-path="url(#p8cbd61672c)" style="fill: #648fff"/>
    <path d="M 156.56545 425.929036 
L 171.996638 412.594136 
L 196.442569 420.267909 
L 181.132332 433.722483 
z
" clip-path="url(#p8cbd61672c)" style="fill: #3f599f"/>
    <path d="M 250.784275 401.481081 
L 249.818668 297.502935 
L 274.991135 304.773008 
L 275.42072 409.05583 
z
" clip-path="url(#p8cbd61672c)" style="fill: #324880"/>
    <path d="M 236.060151 414.643626 
L 234.762901 310.136951 
L 249.818668 297.502935 
L 250.784275 401.481081 
z
" clip-path="url(#p8cbd61672c)" style="fill: #648fff"/>
    <path d="M 417.114032 400.003109 
L 430.34225 387.062502 
L 436.084327 184.416874 
L 422.336105 196.297712 
z
" clip-path="url(#p8cbd61672c)" style="fill: #324880"/>
    <path d="M 328.560709 390.510657 
L 329.987414 187.581891 
L 355.874158 194.447387 
L 353.38076 397.988287 
z
" clip-path="url(#p8cbd61672c)" style="fill: #324880"/>
    <path d="M 391.985121 392.507845 
L 417.114032 400.003109 
L 422.336105 196.297712 
L 396.113561 189.415334 
z
" clip-path="url(#p8cbd61672c)" style="fill: #648fff"/>
    <path d="M 314.52677 403.504167 
L 315.363401 199.513374 
L 329.987414 187.581891 
L 328.560709 390.510657 
z
" clip-path="url(#p8cbd61672c)" style="fill: #648fff"/>
    <path d="M 184.840939 295.566045 
L 209.68903 302.818548 
L 224.872123 290.29811 
L 200.148472 283.15766 
z
" clip-path="url(#p8cbd61672c)" style="fill: #577ddf"/>
    <path d="M 260.821387 422.335731 
L 275.42072 409.05583 
L 274.991135 304.773008 
L 260.065641 317.522154 
z
" clip-path="url(#p8cbd61672c)" style="fill: #324880"/>
    <path d="M 171.996638 412.594136 
L 169.292788 308.169477 
L 194.266188 315.536691 
L 196.442569 420.267909 
z
" clip-path="url(#p8cbd61672c)" style="fill: #324880"/>
    <path d="M 236.060151 414.643626 
L 260.821387 422.335731 
L 260.065641 317.522154 
L 234.762901 310.136951 
z
" clip-path="url(#p8cbd61672c)" style="fill: #648fff"/>
    <path d="M 156.56545 425.929036 
L 153.498301 320.97259 
L 169.292788 308.169477 
L 171.996638 412.594136 
z
" clip-path="url(#p8cbd61672c)" style="fill: #648fff"/>
    <path d="M 205.921047 441.586302 
L 221.107529 428.010436 
L 245.994472 435.822646 
L 230.934613 449.521452 
z
" clip-path="url(#p8cbd61672c)" style="fill: #3f599f"/>
    <path d="M 339.475274 411.096894 
L 353.38076 397.988287 
L 355.874158 194.447387 
L 341.389947 206.489104 
z
" clip-path="url(#p8cbd61672c)" style="fill: #324880"/>
    <path d="M 314.52677 403.504167 
L 339.475274 411.096894 
L 341.389947 206.489104 
L 315.363401 199.513374 
z
" clip-path="url(#p8cbd61672c)" style="fill: #648fff"/>
    <path d="M 344.381762 175.837788 
L 370.129863 182.595643 
L 384.162427 170.929412 
L 358.551812 164.276685 
z
" clip-path="url(#p8cbd61672c)" style="fill: #577ddf"/>
    <path d="M 181.132332 433.722483 
L 196.442569 420.267909 
L 194.266188 315.536691 
L 178.597873 328.457259 
z
" clip-path="url(#p8cbd61672c)" style="fill: #324880"/>
    <path d="M 378.420312 405.532046 
L 381.999659 201.376205 
L 408.367237 208.369225 
L 403.682289 413.142817 
z
" clip-path="url(#p8cbd61672c)" style="fill: #324880"/>
    <path d="M 156.56545 425.929036 
L 181.132332 433.722483 
L 178.597873 328.457259 
L 153.498301 320.97259 
z
" clip-path="url(#p8cbd61672c)" style="fill: #648fff"/>
    <path d="M 364.646117 418.757288 
L 367.658473 213.52969 
L 381.999659 201.376205 
L 378.420312 405.532046 
z
" clip-path="url(#p8cbd61672c)" style="fill: #648fff"/>
    <path d="M 234.762901 310.136951 
L 260.065641 317.522154 
L 274.991135 304.773008 
L 249.818668 297.502935 
z
" clip-path="url(#p8cbd61672c)" style="fill: #577ddf"/>
    <path d="M 221.107529 428.010436 
L 219.468306 322.971378 
L 244.902297 330.474468 
L 245.994472 435.822646 
z
" clip-path="url(#p8cbd61672c)" style="fill: #324880"/>
    <path d="M 205.921047 441.586302 
L 203.929155 336.011025 
L 219.468306 322.971378 
L 221.107529 428.010436 
z
" clip-path="url(#p8cbd61672c)" style="fill: #648fff"/>
    <path d="M 390.042286 426.486256 
L 403.682289 413.142817 
L 408.367237 208.369225 
L 394.172369 220.636041 
z
" clip-path="url(#p8cbd61672c)" style="fill: #324880"/>
    <path d="M 364.646117 418.757288 
L 390.042286 426.486256 
L 394.172369 220.636041 
L 367.658473 213.52969 
z
" clip-path="url(#p8cbd61672c)" style="fill: #648fff"/>
    <path d="M 153.498301 320.97259 
L 178.597873 328.457259 
L 194.266188 315.536691 
L 169.292788 308.169477 
z
" clip-path="url(#p8cbd61672c)" style="fill: #577ddf"/>
    <path d="M 396.113561 189.415334 
L 422.336105 196.297712 
L 436.084327 184.416874 
L 410.005538 177.642533 
z
" clip-path="url(#p8cbd61672c)" style="fill: #577ddf"/>
    <path d="M 230.934613 449.521452 
L 245.994472 435.822646 
L 244.902297 330.474468 
L 229.495372 343.634847 
z
" clip-path="url(#p8cbd61672c)" style="fill: #324880"/>
    <path d="M 205.921047 441.586302 
L 230.934613 449.521452 
L 229.495372 343.634847 
L 203.929155 336.011025 
z
" clip-path="url(#p8cbd61672c)" style="fill: #648fff"/>
    <path d="M 315.363401 199.513374 
L 341.389947 206.489104 
L 355.874158 194.447387 
L 329.987414 187.581891 
z
" clip-path="url(#p8cbd61672c)" style="fill: #577ddf"/>
    <path d="M 203.929155 336.011025 
L 229.495372 343.634847 
L 244.902297 330.474468 
L 219.468306 322.971378 
z
" clip-path="url(#p8cbd61672c)" style="fill: #577ddf"/>
    <path d="M 367.658473 213.52969 
L 394.172369 220.636041 
L 408.367237 208.369225 
L 381.999659 201.376205 
z
" clip-path="url(#p8cbd61672c)" style="fill: #577ddf"/>
   </g>
   <g id="text_16">
    <!-- Real Amplitude (ρ) -->
    <g transform="translate(190.023516 51.6) scale(0.21 -0.21)">
     <defs>
      <path id="DejaVuSans-52" d="M 2841 2188 
Q 3044 2119 3236 1894 
Q 3428 1669 3622 1275 
L 4263 0 
L 3584 0 
L 2988 1197 
Q 2756 1666 2539 1819 
Q 2322 1972 1947 1972 
L 1259 1972 
L 1259 0 
L 628 0 
L 628 4666 
L 2053 4666 
Q 2853 4666 3247 4331 
Q 3641 3997 3641 3322 
Q 3641 2881 3436 2590 
Q 3231 2300 2841 2188 
z
M 1259 4147 
L 1259 2491 
L 2053 2491 
Q 2509 2491 2742 2702 
Q 2975 2913 2975 3322 
Q 2975 3731 2742 3939 
Q 2509 4147 2053 4147 
L 1259 4147 
z
" transform="scale(0.015625)"/>
      <path id="DejaVuSans-65" d="M 3597 1894 
L 3597 1613 
L 953 1613 
Q 991 1019 1311 708 
Q 1631 397 2203 397 
Q 2534 397 2845 478 
Q 3156 559 3463 722 
L 3463 178 
Q 3153 47 2828 -22 
Q 2503 -91 2169 -91 
Q 1331 -91 842 396 
Q 353 884 353 1716 
Q 353 2575 817 3079 
Q 1281 3584 2069 3584 
Q 2775 3584 3186 3129 
Q 3597 2675 3597 1894 
z
M 3022 2063 
Q 3016 2534 2758 2815 
Q 2500 3097 2075 3097 
Q 1594 3097 1305 2825 
Q 1016 2553 972 2059 
L 3022 2063 
z
" transform="scale(0.015625)"/>
      <path id="DejaVuSans-61" d="M 2194 1759 
Q 1497 1759 1228 1600 
Q 959 1441 959 1056 
Q 959 750 1161 570 
Q 1363 391 1709 391 
Q 2188 391 2477 730 
Q 2766 1069 2766 1631 
L 2766 1759 
L 2194 1759 
z
M 3341 1997 
L 3341 0 
L 2766 0 
L 2766 531 
Q 2569 213 2275 61 
Q 1981 -91 1556 -91 
Q 1019 -91 701 211 
Q 384 513 384 1019 
Q 384 1609 779 1909 
Q 1175 2209 1959 2209 
L 2766 2209 
L 2766 2266 
Q 2766 2663 2505 2880 
Q 2244 3097 1772 3097 
Q 1472 3097 1187 3025 
Q 903 2953 641 2809 
L 641 3341 
Q 956 3463 1253 3523 
Q 1550 3584 1831 3584 
Q 2591 3584 2966 3190 
Q 3341 2797 3341 1997 
z
" transform="scale(0.015625)"/>
      <path id="DejaVuSans-6c" d="M 603 4863 
L 1178 4863 
L 1178 0 
L 603 0 
L 603 4863 
z
" transform="scale(0.015625)"/>
      <path id="DejaVuSans-20" transform="scale(0.015625)"/>
      <path id="DejaVuSans-41" d="M 2188 4044 
L 1331 1722 
L 3047 1722 
L 2188 4044 
z
M 1831 4666 
L 2547 4666 
L 4325 0 
L 3669 0 
L 3244 1197 
L 1141 1197 
L 716 0 
L 50 0 
L 1831 4666 
z
" transform="scale(0.015625)"/>
      <path id="DejaVuSans-6d" d="M 3328 2828 
Q 3544 3216 3844 3400 
Q 4144 3584 4550 3584 
Q 5097 3584 5394 3201 
Q 5691 2819 5691 2113 
L 5691 0 
L 5113 0 
L 5113 2094 
Q 5113 2597 4934 2840 
Q 4756 3084 4391 3084 
Q 3944 3084 3684 2787 
Q 3425 2491 3425 1978 
L 3425 0 
L 2847 0 
L 2847 2094 
Q 2847 2600 2669 2842 
Q 2491 3084 2119 3084 
Q 1678 3084 1418 2786 
Q 1159 2488 1159 1978 
L 1159 0 
L 581 0 
L 581 3500 
L 1159 3500 
L 1159 2956 
Q 1356 3278 1631 3431 
Q 1906 3584 2284 3584 
Q 2666 3584 2933 3390 
Q 3200 3197 3328 2828 
z
" transform="scale(0.015625)"/>
      <path id="DejaVuSans-70" d="M 1159 525 
L 1159 -1331 
L 581 -1331 
L 581 3500 
L 1159 3500 
L 1159 2969 
Q 1341 3281 1617 3432 
Q 1894 3584 2278 3584 
Q 2916 3584 3314 3078 
Q 3713 2572 3713 1747 
Q 3713 922 3314 415 
Q 2916 -91 2278 -91 
Q 1894 -91 1617 61 
Q 1341 213 1159 525 
z
M 3116 1747 
Q 3116 2381 2855 2742 
Q 2594 3103 2138 3103 
Q 1681 3103 1420 2742 
Q 1159 2381 1159 1747 
Q 1159 1113 1420 752 
Q 1681 391 2138 391 
Q 2594 391 2855 752 
Q 3116 1113 3116 1747 
z
" transform="scale(0.015625)"/>
      <path id="DejaVuSans-69" d="M 603 3500 
L 1178 3500 
L 1178 0 
L 603 0 
L 603 3500 
z
M 603 4863 
L 1178 4863 
L 1178 4134 
L 603 4134 
L 603 4863 
z
" transform="scale(0.015625)"/>
      <path id="DejaVuSans-74" d="M 1172 4494 
L 1172 3500 
L 2356 3500 
L 2356 3053 
L 1172 3053 
L 1172 1153 
Q 1172 725 1289 603 
Q 1406 481 1766 481 
L 2356 481 
L 2356 0 
L 1766 0 
Q 1100 0 847 248 
Q 594 497 594 1153 
L 594 3053 
L 172 3053 
L 172 3500 
L 594 3500 
L 594 4494 
L 1172 4494 
z
" transform="scale(0.015625)"/>
      <path id="DejaVuSans-75" d="M 544 1381 
L 544 3500 
L 1119 3500 
L 1119 1403 
Q 1119 906 1312 657 
Q 1506 409 1894 409 
Q 2359 409 2629 706 
Q 2900 1003 2900 1516 
L 2900 3500 
L 3475 3500 
L 3475 0 
L 2900 0 
L 2900 538 
Q 2691 219 2414 64 
Q 2138 -91 1772 -91 
Q 1169 -91 856 284 
Q 544 659 544 1381 
z
M 1991 3584 
L 1991 3584 
z
" transform="scale(0.015625)"/>
      <path id="DejaVuSans-64" d="M 2906 2969 
L 2906 4863 
L 3481 4863 
L 3481 0 
L 2906 0 
L 2906 525 
Q 2725 213 2448 61 
Q 2172 -91 1784 -91 
Q 1150 -91 751 415 
Q 353 922 353 1747 
Q 353 2572 751 3078 
Q 1150 3584 1784 3584 
Q 2172 3584 2448 3432 
Q 2725 3281 2906 2969 
z
M 947 1747 
Q 947 1113 1208 752 
Q 1469 391 1925 391 
Q 2381 391 2643 752 
Q 2906 1113 2906 1747 
Q 2906 2381 2643 2742 
Q 2381 3103 1925 3103 
Q 1469 3103 1208 2742 
Q 947 2381 947 1747 
z
" transform="scale(0.015625)"/>
      <path id="DejaVuSans-28" d="M 1984 4856 
Q 1566 4138 1362 3434 
Q 1159 2731 1159 2009 
Q 1159 1288 1364 580 
Q 1569 -128 1984 -844 
L 1484 -844 
Q 1016 -109 783 600 
Q 550 1309 550 2009 
Q 550 2706 781 3412 
Q 1013 4119 1484 4856 
L 1984 4856 
z
" transform="scale(0.015625)"/>
      <path id="DejaVuSans-3c1" d="M 863 2875 
Q 1053 3194 1525 3475 
Q 1709 3584 2278 3584 
Q 2916 3584 3314 3078 
Q 3713 2572 3713 1747 
Q 3713 922 3314 415 
Q 2916 -91 2278 -91 
Q 1894 -91 1617 61 
Q 1341 213 1159 525 
L 1159 -1331 
L 581 -1331 
L 581 1716 
Q 581 2438 863 2875 
z
M 3116 1747 
Q 3116 2381 2855 2742 
Q 2594 3103 2138 3103 
Q 1681 3103 1420 2742 
Q 1159 2381 1159 1747 
Q 1159 1113 1420 752 
Q 1681 391 2138 391 
Q 2594 391 2855 752 
Q 3116 1113 3116 1747 
z
" transform="scale(0.015625)"/>
      <path id="DejaVuSans-29" d="M 513 4856 
L 1013 4856 
Q 1481 4119 1714 3412 
Q 1947 2706 1947 2009 
Q 1947 1309 1714 600 
Q 1481 -109 1013 -844 
L 513 -844 
Q 928 -128 1133 580 
Q 1338 1288 1338 2009 
Q 1338 2731 1133 3434 
Q 928 4138 513 4856 
z
" transform="scale(0.015625)"/>
     </defs>
     <use xlink:href="#DejaVuSans-52"/>
     <use xlink:href="#DejaVuSans-65" x="64.982422"/>
     <use xlink:href="#DejaVuSans-61" x="126.505859"/>
     <use xlink:href="#DejaVuSans-6c" x="187.785156"/>
     <use xlink:href="#DejaVuSans-20" x="215.568359"/>
     <use xlink:href="#DejaVuSans-41" x="247.355469"/>
     <use xlink:href="#DejaVuSans-6d" x="315.763672"/>
     <use xlink:href="#DejaVuSans-70" x="413.175781"/>
     <use xlink:href="#DejaVuSans-6c" x="476.652344"/>
     <use xlink:href="#DejaVuSans-69" x="504.435547"/>
     <use xlink:href="#DejaVuSans-74" x="532.21875"/>
     <use xlink:href="#DejaVuSans-75" x="571.427734"/>
     <use xlink:href="#DejaVuSans-64" x="634.806641"/>
     <use xlink:href="#DejaVuSans-65" x="698.283203"/>
     <use xlink:href="#DejaVuSans-20" x="759.806641"/>
     <use xlink:href="#DejaVuSans-28" x="791.59375"/>
     <use xlink:href="#DejaVuSans-3c1" x="830.607422"/>
     <use xlink:href="#DejaVuSans-29" x="894.083984"/>
    </g>
   </g>
  </g>
  <g id="patch_6">
   <path d="M 604.8 576 
L 1123.2 576 
L 1123.2 57.6 
L 604.8 57.6 
z
" style="fill: #ffffff"/>
  </g>
  <g id="pane3d_4">
   <g id="patch_7">
    <path d="M 706.07018 436.456468 
L 829.494133 330.550231 
L 827.743197 126.70673 
L 698.643358 223.613571 
" style="fill: #f2f2f2; opacity: 0.5; stroke: #f2f2f2; stroke-linejoin: miter"/>
   </g>
  </g>
  <g id="pane3d_5">
   <g id="patch_8">
    <path d="M 829.494133 330.550231 
L 1031.554898 390.069341 
L 1038.583588 181.103065 
L 827.743197 126.70673 
" style="fill: #e6e6e6; opacity: 0.5; stroke: #e6e6e6; stroke-linejoin: miter"/>
   </g>
  </g>
  <g id="pane3d_6">
   <g id="patch_9">
    <path d="M 706.07018 436.456468 
L 916.912731 504.076731 
L 1031.554898 390.069341 
L 829.494133 330.550231 
" style="fill: #ececec; opacity: 0.5; stroke: #ececec; stroke-linejoin: miter"/>
   </g>
  </g>
  <g id="grid3d_4">
   <g id="Line3DCollection_4">
    <path d="M 734.635886 445.617904 
L 856.925726 338.630493 
L 856.328796 134.081748 
" style="fill: none; stroke: #b0b0b0; stroke-width: 0.8"/>
    <path d="M 784.310046 461.549127 
L 904.58611 352.669358 
L 906.022474 146.902603 
" style="fill: none; stroke: #b0b0b0; stroke-width: 0.8"/>
    <path d="M 834.89502 477.772462 
L 953.066152 366.949661 
L 956.607663 159.953465 
" style="fill: none; stroke: #b0b0b0; stroke-width: 0.8"/>
    <path d="M 886.41609 494.296016 
L 1002.38718 381.477685 
L 1008.108569 173.24058 
" style="fill: none; stroke: #b0b0b0; stroke-width: 0.8"/>
   </g>
  </g>
  <g id="grid3d_5">
   <g id="Line3DCollection_5">
    <path d="M 717.757365 209.265931 
L 724.301379 420.812846 
L 933.880707 487.202708 
" style="fill: none; stroke: #b0b0b0; stroke-width: 0.8"/>
    <path d="M 749.704273 185.285468 
L 754.805664 394.638072 
L 962.24502 458.995448 
" style="fill: none; stroke: #b0b0b0; stroke-width: 0.8"/>
    <path d="M 780.65707 162.051218 
L 784.400054 369.24405 
L 989.731787 431.660877 
" style="fill: none; stroke: #b0b0b0; stroke-width: 0.8"/>
    <path d="M 810.661448 139.528886 
L 813.124663 344.596362 
L 1016.38111 405.159111 
" style="fill: none; stroke: #b0b0b0; stroke-width: 0.8"/>
   </g>
  </g>
  <g id="grid3d_6">
   <g id="Line3DCollection_6">
    <path d="M 1031.996282 376.946777 
L 829.38402 317.730957 
L 705.604317 423.105443 
" style="fill: none; stroke: #b0b0b0; stroke-width: 0.8"/>
    <path d="M 1033.201946 341.101834 
L 829.08335 282.727053 
L 704.331431 386.626226 
" style="fill: none; stroke: #b0b0b0; stroke-width: 0.8"/>
    <path d="M 1034.425804 304.715953 
L 828.778305 247.213739 
L 703.038802 349.581185 
" style="fill: none; stroke: #b0b0b0; stroke-width: 0.8"/>
    <path d="M 1035.668271 267.776796 
L 828.468788 211.179811 
L 701.725966 311.957053 
" style="fill: none; stroke: #b0b0b0; stroke-width: 0.8"/>
    <path d="M 1036.929777 230.271648 
L 828.154699 174.613738 
L 700.392447 273.740142 
" style="fill: none; stroke: #b0b0b0; stroke-width: 0.8"/>
    <path d="M 1038.21076 192.187398 
L 827.835938 137.503643 
L 699.03775 234.916334 
" style="fill: none; stroke: #b0b0b0; stroke-width: 0.8"/>
   </g>
  </g>
  <g id="axis3d_4">
   <g id="line2d_19">
    <path d="M 706.07018 436.456468 
L 916.912731 504.076731 
" style="fill: none; stroke: #000000; stroke-width: 0.8; stroke-linecap: square"/>
   </g>
   <g id="xtick_16">
    <g id="line2d_20">
     <path d="M 735.677227 444.706868 
L 732.549953 447.442819 
" style="fill: none; stroke: #000000; stroke-width: 0.8; stroke-linecap: square"/>
    </g>
    <g id="text_17">
     <!-- 00 -->
     <g transform="translate(707.351686 489.365693) rotate(-45) scale(0.21 -0.21)">
      <use xlink:href="#DejaVuSans-30"/>
      <use xlink:href="#DejaVuSans-30" x="63.623047"/>
     </g>
    </g>
   </g>
   <g id="xtick_17">
    <g id="line2d_21">
     <path d="M 785.334802 460.621468 
L 782.257306 463.407368 
" style="fill: none; stroke: #000000; stroke-width: 0.8; stroke-linecap: square"/>
    </g>
    <g id="text_18">
     <!-- 01 -->
     <g transform="translate(757.023931 505.435143) rotate(-45) scale(0.21 -0.21)">
      <use xlink:href="#DejaVuSans-30"/>
      <use xlink:href="#DejaVuSans-31" x="63.623047"/>
     </g>
    </g>
   </g>
   <g id="xtick_18">
    <g id="line2d_22">
     <path d="M 835.902405 476.82772 
L 832.877048 479.664949 
" style="fill: none; stroke: #000000; stroke-width: 0.8; stroke-linecap: square"/>
    </g>
    <g id="text_19">
     <!-- 10 -->
     <g transform="translate(807.60781 521.799516) rotate(-45) scale(0.21 -0.21)">
      <use xlink:href="#DejaVuSans-31"/>
      <use xlink:href="#DejaVuSans-30" x="63.623047"/>
     </g>
    </g>
   </g>
   <g id="xtick_19">
    <g id="line2d_23">
     <path d="M 887.405283 493.333715 
L 884.434531 496.223705 
" style="fill: none; stroke: #000000; stroke-width: 0.8; stroke-linecap: square"/>
    </g>
    <g id="text_20">
     <!-- 11 -->
     <g transform="translate(859.128654 538.467006) rotate(-45) scale(0.21 -0.21)">
      <use xlink:href="#DejaVuSans-31"/>
      <use xlink:href="#DejaVuSans-31" x="63.623047"/>
     </g>
    </g>
   </g>
  </g>
  <g id="axis3d_5">
   <g id="line2d_24">
    <path d="M 1031.554898 390.069341 
L 916.912731 504.076731 
" style="fill: none; stroke: #000000; stroke-width: 0.8; stroke-linecap: square"/>
   </g>
   <g id="xtick_20">
    <g id="line2d_25">
     <path d="M 932.140222 486.651363 
L 937.364886 488.306415 
" style="fill: none; stroke: #000000; stroke-width: 0.8; stroke-linecap: square"/>
    </g>
    <g id="text_21">
     <!-- 00 -->
     <g transform="translate(944.70027 499.207917) rotate(-337.5) scale(0.21 -0.21)">
      <use xlink:href="#DejaVuSans-30"/>
      <use xlink:href="#DejaVuSans-30" x="63.623047"/>
     </g>
    </g>
   </g>
   <g id="xtick_21">
    <g id="line2d_26">
     <path d="M 960.5233 458.46129 
L 965.691587 460.064734 
" style="fill: none; stroke: #000000; stroke-width: 0.8; stroke-linecap: square"/>
    </g>
    <g id="text_22">
     <!-- 01 -->
     <g transform="translate(972.913817 470.822876) rotate(-337.5) scale(0.21 -0.21)">
      <use xlink:href="#DejaVuSans-30"/>
      <use xlink:href="#DejaVuSans-31" x="63.623047"/>
     </g>
    </g>
   </g>
   <g id="xtick_22">
    <g id="line2d_27">
     <path d="M 988.028511 431.143114 
L 993.141381 432.697327 
" style="fill: none; stroke: #000000; stroke-width: 0.8; stroke-linecap: square"/>
    </g>
    <g id="text_23">
     <!-- 10 -->
     <g transform="translate(1000.254695 443.315808) rotate(-337.5) scale(0.21 -0.21)">
      <use xlink:href="#DejaVuSans-31"/>
      <use xlink:href="#DejaVuSans-30" x="63.623047"/>
     </g>
    </g>
   </g>
   <g id="xtick_23">
    <g id="line2d_28">
     <path d="M 1014.695964 404.657001 
L 1019.754368 406.164215 
" style="fill: none; stroke: #000000; stroke-width: 0.8; stroke-linecap: square"/>
    </g>
    <g id="text_24">
     <!-- 11 -->
     <g transform="translate(1026.762776 416.646599) rotate(-337.5) scale(0.21 -0.21)">
      <use xlink:href="#DejaVuSans-31"/>
      <use xlink:href="#DejaVuSans-31" x="63.623047"/>
     </g>
    </g>
   </g>
  </g>
  <g id="axis3d_6">
   <g id="line2d_29">
    <path d="M 1031.554898 390.069341 
L 1038.583588 181.103065 
" style="fill: none; stroke: #000000; stroke-width: 0.8; stroke-linecap: square"/>
   </g>
   <g id="xtick_24">
    <g id="line2d_30">
     <path d="M 1030.316835 376.455938 
L 1035.358115 377.929312 
" style="fill: none; stroke: #000000; stroke-width: 0.8; stroke-linecap: square"/>
    </g>
    <g id="text_25">
     <!-- −0.2 -->
     <g transform="translate(1045.512136 370.668008) scale(0.21 -0.21)">
      <defs>
       <path id="DejaVuSans-2212" d="M 678 2272 
L 4684 2272 
L 4684 1741 
L 678 1741 
L 678 2272 
z
" transform="scale(0.015625)"/>
      </defs>
      <use xlink:href="#DejaVuSans-2212"/>
      <use xlink:href="#DejaVuSans-30" x="83.789062"/>
      <use xlink:href="#DejaVuSans-2e" x="147.412109"/>
      <use xlink:href="#DejaVuSans-32" x="179.199219"/>
     </g>
    </g>
   </g>
   <g id="xtick_25">
    <g id="line2d_31">
     <path d="M 1031.509571 340.61784 
L 1036.589678 342.070673 
" style="fill: none; stroke: #000000; stroke-width: 0.8; stroke-linecap: square"/>
    </g>
    <g id="text_26">
     <!-- −0.1 -->
     <g transform="translate(1046.817527 334.849733) scale(0.21 -0.21)">
      <use xlink:href="#DejaVuSans-2212"/>
      <use xlink:href="#DejaVuSans-30" x="83.789062"/>
      <use xlink:href="#DejaVuSans-2e" x="147.412109"/>
      <use xlink:href="#DejaVuSans-31" x="179.199219"/>
     </g>
    </g>
   </g>
   <g id="xtick_26">
    <g id="line2d_32">
     <path d="M 1032.720301 304.239068 
L 1037.839838 305.67057 
" style="fill: none; stroke: #000000; stroke-width: 0.8; stroke-linecap: square"/>
    </g>
    <g id="text_27">
     <!-- 0.0 -->
     <g transform="translate(1048.142594 298.491545) scale(0.21 -0.21)">
      <use xlink:href="#DejaVuSans-30"/>
      <use xlink:href="#DejaVuSans-2e" x="63.623047"/>
      <use xlink:href="#DejaVuSans-30" x="95.410156"/>
     </g>
    </g>
   </g>
   <g id="xtick_27">
    <g id="line2d_33">
     <path d="M 1033.949436 267.307293 
L 1039.109019 268.716644 
" style="fill: none; stroke: #000000; stroke-width: 0.8; stroke-linecap: square"/>
    </g>
    <g id="text_28">
     <!-- 0.1 -->
     <g transform="translate(1049.487786 261.581144) scale(0.21 -0.21)">
      <use xlink:href="#DejaVuSans-30"/>
      <use xlink:href="#DejaVuSans-2e" x="63.623047"/>
      <use xlink:href="#DejaVuSans-31" x="95.410156"/>
     </g>
    </g>
   </g>
   <g id="xtick_28">
    <g id="line2d_34">
     <path d="M 1035.197398 229.809808 
L 1040.397658 231.196159 
" style="fill: none; stroke: #000000; stroke-width: 0.8; stroke-linecap: square"/>
    </g>
    <g id="text_29">
     <!-- 0.2 -->
     <g transform="translate(1050.853566 224.105852) scale(0.21 -0.21)">
      <use xlink:href="#DejaVuSans-30"/>
      <use xlink:href="#DejaVuSans-2e" x="63.623047"/>
      <use xlink:href="#DejaVuSans-32" x="95.410156"/>
     </g>
    </g>
   </g>
   <g id="xtick_29">
    <g id="line2d_35">
     <path d="M 1036.464623 191.733516 
L 1041.706207 193.095986 
" style="fill: none; stroke: #000000; stroke-width: 0.8; stroke-linecap: square"/>
    </g>
    <g id="text_30">
     <!-- 0.3 -->
     <g transform="translate(1052.24041 186.052602) scale(0.21 -0.21)">
      <use xlink:href="#DejaVuSans-30"/>
      <use xlink:href="#DejaVuSans-2e" x="63.623047"/>
      <use xlink:href="#DejaVuSans-33" x="95.410156"/>
     </g>
    </g>
   </g>
  </g>
  <g id="axes_2">
   <g id="Poly3DCollection_4">
    <path d="M 821.791079 355.411799 
L 845.612317 362.544934 
L 859.572276 350.22848 
L 835.866748 343.199915 
z
" clip-path="url(#p28f7e032b6)" style="fill: #577ddf"/>
    <path d="M 835.256052 259.42874 
L 835.866748 343.199915 
L 859.572276 350.22848 
L 859.372712 266.217187 
z
" clip-path="url(#p28f7e032b6)" style="fill: #648fff"/>
    <path d="M 820.929317 271.224072 
L 821.791079 355.411799 
L 835.866748 343.199915 
L 835.256052 259.42874 
z
" clip-path="url(#p28f7e032b6)" style="fill: #324880"/>
    <path d="M 869.638733 369.739508 
L 893.872991 376.99632 
L 907.593953 364.466656 
L 883.480474 357.317135 
z
" clip-path="url(#p28f7e032b6)" style="fill: #577ddf"/>
    <path d="M 845.165734 278.115296 
L 859.372712 266.217187 
L 859.572276 350.22848 
L 845.612317 362.544934 
z
" clip-path="url(#p28f7e032b6)" style="fill: #648fff"/>
    <path d="M 820.929317 271.224072 
L 845.165734 278.115296 
L 845.612317 362.544934 
L 821.791079 355.411799 
z
" clip-path="url(#p28f7e032b6)" style="fill: #324880"/>
    <path d="M 883.699172 273.06469 
L 883.480474 357.317135 
L 907.593953 364.466656 
L 908.238182 279.972022 
z
" clip-path="url(#p28f7e032b6)" style="fill: #648fff"/>
    <path d="M 793.005775 380.385588 
L 817.060907 387.734988 
L 831.443436 375.045713 
L 807.505663 367.805657 
z
" clip-path="url(#p28f7e032b6)" style="fill: #577ddf"/>
    <path d="M 869.614593 285.066924 
L 869.638733 369.739508 
L 883.480474 357.317135 
L 883.699172 273.06469 
z
" clip-path="url(#p28f7e032b6)" style="fill: #324880"/>
    <path d="M 820.929317 271.224072 
L 835.256052 259.42874 
L 859.372712 266.217187 
L 845.165734 278.115296 
z
" clip-path="url(#p28f7e032b6)" style="fill: #3f599f"/>
    <path d="M 894.278699 292.079755 
L 908.238182 279.972022 
L 907.593953 364.466656 
L 893.872991 376.99632 
z
" clip-path="url(#p28f7e032b6)" style="fill: #648fff"/>
    <path d="M 806.385326 283.198272 
L 807.505663 367.805657 
L 831.443436 375.045713 
L 830.742368 290.194624 
z
" clip-path="url(#p28f7e032b6)" style="fill: #648fff"/>
    <path d="M 869.614593 285.066924 
L 894.278699 292.079755 
L 893.872991 376.99632 
L 869.638733 369.739508 
z
" clip-path="url(#p28f7e032b6)" style="fill: #324880"/>
    <path d="M 791.619101 295.35544 
L 793.005775 380.385588 
L 807.505663 367.805657 
L 806.385326 283.198272 
z
" clip-path="url(#p28f7e032b6)" style="fill: #324880"/>
    <path d="M 841.326371 395.148648 
L 865.804936 402.627416 
L 879.944894 389.715135 
L 855.588941 382.348599 
z
" clip-path="url(#p28f7e032b6)" style="fill: #577ddf"/>
    <path d="M 816.097635 302.459345 
L 830.742368 290.194624 
L 831.443436 375.045713 
L 817.060907 387.734988 
z
" clip-path="url(#p28f7e032b6)" style="fill: #648fff"/>
    <path d="M 869.614593 285.066924 
L 883.699172 273.06469 
L 908.238182 279.972022 
L 894.278699 292.079755 
z
" clip-path="url(#p28f7e032b6)" style="fill: #3f599f"/>
    <path d="M 791.619101 295.35544 
L 816.097635 302.459345 
L 817.060907 387.734988 
L 793.005775 380.385588 
z
" clip-path="url(#p28f7e032b6)" style="fill: #324880"/>
    <path d="M 855.314543 297.252772 
L 855.588941 382.348599 
L 879.944894 389.715135 
L 880.104714 304.373536 
z
" clip-path="url(#p28f7e032b6)" style="fill: #648fff"/>
    <path d="M 840.794042 309.626478 
L 841.326371 395.148648 
L 855.588941 382.348599 
L 855.314543 297.252772 
z
" clip-path="url(#p28f7e032b6)" style="fill: #324880"/>
    <path d="M 932.992539 286.93997 
L 932.992539 286.93997 
L 957.965091 293.969337 
L 957.965091 293.969337 
z
" clip-path="url(#p28f7e032b6)" style="fill: #648fff"/>
    <path d="M 791.619101 295.35544 
L 806.385326 283.198272 
L 830.742368 290.194624 
L 816.097635 302.459345 
z
" clip-path="url(#p28f7e032b6)" style="fill: #3f599f"/>
    <path d="M 919.160909 299.154599 
L 919.160909 299.154599 
L 932.992539 286.93997 
L 932.992539 286.93997 
z
" clip-path="url(#p28f7e032b6)" style="fill: #324880"/>
    <path d="M 865.711242 316.857689 
L 880.104714 304.373536 
L 879.944894 389.715135 
L 865.804936 402.627416 
z
" clip-path="url(#p28f7e032b6)" style="fill: #648fff"/>
    <path d="M 919.160909 299.154599 
L 932.992539 286.93997 
L 957.965091 293.969337 
L 944.264127 306.292284 
z
" clip-path="url(#p28f7e032b6)" style="fill: #3f599f"/>
    <path d="M 919.160909 299.154599 
L 944.264127 306.292284 
L 957.965091 293.969337 
L 932.992539 286.93997 
z
" clip-path="url(#p28f7e032b6)" style="fill: #577ddf"/>
    <path d="M 840.794042 309.626478 
L 865.711242 316.857689 
L 865.804936 402.627416 
L 841.326371 395.148648 
z
" clip-path="url(#p28f7e032b6)" style="fill: #324880"/>
    <path d="M 944.264127 306.292284 
L 957.965091 293.969337 
L 957.965091 293.969337 
L 944.264127 306.292284 
z
" clip-path="url(#p28f7e032b6)" style="fill: #648fff"/>
    <path d="M 919.160909 299.154599 
L 944.264127 306.292284 
L 944.264127 306.292284 
L 919.160909 299.154599 
z
" clip-path="url(#p28f7e032b6)" style="fill: #324880"/>
    <path d="M 983.158735 301.060938 
L 983.158735 301.060938 
L 1008.576421 308.215603 
L 1008.576421 308.215603 
z
" clip-path="url(#p28f7e032b6)" style="fill: #648fff"/>
    <path d="M 840.794042 309.626478 
L 855.314543 297.252772 
L 880.104714 304.373536 
L 865.711242 316.857689 
z
" clip-path="url(#p28f7e032b6)" style="fill: #3f599f"/>
    <path d="M 969.591312 313.493649 
L 969.591312 313.493649 
L 983.158735 301.060938 
L 983.158735 301.060938 
z
" clip-path="url(#p28f7e032b6)" style="fill: #324880"/>
    <path d="M 969.591312 313.493649 
L 983.158735 301.060938 
L 1008.576421 308.215603 
L 995.145474 320.759552 
z
" clip-path="url(#p28f7e032b6)" style="fill: #3f599f"/>
    <path d="M 969.591312 313.493649 
L 995.145474 320.759552 
L 1008.576421 308.215603 
L 983.158735 301.060938 
z
" clip-path="url(#p28f7e032b6)" style="fill: #577ddf"/>
    <path d="M 995.145474 320.759552 
L 1008.576421 308.215603 
L 1008.576421 308.215603 
L 995.145474 320.759552 
z
" clip-path="url(#p28f7e032b6)" style="fill: #648fff"/>
    <path d="M 905.115793 311.557756 
L 905.115793 311.557756 
L 930.350748 318.806281 
L 930.350748 318.806281 
z
" clip-path="url(#p28f7e032b6)" style="fill: #648fff"/>
    <path d="M 969.591312 313.493649 
L 995.145474 320.759552 
L 995.145474 320.759552 
L 969.591312 313.493649 
z
" clip-path="url(#p28f7e032b6)" style="fill: #324880"/>
    <path d="M 890.852211 324.153839 
L 890.852211 324.153839 
L 905.115793 311.557756 
L 905.115793 311.557756 
z
" clip-path="url(#p28f7e032b6)" style="fill: #324880"/>
    <path d="M 890.852211 324.153839 
L 916.219976 331.515807 
L 930.350748 318.806281 
L 905.115793 311.557756 
z
" clip-path="url(#p28f7e032b6)" style="fill: #577ddf"/>
    <path d="M 890.852211 324.153839 
L 905.115793 311.557756 
L 930.350748 318.806281 
L 916.219976 331.515807 
z
" clip-path="url(#p28f7e032b6)" style="fill: #3f599f"/>
    <path d="M 916.219976 331.515807 
L 930.350748 318.806281 
L 930.350748 318.806281 
L 916.219976 331.515807 
z
" clip-path="url(#p28f7e032b6)" style="fill: #648fff"/>
    <path d="M 826.04795 322.192423 
L 826.04795 322.192423 
L 851.093147 329.536668 
L 851.093147 329.536668 
z
" clip-path="url(#p28f7e032b6)" style="fill: #648fff"/>
    <path d="M 890.852211 324.153839 
L 916.219976 331.515807 
L 916.219976 331.515807 
L 890.852211 324.153839 
z
" clip-path="url(#p28f7e032b6)" style="fill: #324880"/>
    <path d="M 811.070971 334.955119 
L 811.070971 334.955119 
L 826.04795 322.192423 
L 826.04795 322.192423 
z
" clip-path="url(#p28f7e032b6)" style="fill: #324880"/>
    <path d="M 955.812598 326.11998 
L 955.812598 326.11998 
L 981.504417 333.499736 
L 981.504417 333.499736 
z
" clip-path="url(#p28f7e032b6)" style="fill: #648fff"/>
    <path d="M 811.070971 334.955119 
L 826.04795 322.192423 
L 851.093147 329.536668 
L 836.245129 342.41507 
z
" clip-path="url(#p28f7e032b6)" style="fill: #3f599f"/>
    <path d="M 811.070971 334.955119 
L 836.245129 342.41507 
L 851.093147 329.536668 
L 826.04795 322.192423 
z
" clip-path="url(#p28f7e032b6)" style="fill: #577ddf"/>
    <path d="M 941.817619 338.944488 
L 941.817619 338.944488 
L 955.812598 326.11998 
L 955.812598 326.11998 
z
" clip-path="url(#p28f7e032b6)" style="fill: #324880"/>
    <path d="M 836.245129 342.41507 
L 851.093147 329.536668 
L 851.093147 329.536668 
L 836.245129 342.41507 
z
" clip-path="url(#p28f7e032b6)" style="fill: #648fff"/>
    <path d="M 941.817619 338.944488 
L 955.812598 326.11998 
L 981.504417 333.499736 
L 967.648281 346.440794 
z
" clip-path="url(#p28f7e032b6)" style="fill: #3f599f"/>
    <path d="M 941.817619 338.944488 
L 967.648281 346.440794 
L 981.504417 333.499736 
L 955.812598 326.11998 
z
" clip-path="url(#p28f7e032b6)" style="fill: #577ddf"/>
    <path d="M 745.934884 332.967673 
L 745.934884 332.967673 
L 770.783062 340.409546 
L 770.783062 340.409546 
z
" clip-path="url(#p28f7e032b6)" style="fill: #648fff"/>
    <path d="M 811.070971 334.955119 
L 836.245129 342.41507 
L 836.245129 342.41507 
L 811.070971 334.955119 
z
" clip-path="url(#p28f7e032b6)" style="fill: #324880"/>
    <path d="M 730.226765 345.90031 
L 730.226765 345.90031 
L 745.934884 332.967673 
L 745.934884 332.967673 
z
" clip-path="url(#p28f7e032b6)" style="fill: #324880"/>
    <path d="M 967.648281 346.440794 
L 981.504417 333.499736 
L 981.504417 333.499736 
L 967.648281 346.440794 
z
" clip-path="url(#p28f7e032b6)" style="fill: #648fff"/>
    <path d="M 941.817619 338.944488 
L 967.648281 346.440794 
L 967.648281 346.440794 
L 941.817619 338.944488 
z
" clip-path="url(#p28f7e032b6)" style="fill: #324880"/>
    <path d="M 730.226765 345.90031 
L 745.934884 332.967673 
L 770.783062 340.409546 
L 755.199866 353.460214 
z
" clip-path="url(#p28f7e032b6)" style="fill: #3f599f"/>
    <path d="M 730.226765 345.90031 
L 755.199866 353.460214 
L 770.783062 340.409546 
L 745.934884 332.967673 
z
" clip-path="url(#p28f7e032b6)" style="fill: #577ddf"/>
    <path d="M 755.199866 353.460214 
L 770.783062 340.409546 
L 770.783062 340.409546 
L 755.199866 353.460214 
z
" clip-path="url(#p28f7e032b6)" style="fill: #648fff"/>
    <path d="M 730.226765 345.90031 
L 755.199866 353.460214 
L 755.199866 353.460214 
L 730.226765 345.90031 
z
" clip-path="url(#p28f7e032b6)" style="fill: #324880"/>
   </g>
   <g id="Poly3DCollection_5">
    <path d="M 709.847132 348.659431 
L 915.821691 411.350299 
L 1027.973958 305.589444 
L 830.388258 250.249606 
z
" clip-path="url(#p28f7e032b6)" style="fill-opacity: 0.25"/>
   </g>
   <g id="Poly3DCollection_6">
    <path d="M 776.625508 307.699802 
L 776.625508 307.699802 
L 801.226398 314.913759 
L 801.226398 314.913759 
z
" clip-path="url(#p28f7e032b6)" style="fill: #324880"/>
    <path d="M 761.399255 320.235715 
L 761.399255 320.235715 
L 776.625508 307.699802 
L 776.625508 307.699802 
z
" clip-path="url(#p28f7e032b6)" style="fill: #648fff"/>
    <path d="M 761.399255 320.235715 
L 786.123361 327.562301 
L 801.226398 314.913759 
L 776.625508 307.699802 
z
" clip-path="url(#p28f7e032b6)" style="fill: #577ddf"/>
    <path d="M 761.399255 320.235715 
L 776.625508 307.699802 
L 801.226398 314.913759 
L 786.123361 327.562301 
z
" clip-path="url(#p28f7e032b6)" style="fill: #3f599f"/>
    <path d="M 786.123361 327.562301 
L 801.226398 314.913759 
L 801.226398 314.913759 
L 786.123361 327.562301 
z
" clip-path="url(#p28f7e032b6)" style="fill: #324880"/>
    <path d="M 761.399255 320.235715 
L 786.123361 327.562301 
L 786.123361 327.562301 
L 761.399255 320.235715 
z
" clip-path="url(#p28f7e032b6)" style="fill: #648fff"/>
    <path d="M 861.648935 349.943074 
L 876.365024 336.947385 
L 901.866674 344.42548 
L 887.285545 357.540066 
z
" clip-path="url(#p28f7e032b6)" style="fill: #3f599f"/>
    <path d="M 795.857638 347.919225 
L 795.857638 347.919225 
L 821.16172 355.497638 
L 821.16172 355.497638 
z
" clip-path="url(#p28f7e032b6)" style="fill: #324880"/>
    <path d="M 780.402312 361.089546 
L 780.402312 361.089546 
L 795.857638 347.919225 
L 795.857638 347.919225 
z
" clip-path="url(#p28f7e032b6)" style="fill: #648fff"/>
    <path d="M 876.365024 336.947385 
L 876.464595 247.283896 
L 902.442669 254.486344 
L 901.866674 344.42548 
z
" clip-path="url(#p28f7e032b6)" style="fill: #324880"/>
    <path d="M 780.402312 361.089546 
L 795.857638 347.919225 
L 821.16172 355.497638 
L 805.837278 368.789266 
z
" clip-path="url(#p28f7e032b6)" style="fill: #3f599f"/>
    <path d="M 780.402312 361.089546 
L 805.837278 368.789266 
L 821.16172 355.497638 
L 795.857638 347.919225 
z
" clip-path="url(#p28f7e032b6)" style="fill: #577ddf"/>
    <path d="M 861.648935 349.943074 
L 861.473711 259.801336 
L 876.464595 247.283896 
L 876.365024 336.947385 
z
" clip-path="url(#p28f7e032b6)" style="fill: #648fff"/>
    <path d="M 805.837278 368.789266 
L 821.16172 355.497638 
L 821.16172 355.497638 
L 805.837278 368.789266 
z
" clip-path="url(#p28f7e032b6)" style="fill: #324880"/>
    <path d="M 913.158175 365.206998 
L 927.601243 351.971877 
L 953.571939 359.587515 
L 939.270099 372.944842 
z
" clip-path="url(#p28f7e032b6)" style="fill: #3f599f"/>
    <path d="M 780.402312 361.089546 
L 805.837278 368.789266 
L 805.837278 368.789266 
L 780.402312 361.089546 
z
" clip-path="url(#p28f7e032b6)" style="fill: #648fff"/>
    <path d="M 887.285545 357.540066 
L 901.866674 344.42548 
L 902.442669 254.486344 
L 887.591854 267.120456 
z
" clip-path="url(#p28f7e032b6)" style="fill: #324880"/>
    <path d="M 861.648935 349.943074 
L 887.285545 357.540066 
L 887.591854 267.120456 
L 861.473711 259.801336 
z
" clip-path="url(#p28f7e032b6)" style="fill: #648fff"/>
    <path d="M 927.601243 351.971877 
L 928.662463 261.755809 
L 955.127367 269.093232 
L 953.571939 359.587515 
z
" clip-path="url(#p28f7e032b6)" style="fill: #324880"/>
    <path d="M 831.507996 376.560354 
L 846.698473 363.145736 
L 872.471121 370.864483 
L 857.417759 384.403806 
z
" clip-path="url(#p28f7e032b6)" style="fill: #3f599f"/>
    <path d="M 913.158175 365.206998 
L 913.954996 274.508233 
L 928.662463 261.755809 
L 927.601243 351.971877 
z
" clip-path="url(#p28f7e032b6)" style="fill: #648fff"/>
    <path d="M 861.473711 259.801336 
L 887.591854 267.120456 
L 902.442669 254.486344 
L 876.464595 247.283896 
z
" clip-path="url(#p28f7e032b6)" style="fill: #577ddf"/>
    <path d="M 939.270099 372.944842 
L 953.571939 359.587515 
L 955.127367 269.093232 
L 940.566599 281.965636 
z
" clip-path="url(#p28f7e032b6)" style="fill: #324880"/>
    <path d="M 846.698473 363.145736 
L 846.239572 272.521896 
L 872.498923 279.960546 
L 872.471121 370.864483 
z
" clip-path="url(#p28f7e032b6)" style="fill: #324880"/>
    <path d="M 913.158175 365.206998 
L 939.270099 372.944842 
L 940.566599 281.965636 
L 913.954996 274.508233 
z
" clip-path="url(#p28f7e032b6)" style="fill: #648fff"/>
    <path d="M 831.507996 376.560354 
L 830.756208 285.45056 
L 846.239572 272.521896 
L 846.698473 363.145736 
z
" clip-path="url(#p28f7e032b6)" style="fill: #648fff"/>
    <path d="M 883.569921 392.320638 
L 898.482949 378.654862 
L 924.7373 386.517875 
L 909.967901 400.311884 
z
" clip-path="url(#p28f7e032b6)" style="fill: #3f599f"/>
    <path d="M 857.417759 384.403806 
L 872.471121 370.864483 
L 872.498923 279.960546 
L 857.157906 293.011692 
z
" clip-path="url(#p28f7e032b6)" style="fill: #324880"/>
    <path d="M 913.954996 274.508233 
L 940.566599 281.965636 
L 955.127367 269.093232 
L 928.662463 261.755809 
z
" clip-path="url(#p28f7e032b6)" style="fill: #577ddf"/>
    <path d="M 831.507996 376.560354 
L 857.417759 384.403806 
L 857.157906 293.011692 
L 830.756208 285.45056 
z
" clip-path="url(#p28f7e032b6)" style="fill: #648fff"/>
    <path d="M 898.482949 378.654862 
L 899.006615 287.469546 
L 925.766187 295.049897 
L 924.7373 386.517875 
z
" clip-path="url(#p28f7e032b6)" style="fill: #324880"/>
    <path d="M 883.569921 392.320638 
L 883.811353 300.644923 
L 899.006615 287.469546 
L 898.482949 378.654862 
z
" clip-path="url(#p28f7e032b6)" style="fill: #648fff"/>
    <path d="M 830.756208 285.45056 
L 857.157906 293.011692 
L 872.498923 279.960546 
L 846.239572 272.521896 
z
" clip-path="url(#p28f7e032b6)" style="fill: #577ddf"/>
    <path d="M 909.967901 400.311884 
L 924.7373 386.517875 
L 925.766187 295.049897 
L 910.720165 308.351288 
z
" clip-path="url(#p28f7e032b6)" style="fill: #324880"/>
    <path d="M 883.569921 392.320638 
L 909.967901 400.311884 
L 910.720165 308.351288 
L 883.811353 300.644923 
z
" clip-path="url(#p28f7e032b6)" style="fill: #648fff"/>
    <path d="M 883.811353 300.644923 
L 910.720165 308.351288 
L 925.766187 295.049897 
L 899.006615 287.469546 
z
" clip-path="url(#p28f7e032b6)" style="fill: #577ddf"/>
   </g>
   <g id="text_31">
    <!-- Imaginary Amplitude (ρ) -->
    <g transform="translate(735.696563 51.6) scale(0.21 -0.21)">
     <defs>
      <path id="DejaVuSans-49" d="M 628 4666 
L 1259 4666 
L 1259 0 
L 628 0 
L 628 4666 
z
" transform="scale(0.015625)"/>
      <path id="DejaVuSans-67" d="M 2906 1791 
Q 2906 2416 2648 2759 
Q 2391 3103 1925 3103 
Q 1463 3103 1205 2759 
Q 947 2416 947 1791 
Q 947 1169 1205 825 
Q 1463 481 1925 481 
Q 2391 481 2648 825 
Q 2906 1169 2906 1791 
z
M 3481 434 
Q 3481 -459 3084 -895 
Q 2688 -1331 1869 -1331 
Q 1566 -1331 1297 -1286 
Q 1028 -1241 775 -1147 
L 775 -588 
Q 1028 -725 1275 -790 
Q 1522 -856 1778 -856 
Q 2344 -856 2625 -561 
Q 2906 -266 2906 331 
L 2906 616 
Q 2728 306 2450 153 
Q 2172 0 1784 0 
Q 1141 0 747 490 
Q 353 981 353 1791 
Q 353 2603 747 3093 
Q 1141 3584 1784 3584 
Q 2172 3584 2450 3431 
Q 2728 3278 2906 2969 
L 2906 3500 
L 3481 3500 
L 3481 434 
z
" transform="scale(0.015625)"/>
      <path id="DejaVuSans-6e" d="M 3513 2113 
L 3513 0 
L 2938 0 
L 2938 2094 
Q 2938 2591 2744 2837 
Q 2550 3084 2163 3084 
Q 1697 3084 1428 2787 
Q 1159 2491 1159 1978 
L 1159 0 
L 581 0 
L 581 3500 
L 1159 3500 
L 1159 2956 
Q 1366 3272 1645 3428 
Q 1925 3584 2291 3584 
Q 2894 3584 3203 3211 
Q 3513 2838 3513 2113 
z
" transform="scale(0.015625)"/>
      <path id="DejaVuSans-72" d="M 2631 2963 
Q 2534 3019 2420 3045 
Q 2306 3072 2169 3072 
Q 1681 3072 1420 2755 
Q 1159 2438 1159 1844 
L 1159 0 
L 581 0 
L 581 3500 
L 1159 3500 
L 1159 2956 
Q 1341 3275 1631 3429 
Q 1922 3584 2338 3584 
Q 2397 3584 2469 3576 
Q 2541 3569 2628 3553 
L 2631 2963 
z
" transform="scale(0.015625)"/>
      <path id="DejaVuSans-79" d="M 2059 -325 
Q 1816 -950 1584 -1140 
Q 1353 -1331 966 -1331 
L 506 -1331 
L 506 -850 
L 844 -850 
Q 1081 -850 1212 -737 
Q 1344 -625 1503 -206 
L 1606 56 
L 191 3500 
L 800 3500 
L 1894 763 
L 2988 3500 
L 3597 3500 
L 2059 -325 
z
" transform="scale(0.015625)"/>
     </defs>
     <use xlink:href="#DejaVuSans-49"/>
     <use xlink:href="#DejaVuSans-6d" x="29.492188"/>
     <use xlink:href="#DejaVuSans-61" x="126.904297"/>
     <use xlink:href="#DejaVuSans-67" x="188.183594"/>
     <use xlink:href="#DejaVuSans-69" x="251.660156"/>
     <use xlink:href="#DejaVuSans-6e" x="279.443359"/>
     <use xlink:href="#DejaVuSans-61" x="342.822266"/>
     <use xlink:href="#DejaVuSans-72" x="404.101562"/>
     <use xlink:href="#DejaVuSans-79" x="445.214844"/>
     <use xlink:href="#DejaVuSans-20" x="504.394531"/>
     <use xlink:href="#DejaVuSans-41" x="536.181641"/>
     <use xlink:href="#DejaVuSans-6d" x="604.589844"/>
     <use xlink:href="#DejaVuSans-70" x="702.001953"/>
     <use xlink:href="#DejaVuSans-6c" x="765.478516"/>
     <use xlink:href="#DejaVuSans-69" x="793.261719"/>
     <use xlink:href="#DejaVuSans-74" x="821.044922"/>
     <use xlink:href="#DejaVuSans-75" x="860.253906"/>
     <use xlink:href="#DejaVuSans-64" x="923.632812"/>
     <use xlink:href="#DejaVuSans-65" x="987.109375"/>
     <use xlink:href="#DejaVuSans-20" x="1048.632812"/>
     <use xlink:href="#DejaVuSans-28" x="1080.419922"/>
     <use xlink:href="#DejaVuSans-3c1" x="1119.433594"/>
     <use xlink:href="#DejaVuSans-29" x="1182.910156"/>
    </g>
   </g>
  </g>
 </g>
 <defs>
  <clipPath id="p8cbd61672c">
   <rect x="28.8" y="57.6" width="518.4" height="518.4"/>
  </clipPath>
  <clipPath id="p28f7e032b6">
   <rect x="604.8" y="57.6" width="518.4" height="518.4"/>
  </clipPath>
 </defs>
</svg>
