<?xml version="1.0" encoding="utf-8" standalone="no"?>
<!DOCTYPE svg PUBLIC "-//W3C//DTD SVG 1.1//EN"
  "http://www.w3.org/Graphics/SVG/1.1/DTD/svg11.dtd">
<svg xmlns:xlink="http://www.w3.org/1999/xlink" width="1152pt" height="576pt" viewBox="0 0 1152 576" xmlns="http://www.w3.org/2000/svg" version="1.1">
 <metadata>
  <rdf:RDF xmlns:dc="http://purl.org/dc/elements/1.1/" xmlns:cc="http://creativecommons.org/ns#" xmlns:rdf="http://www.w3.org/1999/02/22-rdf-syntax-ns#">
   <cc:Work>
    <dc:type rdf:resource="http://purl.org/dc/dcmitype/StillImage"/>
    <dc:date>2024-11-04T22:02:58.360598</dc:date>
    <dc:format>image/svg+xml</dc:format>
    <dc:creator>
     <cc:Agent>
      <dc:title>Matplotlib v3.9.2, https://matplotlib.org/</dc:title>
     </cc:Agent>
    </dc:creator>
   </cc:Work>
  </rdf:RDF>
 </metadata>
 <defs>
  <style type="text/css">*{stroke-linejoin: round; stroke-linecap: butt}</style>
 </defs>
 <g id="figure_1">
  <g id="patch_1">
   <path d="M 0 576 
L 1152 576 
L 1152 0 
L 0 0 
z
" style="fill: #ffffff"/>
  </g>
  <g id="patch_2">
   <path d="M 28.8 576 
L 547.2 576 
L 547.2 57.6 
L 28.8 57.6 
z
" style="fill: #ffffff"/>
  </g>
  <g id="pane3d_1">
   <g id="patch_3">
    <path d="M 130.07018 436.456468 
L 253.494133 330.550231 
L 251.743197 126.70673 
L 122.643358 223.613571 
" style="fill: #f2f2f2; opacity: 0.5; stroke: #f2f2f2; stroke-linejoin: miter"/>
   </g>
  </g>
  <g id="pane3d_2">
   <g id="patch_4">
    <path d="M 253.494133 330.550231 
L 455.554898 390.069341 
L 462.583588 181.103065 
L 251.743197 126.70673 
" style="fill: #e6e6e6; opacity: 0.5; stroke: #e6e6e6; stroke-linejoin: miter"/>
   </g>
  </g>
  <g id="pane3d_3">
   <g id="patch_5">
    <path d="M 130.07018 436.456468 
L 340.912731 504.076731 
L 455.554898 390.069341 
L 253.494133 330.550231 
" style="fill: #ececec; opacity: 0.5; stroke: #ececec; stroke-linejoin: miter"/>
   </g>
  </g>
  <g id="grid3d_1">
   <g id="Line3DCollection_1">
    <path d="M 148.107564 442.241318 
L 270.817434 335.65299 
L 269.793879 131.363764 
" style="fill: none; stroke: #b0b0b0; stroke-width: 0.8"/>
    <path d="M 204.73198 460.40159 
L 325.154862 351.658648 
L 326.443642 145.979273 
" style="fill: none; stroke: #b0b0b0; stroke-width: 0.8"/>
    <path d="M 262.543747 478.942662 
L 380.560935 367.979086 
L 384.255639 160.894634 
" style="fill: none; stroke: #b0b0b0; stroke-width: 0.8"/>
    <path d="M 321.580608 497.876639 
L 437.067491 384.623682 
L 443.266006 176.119173 
" style="fill: none; stroke: #b0b0b0; stroke-width: 0.8"/>
   </g>
  </g>
  <g id="grid3d_2">
   <g id="Line3DCollection_2">
    <path d="M 134.777648 214.505149 
L 141.642324 426.526772 
L 351.684419 493.364686 
" style="fill: none; stroke: #b0b0b0; stroke-width: 0.8"/>
    <path d="M 171.455878 186.973191 
L 176.657452 396.481386 
L 384.248591 460.980823 
" style="fill: none; stroke: #b0b0b0; stroke-width: 0.8"/>
    <path d="M 206.831169 160.419264 
L 210.480196 367.459145 
L 415.662622 429.740732 
" style="fill: none; stroke: #b0b0b0; stroke-width: 0.8"/>
    <path d="M 240.971738 134.792162 
L 243.170446 339.408664 
L 445.986389 399.584868 
" style="fill: none; stroke: #b0b0b0; stroke-width: 0.8"/>
   </g>
  </g>
  <g id="grid3d_3">
   <g id="Line3DCollection_3">
    <path d="M 456.426046 364.169694 
L 253.276827 305.251554 
L 129.150651 410.103988 
" style="fill: none; stroke: #b0b0b0; stroke-width: 0.8"/>
    <path d="M 457.423416 334.517411 
L 253.028137 276.299125 
L 128.097556 379.923665 
" style="fill: none; stroke: #b0b0b0; stroke-width: 0.8"/>
    <path d="M 458.433188 304.496424 
L 252.776465 246.999532 
L 127.031002 349.357633 
" style="fill: none; stroke: #b0b0b0; stroke-width: 0.8"/>
    <path d="M 459.455593 274.099814 
L 252.521757 217.346492 
L 125.950729 318.39845 
" style="fill: none; stroke: #b0b0b0; stroke-width: 0.8"/>
    <path d="M 460.490872 243.320487 
L 252.263958 187.33357 
L 124.856472 287.038481 
" style="fill: none; stroke: #b0b0b0; stroke-width: 0.8"/>
    <path d="M 461.539268 212.151168 
L 252.003011 156.954176 
L 123.747956 255.269894 
" style="fill: none; stroke: #b0b0b0; stroke-width: 0.8"/>
   </g>
  </g>
  <g id="axis3d_1">
   <g id="line2d_1">
    <path d="M 130.07018 436.456468 
L 340.912731 504.076731 
" style="fill: none; stroke: #000000; stroke-width: 0.8; stroke-linecap: square"/>
   </g>
   <g id="xtick_1">
    <g id="line2d_2">
     <path d="M 149.15236 441.333787 
L 146.014717 444.059209 
" style="fill: none; stroke: #000000; stroke-width: 0.8; stroke-linecap: square"/>
    </g>
    <g id="text_1">
     <!-- 00 -->
     <g transform="translate(120.823877 485.959845) rotate(-45) scale(0.21 -0.21)">
      <defs>
       <path id="DejaVuSans-30" d="M 2034 4250 
Q 1547 4250 1301 3770 
Q 1056 3291 1056 2328 
Q 1056 1369 1301 889 
Q 1547 409 2034 409 
Q 2525 409 2770 889 
Q 3016 1369 3016 2328 
Q 3016 3291 2770 3770 
Q 2525 4250 2034 4250 
z
M 2034 4750 
Q 2819 4750 3233 4129 
Q 3647 3509 3647 2328 
Q 3647 1150 3233 529 
Q 2819 -91 2034 -91 
Q 1250 -91 836 529 
Q 422 1150 422 2328 
Q 422 3509 836 4129 
Q 1250 4750 2034 4750 
z
" transform="scale(0.015625)"/>
      </defs>
      <use xlink:href="#DejaVuSans-30"/>
      <use xlink:href="#DejaVuSans-30" x="63.623047"/>
     </g>
    </g>
   </g>
   <g id="xtick_2">
    <g id="line2d_3">
     <path d="M 205.757946 459.475133 
L 202.676818 462.257419 
" style="fill: none; stroke: #000000; stroke-width: 0.8; stroke-linecap: square"/>
    </g>
    <g id="text_2">
     <!-- 01 -->
     <g transform="translate(177.445975 504.27764) rotate(-45) scale(0.21 -0.21)">
      <defs>
       <path id="DejaVuSans-31" d="M 794 531 
L 1825 531 
L 1825 4091 
L 703 3866 
L 703 4441 
L 1819 4666 
L 2450 4666 
L 2450 531 
L 3481 531 
L 3481 0 
L 794 0 
L 794 531 
z
" transform="scale(0.015625)"/>
      </defs>
      <use xlink:href="#DejaVuSans-30"/>
      <use xlink:href="#DejaVuSans-31" x="63.623047"/>
     </g>
    </g>
   </g>
   <g id="xtick_3">
    <g id="line2d_4">
     <path d="M 263.54986 477.996682 
L 260.528321 480.837631 
" style="fill: none; stroke: #000000; stroke-width: 0.8; stroke-linecap: square"/>
    </g>
    <g id="text_3">
     <!-- 10 -->
     <g transform="translate(235.256492 522.9799) rotate(-45) scale(0.21 -0.21)">
      <use xlink:href="#DejaVuSans-31"/>
      <use xlink:href="#DejaVuSans-30" x="63.623047"/>
     </g>
    </g>
   </g>
   <g id="xtick_4">
    <g id="line2d_5">
     <path d="M 322.565792 496.910512 
L 319.607072 499.811999 
" style="fill: none; stroke: #000000; stroke-width: 0.8; stroke-linecap: square"/>
    </g>
    <g id="text_4">
     <!-- 11 -->
     <g transform="translate(294.293241 542.078858) rotate(-45) scale(0.21 -0.21)">
      <use xlink:href="#DejaVuSans-31"/>
      <use xlink:href="#DejaVuSans-31" x="63.623047"/>
     </g>
    </g>
   </g>
  </g>
  <g id="axis3d_2">
   <g id="line2d_6">
    <path d="M 455.554898 390.069341 
L 340.912731 504.076731 
" style="fill: none; stroke: #000000; stroke-width: 0.8; stroke-linecap: square"/>
   </g>
   <g id="xtick_5">
    <g id="line2d_7">
     <path d="M 349.939872 492.809551 
L 355.176743 494.475986 
" style="fill: none; stroke: #000000; stroke-width: 0.8; stroke-linecap: square"/>
    </g>
    <g id="text_5">
     <!-- 00 -->
     <g transform="translate(362.536948 505.408703) rotate(-337.5) scale(0.21 -0.21)">
      <use xlink:href="#DejaVuSans-30"/>
      <use xlink:href="#DejaVuSans-30" x="63.623047"/>
     </g>
    </g>
   </g>
   <g id="xtick_6">
    <g id="line2d_8">
     <path d="M 382.525541 460.445465 
L 387.697822 462.052514 
" style="fill: none; stroke: #000000; stroke-width: 0.8; stroke-linecap: square"/>
    </g>
    <g id="text_6">
     <!-- 01 -->
     <g transform="translate(394.927992 472.820772) rotate(-337.5) scale(0.21 -0.21)">
      <use xlink:href="#DejaVuSans-30"/>
      <use xlink:href="#DejaVuSans-31" x="63.623047"/>
     </g>
    </g>
   </g>
   <g id="xtick_7">
    <g id="line2d_9">
     <path d="M 413.960652 429.224112 
L 419.0696 430.774895 
" style="fill: none; stroke: #000000; stroke-width: 0.8; stroke-linecap: square"/>
    </g>
    <g id="text_7">
     <!-- 10 -->
     <g transform="translate(426.175291 441.383538) rotate(-337.5) scale(0.21 -0.21)">
      <use xlink:href="#DejaVuSans-31"/>
      <use xlink:href="#DejaVuSans-30" x="63.623047"/>
     </g>
    </g>
   </g>
   <g id="xtick_8">
    <g id="line2d_10">
     <path d="M 444.305087 399.08602 
L 449.351944 400.58344 
" style="fill: none; stroke: #000000; stroke-width: 0.8; stroke-linecap: square"/>
    </g>
    <g id="text_8">
     <!-- 11 -->
     <g transform="translate(456.338373 411.037112) rotate(-337.5) scale(0.21 -0.21)">
      <use xlink:href="#DejaVuSans-31"/>
      <use xlink:href="#DejaVuSans-31" x="63.623047"/>
     </g>
    </g>
   </g>
  </g>
  <g id="axis3d_3">
   <g id="line2d_11">
    <path d="M 455.554898 390.069341 
L 462.583588 181.103065 
" style="fill: none; stroke: #000000; stroke-width: 0.8; stroke-linecap: square"/>
   </g>
   <g id="xtick_9">
    <g id="line2d_12">
     <path d="M 454.741991 363.681278 
L 459.797109 365.147383 
" style="fill: none; stroke: #000000; stroke-width: 0.8; stroke-linecap: square"/>
    </g>
    <g id="text_9">
     <!-- 0.14 -->
     <g transform="translate(469.977451 357.900361) scale(0.21 -0.21)">
      <defs>
       <path id="DejaVuSans-2e" d="M 684 794 
L 1344 794 
L 1344 0 
L 684 0 
L 684 794 
z
" transform="scale(0.015625)"/>
       <path id="DejaVuSans-34" d="M 2419 4116 
L 825 1625 
L 2419 1625 
L 2419 4116 
z
M 2253 4666 
L 3047 4666 
L 3047 1625 
L 3713 1625 
L 3713 1100 
L 3047 1100 
L 3047 0 
L 2419 0 
L 2419 1100 
L 313 1100 
L 313 1709 
L 2253 4666 
z
" transform="scale(0.015625)"/>
      </defs>
      <use xlink:href="#DejaVuSans-30"/>
      <use xlink:href="#DejaVuSans-2e" x="63.623047"/>
      <use xlink:href="#DejaVuSans-31" x="95.410156"/>
      <use xlink:href="#DejaVuSans-34" x="159.033203"/>
     </g>
    </g>
   </g>
   <g id="xtick_10">
    <g id="line2d_13">
     <path d="M 455.728666 334.034692 
L 460.815907 335.4837 
" style="fill: none; stroke: #000000; stroke-width: 0.8; stroke-linecap: square"/>
    </g>
    <g id="text_10">
     <!-- 0.16 -->
     <g transform="translate(471.057314 328.270275) scale(0.21 -0.21)">
      <defs>
       <path id="DejaVuSans-36" d="M 2113 2584 
Q 1688 2584 1439 2293 
Q 1191 2003 1191 1497 
Q 1191 994 1439 701 
Q 1688 409 2113 409 
Q 2538 409 2786 701 
Q 3034 994 3034 1497 
Q 3034 2003 2786 2293 
Q 2538 2584 2113 2584 
z
M 3366 4563 
L 3366 3988 
Q 3128 4100 2886 4159 
Q 2644 4219 2406 4219 
Q 1781 4219 1451 3797 
Q 1122 3375 1075 2522 
Q 1259 2794 1537 2939 
Q 1816 3084 2150 3084 
Q 2853 3084 3261 2657 
Q 3669 2231 3669 1497 
Q 3669 778 3244 343 
Q 2819 -91 2113 -91 
Q 1303 -91 875 529 
Q 447 1150 447 2328 
Q 447 3434 972 4092 
Q 1497 4750 2381 4750 
Q 2619 4750 2861 4703 
Q 3103 4656 3366 4563 
z
" transform="scale(0.015625)"/>
      </defs>
      <use xlink:href="#DejaVuSans-30"/>
      <use xlink:href="#DejaVuSans-2e" x="63.623047"/>
      <use xlink:href="#DejaVuSans-31" x="95.410156"/>
      <use xlink:href="#DejaVuSans-36" x="159.033203"/>
     </g>
    </g>
   </g>
   <g id="xtick_11">
    <g id="line2d_14">
     <path d="M 456.727606 304.019582 
L 461.847381 305.450954 
" style="fill: none; stroke: #000000; stroke-width: 0.8; stroke-linecap: square"/>
    </g>
    <g id="text_11">
     <!-- 0.18 -->
     <g transform="translate(472.150588 298.272185) scale(0.21 -0.21)">
      <defs>
       <path id="DejaVuSans-38" d="M 2034 2216 
Q 1584 2216 1326 1975 
Q 1069 1734 1069 1313 
Q 1069 891 1326 650 
Q 1584 409 2034 409 
Q 2484 409 2743 651 
Q 3003 894 3003 1313 
Q 3003 1734 2745 1975 
Q 2488 2216 2034 2216 
z
M 1403 2484 
Q 997 2584 770 2862 
Q 544 3141 544 3541 
Q 544 4100 942 4425 
Q 1341 4750 2034 4750 
Q 2731 4750 3128 4425 
Q 3525 4100 3525 3541 
Q 3525 3141 3298 2862 
Q 3072 2584 2669 2484 
Q 3125 2378 3379 2068 
Q 3634 1759 3634 1313 
Q 3634 634 3220 271 
Q 2806 -91 2034 -91 
Q 1263 -91 848 271 
Q 434 634 434 1313 
Q 434 1759 690 2068 
Q 947 2378 1403 2484 
z
M 1172 3481 
Q 1172 3119 1398 2916 
Q 1625 2713 2034 2713 
Q 2441 2713 2670 2916 
Q 2900 3119 2900 3481 
Q 2900 3844 2670 4047 
Q 2441 4250 2034 4250 
Q 1625 4250 1398 4047 
Q 1172 3844 1172 3481 
z
" transform="scale(0.015625)"/>
      </defs>
      <use xlink:href="#DejaVuSans-30"/>
      <use xlink:href="#DejaVuSans-2e" x="63.623047"/>
      <use xlink:href="#DejaVuSans-31" x="95.410156"/>
      <use xlink:href="#DejaVuSans-38" x="159.033203"/>
     </g>
    </g>
   </g>
   <g id="xtick_12">
    <g id="line2d_15">
     <path d="M 457.73904 273.629035 
L 462.891767 275.042213 
" style="fill: none; stroke: #000000; stroke-width: 0.8; stroke-linecap: square"/>
    </g>
    <g id="text_12">
     <!-- 0.20 -->
     <g transform="translate(473.257526 267.899193) scale(0.21 -0.21)">
      <defs>
       <path id="DejaVuSans-32" d="M 1228 531 
L 3431 531 
L 3431 0 
L 469 0 
L 469 531 
Q 828 903 1448 1529 
Q 2069 2156 2228 2338 
Q 2531 2678 2651 2914 
Q 2772 3150 2772 3378 
Q 2772 3750 2511 3984 
Q 2250 4219 1831 4219 
Q 1534 4219 1204 4116 
Q 875 4013 500 3803 
L 500 4441 
Q 881 4594 1212 4672 
Q 1544 4750 1819 4750 
Q 2544 4750 2975 4387 
Q 3406 4025 3406 3419 
Q 3406 3131 3298 2873 
Q 3191 2616 2906 2266 
Q 2828 2175 2409 1742 
Q 1991 1309 1228 531 
z
" transform="scale(0.015625)"/>
      </defs>
      <use xlink:href="#DejaVuSans-30"/>
      <use xlink:href="#DejaVuSans-2e" x="63.623047"/>
      <use xlink:href="#DejaVuSans-32" x="95.410156"/>
      <use xlink:href="#DejaVuSans-30" x="159.033203"/>
     </g>
    </g>
   </g>
   <g id="xtick_13">
    <g id="line2d_16">
     <path d="M 458.763206 242.855961 
L 463.949312 244.250373 
" style="fill: none; stroke: #000000; stroke-width: 0.8; stroke-linecap: square"/>
    </g>
    <g id="text_13">
     <!-- 0.22 -->
     <g transform="translate(474.378385 237.144228) scale(0.21 -0.21)">
      <use xlink:href="#DejaVuSans-30"/>
      <use xlink:href="#DejaVuSans-2e" x="63.623047"/>
      <use xlink:href="#DejaVuSans-32" x="95.410156"/>
      <use xlink:href="#DejaVuSans-32" x="159.033203"/>
     </g>
    </g>
   </g>
   <g id="xtick_14">
    <g id="line2d_17">
     <path d="M 459.800344 211.693093 
L 465.020264 213.068148 
" style="fill: none; stroke: #000000; stroke-width: 0.8; stroke-linecap: square"/>
    </g>
    <g id="text_14">
     <!-- 0.24 -->
     <g transform="translate(475.513429 206.000037) scale(0.21 -0.21)">
      <use xlink:href="#DejaVuSans-30"/>
      <use xlink:href="#DejaVuSans-2e" x="63.623047"/>
      <use xlink:href="#DejaVuSans-32" x="95.410156"/>
      <use xlink:href="#DejaVuSans-34" x="159.033203"/>
     </g>
    </g>
   </g>
  </g>
  <g id="axes_1">
   <g id="Poly3DCollection_1">
    <path d="M 240.994896 516.732823 
L 256.469879 502.041615 
L 282.461869 510.494591 
L 267.125982 525.323896 
z
" clip-path="url(#p1eb5ec44ae)" style="fill: #3f599f"/>
    <path d="M 293.504284 533.996246 
L 308.697761 519.026887 
L 335.181004 527.639626 
L 320.133328 542.751032 
z
" clip-path="url(#p1eb5ec44ae)" style="fill: #3f599f"/>
    <path d="M 256.469879 502.041615 
L 255.078115 333.694447 
L 282.00665 341.639487 
L 282.461869 510.494591 
z
" clip-path="url(#p1eb5ec44ae)" style="fill: #324880"/>
    <path d="M 240.994896 516.732823 
L 239.027822 347.504584 
L 255.078115 333.694447 
L 256.469879 502.041615 
z
" clip-path="url(#p1eb5ec44ae)" style="fill: #648fff"/>
    <path d="M 209.278891 546.842478 
L 225.266656 531.66446 
L 251.537923 540.397042 
L 235.691422 555.720094 
z
" clip-path="url(#p1eb5ec44ae)" style="fill: #3f599f"/>
    <path d="M 347.016704 551.589434 
L 361.915112 536.33395 
L 388.903668 545.111024 
L 374.158076 560.512657 
z
" clip-path="url(#p1eb5ec44ae)" style="fill: #3f599f"/>
    <path d="M 267.125982 525.323896 
L 282.461869 510.494591 
L 282.00665 341.639487 
L 266.105652 355.584181 
z
" clip-path="url(#p1eb5ec44ae)" style="fill: #324880"/>
    <path d="M 240.994896 516.732823 
L 267.125982 525.323896 
L 266.105652 355.584181 
L 239.027822 347.504584 
z
" clip-path="url(#p1eb5ec44ae)" style="fill: #648fff"/>
    <path d="M 308.697761 519.026887 
L 309.197089 349.661799 
L 336.653273 357.762517 
L 335.181004 527.639626 
z
" clip-path="url(#p1eb5ec44ae)" style="fill: #324880"/>
    <path d="M 293.504284 533.996246 
L 293.449077 363.743028 
L 309.197089 349.661799 
L 308.697761 519.026887 
z
" clip-path="url(#p1eb5ec44ae)" style="fill: #648fff"/>
    <path d="M 262.357995 564.683098 
L 278.059787 549.212923 
L 304.835848 558.113299 
L 289.282293 573.732726 
z
" clip-path="url(#p1eb5ec44ae)" style="fill: #3f599f"/>
    <path d="M 401.561173 569.521927 
L 416.150321 553.972035 
L 443.658792 562.918193 
L 429.229801 578.618495 
z
" clip-path="url(#p1eb5ec44ae)" style="fill: #3f599f"/>
    <path d="M 320.133328 542.751032 
L 335.181004 527.639626 
L 336.653273 357.762517 
L 321.062023 371.982295 
z
" clip-path="url(#p1eb5ec44ae)" style="fill: #324880"/>
    <path d="M 225.266656 531.66446 
L 222.70521 361.549033 
L 249.933541 369.766635 
L 251.537923 540.397042 
z
" clip-path="url(#p1eb5ec44ae)" style="fill: #324880"/>
    <path d="M 293.504284 533.996246 
L 320.133328 542.751032 
L 321.062023 371.982295 
L 293.449077 363.743028 
z
" clip-path="url(#p1eb5ec44ae)" style="fill: #648fff"/>
    <path d="M 209.278891 546.842478 
L 206.103289 375.833807 
L 222.70521 361.549033 
L 225.266656 531.66446 
z
" clip-path="url(#p1eb5ec44ae)" style="fill: #648fff"/>
    <path d="M 176.498664 577.962455 
L 193.025125 562.273024 
L 219.579998 571.299319 
L 203.19695 587.141194 
z
" clip-path="url(#p1eb5ec44ae)" style="fill: #3f599f"/>
    <path d="M 316.468069 582.870241 
L 331.86978 567.099391 
L 359.165326 576.172443 
L 343.919151 592.096929 
z
" clip-path="url(#p1eb5ec44ae)" style="fill: #3f599f"/>
    <path d="M 239.027822 347.504584 
L 266.105652 355.584181 
L 282.00665 341.639487 
L 255.078115 333.694447 
z
" clip-path="url(#p1eb5ec44ae)" style="fill: #577ddf"/>
    <path d="M 235.691422 555.720094 
L 251.537923 540.397042 
L 249.933541 369.766635 
L 233.483323 384.192981 
z
" clip-path="url(#p1eb5ec44ae)" style="fill: #324880"/>
    <path d="M 209.278891 546.842478 
L 235.691422 555.720094 
L 233.483323 384.192981 
L 206.103289 375.833807 
z
" clip-path="url(#p1eb5ec44ae)" style="fill: #648fff"/>
    <path d="M 278.059787 549.212923 
L 277.431231 378.065531 
L 305.202296 386.446932 
L 304.835848 558.113299 
z
" clip-path="url(#p1eb5ec44ae)" style="fill: #324880"/>
    <path d="M 262.357995 564.683098 
L 261.136557 392.635562 
L 277.431231 378.065531 
L 278.059787 549.212923 
z
" clip-path="url(#p1eb5ec44ae)" style="fill: #648fff"/>
    <path d="M 230.156378 596.409711 
L 246.392427 580.413159 
L 273.466177 589.615826 
L 257.380795 605.769331 
z
" clip-path="url(#p1eb5ec44ae)" style="fill: #3f599f"/>
    <path d="M 371.639443 601.414102 
L 386.726301 585.333725 
L 414.556596 594.584529 
L 399.632924 610.823098 
z
" clip-path="url(#p1eb5ec44ae)" style="fill: #3f599f"/>
    <path d="M 293.449077 363.743028 
L 321.062023 371.982295 
L 336.653273 357.762517 
L 309.197089 349.661799 
z
" clip-path="url(#p1eb5ec44ae)" style="fill: #577ddf"/>
    <path d="M 289.282293 573.732726 
L 304.835848 558.113299 
L 305.202296 386.446932 
L 289.0671 401.162807 
z
" clip-path="url(#p1eb5ec44ae)" style="fill: #324880"/>
    <path d="M 262.357995 564.683098 
L 289.282293 573.732726 
L 289.0671 401.162807 
L 261.136557 392.635562 
z
" clip-path="url(#p1eb5ec44ae)" style="fill: #648fff"/>
    <path d="M 142.599735 610.144474 
L 159.692586 593.91734 
L 186.535352 603.252418 
L 169.588039 619.639919 
z
" clip-path="url(#p1eb5ec44ae)" style="fill: #3f599f"/>
    <path d="M 361.915112 536.33395 
L 366.934216 189.252296 
L 395.983314 196.914891 
L 388.903668 545.111024 
z
" clip-path="url(#p1eb5ec44ae)" style="fill: #324880"/>
    <path d="M 284.87413 615.221404 
L 300.805087 598.908624 
L 328.413073 608.292883 
L 312.640386 624.767305 
z
" clip-path="url(#p1eb5ec44ae)" style="fill: #3f599f"/>
    <path d="M 206.103289 375.833807 
L 233.483323 384.192981 
L 249.933541 369.766635 
L 222.70521 361.549033 
z
" clip-path="url(#p1eb5ec44ae)" style="fill: #577ddf"/>
    <path d="M 347.016704 551.589434 
L 350.952946 202.574209 
L 366.934216 189.252296 
L 361.915112 536.33395 
z
" clip-path="url(#p1eb5ec44ae)" style="fill: #648fff"/>
    <path d="M 374.158076 560.512657 
L 388.903668 545.111024 
L 395.983314 196.914891 
L 380.179321 210.37412 
z
" clip-path="url(#p1eb5ec44ae)" style="fill: #324880"/>
    <path d="M 196.84487 629.229842 
L 213.642916 612.679584 
L 241.019213 622.200207 
L 224.374255 638.91566 
z
" clip-path="url(#p1eb5ec44ae)" style="fill: #3f599f"/>
    <path d="M 347.016704 551.589434 
L 374.158076 560.512657 
L 380.179321 210.37412 
L 350.952946 202.574209 
z
" clip-path="url(#p1eb5ec44ae)" style="fill: #648fff"/>
    <path d="M 416.150321 553.972035 
L 425.331267 204.656319 
L 454.982712 212.477802 
L 443.658792 562.918193 
z
" clip-path="url(#p1eb5ec44ae)" style="fill: #324880"/>
    <path d="M 340.683648 634.40844 
L 356.294125 617.76996 
L 384.452316 627.341241 
L 369.00808 644.14624 
z
" clip-path="url(#p1eb5ec44ae)" style="fill: #3f599f"/>
    <path d="M 261.136557 392.635562 
L 289.0671 401.162807 
L 305.202296 386.446932 
L 277.431231 378.065531 
z
" clip-path="url(#p1eb5ec44ae)" style="fill: #577ddf"/>
    <path d="M 401.561173 569.521927 
L 409.709078 218.254997 
L 425.331267 204.656319 
L 416.150321 553.972035 
z
" clip-path="url(#p1eb5ec44ae)" style="fill: #648fff"/>
    <path d="M 300.805087 598.908624 
L 301.026187 424.901676 
L 329.693176 433.7564 
L 328.413073 608.292883 
z
" clip-path="url(#p1eb5ec44ae)" style="fill: #324880"/>
    <path d="M 429.229801 578.618495 
L 443.658792 562.918193 
L 454.982712 212.477802 
L 439.546966 226.218108 
z
" clip-path="url(#p1eb5ec44ae)" style="fill: #324880"/>
    <path d="M 331.86978 567.099391 
L 334.68474 216.13531 
L 364.090097 224.076261 
L 359.165326 576.172443 
z
" clip-path="url(#p1eb5ec44ae)" style="fill: #324880"/>
    <path d="M 284.87413 615.221404 
L 284.484466 440.296092 
L 301.026187 424.901676 
L 300.805087 598.908624 
z
" clip-path="url(#p1eb5ec44ae)" style="fill: #648fff"/>
    <path d="M 193.025125 562.273024 
L 184.582584 181.373813 
L 213.303186 189.160029 
L 219.579998 571.299319 
z
" clip-path="url(#p1eb5ec44ae)" style="fill: #324880"/>
    <path d="M 252.180303 648.698817 
L 268.668262 631.815685 
L 296.594157 641.527441 
L 280.267206 658.580788 
z
" clip-path="url(#p1eb5ec44ae)" style="fill: #3f599f"/>
    <path d="M 401.561173 569.521927 
L 429.229801 578.618495 
L 439.546966 226.218108 
L 409.709078 218.254997 
z
" clip-path="url(#p1eb5ec44ae)" style="fill: #648fff"/>
    <path d="M 316.468069 582.870241 
L 318.121802 229.9421 
L 334.68474 216.13531 
L 331.86978 567.099391 
z
" clip-path="url(#p1eb5ec44ae)" style="fill: #648fff"/>
    <path d="M 176.498664 577.962455 
L 166.598788 194.911743 
L 184.582584 181.373813 
L 193.025125 562.273024 
z
" clip-path="url(#p1eb5ec44ae)" style="fill: #648fff"/>
    <path d="M 312.640386 624.767305 
L 328.413073 608.292883 
L 329.693176 433.7564 
L 313.322151 449.309245 
z
" clip-path="url(#p1eb5ec44ae)" style="fill: #324880"/>
    <path d="M 343.919151 592.096929 
L 359.165326 576.172443 
L 364.090097 224.076261 
L 347.70785 238.027951 
z
" clip-path="url(#p1eb5ec44ae)" style="fill: #324880"/>
    <path d="M 284.87413 615.221404 
L 312.640386 624.767305 
L 313.322151 449.309245 
L 284.484466 440.296092 
z
" clip-path="url(#p1eb5ec44ae)" style="fill: #648fff"/>
    <path d="M 203.19695 587.141194 
L 219.579998 571.299319 
L 213.303186 189.160029 
L 195.486949 202.840524 
z
" clip-path="url(#p1eb5ec44ae)" style="fill: #324880"/>
    <path d="M 356.294125 617.76996 
L 358.654626 442.702079 
L 387.915099 451.740121 
L 384.452316 627.341241 
z
" clip-path="url(#p1eb5ec44ae)" style="fill: #324880"/>
    <path d="M 316.468069 582.870241 
L 343.919151 592.096929 
L 347.70785 238.027951 
L 318.121802 229.9421 
z
" clip-path="url(#p1eb5ec44ae)" style="fill: #648fff"/>
    <path d="M 176.498664 577.962455 
L 203.19695 587.141194 
L 195.486949 202.840524 
L 166.598788 194.911743 
z
" clip-path="url(#p1eb5ec44ae)" style="fill: #648fff"/>
    <path d="M 386.726301 585.333725 
L 393.803462 232.10039 
L 423.829702 240.209012 
L 414.556596 594.584529 
z
" clip-path="url(#p1eb5ec44ae)" style="fill: #324880"/>
    <path d="M 340.683648 634.40844 
L 342.45871 458.415811 
L 358.654626 442.702079 
L 356.294125 617.76996 
z
" clip-path="url(#p1eb5ec44ae)" style="fill: #648fff"/>
    <path d="M 246.392427 580.413159 
L 242.325653 197.028081 
L 271.654769 204.979266 
L 273.466177 589.615826 
z
" clip-path="url(#p1eb5ec44ae)" style="fill: #324880"/>
    <path d="M 308.639239 668.563079 
L 324.801078 651.33693 
L 353.293288 661.245633 
L 337.300768 678.647224 
z
" clip-path="url(#p1eb5ec44ae)" style="fill: #3f599f"/>
    <path d="M 371.639443 601.414102 
L 377.606637 246.199274 
L 393.803462 232.10039 
L 386.726301 585.333725 
z
" clip-path="url(#p1eb5ec44ae)" style="fill: #648fff"/>
    <path d="M 230.156378 596.409711 
L 224.681525 210.853405 
L 242.325653 197.028081 
L 246.392427 580.413159 
z
" clip-path="url(#p1eb5ec44ae)" style="fill: #648fff"/>
    <path d="M 369.00808 644.14624 
L 384.452316 627.341241 
L 387.915099 451.740121 
L 371.898814 467.617249 
z
" clip-path="url(#p1eb5ec44ae)" style="fill: #324880"/>
    <path d="M 268.668262 631.815685 
L 267.646216 455.96647 
L 296.656131 465.142342 
L 296.594157 641.527441 
z
" clip-path="url(#p1eb5ec44ae)" style="fill: #324880"/>
    <path d="M 399.632924 610.823098 
L 414.556596 594.584529 
L 423.829702 240.209012 
L 407.823148 254.45743 
z
" clip-path="url(#p1eb5ec44ae)" style="fill: #324880"/>
    <path d="M 340.683648 634.40844 
L 369.00808 644.14624 
L 371.898814 467.617249 
L 342.45871 458.415811 
z
" clip-path="url(#p1eb5ec44ae)" style="fill: #648fff"/>
    <path d="M 257.380795 605.769331 
L 273.466177 589.615826 
L 271.654769 204.979266 
L 254.187417 218.951732 
z
" clip-path="url(#p1eb5ec44ae)" style="fill: #324880"/>
    <path d="M 252.180303 648.698817 
L 250.503391 471.920298 
L 267.646216 455.96647 
L 268.668262 631.815685 
z
" clip-path="url(#p1eb5ec44ae)" style="fill: #648fff"/>
    <path d="M 159.692586 593.91734 
L 148.285067 208.698037 
L 177.342121 216.773334 
L 186.535352 603.252418 
z
" clip-path="url(#p1eb5ec44ae)" style="fill: #324880"/>
    <path d="M 371.639443 601.414102 
L 399.632924 610.823098 
L 407.823148 254.45743 
L 377.606637 246.199274 
z
" clip-path="url(#p1eb5ec44ae)" style="fill: #648fff"/>
    <path d="M 230.156378 596.409711 
L 257.380795 605.769331 
L 254.187417 218.951732 
L 224.681525 210.853405 
z
" clip-path="url(#p1eb5ec44ae)" style="fill: #648fff"/>
    <path d="M 142.599735 610.144474 
L 129.632258 222.73959 
L 148.285067 208.698037 
L 159.692586 593.91734 
z
" clip-path="url(#p1eb5ec44ae)" style="fill: #648fff"/>
    <path d="M 284.484466 440.296092 
L 313.322151 449.309245 
L 329.693176 433.7564 
L 301.026187 424.901676 
z
" clip-path="url(#p1eb5ec44ae)" style="fill: #577ddf"/>
    <path d="M 280.267206 658.580788 
L 296.594157 641.527441 
L 296.656131 465.142342 
L 279.68707 481.263335 
z
" clip-path="url(#p1eb5ec44ae)" style="fill: #324880"/>
    <path d="M 350.952946 202.574209 
L 380.179321 210.37412 
L 395.983314 196.914891 
L 366.934216 189.252296 
z
" clip-path="url(#p1eb5ec44ae)" style="fill: #577ddf"/>
    <path d="M 252.180303 648.698817 
L 280.267206 658.580788 
L 279.68707 481.263335 
L 250.503391 471.920298 
z
" clip-path="url(#p1eb5ec44ae)" style="fill: #648fff"/>
    <path d="M 169.588039 619.639919 
L 186.535352 603.252418 
L 177.342121 216.773334 
L 158.859526 230.965504 
z
" clip-path="url(#p1eb5ec44ae)" style="fill: #324880"/>
    <path d="M 324.801078 651.33693 
L 325.969428 474.414174 
L 355.590891 483.78348 
L 353.293288 661.245633 
z
" clip-path="url(#p1eb5ec44ae)" style="fill: #324880"/>
    <path d="M 142.599735 610.144474 
L 169.588039 619.639919 
L 158.859526 230.965504 
L 129.632258 222.73959 
z
" clip-path="url(#p1eb5ec44ae)" style="fill: #648fff"/>
    <path d="M 308.639239 668.563079 
L 309.178736 490.704974 
L 325.969428 474.414174 
L 324.801078 651.33693 
z
" clip-path="url(#p1eb5ec44ae)" style="fill: #648fff"/>
    <path d="M 213.642916 612.679584 
L 206.710238 224.935081 
L 236.394441 233.184671 
L 241.019213 622.200207 
z
" clip-path="url(#p1eb5ec44ae)" style="fill: #324880"/>
    <path d="M 196.84487 629.229842 
L 188.402608 239.280303 
L 206.710238 224.935081 
L 213.642916 612.679584 
z
" clip-path="url(#p1eb5ec44ae)" style="fill: #648fff"/>
    <path d="M 342.45871 458.415811 
L 371.898814 467.617249 
L 387.915099 451.740121 
L 358.654626 442.702079 
z
" clip-path="url(#p1eb5ec44ae)" style="fill: #577ddf"/>
    <path d="M 337.300768 678.647224 
L 353.293288 661.245633 
L 355.590891 483.78348 
L 338.983293 500.246783 
z
" clip-path="url(#p1eb5ec44ae)" style="fill: #324880"/>
    <path d="M 409.709078 218.254997 
L 439.546966 226.218108 
L 454.982712 212.477802 
L 425.331267 204.656319 
z
" clip-path="url(#p1eb5ec44ae)" style="fill: #577ddf"/>
    <path d="M 308.639239 668.563079 
L 337.300768 678.647224 
L 338.983293 500.246783 
L 309.178736 490.704974 
z
" clip-path="url(#p1eb5ec44ae)" style="fill: #648fff"/>
    <path d="M 224.374255 638.91566 
L 241.019213 622.200207 
L 236.394441 233.184671 
L 218.266651 247.685435 
z
" clip-path="url(#p1eb5ec44ae)" style="fill: #324880"/>
    <path d="M 196.84487 629.229842 
L 224.374255 638.91566 
L 218.266651 247.685435 
L 188.402608 239.280303 
z
" clip-path="url(#p1eb5ec44ae)" style="fill: #648fff"/>
    <path d="M 250.503391 471.920298 
L 279.68707 481.263335 
L 296.656131 465.142342 
L 267.646216 455.96647 
z
" clip-path="url(#p1eb5ec44ae)" style="fill: #577ddf"/>
    <path d="M 318.121802 229.9421 
L 347.70785 238.027951 
L 364.090097 224.076261 
L 334.68474 216.13531 
z
" clip-path="url(#p1eb5ec44ae)" style="fill: #577ddf"/>
    <path d="M 166.598788 194.911743 
L 195.486949 202.840524 
L 213.303186 189.160029 
L 184.582584 181.373813 
z
" clip-path="url(#p1eb5ec44ae)" style="fill: #577ddf"/>
    <path d="M 309.178736 490.704974 
L 338.983293 500.246783 
L 355.590891 483.78348 
L 325.969428 474.414174 
z
" clip-path="url(#p1eb5ec44ae)" style="fill: #577ddf"/>
    <path d="M 377.606637 246.199274 
L 407.823148 254.45743 
L 423.829702 240.209012 
L 393.803462 232.10039 
z
" clip-path="url(#p1eb5ec44ae)" style="fill: #577ddf"/>
    <path d="M 224.681525 210.853405 
L 254.187417 218.951732 
L 271.654769 204.979266 
L 242.325653 197.028081 
z
" clip-path="url(#p1eb5ec44ae)" style="fill: #577ddf"/>
    <path d="M 129.632258 222.73959 
L 158.859526 230.965504 
L 177.342121 216.773334 
L 148.285067 208.698037 
z
" clip-path="url(#p1eb5ec44ae)" style="fill: #577ddf"/>
    <path d="M 188.402608 239.280303 
L 218.266651 247.685435 
L 236.394441 233.184671 
L 206.710238 224.935081 
z
" clip-path="url(#p1eb5ec44ae)" style="fill: #577ddf"/>
   </g>
   <g id="text_15">
    <!-- Real Amplitude (ρ) -->
    <g transform="translate(190.023516 51.6) scale(0.21 -0.21)">
     <defs>
      <path id="DejaVuSans-52" d="M 2841 2188 
Q 3044 2119 3236 1894 
Q 3428 1669 3622 1275 
L 4263 0 
L 3584 0 
L 2988 1197 
Q 2756 1666 2539 1819 
Q 2322 1972 1947 1972 
L 1259 1972 
L 1259 0 
L 628 0 
L 628 4666 
L 2053 4666 
Q 2853 4666 3247 4331 
Q 3641 3997 3641 3322 
Q 3641 2881 3436 2590 
Q 3231 2300 2841 2188 
z
M 1259 4147 
L 1259 2491 
L 2053 2491 
Q 2509 2491 2742 2702 
Q 2975 2913 2975 3322 
Q 2975 3731 2742 3939 
Q 2509 4147 2053 4147 
L 1259 4147 
z
" transform="scale(0.015625)"/>
      <path id="DejaVuSans-65" d="M 3597 1894 
L 3597 1613 
L 953 1613 
Q 991 1019 1311 708 
Q 1631 397 2203 397 
Q 2534 397 2845 478 
Q 3156 559 3463 722 
L 3463 178 
Q 3153 47 2828 -22 
Q 2503 -91 2169 -91 
Q 1331 -91 842 396 
Q 353 884 353 1716 
Q 353 2575 817 3079 
Q 1281 3584 2069 3584 
Q 2775 3584 3186 3129 
Q 3597 2675 3597 1894 
z
M 3022 2063 
Q 3016 2534 2758 2815 
Q 2500 3097 2075 3097 
Q 1594 3097 1305 2825 
Q 1016 2553 972 2059 
L 3022 2063 
z
" transform="scale(0.015625)"/>
      <path id="DejaVuSans-61" d="M 2194 1759 
Q 1497 1759 1228 1600 
Q 959 1441 959 1056 
Q 959 750 1161 570 
Q 1363 391 1709 391 
Q 2188 391 2477 730 
Q 2766 1069 2766 1631 
L 2766 1759 
L 2194 1759 
z
M 3341 1997 
L 3341 0 
L 2766 0 
L 2766 531 
Q 2569 213 2275 61 
Q 1981 -91 1556 -91 
Q 1019 -91 701 211 
Q 384 513 384 1019 
Q 384 1609 779 1909 
Q 1175 2209 1959 2209 
L 2766 2209 
L 2766 2266 
Q 2766 2663 2505 2880 
Q 2244 3097 1772 3097 
Q 1472 3097 1187 3025 
Q 903 2953 641 2809 
L 641 3341 
Q 956 3463 1253 3523 
Q 1550 3584 1831 3584 
Q 2591 3584 2966 3190 
Q 3341 2797 3341 1997 
z
" transform="scale(0.015625)"/>
      <path id="DejaVuSans-6c" d="M 603 4863 
L 1178 4863 
L 1178 0 
L 603 0 
L 603 4863 
z
" transform="scale(0.015625)"/>
      <path id="DejaVuSans-20" transform="scale(0.015625)"/>
      <path id="DejaVuSans-41" d="M 2188 4044 
L 1331 1722 
L 3047 1722 
L 2188 4044 
z
M 1831 4666 
L 2547 4666 
L 4325 0 
L 3669 0 
L 3244 1197 
L 1141 1197 
L 716 0 
L 50 0 
L 1831 4666 
z
" transform="scale(0.015625)"/>
      <path id="DejaVuSans-6d" d="M 3328 2828 
Q 3544 3216 3844 3400 
Q 4144 3584 4550 3584 
Q 5097 3584 5394 3201 
Q 5691 2819 5691 2113 
L 5691 0 
L 5113 0 
L 5113 2094 
Q 5113 2597 4934 2840 
Q 4756 3084 4391 3084 
Q 3944 3084 3684 2787 
Q 3425 2491 3425 1978 
L 3425 0 
L 2847 0 
L 2847 2094 
Q 2847 2600 2669 2842 
Q 2491 3084 2119 3084 
Q 1678 3084 1418 2786 
Q 1159 2488 1159 1978 
L 1159 0 
L 581 0 
L 581 3500 
L 1159 3500 
L 1159 2956 
Q 1356 3278 1631 3431 
Q 1906 3584 2284 3584 
Q 2666 3584 2933 3390 
Q 3200 3197 3328 2828 
z
" transform="scale(0.015625)"/>
      <path id="DejaVuSans-70" d="M 1159 525 
L 1159 -1331 
L 581 -1331 
L 581 3500 
L 1159 3500 
L 1159 2969 
Q 1341 3281 1617 3432 
Q 1894 3584 2278 3584 
Q 2916 3584 3314 3078 
Q 3713 2572 3713 1747 
Q 3713 922 3314 415 
Q 2916 -91 2278 -91 
Q 1894 -91 1617 61 
Q 1341 213 1159 525 
z
M 3116 1747 
Q 3116 2381 2855 2742 
Q 2594 3103 2138 3103 
Q 1681 3103 1420 2742 
Q 1159 2381 1159 1747 
Q 1159 1113 1420 752 
Q 1681 391 2138 391 
Q 2594 391 2855 752 
Q 3116 1113 3116 1747 
z
" transform="scale(0.015625)"/>
      <path id="DejaVuSans-69" d="M 603 3500 
L 1178 3500 
L 1178 0 
L 603 0 
L 603 3500 
z
M 603 4863 
L 1178 4863 
L 1178 4134 
L 603 4134 
L 603 4863 
z
" transform="scale(0.015625)"/>
      <path id="DejaVuSans-74" d="M 1172 4494 
L 1172 3500 
L 2356 3500 
L 2356 3053 
L 1172 3053 
L 1172 1153 
Q 1172 725 1289 603 
Q 1406 481 1766 481 
L 2356 481 
L 2356 0 
L 1766 0 
Q 1100 0 847 248 
Q 594 497 594 1153 
L 594 3053 
L 172 3053 
L 172 3500 
L 594 3500 
L 594 4494 
L 1172 4494 
z
" transform="scale(0.015625)"/>
      <path id="DejaVuSans-75" d="M 544 1381 
L 544 3500 
L 1119 3500 
L 1119 1403 
Q 1119 906 1312 657 
Q 1506 409 1894 409 
Q 2359 409 2629 706 
Q 2900 1003 2900 1516 
L 2900 3500 
L 3475 3500 
L 3475 0 
L 2900 0 
L 2900 538 
Q 2691 219 2414 64 
Q 2138 -91 1772 -91 
Q 1169 -91 856 284 
Q 544 659 544 1381 
z
M 1991 3584 
L 1991 3584 
z
" transform="scale(0.015625)"/>
      <path id="DejaVuSans-64" d="M 2906 2969 
L 2906 4863 
L 3481 4863 
L 3481 0 
L 2906 0 
L 2906 525 
Q 2725 213 2448 61 
Q 2172 -91 1784 -91 
Q 1150 -91 751 415 
Q 353 922 353 1747 
Q 353 2572 751 3078 
Q 1150 3584 1784 3584 
Q 2172 3584 2448 3432 
Q 2725 3281 2906 2969 
z
M 947 1747 
Q 947 1113 1208 752 
Q 1469 391 1925 391 
Q 2381 391 2643 752 
Q 2906 1113 2906 1747 
Q 2906 2381 2643 2742 
Q 2381 3103 1925 3103 
Q 1469 3103 1208 2742 
Q 947 2381 947 1747 
z
" transform="scale(0.015625)"/>
      <path id="DejaVuSans-28" d="M 1984 4856 
Q 1566 4138 1362 3434 
Q 1159 2731 1159 2009 
Q 1159 1288 1364 580 
Q 1569 -128 1984 -844 
L 1484 -844 
Q 1016 -109 783 600 
Q 550 1309 550 2009 
Q 550 2706 781 3412 
Q 1013 4119 1484 4856 
L 1984 4856 
z
" transform="scale(0.015625)"/>
      <path id="DejaVuSans-3c1" d="M 863 2875 
Q 1053 3194 1525 3475 
Q 1709 3584 2278 3584 
Q 2916 3584 3314 3078 
Q 3713 2572 3713 1747 
Q 3713 922 3314 415 
Q 2916 -91 2278 -91 
Q 1894 -91 1617 61 
Q 1341 213 1159 525 
L 1159 -1331 
L 581 -1331 
L 581 1716 
Q 581 2438 863 2875 
z
M 3116 1747 
Q 3116 2381 2855 2742 
Q 2594 3103 2138 3103 
Q 1681 3103 1420 2742 
Q 1159 2381 1159 1747 
Q 1159 1113 1420 752 
Q 1681 391 2138 391 
Q 2594 391 2855 752 
Q 3116 1113 3116 1747 
z
" transform="scale(0.015625)"/>
      <path id="DejaVuSans-29" d="M 513 4856 
L 1013 4856 
Q 1481 4119 1714 3412 
Q 1947 2706 1947 2009 
Q 1947 1309 1714 600 
Q 1481 -109 1013 -844 
L 513 -844 
Q 928 -128 1133 580 
Q 1338 1288 1338 2009 
Q 1338 2731 1133 3434 
Q 928 4138 513 4856 
z
" transform="scale(0.015625)"/>
     </defs>
     <use xlink:href="#DejaVuSans-52"/>
     <use xlink:href="#DejaVuSans-65" x="64.982422"/>
     <use xlink:href="#DejaVuSans-61" x="126.505859"/>
     <use xlink:href="#DejaVuSans-6c" x="187.785156"/>
     <use xlink:href="#DejaVuSans-20" x="215.568359"/>
     <use xlink:href="#DejaVuSans-41" x="247.355469"/>
     <use xlink:href="#DejaVuSans-6d" x="315.763672"/>
     <use xlink:href="#DejaVuSans-70" x="413.175781"/>
     <use xlink:href="#DejaVuSans-6c" x="476.652344"/>
     <use xlink:href="#DejaVuSans-69" x="504.435547"/>
     <use xlink:href="#DejaVuSans-74" x="532.21875"/>
     <use xlink:href="#DejaVuSans-75" x="571.427734"/>
     <use xlink:href="#DejaVuSans-64" x="634.806641"/>
     <use xlink:href="#DejaVuSans-65" x="698.283203"/>
     <use xlink:href="#DejaVuSans-20" x="759.806641"/>
     <use xlink:href="#DejaVuSans-28" x="791.59375"/>
     <use xlink:href="#DejaVuSans-3c1" x="830.607422"/>
     <use xlink:href="#DejaVuSans-29" x="894.083984"/>
    </g>
   </g>
  </g>
  <g id="patch_6">
   <path d="M 604.8 576 
L 1123.2 576 
L 1123.2 57.6 
L 604.8 57.6 
z
" style="fill: #ffffff"/>
  </g>
  <g id="pane3d_4">
   <g id="patch_7">
    <path d="M 706.07018 436.456468 
L 829.494133 330.550231 
L 827.743197 126.70673 
L 698.643358 223.613571 
" style="fill: #f2f2f2; opacity: 0.5; stroke: #f2f2f2; stroke-linejoin: miter"/>
   </g>
  </g>
  <g id="pane3d_5">
   <g id="patch_8">
    <path d="M 829.494133 330.550231 
L 1031.554898 390.069341 
L 1038.583588 181.103065 
L 827.743197 126.70673 
" style="fill: #e6e6e6; opacity: 0.5; stroke: #e6e6e6; stroke-linejoin: miter"/>
   </g>
  </g>
  <g id="pane3d_6">
   <g id="patch_9">
    <path d="M 706.07018 436.456468 
L 916.912731 504.076731 
L 1031.554898 390.069341 
L 829.494133 330.550231 
" style="fill: #ececec; opacity: 0.5; stroke: #ececec; stroke-linejoin: miter"/>
   </g>
  </g>
  <g id="grid3d_4">
   <g id="Line3DCollection_4">
    <path d="M 734.635886 445.617904 
L 856.925726 338.630493 
L 856.328796 134.081748 
" style="fill: none; stroke: #b0b0b0; stroke-width: 0.8"/>
    <path d="M 784.310046 461.549127 
L 904.58611 352.669358 
L 906.022474 146.902603 
" style="fill: none; stroke: #b0b0b0; stroke-width: 0.8"/>
    <path d="M 834.89502 477.772462 
L 953.066152 366.949661 
L 956.607663 159.953465 
" style="fill: none; stroke: #b0b0b0; stroke-width: 0.8"/>
    <path d="M 886.41609 494.296016 
L 1002.38718 381.477685 
L 1008.108569 173.24058 
" style="fill: none; stroke: #b0b0b0; stroke-width: 0.8"/>
   </g>
  </g>
  <g id="grid3d_5">
   <g id="Line3DCollection_5">
    <path d="M 717.757365 209.265931 
L 724.301379 420.812846 
L 933.880707 487.202708 
" style="fill: none; stroke: #b0b0b0; stroke-width: 0.8"/>
    <path d="M 749.704273 185.285468 
L 754.805664 394.638072 
L 962.24502 458.995448 
" style="fill: none; stroke: #b0b0b0; stroke-width: 0.8"/>
    <path d="M 780.65707 162.051218 
L 784.400054 369.24405 
L 989.731787 431.660877 
" style="fill: none; stroke: #b0b0b0; stroke-width: 0.8"/>
    <path d="M 810.661448 139.528886 
L 813.124663 344.596362 
L 1016.38111 405.159111 
" style="fill: none; stroke: #b0b0b0; stroke-width: 0.8"/>
   </g>
  </g>
  <g id="grid3d_6">
   <g id="Line3DCollection_6">
    <path d="M 1031.806499 382.589113 
L 829.431363 323.242584 
L 705.804634 428.846257 
" style="fill: none; stroke: #b0b0b0; stroke-width: 0.8"/>
    <path d="M 1033.233759 340.156003 
L 829.075419 281.803665 
L 704.297837 385.663457 
" style="fill: none; stroke: #b0b0b0; stroke-width: 0.8"/>
    <path d="M 1034.686582 296.962881 
L 828.713327 239.649043 
L 702.7633 341.685665 
" style="fill: none; stroke: #b0b0b0; stroke-width: 0.8"/>
    <path d="M 1036.165662 252.989142 
L 828.344927 196.760016 
L 701.20025 296.890724 
" style="fill: none; stroke: #b0b0b0; stroke-width: 0.8"/>
    <path d="M 1037.671716 208.213433 
L 827.970053 153.117224 
L 699.607885 251.255644 
" style="fill: none; stroke: #b0b0b0; stroke-width: 0.8"/>
   </g>
  </g>
  <g id="axis3d_4">
   <g id="line2d_18">
    <path d="M 706.07018 436.456468 
L 916.912731 504.076731 
" style="fill: none; stroke: #000000; stroke-width: 0.8; stroke-linecap: square"/>
   </g>
   <g id="xtick_15">
    <g id="line2d_19">
     <path d="M 735.677227 444.706868 
L 732.549953 447.442819 
" style="fill: none; stroke: #000000; stroke-width: 0.8; stroke-linecap: square"/>
    </g>
    <g id="text_16">
     <!-- 00 -->
     <g transform="translate(707.351686 489.365693) rotate(-45) scale(0.21 -0.21)">
      <use xlink:href="#DejaVuSans-30"/>
      <use xlink:href="#DejaVuSans-30" x="63.623047"/>
     </g>
    </g>
   </g>
   <g id="xtick_16">
    <g id="line2d_20">
     <path d="M 785.334802 460.621468 
L 782.257306 463.407368 
" style="fill: none; stroke: #000000; stroke-width: 0.8; stroke-linecap: square"/>
    </g>
    <g id="text_17">
     <!-- 01 -->
     <g transform="translate(757.023931 505.435143) rotate(-45) scale(0.21 -0.21)">
      <use xlink:href="#DejaVuSans-30"/>
      <use xlink:href="#DejaVuSans-31" x="63.623047"/>
     </g>
    </g>
   </g>
   <g id="xtick_17">
    <g id="line2d_21">
     <path d="M 835.902405 476.82772 
L 832.877048 479.664949 
" style="fill: none; stroke: #000000; stroke-width: 0.8; stroke-linecap: square"/>
    </g>
    <g id="text_18">
     <!-- 10 -->
     <g transform="translate(807.60781 521.799516) rotate(-45) scale(0.21 -0.21)">
      <use xlink:href="#DejaVuSans-31"/>
      <use xlink:href="#DejaVuSans-30" x="63.623047"/>
     </g>
    </g>
   </g>
   <g id="xtick_18">
    <g id="line2d_22">
     <path d="M 887.405283 493.333715 
L 884.434531 496.223705 
" style="fill: none; stroke: #000000; stroke-width: 0.8; stroke-linecap: square"/>
    </g>
    <g id="text_19">
     <!-- 11 -->
     <g transform="translate(859.128654 538.467006) rotate(-45) scale(0.21 -0.21)">
      <use xlink:href="#DejaVuSans-31"/>
      <use xlink:href="#DejaVuSans-31" x="63.623047"/>
     </g>
    </g>
   </g>
  </g>
  <g id="axis3d_5">
   <g id="line2d_23">
    <path d="M 1031.554898 390.069341 
L 916.912731 504.076731 
" style="fill: none; stroke: #000000; stroke-width: 0.8; stroke-linecap: square"/>
   </g>
   <g id="xtick_19">
    <g id="line2d_24">
     <path d="M 932.140222 486.651363 
L 937.364886 488.306415 
" style="fill: none; stroke: #000000; stroke-width: 0.8; stroke-linecap: square"/>
    </g>
    <g id="text_20">
     <!-- 00 -->
     <g transform="translate(944.70027 499.207917) rotate(-337.5) scale(0.21 -0.21)">
      <use xlink:href="#DejaVuSans-30"/>
      <use xlink:href="#DejaVuSans-30" x="63.623047"/>
     </g>
    </g>
   </g>
   <g id="xtick_20">
    <g id="line2d_25">
     <path d="M 960.5233 458.46129 
L 965.691587 460.064734 
" style="fill: none; stroke: #000000; stroke-width: 0.8; stroke-linecap: square"/>
    </g>
    <g id="text_21">
     <!-- 01 -->
     <g transform="translate(972.913817 470.822876) rotate(-337.5) scale(0.21 -0.21)">
      <use xlink:href="#DejaVuSans-30"/>
      <use xlink:href="#DejaVuSans-31" x="63.623047"/>
     </g>
    </g>
   </g>
   <g id="xtick_21">
    <g id="line2d_26">
     <path d="M 988.028511 431.143114 
L 993.141381 432.697327 
" style="fill: none; stroke: #000000; stroke-width: 0.8; stroke-linecap: square"/>
    </g>
    <g id="text_22">
     <!-- 10 -->
     <g transform="translate(1000.254695 443.315808) rotate(-337.5) scale(0.21 -0.21)">
      <use xlink:href="#DejaVuSans-31"/>
      <use xlink:href="#DejaVuSans-30" x="63.623047"/>
     </g>
    </g>
   </g>
   <g id="xtick_22">
    <g id="line2d_27">
     <path d="M 1014.695964 404.657001 
L 1019.754368 406.164215 
" style="fill: none; stroke: #000000; stroke-width: 0.8; stroke-linecap: square"/>
    </g>
    <g id="text_23">
     <!-- 11 -->
     <g transform="translate(1026.762776 416.646599) rotate(-337.5) scale(0.21 -0.21)">
      <use xlink:href="#DejaVuSans-31"/>
      <use xlink:href="#DejaVuSans-31" x="63.623047"/>
     </g>
    </g>
   </g>
  </g>
  <g id="axis3d_6">
   <g id="line2d_28">
    <path d="M 1031.554898 390.069341 
L 1038.583588 181.103065 
" style="fill: none; stroke: #000000; stroke-width: 0.8; stroke-linecap: square"/>
   </g>
   <g id="xtick_23">
    <g id="line2d_29">
     <path d="M 1030.129086 382.097211 
L 1035.164256 383.573775 
" style="fill: none; stroke: #000000; stroke-width: 0.8; stroke-linecap: square"/>
    </g>
    <g id="text_24">
     <!-- −0.2 -->
     <g transform="translate(1045.306654 376.306202) scale(0.21 -0.21)">
      <defs>
       <path id="DejaVuSans-2212" d="M 678 2272 
L 4684 2272 
L 4684 1741 
L 678 1741 
L 678 2272 
z
" transform="scale(0.015625)"/>
      </defs>
      <use xlink:href="#DejaVuSans-2212"/>
      <use xlink:href="#DejaVuSans-30" x="83.789062"/>
      <use xlink:href="#DejaVuSans-2e" x="147.412109"/>
      <use xlink:href="#DejaVuSans-32" x="179.199219"/>
     </g>
    </g>
   </g>
   <g id="xtick_24">
    <g id="line2d_30">
     <path d="M 1031.541043 339.672193 
L 1036.622175 341.124477 
" style="fill: none; stroke: #000000; stroke-width: 0.8; stroke-linecap: square"/>
    </g>
    <g id="text_25">
     <!-- −0.1 -->
     <g transform="translate(1046.851971 333.904614) scale(0.21 -0.21)">
      <use xlink:href="#DejaVuSans-2212"/>
      <use xlink:href="#DejaVuSans-30" x="83.789062"/>
      <use xlink:href="#DejaVuSans-2e" x="147.412109"/>
      <use xlink:href="#DejaVuSans-31" x="179.199219"/>
     </g>
    </g>
   </g>
   <g id="xtick_25">
    <g id="line2d_31">
     <path d="M 1032.978282 296.487531 
L 1038.106222 297.914425 
" style="fill: none; stroke: #000000; stroke-width: 0.8; stroke-linecap: square"/>
    </g>
    <g id="text_26">
     <!-- 0.0 -->
     <g transform="translate(1048.424935 290.744455) scale(0.21 -0.21)">
      <use xlink:href="#DejaVuSans-30"/>
      <use xlink:href="#DejaVuSans-2e" x="63.623047"/>
      <use xlink:href="#DejaVuSans-30" x="95.410156"/>
     </g>
    </g>
   </g>
   <g id="xtick_26">
    <g id="line2d_32">
     <path d="M 1034.441487 252.52264 
L 1039.617106 253.922984 
" style="fill: none; stroke: #000000; stroke-width: 0.8; stroke-linecap: square"/>
    </g>
    <g id="text_27">
     <!-- 0.1 -->
     <g transform="translate(1050.026294 246.805182) scale(0.21 -0.21)">
      <use xlink:href="#DejaVuSans-30"/>
      <use xlink:href="#DejaVuSans-2e" x="63.623047"/>
      <use xlink:href="#DejaVuSans-31" x="95.410156"/>
     </g>
    </g>
   </g>
   <g id="xtick_27">
    <g id="line2d_33">
     <path d="M 1035.93137 207.756181 
L 1041.155562 209.128766 
" style="fill: none; stroke: #000000; stroke-width: 0.8; stroke-linecap: square"/>
    </g>
    <g id="text_28">
     <!-- 0.2 -->
     <g transform="translate(1051.656822 202.065509) scale(0.21 -0.21)">
      <use xlink:href="#DejaVuSans-30"/>
      <use xlink:href="#DejaVuSans-2e" x="63.623047"/>
      <use xlink:href="#DejaVuSans-32" x="95.410156"/>
     </g>
    </g>
   </g>
  </g>
  <g id="axes_2">
   <g id="Poly3DCollection_2">
    <path d="M 983.337298 293.319646 
L 983.337298 293.319646 
L 1008.796428 300.451277 
L 1008.796428 300.451277 
z
" clip-path="url(#pba6648bf4e)" style="fill: #648fff"/>
    <path d="M 969.749488 305.712396 
L 969.749488 305.712396 
L 983.337298 293.319646 
L 983.337298 293.319646 
z
" clip-path="url(#pba6648bf4e)" style="fill: #324880"/>
    <path d="M 969.749488 305.712396 
L 995.345545 312.955085 
L 1008.796428 300.451277 
L 983.337298 293.319646 
z
" clip-path="url(#pba6648bf4e)" style="fill: #577ddf"/>
    <path d="M 969.749488 305.712396 
L 983.337298 293.319646 
L 1008.796428 300.451277 
L 995.345545 312.955085 
z
" clip-path="url(#pba6648bf4e)" style="fill: #3f599f"/>
    <path d="M 776.474622 299.937133 
L 776.474622 299.937133 
L 801.114343 307.12796 
L 801.114343 307.12796 
z
" clip-path="url(#pba6648bf4e)" style="fill: #648fff"/>
    <path d="M 761.222664 312.432918 
L 761.222664 312.432918 
L 776.474622 299.937133 
L 776.474622 299.937133 
z
" clip-path="url(#pba6648bf4e)" style="fill: #324880"/>
    <path d="M 995.345545 312.955085 
L 1008.796428 300.451277 
L 1008.796428 300.451277 
L 995.345545 312.955085 
z
" clip-path="url(#pba6648bf4e)" style="fill: #648fff"/>
    <path d="M 861.817832 436.830448 
L 886.990344 444.680593 
L 901.311406 431.128178 
L 876.269021 423.398695 
z
" clip-path="url(#pba6648bf4e)" style="fill: #577ddf"/>
    <path d="M 969.749488 305.712396 
L 995.345545 312.955085 
L 995.345545 312.955085 
L 969.749488 305.712396 
z
" clip-path="url(#pba6648bf4e)" style="fill: #324880"/>
    <path d="M 761.222664 312.432918 
L 776.474622 299.937133 
L 801.114343 307.12796 
L 785.985988 319.736195 
z
" clip-path="url(#pba6648bf4e)" style="fill: #3f599f"/>
    <path d="M 761.222664 312.432918 
L 785.985988 319.736195 
L 801.114343 307.12796 
L 776.474622 299.937133 
z
" clip-path="url(#pba6648bf4e)" style="fill: #577ddf"/>
    <path d="M 785.985988 319.736195 
L 801.114343 307.12796 
L 801.114343 307.12796 
L 785.985988 319.736195 
z
" clip-path="url(#pba6648bf4e)" style="fill: #648fff"/>
    <path d="M 761.222664 312.432918 
L 785.985988 319.736195 
L 785.985988 319.736195 
L 761.222664 312.432918 
z
" clip-path="url(#pba6648bf4e)" style="fill: #324880"/>
    <path d="M 876.373748 329.091575 
L 876.269021 423.398695 
L 901.311406 431.128178 
L 901.917135 336.546127 
z
" clip-path="url(#pba6648bf4e)" style="fill: #648fff"/>
    <path d="M 825.975431 314.38339 
L 825.975431 314.38339 
L 851.060882 321.704299 
L 851.060882 321.704299 
z
" clip-path="url(#pba6648bf4e)" style="fill: #648fff"/>
    <path d="M 861.633585 342.046421 
L 861.817832 436.830448 
L 876.269021 423.398695 
L 876.373748 329.091575 
z
" clip-path="url(#pba6648bf4e)" style="fill: #324880"/>
    <path d="M 810.973534 327.1056 
L 810.973534 327.1056 
L 825.975431 314.38339 
L 825.975431 314.38339 
z
" clip-path="url(#pba6648bf4e)" style="fill: #324880"/>
    <path d="M 912.390382 452.601693 
L 938.021045 460.594713 
L 952.072987 446.796046 
L 926.578383 438.926983 
z
" clip-path="url(#pba6648bf4e)" style="fill: #577ddf"/>
    <path d="M 955.949729 318.298454 
L 955.949729 318.298454 
L 981.683898 325.654818 
L 981.683898 325.654818 
z
" clip-path="url(#pba6648bf4e)" style="fill: #648fff"/>
    <path d="M 810.973534 327.1056 
L 825.975431 314.38339 
L 851.060882 321.704299 
L 836.188361 334.542036 
z
" clip-path="url(#pba6648bf4e)" style="fill: #3f599f"/>
    <path d="M 810.973534 327.1056 
L 836.188361 334.542036 
L 851.060882 321.704299 
L 825.975431 314.38339 
z
" clip-path="url(#pba6648bf4e)" style="fill: #577ddf"/>
    <path d="M 941.93302 331.08238 
L 941.93302 331.08238 
L 955.949729 318.298454 
L 955.949729 318.298454 
z
" clip-path="url(#pba6648bf4e)" style="fill: #324880"/>
    <path d="M 887.312376 349.619691 
L 901.917135 336.546127 
L 901.311406 431.128178 
L 886.990344 444.680593 
z
" clip-path="url(#pba6648bf4e)" style="fill: #648fff"/>
    <path d="M 836.188361 334.542036 
L 851.060882 321.704299 
L 851.060882 321.704299 
L 836.188361 334.542036 
z
" clip-path="url(#pba6648bf4e)" style="fill: #648fff"/>
    <path d="M 941.93302 331.08238 
L 967.806496 338.555115 
L 981.683898 325.654818 
L 955.949729 318.298454 
z
" clip-path="url(#pba6648bf4e)" style="fill: #577ddf"/>
    <path d="M 941.93302 331.08238 
L 955.949729 318.298454 
L 981.683898 325.654818 
L 967.806496 338.555115 
z
" clip-path="url(#pba6648bf4e)" style="fill: #3f599f"/>
    <path d="M 861.633585 342.046421 
L 887.312376 349.619691 
L 886.990344 444.680593 
L 861.817832 436.830448 
z
" clip-path="url(#pba6648bf4e)" style="fill: #324880"/>
    <path d="M 810.973534 327.1056 
L 836.188361 334.542036 
L 836.188361 334.542036 
L 810.973534 327.1056 
z
" clip-path="url(#pba6648bf4e)" style="fill: #324880"/>
    <path d="M 927.694207 344.068877 
L 926.578383 438.926983 
L 952.072987 446.796046 
L 953.708185 351.660766 
z
" clip-path="url(#pba6648bf4e)" style="fill: #648fff"/>
    <path d="M 967.806496 338.555115 
L 981.683898 325.654818 
L 981.683898 325.654818 
L 967.806496 338.555115 
z
" clip-path="url(#pba6648bf4e)" style="fill: #648fff"/>
    <path d="M 832.232215 464.328996 
L 857.668038 472.429097 
L 872.444335 458.445881 
L 847.140677 450.472227 
z
" clip-path="url(#pba6648bf4e)" style="fill: #577ddf"/>
    <path d="M 913.227968 357.262798 
L 912.390382 452.601693 
L 926.578383 438.926983 
L 927.694207 344.068877 
z
" clip-path="url(#pba6648bf4e)" style="fill: #324880"/>
    <path d="M 941.93302 331.08238 
L 967.806496 338.555115 
L 967.806496 338.555115 
L 941.93302 331.08238 
z
" clip-path="url(#pba6648bf4e)" style="fill: #324880"/>
    <path d="M 861.633585 342.046421 
L 876.373748 329.091575 
L 901.917135 336.546127 
L 887.312376 349.619691 
z
" clip-path="url(#pba6648bf4e)" style="fill: #3f599f"/>
    <path d="M 939.383649 364.976713 
L 953.708185 351.660766 
L 952.072987 446.796046 
L 938.021045 460.594713 
z
" clip-path="url(#pba6648bf4e)" style="fill: #648fff"/>
    <path d="M 846.658278 355.207929 
L 847.140677 450.472227 
L 872.444335 458.445881 
L 872.473556 362.902776 
z
" clip-path="url(#pba6648bf4e)" style="fill: #648fff"/>
    <path d="M 913.227968 357.262798 
L 939.383649 364.976713 
L 938.021045 460.594713 
L 912.390382 452.601693 
z
" clip-path="url(#pba6648bf4e)" style="fill: #324880"/>
    <path d="M 831.442155 368.581086 
L 832.232215 464.328996 
L 847.140677 450.472227 
L 846.658278 355.207929 
z
" clip-path="url(#pba6648bf4e)" style="fill: #324880"/>
    <path d="M 883.337424 480.603576 
L 909.243605 488.853463 
L 923.746364 474.612105 
L 897.978509 466.492174 
z
" clip-path="url(#pba6648bf4e)" style="fill: #577ddf"/>
    <path d="M 857.395003 376.40046 
L 872.473556 362.902776 
L 872.444335 458.445881 
L 857.668038 472.429097 
z
" clip-path="url(#pba6648bf4e)" style="fill: #648fff"/>
    <path d="M 913.227968 357.262798 
L 927.694207 344.068877 
L 953.708185 351.660766 
L 939.383649 364.976713 
z
" clip-path="url(#pba6648bf4e)" style="fill: #3f599f"/>
    <path d="M 831.442155 368.581086 
L 857.395003 376.40046 
L 857.668038 472.429097 
L 832.232215 464.328996 
z
" clip-path="url(#pba6648bf4e)" style="fill: #324880"/>
    <path d="M 898.52881 370.669152 
L 897.978509 466.492174 
L 923.746364 474.612105 
L 924.827399 378.50806 
z
" clip-path="url(#pba6648bf4e)" style="fill: #648fff"/>
    <path d="M 883.591062 384.293112 
L 883.337424 480.603576 
L 897.978509 466.492174 
L 898.52881 370.669152 
z
" clip-path="url(#pba6648bf4e)" style="fill: #324880"/>
    <path d="M 831.442155 368.581086 
L 846.658278 355.207929 
L 872.473556 362.902776 
L 857.395003 376.40046 
z
" clip-path="url(#pba6648bf4e)" style="fill: #3f599f"/>
    <path d="M 910.033767 392.260076 
L 924.827399 378.50806 
L 923.746364 474.612105 
L 909.243605 488.853463 
z
" clip-path="url(#pba6648bf4e)" style="fill: #648fff"/>
    <path d="M 883.591062 384.293112 
L 910.033767 392.260076 
L 909.243605 488.853463 
L 883.337424 480.603576 
z
" clip-path="url(#pba6648bf4e)" style="fill: #324880"/>
    <path d="M 883.591062 384.293112 
L 898.52881 370.669152 
L 924.827399 378.50806 
L 910.033767 392.260076 
z
" clip-path="url(#pba6648bf4e)" style="fill: #3f599f"/>
   </g>
   <g id="Poly3DCollection_3">
    <path d="M 709.582944 340.766798 
L 915.897944 403.265157 
L 1028.224577 297.83356 
L 830.325635 242.674802 
z
" clip-path="url(#pba6648bf4e)" style="fill-opacity: 0.25"/>
   </g>
   <g id="Poly3DCollection_4">
    <path d="M 820.85107 263.579925 
L 835.200609 251.823483 
L 859.354593 258.589515 
L 845.125181 270.448556 
z
" clip-path="url(#pba6648bf4e)" style="fill: #3f599f"/>
    <path d="M 835.200609 251.823483 
L 834.508725 156.915575 
L 859.12846 163.393269 
L 859.354593 258.589515 
z
" clip-path="url(#pba6648bf4e)" style="fill: #324880"/>
    <path d="M 820.85107 263.579925 
L 819.874452 168.171706 
L 834.508725 156.915575 
L 835.200609 251.823483 
z
" clip-path="url(#pba6648bf4e)" style="fill: #648fff"/>
    <path d="M 869.6124 277.377488 
L 883.71903 265.4145 
L 908.296683 272.299211 
L 894.315546 284.367519 
z
" clip-path="url(#pba6648bf4e)" style="fill: #3f599f"/>
    <path d="M 845.125181 270.448556 
L 859.354593 258.589515 
L 859.12846 163.393269 
L 844.618989 174.74955 
z
" clip-path="url(#pba6648bf4e)" style="fill: #324880"/>
    <path d="M 820.85107 263.579925 
L 845.125181 270.448556 
L 844.618989 174.74955 
L 819.874452 168.171706 
z
" clip-path="url(#pba6648bf4e)" style="fill: #648fff"/>
    <path d="M 933.090364 279.244436 
L 933.090364 279.244436 
L 958.102931 286.250976 
L 958.102931 286.250976 
z
" clip-path="url(#pba6648bf4e)" style="fill: #324880"/>
    <path d="M 883.71903 265.4145 
L 883.966888 169.928503 
L 909.026936 176.522048 
L 908.296683 272.299211 
z
" clip-path="url(#pba6648bf4e)" style="fill: #324880"/>
    <path d="M 791.493156 287.632588 
L 806.283586 275.514928 
L 830.678698 282.488508 
L 816.010139 294.713542 
z
" clip-path="url(#pba6648bf4e)" style="fill: #3f599f"/>
    <path d="M 919.237488 291.419461 
L 919.237488 291.419461 
L 933.090364 279.244436 
L 933.090364 279.244436 
z
" clip-path="url(#pba6648bf4e)" style="fill: #648fff"/>
    <path d="M 869.6124 277.377488 
L 869.585033 181.386277 
L 883.966888 169.928503 
L 883.71903 265.4145 
z
" clip-path="url(#pba6648bf4e)" style="fill: #648fff"/>
    <path d="M 919.237488 291.419461 
L 933.090364 279.244436 
L 958.102931 286.250976 
L 944.381145 298.534139 
z
" clip-path="url(#pba6648bf4e)" style="fill: #3f599f"/>
    <path d="M 919.237488 291.419461 
L 944.381145 298.534139 
L 958.102931 286.250976 
L 933.090364 279.244436 
z
" clip-path="url(#pba6648bf4e)" style="fill: #577ddf"/>
    <path d="M 819.874452 168.171706 
L 844.618989 174.74955 
L 859.12846 163.393269 
L 834.508725 156.915575 
z
" clip-path="url(#pba6648bf4e)" style="fill: #577ddf"/>
    <path d="M 944.381145 298.534139 
L 958.102931 286.250976 
L 958.102931 286.250976 
L 944.381145 298.534139 
z
" clip-path="url(#pba6648bf4e)" style="fill: #324880"/>
    <path d="M 894.315546 284.367519 
L 908.296683 272.299211 
L 909.026936 176.522048 
L 894.77557 188.082681 
z
" clip-path="url(#pba6648bf4e)" style="fill: #324880"/>
    <path d="M 806.283586 275.514928 
L 805.013549 179.602151 
L 829.883812 186.282486 
L 830.678698 282.488508 
z
" clip-path="url(#pba6648bf4e)" style="fill: #324880"/>
    <path d="M 919.237488 291.419461 
L 944.381145 298.534139 
L 944.381145 298.534139 
L 919.237488 291.419461 
z
" clip-path="url(#pba6648bf4e)" style="fill: #648fff"/>
    <path d="M 869.6124 277.377488 
L 894.315546 284.367519 
L 894.77557 188.082681 
L 869.585033 181.386277 
z
" clip-path="url(#pba6648bf4e)" style="fill: #648fff"/>
    <path d="M 791.493156 287.632588 
L 789.92071 191.210993 
L 805.013549 179.602151 
L 806.283586 275.514928 
z
" clip-path="url(#pba6648bf4e)" style="fill: #648fff"/>
    <path d="M 840.745685 301.857622 
L 855.289621 289.52378 
L 880.119231 296.621567 
L 865.70273 309.065674 
z
" clip-path="url(#pba6648bf4e)" style="fill: #3f599f"/>
    <path d="M 816.010139 294.713542 
L 830.678698 282.488508 
L 829.883812 186.282486 
L 814.917622 197.996233 
z
" clip-path="url(#pba6648bf4e)" style="fill: #324880"/>
    <path d="M 869.585033 181.386277 
L 894.77557 188.082681 
L 909.026936 176.522048 
L 883.966888 169.928503 
z
" clip-path="url(#pba6648bf4e)" style="fill: #577ddf"/>
    <path d="M 791.493156 287.632588 
L 816.010139 294.713542 
L 814.917622 197.996233 
L 789.92071 191.210993 
z
" clip-path="url(#pba6648bf4e)" style="fill: #648fff"/>
    <path d="M 905.170456 303.782704 
L 905.170456 303.782704 
L 930.446278 311.008044 
L 930.446278 311.008044 
z
" clip-path="url(#pba6648bf4e)" style="fill: #324880"/>
    <path d="M 855.289621 289.52378 
L 854.978447 193.023089 
L 880.300503 199.824778 
L 880.119231 296.621567 
z
" clip-path="url(#pba6648bf4e)" style="fill: #324880"/>
    <path d="M 890.884264 316.338563 
L 890.884264 316.338563 
L 905.170456 303.782704 
L 905.170456 303.782704 
z
" clip-path="url(#pba6648bf4e)" style="fill: #648fff"/>
    <path d="M 840.745685 301.857622 
L 840.141822 204.843169 
L 854.978447 193.023089 
L 855.289621 289.52378 
z
" clip-path="url(#pba6648bf4e)" style="fill: #648fff"/>
    <path d="M 890.884264 316.338563 
L 905.170456 303.782704 
L 930.446278 311.008044 
L 916.293328 323.677167 
z
" clip-path="url(#pba6648bf4e)" style="fill: #3f599f"/>
    <path d="M 890.884264 316.338563 
L 916.293328 323.677167 
L 930.446278 311.008044 
L 905.170456 303.782704 
z
" clip-path="url(#pba6648bf4e)" style="fill: #577ddf"/>
    <path d="M 789.92071 191.210993 
L 814.917622 197.996233 
L 829.883812 186.282486 
L 805.013549 179.602151 
z
" clip-path="url(#pba6648bf4e)" style="fill: #577ddf"/>
    <path d="M 916.293328 323.677167 
L 930.446278 311.008044 
L 930.446278 311.008044 
L 916.293328 323.677167 
z
" clip-path="url(#pba6648bf4e)" style="fill: #324880"/>
    <path d="M 865.70273 309.065674 
L 880.119231 296.621567 
L 880.300503 199.824778 
L 865.596427 211.752647 
z
" clip-path="url(#pba6648bf4e)" style="fill: #324880"/>
    <path d="M 890.884264 316.338563 
L 916.293328 323.677167 
L 916.293328 323.677167 
L 890.884264 316.338563 
z
" clip-path="url(#pba6648bf4e)" style="fill: #648fff"/>
    <path d="M 840.745685 301.857622 
L 865.70273 309.065674 
L 865.596427 211.752647 
L 840.141822 204.843169 
z
" clip-path="url(#pba6648bf4e)" style="fill: #648fff"/>
    <path d="M 745.7318 325.124438 
L 745.7318 325.124438 
L 770.619587 332.542823 
L 770.619587 332.542823 
z
" clip-path="url(#pba6648bf4e)" style="fill: #324880"/>
    <path d="M 840.141822 204.843169 
L 865.596427 211.752647 
L 880.300503 199.824778 
L 854.978447 193.023089 
z
" clip-path="url(#pba6648bf4e)" style="fill: #577ddf"/>
    <path d="M 729.996371 338.016327 
L 729.996371 338.016327 
L 745.7318 325.124438 
L 745.7318 325.124438 
z
" clip-path="url(#pba6648bf4e)" style="fill: #648fff"/>
    <path d="M 729.996371 338.016327 
L 745.7318 325.124438 
L 770.619587 332.542823 
L 755.009475 345.552564 
z
" clip-path="url(#pba6648bf4e)" style="fill: #3f599f"/>
    <path d="M 729.996371 338.016327 
L 755.009475 345.552564 
L 770.619587 332.542823 
L 745.7318 325.124438 
z
" clip-path="url(#pba6648bf4e)" style="fill: #577ddf"/>
    <path d="M 755.009475 345.552564 
L 770.619587 332.542823 
L 770.619587 332.542823 
L 755.009475 345.552564 
z
" clip-path="url(#pba6648bf4e)" style="fill: #324880"/>
    <path d="M 729.996371 338.016327 
L 755.009475 345.552564 
L 755.009475 345.552564 
L 729.996371 338.016327 
z
" clip-path="url(#pba6648bf4e)" style="fill: #648fff"/>
    <path d="M 795.734503 340.02891 
L 795.734503 340.02891 
L 821.079673 347.58363 
L 821.079673 347.58363 
z
" clip-path="url(#pba6648bf4e)" style="fill: #324880"/>
    <path d="M 780.25267 353.158126 
L 780.25267 353.158126 
L 795.734503 340.02891 
L 795.734503 340.02891 
z
" clip-path="url(#pba6648bf4e)" style="fill: #648fff"/>
    <path d="M 780.25267 353.158126 
L 795.734503 340.02891 
L 821.079673 347.58363 
L 805.729147 360.833974 
z
" clip-path="url(#pba6648bf4e)" style="fill: #3f599f"/>
    <path d="M 780.25267 353.158126 
L 805.729147 360.833974 
L 821.079673 347.58363 
L 795.734503 340.02891 
z
" clip-path="url(#pba6648bf4e)" style="fill: #577ddf"/>
    <path d="M 805.729147 360.833974 
L 821.079673 347.58363 
L 821.079673 347.58363 
L 805.729147 360.833974 
z
" clip-path="url(#pba6648bf4e)" style="fill: #324880"/>
    <path d="M 780.25267 353.158126 
L 805.729147 360.833974 
L 805.729147 360.833974 
L 780.25267 353.158126 
z
" clip-path="url(#pba6648bf4e)" style="fill: #648fff"/>
   </g>
   <g id="text_29">
    <!-- Imaginary Amplitude (ρ) -->
    <g transform="translate(735.696563 51.6) scale(0.21 -0.21)">
     <defs>
      <path id="DejaVuSans-49" d="M 628 4666 
L 1259 4666 
L 1259 0 
L 628 0 
L 628 4666 
z
" transform="scale(0.015625)"/>
      <path id="DejaVuSans-67" d="M 2906 1791 
Q 2906 2416 2648 2759 
Q 2391 3103 1925 3103 
Q 1463 3103 1205 2759 
Q 947 2416 947 1791 
Q 947 1169 1205 825 
Q 1463 481 1925 481 
Q 2391 481 2648 825 
Q 2906 1169 2906 1791 
z
M 3481 434 
Q 3481 -459 3084 -895 
Q 2688 -1331 1869 -1331 
Q 1566 -1331 1297 -1286 
Q 1028 -1241 775 -1147 
L 775 -588 
Q 1028 -725 1275 -790 
Q 1522 -856 1778 -856 
Q 2344 -856 2625 -561 
Q 2906 -266 2906 331 
L 2906 616 
Q 2728 306 2450 153 
Q 2172 0 1784 0 
Q 1141 0 747 490 
Q 353 981 353 1791 
Q 353 2603 747 3093 
Q 1141 3584 1784 3584 
Q 2172 3584 2450 3431 
Q 2728 3278 2906 2969 
L 2906 3500 
L 3481 3500 
L 3481 434 
z
" transform="scale(0.015625)"/>
      <path id="DejaVuSans-6e" d="M 3513 2113 
L 3513 0 
L 2938 0 
L 2938 2094 
Q 2938 2591 2744 2837 
Q 2550 3084 2163 3084 
Q 1697 3084 1428 2787 
Q 1159 2491 1159 1978 
L 1159 0 
L 581 0 
L 581 3500 
L 1159 3500 
L 1159 2956 
Q 1366 3272 1645 3428 
Q 1925 3584 2291 3584 
Q 2894 3584 3203 3211 
Q 3513 2838 3513 2113 
z
" transform="scale(0.015625)"/>
      <path id="DejaVuSans-72" d="M 2631 2963 
Q 2534 3019 2420 3045 
Q 2306 3072 2169 3072 
Q 1681 3072 1420 2755 
Q 1159 2438 1159 1844 
L 1159 0 
L 581 0 
L 581 3500 
L 1159 3500 
L 1159 2956 
Q 1341 3275 1631 3429 
Q 1922 3584 2338 3584 
Q 2397 3584 2469 3576 
Q 2541 3569 2628 3553 
L 2631 2963 
z
" transform="scale(0.015625)"/>
      <path id="DejaVuSans-79" d="M 2059 -325 
Q 1816 -950 1584 -1140 
Q 1353 -1331 966 -1331 
L 506 -1331 
L 506 -850 
L 844 -850 
Q 1081 -850 1212 -737 
Q 1344 -625 1503 -206 
L 1606 56 
L 191 3500 
L 800 3500 
L 1894 763 
L 2988 3500 
L 3597 3500 
L 2059 -325 
z
" transform="scale(0.015625)"/>
     </defs>
     <use xlink:href="#DejaVuSans-49"/>
     <use xlink:href="#DejaVuSans-6d" x="29.492188"/>
     <use xlink:href="#DejaVuSans-61" x="126.904297"/>
     <use xlink:href="#DejaVuSans-67" x="188.183594"/>
     <use xlink:href="#DejaVuSans-69" x="251.660156"/>
     <use xlink:href="#DejaVuSans-6e" x="279.443359"/>
     <use xlink:href="#DejaVuSans-61" x="342.822266"/>
     <use xlink:href="#DejaVuSans-72" x="404.101562"/>
     <use xlink:href="#DejaVuSans-79" x="445.214844"/>
     <use xlink:href="#DejaVuSans-20" x="504.394531"/>
     <use xlink:href="#DejaVuSans-41" x="536.181641"/>
     <use xlink:href="#DejaVuSans-6d" x="604.589844"/>
     <use xlink:href="#DejaVuSans-70" x="702.001953"/>
     <use xlink:href="#DejaVuSans-6c" x="765.478516"/>
     <use xlink:href="#DejaVuSans-69" x="793.261719"/>
     <use xlink:href="#DejaVuSans-74" x="821.044922"/>
     <use xlink:href="#DejaVuSans-75" x="860.253906"/>
     <use xlink:href="#DejaVuSans-64" x="923.632812"/>
     <use xlink:href="#DejaVuSans-65" x="987.109375"/>
     <use xlink:href="#DejaVuSans-20" x="1048.632812"/>
     <use xlink:href="#DejaVuSans-28" x="1080.419922"/>
     <use xlink:href="#DejaVuSans-3c1" x="1119.433594"/>
     <use xlink:href="#DejaVuSans-29" x="1182.910156"/>
    </g>
   </g>
  </g>
 </g>
 <defs>
  <clipPath id="p1eb5ec44ae">
   <rect x="28.8" y="57.6" width="518.4" height="518.4"/>
  </clipPath>
  <clipPath id="pba6648bf4e">
   <rect x="604.8" y="57.6" width="518.4" height="518.4"/>
  </clipPath>
 </defs>
</svg>
