<?xml version="1.0" encoding="utf-8" standalone="no"?>
<!DOCTYPE svg PUBLIC "-//W3C//DTD SVG 1.1//EN"
  "http://www.w3.org/Graphics/SVG/1.1/DTD/svg11.dtd">
<svg xmlns:xlink="http://www.w3.org/1999/xlink" width="1152pt" height="576pt" viewBox="0 0 1152 576" xmlns="http://www.w3.org/2000/svg" version="1.1">
 <metadata>
  <rdf:RDF xmlns:dc="http://purl.org/dc/elements/1.1/" xmlns:cc="http://creativecommons.org/ns#" xmlns:rdf="http://www.w3.org/1999/02/22-rdf-syntax-ns#">
   <cc:Work>
    <dc:type rdf:resource="http://purl.org/dc/dcmitype/StillImage"/>
    <dc:date>2024-11-02T18:35:38.987803</dc:date>
    <dc:format>image/svg+xml</dc:format>
    <dc:creator>
     <cc:Agent>
      <dc:title>Matplotlib v3.9.2, https://matplotlib.org/</dc:title>
     </cc:Agent>
    </dc:creator>
   </cc:Work>
  </rdf:RDF>
 </metadata>
 <defs>
  <style type="text/css">*{stroke-linejoin: round; stroke-linecap: butt}</style>
 </defs>
 <g id="figure_1">
  <g id="patch_1">
   <path d="M 0 576 
L 1152 576 
L 1152 0 
L 0 0 
z
" style="fill: #ffffff"/>
  </g>
  <g id="patch_2">
   <path d="M 28.8 576 
L 547.2 576 
L 547.2 57.6 
L 28.8 57.6 
z
" style="fill: #ffffff"/>
  </g>
  <g id="pane3d_1">
   <g id="patch_3">
    <path d="M 130.07018 436.456468 
L 253.494133 330.550231 
L 251.743197 126.70673 
L 122.643358 223.613571 
" style="fill: #f2f2f2; opacity: 0.5; stroke: #f2f2f2; stroke-linejoin: miter"/>
   </g>
  </g>
  <g id="pane3d_2">
   <g id="patch_4">
    <path d="M 253.494133 330.550231 
L 455.554898 390.069341 
L 462.583588 181.103065 
L 251.743197 126.70673 
" style="fill: #e6e6e6; opacity: 0.5; stroke: #e6e6e6; stroke-linejoin: miter"/>
   </g>
  </g>
  <g id="pane3d_3">
   <g id="patch_5">
    <path d="M 130.07018 436.456468 
L 340.912731 504.076731 
L 455.554898 390.069341 
L 253.494133 330.550231 
" style="fill: #ececec; opacity: 0.5; stroke: #ececec; stroke-linejoin: miter"/>
   </g>
  </g>
  <g id="grid3d_1">
   <g id="Line3DCollection_1">
    <path d="M 148.107564 442.241318 
L 270.817434 335.65299 
L 269.793879 131.363764 
" style="fill: none; stroke: #b0b0b0; stroke-width: 0.8"/>
    <path d="M 204.73198 460.40159 
L 325.154862 351.658648 
L 326.443642 145.979273 
" style="fill: none; stroke: #b0b0b0; stroke-width: 0.8"/>
    <path d="M 262.543747 478.942662 
L 380.560935 367.979086 
L 384.255639 160.894634 
" style="fill: none; stroke: #b0b0b0; stroke-width: 0.8"/>
    <path d="M 321.580608 497.876639 
L 437.067491 384.623682 
L 443.266006 176.119173 
" style="fill: none; stroke: #b0b0b0; stroke-width: 0.8"/>
   </g>
  </g>
  <g id="grid3d_2">
   <g id="Line3DCollection_2">
    <path d="M 134.777648 214.505149 
L 141.642324 426.526772 
L 351.684419 493.364686 
" style="fill: none; stroke: #b0b0b0; stroke-width: 0.8"/>
    <path d="M 171.455878 186.973191 
L 176.657452 396.481386 
L 384.248591 460.980823 
" style="fill: none; stroke: #b0b0b0; stroke-width: 0.8"/>
    <path d="M 206.831169 160.419264 
L 210.480196 367.459145 
L 415.662622 429.740732 
" style="fill: none; stroke: #b0b0b0; stroke-width: 0.8"/>
    <path d="M 240.971738 134.792162 
L 243.170446 339.408664 
L 445.986389 399.584868 
" style="fill: none; stroke: #b0b0b0; stroke-width: 0.8"/>
   </g>
  </g>
  <g id="grid3d_3">
   <g id="Line3DCollection_3">
    <path d="M 456.526662 361.17834 
L 253.251734 302.330229 
L 129.04443 407.059829 
" style="fill: none; stroke: #b0b0b0; stroke-width: 0.8"/>
    <path d="M 457.767365 324.291649 
L 252.9424 266.317634 
L 127.734307 369.513429 
" style="fill: none; stroke: #b0b0b0; stroke-width: 0.8"/>
    <path d="M 459.027276 286.833891 
L 252.628448 229.767454 
L 126.403334 331.369518 
" style="fill: none; stroke: #b0b0b0; stroke-width: 0.8"/>
    <path d="M 460.306845 248.791702 
L 252.309775 192.667561 
L 125.051011 292.613717 
" style="fill: none; stroke: #b0b0b0; stroke-width: 0.8"/>
    <path d="M 461.606535 210.151295 
L 251.986272 155.00546 
L 123.676819 253.231184 
" style="fill: none; stroke: #b0b0b0; stroke-width: 0.8"/>
   </g>
  </g>
  <g id="axis3d_1">
   <g id="line2d_1">
    <path d="M 130.07018 436.456468 
L 340.912731 504.076731 
" style="fill: none; stroke: #000000; stroke-width: 0.8; stroke-linecap: square"/>
   </g>
   <g id="xtick_1">
    <g id="line2d_2">
     <path d="M 149.15236 441.333787 
L 146.014717 444.059209 
" style="fill: none; stroke: #000000; stroke-width: 0.8; stroke-linecap: square"/>
    </g>
    <g id="text_1">
     <!-- 00 -->
     <g transform="translate(120.823877 485.959845) rotate(-45) scale(0.21 -0.21)">
      <defs>
       <path id="DejaVuSans-30" d="M 2034 4250 
Q 1547 4250 1301 3770 
Q 1056 3291 1056 2328 
Q 1056 1369 1301 889 
Q 1547 409 2034 409 
Q 2525 409 2770 889 
Q 3016 1369 3016 2328 
Q 3016 3291 2770 3770 
Q 2525 4250 2034 4250 
z
M 2034 4750 
Q 2819 4750 3233 4129 
Q 3647 3509 3647 2328 
Q 3647 1150 3233 529 
Q 2819 -91 2034 -91 
Q 1250 -91 836 529 
Q 422 1150 422 2328 
Q 422 3509 836 4129 
Q 1250 4750 2034 4750 
z
" transform="scale(0.015625)"/>
      </defs>
      <use xlink:href="#DejaVuSans-30"/>
      <use xlink:href="#DejaVuSans-30" x="63.623047"/>
     </g>
    </g>
   </g>
   <g id="xtick_2">
    <g id="line2d_3">
     <path d="M 205.757946 459.475133 
L 202.676818 462.257419 
" style="fill: none; stroke: #000000; stroke-width: 0.8; stroke-linecap: square"/>
    </g>
    <g id="text_2">
     <!-- 01 -->
     <g transform="translate(177.445975 504.27764) rotate(-45) scale(0.21 -0.21)">
      <defs>
       <path id="DejaVuSans-31" d="M 794 531 
L 1825 531 
L 1825 4091 
L 703 3866 
L 703 4441 
L 1819 4666 
L 2450 4666 
L 2450 531 
L 3481 531 
L 3481 0 
L 794 0 
L 794 531 
z
" transform="scale(0.015625)"/>
      </defs>
      <use xlink:href="#DejaVuSans-30"/>
      <use xlink:href="#DejaVuSans-31" x="63.623047"/>
     </g>
    </g>
   </g>
   <g id="xtick_3">
    <g id="line2d_4">
     <path d="M 263.54986 477.996682 
L 260.528321 480.837631 
" style="fill: none; stroke: #000000; stroke-width: 0.8; stroke-linecap: square"/>
    </g>
    <g id="text_3">
     <!-- 10 -->
     <g transform="translate(235.256492 522.9799) rotate(-45) scale(0.21 -0.21)">
      <use xlink:href="#DejaVuSans-31"/>
      <use xlink:href="#DejaVuSans-30" x="63.623047"/>
     </g>
    </g>
   </g>
   <g id="xtick_4">
    <g id="line2d_5">
     <path d="M 322.565792 496.910512 
L 319.607072 499.811999 
" style="fill: none; stroke: #000000; stroke-width: 0.8; stroke-linecap: square"/>
    </g>
    <g id="text_4">
     <!-- 11 -->
     <g transform="translate(294.293241 542.078858) rotate(-45) scale(0.21 -0.21)">
      <use xlink:href="#DejaVuSans-31"/>
      <use xlink:href="#DejaVuSans-31" x="63.623047"/>
     </g>
    </g>
   </g>
  </g>
  <g id="axis3d_2">
   <g id="line2d_6">
    <path d="M 455.554898 390.069341 
L 340.912731 504.076731 
" style="fill: none; stroke: #000000; stroke-width: 0.8; stroke-linecap: square"/>
   </g>
   <g id="xtick_5">
    <g id="line2d_7">
     <path d="M 349.939872 492.809551 
L 355.176743 494.475986 
" style="fill: none; stroke: #000000; stroke-width: 0.8; stroke-linecap: square"/>
    </g>
    <g id="text_5">
     <!-- 00 -->
     <g transform="translate(362.536948 505.408703) rotate(-337.5) scale(0.21 -0.21)">
      <use xlink:href="#DejaVuSans-30"/>
      <use xlink:href="#DejaVuSans-30" x="63.623047"/>
     </g>
    </g>
   </g>
   <g id="xtick_6">
    <g id="line2d_8">
     <path d="M 382.525541 460.445465 
L 387.697822 462.052514 
" style="fill: none; stroke: #000000; stroke-width: 0.8; stroke-linecap: square"/>
    </g>
    <g id="text_6">
     <!-- 01 -->
     <g transform="translate(394.927992 472.820772) rotate(-337.5) scale(0.21 -0.21)">
      <use xlink:href="#DejaVuSans-30"/>
      <use xlink:href="#DejaVuSans-31" x="63.623047"/>
     </g>
    </g>
   </g>
   <g id="xtick_7">
    <g id="line2d_9">
     <path d="M 413.960652 429.224112 
L 419.0696 430.774895 
" style="fill: none; stroke: #000000; stroke-width: 0.8; stroke-linecap: square"/>
    </g>
    <g id="text_7">
     <!-- 10 -->
     <g transform="translate(426.175291 441.383538) rotate(-337.5) scale(0.21 -0.21)">
      <use xlink:href="#DejaVuSans-31"/>
      <use xlink:href="#DejaVuSans-30" x="63.623047"/>
     </g>
    </g>
   </g>
   <g id="xtick_8">
    <g id="line2d_10">
     <path d="M 444.305087 399.08602 
L 449.351944 400.58344 
" style="fill: none; stroke: #000000; stroke-width: 0.8; stroke-linecap: square"/>
    </g>
    <g id="text_8">
     <!-- 11 -->
     <g transform="translate(456.338373 411.037112) rotate(-337.5) scale(0.21 -0.21)">
      <use xlink:href="#DejaVuSans-31"/>
      <use xlink:href="#DejaVuSans-31" x="63.623047"/>
     </g>
    </g>
   </g>
  </g>
  <g id="axis3d_3">
   <g id="line2d_11">
    <path d="M 455.554898 390.069341 
L 462.583588 181.103065 
" style="fill: none; stroke: #000000; stroke-width: 0.8; stroke-linecap: square"/>
   </g>
   <g id="xtick_9">
    <g id="line2d_12">
     <path d="M 454.841528 360.690493 
L 459.899887 362.154889 
" style="fill: none; stroke: #000000; stroke-width: 0.8; stroke-linecap: square"/>
    </g>
    <g id="text_9">
     <!-- 0.18 -->
     <g transform="translate(470.086389 354.911227) scale(0.21 -0.21)">
      <defs>
       <path id="DejaVuSans-2e" d="M 684 794 
L 1344 794 
L 1344 0 
L 684 0 
L 684 794 
z
" transform="scale(0.015625)"/>
       <path id="DejaVuSans-38" d="M 2034 2216 
Q 1584 2216 1326 1975 
Q 1069 1734 1069 1313 
Q 1069 891 1326 650 
Q 1584 409 2034 409 
Q 2484 409 2743 651 
Q 3003 894 3003 1313 
Q 3003 1734 2745 1975 
Q 2488 2216 2034 2216 
z
M 1403 2484 
Q 997 2584 770 2862 
Q 544 3141 544 3541 
Q 544 4100 942 4425 
Q 1341 4750 2034 4750 
Q 2731 4750 3128 4425 
Q 3525 4100 3525 3541 
Q 3525 3141 3298 2862 
Q 3072 2584 2669 2484 
Q 3125 2378 3379 2068 
Q 3634 1759 3634 1313 
Q 3634 634 3220 271 
Q 2806 -91 2034 -91 
Q 1263 -91 848 271 
Q 434 634 434 1313 
Q 434 1759 690 2068 
Q 947 2378 1403 2484 
z
M 1172 3481 
Q 1172 3119 1398 2916 
Q 1625 2713 2034 2713 
Q 2441 2713 2670 2916 
Q 2900 3119 2900 3481 
Q 2900 3844 2670 4047 
Q 2441 4250 2034 4250 
Q 1625 4250 1398 4047 
Q 1172 3844 1172 3481 
z
" transform="scale(0.015625)"/>
      </defs>
      <use xlink:href="#DejaVuSans-30"/>
      <use xlink:href="#DejaVuSans-2e" x="63.623047"/>
      <use xlink:href="#DejaVuSans-31" x="95.410156"/>
      <use xlink:href="#DejaVuSans-38" x="159.033203"/>
     </g>
    </g>
   </g>
   <g id="xtick_10">
    <g id="line2d_13">
     <path d="M 456.068926 323.810919 
L 461.167247 325.253957 
" style="fill: none; stroke: #000000; stroke-width: 0.8; stroke-linecap: square"/>
    </g>
    <g id="text_10">
     <!-- 0.20 -->
     <g transform="translate(471.429707 318.052264) scale(0.21 -0.21)">
      <defs>
       <path id="DejaVuSans-32" d="M 1228 531 
L 3431 531 
L 3431 0 
L 469 0 
L 469 531 
Q 828 903 1448 1529 
Q 2069 2156 2228 2338 
Q 2531 2678 2651 2914 
Q 2772 3150 2772 3378 
Q 2772 3750 2511 3984 
Q 2250 4219 1831 4219 
Q 1534 4219 1204 4116 
Q 875 4013 500 3803 
L 500 4441 
Q 881 4594 1212 4672 
Q 1544 4750 1819 4750 
Q 2544 4750 2975 4387 
Q 3406 4025 3406 3419 
Q 3406 3131 3298 2873 
Q 3191 2616 2906 2266 
Q 2828 2175 2409 1742 
Q 1991 1309 1228 531 
z
" transform="scale(0.015625)"/>
      </defs>
      <use xlink:href="#DejaVuSans-30"/>
      <use xlink:href="#DejaVuSans-2e" x="63.623047"/>
      <use xlink:href="#DejaVuSans-32" x="95.410156"/>
      <use xlink:href="#DejaVuSans-30" x="159.033203"/>
     </g>
    </g>
   </g>
   <g id="xtick_11">
    <g id="line2d_14">
     <path d="M 457.31532 286.360558 
L 462.454241 287.781399 
" style="fill: none; stroke: #000000; stroke-width: 0.8; stroke-linecap: square"/>
    </g>
    <g id="text_11">
     <!-- 0.22 -->
     <g transform="translate(472.793798 280.623322) scale(0.21 -0.21)">
      <use xlink:href="#DejaVuSans-30"/>
      <use xlink:href="#DejaVuSans-2e" x="63.623047"/>
      <use xlink:href="#DejaVuSans-32" x="95.410156"/>
      <use xlink:href="#DejaVuSans-32" x="159.033203"/>
     </g>
    </g>
   </g>
   <g id="xtick_12">
    <g id="line2d_15">
     <path d="M 458.581154 248.326056 
L 463.761326 249.723829 
" style="fill: none; stroke: #000000; stroke-width: 0.8; stroke-linecap: square"/>
    </g>
    <g id="text_12">
     <!-- 0.24 -->
     <g transform="translate(474.179147 242.611079) scale(0.21 -0.21)">
      <defs>
       <path id="DejaVuSans-34" d="M 2419 4116 
L 825 1625 
L 2419 1625 
L 2419 4116 
z
M 2253 4666 
L 3047 4666 
L 3047 1625 
L 3713 1625 
L 3713 1100 
L 3047 1100 
L 3047 0 
L 2419 0 
L 2419 1100 
L 313 1100 
L 313 1709 
L 2253 4666 
z
" transform="scale(0.015625)"/>
      </defs>
      <use xlink:href="#DejaVuSans-30"/>
      <use xlink:href="#DejaVuSans-2e" x="63.623047"/>
      <use xlink:href="#DejaVuSans-32" x="95.410156"/>
      <use xlink:href="#DejaVuSans-34" x="159.033203"/>
     </g>
    </g>
   </g>
   <g id="xtick_13">
    <g id="line2d_16">
     <path d="M 459.866889 209.693638 
L 465.088978 211.067439 
" style="fill: none; stroke: #000000; stroke-width: 0.8; stroke-linecap: square"/>
    </g>
    <g id="text_13">
     <!-- 0.26 -->
     <g transform="translate(475.586255 204.001792) scale(0.21 -0.21)">
      <defs>
       <path id="DejaVuSans-36" d="M 2113 2584 
Q 1688 2584 1439 2293 
Q 1191 2003 1191 1497 
Q 1191 994 1439 701 
Q 1688 409 2113 409 
Q 2538 409 2786 701 
Q 3034 994 3034 1497 
Q 3034 2003 2786 2293 
Q 2538 2584 2113 2584 
z
M 3366 4563 
L 3366 3988 
Q 3128 4100 2886 4159 
Q 2644 4219 2406 4219 
Q 1781 4219 1451 3797 
Q 1122 3375 1075 2522 
Q 1259 2794 1537 2939 
Q 1816 3084 2150 3084 
Q 2853 3084 3261 2657 
Q 3669 2231 3669 1497 
Q 3669 778 3244 343 
Q 2819 -91 2113 -91 
Q 1303 -91 875 529 
Q 447 1150 447 2328 
Q 447 3434 972 4092 
Q 1497 4750 2381 4750 
Q 2619 4750 2861 4703 
Q 3103 4656 3366 4563 
z
" transform="scale(0.015625)"/>
      </defs>
      <use xlink:href="#DejaVuSans-30"/>
      <use xlink:href="#DejaVuSans-2e" x="63.623047"/>
      <use xlink:href="#DejaVuSans-32" x="95.410156"/>
      <use xlink:href="#DejaVuSans-36" x="159.033203"/>
     </g>
    </g>
   </g>
  </g>
  <g id="axes_1">
   <g id="Poly3DCollection_1">
    <path d="M 242.22712 622.741613 
L 257.342131 607.548782 
L 282.747088 616.291062 
L 267.764964 631.623438 
z
" clip-path="url(#p071e85a369)" style="fill: #3f599f"/>
    <path d="M 293.538848 640.587355 
L 308.384993 625.113504 
L 334.259064 634.017214 
L 319.552061 649.634509 
z
" clip-path="url(#p071e85a369)" style="fill: #3f599f"/>
    <path d="M 211.266224 653.861911 
L 226.870432 638.177365 
L 252.542177 647.202103 
L 237.072882 663.033038 
z
" clip-path="url(#p071e85a369)" style="fill: #3f599f"/>
    <path d="M 345.807952 658.766064 
L 360.37258 643.003322 
L 386.72888 652.072975 
L 372.309932 667.983206 
z
" clip-path="url(#p071e85a369)" style="fill: #3f599f"/>
    <path d="M 263.121945 672.290311 
L 278.453115 656.310926 
L 304.606604 665.505018 
L 289.416845 681.634949 
z
" clip-path="url(#p071e85a369)" style="fill: #3f599f"/>
    <path d="M 257.342131 607.548782 
L 255.078115 333.694447 
L 282.00665 341.639487 
L 282.747088 616.291062 
z
" clip-path="url(#p071e85a369)" style="fill: #324880"/>
    <path d="M 242.22712 622.741613 
L 239.027822 347.504584 
L 255.078115 333.694447 
L 257.342131 607.548782 
z
" clip-path="url(#p071e85a369)" style="fill: #648fff"/>
    <path d="M 399.061477 677.287145 
L 413.331367 661.227346 
L 440.183504 670.467625 
L 426.066129 686.679112 
z
" clip-path="url(#p071e85a369)" style="fill: #3f599f"/>
    <path d="M 267.764964 631.623438 
L 282.747088 616.291062 
L 282.00665 341.639487 
L 266.105652 355.584181 
z
" clip-path="url(#p071e85a369)" style="fill: #324880"/>
    <path d="M 179.290922 686.001839 
L 195.408465 669.801315 
L 221.351042 679.122423 
L 205.370422 695.476637 
z
" clip-path="url(#p071e85a369)" style="fill: #3f599f"/>
    <path d="M 242.22712 622.741613 
L 267.764964 631.623438 
L 266.105652 355.584181 
L 239.027822 347.504584 
z
" clip-path="url(#p071e85a369)" style="fill: #648fff"/>
    <path d="M 315.96108 691.068195 
L 331.006067 674.78558 
L 357.654989 684.153837 
L 342.758212 700.591316 
z
" clip-path="url(#p071e85a369)" style="fill: #3f599f"/>
    <path d="M 308.384993 625.113504 
L 309.197089 349.661799 
L 336.653273 357.762517 
L 334.259064 634.017214 
z
" clip-path="url(#p071e85a369)" style="fill: #324880"/>
    <path d="M 293.538848 640.587355 
L 293.449077 363.743028 
L 309.197089 349.661799 
L 308.384993 625.113504 
z
" clip-path="url(#p071e85a369)" style="fill: #648fff"/>
    <path d="M 319.552061 649.634509 
L 334.259064 634.017214 
L 336.653273 357.762517 
L 321.062023 371.982295 
z
" clip-path="url(#p071e85a369)" style="fill: #324880"/>
    <path d="M 231.698941 705.041905 
L 247.5393 688.531803 
L 273.976746 698.030716 
L 258.280065 714.698945 
z
" clip-path="url(#p071e85a369)" style="fill: #3f599f"/>
    <path d="M 226.870432 638.177365 
L 222.70521 361.549033 
L 249.933541 369.766635 
L 252.542177 647.202103 
z
" clip-path="url(#p071e85a369)" style="fill: #324880"/>
    <path d="M 293.538848 640.587355 
L 319.552061 649.634509 
L 321.062023 371.982295 
L 293.449077 363.743028 
z
" clip-path="url(#p071e85a369)" style="fill: #648fff"/>
    <path d="M 211.266224 653.861911 
L 206.103289 375.833807 
L 222.70521 361.549033 
L 226.870432 638.177365 
z
" clip-path="url(#p071e85a369)" style="fill: #648fff"/>
    <path d="M 369.811873 710.205601 
L 384.556924 693.61104 
L 411.715492 703.158461 
L 397.125765 719.912366 
z
" clip-path="url(#p071e85a369)" style="fill: #3f599f"/>
    <path d="M 237.072882 663.033038 
L 252.542177 647.202103 
L 249.933541 369.766635 
L 233.483323 384.192981 
z
" clip-path="url(#p071e85a369)" style="fill: #324880"/>
    <path d="M 146.250528 719.212342 
L 162.90716 702.469953 
L 189.124579 712.102274 
L 172.606856 729.006147 
z
" clip-path="url(#p071e85a369)" style="fill: #3f599f"/>
    <path d="M 211.266224 653.861911 
L 237.072882 663.033038 
L 233.483323 384.192981 
L 206.103289 375.833807 
z
" clip-path="url(#p071e85a369)" style="fill: #648fff"/>
    <path d="M 285.117446 724.449085 
L 300.666953 707.620446 
L 327.613564 717.302301 
L 312.214807 734.293677 
z
" clip-path="url(#p071e85a369)" style="fill: #3f599f"/>
    <path d="M 278.453115 656.310926 
L 277.431231 378.065531 
L 305.202296 386.446932 
L 304.606604 665.505018 
z
" clip-path="url(#p071e85a369)" style="fill: #324880"/>
    <path d="M 263.121945 672.290311 
L 261.136557 392.635562 
L 277.431231 378.065531 
L 278.453115 656.310926 
z
" clip-path="url(#p071e85a369)" style="fill: #648fff"/>
    <path d="M 289.416845 681.634949 
L 304.606604 665.505018 
L 305.202296 386.446932 
L 289.0671 401.162807 
z
" clip-path="url(#p071e85a369)" style="fill: #324880"/>
    <path d="M 199.219081 738.895041 
L 215.594423 721.827336 
L 242.320355 731.646485 
L 226.090946 748.880415 
z
" clip-path="url(#p071e85a369)" style="fill: #3f599f"/>
    <path d="M 239.027822 347.504584 
L 266.105652 355.584181 
L 282.00665 341.639487 
L 255.078115 333.694447 
z
" clip-path="url(#p071e85a369)" style="fill: #577ddf"/>
    <path d="M 263.121945 672.290311 
L 289.416845 681.634949 
L 289.0671 401.162807 
L 261.136557 392.635562 
z
" clip-path="url(#p071e85a369)" style="fill: #648fff"/>
    <path d="M 339.575945 744.234099 
L 354.820292 727.077615 
L 382.29092 736.947748 
L 367.20473 754.27176 
z
" clip-path="url(#p071e85a369)" style="fill: #3f599f"/>
    <path d="M 360.37258 643.003322 
L 367.371214 159.032972 
L 396.599956 166.586764 
L 386.72888 652.072975 
z
" clip-path="url(#p071e85a369)" style="fill: #324880"/>
    <path d="M 253.22627 758.963689 
L 269.306108 741.561093 
L 296.555491 751.572559 
L 280.628947 769.146309 
z
" clip-path="url(#p071e85a369)" style="fill: #3f599f"/>
    <path d="M 293.449077 363.743028 
L 321.062023 371.982295 
L 336.653273 357.762517 
L 309.197089 349.661799 
z
" clip-path="url(#p071e85a369)" style="fill: #577ddf"/>
    <path d="M 345.807952 658.766064 
L 351.295894 172.166026 
L 367.371214 159.032972 
L 360.37258 643.003322 
z
" clip-path="url(#p071e85a369)" style="fill: #648fff"/>
    <path d="M 195.408465 669.801315 
L 186.709671 277.340865 
L 214.885093 285.4683 
L 221.351042 679.122423 
z
" clip-path="url(#p071e85a369)" style="fill: #324880"/>
    <path d="M 179.290922 686.001839 
L 169.094345 291.471025 
L 186.709671 277.340865 
L 195.408465 669.801315 
z
" clip-path="url(#p071e85a369)" style="fill: #648fff"/>
    <path d="M 372.309932 667.983206 
L 386.72888 652.072975 
L 396.599956 166.586764 
L 380.704133 179.856019 
z
" clip-path="url(#p071e85a369)" style="fill: #324880"/>
    <path d="M 345.807952 658.766064 
L 372.309932 667.983206 
L 380.704133 179.856019 
L 351.295894 172.166026 
z
" clip-path="url(#p071e85a369)" style="fill: #648fff"/>
    <path d="M 206.103289 375.833807 
L 233.483323 384.192981 
L 249.933541 369.766635 
L 222.70521 361.549033 
z
" clip-path="url(#p071e85a369)" style="fill: #577ddf"/>
    <path d="M 413.331367 661.227346 
L 426.131247 174.218746 
L 455.969811 181.930139 
L 440.183504 670.467625 
z
" clip-path="url(#p071e85a369)" style="fill: #324880"/>
    <path d="M 205.370422 695.476637 
L 221.351042 679.122423 
L 214.885093 285.4683 
L 197.431074 299.744361 
z
" clip-path="url(#p071e85a369)" style="fill: #324880"/>
    <path d="M 308.302947 779.42975 
L 324.072386 761.68231 
L 351.860752 771.891799 
L 336.25232 789.815518 
z
" clip-path="url(#p071e85a369)" style="fill: #3f599f"/>
    <path d="M 399.061477 677.287145 
L 410.419533 187.626332 
L 426.131247 174.218746 
L 413.331367 661.227346 
z
" clip-path="url(#p071e85a369)" style="fill: #648fff"/>
    <path d="M 300.666953 707.620446 
L 301.026187 424.901676 
L 329.693176 433.7564 
L 327.613564 717.302301 
z
" clip-path="url(#p071e85a369)" style="fill: #324880"/>
    <path d="M 179.290922 686.001839 
L 205.370422 695.476637 
L 197.431074 299.744361 
L 169.094345 291.471025 
z
" clip-path="url(#p071e85a369)" style="fill: #648fff"/>
    <path d="M 285.117446 724.449085 
L 284.484466 440.296092 
L 301.026187 424.901676 
L 300.666953 707.620446 
z
" clip-path="url(#p071e85a369)" style="fill: #648fff"/>
    <path d="M 247.5393 688.531803 
L 243.350887 293.679496 
L 272.111564 301.975754 
L 273.976746 698.030716 
z
" clip-path="url(#p071e85a369)" style="fill: #324880"/>
    <path d="M 231.698941 705.041905 
L 226.062468 308.103729 
L 243.350887 293.679496 
L 247.5393 688.531803 
z
" clip-path="url(#p071e85a369)" style="fill: #648fff"/>
    <path d="M 426.066129 686.679112 
L 440.183504 670.467625 
L 455.969811 181.930139 
L 440.446932 195.478231 
z
" clip-path="url(#p071e85a369)" style="fill: #324880"/>
    <path d="M 331.006067 674.78558 
L 334.930164 185.536334 
L 364.519638 193.366247 
L 357.654989 684.153837 
z
" clip-path="url(#p071e85a369)" style="fill: #324880"/>
    <path d="M 399.061477 677.287145 
L 426.066129 686.679112 
L 440.446932 195.478231 
L 410.419533 187.626332 
z
" clip-path="url(#p071e85a369)" style="fill: #648fff"/>
    <path d="M 312.214807 734.293677 
L 327.613564 717.302301 
L 329.693176 433.7564 
L 313.322151 449.309245 
z
" clip-path="url(#p071e85a369)" style="fill: #324880"/>
    <path d="M 261.136557 392.635562 
L 289.0671 401.162807 
L 305.202296 386.446932 
L 277.431231 378.065531 
z
" clip-path="url(#p071e85a369)" style="fill: #577ddf"/>
    <path d="M 315.96108 691.068195 
L 318.266084 199.150387 
L 334.930164 185.536334 
L 331.006067 674.78558 
z
" clip-path="url(#p071e85a369)" style="fill: #648fff"/>
    <path d="M 285.117446 724.449085 
L 312.214807 734.293677 
L 313.322151 449.309245 
L 284.484466 440.296092 
z
" clip-path="url(#p071e85a369)" style="fill: #648fff"/>
    <path d="M 258.280065 714.698945 
L 273.976746 698.030716 
L 272.111564 301.975754 
L 254.993145 316.550477 
z
" clip-path="url(#p071e85a369)" style="fill: #324880"/>
    <path d="M 162.90716 702.469953 
L 151.162191 305.85533 
L 179.66149 314.27853 
L 189.124579 712.102274 
z
" clip-path="url(#p071e85a369)" style="fill: #324880"/>
    <path d="M 354.820292 727.077615 
L 358.654626 442.702079 
L 387.915099 451.740121 
L 382.29092 736.947748 
z
" clip-path="url(#p071e85a369)" style="fill: #324880"/>
    <path d="M 231.698941 705.041905 
L 258.280065 714.698945 
L 254.993145 316.550477 
L 226.062468 308.103729 
z
" clip-path="url(#p071e85a369)" style="fill: #648fff"/>
    <path d="M 146.250528 719.212342 
L 132.904584 320.500697 
L 151.162191 305.85533 
L 162.90716 702.469953 
z
" clip-path="url(#p071e85a369)" style="fill: #648fff"/>
    <path d="M 339.575945 744.234099 
L 342.45871 458.415811 
L 358.654626 442.702079 
L 354.820292 727.077615 
z
" clip-path="url(#p071e85a369)" style="fill: #648fff"/>
    <path d="M 342.758212 700.591316 
L 357.654989 684.153837 
L 364.519638 193.366247 
L 348.038535 207.124071 
z
" clip-path="url(#p071e85a369)" style="fill: #324880"/>
    <path d="M 315.96108 691.068195 
L 342.758212 700.591316 
L 348.038535 207.124071 
L 318.266084 199.150387 
z
" clip-path="url(#p071e85a369)" style="fill: #648fff"/>
    <path d="M 384.556924 693.61104 
L 394.420987 201.278687 
L 424.639168 209.274966 
L 411.715492 703.158461 
z
" clip-path="url(#p071e85a369)" style="fill: #324880"/>
    <path d="M 172.606856 729.006147 
L 189.124579 712.102274 
L 179.66149 314.27853 
L 161.567705 329.077872 
z
" clip-path="url(#p071e85a369)" style="fill: #324880"/>
    <path d="M 367.20473 754.27176 
L 382.29092 736.947748 
L 387.915099 451.740121 
L 371.898814 467.617249 
z
" clip-path="url(#p071e85a369)" style="fill: #324880"/>
    <path d="M 269.306108 741.561093 
L 267.646216 455.96647 
L 296.656131 465.142342 
L 296.555491 751.572559 
z
" clip-path="url(#p071e85a369)" style="fill: #324880"/>
    <path d="M 369.811873 710.205601 
L 378.127681 215.182574 
L 394.420987 201.278687 
L 384.556924 693.61104 
z
" clip-path="url(#p071e85a369)" style="fill: #648fff"/>
    <path d="M 146.250528 719.212342 
L 172.606856 729.006147 
L 161.567705 329.077872 
L 132.904584 320.500697 
z
" clip-path="url(#p071e85a369)" style="fill: #648fff"/>
    <path d="M 339.575945 744.234099 
L 367.20473 754.27176 
L 371.898814 467.617249 
L 342.45871 458.415811 
z
" clip-path="url(#p071e85a369)" style="fill: #648fff"/>
    <path d="M 253.22627 758.963689 
L 250.503391 471.920298 
L 267.646216 455.96647 
L 269.306108 741.561093 
z
" clip-path="url(#p071e85a369)" style="fill: #648fff"/>
    <path d="M 215.594423 721.827336 
L 208.459837 322.790117 
L 237.561963 331.391488 
L 242.320355 731.646485 
z
" clip-path="url(#p071e85a369)" style="fill: #324880"/>
    <path d="M 199.219081 738.895041 
L 190.534351 337.745873 
L 208.459837 322.790117 
L 215.594423 721.827336 
z
" clip-path="url(#p071e85a369)" style="fill: #648fff"/>
    <path d="M 397.125765 719.912366 
L 411.715492 703.158461 
L 424.639168 209.274966 
L 408.538601 223.327254 
z
" clip-path="url(#p071e85a369)" style="fill: #324880"/>
    <path d="M 369.811873 710.205601 
L 397.125765 719.912366 
L 408.538601 223.327254 
L 378.127681 215.182574 
z
" clip-path="url(#p071e85a369)" style="fill: #648fff"/>
    <path d="M 280.628947 769.146309 
L 296.555491 751.572559 
L 296.656131 465.142342 
L 279.68707 481.263335 
z
" clip-path="url(#p071e85a369)" style="fill: #324880"/>
    <path d="M 253.22627 758.963689 
L 280.628947 769.146309 
L 279.68707 481.263335 
L 250.503391 471.920298 
z
" clip-path="url(#p071e85a369)" style="fill: #648fff"/>
    <path d="M 226.090946 748.880415 
L 242.320355 731.646485 
L 237.561963 331.391488 
L 219.809369 346.506152 
z
" clip-path="url(#p071e85a369)" style="fill: #324880"/>
    <path d="M 324.072386 761.68231 
L 325.969428 474.414174 
L 355.590891 483.78348 
L 351.860752 771.891799 
z
" clip-path="url(#p071e85a369)" style="fill: #324880"/>
    <path d="M 199.219081 738.895041 
L 226.090946 748.880415 
L 219.809369 346.506152 
L 190.534351 337.745873 
z
" clip-path="url(#p071e85a369)" style="fill: #648fff"/>
    <path d="M 308.302947 779.42975 
L 309.178736 490.704974 
L 325.969428 474.414174 
L 324.072386 761.68231 
z
" clip-path="url(#p071e85a369)" style="fill: #648fff"/>
    <path d="M 336.25232 789.815518 
L 351.860752 771.891799 
L 355.590891 483.78348 
L 338.983293 500.246783 
z
" clip-path="url(#p071e85a369)" style="fill: #324880"/>
    <path d="M 284.484466 440.296092 
L 313.322151 449.309245 
L 329.693176 433.7564 
L 301.026187 424.901676 
z
" clip-path="url(#p071e85a369)" style="fill: #577ddf"/>
    <path d="M 308.302947 779.42975 
L 336.25232 789.815518 
L 338.983293 500.246783 
L 309.178736 490.704974 
z
" clip-path="url(#p071e85a369)" style="fill: #648fff"/>
    <path d="M 169.094345 291.471025 
L 197.431074 299.744361 
L 214.885093 285.4683 
L 186.709671 277.340865 
z
" clip-path="url(#p071e85a369)" style="fill: #577ddf"/>
    <path d="M 351.295894 172.166026 
L 380.704133 179.856019 
L 396.599956 166.586764 
L 367.371214 159.032972 
z
" clip-path="url(#p071e85a369)" style="fill: #577ddf"/>
    <path d="M 342.45871 458.415811 
L 371.898814 467.617249 
L 387.915099 451.740121 
L 358.654626 442.702079 
z
" clip-path="url(#p071e85a369)" style="fill: #577ddf"/>
    <path d="M 226.062468 308.103729 
L 254.993145 316.550477 
L 272.111564 301.975754 
L 243.350887 293.679496 
z
" clip-path="url(#p071e85a369)" style="fill: #577ddf"/>
    <path d="M 250.503391 471.920298 
L 279.68707 481.263335 
L 296.656131 465.142342 
L 267.646216 455.96647 
z
" clip-path="url(#p071e85a369)" style="fill: #577ddf"/>
    <path d="M 410.419533 187.626332 
L 440.446932 195.478231 
L 455.969811 181.930139 
L 426.131247 174.218746 
z
" clip-path="url(#p071e85a369)" style="fill: #577ddf"/>
    <path d="M 132.904584 320.500697 
L 161.567705 329.077872 
L 179.66149 314.27853 
L 151.162191 305.85533 
z
" clip-path="url(#p071e85a369)" style="fill: #577ddf"/>
    <path d="M 318.266084 199.150387 
L 348.038535 207.124071 
L 364.519638 193.366247 
L 334.930164 185.536334 
z
" clip-path="url(#p071e85a369)" style="fill: #577ddf"/>
    <path d="M 309.178736 490.704974 
L 338.983293 500.246783 
L 355.590891 483.78348 
L 325.969428 474.414174 
z
" clip-path="url(#p071e85a369)" style="fill: #577ddf"/>
    <path d="M 190.534351 337.745873 
L 219.809369 346.506152 
L 237.561963 331.391488 
L 208.459837 322.790117 
z
" clip-path="url(#p071e85a369)" style="fill: #577ddf"/>
    <path d="M 378.127681 215.182574 
L 408.538601 223.327254 
L 424.639168 209.274966 
L 394.420987 201.278687 
z
" clip-path="url(#p071e85a369)" style="fill: #577ddf"/>
   </g>
   <g id="text_14">
    <!-- Real Amplitude (ρ) -->
    <g transform="translate(190.023516 51.6) scale(0.21 -0.21)">
     <defs>
      <path id="DejaVuSans-52" d="M 2841 2188 
Q 3044 2119 3236 1894 
Q 3428 1669 3622 1275 
L 4263 0 
L 3584 0 
L 2988 1197 
Q 2756 1666 2539 1819 
Q 2322 1972 1947 1972 
L 1259 1972 
L 1259 0 
L 628 0 
L 628 4666 
L 2053 4666 
Q 2853 4666 3247 4331 
Q 3641 3997 3641 3322 
Q 3641 2881 3436 2590 
Q 3231 2300 2841 2188 
z
M 1259 4147 
L 1259 2491 
L 2053 2491 
Q 2509 2491 2742 2702 
Q 2975 2913 2975 3322 
Q 2975 3731 2742 3939 
Q 2509 4147 2053 4147 
L 1259 4147 
z
" transform="scale(0.015625)"/>
      <path id="DejaVuSans-65" d="M 3597 1894 
L 3597 1613 
L 953 1613 
Q 991 1019 1311 708 
Q 1631 397 2203 397 
Q 2534 397 2845 478 
Q 3156 559 3463 722 
L 3463 178 
Q 3153 47 2828 -22 
Q 2503 -91 2169 -91 
Q 1331 -91 842 396 
Q 353 884 353 1716 
Q 353 2575 817 3079 
Q 1281 3584 2069 3584 
Q 2775 3584 3186 3129 
Q 3597 2675 3597 1894 
z
M 3022 2063 
Q 3016 2534 2758 2815 
Q 2500 3097 2075 3097 
Q 1594 3097 1305 2825 
Q 1016 2553 972 2059 
L 3022 2063 
z
" transform="scale(0.015625)"/>
      <path id="DejaVuSans-61" d="M 2194 1759 
Q 1497 1759 1228 1600 
Q 959 1441 959 1056 
Q 959 750 1161 570 
Q 1363 391 1709 391 
Q 2188 391 2477 730 
Q 2766 1069 2766 1631 
L 2766 1759 
L 2194 1759 
z
M 3341 1997 
L 3341 0 
L 2766 0 
L 2766 531 
Q 2569 213 2275 61 
Q 1981 -91 1556 -91 
Q 1019 -91 701 211 
Q 384 513 384 1019 
Q 384 1609 779 1909 
Q 1175 2209 1959 2209 
L 2766 2209 
L 2766 2266 
Q 2766 2663 2505 2880 
Q 2244 3097 1772 3097 
Q 1472 3097 1187 3025 
Q 903 2953 641 2809 
L 641 3341 
Q 956 3463 1253 3523 
Q 1550 3584 1831 3584 
Q 2591 3584 2966 3190 
Q 3341 2797 3341 1997 
z
" transform="scale(0.015625)"/>
      <path id="DejaVuSans-6c" d="M 603 4863 
L 1178 4863 
L 1178 0 
L 603 0 
L 603 4863 
z
" transform="scale(0.015625)"/>
      <path id="DejaVuSans-20" transform="scale(0.015625)"/>
      <path id="DejaVuSans-41" d="M 2188 4044 
L 1331 1722 
L 3047 1722 
L 2188 4044 
z
M 1831 4666 
L 2547 4666 
L 4325 0 
L 3669 0 
L 3244 1197 
L 1141 1197 
L 716 0 
L 50 0 
L 1831 4666 
z
" transform="scale(0.015625)"/>
      <path id="DejaVuSans-6d" d="M 3328 2828 
Q 3544 3216 3844 3400 
Q 4144 3584 4550 3584 
Q 5097 3584 5394 3201 
Q 5691 2819 5691 2113 
L 5691 0 
L 5113 0 
L 5113 2094 
Q 5113 2597 4934 2840 
Q 4756 3084 4391 3084 
Q 3944 3084 3684 2787 
Q 3425 2491 3425 1978 
L 3425 0 
L 2847 0 
L 2847 2094 
Q 2847 2600 2669 2842 
Q 2491 3084 2119 3084 
Q 1678 3084 1418 2786 
Q 1159 2488 1159 1978 
L 1159 0 
L 581 0 
L 581 3500 
L 1159 3500 
L 1159 2956 
Q 1356 3278 1631 3431 
Q 1906 3584 2284 3584 
Q 2666 3584 2933 3390 
Q 3200 3197 3328 2828 
z
" transform="scale(0.015625)"/>
      <path id="DejaVuSans-70" d="M 1159 525 
L 1159 -1331 
L 581 -1331 
L 581 3500 
L 1159 3500 
L 1159 2969 
Q 1341 3281 1617 3432 
Q 1894 3584 2278 3584 
Q 2916 3584 3314 3078 
Q 3713 2572 3713 1747 
Q 3713 922 3314 415 
Q 2916 -91 2278 -91 
Q 1894 -91 1617 61 
Q 1341 213 1159 525 
z
M 3116 1747 
Q 3116 2381 2855 2742 
Q 2594 3103 2138 3103 
Q 1681 3103 1420 2742 
Q 1159 2381 1159 1747 
Q 1159 1113 1420 752 
Q 1681 391 2138 391 
Q 2594 391 2855 752 
Q 3116 1113 3116 1747 
z
" transform="scale(0.015625)"/>
      <path id="DejaVuSans-69" d="M 603 3500 
L 1178 3500 
L 1178 0 
L 603 0 
L 603 3500 
z
M 603 4863 
L 1178 4863 
L 1178 4134 
L 603 4134 
L 603 4863 
z
" transform="scale(0.015625)"/>
      <path id="DejaVuSans-74" d="M 1172 4494 
L 1172 3500 
L 2356 3500 
L 2356 3053 
L 1172 3053 
L 1172 1153 
Q 1172 725 1289 603 
Q 1406 481 1766 481 
L 2356 481 
L 2356 0 
L 1766 0 
Q 1100 0 847 248 
Q 594 497 594 1153 
L 594 3053 
L 172 3053 
L 172 3500 
L 594 3500 
L 594 4494 
L 1172 4494 
z
" transform="scale(0.015625)"/>
      <path id="DejaVuSans-75" d="M 544 1381 
L 544 3500 
L 1119 3500 
L 1119 1403 
Q 1119 906 1312 657 
Q 1506 409 1894 409 
Q 2359 409 2629 706 
Q 2900 1003 2900 1516 
L 2900 3500 
L 3475 3500 
L 3475 0 
L 2900 0 
L 2900 538 
Q 2691 219 2414 64 
Q 2138 -91 1772 -91 
Q 1169 -91 856 284 
Q 544 659 544 1381 
z
M 1991 3584 
L 1991 3584 
z
" transform="scale(0.015625)"/>
      <path id="DejaVuSans-64" d="M 2906 2969 
L 2906 4863 
L 3481 4863 
L 3481 0 
L 2906 0 
L 2906 525 
Q 2725 213 2448 61 
Q 2172 -91 1784 -91 
Q 1150 -91 751 415 
Q 353 922 353 1747 
Q 353 2572 751 3078 
Q 1150 3584 1784 3584 
Q 2172 3584 2448 3432 
Q 2725 3281 2906 2969 
z
M 947 1747 
Q 947 1113 1208 752 
Q 1469 391 1925 391 
Q 2381 391 2643 752 
Q 2906 1113 2906 1747 
Q 2906 2381 2643 2742 
Q 2381 3103 1925 3103 
Q 1469 3103 1208 2742 
Q 947 2381 947 1747 
z
" transform="scale(0.015625)"/>
      <path id="DejaVuSans-28" d="M 1984 4856 
Q 1566 4138 1362 3434 
Q 1159 2731 1159 2009 
Q 1159 1288 1364 580 
Q 1569 -128 1984 -844 
L 1484 -844 
Q 1016 -109 783 600 
Q 550 1309 550 2009 
Q 550 2706 781 3412 
Q 1013 4119 1484 4856 
L 1984 4856 
z
" transform="scale(0.015625)"/>
      <path id="DejaVuSans-3c1" d="M 863 2875 
Q 1053 3194 1525 3475 
Q 1709 3584 2278 3584 
Q 2916 3584 3314 3078 
Q 3713 2572 3713 1747 
Q 3713 922 3314 415 
Q 2916 -91 2278 -91 
Q 1894 -91 1617 61 
Q 1341 213 1159 525 
L 1159 -1331 
L 581 -1331 
L 581 1716 
Q 581 2438 863 2875 
z
M 3116 1747 
Q 3116 2381 2855 2742 
Q 2594 3103 2138 3103 
Q 1681 3103 1420 2742 
Q 1159 2381 1159 1747 
Q 1159 1113 1420 752 
Q 1681 391 2138 391 
Q 2594 391 2855 752 
Q 3116 1113 3116 1747 
z
" transform="scale(0.015625)"/>
      <path id="DejaVuSans-29" d="M 513 4856 
L 1013 4856 
Q 1481 4119 1714 3412 
Q 1947 2706 1947 2009 
Q 1947 1309 1714 600 
Q 1481 -109 1013 -844 
L 513 -844 
Q 928 -128 1133 580 
Q 1338 1288 1338 2009 
Q 1338 2731 1133 3434 
Q 928 4138 513 4856 
z
" transform="scale(0.015625)"/>
     </defs>
     <use xlink:href="#DejaVuSans-52"/>
     <use xlink:href="#DejaVuSans-65" x="64.982422"/>
     <use xlink:href="#DejaVuSans-61" x="126.505859"/>
     <use xlink:href="#DejaVuSans-6c" x="187.785156"/>
     <use xlink:href="#DejaVuSans-20" x="215.568359"/>
     <use xlink:href="#DejaVuSans-41" x="247.355469"/>
     <use xlink:href="#DejaVuSans-6d" x="315.763672"/>
     <use xlink:href="#DejaVuSans-70" x="413.175781"/>
     <use xlink:href="#DejaVuSans-6c" x="476.652344"/>
     <use xlink:href="#DejaVuSans-69" x="504.435547"/>
     <use xlink:href="#DejaVuSans-74" x="532.21875"/>
     <use xlink:href="#DejaVuSans-75" x="571.427734"/>
     <use xlink:href="#DejaVuSans-64" x="634.806641"/>
     <use xlink:href="#DejaVuSans-65" x="698.283203"/>
     <use xlink:href="#DejaVuSans-20" x="759.806641"/>
     <use xlink:href="#DejaVuSans-28" x="791.59375"/>
     <use xlink:href="#DejaVuSans-3c1" x="830.607422"/>
     <use xlink:href="#DejaVuSans-29" x="894.083984"/>
    </g>
   </g>
  </g>
  <g id="patch_6">
   <path d="M 604.8 576 
L 1123.2 576 
L 1123.2 57.6 
L 604.8 57.6 
z
" style="fill: #ffffff"/>
  </g>
  <g id="pane3d_4">
   <g id="patch_7">
    <path d="M 706.07018 436.456468 
L 829.494133 330.550231 
L 827.743197 126.70673 
L 698.643358 223.613571 
" style="fill: #f2f2f2; opacity: 0.5; stroke: #f2f2f2; stroke-linejoin: miter"/>
   </g>
  </g>
  <g id="pane3d_5">
   <g id="patch_8">
    <path d="M 829.494133 330.550231 
L 1031.554898 390.069341 
L 1038.583588 181.103065 
L 827.743197 126.70673 
" style="fill: #e6e6e6; opacity: 0.5; stroke: #e6e6e6; stroke-linejoin: miter"/>
   </g>
  </g>
  <g id="pane3d_6">
   <g id="patch_9">
    <path d="M 706.07018 436.456468 
L 916.912731 504.076731 
L 1031.554898 390.069341 
L 829.494133 330.550231 
" style="fill: #ececec; opacity: 0.5; stroke: #ececec; stroke-linejoin: miter"/>
   </g>
  </g>
  <g id="grid3d_4">
   <g id="Line3DCollection_4">
    <path d="M 734.635886 445.617904 
L 856.925726 338.630493 
L 856.328796 134.081748 
" style="fill: none; stroke: #b0b0b0; stroke-width: 0.8"/>
    <path d="M 784.310046 461.549127 
L 904.58611 352.669358 
L 906.022474 146.902603 
" style="fill: none; stroke: #b0b0b0; stroke-width: 0.8"/>
    <path d="M 834.89502 477.772462 
L 953.066152 366.949661 
L 956.607663 159.953465 
" style="fill: none; stroke: #b0b0b0; stroke-width: 0.8"/>
    <path d="M 886.41609 494.296016 
L 1002.38718 381.477685 
L 1008.108569 173.24058 
" style="fill: none; stroke: #b0b0b0; stroke-width: 0.8"/>
   </g>
  </g>
  <g id="grid3d_5">
   <g id="Line3DCollection_5">
    <path d="M 717.757365 209.265931 
L 724.301379 420.812846 
L 933.880707 487.202708 
" style="fill: none; stroke: #b0b0b0; stroke-width: 0.8"/>
    <path d="M 749.704273 185.285468 
L 754.805664 394.638072 
L 962.24502 458.995448 
" style="fill: none; stroke: #b0b0b0; stroke-width: 0.8"/>
    <path d="M 780.65707 162.051218 
L 784.400054 369.24405 
L 989.731787 431.660877 
" style="fill: none; stroke: #b0b0b0; stroke-width: 0.8"/>
    <path d="M 810.661448 139.528886 
L 813.124663 344.596362 
L 1016.38111 405.159111 
" style="fill: none; stroke: #b0b0b0; stroke-width: 0.8"/>
   </g>
  </g>
  <g id="grid3d_6">
   <g id="Line3DCollection_6">
    <path d="M 1032.095459 373.998206 
L 829.359281 314.850874 
L 705.49963 420.105263 
" style="fill: none; stroke: #b0b0b0; stroke-width: 0.8"/>
    <path d="M 1032.832867 352.074702 
L 829.175375 293.440506 
L 704.721143 397.794849 
" style="fill: none; stroke: #b0b0b0; stroke-width: 0.8"/>
    <path d="M 1033.577058 329.949561 
L 828.989837 271.840207 
L 703.935298 375.273562 
" style="fill: none; stroke: #b0b0b0; stroke-width: 0.8"/>
    <path d="M 1034.328125 307.619988 
L 828.802645 250.047436 
L 703.141989 352.538396 
" style="fill: none; stroke: #b0b0b0; stroke-width: 0.8"/>
    <path d="M 1035.086164 285.083135 
L 828.613778 228.05961 
L 702.341111 329.586291 
" style="fill: none; stroke: #b0b0b0; stroke-width: 0.8"/>
    <path d="M 1035.851272 262.336104 
L 828.423214 205.874098 
L 701.532555 306.414127 
" style="fill: none; stroke: #b0b0b0; stroke-width: 0.8"/>
    <path d="M 1036.623549 239.37594 
L 828.230928 183.488223 
L 700.716208 283.018723 
" style="fill: none; stroke: #b0b0b0; stroke-width: 0.8"/>
    <path d="M 1037.403096 216.199635 
L 828.036897 160.899257 
L 699.891959 259.396838 
" style="fill: none; stroke: #b0b0b0; stroke-width: 0.8"/>
    <path d="M 1038.190017 192.80412 
L 827.841099 138.104425 
L 699.059692 235.545167 
" style="fill: none; stroke: #b0b0b0; stroke-width: 0.8"/>
   </g>
  </g>
  <g id="axis3d_4">
   <g id="line2d_17">
    <path d="M 706.07018 436.456468 
L 916.912731 504.076731 
" style="fill: none; stroke: #000000; stroke-width: 0.8; stroke-linecap: square"/>
   </g>
   <g id="xtick_14">
    <g id="line2d_18">
     <path d="M 735.677227 444.706868 
L 732.549953 447.442819 
" style="fill: none; stroke: #000000; stroke-width: 0.8; stroke-linecap: square"/>
    </g>
    <g id="text_15">
     <!-- 00 -->
     <g transform="translate(707.351686 489.365693) rotate(-45) scale(0.21 -0.21)">
      <use xlink:href="#DejaVuSans-30"/>
      <use xlink:href="#DejaVuSans-30" x="63.623047"/>
     </g>
    </g>
   </g>
   <g id="xtick_15">
    <g id="line2d_19">
     <path d="M 785.334802 460.621468 
L 782.257306 463.407368 
" style="fill: none; stroke: #000000; stroke-width: 0.8; stroke-linecap: square"/>
    </g>
    <g id="text_16">
     <!-- 01 -->
     <g transform="translate(757.023931 505.435143) rotate(-45) scale(0.21 -0.21)">
      <use xlink:href="#DejaVuSans-30"/>
      <use xlink:href="#DejaVuSans-31" x="63.623047"/>
     </g>
    </g>
   </g>
   <g id="xtick_16">
    <g id="line2d_20">
     <path d="M 835.902405 476.82772 
L 832.877048 479.664949 
" style="fill: none; stroke: #000000; stroke-width: 0.8; stroke-linecap: square"/>
    </g>
    <g id="text_17">
     <!-- 10 -->
     <g transform="translate(807.60781 521.799516) rotate(-45) scale(0.21 -0.21)">
      <use xlink:href="#DejaVuSans-31"/>
      <use xlink:href="#DejaVuSans-30" x="63.623047"/>
     </g>
    </g>
   </g>
   <g id="xtick_17">
    <g id="line2d_21">
     <path d="M 887.405283 493.333715 
L 884.434531 496.223705 
" style="fill: none; stroke: #000000; stroke-width: 0.8; stroke-linecap: square"/>
    </g>
    <g id="text_18">
     <!-- 11 -->
     <g transform="translate(859.128654 538.467006) rotate(-45) scale(0.21 -0.21)">
      <use xlink:href="#DejaVuSans-31"/>
      <use xlink:href="#DejaVuSans-31" x="63.623047"/>
     </g>
    </g>
   </g>
  </g>
  <g id="axis3d_5">
   <g id="line2d_22">
    <path d="M 1031.554898 390.069341 
L 916.912731 504.076731 
" style="fill: none; stroke: #000000; stroke-width: 0.8; stroke-linecap: square"/>
   </g>
   <g id="xtick_18">
    <g id="line2d_23">
     <path d="M 932.140222 486.651363 
L 937.364886 488.306415 
" style="fill: none; stroke: #000000; stroke-width: 0.8; stroke-linecap: square"/>
    </g>
    <g id="text_19">
     <!-- 00 -->
     <g transform="translate(944.70027 499.207917) rotate(-337.5) scale(0.21 -0.21)">
      <use xlink:href="#DejaVuSans-30"/>
      <use xlink:href="#DejaVuSans-30" x="63.623047"/>
     </g>
    </g>
   </g>
   <g id="xtick_19">
    <g id="line2d_24">
     <path d="M 960.5233 458.46129 
L 965.691587 460.064734 
" style="fill: none; stroke: #000000; stroke-width: 0.8; stroke-linecap: square"/>
    </g>
    <g id="text_20">
     <!-- 01 -->
     <g transform="translate(972.913817 470.822876) rotate(-337.5) scale(0.21 -0.21)">
      <use xlink:href="#DejaVuSans-30"/>
      <use xlink:href="#DejaVuSans-31" x="63.623047"/>
     </g>
    </g>
   </g>
   <g id="xtick_20">
    <g id="line2d_25">
     <path d="M 988.028511 431.143114 
L 993.141381 432.697327 
" style="fill: none; stroke: #000000; stroke-width: 0.8; stroke-linecap: square"/>
    </g>
    <g id="text_21">
     <!-- 10 -->
     <g transform="translate(1000.254695 443.315808) rotate(-337.5) scale(0.21 -0.21)">
      <use xlink:href="#DejaVuSans-31"/>
      <use xlink:href="#DejaVuSans-30" x="63.623047"/>
     </g>
    </g>
   </g>
   <g id="xtick_21">
    <g id="line2d_26">
     <path d="M 1014.695964 404.657001 
L 1019.754368 406.164215 
" style="fill: none; stroke: #000000; stroke-width: 0.8; stroke-linecap: square"/>
    </g>
    <g id="text_22">
     <!-- 11 -->
     <g transform="translate(1026.762776 416.646599) rotate(-337.5) scale(0.21 -0.21)">
      <use xlink:href="#DejaVuSans-31"/>
      <use xlink:href="#DejaVuSans-31" x="63.623047"/>
     </g>
    </g>
   </g>
  </g>
  <g id="axis3d_6">
   <g id="line2d_27">
    <path d="M 1031.554898 390.069341 
L 1038.583588 181.103065 
" style="fill: none; stroke: #000000; stroke-width: 0.8; stroke-linecap: square"/>
   </g>
   <g id="xtick_22">
    <g id="line2d_28">
     <path d="M 1030.414948 373.507925 
L 1035.459421 374.979626 
" style="fill: none; stroke: #000000; stroke-width: 0.8; stroke-linecap: square"/>
    </g>
    <g id="text_23">
     <!-- −0.15 -->
     <g transform="translate(1045.619517 367.721608) scale(0.21 -0.21)">
      <defs>
       <path id="DejaVuSans-2212" d="M 678 2272 
L 4684 2272 
L 4684 1741 
L 678 1741 
L 678 2272 
z
" transform="scale(0.015625)"/>
       <path id="DejaVuSans-35" d="M 691 4666 
L 3169 4666 
L 3169 4134 
L 1269 4134 
L 1269 2991 
Q 1406 3038 1543 3061 
Q 1681 3084 1819 3084 
Q 2600 3084 3056 2656 
Q 3513 2228 3513 1497 
Q 3513 744 3044 326 
Q 2575 -91 1722 -91 
Q 1428 -91 1123 -41 
Q 819 9 494 109 
L 494 744 
Q 775 591 1075 516 
Q 1375 441 1709 441 
Q 2250 441 2565 725 
Q 2881 1009 2881 1497 
Q 2881 1984 2565 2268 
Q 2250 2553 1709 2553 
Q 1456 2553 1204 2497 
Q 953 2441 691 2322 
L 691 4666 
z
" transform="scale(0.015625)"/>
      </defs>
      <use xlink:href="#DejaVuSans-2212"/>
      <use xlink:href="#DejaVuSans-30" x="83.789062"/>
      <use xlink:href="#DejaVuSans-2e" x="147.412109"/>
      <use xlink:href="#DejaVuSans-31" x="179.199219"/>
      <use xlink:href="#DejaVuSans-35" x="242.822266"/>
     </g>
    </g>
   </g>
   <g id="xtick_23">
    <g id="line2d_29">
     <path d="M 1031.144451 351.588597 
L 1036.21267 353.047768 
" style="fill: none; stroke: #000000; stroke-width: 0.8; stroke-linecap: square"/>
    </g>
    <g id="text_24">
     <!-- −0.10 -->
     <g transform="translate(1046.417922 345.814373) scale(0.21 -0.21)">
      <use xlink:href="#DejaVuSans-2212"/>
      <use xlink:href="#DejaVuSans-30" x="83.789062"/>
      <use xlink:href="#DejaVuSans-2e" x="147.412109"/>
      <use xlink:href="#DejaVuSans-31" x="179.199219"/>
      <use xlink:href="#DejaVuSans-30" x="242.822266"/>
     </g>
    </g>
   </g>
   <g id="xtick_24">
    <g id="line2d_30">
     <path d="M 1031.88066 329.46773 
L 1036.972851 330.914076 
" style="fill: none; stroke: #000000; stroke-width: 0.8; stroke-linecap: square"/>
    </g>
    <g id="text_25">
     <!-- −0.05 -->
     <g transform="translate(1047.223662 323.705882) scale(0.21 -0.21)">
      <use xlink:href="#DejaVuSans-2212"/>
      <use xlink:href="#DejaVuSans-30" x="83.789062"/>
      <use xlink:href="#DejaVuSans-2e" x="147.412109"/>
      <use xlink:href="#DejaVuSans-30" x="179.199219"/>
      <use xlink:href="#DejaVuSans-35" x="242.822266"/>
     </g>
    </g>
   </g>
   <g id="xtick_25">
    <g id="line2d_31">
     <path d="M 1032.62367 307.14253 
L 1037.740059 308.575751 
" style="fill: none; stroke: #000000; stroke-width: 0.8; stroke-linecap: square"/>
    </g>
    <g id="text_26">
     <!-- 0.00 -->
     <g transform="translate(1048.036838 301.393346) scale(0.21 -0.21)">
      <use xlink:href="#DejaVuSans-30"/>
      <use xlink:href="#DejaVuSans-2e" x="63.623047"/>
      <use xlink:href="#DejaVuSans-30" x="95.410156"/>
      <use xlink:href="#DejaVuSans-30" x="159.033203"/>
     </g>
    </g>
   </g>
   <g id="xtick_26">
    <g id="line2d_32">
     <path d="M 1033.373575 284.610153 
L 1038.514394 286.029944 
" style="fill: none; stroke: #000000; stroke-width: 0.8; stroke-linecap: square"/>
    </g>
    <g id="text_27">
     <!-- 0.05 -->
     <g transform="translate(1048.857554 278.87393) scale(0.21 -0.21)">
      <use xlink:href="#DejaVuSans-30"/>
      <use xlink:href="#DejaVuSans-2e" x="63.623047"/>
      <use xlink:href="#DejaVuSans-30" x="95.410156"/>
      <use xlink:href="#DejaVuSans-35" x="159.033203"/>
     </g>
    </g>
   </g>
   <g id="xtick_27">
    <g id="line2d_33">
     <path d="M 1034.130472 261.867702 
L 1039.295955 263.273748 
" style="fill: none; stroke: #000000; stroke-width: 0.8; stroke-linecap: square"/>
    </g>
    <g id="text_28">
     <!-- 0.10 -->
     <g transform="translate(1049.685915 256.144741) scale(0.21 -0.21)">
      <use xlink:href="#DejaVuSans-30"/>
      <use xlink:href="#DejaVuSans-2e" x="63.623047"/>
      <use xlink:href="#DejaVuSans-31" x="95.410156"/>
      <use xlink:href="#DejaVuSans-30" x="159.033203"/>
     </g>
    </g>
   </g>
   <g id="xtick_28">
    <g id="line2d_34">
     <path d="M 1034.894458 238.912225 
L 1040.084843 240.304206 
" style="fill: none; stroke: #000000; stroke-width: 0.8; stroke-linecap: square"/>
    </g>
    <g id="text_29">
     <!-- 0.15 -->
     <g transform="translate(1050.522028 233.202836) scale(0.21 -0.21)">
      <use xlink:href="#DejaVuSans-30"/>
      <use xlink:href="#DejaVuSans-2e" x="63.623047"/>
      <use xlink:href="#DejaVuSans-31" x="95.410156"/>
      <use xlink:href="#DejaVuSans-35" x="159.033203"/>
     </g>
    </g>
   </g>
   <g id="xtick_29">
    <g id="line2d_35">
     <path d="M 1035.665634 215.740715 
L 1040.881161 217.118304 
" style="fill: none; stroke: #000000; stroke-width: 0.8; stroke-linecap: square"/>
    </g>
    <g id="text_30">
     <!-- 0.20 -->
     <g transform="translate(1051.366004 210.045213) scale(0.21 -0.21)">
      <use xlink:href="#DejaVuSans-30"/>
      <use xlink:href="#DejaVuSans-2e" x="63.623047"/>
      <use xlink:href="#DejaVuSans-32" x="95.410156"/>
      <use xlink:href="#DejaVuSans-30" x="159.033203"/>
     </g>
    </g>
   </g>
   <g id="xtick_30">
    <g id="line2d_36">
     <path d="M 1036.444103 192.350108 
L 1041.685016 193.712969 
" style="fill: none; stroke: #000000; stroke-width: 0.8; stroke-linecap: square"/>
    </g>
    <g id="text_31">
     <!-- 0.25 -->
     <g transform="translate(1052.217952 186.668817) scale(0.21 -0.21)">
      <use xlink:href="#DejaVuSans-30"/>
      <use xlink:href="#DejaVuSans-2e" x="63.623047"/>
      <use xlink:href="#DejaVuSans-32" x="95.410156"/>
      <use xlink:href="#DejaVuSans-35" x="159.033203"/>
     </g>
    </g>
   </g>
  </g>
  <g id="axes_2">
   <g id="Poly3DCollection_2">
    <path d="M 932.955897 289.822523 
L 932.955897 289.822523 
L 957.91346 296.860413 
L 957.91346 296.860413 
z
" clip-path="url(#pf14162a878)" style="fill: #648fff"/>
    <path d="M 919.132225 302.051938 
L 919.132225 302.051938 
L 932.955897 289.822523 
L 932.955897 289.822523 
z
" clip-path="url(#pf14162a878)" style="fill: #324880"/>
    <path d="M 919.132225 302.051938 
L 932.955897 289.822523 
L 957.91346 296.860413 
L 944.220297 309.198212 
z
" clip-path="url(#pf14162a878)" style="fill: #3f599f"/>
    <path d="M 919.132225 302.051938 
L 944.220297 309.198212 
L 957.91346 296.860413 
L 932.955897 289.822523 
z
" clip-path="url(#pf14162a878)" style="fill: #577ddf"/>
    <path d="M 944.220297 309.198212 
L 957.91346 296.860413 
L 957.91346 296.860413 
L 944.220297 309.198212 
z
" clip-path="url(#pf14162a878)" style="fill: #648fff"/>
    <path d="M 919.132225 302.051938 
L 944.220297 309.198212 
L 944.220297 309.198212 
L 919.132225 302.051938 
z
" clip-path="url(#pf14162a878)" style="fill: #324880"/>
    <path d="M 905.095318 314.469996 
L 905.095318 314.469996 
L 930.314967 321.727177 
L 930.314967 321.727177 
z
" clip-path="url(#pf14162a878)" style="fill: #648fff"/>
    <path d="M 890.840205 327.081095 
L 890.840205 327.081095 
L 905.095318 314.469996 
L 905.095318 314.469996 
z
" clip-path="url(#pf14162a878)" style="fill: #324880"/>
    <path d="M 861.817832 436.830448 
L 886.990344 444.680593 
L 901.311406 431.128178 
L 876.269021 423.398695 
z
" clip-path="url(#pf14162a878)" style="fill: #577ddf"/>
    <path d="M 890.840205 327.081095 
L 905.095318 314.469996 
L 930.314967 321.727177 
L 916.192501 334.451785 
z
" clip-path="url(#pf14162a878)" style="fill: #3f599f"/>
    <path d="M 890.840205 327.081095 
L 916.192501 334.451785 
L 930.314967 321.727177 
L 905.095318 314.469996 
z
" clip-path="url(#pf14162a878)" style="fill: #577ddf"/>
    <path d="M 916.192501 334.451785 
L 930.314967 321.727177 
L 930.314967 321.727177 
L 916.192501 334.451785 
z
" clip-path="url(#pf14162a878)" style="fill: #648fff"/>
    <path d="M 826.075113 325.117349 
L 826.075113 325.117349 
L 851.105232 332.470306 
L 851.105232 332.470306 
z
" clip-path="url(#pf14162a878)" style="fill: #648fff"/>
    <path d="M 876.361757 339.889773 
L 876.269021 423.398695 
L 901.311406 431.128178 
L 901.847774 347.376656 
z
" clip-path="url(#pf14162a878)" style="fill: #648fff"/>
    <path d="M 890.840205 327.081095 
L 916.192501 334.451785 
L 916.192501 334.451785 
L 890.840205 327.081095 
z
" clip-path="url(#pf14162a878)" style="fill: #324880"/>
    <path d="M 811.107466 337.895158 
L 811.107466 337.895158 
L 826.075113 325.117349 
L 826.075113 325.117349 
z
" clip-path="url(#pf14162a878)" style="fill: #324880"/>
    <path d="M 861.654684 352.900708 
L 861.817832 436.830448 
L 876.269021 423.398695 
L 876.361757 339.889773 
z
" clip-path="url(#pf14162a878)" style="fill: #324880"/>
    <path d="M 811.107466 337.895158 
L 826.075113 325.117349 
L 851.105232 332.470306 
L 836.266391 345.363888 
z
" clip-path="url(#pf14162a878)" style="fill: #3f599f"/>
    <path d="M 811.107466 337.895158 
L 836.266391 345.363888 
L 851.105232 332.470306 
L 826.075113 325.117349 
z
" clip-path="url(#pf14162a878)" style="fill: #577ddf"/>
    <path d="M 912.390382 452.601693 
L 938.021045 460.594713 
L 952.072987 446.796046 
L 926.578383 438.926983 
z
" clip-path="url(#pf14162a878)" style="fill: #577ddf"/>
    <path d="M 836.266391 345.363888 
L 851.105232 332.470306 
L 851.105232 332.470306 
L 836.266391 345.363888 
z
" clip-path="url(#pf14162a878)" style="fill: #648fff"/>
    <path d="M 887.275496 360.506554 
L 901.847774 347.376656 
L 901.311406 431.128178 
L 886.990344 444.680593 
z
" clip-path="url(#pf14162a878)" style="fill: #648fff"/>
    <path d="M 811.107466 337.895158 
L 836.266391 345.363888 
L 836.266391 345.363888 
L 811.107466 337.895158 
z
" clip-path="url(#pf14162a878)" style="fill: #324880"/>
    <path d="M 861.654684 352.900708 
L 887.275496 360.506554 
L 886.990344 444.680593 
L 861.817832 436.830448 
z
" clip-path="url(#pf14162a878)" style="fill: #324880"/>
    <path d="M 927.566425 354.931879 
L 926.578383 438.926983 
L 952.072987 446.796046 
L 953.52091 362.556382 
z
" clip-path="url(#pf14162a878)" style="fill: #648fff"/>
    <path d="M 913.132035 368.182379 
L 912.390382 452.601693 
L 926.578383 438.926983 
L 927.566425 354.931879 
z
" clip-path="url(#pf14162a878)" style="fill: #324880"/>
    <path d="M 832.232215 464.328996 
L 857.668038 472.429097 
L 872.444335 458.445881 
L 847.140677 450.472227 
z
" clip-path="url(#pf14162a878)" style="fill: #577ddf"/>
    <path d="M 861.654684 352.900708 
L 876.361757 339.889773 
L 901.847774 347.376656 
L 887.275496 360.506554 
z
" clip-path="url(#pf14162a878)" style="fill: #3f599f"/>
    <path d="M 939.227572 375.929152 
L 953.52091 362.556382 
L 952.072987 446.796046 
L 938.021045 460.594713 
z
" clip-path="url(#pf14162a878)" style="fill: #648fff"/>
    <path d="M 795.903757 350.874492 
L 795.903757 350.874492 
L 821.19245 358.46175 
L 821.19245 358.46175 
z
" clip-path="url(#pf14162a878)" style="fill: #648fff"/>
    <path d="M 846.713528 366.11873 
L 847.140677 450.472227 
L 872.444335 458.445881 
L 872.470209 373.846396 
z
" clip-path="url(#pf14162a878)" style="fill: #648fff"/>
    <path d="M 913.132035 368.182379 
L 939.227572 375.929152 
L 938.021045 460.594713 
L 912.390382 452.601693 
z
" clip-path="url(#pf14162a878)" style="fill: #324880"/>
    <path d="M 780.458359 364.060156 
L 780.458359 364.060156 
L 795.903757 350.874492 
L 795.903757 350.874492 
z
" clip-path="url(#pf14162a878)" style="fill: #324880"/>
    <path d="M 831.532655 379.548822 
L 832.232215 464.328996 
L 847.140677 450.472227 
L 846.713528 366.11873 
z
" clip-path="url(#pf14162a878)" style="fill: #324880"/>
    <path d="M 780.458359 364.060156 
L 795.903757 350.874492 
L 821.19245 358.46175 
L 805.877777 371.768786 
z
" clip-path="url(#pf14162a878)" style="fill: #3f599f"/>
    <path d="M 780.458359 364.060156 
L 805.877777 371.768786 
L 821.19245 358.46175 
L 795.903757 350.874492 
z
" clip-path="url(#pf14162a878)" style="fill: #577ddf"/>
    <path d="M 883.337424 480.603576 
L 909.243605 488.853463 
L 923.746364 474.612105 
L 897.978509 466.492174 
z
" clip-path="url(#pf14162a878)" style="fill: #577ddf"/>
    <path d="M 805.877777 371.768786 
L 821.19245 358.46175 
L 821.19245 358.46175 
L 805.877777 371.768786 
z
" clip-path="url(#pf14162a878)" style="fill: #648fff"/>
    <path d="M 913.132035 368.182379 
L 927.566425 354.931879 
L 953.52091 362.556382 
L 939.227572 375.929152 
z
" clip-path="url(#pf14162a878)" style="fill: #3f599f"/>
    <path d="M 857.426281 387.40126 
L 872.470209 373.846396 
L 872.444335 458.445881 
L 857.668038 472.429097 
z
" clip-path="url(#pf14162a878)" style="fill: #648fff"/>
    <path d="M 780.458359 364.060156 
L 805.877777 371.768786 
L 805.877777 371.768786 
L 780.458359 364.060156 
z
" clip-path="url(#pf14162a878)" style="fill: #324880"/>
    <path d="M 831.532655 379.548822 
L 857.426281 387.40126 
L 857.668038 472.429097 
L 832.232215 464.328996 
z
" clip-path="url(#pf14162a878)" style="fill: #324880"/>
    <path d="M 898.465772 381.645734 
L 897.978509 466.492174 
L 923.746364 474.612105 
L 924.703556 389.517743 
z
" clip-path="url(#pf14162a878)" style="fill: #648fff"/>
    <path d="M 883.562003 395.327115 
L 883.337424 480.603576 
L 897.978509 466.492174 
L 898.465772 381.645734 
z
" clip-path="url(#pf14162a878)" style="fill: #324880"/>
    <path d="M 831.532655 379.548822 
L 846.713528 366.11873 
L 872.470209 373.846396 
L 857.426281 387.40126 
z
" clip-path="url(#pf14162a878)" style="fill: #3f599f"/>
    <path d="M 909.943233 403.327423 
L 924.703556 389.517743 
L 923.746364 474.612105 
L 909.243605 488.853463 
z
" clip-path="url(#pf14162a878)" style="fill: #648fff"/>
    <path d="M 883.562003 395.327115 
L 909.943233 403.327423 
L 909.243605 488.853463 
L 883.337424 480.603576 
z
" clip-path="url(#pf14162a878)" style="fill: #324880"/>
    <path d="M 883.562003 395.327115 
L 898.465772 381.645734 
L 924.703556 389.517743 
L 909.943233 403.327423 
z
" clip-path="url(#pf14162a878)" style="fill: #3f599f"/>
   </g>
   <g id="Poly3DCollection_3">
    <path d="M 709.946081 351.615565 
L 915.793134 414.378276 
L 1027.880085 308.494528 
L 830.411716 253.087078 
z
" clip-path="url(#pf14162a878)" style="fill-opacity: 0.25"/>
   </g>
   <g id="Poly3DCollection_4">
    <path d="M 820.958627 274.087437 
L 835.27682 262.277584 
L 859.379499 269.074401 
L 845.180924 280.987097 
z
" clip-path="url(#pf14162a878)" style="fill: #3f599f"/>
    <path d="M 835.27682 262.277584 
L 834.666745 178.591715 
L 859.18011 185.136669 
L 859.379499 269.074401 
z
" clip-path="url(#pf14162a878)" style="fill: #324880"/>
    <path d="M 820.958627 274.087437 
L 820.097528 189.964561 
L 834.666745 178.591715 
L 835.27682 262.277584 
z
" clip-path="url(#pf14162a878)" style="fill: #648fff"/>
    <path d="M 869.615414 287.9472 
L 883.691734 275.930312 
L 908.216269 282.84609 
L 894.264898 294.968543 
z
" clip-path="url(#pf14162a878)" style="fill: #3f599f"/>
    <path d="M 845.180924 280.987097 
L 859.379499 269.074401 
L 859.18011 185.136669 
L 844.73462 196.610261 
z
" clip-path="url(#pf14162a878)" style="fill: #324880"/>
    <path d="M 820.958627 274.087437 
L 845.180924 280.987097 
L 844.73462 196.610261 
L 820.097528 189.964561 
z
" clip-path="url(#pf14162a878)" style="fill: #648fff"/>
    <path d="M 883.691734 275.930312 
L 883.910272 191.739507 
L 908.86012 198.401 
L 908.216269 282.84609 
z
" clip-path="url(#pf14162a878)" style="fill: #324880"/>
    <path d="M 869.615414 287.9472 
L 869.591285 203.31519 
L 883.910272 191.739507 
L 883.691734 275.930312 
z
" clip-path="url(#pf14162a878)" style="fill: #648fff"/>
    <path d="M 791.666276 298.248192 
L 806.423436 286.076273 
L 830.766218 293.081128 
L 816.130408 305.360666 
z
" clip-path="url(#pf14162a878)" style="fill: #3f599f"/>
    <path d="M 820.097528 189.964561 
L 844.73462 196.610261 
L 859.18011 185.136669 
L 834.666745 178.591715 
z
" clip-path="url(#pf14162a878)" style="fill: #577ddf"/>
    <path d="M 894.264898 294.968543 
L 908.216269 282.84609 
L 908.86012 198.401 
L 894.670472 210.080142 
z
" clip-path="url(#pf14162a878)" style="fill: #324880"/>
    <path d="M 806.423436 286.076273 
L 805.30368 201.512756 
L 830.065411 208.261546 
L 830.766218 293.081128 
z
" clip-path="url(#pf14162a878)" style="fill: #324880"/>
    <path d="M 869.615414 287.9472 
L 894.264898 294.968543 
L 894.670472 210.080142 
L 869.591285 203.31519 
z
" clip-path="url(#pf14162a878)" style="fill: #648fff"/>
    <path d="M 791.666276 298.248192 
L 790.279966 213.240386 
L 805.30368 201.512756 
L 806.423436 286.076273 
z
" clip-path="url(#pf14162a878)" style="fill: #648fff"/>
    <path d="M 983.091852 303.960575 
L 983.091852 303.960575 
L 1008.494015 311.12384 
L 1008.494015 311.12384 
z
" clip-path="url(#pf14162a878)" style="fill: #324880"/>
    <path d="M 840.812154 312.536406 
L 855.323879 300.147816 
L 880.099276 307.27716 
L 865.71443 319.776262 
z
" clip-path="url(#pf14162a878)" style="fill: #3f599f"/>
    <path d="M 969.532065 316.408206 
L 969.532065 316.408206 
L 983.091852 303.960575 
L 983.091852 303.960575 
z
" clip-path="url(#pf14162a878)" style="fill: #648fff"/>
    <path d="M 869.591285 203.31519 
L 894.670472 210.080142 
L 908.86012 198.401 
L 883.910272 191.739507 
z
" clip-path="url(#pf14162a878)" style="fill: #577ddf"/>
    <path d="M 816.130408 305.360666 
L 830.766218 293.081128 
L 830.065411 208.261546 
L 815.167245 220.094684 
z
" clip-path="url(#pf14162a878)" style="fill: #324880"/>
    <path d="M 969.532065 316.408206 
L 983.091852 303.960575 
L 1008.494015 311.12384 
L 995.070536 323.682774 
z
" clip-path="url(#pf14162a878)" style="fill: #3f599f"/>
    <path d="M 969.532065 316.408206 
L 995.070536 323.682774 
L 1008.494015 311.12384 
L 983.091852 303.960575 
z
" clip-path="url(#pf14162a878)" style="fill: #577ddf"/>
    <path d="M 776.682024 310.60742 
L 776.682024 310.60742 
L 801.268369 317.830012 
L 801.268369 317.830012 
z
" clip-path="url(#pf14162a878)" style="fill: #324880"/>
    <path d="M 791.666276 298.248192 
L 816.130408 305.360666 
L 815.167245 220.094684 
L 790.279966 213.240386 
z
" clip-path="url(#pf14162a878)" style="fill: #648fff"/>
    <path d="M 761.465398 323.158313 
L 761.465398 323.158313 
L 776.682024 310.60742 
L 776.682024 310.60742 
z
" clip-path="url(#pf14162a878)" style="fill: #648fff"/>
    <path d="M 995.070536 323.682774 
L 1008.494015 311.12384 
L 1008.494015 311.12384 
L 995.070536 323.682774 
z
" clip-path="url(#pf14162a878)" style="fill: #324880"/>
    <path d="M 855.323879 300.147816 
L 855.049542 215.070952 
L 880.259084 221.941793 
L 880.099276 307.27716 
z
" clip-path="url(#pf14162a878)" style="fill: #324880"/>
    <path d="M 969.532065 316.408206 
L 995.070536 323.682774 
L 995.070536 323.682774 
L 969.532065 316.408206 
z
" clip-path="url(#pf14162a878)" style="fill: #648fff"/>
    <path d="M 840.812154 312.536406 
L 840.279805 227.011027 
L 855.049542 215.070952 
L 855.323879 300.147816 
z
" clip-path="url(#pf14162a878)" style="fill: #648fff"/>
    <path d="M 761.465398 323.158313 
L 786.174814 330.493601 
L 801.268369 317.830012 
L 776.682024 310.60742 
z
" clip-path="url(#pf14162a878)" style="fill: #577ddf"/>
    <path d="M 761.465398 323.158313 
L 776.682024 310.60742 
L 801.268369 317.830012 
L 786.174814 330.493601 
z
" clip-path="url(#pf14162a878)" style="fill: #3f599f"/>
    <path d="M 790.279966 213.240386 
L 815.167245 220.094684 
L 830.065411 208.261546 
L 805.30368 201.512756 
z
" clip-path="url(#pf14162a878)" style="fill: #577ddf"/>
    <path d="M 786.174814 330.493601 
L 801.268369 317.830012 
L 801.268369 317.830012 
L 786.174814 330.493601 
z
" clip-path="url(#pf14162a878)" style="fill: #324880"/>
    <path d="M 761.465398 323.158313 
L 786.174814 330.493601 
L 786.174814 330.493601 
L 761.465398 323.158313 
z
" clip-path="url(#pf14162a878)" style="fill: #648fff"/>
    <path d="M 865.71443 319.776262 
L 880.099276 307.27716 
L 880.259084 221.941793 
L 865.620719 233.990262 
z
" clip-path="url(#pf14162a878)" style="fill: #324880"/>
    <path d="M 840.812154 312.536406 
L 865.71443 319.776262 
L 865.620719 233.990262 
L 840.279805 227.011027 
z
" clip-path="url(#pf14162a878)" style="fill: #648fff"/>
    <path d="M 955.761235 329.04957 
L 955.761235 329.04957 
L 981.437192 336.438058 
L 981.437192 336.438058 
z
" clip-path="url(#pf14162a878)" style="fill: #324880"/>
    <path d="M 941.774396 341.889227 
L 941.774396 341.889227 
L 955.761235 329.04957 
L 955.761235 329.04957 
z
" clip-path="url(#pf14162a878)" style="fill: #648fff"/>
    <path d="M 840.279805 227.011027 
L 865.620719 233.990262 
L 880.259084 221.941793 
L 855.049542 215.070952 
z
" clip-path="url(#pf14162a878)" style="fill: #577ddf"/>
    <path d="M 941.774396 341.889227 
L 955.761235 329.04957 
L 981.437192 336.438058 
L 967.589023 349.394331 
z
" clip-path="url(#pf14162a878)" style="fill: #3f599f"/>
    <path d="M 941.774396 341.889227 
L 967.589023 349.394331 
L 981.437192 336.438058 
L 955.761235 329.04957 
z
" clip-path="url(#pf14162a878)" style="fill: #577ddf"/>
    <path d="M 746.010949 335.905367 
L 746.010949 335.905367 
L 770.844291 343.356008 
L 770.844291 343.356008 
z
" clip-path="url(#pf14162a878)" style="fill: #324880"/>
    <path d="M 730.313058 348.853214 
L 730.313058 348.853214 
L 746.010949 335.905367 
L 746.010949 335.905367 
z
" clip-path="url(#pf14162a878)" style="fill: #648fff"/>
    <path d="M 967.589023 349.394331 
L 981.437192 336.438058 
L 981.437192 336.438058 
L 967.589023 349.394331 
z
" clip-path="url(#pf14162a878)" style="fill: #324880"/>
    <path d="M 941.774396 341.889227 
L 967.589023 349.394331 
L 967.589023 349.394331 
L 941.774396 341.889227 
z
" clip-path="url(#pf14162a878)" style="fill: #648fff"/>
    <path d="M 730.313058 348.853214 
L 746.010949 335.905367 
L 770.844291 343.356008 
L 755.271176 356.421952 
z
" clip-path="url(#pf14162a878)" style="fill: #3f599f"/>
    <path d="M 730.313058 348.853214 
L 755.271176 356.421952 
L 770.844291 343.356008 
L 746.010949 335.905367 
z
" clip-path="url(#pf14162a878)" style="fill: #577ddf"/>
    <path d="M 755.271176 356.421952 
L 770.844291 343.356008 
L 770.844291 343.356008 
L 755.271176 356.421952 
z
" clip-path="url(#pf14162a878)" style="fill: #324880"/>
    <path d="M 730.313058 348.853214 
L 755.271176 356.421952 
L 755.271176 356.421952 
L 730.313058 348.853214 
z
" clip-path="url(#pf14162a878)" style="fill: #648fff"/>
   </g>
   <g id="text_32">
    <!-- Imaginary Amplitude (ρ) -->
    <g transform="translate(735.696563 51.6) scale(0.21 -0.21)">
     <defs>
      <path id="DejaVuSans-49" d="M 628 4666 
L 1259 4666 
L 1259 0 
L 628 0 
L 628 4666 
z
" transform="scale(0.015625)"/>
      <path id="DejaVuSans-67" d="M 2906 1791 
Q 2906 2416 2648 2759 
Q 2391 3103 1925 3103 
Q 1463 3103 1205 2759 
Q 947 2416 947 1791 
Q 947 1169 1205 825 
Q 1463 481 1925 481 
Q 2391 481 2648 825 
Q 2906 1169 2906 1791 
z
M 3481 434 
Q 3481 -459 3084 -895 
Q 2688 -1331 1869 -1331 
Q 1566 -1331 1297 -1286 
Q 1028 -1241 775 -1147 
L 775 -588 
Q 1028 -725 1275 -790 
Q 1522 -856 1778 -856 
Q 2344 -856 2625 -561 
Q 2906 -266 2906 331 
L 2906 616 
Q 2728 306 2450 153 
Q 2172 0 1784 0 
Q 1141 0 747 490 
Q 353 981 353 1791 
Q 353 2603 747 3093 
Q 1141 3584 1784 3584 
Q 2172 3584 2450 3431 
Q 2728 3278 2906 2969 
L 2906 3500 
L 3481 3500 
L 3481 434 
z
" transform="scale(0.015625)"/>
      <path id="DejaVuSans-6e" d="M 3513 2113 
L 3513 0 
L 2938 0 
L 2938 2094 
Q 2938 2591 2744 2837 
Q 2550 3084 2163 3084 
Q 1697 3084 1428 2787 
Q 1159 2491 1159 1978 
L 1159 0 
L 581 0 
L 581 3500 
L 1159 3500 
L 1159 2956 
Q 1366 3272 1645 3428 
Q 1925 3584 2291 3584 
Q 2894 3584 3203 3211 
Q 3513 2838 3513 2113 
z
" transform="scale(0.015625)"/>
      <path id="DejaVuSans-72" d="M 2631 2963 
Q 2534 3019 2420 3045 
Q 2306 3072 2169 3072 
Q 1681 3072 1420 2755 
Q 1159 2438 1159 1844 
L 1159 0 
L 581 0 
L 581 3500 
L 1159 3500 
L 1159 2956 
Q 1341 3275 1631 3429 
Q 1922 3584 2338 3584 
Q 2397 3584 2469 3576 
Q 2541 3569 2628 3553 
L 2631 2963 
z
" transform="scale(0.015625)"/>
      <path id="DejaVuSans-79" d="M 2059 -325 
Q 1816 -950 1584 -1140 
Q 1353 -1331 966 -1331 
L 506 -1331 
L 506 -850 
L 844 -850 
Q 1081 -850 1212 -737 
Q 1344 -625 1503 -206 
L 1606 56 
L 191 3500 
L 800 3500 
L 1894 763 
L 2988 3500 
L 3597 3500 
L 2059 -325 
z
" transform="scale(0.015625)"/>
     </defs>
     <use xlink:href="#DejaVuSans-49"/>
     <use xlink:href="#DejaVuSans-6d" x="29.492188"/>
     <use xlink:href="#DejaVuSans-61" x="126.904297"/>
     <use xlink:href="#DejaVuSans-67" x="188.183594"/>
     <use xlink:href="#DejaVuSans-69" x="251.660156"/>
     <use xlink:href="#DejaVuSans-6e" x="279.443359"/>
     <use xlink:href="#DejaVuSans-61" x="342.822266"/>
     <use xlink:href="#DejaVuSans-72" x="404.101562"/>
     <use xlink:href="#DejaVuSans-79" x="445.214844"/>
     <use xlink:href="#DejaVuSans-20" x="504.394531"/>
     <use xlink:href="#DejaVuSans-41" x="536.181641"/>
     <use xlink:href="#DejaVuSans-6d" x="604.589844"/>
     <use xlink:href="#DejaVuSans-70" x="702.001953"/>
     <use xlink:href="#DejaVuSans-6c" x="765.478516"/>
     <use xlink:href="#DejaVuSans-69" x="793.261719"/>
     <use xlink:href="#DejaVuSans-74" x="821.044922"/>
     <use xlink:href="#DejaVuSans-75" x="860.253906"/>
     <use xlink:href="#DejaVuSans-64" x="923.632812"/>
     <use xlink:href="#DejaVuSans-65" x="987.109375"/>
     <use xlink:href="#DejaVuSans-20" x="1048.632812"/>
     <use xlink:href="#DejaVuSans-28" x="1080.419922"/>
     <use xlink:href="#DejaVuSans-3c1" x="1119.433594"/>
     <use xlink:href="#DejaVuSans-29" x="1182.910156"/>
    </g>
   </g>
  </g>
 </g>
 <defs>
  <clipPath id="p071e85a369">
   <rect x="28.8" y="57.6" width="518.4" height="518.4"/>
  </clipPath>
  <clipPath id="pf14162a878">
   <rect x="604.8" y="57.6" width="518.4" height="518.4"/>
  </clipPath>
 </defs>
</svg>
