<?xml version="1.0" encoding="utf-8" standalone="no"?>
<!DOCTYPE svg PUBLIC "-//W3C//DTD SVG 1.1//EN"
  "http://www.w3.org/Graphics/SVG/1.1/DTD/svg11.dtd">
<svg xmlns:xlink="http://www.w3.org/1999/xlink" width="1152pt" height="576pt" viewBox="0 0 1152 576" xmlns="http://www.w3.org/2000/svg" version="1.1">
 <metadata>
  <rdf:RDF xmlns:dc="http://purl.org/dc/elements/1.1/" xmlns:cc="http://creativecommons.org/ns#" xmlns:rdf="http://www.w3.org/1999/02/22-rdf-syntax-ns#">
   <cc:Work>
    <dc:type rdf:resource="http://purl.org/dc/dcmitype/StillImage"/>
    <dc:date>2024-11-02T18:35:44.178441</dc:date>
    <dc:format>image/svg+xml</dc:format>
    <dc:creator>
     <cc:Agent>
      <dc:title>Matplotlib v3.9.2, https://matplotlib.org/</dc:title>
     </cc:Agent>
    </dc:creator>
   </cc:Work>
  </rdf:RDF>
 </metadata>
 <defs>
  <style type="text/css">*{stroke-linejoin: round; stroke-linecap: butt}</style>
 </defs>
 <g id="figure_1">
  <g id="patch_1">
   <path d="M 0 576 
L 1152 576 
L 1152 0 
L 0 0 
z
" style="fill: #ffffff"/>
  </g>
  <g id="patch_2">
   <path d="M 28.8 576 
L 547.2 576 
L 547.2 57.6 
L 28.8 57.6 
z
" style="fill: #ffffff"/>
  </g>
  <g id="pane3d_1">
   <g id="patch_3">
    <path d="M 130.07018 436.456468 
L 253.494133 330.550231 
L 251.743197 126.70673 
L 122.643358 223.613571 
" style="fill: #f2f2f2; opacity: 0.5; stroke: #f2f2f2; stroke-linejoin: miter"/>
   </g>
  </g>
  <g id="pane3d_2">
   <g id="patch_4">
    <path d="M 253.494133 330.550231 
L 455.554898 390.069341 
L 462.583588 181.103065 
L 251.743197 126.70673 
" style="fill: #e6e6e6; opacity: 0.5; stroke: #e6e6e6; stroke-linejoin: miter"/>
   </g>
  </g>
  <g id="pane3d_3">
   <g id="patch_5">
    <path d="M 130.07018 436.456468 
L 340.912731 504.076731 
L 455.554898 390.069341 
L 253.494133 330.550231 
" style="fill: #ececec; opacity: 0.5; stroke: #ececec; stroke-linejoin: miter"/>
   </g>
  </g>
  <g id="grid3d_1">
   <g id="Line3DCollection_1">
    <path d="M 148.107564 442.241318 
L 270.817434 335.65299 
L 269.793879 131.363764 
" style="fill: none; stroke: #b0b0b0; stroke-width: 0.8"/>
    <path d="M 204.73198 460.40159 
L 325.154862 351.658648 
L 326.443642 145.979273 
" style="fill: none; stroke: #b0b0b0; stroke-width: 0.8"/>
    <path d="M 262.543747 478.942662 
L 380.560935 367.979086 
L 384.255639 160.894634 
" style="fill: none; stroke: #b0b0b0; stroke-width: 0.8"/>
    <path d="M 321.580608 497.876639 
L 437.067491 384.623682 
L 443.266006 176.119173 
" style="fill: none; stroke: #b0b0b0; stroke-width: 0.8"/>
   </g>
  </g>
  <g id="grid3d_2">
   <g id="Line3DCollection_2">
    <path d="M 134.777648 214.505149 
L 141.642324 426.526772 
L 351.684419 493.364686 
" style="fill: none; stroke: #b0b0b0; stroke-width: 0.8"/>
    <path d="M 171.455878 186.973191 
L 176.657452 396.481386 
L 384.248591 460.980823 
" style="fill: none; stroke: #b0b0b0; stroke-width: 0.8"/>
    <path d="M 206.831169 160.419264 
L 210.480196 367.459145 
L 415.662622 429.740732 
" style="fill: none; stroke: #b0b0b0; stroke-width: 0.8"/>
    <path d="M 240.971738 134.792162 
L 243.170446 339.408664 
L 445.986389 399.584868 
" style="fill: none; stroke: #b0b0b0; stroke-width: 0.8"/>
   </g>
  </g>
  <g id="grid3d_3">
   <g id="Line3DCollection_3">
    <path d="M 456.593193 359.200333 
L 253.235142 300.3986 
L 128.97419 405.046848 
" style="fill: none; stroke: #b0b0b0; stroke-width: 0.8"/>
    <path d="M 457.7185 325.744441 
L 252.95458 267.735631 
L 127.785917 370.992504 
" style="fill: none; stroke: #b0b0b0; stroke-width: 0.8"/>
    <path d="M 458.859589 291.819304 
L 252.670223 234.630915 
L 126.580512 336.447198 
" style="fill: none; stroke: #b0b0b0; stroke-width: 0.8"/>
    <path d="M 460.016797 257.41498 
L 252.381995 201.075428 
L 125.357603 301.400234 
" style="fill: none; stroke: #b0b0b0; stroke-width: 0.8"/>
    <path d="M 461.190466 222.521244 
L 252.089815 167.059901 
L 124.116805 265.840606 
" style="fill: none; stroke: #b0b0b0; stroke-width: 0.8"/>
    <path d="M 462.38095 187.127577 
L 251.793601 132.574807 
L 122.857723 229.756982 
" style="fill: none; stroke: #b0b0b0; stroke-width: 0.8"/>
   </g>
  </g>
  <g id="axis3d_1">
   <g id="line2d_1">
    <path d="M 130.07018 436.456468 
L 340.912731 504.076731 
" style="fill: none; stroke: #000000; stroke-width: 0.8; stroke-linecap: square"/>
   </g>
   <g id="xtick_1">
    <g id="line2d_2">
     <path d="M 149.15236 441.333787 
L 146.014717 444.059209 
" style="fill: none; stroke: #000000; stroke-width: 0.8; stroke-linecap: square"/>
    </g>
    <g id="text_1">
     <!-- 00 -->
     <g transform="translate(120.823877 485.959845) rotate(-45) scale(0.21 -0.21)">
      <defs>
       <path id="DejaVuSans-30" d="M 2034 4250 
Q 1547 4250 1301 3770 
Q 1056 3291 1056 2328 
Q 1056 1369 1301 889 
Q 1547 409 2034 409 
Q 2525 409 2770 889 
Q 3016 1369 3016 2328 
Q 3016 3291 2770 3770 
Q 2525 4250 2034 4250 
z
M 2034 4750 
Q 2819 4750 3233 4129 
Q 3647 3509 3647 2328 
Q 3647 1150 3233 529 
Q 2819 -91 2034 -91 
Q 1250 -91 836 529 
Q 422 1150 422 2328 
Q 422 3509 836 4129 
Q 1250 4750 2034 4750 
z
" transform="scale(0.015625)"/>
      </defs>
      <use xlink:href="#DejaVuSans-30"/>
      <use xlink:href="#DejaVuSans-30" x="63.623047"/>
     </g>
    </g>
   </g>
   <g id="xtick_2">
    <g id="line2d_3">
     <path d="M 205.757946 459.475133 
L 202.676818 462.257419 
" style="fill: none; stroke: #000000; stroke-width: 0.8; stroke-linecap: square"/>
    </g>
    <g id="text_2">
     <!-- 01 -->
     <g transform="translate(177.445975 504.27764) rotate(-45) scale(0.21 -0.21)">
      <defs>
       <path id="DejaVuSans-31" d="M 794 531 
L 1825 531 
L 1825 4091 
L 703 3866 
L 703 4441 
L 1819 4666 
L 2450 4666 
L 2450 531 
L 3481 531 
L 3481 0 
L 794 0 
L 794 531 
z
" transform="scale(0.015625)"/>
      </defs>
      <use xlink:href="#DejaVuSans-30"/>
      <use xlink:href="#DejaVuSans-31" x="63.623047"/>
     </g>
    </g>
   </g>
   <g id="xtick_3">
    <g id="line2d_4">
     <path d="M 263.54986 477.996682 
L 260.528321 480.837631 
" style="fill: none; stroke: #000000; stroke-width: 0.8; stroke-linecap: square"/>
    </g>
    <g id="text_3">
     <!-- 10 -->
     <g transform="translate(235.256492 522.9799) rotate(-45) scale(0.21 -0.21)">
      <use xlink:href="#DejaVuSans-31"/>
      <use xlink:href="#DejaVuSans-30" x="63.623047"/>
     </g>
    </g>
   </g>
   <g id="xtick_4">
    <g id="line2d_5">
     <path d="M 322.565792 496.910512 
L 319.607072 499.811999 
" style="fill: none; stroke: #000000; stroke-width: 0.8; stroke-linecap: square"/>
    </g>
    <g id="text_4">
     <!-- 11 -->
     <g transform="translate(294.293241 542.078858) rotate(-45) scale(0.21 -0.21)">
      <use xlink:href="#DejaVuSans-31"/>
      <use xlink:href="#DejaVuSans-31" x="63.623047"/>
     </g>
    </g>
   </g>
  </g>
  <g id="axis3d_2">
   <g id="line2d_6">
    <path d="M 455.554898 390.069341 
L 340.912731 504.076731 
" style="fill: none; stroke: #000000; stroke-width: 0.8; stroke-linecap: square"/>
   </g>
   <g id="xtick_5">
    <g id="line2d_7">
     <path d="M 349.939872 492.809551 
L 355.176743 494.475986 
" style="fill: none; stroke: #000000; stroke-width: 0.8; stroke-linecap: square"/>
    </g>
    <g id="text_5">
     <!-- 00 -->
     <g transform="translate(362.536948 505.408703) rotate(-337.5) scale(0.21 -0.21)">
      <use xlink:href="#DejaVuSans-30"/>
      <use xlink:href="#DejaVuSans-30" x="63.623047"/>
     </g>
    </g>
   </g>
   <g id="xtick_6">
    <g id="line2d_8">
     <path d="M 382.525541 460.445465 
L 387.697822 462.052514 
" style="fill: none; stroke: #000000; stroke-width: 0.8; stroke-linecap: square"/>
    </g>
    <g id="text_6">
     <!-- 01 -->
     <g transform="translate(394.927992 472.820772) rotate(-337.5) scale(0.21 -0.21)">
      <use xlink:href="#DejaVuSans-30"/>
      <use xlink:href="#DejaVuSans-31" x="63.623047"/>
     </g>
    </g>
   </g>
   <g id="xtick_7">
    <g id="line2d_9">
     <path d="M 413.960652 429.224112 
L 419.0696 430.774895 
" style="fill: none; stroke: #000000; stroke-width: 0.8; stroke-linecap: square"/>
    </g>
    <g id="text_7">
     <!-- 10 -->
     <g transform="translate(426.175291 441.383538) rotate(-337.5) scale(0.21 -0.21)">
      <use xlink:href="#DejaVuSans-31"/>
      <use xlink:href="#DejaVuSans-30" x="63.623047"/>
     </g>
    </g>
   </g>
   <g id="xtick_8">
    <g id="line2d_10">
     <path d="M 444.305087 399.08602 
L 449.351944 400.58344 
" style="fill: none; stroke: #000000; stroke-width: 0.8; stroke-linecap: square"/>
    </g>
    <g id="text_8">
     <!-- 11 -->
     <g transform="translate(456.338373 411.037112) rotate(-337.5) scale(0.21 -0.21)">
      <use xlink:href="#DejaVuSans-31"/>
      <use xlink:href="#DejaVuSans-31" x="63.623047"/>
     </g>
    </g>
   </g>
  </g>
  <g id="axis3d_3">
   <g id="line2d_11">
    <path d="M 455.554898 390.069341 
L 462.583588 181.103065 
" style="fill: none; stroke: #000000; stroke-width: 0.8; stroke-linecap: square"/>
   </g>
   <g id="xtick_9">
    <g id="line2d_12">
     <path d="M 454.907346 358.712864 
L 459.967847 360.176126 
" style="fill: none; stroke: #000000; stroke-width: 0.8; stroke-linecap: square"/>
    </g>
    <g id="text_9">
     <!-- 0.10 -->
     <g transform="translate(470.158424 352.934691) scale(0.21 -0.21)">
      <defs>
       <path id="DejaVuSans-2e" d="M 684 794 
L 1344 794 
L 1344 0 
L 684 0 
L 684 794 
z
" transform="scale(0.015625)"/>
      </defs>
      <use xlink:href="#DejaVuSans-30"/>
      <use xlink:href="#DejaVuSans-2e" x="63.623047"/>
      <use xlink:href="#DejaVuSans-31" x="95.410156"/>
      <use xlink:href="#DejaVuSans-30" x="159.033203"/>
     </g>
    </g>
   </g>
   <g id="xtick_10">
    <g id="line2d_13">
     <path d="M 456.020584 325.263428 
L 461.117332 326.707317 
" style="fill: none; stroke: #000000; stroke-width: 0.8; stroke-linecap: square"/>
    </g>
    <g id="text_10">
     <!-- 0.15 -->
     <g transform="translate(471.376801 319.503952) scale(0.21 -0.21)">
      <defs>
       <path id="DejaVuSans-35" d="M 691 4666 
L 3169 4666 
L 3169 4134 
L 1269 4134 
L 1269 2991 
Q 1406 3038 1543 3061 
Q 1681 3084 1819 3084 
Q 2600 3084 3056 2656 
Q 3513 2228 3513 1497 
Q 3513 744 3044 326 
Q 2575 -91 1722 -91 
Q 1428 -91 1123 -41 
Q 819 9 494 109 
L 494 744 
Q 775 591 1075 516 
Q 1375 441 1709 441 
Q 2250 441 2565 725 
Q 2881 1009 2881 1497 
Q 2881 1984 2565 2268 
Q 2250 2553 1709 2553 
Q 1456 2553 1204 2497 
Q 953 2441 691 2322 
L 691 4666 
z
" transform="scale(0.015625)"/>
      </defs>
      <use xlink:href="#DejaVuSans-30"/>
      <use xlink:href="#DejaVuSans-2e" x="63.623047"/>
      <use xlink:href="#DejaVuSans-31" x="95.410156"/>
      <use xlink:href="#DejaVuSans-35" x="159.033203"/>
     </g>
    </g>
   </g>
   <g id="xtick_11">
    <g id="line2d_14">
     <path d="M 457.149432 291.344977 
L 462.282948 292.768802 
" style="fill: none; stroke: #000000; stroke-width: 0.8; stroke-linecap: square"/>
    </g>
    <g id="text_11">
     <!-- 0.20 -->
     <g transform="translate(472.612247 285.604862) scale(0.21 -0.21)">
      <defs>
       <path id="DejaVuSans-32" d="M 1228 531 
L 3431 531 
L 3431 0 
L 469 0 
L 469 531 
Q 828 903 1448 1529 
Q 2069 2156 2228 2338 
Q 2531 2678 2651 2914 
Q 2772 3150 2772 3378 
Q 2772 3750 2511 3984 
Q 2250 4219 1831 4219 
Q 1534 4219 1204 4116 
Q 875 4013 500 3803 
L 500 4441 
Q 881 4594 1212 4672 
Q 1544 4750 1819 4750 
Q 2544 4750 2975 4387 
Q 3406 4025 3406 3419 
Q 3406 3131 3298 2873 
Q 3191 2616 2906 2266 
Q 2828 2175 2409 1742 
Q 1991 1309 1228 531 
z
" transform="scale(0.015625)"/>
      </defs>
      <use xlink:href="#DejaVuSans-30"/>
      <use xlink:href="#DejaVuSans-2e" x="63.623047"/>
      <use xlink:href="#DejaVuSans-32" x="95.410156"/>
      <use xlink:href="#DejaVuSans-30" x="159.033203"/>
     </g>
    </g>
   </g>
   <g id="xtick_12">
    <g id="line2d_15">
     <path d="M 458.29422 256.947576 
L 463.465039 258.350625 
" style="fill: none; stroke: #000000; stroke-width: 0.8; stroke-linecap: square"/>
    </g>
    <g id="text_12">
     <!-- 0.25 -->
     <g transform="translate(473.865123 251.227509) scale(0.21 -0.21)">
      <use xlink:href="#DejaVuSans-30"/>
      <use xlink:href="#DejaVuSans-2e" x="63.623047"/>
      <use xlink:href="#DejaVuSans-32" x="95.410156"/>
      <use xlink:href="#DejaVuSans-35" x="159.033203"/>
     </g>
    </g>
   </g>
   <g id="xtick_13">
    <g id="line2d_16">
     <path d="M 459.455287 222.061009 
L 464.663956 223.442544 
" style="fill: none; stroke: #000000; stroke-width: 0.8; stroke-linecap: square"/>
    </g>
    <g id="text_13">
     <!-- 0.30 -->
     <g transform="translate(475.1358 216.361701) scale(0.21 -0.21)">
      <defs>
       <path id="DejaVuSans-33" d="M 2597 2516 
Q 3050 2419 3304 2112 
Q 3559 1806 3559 1356 
Q 3559 666 3084 287 
Q 2609 -91 1734 -91 
Q 1441 -91 1130 -33 
Q 819 25 488 141 
L 488 750 
Q 750 597 1062 519 
Q 1375 441 1716 441 
Q 2309 441 2620 675 
Q 2931 909 2931 1356 
Q 2931 1769 2642 2001 
Q 2353 2234 1838 2234 
L 1294 2234 
L 1294 2753 
L 1863 2753 
Q 2328 2753 2575 2939 
Q 2822 3125 2822 3475 
Q 2822 3834 2567 4026 
Q 2313 4219 1838 4219 
Q 1578 4219 1281 4162 
Q 984 4106 628 3988 
L 628 4550 
Q 988 4650 1302 4700 
Q 1616 4750 1894 4750 
Q 2613 4750 3031 4423 
Q 3450 4097 3450 3541 
Q 3450 3153 3228 2886 
Q 3006 2619 2597 2516 
z
" transform="scale(0.015625)"/>
      </defs>
      <use xlink:href="#DejaVuSans-30"/>
      <use xlink:href="#DejaVuSans-2e" x="63.623047"/>
      <use xlink:href="#DejaVuSans-33" x="95.410156"/>
      <use xlink:href="#DejaVuSans-30" x="159.033203"/>
     </g>
    </g>
   </g>
   <g id="xtick_14">
    <g id="line2d_17">
     <path d="M 460.632985 186.674766 
L 465.88006 188.034024 
" style="fill: none; stroke: #000000; stroke-width: 0.8; stroke-linecap: square"/>
    </g>
    <g id="text_14">
     <!-- 0.35 -->
     <g transform="translate(476.424662 180.996952) scale(0.21 -0.21)">
      <use xlink:href="#DejaVuSans-30"/>
      <use xlink:href="#DejaVuSans-2e" x="63.623047"/>
      <use xlink:href="#DejaVuSans-33" x="95.410156"/>
      <use xlink:href="#DejaVuSans-35" x="159.033203"/>
     </g>
    </g>
   </g>
  </g>
  <g id="axes_1">
   <g id="Poly3DCollection_1">
    <path d="M 255.358593 367.620887 
L 255.078115 333.694447 
L 282.00665 341.639487 
L 282.098401 375.672872 
z
" clip-path="url(#p8fbad540b2)" style="fill: #324880"/>
    <path d="M 239.424333 381.616568 
L 255.358593 367.620887 
L 282.098401 375.672872 
L 266.311352 389.80395 
z
" clip-path="url(#p8fbad540b2)" style="fill: #3f599f"/>
    <path d="M 239.424333 381.616568 
L 239.027822 347.504584 
L 255.078115 333.694447 
L 255.358593 367.620887 
z
" clip-path="url(#p8fbad540b2)" style="fill: #648fff"/>
    <path d="M 266.311352 389.80395 
L 282.098401 375.672872 
L 282.00665 341.639487 
L 266.105652 355.584181 
z
" clip-path="url(#p8fbad540b2)" style="fill: #324880"/>
    <path d="M 239.027822 347.504584 
L 266.105652 355.584181 
L 282.00665 341.639487 
L 255.078115 333.694447 
z
" clip-path="url(#p8fbad540b2)" style="fill: #577ddf"/>
    <path d="M 239.424333 381.616568 
L 266.311352 389.80395 
L 266.105652 355.584181 
L 239.027822 347.504584 
z
" clip-path="url(#p8fbad540b2)" style="fill: #648fff"/>
    <path d="M 309.096434 383.802616 
L 309.197089 349.661799 
L 336.653273 357.762517 
L 336.356451 392.011248 
z
" clip-path="url(#p8fbad540b2)" style="fill: #324880"/>
    <path d="M 293.460208 398.071064 
L 309.096434 383.802616 
L 336.356451 392.011248 
L 320.874744 406.41908 
z
" clip-path="url(#p8fbad540b2)" style="fill: #3f599f"/>
    <path d="M 293.460208 398.071064 
L 293.449077 363.743028 
L 309.197089 349.661799 
L 309.096434 383.802616 
z
" clip-path="url(#p8fbad540b2)" style="fill: #648fff"/>
    <path d="M 320.874744 406.41908 
L 336.356451 392.011248 
L 336.653273 357.762517 
L 321.062023 371.982295 
z
" clip-path="url(#p8fbad540b2)" style="fill: #324880"/>
    <path d="M 223.221653 395.848011 
L 222.70521 361.549033 
L 249.933541 369.766635 
L 250.257065 404.174234 
z
" clip-path="url(#p8fbad540b2)" style="fill: #324880"/>
    <path d="M 206.743714 410.321226 
L 223.221653 395.848011 
L 250.257065 404.174234 
L 233.928694 418.789851 
z
" clip-path="url(#p8fbad540b2)" style="fill: #3f599f"/>
    <path d="M 293.449077 363.743028 
L 321.062023 371.982295 
L 336.653273 357.762517 
L 309.197089 349.661799 
z
" clip-path="url(#p8fbad540b2)" style="fill: #577ddf"/>
    <path d="M 293.460208 398.071064 
L 320.874744 406.41908 
L 321.062023 371.982295 
L 293.449077 363.743028 
z
" clip-path="url(#p8fbad540b2)" style="fill: #648fff"/>
    <path d="M 206.743714 410.321226 
L 206.103289 375.833807 
L 222.70521 361.549033 
L 223.221653 395.848011 
z
" clip-path="url(#p8fbad540b2)" style="fill: #648fff"/>
    <path d="M 348.55888 414.849192 
L 363.882283 400.299924 
L 391.677838 408.66982 
L 376.516611 423.362617 
z
" clip-path="url(#p8fbad540b2)" style="fill: #3f599f"/>
    <path d="M 233.928694 418.789851 
L 250.257065 404.174234 
L 249.933541 369.766635 
L 233.483323 384.192981 
z
" clip-path="url(#p8fbad540b2)" style="fill: #324880"/>
    <path d="M 206.103289 375.833807 
L 233.483323 384.192981 
L 249.933541 369.766635 
L 222.70521 361.549033 
z
" clip-path="url(#p8fbad540b2)" style="fill: #577ddf"/>
    <path d="M 206.743714 410.321226 
L 233.928694 418.789851 
L 233.483323 384.192981 
L 206.103289 375.833807 
z
" clip-path="url(#p8fbad540b2)" style="fill: #648fff"/>
    <path d="M 277.557997 412.58223 
L 277.431231 378.065531 
L 305.202296 386.446932 
L 305.128381 421.073211 
z
" clip-path="url(#p8fbad540b2)" style="fill: #324880"/>
    <path d="M 261.382955 427.342362 
L 277.557997 412.58223 
L 305.128381 421.073211 
L 289.110517 435.980011 
z
" clip-path="url(#p8fbad540b2)" style="fill: #3f599f"/>
    <path d="M 261.382955 427.342362 
L 261.136557 392.635562 
L 277.431231 378.065531 
L 277.557997 412.58223 
z
" clip-path="url(#p8fbad540b2)" style="fill: #648fff"/>
    <path d="M 404.752013 431.960596 
L 419.7471 417.122136 
L 448.094132 425.658094 
L 433.269245 440.644395 
z
" clip-path="url(#p8fbad540b2)" style="fill: #3f599f"/>
    <path d="M 289.110517 435.980011 
L 305.128381 421.073211 
L 305.202296 386.446932 
L 289.0671 401.162807 
z
" clip-path="url(#p8fbad540b2)" style="fill: #324880"/>
    <path d="M 172.933515 440.018039 
L 189.983441 425.042426 
L 217.319162 433.657138 
L 200.421143 448.782652 
z
" clip-path="url(#p8fbad540b2)" style="fill: #3f599f"/>
    <path d="M 261.136557 392.635562 
L 289.0671 401.162807 
L 305.202296 386.446932 
L 277.431231 378.065531 
z
" clip-path="url(#p8fbad540b2)" style="fill: #577ddf"/>
    <path d="M 261.382955 427.342362 
L 289.110517 435.980011 
L 289.0671 401.162807 
L 261.136557 392.635562 
z
" clip-path="url(#p8fbad540b2)" style="fill: #648fff"/>
    <path d="M 317.115481 444.704077 
L 332.972226 429.648411 
L 361.093621 438.309089 
L 345.402031 453.515861 
z
" clip-path="url(#p8fbad540b2)" style="fill: #3f599f"/>
    <path d="M 189.983441 425.042426 
L 187.914828 331.713507 
L 215.781223 340.025663 
L 217.319162 433.657138 
z
" clip-path="url(#p8fbad540b2)" style="fill: #324880"/>
    <path d="M 363.882283 400.299924 
L 367.371214 159.032971 
L 396.599956 166.586763 
L 391.677838 408.66982 
z
" clip-path="url(#p8fbad540b2)" style="fill: #324880"/>
    <path d="M 172.933515 440.018039 
L 170.50788 346.164209 
L 187.914828 331.713507 
L 189.983441 425.042426 
z
" clip-path="url(#p8fbad540b2)" style="fill: #648fff"/>
    <path d="M 348.55888 414.849192 
L 351.295894 172.166024 
L 367.371214 159.032971 
L 363.882283 400.299924 
z
" clip-path="url(#p8fbad540b2)" style="fill: #648fff"/>
    <path d="M 228.185802 457.635597 
L 244.928 442.357922 
L 272.814067 451.146073 
L 256.231701 466.578218 
z
" clip-path="url(#p8fbad540b2)" style="fill: #3f599f"/>
    <path d="M 200.421143 448.782652 
L 217.319162 433.657138 
L 215.781223 340.025663 
L 198.532091 354.623894 
z
" clip-path="url(#p8fbad540b2)" style="fill: #324880"/>
    <path d="M 373.974437 462.416695 
L 389.496736 447.056529 
L 418.185826 455.892043 
L 402.837053 471.407934 
z
" clip-path="url(#p8fbad540b2)" style="fill: #3f599f"/>
    <path d="M 376.516611 423.362617 
L 391.677838 408.66982 
L 396.599956 166.586763 
L 380.704133 179.856018 
z
" clip-path="url(#p8fbad540b2)" style="fill: #324880"/>
    <path d="M 172.933515 440.018039 
L 200.421143 448.782652 
L 198.532091 354.623894 
L 170.50788 346.164209 
z
" clip-path="url(#p8fbad540b2)" style="fill: #648fff"/>
    <path d="M 348.55888 414.849192 
L 376.516611 423.362617 
L 380.704133 179.856018 
L 351.295894 172.166024 
z
" clip-path="url(#p8fbad540b2)" style="fill: #648fff"/>
    <path d="M 244.928 442.357922 
L 243.931576 348.42252 
L 272.37025 356.905379 
L 272.814067 451.146073 
z
" clip-path="url(#p8fbad540b2)" style="fill: #324880"/>
    <path d="M 419.7471 417.122136 
L 426.131247 174.218745 
L 455.969811 181.930137 
L 448.094132 425.658094 
z
" clip-path="url(#p8fbad540b2)" style="fill: #324880"/>
    <path d="M 137.934142 470.759351 
L 155.586363 455.254719 
L 183.227055 464.173178 
L 165.729049 479.835743 
z
" clip-path="url(#p8fbad540b2)" style="fill: #3f599f"/>
    <path d="M 228.185802 457.635597 
L 226.84441 363.170552 
L 243.931576 348.42252 
L 244.928 442.357922 
z
" clip-path="url(#p8fbad540b2)" style="fill: #648fff"/>
    <path d="M 404.752013 431.960596 
L 410.419533 187.626331 
L 426.131247 174.218745 
L 419.7471 417.122136 
z
" clip-path="url(#p8fbad540b2)" style="fill: #648fff"/>
    <path d="M 300.981561 460.022914 
L 301.026187 424.901676 
L 329.693176 433.7564 
L 329.434764 468.989794 
z
" clip-path="url(#p8fbad540b2)" style="fill: #324880"/>
    <path d="M 170.50788 346.164209 
L 198.532091 354.623894 
L 215.781223 340.025663 
L 187.914828 331.713507 
z
" clip-path="url(#p8fbad540b2)" style="fill: #577ddf"/>
    <path d="M 284.563135 475.611883 
L 300.981561 460.022914 
L 329.434764 468.989794 
L 313.184488 484.737991 
z
" clip-path="url(#p8fbad540b2)" style="fill: #3f599f"/>
    <path d="M 284.563135 475.611883 
L 284.484466 440.296092 
L 301.026187 424.901676 
L 300.981561 460.022914 
z
" clip-path="url(#p8fbad540b2)" style="fill: #648fff"/>
    <path d="M 256.231701 466.578218 
L 272.814067 451.146073 
L 272.37025 356.905379 
L 255.449304 371.805529 
z
" clip-path="url(#p8fbad540b2)" style="fill: #324880"/>
    <path d="M 155.586363 455.254719 
L 152.791399 360.871876 
L 180.974648 369.483054 
L 183.227055 464.173178 
z
" clip-path="url(#p8fbad540b2)" style="fill: #324880"/>
    <path d="M 433.269245 440.644395 
L 448.094132 425.658094 
L 455.969811 181.930137 
L 440.446932 195.478229 
z
" clip-path="url(#p8fbad540b2)" style="fill: #324880"/>
    <path d="M 332.972226 429.648411 
L 334.930164 185.536333 
L 364.519638 193.366245 
L 361.093621 438.309089 
z
" clip-path="url(#p8fbad540b2)" style="fill: #324880"/>
    <path d="M 228.185802 457.635597 
L 256.231701 466.578218 
L 255.449304 371.805529 
L 226.84441 363.170552 
z
" clip-path="url(#p8fbad540b2)" style="fill: #648fff"/>
    <path d="M 137.934142 470.759351 
L 134.757053 375.843425 
L 152.791399 360.871876 
L 155.586363 455.254719 
z
" clip-path="url(#p8fbad540b2)" style="fill: #648fff"/>
    <path d="M 404.752013 431.960596 
L 433.269245 440.644395 
L 440.446932 195.478229 
L 410.419533 187.626331 
z
" clip-path="url(#p8fbad540b2)" style="fill: #648fff"/>
    <path d="M 317.115481 444.704077 
L 318.266084 199.150386 
L 334.930164 185.536333 
L 332.972226 429.648411 
z
" clip-path="url(#p8fbad540b2)" style="fill: #648fff"/>
    <path d="M 313.184488 484.737991 
L 329.434764 468.989794 
L 329.693176 433.7564 
L 313.322151 449.309245 
z
" clip-path="url(#p8fbad540b2)" style="fill: #324880"/>
    <path d="M 193.80906 489.005237 
L 211.148774 473.182312 
L 239.355828 482.283512 
L 222.178585 498.269271 
z
" clip-path="url(#p8fbad540b2)" style="fill: #3f599f"/>
    <path d="M 284.484466 440.296092 
L 313.322151 449.309245 
L 329.693176 433.7564 
L 301.026187 424.901676 
z
" clip-path="url(#p8fbad540b2)" style="fill: #577ddf"/>
    <path d="M 284.563135 475.611883 
L 313.184488 484.737991 
L 313.322151 449.309245 
L 284.484466 440.296092 
z
" clip-path="url(#p8fbad540b2)" style="fill: #648fff"/>
    <path d="M 358.178044 478.048092 
L 358.654626 442.702079 
L 387.915099 451.740121 
L 387.21586 487.199211 
z
" clip-path="url(#p8fbad540b2)" style="fill: #324880"/>
    <path d="M 226.84441 363.170552 
L 255.449304 371.805529 
L 272.37025 356.905379 
L 243.931576 348.42252 
z
" clip-path="url(#p8fbad540b2)" style="fill: #577ddf"/>
    <path d="M 165.729049 479.835743 
L 183.227055 464.173178 
L 180.974648 369.483054 
L 163.100554 384.610201 
z
" clip-path="url(#p8fbad540b2)" style="fill: #324880"/>
    <path d="M 342.100232 493.957968 
L 358.178044 478.048092 
L 387.21586 487.199211 
L 371.314932 503.273269 
z
" clip-path="url(#p8fbad540b2)" style="fill: #3f599f"/>
    <path d="M 345.402031 453.515861 
L 361.093621 438.309089 
L 364.519638 193.366245 
L 348.038535 207.12407 
z
" clip-path="url(#p8fbad540b2)" style="fill: #324880"/>
    <path d="M 342.100232 493.957968 
L 342.45871 458.415811 
L 358.654626 442.702079 
L 358.178044 478.048092 
z
" clip-path="url(#p8fbad540b2)" style="fill: #648fff"/>
    <path d="M 137.934142 470.759351 
L 165.729049 479.835743 
L 163.100554 384.610201 
L 134.757053 375.843425 
z
" clip-path="url(#p8fbad540b2)" style="fill: #648fff"/>
    <path d="M 317.115481 444.704077 
L 345.402031 453.515861 
L 348.038535 207.12407 
L 318.266084 199.150386 
z
" clip-path="url(#p8fbad540b2)" style="fill: #648fff"/>
    <path d="M 211.148774 473.182312 
L 209.450244 378.183556 
L 238.22276 386.97478 
L 239.355828 482.283512 
z
" clip-path="url(#p8fbad540b2)" style="fill: #324880"/>
    <path d="M 389.496736 447.056529 
L 394.420987 201.278685 
L 424.639168 209.274965 
L 418.185826 455.892043 
z
" clip-path="url(#p8fbad540b2)" style="fill: #324880"/>
    <path d="M 193.80906 489.005237 
L 191.74073 393.46874 
L 209.450244 378.183556 
L 211.148774 473.182312 
z
" clip-path="url(#p8fbad540b2)" style="fill: #648fff"/>
    <path d="M 351.295894 172.166024 
L 380.704133 179.856018 
L 396.599956 166.586763 
L 367.371214 159.032971 
z
" clip-path="url(#p8fbad540b2)" style="fill: #577ddf"/>
    <path d="M 373.974437 462.416695 
L 378.127681 215.182572 
L 394.420987 201.278685 
L 389.496736 447.056529 
z
" clip-path="url(#p8fbad540b2)" style="fill: #648fff"/>
    <path d="M 371.314932 503.273269 
L 387.21586 487.199211 
L 387.915099 451.740121 
L 371.898814 467.617249 
z
" clip-path="url(#p8fbad540b2)" style="fill: #324880"/>
    <path d="M 267.852612 491.478195 
L 267.646216 455.96647 
L 296.656131 465.142342 
L 296.643614 500.767809 
z
" clip-path="url(#p8fbad540b2)" style="fill: #324880"/>
    <path d="M 134.757053 375.843425 
L 163.100554 384.610201 
L 180.974648 369.483054 
L 152.791399 360.871876 
z
" clip-path="url(#p8fbad540b2)" style="fill: #577ddf"/>
    <path d="M 250.842125 507.629315 
L 267.852612 491.478195 
L 296.643614 500.767809 
L 279.804275 517.086869 
z
" clip-path="url(#p8fbad540b2)" style="fill: #3f599f"/>
    <path d="M 342.45871 458.415811 
L 371.898814 467.617249 
L 387.915099 451.740121 
L 358.654626 442.702079 
z
" clip-path="url(#p8fbad540b2)" style="fill: #577ddf"/>
    <path d="M 342.100232 493.957968 
L 371.314932 503.273269 
L 371.898814 467.617249 
L 342.45871 458.415811 
z
" clip-path="url(#p8fbad540b2)" style="fill: #648fff"/>
    <path d="M 250.842125 507.629315 
L 250.503391 471.920298 
L 267.646216 455.96647 
L 267.852612 491.478195 
z
" clip-path="url(#p8fbad540b2)" style="fill: #648fff"/>
    <path d="M 222.178585 498.269271 
L 239.355828 482.283512 
L 238.22276 386.97478 
L 220.682263 402.42049 
z
" clip-path="url(#p8fbad540b2)" style="fill: #324880"/>
    <path d="M 402.837053 471.407934 
L 418.185826 455.892043 
L 424.639168 209.274965 
L 408.538601 223.327252 
z
" clip-path="url(#p8fbad540b2)" style="fill: #324880"/>
    <path d="M 193.80906 489.005237 
L 222.178585 498.269271 
L 220.682263 402.42049 
L 191.74073 393.46874 
z
" clip-path="url(#p8fbad540b2)" style="fill: #648fff"/>
    <path d="M 373.974437 462.416695 
L 402.837053 471.407934 
L 408.538601 223.327252 
L 378.127681 215.182572 
z
" clip-path="url(#p8fbad540b2)" style="fill: #648fff"/>
    <path d="M 279.804275 517.086869 
L 296.643614 500.767809 
L 296.656131 465.142342 
L 279.68707 481.263335 
z
" clip-path="url(#p8fbad540b2)" style="fill: #324880"/>
    <path d="M 250.503391 471.920298 
L 279.68707 481.263335 
L 296.656131 465.142342 
L 267.646216 455.96647 
z
" clip-path="url(#p8fbad540b2)" style="fill: #577ddf"/>
    <path d="M 410.419533 187.626331 
L 440.446932 195.478229 
L 455.969811 181.930137 
L 426.131247 174.218745 
z
" clip-path="url(#p8fbad540b2)" style="fill: #577ddf"/>
    <path d="M 250.842125 507.629315 
L 279.804275 517.086869 
L 279.68707 481.263335 
L 250.503391 471.920298 
z
" clip-path="url(#p8fbad540b2)" style="fill: #648fff"/>
    <path d="M 325.733413 510.153832 
L 325.969428 474.414174 
L 355.590891 483.78348 
L 355.126686 519.637773 
z
" clip-path="url(#p8fbad540b2)" style="fill: #324880"/>
    <path d="M 191.74073 393.46874 
L 220.682263 402.42049 
L 238.22276 386.97478 
L 209.450244 378.183556 
z
" clip-path="url(#p8fbad540b2)" style="fill: #577ddf"/>
    <path d="M 309.069724 526.643466 
L 325.733413 510.153832 
L 355.126686 519.637773 
L 338.643263 536.300669 
z
" clip-path="url(#p8fbad540b2)" style="fill: #3f599f"/>
    <path d="M 309.069724 526.643466 
L 309.178736 490.704974 
L 325.969428 474.414174 
L 325.733413 510.153832 
z
" clip-path="url(#p8fbad540b2)" style="fill: #648fff"/>
    <path d="M 318.266084 199.150386 
L 348.038535 207.12407 
L 364.519638 193.366245 
L 334.930164 185.536333 
z
" clip-path="url(#p8fbad540b2)" style="fill: #577ddf"/>
    <path d="M 338.643263 536.300669 
L 355.126686 519.637773 
L 355.590891 483.78348 
L 338.983293 500.246783 
z
" clip-path="url(#p8fbad540b2)" style="fill: #324880"/>
    <path d="M 309.178736 490.704974 
L 338.983293 500.246783 
L 355.590891 483.78348 
L 325.969428 474.414174 
z
" clip-path="url(#p8fbad540b2)" style="fill: #577ddf"/>
    <path d="M 309.069724 526.643466 
L 338.643263 536.300669 
L 338.983293 500.246783 
L 309.178736 490.704974 
z
" clip-path="url(#p8fbad540b2)" style="fill: #648fff"/>
    <path d="M 378.127681 215.182572 
L 408.538601 223.327252 
L 424.639168 209.274965 
L 394.420987 201.278685 
z
" clip-path="url(#p8fbad540b2)" style="fill: #577ddf"/>
   </g>
   <g id="text_15">
    <!-- Real Amplitude (ρ) -->
    <g transform="translate(190.023516 51.6) scale(0.21 -0.21)">
     <defs>
      <path id="DejaVuSans-52" d="M 2841 2188 
Q 3044 2119 3236 1894 
Q 3428 1669 3622 1275 
L 4263 0 
L 3584 0 
L 2988 1197 
Q 2756 1666 2539 1819 
Q 2322 1972 1947 1972 
L 1259 1972 
L 1259 0 
L 628 0 
L 628 4666 
L 2053 4666 
Q 2853 4666 3247 4331 
Q 3641 3997 3641 3322 
Q 3641 2881 3436 2590 
Q 3231 2300 2841 2188 
z
M 1259 4147 
L 1259 2491 
L 2053 2491 
Q 2509 2491 2742 2702 
Q 2975 2913 2975 3322 
Q 2975 3731 2742 3939 
Q 2509 4147 2053 4147 
L 1259 4147 
z
" transform="scale(0.015625)"/>
      <path id="DejaVuSans-65" d="M 3597 1894 
L 3597 1613 
L 953 1613 
Q 991 1019 1311 708 
Q 1631 397 2203 397 
Q 2534 397 2845 478 
Q 3156 559 3463 722 
L 3463 178 
Q 3153 47 2828 -22 
Q 2503 -91 2169 -91 
Q 1331 -91 842 396 
Q 353 884 353 1716 
Q 353 2575 817 3079 
Q 1281 3584 2069 3584 
Q 2775 3584 3186 3129 
Q 3597 2675 3597 1894 
z
M 3022 2063 
Q 3016 2534 2758 2815 
Q 2500 3097 2075 3097 
Q 1594 3097 1305 2825 
Q 1016 2553 972 2059 
L 3022 2063 
z
" transform="scale(0.015625)"/>
      <path id="DejaVuSans-61" d="M 2194 1759 
Q 1497 1759 1228 1600 
Q 959 1441 959 1056 
Q 959 750 1161 570 
Q 1363 391 1709 391 
Q 2188 391 2477 730 
Q 2766 1069 2766 1631 
L 2766 1759 
L 2194 1759 
z
M 3341 1997 
L 3341 0 
L 2766 0 
L 2766 531 
Q 2569 213 2275 61 
Q 1981 -91 1556 -91 
Q 1019 -91 701 211 
Q 384 513 384 1019 
Q 384 1609 779 1909 
Q 1175 2209 1959 2209 
L 2766 2209 
L 2766 2266 
Q 2766 2663 2505 2880 
Q 2244 3097 1772 3097 
Q 1472 3097 1187 3025 
Q 903 2953 641 2809 
L 641 3341 
Q 956 3463 1253 3523 
Q 1550 3584 1831 3584 
Q 2591 3584 2966 3190 
Q 3341 2797 3341 1997 
z
" transform="scale(0.015625)"/>
      <path id="DejaVuSans-6c" d="M 603 4863 
L 1178 4863 
L 1178 0 
L 603 0 
L 603 4863 
z
" transform="scale(0.015625)"/>
      <path id="DejaVuSans-20" transform="scale(0.015625)"/>
      <path id="DejaVuSans-41" d="M 2188 4044 
L 1331 1722 
L 3047 1722 
L 2188 4044 
z
M 1831 4666 
L 2547 4666 
L 4325 0 
L 3669 0 
L 3244 1197 
L 1141 1197 
L 716 0 
L 50 0 
L 1831 4666 
z
" transform="scale(0.015625)"/>
      <path id="DejaVuSans-6d" d="M 3328 2828 
Q 3544 3216 3844 3400 
Q 4144 3584 4550 3584 
Q 5097 3584 5394 3201 
Q 5691 2819 5691 2113 
L 5691 0 
L 5113 0 
L 5113 2094 
Q 5113 2597 4934 2840 
Q 4756 3084 4391 3084 
Q 3944 3084 3684 2787 
Q 3425 2491 3425 1978 
L 3425 0 
L 2847 0 
L 2847 2094 
Q 2847 2600 2669 2842 
Q 2491 3084 2119 3084 
Q 1678 3084 1418 2786 
Q 1159 2488 1159 1978 
L 1159 0 
L 581 0 
L 581 3500 
L 1159 3500 
L 1159 2956 
Q 1356 3278 1631 3431 
Q 1906 3584 2284 3584 
Q 2666 3584 2933 3390 
Q 3200 3197 3328 2828 
z
" transform="scale(0.015625)"/>
      <path id="DejaVuSans-70" d="M 1159 525 
L 1159 -1331 
L 581 -1331 
L 581 3500 
L 1159 3500 
L 1159 2969 
Q 1341 3281 1617 3432 
Q 1894 3584 2278 3584 
Q 2916 3584 3314 3078 
Q 3713 2572 3713 1747 
Q 3713 922 3314 415 
Q 2916 -91 2278 -91 
Q 1894 -91 1617 61 
Q 1341 213 1159 525 
z
M 3116 1747 
Q 3116 2381 2855 2742 
Q 2594 3103 2138 3103 
Q 1681 3103 1420 2742 
Q 1159 2381 1159 1747 
Q 1159 1113 1420 752 
Q 1681 391 2138 391 
Q 2594 391 2855 752 
Q 3116 1113 3116 1747 
z
" transform="scale(0.015625)"/>
      <path id="DejaVuSans-69" d="M 603 3500 
L 1178 3500 
L 1178 0 
L 603 0 
L 603 3500 
z
M 603 4863 
L 1178 4863 
L 1178 4134 
L 603 4134 
L 603 4863 
z
" transform="scale(0.015625)"/>
      <path id="DejaVuSans-74" d="M 1172 4494 
L 1172 3500 
L 2356 3500 
L 2356 3053 
L 1172 3053 
L 1172 1153 
Q 1172 725 1289 603 
Q 1406 481 1766 481 
L 2356 481 
L 2356 0 
L 1766 0 
Q 1100 0 847 248 
Q 594 497 594 1153 
L 594 3053 
L 172 3053 
L 172 3500 
L 594 3500 
L 594 4494 
L 1172 4494 
z
" transform="scale(0.015625)"/>
      <path id="DejaVuSans-75" d="M 544 1381 
L 544 3500 
L 1119 3500 
L 1119 1403 
Q 1119 906 1312 657 
Q 1506 409 1894 409 
Q 2359 409 2629 706 
Q 2900 1003 2900 1516 
L 2900 3500 
L 3475 3500 
L 3475 0 
L 2900 0 
L 2900 538 
Q 2691 219 2414 64 
Q 2138 -91 1772 -91 
Q 1169 -91 856 284 
Q 544 659 544 1381 
z
M 1991 3584 
L 1991 3584 
z
" transform="scale(0.015625)"/>
      <path id="DejaVuSans-64" d="M 2906 2969 
L 2906 4863 
L 3481 4863 
L 3481 0 
L 2906 0 
L 2906 525 
Q 2725 213 2448 61 
Q 2172 -91 1784 -91 
Q 1150 -91 751 415 
Q 353 922 353 1747 
Q 353 2572 751 3078 
Q 1150 3584 1784 3584 
Q 2172 3584 2448 3432 
Q 2725 3281 2906 2969 
z
M 947 1747 
Q 947 1113 1208 752 
Q 1469 391 1925 391 
Q 2381 391 2643 752 
Q 2906 1113 2906 1747 
Q 2906 2381 2643 2742 
Q 2381 3103 1925 3103 
Q 1469 3103 1208 2742 
Q 947 2381 947 1747 
z
" transform="scale(0.015625)"/>
      <path id="DejaVuSans-28" d="M 1984 4856 
Q 1566 4138 1362 3434 
Q 1159 2731 1159 2009 
Q 1159 1288 1364 580 
Q 1569 -128 1984 -844 
L 1484 -844 
Q 1016 -109 783 600 
Q 550 1309 550 2009 
Q 550 2706 781 3412 
Q 1013 4119 1484 4856 
L 1984 4856 
z
" transform="scale(0.015625)"/>
      <path id="DejaVuSans-3c1" d="M 863 2875 
Q 1053 3194 1525 3475 
Q 1709 3584 2278 3584 
Q 2916 3584 3314 3078 
Q 3713 2572 3713 1747 
Q 3713 922 3314 415 
Q 2916 -91 2278 -91 
Q 1894 -91 1617 61 
Q 1341 213 1159 525 
L 1159 -1331 
L 581 -1331 
L 581 1716 
Q 581 2438 863 2875 
z
M 3116 1747 
Q 3116 2381 2855 2742 
Q 2594 3103 2138 3103 
Q 1681 3103 1420 2742 
Q 1159 2381 1159 1747 
Q 1159 1113 1420 752 
Q 1681 391 2138 391 
Q 2594 391 2855 752 
Q 3116 1113 3116 1747 
z
" transform="scale(0.015625)"/>
      <path id="DejaVuSans-29" d="M 513 4856 
L 1013 4856 
Q 1481 4119 1714 3412 
Q 1947 2706 1947 2009 
Q 1947 1309 1714 600 
Q 1481 -109 1013 -844 
L 513 -844 
Q 928 -128 1133 580 
Q 1338 1288 1338 2009 
Q 1338 2731 1133 3434 
Q 928 4138 513 4856 
z
" transform="scale(0.015625)"/>
     </defs>
     <use xlink:href="#DejaVuSans-52"/>
     <use xlink:href="#DejaVuSans-65" x="64.982422"/>
     <use xlink:href="#DejaVuSans-61" x="126.505859"/>
     <use xlink:href="#DejaVuSans-6c" x="187.785156"/>
     <use xlink:href="#DejaVuSans-20" x="215.568359"/>
     <use xlink:href="#DejaVuSans-41" x="247.355469"/>
     <use xlink:href="#DejaVuSans-6d" x="315.763672"/>
     <use xlink:href="#DejaVuSans-70" x="413.175781"/>
     <use xlink:href="#DejaVuSans-6c" x="476.652344"/>
     <use xlink:href="#DejaVuSans-69" x="504.435547"/>
     <use xlink:href="#DejaVuSans-74" x="532.21875"/>
     <use xlink:href="#DejaVuSans-75" x="571.427734"/>
     <use xlink:href="#DejaVuSans-64" x="634.806641"/>
     <use xlink:href="#DejaVuSans-65" x="698.283203"/>
     <use xlink:href="#DejaVuSans-20" x="759.806641"/>
     <use xlink:href="#DejaVuSans-28" x="791.59375"/>
     <use xlink:href="#DejaVuSans-3c1" x="830.607422"/>
     <use xlink:href="#DejaVuSans-29" x="894.083984"/>
    </g>
   </g>
  </g>
  <g id="patch_6">
   <path d="M 604.8 576 
L 1123.2 576 
L 1123.2 57.6 
L 604.8 57.6 
z
" style="fill: #ffffff"/>
  </g>
  <g id="pane3d_4">
   <g id="patch_7">
    <path d="M 706.07018 436.456468 
L 829.494133 330.550231 
L 827.743197 126.70673 
L 698.643358 223.613571 
" style="fill: #f2f2f2; opacity: 0.5; stroke: #f2f2f2; stroke-linejoin: miter"/>
   </g>
  </g>
  <g id="pane3d_5">
   <g id="patch_8">
    <path d="M 829.494133 330.550231 
L 1031.554898 390.069341 
L 1038.583588 181.103065 
L 827.743197 126.70673 
" style="fill: #e6e6e6; opacity: 0.5; stroke: #e6e6e6; stroke-linejoin: miter"/>
   </g>
  </g>
  <g id="pane3d_6">
   <g id="patch_9">
    <path d="M 706.07018 436.456468 
L 916.912731 504.076731 
L 1031.554898 390.069341 
L 829.494133 330.550231 
" style="fill: #ececec; opacity: 0.5; stroke: #ececec; stroke-linejoin: miter"/>
   </g>
  </g>
  <g id="grid3d_4">
   <g id="Line3DCollection_4">
    <path d="M 734.635886 445.617904 
L 856.925726 338.630493 
L 856.328796 134.081748 
" style="fill: none; stroke: #b0b0b0; stroke-width: 0.8"/>
    <path d="M 784.310046 461.549127 
L 904.58611 352.669358 
L 906.022474 146.902603 
" style="fill: none; stroke: #b0b0b0; stroke-width: 0.8"/>
    <path d="M 834.89502 477.772462 
L 953.066152 366.949661 
L 956.607663 159.953465 
" style="fill: none; stroke: #b0b0b0; stroke-width: 0.8"/>
    <path d="M 886.41609 494.296016 
L 1002.38718 381.477685 
L 1008.108569 173.24058 
" style="fill: none; stroke: #b0b0b0; stroke-width: 0.8"/>
   </g>
  </g>
  <g id="grid3d_5">
   <g id="Line3DCollection_5">
    <path d="M 717.757365 209.265931 
L 724.301379 420.812846 
L 933.880707 487.202708 
" style="fill: none; stroke: #b0b0b0; stroke-width: 0.8"/>
    <path d="M 749.704273 185.285468 
L 754.805664 394.638072 
L 962.24502 458.995448 
" style="fill: none; stroke: #b0b0b0; stroke-width: 0.8"/>
    <path d="M 780.65707 162.051218 
L 784.400054 369.24405 
L 989.731787 431.660877 
" style="fill: none; stroke: #b0b0b0; stroke-width: 0.8"/>
    <path d="M 810.661448 139.528886 
L 813.124663 344.596362 
L 1016.38111 405.159111 
" style="fill: none; stroke: #b0b0b0; stroke-width: 0.8"/>
   </g>
  </g>
  <g id="grid3d_6">
   <g id="Line3DCollection_6">
    <path d="M 1031.775349 383.51522 
L 829.439134 324.147281 
L 705.837511 429.788492 
" style="fill: none; stroke: #b0b0b0; stroke-width: 0.8"/>
    <path d="M 1032.953543 348.486959 
L 829.145284 289.937393 
L 704.593726 394.143256 
" style="fill: none; stroke: #b0b0b0; stroke-width: 0.8"/>
    <path d="M 1034.149133 312.941503 
L 828.84725 255.240373 
L 703.331067 357.957098 
" style="fill: none; stroke: #b0b0b0; stroke-width: 0.8"/>
    <path d="M 1035.362507 276.86731 
L 828.544942 220.045741 
L 702.049099 321.217612 
" style="fill: none; stroke: #b0b0b0; stroke-width: 0.8"/>
    <path d="M 1036.594066 240.252497 
L 828.238267 184.342716 
L 700.747378 283.912008 
" style="fill: none; stroke: #b0b0b0; stroke-width: 0.8"/>
    <path d="M 1037.84422 203.084817 
L 827.92713 148.120201 
L 699.425443 246.027101 
" style="fill: none; stroke: #b0b0b0; stroke-width: 0.8"/>
   </g>
  </g>
  <g id="axis3d_4">
   <g id="line2d_18">
    <path d="M 706.07018 436.456468 
L 916.912731 504.076731 
" style="fill: none; stroke: #000000; stroke-width: 0.8; stroke-linecap: square"/>
   </g>
   <g id="xtick_15">
    <g id="line2d_19">
     <path d="M 735.677227 444.706868 
L 732.549953 447.442819 
" style="fill: none; stroke: #000000; stroke-width: 0.8; stroke-linecap: square"/>
    </g>
    <g id="text_16">
     <!-- 00 -->
     <g transform="translate(707.351686 489.365693) rotate(-45) scale(0.21 -0.21)">
      <use xlink:href="#DejaVuSans-30"/>
      <use xlink:href="#DejaVuSans-30" x="63.623047"/>
     </g>
    </g>
   </g>
   <g id="xtick_16">
    <g id="line2d_20">
     <path d="M 785.334802 460.621468 
L 782.257306 463.407368 
" style="fill: none; stroke: #000000; stroke-width: 0.8; stroke-linecap: square"/>
    </g>
    <g id="text_17">
     <!-- 01 -->
     <g transform="translate(757.023931 505.435143) rotate(-45) scale(0.21 -0.21)">
      <use xlink:href="#DejaVuSans-30"/>
      <use xlink:href="#DejaVuSans-31" x="63.623047"/>
     </g>
    </g>
   </g>
   <g id="xtick_17">
    <g id="line2d_21">
     <path d="M 835.902405 476.82772 
L 832.877048 479.664949 
" style="fill: none; stroke: #000000; stroke-width: 0.8; stroke-linecap: square"/>
    </g>
    <g id="text_18">
     <!-- 10 -->
     <g transform="translate(807.60781 521.799516) rotate(-45) scale(0.21 -0.21)">
      <use xlink:href="#DejaVuSans-31"/>
      <use xlink:href="#DejaVuSans-30" x="63.623047"/>
     </g>
    </g>
   </g>
   <g id="xtick_18">
    <g id="line2d_22">
     <path d="M 887.405283 493.333715 
L 884.434531 496.223705 
" style="fill: none; stroke: #000000; stroke-width: 0.8; stroke-linecap: square"/>
    </g>
    <g id="text_19">
     <!-- 11 -->
     <g transform="translate(859.128654 538.467006) rotate(-45) scale(0.21 -0.21)">
      <use xlink:href="#DejaVuSans-31"/>
      <use xlink:href="#DejaVuSans-31" x="63.623047"/>
     </g>
    </g>
   </g>
  </g>
  <g id="axis3d_5">
   <g id="line2d_23">
    <path d="M 1031.554898 390.069341 
L 916.912731 504.076731 
" style="fill: none; stroke: #000000; stroke-width: 0.8; stroke-linecap: square"/>
   </g>
   <g id="xtick_19">
    <g id="line2d_24">
     <path d="M 932.140222 486.651363 
L 937.364886 488.306415 
" style="fill: none; stroke: #000000; stroke-width: 0.8; stroke-linecap: square"/>
    </g>
    <g id="text_20">
     <!-- 00 -->
     <g transform="translate(944.70027 499.207917) rotate(-337.5) scale(0.21 -0.21)">
      <use xlink:href="#DejaVuSans-30"/>
      <use xlink:href="#DejaVuSans-30" x="63.623047"/>
     </g>
    </g>
   </g>
   <g id="xtick_20">
    <g id="line2d_25">
     <path d="M 960.5233 458.46129 
L 965.691587 460.064734 
" style="fill: none; stroke: #000000; stroke-width: 0.8; stroke-linecap: square"/>
    </g>
    <g id="text_21">
     <!-- 01 -->
     <g transform="translate(972.913817 470.822876) rotate(-337.5) scale(0.21 -0.21)">
      <use xlink:href="#DejaVuSans-30"/>
      <use xlink:href="#DejaVuSans-31" x="63.623047"/>
     </g>
    </g>
   </g>
   <g id="xtick_21">
    <g id="line2d_26">
     <path d="M 988.028511 431.143114 
L 993.141381 432.697327 
" style="fill: none; stroke: #000000; stroke-width: 0.8; stroke-linecap: square"/>
    </g>
    <g id="text_22">
     <!-- 10 -->
     <g transform="translate(1000.254695 443.315808) rotate(-337.5) scale(0.21 -0.21)">
      <use xlink:href="#DejaVuSans-31"/>
      <use xlink:href="#DejaVuSans-30" x="63.623047"/>
     </g>
    </g>
   </g>
   <g id="xtick_22">
    <g id="line2d_27">
     <path d="M 1014.695964 404.657001 
L 1019.754368 406.164215 
" style="fill: none; stroke: #000000; stroke-width: 0.8; stroke-linecap: square"/>
    </g>
    <g id="text_23">
     <!-- 11 -->
     <g transform="translate(1026.762776 416.646599) rotate(-337.5) scale(0.21 -0.21)">
      <use xlink:href="#DejaVuSans-31"/>
      <use xlink:href="#DejaVuSans-31" x="63.623047"/>
     </g>
    </g>
   </g>
  </g>
  <g id="axis3d_6">
   <g id="line2d_28">
    <path d="M 1031.554898 390.069341 
L 1038.583588 181.103065 
" style="fill: none; stroke: #000000; stroke-width: 0.8; stroke-linecap: square"/>
   </g>
   <g id="xtick_23">
    <g id="line2d_29">
     <path d="M 1030.09827 383.023145 
L 1035.132437 384.500231 
" style="fill: none; stroke: #000000; stroke-width: 0.8; stroke-linecap: square"/>
    </g>
    <g id="text_24">
     <!-- −0.2 -->
     <g transform="translate(1045.272926 377.231631) scale(0.21 -0.21)">
      <defs>
       <path id="DejaVuSans-2212" d="M 678 2272 
L 4684 2272 
L 4684 1741 
L 678 1741 
L 678 2272 
z
" transform="scale(0.015625)"/>
      </defs>
      <use xlink:href="#DejaVuSans-2212"/>
      <use xlink:href="#DejaVuSans-30" x="83.789062"/>
      <use xlink:href="#DejaVuSans-2e" x="147.412109"/>
      <use xlink:href="#DejaVuSans-32" x="179.199219"/>
     </g>
    </g>
   </g>
   <g id="xtick_24">
    <g id="line2d_30">
     <path d="M 1031.263832 348.001543 
L 1036.335938 349.458646 
" style="fill: none; stroke: #000000; stroke-width: 0.8; stroke-linecap: square"/>
    </g>
    <g id="text_25">
     <!-- −0.1 -->
     <g transform="translate(1046.548579 342.229314) scale(0.21 -0.21)">
      <use xlink:href="#DejaVuSans-2212"/>
      <use xlink:href="#DejaVuSans-30" x="83.789062"/>
      <use xlink:href="#DejaVuSans-2e" x="147.412109"/>
      <use xlink:href="#DejaVuSans-31" x="179.199219"/>
     </g>
    </g>
   </g>
   <g id="xtick_25">
    <g id="line2d_31">
     <path d="M 1032.446598 312.462997 
L 1037.55722 313.899363 
" style="fill: none; stroke: #000000; stroke-width: 0.8; stroke-linecap: square"/>
    </g>
    <g id="text_26">
     <!-- 0.0 -->
     <g transform="translate(1047.843045 306.710779) scale(0.21 -0.21)">
      <use xlink:href="#DejaVuSans-30"/>
      <use xlink:href="#DejaVuSans-2e" x="63.623047"/>
      <use xlink:href="#DejaVuSans-30" x="95.410156"/>
     </g>
    </g>
   </g>
   <g id="xtick_26">
    <g id="line2d_32">
     <path d="M 1033.646953 276.395975 
L 1038.79668 277.810823 
" style="fill: none; stroke: #000000; stroke-width: 0.8; stroke-linecap: square"/>
    </g>
    <g id="text_27">
     <!-- 0.1 -->
     <g transform="translate(1049.156744 270.664521) scale(0.21 -0.21)">
      <use xlink:href="#DejaVuSans-30"/>
      <use xlink:href="#DejaVuSans-2e" x="63.623047"/>
      <use xlink:href="#DejaVuSans-31" x="95.410156"/>
     </g>
    </g>
   </g>
   <g id="xtick_27">
    <g id="line2d_33">
     <path d="M 1034.865291 239.788601 
L 1040.054725 241.181123 
" style="fill: none; stroke: #000000; stroke-width: 0.8; stroke-linecap: square"/>
    </g>
    <g id="text_28">
     <!-- 0.2 -->
     <g transform="translate(1050.490108 234.07869) scale(0.21 -0.21)">
      <use xlink:href="#DejaVuSans-30"/>
      <use xlink:href="#DejaVuSans-2e" x="63.623047"/>
      <use xlink:href="#DejaVuSans-32" x="95.410156"/>
     </g>
    </g>
   </g>
   <g id="xtick_28">
    <g id="line2d_34">
     <path d="M 1036.10202 202.62864 
L 1041.331778 203.997998 
" style="fill: none; stroke: #000000; stroke-width: 0.8; stroke-linecap: square"/>
    </g>
    <g id="text_29">
     <!-- 0.3 -->
     <g transform="translate(1051.843581 196.941081) scale(0.21 -0.21)">
      <use xlink:href="#DejaVuSans-30"/>
      <use xlink:href="#DejaVuSans-2e" x="63.623047"/>
      <use xlink:href="#DejaVuSans-33" x="95.410156"/>
     </g>
    </g>
   </g>
  </g>
  <g id="axes_2">
   <g id="Poly3DCollection_2">
    <path d="M 821.791079 355.411799 
L 845.612317 362.544934 
L 859.572276 350.22848 
L 835.866748 343.199915 
z
" clip-path="url(#p0a18c4cf48)" style="fill: #577ddf"/>
    <path d="M 835.314879 267.498212 
L 835.866748 343.199915 
L 859.572276 350.22848 
L 859.391937 274.31033 
z
" clip-path="url(#p0a18c4cf48)" style="fill: #648fff"/>
    <path d="M 821.012338 279.334611 
L 821.791079 355.411799 
L 835.866748 343.199915 
L 835.314879 267.498212 
z
" clip-path="url(#p0a18c4cf48)" style="fill: #324880"/>
    <path d="M 869.638733 369.739508 
L 893.872991 376.99632 
L 907.593953 364.466656 
L 883.480474 357.317135 
z
" clip-path="url(#p0a18c4cf48)" style="fill: #577ddf"/>
    <path d="M 845.20876 286.249692 
L 859.391937 274.31033 
L 859.572276 350.22848 
L 845.612317 362.544934 
z
" clip-path="url(#p0a18c4cf48)" style="fill: #648fff"/>
    <path d="M 821.012338 279.334611 
L 845.20876 286.249692 
L 845.612317 362.544934 
L 821.791079 355.411799 
z
" clip-path="url(#p0a18c4cf48)" style="fill: #324880"/>
    <path d="M 883.678103 281.181611 
L 883.480474 357.317135 
L 907.593953 364.466656 
L 908.176113 288.11283 
z
" clip-path="url(#p0a18c4cf48)" style="fill: #648fff"/>
    <path d="M 869.616919 293.225286 
L 869.638733 369.739508 
L 883.480474 357.317135 
L 883.678103 281.181611 
z
" clip-path="url(#p0a18c4cf48)" style="fill: #324880"/>
    <path d="M 793.005775 380.385588 
L 817.060907 387.734988 
L 831.443436 375.045713 
L 807.505663 367.805657 
z
" clip-path="url(#p0a18c4cf48)" style="fill: #577ddf"/>
    <path d="M 821.012338 279.334611 
L 835.314879 267.498212 
L 859.391937 274.31033 
L 845.20876 286.249692 
z
" clip-path="url(#p0a18c4cf48)" style="fill: #3f599f"/>
    <path d="M 894.239606 300.262189 
L 908.176113 288.11283 
L 907.593953 364.466656 
L 893.872991 376.99632 
z
" clip-path="url(#p0a18c4cf48)" style="fill: #648fff"/>
    <path d="M 806.493271 291.350202 
L 807.505663 367.805657 
L 831.443436 375.045713 
L 830.809921 298.370598 
z
" clip-path="url(#p0a18c4cf48)" style="fill: #648fff"/>
    <path d="M 869.616919 293.225286 
L 894.239606 300.262189 
L 893.872991 376.99632 
L 869.638733 369.739508 
z
" clip-path="url(#p0a18c4cf48)" style="fill: #324880"/>
    <path d="M 791.752723 303.549084 
L 793.005775 380.385588 
L 807.505663 367.805657 
L 806.493271 291.350202 
z
" clip-path="url(#p0a18c4cf48)" style="fill: #324880"/>
    <path d="M 841.326371 395.148648 
L 865.804936 402.627416 
L 879.944894 389.715135 
L 855.588941 382.348599 
z
" clip-path="url(#p0a18c4cf48)" style="fill: #577ddf"/>
    <path d="M 869.616919 293.225286 
L 883.678103 281.181611 
L 908.176113 288.11283 
L 894.239606 300.262189 
z
" clip-path="url(#p0a18c4cf48)" style="fill: #3f599f"/>
    <path d="M 816.190464 310.67722 
L 830.809921 298.370598 
L 831.443436 375.045713 
L 817.060907 387.734988 
z
" clip-path="url(#p0a18c4cf48)" style="fill: #648fff"/>
    <path d="M 791.752723 303.549084 
L 816.190464 310.67722 
L 817.060907 387.734988 
L 793.005775 380.385588 
z
" clip-path="url(#p0a18c4cf48)" style="fill: #324880"/>
    <path d="M 855.340985 305.452897 
L 855.588941 382.348599 
L 879.944894 389.715135 
L 880.089312 312.597922 
z
" clip-path="url(#p0a18c4cf48)" style="fill: #648fff"/>
    <path d="M 932.88875 295.104772 
L 932.88875 295.104772 
L 957.818848 302.158241 
L 957.818848 302.158241 
z
" clip-path="url(#p0a18c4cf48)" style="fill: #648fff"/>
    <path d="M 840.845345 317.868692 
L 841.326371 395.148648 
L 855.588941 382.348599 
L 855.340985 305.452897 
z
" clip-path="url(#p0a18c4cf48)" style="fill: #324880"/>
    <path d="M 791.752723 303.549084 
L 806.493271 291.350202 
L 830.809921 298.370598 
L 816.190464 310.67722 
z
" clip-path="url(#p0a18c4cf48)" style="fill: #3f599f"/>
    <path d="M 919.079662 307.361215 
L 919.079662 307.361215 
L 932.88875 295.104772 
L 932.88875 295.104772 
z
" clip-path="url(#p0a18c4cf48)" style="fill: #324880"/>
    <path d="M 919.079662 307.361215 
L 932.88875 295.104772 
L 957.818848 302.158241 
L 944.139979 314.523188 
z
" clip-path="url(#p0a18c4cf48)" style="fill: #3f599f"/>
    <path d="M 919.079662 307.361215 
L 944.139979 314.523188 
L 957.818848 302.158241 
L 932.88875 295.104772 
z
" clip-path="url(#p0a18c4cf48)" style="fill: #577ddf"/>
    <path d="M 865.720272 325.124349 
L 880.089312 312.597922 
L 879.944894 389.715135 
L 865.804936 402.627416 
z
" clip-path="url(#p0a18c4cf48)" style="fill: #648fff"/>
    <path d="M 944.139979 314.523188 
L 957.818848 302.158241 
L 957.818848 302.158241 
L 944.139979 314.523188 
z
" clip-path="url(#p0a18c4cf48)" style="fill: #648fff"/>
    <path d="M 840.845345 317.868692 
L 865.720272 325.124349 
L 865.804936 402.627416 
L 841.326371 395.148648 
z
" clip-path="url(#p0a18c4cf48)" style="fill: #324880"/>
    <path d="M 919.079662 307.361215 
L 944.139979 314.523188 
L 944.139979 314.523188 
L 919.079662 307.361215 
z
" clip-path="url(#p0a18c4cf48)" style="fill: #324880"/>
    <path d="M 840.845345 317.868692 
L 855.340985 305.452897 
L 880.089312 312.597922 
L 865.720272 325.124349 
z
" clip-path="url(#p0a18c4cf48)" style="fill: #3f599f"/>
    <path d="M 776.785588 315.935483 
L 776.785588 315.935483 
L 801.345279 323.173858 
L 801.345279 323.173858 
z
" clip-path="url(#p0a18c4cf48)" style="fill: #648fff"/>
    <path d="M 761.5866 328.513758 
L 761.5866 328.513758 
L 776.785588 315.935483 
L 776.785588 315.935483 
z
" clip-path="url(#p0a18c4cf48)" style="fill: #324880"/>
    <path d="M 761.5866 328.513758 
L 776.785588 315.935483 
L 801.345279 323.173858 
L 786.269098 335.864949 
z
" clip-path="url(#p0a18c4cf48)" style="fill: #3f599f"/>
    <path d="M 761.5866 328.513758 
L 786.269098 335.864949 
L 801.345279 323.173858 
L 776.785588 315.935483 
z
" clip-path="url(#p0a18c4cf48)" style="fill: #577ddf"/>
    <path d="M 786.269098 335.864949 
L 801.345279 323.173858 
L 801.345279 323.173858 
L 786.269098 335.864949 
z
" clip-path="url(#p0a18c4cf48)" style="fill: #648fff"/>
    <path d="M 761.5866 328.513758 
L 786.269098 335.864949 
L 786.269098 335.864949 
L 761.5866 328.513758 
z
" clip-path="url(#p0a18c4cf48)" style="fill: #324880"/>
   </g>
   <g id="Poly3DCollection_3">
    <path d="M 710.127394 357.032297 
L 915.74081 419.926289 
L 1027.708067 313.817961 
L 830.454704 258.286916 
z
" clip-path="url(#p0a18c4cf48)" style="fill-opacity: 0.25"/>
   </g>
   <g id="Poly3DCollection_4">
    <path d="M 982.969289 309.274051 
L 982.969289 309.274051 
L 1008.343009 316.453034 
L 1008.343009 316.453034 
z
" clip-path="url(#p0a18c4cf48)" style="fill: #324880"/>
    <path d="M 969.423499 321.748951 
L 969.423499 321.748951 
L 982.969289 309.274051 
L 982.969289 309.274051 
z
" clip-path="url(#p0a18c4cf48)" style="fill: #648fff"/>
    <path d="M 969.423499 321.748951 
L 982.969289 309.274051 
L 1008.343009 316.453034 
L 994.933218 329.039358 
z
" clip-path="url(#p0a18c4cf48)" style="fill: #3f599f"/>
    <path d="M 969.423499 321.748951 
L 994.933218 329.039358 
L 1008.343009 316.453034 
L 982.969289 309.274051 
z
" clip-path="url(#p0a18c4cf48)" style="fill: #577ddf"/>
    <path d="M 994.933218 329.039358 
L 1008.343009 316.453034 
L 1008.343009 316.453034 
L 994.933218 329.039358 
z
" clip-path="url(#p0a18c4cf48)" style="fill: #324880"/>
    <path d="M 905.0578 319.806509 
L 905.0578 319.806509 
L 930.2494 327.07951 
L 930.2494 327.07951 
z
" clip-path="url(#p0a18c4cf48)" style="fill: #324880"/>
    <path d="M 969.423499 321.748951 
L 994.933218 329.039358 
L 994.933218 329.039358 
L 969.423499 321.748951 
z
" clip-path="url(#p0a18c4cf48)" style="fill: #648fff"/>
    <path d="M 890.818206 332.445054 
L 890.818206 332.445054 
L 905.0578 319.806509 
L 905.0578 319.806509 
z
" clip-path="url(#p0a18c4cf48)" style="fill: #648fff"/>
    <path d="M 890.818206 332.445054 
L 905.0578 319.806509 
L 930.2494 327.07951 
L 916.142157 339.831684 
z
" clip-path="url(#p0a18c4cf48)" style="fill: #3f599f"/>
    <path d="M 890.818206 332.445054 
L 916.142157 339.831684 
L 930.2494 327.07951 
L 905.0578 319.806509 
z
" clip-path="url(#p0a18c4cf48)" style="fill: #577ddf"/>
    <path d="M 916.142157 339.831684 
L 930.2494 327.07951 
L 930.2494 327.07951 
L 916.142157 339.831684 
z
" clip-path="url(#p0a18c4cf48)" style="fill: #324880"/>
    <path d="M 826.124887 330.477048 
L 826.124887 330.477048 
L 851.127376 337.845926 
L 851.127376 337.845926 
z
" clip-path="url(#p0a18c4cf48)" style="fill: #324880"/>
    <path d="M 890.818206 332.445054 
L 916.142157 339.831684 
L 916.142157 339.831684 
L 890.818206 332.445054 
z
" clip-path="url(#p0a18c4cf48)" style="fill: #648fff"/>
    <path d="M 811.174339 343.282479 
L 811.174339 343.282479 
L 826.124887 330.477048 
L 826.124887 330.477048 
z
" clip-path="url(#p0a18c4cf48)" style="fill: #648fff"/>
    <path d="M 955.667117 334.417793 
L 955.667117 334.417793 
L 981.314009 341.82224 
L 981.314009 341.82224 
z
" clip-path="url(#p0a18c4cf48)" style="fill: #324880"/>
    <path d="M 811.174339 343.282479 
L 826.124887 330.477048 
L 851.127376 337.845926 
L 836.305351 350.767251 
z
" clip-path="url(#p0a18c4cf48)" style="fill: #3f599f"/>
    <path d="M 811.174339 343.282479 
L 836.305351 350.767251 
L 851.127376 337.845926 
L 826.124887 330.477048 
z
" clip-path="url(#p0a18c4cf48)" style="fill: #577ddf"/>
    <path d="M 941.695194 347.285136 
L 941.695194 347.285136 
L 955.667117 334.417793 
L 955.667117 334.417793 
z
" clip-path="url(#p0a18c4cf48)" style="fill: #648fff"/>
    <path d="M 836.305351 350.767251 
L 851.127376 337.845926 
L 851.127376 337.845926 
L 836.305351 350.767251 
z
" clip-path="url(#p0a18c4cf48)" style="fill: #324880"/>
    <path d="M 941.695194 347.285136 
L 955.667117 334.417793 
L 981.314009 341.82224 
L 967.480439 354.806319 
z
" clip-path="url(#p0a18c4cf48)" style="fill: #3f599f"/>
    <path d="M 941.695194 347.285136 
L 967.480439 354.806319 
L 981.314009 341.82224 
L 955.667117 334.417793 
z
" clip-path="url(#p0a18c4cf48)" style="fill: #577ddf"/>
    <path d="M 746.150331 341.2884 
L 746.150331 341.2884 
L 770.956487 348.755066 
L 770.956487 348.755066 
z
" clip-path="url(#p0a18c4cf48)" style="fill: #324880"/>
    <path d="M 811.174339 343.282479 
L 836.305351 350.767251 
L 836.305351 350.767251 
L 811.174339 343.282479 
z
" clip-path="url(#p0a18c4cf48)" style="fill: #648fff"/>
    <path d="M 730.471179 354.264046 
L 730.471179 354.264046 
L 746.150331 341.2884 
L 746.150331 341.2884 
z
" clip-path="url(#p0a18c4cf48)" style="fill: #648fff"/>
    <path d="M 967.480439 354.806319 
L 981.314009 341.82224 
L 981.314009 341.82224 
L 967.480439 354.806319 
z
" clip-path="url(#p0a18c4cf48)" style="fill: #324880"/>
    <path d="M 941.695194 347.285136 
L 967.480439 354.806319 
L 967.480439 354.806319 
L 941.695194 347.285136 
z
" clip-path="url(#p0a18c4cf48)" style="fill: #648fff"/>
    <path d="M 730.471179 354.264046 
L 746.150331 341.2884 
L 770.956487 348.755066 
L 755.40184 361.848928 
z
" clip-path="url(#p0a18c4cf48)" style="fill: #3f599f"/>
    <path d="M 730.471179 354.264046 
L 755.40184 361.848928 
L 770.956487 348.755066 
L 746.150331 341.2884 
z
" clip-path="url(#p0a18c4cf48)" style="fill: #577ddf"/>
    <path d="M 755.40184 361.848928 
L 770.956487 348.755066 
L 770.956487 348.755066 
L 755.40184 361.848928 
z
" clip-path="url(#p0a18c4cf48)" style="fill: #324880"/>
    <path d="M 861.665218 358.320182 
L 876.355769 345.281385 
L 901.813142 352.784329 
L 887.257082 365.942209 
z
" clip-path="url(#p0a18c4cf48)" style="fill: #3f599f"/>
    <path d="M 730.471179 354.264046 
L 755.40184 361.848928 
L 755.40184 361.848928 
L 730.471179 354.264046 
z
" clip-path="url(#p0a18c4cf48)" style="fill: #648fff"/>
    <path d="M 795.988265 356.289643 
L 795.988265 356.289643 
L 821.248758 363.893063 
L 821.248758 363.893063 
z
" clip-path="url(#p0a18c4cf48)" style="fill: #324880"/>
    <path d="M 780.561056 369.503344 
L 780.561056 369.503344 
L 795.988265 356.289643 
L 795.988265 356.289643 
z
" clip-path="url(#p0a18c4cf48)" style="fill: #648fff"/>
    <path d="M 876.355769 345.281385 
L 876.445426 264.546048 
L 902.33177 271.802745 
L 901.813142 352.784329 
z
" clip-path="url(#p0a18c4cf48)" style="fill: #324880"/>
    <path d="M 861.665218 358.320182 
L 861.50745 277.157619 
L 876.445426 264.546048 
L 876.355769 345.281385 
z
" clip-path="url(#p0a18c4cf48)" style="fill: #648fff"/>
    <path d="M 780.561056 369.503344 
L 795.988265 356.289643 
L 821.248758 363.893063 
L 805.951983 377.228257 
z
" clip-path="url(#p0a18c4cf48)" style="fill: #3f599f"/>
    <path d="M 780.561056 369.503344 
L 805.951983 377.228257 
L 821.248758 363.893063 
L 795.988265 356.289643 
z
" clip-path="url(#p0a18c4cf48)" style="fill: #577ddf"/>
    <path d="M 805.951983 377.228257 
L 821.248758 363.893063 
L 821.248758 363.893063 
L 805.951983 377.228257 
z
" clip-path="url(#p0a18c4cf48)" style="fill: #324880"/>
    <path d="M 913.084139 373.634284 
L 927.502624 360.355683 
L 953.427406 367.996385 
L 939.149647 381.397377 
z
" clip-path="url(#p0a18c4cf48)" style="fill: #3f599f"/>
    <path d="M 780.561056 369.503344 
L 805.951983 377.228257 
L 805.951983 377.228257 
L 780.561056 369.503344 
z
" clip-path="url(#p0a18c4cf48)" style="fill: #648fff"/>
    <path d="M 887.257082 365.942209 
L 901.813142 352.784329 
L 902.33177 271.802745 
L 887.532872 284.531448 
z
" clip-path="url(#p0a18c4cf48)" style="fill: #324880"/>
    <path d="M 861.665218 358.320182 
L 887.257082 365.942209 
L 887.532872 284.531448 
L 861.50745 277.157619 
z
" clip-path="url(#p0a18c4cf48)" style="fill: #648fff"/>
    <path d="M 927.502624 360.355683 
L 928.458127 279.126725 
L 954.827851 286.518928 
L 953.427406 367.996385 
z
" clip-path="url(#p0a18c4cf48)" style="fill: #324880"/>
    <path d="M 913.084139 373.634284 
L 913.801551 291.9742 
L 928.458127 279.126725 
L 927.502624 360.355683 
z
" clip-path="url(#p0a18c4cf48)" style="fill: #648fff"/>
    <path d="M 831.577838 385.024644 
L 846.741113 371.566274 
L 872.468538 379.310242 
L 857.441897 392.893502 
z
" clip-path="url(#p0a18c4cf48)" style="fill: #3f599f"/>
    <path d="M 861.50745 277.157619 
L 887.532872 284.531448 
L 902.33177 271.802745 
L 876.445426 264.546048 
z
" clip-path="url(#p0a18c4cf48)" style="fill: #577ddf"/>
    <path d="M 939.149647 381.397377 
L 953.427406 367.996385 
L 954.827851 286.518928 
L 940.316913 299.486844 
z
" clip-path="url(#p0a18c4cf48)" style="fill: #324880"/>
    <path d="M 846.741113 371.566274 
L 846.327941 289.973106 
L 872.493569 297.466927 
L 872.468538 379.310242 
z
" clip-path="url(#p0a18c4cf48)" style="fill: #324880"/>
    <path d="M 913.084139 373.634284 
L 939.149647 381.397377 
L 940.316913 299.486844 
L 913.801551 291.9742 
z
" clip-path="url(#p0a18c4cf48)" style="fill: #648fff"/>
    <path d="M 831.577838 385.024644 
L 830.900995 302.997496 
L 846.327941 289.973106 
L 846.741113 371.566274 
z
" clip-path="url(#p0a18c4cf48)" style="fill: #648fff"/>
    <path d="M 883.547496 400.835845 
L 898.4343 387.125949 
L 924.641726 395.014396 
L 909.898034 408.852709 
z
" clip-path="url(#p0a18c4cf48)" style="fill: #3f599f"/>
    <path d="M 913.801551 291.9742 
L 940.316913 299.486844 
L 954.827851 286.518928 
L 928.458127 279.126725 
z
" clip-path="url(#p0a18c4cf48)" style="fill: #577ddf"/>
    <path d="M 857.441897 392.893502 
L 872.468538 379.310242 
L 872.493569 297.466927 
L 857.207955 310.61426 
z
" clip-path="url(#p0a18c4cf48)" style="fill: #324880"/>
    <path d="M 831.577838 385.024644 
L 857.441897 392.893502 
L 857.207955 310.61426 
L 830.900995 302.997496 
z
" clip-path="url(#p0a18c4cf48)" style="fill: #648fff"/>
    <path d="M 898.4343 387.125949 
L 898.90576 305.031362 
L 925.568014 312.667416 
L 924.641726 395.014396 
z
" clip-path="url(#p0a18c4cf48)" style="fill: #324880"/>
    <path d="M 883.547496 400.835845 
L 883.764848 318.303389 
L 898.90576 305.031362 
L 898.4343 387.125949 
z
" clip-path="url(#p0a18c4cf48)" style="fill: #648fff"/>
    <path d="M 830.900995 302.997496 
L 857.207955 310.61426 
L 872.493569 297.466927 
L 846.327941 289.973106 
z
" clip-path="url(#p0a18c4cf48)" style="fill: #577ddf"/>
    <path d="M 909.898034 408.852709 
L 924.641726 395.014396 
L 925.568014 312.667416 
L 910.575255 326.065919 
z
" clip-path="url(#p0a18c4cf48)" style="fill: #324880"/>
    <path d="M 883.547496 400.835845 
L 909.898034 408.852709 
L 910.575255 326.065919 
L 883.764848 318.303389 
z
" clip-path="url(#p0a18c4cf48)" style="fill: #648fff"/>
    <path d="M 883.764848 318.303389 
L 910.575255 326.065919 
L 925.568014 312.667416 
L 898.90576 305.031362 
z
" clip-path="url(#p0a18c4cf48)" style="fill: #577ddf"/>
   </g>
   <g id="text_30">
    <!-- Imaginary Amplitude (ρ) -->
    <g transform="translate(735.696563 51.6) scale(0.21 -0.21)">
     <defs>
      <path id="DejaVuSans-49" d="M 628 4666 
L 1259 4666 
L 1259 0 
L 628 0 
L 628 4666 
z
" transform="scale(0.015625)"/>
      <path id="DejaVuSans-67" d="M 2906 1791 
Q 2906 2416 2648 2759 
Q 2391 3103 1925 3103 
Q 1463 3103 1205 2759 
Q 947 2416 947 1791 
Q 947 1169 1205 825 
Q 1463 481 1925 481 
Q 2391 481 2648 825 
Q 2906 1169 2906 1791 
z
M 3481 434 
Q 3481 -459 3084 -895 
Q 2688 -1331 1869 -1331 
Q 1566 -1331 1297 -1286 
Q 1028 -1241 775 -1147 
L 775 -588 
Q 1028 -725 1275 -790 
Q 1522 -856 1778 -856 
Q 2344 -856 2625 -561 
Q 2906 -266 2906 331 
L 2906 616 
Q 2728 306 2450 153 
Q 2172 0 1784 0 
Q 1141 0 747 490 
Q 353 981 353 1791 
Q 353 2603 747 3093 
Q 1141 3584 1784 3584 
Q 2172 3584 2450 3431 
Q 2728 3278 2906 2969 
L 2906 3500 
L 3481 3500 
L 3481 434 
z
" transform="scale(0.015625)"/>
      <path id="DejaVuSans-6e" d="M 3513 2113 
L 3513 0 
L 2938 0 
L 2938 2094 
Q 2938 2591 2744 2837 
Q 2550 3084 2163 3084 
Q 1697 3084 1428 2787 
Q 1159 2491 1159 1978 
L 1159 0 
L 581 0 
L 581 3500 
L 1159 3500 
L 1159 2956 
Q 1366 3272 1645 3428 
Q 1925 3584 2291 3584 
Q 2894 3584 3203 3211 
Q 3513 2838 3513 2113 
z
" transform="scale(0.015625)"/>
      <path id="DejaVuSans-72" d="M 2631 2963 
Q 2534 3019 2420 3045 
Q 2306 3072 2169 3072 
Q 1681 3072 1420 2755 
Q 1159 2438 1159 1844 
L 1159 0 
L 581 0 
L 581 3500 
L 1159 3500 
L 1159 2956 
Q 1341 3275 1631 3429 
Q 1922 3584 2338 3584 
Q 2397 3584 2469 3576 
Q 2541 3569 2628 3553 
L 2631 2963 
z
" transform="scale(0.015625)"/>
      <path id="DejaVuSans-79" d="M 2059 -325 
Q 1816 -950 1584 -1140 
Q 1353 -1331 966 -1331 
L 506 -1331 
L 506 -850 
L 844 -850 
Q 1081 -850 1212 -737 
Q 1344 -625 1503 -206 
L 1606 56 
L 191 3500 
L 800 3500 
L 1894 763 
L 2988 3500 
L 3597 3500 
L 2059 -325 
z
" transform="scale(0.015625)"/>
     </defs>
     <use xlink:href="#DejaVuSans-49"/>
     <use xlink:href="#DejaVuSans-6d" x="29.492188"/>
     <use xlink:href="#DejaVuSans-61" x="126.904297"/>
     <use xlink:href="#DejaVuSans-67" x="188.183594"/>
     <use xlink:href="#DejaVuSans-69" x="251.660156"/>
     <use xlink:href="#DejaVuSans-6e" x="279.443359"/>
     <use xlink:href="#DejaVuSans-61" x="342.822266"/>
     <use xlink:href="#DejaVuSans-72" x="404.101562"/>
     <use xlink:href="#DejaVuSans-79" x="445.214844"/>
     <use xlink:href="#DejaVuSans-20" x="504.394531"/>
     <use xlink:href="#DejaVuSans-41" x="536.181641"/>
     <use xlink:href="#DejaVuSans-6d" x="604.589844"/>
     <use xlink:href="#DejaVuSans-70" x="702.001953"/>
     <use xlink:href="#DejaVuSans-6c" x="765.478516"/>
     <use xlink:href="#DejaVuSans-69" x="793.261719"/>
     <use xlink:href="#DejaVuSans-74" x="821.044922"/>
     <use xlink:href="#DejaVuSans-75" x="860.253906"/>
     <use xlink:href="#DejaVuSans-64" x="923.632812"/>
     <use xlink:href="#DejaVuSans-65" x="987.109375"/>
     <use xlink:href="#DejaVuSans-20" x="1048.632812"/>
     <use xlink:href="#DejaVuSans-28" x="1080.419922"/>
     <use xlink:href="#DejaVuSans-3c1" x="1119.433594"/>
     <use xlink:href="#DejaVuSans-29" x="1182.910156"/>
    </g>
   </g>
  </g>
 </g>
 <defs>
  <clipPath id="p8fbad540b2">
   <rect x="28.8" y="57.6" width="518.4" height="518.4"/>
  </clipPath>
  <clipPath id="p0a18c4cf48">
   <rect x="604.8" y="57.6" width="518.4" height="518.4"/>
  </clipPath>
 </defs>
</svg>
