<?xml version="1.0" encoding="utf-8" standalone="no"?>
<!DOCTYPE svg PUBLIC "-//W3C//DTD SVG 1.1//EN"
  "http://www.w3.org/Graphics/SVG/1.1/DTD/svg11.dtd">
<svg xmlns:xlink="http://www.w3.org/1999/xlink" width="1152pt" height="576pt" viewBox="0 0 1152 576" xmlns="http://www.w3.org/2000/svg" version="1.1">
 <metadata>
  <rdf:RDF xmlns:dc="http://purl.org/dc/elements/1.1/" xmlns:cc="http://creativecommons.org/ns#" xmlns:rdf="http://www.w3.org/1999/02/22-rdf-syntax-ns#">
   <cc:Work>
    <dc:type rdf:resource="http://purl.org/dc/dcmitype/StillImage"/>
    <dc:date>2024-11-04T22:03:39.260434</dc:date>
    <dc:format>image/svg+xml</dc:format>
    <dc:creator>
     <cc:Agent>
      <dc:title>Matplotlib v3.9.2, https://matplotlib.org/</dc:title>
     </cc:Agent>
    </dc:creator>
   </cc:Work>
  </rdf:RDF>
 </metadata>
 <defs>
  <style type="text/css">*{stroke-linejoin: round; stroke-linecap: butt}</style>
 </defs>
 <g id="figure_1">
  <g id="patch_1">
   <path d="M 0 576 
L 1152 576 
L 1152 0 
L 0 0 
z
" style="fill: #ffffff"/>
  </g>
  <g id="patch_2">
   <path d="M 28.8 576 
L 547.2 576 
L 547.2 57.6 
L 28.8 57.6 
z
" style="fill: #ffffff"/>
  </g>
  <g id="pane3d_1">
   <g id="patch_3">
    <path d="M 130.07018 436.456468 
L 253.494133 330.550231 
L 251.743197 126.70673 
L 122.643358 223.613571 
" style="fill: #f2f2f2; opacity: 0.5; stroke: #f2f2f2; stroke-linejoin: miter"/>
   </g>
  </g>
  <g id="pane3d_2">
   <g id="patch_4">
    <path d="M 253.494133 330.550231 
L 455.554898 390.069341 
L 462.583588 181.103065 
L 251.743197 126.70673 
" style="fill: #e6e6e6; opacity: 0.5; stroke: #e6e6e6; stroke-linejoin: miter"/>
   </g>
  </g>
  <g id="pane3d_3">
   <g id="patch_5">
    <path d="M 130.07018 436.456468 
L 340.912731 504.076731 
L 455.554898 390.069341 
L 253.494133 330.550231 
" style="fill: #ececec; opacity: 0.5; stroke: #ececec; stroke-linejoin: miter"/>
   </g>
  </g>
  <g id="grid3d_1">
   <g id="Line3DCollection_1">
    <path d="M 148.107564 442.241318 
L 270.817434 335.65299 
L 269.793879 131.363764 
" style="fill: none; stroke: #b0b0b0; stroke-width: 0.8"/>
    <path d="M 204.73198 460.40159 
L 325.154862 351.658648 
L 326.443642 145.979273 
" style="fill: none; stroke: #b0b0b0; stroke-width: 0.8"/>
    <path d="M 262.543747 478.942662 
L 380.560935 367.979086 
L 384.255639 160.894634 
" style="fill: none; stroke: #b0b0b0; stroke-width: 0.8"/>
    <path d="M 321.580608 497.876639 
L 437.067491 384.623682 
L 443.266006 176.119173 
" style="fill: none; stroke: #b0b0b0; stroke-width: 0.8"/>
   </g>
  </g>
  <g id="grid3d_2">
   <g id="Line3DCollection_2">
    <path d="M 134.777648 214.505149 
L 141.642324 426.526772 
L 351.684419 493.364686 
" style="fill: none; stroke: #b0b0b0; stroke-width: 0.8"/>
    <path d="M 171.455878 186.973191 
L 176.657452 396.481386 
L 384.248591 460.980823 
" style="fill: none; stroke: #b0b0b0; stroke-width: 0.8"/>
    <path d="M 206.831169 160.419264 
L 210.480196 367.459145 
L 415.662622 429.740732 
" style="fill: none; stroke: #b0b0b0; stroke-width: 0.8"/>
    <path d="M 240.971738 134.792162 
L 243.170446 339.408664 
L 445.986389 399.584868 
" style="fill: none; stroke: #b0b0b0; stroke-width: 0.8"/>
   </g>
  </g>
  <g id="grid3d_3">
   <g id="Line3DCollection_3">
    <path d="M 456.429089 364.079222 
L 253.276068 305.163198 
L 129.147439 410.01192 
" style="fill: none; stroke: #b0b0b0; stroke-width: 0.8"/>
    <path d="M 457.701418 326.252276 
L 252.958838 268.23131 
L 127.803957 371.509521 
" style="fill: none; stroke: #b0b0b0; stroke-width: 0.8"/>
    <path d="M 458.993963 287.824294 
L 252.636747 230.733602 
L 126.438533 332.378274 
" style="fill: none; stroke: #b0b0b0; stroke-width: 0.8"/>
    <path d="M 460.30721 248.780837 
L 252.309684 192.656969 
L 125.050625 292.602646 
" style="fill: none; stroke: #b0b0b0; stroke-width: 0.8"/>
    <path d="M 461.641661 209.107 
L 251.977531 153.987901 
L 123.639671 252.166589 
" style="fill: none; stroke: #b0b0b0; stroke-width: 0.8"/>
   </g>
  </g>
  <g id="axis3d_1">
   <g id="line2d_1">
    <path d="M 130.07018 436.456468 
L 340.912731 504.076731 
" style="fill: none; stroke: #000000; stroke-width: 0.8; stroke-linecap: square"/>
   </g>
   <g id="xtick_1">
    <g id="line2d_2">
     <path d="M 149.15236 441.333787 
L 146.014717 444.059209 
" style="fill: none; stroke: #000000; stroke-width: 0.8; stroke-linecap: square"/>
    </g>
    <g id="text_1">
     <!-- 00 -->
     <g transform="translate(120.823877 485.959845) rotate(-45) scale(0.21 -0.21)">
      <defs>
       <path id="DejaVuSans-30" d="M 2034 4250 
Q 1547 4250 1301 3770 
Q 1056 3291 1056 2328 
Q 1056 1369 1301 889 
Q 1547 409 2034 409 
Q 2525 409 2770 889 
Q 3016 1369 3016 2328 
Q 3016 3291 2770 3770 
Q 2525 4250 2034 4250 
z
M 2034 4750 
Q 2819 4750 3233 4129 
Q 3647 3509 3647 2328 
Q 3647 1150 3233 529 
Q 2819 -91 2034 -91 
Q 1250 -91 836 529 
Q 422 1150 422 2328 
Q 422 3509 836 4129 
Q 1250 4750 2034 4750 
z
" transform="scale(0.015625)"/>
      </defs>
      <use xlink:href="#DejaVuSans-30"/>
      <use xlink:href="#DejaVuSans-30" x="63.623047"/>
     </g>
    </g>
   </g>
   <g id="xtick_2">
    <g id="line2d_3">
     <path d="M 205.757946 459.475133 
L 202.676818 462.257419 
" style="fill: none; stroke: #000000; stroke-width: 0.8; stroke-linecap: square"/>
    </g>
    <g id="text_2">
     <!-- 01 -->
     <g transform="translate(177.445975 504.27764) rotate(-45) scale(0.21 -0.21)">
      <defs>
       <path id="DejaVuSans-31" d="M 794 531 
L 1825 531 
L 1825 4091 
L 703 3866 
L 703 4441 
L 1819 4666 
L 2450 4666 
L 2450 531 
L 3481 531 
L 3481 0 
L 794 0 
L 794 531 
z
" transform="scale(0.015625)"/>
      </defs>
      <use xlink:href="#DejaVuSans-30"/>
      <use xlink:href="#DejaVuSans-31" x="63.623047"/>
     </g>
    </g>
   </g>
   <g id="xtick_3">
    <g id="line2d_4">
     <path d="M 263.54986 477.996682 
L 260.528321 480.837631 
" style="fill: none; stroke: #000000; stroke-width: 0.8; stroke-linecap: square"/>
    </g>
    <g id="text_3">
     <!-- 10 -->
     <g transform="translate(235.256492 522.9799) rotate(-45) scale(0.21 -0.21)">
      <use xlink:href="#DejaVuSans-31"/>
      <use xlink:href="#DejaVuSans-30" x="63.623047"/>
     </g>
    </g>
   </g>
   <g id="xtick_4">
    <g id="line2d_5">
     <path d="M 322.565792 496.910512 
L 319.607072 499.811999 
" style="fill: none; stroke: #000000; stroke-width: 0.8; stroke-linecap: square"/>
    </g>
    <g id="text_4">
     <!-- 11 -->
     <g transform="translate(294.293241 542.078858) rotate(-45) scale(0.21 -0.21)">
      <use xlink:href="#DejaVuSans-31"/>
      <use xlink:href="#DejaVuSans-31" x="63.623047"/>
     </g>
    </g>
   </g>
  </g>
  <g id="axis3d_2">
   <g id="line2d_6">
    <path d="M 455.554898 390.069341 
L 340.912731 504.076731 
" style="fill: none; stroke: #000000; stroke-width: 0.8; stroke-linecap: square"/>
   </g>
   <g id="xtick_5">
    <g id="line2d_7">
     <path d="M 349.939872 492.809551 
L 355.176743 494.475986 
" style="fill: none; stroke: #000000; stroke-width: 0.8; stroke-linecap: square"/>
    </g>
    <g id="text_5">
     <!-- 00 -->
     <g transform="translate(362.536948 505.408703) rotate(-337.5) scale(0.21 -0.21)">
      <use xlink:href="#DejaVuSans-30"/>
      <use xlink:href="#DejaVuSans-30" x="63.623047"/>
     </g>
    </g>
   </g>
   <g id="xtick_6">
    <g id="line2d_8">
     <path d="M 382.525541 460.445465 
L 387.697822 462.052514 
" style="fill: none; stroke: #000000; stroke-width: 0.8; stroke-linecap: square"/>
    </g>
    <g id="text_6">
     <!-- 01 -->
     <g transform="translate(394.927992 472.820772) rotate(-337.5) scale(0.21 -0.21)">
      <use xlink:href="#DejaVuSans-30"/>
      <use xlink:href="#DejaVuSans-31" x="63.623047"/>
     </g>
    </g>
   </g>
   <g id="xtick_7">
    <g id="line2d_9">
     <path d="M 413.960652 429.224112 
L 419.0696 430.774895 
" style="fill: none; stroke: #000000; stroke-width: 0.8; stroke-linecap: square"/>
    </g>
    <g id="text_7">
     <!-- 10 -->
     <g transform="translate(426.175291 441.383538) rotate(-337.5) scale(0.21 -0.21)">
      <use xlink:href="#DejaVuSans-31"/>
      <use xlink:href="#DejaVuSans-30" x="63.623047"/>
     </g>
    </g>
   </g>
   <g id="xtick_8">
    <g id="line2d_10">
     <path d="M 444.305087 399.08602 
L 449.351944 400.58344 
" style="fill: none; stroke: #000000; stroke-width: 0.8; stroke-linecap: square"/>
    </g>
    <g id="text_8">
     <!-- 11 -->
     <g transform="translate(456.338373 411.037112) rotate(-337.5) scale(0.21 -0.21)">
      <use xlink:href="#DejaVuSans-31"/>
      <use xlink:href="#DejaVuSans-31" x="63.623047"/>
     </g>
    </g>
   </g>
  </g>
  <g id="axis3d_3">
   <g id="line2d_11">
    <path d="M 455.554898 390.069341 
L 462.583588 181.103065 
" style="fill: none; stroke: #000000; stroke-width: 0.8; stroke-linecap: square"/>
   </g>
   <g id="xtick_9">
    <g id="line2d_12">
     <path d="M 454.745002 363.590823 
L 459.800218 365.056877 
" style="fill: none; stroke: #000000; stroke-width: 0.8; stroke-linecap: square"/>
    </g>
    <g id="text_9">
     <!-- 0.15 -->
     <g transform="translate(469.980746 357.809956) scale(0.21 -0.21)">
      <defs>
       <path id="DejaVuSans-2e" d="M 684 794 
L 1344 794 
L 1344 0 
L 684 0 
L 684 794 
z
" transform="scale(0.015625)"/>
       <path id="DejaVuSans-35" d="M 691 4666 
L 3169 4666 
L 3169 4134 
L 1269 4134 
L 1269 2991 
Q 1406 3038 1543 3061 
Q 1681 3084 1819 3084 
Q 2600 3084 3056 2656 
Q 3513 2228 3513 1497 
Q 3513 744 3044 326 
Q 2575 -91 1722 -91 
Q 1428 -91 1123 -41 
Q 819 9 494 109 
L 494 744 
Q 775 591 1075 516 
Q 1375 441 1709 441 
Q 2250 441 2565 725 
Q 2881 1009 2881 1497 
Q 2881 1984 2565 2268 
Q 2250 2553 1709 2553 
Q 1456 2553 1204 2497 
Q 953 2441 691 2322 
L 691 4666 
z
" transform="scale(0.015625)"/>
      </defs>
      <use xlink:href="#DejaVuSans-30"/>
      <use xlink:href="#DejaVuSans-2e" x="63.623047"/>
      <use xlink:href="#DejaVuSans-31" x="95.410156"/>
      <use xlink:href="#DejaVuSans-35" x="159.033203"/>
     </g>
    </g>
   </g>
   <g id="xtick_10">
    <g id="line2d_13">
     <path d="M 456.003686 325.771164 
L 461.099883 327.21535 
" style="fill: none; stroke: #000000; stroke-width: 0.8; stroke-linecap: square"/>
    </g>
    <g id="text_10">
     <!-- 0.20 -->
     <g transform="translate(471.358307 320.011401) scale(0.21 -0.21)">
      <defs>
       <path id="DejaVuSans-32" d="M 1228 531 
L 3431 531 
L 3431 0 
L 469 0 
L 469 531 
Q 828 903 1448 1529 
Q 2069 2156 2228 2338 
Q 2531 2678 2651 2914 
Q 2772 3150 2772 3378 
Q 2772 3750 2511 3984 
Q 2250 4219 1831 4219 
Q 1534 4219 1204 4116 
Q 875 4013 500 3803 
L 500 4441 
Q 881 4594 1212 4672 
Q 1544 4750 1819 4750 
Q 2544 4750 2975 4387 
Q 3406 4025 3406 3419 
Q 3406 3131 3298 2873 
Q 3191 2616 2906 2266 
Q 2828 2175 2409 1742 
Q 1991 1309 1228 531 
z
" transform="scale(0.015625)"/>
      </defs>
      <use xlink:href="#DejaVuSans-30"/>
      <use xlink:href="#DejaVuSans-2e" x="63.623047"/>
      <use xlink:href="#DejaVuSans-32" x="95.410156"/>
      <use xlink:href="#DejaVuSans-30" x="159.033203"/>
     </g>
    </g>
   </g>
   <g id="xtick_11">
    <g id="line2d_14">
     <path d="M 457.282364 287.350764 
L 462.420212 288.772198 
" style="fill: none; stroke: #000000; stroke-width: 0.8; stroke-linecap: square"/>
    </g>
    <g id="text_11">
     <!-- 0.25 -->
     <g transform="translate(472.757731 281.612955) scale(0.21 -0.21)">
      <use xlink:href="#DejaVuSans-30"/>
      <use xlink:href="#DejaVuSans-2e" x="63.623047"/>
      <use xlink:href="#DejaVuSans-32" x="95.410156"/>
      <use xlink:href="#DejaVuSans-35" x="159.033203"/>
     </g>
    </g>
   </g>
   <g id="xtick_12">
    <g id="line2d_15">
     <path d="M 458.581516 248.315194 
L 463.761699 249.71296 
" style="fill: none; stroke: #000000; stroke-width: 0.8; stroke-linecap: square"/>
    </g>
    <g id="text_12">
     <!-- 0.30 -->
     <g transform="translate(474.179542 242.600224) scale(0.21 -0.21)">
      <defs>
       <path id="DejaVuSans-33" d="M 2597 2516 
Q 3050 2419 3304 2112 
Q 3559 1806 3559 1356 
Q 3559 666 3084 287 
Q 2609 -91 1734 -91 
Q 1441 -91 1130 -33 
Q 819 25 488 141 
L 488 750 
Q 750 597 1062 519 
Q 1375 441 1716 441 
Q 2309 441 2620 675 
Q 2931 909 2931 1356 
Q 2931 1769 2642 2001 
Q 2353 2234 1838 2234 
L 1294 2234 
L 1294 2753 
L 1863 2753 
Q 2328 2753 2575 2939 
Q 2822 3125 2822 3475 
Q 2822 3834 2567 4026 
Q 2313 4219 1838 4219 
Q 1578 4219 1281 4162 
Q 984 4106 628 3988 
L 628 4550 
Q 988 4650 1302 4700 
Q 1616 4750 1894 4750 
Q 2613 4750 3031 4423 
Q 3450 4097 3450 3541 
Q 3450 3153 3228 2886 
Q 3006 2619 2597 2516 
z
" transform="scale(0.015625)"/>
      </defs>
      <use xlink:href="#DejaVuSans-30"/>
      <use xlink:href="#DejaVuSans-2e" x="63.623047"/>
      <use xlink:href="#DejaVuSans-33" x="95.410156"/>
      <use xlink:href="#DejaVuSans-30" x="159.033203"/>
     </g>
    </g>
   </g>
   <g id="xtick_13">
    <g id="line2d_16">
     <path d="M 459.901637 208.649561 
L 465.124859 210.022706 
" style="fill: none; stroke: #000000; stroke-width: 0.8; stroke-linecap: square"/>
    </g>
    <g id="text_13">
     <!-- 0.35 -->
     <g transform="translate(475.624283 202.958347) scale(0.21 -0.21)">
      <use xlink:href="#DejaVuSans-30"/>
      <use xlink:href="#DejaVuSans-2e" x="63.623047"/>
      <use xlink:href="#DejaVuSans-33" x="95.410156"/>
      <use xlink:href="#DejaVuSans-35" x="159.033203"/>
     </g>
    </g>
   </g>
  </g>
  <g id="axes_1">
   <g id="Poly3DCollection_1">
    <path d="M 239.988914 430.187724 
L 255.758015 415.934773 
L 282.229051 424.135064 
L 266.604218 438.524496 
z
" clip-path="url(#pe7da5f2dda)" style="fill: #3f599f"/>
    <path d="M 293.476055 446.941622 
L 308.953117 432.41374 
L 335.933858 440.77193 
L 320.608152 455.44027 
z
" clip-path="url(#pe7da5f2dda)" style="fill: #3f599f"/>
    <path d="M 255.758015 415.934773 
L 254.552861 270.159964 
L 281.834809 277.898499 
L 282.229051 424.135064 
z
" clip-path="url(#pe7da5f2dda)" style="fill: #324880"/>
    <path d="M 239.988914 430.187724 
L 238.285146 283.611786 
L 254.552861 270.159964 
L 255.758015 415.934773 
z
" clip-path="url(#pe7da5f2dda)" style="fill: #648fff"/>
    <path d="M 207.655332 459.412534 
L 223.956896 444.678314 
L 250.717615 453.155002 
L 234.562606 468.032691 
z
" clip-path="url(#pe7da5f2dda)" style="fill: #3f599f"/>
    <path d="M 266.604218 438.524496 
L 282.229051 424.135064 
L 281.834809 277.898499 
L 265.720332 291.483132 
z
" clip-path="url(#pe7da5f2dda)" style="fill: #324880"/>
    <path d="M 348.004306 464.021629 
L 363.174989 449.210784 
L 390.6803 457.731476 
L 375.668393 472.686914 
z
" clip-path="url(#pe7da5f2dda)" style="fill: #3f599f"/>
    <path d="M 239.988914 430.187724 
L 266.604218 438.524496 
L 265.720332 291.483132 
L 238.285146 283.611786 
z
" clip-path="url(#pe7da5f2dda)" style="fill: #648fff"/>
    <path d="M 308.953117 432.41374 
L 309.385624 285.713299 
L 337.209301 293.605496 
L 335.933858 440.77193 
z
" clip-path="url(#pe7da5f2dda)" style="fill: #324880"/>
    <path d="M 293.476055 446.941622 
L 293.428223 299.432719 
L 309.385624 285.713299 
L 308.953117 432.41374 
z
" clip-path="url(#pe7da5f2dda)" style="fill: #648fff"/>
    <path d="M 261.733631 476.737344 
L 277.738439 461.714081 
L 305.023178 470.356757 
L 289.172302 485.527741 
z
" clip-path="url(#pe7da5f2dda)" style="fill: #3f599f"/>
    <path d="M 320.608152 455.44027 
L 335.933858 440.77193 
L 337.209301 293.605496 
L 321.412906 307.46172 
z
" clip-path="url(#pe7da5f2dda)" style="fill: #324880"/>
    <path d="M 223.956896 444.678314 
L 221.737729 297.294894 
L 249.327406 305.3025 
L 250.717615 453.155002 
z
" clip-path="url(#pe7da5f2dda)" style="fill: #324880"/>
    <path d="M 403.604362 481.43736 
L 418.45365 466.335203 
L 446.498978 475.023184 
L 431.816241 490.274231 
z
" clip-path="url(#pe7da5f2dda)" style="fill: #3f599f"/>
    <path d="M 293.476055 446.941622 
L 320.608152 455.44027 
L 321.412906 307.46172 
L 293.428223 299.432719 
z
" clip-path="url(#pe7da5f2dda)" style="fill: #648fff"/>
    <path d="M 207.655332 459.412534 
L 204.903334 311.215305 
L 221.737729 297.294894 
L 223.956896 444.678314 
z
" clip-path="url(#pe7da5f2dda)" style="fill: #648fff"/>
    <path d="M 238.285146 283.611786 
L 265.720332 291.483132 
L 281.834809 277.898499 
L 254.552861 270.159964 
z
" clip-path="url(#pe7da5f2dda)" style="fill: #577ddf"/>
    <path d="M 174.215905 489.636865 
L 191.077365 474.396582 
L 218.132333 483.16388 
L 201.419699 498.555105 
z
" clip-path="url(#pe7da5f2dda)" style="fill: #3f599f"/>
    <path d="M 234.562606 468.032691 
L 250.717615 453.155002 
L 249.327406 305.3025 
L 232.648751 319.362739 
z
" clip-path="url(#pe7da5f2dda)" style="fill: #324880"/>
    <path d="M 316.882594 494.405157 
L 332.575719 479.084262 
L 360.400023 487.89785 
L 344.86856 503.370889 
z
" clip-path="url(#pe7da5f2dda)" style="fill: #3f599f"/>
    <path d="M 207.655332 459.412534 
L 234.562606 468.032691 
L 232.648751 319.362739 
L 204.903334 311.215305 
z
" clip-path="url(#pe7da5f2dda)" style="fill: #648fff"/>
    <path d="M 277.738439 461.714081 
L 277.193705 313.390392 
L 305.340808 321.559784 
L 305.023178 470.356757 
z
" clip-path="url(#pe7da5f2dda)" style="fill: #324880"/>
    <path d="M 191.077365 474.396582 
L 189.214827 390.365128 
L 216.747761 398.869564 
L 218.132333 483.16388 
z
" clip-path="url(#pe7da5f2dda)" style="fill: #324880"/>
    <path d="M 261.733631 476.737344 
L 260.674789 327.592577 
L 277.193705 313.390392 
L 277.738439 461.714081 
z
" clip-path="url(#pe7da5f2dda)" style="fill: #648fff"/>
    <path d="M 174.215905 489.636865 
L 172.032343 405.149436 
L 189.214827 390.365128 
L 191.077365 474.396582 
z
" clip-path="url(#pe7da5f2dda)" style="fill: #648fff"/>
    <path d="M 293.428223 299.432719 
L 321.412906 307.46172 
L 337.209301 293.605496 
L 309.385624 285.713299 
z
" clip-path="url(#pe7da5f2dda)" style="fill: #577ddf"/>
    <path d="M 228.894755 507.562273 
L 245.45477 492.017853 
L 273.04866 500.959792 
L 256.64515 516.659706 
z
" clip-path="url(#pe7da5f2dda)" style="fill: #3f599f"/>
    <path d="M 289.172302 485.527741 
L 305.023178 470.356757 
L 305.340808 321.559784 
L 288.985726 335.906075 
z
" clip-path="url(#pe7da5f2dda)" style="fill: #324880"/>
    <path d="M 201.419699 498.555105 
L 218.132333 483.16388 
L 216.747761 398.869564 
L 199.719366 413.802952 
z
" clip-path="url(#pe7da5f2dda)" style="fill: #324880"/>
    <path d="M 363.174989 449.210784 
L 367.371214 159.032971 
L 396.599956 166.586763 
L 390.6803 457.731476 
z
" clip-path="url(#pe7da5f2dda)" style="fill: #324880"/>
    <path d="M 373.134335 512.426262 
L 388.500131 496.798801 
L 416.880165 505.788421 
L 401.684135 521.572627 
z
" clip-path="url(#pe7da5f2dda)" style="fill: #3f599f"/>
    <path d="M 261.733631 476.737344 
L 289.172302 485.527741 
L 288.985726 335.906075 
L 260.674789 327.592577 
z
" clip-path="url(#pe7da5f2dda)" style="fill: #648fff"/>
    <path d="M 174.215905 489.636865 
L 201.419699 498.555105 
L 199.719366 413.802952 
L 172.032343 405.149436 
z
" clip-path="url(#pe7da5f2dda)" style="fill: #648fff"/>
    <path d="M 348.004306 464.021629 
L 351.295894 172.166024 
L 367.371214 159.032971 
L 363.174989 449.210784 
z
" clip-path="url(#pe7da5f2dda)" style="fill: #648fff"/>
    <path d="M 204.903334 311.215305 
L 232.648751 319.362739 
L 249.327406 305.3025 
L 221.737729 297.294894 
z
" clip-path="url(#pe7da5f2dda)" style="fill: #577ddf"/>
    <path d="M 245.45477 492.017853 
L 244.557814 407.459596 
L 272.649193 416.136525 
L 273.04866 500.959792 
z
" clip-path="url(#pe7da5f2dda)" style="fill: #324880"/>
    <path d="M 228.894755 507.562273 
L 227.68751 422.544332 
L 244.557814 407.459596 
L 245.45477 492.017853 
z
" clip-path="url(#pe7da5f2dda)" style="fill: #648fff"/>
    <path d="M 139.612915 520.912886 
L 157.063618 505.140013 
L 184.417362 514.213127 
L 167.117725 530.144943 
z
" clip-path="url(#pe7da5f2dda)" style="fill: #3f599f"/>
    <path d="M 172.032343 405.149436 
L 199.719366 413.802952 
L 216.747761 398.869564 
L 189.214827 390.365128 
z
" clip-path="url(#pe7da5f2dda)" style="fill: #577ddf"/>
    <path d="M 375.668393 472.686914 
L 390.6803 457.731476 
L 396.599956 166.586763 
L 380.704133 179.856018 
z
" clip-path="url(#pe7da5f2dda)" style="fill: #324880"/>
    <path d="M 284.675043 525.848767 
L 300.918069 509.991014 
L 329.067146 519.112864 
L 312.98868 535.130848 
z
" clip-path="url(#pe7da5f2dda)" style="fill: #3f599f"/>
    <path d="M 348.004306 464.021629 
L 375.668393 472.686914 
L 380.704133 179.856018 
L 351.295894 172.166024 
z
" clip-path="url(#pe7da5f2dda)" style="fill: #648fff"/>
    <path d="M 256.64515 516.659706 
L 273.04866 500.959792 
L 272.649193 416.136525 
L 255.94108 431.374921 
z
" clip-path="url(#pe7da5f2dda)" style="fill: #324880"/>
    <path d="M 418.45365 466.335203 
L 426.131247 174.218745 
L 455.969811 181.930138 
L 446.498978 475.023184 
z
" clip-path="url(#pe7da5f2dda)" style="fill: #324880"/>
    <path d="M 157.063618 505.140013 
L 154.54809 420.193393 
L 182.390385 428.999946 
L 184.417362 514.213127 
z
" clip-path="url(#pe7da5f2dda)" style="fill: #324880"/>
    <path d="M 228.894755 507.562273 
L 256.64515 516.659706 
L 255.94108 431.374921 
L 227.68751 422.544332 
z
" clip-path="url(#pe7da5f2dda)" style="fill: #648fff"/>
    <path d="M 403.604362 481.43736 
L 410.419533 187.626331 
L 426.131247 174.218745 
L 418.45365 466.335203 
z
" clip-path="url(#pe7da5f2dda)" style="fill: #648fff"/>
    <path d="M 139.612915 520.912886 
L 136.754048 435.503902 
L 154.54809 420.193393 
L 157.063618 505.140013 
z
" clip-path="url(#pe7da5f2dda)" style="fill: #648fff"/>
    <path d="M 260.674789 327.592577 
L 288.985726 335.906075 
L 305.340808 321.559784 
L 277.193705 313.390392 
z
" clip-path="url(#pe7da5f2dda)" style="fill: #577ddf"/>
    <path d="M 194.901618 539.470675 
L 212.046239 523.377501 
L 239.954421 532.634519 
L 222.968863 548.891515 
z
" clip-path="url(#pe7da5f2dda)" style="fill: #3f599f"/>
    <path d="M 227.68751 422.544332 
L 255.94108 431.374921 
L 272.649193 416.136525 
L 244.557814 407.459596 
z
" clip-path="url(#pe7da5f2dda)" style="fill: #577ddf"/>
    <path d="M 431.816241 490.274231 
L 446.498978 475.023184 
L 455.969811 181.930138 
L 440.446932 195.478229 
z
" clip-path="url(#pe7da5f2dda)" style="fill: #324880"/>
    <path d="M 167.117725 530.144943 
L 184.417362 514.213127 
L 182.390385 428.999946 
L 164.752787 444.467586 
z
" clip-path="url(#pe7da5f2dda)" style="fill: #324880"/>
    <path d="M 332.575719 479.084262 
L 334.930164 185.536333 
L 364.519638 193.366245 
L 360.400023 487.89785 
z
" clip-path="url(#pe7da5f2dda)" style="fill: #324880"/>
    <path d="M 341.59039 544.507368 
L 357.50012 528.326712 
L 386.221308 537.633957 
L 370.484593 553.979776 
z
" clip-path="url(#pe7da5f2dda)" style="fill: #3f599f"/>
    <path d="M 403.604362 481.43736 
L 431.816241 490.274231 
L 440.446932 195.478229 
L 410.419533 187.626331 
z
" clip-path="url(#pe7da5f2dda)" style="fill: #648fff"/>
    <path d="M 139.612915 520.912886 
L 167.117725 530.144943 
L 164.752787 444.467586 
L 136.754048 435.503902 
z
" clip-path="url(#pe7da5f2dda)" style="fill: #648fff"/>
    <path d="M 316.882594 494.405157 
L 318.266084 199.150386 
L 334.930164 185.536333 
L 332.575719 479.084262 
z
" clip-path="url(#pe7da5f2dda)" style="fill: #648fff"/>
    <path d="M 300.918069 509.991014 
L 301.109854 359.055886 
L 330.177704 367.693147 
L 329.067146 519.112864 
z
" clip-path="url(#pe7da5f2dda)" style="fill: #324880"/>
    <path d="M 212.046239 523.377501 
L 210.517886 437.896709 
L 238.934997 446.885076 
L 239.954421 532.634519 
z
" clip-path="url(#pe7da5f2dda)" style="fill: #324880"/>
    <path d="M 284.675043 525.848767 
L 284.336947 374.073017 
L 301.109854 359.055886 
L 300.918069 509.991014 
z
" clip-path="url(#pe7da5f2dda)" style="fill: #648fff"/>
    <path d="M 194.901618 539.470675 
L 193.040902 453.523913 
L 210.517886 437.896709 
L 212.046239 523.377501 
z
" clip-path="url(#pe7da5f2dda)" style="fill: #648fff"/>
    <path d="M 136.754048 435.503902 
L 164.752787 444.467586 
L 182.390385 428.999946 
L 154.54809 420.193393 
z
" clip-path="url(#pe7da5f2dda)" style="fill: #577ddf"/>
    <path d="M 344.86856 503.370889 
L 360.400023 487.89785 
L 364.519638 193.366245 
L 348.038535 207.12407 
z
" clip-path="url(#pe7da5f2dda)" style="fill: #324880"/>
    <path d="M 251.323818 558.408925 
L 268.146164 541.985593 
L 296.625812 551.432165 
L 279.970929 568.024398 
z
" clip-path="url(#pe7da5f2dda)" style="fill: #3f599f"/>
    <path d="M 316.882594 494.405157 
L 344.86856 503.370889 
L 348.038535 207.12407 
L 318.266084 199.150386 
z
" clip-path="url(#pe7da5f2dda)" style="fill: #648fff"/>
    <path d="M 312.98868 535.130848 
L 329.067146 519.112864 
L 330.177704 367.693147 
L 313.580321 382.866997 
z
" clip-path="url(#pe7da5f2dda)" style="fill: #324880"/>
    <path d="M 222.968863 548.891515 
L 239.954421 532.634519 
L 238.934997 446.885076 
L 221.622903 462.674325 
z
" clip-path="url(#pe7da5f2dda)" style="fill: #324880"/>
    <path d="M 388.500131 496.798801 
L 394.420987 201.278685 
L 424.639168 209.274965 
L 416.880165 505.788421 
z
" clip-path="url(#pe7da5f2dda)" style="fill: #324880"/>
    <path d="M 284.675043 525.848767 
L 312.98868 535.130848 
L 313.580321 382.866997 
L 284.336947 374.073017 
z
" clip-path="url(#pe7da5f2dda)" style="fill: #648fff"/>
    <path d="M 194.901618 539.470675 
L 222.968863 548.891515 
L 221.622903 462.674325 
L 193.040902 453.523913 
z
" clip-path="url(#pe7da5f2dda)" style="fill: #648fff"/>
    <path d="M 373.134335 512.426262 
L 378.127681 215.182572 
L 394.420987 201.278685 
L 388.500131 496.798801 
z
" clip-path="url(#pe7da5f2dda)" style="fill: #648fff"/>
    <path d="M 357.50012 528.326712 
L 359.548326 376.420373 
L 389.226475 385.238978 
L 386.221308 537.633957 
z
" clip-path="url(#pe7da5f2dda)" style="fill: #324880"/>
    <path d="M 341.59039 544.507368 
L 343.131068 391.753409 
L 359.548326 376.420373 
L 357.50012 528.326712 
z
" clip-path="url(#pe7da5f2dda)" style="fill: #648fff"/>
    <path d="M 193.040902 453.523913 
L 221.622903 462.674325 
L 238.934997 446.885076 
L 210.517886 437.896709 
z
" clip-path="url(#pe7da5f2dda)" style="fill: #577ddf"/>
    <path d="M 351.295894 172.166024 
L 380.704133 179.856018 
L 396.599956 166.586763 
L 367.371214 159.032971 
z
" clip-path="url(#pe7da5f2dda)" style="fill: #577ddf"/>
    <path d="M 401.684135 521.572627 
L 416.880165 505.788421 
L 424.639168 209.274965 
L 408.538601 223.327252 
z
" clip-path="url(#pe7da5f2dda)" style="fill: #324880"/>
    <path d="M 308.914734 577.739458 
L 325.397799 560.975703 
L 354.466648 570.61771 
L 338.159868 587.555659 
z
" clip-path="url(#pe7da5f2dda)" style="fill: #3f599f"/>
    <path d="M 373.134335 512.426262 
L 401.684135 521.572627 
L 408.538601 223.327252 
L 378.127681 215.182572 
z
" clip-path="url(#pe7da5f2dda)" style="fill: #648fff"/>
    <path d="M 370.484593 553.979776 
L 386.221308 537.633957 
L 389.226475 385.238978 
L 372.994059 400.733719 
z
" clip-path="url(#pe7da5f2dda)" style="fill: #324880"/>
    <path d="M 268.146164 541.985593 
L 267.259113 389.363154 
L 296.67961 398.318159 
L 296.625812 551.432165 
z
" clip-path="url(#pe7da5f2dda)" style="fill: #324880"/>
    <path d="M 341.59039 544.507368 
L 370.484593 553.979776 
L 372.994059 400.733719 
L 343.131068 391.753409 
z
" clip-path="url(#pe7da5f2dda)" style="fill: #648fff"/>
    <path d="M 251.323818 558.408925 
L 249.867961 404.933812 
L 267.259113 389.363154 
L 268.146164 541.985593 
z
" clip-path="url(#pe7da5f2dda)" style="fill: #648fff"/>
    <path d="M 284.336947 374.073017 
L 313.580321 382.866997 
L 330.177704 367.693147 
L 301.109854 359.055886 
z
" clip-path="url(#pe7da5f2dda)" style="fill: #577ddf"/>
    <path d="M 410.419533 187.626331 
L 440.446932 195.478229 
L 455.969811 181.930138 
L 426.131247 174.218745 
z
" clip-path="url(#pe7da5f2dda)" style="fill: #577ddf"/>
    <path d="M 279.970929 568.024398 
L 296.625812 551.432165 
L 296.67961 398.318159 
L 279.467179 414.054305 
z
" clip-path="url(#pe7da5f2dda)" style="fill: #324880"/>
    <path d="M 251.323818 558.408925 
L 279.970929 568.024398 
L 279.467179 414.054305 
L 249.867961 404.933812 
z
" clip-path="url(#pe7da5f2dda)" style="fill: #648fff"/>
    <path d="M 325.397799 560.975703 
L 326.412182 407.368153 
L 356.461821 416.514655 
L 354.466648 570.61771 
z
" clip-path="url(#pe7da5f2dda)" style="fill: #324880"/>
    <path d="M 308.914734 577.739458 
L 309.383279 423.272439 
L 326.412182 407.368153 
L 325.397799 560.975703 
z
" clip-path="url(#pe7da5f2dda)" style="fill: #648fff"/>
    <path d="M 343.131068 391.753409 
L 372.994059 400.733719 
L 389.226475 385.238978 
L 359.548326 376.420373 
z
" clip-path="url(#pe7da5f2dda)" style="fill: #577ddf"/>
    <path d="M 318.266084 199.150386 
L 348.038535 207.12407 
L 364.519638 193.366245 
L 334.930164 185.536333 
z
" clip-path="url(#pe7da5f2dda)" style="fill: #577ddf"/>
    <path d="M 338.159868 587.555659 
L 354.466648 570.61771 
L 356.461821 416.514655 
L 339.621378 432.589792 
z
" clip-path="url(#pe7da5f2dda)" style="fill: #324880"/>
    <path d="M 308.914734 577.739458 
L 338.159868 587.555659 
L 339.621378 432.589792 
L 309.383279 423.272439 
z
" clip-path="url(#pe7da5f2dda)" style="fill: #648fff"/>
    <path d="M 249.867961 404.933812 
L 279.467179 414.054305 
L 296.67961 398.318159 
L 267.259113 389.363154 
z
" clip-path="url(#pe7da5f2dda)" style="fill: #577ddf"/>
    <path d="M 378.127681 215.182572 
L 408.538601 223.327252 
L 424.639168 209.274965 
L 394.420987 201.278685 
z
" clip-path="url(#pe7da5f2dda)" style="fill: #577ddf"/>
    <path d="M 309.383279 423.272439 
L 339.621378 432.589792 
L 356.461821 416.514655 
L 326.412182 407.368153 
z
" clip-path="url(#pe7da5f2dda)" style="fill: #577ddf"/>
   </g>
   <g id="text_14">
    <!-- Real Amplitude (ρ) -->
    <g transform="translate(190.023516 51.6) scale(0.21 -0.21)">
     <defs>
      <path id="DejaVuSans-52" d="M 2841 2188 
Q 3044 2119 3236 1894 
Q 3428 1669 3622 1275 
L 4263 0 
L 3584 0 
L 2988 1197 
Q 2756 1666 2539 1819 
Q 2322 1972 1947 1972 
L 1259 1972 
L 1259 0 
L 628 0 
L 628 4666 
L 2053 4666 
Q 2853 4666 3247 4331 
Q 3641 3997 3641 3322 
Q 3641 2881 3436 2590 
Q 3231 2300 2841 2188 
z
M 1259 4147 
L 1259 2491 
L 2053 2491 
Q 2509 2491 2742 2702 
Q 2975 2913 2975 3322 
Q 2975 3731 2742 3939 
Q 2509 4147 2053 4147 
L 1259 4147 
z
" transform="scale(0.015625)"/>
      <path id="DejaVuSans-65" d="M 3597 1894 
L 3597 1613 
L 953 1613 
Q 991 1019 1311 708 
Q 1631 397 2203 397 
Q 2534 397 2845 478 
Q 3156 559 3463 722 
L 3463 178 
Q 3153 47 2828 -22 
Q 2503 -91 2169 -91 
Q 1331 -91 842 396 
Q 353 884 353 1716 
Q 353 2575 817 3079 
Q 1281 3584 2069 3584 
Q 2775 3584 3186 3129 
Q 3597 2675 3597 1894 
z
M 3022 2063 
Q 3016 2534 2758 2815 
Q 2500 3097 2075 3097 
Q 1594 3097 1305 2825 
Q 1016 2553 972 2059 
L 3022 2063 
z
" transform="scale(0.015625)"/>
      <path id="DejaVuSans-61" d="M 2194 1759 
Q 1497 1759 1228 1600 
Q 959 1441 959 1056 
Q 959 750 1161 570 
Q 1363 391 1709 391 
Q 2188 391 2477 730 
Q 2766 1069 2766 1631 
L 2766 1759 
L 2194 1759 
z
M 3341 1997 
L 3341 0 
L 2766 0 
L 2766 531 
Q 2569 213 2275 61 
Q 1981 -91 1556 -91 
Q 1019 -91 701 211 
Q 384 513 384 1019 
Q 384 1609 779 1909 
Q 1175 2209 1959 2209 
L 2766 2209 
L 2766 2266 
Q 2766 2663 2505 2880 
Q 2244 3097 1772 3097 
Q 1472 3097 1187 3025 
Q 903 2953 641 2809 
L 641 3341 
Q 956 3463 1253 3523 
Q 1550 3584 1831 3584 
Q 2591 3584 2966 3190 
Q 3341 2797 3341 1997 
z
" transform="scale(0.015625)"/>
      <path id="DejaVuSans-6c" d="M 603 4863 
L 1178 4863 
L 1178 0 
L 603 0 
L 603 4863 
z
" transform="scale(0.015625)"/>
      <path id="DejaVuSans-20" transform="scale(0.015625)"/>
      <path id="DejaVuSans-41" d="M 2188 4044 
L 1331 1722 
L 3047 1722 
L 2188 4044 
z
M 1831 4666 
L 2547 4666 
L 4325 0 
L 3669 0 
L 3244 1197 
L 1141 1197 
L 716 0 
L 50 0 
L 1831 4666 
z
" transform="scale(0.015625)"/>
      <path id="DejaVuSans-6d" d="M 3328 2828 
Q 3544 3216 3844 3400 
Q 4144 3584 4550 3584 
Q 5097 3584 5394 3201 
Q 5691 2819 5691 2113 
L 5691 0 
L 5113 0 
L 5113 2094 
Q 5113 2597 4934 2840 
Q 4756 3084 4391 3084 
Q 3944 3084 3684 2787 
Q 3425 2491 3425 1978 
L 3425 0 
L 2847 0 
L 2847 2094 
Q 2847 2600 2669 2842 
Q 2491 3084 2119 3084 
Q 1678 3084 1418 2786 
Q 1159 2488 1159 1978 
L 1159 0 
L 581 0 
L 581 3500 
L 1159 3500 
L 1159 2956 
Q 1356 3278 1631 3431 
Q 1906 3584 2284 3584 
Q 2666 3584 2933 3390 
Q 3200 3197 3328 2828 
z
" transform="scale(0.015625)"/>
      <path id="DejaVuSans-70" d="M 1159 525 
L 1159 -1331 
L 581 -1331 
L 581 3500 
L 1159 3500 
L 1159 2969 
Q 1341 3281 1617 3432 
Q 1894 3584 2278 3584 
Q 2916 3584 3314 3078 
Q 3713 2572 3713 1747 
Q 3713 922 3314 415 
Q 2916 -91 2278 -91 
Q 1894 -91 1617 61 
Q 1341 213 1159 525 
z
M 3116 1747 
Q 3116 2381 2855 2742 
Q 2594 3103 2138 3103 
Q 1681 3103 1420 2742 
Q 1159 2381 1159 1747 
Q 1159 1113 1420 752 
Q 1681 391 2138 391 
Q 2594 391 2855 752 
Q 3116 1113 3116 1747 
z
" transform="scale(0.015625)"/>
      <path id="DejaVuSans-69" d="M 603 3500 
L 1178 3500 
L 1178 0 
L 603 0 
L 603 3500 
z
M 603 4863 
L 1178 4863 
L 1178 4134 
L 603 4134 
L 603 4863 
z
" transform="scale(0.015625)"/>
      <path id="DejaVuSans-74" d="M 1172 4494 
L 1172 3500 
L 2356 3500 
L 2356 3053 
L 1172 3053 
L 1172 1153 
Q 1172 725 1289 603 
Q 1406 481 1766 481 
L 2356 481 
L 2356 0 
L 1766 0 
Q 1100 0 847 248 
Q 594 497 594 1153 
L 594 3053 
L 172 3053 
L 172 3500 
L 594 3500 
L 594 4494 
L 1172 4494 
z
" transform="scale(0.015625)"/>
      <path id="DejaVuSans-75" d="M 544 1381 
L 544 3500 
L 1119 3500 
L 1119 1403 
Q 1119 906 1312 657 
Q 1506 409 1894 409 
Q 2359 409 2629 706 
Q 2900 1003 2900 1516 
L 2900 3500 
L 3475 3500 
L 3475 0 
L 2900 0 
L 2900 538 
Q 2691 219 2414 64 
Q 2138 -91 1772 -91 
Q 1169 -91 856 284 
Q 544 659 544 1381 
z
M 1991 3584 
L 1991 3584 
z
" transform="scale(0.015625)"/>
      <path id="DejaVuSans-64" d="M 2906 2969 
L 2906 4863 
L 3481 4863 
L 3481 0 
L 2906 0 
L 2906 525 
Q 2725 213 2448 61 
Q 2172 -91 1784 -91 
Q 1150 -91 751 415 
Q 353 922 353 1747 
Q 353 2572 751 3078 
Q 1150 3584 1784 3584 
Q 2172 3584 2448 3432 
Q 2725 3281 2906 2969 
z
M 947 1747 
Q 947 1113 1208 752 
Q 1469 391 1925 391 
Q 2381 391 2643 752 
Q 2906 1113 2906 1747 
Q 2906 2381 2643 2742 
Q 2381 3103 1925 3103 
Q 1469 3103 1208 2742 
Q 947 2381 947 1747 
z
" transform="scale(0.015625)"/>
      <path id="DejaVuSans-28" d="M 1984 4856 
Q 1566 4138 1362 3434 
Q 1159 2731 1159 2009 
Q 1159 1288 1364 580 
Q 1569 -128 1984 -844 
L 1484 -844 
Q 1016 -109 783 600 
Q 550 1309 550 2009 
Q 550 2706 781 3412 
Q 1013 4119 1484 4856 
L 1984 4856 
z
" transform="scale(0.015625)"/>
      <path id="DejaVuSans-3c1" d="M 863 2875 
Q 1053 3194 1525 3475 
Q 1709 3584 2278 3584 
Q 2916 3584 3314 3078 
Q 3713 2572 3713 1747 
Q 3713 922 3314 415 
Q 2916 -91 2278 -91 
Q 1894 -91 1617 61 
Q 1341 213 1159 525 
L 1159 -1331 
L 581 -1331 
L 581 1716 
Q 581 2438 863 2875 
z
M 3116 1747 
Q 3116 2381 2855 2742 
Q 2594 3103 2138 3103 
Q 1681 3103 1420 2742 
Q 1159 2381 1159 1747 
Q 1159 1113 1420 752 
Q 1681 391 2138 391 
Q 2594 391 2855 752 
Q 3116 1113 3116 1747 
z
" transform="scale(0.015625)"/>
      <path id="DejaVuSans-29" d="M 513 4856 
L 1013 4856 
Q 1481 4119 1714 3412 
Q 1947 2706 1947 2009 
Q 1947 1309 1714 600 
Q 1481 -109 1013 -844 
L 513 -844 
Q 928 -128 1133 580 
Q 1338 1288 1338 2009 
Q 1338 2731 1133 3434 
Q 928 4138 513 4856 
z
" transform="scale(0.015625)"/>
     </defs>
     <use xlink:href="#DejaVuSans-52"/>
     <use xlink:href="#DejaVuSans-65" x="64.982422"/>
     <use xlink:href="#DejaVuSans-61" x="126.505859"/>
     <use xlink:href="#DejaVuSans-6c" x="187.785156"/>
     <use xlink:href="#DejaVuSans-20" x="215.568359"/>
     <use xlink:href="#DejaVuSans-41" x="247.355469"/>
     <use xlink:href="#DejaVuSans-6d" x="315.763672"/>
     <use xlink:href="#DejaVuSans-70" x="413.175781"/>
     <use xlink:href="#DejaVuSans-6c" x="476.652344"/>
     <use xlink:href="#DejaVuSans-69" x="504.435547"/>
     <use xlink:href="#DejaVuSans-74" x="532.21875"/>
     <use xlink:href="#DejaVuSans-75" x="571.427734"/>
     <use xlink:href="#DejaVuSans-64" x="634.806641"/>
     <use xlink:href="#DejaVuSans-65" x="698.283203"/>
     <use xlink:href="#DejaVuSans-20" x="759.806641"/>
     <use xlink:href="#DejaVuSans-28" x="791.59375"/>
     <use xlink:href="#DejaVuSans-3c1" x="830.607422"/>
     <use xlink:href="#DejaVuSans-29" x="894.083984"/>
    </g>
   </g>
  </g>
  <g id="patch_6">
   <path d="M 604.8 576 
L 1123.2 576 
L 1123.2 57.6 
L 604.8 57.6 
z
" style="fill: #ffffff"/>
  </g>
  <g id="pane3d_4">
   <g id="patch_7">
    <path d="M 706.07018 436.456468 
L 829.494133 330.550231 
L 827.743197 126.70673 
L 698.643358 223.613571 
" style="fill: #f2f2f2; opacity: 0.5; stroke: #f2f2f2; stroke-linejoin: miter"/>
   </g>
  </g>
  <g id="pane3d_5">
   <g id="patch_8">
    <path d="M 829.494133 330.550231 
L 1031.554898 390.069341 
L 1038.583588 181.103065 
L 827.743197 126.70673 
" style="fill: #e6e6e6; opacity: 0.5; stroke: #e6e6e6; stroke-linejoin: miter"/>
   </g>
  </g>
  <g id="pane3d_6">
   <g id="patch_9">
    <path d="M 706.07018 436.456468 
L 916.912731 504.076731 
L 1031.554898 390.069341 
L 829.494133 330.550231 
" style="fill: #ececec; opacity: 0.5; stroke: #ececec; stroke-linejoin: miter"/>
   </g>
  </g>
  <g id="grid3d_4">
   <g id="Line3DCollection_4">
    <path d="M 734.635886 445.617904 
L 856.925726 338.630493 
L 856.328796 134.081748 
" style="fill: none; stroke: #b0b0b0; stroke-width: 0.8"/>
    <path d="M 784.310046 461.549127 
L 904.58611 352.669358 
L 906.022474 146.902603 
" style="fill: none; stroke: #b0b0b0; stroke-width: 0.8"/>
    <path d="M 834.89502 477.772462 
L 953.066152 366.949661 
L 956.607663 159.953465 
" style="fill: none; stroke: #b0b0b0; stroke-width: 0.8"/>
    <path d="M 886.41609 494.296016 
L 1002.38718 381.477685 
L 1008.108569 173.24058 
" style="fill: none; stroke: #b0b0b0; stroke-width: 0.8"/>
   </g>
  </g>
  <g id="grid3d_5">
   <g id="Line3DCollection_5">
    <path d="M 717.757365 209.265931 
L 724.301379 420.812846 
L 933.880707 487.202708 
" style="fill: none; stroke: #b0b0b0; stroke-width: 0.8"/>
    <path d="M 749.704273 185.285468 
L 754.805664 394.638072 
L 962.24502 458.995448 
" style="fill: none; stroke: #b0b0b0; stroke-width: 0.8"/>
    <path d="M 780.65707 162.051218 
L 784.400054 369.24405 
L 989.731787 431.660877 
" style="fill: none; stroke: #b0b0b0; stroke-width: 0.8"/>
    <path d="M 810.661448 139.528886 
L 813.124663 344.596362 
L 1016.38111 405.159111 
" style="fill: none; stroke: #b0b0b0; stroke-width: 0.8"/>
   </g>
  </g>
  <g id="grid3d_6">
   <g id="Line3DCollection_6">
    <path d="M 1031.72037 385.149775 
L 829.45285 325.744077 
L 705.895539 431.451488 
" style="fill: none; stroke: #b0b0b0; stroke-width: 0.8"/>
    <path d="M 1032.480843 362.540544 
L 829.263161 303.660527 
L 705.092802 408.446092 
" style="fill: none; stroke: #b0b0b0; stroke-width: 0.8"/>
    <path d="M 1033.248548 339.71633 
L 829.071732 281.374428 
L 704.28222 385.215906 
" style="fill: none; stroke: #b0b0b0; stroke-width: 0.8"/>
    <path d="M 1034.023587 316.674053 
L 828.878539 258.88298 
L 703.46368 361.757619 
" style="fill: none; stroke: #b0b0b0; stroke-width: 0.8"/>
    <path d="M 1034.806066 293.410572 
L 828.683558 236.183332 
L 702.637062 338.067855 
" style="fill: none; stroke: #b0b0b0; stroke-width: 0.8"/>
    <path d="M 1035.596093 269.922686 
L 828.486764 213.272579 
L 701.802248 314.14317 
" style="fill: none; stroke: #b0b0b0; stroke-width: 0.8"/>
    <path d="M 1036.393778 246.207134 
L 828.28813 190.147764 
L 700.959113 289.980054 
" style="fill: none; stroke: #b0b0b0; stroke-width: 0.8"/>
    <path d="M 1037.199233 222.260589 
L 828.087633 166.805872 
L 700.107534 265.574923 
" style="fill: none; stroke: #b0b0b0; stroke-width: 0.8"/>
    <path d="M 1038.012571 198.079659 
L 827.885244 143.243831 
L 699.247383 240.924124 
" style="fill: none; stroke: #b0b0b0; stroke-width: 0.8"/>
   </g>
  </g>
  <g id="axis3d_4">
   <g id="line2d_17">
    <path d="M 706.07018 436.456468 
L 916.912731 504.076731 
" style="fill: none; stroke: #000000; stroke-width: 0.8; stroke-linecap: square"/>
   </g>
   <g id="xtick_14">
    <g id="line2d_18">
     <path d="M 735.677227 444.706868 
L 732.549953 447.442819 
" style="fill: none; stroke: #000000; stroke-width: 0.8; stroke-linecap: square"/>
    </g>
    <g id="text_15">
     <!-- 00 -->
     <g transform="translate(707.351686 489.365693) rotate(-45) scale(0.21 -0.21)">
      <use xlink:href="#DejaVuSans-30"/>
      <use xlink:href="#DejaVuSans-30" x="63.623047"/>
     </g>
    </g>
   </g>
   <g id="xtick_15">
    <g id="line2d_19">
     <path d="M 785.334802 460.621468 
L 782.257306 463.407368 
" style="fill: none; stroke: #000000; stroke-width: 0.8; stroke-linecap: square"/>
    </g>
    <g id="text_16">
     <!-- 01 -->
     <g transform="translate(757.023931 505.435143) rotate(-45) scale(0.21 -0.21)">
      <use xlink:href="#DejaVuSans-30"/>
      <use xlink:href="#DejaVuSans-31" x="63.623047"/>
     </g>
    </g>
   </g>
   <g id="xtick_16">
    <g id="line2d_20">
     <path d="M 835.902405 476.82772 
L 832.877048 479.664949 
" style="fill: none; stroke: #000000; stroke-width: 0.8; stroke-linecap: square"/>
    </g>
    <g id="text_17">
     <!-- 10 -->
     <g transform="translate(807.60781 521.799516) rotate(-45) scale(0.21 -0.21)">
      <use xlink:href="#DejaVuSans-31"/>
      <use xlink:href="#DejaVuSans-30" x="63.623047"/>
     </g>
    </g>
   </g>
   <g id="xtick_17">
    <g id="line2d_21">
     <path d="M 887.405283 493.333715 
L 884.434531 496.223705 
" style="fill: none; stroke: #000000; stroke-width: 0.8; stroke-linecap: square"/>
    </g>
    <g id="text_18">
     <!-- 11 -->
     <g transform="translate(859.128654 538.467006) rotate(-45) scale(0.21 -0.21)">
      <use xlink:href="#DejaVuSans-31"/>
      <use xlink:href="#DejaVuSans-31" x="63.623047"/>
     </g>
    </g>
   </g>
  </g>
  <g id="axis3d_5">
   <g id="line2d_22">
    <path d="M 1031.554898 390.069341 
L 916.912731 504.076731 
" style="fill: none; stroke: #000000; stroke-width: 0.8; stroke-linecap: square"/>
   </g>
   <g id="xtick_18">
    <g id="line2d_23">
     <path d="M 932.140222 486.651363 
L 937.364886 488.306415 
" style="fill: none; stroke: #000000; stroke-width: 0.8; stroke-linecap: square"/>
    </g>
    <g id="text_19">
     <!-- 00 -->
     <g transform="translate(944.70027 499.207917) rotate(-337.5) scale(0.21 -0.21)">
      <use xlink:href="#DejaVuSans-30"/>
      <use xlink:href="#DejaVuSans-30" x="63.623047"/>
     </g>
    </g>
   </g>
   <g id="xtick_19">
    <g id="line2d_24">
     <path d="M 960.5233 458.46129 
L 965.691587 460.064734 
" style="fill: none; stroke: #000000; stroke-width: 0.8; stroke-linecap: square"/>
    </g>
    <g id="text_20">
     <!-- 01 -->
     <g transform="translate(972.913817 470.822876) rotate(-337.5) scale(0.21 -0.21)">
      <use xlink:href="#DejaVuSans-30"/>
      <use xlink:href="#DejaVuSans-31" x="63.623047"/>
     </g>
    </g>
   </g>
   <g id="xtick_20">
    <g id="line2d_25">
     <path d="M 988.028511 431.143114 
L 993.141381 432.697327 
" style="fill: none; stroke: #000000; stroke-width: 0.8; stroke-linecap: square"/>
    </g>
    <g id="text_21">
     <!-- 10 -->
     <g transform="translate(1000.254695 443.315808) rotate(-337.5) scale(0.21 -0.21)">
      <use xlink:href="#DejaVuSans-31"/>
      <use xlink:href="#DejaVuSans-30" x="63.623047"/>
     </g>
    </g>
   </g>
   <g id="xtick_21">
    <g id="line2d_26">
     <path d="M 1014.695964 404.657001 
L 1019.754368 406.164215 
" style="fill: none; stroke: #000000; stroke-width: 0.8; stroke-linecap: square"/>
    </g>
    <g id="text_22">
     <!-- 11 -->
     <g transform="translate(1026.762776 416.646599) rotate(-337.5) scale(0.21 -0.21)">
      <use xlink:href="#DejaVuSans-31"/>
      <use xlink:href="#DejaVuSans-31" x="63.623047"/>
     </g>
    </g>
   </g>
  </g>
  <g id="axis3d_6">
   <g id="line2d_27">
    <path d="M 1031.554898 390.069341 
L 1038.583588 181.103065 
" style="fill: none; stroke: #000000; stroke-width: 0.8; stroke-linecap: square"/>
   </g>
   <g id="xtick_22">
    <g id="line2d_28">
     <path d="M 1030.043881 384.657392 
L 1035.076277 386.1354 
" style="fill: none; stroke: #000000; stroke-width: 0.8; stroke-linecap: square"/>
    </g>
    <g id="text_23">
     <!-- −0.05 -->
     <g transform="translate(1045.213399 378.864989) scale(0.21 -0.21)">
      <defs>
       <path id="DejaVuSans-2212" d="M 678 2272 
L 4684 2272 
L 4684 1741 
L 678 1741 
L 678 2272 
z
" transform="scale(0.015625)"/>
      </defs>
      <use xlink:href="#DejaVuSans-2212"/>
      <use xlink:href="#DejaVuSans-30" x="83.789062"/>
      <use xlink:href="#DejaVuSans-2e" x="147.412109"/>
      <use xlink:href="#DejaVuSans-30" x="179.199219"/>
      <use xlink:href="#DejaVuSans-35" x="242.822266"/>
     </g>
    </g>
   </g>
   <g id="xtick_23">
    <g id="line2d_29">
     <path d="M 1030.796201 362.052438 
L 1035.853084 363.517612 
" style="fill: none; stroke: #000000; stroke-width: 0.8; stroke-linecap: square"/>
    </g>
    <g id="text_24">
     <!-- 0.00 -->
     <g transform="translate(1046.036781 356.27242) scale(0.21 -0.21)">
      <use xlink:href="#DejaVuSans-30"/>
      <use xlink:href="#DejaVuSans-2e" x="63.623047"/>
      <use xlink:href="#DejaVuSans-30" x="95.410156"/>
      <use xlink:href="#DejaVuSans-30" x="159.033203"/>
     </g>
    </g>
   </g>
   <g id="xtick_24">
    <g id="line2d_30">
     <path d="M 1031.555673 339.232604 
L 1036.637281 340.684634 
" style="fill: none; stroke: #000000; stroke-width: 0.8; stroke-linecap: square"/>
    </g>
    <g id="text_25">
     <!-- 0.05 -->
     <g transform="translate(1046.867983 333.465272) scale(0.21 -0.21)">
      <use xlink:href="#DejaVuSans-30"/>
      <use xlink:href="#DejaVuSans-2e" x="63.623047"/>
      <use xlink:href="#DejaVuSans-30" x="95.410156"/>
      <use xlink:href="#DejaVuSans-35" x="159.033203"/>
     </g>
    </g>
   </g>
   <g id="xtick_25">
    <g id="line2d_31">
     <path d="M 1032.322399 316.194814 
L 1037.428976 317.633379 
" style="fill: none; stroke: #000000; stroke-width: 0.8; stroke-linecap: square"/>
    </g>
    <g id="text_26">
     <!-- 0.10 -->
     <g transform="translate(1047.707117 310.440474) scale(0.21 -0.21)">
      <use xlink:href="#DejaVuSans-30"/>
      <use xlink:href="#DejaVuSans-2e" x="63.623047"/>
      <use xlink:href="#DejaVuSans-31" x="95.410156"/>
      <use xlink:href="#DejaVuSans-30" x="159.033203"/>
     </g>
    </g>
   </g>
   <g id="xtick_26">
    <g id="line2d_32">
     <path d="M 1033.096483 292.935928 
L 1038.228275 294.360703 
" style="fill: none; stroke: #000000; stroke-width: 0.8; stroke-linecap: square"/>
    </g>
    <g id="text_27">
     <!-- 0.15 -->
     <g transform="translate(1048.554298 287.194896) scale(0.21 -0.21)">
      <use xlink:href="#DejaVuSans-30"/>
      <use xlink:href="#DejaVuSans-2e" x="63.623047"/>
      <use xlink:href="#DejaVuSans-31" x="95.410156"/>
      <use xlink:href="#DejaVuSans-35" x="159.033203"/>
     </g>
    </g>
   </g>
   <g id="xtick_27">
    <g id="line2d_33">
     <path d="M 1033.878032 269.452749 
L 1039.035288 270.863401 
" style="fill: none; stroke: #000000; stroke-width: 0.8; stroke-linecap: square"/>
    </g>
    <g id="text_28">
     <!-- 0.20 -->
     <g transform="translate(1049.409641 263.725345) scale(0.21 -0.21)">
      <use xlink:href="#DejaVuSans-30"/>
      <use xlink:href="#DejaVuSans-2e" x="63.623047"/>
      <use xlink:href="#DejaVuSans-32" x="95.410156"/>
      <use xlink:href="#DejaVuSans-30" x="159.033203"/>
     </g>
    </g>
   </g>
   <g id="xtick_28">
    <g id="line2d_34">
     <path d="M 1034.667154 245.742017 
L 1039.850129 247.138204 
" style="fill: none; stroke: #000000; stroke-width: 0.8; stroke-linecap: square"/>
    </g>
    <g id="text_29">
     <!-- 0.25 -->
     <g transform="translate(1050.273266 240.028571) scale(0.21 -0.21)">
      <use xlink:href="#DejaVuSans-30"/>
      <use xlink:href="#DejaVuSans-2e" x="63.623047"/>
      <use xlink:href="#DejaVuSans-32" x="95.410156"/>
      <use xlink:href="#DejaVuSans-35" x="159.033203"/>
     </g>
    </g>
   </g>
   <g id="xtick_29">
    <g id="line2d_35">
     <path d="M 1035.46396 221.800408 
L 1040.672911 223.18178 
" style="fill: none; stroke: #000000; stroke-width: 0.8; stroke-linecap: square"/>
    </g>
    <g id="text_30">
     <!-- 0.30 -->
     <g transform="translate(1051.145292 216.101257) scale(0.21 -0.21)">
      <use xlink:href="#DejaVuSans-30"/>
      <use xlink:href="#DejaVuSans-2e" x="63.623047"/>
      <use xlink:href="#DejaVuSans-33" x="95.410156"/>
      <use xlink:href="#DejaVuSans-30" x="159.033203"/>
     </g>
    </g>
   </g>
   <g id="xtick_30">
    <g id="line2d_36">
     <path d="M 1036.268563 197.624534 
L 1041.503752 198.990734 
" style="fill: none; stroke: #000000; stroke-width: 0.8; stroke-linecap: square"/>
    </g>
    <g id="text_31">
     <!-- 0.35 -->
     <g transform="translate(1052.025844 191.940022) scale(0.21 -0.21)">
      <use xlink:href="#DejaVuSans-30"/>
      <use xlink:href="#DejaVuSans-2e" x="63.623047"/>
      <use xlink:href="#DejaVuSans-33" x="95.410156"/>
      <use xlink:href="#DejaVuSans-35" x="159.033203"/>
     </g>
    </g>
   </g>
  </g>
  <g id="axes_2">
   <g id="Poly3DCollection_2">
    <path d="M 835.669716 316.172392 
L 835.866748 343.199915 
L 859.572276 350.22848 
L 859.507893 323.124845 
z
" clip-path="url(#p30f504806b)" style="fill: #648fff"/>
    <path d="M 821.791079 355.411799 
L 845.612317 362.544934 
L 859.572276 350.22848 
L 835.866748 343.199915 
z
" clip-path="url(#p30f504806b)" style="fill: #577ddf"/>
    <path d="M 821.513069 328.252246 
L 821.791079 355.411799 
L 835.866748 343.199915 
L 835.669716 316.172392 
z
" clip-path="url(#p30f504806b)" style="fill: #324880"/>
    <path d="M 845.468253 335.308725 
L 859.507893 323.124845 
L 859.572276 350.22848 
L 845.612317 362.544934 
z
" clip-path="url(#p30f504806b)" style="fill: #648fff"/>
    <path d="M 821.513069 328.252246 
L 835.669716 316.172392 
L 859.507893 323.124845 
L 845.468253 335.308725 
z
" clip-path="url(#p30f504806b)" style="fill: #3f599f"/>
    <path d="M 821.513069 328.252246 
L 845.468253 335.308725 
L 845.612317 362.544934 
L 821.791079 355.411799 
z
" clip-path="url(#p30f504806b)" style="fill: #324880"/>
    <path d="M 883.551027 330.137074 
L 883.480474 357.317135 
L 907.593953 364.466656 
L 907.801772 337.209853 
z
" clip-path="url(#p30f504806b)" style="fill: #648fff"/>
    <path d="M 869.638733 369.739508 
L 893.872991 376.99632 
L 907.593953 364.466656 
L 883.480474 357.317135 
z
" clip-path="url(#p30f504806b)" style="fill: #577ddf"/>
    <path d="M 869.630946 342.426328 
L 869.638733 369.739508 
L 883.480474 357.317135 
L 883.551027 330.137074 
z
" clip-path="url(#p30f504806b)" style="fill: #324880"/>
    <path d="M 894.003855 349.605856 
L 907.801772 337.209853 
L 907.593953 364.466656 
L 893.872991 376.99632 
z
" clip-path="url(#p30f504806b)" style="fill: #648fff"/>
    <path d="M 807.144266 340.513132 
L 807.505663 367.805657 
L 831.443436 375.045713 
L 831.217298 347.675988 
z
" clip-path="url(#p30f504806b)" style="fill: #648fff"/>
    <path d="M 869.630946 342.426328 
L 883.551027 330.137074 
L 907.801772 337.209853 
L 894.003855 349.605856 
z
" clip-path="url(#p30f504806b)" style="fill: #3f599f"/>
    <path d="M 793.005775 380.385588 
L 817.060907 387.734988 
L 831.443436 375.045713 
L 807.505663 367.805657 
z
" clip-path="url(#p30f504806b)" style="fill: #577ddf"/>
    <path d="M 869.630946 342.426328 
L 894.003855 349.605856 
L 893.872991 376.99632 
L 869.638733 369.739508 
z
" clip-path="url(#p30f504806b)" style="fill: #324880"/>
    <path d="M 792.558504 352.95915 
L 793.005775 380.385588 
L 807.505663 367.805657 
L 807.144266 340.513132 
z
" clip-path="url(#p30f504806b)" style="fill: #324880"/>
    <path d="M 816.750221 360.230807 
L 831.217298 347.675988 
L 831.443436 375.045713 
L 817.060907 387.734988 
z
" clip-path="url(#p30f504806b)" style="fill: #648fff"/>
    <path d="M 792.558504 352.95915 
L 807.144266 340.513132 
L 831.217298 347.675988 
L 816.750221 360.230807 
z
" clip-path="url(#p30f504806b)" style="fill: #3f599f"/>
    <path d="M 792.558504 352.95915 
L 816.750221 360.230807 
L 817.060907 387.734988 
L 793.005775 380.385588 
z
" clip-path="url(#p30f504806b)" style="fill: #324880"/>
    <path d="M 855.500435 354.90136 
L 855.588941 382.348599 
L 879.944894 389.715135 
L 879.99644 362.190071 
z
" clip-path="url(#p30f504806b)" style="fill: #648fff"/>
    <path d="M 841.326371 395.148648 
L 865.804936 402.627416 
L 879.944894 389.715135 
L 855.588941 382.348599 
z
" clip-path="url(#p30f504806b)" style="fill: #577ddf"/>
    <path d="M 841.154686 367.566414 
L 841.326371 395.148648 
L 855.588941 382.348599 
L 855.500435 354.90136 
z
" clip-path="url(#p30f504806b)" style="fill: #324880"/>
    <path d="M 981.826923 358.799439 
L 981.826923 358.799439 
L 1006.935599 366.122435 
L 1006.935599 366.122435 
z
" clip-path="url(#p30f504806b)" style="fill: #648fff"/>
    <path d="M 865.77472 374.966817 
L 879.99644 362.190071 
L 879.944894 389.715135 
L 865.804936 402.627416 
z
" clip-path="url(#p30f504806b)" style="fill: #648fff"/>
    <path d="M 841.154686 367.566414 
L 855.500435 354.90136 
L 879.99644 362.190071 
L 865.77472 374.966817 
z
" clip-path="url(#p30f504806b)" style="fill: #3f599f"/>
    <path d="M 968.411675 371.524165 
L 968.411675 371.524165 
L 981.826923 358.799439 
L 981.826923 358.799439 
z
" clip-path="url(#p30f504806b)" style="fill: #324880"/>
    <path d="M 841.154686 367.566414 
L 865.77472 374.966817 
L 865.804936 402.627416 
L 841.326371 395.148648 
z
" clip-path="url(#p30f504806b)" style="fill: #324880"/>
    <path d="M 968.411675 371.524165 
L 981.826923 358.799439 
L 1006.935599 366.122435 
L 993.65349 378.959646 
z
" clip-path="url(#p30f504806b)" style="fill: #3f599f"/>
    <path d="M 968.411675 371.524165 
L 993.65349 378.959646 
L 1006.935599 366.122435 
L 981.826923 358.799439 
z
" clip-path="url(#p30f504806b)" style="fill: #577ddf"/>
    <path d="M 993.65349 378.959646 
L 1006.935599 366.122435 
L 1006.935599 366.122435 
L 993.65349 378.959646 
z
" clip-path="url(#p30f504806b)" style="fill: #648fff"/>
    <path d="M 968.411675 371.524165 
L 993.65349 378.959646 
L 993.65349 378.959646 
L 968.411675 371.524165 
z
" clip-path="url(#p30f504806b)" style="fill: #324880"/>
    <path d="M 826.588743 380.425864 
L 826.588743 380.425864 
L 851.333737 387.940547 
L 851.333737 387.940547 
z
" clip-path="url(#p30f504806b)" style="fill: #648fff"/>
    <path d="M 811.797498 393.484221 
L 811.797498 393.484221 
L 826.588743 380.425864 
L 826.588743 380.425864 
z
" clip-path="url(#p30f504806b)" style="fill: #324880"/>
    <path d="M 954.790025 384.444669 
L 954.790025 384.444669 
L 980.166117 391.995247 
L 980.166117 391.995247 
z
" clip-path="url(#p30f504806b)" style="fill: #648fff"/>
    <path d="M 811.797498 393.484221 
L 826.588743 380.425864 
L 851.333737 387.940547 
L 836.668384 401.115851 
z
" clip-path="url(#p30f504806b)" style="fill: #3f599f"/>
    <path d="M 811.797498 393.484221 
L 836.668384 401.115851 
L 851.333737 387.940547 
L 826.588743 380.425864 
z
" clip-path="url(#p30f504806b)" style="fill: #577ddf"/>
    <path d="M 940.957173 397.565504 
L 940.957173 397.565504 
L 954.790025 384.444669 
L 954.790025 384.444669 
z
" clip-path="url(#p30f504806b)" style="fill: #324880"/>
    <path d="M 836.668384 401.115851 
L 851.333737 387.940547 
L 851.333737 387.940547 
L 836.668384 401.115851 
z
" clip-path="url(#p30f504806b)" style="fill: #648fff"/>
    <path d="M 940.957173 397.565504 
L 954.790025 384.444669 
L 980.166117 391.995247 
L 966.468684 405.233871 
z
" clip-path="url(#p30f504806b)" style="fill: #3f599f"/>
    <path d="M 940.957173 397.565504 
L 966.468684 405.233871 
L 980.166117 391.995247 
L 954.790025 384.444669 
z
" clip-path="url(#p30f504806b)" style="fill: #577ddf"/>
    <path d="M 811.797498 393.484221 
L 836.668384 401.115851 
L 836.668384 401.115851 
L 811.797498 393.484221 
z
" clip-path="url(#p30f504806b)" style="fill: #324880"/>
    <path d="M 966.468684 405.233871 
L 980.166117 391.995247 
L 980.166117 391.995247 
L 966.468684 405.233871 
z
" clip-path="url(#p30f504806b)" style="fill: #648fff"/>
    <path d="M 940.957173 397.565504 
L 966.468684 405.233871 
L 966.468684 405.233871 
L 940.957173 397.565504 
z
" clip-path="url(#p30f504806b)" style="fill: #324880"/>
    <path d="M 796.775681 406.746136 
L 796.775681 406.746136 
L 821.773388 414.497466 
L 821.773388 414.497466 
z
" clip-path="url(#p30f504806b)" style="fill: #648fff"/>
    <path d="M 781.517861 420.216407 
L 781.517861 420.216407 
L 796.775681 406.746136 
L 796.775681 406.746136 
z
" clip-path="url(#p30f504806b)" style="fill: #324880"/>
    <path d="M 781.517861 420.216407 
L 796.775681 406.746136 
L 821.773388 414.497466 
L 806.643314 428.090273 
z
" clip-path="url(#p30f504806b)" style="fill: #3f599f"/>
    <path d="M 781.517861 420.216407 
L 806.643314 428.090273 
L 821.773388 414.497466 
L 796.775681 406.746136 
z
" clip-path="url(#p30f504806b)" style="fill: #577ddf"/>
    <path d="M 806.643314 428.090273 
L 821.773388 414.497466 
L 821.773388 414.497466 
L 806.643314 428.090273 
z
" clip-path="url(#p30f504806b)" style="fill: #648fff"/>
    <path d="M 781.517861 420.216407 
L 806.643314 428.090273 
L 806.643314 428.090273 
L 781.517861 420.216407 
z
" clip-path="url(#p30f504806b)" style="fill: #324880"/>
   </g>
   <g id="Poly3DCollection_3">
    <path d="M 711.816792 407.503271 
L 915.253487 471.597785 
L 1026.104785 363.434579 
L 830.855528 306.770386 
z
" clip-path="url(#p30f504806b)" style="fill-opacity: 0.25"/>
   </g>
   <g id="Poly3DCollection_4">
    <path d="M 932.262831 344.34397 
L 932.262831 344.34397 
L 956.936949 351.540227 
L 956.936949 351.540227 
z
" clip-path="url(#p30f504806b)" style="fill: #324880"/>
    <path d="M 918.589736 356.848118 
L 918.589736 356.848118 
L 932.262831 344.34397 
L 932.262831 344.34397 
z
" clip-path="url(#p30f504806b)" style="fill: #648fff"/>
    <path d="M 918.589736 356.848118 
L 943.391391 364.153941 
L 956.936949 351.540227 
L 932.262831 344.34397 
z
" clip-path="url(#p30f504806b)" style="fill: #577ddf"/>
    <path d="M 918.589736 356.848118 
L 932.262831 344.34397 
L 956.936949 351.540227 
L 943.391391 364.153941 
z
" clip-path="url(#p30f504806b)" style="fill: #3f599f"/>
    <path d="M 943.391391 364.153941 
L 956.936949 351.540227 
L 956.936949 351.540227 
L 943.391391 364.153941 
z
" clip-path="url(#p30f504806b)" style="fill: #324880"/>
    <path d="M 918.589736 356.848118 
L 943.391391 364.153941 
L 943.391391 364.153941 
L 918.589736 356.848118 
z
" clip-path="url(#p30f504806b)" style="fill: #648fff"/>
    <path d="M 777.750831 365.594524 
L 777.750831 365.594524 
L 802.062066 372.977481 
L 802.062066 372.977481 
z
" clip-path="url(#p30f504806b)" style="fill: #324880"/>
    <path d="M 762.716143 378.42361 
L 762.716143 378.42361 
L 777.750831 365.594524 
L 777.750831 365.594524 
z
" clip-path="url(#p30f504806b)" style="fill: #648fff"/>
    <path d="M 904.708124 369.542955 
L 904.708124 369.542955 
L 929.638348 376.960866 
L 929.638348 376.960866 
z
" clip-path="url(#p30f504806b)" style="fill: #324880"/>
    <path d="M 762.716143 378.42361 
L 777.750831 365.594524 
L 802.062066 372.977481 
L 787.147729 385.920441 
z
" clip-path="url(#p30f504806b)" style="fill: #3f599f"/>
    <path d="M 762.716143 378.42361 
L 787.147729 385.920441 
L 802.062066 372.977481 
L 777.750831 365.594524 
z
" clip-path="url(#p30f504806b)" style="fill: #577ddf"/>
    <path d="M 890.61319 382.432878 
L 890.61319 382.432878 
L 904.708124 369.542955 
L 904.708124 369.542955 
z
" clip-path="url(#p30f504806b)" style="fill: #648fff"/>
    <path d="M 787.147729 385.920441 
L 802.062066 372.977481 
L 802.062066 372.977481 
L 787.147729 385.920441 
z
" clip-path="url(#p30f504806b)" style="fill: #324880"/>
    <path d="M 890.61319 382.432878 
L 904.708124 369.542955 
L 929.638348 376.960866 
L 915.673017 389.965476 
z
" clip-path="url(#p30f504806b)" style="fill: #3f599f"/>
    <path d="M 890.61319 382.432878 
L 915.673017 389.965476 
L 929.638348 376.960866 
L 904.708124 369.542955 
z
" clip-path="url(#p30f504806b)" style="fill: #577ddf"/>
    <path d="M 762.716143 378.42361 
L 787.147729 385.920441 
L 787.147729 385.920441 
L 762.716143 378.42361 
z
" clip-path="url(#p30f504806b)" style="fill: #648fff"/>
    <path d="M 915.673017 389.965476 
L 929.638348 376.960866 
L 929.638348 376.960866 
L 915.673017 389.965476 
z
" clip-path="url(#p30f504806b)" style="fill: #324880"/>
    <path d="M 890.61319 382.432878 
L 915.673017 389.965476 
L 915.673017 389.965476 
L 890.61319 382.432878 
z
" clip-path="url(#p30f504806b)" style="fill: #648fff"/>
    <path d="M 747.44918 391.450896 
L 747.44918 391.450896 
L 772.001944 399.064256 
L 772.001944 399.064256 
z
" clip-path="url(#p30f504806b)" style="fill: #324880"/>
    <path d="M 731.944517 404.68101 
L 731.944517 404.68101 
L 747.44918 391.450896 
L 747.44918 391.450896 
z
" clip-path="url(#p30f504806b)" style="fill: #648fff"/>
    <path d="M 731.944517 404.68101 
L 747.44918 391.450896 
L 772.001944 399.064256 
L 756.619281 412.413639 
z
" clip-path="url(#p30f504806b)" style="fill: #3f599f"/>
    <path d="M 731.944517 404.68101 
L 756.619281 412.413639 
L 772.001944 399.064256 
L 747.44918 391.450896 
z
" clip-path="url(#p30f504806b)" style="fill: #577ddf"/>
    <path d="M 876.299977 395.522418 
L 876.3313 367.316309 
L 901.671607 374.884322 
L 901.490443 403.172384 
z
" clip-path="url(#p30f504806b)" style="fill: #324880"/>
    <path d="M 756.619281 412.413639 
L 772.001944 399.064256 
L 772.001944 399.064256 
L 756.619281 412.413639 
z
" clip-path="url(#p30f504806b)" style="fill: #324880"/>
    <path d="M 861.763376 408.816249 
L 876.299977 395.522418 
L 901.490443 403.172384 
L 887.085517 416.586346 
z
" clip-path="url(#p30f504806b)" style="fill: #3f599f"/>
    <path d="M 861.763376 408.816249 
L 861.708271 380.467983 
L 876.3313 367.316309 
L 876.299977 395.522418 
z
" clip-path="url(#p30f504806b)" style="fill: #648fff"/>
    <path d="M 731.944517 404.68101 
L 756.619281 412.413639 
L 756.619281 412.413639 
L 731.944517 404.68101 
z
" clip-path="url(#p30f504806b)" style="fill: #648fff"/>
    <path d="M 887.085517 416.586346 
L 901.490443 403.172384 
L 901.671607 374.884322 
L 887.181831 388.155554 
z
" clip-path="url(#p30f504806b)" style="fill: #324880"/>
    <path d="M 861.708271 380.467983 
L 887.181831 388.155554 
L 901.671607 374.884322 
L 876.3313 367.316309 
z
" clip-path="url(#p30f504806b)" style="fill: #577ddf"/>
    <path d="M 861.763376 408.816249 
L 887.085517 416.586346 
L 887.181831 388.155554 
L 861.708271 380.467983 
z
" clip-path="url(#p30f504806b)" style="fill: #648fff"/>
    <path d="M 926.908169 410.891365 
L 927.241891 382.521018 
L 953.045298 390.227338 
L 952.556244 418.6803 
z
" clip-path="url(#p30f504806b)" style="fill: #324880"/>
    <path d="M 912.637906 424.427096 
L 926.908169 410.891365 
L 952.556244 418.6803 
L 938.423696 432.339464 
z
" clip-path="url(#p30f504806b)" style="fill: #3f599f"/>
    <path d="M 912.637906 424.427096 
L 912.888408 395.913446 
L 927.241891 382.521018 
L 926.908169 410.891365 
z
" clip-path="url(#p30f504806b)" style="fill: #648fff"/>
    <path d="M 938.423696 432.339464 
L 952.556244 418.6803 
L 953.045298 390.227338 
L 938.831216 403.74263 
z
" clip-path="url(#p30f504806b)" style="fill: #324880"/>
    <path d="M 846.998116 422.31919 
L 846.853841 393.827774 
L 872.46171 401.637759 
L 872.45297 430.212272 
z
" clip-path="url(#p30f504806b)" style="fill: #324880"/>
    <path d="M 912.888408 395.913446 
L 938.831216 403.74263 
L 953.045298 390.227338 
L 927.241891 382.521018 
z
" clip-path="url(#p30f504806b)" style="fill: #577ddf"/>
    <path d="M 831.998758 436.036214 
L 846.998116 422.31919 
L 872.45297 430.212272 
L 857.587364 444.055224 
z
" clip-path="url(#p30f504806b)" style="fill: #3f599f"/>
    <path d="M 912.637906 424.427096 
L 938.423696 432.339464 
L 938.831216 403.74263 
L 912.888408 395.913446 
z
" clip-path="url(#p30f504806b)" style="fill: #648fff"/>
    <path d="M 831.998758 436.036214 
L 831.762473 407.400662 
L 846.853841 393.827774 
L 846.998116 422.31919 
z
" clip-path="url(#p30f504806b)" style="fill: #648fff"/>
    <path d="M 857.587364 444.055224 
L 872.45297 430.212272 
L 872.46171 401.637759 
L 857.505707 415.336008 
z
" clip-path="url(#p30f504806b)" style="fill: #324880"/>
    <path d="M 831.762473 407.400662 
L 857.505707 415.336008 
L 872.46171 401.637759 
L 846.853841 393.827774 
z
" clip-path="url(#p30f504806b)" style="fill: #577ddf"/>
    <path d="M 831.998758 436.036214 
L 857.587364 444.055224 
L 857.505707 415.336008 
L 831.762473 407.400662 
z
" clip-path="url(#p30f504806b)" style="fill: #648fff"/>
    <path d="M 898.141116 438.177693 
L 898.305695 409.519756 
L 924.389079 417.474765 
L 924.065775 446.216453 
z
" clip-path="url(#p30f504806b)" style="fill: #324880"/>
    <path d="M 883.412362 452.148315 
L 898.141116 438.177693 
L 924.065775 446.216453 
L 909.477045 460.316519 
z
" clip-path="url(#p30f504806b)" style="fill: #3f599f"/>
    <path d="M 883.412362 452.148315 
L 883.488217 423.345111 
L 898.305695 409.519756 
L 898.141116 438.177693 
z
" clip-path="url(#p30f504806b)" style="fill: #648fff"/>
    <path d="M 909.477045 460.316519 
L 924.065775 446.216453 
L 924.389079 417.474765 
L 909.713354 431.429004 
z
" clip-path="url(#p30f504806b)" style="fill: #324880"/>
    <path d="M 883.488217 423.345111 
L 909.713354 431.429004 
L 924.389079 417.474765 
L 898.305695 409.519756 
z
" clip-path="url(#p30f504806b)" style="fill: #577ddf"/>
    <path d="M 883.412362 452.148315 
L 909.477045 460.316519 
L 909.713354 431.429004 
L 883.488217 423.345111 
z
" clip-path="url(#p30f504806b)" style="fill: #648fff"/>
   </g>
   <g id="text_32">
    <!-- Imaginary Amplitude (ρ) -->
    <g transform="translate(735.696563 51.6) scale(0.21 -0.21)">
     <defs>
      <path id="DejaVuSans-49" d="M 628 4666 
L 1259 4666 
L 1259 0 
L 628 0 
L 628 4666 
z
" transform="scale(0.015625)"/>
      <path id="DejaVuSans-67" d="M 2906 1791 
Q 2906 2416 2648 2759 
Q 2391 3103 1925 3103 
Q 1463 3103 1205 2759 
Q 947 2416 947 1791 
Q 947 1169 1205 825 
Q 1463 481 1925 481 
Q 2391 481 2648 825 
Q 2906 1169 2906 1791 
z
M 3481 434 
Q 3481 -459 3084 -895 
Q 2688 -1331 1869 -1331 
Q 1566 -1331 1297 -1286 
Q 1028 -1241 775 -1147 
L 775 -588 
Q 1028 -725 1275 -790 
Q 1522 -856 1778 -856 
Q 2344 -856 2625 -561 
Q 2906 -266 2906 331 
L 2906 616 
Q 2728 306 2450 153 
Q 2172 0 1784 0 
Q 1141 0 747 490 
Q 353 981 353 1791 
Q 353 2603 747 3093 
Q 1141 3584 1784 3584 
Q 2172 3584 2450 3431 
Q 2728 3278 2906 2969 
L 2906 3500 
L 3481 3500 
L 3481 434 
z
" transform="scale(0.015625)"/>
      <path id="DejaVuSans-6e" d="M 3513 2113 
L 3513 0 
L 2938 0 
L 2938 2094 
Q 2938 2591 2744 2837 
Q 2550 3084 2163 3084 
Q 1697 3084 1428 2787 
Q 1159 2491 1159 1978 
L 1159 0 
L 581 0 
L 581 3500 
L 1159 3500 
L 1159 2956 
Q 1366 3272 1645 3428 
Q 1925 3584 2291 3584 
Q 2894 3584 3203 3211 
Q 3513 2838 3513 2113 
z
" transform="scale(0.015625)"/>
      <path id="DejaVuSans-72" d="M 2631 2963 
Q 2534 3019 2420 3045 
Q 2306 3072 2169 3072 
Q 1681 3072 1420 2755 
Q 1159 2438 1159 1844 
L 1159 0 
L 581 0 
L 581 3500 
L 1159 3500 
L 1159 2956 
Q 1341 3275 1631 3429 
Q 1922 3584 2338 3584 
Q 2397 3584 2469 3576 
Q 2541 3569 2628 3553 
L 2631 2963 
z
" transform="scale(0.015625)"/>
      <path id="DejaVuSans-79" d="M 2059 -325 
Q 1816 -950 1584 -1140 
Q 1353 -1331 966 -1331 
L 506 -1331 
L 506 -850 
L 844 -850 
Q 1081 -850 1212 -737 
Q 1344 -625 1503 -206 
L 1606 56 
L 191 3500 
L 800 3500 
L 1894 763 
L 2988 3500 
L 3597 3500 
L 2059 -325 
z
" transform="scale(0.015625)"/>
     </defs>
     <use xlink:href="#DejaVuSans-49"/>
     <use xlink:href="#DejaVuSans-6d" x="29.492188"/>
     <use xlink:href="#DejaVuSans-61" x="126.904297"/>
     <use xlink:href="#DejaVuSans-67" x="188.183594"/>
     <use xlink:href="#DejaVuSans-69" x="251.660156"/>
     <use xlink:href="#DejaVuSans-6e" x="279.443359"/>
     <use xlink:href="#DejaVuSans-61" x="342.822266"/>
     <use xlink:href="#DejaVuSans-72" x="404.101562"/>
     <use xlink:href="#DejaVuSans-79" x="445.214844"/>
     <use xlink:href="#DejaVuSans-20" x="504.394531"/>
     <use xlink:href="#DejaVuSans-41" x="536.181641"/>
     <use xlink:href="#DejaVuSans-6d" x="604.589844"/>
     <use xlink:href="#DejaVuSans-70" x="702.001953"/>
     <use xlink:href="#DejaVuSans-6c" x="765.478516"/>
     <use xlink:href="#DejaVuSans-69" x="793.261719"/>
     <use xlink:href="#DejaVuSans-74" x="821.044922"/>
     <use xlink:href="#DejaVuSans-75" x="860.253906"/>
     <use xlink:href="#DejaVuSans-64" x="923.632812"/>
     <use xlink:href="#DejaVuSans-65" x="987.109375"/>
     <use xlink:href="#DejaVuSans-20" x="1048.632812"/>
     <use xlink:href="#DejaVuSans-28" x="1080.419922"/>
     <use xlink:href="#DejaVuSans-3c1" x="1119.433594"/>
     <use xlink:href="#DejaVuSans-29" x="1182.910156"/>
    </g>
   </g>
  </g>
 </g>
 <defs>
  <clipPath id="pe7da5f2dda">
   <rect x="28.8" y="57.6" width="518.4" height="518.4"/>
  </clipPath>
  <clipPath id="p30f504806b">
   <rect x="604.8" y="57.6" width="518.4" height="518.4"/>
  </clipPath>
 </defs>
</svg>
