<?xml version="1.0" encoding="utf-8" standalone="no"?>
<!DOCTYPE svg PUBLIC "-//W3C//DTD SVG 1.1//EN"
  "http://www.w3.org/Graphics/SVG/1.1/DTD/svg11.dtd">
<svg xmlns:xlink="http://www.w3.org/1999/xlink" width="1152pt" height="576pt" viewBox="0 0 1152 576" xmlns="http://www.w3.org/2000/svg" version="1.1">
 <metadata>
  <rdf:RDF xmlns:dc="http://purl.org/dc/elements/1.1/" xmlns:cc="http://creativecommons.org/ns#" xmlns:rdf="http://www.w3.org/1999/02/22-rdf-syntax-ns#">
   <cc:Work>
    <dc:type rdf:resource="http://purl.org/dc/dcmitype/StillImage"/>
    <dc:date>2024-11-04T22:03:13.654640</dc:date>
    <dc:format>image/svg+xml</dc:format>
    <dc:creator>
     <cc:Agent>
      <dc:title>Matplotlib v3.9.2, https://matplotlib.org/</dc:title>
     </cc:Agent>
    </dc:creator>
   </cc:Work>
  </rdf:RDF>
 </metadata>
 <defs>
  <style type="text/css">*{stroke-linejoin: round; stroke-linecap: butt}</style>
 </defs>
 <g id="figure_1">
  <g id="patch_1">
   <path d="M 0 576 
L 1152 576 
L 1152 0 
L 0 0 
z
" style="fill: #ffffff"/>
  </g>
  <g id="patch_2">
   <path d="M 28.8 576 
L 547.2 576 
L 547.2 57.6 
L 28.8 57.6 
z
" style="fill: #ffffff"/>
  </g>
  <g id="pane3d_1">
   <g id="patch_3">
    <path d="M 130.07018 436.456468 
L 253.494133 330.550231 
L 251.743197 126.70673 
L 122.643358 223.613571 
" style="fill: #f2f2f2; opacity: 0.5; stroke: #f2f2f2; stroke-linejoin: miter"/>
   </g>
  </g>
  <g id="pane3d_2">
   <g id="patch_4">
    <path d="M 253.494133 330.550231 
L 455.554898 390.069341 
L 462.583588 181.103065 
L 251.743197 126.70673 
" style="fill: #e6e6e6; opacity: 0.5; stroke: #e6e6e6; stroke-linejoin: miter"/>
   </g>
  </g>
  <g id="pane3d_3">
   <g id="patch_5">
    <path d="M 130.07018 436.456468 
L 340.912731 504.076731 
L 455.554898 390.069341 
L 253.494133 330.550231 
" style="fill: #ececec; opacity: 0.5; stroke: #ececec; stroke-linejoin: miter"/>
   </g>
  </g>
  <g id="grid3d_1">
   <g id="Line3DCollection_1">
    <path d="M 158.635886 445.617904 
L 280.925726 338.630493 
L 280.328796 134.081748 
" style="fill: none; stroke: #b0b0b0; stroke-width: 0.8"/>
    <path d="M 208.310046 461.549127 
L 328.58611 352.669358 
L 330.022474 146.902603 
" style="fill: none; stroke: #b0b0b0; stroke-width: 0.8"/>
    <path d="M 258.89502 477.772462 
L 377.066152 366.949661 
L 380.607663 159.953465 
" style="fill: none; stroke: #b0b0b0; stroke-width: 0.8"/>
    <path d="M 310.41609 494.296016 
L 426.38718 381.477685 
L 432.108569 173.24058 
" style="fill: none; stroke: #b0b0b0; stroke-width: 0.8"/>
   </g>
  </g>
  <g id="grid3d_2">
   <g id="Line3DCollection_2">
    <path d="M 141.757365 209.265931 
L 148.301379 420.812846 
L 357.880707 487.202708 
" style="fill: none; stroke: #b0b0b0; stroke-width: 0.8"/>
    <path d="M 173.704273 185.285468 
L 178.805664 394.638072 
L 386.24502 458.995448 
" style="fill: none; stroke: #b0b0b0; stroke-width: 0.8"/>
    <path d="M 204.65707 162.051218 
L 208.400054 369.24405 
L 413.731787 431.660877 
" style="fill: none; stroke: #b0b0b0; stroke-width: 0.8"/>
    <path d="M 234.661448 139.528886 
L 237.124663 344.596362 
L 440.38111 405.159111 
" style="fill: none; stroke: #b0b0b0; stroke-width: 0.8"/>
   </g>
  </g>
  <g id="grid3d_3">
   <g id="Line3DCollection_3">
    <path d="M 456.573533 359.784831 
L 253.240045 300.969388 
L 128.994946 405.641686 
" style="fill: none; stroke: #b0b0b0; stroke-width: 0.8"/>
    <path d="M 457.769752 324.220676 
L 252.941805 266.248362 
L 127.731785 369.441172 
" style="fill: none; stroke: #b0b0b0; stroke-width: 0.8"/>
    <path d="M 458.983816 288.125972 
L 252.639275 231.027894 
L 126.449255 332.68554 
" style="fill: none; stroke: #b0b0b0; stroke-width: 0.8"/>
    <path d="M 460.216128 251.488759 
L 252.332362 195.297131 
L 125.146905 295.361923 
" style="fill: none; stroke: #b0b0b0; stroke-width: 0.8"/>
    <path d="M 461.467102 214.296713 
L 252.020969 159.044901 
L 123.824274 257.457053 
" style="fill: none; stroke: #b0b0b0; stroke-width: 0.8"/>
   </g>
  </g>
  <g id="axis3d_1">
   <g id="line2d_1">
    <path d="M 130.07018 436.456468 
L 340.912731 504.076731 
" style="fill: none; stroke: #000000; stroke-width: 0.8; stroke-linecap: square"/>
   </g>
   <g id="xtick_1">
    <g id="line2d_2">
     <path d="M 159.677227 444.706868 
L 156.549953 447.442819 
" style="fill: none; stroke: #000000; stroke-width: 0.8; stroke-linecap: square"/>
    </g>
    <g id="text_1">
     <!-- 00 -->
     <g transform="translate(131.351686 489.365693) rotate(-45) scale(0.21 -0.21)">
      <defs>
       <path id="DejaVuSans-30" d="M 2034 4250 
Q 1547 4250 1301 3770 
Q 1056 3291 1056 2328 
Q 1056 1369 1301 889 
Q 1547 409 2034 409 
Q 2525 409 2770 889 
Q 3016 1369 3016 2328 
Q 3016 3291 2770 3770 
Q 2525 4250 2034 4250 
z
M 2034 4750 
Q 2819 4750 3233 4129 
Q 3647 3509 3647 2328 
Q 3647 1150 3233 529 
Q 2819 -91 2034 -91 
Q 1250 -91 836 529 
Q 422 1150 422 2328 
Q 422 3509 836 4129 
Q 1250 4750 2034 4750 
z
" transform="scale(0.015625)"/>
      </defs>
      <use xlink:href="#DejaVuSans-30"/>
      <use xlink:href="#DejaVuSans-30" x="63.623047"/>
     </g>
    </g>
   </g>
   <g id="xtick_2">
    <g id="line2d_3">
     <path d="M 209.334802 460.621468 
L 206.257306 463.407368 
" style="fill: none; stroke: #000000; stroke-width: 0.8; stroke-linecap: square"/>
    </g>
    <g id="text_2">
     <!-- 01 -->
     <g transform="translate(181.023931 505.435143) rotate(-45) scale(0.21 -0.21)">
      <defs>
       <path id="DejaVuSans-31" d="M 794 531 
L 1825 531 
L 1825 4091 
L 703 3866 
L 703 4441 
L 1819 4666 
L 2450 4666 
L 2450 531 
L 3481 531 
L 3481 0 
L 794 0 
L 794 531 
z
" transform="scale(0.015625)"/>
      </defs>
      <use xlink:href="#DejaVuSans-30"/>
      <use xlink:href="#DejaVuSans-31" x="63.623047"/>
     </g>
    </g>
   </g>
   <g id="xtick_3">
    <g id="line2d_4">
     <path d="M 259.902405 476.82772 
L 256.877048 479.664949 
" style="fill: none; stroke: #000000; stroke-width: 0.8; stroke-linecap: square"/>
    </g>
    <g id="text_3">
     <!-- 10 -->
     <g transform="translate(231.60781 521.799516) rotate(-45) scale(0.21 -0.21)">
      <use xlink:href="#DejaVuSans-31"/>
      <use xlink:href="#DejaVuSans-30" x="63.623047"/>
     </g>
    </g>
   </g>
   <g id="xtick_4">
    <g id="line2d_5">
     <path d="M 311.405283 493.333715 
L 308.434531 496.223705 
" style="fill: none; stroke: #000000; stroke-width: 0.8; stroke-linecap: square"/>
    </g>
    <g id="text_4">
     <!-- 11 -->
     <g transform="translate(283.128654 538.467006) rotate(-45) scale(0.21 -0.21)">
      <use xlink:href="#DejaVuSans-31"/>
      <use xlink:href="#DejaVuSans-31" x="63.623047"/>
     </g>
    </g>
   </g>
  </g>
  <g id="axis3d_2">
   <g id="line2d_6">
    <path d="M 455.554898 390.069341 
L 340.912731 504.076731 
" style="fill: none; stroke: #000000; stroke-width: 0.8; stroke-linecap: square"/>
   </g>
   <g id="xtick_5">
    <g id="line2d_7">
     <path d="M 356.140222 486.651363 
L 361.364886 488.306415 
" style="fill: none; stroke: #000000; stroke-width: 0.8; stroke-linecap: square"/>
    </g>
    <g id="text_5">
     <!-- 00 -->
     <g transform="translate(368.70027 499.207917) rotate(-337.5) scale(0.21 -0.21)">
      <use xlink:href="#DejaVuSans-30"/>
      <use xlink:href="#DejaVuSans-30" x="63.623047"/>
     </g>
    </g>
   </g>
   <g id="xtick_6">
    <g id="line2d_8">
     <path d="M 384.5233 458.46129 
L 389.691587 460.064734 
" style="fill: none; stroke: #000000; stroke-width: 0.8; stroke-linecap: square"/>
    </g>
    <g id="text_6">
     <!-- 01 -->
     <g transform="translate(396.913817 470.822876) rotate(-337.5) scale(0.21 -0.21)">
      <use xlink:href="#DejaVuSans-30"/>
      <use xlink:href="#DejaVuSans-31" x="63.623047"/>
     </g>
    </g>
   </g>
   <g id="xtick_7">
    <g id="line2d_9">
     <path d="M 412.028511 431.143114 
L 417.141381 432.697327 
" style="fill: none; stroke: #000000; stroke-width: 0.8; stroke-linecap: square"/>
    </g>
    <g id="text_7">
     <!-- 10 -->
     <g transform="translate(424.254695 443.315808) rotate(-337.5) scale(0.21 -0.21)">
      <use xlink:href="#DejaVuSans-31"/>
      <use xlink:href="#DejaVuSans-30" x="63.623047"/>
     </g>
    </g>
   </g>
   <g id="xtick_8">
    <g id="line2d_10">
     <path d="M 438.695964 404.657001 
L 443.754368 406.164215 
" style="fill: none; stroke: #000000; stroke-width: 0.8; stroke-linecap: square"/>
    </g>
    <g id="text_8">
     <!-- 11 -->
     <g transform="translate(450.762776 416.646599) rotate(-337.5) scale(0.21 -0.21)">
      <use xlink:href="#DejaVuSans-31"/>
      <use xlink:href="#DejaVuSans-31" x="63.623047"/>
     </g>
    </g>
   </g>
  </g>
  <g id="axis3d_3">
   <g id="line2d_11">
    <path d="M 455.554898 390.069341 
L 462.583588 181.103065 
" style="fill: none; stroke: #000000; stroke-width: 0.8; stroke-linecap: square"/>
   </g>
   <g id="xtick_9">
    <g id="line2d_12">
     <path d="M 454.887897 359.29725 
L 459.947765 360.760848 
" style="fill: none; stroke: #000000; stroke-width: 0.8; stroke-linecap: square"/>
    </g>
    <g id="text_9">
     <!-- −0.1 -->
     <g transform="translate(470.137138 353.518754) scale(0.21 -0.21)">
      <defs>
       <path id="DejaVuSans-2212" d="M 678 2272 
L 4684 2272 
L 4684 1741 
L 678 1741 
L 678 2272 
z
" transform="scale(0.015625)"/>
       <path id="DejaVuSans-2e" d="M 684 794 
L 1344 794 
L 1344 0 
L 684 0 
L 684 794 
z
" transform="scale(0.015625)"/>
      </defs>
      <use xlink:href="#DejaVuSans-2212"/>
      <use xlink:href="#DejaVuSans-30" x="83.789062"/>
      <use xlink:href="#DejaVuSans-2e" x="147.412109"/>
      <use xlink:href="#DejaVuSans-31" x="179.199219"/>
     </g>
    </g>
   </g>
   <g id="xtick_10">
    <g id="line2d_13">
     <path d="M 456.071287 323.73996 
L 461.169686 325.182957 
" style="fill: none; stroke: #000000; stroke-width: 0.8; stroke-linecap: square"/>
    </g>
    <g id="text_10">
     <!-- 0.0 -->
     <g transform="translate(471.432292 317.981345) scale(0.21 -0.21)">
      <use xlink:href="#DejaVuSans-30"/>
      <use xlink:href="#DejaVuSans-2e" x="63.623047"/>
      <use xlink:href="#DejaVuSans-30" x="95.410156"/>
     </g>
    </g>
   </g>
   <g id="xtick_11">
    <g id="line2d_14">
     <path d="M 457.272326 287.652382 
L 462.409846 289.073997 
" style="fill: none; stroke: #000000; stroke-width: 0.8; stroke-linecap: square"/>
    </g>
    <g id="text_11">
     <!-- 0.1 -->
     <g transform="translate(472.746745 281.914399) scale(0.21 -0.21)">
      <use xlink:href="#DejaVuSans-30"/>
      <use xlink:href="#DejaVuSans-2e" x="63.623047"/>
      <use xlink:href="#DejaVuSans-31" x="95.410156"/>
     </g>
    </g>
   </g>
   <g id="xtick_12">
    <g id="line2d_15">
     <path d="M 458.491411 251.022563 
L 463.668658 252.421989 
" style="fill: none; stroke: #000000; stroke-width: 0.8; stroke-linecap: square"/>
    </g>
    <g id="text_12">
     <!-- 0.2 -->
     <g transform="translate(474.080931 245.305991) scale(0.21 -0.21)">
      <defs>
       <path id="DejaVuSans-32" d="M 1228 531 
L 3431 531 
L 3431 0 
L 469 0 
L 469 531 
Q 828 903 1448 1529 
Q 2069 2156 2228 2338 
Q 2531 2678 2651 2914 
Q 2772 3150 2772 3378 
Q 2772 3750 2511 3984 
Q 2250 4219 1831 4219 
Q 1534 4219 1204 4116 
Q 875 4013 500 3803 
L 500 4441 
Q 881 4594 1212 4672 
Q 1544 4750 1819 4750 
Q 2544 4750 2975 4387 
Q 3406 4025 3406 3419 
Q 3406 3131 3298 2873 
Q 3191 2616 2906 2266 
Q 2828 2175 2409 1742 
Q 1991 1309 1228 531 
z
" transform="scale(0.015625)"/>
      </defs>
      <use xlink:href="#DejaVuSans-30"/>
      <use xlink:href="#DejaVuSans-2e" x="63.623047"/>
      <use xlink:href="#DejaVuSans-32" x="95.410156"/>
     </g>
    </g>
   </g>
   <g id="xtick_13">
    <g id="line2d_16">
     <path d="M 459.728953 213.83819 
L 464.946544 215.214588 
" style="fill: none; stroke: #000000; stroke-width: 0.8; stroke-linecap: square"/>
    </g>
    <g id="text_13">
     <!-- 0.3 -->
     <g transform="translate(475.435299 208.143837) scale(0.21 -0.21)">
      <defs>
       <path id="DejaVuSans-33" d="M 2597 2516 
Q 3050 2419 3304 2112 
Q 3559 1806 3559 1356 
Q 3559 666 3084 287 
Q 2609 -91 1734 -91 
Q 1441 -91 1130 -33 
Q 819 25 488 141 
L 488 750 
Q 750 597 1062 519 
Q 1375 441 1716 441 
Q 2309 441 2620 675 
Q 2931 909 2931 1356 
Q 2931 1769 2642 2001 
Q 2353 2234 1838 2234 
L 1294 2234 
L 1294 2753 
L 1863 2753 
Q 2328 2753 2575 2939 
Q 2822 3125 2822 3475 
Q 2822 3834 2567 4026 
Q 2313 4219 1838 4219 
Q 1578 4219 1281 4162 
Q 984 4106 628 3988 
L 628 4550 
Q 988 4650 1302 4700 
Q 1616 4750 1894 4750 
Q 2613 4750 3031 4423 
Q 3450 4097 3450 3541 
Q 3450 3153 3228 2886 
Q 3006 2619 2597 2516 
z
" transform="scale(0.015625)"/>
      </defs>
      <use xlink:href="#DejaVuSans-30"/>
      <use xlink:href="#DejaVuSans-2e" x="63.623047"/>
      <use xlink:href="#DejaVuSans-33" x="95.410156"/>
     </g>
    </g>
   </g>
  </g>
  <g id="axes_1">
   <g id="Poly3DCollection_1">
    <path d="M 245.791079 355.411799 
L 269.612317 362.544934 
L 283.572276 350.22848 
L 259.866748 343.199915 
z
" clip-path="url(#p85acbfe704)" style="fill: #577ddf"/>
    <path d="M 259.395553 278.564613 
L 259.866748 343.199915 
L 283.572276 350.22848 
L 283.418301 285.409006 
z
" clip-path="url(#p85acbfe704)" style="fill: #648fff"/>
    <path d="M 245.126189 290.457006 
L 245.791079 355.411799 
L 259.866748 343.199915 
L 259.395553 278.564613 
z
" clip-path="url(#p85acbfe704)" style="fill: #324880"/>
    <path d="M 293.638733 369.739508 
L 317.872991 376.99632 
L 331.593953 364.466656 
L 307.480474 357.317135 
z
" clip-path="url(#p85acbfe704)" style="fill: #577ddf"/>
    <path d="M 269.267763 297.404612 
L 283.418301 285.409006 
L 283.572276 350.22848 
L 269.612317 362.544934 
z
" clip-path="url(#p85acbfe704)" style="fill: #648fff"/>
    <path d="M 245.126189 290.457006 
L 269.267763 297.404612 
L 269.612317 362.544934 
L 245.791079 355.411799 
z
" clip-path="url(#p85acbfe704)" style="fill: #324880"/>
    <path d="M 307.649209 292.312707 
L 307.480474 357.317135 
L 331.593953 364.466656 
L 332.090995 299.276489 
z
" clip-path="url(#p85acbfe704)" style="fill: #648fff"/>
    <path d="M 293.620108 304.412876 
L 293.638733 369.739508 
L 307.480474 357.317135 
L 307.649209 292.312707 
z
" clip-path="url(#p85acbfe704)" style="fill: #324880"/>
    <path d="M 245.126189 290.457006 
L 259.395553 278.564613 
L 283.418301 285.409006 
L 269.267763 297.404612 
z
" clip-path="url(#p85acbfe704)" style="fill: #3f599f"/>
    <path d="M 217.005775 380.385588 
L 241.060907 387.734988 
L 255.443436 375.045713 
L 231.505663 367.805657 
z
" clip-path="url(#p85acbfe704)" style="fill: #577ddf"/>
    <path d="M 318.185998 311.482595 
L 332.090995 299.276489 
L 331.593953 364.466656 
L 317.872991 376.99632 
z
" clip-path="url(#p85acbfe704)" style="fill: #648fff"/>
    <path d="M 230.641296 302.529024 
L 231.505663 367.805657 
L 255.443436 375.045713 
L 254.902555 309.582197 
z
" clip-path="url(#p85acbfe704)" style="fill: #648fff"/>
    <path d="M 293.620108 304.412876 
L 318.185998 311.482595 
L 317.872991 376.99632 
L 293.638733 369.739508 
z
" clip-path="url(#p85acbfe704)" style="fill: #324880"/>
    <path d="M 215.935955 314.784768 
L 217.005775 380.385588 
L 231.505663 367.805657 
L 230.641296 302.529024 
z
" clip-path="url(#p85acbfe704)" style="fill: #324880"/>
    <path d="M 293.620108 304.412876 
L 307.649209 292.312707 
L 332.090995 299.276489 
L 318.185998 311.482595 
z
" clip-path="url(#p85acbfe704)" style="fill: #3f599f"/>
    <path d="M 265.326371 395.148648 
L 289.804936 402.627416 
L 303.944894 389.715135 
L 279.588941 382.348599 
z
" clip-path="url(#p85acbfe704)" style="fill: #577ddf"/>
    <path d="M 240.317755 321.945932 
L 254.902555 309.582197 
L 255.443436 375.045713 
L 241.060907 387.734988 
z
" clip-path="url(#p85acbfe704)" style="fill: #648fff"/>
    <path d="M 215.935955 314.784768 
L 240.317755 321.945932 
L 241.060907 387.734988 
L 217.005775 380.385588 
z
" clip-path="url(#p85acbfe704)" style="fill: #324880"/>
    <path d="M 279.377244 316.697418 
L 279.588941 382.348599 
L 303.944894 389.715135 
L 304.068192 323.875509 
z
" clip-path="url(#p85acbfe704)" style="fill: #648fff"/>
    <path d="M 264.915693 329.170577 
L 265.326371 395.148648 
L 279.588941 382.348599 
L 279.377244 316.697418 
z
" clip-path="url(#p85acbfe704)" style="fill: #324880"/>
    <path d="M 215.935955 314.784768 
L 230.641296 302.529024 
L 254.902555 309.582197 
L 240.317755 321.945932 
z
" clip-path="url(#p85acbfe704)" style="fill: #3f599f"/>
    <path d="M 289.732655 336.459552 
L 304.068192 323.875509 
L 303.944894 389.715135 
L 289.804936 402.627416 
z
" clip-path="url(#p85acbfe704)" style="fill: #648fff"/>
    <path d="M 264.915693 329.170577 
L 289.732655 336.459552 
L 289.804936 402.627416 
L 265.326371 395.148648 
z
" clip-path="url(#p85acbfe704)" style="fill: #324880"/>
    <path d="M 264.915693 329.170577 
L 279.377244 316.697418 
L 304.068192 323.875509 
L 289.732655 336.459552 
z
" clip-path="url(#p85acbfe704)" style="fill: #3f599f"/>
    <path d="M 285.817832 436.830448 
L 310.990344 444.680593 
L 325.311406 431.128178 
L 300.269021 423.398695 
z
" clip-path="url(#p85acbfe704)" style="fill: #577ddf"/>
    <path d="M 300.34308 356.708352 
L 300.269021 423.398695 
L 325.311406 431.128178 
L 325.739743 364.245155 
z
" clip-path="url(#p85acbfe704)" style="fill: #648fff"/>
    <path d="M 285.687545 369.805885 
L 285.817832 436.830448 
L 300.269021 423.398695 
L 300.34308 356.708352 
z
" clip-path="url(#p85acbfe704)" style="fill: #324880"/>
    <path d="M 336.390382 452.601693 
L 362.021045 460.594713 
L 376.072987 446.796046 
L 350.578383 438.926983 
z
" clip-path="url(#p85acbfe704)" style="fill: #577ddf"/>
    <path d="M 311.218057 377.46202 
L 325.739743 364.245155 
L 325.311406 431.128178 
L 310.990344 444.680593 
z
" clip-path="url(#p85acbfe704)" style="fill: #648fff"/>
    <path d="M 285.687545 369.805885 
L 311.218057 377.46202 
L 310.990344 444.680593 
L 285.817832 436.830448 
z
" clip-path="url(#p85acbfe704)" style="fill: #324880"/>
    <path d="M 351.367409 371.85051 
L 350.578383 438.926983 
L 376.072987 446.796046 
L 377.229245 379.525358 
z
" clip-path="url(#p85acbfe704)" style="fill: #648fff"/>
    <path d="M 336.982632 385.188346 
L 336.390382 452.601693 
L 350.578383 438.926983 
L 351.367409 371.85051 
z
" clip-path="url(#p85acbfe704)" style="fill: #324880"/>
    <path d="M 285.687545 369.805885 
L 300.34308 356.708352 
L 325.739743 364.245155 
L 311.218057 377.46202 
z
" clip-path="url(#p85acbfe704)" style="fill: #3f599f"/>
    <path d="M 256.232215 464.328996 
L 281.668038 472.429097 
L 296.444335 458.445881 
L 271.140677 450.472227 
z
" clip-path="url(#p85acbfe704)" style="fill: #577ddf"/>
    <path d="M 362.984505 392.985833 
L 377.229245 379.525358 
L 376.072987 446.796046 
L 362.021045 460.594713 
z
" clip-path="url(#p85acbfe704)" style="fill: #648fff"/>
    <path d="M 270.799574 383.111144 
L 271.140677 450.472227 
L 296.444335 458.445881 
L 296.464997 390.889468 
z
" clip-path="url(#p85acbfe704)" style="fill: #648fff"/>
    <path d="M 336.982632 385.188346 
L 362.984505 392.985833 
L 362.021045 460.594713 
L 336.390382 452.601693 
z
" clip-path="url(#p85acbfe704)" style="fill: #324880"/>
    <path d="M 255.673592 396.629111 
L 256.232215 464.328996 
L 271.140677 450.472227 
L 270.799574 383.111144 
z
" clip-path="url(#p85acbfe704)" style="fill: #324880"/>
    <path d="M 336.982632 385.188346 
L 351.367409 371.85051 
L 377.229245 379.525358 
L 362.984505 392.985833 
z
" clip-path="url(#p85acbfe704)" style="fill: #3f599f"/>
    <path d="M 307.337424 480.603576 
L 333.243605 488.853463 
L 347.746364 474.612105 
L 321.978509 466.492174 
z
" clip-path="url(#p85acbfe704)" style="fill: #577ddf"/>
    <path d="M 281.47499 404.532573 
L 296.464997 390.889468 
L 296.444335 458.445881 
L 281.668038 472.429097 
z
" clip-path="url(#p85acbfe704)" style="fill: #648fff"/>
    <path d="M 255.673592 396.629111 
L 281.47499 404.532573 
L 281.668038 472.429097 
L 256.232215 464.328996 
z
" clip-path="url(#p85acbfe704)" style="fill: #324880"/>
    <path d="M 322.367604 398.739674 
L 321.978509 466.492174 
L 347.746364 474.612105 
L 348.510698 406.662764 
z
" clip-path="url(#p85acbfe704)" style="fill: #648fff"/>
    <path d="M 307.516752 412.509662 
L 307.337424 480.603576 
L 321.978509 466.492174 
L 322.367604 398.739674 
z
" clip-path="url(#p85acbfe704)" style="fill: #324880"/>
    <path d="M 255.673592 396.629111 
L 270.799574 383.111144 
L 296.464997 390.889468 
L 281.47499 404.532573 
z
" clip-path="url(#p85acbfe704)" style="fill: #3f599f"/>
    <path d="M 333.802254 420.561414 
L 348.510698 406.662764 
L 347.746364 474.612105 
L 333.243605 488.853463 
z
" clip-path="url(#p85acbfe704)" style="fill: #648fff"/>
    <path d="M 307.516752 412.509662 
L 333.802254 420.561414 
L 333.243605 488.853463 
L 307.337424 480.603576 
z
" clip-path="url(#p85acbfe704)" style="fill: #324880"/>
    <path d="M 307.516752 412.509662 
L 322.367604 398.739674 
L 348.510698 406.662764 
L 333.802254 420.561414 
z
" clip-path="url(#p85acbfe704)" style="fill: #3f599f"/>
   </g>
   <g id="Poly3DCollection_2">
    <path d="M 134.511658 368.51222 
L 339.629931 431.682879 
L 451.343468 325.10118 
L 254.54583 269.309464 
z
" clip-path="url(#p85acbfe704)" style="fill-opacity: 0.25"/>
   </g>
   <g id="Poly3DCollection_3">
    <path d="M 342.968253 318.614581 
L 356.746424 306.301141 
L 381.618308 313.387464 
L 367.969744 325.80966 
z
" clip-path="url(#p85acbfe704)" style="fill: #3f599f"/>
    <path d="M 356.746424 306.301141 
L 357.257016 266.134386 
L 382.337759 273.10179 
L 381.618308 313.387464 
z
" clip-path="url(#p85acbfe704)" style="fill: #324880"/>
    <path d="M 342.968253 318.614581 
L 343.367951 278.241513 
L 357.257016 266.134386 
L 356.746424 306.301141 
z
" clip-path="url(#p85acbfe704)" style="fill: #648fff"/>
    <path d="M 367.969744 325.80966 
L 381.618308 313.387464 
L 382.337759 273.10179 
L 368.580505 285.316744 
z
" clip-path="url(#p85acbfe704)" style="fill: #324880"/>
    <path d="M 342.968253 318.614581 
L 367.969744 325.80966 
L 368.580505 285.316744 
L 343.367951 278.241513 
z
" clip-path="url(#p85acbfe704)" style="fill: #648fff"/>
    <path d="M 343.367951 278.241513 
L 368.580505 285.316744 
L 382.337759 273.10179 
L 357.257016 266.134386 
z
" clip-path="url(#p85acbfe704)" style="fill: #577ddf"/>
    <path d="M 393.193393 333.068673 
L 406.709512 320.536274 
L 432.022948 327.748401 
L 418.642176 340.392476 
z
" clip-path="url(#p85acbfe704)" style="fill: #3f599f"/>
    <path d="M 406.709512 320.536274 
L 407.641508 280.131145 
L 433.17125 287.223281 
L 432.022948 327.748401 
z
" clip-path="url(#p85acbfe704)" style="fill: #324880"/>
    <path d="M 393.193393 333.068673 
L 394.018976 292.455373 
L 407.641508 280.131145 
L 406.709512 320.536274 
z
" clip-path="url(#p85acbfe704)" style="fill: #648fff"/>
    <path d="M 185.843486 339.864473 
L 201.005094 327.228466 
L 225.50829 334.500119 
L 210.468928 347.249194 
z
" clip-path="url(#p85acbfe704)" style="fill: #3f599f"/>
    <path d="M 418.642176 340.392476 
L 432.022948 327.748401 
L 433.17125 287.223281 
L 419.686414 299.658256 
z
" clip-path="url(#p85acbfe704)" style="fill: #324880"/>
    <path d="M 314.771579 343.813719 
L 328.978278 331.117307 
L 354.110433 338.423665 
L 340.035458 351.233958 
z
" clip-path="url(#p85acbfe704)" style="fill: #3f599f"/>
    <path d="M 328.978278 331.117307 
L 329.263586 290.536317 
L 354.609034 297.721899 
L 354.110433 338.423665 
z
" clip-path="url(#p85acbfe704)" style="fill: #324880"/>
    <path d="M 393.193393 333.068673 
L 418.642176 340.392476 
L 419.686414 299.658256 
L 394.018976 292.455373 
z
" clip-path="url(#p85acbfe704)" style="fill: #648fff"/>
    <path d="M 394.018976 292.455373 
L 419.686414 299.658256 
L 433.17125 287.223281 
L 407.641508 280.131145 
z
" clip-path="url(#p85acbfe704)" style="fill: #577ddf"/>
    <path d="M 314.771579 343.813719 
L 314.938874 303.023198 
L 329.263586 290.536317 
L 328.978278 331.117307 
z
" clip-path="url(#p85acbfe704)" style="fill: #648fff"/>
    <path d="M 340.035458 351.233958 
L 354.110433 338.423665 
L 354.609034 297.721899 
L 340.418305 310.321732 
z
" clip-path="url(#p85acbfe704)" style="fill: #324880"/>
    <path d="M 235.316071 354.700399 
L 250.23038 341.836733 
L 275.17431 349.23918 
L 260.387923 362.21899 
z
" clip-path="url(#p85acbfe704)" style="fill: #3f599f"/>
    <path d="M 314.771579 343.813719 
L 340.035458 351.233958 
L 340.418305 310.321732 
L 314.938874 303.023198 
z
" clip-path="url(#p85acbfe704)" style="fill: #648fff"/>
    <path d="M 314.938874 303.023198 
L 340.418305 310.321732 
L 354.609034 297.721899 
L 329.263586 290.536317 
z
" clip-path="url(#p85acbfe704)" style="fill: #577ddf"/>
    <path d="M 201.005094 327.228466 
L 198.219714 183.92844 
L 223.439549 190.76036 
L 225.50829 334.500119 
z
" clip-path="url(#p85acbfe704)" style="fill: #324880"/>
    <path d="M 365.527335 358.721161 
L 379.467639 345.795449 
L 405.052933 353.233543 
L 391.250312 366.276241 
z
" clip-path="url(#p85acbfe704)" style="fill: #3f599f"/>
    <path d="M 379.467639 345.795449 
L 380.183367 304.97237 
L 405.989699 312.288615 
L 405.052933 353.233543 
z
" clip-path="url(#p85acbfe704)" style="fill: #324880"/>
    <path d="M 185.843486 339.864473 
L 182.583102 195.801472 
L 198.219714 183.92844 
L 201.005094 327.228466 
z
" clip-path="url(#p85acbfe704)" style="fill: #648fff"/>
    <path d="M 365.527335 358.721161 
L 366.129644 317.686695 
L 380.183367 304.97237 
L 379.467639 345.795449 
z
" clip-path="url(#p85acbfe704)" style="fill: #648fff"/>
    <path d="M 154.806294 365.73153 
L 170.445739 352.697283 
L 195.194273 360.197729 
L 179.678761 373.350442 
z
" clip-path="url(#p85acbfe704)" style="fill: #3f599f"/>
    <path d="M 210.468928 347.249194 
L 225.50829 334.500119 
L 223.439549 190.76036 
L 207.932387 202.742814 
z
" clip-path="url(#p85acbfe704)" style="fill: #324880"/>
    <path d="M 391.250312 366.276241 
L 405.052933 353.233543 
L 405.989699 312.288615 
L 392.076072 325.118998 
z
" clip-path="url(#p85acbfe704)" style="fill: #324880"/>
    <path d="M 185.843486 339.864473 
L 210.468928 347.249194 
L 207.932387 202.742814 
L 182.583102 195.801472 
z
" clip-path="url(#p85acbfe704)" style="fill: #648fff"/>
    <path d="M 365.527335 358.721161 
L 391.250312 366.276241 
L 392.076072 325.118998 
L 366.129644 317.686695 
z
" clip-path="url(#p85acbfe704)" style="fill: #648fff"/>
    <path d="M 366.129644 317.686695 
L 392.076072 325.118998 
L 405.989699 312.288615 
L 380.183367 304.97237 
z
" clip-path="url(#p85acbfe704)" style="fill: #577ddf"/>
    <path d="M 250.23038 341.836733 
L 248.891417 197.655135 
L 274.578536 204.613639 
L 275.17431 349.23918 
z
" clip-path="url(#p85acbfe704)" style="fill: #324880"/>
    <path d="M 235.316071 354.700399 
L 233.516771 209.748531 
L 248.891417 197.655135 
L 250.23038 341.836733 
z
" clip-path="url(#p85acbfe704)" style="fill: #648fff"/>
    <path d="M 204.7787 381.039033 
L 220.167367 367.766231 
L 245.368092 375.40372 
L 230.109246 388.798263 
z
" clip-path="url(#p85acbfe704)" style="fill: #3f599f"/>
    <path d="M 260.387923 362.21899 
L 275.17431 349.23918 
L 274.578536 204.613639 
L 259.339537 216.819525 
z
" clip-path="url(#p85acbfe704)" style="fill: #324880"/>
    <path d="M 170.445739 352.697283 
L 166.695621 207.86499 
L 192.175277 214.918404 
L 195.194273 360.197729 
z
" clip-path="url(#p85acbfe704)" style="fill: #324880"/>
    <path d="M 235.316071 354.700399 
L 260.387923 362.21899 
L 259.339537 216.819525 
L 233.516771 209.748531 
z
" clip-path="url(#p85acbfe704)" style="fill: #648fff"/>
    <path d="M 154.806294 365.73153 
L 150.551185 220.123617 
L 166.695621 207.86499 
L 170.445739 352.697283 
z
" clip-path="url(#p85acbfe704)" style="fill: #648fff"/>
    <path d="M 182.583102 195.801472 
L 207.932387 202.742814 
L 223.439549 190.76036 
L 198.219714 183.92844 
z
" clip-path="url(#p85acbfe704)" style="fill: #577ddf"/>
    <path d="M 179.678761 373.350442 
L 195.194273 360.197729 
L 192.175277 214.918404 
L 176.162124 227.29184 
z
" clip-path="url(#p85acbfe704)" style="fill: #324880"/>
    <path d="M 154.806294 365.73153 
L 179.678761 373.350442 
L 176.162124 227.29184 
L 150.551185 220.123617 
z
" clip-path="url(#p85acbfe704)" style="fill: #648fff"/>
    <path d="M 220.167367 367.766231 
L 217.893152 222.037764 
L 243.852605 229.223997 
L 245.368092 375.40372 
z
" clip-path="url(#p85acbfe704)" style="fill: #324880"/>
    <path d="M 204.7787 381.039033 
L 202.014465 234.527628 
L 217.893152 222.037764 
L 220.167367 367.766231 
z
" clip-path="url(#p85acbfe704)" style="fill: #648fff"/>
    <path d="M 233.516771 209.748531 
L 259.339537 216.819525 
L 274.578536 204.613639 
L 248.891417 197.655135 
z
" clip-path="url(#p85acbfe704)" style="fill: #577ddf"/>
    <path d="M 230.109246 388.798263 
L 245.368092 375.40372 
L 243.852605 229.223997 
L 228.111637 241.831942 
z
" clip-path="url(#p85acbfe704)" style="fill: #324880"/>
    <path d="M 204.7787 381.039033 
L 230.109246 388.798263 
L 228.111637 241.831942 
L 202.014465 234.527628 
z
" clip-path="url(#p85acbfe704)" style="fill: #648fff"/>
    <path d="M 150.551185 220.123617 
L 176.162124 227.29184 
L 192.175277 214.918404 
L 166.695621 207.86499 
z
" clip-path="url(#p85acbfe704)" style="fill: #577ddf"/>
    <path d="M 202.014465 234.527628 
L 228.111637 241.831942 
L 243.852605 229.223997 
L 217.893152 222.037764 
z
" clip-path="url(#p85acbfe704)" style="fill: #577ddf"/>
   </g>
   <g id="text_14">
    <!-- Real Amplitude (ρ) -->
    <g transform="translate(190.023516 51.6) scale(0.21 -0.21)">
     <defs>
      <path id="DejaVuSans-52" d="M 2841 2188 
Q 3044 2119 3236 1894 
Q 3428 1669 3622 1275 
L 4263 0 
L 3584 0 
L 2988 1197 
Q 2756 1666 2539 1819 
Q 2322 1972 1947 1972 
L 1259 1972 
L 1259 0 
L 628 0 
L 628 4666 
L 2053 4666 
Q 2853 4666 3247 4331 
Q 3641 3997 3641 3322 
Q 3641 2881 3436 2590 
Q 3231 2300 2841 2188 
z
M 1259 4147 
L 1259 2491 
L 2053 2491 
Q 2509 2491 2742 2702 
Q 2975 2913 2975 3322 
Q 2975 3731 2742 3939 
Q 2509 4147 2053 4147 
L 1259 4147 
z
" transform="scale(0.015625)"/>
      <path id="DejaVuSans-65" d="M 3597 1894 
L 3597 1613 
L 953 1613 
Q 991 1019 1311 708 
Q 1631 397 2203 397 
Q 2534 397 2845 478 
Q 3156 559 3463 722 
L 3463 178 
Q 3153 47 2828 -22 
Q 2503 -91 2169 -91 
Q 1331 -91 842 396 
Q 353 884 353 1716 
Q 353 2575 817 3079 
Q 1281 3584 2069 3584 
Q 2775 3584 3186 3129 
Q 3597 2675 3597 1894 
z
M 3022 2063 
Q 3016 2534 2758 2815 
Q 2500 3097 2075 3097 
Q 1594 3097 1305 2825 
Q 1016 2553 972 2059 
L 3022 2063 
z
" transform="scale(0.015625)"/>
      <path id="DejaVuSans-61" d="M 2194 1759 
Q 1497 1759 1228 1600 
Q 959 1441 959 1056 
Q 959 750 1161 570 
Q 1363 391 1709 391 
Q 2188 391 2477 730 
Q 2766 1069 2766 1631 
L 2766 1759 
L 2194 1759 
z
M 3341 1997 
L 3341 0 
L 2766 0 
L 2766 531 
Q 2569 213 2275 61 
Q 1981 -91 1556 -91 
Q 1019 -91 701 211 
Q 384 513 384 1019 
Q 384 1609 779 1909 
Q 1175 2209 1959 2209 
L 2766 2209 
L 2766 2266 
Q 2766 2663 2505 2880 
Q 2244 3097 1772 3097 
Q 1472 3097 1187 3025 
Q 903 2953 641 2809 
L 641 3341 
Q 956 3463 1253 3523 
Q 1550 3584 1831 3584 
Q 2591 3584 2966 3190 
Q 3341 2797 3341 1997 
z
" transform="scale(0.015625)"/>
      <path id="DejaVuSans-6c" d="M 603 4863 
L 1178 4863 
L 1178 0 
L 603 0 
L 603 4863 
z
" transform="scale(0.015625)"/>
      <path id="DejaVuSans-20" transform="scale(0.015625)"/>
      <path id="DejaVuSans-41" d="M 2188 4044 
L 1331 1722 
L 3047 1722 
L 2188 4044 
z
M 1831 4666 
L 2547 4666 
L 4325 0 
L 3669 0 
L 3244 1197 
L 1141 1197 
L 716 0 
L 50 0 
L 1831 4666 
z
" transform="scale(0.015625)"/>
      <path id="DejaVuSans-6d" d="M 3328 2828 
Q 3544 3216 3844 3400 
Q 4144 3584 4550 3584 
Q 5097 3584 5394 3201 
Q 5691 2819 5691 2113 
L 5691 0 
L 5113 0 
L 5113 2094 
Q 5113 2597 4934 2840 
Q 4756 3084 4391 3084 
Q 3944 3084 3684 2787 
Q 3425 2491 3425 1978 
L 3425 0 
L 2847 0 
L 2847 2094 
Q 2847 2600 2669 2842 
Q 2491 3084 2119 3084 
Q 1678 3084 1418 2786 
Q 1159 2488 1159 1978 
L 1159 0 
L 581 0 
L 581 3500 
L 1159 3500 
L 1159 2956 
Q 1356 3278 1631 3431 
Q 1906 3584 2284 3584 
Q 2666 3584 2933 3390 
Q 3200 3197 3328 2828 
z
" transform="scale(0.015625)"/>
      <path id="DejaVuSans-70" d="M 1159 525 
L 1159 -1331 
L 581 -1331 
L 581 3500 
L 1159 3500 
L 1159 2969 
Q 1341 3281 1617 3432 
Q 1894 3584 2278 3584 
Q 2916 3584 3314 3078 
Q 3713 2572 3713 1747 
Q 3713 922 3314 415 
Q 2916 -91 2278 -91 
Q 1894 -91 1617 61 
Q 1341 213 1159 525 
z
M 3116 1747 
Q 3116 2381 2855 2742 
Q 2594 3103 2138 3103 
Q 1681 3103 1420 2742 
Q 1159 2381 1159 1747 
Q 1159 1113 1420 752 
Q 1681 391 2138 391 
Q 2594 391 2855 752 
Q 3116 1113 3116 1747 
z
" transform="scale(0.015625)"/>
      <path id="DejaVuSans-69" d="M 603 3500 
L 1178 3500 
L 1178 0 
L 603 0 
L 603 3500 
z
M 603 4863 
L 1178 4863 
L 1178 4134 
L 603 4134 
L 603 4863 
z
" transform="scale(0.015625)"/>
      <path id="DejaVuSans-74" d="M 1172 4494 
L 1172 3500 
L 2356 3500 
L 2356 3053 
L 1172 3053 
L 1172 1153 
Q 1172 725 1289 603 
Q 1406 481 1766 481 
L 2356 481 
L 2356 0 
L 1766 0 
Q 1100 0 847 248 
Q 594 497 594 1153 
L 594 3053 
L 172 3053 
L 172 3500 
L 594 3500 
L 594 4494 
L 1172 4494 
z
" transform="scale(0.015625)"/>
      <path id="DejaVuSans-75" d="M 544 1381 
L 544 3500 
L 1119 3500 
L 1119 1403 
Q 1119 906 1312 657 
Q 1506 409 1894 409 
Q 2359 409 2629 706 
Q 2900 1003 2900 1516 
L 2900 3500 
L 3475 3500 
L 3475 0 
L 2900 0 
L 2900 538 
Q 2691 219 2414 64 
Q 2138 -91 1772 -91 
Q 1169 -91 856 284 
Q 544 659 544 1381 
z
M 1991 3584 
L 1991 3584 
z
" transform="scale(0.015625)"/>
      <path id="DejaVuSans-64" d="M 2906 2969 
L 2906 4863 
L 3481 4863 
L 3481 0 
L 2906 0 
L 2906 525 
Q 2725 213 2448 61 
Q 2172 -91 1784 -91 
Q 1150 -91 751 415 
Q 353 922 353 1747 
Q 353 2572 751 3078 
Q 1150 3584 1784 3584 
Q 2172 3584 2448 3432 
Q 2725 3281 2906 2969 
z
M 947 1747 
Q 947 1113 1208 752 
Q 1469 391 1925 391 
Q 2381 391 2643 752 
Q 2906 1113 2906 1747 
Q 2906 2381 2643 2742 
Q 2381 3103 1925 3103 
Q 1469 3103 1208 2742 
Q 947 2381 947 1747 
z
" transform="scale(0.015625)"/>
      <path id="DejaVuSans-28" d="M 1984 4856 
Q 1566 4138 1362 3434 
Q 1159 2731 1159 2009 
Q 1159 1288 1364 580 
Q 1569 -128 1984 -844 
L 1484 -844 
Q 1016 -109 783 600 
Q 550 1309 550 2009 
Q 550 2706 781 3412 
Q 1013 4119 1484 4856 
L 1984 4856 
z
" transform="scale(0.015625)"/>
      <path id="DejaVuSans-3c1" d="M 863 2875 
Q 1053 3194 1525 3475 
Q 1709 3584 2278 3584 
Q 2916 3584 3314 3078 
Q 3713 2572 3713 1747 
Q 3713 922 3314 415 
Q 2916 -91 2278 -91 
Q 1894 -91 1617 61 
Q 1341 213 1159 525 
L 1159 -1331 
L 581 -1331 
L 581 1716 
Q 581 2438 863 2875 
z
M 3116 1747 
Q 3116 2381 2855 2742 
Q 2594 3103 2138 3103 
Q 1681 3103 1420 2742 
Q 1159 2381 1159 1747 
Q 1159 1113 1420 752 
Q 1681 391 2138 391 
Q 2594 391 2855 752 
Q 3116 1113 3116 1747 
z
" transform="scale(0.015625)"/>
      <path id="DejaVuSans-29" d="M 513 4856 
L 1013 4856 
Q 1481 4119 1714 3412 
Q 1947 2706 1947 2009 
Q 1947 1309 1714 600 
Q 1481 -109 1013 -844 
L 513 -844 
Q 928 -128 1133 580 
Q 1338 1288 1338 2009 
Q 1338 2731 1133 3434 
Q 928 4138 513 4856 
z
" transform="scale(0.015625)"/>
     </defs>
     <use xlink:href="#DejaVuSans-52"/>
     <use xlink:href="#DejaVuSans-65" x="64.982422"/>
     <use xlink:href="#DejaVuSans-61" x="126.505859"/>
     <use xlink:href="#DejaVuSans-6c" x="187.785156"/>
     <use xlink:href="#DejaVuSans-20" x="215.568359"/>
     <use xlink:href="#DejaVuSans-41" x="247.355469"/>
     <use xlink:href="#DejaVuSans-6d" x="315.763672"/>
     <use xlink:href="#DejaVuSans-70" x="413.175781"/>
     <use xlink:href="#DejaVuSans-6c" x="476.652344"/>
     <use xlink:href="#DejaVuSans-69" x="504.435547"/>
     <use xlink:href="#DejaVuSans-74" x="532.21875"/>
     <use xlink:href="#DejaVuSans-75" x="571.427734"/>
     <use xlink:href="#DejaVuSans-64" x="634.806641"/>
     <use xlink:href="#DejaVuSans-65" x="698.283203"/>
     <use xlink:href="#DejaVuSans-20" x="759.806641"/>
     <use xlink:href="#DejaVuSans-28" x="791.59375"/>
     <use xlink:href="#DejaVuSans-3c1" x="830.607422"/>
     <use xlink:href="#DejaVuSans-29" x="894.083984"/>
    </g>
   </g>
  </g>
  <g id="patch_6">
   <path d="M 604.8 576 
L 1123.2 576 
L 1123.2 57.6 
L 604.8 57.6 
z
" style="fill: #ffffff"/>
  </g>
  <g id="pane3d_4">
   <g id="patch_7">
    <path d="M 706.07018 436.456468 
L 829.494133 330.550231 
L 827.743197 126.70673 
L 698.643358 223.613571 
" style="fill: #f2f2f2; opacity: 0.5; stroke: #f2f2f2; stroke-linejoin: miter"/>
   </g>
  </g>
  <g id="pane3d_5">
   <g id="patch_8">
    <path d="M 829.494133 330.550231 
L 1031.554898 390.069341 
L 1038.583588 181.103065 
L 827.743197 126.70673 
" style="fill: #e6e6e6; opacity: 0.5; stroke: #e6e6e6; stroke-linejoin: miter"/>
   </g>
  </g>
  <g id="pane3d_6">
   <g id="patch_9">
    <path d="M 706.07018 436.456468 
L 916.912731 504.076731 
L 1031.554898 390.069341 
L 829.494133 330.550231 
" style="fill: #ececec; opacity: 0.5; stroke: #ececec; stroke-linejoin: miter"/>
   </g>
  </g>
  <g id="grid3d_4">
   <g id="Line3DCollection_4">
    <path d="M 734.635886 445.617904 
L 856.925726 338.630493 
L 856.328796 134.081748 
" style="fill: none; stroke: #b0b0b0; stroke-width: 0.8"/>
    <path d="M 784.310046 461.549127 
L 904.58611 352.669358 
L 906.022474 146.902603 
" style="fill: none; stroke: #b0b0b0; stroke-width: 0.8"/>
    <path d="M 834.89502 477.772462 
L 953.066152 366.949661 
L 956.607663 159.953465 
" style="fill: none; stroke: #b0b0b0; stroke-width: 0.8"/>
    <path d="M 886.41609 494.296016 
L 1002.38718 381.477685 
L 1008.108569 173.24058 
" style="fill: none; stroke: #b0b0b0; stroke-width: 0.8"/>
   </g>
  </g>
  <g id="grid3d_5">
   <g id="Line3DCollection_5">
    <path d="M 717.757365 209.265931 
L 724.301379 420.812846 
L 933.880707 487.202708 
" style="fill: none; stroke: #b0b0b0; stroke-width: 0.8"/>
    <path d="M 749.704273 185.285468 
L 754.805664 394.638072 
L 962.24502 458.995448 
" style="fill: none; stroke: #b0b0b0; stroke-width: 0.8"/>
    <path d="M 780.65707 162.051218 
L 784.400054 369.24405 
L 989.731787 431.660877 
" style="fill: none; stroke: #b0b0b0; stroke-width: 0.8"/>
    <path d="M 810.661448 139.528886 
L 813.124663 344.596362 
L 1016.38111 405.159111 
" style="fill: none; stroke: #b0b0b0; stroke-width: 0.8"/>
   </g>
  </g>
  <g id="grid3d_6">
   <g id="Line3DCollection_6">
    <path d="M 1032.873183 350.8761 
L 829.165322 292.270156 
L 704.678576 396.574932 
" style="fill: none; stroke: #b0b0b0; stroke-width: 0.8"/>
    <path d="M 1034.307424 308.235432 
L 828.807804 250.647989 
L 703.163857 353.165097 
" style="fill: none; stroke: #b0b0b0; stroke-width: 0.8"/>
    <path d="M 1035.767309 264.832368 
L 828.444123 208.308379 
L 701.621296 308.95734 
" style="fill: none; stroke: #b0b0b0; stroke-width: 0.8"/>
    <path d="M 1037.253531 220.646276 
L 828.074119 165.232616 
L 700.050118 263.929455 
" style="fill: none; stroke: #b0b0b0; stroke-width: 0.8"/>
   </g>
  </g>
  <g id="axis3d_4">
   <g id="line2d_17">
    <path d="M 706.07018 436.456468 
L 916.912731 504.076731 
" style="fill: none; stroke: #000000; stroke-width: 0.8; stroke-linecap: square"/>
   </g>
   <g id="xtick_14">
    <g id="line2d_18">
     <path d="M 735.677227 444.706868 
L 732.549953 447.442819 
" style="fill: none; stroke: #000000; stroke-width: 0.8; stroke-linecap: square"/>
    </g>
    <g id="text_15">
     <!-- 00 -->
     <g transform="translate(707.351686 489.365693) rotate(-45) scale(0.21 -0.21)">
      <use xlink:href="#DejaVuSans-30"/>
      <use xlink:href="#DejaVuSans-30" x="63.623047"/>
     </g>
    </g>
   </g>
   <g id="xtick_15">
    <g id="line2d_19">
     <path d="M 785.334802 460.621468 
L 782.257306 463.407368 
" style="fill: none; stroke: #000000; stroke-width: 0.8; stroke-linecap: square"/>
    </g>
    <g id="text_16">
     <!-- 01 -->
     <g transform="translate(757.023931 505.435143) rotate(-45) scale(0.21 -0.21)">
      <use xlink:href="#DejaVuSans-30"/>
      <use xlink:href="#DejaVuSans-31" x="63.623047"/>
     </g>
    </g>
   </g>
   <g id="xtick_16">
    <g id="line2d_20">
     <path d="M 835.902405 476.82772 
L 832.877048 479.664949 
" style="fill: none; stroke: #000000; stroke-width: 0.8; stroke-linecap: square"/>
    </g>
    <g id="text_17">
     <!-- 10 -->
     <g transform="translate(807.60781 521.799516) rotate(-45) scale(0.21 -0.21)">
      <use xlink:href="#DejaVuSans-31"/>
      <use xlink:href="#DejaVuSans-30" x="63.623047"/>
     </g>
    </g>
   </g>
   <g id="xtick_17">
    <g id="line2d_21">
     <path d="M 887.405283 493.333715 
L 884.434531 496.223705 
" style="fill: none; stroke: #000000; stroke-width: 0.8; stroke-linecap: square"/>
    </g>
    <g id="text_18">
     <!-- 11 -->
     <g transform="translate(859.128654 538.467006) rotate(-45) scale(0.21 -0.21)">
      <use xlink:href="#DejaVuSans-31"/>
      <use xlink:href="#DejaVuSans-31" x="63.623047"/>
     </g>
    </g>
   </g>
  </g>
  <g id="axis3d_5">
   <g id="line2d_22">
    <path d="M 1031.554898 390.069341 
L 916.912731 504.076731 
" style="fill: none; stroke: #000000; stroke-width: 0.8; stroke-linecap: square"/>
   </g>
   <g id="xtick_18">
    <g id="line2d_23">
     <path d="M 932.140222 486.651363 
L 937.364886 488.306415 
" style="fill: none; stroke: #000000; stroke-width: 0.8; stroke-linecap: square"/>
    </g>
    <g id="text_19">
     <!-- 00 -->
     <g transform="translate(944.70027 499.207917) rotate(-337.5) scale(0.21 -0.21)">
      <use xlink:href="#DejaVuSans-30"/>
      <use xlink:href="#DejaVuSans-30" x="63.623047"/>
     </g>
    </g>
   </g>
   <g id="xtick_19">
    <g id="line2d_24">
     <path d="M 960.5233 458.46129 
L 965.691587 460.064734 
" style="fill: none; stroke: #000000; stroke-width: 0.8; stroke-linecap: square"/>
    </g>
    <g id="text_20">
     <!-- 01 -->
     <g transform="translate(972.913817 470.822876) rotate(-337.5) scale(0.21 -0.21)">
      <use xlink:href="#DejaVuSans-30"/>
      <use xlink:href="#DejaVuSans-31" x="63.623047"/>
     </g>
    </g>
   </g>
   <g id="xtick_20">
    <g id="line2d_25">
     <path d="M 988.028511 431.143114 
L 993.141381 432.697327 
" style="fill: none; stroke: #000000; stroke-width: 0.8; stroke-linecap: square"/>
    </g>
    <g id="text_21">
     <!-- 10 -->
     <g transform="translate(1000.254695 443.315808) rotate(-337.5) scale(0.21 -0.21)">
      <use xlink:href="#DejaVuSans-31"/>
      <use xlink:href="#DejaVuSans-30" x="63.623047"/>
     </g>
    </g>
   </g>
   <g id="xtick_21">
    <g id="line2d_26">
     <path d="M 1014.695964 404.657001 
L 1019.754368 406.164215 
" style="fill: none; stroke: #000000; stroke-width: 0.8; stroke-linecap: square"/>
    </g>
    <g id="text_22">
     <!-- 11 -->
     <g transform="translate(1026.762776 416.646599) rotate(-337.5) scale(0.21 -0.21)">
      <use xlink:href="#DejaVuSans-31"/>
      <use xlink:href="#DejaVuSans-31" x="63.623047"/>
     </g>
    </g>
   </g>
  </g>
  <g id="axis3d_6">
   <g id="line2d_27">
    <path d="M 1031.554898 390.069341 
L 1038.583588 181.103065 
" style="fill: none; stroke: #000000; stroke-width: 0.8; stroke-linecap: square"/>
   </g>
   <g id="xtick_22">
    <g id="line2d_28">
     <path d="M 1031.184334 350.390224 
L 1036.253852 351.848705 
" style="fill: none; stroke: #000000; stroke-width: 0.8; stroke-linecap: square"/>
    </g>
    <g id="text_23">
     <!-- 0.0 -->
     <g transform="translate(1046.461573 344.616666) scale(0.21 -0.21)">
      <use xlink:href="#DejaVuSans-30"/>
      <use xlink:href="#DejaVuSans-2e" x="63.623047"/>
      <use xlink:href="#DejaVuSans-30" x="95.410156"/>
     </g>
    </g>
   </g>
   <g id="xtick_23">
    <g id="line2d_29">
     <path d="M 1032.603191 307.757853 
L 1037.718914 309.191439 
" style="fill: none; stroke: #000000; stroke-width: 0.8; stroke-linecap: square"/>
    </g>
    <g id="text_24">
     <!-- 0.1 -->
     <g transform="translate(1048.014426 302.008318) scale(0.21 -0.21)">
      <use xlink:href="#DejaVuSans-30"/>
      <use xlink:href="#DejaVuSans-2e" x="63.623047"/>
      <use xlink:href="#DejaVuSans-31" x="95.410156"/>
     </g>
    </g>
   </g>
   <g id="xtick_24">
    <g id="line2d_30">
     <path d="M 1034.04741 264.36346 
L 1039.210186 265.771024 
" style="fill: none; stroke: #000000; stroke-width: 0.8; stroke-linecap: square"/>
    </g>
    <g id="text_25">
     <!-- 0.2 -->
     <g transform="translate(1049.595011 258.639035) scale(0.21 -0.21)">
      <use xlink:href="#DejaVuSans-30"/>
      <use xlink:href="#DejaVuSans-2e" x="63.623047"/>
      <use xlink:href="#DejaVuSans-32" x="95.410156"/>
     </g>
    </g>
   </g>
   <g id="xtick_25">
    <g id="line2d_31">
     <path d="M 1035.517676 220.186431 
L 1040.728378 221.566797 
" style="fill: none; stroke: #000000; stroke-width: 0.8; stroke-linecap: square"/>
    </g>
    <g id="text_26">
     <!-- 0.3 -->
     <g transform="translate(1051.204078 214.48825) scale(0.21 -0.21)">
      <use xlink:href="#DejaVuSans-30"/>
      <use xlink:href="#DejaVuSans-2e" x="63.623047"/>
      <use xlink:href="#DejaVuSans-33" x="95.410156"/>
     </g>
    </g>
   </g>
  </g>
  <g id="axes_2">
   <g id="Poly3DCollection_4">
    <path d="M 932.410044 332.763156 
L 932.410044 332.763156 
L 957.14436 339.926225 
L 957.14436 339.926225 
z
" clip-path="url(#p5f40fbee44)" style="fill: #648fff"/>
    <path d="M 918.704957 345.209732 
L 918.704957 345.209732 
L 932.410044 332.763156 
L 932.410044 332.763156 
z
" clip-path="url(#p5f40fbee44)" style="fill: #324880"/>
    <path d="M 918.704957 345.209732 
L 943.567439 352.482128 
L 957.14436 339.926225 
L 932.410044 332.763156 
z
" clip-path="url(#p5f40fbee44)" style="fill: #577ddf"/>
    <path d="M 918.704957 345.209732 
L 932.410044 332.763156 
L 957.14436 339.926225 
L 943.567439 352.482128 
z
" clip-path="url(#p5f40fbee44)" style="fill: #3f599f"/>
    <path d="M 943.567439 352.482128 
L 957.14436 339.926225 
L 957.14436 339.926225 
L 943.567439 352.482128 
z
" clip-path="url(#p5f40fbee44)" style="fill: #648fff"/>
    <path d="M 918.704957 345.209732 
L 943.567439 352.482128 
L 943.567439 352.482128 
L 918.704957 345.209732 
z
" clip-path="url(#p5f40fbee44)" style="fill: #324880"/>
    <path d="M 982.095584 347.15211 
L 982.095584 347.15211 
L 1007.26658 354.441642 
L 1007.26658 354.441642 
z
" clip-path="url(#p5f40fbee44)" style="fill: #648fff"/>
    <path d="M 968.64962 359.818787 
L 968.64962 359.818787 
L 982.095584 347.15211 
L 982.095584 347.15211 
z
" clip-path="url(#p5f40fbee44)" style="fill: #324880"/>
    <path d="M 968.64962 359.818787 
L 982.095584 347.15211 
L 1007.26658 354.441642 
L 993.954426 367.220565 
z
" clip-path="url(#p5f40fbee44)" style="fill: #3f599f"/>
    <path d="M 968.64962 359.818787 
L 993.954426 367.220565 
L 1007.26658 354.441642 
L 982.095584 347.15211 
z
" clip-path="url(#p5f40fbee44)" style="fill: #577ddf"/>
    <path d="M 993.954426 367.220565 
L 1007.26658 354.441642 
L 1007.26658 354.441642 
L 993.954426 367.220565 
z
" clip-path="url(#p5f40fbee44)" style="fill: #648fff"/>
    <path d="M 968.64962 359.818787 
L 993.954426 367.220565 
L 993.954426 367.220565 
L 968.64962 359.818787 
z
" clip-path="url(#p5f40fbee44)" style="fill: #324880"/>
    <path d="M 826.479665 368.680155 
L 826.479665 368.680155 
L 851.285212 376.16097 
L 851.285212 376.16097 
z
" clip-path="url(#p5f40fbee44)" style="fill: #648fff"/>
    <path d="M 811.650968 381.679765 
L 811.650968 381.679765 
L 826.479665 368.680155 
L 826.479665 368.680155 
z
" clip-path="url(#p5f40fbee44)" style="fill: #324880"/>
    <path d="M 811.650968 381.679765 
L 836.583023 389.27729 
L 851.285212 376.16097 
L 826.479665 368.680155 
z
" clip-path="url(#p5f40fbee44)" style="fill: #577ddf"/>
    <path d="M 811.650968 381.679765 
L 826.479665 368.680155 
L 851.285212 376.16097 
L 836.583023 389.27729 
z
" clip-path="url(#p5f40fbee44)" style="fill: #3f599f"/>
    <path d="M 861.817832 436.830448 
L 886.990344 444.680593 
L 901.311406 431.128178 
L 876.269021 423.398695 
z
" clip-path="url(#p5f40fbee44)" style="fill: #577ddf"/>
    <path d="M 876.313096 383.708837 
L 876.269021 423.398695 
L 901.311406 431.128178 
L 901.566319 391.324661 
z
" clip-path="url(#p5f40fbee44)" style="fill: #648fff"/>
    <path d="M 836.583023 389.27729 
L 851.285212 376.16097 
L 851.285212 376.16097 
L 836.583023 389.27729 
z
" clip-path="url(#p5f40fbee44)" style="fill: #648fff"/>
    <path d="M 861.740297 396.943446 
L 861.817832 436.830448 
L 876.269021 423.398695 
L 876.313096 383.708837 
z
" clip-path="url(#p5f40fbee44)" style="fill: #324880"/>
    <path d="M 747.143765 379.655555 
L 747.143765 379.655555 
L 771.756122 387.234847 
L 771.756122 387.234847 
z
" clip-path="url(#p5f40fbee44)" style="fill: #648fff"/>
    <path d="M 811.650968 381.679765 
L 836.583023 389.27729 
L 836.583023 389.27729 
L 811.650968 381.679765 
z
" clip-path="url(#p5f40fbee44)" style="fill: #324880"/>
    <path d="M 731.598094 392.826575 
L 731.598094 392.826575 
L 747.143765 379.655555 
L 747.143765 379.655555 
z
" clip-path="url(#p5f40fbee44)" style="fill: #324880"/>
    <path d="M 731.598094 392.826575 
L 747.143765 379.655555 
L 771.756122 387.234847 
L 756.333037 400.524899 
z
" clip-path="url(#p5f40fbee44)" style="fill: #3f599f"/>
    <path d="M 731.598094 392.826575 
L 756.333037 400.524899 
L 771.756122 387.234847 
L 747.143765 379.655555 
z
" clip-path="url(#p5f40fbee44)" style="fill: #577ddf"/>
    <path d="M 887.125855 404.679167 
L 901.566319 391.324661 
L 901.311406 431.128178 
L 886.990344 444.680593 
z
" clip-path="url(#p5f40fbee44)" style="fill: #648fff"/>
    <path d="M 861.740297 396.943446 
L 887.125855 404.679167 
L 886.990344 444.680593 
L 861.817832 436.830448 
z
" clip-path="url(#p5f40fbee44)" style="fill: #324880"/>
    <path d="M 756.333037 400.524899 
L 771.756122 387.234847 
L 771.756122 387.234847 
L 756.333037 400.524899 
z
" clip-path="url(#p5f40fbee44)" style="fill: #648fff"/>
    <path d="M 861.740297 396.943446 
L 876.313096 383.708837 
L 901.566319 391.324661 
L 887.125855 404.679167 
z
" clip-path="url(#p5f40fbee44)" style="fill: #3f599f"/>
    <path d="M 912.390382 452.601693 
L 938.021045 460.594713 
L 952.072987 446.796046 
L 926.578383 438.926983 
z
" clip-path="url(#p5f40fbee44)" style="fill: #577ddf"/>
    <path d="M 927.047938 399.009365 
L 926.578383 438.926983 
L 952.072987 446.796046 
L 952.761065 406.763886 
z
" clip-path="url(#p5f40fbee44)" style="fill: #648fff"/>
    <path d="M 731.598094 392.826575 
L 756.333037 400.524899 
L 756.333037 400.524899 
L 731.598094 392.826575 
z
" clip-path="url(#p5f40fbee44)" style="fill: #324880"/>
    <path d="M 912.742818 412.485404 
L 912.390382 452.601693 
L 926.578383 438.926983 
L 927.047938 399.009365 
z
" clip-path="url(#p5f40fbee44)" style="fill: #324880"/>
    <path d="M 938.594365 420.363125 
L 952.761065 406.763886 
L 952.072987 446.796046 
L 938.021045 460.594713 
z
" clip-path="url(#p5f40fbee44)" style="fill: #648fff"/>
    <path d="M 832.232215 464.328996 
L 857.668038 472.429097 
L 872.444335 458.445881 
L 847.140677 450.472227 
z
" clip-path="url(#p5f40fbee44)" style="fill: #577ddf"/>
    <path d="M 846.937692 410.386759 
L 847.140677 450.472227 
L 872.444335 458.445881 
L 872.45663 418.24523 
z
" clip-path="url(#p5f40fbee44)" style="fill: #648fff"/>
    <path d="M 912.742818 412.485404 
L 938.594365 420.363125 
L 938.021045 460.594713 
L 912.390382 452.601693 
z
" clip-path="url(#p5f40fbee44)" style="fill: #324880"/>
    <path d="M 912.742818 412.485404 
L 927.047938 399.009365 
L 952.761065 406.763886 
L 938.594365 420.363125 
z
" clip-path="url(#p5f40fbee44)" style="fill: #3f599f"/>
    <path d="M 831.899803 424.04375 
L 832.232215 464.328996 
L 847.140677 450.472227 
L 846.937692 410.386759 
z
" clip-path="url(#p5f40fbee44)" style="fill: #324880"/>
    <path d="M 857.553167 432.027916 
L 872.45663 418.24523 
L 872.444335 458.445881 
L 857.668038 472.429097 
z
" clip-path="url(#p5f40fbee44)" style="fill: #648fff"/>
    <path d="M 831.899803 424.04375 
L 857.553167 432.027916 
L 857.668038 472.429097 
L 832.232215 464.328996 
z
" clip-path="url(#p5f40fbee44)" style="fill: #324880"/>
    <path d="M 831.899803 424.04375 
L 846.937692 410.386759 
L 872.45663 418.24523 
L 857.553167 432.027916 
z
" clip-path="url(#p5f40fbee44)" style="fill: #3f599f"/>
    <path d="M 883.337424 480.603576 
L 909.243605 488.853463 
L 923.746364 474.612105 
L 897.978509 466.492174 
z
" clip-path="url(#p5f40fbee44)" style="fill: #577ddf"/>
    <path d="M 898.210041 426.175906 
L 897.978509 466.492174 
L 923.746364 474.612105 
L 924.20117 434.179787 
z
" clip-path="url(#p5f40fbee44)" style="fill: #648fff"/>
    <path d="M 883.444129 440.086031 
L 883.337424 480.603576 
L 897.978509 466.492174 
L 898.210041 426.175906 
z
" clip-path="url(#p5f40fbee44)" style="fill: #324880"/>
    <path d="M 909.576005 448.219126 
L 924.20117 434.179787 
L 923.746364 474.612105 
L 909.243605 488.853463 
z
" clip-path="url(#p5f40fbee44)" style="fill: #648fff"/>
    <path d="M 883.444129 440.086031 
L 909.576005 448.219126 
L 909.243605 488.853463 
L 883.337424 480.603576 
z
" clip-path="url(#p5f40fbee44)" style="fill: #324880"/>
    <path d="M 883.444129 440.086031 
L 898.210041 426.175906 
L 924.20117 434.179787 
L 909.576005 448.219126 
z
" clip-path="url(#p5f40fbee44)" style="fill: #3f599f"/>
   </g>
   <g id="Poly3DCollection_5">
    <path d="M 711.419573 395.636295 
L 915.368034 459.452221 
L 1026.481835 351.766051 
L 830.76124 295.365289 
z
" clip-path="url(#p5f40fbee44)" style="fill-opacity: 0.25"/>
   </g>
   <g id="Poly3DCollection_6">
    <path d="M 821.39529 316.746186 
L 835.586249 304.722941 
L 859.480618 311.642761 
L 845.407219 323.769791 
z
" clip-path="url(#p5f40fbee44)" style="fill: #3f599f"/>
    <path d="M 835.586249 304.722941 
L 835.301235 265.626729 
L 859.387478 272.433368 
L 859.480618 311.642761 
z
" clip-path="url(#p5f40fbee44)" style="fill: #324880"/>
    <path d="M 821.39529 316.746186 
L 820.993084 277.453622 
L 835.301235 265.626729 
L 835.586249 304.722941 
z
" clip-path="url(#p5f40fbee44)" style="fill: #648fff"/>
    <path d="M 845.407219 323.769791 
L 859.480618 311.642761 
L 859.387478 272.433368 
L 845.198781 284.363181 
z
" clip-path="url(#p5f40fbee44)" style="fill: #324880"/>
    <path d="M 821.39529 316.746186 
L 845.407219 323.769791 
L 845.198781 284.363181 
L 820.993084 277.453622 
z
" clip-path="url(#p5f40fbee44)" style="fill: #648fff"/>
    <path d="M 820.993084 277.453622 
L 845.198781 284.363181 
L 859.387478 272.433368 
L 835.301235 265.626729 
z
" clip-path="url(#p5f40fbee44)" style="fill: #577ddf"/>
    <path d="M 869.627647 330.854383 
L 883.580917 318.622219 
L 907.889818 325.662087 
L 894.059301 338.000759 
z
" clip-path="url(#p5f40fbee44)" style="fill: #3f599f"/>
    <path d="M 883.580917 318.622219 
L 883.682989 279.299145 
L 908.190508 286.224834 
L 907.889818 325.662087 
z
" clip-path="url(#p5f40fbee44)" style="fill: #324880"/>
    <path d="M 869.627647 330.854383 
L 869.616379 291.333227 
L 883.682989 279.299145 
L 883.580917 318.622219 
z
" clip-path="url(#p5f40fbee44)" style="fill: #648fff"/>
    <path d="M 894.059301 338.000759 
L 907.889818 325.662087 
L 908.190508 286.224834 
L 894.248672 298.364558 
z
" clip-path="url(#p5f40fbee44)" style="fill: #324880"/>
    <path d="M 792.368996 341.338621 
L 806.991153 328.950046 
L 831.121487 336.079788 
L 816.618579 348.576925 
z
" clip-path="url(#p5f40fbee44)" style="fill: #3f599f"/>
    <path d="M 806.991153 328.950046 
L 806.468237 289.459631 
L 830.794254 296.474462 
L 831.121487 336.079788 
z
" clip-path="url(#p5f40fbee44)" style="fill: #324880"/>
    <path d="M 869.627647 330.854383 
L 894.059301 338.000759 
L 894.248672 298.364558 
L 869.616379 291.333227 
z
" clip-path="url(#p5f40fbee44)" style="fill: #648fff"/>
    <path d="M 869.616379 291.333227 
L 894.248672 298.364558 
L 908.190508 286.224834 
L 883.682989 279.299145 
z
" clip-path="url(#p5f40fbee44)" style="fill: #577ddf"/>
    <path d="M 792.368996 341.338621 
L 791.721734 301.648858 
L 806.468237 289.459631 
L 806.991153 328.950046 
z
" clip-path="url(#p5f40fbee44)" style="fill: #648fff"/>
    <path d="M 816.618579 348.576925 
L 831.121487 336.079788 
L 830.794254 296.474462 
L 816.168936 308.771385 
z
" clip-path="url(#p5f40fbee44)" style="fill: #324880"/>
    <path d="M 792.368996 341.338621 
L 816.618579 348.576925 
L 816.168936 308.771385 
L 791.721734 301.648858 
z
" clip-path="url(#p5f40fbee44)" style="fill: #648fff"/>
    <path d="M 791.721734 301.648858 
L 816.168936 308.771385 
L 830.794254 296.474462 
L 806.468237 289.459631 
z
" clip-path="url(#p5f40fbee44)" style="fill: #577ddf"/>
    <path d="M 841.081939 355.87904 
L 855.462935 343.271908 
L 880.018281 350.527228 
L 865.761916 363.245814 
z
" clip-path="url(#p5f40fbee44)" style="fill: #3f599f"/>
    <path d="M 855.462935 343.271908 
L 855.334853 303.551171 
L 880.092884 310.690581 
L 880.018281 350.527228 
z
" clip-path="url(#p5f40fbee44)" style="fill: #324880"/>
    <path d="M 841.081939 355.87904 
L 840.833447 315.957224 
L 855.334853 303.551171 
L 855.462935 343.271908 
z
" clip-path="url(#p5f40fbee44)" style="fill: #648fff"/>
    <path d="M 777.523833 353.916139 
L 777.523833 353.916139 
L 801.893505 361.265503 
L 801.893505 361.265503 
z
" clip-path="url(#p5f40fbee44)" style="fill: #324880"/>
    <path d="M 762.450523 366.686953 
L 762.450523 366.686953 
L 777.523833 353.916139 
L 777.523833 353.916139 
z
" clip-path="url(#p5f40fbee44)" style="fill: #648fff"/>
    <path d="M 904.790356 357.846584 
L 904.790356 357.846584 
L 929.782043 365.230829 
L 929.782043 365.230829 
z
" clip-path="url(#p5f40fbee44)" style="fill: #324880"/>
    <path d="M 865.761916 363.245814 
L 880.018281 350.527228 
L 880.092884 310.690581 
L 865.718178 323.207223 
z
" clip-path="url(#p5f40fbee44)" style="fill: #324880"/>
    <path d="M 762.450523 366.686953 
L 777.523833 353.916139 
L 801.893505 361.265503 
L 786.94112 374.149953 
z
" clip-path="url(#p5f40fbee44)" style="fill: #3f599f"/>
    <path d="M 762.450523 366.686953 
L 786.94112 374.149953 
L 801.893505 361.265503 
L 777.523833 353.916139 
z
" clip-path="url(#p5f40fbee44)" style="fill: #577ddf"/>
    <path d="M 890.6614 370.678108 
L 890.6614 370.678108 
L 904.790356 357.846584 
L 904.790356 357.846584 
z
" clip-path="url(#p5f40fbee44)" style="fill: #648fff"/>
    <path d="M 841.081939 355.87904 
L 865.761916 363.245814 
L 865.718178 323.207223 
L 840.833447 315.957224 
z
" clip-path="url(#p5f40fbee44)" style="fill: #648fff"/>
    <path d="M 840.833447 315.957224 
L 865.718178 323.207223 
L 880.092884 310.690581 
L 855.334853 303.551171 
z
" clip-path="url(#p5f40fbee44)" style="fill: #577ddf"/>
    <path d="M 786.94112 374.149953 
L 801.893505 361.265503 
L 801.893505 361.265503 
L 786.94112 374.149953 
z
" clip-path="url(#p5f40fbee44)" style="fill: #324880"/>
    <path d="M 890.6614 370.678108 
L 904.790356 357.846584 
L 929.782043 365.230829 
L 915.783333 378.176802 
z
" clip-path="url(#p5f40fbee44)" style="fill: #3f599f"/>
    <path d="M 890.6614 370.678108 
L 915.783333 378.176802 
L 929.782043 365.230829 
L 904.790356 357.846584 
z
" clip-path="url(#p5f40fbee44)" style="fill: #577ddf"/>
    <path d="M 762.450523 366.686953 
L 786.94112 374.149953 
L 786.94112 374.149953 
L 762.450523 366.686953 
z
" clip-path="url(#p5f40fbee44)" style="fill: #648fff"/>
    <path d="M 915.783333 378.176802 
L 929.782043 365.230829 
L 929.782043 365.230829 
L 915.783333 378.176802 
z
" clip-path="url(#p5f40fbee44)" style="fill: #324880"/>
    <path d="M 890.6614 370.678108 
L 915.783333 378.176802 
L 915.783333 378.176802 
L 890.6614 370.678108 
z
" clip-path="url(#p5f40fbee44)" style="fill: #648fff"/>
    <path d="M 954.996273 372.680828 
L 954.996273 372.680828 
L 980.436035 380.197464 
L 980.436035 380.197464 
z
" clip-path="url(#p5f40fbee44)" style="fill: #324880"/>
    <path d="M 941.130708 385.742788 
L 941.130708 385.742788 
L 954.996273 372.680828 
L 954.996273 372.680828 
z
" clip-path="url(#p5f40fbee44)" style="fill: #648fff"/>
    <path d="M 941.130708 385.742788 
L 954.996273 372.680828 
L 980.436035 380.197464 
L 966.706575 393.376977 
z
" clip-path="url(#p5f40fbee44)" style="fill: #3f599f"/>
    <path d="M 941.130708 385.742788 
L 966.706575 393.376977 
L 980.436035 380.197464 
L 954.996273 372.680828 
z
" clip-path="url(#p5f40fbee44)" style="fill: #577ddf"/>
    <path d="M 966.706575 393.376977 
L 980.436035 380.197464 
L 980.436035 380.197464 
L 966.706575 393.376977 
z
" clip-path="url(#p5f40fbee44)" style="fill: #324880"/>
    <path d="M 941.130708 385.742788 
L 966.706575 393.376977 
L 966.706575 393.376977 
L 941.130708 385.742788 
z
" clip-path="url(#p5f40fbee44)" style="fill: #648fff"/>
    <path d="M 796.59054 394.882522 
L 796.59054 394.882522 
L 821.650039 402.599511 
L 821.650039 402.599511 
z
" clip-path="url(#p5f40fbee44)" style="fill: #324880"/>
    <path d="M 781.292906 408.293227 
L 781.292906 408.293227 
L 796.59054 394.882522 
L 796.59054 394.882522 
z
" clip-path="url(#p5f40fbee44)" style="fill: #648fff"/>
    <path d="M 781.292906 408.293227 
L 806.480781 416.132518 
L 821.650039 402.599511 
L 796.59054 394.882522 
z
" clip-path="url(#p5f40fbee44)" style="fill: #577ddf"/>
    <path d="M 781.292906 408.293227 
L 796.59054 394.882522 
L 821.650039 402.599511 
L 806.480781 416.132518 
z
" clip-path="url(#p5f40fbee44)" style="fill: #3f599f"/>
    <path d="M 806.480781 416.132518 
L 821.650039 402.599511 
L 821.650039 402.599511 
L 806.480781 416.132518 
z
" clip-path="url(#p5f40fbee44)" style="fill: #324880"/>
    <path d="M 781.292906 408.293227 
L 806.480781 416.132518 
L 806.480781 416.132518 
L 781.292906 408.293227 
z
" clip-path="url(#p5f40fbee44)" style="fill: #648fff"/>
   </g>
   <g id="text_27">
    <!-- Imaginary Amplitude (ρ) -->
    <g transform="translate(735.696563 51.6) scale(0.21 -0.21)">
     <defs>
      <path id="DejaVuSans-49" d="M 628 4666 
L 1259 4666 
L 1259 0 
L 628 0 
L 628 4666 
z
" transform="scale(0.015625)"/>
      <path id="DejaVuSans-67" d="M 2906 1791 
Q 2906 2416 2648 2759 
Q 2391 3103 1925 3103 
Q 1463 3103 1205 2759 
Q 947 2416 947 1791 
Q 947 1169 1205 825 
Q 1463 481 1925 481 
Q 2391 481 2648 825 
Q 2906 1169 2906 1791 
z
M 3481 434 
Q 3481 -459 3084 -895 
Q 2688 -1331 1869 -1331 
Q 1566 -1331 1297 -1286 
Q 1028 -1241 775 -1147 
L 775 -588 
Q 1028 -725 1275 -790 
Q 1522 -856 1778 -856 
Q 2344 -856 2625 -561 
Q 2906 -266 2906 331 
L 2906 616 
Q 2728 306 2450 153 
Q 2172 0 1784 0 
Q 1141 0 747 490 
Q 353 981 353 1791 
Q 353 2603 747 3093 
Q 1141 3584 1784 3584 
Q 2172 3584 2450 3431 
Q 2728 3278 2906 2969 
L 2906 3500 
L 3481 3500 
L 3481 434 
z
" transform="scale(0.015625)"/>
      <path id="DejaVuSans-6e" d="M 3513 2113 
L 3513 0 
L 2938 0 
L 2938 2094 
Q 2938 2591 2744 2837 
Q 2550 3084 2163 3084 
Q 1697 3084 1428 2787 
Q 1159 2491 1159 1978 
L 1159 0 
L 581 0 
L 581 3500 
L 1159 3500 
L 1159 2956 
Q 1366 3272 1645 3428 
Q 1925 3584 2291 3584 
Q 2894 3584 3203 3211 
Q 3513 2838 3513 2113 
z
" transform="scale(0.015625)"/>
      <path id="DejaVuSans-72" d="M 2631 2963 
Q 2534 3019 2420 3045 
Q 2306 3072 2169 3072 
Q 1681 3072 1420 2755 
Q 1159 2438 1159 1844 
L 1159 0 
L 581 0 
L 581 3500 
L 1159 3500 
L 1159 2956 
Q 1341 3275 1631 3429 
Q 1922 3584 2338 3584 
Q 2397 3584 2469 3576 
Q 2541 3569 2628 3553 
L 2631 2963 
z
" transform="scale(0.015625)"/>
      <path id="DejaVuSans-79" d="M 2059 -325 
Q 1816 -950 1584 -1140 
Q 1353 -1331 966 -1331 
L 506 -1331 
L 506 -850 
L 844 -850 
Q 1081 -850 1212 -737 
Q 1344 -625 1503 -206 
L 1606 56 
L 191 3500 
L 800 3500 
L 1894 763 
L 2988 3500 
L 3597 3500 
L 2059 -325 
z
" transform="scale(0.015625)"/>
     </defs>
     <use xlink:href="#DejaVuSans-49"/>
     <use xlink:href="#DejaVuSans-6d" x="29.492188"/>
     <use xlink:href="#DejaVuSans-61" x="126.904297"/>
     <use xlink:href="#DejaVuSans-67" x="188.183594"/>
     <use xlink:href="#DejaVuSans-69" x="251.660156"/>
     <use xlink:href="#DejaVuSans-6e" x="279.443359"/>
     <use xlink:href="#DejaVuSans-61" x="342.822266"/>
     <use xlink:href="#DejaVuSans-72" x="404.101562"/>
     <use xlink:href="#DejaVuSans-79" x="445.214844"/>
     <use xlink:href="#DejaVuSans-20" x="504.394531"/>
     <use xlink:href="#DejaVuSans-41" x="536.181641"/>
     <use xlink:href="#DejaVuSans-6d" x="604.589844"/>
     <use xlink:href="#DejaVuSans-70" x="702.001953"/>
     <use xlink:href="#DejaVuSans-6c" x="765.478516"/>
     <use xlink:href="#DejaVuSans-69" x="793.261719"/>
     <use xlink:href="#DejaVuSans-74" x="821.044922"/>
     <use xlink:href="#DejaVuSans-75" x="860.253906"/>
     <use xlink:href="#DejaVuSans-64" x="923.632812"/>
     <use xlink:href="#DejaVuSans-65" x="987.109375"/>
     <use xlink:href="#DejaVuSans-20" x="1048.632812"/>
     <use xlink:href="#DejaVuSans-28" x="1080.419922"/>
     <use xlink:href="#DejaVuSans-3c1" x="1119.433594"/>
     <use xlink:href="#DejaVuSans-29" x="1182.910156"/>
    </g>
   </g>
  </g>
 </g>
 <defs>
  <clipPath id="p85acbfe704">
   <rect x="28.8" y="57.6" width="518.4" height="518.4"/>
  </clipPath>
  <clipPath id="p5f40fbee44">
   <rect x="604.8" y="57.6" width="518.4" height="518.4"/>
  </clipPath>
 </defs>
</svg>
