<?xml version="1.0" encoding="utf-8" standalone="no"?>
<!DOCTYPE svg PUBLIC "-//W3C//DTD SVG 1.1//EN"
  "http://www.w3.org/Graphics/SVG/1.1/DTD/svg11.dtd">
<svg xmlns:xlink="http://www.w3.org/1999/xlink" width="1089.172044pt" height="257.679996pt" viewBox="0 0 1089.172044 257.679996" xmlns="http://www.w3.org/2000/svg" version="1.1">
 <metadata>
  <rdf:RDF xmlns:dc="http://purl.org/dc/elements/1.1/" xmlns:cc="http://creativecommons.org/ns#" xmlns:rdf="http://www.w3.org/1999/02/22-rdf-syntax-ns#">
   <cc:Work>
    <dc:type rdf:resource="http://purl.org/dc/dcmitype/StillImage"/>
    <dc:date>2025-10-13T21:36:15.282708</dc:date>
    <dc:format>image/svg+xml</dc:format>
    <dc:creator>
     <cc:Agent>
      <dc:title>Matplotlib v3.9.2, https://matplotlib.org/</dc:title>
     </cc:Agent>
    </dc:creator>
   </cc:Work>
  </rdf:RDF>
 </metadata>
 <defs>
  <style type="text/css">*{stroke-linejoin: round; stroke-linecap: butt}</style>
 </defs>
 <g id="figure_1">
  <g id="patch_1">
   <path d="M 0 257.679996 
L 1089.172044 257.679996 
L 1089.172044 0 
L 0 0 
z
" style="fill: #ffffff"/>
  </g>
  <g id="axes_1">
   <g id="line2d_1">
    <path d="M 75.677513 51.432727 
L 1076.442954 51.432727 
" clip-path="url(#p9d01b01888)" style="fill: none; stroke: #000000; stroke-width: 2; stroke-linecap: square"/>
   </g>
   <g id="line2d_2">
    <path d="M 75.677513 106.723635 
L 1076.442954 106.723635 
" clip-path="url(#p9d01b01888)" style="fill: none; stroke: #000000; stroke-width: 2; stroke-linecap: square"/>
   </g>
   <g id="line2d_3">
    <path d="M 75.677513 162.014543 
L 1076.442954 162.014543 
" clip-path="url(#p9d01b01888)" style="fill: none; stroke: #000000; stroke-width: 2; stroke-linecap: square"/>
   </g>
   <g id="line2d_4">
    <path d="M 86.735695 222.834542 
L 92.264786 211.776361 
" clip-path="url(#p9d01b01888)" style="fill: none; stroke: #778899; stroke-width: 1.5; stroke-linecap: square"/>
   </g>
   <g id="line2d_5">
    <path d="M 75.677513 215.508497 
L 1076.442954 215.508497 
" clip-path="url(#p9d01b01888)" style="fill: none; stroke: #778899; stroke-width: 2; stroke-linecap: square"/>
   </g>
   <g id="line2d_6">
    <path d="M 75.677513 219.102406 
L 1076.442954 219.102406 
" clip-path="url(#p9d01b01888)" style="fill: none; stroke: #778899; stroke-width: 2; stroke-linecap: square"/>
   </g>
   <g id="patch_2">
    <path d="M 70.148423 23.787272 
L -1312.124285 23.787272 
L -1312.124285 300.241814 
L 70.148423 300.241814 
z
" clip-path="url(#p9d01b01888)" style="fill: #ffffff; stroke: #ffffff; stroke-width: 1.5; stroke-linejoin: miter"/>
   </g>
   <g id="line2d_7">
    <path d="M 160.825512 162.014543 
L 160.825512 106.723635 
" clip-path="url(#p9d01b01888)" style="fill: none; stroke: #002d9c; stroke-width: 2; stroke-linecap: square"/>
   </g>
   <g id="line2d_8">
    <path d="M 326.698237 162.014543 
L 326.698237 106.723635 
" clip-path="url(#p9d01b01888)" style="fill: none; stroke: #002d9c; stroke-width: 2; stroke-linecap: square"/>
   </g>
   <g id="line2d_9">
    <path d="M 824.316412 162.014543 
L 824.316412 106.723635 
" clip-path="url(#p9d01b01888)" style="fill: none; stroke: #002d9c; stroke-width: 2; stroke-linecap: square"/>
   </g>
   <g id="line2d_10">
    <path d="M 990.189137 162.014543 
L 990.189137 106.723635 
" clip-path="url(#p9d01b01888)" style="fill: none; stroke: #002d9c; stroke-width: 2; stroke-linecap: square"/>
   </g>
   <g id="patch_3">
    <path d="M 205.334693 79.078181 
L 226.898148 79.078181 
L 226.898148 23.787272 
L 205.334693 23.787272 
z
" clip-path="url(#p9d01b01888)" style="fill: #a8a8a8; opacity: 0.6"/>
   </g>
   <g id="patch_4">
    <path d="M 205.334693 134.369089 
L 226.898148 134.369089 
L 226.898148 79.078181 
L 205.334693 79.078181 
z
" clip-path="url(#p9d01b01888)" style="fill: #a8a8a8; opacity: 0.6"/>
   </g>
   <g id="patch_5">
    <path d="M 205.334693 189.659997 
L 226.898148 189.659997 
L 226.898148 134.369089 
L 205.334693 134.369089 
z
" clip-path="url(#p9d01b01888)" style="fill: #a8a8a8; opacity: 0.6"/>
   </g>
   <g id="patch_6">
    <path d="M 371.207418 79.078181 
L 392.770873 79.078181 
L 392.770873 23.787272 
L 371.207418 23.787272 
z
" clip-path="url(#p9d01b01888)" style="fill: #a8a8a8; opacity: 0.6"/>
   </g>
   <g id="patch_7">
    <path d="M 371.207418 134.369089 
L 392.770873 134.369089 
L 392.770873 79.078181 
L 371.207418 79.078181 
z
" clip-path="url(#p9d01b01888)" style="fill: #a8a8a8; opacity: 0.6"/>
   </g>
   <g id="patch_8">
    <path d="M 371.207418 189.659997 
L 392.770873 189.659997 
L 392.770873 134.369089 
L 371.207418 134.369089 
z
" clip-path="url(#p9d01b01888)" style="fill: #a8a8a8; opacity: 0.6"/>
   </g>
   <g id="patch_9">
    <path d="M 758.243776 79.078181 
L 779.807231 79.078181 
L 779.807231 23.787272 
L 758.243776 23.787272 
z
" clip-path="url(#p9d01b01888)" style="fill: #a8a8a8; opacity: 0.6"/>
   </g>
   <g id="patch_10">
    <path d="M 758.243776 134.369089 
L 779.807231 134.369089 
L 779.807231 79.078181 
L 758.243776 79.078181 
z
" clip-path="url(#p9d01b01888)" style="fill: #a8a8a8; opacity: 0.6"/>
   </g>
   <g id="patch_11">
    <path d="M 758.243776 189.659997 
L 779.807231 189.659997 
L 779.807231 134.369089 
L 758.243776 134.369089 
z
" clip-path="url(#p9d01b01888)" style="fill: #a8a8a8; opacity: 0.6"/>
   </g>
   <g id="patch_12">
    <path d="M 924.116501 79.078181 
L 945.679955 79.078181 
L 945.679955 23.787272 
L 924.116501 23.787272 
z
" clip-path="url(#p9d01b01888)" style="fill: #a8a8a8; opacity: 0.6"/>
   </g>
   <g id="patch_13">
    <path d="M 924.116501 134.369089 
L 945.679955 134.369089 
L 945.679955 79.078181 
L 924.116501 79.078181 
z
" clip-path="url(#p9d01b01888)" style="fill: #a8a8a8; opacity: 0.6"/>
   </g>
   <g id="patch_14">
    <path d="M 924.116501 189.659997 
L 945.679955 189.659997 
L 945.679955 134.369089 
L 924.116501 134.369089 
z
" clip-path="url(#p9d01b01888)" style="fill: #a8a8a8; opacity: 0.6"/>
   </g>
   <g id="patch_15">
    <path d="M 87.565059 69.402272 
L 123.504149 69.402272 
L 123.504149 33.463181 
L 87.565059 33.463181 
z
" clip-path="url(#p9d01b01888)" style="fill: #fa4d56; stroke: #fa4d56; stroke-width: 1.5; stroke-linejoin: miter"/>
   </g>
   <g id="patch_16">
    <path d="M 87.565059 124.69318 
L 123.504149 124.69318 
L 123.504149 88.75409 
L 87.565059 88.75409 
z
" clip-path="url(#p9d01b01888)" style="fill: #9f1853; stroke: #9f1853; stroke-width: 1.5; stroke-linejoin: miter"/>
   </g>
   <g id="patch_17">
    <path d="M 87.565059 179.984088 
L 123.504149 179.984088 
L 123.504149 144.044998 
L 87.565059 144.044998 
z
" clip-path="url(#p9d01b01888)" style="fill: #9f1853; stroke: #9f1853; stroke-width: 1.5; stroke-linejoin: miter"/>
   </g>
   <g id="patch_18">
    <path d="M 160.825512 112.114498 
C 162.255186 112.114498 163.626496 111.546483 164.637428 110.535551 
C 165.64836 109.524619 166.216376 108.153309 166.216376 106.723635 
C 166.216376 105.293961 165.64836 103.922651 164.637428 102.911719 
C 163.626496 101.900787 162.255186 101.332771 160.825512 101.332771 
C 159.395839 101.332771 158.024528 101.900787 157.013596 102.911719 
C 156.002664 103.922651 155.434649 105.293961 155.434649 106.723635 
C 155.434649 108.153309 156.002664 109.524619 157.013596 110.535551 
C 158.024528 111.546483 159.395839 112.114498 160.825512 112.114498 
z
" clip-path="url(#p9d01b01888)" style="fill: #002d9c; stroke: #002d9c; stroke-width: 1.5; stroke-linejoin: miter"/>
   </g>
   <g id="patch_19">
    <path d="M 160.825512 174.593225 
C 164.161418 174.593225 167.361142 173.267856 169.719983 170.909014 
C 172.078825 168.550173 173.404194 165.350449 173.404194 162.014543 
C 173.404194 158.678638 172.078825 155.478913 169.719983 153.120072 
C 167.361142 150.761231 164.161418 149.435862 160.825512 149.435862 
C 157.489607 149.435862 154.289882 150.761231 151.931041 153.120072 
C 149.5722 155.478913 148.246831 158.678638 148.246831 162.014543 
C 148.246831 165.350449 149.5722 168.550173 151.931041 170.909014 
C 154.289882 173.267856 157.489607 174.593225 160.825512 174.593225 
z
" clip-path="url(#p9d01b01888)" style="fill: #002d9c; stroke: #002d9c; stroke-width: 2; stroke-linejoin: miter"/>
   </g>
   <g id="patch_20">
    <path d="M 253.437784 124.69318 
L 289.376874 124.69318 
L 289.376874 88.75409 
L 253.437784 88.75409 
z
" clip-path="url(#p9d01b01888)" style="fill: #9f1853; stroke: #9f1853; stroke-width: 1.5; stroke-linejoin: miter"/>
   </g>
   <g id="patch_21">
    <path d="M 253.437784 179.984088 
L 289.376874 179.984088 
L 289.376874 144.044998 
L 253.437784 144.044998 
z
" clip-path="url(#p9d01b01888)" style="fill: #9f1853; stroke: #9f1853; stroke-width: 1.5; stroke-linejoin: miter"/>
   </g>
   <g id="patch_22">
    <path d="M 326.698237 112.114498 
C 328.127911 112.114498 329.499221 111.546483 330.510153 110.535551 
C 331.521085 109.524619 332.089101 108.153309 332.089101 106.723635 
C 332.089101 105.293961 331.521085 103.922651 330.510153 102.911719 
C 329.499221 101.900787 328.127911 101.332771 326.698237 101.332771 
C 325.268563 101.332771 323.897253 101.900787 322.886321 102.911719 
C 321.875389 103.922651 321.307374 105.293961 321.307374 106.723635 
C 321.307374 108.153309 321.875389 109.524619 322.886321 110.535551 
C 323.897253 111.546483 325.268563 112.114498 326.698237 112.114498 
z
" clip-path="url(#p9d01b01888)" style="fill: #002d9c; stroke: #002d9c; stroke-width: 1.5; stroke-linejoin: miter"/>
   </g>
   <g id="patch_23">
    <path d="M 326.698237 174.593225 
C 330.034142 174.593225 333.233867 173.267856 335.592708 170.909014 
C 337.951549 168.550173 339.276919 165.350449 339.276919 162.014543 
C 339.276919 158.678638 337.951549 155.478913 335.592708 153.120072 
C 333.233867 150.761231 330.034142 149.435862 326.698237 149.435862 
C 323.362332 149.435862 320.162607 150.761231 317.803766 153.120072 
C 315.444925 155.478913 314.119555 158.678638 314.119555 162.014543 
C 314.119555 165.350449 315.444925 168.550173 317.803766 170.909014 
C 320.162607 173.267856 323.362332 174.593225 326.698237 174.593225 
z
" clip-path="url(#p9d01b01888)" style="fill: #002d9c; stroke: #002d9c; stroke-width: 2; stroke-linejoin: miter"/>
   </g>
   <g id="patch_24">
    <path d="M 421.674195 179.984088 
L 563.467729 179.984088 
L 563.467729 33.463181 
L 421.674195 33.463181 
z
" clip-path="url(#p9d01b01888)" style="fill: #9f1853; stroke: #9f1853; stroke-width: 1.5; stroke-linejoin: miter"/>
   </g>
   <g id="patch_25">
    <path d="M 597.109482 179.984088 
L 719.777891 179.984088 
L 719.777891 33.463181 
L 597.109482 33.463181 
z
" clip-path="url(#p9d01b01888)" style="fill: #9f1853; stroke: #9f1853; stroke-width: 1.5; stroke-linejoin: miter"/>
   </g>
   <g id="patch_26">
    <path d="M 824.316412 112.114498 
C 825.746085 112.114498 827.117396 111.546483 828.128328 110.535551 
C 829.13926 109.524619 829.707275 108.153309 829.707275 106.723635 
C 829.707275 105.293961 829.13926 103.922651 828.128328 102.911719 
C 827.117396 101.900787 825.746085 101.332771 824.316412 101.332771 
C 822.886738 101.332771 821.515428 101.900787 820.504496 102.911719 
C 819.493564 103.922651 818.925548 105.293961 818.925548 106.723635 
C 818.925548 108.153309 819.493564 109.524619 820.504496 110.535551 
C 821.515428 111.546483 822.886738 112.114498 824.316412 112.114498 
z
" clip-path="url(#p9d01b01888)" style="fill: #002d9c; stroke: #002d9c; stroke-width: 1.5; stroke-linejoin: miter"/>
   </g>
   <g id="patch_27">
    <path d="M 824.316412 174.593225 
C 827.652317 174.593225 830.852042 173.267856 833.210883 170.909014 
C 835.569724 168.550173 836.895093 165.350449 836.895093 162.014543 
C 836.895093 158.678638 835.569724 155.478913 833.210883 153.120072 
C 830.852042 150.761231 827.652317 149.435862 824.316412 149.435862 
C 820.980506 149.435862 817.780782 150.761231 815.421941 153.120072 
C 813.063099 155.478913 811.73773 158.678638 811.73773 162.014543 
C 811.73773 165.350449 813.063099 168.550173 815.421941 170.909014 
C 817.780782 173.267856 820.980506 174.593225 824.316412 174.593225 
z
" clip-path="url(#p9d01b01888)" style="fill: #002d9c; stroke: #002d9c; stroke-width: 2; stroke-linejoin: miter"/>
   </g>
   <g id="patch_28">
    <path d="M 861.637775 179.984088 
L 897.576865 179.984088 
L 897.576865 144.044998 
L 861.637775 144.044998 
z
" clip-path="url(#p9d01b01888)" style="fill: #9f1853; stroke: #9f1853; stroke-width: 1.5; stroke-linejoin: miter"/>
   </g>
   <g id="patch_29">
    <path d="M 861.637775 124.69318 
L 897.576865 124.69318 
L 897.576865 88.75409 
L 861.637775 88.75409 
z
" clip-path="url(#p9d01b01888)" style="fill: #9f1853; stroke: #9f1853; stroke-width: 1.5; stroke-linejoin: miter"/>
   </g>
   <g id="patch_30">
    <path d="M 990.189137 112.114498 
C 991.61881 112.114498 992.990121 111.546483 994.001053 110.535551 
C 995.011985 109.524619 995.58 108.153309 995.58 106.723635 
C 995.58 105.293961 995.011985 103.922651 994.001053 102.911719 
C 992.990121 101.900787 991.61881 101.332771 990.189137 101.332771 
C 988.759463 101.332771 987.388152 101.900787 986.37722 102.911719 
C 985.366288 103.922651 984.798273 105.293961 984.798273 106.723635 
C 984.798273 108.153309 985.366288 109.524619 986.37722 110.535551 
C 987.388152 111.546483 988.759463 112.114498 990.189137 112.114498 
z
" clip-path="url(#p9d01b01888)" style="fill: #002d9c; stroke: #002d9c; stroke-width: 1.5; stroke-linejoin: miter"/>
   </g>
   <g id="patch_31">
    <path d="M 990.189137 174.593225 
C 993.525042 174.593225 996.724766 173.267856 999.083608 170.909014 
C 1001.442449 168.550173 1002.767818 165.350449 1002.767818 162.014543 
C 1002.767818 158.678638 1001.442449 155.478913 999.083608 153.120072 
C 996.724766 150.761231 993.525042 149.435862 990.189137 149.435862 
C 986.853231 149.435862 983.653507 150.761231 981.294666 153.120072 
C 978.935824 155.478913 977.610455 158.678638 977.610455 162.014543 
C 977.610455 165.350449 978.935824 168.550173 981.294666 170.909014 
C 983.653507 173.267856 986.853231 174.593225 990.189137 174.593225 
z
" clip-path="url(#p9d01b01888)" style="fill: #002d9c; stroke: #002d9c; stroke-width: 2; stroke-linejoin: miter"/>
   </g>
   <g id="patch_32">
    <path d="M 972.219591 69.402272 
L 1008.158682 69.402272 
L 1008.158682 33.463181 
L 972.219591 33.463181 
z
" clip-path="url(#p9d01b01888)" style="fill: #fa4d56; stroke: #fa4d56; stroke-width: 1.5; stroke-linejoin: miter"/>
   </g>
   <g id="patch_33">
    <path d="M 1027.5105 179.984088 
L 1063.44959 179.984088 
L 1063.44959 144.044998 
L 1027.5105 144.044998 
z
" clip-path="url(#p9d01b01888)" style="fill: #9f1853; stroke: #9f1853; stroke-width: 1.5; stroke-linejoin: miter"/>
   </g>
   <g id="patch_34">
    <path d="M 1027.5105 124.69318 
L 1063.44959 124.69318 
L 1063.44959 88.75409 
L 1027.5105 88.75409 
z
" clip-path="url(#p9d01b01888)" style="fill: #9f1853; stroke: #9f1853; stroke-width: 1.5; stroke-linejoin: miter"/>
   </g>
   <g id="line2d_11">
    <path d="M 160.825512 169.202361 
L 160.825512 154.826725 
" clip-path="url(#p9d01b01888)" style="fill: none; stroke: #ffffff; stroke-width: 2; stroke-linecap: square"/>
   </g>
   <g id="line2d_12">
    <path d="M 153.637694 162.014543 
L 168.01333 162.014543 
" clip-path="url(#p9d01b01888)" style="fill: none; stroke: #ffffff; stroke-width: 2; stroke-linecap: square"/>
   </g>
   <g id="line2d_13">
    <path d="M 326.698237 169.202361 
L 326.698237 154.826725 
" clip-path="url(#p9d01b01888)" style="fill: none; stroke: #ffffff; stroke-width: 2; stroke-linecap: square"/>
   </g>
   <g id="line2d_14">
    <path d="M 319.510419 162.014543 
L 333.886055 162.014543 
" clip-path="url(#p9d01b01888)" style="fill: none; stroke: #ffffff; stroke-width: 2; stroke-linecap: square"/>
   </g>
   <g id="line2d_15">
    <path d="M 824.316412 169.202361 
L 824.316412 154.826725 
" clip-path="url(#p9d01b01888)" style="fill: none; stroke: #ffffff; stroke-width: 2; stroke-linecap: square"/>
   </g>
   <g id="line2d_16">
    <path d="M 817.128594 162.014543 
L 831.50423 162.014543 
" clip-path="url(#p9d01b01888)" style="fill: none; stroke: #ffffff; stroke-width: 2; stroke-linecap: square"/>
   </g>
   <g id="line2d_17">
    <path d="M 990.189137 169.202361 
L 990.189137 154.826725 
" clip-path="url(#p9d01b01888)" style="fill: none; stroke: #ffffff; stroke-width: 2; stroke-linecap: square"/>
   </g>
   <g id="line2d_18">
    <path d="M 983.001319 162.014543 
L 997.376955 162.014543 
" clip-path="url(#p9d01b01888)" style="fill: none; stroke: #ffffff; stroke-width: 2; stroke-linecap: square"/>
   </g>
   <g id="text_1">
    <g clip-path="url(#p9d01b01888)">
     <!-- ${q}_{0}$ -->
     <g transform="translate(46.581832 55.883703) scale(0.1625 -0.1625)">
      <defs>
       <path id="DejaVuSans-Oblique-71" d="M 2669 525 
Q 2438 222 2123 65 
Q 1809 -91 1428 -91 
Q 897 -91 595 267 
Q 294 625 294 1253 
Q 294 1759 480 2231 
Q 666 2703 1013 3078 
Q 1238 3322 1530 3453 
Q 1822 3584 2144 3584 
Q 2531 3584 2781 3431 
Q 3031 3278 3144 2969 
L 3244 3494 
L 3822 3494 
L 2888 -1319 
L 2309 -1319 
L 2669 525 
z
M 891 1338 
Q 891 875 1084 633 
Q 1278 391 1644 391 
Q 2188 391 2572 911 
Q 2956 1431 2956 2175 
Q 2956 2625 2757 2864 
Q 2559 3103 2188 3103 
Q 1916 3103 1684 2976 
Q 1453 2850 1281 2606 
Q 1100 2350 995 2006 
Q 891 1663 891 1338 
z
" transform="scale(0.015625)"/>
       <path id="DejaVuSans-30" d="M 2034 4250 
Q 1547 4250 1301 3770 
Q 1056 3291 1056 2328 
Q 1056 1369 1301 889 
Q 1547 409 2034 409 
Q 2525 409 2770 889 
Q 3016 1369 3016 2328 
Q 3016 3291 2770 3770 
Q 2525 4250 2034 4250 
z
M 2034 4750 
Q 2819 4750 3233 4129 
Q 3647 3509 3647 2328 
Q 3647 1150 3233 529 
Q 2819 -91 2034 -91 
Q 1250 -91 836 529 
Q 422 1150 422 2328 
Q 422 3509 836 4129 
Q 1250 4750 2034 4750 
z
" transform="scale(0.015625)"/>
      </defs>
      <use xlink:href="#DejaVuSans-Oblique-71"/>
      <use xlink:href="#DejaVuSans-30" transform="translate(63.476562 -16.40625) scale(0.7)"/>
     </g>
    </g>
   </g>
   <g id="text_2">
    <g clip-path="url(#p9d01b01888)">
     <!-- ${q}_{1}$ -->
     <g transform="translate(46.581832 111.174611) scale(0.1625 -0.1625)">
      <defs>
       <path id="DejaVuSans-31" d="M 794 531 
L 1825 531 
L 1825 4091 
L 703 3866 
L 703 4441 
L 1819 4666 
L 2450 4666 
L 2450 531 
L 3481 531 
L 3481 0 
L 794 0 
L 794 531 
z
" transform="scale(0.015625)"/>
      </defs>
      <use xlink:href="#DejaVuSans-Oblique-71"/>
      <use xlink:href="#DejaVuSans-31" transform="translate(63.476562 -16.40625) scale(0.7)"/>
     </g>
    </g>
   </g>
   <g id="text_3">
    <g clip-path="url(#p9d01b01888)">
     <!-- ${q}_{2}$ -->
     <g transform="translate(46.581832 166.46552) scale(0.1625 -0.1625)">
      <defs>
       <path id="DejaVuSans-32" d="M 1228 531 
L 3431 531 
L 3431 0 
L 469 0 
L 469 531 
Q 828 903 1448 1529 
Q 2069 2156 2228 2338 
Q 2531 2678 2651 2914 
Q 2772 3150 2772 3378 
Q 2772 3750 2511 3984 
Q 2250 4219 1831 4219 
Q 1534 4219 1204 4116 
Q 875 4013 500 3803 
L 500 4441 
Q 881 4594 1212 4672 
Q 1544 4750 1819 4750 
Q 2544 4750 2975 4387 
Q 3406 4025 3406 3419 
Q 3406 3131 3298 2873 
Q 3191 2616 2906 2266 
Q 2828 2175 2409 1742 
Q 1991 1309 1228 531 
z
" transform="scale(0.015625)"/>
      </defs>
      <use xlink:href="#DejaVuSans-Oblique-71"/>
      <use xlink:href="#DejaVuSans-32" transform="translate(63.476562 -16.40625) scale(0.7)"/>
     </g>
    </g>
   </g>
   <g id="text_4">
    <g clip-path="url(#p9d01b01888)">
     <!-- 1 -->
     <g transform="translate(81.206604 209.613486) scale(0.104 -0.104)">
      <use xlink:href="#DejaVuSans-31"/>
     </g>
    </g>
   </g>
   <g id="text_5">
    <g clip-path="url(#p9d01b01888)">
     <!-- c1 -->
     <g transform="translate(45.345308 221.789436) scale(0.1625 -0.1625)">
      <defs>
       <path id="DejaVuSans-63" d="M 3122 3366 
L 3122 2828 
Q 2878 2963 2633 3030 
Q 2388 3097 2138 3097 
Q 1578 3097 1268 2742 
Q 959 2388 959 1747 
Q 959 1106 1268 751 
Q 1578 397 2138 397 
Q 2388 397 2633 464 
Q 2878 531 3122 666 
L 3122 134 
Q 2881 22 2623 -34 
Q 2366 -91 2075 -91 
Q 1284 -91 818 406 
Q 353 903 353 1747 
Q 353 2603 823 3093 
Q 1294 3584 2113 3584 
Q 2378 3584 2631 3529 
Q 2884 3475 3122 3366 
z
" transform="scale(0.015625)"/>
      </defs>
      <use xlink:href="#DejaVuSans-63"/>
      <use xlink:href="#DejaVuSans-31" x="54.980469"/>
     </g>
    </g>
   </g>
   <g id="text_6">
    <g clip-path="url(#p9d01b01888)">
     <!-- H -->
     <g transform="translate(100.646401 55.019914) scale(0.13 -0.13)">
      <defs>
       <path id="DejaVuSans-48" d="M 628 4666 
L 1259 4666 
L 1259 2753 
L 3553 2753 
L 3553 4666 
L 4184 4666 
L 4184 0 
L 3553 0 
L 3553 2222 
L 1259 2222 
L 1259 0 
L 628 0 
L 628 4666 
z
" transform="scale(0.015625)"/>
      </defs>
      <use xlink:href="#DejaVuSans-48"/>
     </g>
    </g>
   </g>
   <g id="text_7">
    <g clip-path="url(#p9d01b01888)">
     <!-- 2.03 -->
     <g style="fill: #ffffff" transform="translate(96.628354 119.712862) scale(0.08 -0.08)">
      <defs>
       <path id="DejaVuSans-2e" d="M 684 794 
L 1344 794 
L 1344 0 
L 684 0 
L 684 794 
z
" transform="scale(0.015625)"/>
       <path id="DejaVuSans-33" d="M 2597 2516 
Q 3050 2419 3304 2112 
Q 3559 1806 3559 1356 
Q 3559 666 3084 287 
Q 2609 -91 1734 -91 
Q 1441 -91 1130 -33 
Q 819 25 488 141 
L 488 750 
Q 750 597 1062 519 
Q 1375 441 1716 441 
Q 2309 441 2620 675 
Q 2931 909 2931 1356 
Q 2931 1769 2642 2001 
Q 2353 2234 1838 2234 
L 1294 2234 
L 1294 2753 
L 1863 2753 
Q 2328 2753 2575 2939 
Q 2822 3125 2822 3475 
Q 2822 3834 2567 4026 
Q 2313 4219 1838 4219 
Q 1578 4219 1281 4162 
Q 984 4106 628 3988 
L 628 4550 
Q 988 4650 1302 4700 
Q 1616 4750 1894 4750 
Q 2613 4750 3031 4423 
Q 3450 4097 3450 3541 
Q 3450 3153 3228 2886 
Q 3006 2619 2597 2516 
z
" transform="scale(0.015625)"/>
      </defs>
      <use xlink:href="#DejaVuSans-32"/>
      <use xlink:href="#DejaVuSans-2e" x="63.623047"/>
      <use xlink:href="#DejaVuSans-30" x="95.410156"/>
      <use xlink:href="#DejaVuSans-33" x="159.033203"/>
     </g>
    </g>
   </g>
   <g id="text_8">
    <g clip-path="url(#p9d01b01888)">
     <!-- $\mathrm{R_X}$ -->
     <g style="fill: #ffffff" transform="translate(97.604604 104.919959) scale(0.13 -0.13)">
      <defs>
       <path id="DejaVuSans-52" d="M 2841 2188 
Q 3044 2119 3236 1894 
Q 3428 1669 3622 1275 
L 4263 0 
L 3584 0 
L 2988 1197 
Q 2756 1666 2539 1819 
Q 2322 1972 1947 1972 
L 1259 1972 
L 1259 0 
L 628 0 
L 628 4666 
L 2053 4666 
Q 2853 4666 3247 4331 
Q 3641 3997 3641 3322 
Q 3641 2881 3436 2590 
Q 3231 2300 2841 2188 
z
M 1259 4147 
L 1259 2491 
L 2053 2491 
Q 2509 2491 2742 2702 
Q 2975 2913 2975 3322 
Q 2975 3731 2742 3939 
Q 2509 4147 2053 4147 
L 1259 4147 
z
" transform="scale(0.015625)"/>
       <path id="DejaVuSans-58" d="M 403 4666 
L 1081 4666 
L 2241 2931 
L 3406 4666 
L 4084 4666 
L 2584 2425 
L 4184 0 
L 3506 0 
L 2194 1984 
L 872 0 
L 191 0 
L 1856 2491 
L 403 4666 
z
" transform="scale(0.015625)"/>
      </defs>
      <use xlink:href="#DejaVuSans-52" transform="translate(0 0.09375)"/>
      <use xlink:href="#DejaVuSans-58" transform="translate(70.439453 -16.3125) scale(0.7)"/>
     </g>
    </g>
   </g>
   <g id="text_9">
    <g clip-path="url(#p9d01b01888)">
     <!-- 2.26 -->
     <g style="fill: #ffffff" transform="translate(96.628354 175.00377) scale(0.08 -0.08)">
      <defs>
       <path id="DejaVuSans-36" d="M 2113 2584 
Q 1688 2584 1439 2293 
Q 1191 2003 1191 1497 
Q 1191 994 1439 701 
Q 1688 409 2113 409 
Q 2538 409 2786 701 
Q 3034 994 3034 1497 
Q 3034 2003 2786 2293 
Q 2538 2584 2113 2584 
z
M 3366 4563 
L 3366 3988 
Q 3128 4100 2886 4159 
Q 2644 4219 2406 4219 
Q 1781 4219 1451 3797 
Q 1122 3375 1075 2522 
Q 1259 2794 1537 2939 
Q 1816 3084 2150 3084 
Q 2853 3084 3261 2657 
Q 3669 2231 3669 1497 
Q 3669 778 3244 343 
Q 2819 -91 2113 -91 
Q 1303 -91 875 529 
Q 447 1150 447 2328 
Q 447 3434 972 4092 
Q 1497 4750 2381 4750 
Q 2619 4750 2861 4703 
Q 3103 4656 3366 4563 
z
" transform="scale(0.015625)"/>
      </defs>
      <use xlink:href="#DejaVuSans-32"/>
      <use xlink:href="#DejaVuSans-2e" x="63.623047"/>
      <use xlink:href="#DejaVuSans-32" x="95.410156"/>
      <use xlink:href="#DejaVuSans-36" x="159.033203"/>
     </g>
    </g>
   </g>
   <g id="text_10">
    <g clip-path="url(#p9d01b01888)">
     <!-- $\mathrm{R_X}$ -->
     <g style="fill: #ffffff" transform="translate(97.604604 160.210867) scale(0.13 -0.13)">
      <use xlink:href="#DejaVuSans-52" transform="translate(0 0.09375)"/>
      <use xlink:href="#DejaVuSans-58" transform="translate(70.439453 -16.3125) scale(0.7)"/>
     </g>
    </g>
   </g>
   <g id="line2d_19">
    <path d="M 216.116421 23.787272 
L 216.116421 79.078181 
" clip-path="url(#p9d01b01888)" style="fill: none; stroke-dasharray: 3.7,1.6; stroke-dashoffset: 0; stroke: #000000"/>
   </g>
   <g id="line2d_20">
    <path d="M 216.116421 79.078181 
L 216.116421 134.369089 
" clip-path="url(#p9d01b01888)" style="fill: none; stroke-dasharray: 3.7,1.6; stroke-dashoffset: 0; stroke: #000000"/>
   </g>
   <g id="line2d_21">
    <path d="M 216.116421 134.369089 
L 216.116421 189.659997 
" clip-path="url(#p9d01b01888)" style="fill: none; stroke-dasharray: 3.7,1.6; stroke-dashoffset: 0; stroke: #000000"/>
   </g>
   <g id="text_11">
    <g clip-path="url(#p9d01b01888)">
     <!-- 2.03 -->
     <g style="fill: #ffffff" transform="translate(262.501079 119.712862) scale(0.08 -0.08)">
      <use xlink:href="#DejaVuSans-32"/>
      <use xlink:href="#DejaVuSans-2e" x="63.623047"/>
      <use xlink:href="#DejaVuSans-30" x="95.410156"/>
      <use xlink:href="#DejaVuSans-33" x="159.033203"/>
     </g>
    </g>
   </g>
   <g id="text_12">
    <g clip-path="url(#p9d01b01888)">
     <!-- $\mathrm{R_X}$ -->
     <g style="fill: #ffffff" transform="translate(263.477329 104.919959) scale(0.13 -0.13)">
      <use xlink:href="#DejaVuSans-52" transform="translate(0 0.09375)"/>
      <use xlink:href="#DejaVuSans-58" transform="translate(70.439453 -16.3125) scale(0.7)"/>
     </g>
    </g>
   </g>
   <g id="text_13">
    <g clip-path="url(#p9d01b01888)">
     <!-- 2.26 -->
     <g style="fill: #ffffff" transform="translate(262.501079 175.00377) scale(0.08 -0.08)">
      <use xlink:href="#DejaVuSans-32"/>
      <use xlink:href="#DejaVuSans-2e" x="63.623047"/>
      <use xlink:href="#DejaVuSans-32" x="95.410156"/>
      <use xlink:href="#DejaVuSans-36" x="159.033203"/>
     </g>
    </g>
   </g>
   <g id="text_14">
    <g clip-path="url(#p9d01b01888)">
     <!-- $\mathrm{R_X}$ -->
     <g style="fill: #ffffff" transform="translate(263.477329 160.210867) scale(0.13 -0.13)">
      <use xlink:href="#DejaVuSans-52" transform="translate(0 0.09375)"/>
      <use xlink:href="#DejaVuSans-58" transform="translate(70.439453 -16.3125) scale(0.7)"/>
     </g>
    </g>
   </g>
   <g id="line2d_22">
    <path d="M 381.989145 23.787272 
L 381.989145 79.078181 
" clip-path="url(#p9d01b01888)" style="fill: none; stroke-dasharray: 3.7,1.6; stroke-dashoffset: 0; stroke: #000000"/>
   </g>
   <g id="line2d_23">
    <path d="M 381.989145 79.078181 
L 381.989145 134.369089 
" clip-path="url(#p9d01b01888)" style="fill: none; stroke-dasharray: 3.7,1.6; stroke-dashoffset: 0; stroke: #000000"/>
   </g>
   <g id="line2d_24">
    <path d="M 381.989145 134.369089 
L 381.989145 189.659997 
" clip-path="url(#p9d01b01888)" style="fill: none; stroke-dasharray: 3.7,1.6; stroke-dashoffset: 0; stroke: #000000"/>
   </g>
   <g id="text_15">
    <g clip-path="url(#p9d01b01888)">
     <!-- 0 -->
     <g style="fill: #ffffff" transform="translate(425.544558 55.019914) scale(0.13 -0.13)">
      <use xlink:href="#DejaVuSans-30"/>
     </g>
    </g>
   </g>
   <g id="text_16">
    <g clip-path="url(#p9d01b01888)">
     <!-- 1 -->
     <g style="fill: #ffffff" transform="translate(425.544558 110.310822) scale(0.13 -0.13)">
      <use xlink:href="#DejaVuSans-31"/>
     </g>
    </g>
   </g>
   <g id="text_17">
    <g clip-path="url(#p9d01b01888)">
     <!-- 2 -->
     <g style="fill: #ffffff" transform="translate(425.544558 165.601731) scale(0.13 -0.13)">
      <use xlink:href="#DejaVuSans-32"/>
     </g>
    </g>
   </g>
   <g id="text_18">
    <g clip-path="url(#p9d01b01888)">
     <!-- 2.03, 2.26, 0.861, 0.0223 -->
     <g style="fill: #ffffff" transform="translate(447.765462 134.917862) scale(0.08 -0.08)">
      <defs>
       <path id="DejaVuSans-2c" d="M 750 794 
L 1409 794 
L 1409 256 
L 897 -744 
L 494 -744 
L 750 256 
L 750 794 
z
" transform="scale(0.015625)"/>
       <path id="DejaVuSans-20" transform="scale(0.015625)"/>
       <path id="DejaVuSans-38" d="M 2034 2216 
Q 1584 2216 1326 1975 
Q 1069 1734 1069 1313 
Q 1069 891 1326 650 
Q 1584 409 2034 409 
Q 2484 409 2743 651 
Q 3003 894 3003 1313 
Q 3003 1734 2745 1975 
Q 2488 2216 2034 2216 
z
M 1403 2484 
Q 997 2584 770 2862 
Q 544 3141 544 3541 
Q 544 4100 942 4425 
Q 1341 4750 2034 4750 
Q 2731 4750 3128 4425 
Q 3525 4100 3525 3541 
Q 3525 3141 3298 2862 
Q 3072 2584 2669 2484 
Q 3125 2378 3379 2068 
Q 3634 1759 3634 1313 
Q 3634 634 3220 271 
Q 2806 -91 2034 -91 
Q 1263 -91 848 271 
Q 434 634 434 1313 
Q 434 1759 690 2068 
Q 947 2378 1403 2484 
z
M 1172 3481 
Q 1172 3119 1398 2916 
Q 1625 2713 2034 2713 
Q 2441 2713 2670 2916 
Q 2900 3119 2900 3481 
Q 2900 3844 2670 4047 
Q 2441 4250 2034 4250 
Q 1625 4250 1398 4047 
Q 1172 3844 1172 3481 
z
" transform="scale(0.015625)"/>
      </defs>
      <use xlink:href="#DejaVuSans-32"/>
      <use xlink:href="#DejaVuSans-2e" x="63.623047"/>
      <use xlink:href="#DejaVuSans-30" x="95.410156"/>
      <use xlink:href="#DejaVuSans-33" x="159.033203"/>
      <use xlink:href="#DejaVuSans-2c" x="222.65625"/>
      <use xlink:href="#DejaVuSans-20" x="254.443359"/>
      <use xlink:href="#DejaVuSans-32" x="286.230469"/>
      <use xlink:href="#DejaVuSans-2e" x="349.853516"/>
      <use xlink:href="#DejaVuSans-32" x="381.640625"/>
      <use xlink:href="#DejaVuSans-36" x="445.263672"/>
      <use xlink:href="#DejaVuSans-2c" x="508.886719"/>
      <use xlink:href="#DejaVuSans-20" x="540.673828"/>
      <use xlink:href="#DejaVuSans-30" x="572.460938"/>
      <use xlink:href="#DejaVuSans-2e" x="636.083984"/>
      <use xlink:href="#DejaVuSans-38" x="667.871094"/>
      <use xlink:href="#DejaVuSans-36" x="731.494141"/>
      <use xlink:href="#DejaVuSans-31" x="795.117188"/>
      <use xlink:href="#DejaVuSans-2c" x="858.740234"/>
      <use xlink:href="#DejaVuSans-20" x="890.527344"/>
      <use xlink:href="#DejaVuSans-30" x="922.314453"/>
      <use xlink:href="#DejaVuSans-2e" x="985.9375"/>
      <use xlink:href="#DejaVuSans-30" x="1017.724609"/>
      <use xlink:href="#DejaVuSans-32" x="1081.347656"/>
      <use xlink:href="#DejaVuSans-32" x="1144.970703"/>
      <use xlink:href="#DejaVuSans-33" x="1208.59375"/>
     </g>
    </g>
   </g>
   <g id="text_19">
    <g clip-path="url(#p9d01b01888)">
     <!-- U_iqc_angle -->
     <g style="fill: #ffffff" transform="translate(459.855071 106.812587) scale(0.13 -0.13)">
      <defs>
       <path id="DejaVuSans-55" d="M 556 4666 
L 1191 4666 
L 1191 1831 
Q 1191 1081 1462 751 
Q 1734 422 2344 422 
Q 2950 422 3222 751 
Q 3494 1081 3494 1831 
L 3494 4666 
L 4128 4666 
L 4128 1753 
Q 4128 841 3676 375 
Q 3225 -91 2344 -91 
Q 1459 -91 1007 375 
Q 556 841 556 1753 
L 556 4666 
z
" transform="scale(0.015625)"/>
       <path id="DejaVuSans-5f" d="M 3263 -1063 
L 3263 -1509 
L -63 -1509 
L -63 -1063 
L 3263 -1063 
z
" transform="scale(0.015625)"/>
       <path id="DejaVuSans-69" d="M 603 3500 
L 1178 3500 
L 1178 0 
L 603 0 
L 603 3500 
z
M 603 4863 
L 1178 4863 
L 1178 4134 
L 603 4134 
L 603 4863 
z
" transform="scale(0.015625)"/>
       <path id="DejaVuSans-71" d="M 947 1747 
Q 947 1113 1208 752 
Q 1469 391 1925 391 
Q 2381 391 2643 752 
Q 2906 1113 2906 1747 
Q 2906 2381 2643 2742 
Q 2381 3103 1925 3103 
Q 1469 3103 1208 2742 
Q 947 2381 947 1747 
z
M 2906 525 
Q 2725 213 2448 61 
Q 2172 -91 1784 -91 
Q 1150 -91 751 415 
Q 353 922 353 1747 
Q 353 2572 751 3078 
Q 1150 3584 1784 3584 
Q 2172 3584 2448 3432 
Q 2725 3281 2906 2969 
L 2906 3500 
L 3481 3500 
L 3481 -1331 
L 2906 -1331 
L 2906 525 
z
" transform="scale(0.015625)"/>
       <path id="DejaVuSans-61" d="M 2194 1759 
Q 1497 1759 1228 1600 
Q 959 1441 959 1056 
Q 959 750 1161 570 
Q 1363 391 1709 391 
Q 2188 391 2477 730 
Q 2766 1069 2766 1631 
L 2766 1759 
L 2194 1759 
z
M 3341 1997 
L 3341 0 
L 2766 0 
L 2766 531 
Q 2569 213 2275 61 
Q 1981 -91 1556 -91 
Q 1019 -91 701 211 
Q 384 513 384 1019 
Q 384 1609 779 1909 
Q 1175 2209 1959 2209 
L 2766 2209 
L 2766 2266 
Q 2766 2663 2505 2880 
Q 2244 3097 1772 3097 
Q 1472 3097 1187 3025 
Q 903 2953 641 2809 
L 641 3341 
Q 956 3463 1253 3523 
Q 1550 3584 1831 3584 
Q 2591 3584 2966 3190 
Q 3341 2797 3341 1997 
z
" transform="scale(0.015625)"/>
       <path id="DejaVuSans-6e" d="M 3513 2113 
L 3513 0 
L 2938 0 
L 2938 2094 
Q 2938 2591 2744 2837 
Q 2550 3084 2163 3084 
Q 1697 3084 1428 2787 
Q 1159 2491 1159 1978 
L 1159 0 
L 581 0 
L 581 3500 
L 1159 3500 
L 1159 2956 
Q 1366 3272 1645 3428 
Q 1925 3584 2291 3584 
Q 2894 3584 3203 3211 
Q 3513 2838 3513 2113 
z
" transform="scale(0.015625)"/>
       <path id="DejaVuSans-67" d="M 2906 1791 
Q 2906 2416 2648 2759 
Q 2391 3103 1925 3103 
Q 1463 3103 1205 2759 
Q 947 2416 947 1791 
Q 947 1169 1205 825 
Q 1463 481 1925 481 
Q 2391 481 2648 825 
Q 2906 1169 2906 1791 
z
M 3481 434 
Q 3481 -459 3084 -895 
Q 2688 -1331 1869 -1331 
Q 1566 -1331 1297 -1286 
Q 1028 -1241 775 -1147 
L 775 -588 
Q 1028 -725 1275 -790 
Q 1522 -856 1778 -856 
Q 2344 -856 2625 -561 
Q 2906 -266 2906 331 
L 2906 616 
Q 2728 306 2450 153 
Q 2172 0 1784 0 
Q 1141 0 747 490 
Q 353 981 353 1791 
Q 353 2603 747 3093 
Q 1141 3584 1784 3584 
Q 2172 3584 2450 3431 
Q 2728 3278 2906 2969 
L 2906 3500 
L 3481 3500 
L 3481 434 
z
" transform="scale(0.015625)"/>
       <path id="DejaVuSans-6c" d="M 603 4863 
L 1178 4863 
L 1178 0 
L 603 0 
L 603 4863 
z
" transform="scale(0.015625)"/>
       <path id="DejaVuSans-65" d="M 3597 1894 
L 3597 1613 
L 953 1613 
Q 991 1019 1311 708 
Q 1631 397 2203 397 
Q 2534 397 2845 478 
Q 3156 559 3463 722 
L 3463 178 
Q 3153 47 2828 -22 
Q 2503 -91 2169 -91 
Q 1331 -91 842 396 
Q 353 884 353 1716 
Q 353 2575 817 3079 
Q 1281 3584 2069 3584 
Q 2775 3584 3186 3129 
Q 3597 2675 3597 1894 
z
M 3022 2063 
Q 3016 2534 2758 2815 
Q 2500 3097 2075 3097 
Q 1594 3097 1305 2825 
Q 1016 2553 972 2059 
L 3022 2063 
z
" transform="scale(0.015625)"/>
      </defs>
      <use xlink:href="#DejaVuSans-55"/>
      <use xlink:href="#DejaVuSans-5f" x="73.193359"/>
      <use xlink:href="#DejaVuSans-69" x="123.193359"/>
      <use xlink:href="#DejaVuSans-71" x="150.976562"/>
      <use xlink:href="#DejaVuSans-63" x="214.453125"/>
      <use xlink:href="#DejaVuSans-5f" x="269.433594"/>
      <use xlink:href="#DejaVuSans-61" x="319.433594"/>
      <use xlink:href="#DejaVuSans-6e" x="380.712891"/>
      <use xlink:href="#DejaVuSans-67" x="444.091797"/>
      <use xlink:href="#DejaVuSans-6c" x="507.568359"/>
      <use xlink:href="#DejaVuSans-65" x="535.351562"/>
     </g>
    </g>
   </g>
   <g id="text_20">
    <g clip-path="url(#p9d01b01888)">
     <!-- 0 -->
     <g style="fill: #ffffff" transform="translate(600.979846 55.019914) scale(0.13 -0.13)">
      <use xlink:href="#DejaVuSans-30"/>
     </g>
    </g>
   </g>
   <g id="text_21">
    <g clip-path="url(#p9d01b01888)">
     <!-- 1 -->
     <g style="fill: #ffffff" transform="translate(600.979846 110.310822) scale(0.13 -0.13)">
      <use xlink:href="#DejaVuSans-31"/>
     </g>
    </g>
   </g>
   <g id="text_22">
    <g clip-path="url(#p9d01b01888)">
     <!-- 2 -->
     <g style="fill: #ffffff" transform="translate(600.979846 165.601731) scale(0.13 -0.13)">
      <use xlink:href="#DejaVuSans-32"/>
     </g>
    </g>
   </g>
   <g id="text_23">
    <g clip-path="url(#p9d01b01888)">
     <!-- 2.75, 1.48, 2.69, 2.71 -->
     <g style="fill: #ffffff" transform="translate(621.273187 134.917862) scale(0.08 -0.08)">
      <defs>
       <path id="DejaVuSans-37" d="M 525 4666 
L 3525 4666 
L 3525 4397 
L 1831 0 
L 1172 0 
L 2766 4134 
L 525 4134 
L 525 4666 
z
" transform="scale(0.015625)"/>
       <path id="DejaVuSans-35" d="M 691 4666 
L 3169 4666 
L 3169 4134 
L 1269 4134 
L 1269 2991 
Q 1406 3038 1543 3061 
Q 1681 3084 1819 3084 
Q 2600 3084 3056 2656 
Q 3513 2228 3513 1497 
Q 3513 744 3044 326 
Q 2575 -91 1722 -91 
Q 1428 -91 1123 -41 
Q 819 9 494 109 
L 494 744 
Q 775 591 1075 516 
Q 1375 441 1709 441 
Q 2250 441 2565 725 
Q 2881 1009 2881 1497 
Q 2881 1984 2565 2268 
Q 2250 2553 1709 2553 
Q 1456 2553 1204 2497 
Q 953 2441 691 2322 
L 691 4666 
z
" transform="scale(0.015625)"/>
       <path id="DejaVuSans-34" d="M 2419 4116 
L 825 1625 
L 2419 1625 
L 2419 4116 
z
M 2253 4666 
L 3047 4666 
L 3047 1625 
L 3713 1625 
L 3713 1100 
L 3047 1100 
L 3047 0 
L 2419 0 
L 2419 1100 
L 313 1100 
L 313 1709 
L 2253 4666 
z
" transform="scale(0.015625)"/>
       <path id="DejaVuSans-39" d="M 703 97 
L 703 672 
Q 941 559 1184 500 
Q 1428 441 1663 441 
Q 2288 441 2617 861 
Q 2947 1281 2994 2138 
Q 2813 1869 2534 1725 
Q 2256 1581 1919 1581 
Q 1219 1581 811 2004 
Q 403 2428 403 3163 
Q 403 3881 828 4315 
Q 1253 4750 1959 4750 
Q 2769 4750 3195 4129 
Q 3622 3509 3622 2328 
Q 3622 1225 3098 567 
Q 2575 -91 1691 -91 
Q 1453 -91 1209 -44 
Q 966 3 703 97 
z
M 1959 2075 
Q 2384 2075 2632 2365 
Q 2881 2656 2881 3163 
Q 2881 3666 2632 3958 
Q 2384 4250 1959 4250 
Q 1534 4250 1286 3958 
Q 1038 3666 1038 3163 
Q 1038 2656 1286 2365 
Q 1534 2075 1959 2075 
z
" transform="scale(0.015625)"/>
      </defs>
      <use xlink:href="#DejaVuSans-32"/>
      <use xlink:href="#DejaVuSans-2e" x="63.623047"/>
      <use xlink:href="#DejaVuSans-37" x="95.410156"/>
      <use xlink:href="#DejaVuSans-35" x="159.033203"/>
      <use xlink:href="#DejaVuSans-2c" x="222.65625"/>
      <use xlink:href="#DejaVuSans-20" x="254.443359"/>
      <use xlink:href="#DejaVuSans-31" x="286.230469"/>
      <use xlink:href="#DejaVuSans-2e" x="349.853516"/>
      <use xlink:href="#DejaVuSans-34" x="381.640625"/>
      <use xlink:href="#DejaVuSans-38" x="445.263672"/>
      <use xlink:href="#DejaVuSans-2c" x="508.886719"/>
      <use xlink:href="#DejaVuSans-20" x="540.673828"/>
      <use xlink:href="#DejaVuSans-32" x="572.460938"/>
      <use xlink:href="#DejaVuSans-2e" x="636.083984"/>
      <use xlink:href="#DejaVuSans-36" x="667.871094"/>
      <use xlink:href="#DejaVuSans-39" x="731.494141"/>
      <use xlink:href="#DejaVuSans-2c" x="795.117188"/>
      <use xlink:href="#DejaVuSans-20" x="826.904297"/>
      <use xlink:href="#DejaVuSans-32" x="858.691406"/>
      <use xlink:href="#DejaVuSans-2e" x="922.314453"/>
      <use xlink:href="#DejaVuSans-37" x="954.101562"/>
      <use xlink:href="#DejaVuSans-31" x="1017.724609"/>
     </g>
    </g>
   </g>
   <g id="text_24">
    <g clip-path="url(#p9d01b01888)">
     <!-- U_iqc_angle -->
     <g style="fill: #ffffff" transform="translate(625.727796 106.812587) scale(0.13 -0.13)">
      <use xlink:href="#DejaVuSans-55"/>
      <use xlink:href="#DejaVuSans-5f" x="73.193359"/>
      <use xlink:href="#DejaVuSans-69" x="123.193359"/>
      <use xlink:href="#DejaVuSans-71" x="150.976562"/>
      <use xlink:href="#DejaVuSans-63" x="214.453125"/>
      <use xlink:href="#DejaVuSans-5f" x="269.433594"/>
      <use xlink:href="#DejaVuSans-61" x="319.433594"/>
      <use xlink:href="#DejaVuSans-6e" x="380.712891"/>
      <use xlink:href="#DejaVuSans-67" x="444.091797"/>
      <use xlink:href="#DejaVuSans-6c" x="507.568359"/>
      <use xlink:href="#DejaVuSans-65" x="535.351562"/>
     </g>
    </g>
   </g>
   <g id="line2d_25">
    <path d="M 769.025503 23.787272 
L 769.025503 79.078181 
" clip-path="url(#p9d01b01888)" style="fill: none; stroke-dasharray: 3.7,1.6; stroke-dashoffset: 0; stroke: #000000"/>
   </g>
   <g id="line2d_26">
    <path d="M 769.025503 79.078181 
L 769.025503 134.369089 
" clip-path="url(#p9d01b01888)" style="fill: none; stroke-dasharray: 3.7,1.6; stroke-dashoffset: 0; stroke: #000000"/>
   </g>
   <g id="line2d_27">
    <path d="M 769.025503 134.369089 
L 769.025503 189.659997 
" clip-path="url(#p9d01b01888)" style="fill: none; stroke-dasharray: 3.7,1.6; stroke-dashoffset: 0; stroke: #000000"/>
   </g>
   <g id="text_25">
    <g clip-path="url(#p9d01b01888)">
     <!-- 1.48 -->
     <g style="fill: #ffffff" transform="translate(870.70107 175.00377) scale(0.08 -0.08)">
      <use xlink:href="#DejaVuSans-31"/>
      <use xlink:href="#DejaVuSans-2e" x="63.623047"/>
      <use xlink:href="#DejaVuSans-34" x="95.410156"/>
      <use xlink:href="#DejaVuSans-38" x="159.033203"/>
     </g>
    </g>
   </g>
   <g id="text_26">
    <g clip-path="url(#p9d01b01888)">
     <!-- $\mathrm{R_X}$ -->
     <g style="fill: #ffffff" transform="translate(871.67732 160.210867) scale(0.13 -0.13)">
      <use xlink:href="#DejaVuSans-52" transform="translate(0 0.09375)"/>
      <use xlink:href="#DejaVuSans-58" transform="translate(70.439453 -16.3125) scale(0.7)"/>
     </g>
    </g>
   </g>
   <g id="text_27">
    <g clip-path="url(#p9d01b01888)">
     <!-- 2.75 -->
     <g style="fill: #ffffff" transform="translate(870.70107 119.712862) scale(0.08 -0.08)">
      <use xlink:href="#DejaVuSans-32"/>
      <use xlink:href="#DejaVuSans-2e" x="63.623047"/>
      <use xlink:href="#DejaVuSans-37" x="95.410156"/>
      <use xlink:href="#DejaVuSans-35" x="159.033203"/>
     </g>
    </g>
   </g>
   <g id="text_28">
    <g clip-path="url(#p9d01b01888)">
     <!-- $\mathrm{R_X}$ -->
     <g style="fill: #ffffff" transform="translate(871.67732 104.919959) scale(0.13 -0.13)">
      <use xlink:href="#DejaVuSans-52" transform="translate(0 0.09375)"/>
      <use xlink:href="#DejaVuSans-58" transform="translate(70.439453 -16.3125) scale(0.7)"/>
     </g>
    </g>
   </g>
   <g id="line2d_28">
    <path d="M 934.898228 23.787272 
L 934.898228 79.078181 
" clip-path="url(#p9d01b01888)" style="fill: none; stroke-dasharray: 3.7,1.6; stroke-dashoffset: 0; stroke: #000000"/>
   </g>
   <g id="line2d_29">
    <path d="M 934.898228 79.078181 
L 934.898228 134.369089 
" clip-path="url(#p9d01b01888)" style="fill: none; stroke-dasharray: 3.7,1.6; stroke-dashoffset: 0; stroke: #000000"/>
   </g>
   <g id="line2d_30">
    <path d="M 934.898228 134.369089 
L 934.898228 189.659997 
" clip-path="url(#p9d01b01888)" style="fill: none; stroke-dasharray: 3.7,1.6; stroke-dashoffset: 0; stroke: #000000"/>
   </g>
   <g id="text_29">
    <g clip-path="url(#p9d01b01888)">
     <!-- H -->
     <g transform="translate(985.300933 55.019914) scale(0.13 -0.13)">
      <use xlink:href="#DejaVuSans-48"/>
     </g>
    </g>
   </g>
   <g id="text_30">
    <g clip-path="url(#p9d01b01888)">
     <!-- 1.48 -->
     <g style="fill: #ffffff" transform="translate(1036.573795 175.00377) scale(0.08 -0.08)">
      <use xlink:href="#DejaVuSans-31"/>
      <use xlink:href="#DejaVuSans-2e" x="63.623047"/>
      <use xlink:href="#DejaVuSans-34" x="95.410156"/>
      <use xlink:href="#DejaVuSans-38" x="159.033203"/>
     </g>
    </g>
   </g>
   <g id="text_31">
    <g clip-path="url(#p9d01b01888)">
     <!-- $\mathrm{R_X}$ -->
     <g style="fill: #ffffff" transform="translate(1037.550045 160.210867) scale(0.13 -0.13)">
      <use xlink:href="#DejaVuSans-52" transform="translate(0 0.09375)"/>
      <use xlink:href="#DejaVuSans-58" transform="translate(70.439453 -16.3125) scale(0.7)"/>
     </g>
    </g>
   </g>
   <g id="text_32">
    <g clip-path="url(#p9d01b01888)">
     <!-- 2.75 -->
     <g style="fill: #ffffff" transform="translate(1036.573795 119.712862) scale(0.08 -0.08)">
      <use xlink:href="#DejaVuSans-32"/>
      <use xlink:href="#DejaVuSans-2e" x="63.623047"/>
      <use xlink:href="#DejaVuSans-37" x="95.410156"/>
      <use xlink:href="#DejaVuSans-35" x="159.033203"/>
     </g>
    </g>
   </g>
   <g id="text_33">
    <g clip-path="url(#p9d01b01888)">
     <!-- $\mathrm{R_X}$ -->
     <g style="fill: #ffffff" transform="translate(1037.550045 104.919959) scale(0.13 -0.13)">
      <use xlink:href="#DejaVuSans-52" transform="translate(0 0.09375)"/>
      <use xlink:href="#DejaVuSans-58" transform="translate(70.439453 -16.3125) scale(0.7)"/>
     </g>
    </g>
   </g>
  </g>
 </g>
 <defs>
  <clipPath id="p9d01b01888">
   <rect x="7.2" y="7.2" width="1074.772044" height="243.279996"/>
  </clipPath>
 </defs>
</svg>
