<?xml version="1.0" encoding="utf-8" standalone="no"?>
<!DOCTYPE svg PUBLIC "-//W3C//DTD SVG 1.1//EN"
  "http://www.w3.org/Graphics/SVG/1.1/DTD/svg11.dtd">
<svg xmlns:xlink="http://www.w3.org/1999/xlink" width="1239.929981pt" height="365.018033pt" viewBox="0 0 1239.929981 365.018033" xmlns="http://www.w3.org/2000/svg" version="1.1">
 <metadata>
  <rdf:RDF xmlns:dc="http://purl.org/dc/elements/1.1/" xmlns:cc="http://creativecommons.org/ns#" xmlns:rdf="http://www.w3.org/1999/02/22-rdf-syntax-ns#">
   <cc:Work>
    <dc:type rdf:resource="http://purl.org/dc/dcmitype/StillImage"/>
    <dc:date>2024-11-10T14:28:02.986704</dc:date>
    <dc:format>image/svg+xml</dc:format>
    <dc:creator>
     <cc:Agent>
      <dc:title>Matplotlib v3.9.2, https://matplotlib.org/</dc:title>
     </cc:Agent>
    </dc:creator>
   </cc:Work>
  </rdf:RDF>
 </metadata>
 <defs>
  <style type="text/css">*{stroke-linejoin: round; stroke-linecap: butt}</style>
 </defs>
 <g id="figure_1">
  <g id="patch_1">
   <path d="M -0 365.018033 
L 1239.929981 365.018033 
L 1239.929981 0 
L -0 0 
z
" style="fill: #ffffff"/>
  </g>
  <g id="axes_1">
   <g id="line2d_1">
    <path d="M 64.609196 51.881637 
L 1228.094581 51.881637 
" clip-path="url(#pe2bc842acd)" style="fill: none; stroke: #000000; stroke-width: 2; stroke-linecap: square"/>
   </g>
   <g id="line2d_2">
    <path d="M 64.609196 98.235636 
L 1228.094581 98.235636 
" clip-path="url(#pe2bc842acd)" style="fill: none; stroke: #000000; stroke-width: 2; stroke-linecap: square"/>
   </g>
   <g id="line2d_3">
    <path d="M 64.609196 144.589636 
L 1228.094581 144.589636 
" clip-path="url(#pe2bc842acd)" style="fill: none; stroke: #000000; stroke-width: 2; stroke-linecap: square"/>
   </g>
   <g id="line2d_4">
    <path d="M 1228.094581 51.881637 
L 1228.094581 144.589636 
" clip-path="url(#pe2bc842acd)" style="fill: none; stroke: #000000; stroke-width: 1.5; stroke-linecap: square"/>
   </g>
   <g id="line2d_5">
    <path d="M 64.609196 237.297635 
L 1228.094581 237.297635 
" clip-path="url(#pe2bc842acd)" style="fill: none; stroke: #000000; stroke-width: 2; stroke-linecap: square"/>
   </g>
   <g id="line2d_6">
    <path d="M 64.609196 283.651634 
L 1228.094581 283.651634 
" clip-path="url(#pe2bc842acd)" style="fill: none; stroke: #000000; stroke-width: 2; stroke-linecap: square"/>
   </g>
   <g id="line2d_7">
    <path d="M 64.609196 330.005633 
L 1228.094581 330.005633 
" clip-path="url(#pe2bc842acd)" style="fill: none; stroke: #000000; stroke-width: 2; stroke-linecap: square"/>
   </g>
   <g id="line2d_8">
    <path d="M 64.145656 237.297635 
L 64.145656 330.005633 
" clip-path="url(#pe2bc842acd)" style="fill: none; stroke: #000000; stroke-width: 1.5; stroke-linecap: square"/>
   </g>
   <g id="text_1">
    <!-- Global Phase: 1.886517743189354 -->
    <g transform="translate(7.2 14.798437) scale(0.1 -0.1)">
     <defs>
      <path id="DejaVuSans-47" d="M 3809 666 
L 3809 1919 
L 2778 1919 
L 2778 2438 
L 4434 2438 
L 4434 434 
Q 4069 175 3628 42 
Q 3188 -91 2688 -91 
Q 1594 -91 976 548 
Q 359 1188 359 2328 
Q 359 3472 976 4111 
Q 1594 4750 2688 4750 
Q 3144 4750 3555 4637 
Q 3966 4525 4313 4306 
L 4313 3634 
Q 3963 3931 3569 4081 
Q 3175 4231 2741 4231 
Q 1884 4231 1454 3753 
Q 1025 3275 1025 2328 
Q 1025 1384 1454 906 
Q 1884 428 2741 428 
Q 3075 428 3337 486 
Q 3600 544 3809 666 
z
" transform="scale(0.015625)"/>
      <path id="DejaVuSans-6c" d="M 603 4863 
L 1178 4863 
L 1178 0 
L 603 0 
L 603 4863 
z
" transform="scale(0.015625)"/>
      <path id="DejaVuSans-6f" d="M 1959 3097 
Q 1497 3097 1228 2736 
Q 959 2375 959 1747 
Q 959 1119 1226 758 
Q 1494 397 1959 397 
Q 2419 397 2687 759 
Q 2956 1122 2956 1747 
Q 2956 2369 2687 2733 
Q 2419 3097 1959 3097 
z
M 1959 3584 
Q 2709 3584 3137 3096 
Q 3566 2609 3566 1747 
Q 3566 888 3137 398 
Q 2709 -91 1959 -91 
Q 1206 -91 779 398 
Q 353 888 353 1747 
Q 353 2609 779 3096 
Q 1206 3584 1959 3584 
z
" transform="scale(0.015625)"/>
      <path id="DejaVuSans-62" d="M 3116 1747 
Q 3116 2381 2855 2742 
Q 2594 3103 2138 3103 
Q 1681 3103 1420 2742 
Q 1159 2381 1159 1747 
Q 1159 1113 1420 752 
Q 1681 391 2138 391 
Q 2594 391 2855 752 
Q 3116 1113 3116 1747 
z
M 1159 2969 
Q 1341 3281 1617 3432 
Q 1894 3584 2278 3584 
Q 2916 3584 3314 3078 
Q 3713 2572 3713 1747 
Q 3713 922 3314 415 
Q 2916 -91 2278 -91 
Q 1894 -91 1617 61 
Q 1341 213 1159 525 
L 1159 0 
L 581 0 
L 581 4863 
L 1159 4863 
L 1159 2969 
z
" transform="scale(0.015625)"/>
      <path id="DejaVuSans-61" d="M 2194 1759 
Q 1497 1759 1228 1600 
Q 959 1441 959 1056 
Q 959 750 1161 570 
Q 1363 391 1709 391 
Q 2188 391 2477 730 
Q 2766 1069 2766 1631 
L 2766 1759 
L 2194 1759 
z
M 3341 1997 
L 3341 0 
L 2766 0 
L 2766 531 
Q 2569 213 2275 61 
Q 1981 -91 1556 -91 
Q 1019 -91 701 211 
Q 384 513 384 1019 
Q 384 1609 779 1909 
Q 1175 2209 1959 2209 
L 2766 2209 
L 2766 2266 
Q 2766 2663 2505 2880 
Q 2244 3097 1772 3097 
Q 1472 3097 1187 3025 
Q 903 2953 641 2809 
L 641 3341 
Q 956 3463 1253 3523 
Q 1550 3584 1831 3584 
Q 2591 3584 2966 3190 
Q 3341 2797 3341 1997 
z
" transform="scale(0.015625)"/>
      <path id="DejaVuSans-20" transform="scale(0.015625)"/>
      <path id="DejaVuSans-50" d="M 1259 4147 
L 1259 2394 
L 2053 2394 
Q 2494 2394 2734 2622 
Q 2975 2850 2975 3272 
Q 2975 3691 2734 3919 
Q 2494 4147 2053 4147 
L 1259 4147 
z
M 628 4666 
L 2053 4666 
Q 2838 4666 3239 4311 
Q 3641 3956 3641 3272 
Q 3641 2581 3239 2228 
Q 2838 1875 2053 1875 
L 1259 1875 
L 1259 0 
L 628 0 
L 628 4666 
z
" transform="scale(0.015625)"/>
      <path id="DejaVuSans-68" d="M 3513 2113 
L 3513 0 
L 2938 0 
L 2938 2094 
Q 2938 2591 2744 2837 
Q 2550 3084 2163 3084 
Q 1697 3084 1428 2787 
Q 1159 2491 1159 1978 
L 1159 0 
L 581 0 
L 581 4863 
L 1159 4863 
L 1159 2956 
Q 1366 3272 1645 3428 
Q 1925 3584 2291 3584 
Q 2894 3584 3203 3211 
Q 3513 2838 3513 2113 
z
" transform="scale(0.015625)"/>
      <path id="DejaVuSans-73" d="M 2834 3397 
L 2834 2853 
Q 2591 2978 2328 3040 
Q 2066 3103 1784 3103 
Q 1356 3103 1142 2972 
Q 928 2841 928 2578 
Q 928 2378 1081 2264 
Q 1234 2150 1697 2047 
L 1894 2003 
Q 2506 1872 2764 1633 
Q 3022 1394 3022 966 
Q 3022 478 2636 193 
Q 2250 -91 1575 -91 
Q 1294 -91 989 -36 
Q 684 19 347 128 
L 347 722 
Q 666 556 975 473 
Q 1284 391 1588 391 
Q 1994 391 2212 530 
Q 2431 669 2431 922 
Q 2431 1156 2273 1281 
Q 2116 1406 1581 1522 
L 1381 1569 
Q 847 1681 609 1914 
Q 372 2147 372 2553 
Q 372 3047 722 3315 
Q 1072 3584 1716 3584 
Q 2034 3584 2315 3537 
Q 2597 3491 2834 3397 
z
" transform="scale(0.015625)"/>
      <path id="DejaVuSans-65" d="M 3597 1894 
L 3597 1613 
L 953 1613 
Q 991 1019 1311 708 
Q 1631 397 2203 397 
Q 2534 397 2845 478 
Q 3156 559 3463 722 
L 3463 178 
Q 3153 47 2828 -22 
Q 2503 -91 2169 -91 
Q 1331 -91 842 396 
Q 353 884 353 1716 
Q 353 2575 817 3079 
Q 1281 3584 2069 3584 
Q 2775 3584 3186 3129 
Q 3597 2675 3597 1894 
z
M 3022 2063 
Q 3016 2534 2758 2815 
Q 2500 3097 2075 3097 
Q 1594 3097 1305 2825 
Q 1016 2553 972 2059 
L 3022 2063 
z
" transform="scale(0.015625)"/>
      <path id="DejaVuSans-3a" d="M 750 794 
L 1409 794 
L 1409 0 
L 750 0 
L 750 794 
z
M 750 3309 
L 1409 3309 
L 1409 2516 
L 750 2516 
L 750 3309 
z
" transform="scale(0.015625)"/>
      <path id="DejaVuSans-31" d="M 794 531 
L 1825 531 
L 1825 4091 
L 703 3866 
L 703 4441 
L 1819 4666 
L 2450 4666 
L 2450 531 
L 3481 531 
L 3481 0 
L 794 0 
L 794 531 
z
" transform="scale(0.015625)"/>
      <path id="DejaVuSans-2e" d="M 684 794 
L 1344 794 
L 1344 0 
L 684 0 
L 684 794 
z
" transform="scale(0.015625)"/>
      <path id="DejaVuSans-38" d="M 2034 2216 
Q 1584 2216 1326 1975 
Q 1069 1734 1069 1313 
Q 1069 891 1326 650 
Q 1584 409 2034 409 
Q 2484 409 2743 651 
Q 3003 894 3003 1313 
Q 3003 1734 2745 1975 
Q 2488 2216 2034 2216 
z
M 1403 2484 
Q 997 2584 770 2862 
Q 544 3141 544 3541 
Q 544 4100 942 4425 
Q 1341 4750 2034 4750 
Q 2731 4750 3128 4425 
Q 3525 4100 3525 3541 
Q 3525 3141 3298 2862 
Q 3072 2584 2669 2484 
Q 3125 2378 3379 2068 
Q 3634 1759 3634 1313 
Q 3634 634 3220 271 
Q 2806 -91 2034 -91 
Q 1263 -91 848 271 
Q 434 634 434 1313 
Q 434 1759 690 2068 
Q 947 2378 1403 2484 
z
M 1172 3481 
Q 1172 3119 1398 2916 
Q 1625 2713 2034 2713 
Q 2441 2713 2670 2916 
Q 2900 3119 2900 3481 
Q 2900 3844 2670 4047 
Q 2441 4250 2034 4250 
Q 1625 4250 1398 4047 
Q 1172 3844 1172 3481 
z
" transform="scale(0.015625)"/>
      <path id="DejaVuSans-36" d="M 2113 2584 
Q 1688 2584 1439 2293 
Q 1191 2003 1191 1497 
Q 1191 994 1439 701 
Q 1688 409 2113 409 
Q 2538 409 2786 701 
Q 3034 994 3034 1497 
Q 3034 2003 2786 2293 
Q 2538 2584 2113 2584 
z
M 3366 4563 
L 3366 3988 
Q 3128 4100 2886 4159 
Q 2644 4219 2406 4219 
Q 1781 4219 1451 3797 
Q 1122 3375 1075 2522 
Q 1259 2794 1537 2939 
Q 1816 3084 2150 3084 
Q 2853 3084 3261 2657 
Q 3669 2231 3669 1497 
Q 3669 778 3244 343 
Q 2819 -91 2113 -91 
Q 1303 -91 875 529 
Q 447 1150 447 2328 
Q 447 3434 972 4092 
Q 1497 4750 2381 4750 
Q 2619 4750 2861 4703 
Q 3103 4656 3366 4563 
z
" transform="scale(0.015625)"/>
      <path id="DejaVuSans-35" d="M 691 4666 
L 3169 4666 
L 3169 4134 
L 1269 4134 
L 1269 2991 
Q 1406 3038 1543 3061 
Q 1681 3084 1819 3084 
Q 2600 3084 3056 2656 
Q 3513 2228 3513 1497 
Q 3513 744 3044 326 
Q 2575 -91 1722 -91 
Q 1428 -91 1123 -41 
Q 819 9 494 109 
L 494 744 
Q 775 591 1075 516 
Q 1375 441 1709 441 
Q 2250 441 2565 725 
Q 2881 1009 2881 1497 
Q 2881 1984 2565 2268 
Q 2250 2553 1709 2553 
Q 1456 2553 1204 2497 
Q 953 2441 691 2322 
L 691 4666 
z
" transform="scale(0.015625)"/>
      <path id="DejaVuSans-37" d="M 525 4666 
L 3525 4666 
L 3525 4397 
L 1831 0 
L 1172 0 
L 2766 4134 
L 525 4134 
L 525 4666 
z
" transform="scale(0.015625)"/>
      <path id="DejaVuSans-34" d="M 2419 4116 
L 825 1625 
L 2419 1625 
L 2419 4116 
z
M 2253 4666 
L 3047 4666 
L 3047 1625 
L 3713 1625 
L 3713 1100 
L 3047 1100 
L 3047 0 
L 2419 0 
L 2419 1100 
L 313 1100 
L 313 1709 
L 2253 4666 
z
" transform="scale(0.015625)"/>
      <path id="DejaVuSans-33" d="M 2597 2516 
Q 3050 2419 3304 2112 
Q 3559 1806 3559 1356 
Q 3559 666 3084 287 
Q 2609 -91 1734 -91 
Q 1441 -91 1130 -33 
Q 819 25 488 141 
L 488 750 
Q 750 597 1062 519 
Q 1375 441 1716 441 
Q 2309 441 2620 675 
Q 2931 909 2931 1356 
Q 2931 1769 2642 2001 
Q 2353 2234 1838 2234 
L 1294 2234 
L 1294 2753 
L 1863 2753 
Q 2328 2753 2575 2939 
Q 2822 3125 2822 3475 
Q 2822 3834 2567 4026 
Q 2313 4219 1838 4219 
Q 1578 4219 1281 4162 
Q 984 4106 628 3988 
L 628 4550 
Q 988 4650 1302 4700 
Q 1616 4750 1894 4750 
Q 2613 4750 3031 4423 
Q 3450 4097 3450 3541 
Q 3450 3153 3228 2886 
Q 3006 2619 2597 2516 
z
" transform="scale(0.015625)"/>
      <path id="DejaVuSans-39" d="M 703 97 
L 703 672 
Q 941 559 1184 500 
Q 1428 441 1663 441 
Q 2288 441 2617 861 
Q 2947 1281 2994 2138 
Q 2813 1869 2534 1725 
Q 2256 1581 1919 1581 
Q 1219 1581 811 2004 
Q 403 2428 403 3163 
Q 403 3881 828 4315 
Q 1253 4750 1959 4750 
Q 2769 4750 3195 4129 
Q 3622 3509 3622 2328 
Q 3622 1225 3098 567 
Q 2575 -91 1691 -91 
Q 1453 -91 1209 -44 
Q 966 3 703 97 
z
M 1959 2075 
Q 2384 2075 2632 2365 
Q 2881 2656 2881 3163 
Q 2881 3666 2632 3958 
Q 2384 4250 1959 4250 
Q 1534 4250 1286 3958 
Q 1038 3666 1038 3163 
Q 1038 2656 1286 2365 
Q 1534 2075 1959 2075 
z
" transform="scale(0.015625)"/>
     </defs>
     <use xlink:href="#DejaVuSans-47"/>
     <use xlink:href="#DejaVuSans-6c" x="77.490234"/>
     <use xlink:href="#DejaVuSans-6f" x="105.273438"/>
     <use xlink:href="#DejaVuSans-62" x="166.455078"/>
     <use xlink:href="#DejaVuSans-61" x="229.931641"/>
     <use xlink:href="#DejaVuSans-6c" x="291.210938"/>
     <use xlink:href="#DejaVuSans-20" x="318.994141"/>
     <use xlink:href="#DejaVuSans-50" x="350.78125"/>
     <use xlink:href="#DejaVuSans-68" x="411.083984"/>
     <use xlink:href="#DejaVuSans-61" x="474.462891"/>
     <use xlink:href="#DejaVuSans-73" x="535.742188"/>
     <use xlink:href="#DejaVuSans-65" x="587.841797"/>
     <use xlink:href="#DejaVuSans-3a" x="649.365234"/>
     <use xlink:href="#DejaVuSans-20" x="683.056641"/>
     <use xlink:href="#DejaVuSans-31" x="714.84375"/>
     <use xlink:href="#DejaVuSans-2e" x="778.466797"/>
     <use xlink:href="#DejaVuSans-38" x="810.253906"/>
     <use xlink:href="#DejaVuSans-38" x="873.876953"/>
     <use xlink:href="#DejaVuSans-36" x="937.5"/>
     <use xlink:href="#DejaVuSans-35" x="1001.123047"/>
     <use xlink:href="#DejaVuSans-31" x="1064.746094"/>
     <use xlink:href="#DejaVuSans-37" x="1128.369141"/>
     <use xlink:href="#DejaVuSans-37" x="1191.992188"/>
     <use xlink:href="#DejaVuSans-34" x="1255.615234"/>
     <use xlink:href="#DejaVuSans-33" x="1319.238281"/>
     <use xlink:href="#DejaVuSans-31" x="1382.861328"/>
     <use xlink:href="#DejaVuSans-38" x="1446.484375"/>
     <use xlink:href="#DejaVuSans-39" x="1510.107422"/>
     <use xlink:href="#DejaVuSans-33" x="1573.730469"/>
     <use xlink:href="#DejaVuSans-35" x="1637.353516"/>
     <use xlink:href="#DejaVuSans-34" x="1700.976562"/>
    </g>
   </g>
   <g id="patch_2">
    <path d="M 59.973797 28.704637 
L -1098.876188 28.704637 
L -1098.876188 214.120635 
L 59.973797 214.120635 
z
" clip-path="url(#pe2bc842acd)" style="fill: #ffffff; stroke: #ffffff; stroke-width: 1.5; stroke-linejoin: miter"/>
   </g>
   <g id="patch_3">
    <path d="M 59.973797 214.120635 
L -1098.876188 214.120635 
L -1098.876188 584.95263 
L 59.973797 584.95263 
z
" clip-path="url(#pe2bc842acd)" style="fill: #ffffff; stroke: #ffffff; stroke-width: 1.5; stroke-linejoin: miter"/>
   </g>
   <g id="line2d_9">
    <path d="M 275.056354 144.589636 
L 275.056354 98.235636 
" clip-path="url(#pe2bc842acd)" style="fill: none; stroke: #002d9c; stroke-width: 2; stroke-linecap: square"/>
   </g>
   <g id="line2d_10">
    <path d="M 414.118352 98.235636 
L 414.118352 51.881637 
" clip-path="url(#pe2bc842acd)" style="fill: none; stroke: #002d9c; stroke-width: 2; stroke-linecap: square"/>
   </g>
   <g id="line2d_11">
    <path d="M 553.18035 98.235636 
L 553.18035 51.881637 
" clip-path="url(#pe2bc842acd)" style="fill: none; stroke: #002d9c; stroke-width: 2; stroke-linecap: square"/>
   </g>
   <g id="line2d_12">
    <path d="M 692.242348 144.589636 
L 692.242348 51.881637 
" clip-path="url(#pe2bc842acd)" style="fill: none; stroke: #002d9c; stroke-width: 2; stroke-linecap: square"/>
   </g>
   <g id="line2d_13">
    <path d="M 831.304346 144.589636 
L 831.304346 98.235636 
" clip-path="url(#pe2bc842acd)" style="fill: none; stroke: #002d9c; stroke-width: 2; stroke-linecap: square"/>
   </g>
   <g id="line2d_14">
    <path d="M 970.366344 144.589636 
L 970.366344 51.881637 
" clip-path="url(#pe2bc842acd)" style="fill: none; stroke: #002d9c; stroke-width: 2; stroke-linecap: square"/>
   </g>
   <g id="line2d_15">
    <path d="M 1109.428343 144.589636 
L 1109.428343 98.235636 
" clip-path="url(#pe2bc842acd)" style="fill: none; stroke: #002d9c; stroke-width: 2; stroke-linecap: square"/>
   </g>
   <g id="line2d_16">
    <path d="M 89.640356 330.005633 
L 89.640356 237.297635 
" clip-path="url(#pe2bc842acd)" style="fill: none; stroke: #002d9c; stroke-width: 2; stroke-linecap: square"/>
   </g>
   <g id="line2d_17">
    <path d="M 228.702354 330.005633 
L 228.702354 283.651634 
" clip-path="url(#pe2bc842acd)" style="fill: none; stroke: #002d9c; stroke-width: 2; stroke-linecap: square"/>
   </g>
   <g id="line2d_18">
    <path d="M 367.764352 330.005633 
L 367.764352 237.297635 
" clip-path="url(#pe2bc842acd)" style="fill: none; stroke: #002d9c; stroke-width: 2; stroke-linecap: square"/>
   </g>
   <g id="line2d_19">
    <path d="M 506.826351 283.651634 
L 506.826351 237.297635 
" clip-path="url(#pe2bc842acd)" style="fill: none; stroke: #002d9c; stroke-width: 2; stroke-linecap: square"/>
   </g>
   <g id="line2d_20">
    <path d="M 645.888349 283.651634 
L 645.888349 237.297635 
" clip-path="url(#pe2bc842acd)" style="fill: none; stroke: #002d9c; stroke-width: 2; stroke-linecap: square"/>
   </g>
   <g id="line2d_21">
    <path d="M 784.950347 330.005633 
L 784.950347 237.297635 
" clip-path="url(#pe2bc842acd)" style="fill: none; stroke: #002d9c; stroke-width: 2; stroke-linecap: square"/>
   </g>
   <g id="line2d_22">
    <path d="M 924.012345 330.005633 
L 924.012345 283.651634 
" clip-path="url(#pe2bc842acd)" style="fill: none; stroke: #002d9c; stroke-width: 2; stroke-linecap: square"/>
   </g>
   <g id="line2d_23">
    <path d="M 1063.074343 330.005633 
L 1063.074343 237.297635 
" clip-path="url(#pe2bc842acd)" style="fill: none; stroke: #002d9c; stroke-width: 2; stroke-linecap: square"/>
   </g>
   <g id="line2d_24">
    <path d="M 1202.136341 330.005633 
L 1202.136341 283.651634 
" clip-path="url(#pe2bc842acd)" style="fill: none; stroke: #002d9c; stroke-width: 2; stroke-linecap: square"/>
   </g>
   <g id="patch_4">
    <path d="M 85.294669 66.946687 
L 140.340043 66.946687 
L 140.340043 36.816587 
L 85.294669 36.816587 
z
" clip-path="url(#pe2bc842acd)" style="fill: #9f1853; stroke: #9f1853; stroke-width: 1.5; stroke-linejoin: miter"/>
   </g>
   <g id="patch_5">
    <path d="M 97.752306 113.300686 
L 127.882406 113.300686 
L 127.882406 83.170587 
L 97.752306 83.170587 
z
" clip-path="url(#pe2bc842acd)" style="fill: #a8a8a8; stroke: #a8a8a8; stroke-width: 1.5; stroke-linejoin: miter"/>
   </g>
   <g id="patch_6">
    <path d="M 97.752306 159.654686 
L 127.882406 159.654686 
L 127.882406 129.524586 
L 97.752306 129.524586 
z
" clip-path="url(#pe2bc842acd)" style="fill: #a8a8a8; stroke: #a8a8a8; stroke-width: 1.5; stroke-linejoin: miter"/>
   </g>
   <g id="patch_7">
    <path d="M 171.580321 113.300686 
L 239.470388 113.300686 
L 239.470388 83.170587 
L 171.580321 83.170587 
z
" clip-path="url(#pe2bc842acd)" style="fill: #9f1853; stroke: #9f1853; stroke-width: 1.5; stroke-linejoin: miter"/>
   </g>
   <g id="patch_8">
    <path d="M 185.148136 159.654686 
L 225.902573 159.654686 
L 225.902573 129.524586 
L 185.148136 129.524586 
z
" clip-path="url(#pe2bc842acd)" style="fill: #9f1853; stroke: #9f1853; stroke-width: 1.5; stroke-linejoin: miter"/>
   </g>
   <g id="patch_9">
    <path d="M 275.056354 149.109151 
C 276.254943 149.109151 277.404603 148.632946 278.252133 147.785415 
C 279.099664 146.937885 279.575869 145.788225 279.575869 144.589636 
C 279.575869 143.391046 279.099664 142.241387 278.252133 141.393856 
C 277.404603 140.546325 276.254943 140.070121 275.056354 140.070121 
C 273.857764 140.070121 272.708105 140.546325 271.860574 141.393856 
C 271.013043 142.241387 270.536839 143.391046 270.536839 144.589636 
C 270.536839 145.788225 271.013043 146.937885 271.860574 147.785415 
C 272.708105 148.632946 273.857764 149.109151 275.056354 149.109151 
z
" clip-path="url(#pe2bc842acd)" style="fill: #002d9c; stroke: #002d9c; stroke-width: 1.5; stroke-linejoin: miter"/>
   </g>
   <g id="patch_10">
    <path d="M 275.056354 108.781171 
C 277.853062 108.781171 280.535601 107.670027 282.513173 105.692456 
C 284.490744 103.714884 285.601889 101.032345 285.601889 98.235636 
C 285.601889 95.438928 284.490744 92.756389 282.513173 90.778817 
C 280.535601 88.801246 277.853062 87.690102 275.056354 87.690102 
C 272.259645 87.690102 269.577106 88.801246 267.599534 90.778817 
C 265.621963 92.756389 264.510819 95.438928 264.510819 98.235636 
C 264.510819 101.032345 265.621963 103.714884 267.599534 105.692456 
C 269.577106 107.670027 272.259645 108.781171 275.056354 108.781171 
z
" clip-path="url(#pe2bc842acd)" style="fill: #002d9c; stroke: #002d9c; stroke-width: 2; stroke-linejoin: miter"/>
   </g>
   <g id="patch_11">
    <path d="M 321.505379 159.654686 
L 367.669327 159.654686 
L 367.669327 129.524586 
L 321.505379 129.524586 
z
" clip-path="url(#pe2bc842acd)" style="fill: #9f1853; stroke: #9f1853; stroke-width: 1.5; stroke-linejoin: miter"/>
   </g>
   <g id="patch_12">
    <path d="M 304.168983 113.300686 
L 385.005723 113.300686 
L 385.005723 83.170587 
L 304.168983 83.170587 
z
" clip-path="url(#pe2bc842acd)" style="fill: #9f1853; stroke: #9f1853; stroke-width: 1.5; stroke-linejoin: miter"/>
   </g>
   <g id="patch_13">
    <path d="M 414.118352 56.401152 
C 415.316941 56.401152 416.466601 55.924947 417.314131 55.077417 
C 418.161662 54.229886 418.637867 53.080226 418.637867 51.881637 
C 418.637867 50.683048 418.161662 49.533388 417.314131 48.685857 
C 416.466601 47.838327 415.316941 47.362122 414.118352 47.362122 
C 412.919762 47.362122 411.770103 47.838327 410.922572 48.685857 
C 410.075041 49.533388 409.598837 50.683048 409.598837 51.881637 
C 409.598837 53.080226 410.075041 54.229886 410.922572 55.077417 
C 411.770103 55.924947 412.919762 56.401152 414.118352 56.401152 
z
" clip-path="url(#pe2bc842acd)" style="fill: #002d9c; stroke: #002d9c; stroke-width: 1.5; stroke-linejoin: miter"/>
   </g>
   <g id="patch_14">
    <path d="M 414.118352 108.781171 
C 416.91506 108.781171 419.597599 107.670027 421.575171 105.692456 
C 423.552743 103.714884 424.663887 101.032345 424.663887 98.235636 
C 424.663887 95.438928 423.552743 92.756389 421.575171 90.778817 
C 419.597599 88.801246 416.91506 87.690102 414.118352 87.690102 
C 411.321643 87.690102 408.639104 88.801246 406.661533 90.778817 
C 404.683961 92.756389 403.572817 95.438928 403.572817 98.235636 
C 403.572817 101.032345 404.683961 103.714884 406.661533 105.692456 
C 408.639104 107.670027 411.321643 108.781171 414.118352 108.781171 
z
" clip-path="url(#pe2bc842acd)" style="fill: #002d9c; stroke: #002d9c; stroke-width: 2; stroke-linejoin: miter"/>
   </g>
   <g id="patch_15">
    <path d="M 462.402995 66.946687 
L 504.895707 66.946687 
L 504.895707 36.816587 
L 462.402995 36.816587 
z
" clip-path="url(#pe2bc842acd)" style="fill: #9f1853; stroke: #9f1853; stroke-width: 1.5; stroke-linejoin: miter"/>
   </g>
   <g id="patch_16">
    <path d="M 445.789722 113.300686 
L 521.50898 113.300686 
L 521.50898 83.170587 
L 445.789722 83.170587 
z
" clip-path="url(#pe2bc842acd)" style="fill: #9f1853; stroke: #9f1853; stroke-width: 1.5; stroke-linejoin: miter"/>
   </g>
   <g id="patch_17">
    <path d="M 553.18035 56.401152 
C 554.378939 56.401152 555.528599 55.924947 556.37613 55.077417 
C 557.22366 54.229886 557.699865 53.080226 557.699865 51.881637 
C 557.699865 50.683048 557.22366 49.533388 556.37613 48.685857 
C 555.528599 47.838327 554.378939 47.362122 553.18035 47.362122 
C 551.981761 47.362122 550.832101 47.838327 549.98457 48.685857 
C 549.13704 49.533388 548.660835 50.683048 548.660835 51.881637 
C 548.660835 53.080226 549.13704 54.229886 549.98457 55.077417 
C 550.832101 55.924947 551.981761 56.401152 553.18035 56.401152 
z
" clip-path="url(#pe2bc842acd)" style="fill: #002d9c; stroke: #002d9c; stroke-width: 1.5; stroke-linejoin: miter"/>
   </g>
   <g id="patch_18">
    <path d="M 553.18035 108.781171 
C 555.977059 108.781171 558.659598 107.670027 560.637169 105.692456 
C 562.614741 103.714884 563.725885 101.032345 563.725885 98.235636 
C 563.725885 95.438928 562.614741 92.756389 560.637169 90.778817 
C 558.659598 88.801246 555.977059 87.690102 553.18035 87.690102 
C 550.383641 87.690102 547.701102 88.801246 545.723531 90.778817 
C 543.745959 92.756389 542.634815 95.438928 542.634815 98.235636 
C 542.634815 101.032345 543.745959 103.714884 545.723531 105.692456 
C 547.701102 107.670027 550.383641 108.781171 553.18035 108.781171 
z
" clip-path="url(#pe2bc842acd)" style="fill: #002d9c; stroke: #002d9c; stroke-width: 2; stroke-linejoin: miter"/>
   </g>
   <g id="patch_19">
    <path d="M 594.850278 66.946687 
L 650.57242 66.946687 
L 650.57242 36.816587 
L 594.850278 36.816587 
z
" clip-path="url(#pe2bc842acd)" style="fill: #9f1853; stroke: #9f1853; stroke-width: 1.5; stroke-linejoin: miter"/>
   </g>
   <g id="patch_20">
    <path d="M 591.568415 113.300686 
L 653.854284 113.300686 
L 653.854284 83.170587 
L 591.568415 83.170587 
z
" clip-path="url(#pe2bc842acd)" style="fill: #9f1853; stroke: #9f1853; stroke-width: 1.5; stroke-linejoin: miter"/>
   </g>
   <g id="patch_21">
    <path d="M 692.242348 56.401152 
C 693.440937 56.401152 694.590597 55.924947 695.438128 55.077417 
C 696.285658 54.229886 696.761863 53.080226 696.761863 51.881637 
C 696.761863 50.683048 696.285658 49.533388 695.438128 48.685857 
C 694.590597 47.838327 693.440937 47.362122 692.242348 47.362122 
C 691.043759 47.362122 689.894099 47.838327 689.046568 48.685857 
C 688.199038 49.533388 687.722833 50.683048 687.722833 51.881637 
C 687.722833 53.080226 688.199038 54.229886 689.046568 55.077417 
C 689.894099 55.924947 691.043759 56.401152 692.242348 56.401152 
z
" clip-path="url(#pe2bc842acd)" style="fill: #002d9c; stroke: #002d9c; stroke-width: 1.5; stroke-linejoin: miter"/>
   </g>
   <g id="patch_22">
    <path d="M 692.242348 155.135171 
C 695.039057 155.135171 697.721596 154.024027 699.699167 152.046455 
C 701.676739 150.068883 702.787883 147.386344 702.787883 144.589636 
C 702.787883 141.792927 701.676739 139.110388 699.699167 137.132817 
C 697.721596 135.155245 695.039057 134.044101 692.242348 134.044101 
C 689.44564 134.044101 686.7631 135.155245 684.785529 137.132817 
C 682.807957 139.110388 681.696813 141.792927 681.696813 144.589636 
C 681.696813 147.386344 682.807957 150.068883 684.785529 152.046455 
C 686.7631 154.024027 689.44564 155.135171 692.242348 155.135171 
z
" clip-path="url(#pe2bc842acd)" style="fill: #002d9c; stroke: #002d9c; stroke-width: 2; stroke-linejoin: miter"/>
   </g>
   <g id="patch_23">
    <path d="M 738.691373 159.654686 
L 784.855321 159.654686 
L 784.855321 129.524586 
L 738.691373 129.524586 
z
" clip-path="url(#pe2bc842acd)" style="fill: #9f1853; stroke: #9f1853; stroke-width: 1.5; stroke-linejoin: miter"/>
   </g>
   <g id="patch_24">
    <path d="M 831.304346 102.755151 
C 832.502936 102.755151 833.652595 102.278947 834.500126 101.431416 
C 835.347657 100.583885 835.823861 99.434226 835.823861 98.235636 
C 835.823861 97.037047 835.347657 95.887387 834.500126 95.039857 
C 833.652595 94.192326 832.502936 93.716121 831.304346 93.716121 
C 830.105757 93.716121 828.956097 94.192326 828.108567 95.039857 
C 827.261036 95.887387 826.784831 97.037047 826.784831 98.235636 
C 826.784831 99.434226 827.261036 100.583885 828.108567 101.431416 
C 828.956097 102.278947 830.105757 102.755151 831.304346 102.755151 
z
" clip-path="url(#pe2bc842acd)" style="fill: #002d9c; stroke: #002d9c; stroke-width: 1.5; stroke-linejoin: miter"/>
   </g>
   <g id="patch_25">
    <path d="M 831.304346 155.135171 
C 834.101055 155.135171 836.783594 154.024027 838.761165 152.046455 
C 840.738737 150.068883 841.849881 147.386344 841.849881 144.589636 
C 841.849881 141.792927 840.738737 139.110388 838.761165 137.132817 
C 836.783594 135.155245 834.101055 134.044101 831.304346 134.044101 
C 828.507638 134.044101 825.825099 135.155245 823.847527 137.132817 
C 821.869955 139.110388 820.758811 141.792927 820.758811 144.589636 
C 820.758811 147.386344 821.869955 150.068883 823.847527 152.046455 
C 825.825099 154.024027 828.507638 155.135171 831.304346 155.135171 
z
" clip-path="url(#pe2bc842acd)" style="fill: #002d9c; stroke: #002d9c; stroke-width: 2; stroke-linejoin: miter"/>
   </g>
   <g id="patch_26">
    <path d="M 877.753371 159.654686 
L 923.917319 159.654686 
L 923.917319 129.524586 
L 877.753371 129.524586 
z
" clip-path="url(#pe2bc842acd)" style="fill: #9f1853; stroke: #9f1853; stroke-width: 1.5; stroke-linejoin: miter"/>
   </g>
   <g id="patch_27">
    <path d="M 970.366344 56.401152 
C 971.564934 56.401152 972.714593 55.924947 973.562124 55.077417 
C 974.409655 54.229886 974.885859 53.080226 974.885859 51.881637 
C 974.885859 50.683048 974.409655 49.533388 973.562124 48.685857 
C 972.714593 47.838327 971.564934 47.362122 970.366344 47.362122 
C 969.167755 47.362122 968.018095 47.838327 967.170565 48.685857 
C 966.323034 49.533388 965.846829 50.683048 965.846829 51.881637 
C 965.846829 53.080226 966.323034 54.229886 967.170565 55.077417 
C 968.018095 55.924947 969.167755 56.401152 970.366344 56.401152 
z
" clip-path="url(#pe2bc842acd)" style="fill: #002d9c; stroke: #002d9c; stroke-width: 1.5; stroke-linejoin: miter"/>
   </g>
   <g id="patch_28">
    <path d="M 970.366344 155.135171 
C 973.163053 155.135171 975.845592 154.024027 977.823164 152.046455 
C 979.800735 150.068883 980.911879 147.386344 980.911879 144.589636 
C 980.911879 141.792927 979.800735 139.110388 977.823164 137.132817 
C 975.845592 135.155245 973.163053 134.044101 970.366344 134.044101 
C 967.569636 134.044101 964.887097 135.155245 962.909525 137.132817 
C 960.931954 139.110388 959.82081 141.792927 959.82081 144.589636 
C 959.82081 147.386344 960.931954 150.068883 962.909525 152.046455 
C 964.887097 154.024027 967.569636 155.135171 970.366344 155.135171 
z
" clip-path="url(#pe2bc842acd)" style="fill: #002d9c; stroke: #002d9c; stroke-width: 2; stroke-linejoin: miter"/>
   </g>
   <g id="patch_29">
    <path d="M 1015.802535 159.654686 
L 1063.992152 159.654686 
L 1063.992152 129.524586 
L 1015.802535 129.524586 
z
" clip-path="url(#pe2bc842acd)" style="fill: #9f1853; stroke: #9f1853; stroke-width: 1.5; stroke-linejoin: miter"/>
   </g>
   <g id="patch_30">
    <path d="M 1109.428343 102.755151 
C 1110.626932 102.755151 1111.776592 102.278947 1112.624122 101.431416 
C 1113.471653 100.583885 1113.947858 99.434226 1113.947858 98.235636 
C 1113.947858 97.037047 1113.471653 95.887387 1112.624122 95.039857 
C 1111.776592 94.192326 1110.626932 93.716121 1109.428343 93.716121 
C 1108.229753 93.716121 1107.080094 94.192326 1106.232563 95.039857 
C 1105.385032 95.887387 1104.908828 97.037047 1104.908828 98.235636 
C 1104.908828 99.434226 1105.385032 100.583885 1106.232563 101.431416 
C 1107.080094 102.278947 1108.229753 102.755151 1109.428343 102.755151 
z
" clip-path="url(#pe2bc842acd)" style="fill: #002d9c; stroke: #002d9c; stroke-width: 1.5; stroke-linejoin: miter"/>
   </g>
   <g id="patch_31">
    <path d="M 1109.428343 155.135171 
C 1112.225051 155.135171 1114.90759 154.024027 1116.885162 152.046455 
C 1118.862733 150.068883 1119.973877 147.386344 1119.973877 144.589636 
C 1119.973877 141.792927 1118.862733 139.110388 1116.885162 137.132817 
C 1114.90759 135.155245 1112.225051 134.044101 1109.428343 134.044101 
C 1106.631634 134.044101 1103.949095 135.155245 1101.971523 137.132817 
C 1099.993952 139.110388 1098.882808 141.792927 1098.882808 144.589636 
C 1098.882808 147.386344 1099.993952 150.068883 1101.971523 152.046455 
C 1103.949095 154.024027 1106.631634 155.135171 1109.428343 155.135171 
z
" clip-path="url(#pe2bc842acd)" style="fill: #002d9c; stroke: #002d9c; stroke-width: 2; stroke-linejoin: miter"/>
   </g>
   <g id="patch_32">
    <path d="M 1152.498161 159.654686 
L 1205.420522 159.654686 
L 1205.420522 129.524586 
L 1152.498161 129.524586 
z
" clip-path="url(#pe2bc842acd)" style="fill: #9f1853; stroke: #9f1853; stroke-width: 1.5; stroke-linejoin: miter"/>
   </g>
   <g id="patch_33">
    <path d="M 89.640356 241.817149 
C 90.838946 241.817149 91.988605 241.340945 92.836136 240.493414 
C 93.683666 239.645884 94.159871 238.496224 94.159871 237.297635 
C 94.159871 236.099045 93.683666 234.949386 92.836136 234.101855 
C 91.988605 233.254324 90.838946 232.77812 89.640356 232.77812 
C 88.441767 232.77812 87.292107 233.254324 86.444576 234.101855 
C 85.597046 234.949386 85.120841 236.099045 85.120841 237.297635 
C 85.120841 238.496224 85.597046 239.645884 86.444576 240.493414 
C 87.292107 241.340945 88.441767 241.817149 89.640356 241.817149 
z
" clip-path="url(#pe2bc842acd)" style="fill: #002d9c; stroke: #002d9c; stroke-width: 1.5; stroke-linejoin: miter"/>
   </g>
   <g id="patch_34">
    <path d="M 89.640356 340.551168 
C 92.437065 340.551168 95.119604 339.440024 97.097175 337.462453 
C 99.074747 335.484881 100.185891 332.802342 100.185891 330.005633 
C 100.185891 327.208925 99.074747 324.526386 97.097175 322.548814 
C 95.119604 320.571243 92.437065 319.460098 89.640356 319.460098 
C 86.843648 319.460098 84.161108 320.571243 82.183537 322.548814 
C 80.205965 324.526386 79.094821 327.208925 79.094821 330.005633 
C 79.094821 332.802342 80.205965 335.484881 82.183537 337.462453 
C 84.161108 339.440024 86.843648 340.551168 89.640356 340.551168 
z
" clip-path="url(#pe2bc842acd)" style="fill: #002d9c; stroke: #002d9c; stroke-width: 2; stroke-linejoin: miter"/>
   </g>
   <g id="patch_35">
    <path d="M 136.04071 345.070683 
L 182.302001 345.070683 
L 182.302001 314.940584 
L 136.04071 314.940584 
z
" clip-path="url(#pe2bc842acd)" style="fill: #9f1853; stroke: #9f1853; stroke-width: 1.5; stroke-linejoin: miter"/>
   </g>
   <g id="patch_36">
    <path d="M 228.702354 288.171149 
C 229.900944 288.171149 231.050603 287.694944 231.898134 286.847414 
C 232.745665 285.999883 233.221869 284.850223 233.221869 283.651634 
C 233.221869 282.453045 232.745665 281.303385 231.898134 280.455854 
C 231.050603 279.608324 229.900944 279.132119 228.702354 279.132119 
C 227.503765 279.132119 226.354105 279.608324 225.506575 280.455854 
C 224.659044 281.303385 224.182839 282.453045 224.182839 283.651634 
C 224.182839 284.850223 224.659044 285.999883 225.506575 286.847414 
C 226.354105 287.694944 227.503765 288.171149 228.702354 288.171149 
z
" clip-path="url(#pe2bc842acd)" style="fill: #002d9c; stroke: #002d9c; stroke-width: 1.5; stroke-linejoin: miter"/>
   </g>
   <g id="patch_37">
    <path d="M 228.702354 340.551168 
C 231.499063 340.551168 234.181602 339.440024 236.159173 337.462453 
C 238.136745 335.484881 239.247889 332.802342 239.247889 330.005633 
C 239.247889 327.208925 238.136745 324.526386 236.159173 322.548814 
C 234.181602 320.571243 231.499063 319.460098 228.702354 319.460098 
C 225.905646 319.460098 223.223107 320.571243 221.245535 322.548814 
C 219.267964 324.526386 218.156819 327.208925 218.156819 330.005633 
C 218.156819 332.802342 219.267964 335.484881 221.245535 337.462453 
C 223.223107 339.440024 225.905646 340.551168 228.702354 340.551168 
z
" clip-path="url(#pe2bc842acd)" style="fill: #002d9c; stroke: #002d9c; stroke-width: 2; stroke-linejoin: miter"/>
   </g>
   <g id="patch_38">
    <path d="M 264.332356 298.716684 
L 332.134351 298.716684 
L 332.134351 268.586584 
L 264.332356 268.586584 
z
" clip-path="url(#pe2bc842acd)" style="fill: #9f1853; stroke: #9f1853; stroke-width: 1.5; stroke-linejoin: miter"/>
   </g>
   <g id="patch_39">
    <path d="M 275.102708 345.070683 
L 321.363999 345.070683 
L 321.363999 314.940584 
L 275.102708 314.940584 
z
" clip-path="url(#pe2bc842acd)" style="fill: #9f1853; stroke: #9f1853; stroke-width: 1.5; stroke-linejoin: miter"/>
   </g>
   <g id="patch_40">
    <path d="M 367.764352 241.817149 
C 368.962942 241.817149 370.112601 241.340945 370.960132 240.493414 
C 371.807663 239.645884 372.283867 238.496224 372.283867 237.297635 
C 372.283867 236.099045 371.807663 234.949386 370.960132 234.101855 
C 370.112601 233.254324 368.962942 232.77812 367.764352 232.77812 
C 366.565763 232.77812 365.416103 233.254324 364.568573 234.101855 
C 363.721042 234.949386 363.244837 236.099045 363.244837 237.297635 
C 363.244837 238.496224 363.721042 239.645884 364.568573 240.493414 
C 365.416103 241.340945 366.565763 241.817149 367.764352 241.817149 
z
" clip-path="url(#pe2bc842acd)" style="fill: #002d9c; stroke: #002d9c; stroke-width: 1.5; stroke-linejoin: miter"/>
   </g>
   <g id="patch_41">
    <path d="M 367.764352 340.551168 
C 370.561061 340.551168 373.2436 339.440024 375.221172 337.462453 
C 377.198743 335.484881 378.309887 332.802342 378.309887 330.005633 
C 378.309887 327.208925 377.198743 324.526386 375.221172 322.548814 
C 373.2436 320.571243 370.561061 319.460098 367.764352 319.460098 
C 364.967644 319.460098 362.285105 320.571243 360.307533 322.548814 
C 358.329962 324.526386 357.218818 327.208925 357.218818 330.005633 
C 357.218818 332.802342 358.329962 335.484881 360.307533 337.462453 
C 362.285105 339.440024 364.967644 340.551168 367.764352 340.551168 
z
" clip-path="url(#pe2bc842acd)" style="fill: #002d9c; stroke: #002d9c; stroke-width: 2; stroke-linejoin: miter"/>
   </g>
   <g id="patch_42">
    <path d="M 409.239593 252.362684 
L 465.35111 252.362684 
L 465.35111 222.232585 
L 409.239593 222.232585 
z
" clip-path="url(#pe2bc842acd)" style="fill: #9f1853; stroke: #9f1853; stroke-width: 1.5; stroke-linejoin: miter"/>
   </g>
   <g id="patch_43">
    <path d="M 406.826868 345.070683 
L 467.763835 345.070683 
L 467.763835 314.940584 
L 406.826868 314.940584 
z
" clip-path="url(#pe2bc842acd)" style="fill: #9f1853; stroke: #9f1853; stroke-width: 1.5; stroke-linejoin: miter"/>
   </g>
   <g id="patch_44">
    <path d="M 506.826351 241.817149 
C 508.02494 241.817149 509.1746 241.340945 510.02213 240.493414 
C 510.869661 239.645884 511.345866 238.496224 511.345866 237.297635 
C 511.345866 236.099045 510.869661 234.949386 510.02213 234.101855 
C 509.1746 233.254324 508.02494 232.77812 506.826351 232.77812 
C 505.627761 232.77812 504.478102 233.254324 503.630571 234.101855 
C 502.78304 234.949386 502.306836 236.099045 502.306836 237.297635 
C 502.306836 238.496224 502.78304 239.645884 503.630571 240.493414 
C 504.478102 241.340945 505.627761 241.817149 506.826351 241.817149 
z
" clip-path="url(#pe2bc842acd)" style="fill: #002d9c; stroke: #002d9c; stroke-width: 1.5; stroke-linejoin: miter"/>
   </g>
   <g id="patch_45">
    <path d="M 506.826351 294.197169 
C 509.623059 294.197169 512.305598 293.086025 514.28317 291.108453 
C 516.260741 289.130882 517.371885 286.448342 517.371885 283.651634 
C 517.371885 280.854925 516.260741 278.172386 514.28317 276.194815 
C 512.305598 274.217243 509.623059 273.106099 506.826351 273.106099 
C 504.029642 273.106099 501.347103 274.217243 499.369531 276.194815 
C 497.39196 278.172386 496.280816 280.854925 496.280816 283.651634 
C 496.280816 286.448342 497.39196 289.130882 499.369531 291.108453 
C 501.347103 293.086025 504.029642 294.197169 506.826351 294.197169 
z
" clip-path="url(#pe2bc842acd)" style="fill: #002d9c; stroke: #002d9c; stroke-width: 2; stroke-linejoin: miter"/>
   </g>
   <g id="patch_46">
    <path d="M 555.110994 252.362684 
L 597.603705 252.362684 
L 597.603705 222.232585 
L 555.110994 222.232585 
z
" clip-path="url(#pe2bc842acd)" style="fill: #9f1853; stroke: #9f1853; stroke-width: 1.5; stroke-linejoin: miter"/>
   </g>
   <g id="patch_47">
    <path d="M 538.497721 298.716684 
L 614.216979 298.716684 
L 614.216979 268.586584 
L 538.497721 268.586584 
z
" clip-path="url(#pe2bc842acd)" style="fill: #9f1853; stroke: #9f1853; stroke-width: 1.5; stroke-linejoin: miter"/>
   </g>
   <g id="patch_48">
    <path d="M 645.888349 241.817149 
C 647.086938 241.817149 648.236598 241.340945 649.084128 240.493414 
C 649.931659 239.645884 650.407864 238.496224 650.407864 237.297635 
C 650.407864 236.099045 649.931659 234.949386 649.084128 234.101855 
C 648.236598 233.254324 647.086938 232.77812 645.888349 232.77812 
C 644.689759 232.77812 643.5401 233.254324 642.692569 234.101855 
C 641.845038 234.949386 641.368834 236.099045 641.368834 237.297635 
C 641.368834 238.496224 641.845038 239.645884 642.692569 240.493414 
C 643.5401 241.340945 644.689759 241.817149 645.888349 241.817149 
z
" clip-path="url(#pe2bc842acd)" style="fill: #002d9c; stroke: #002d9c; stroke-width: 1.5; stroke-linejoin: miter"/>
   </g>
   <g id="patch_49">
    <path d="M 645.888349 294.197169 
C 648.685057 294.197169 651.367596 293.086025 653.345168 291.108453 
C 655.32274 289.130882 656.433884 286.448342 656.433884 283.651634 
C 656.433884 280.854925 655.32274 278.172386 653.345168 276.194815 
C 651.367596 274.217243 648.685057 273.106099 645.888349 273.106099 
C 643.09164 273.106099 640.409101 274.217243 638.43153 276.194815 
C 636.453958 278.172386 635.342814 280.854925 635.342814 283.651634 
C 635.342814 286.448342 636.453958 289.130882 638.43153 291.108453 
C 640.409101 293.086025 643.09164 294.197169 645.888349 294.197169 
z
" clip-path="url(#pe2bc842acd)" style="fill: #002d9c; stroke: #002d9c; stroke-width: 2; stroke-linejoin: miter"/>
   </g>
   <g id="patch_50">
    <path d="M 680.074423 252.362684 
L 750.764272 252.362684 
L 750.764272 222.232585 
L 680.074423 222.232585 
z
" clip-path="url(#pe2bc842acd)" style="fill: #9f1853; stroke: #9f1853; stroke-width: 1.5; stroke-linejoin: miter"/>
   </g>
   <g id="patch_51">
    <path d="M 677.898103 298.716684 
L 752.940593 298.716684 
L 752.940593 268.586584 
L 677.898103 268.586584 
z
" clip-path="url(#pe2bc842acd)" style="fill: #9f1853; stroke: #9f1853; stroke-width: 1.5; stroke-linejoin: miter"/>
   </g>
   <g id="patch_52">
    <path d="M 784.950347 241.817149 
C 786.148936 241.817149 787.298596 241.340945 788.146127 240.493414 
C 788.993657 239.645884 789.469862 238.496224 789.469862 237.297635 
C 789.469862 236.099045 788.993657 234.949386 788.146127 234.101855 
C 787.298596 233.254324 786.148936 232.77812 784.950347 232.77812 
C 783.751758 232.77812 782.602098 233.254324 781.754567 234.101855 
C 780.907037 234.949386 780.430832 236.099045 780.430832 237.297635 
C 780.430832 238.496224 780.907037 239.645884 781.754567 240.493414 
C 782.602098 241.340945 783.751758 241.817149 784.950347 241.817149 
z
" clip-path="url(#pe2bc842acd)" style="fill: #002d9c; stroke: #002d9c; stroke-width: 1.5; stroke-linejoin: miter"/>
   </g>
   <g id="patch_53">
    <path d="M 784.950347 340.551168 
C 787.747055 340.551168 790.429595 339.440024 792.407166 337.462453 
C 794.384738 335.484881 795.495882 332.802342 795.495882 330.005633 
C 795.495882 327.208925 794.384738 324.526386 792.407166 322.548814 
C 790.429595 320.571243 787.747055 319.460098 784.950347 319.460098 
C 782.153638 319.460098 779.471099 320.571243 777.493528 322.548814 
C 775.515956 324.526386 774.404812 327.208925 774.404812 330.005633 
C 774.404812 332.802342 775.515956 335.484881 777.493528 337.462453 
C 779.471099 339.440024 782.153638 340.551168 784.950347 340.551168 
z
" clip-path="url(#pe2bc842acd)" style="fill: #002d9c; stroke: #002d9c; stroke-width: 2; stroke-linejoin: miter"/>
   </g>
   <g id="patch_54">
    <path d="M 827.779125 345.070683 
L 881.183567 345.070683 
L 881.183567 314.940584 
L 827.779125 314.940584 
z
" clip-path="url(#pe2bc842acd)" style="fill: #9f1853; stroke: #9f1853; stroke-width: 1.5; stroke-linejoin: miter"/>
   </g>
   <g id="patch_55">
    <path d="M 924.012345 288.171149 
C 925.210934 288.171149 926.360594 287.694944 927.208125 286.847414 
C 928.055655 285.999883 928.53186 284.850223 928.53186 283.651634 
C 928.53186 282.453045 928.055655 281.303385 927.208125 280.455854 
C 926.360594 279.608324 925.210934 279.132119 924.012345 279.132119 
C 922.813756 279.132119 921.664096 279.608324 920.816565 280.455854 
C 919.969035 281.303385 919.49283 282.453045 919.49283 283.651634 
C 919.49283 284.850223 919.969035 285.999883 920.816565 286.847414 
C 921.664096 287.694944 922.813756 288.171149 924.012345 288.171149 
z
" clip-path="url(#pe2bc842acd)" style="fill: #002d9c; stroke: #002d9c; stroke-width: 1.5; stroke-linejoin: miter"/>
   </g>
   <g id="patch_56">
    <path d="M 924.012345 340.551168 
C 926.809054 340.551168 929.491593 339.440024 931.469164 337.462453 
C 933.446736 335.484881 934.55788 332.802342 934.55788 330.005633 
C 934.55788 327.208925 933.446736 324.526386 931.469164 322.548814 
C 929.491593 320.571243 926.809054 319.460098 924.012345 319.460098 
C 921.215637 319.460098 918.533097 320.571243 916.555526 322.548814 
C 914.577954 324.526386 913.46681 327.208925 913.46681 330.005633 
C 913.46681 332.802342 914.577954 335.484881 916.555526 337.462453 
C 918.533097 339.440024 921.215637 340.551168 924.012345 340.551168 
z
" clip-path="url(#pe2bc842acd)" style="fill: #002d9c; stroke: #002d9c; stroke-width: 2; stroke-linejoin: miter"/>
   </g>
   <g id="patch_57">
    <path d="M 969.497207 345.070683 
L 1017.589481 345.070683 
L 1017.589481 314.940584 
L 969.497207 314.940584 
z
" clip-path="url(#pe2bc842acd)" style="fill: #9f1853; stroke: #9f1853; stroke-width: 1.5; stroke-linejoin: miter"/>
   </g>
   <g id="patch_58">
    <path d="M 1063.074343 241.817149 
C 1064.272933 241.817149 1065.422592 241.340945 1066.270123 240.493414 
C 1067.117654 239.645884 1067.593858 238.496224 1067.593858 237.297635 
C 1067.593858 236.099045 1067.117654 234.949386 1066.270123 234.101855 
C 1065.422592 233.254324 1064.272933 232.77812 1063.074343 232.77812 
C 1061.875754 232.77812 1060.726094 233.254324 1059.878564 234.101855 
C 1059.031033 234.949386 1058.554828 236.099045 1058.554828 237.297635 
C 1058.554828 238.496224 1059.031033 239.645884 1059.878564 240.493414 
C 1060.726094 241.340945 1061.875754 241.817149 1063.074343 241.817149 
z
" clip-path="url(#pe2bc842acd)" style="fill: #002d9c; stroke: #002d9c; stroke-width: 1.5; stroke-linejoin: miter"/>
   </g>
   <g id="patch_59">
    <path d="M 1063.074343 340.551168 
C 1065.871052 340.551168 1068.553591 339.440024 1070.531162 337.462453 
C 1072.508734 335.484881 1073.619878 332.802342 1073.619878 330.005633 
C 1073.619878 327.208925 1072.508734 324.526386 1070.531162 322.548814 
C 1068.553591 320.571243 1065.871052 319.460098 1063.074343 319.460098 
C 1060.277635 319.460098 1057.595096 320.571243 1055.617524 322.548814 
C 1053.639952 324.526386 1052.528808 327.208925 1052.528808 330.005633 
C 1052.528808 332.802342 1053.639952 335.484881 1055.617524 337.462453 
C 1057.595096 339.440024 1060.277635 340.551168 1063.074343 340.551168 
z
" clip-path="url(#pe2bc842acd)" style="fill: #002d9c; stroke: #002d9c; stroke-width: 2; stroke-linejoin: miter"/>
   </g>
   <g id="patch_60">
    <path d="M 1109.523368 345.070683 
L 1155.687316 345.070683 
L 1155.687316 314.940584 
L 1109.523368 314.940584 
z
" clip-path="url(#pe2bc842acd)" style="fill: #9f1853; stroke: #9f1853; stroke-width: 1.5; stroke-linejoin: miter"/>
   </g>
   <g id="patch_61">
    <path d="M 1202.136341 288.171149 
C 1203.334931 288.171149 1204.48459 287.694944 1205.332121 286.847414 
C 1206.179652 285.999883 1206.655856 284.850223 1206.655856 283.651634 
C 1206.655856 282.453045 1206.179652 281.303385 1205.332121 280.455854 
C 1204.48459 279.608324 1203.334931 279.132119 1202.136341 279.132119 
C 1200.937752 279.132119 1199.788092 279.608324 1198.940562 280.455854 
C 1198.093031 281.303385 1197.616826 282.453045 1197.616826 283.651634 
C 1197.616826 284.850223 1198.093031 285.999883 1198.940562 286.847414 
C 1199.788092 287.694944 1200.937752 288.171149 1202.136341 288.171149 
z
" clip-path="url(#pe2bc842acd)" style="fill: #002d9c; stroke: #002d9c; stroke-width: 1.5; stroke-linejoin: miter"/>
   </g>
   <g id="patch_62">
    <path d="M 1202.136341 340.551168 
C 1204.93305 340.551168 1207.615589 339.440024 1209.593161 337.462453 
C 1211.570732 335.484881 1212.681876 332.802342 1212.681876 330.005633 
C 1212.681876 327.208925 1211.570732 324.526386 1209.593161 322.548814 
C 1207.615589 320.571243 1204.93305 319.460098 1202.136341 319.460098 
C 1199.339633 319.460098 1196.657094 320.571243 1194.679522 322.548814 
C 1192.701951 324.526386 1191.590806 327.208925 1191.590806 330.005633 
C 1191.590806 332.802342 1192.701951 335.484881 1194.679522 337.462453 
C 1196.657094 339.440024 1199.339633 340.551168 1202.136341 340.551168 
z
" clip-path="url(#pe2bc842acd)" style="fill: #002d9c; stroke: #002d9c; stroke-width: 2; stroke-linejoin: miter"/>
   </g>
   <g id="line2d_25">
    <path d="M 275.056354 104.261656 
L 275.056354 92.209616 
" clip-path="url(#pe2bc842acd)" style="fill: none; stroke: #ffffff; stroke-width: 2; stroke-linecap: square"/>
   </g>
   <g id="line2d_26">
    <path d="M 269.030334 98.235636 
L 281.082374 98.235636 
" clip-path="url(#pe2bc842acd)" style="fill: none; stroke: #ffffff; stroke-width: 2; stroke-linecap: square"/>
   </g>
   <g id="line2d_27">
    <path d="M 414.118352 104.261656 
L 414.118352 92.209616 
" clip-path="url(#pe2bc842acd)" style="fill: none; stroke: #ffffff; stroke-width: 2; stroke-linecap: square"/>
   </g>
   <g id="line2d_28">
    <path d="M 408.092332 98.235636 
L 420.144372 98.235636 
" clip-path="url(#pe2bc842acd)" style="fill: none; stroke: #ffffff; stroke-width: 2; stroke-linecap: square"/>
   </g>
   <g id="line2d_29">
    <path d="M 553.18035 104.261656 
L 553.18035 92.209616 
" clip-path="url(#pe2bc842acd)" style="fill: none; stroke: #ffffff; stroke-width: 2; stroke-linecap: square"/>
   </g>
   <g id="line2d_30">
    <path d="M 547.15433 98.235636 
L 559.20637 98.235636 
" clip-path="url(#pe2bc842acd)" style="fill: none; stroke: #ffffff; stroke-width: 2; stroke-linecap: square"/>
   </g>
   <g id="line2d_31">
    <path d="M 692.242348 150.615656 
L 692.242348 138.563616 
" clip-path="url(#pe2bc842acd)" style="fill: none; stroke: #ffffff; stroke-width: 2; stroke-linecap: square"/>
   </g>
   <g id="line2d_32">
    <path d="M 686.216328 144.589636 
L 698.268368 144.589636 
" clip-path="url(#pe2bc842acd)" style="fill: none; stroke: #ffffff; stroke-width: 2; stroke-linecap: square"/>
   </g>
   <g id="line2d_33">
    <path d="M 831.304346 150.615656 
L 831.304346 138.563616 
" clip-path="url(#pe2bc842acd)" style="fill: none; stroke: #ffffff; stroke-width: 2; stroke-linecap: square"/>
   </g>
   <g id="line2d_34">
    <path d="M 825.278326 144.589636 
L 837.330366 144.589636 
" clip-path="url(#pe2bc842acd)" style="fill: none; stroke: #ffffff; stroke-width: 2; stroke-linecap: square"/>
   </g>
   <g id="line2d_35">
    <path d="M 970.366344 150.615656 
L 970.366344 138.563616 
" clip-path="url(#pe2bc842acd)" style="fill: none; stroke: #ffffff; stroke-width: 2; stroke-linecap: square"/>
   </g>
   <g id="line2d_36">
    <path d="M 964.340325 144.589636 
L 976.392364 144.589636 
" clip-path="url(#pe2bc842acd)" style="fill: none; stroke: #ffffff; stroke-width: 2; stroke-linecap: square"/>
   </g>
   <g id="line2d_37">
    <path d="M 1109.428343 150.615656 
L 1109.428343 138.563616 
" clip-path="url(#pe2bc842acd)" style="fill: none; stroke: #ffffff; stroke-width: 2; stroke-linecap: square"/>
   </g>
   <g id="line2d_38">
    <path d="M 1103.402323 144.589636 
L 1115.454363 144.589636 
" clip-path="url(#pe2bc842acd)" style="fill: none; stroke: #ffffff; stroke-width: 2; stroke-linecap: square"/>
   </g>
   <g id="line2d_39">
    <path d="M 89.640356 336.031653 
L 89.640356 323.979613 
" clip-path="url(#pe2bc842acd)" style="fill: none; stroke: #ffffff; stroke-width: 2; stroke-linecap: square"/>
   </g>
   <g id="line2d_40">
    <path d="M 83.614336 330.005633 
L 95.666376 330.005633 
" clip-path="url(#pe2bc842acd)" style="fill: none; stroke: #ffffff; stroke-width: 2; stroke-linecap: square"/>
   </g>
   <g id="line2d_41">
    <path d="M 228.702354 336.031653 
L 228.702354 323.979613 
" clip-path="url(#pe2bc842acd)" style="fill: none; stroke: #ffffff; stroke-width: 2; stroke-linecap: square"/>
   </g>
   <g id="line2d_42">
    <path d="M 222.676334 330.005633 
L 234.728374 330.005633 
" clip-path="url(#pe2bc842acd)" style="fill: none; stroke: #ffffff; stroke-width: 2; stroke-linecap: square"/>
   </g>
   <g id="line2d_43">
    <path d="M 367.764352 336.031653 
L 367.764352 323.979613 
" clip-path="url(#pe2bc842acd)" style="fill: none; stroke: #ffffff; stroke-width: 2; stroke-linecap: square"/>
   </g>
   <g id="line2d_44">
    <path d="M 361.738333 330.005633 
L 373.790372 330.005633 
" clip-path="url(#pe2bc842acd)" style="fill: none; stroke: #ffffff; stroke-width: 2; stroke-linecap: square"/>
   </g>
   <g id="line2d_45">
    <path d="M 506.826351 289.677654 
L 506.826351 277.625614 
" clip-path="url(#pe2bc842acd)" style="fill: none; stroke: #ffffff; stroke-width: 2; stroke-linecap: square"/>
   </g>
   <g id="line2d_46">
    <path d="M 500.800331 283.651634 
L 512.852371 283.651634 
" clip-path="url(#pe2bc842acd)" style="fill: none; stroke: #ffffff; stroke-width: 2; stroke-linecap: square"/>
   </g>
   <g id="line2d_47">
    <path d="M 645.888349 289.677654 
L 645.888349 277.625614 
" clip-path="url(#pe2bc842acd)" style="fill: none; stroke: #ffffff; stroke-width: 2; stroke-linecap: square"/>
   </g>
   <g id="line2d_48">
    <path d="M 639.862329 283.651634 
L 651.914369 283.651634 
" clip-path="url(#pe2bc842acd)" style="fill: none; stroke: #ffffff; stroke-width: 2; stroke-linecap: square"/>
   </g>
   <g id="line2d_49">
    <path d="M 784.950347 336.031653 
L 784.950347 323.979613 
" clip-path="url(#pe2bc842acd)" style="fill: none; stroke: #ffffff; stroke-width: 2; stroke-linecap: square"/>
   </g>
   <g id="line2d_50">
    <path d="M 778.924327 330.005633 
L 790.976367 330.005633 
" clip-path="url(#pe2bc842acd)" style="fill: none; stroke: #ffffff; stroke-width: 2; stroke-linecap: square"/>
   </g>
   <g id="line2d_51">
    <path d="M 924.012345 336.031653 
L 924.012345 323.979613 
" clip-path="url(#pe2bc842acd)" style="fill: none; stroke: #ffffff; stroke-width: 2; stroke-linecap: square"/>
   </g>
   <g id="line2d_52">
    <path d="M 917.986325 330.005633 
L 930.038365 330.005633 
" clip-path="url(#pe2bc842acd)" style="fill: none; stroke: #ffffff; stroke-width: 2; stroke-linecap: square"/>
   </g>
   <g id="line2d_53">
    <path d="M 1063.074343 336.031653 
L 1063.074343 323.979613 
" clip-path="url(#pe2bc842acd)" style="fill: none; stroke: #ffffff; stroke-width: 2; stroke-linecap: square"/>
   </g>
   <g id="line2d_54">
    <path d="M 1057.048323 330.005633 
L 1069.100363 330.005633 
" clip-path="url(#pe2bc842acd)" style="fill: none; stroke: #ffffff; stroke-width: 2; stroke-linecap: square"/>
   </g>
   <g id="line2d_55">
    <path d="M 1202.136341 336.031653 
L 1202.136341 323.979613 
" clip-path="url(#pe2bc842acd)" style="fill: none; stroke: #ffffff; stroke-width: 2; stroke-linecap: square"/>
   </g>
   <g id="line2d_56">
    <path d="M 1196.110321 330.005633 
L 1208.162361 330.005633 
" clip-path="url(#pe2bc842acd)" style="fill: none; stroke: #ffffff; stroke-width: 2; stroke-linecap: square"/>
   </g>
   <g id="text_2">
    <g clip-path="url(#pe2bc842acd)">
     <!-- ${q}_{0}$ -->
     <g transform="translate(37.300897 56.332614) scale(0.1625 -0.1625)">
      <defs>
       <path id="DejaVuSans-Oblique-71" d="M 2669 525 
Q 2438 222 2123 65 
Q 1809 -91 1428 -91 
Q 897 -91 595 267 
Q 294 625 294 1253 
Q 294 1759 480 2231 
Q 666 2703 1013 3078 
Q 1238 3322 1530 3453 
Q 1822 3584 2144 3584 
Q 2531 3584 2781 3431 
Q 3031 3278 3144 2969 
L 3244 3494 
L 3822 3494 
L 2888 -1319 
L 2309 -1319 
L 2669 525 
z
M 891 1338 
Q 891 875 1084 633 
Q 1278 391 1644 391 
Q 2188 391 2572 911 
Q 2956 1431 2956 2175 
Q 2956 2625 2757 2864 
Q 2559 3103 2188 3103 
Q 1916 3103 1684 2976 
Q 1453 2850 1281 2606 
Q 1100 2350 995 2006 
Q 891 1663 891 1338 
z
" transform="scale(0.015625)"/>
       <path id="DejaVuSans-30" d="M 2034 4250 
Q 1547 4250 1301 3770 
Q 1056 3291 1056 2328 
Q 1056 1369 1301 889 
Q 1547 409 2034 409 
Q 2525 409 2770 889 
Q 3016 1369 3016 2328 
Q 3016 3291 2770 3770 
Q 2525 4250 2034 4250 
z
M 2034 4750 
Q 2819 4750 3233 4129 
Q 3647 3509 3647 2328 
Q 3647 1150 3233 529 
Q 2819 -91 2034 -91 
Q 1250 -91 836 529 
Q 422 1150 422 2328 
Q 422 3509 836 4129 
Q 1250 4750 2034 4750 
z
" transform="scale(0.015625)"/>
      </defs>
      <use xlink:href="#DejaVuSans-Oblique-71"/>
      <use xlink:href="#DejaVuSans-30" transform="translate(63.476562 -16.40625) scale(0.7)"/>
     </g>
    </g>
   </g>
   <g id="text_3">
    <g clip-path="url(#pe2bc842acd)">
     <!-- ${q}_{1}$ -->
     <g transform="translate(37.300897 102.686613) scale(0.1625 -0.1625)">
      <use xlink:href="#DejaVuSans-Oblique-71"/>
      <use xlink:href="#DejaVuSans-31" transform="translate(63.476562 -16.40625) scale(0.7)"/>
     </g>
    </g>
   </g>
   <g id="text_4">
    <g clip-path="url(#pe2bc842acd)">
     <!-- ${q}_{2}$ -->
     <g transform="translate(37.300897 149.040612) scale(0.1625 -0.1625)">
      <defs>
       <path id="DejaVuSans-32" d="M 1228 531 
L 3431 531 
L 3431 0 
L 469 0 
L 469 531 
Q 828 903 1448 1529 
Q 2069 2156 2228 2338 
Q 2531 2678 2651 2914 
Q 2772 3150 2772 3378 
Q 2772 3750 2511 3984 
Q 2250 4219 1831 4219 
Q 1534 4219 1204 4116 
Q 875 4013 500 3803 
L 500 4441 
Q 881 4594 1212 4672 
Q 1544 4750 1819 4750 
Q 2544 4750 2975 4387 
Q 3406 4025 3406 3419 
Q 3406 3131 3298 2873 
Q 3191 2616 2906 2266 
Q 2828 2175 2409 1742 
Q 1991 1309 1228 531 
z
" transform="scale(0.015625)"/>
      </defs>
      <use xlink:href="#DejaVuSans-Oblique-71"/>
      <use xlink:href="#DejaVuSans-32" transform="translate(63.476562 -16.40625) scale(0.7)"/>
     </g>
    </g>
   </g>
   <g id="text_5">
    <g clip-path="url(#pe2bc842acd)">
     <!-- ${q}_{0}$ -->
     <g transform="translate(37.300897 241.748611) scale(0.1625 -0.1625)">
      <use xlink:href="#DejaVuSans-Oblique-71"/>
      <use xlink:href="#DejaVuSans-30" transform="translate(63.476562 -16.40625) scale(0.7)"/>
     </g>
    </g>
   </g>
   <g id="text_6">
    <g clip-path="url(#pe2bc842acd)">
     <!-- ${q}_{1}$ -->
     <g transform="translate(37.300897 288.10261) scale(0.1625 -0.1625)">
      <use xlink:href="#DejaVuSans-Oblique-71"/>
      <use xlink:href="#DejaVuSans-31" transform="translate(63.476562 -16.40625) scale(0.7)"/>
     </g>
    </g>
   </g>
   <g id="text_7">
    <g clip-path="url(#pe2bc842acd)">
     <!-- ${q}_{2}$ -->
     <g transform="translate(37.300897 334.45661) scale(0.1625 -0.1625)">
      <use xlink:href="#DejaVuSans-Oblique-71"/>
      <use xlink:href="#DejaVuSans-32" transform="translate(63.476562 -16.40625) scale(0.7)"/>
     </g>
    </g>
   </g>
   <g id="text_8">
    <g clip-path="url(#pe2bc842acd)">
     <!-- $\pi$/2, 1.68, $-$$\pi$ -->
     <g style="fill: #ffffff" transform="translate(86.897356 63.128167) scale(0.08 -0.08)">
      <defs>
       <path id="DejaVuSans-Oblique-3c0" d="M 584 3500 
L 3938 3500 
L 3825 2925 
L 3384 2925 
L 2966 775 
Q 2922 550 2981 450 
Q 3038 353 3209 353 
Q 3256 353 3325 363 
Q 3397 369 3419 372 
L 3338 -44 
Q 3222 -84 3103 -103 
Q 2981 -122 2866 -122 
Q 2491 -122 2388 81 
Q 2284 288 2391 838 
L 2797 2925 
L 1506 2925 
L 938 0 
L 350 0 
L 919 2925 
L 472 2925 
L 584 3500 
z
" transform="scale(0.015625)"/>
       <path id="DejaVuSans-2f" d="M 1625 4666 
L 2156 4666 
L 531 -594 
L 0 -594 
L 1625 4666 
z
" transform="scale(0.015625)"/>
       <path id="DejaVuSans-2c" d="M 750 794 
L 1409 794 
L 1409 256 
L 897 -744 
L 494 -744 
L 750 256 
L 750 794 
z
" transform="scale(0.015625)"/>
       <path id="DejaVuSans-2212" d="M 678 2272 
L 4684 2272 
L 4684 1741 
L 678 1741 
L 678 2272 
z
" transform="scale(0.015625)"/>
      </defs>
      <use xlink:href="#DejaVuSans-Oblique-3c0" transform="translate(0 0.78125)"/>
      <use xlink:href="#DejaVuSans-2f" transform="translate(60.205078 0.78125)"/>
      <use xlink:href="#DejaVuSans-32" transform="translate(90.271484 0.78125)"/>
      <use xlink:href="#DejaVuSans-2c" transform="translate(153.894531 0.78125)"/>
      <use xlink:href="#DejaVuSans-20" transform="translate(185.681641 0.78125)"/>
      <use xlink:href="#DejaVuSans-31" transform="translate(217.46875 0.78125)"/>
      <use xlink:href="#DejaVuSans-2e" transform="translate(281.091797 0.78125)"/>
      <use xlink:href="#DejaVuSans-36" transform="translate(312.878906 0.78125)"/>
      <use xlink:href="#DejaVuSans-38" transform="translate(376.501953 0.78125)"/>
      <use xlink:href="#DejaVuSans-2c" transform="translate(440.125 0.78125)"/>
      <use xlink:href="#DejaVuSans-20" transform="translate(471.912109 0.78125)"/>
      <use xlink:href="#DejaVuSans-2212" transform="translate(503.699219 0.78125)"/>
      <use xlink:href="#DejaVuSans-Oblique-3c0" transform="translate(587.488281 0.78125)"/>
     </g>
    </g>
   </g>
   <g id="text_9">
    <g clip-path="url(#pe2bc842acd)">
     <!-- $\mathrm{U_3}$ -->
     <g style="fill: #ffffff" transform="translate(104.887356 50.94931) scale(0.13 -0.13)">
      <defs>
       <path id="DejaVuSans-55" d="M 556 4666 
L 1191 4666 
L 1191 1831 
Q 1191 1081 1462 751 
Q 1734 422 2344 422 
Q 2950 422 3222 751 
Q 3494 1081 3494 1831 
L 3494 4666 
L 4128 4666 
L 4128 1753 
Q 4128 841 3676 375 
Q 3225 -91 2344 -91 
Q 1459 -91 1007 375 
Q 556 841 556 1753 
L 556 4666 
z
" transform="scale(0.015625)"/>
      </defs>
      <use xlink:href="#DejaVuSans-55" transform="translate(0 0.09375)"/>
      <use xlink:href="#DejaVuSans-33" transform="translate(74.150391 -16.3125) scale(0.7)"/>
     </g>
    </g>
   </g>
   <g id="text_10">
    <g clip-path="url(#pe2bc842acd)">
     <!-- $\mathrm{\left|0\right\rangle}$ -->
     <g transform="translate(104.432356 101.822824) scale(0.13 -0.13)">
      <defs>
       <path id="DejaVuSans-7c" d="M 1344 4891 
L 1344 -1509 
L 813 -1509 
L 813 4891 
L 1344 4891 
z
" transform="scale(0.015625)"/>
       <path id="DejaVuSans-27e9" d="M 1925 2006 
L 1044 -844 
L 513 -844 
L 1394 2006 
L 513 4856 
L 1044 4856 
L 1925 2006 
z
" transform="scale(0.015625)"/>
      </defs>
      <use xlink:href="#DejaVuSans-7c" transform="translate(0 16.625) scale(0.756406)"/>
      <use xlink:href="#DejaVuSans-30" transform="translate(25.479126 0.125)"/>
      <use xlink:href="#DejaVuSans-27e9" transform="translate(89.102173 0.125)"/>
     </g>
    </g>
   </g>
   <g id="text_11">
    <g clip-path="url(#pe2bc842acd)">
     <!-- $\mathrm{\left|0\right\rangle}$ -->
     <g transform="translate(104.432356 148.176823) scale(0.13 -0.13)">
      <use xlink:href="#DejaVuSans-7c" transform="translate(0 16.625) scale(0.756406)"/>
      <use xlink:href="#DejaVuSans-30" transform="translate(25.479126 0.125)"/>
      <use xlink:href="#DejaVuSans-27e9" transform="translate(89.102173 0.125)"/>
     </g>
    </g>
   </g>
   <g id="text_12">
    <g clip-path="url(#pe2bc842acd)">
     <!-- 1.24, $-$2$\pi$, $-$$\pi$/2 -->
     <g style="fill: #ffffff" transform="translate(173.925355 109.482166) scale(0.08 -0.08)">
      <use xlink:href="#DejaVuSans-31" transform="translate(0 0.78125)"/>
      <use xlink:href="#DejaVuSans-2e" transform="translate(63.623047 0.78125)"/>
      <use xlink:href="#DejaVuSans-32" transform="translate(89.910156 0.78125)"/>
      <use xlink:href="#DejaVuSans-34" transform="translate(153.533203 0.78125)"/>
      <use xlink:href="#DejaVuSans-2c" transform="translate(217.15625 0.78125)"/>
      <use xlink:href="#DejaVuSans-20" transform="translate(248.943359 0.78125)"/>
      <use xlink:href="#DejaVuSans-2212" transform="translate(280.730469 0.78125)"/>
      <use xlink:href="#DejaVuSans-32" transform="translate(364.519531 0.78125)"/>
      <use xlink:href="#DejaVuSans-Oblique-3c0" transform="translate(428.142578 0.78125)"/>
      <use xlink:href="#DejaVuSans-2c" transform="translate(488.347656 0.78125)"/>
      <use xlink:href="#DejaVuSans-20" transform="translate(520.134766 0.78125)"/>
      <use xlink:href="#DejaVuSans-2212" transform="translate(551.921875 0.78125)"/>
      <use xlink:href="#DejaVuSans-Oblique-3c0" transform="translate(635.710938 0.78125)"/>
      <use xlink:href="#DejaVuSans-2f" transform="translate(695.916016 0.78125)"/>
      <use xlink:href="#DejaVuSans-32" transform="translate(725.982422 0.78125)"/>
     </g>
    </g>
   </g>
   <g id="text_13">
    <g clip-path="url(#pe2bc842acd)">
     <!-- $\mathrm{U_3}$ -->
     <g style="fill: #ffffff" transform="translate(197.595355 97.303309) scale(0.13 -0.13)">
      <use xlink:href="#DejaVuSans-55" transform="translate(0 0.09375)"/>
      <use xlink:href="#DejaVuSans-33" transform="translate(74.150391 -16.3125) scale(0.7)"/>
     </g>
    </g>
   </g>
   <g id="text_14">
    <g clip-path="url(#pe2bc842acd)">
     <!-- 1.26, 0, 0 -->
     <g style="fill: #ffffff" transform="translate(186.444105 155.836166) scale(0.08 -0.08)">
      <use xlink:href="#DejaVuSans-31"/>
      <use xlink:href="#DejaVuSans-2e" x="63.623047"/>
      <use xlink:href="#DejaVuSans-32" x="95.410156"/>
      <use xlink:href="#DejaVuSans-36" x="159.033203"/>
      <use xlink:href="#DejaVuSans-2c" x="222.65625"/>
      <use xlink:href="#DejaVuSans-20" x="254.443359"/>
      <use xlink:href="#DejaVuSans-30" x="286.230469"/>
      <use xlink:href="#DejaVuSans-2c" x="349.853516"/>
      <use xlink:href="#DejaVuSans-20" x="381.640625"/>
      <use xlink:href="#DejaVuSans-30" x="413.427734"/>
     </g>
    </g>
   </g>
   <g id="text_15">
    <g clip-path="url(#pe2bc842acd)">
     <!-- $\mathrm{U_3}$ -->
     <g style="fill: #ffffff" transform="translate(197.595355 143.657308) scale(0.13 -0.13)">
      <use xlink:href="#DejaVuSans-55" transform="translate(0 0.09375)"/>
      <use xlink:href="#DejaVuSans-33" transform="translate(74.150391 -16.3125) scale(0.7)"/>
     </g>
    </g>
   </g>
   <g id="text_16">
    <g clip-path="url(#pe2bc842acd)">
     <!-- 0, 0, 0.123 -->
     <g style="fill: #ffffff" transform="translate(322.961103 155.836166) scale(0.08 -0.08)">
      <use xlink:href="#DejaVuSans-30"/>
      <use xlink:href="#DejaVuSans-2c" x="63.623047"/>
      <use xlink:href="#DejaVuSans-20" x="95.410156"/>
      <use xlink:href="#DejaVuSans-30" x="127.197266"/>
      <use xlink:href="#DejaVuSans-2c" x="190.820312"/>
      <use xlink:href="#DejaVuSans-20" x="222.607422"/>
      <use xlink:href="#DejaVuSans-30" x="254.394531"/>
      <use xlink:href="#DejaVuSans-2e" x="318.017578"/>
      <use xlink:href="#DejaVuSans-31" x="349.804688"/>
      <use xlink:href="#DejaVuSans-32" x="413.427734"/>
      <use xlink:href="#DejaVuSans-33" x="477.050781"/>
     </g>
    </g>
   </g>
   <g id="text_17">
    <g clip-path="url(#pe2bc842acd)">
     <!-- $\mathrm{U_3}$ -->
     <g style="fill: #ffffff" transform="translate(336.657353 143.657308) scale(0.13 -0.13)">
      <use xlink:href="#DejaVuSans-55" transform="translate(0 0.09375)"/>
      <use xlink:href="#DejaVuSans-33" transform="translate(74.150391 -16.3125) scale(0.7)"/>
     </g>
    </g>
   </g>
   <g id="text_18">
    <g clip-path="url(#pe2bc842acd)">
     <!-- 0.396, $-$1.04, 2.03 -->
     <g style="fill: #ffffff" transform="translate(306.867353 109.482166) scale(0.08 -0.08)">
      <use xlink:href="#DejaVuSans-30" transform="translate(0 0.78125)"/>
      <use xlink:href="#DejaVuSans-2e" transform="translate(63.623047 0.78125)"/>
      <use xlink:href="#DejaVuSans-33" transform="translate(95.410156 0.78125)"/>
      <use xlink:href="#DejaVuSans-39" transform="translate(159.033203 0.78125)"/>
      <use xlink:href="#DejaVuSans-36" transform="translate(222.65625 0.78125)"/>
      <use xlink:href="#DejaVuSans-2c" transform="translate(286.279297 0.78125)"/>
      <use xlink:href="#DejaVuSans-20" transform="translate(318.066406 0.78125)"/>
      <use xlink:href="#DejaVuSans-2212" transform="translate(349.853516 0.78125)"/>
      <use xlink:href="#DejaVuSans-31" transform="translate(433.642578 0.78125)"/>
      <use xlink:href="#DejaVuSans-2e" transform="translate(497.265625 0.78125)"/>
      <use xlink:href="#DejaVuSans-30" transform="translate(529.052734 0.78125)"/>
      <use xlink:href="#DejaVuSans-34" transform="translate(592.675781 0.78125)"/>
      <use xlink:href="#DejaVuSans-2c" transform="translate(656.298828 0.78125)"/>
      <use xlink:href="#DejaVuSans-20" transform="translate(688.085938 0.78125)"/>
      <use xlink:href="#DejaVuSans-32" transform="translate(719.873047 0.78125)"/>
      <use xlink:href="#DejaVuSans-2e" transform="translate(783.496094 0.78125)"/>
      <use xlink:href="#DejaVuSans-30" transform="translate(815.283203 0.78125)"/>
      <use xlink:href="#DejaVuSans-33" transform="translate(878.90625 0.78125)"/>
     </g>
    </g>
   </g>
   <g id="text_19">
    <g clip-path="url(#pe2bc842acd)">
     <!-- $\mathrm{U_3}$ -->
     <g style="fill: #ffffff" transform="translate(336.657353 97.303309) scale(0.13 -0.13)">
      <use xlink:href="#DejaVuSans-55" transform="translate(0 0.09375)"/>
      <use xlink:href="#DejaVuSans-33" transform="translate(74.150391 -16.3125) scale(0.7)"/>
     </g>
    </g>
   </g>
   <g id="text_20">
    <g clip-path="url(#pe2bc842acd)">
     <!-- $\pi$/2, 0, $\pi$/2 -->
     <g style="fill: #ffffff" transform="translate(463.689351 63.128167) scale(0.08 -0.08)">
      <use xlink:href="#DejaVuSans-Oblique-3c0" transform="translate(0 0.78125)"/>
      <use xlink:href="#DejaVuSans-2f" transform="translate(60.205078 0.78125)"/>
      <use xlink:href="#DejaVuSans-32" transform="translate(90.271484 0.78125)"/>
      <use xlink:href="#DejaVuSans-2c" transform="translate(153.894531 0.78125)"/>
      <use xlink:href="#DejaVuSans-20" transform="translate(185.681641 0.78125)"/>
      <use xlink:href="#DejaVuSans-30" transform="translate(217.46875 0.78125)"/>
      <use xlink:href="#DejaVuSans-2c" transform="translate(281.091797 0.78125)"/>
      <use xlink:href="#DejaVuSans-20" transform="translate(312.878906 0.78125)"/>
      <use xlink:href="#DejaVuSans-Oblique-3c0" transform="translate(344.666016 0.78125)"/>
      <use xlink:href="#DejaVuSans-2f" transform="translate(404.871094 0.78125)"/>
      <use xlink:href="#DejaVuSans-32" transform="translate(434.9375 0.78125)"/>
     </g>
    </g>
   </g>
   <g id="text_21">
    <g clip-path="url(#pe2bc842acd)">
     <!-- $\mathrm{U_3}$ -->
     <g style="fill: #ffffff" transform="translate(475.719351 50.94931) scale(0.13 -0.13)">
      <use xlink:href="#DejaVuSans-55" transform="translate(0 0.09375)"/>
      <use xlink:href="#DejaVuSans-33" transform="translate(74.150391 -16.3125) scale(0.7)"/>
     </g>
    </g>
   </g>
   <g id="text_22">
    <g clip-path="url(#pe2bc842acd)">
     <!-- 2.06, 2.75, $-$2.29 -->
     <g style="fill: #ffffff" transform="translate(449.089351 109.482166) scale(0.08 -0.08)">
      <use xlink:href="#DejaVuSans-32" transform="translate(0 0.78125)"/>
      <use xlink:href="#DejaVuSans-2e" transform="translate(63.623047 0.78125)"/>
      <use xlink:href="#DejaVuSans-30" transform="translate(95.410156 0.78125)"/>
      <use xlink:href="#DejaVuSans-36" transform="translate(159.033203 0.78125)"/>
      <use xlink:href="#DejaVuSans-2c" transform="translate(222.65625 0.78125)"/>
      <use xlink:href="#DejaVuSans-20" transform="translate(254.443359 0.78125)"/>
      <use xlink:href="#DejaVuSans-32" transform="translate(286.230469 0.78125)"/>
      <use xlink:href="#DejaVuSans-2e" transform="translate(349.853516 0.78125)"/>
      <use xlink:href="#DejaVuSans-37" transform="translate(373.890625 0.78125)"/>
      <use xlink:href="#DejaVuSans-35" transform="translate(437.513672 0.78125)"/>
      <use xlink:href="#DejaVuSans-2c" transform="translate(501.136719 0.78125)"/>
      <use xlink:href="#DejaVuSans-20" transform="translate(532.923828 0.78125)"/>
      <use xlink:href="#DejaVuSans-2212" transform="translate(564.710938 0.78125)"/>
      <use xlink:href="#DejaVuSans-32" transform="translate(648.5 0.78125)"/>
      <use xlink:href="#DejaVuSans-2e" transform="translate(712.123047 0.78125)"/>
      <use xlink:href="#DejaVuSans-32" transform="translate(738.410156 0.78125)"/>
      <use xlink:href="#DejaVuSans-39" transform="translate(800.283203 0.78125)"/>
     </g>
    </g>
   </g>
   <g id="text_23">
    <g clip-path="url(#pe2bc842acd)">
     <!-- $\mathrm{U_3}$ -->
     <g style="fill: #ffffff" transform="translate(475.719351 97.303309) scale(0.13 -0.13)">
      <use xlink:href="#DejaVuSans-55" transform="translate(0 0.09375)"/>
      <use xlink:href="#DejaVuSans-33" transform="translate(74.150391 -16.3125) scale(0.7)"/>
     </g>
    </g>
   </g>
   <g id="text_24">
    <g clip-path="url(#pe2bc842acd)">
     <!-- $\pi$/2, $-$1.09, 0 -->
     <g style="fill: #ffffff" transform="translate(596.631349 63.128167) scale(0.08 -0.08)">
      <use xlink:href="#DejaVuSans-Oblique-3c0" transform="translate(0 0.78125)"/>
      <use xlink:href="#DejaVuSans-2f" transform="translate(60.205078 0.78125)"/>
      <use xlink:href="#DejaVuSans-32" transform="translate(90.271484 0.78125)"/>
      <use xlink:href="#DejaVuSans-2c" transform="translate(153.894531 0.78125)"/>
      <use xlink:href="#DejaVuSans-20" transform="translate(185.681641 0.78125)"/>
      <use xlink:href="#DejaVuSans-2212" transform="translate(217.46875 0.78125)"/>
      <use xlink:href="#DejaVuSans-31" transform="translate(301.257812 0.78125)"/>
      <use xlink:href="#DejaVuSans-2e" transform="translate(364.880859 0.78125)"/>
      <use xlink:href="#DejaVuSans-30" transform="translate(396.667969 0.78125)"/>
      <use xlink:href="#DejaVuSans-39" transform="translate(460.291016 0.78125)"/>
      <use xlink:href="#DejaVuSans-2c" transform="translate(523.914062 0.78125)"/>
      <use xlink:href="#DejaVuSans-20" transform="translate(555.701172 0.78125)"/>
      <use xlink:href="#DejaVuSans-30" transform="translate(587.488281 0.78125)"/>
     </g>
    </g>
   </g>
   <g id="text_25">
    <g clip-path="url(#pe2bc842acd)">
     <!-- $\mathrm{U_3}$ -->
     <g style="fill: #ffffff" transform="translate(614.781349 50.94931) scale(0.13 -0.13)">
      <use xlink:href="#DejaVuSans-55" transform="translate(0 0.09375)"/>
      <use xlink:href="#DejaVuSans-33" transform="translate(74.150391 -16.3125) scale(0.7)"/>
     </g>
    </g>
   </g>
   <g id="text_26">
    <g clip-path="url(#pe2bc842acd)">
     <!-- $\pi$/2, $-$2.36, $-$$\pi$ -->
     <g style="fill: #ffffff" transform="translate(593.431349 109.482166) scale(0.08 -0.08)">
      <use xlink:href="#DejaVuSans-Oblique-3c0" transform="translate(0 0.78125)"/>
      <use xlink:href="#DejaVuSans-2f" transform="translate(60.205078 0.78125)"/>
      <use xlink:href="#DejaVuSans-32" transform="translate(90.271484 0.78125)"/>
      <use xlink:href="#DejaVuSans-2c" transform="translate(153.894531 0.78125)"/>
      <use xlink:href="#DejaVuSans-20" transform="translate(185.681641 0.78125)"/>
      <use xlink:href="#DejaVuSans-2212" transform="translate(217.46875 0.78125)"/>
      <use xlink:href="#DejaVuSans-32" transform="translate(301.257812 0.78125)"/>
      <use xlink:href="#DejaVuSans-2e" transform="translate(364.880859 0.78125)"/>
      <use xlink:href="#DejaVuSans-33" transform="translate(396.667969 0.78125)"/>
      <use xlink:href="#DejaVuSans-36" transform="translate(460.291016 0.78125)"/>
      <use xlink:href="#DejaVuSans-2c" transform="translate(523.914062 0.78125)"/>
      <use xlink:href="#DejaVuSans-20" transform="translate(555.701172 0.78125)"/>
      <use xlink:href="#DejaVuSans-2212" transform="translate(587.488281 0.78125)"/>
      <use xlink:href="#DejaVuSans-Oblique-3c0" transform="translate(671.277344 0.78125)"/>
     </g>
    </g>
   </g>
   <g id="text_27">
    <g clip-path="url(#pe2bc842acd)">
     <!-- $\mathrm{U_3}$ -->
     <g style="fill: #ffffff" transform="translate(614.781349 97.303309) scale(0.13 -0.13)">
      <use xlink:href="#DejaVuSans-55" transform="translate(0 0.09375)"/>
      <use xlink:href="#DejaVuSans-33" transform="translate(74.150391 -16.3125) scale(0.7)"/>
     </g>
    </g>
   </g>
   <g id="text_28">
    <g clip-path="url(#pe2bc842acd)">
     <!-- 0, 0, 0.158 -->
     <g style="fill: #ffffff" transform="translate(740.147097 155.836166) scale(0.08 -0.08)">
      <use xlink:href="#DejaVuSans-30"/>
      <use xlink:href="#DejaVuSans-2c" x="63.623047"/>
      <use xlink:href="#DejaVuSans-20" x="95.410156"/>
      <use xlink:href="#DejaVuSans-30" x="127.197266"/>
      <use xlink:href="#DejaVuSans-2c" x="190.820312"/>
      <use xlink:href="#DejaVuSans-20" x="222.607422"/>
      <use xlink:href="#DejaVuSans-30" x="254.394531"/>
      <use xlink:href="#DejaVuSans-2e" x="318.017578"/>
      <use xlink:href="#DejaVuSans-31" x="349.804688"/>
      <use xlink:href="#DejaVuSans-35" x="413.427734"/>
      <use xlink:href="#DejaVuSans-38" x="477.050781"/>
     </g>
    </g>
   </g>
   <g id="text_29">
    <g clip-path="url(#pe2bc842acd)">
     <!-- $\mathrm{U_3}$ -->
     <g style="fill: #ffffff" transform="translate(753.843347 143.657308) scale(0.13 -0.13)">
      <use xlink:href="#DejaVuSans-55" transform="translate(0 0.09375)"/>
      <use xlink:href="#DejaVuSans-33" transform="translate(74.150391 -16.3125) scale(0.7)"/>
     </g>
    </g>
   </g>
   <g id="text_30">
    <g clip-path="url(#pe2bc842acd)">
     <!-- 0, 0, 0.114 -->
     <g style="fill: #ffffff" transform="translate(879.209095 155.836166) scale(0.08 -0.08)">
      <use xlink:href="#DejaVuSans-30"/>
      <use xlink:href="#DejaVuSans-2c" x="63.623047"/>
      <use xlink:href="#DejaVuSans-20" x="95.410156"/>
      <use xlink:href="#DejaVuSans-30" x="127.197266"/>
      <use xlink:href="#DejaVuSans-2c" x="190.820312"/>
      <use xlink:href="#DejaVuSans-20" x="222.607422"/>
      <use xlink:href="#DejaVuSans-30" x="254.394531"/>
      <use xlink:href="#DejaVuSans-2e" x="318.017578"/>
      <use xlink:href="#DejaVuSans-31" x="349.804688"/>
      <use xlink:href="#DejaVuSans-31" x="413.427734"/>
      <use xlink:href="#DejaVuSans-34" x="477.050781"/>
     </g>
    </g>
   </g>
   <g id="text_31">
    <g clip-path="url(#pe2bc842acd)">
     <!-- $\mathrm{U_3}$ -->
     <g style="fill: #ffffff" transform="translate(892.905345 143.657308) scale(0.13 -0.13)">
      <use xlink:href="#DejaVuSans-55" transform="translate(0 0.09375)"/>
      <use xlink:href="#DejaVuSans-33" transform="translate(74.150391 -16.3125) scale(0.7)"/>
     </g>
    </g>
   </g>
   <g id="text_32">
    <g clip-path="url(#pe2bc842acd)">
     <!-- 0, 0, $-$2.97 -->
     <g style="fill: #ffffff" transform="translate(1017.457344 155.836166) scale(0.08 -0.08)">
      <use xlink:href="#DejaVuSans-30" transform="translate(0 0.78125)"/>
      <use xlink:href="#DejaVuSans-2c" transform="translate(63.623047 0.78125)"/>
      <use xlink:href="#DejaVuSans-20" transform="translate(95.410156 0.78125)"/>
      <use xlink:href="#DejaVuSans-30" transform="translate(127.197266 0.78125)"/>
      <use xlink:href="#DejaVuSans-2c" transform="translate(190.820312 0.78125)"/>
      <use xlink:href="#DejaVuSans-20" transform="translate(222.607422 0.78125)"/>
      <use xlink:href="#DejaVuSans-2212" transform="translate(254.394531 0.78125)"/>
      <use xlink:href="#DejaVuSans-32" transform="translate(338.183594 0.78125)"/>
      <use xlink:href="#DejaVuSans-2e" transform="translate(401.806641 0.78125)"/>
      <use xlink:href="#DejaVuSans-39" transform="translate(433.59375 0.78125)"/>
      <use xlink:href="#DejaVuSans-37" transform="translate(497.216797 0.78125)"/>
     </g>
    </g>
   </g>
   <g id="text_33">
    <g clip-path="url(#pe2bc842acd)">
     <!-- $\mathrm{U_3}$ -->
     <g style="fill: #ffffff" transform="translate(1031.967344 143.657308) scale(0.13 -0.13)">
      <use xlink:href="#DejaVuSans-55" transform="translate(0 0.09375)"/>
      <use xlink:href="#DejaVuSans-33" transform="translate(74.150391 -16.3125) scale(0.7)"/>
     </g>
    </g>
   </g>
   <g id="text_34">
    <g clip-path="url(#pe2bc842acd)">
     <!-- 0.228, 0, $-$$\pi$ -->
     <g style="fill: #ffffff" transform="translate(1154.319342 155.836166) scale(0.08 -0.08)">
      <use xlink:href="#DejaVuSans-30" transform="translate(0 0.78125)"/>
      <use xlink:href="#DejaVuSans-2e" transform="translate(63.623047 0.78125)"/>
      <use xlink:href="#DejaVuSans-32" transform="translate(89.910156 0.78125)"/>
      <use xlink:href="#DejaVuSans-32" transform="translate(153.533203 0.78125)"/>
      <use xlink:href="#DejaVuSans-38" transform="translate(217.15625 0.78125)"/>
      <use xlink:href="#DejaVuSans-2c" transform="translate(280.779297 0.78125)"/>
      <use xlink:href="#DejaVuSans-20" transform="translate(312.566406 0.78125)"/>
      <use xlink:href="#DejaVuSans-30" transform="translate(344.353516 0.78125)"/>
      <use xlink:href="#DejaVuSans-2c" transform="translate(407.976562 0.78125)"/>
      <use xlink:href="#DejaVuSans-20" transform="translate(439.763672 0.78125)"/>
      <use xlink:href="#DejaVuSans-2212" transform="translate(471.550781 0.78125)"/>
      <use xlink:href="#DejaVuSans-Oblique-3c0" transform="translate(555.339844 0.78125)"/>
     </g>
    </g>
   </g>
   <g id="text_35">
    <g clip-path="url(#pe2bc842acd)">
     <!-- $\mathrm{U_3}$ -->
     <g style="fill: #ffffff" transform="translate(1171.029342 143.657308) scale(0.13 -0.13)">
      <use xlink:href="#DejaVuSans-55" transform="translate(0 0.09375)"/>
      <use xlink:href="#DejaVuSans-33" transform="translate(74.150391 -16.3125) scale(0.7)"/>
     </g>
    </g>
   </g>
   <g id="text_36">
    <g clip-path="url(#pe2bc842acd)">
     <!-- 0.258, 0, 0 -->
     <g style="fill: #ffffff" transform="translate(137.545105 341.252163) scale(0.08 -0.08)">
      <use xlink:href="#DejaVuSans-30"/>
      <use xlink:href="#DejaVuSans-2e" x="63.623047"/>
      <use xlink:href="#DejaVuSans-32" x="95.410156"/>
      <use xlink:href="#DejaVuSans-35" x="159.033203"/>
      <use xlink:href="#DejaVuSans-38" x="222.65625"/>
      <use xlink:href="#DejaVuSans-2c" x="286.279297"/>
      <use xlink:href="#DejaVuSans-20" x="318.066406"/>
      <use xlink:href="#DejaVuSans-30" x="349.853516"/>
      <use xlink:href="#DejaVuSans-2c" x="413.476562"/>
      <use xlink:href="#DejaVuSans-20" x="445.263672"/>
      <use xlink:href="#DejaVuSans-30" x="477.050781"/>
     </g>
    </g>
   </g>
   <g id="text_37">
    <g clip-path="url(#pe2bc842acd)">
     <!-- $\mathrm{U_3}$ -->
     <g style="fill: #ffffff" transform="translate(151.241355 329.073306) scale(0.13 -0.13)">
      <use xlink:href="#DejaVuSans-55" transform="translate(0 0.09375)"/>
      <use xlink:href="#DejaVuSans-33" transform="translate(74.150391 -16.3125) scale(0.7)"/>
     </g>
    </g>
   </g>
   <g id="text_38">
    <g clip-path="url(#pe2bc842acd)">
     <!-- 0.954, $\pi$/2, 1.74 -->
     <g style="fill: #ffffff" transform="translate(266.913353 294.898164) scale(0.08 -0.08)">
      <use xlink:href="#DejaVuSans-30" transform="translate(0 0.78125)"/>
      <use xlink:href="#DejaVuSans-2e" transform="translate(63.623047 0.78125)"/>
      <use xlink:href="#DejaVuSans-39" transform="translate(95.410156 0.78125)"/>
      <use xlink:href="#DejaVuSans-35" transform="translate(159.033203 0.78125)"/>
      <use xlink:href="#DejaVuSans-34" transform="translate(222.65625 0.78125)"/>
      <use xlink:href="#DejaVuSans-2c" transform="translate(286.279297 0.78125)"/>
      <use xlink:href="#DejaVuSans-20" transform="translate(318.066406 0.78125)"/>
      <use xlink:href="#DejaVuSans-Oblique-3c0" transform="translate(349.853516 0.78125)"/>
      <use xlink:href="#DejaVuSans-2f" transform="translate(410.058594 0.78125)"/>
      <use xlink:href="#DejaVuSans-32" transform="translate(440.125 0.78125)"/>
      <use xlink:href="#DejaVuSans-2c" transform="translate(503.748047 0.78125)"/>
      <use xlink:href="#DejaVuSans-20" transform="translate(535.535156 0.78125)"/>
      <use xlink:href="#DejaVuSans-31" transform="translate(567.322266 0.78125)"/>
      <use xlink:href="#DejaVuSans-2e" transform="translate(630.945312 0.78125)"/>
      <use xlink:href="#DejaVuSans-37" transform="translate(654.982422 0.78125)"/>
      <use xlink:href="#DejaVuSans-34" transform="translate(718.605469 0.78125)"/>
     </g>
    </g>
   </g>
   <g id="text_39">
    <g clip-path="url(#pe2bc842acd)">
     <!-- $\mathrm{U_3}$ -->
     <g style="fill: #ffffff" transform="translate(290.303353 282.719306) scale(0.13 -0.13)">
      <use xlink:href="#DejaVuSans-55" transform="translate(0 0.09375)"/>
      <use xlink:href="#DejaVuSans-33" transform="translate(74.150391 -16.3125) scale(0.7)"/>
     </g>
    </g>
   </g>
   <g id="text_40">
    <g clip-path="url(#pe2bc842acd)">
     <!-- 0.219, 0, 0 -->
     <g style="fill: #ffffff" transform="translate(276.607103 341.252163) scale(0.08 -0.08)">
      <use xlink:href="#DejaVuSans-30"/>
      <use xlink:href="#DejaVuSans-2e" x="63.623047"/>
      <use xlink:href="#DejaVuSans-32" x="95.410156"/>
      <use xlink:href="#DejaVuSans-31" x="159.033203"/>
      <use xlink:href="#DejaVuSans-39" x="222.65625"/>
      <use xlink:href="#DejaVuSans-2c" x="286.279297"/>
      <use xlink:href="#DejaVuSans-20" x="318.066406"/>
      <use xlink:href="#DejaVuSans-30" x="349.853516"/>
      <use xlink:href="#DejaVuSans-2c" x="413.476562"/>
      <use xlink:href="#DejaVuSans-20" x="445.263672"/>
      <use xlink:href="#DejaVuSans-30" x="477.050781"/>
     </g>
    </g>
   </g>
   <g id="text_41">
    <g clip-path="url(#pe2bc842acd)">
     <!-- $\mathrm{U_3}$ -->
     <g style="fill: #ffffff" transform="translate(290.303353 329.073306) scale(0.13 -0.13)">
      <use xlink:href="#DejaVuSans-55" transform="translate(0 0.09375)"/>
      <use xlink:href="#DejaVuSans-33" transform="translate(74.150391 -16.3125) scale(0.7)"/>
     </g>
    </g>
   </g>
   <g id="text_42">
    <g clip-path="url(#pe2bc842acd)">
     <!-- $\pi$/2, $\pi$/2, 1.01 -->
     <g style="fill: #ffffff" transform="translate(410.975352 248.544164) scale(0.08 -0.08)">
      <use xlink:href="#DejaVuSans-Oblique-3c0" transform="translate(0 0.78125)"/>
      <use xlink:href="#DejaVuSans-2f" transform="translate(60.205078 0.78125)"/>
      <use xlink:href="#DejaVuSans-32" transform="translate(90.271484 0.78125)"/>
      <use xlink:href="#DejaVuSans-2c" transform="translate(153.894531 0.78125)"/>
      <use xlink:href="#DejaVuSans-20" transform="translate(185.681641 0.78125)"/>
      <use xlink:href="#DejaVuSans-Oblique-3c0" transform="translate(217.46875 0.78125)"/>
      <use xlink:href="#DejaVuSans-2f" transform="translate(277.673828 0.78125)"/>
      <use xlink:href="#DejaVuSans-32" transform="translate(307.740234 0.78125)"/>
      <use xlink:href="#DejaVuSans-2c" transform="translate(371.363281 0.78125)"/>
      <use xlink:href="#DejaVuSans-20" transform="translate(403.150391 0.78125)"/>
      <use xlink:href="#DejaVuSans-31" transform="translate(434.9375 0.78125)"/>
      <use xlink:href="#DejaVuSans-2e" transform="translate(498.560547 0.78125)"/>
      <use xlink:href="#DejaVuSans-30" transform="translate(530.347656 0.78125)"/>
      <use xlink:href="#DejaVuSans-31" transform="translate(593.970703 0.78125)"/>
     </g>
    </g>
   </g>
   <g id="text_43">
    <g clip-path="url(#pe2bc842acd)">
     <!-- $\mathrm{U_3}$ -->
     <g style="fill: #ffffff" transform="translate(429.365352 236.365307) scale(0.13 -0.13)">
      <use xlink:href="#DejaVuSans-55" transform="translate(0 0.09375)"/>
      <use xlink:href="#DejaVuSans-33" transform="translate(74.150391 -16.3125) scale(0.7)"/>
     </g>
    </g>
   </g>
   <g id="text_44">
    <g clip-path="url(#pe2bc842acd)">
     <!-- 1.3, 0.123, $-$$\pi$ -->
     <g style="fill: #ffffff" transform="translate(408.615352 341.252163) scale(0.08 -0.08)">
      <use xlink:href="#DejaVuSans-31" transform="translate(0 0.78125)"/>
      <use xlink:href="#DejaVuSans-2e" transform="translate(63.623047 0.78125)"/>
      <use xlink:href="#DejaVuSans-33" transform="translate(95.410156 0.78125)"/>
      <use xlink:href="#DejaVuSans-2c" transform="translate(159.033203 0.78125)"/>
      <use xlink:href="#DejaVuSans-20" transform="translate(190.820312 0.78125)"/>
      <use xlink:href="#DejaVuSans-30" transform="translate(222.607422 0.78125)"/>
      <use xlink:href="#DejaVuSans-2e" transform="translate(286.230469 0.78125)"/>
      <use xlink:href="#DejaVuSans-31" transform="translate(318.017578 0.78125)"/>
      <use xlink:href="#DejaVuSans-32" transform="translate(381.640625 0.78125)"/>
      <use xlink:href="#DejaVuSans-33" transform="translate(445.263672 0.78125)"/>
      <use xlink:href="#DejaVuSans-2c" transform="translate(508.886719 0.78125)"/>
      <use xlink:href="#DejaVuSans-20" transform="translate(540.673828 0.78125)"/>
      <use xlink:href="#DejaVuSans-2212" transform="translate(572.460938 0.78125)"/>
      <use xlink:href="#DejaVuSans-Oblique-3c0" transform="translate(656.25 0.78125)"/>
     </g>
    </g>
   </g>
   <g id="text_45">
    <g clip-path="url(#pe2bc842acd)">
     <!-- $\mathrm{U_3}$ -->
     <g style="fill: #ffffff" transform="translate(429.365352 329.073306) scale(0.13 -0.13)">
      <use xlink:href="#DejaVuSans-55" transform="translate(0 0.09375)"/>
      <use xlink:href="#DejaVuSans-33" transform="translate(74.150391 -16.3125) scale(0.7)"/>
     </g>
    </g>
   </g>
   <g id="text_46">
    <g clip-path="url(#pe2bc842acd)">
     <!-- $\pi$/2, 0, $\pi$/2 -->
     <g style="fill: #ffffff" transform="translate(556.39735 248.544164) scale(0.08 -0.08)">
      <use xlink:href="#DejaVuSans-Oblique-3c0" transform="translate(0 0.78125)"/>
      <use xlink:href="#DejaVuSans-2f" transform="translate(60.205078 0.78125)"/>
      <use xlink:href="#DejaVuSans-32" transform="translate(90.271484 0.78125)"/>
      <use xlink:href="#DejaVuSans-2c" transform="translate(153.894531 0.78125)"/>
      <use xlink:href="#DejaVuSans-20" transform="translate(185.681641 0.78125)"/>
      <use xlink:href="#DejaVuSans-30" transform="translate(217.46875 0.78125)"/>
      <use xlink:href="#DejaVuSans-2c" transform="translate(281.091797 0.78125)"/>
      <use xlink:href="#DejaVuSans-20" transform="translate(312.878906 0.78125)"/>
      <use xlink:href="#DejaVuSans-Oblique-3c0" transform="translate(344.666016 0.78125)"/>
      <use xlink:href="#DejaVuSans-2f" transform="translate(404.871094 0.78125)"/>
      <use xlink:href="#DejaVuSans-32" transform="translate(434.9375 0.78125)"/>
     </g>
    </g>
   </g>
   <g id="text_47">
    <g clip-path="url(#pe2bc842acd)">
     <!-- $\mathrm{U_3}$ -->
     <g style="fill: #ffffff" transform="translate(568.42735 236.365307) scale(0.13 -0.13)">
      <use xlink:href="#DejaVuSans-55" transform="translate(0 0.09375)"/>
      <use xlink:href="#DejaVuSans-33" transform="translate(74.150391 -16.3125) scale(0.7)"/>
     </g>
    </g>
   </g>
   <g id="text_48">
    <g clip-path="url(#pe2bc842acd)">
     <!-- 2.06, 2.75, $-$2.29 -->
     <g style="fill: #ffffff" transform="translate(541.79735 294.898164) scale(0.08 -0.08)">
      <use xlink:href="#DejaVuSans-32" transform="translate(0 0.78125)"/>
      <use xlink:href="#DejaVuSans-2e" transform="translate(63.623047 0.78125)"/>
      <use xlink:href="#DejaVuSans-30" transform="translate(95.410156 0.78125)"/>
      <use xlink:href="#DejaVuSans-36" transform="translate(159.033203 0.78125)"/>
      <use xlink:href="#DejaVuSans-2c" transform="translate(222.65625 0.78125)"/>
      <use xlink:href="#DejaVuSans-20" transform="translate(254.443359 0.78125)"/>
      <use xlink:href="#DejaVuSans-32" transform="translate(286.230469 0.78125)"/>
      <use xlink:href="#DejaVuSans-2e" transform="translate(349.853516 0.78125)"/>
      <use xlink:href="#DejaVuSans-37" transform="translate(373.890625 0.78125)"/>
      <use xlink:href="#DejaVuSans-35" transform="translate(437.513672 0.78125)"/>
      <use xlink:href="#DejaVuSans-2c" transform="translate(501.136719 0.78125)"/>
      <use xlink:href="#DejaVuSans-20" transform="translate(532.923828 0.78125)"/>
      <use xlink:href="#DejaVuSans-2212" transform="translate(564.710938 0.78125)"/>
      <use xlink:href="#DejaVuSans-32" transform="translate(648.5 0.78125)"/>
      <use xlink:href="#DejaVuSans-2e" transform="translate(712.123047 0.78125)"/>
      <use xlink:href="#DejaVuSans-32" transform="translate(738.410156 0.78125)"/>
      <use xlink:href="#DejaVuSans-39" transform="translate(800.283203 0.78125)"/>
     </g>
    </g>
   </g>
   <g id="text_49">
    <g clip-path="url(#pe2bc842acd)">
     <!-- $\mathrm{U_3}$ -->
     <g style="fill: #ffffff" transform="translate(568.42735 282.719306) scale(0.13 -0.13)">
      <use xlink:href="#DejaVuSans-55" transform="translate(0 0.09375)"/>
      <use xlink:href="#DejaVuSans-33" transform="translate(74.150391 -16.3125) scale(0.7)"/>
     </g>
    </g>
   </g>
   <g id="text_50">
    <g clip-path="url(#pe2bc842acd)">
     <!-- $\pi$/2, $-$1.68, $-$$\pi$/2 -->
     <g style="fill: #ffffff" transform="translate(682.379348 248.544164) scale(0.08 -0.08)">
      <use xlink:href="#DejaVuSans-Oblique-3c0" transform="translate(0 0.78125)"/>
      <use xlink:href="#DejaVuSans-2f" transform="translate(60.205078 0.78125)"/>
      <use xlink:href="#DejaVuSans-32" transform="translate(90.271484 0.78125)"/>
      <use xlink:href="#DejaVuSans-2c" transform="translate(153.894531 0.78125)"/>
      <use xlink:href="#DejaVuSans-20" transform="translate(185.681641 0.78125)"/>
      <use xlink:href="#DejaVuSans-2212" transform="translate(217.46875 0.78125)"/>
      <use xlink:href="#DejaVuSans-31" transform="translate(301.257812 0.78125)"/>
      <use xlink:href="#DejaVuSans-2e" transform="translate(364.880859 0.78125)"/>
      <use xlink:href="#DejaVuSans-36" transform="translate(396.667969 0.78125)"/>
      <use xlink:href="#DejaVuSans-38" transform="translate(460.291016 0.78125)"/>
      <use xlink:href="#DejaVuSans-2c" transform="translate(523.914062 0.78125)"/>
      <use xlink:href="#DejaVuSans-20" transform="translate(555.701172 0.78125)"/>
      <use xlink:href="#DejaVuSans-2212" transform="translate(587.488281 0.78125)"/>
      <use xlink:href="#DejaVuSans-Oblique-3c0" transform="translate(671.277344 0.78125)"/>
      <use xlink:href="#DejaVuSans-2f" transform="translate(731.482422 0.78125)"/>
      <use xlink:href="#DejaVuSans-32" transform="translate(761.548828 0.78125)"/>
     </g>
    </g>
   </g>
   <g id="text_51">
    <g clip-path="url(#pe2bc842acd)">
     <!-- $\mathrm{U_3}$ -->
     <g style="fill: #ffffff" transform="translate(707.489348 236.365307) scale(0.13 -0.13)">
      <use xlink:href="#DejaVuSans-55" transform="translate(0 0.09375)"/>
      <use xlink:href="#DejaVuSans-33" transform="translate(74.150391 -16.3125) scale(0.7)"/>
     </g>
    </g>
   </g>
   <g id="text_52">
    <g clip-path="url(#pe2bc842acd)">
     <!-- 0.954, $-$2.43, $\pi$/2 -->
     <g style="fill: #ffffff" transform="translate(680.459348 294.898164) scale(0.08 -0.08)">
      <use xlink:href="#DejaVuSans-30" transform="translate(0 0.78125)"/>
      <use xlink:href="#DejaVuSans-2e" transform="translate(63.623047 0.78125)"/>
      <use xlink:href="#DejaVuSans-39" transform="translate(95.410156 0.78125)"/>
      <use xlink:href="#DejaVuSans-35" transform="translate(159.033203 0.78125)"/>
      <use xlink:href="#DejaVuSans-34" transform="translate(222.65625 0.78125)"/>
      <use xlink:href="#DejaVuSans-2c" transform="translate(286.279297 0.78125)"/>
      <use xlink:href="#DejaVuSans-20" transform="translate(318.066406 0.78125)"/>
      <use xlink:href="#DejaVuSans-2212" transform="translate(349.853516 0.78125)"/>
      <use xlink:href="#DejaVuSans-32" transform="translate(433.642578 0.78125)"/>
      <use xlink:href="#DejaVuSans-2e" transform="translate(497.265625 0.78125)"/>
      <use xlink:href="#DejaVuSans-34" transform="translate(529.052734 0.78125)"/>
      <use xlink:href="#DejaVuSans-33" transform="translate(592.675781 0.78125)"/>
      <use xlink:href="#DejaVuSans-2c" transform="translate(656.298828 0.78125)"/>
      <use xlink:href="#DejaVuSans-20" transform="translate(688.085938 0.78125)"/>
      <use xlink:href="#DejaVuSans-Oblique-3c0" transform="translate(719.873047 0.78125)"/>
      <use xlink:href="#DejaVuSans-2f" transform="translate(780.078125 0.78125)"/>
      <use xlink:href="#DejaVuSans-32" transform="translate(810.144531 0.78125)"/>
     </g>
    </g>
   </g>
   <g id="text_53">
    <g clip-path="url(#pe2bc842acd)">
     <!-- $\mathrm{U_3}$ -->
     <g style="fill: #ffffff" transform="translate(707.489348 282.719306) scale(0.13 -0.13)">
      <use xlink:href="#DejaVuSans-55" transform="translate(0 0.09375)"/>
      <use xlink:href="#DejaVuSans-33" transform="translate(74.150391 -16.3125) scale(0.7)"/>
     </g>
    </g>
   </g>
   <g id="text_54">
    <g clip-path="url(#pe2bc842acd)">
     <!-- 0, 0, $-$0.114 -->
     <g style="fill: #ffffff" transform="translate(829.481346 341.252163) scale(0.08 -0.08)">
      <use xlink:href="#DejaVuSans-30" transform="translate(0 0.78125)"/>
      <use xlink:href="#DejaVuSans-2c" transform="translate(63.623047 0.78125)"/>
      <use xlink:href="#DejaVuSans-20" transform="translate(95.410156 0.78125)"/>
      <use xlink:href="#DejaVuSans-30" transform="translate(127.197266 0.78125)"/>
      <use xlink:href="#DejaVuSans-2c" transform="translate(190.820312 0.78125)"/>
      <use xlink:href="#DejaVuSans-20" transform="translate(222.607422 0.78125)"/>
      <use xlink:href="#DejaVuSans-2212" transform="translate(254.394531 0.78125)"/>
      <use xlink:href="#DejaVuSans-30" transform="translate(338.183594 0.78125)"/>
      <use xlink:href="#DejaVuSans-2e" transform="translate(401.806641 0.78125)"/>
      <use xlink:href="#DejaVuSans-31" transform="translate(433.59375 0.78125)"/>
      <use xlink:href="#DejaVuSans-31" transform="translate(497.216797 0.78125)"/>
      <use xlink:href="#DejaVuSans-34" transform="translate(560.839844 0.78125)"/>
     </g>
    </g>
   </g>
   <g id="text_55">
    <g clip-path="url(#pe2bc842acd)">
     <!-- $\mathrm{U_3}$ -->
     <g style="fill: #ffffff" transform="translate(846.551346 329.073306) scale(0.13 -0.13)">
      <use xlink:href="#DejaVuSans-55" transform="translate(0 0.09375)"/>
      <use xlink:href="#DejaVuSans-33" transform="translate(74.150391 -16.3125) scale(0.7)"/>
     </g>
    </g>
   </g>
   <g id="text_56">
    <g clip-path="url(#pe2bc842acd)">
     <!-- 0, 0, $-$1.74 -->
     <g style="fill: #ffffff" transform="translate(971.383344 341.252163) scale(0.08 -0.08)">
      <use xlink:href="#DejaVuSans-30" transform="translate(0 0.78125)"/>
      <use xlink:href="#DejaVuSans-2c" transform="translate(63.623047 0.78125)"/>
      <use xlink:href="#DejaVuSans-20" transform="translate(95.410156 0.78125)"/>
      <use xlink:href="#DejaVuSans-30" transform="translate(127.197266 0.78125)"/>
      <use xlink:href="#DejaVuSans-2c" transform="translate(190.820312 0.78125)"/>
      <use xlink:href="#DejaVuSans-20" transform="translate(222.607422 0.78125)"/>
      <use xlink:href="#DejaVuSans-2212" transform="translate(254.394531 0.78125)"/>
      <use xlink:href="#DejaVuSans-31" transform="translate(338.183594 0.78125)"/>
      <use xlink:href="#DejaVuSans-2e" transform="translate(401.806641 0.78125)"/>
      <use xlink:href="#DejaVuSans-37" transform="translate(425.84375 0.78125)"/>
      <use xlink:href="#DejaVuSans-34" transform="translate(489.466797 0.78125)"/>
     </g>
    </g>
   </g>
   <g id="text_57">
    <g clip-path="url(#pe2bc842acd)">
     <!-- $\mathrm{U_3}$ -->
     <g style="fill: #ffffff" transform="translate(985.613344 329.073306) scale(0.13 -0.13)">
      <use xlink:href="#DejaVuSans-55" transform="translate(0 0.09375)"/>
      <use xlink:href="#DejaVuSans-33" transform="translate(74.150391 -16.3125) scale(0.7)"/>
     </g>
    </g>
   </g>
   <g id="text_58">
    <g clip-path="url(#pe2bc842acd)">
     <!-- 0, 0, 0.158 -->
     <g style="fill: #ffffff" transform="translate(1110.979092 341.252163) scale(0.08 -0.08)">
      <use xlink:href="#DejaVuSans-30"/>
      <use xlink:href="#DejaVuSans-2c" x="63.623047"/>
      <use xlink:href="#DejaVuSans-20" x="95.410156"/>
      <use xlink:href="#DejaVuSans-30" x="127.197266"/>
      <use xlink:href="#DejaVuSans-2c" x="190.820312"/>
      <use xlink:href="#DejaVuSans-20" x="222.607422"/>
      <use xlink:href="#DejaVuSans-30" x="254.394531"/>
      <use xlink:href="#DejaVuSans-2e" x="318.017578"/>
      <use xlink:href="#DejaVuSans-31" x="349.804688"/>
      <use xlink:href="#DejaVuSans-35" x="413.427734"/>
      <use xlink:href="#DejaVuSans-38" x="477.050781"/>
     </g>
    </g>
   </g>
   <g id="text_59">
    <g clip-path="url(#pe2bc842acd)">
     <!-- $\mathrm{U_3}$ -->
     <g style="fill: #ffffff" transform="translate(1124.675342 329.073306) scale(0.13 -0.13)">
      <use xlink:href="#DejaVuSans-55" transform="translate(0 0.09375)"/>
      <use xlink:href="#DejaVuSans-33" transform="translate(74.150391 -16.3125) scale(0.7)"/>
     </g>
    </g>
   </g>
  </g>
 </g>
 <defs>
  <clipPath id="pe2bc842acd">
   <rect x="7.2" y="14.798437" width="1225.529981" height="343.019595"/>
  </clipPath>
 </defs>
</svg>
