<?xml version="1.0" encoding="utf-8" standalone="no"?>
<!DOCTYPE svg PUBLIC "-//W3C//DTD SVG 1.1//EN"
  "http://www.w3.org/Graphics/SVG/1.1/DTD/svg11.dtd">
<svg xmlns:xlink="http://www.w3.org/1999/xlink" width="1239.929981pt" height="365.018033pt" viewBox="0 0 1239.929981 365.018033" xmlns="http://www.w3.org/2000/svg" version="1.1">
 <metadata>
  <rdf:RDF xmlns:dc="http://purl.org/dc/elements/1.1/" xmlns:cc="http://creativecommons.org/ns#" xmlns:rdf="http://www.w3.org/1999/02/22-rdf-syntax-ns#">
   <cc:Work>
    <dc:type rdf:resource="http://purl.org/dc/dcmitype/StillImage"/>
    <dc:date>2024-11-13T12:09:48.491609</dc:date>
    <dc:format>image/svg+xml</dc:format>
    <dc:creator>
     <cc:Agent>
      <dc:title>Matplotlib v3.9.2, https://matplotlib.org/</dc:title>
     </cc:Agent>
    </dc:creator>
   </cc:Work>
  </rdf:RDF>
 </metadata>
 <defs>
  <style type="text/css">*{stroke-linejoin: round; stroke-linecap: butt}</style>
 </defs>
 <g id="figure_1">
  <g id="patch_1">
   <path d="M -0 365.018033 
L 1239.929981 365.018033 
L 1239.929981 0 
L -0 0 
z
" style="fill: #ffffff"/>
  </g>
  <g id="axes_1">
   <g id="line2d_1">
    <path d="M 64.609196 51.881637 
L 1228.094581 51.881637 
" clip-path="url(#p7d6d5faeec)" style="fill: none; stroke: #000000; stroke-width: 2; stroke-linecap: square"/>
   </g>
   <g id="line2d_2">
    <path d="M 64.609196 98.235636 
L 1228.094581 98.235636 
" clip-path="url(#p7d6d5faeec)" style="fill: none; stroke: #000000; stroke-width: 2; stroke-linecap: square"/>
   </g>
   <g id="line2d_3">
    <path d="M 64.609196 144.589636 
L 1228.094581 144.589636 
" clip-path="url(#p7d6d5faeec)" style="fill: none; stroke: #000000; stroke-width: 2; stroke-linecap: square"/>
   </g>
   <g id="line2d_4">
    <path d="M 1228.094581 51.881637 
L 1228.094581 144.589636 
" clip-path="url(#p7d6d5faeec)" style="fill: none; stroke: #000000; stroke-width: 1.5; stroke-linecap: square"/>
   </g>
   <g id="line2d_5">
    <path d="M 64.609196 237.297635 
L 1228.094581 237.297635 
" clip-path="url(#p7d6d5faeec)" style="fill: none; stroke: #000000; stroke-width: 2; stroke-linecap: square"/>
   </g>
   <g id="line2d_6">
    <path d="M 64.609196 283.651634 
L 1228.094581 283.651634 
" clip-path="url(#p7d6d5faeec)" style="fill: none; stroke: #000000; stroke-width: 2; stroke-linecap: square"/>
   </g>
   <g id="line2d_7">
    <path d="M 64.609196 330.005633 
L 1228.094581 330.005633 
" clip-path="url(#p7d6d5faeec)" style="fill: none; stroke: #000000; stroke-width: 2; stroke-linecap: square"/>
   </g>
   <g id="line2d_8">
    <path d="M 64.145656 237.297635 
L 64.145656 330.005633 
" clip-path="url(#p7d6d5faeec)" style="fill: none; stroke: #000000; stroke-width: 1.5; stroke-linecap: square"/>
   </g>
   <g id="text_1">
    <!-- Global Phase: 1.0292224780061225 -->
    <g transform="translate(7.2 14.798437) scale(0.1 -0.1)">
     <defs>
      <path id="DejaVuSans-47" d="M 3809 666 
L 3809 1919 
L 2778 1919 
L 2778 2438 
L 4434 2438 
L 4434 434 
Q 4069 175 3628 42 
Q 3188 -91 2688 -91 
Q 1594 -91 976 548 
Q 359 1188 359 2328 
Q 359 3472 976 4111 
Q 1594 4750 2688 4750 
Q 3144 4750 3555 4637 
Q 3966 4525 4313 4306 
L 4313 3634 
Q 3963 3931 3569 4081 
Q 3175 4231 2741 4231 
Q 1884 4231 1454 3753 
Q 1025 3275 1025 2328 
Q 1025 1384 1454 906 
Q 1884 428 2741 428 
Q 3075 428 3337 486 
Q 3600 544 3809 666 
z
" transform="scale(0.015625)"/>
      <path id="DejaVuSans-6c" d="M 603 4863 
L 1178 4863 
L 1178 0 
L 603 0 
L 603 4863 
z
" transform="scale(0.015625)"/>
      <path id="DejaVuSans-6f" d="M 1959 3097 
Q 1497 3097 1228 2736 
Q 959 2375 959 1747 
Q 959 1119 1226 758 
Q 1494 397 1959 397 
Q 2419 397 2687 759 
Q 2956 1122 2956 1747 
Q 2956 2369 2687 2733 
Q 2419 3097 1959 3097 
z
M 1959 3584 
Q 2709 3584 3137 3096 
Q 3566 2609 3566 1747 
Q 3566 888 3137 398 
Q 2709 -91 1959 -91 
Q 1206 -91 779 398 
Q 353 888 353 1747 
Q 353 2609 779 3096 
Q 1206 3584 1959 3584 
z
" transform="scale(0.015625)"/>
      <path id="DejaVuSans-62" d="M 3116 1747 
Q 3116 2381 2855 2742 
Q 2594 3103 2138 3103 
Q 1681 3103 1420 2742 
Q 1159 2381 1159 1747 
Q 1159 1113 1420 752 
Q 1681 391 2138 391 
Q 2594 391 2855 752 
Q 3116 1113 3116 1747 
z
M 1159 2969 
Q 1341 3281 1617 3432 
Q 1894 3584 2278 3584 
Q 2916 3584 3314 3078 
Q 3713 2572 3713 1747 
Q 3713 922 3314 415 
Q 2916 -91 2278 -91 
Q 1894 -91 1617 61 
Q 1341 213 1159 525 
L 1159 0 
L 581 0 
L 581 4863 
L 1159 4863 
L 1159 2969 
z
" transform="scale(0.015625)"/>
      <path id="DejaVuSans-61" d="M 2194 1759 
Q 1497 1759 1228 1600 
Q 959 1441 959 1056 
Q 959 750 1161 570 
Q 1363 391 1709 391 
Q 2188 391 2477 730 
Q 2766 1069 2766 1631 
L 2766 1759 
L 2194 1759 
z
M 3341 1997 
L 3341 0 
L 2766 0 
L 2766 531 
Q 2569 213 2275 61 
Q 1981 -91 1556 -91 
Q 1019 -91 701 211 
Q 384 513 384 1019 
Q 384 1609 779 1909 
Q 1175 2209 1959 2209 
L 2766 2209 
L 2766 2266 
Q 2766 2663 2505 2880 
Q 2244 3097 1772 3097 
Q 1472 3097 1187 3025 
Q 903 2953 641 2809 
L 641 3341 
Q 956 3463 1253 3523 
Q 1550 3584 1831 3584 
Q 2591 3584 2966 3190 
Q 3341 2797 3341 1997 
z
" transform="scale(0.015625)"/>
      <path id="DejaVuSans-20" transform="scale(0.015625)"/>
      <path id="DejaVuSans-50" d="M 1259 4147 
L 1259 2394 
L 2053 2394 
Q 2494 2394 2734 2622 
Q 2975 2850 2975 3272 
Q 2975 3691 2734 3919 
Q 2494 4147 2053 4147 
L 1259 4147 
z
M 628 4666 
L 2053 4666 
Q 2838 4666 3239 4311 
Q 3641 3956 3641 3272 
Q 3641 2581 3239 2228 
Q 2838 1875 2053 1875 
L 1259 1875 
L 1259 0 
L 628 0 
L 628 4666 
z
" transform="scale(0.015625)"/>
      <path id="DejaVuSans-68" d="M 3513 2113 
L 3513 0 
L 2938 0 
L 2938 2094 
Q 2938 2591 2744 2837 
Q 2550 3084 2163 3084 
Q 1697 3084 1428 2787 
Q 1159 2491 1159 1978 
L 1159 0 
L 581 0 
L 581 4863 
L 1159 4863 
L 1159 2956 
Q 1366 3272 1645 3428 
Q 1925 3584 2291 3584 
Q 2894 3584 3203 3211 
Q 3513 2838 3513 2113 
z
" transform="scale(0.015625)"/>
      <path id="DejaVuSans-73" d="M 2834 3397 
L 2834 2853 
Q 2591 2978 2328 3040 
Q 2066 3103 1784 3103 
Q 1356 3103 1142 2972 
Q 928 2841 928 2578 
Q 928 2378 1081 2264 
Q 1234 2150 1697 2047 
L 1894 2003 
Q 2506 1872 2764 1633 
Q 3022 1394 3022 966 
Q 3022 478 2636 193 
Q 2250 -91 1575 -91 
Q 1294 -91 989 -36 
Q 684 19 347 128 
L 347 722 
Q 666 556 975 473 
Q 1284 391 1588 391 
Q 1994 391 2212 530 
Q 2431 669 2431 922 
Q 2431 1156 2273 1281 
Q 2116 1406 1581 1522 
L 1381 1569 
Q 847 1681 609 1914 
Q 372 2147 372 2553 
Q 372 3047 722 3315 
Q 1072 3584 1716 3584 
Q 2034 3584 2315 3537 
Q 2597 3491 2834 3397 
z
" transform="scale(0.015625)"/>
      <path id="DejaVuSans-65" d="M 3597 1894 
L 3597 1613 
L 953 1613 
Q 991 1019 1311 708 
Q 1631 397 2203 397 
Q 2534 397 2845 478 
Q 3156 559 3463 722 
L 3463 178 
Q 3153 47 2828 -22 
Q 2503 -91 2169 -91 
Q 1331 -91 842 396 
Q 353 884 353 1716 
Q 353 2575 817 3079 
Q 1281 3584 2069 3584 
Q 2775 3584 3186 3129 
Q 3597 2675 3597 1894 
z
M 3022 2063 
Q 3016 2534 2758 2815 
Q 2500 3097 2075 3097 
Q 1594 3097 1305 2825 
Q 1016 2553 972 2059 
L 3022 2063 
z
" transform="scale(0.015625)"/>
      <path id="DejaVuSans-3a" d="M 750 794 
L 1409 794 
L 1409 0 
L 750 0 
L 750 794 
z
M 750 3309 
L 1409 3309 
L 1409 2516 
L 750 2516 
L 750 3309 
z
" transform="scale(0.015625)"/>
      <path id="DejaVuSans-31" d="M 794 531 
L 1825 531 
L 1825 4091 
L 703 3866 
L 703 4441 
L 1819 4666 
L 2450 4666 
L 2450 531 
L 3481 531 
L 3481 0 
L 794 0 
L 794 531 
z
" transform="scale(0.015625)"/>
      <path id="DejaVuSans-2e" d="M 684 794 
L 1344 794 
L 1344 0 
L 684 0 
L 684 794 
z
" transform="scale(0.015625)"/>
      <path id="DejaVuSans-30" d="M 2034 4250 
Q 1547 4250 1301 3770 
Q 1056 3291 1056 2328 
Q 1056 1369 1301 889 
Q 1547 409 2034 409 
Q 2525 409 2770 889 
Q 3016 1369 3016 2328 
Q 3016 3291 2770 3770 
Q 2525 4250 2034 4250 
z
M 2034 4750 
Q 2819 4750 3233 4129 
Q 3647 3509 3647 2328 
Q 3647 1150 3233 529 
Q 2819 -91 2034 -91 
Q 1250 -91 836 529 
Q 422 1150 422 2328 
Q 422 3509 836 4129 
Q 1250 4750 2034 4750 
z
" transform="scale(0.015625)"/>
      <path id="DejaVuSans-32" d="M 1228 531 
L 3431 531 
L 3431 0 
L 469 0 
L 469 531 
Q 828 903 1448 1529 
Q 2069 2156 2228 2338 
Q 2531 2678 2651 2914 
Q 2772 3150 2772 3378 
Q 2772 3750 2511 3984 
Q 2250 4219 1831 4219 
Q 1534 4219 1204 4116 
Q 875 4013 500 3803 
L 500 4441 
Q 881 4594 1212 4672 
Q 1544 4750 1819 4750 
Q 2544 4750 2975 4387 
Q 3406 4025 3406 3419 
Q 3406 3131 3298 2873 
Q 3191 2616 2906 2266 
Q 2828 2175 2409 1742 
Q 1991 1309 1228 531 
z
" transform="scale(0.015625)"/>
      <path id="DejaVuSans-39" d="M 703 97 
L 703 672 
Q 941 559 1184 500 
Q 1428 441 1663 441 
Q 2288 441 2617 861 
Q 2947 1281 2994 2138 
Q 2813 1869 2534 1725 
Q 2256 1581 1919 1581 
Q 1219 1581 811 2004 
Q 403 2428 403 3163 
Q 403 3881 828 4315 
Q 1253 4750 1959 4750 
Q 2769 4750 3195 4129 
Q 3622 3509 3622 2328 
Q 3622 1225 3098 567 
Q 2575 -91 1691 -91 
Q 1453 -91 1209 -44 
Q 966 3 703 97 
z
M 1959 2075 
Q 2384 2075 2632 2365 
Q 2881 2656 2881 3163 
Q 2881 3666 2632 3958 
Q 2384 4250 1959 4250 
Q 1534 4250 1286 3958 
Q 1038 3666 1038 3163 
Q 1038 2656 1286 2365 
Q 1534 2075 1959 2075 
z
" transform="scale(0.015625)"/>
      <path id="DejaVuSans-34" d="M 2419 4116 
L 825 1625 
L 2419 1625 
L 2419 4116 
z
M 2253 4666 
L 3047 4666 
L 3047 1625 
L 3713 1625 
L 3713 1100 
L 3047 1100 
L 3047 0 
L 2419 0 
L 2419 1100 
L 313 1100 
L 313 1709 
L 2253 4666 
z
" transform="scale(0.015625)"/>
      <path id="DejaVuSans-37" d="M 525 4666 
L 3525 4666 
L 3525 4397 
L 1831 0 
L 1172 0 
L 2766 4134 
L 525 4134 
L 525 4666 
z
" transform="scale(0.015625)"/>
      <path id="DejaVuSans-38" d="M 2034 2216 
Q 1584 2216 1326 1975 
Q 1069 1734 1069 1313 
Q 1069 891 1326 650 
Q 1584 409 2034 409 
Q 2484 409 2743 651 
Q 3003 894 3003 1313 
Q 3003 1734 2745 1975 
Q 2488 2216 2034 2216 
z
M 1403 2484 
Q 997 2584 770 2862 
Q 544 3141 544 3541 
Q 544 4100 942 4425 
Q 1341 4750 2034 4750 
Q 2731 4750 3128 4425 
Q 3525 4100 3525 3541 
Q 3525 3141 3298 2862 
Q 3072 2584 2669 2484 
Q 3125 2378 3379 2068 
Q 3634 1759 3634 1313 
Q 3634 634 3220 271 
Q 2806 -91 2034 -91 
Q 1263 -91 848 271 
Q 434 634 434 1313 
Q 434 1759 690 2068 
Q 947 2378 1403 2484 
z
M 1172 3481 
Q 1172 3119 1398 2916 
Q 1625 2713 2034 2713 
Q 2441 2713 2670 2916 
Q 2900 3119 2900 3481 
Q 2900 3844 2670 4047 
Q 2441 4250 2034 4250 
Q 1625 4250 1398 4047 
Q 1172 3844 1172 3481 
z
" transform="scale(0.015625)"/>
      <path id="DejaVuSans-36" d="M 2113 2584 
Q 1688 2584 1439 2293 
Q 1191 2003 1191 1497 
Q 1191 994 1439 701 
Q 1688 409 2113 409 
Q 2538 409 2786 701 
Q 3034 994 3034 1497 
Q 3034 2003 2786 2293 
Q 2538 2584 2113 2584 
z
M 3366 4563 
L 3366 3988 
Q 3128 4100 2886 4159 
Q 2644 4219 2406 4219 
Q 1781 4219 1451 3797 
Q 1122 3375 1075 2522 
Q 1259 2794 1537 2939 
Q 1816 3084 2150 3084 
Q 2853 3084 3261 2657 
Q 3669 2231 3669 1497 
Q 3669 778 3244 343 
Q 2819 -91 2113 -91 
Q 1303 -91 875 529 
Q 447 1150 447 2328 
Q 447 3434 972 4092 
Q 1497 4750 2381 4750 
Q 2619 4750 2861 4703 
Q 3103 4656 3366 4563 
z
" transform="scale(0.015625)"/>
      <path id="DejaVuSans-35" d="M 691 4666 
L 3169 4666 
L 3169 4134 
L 1269 4134 
L 1269 2991 
Q 1406 3038 1543 3061 
Q 1681 3084 1819 3084 
Q 2600 3084 3056 2656 
Q 3513 2228 3513 1497 
Q 3513 744 3044 326 
Q 2575 -91 1722 -91 
Q 1428 -91 1123 -41 
Q 819 9 494 109 
L 494 744 
Q 775 591 1075 516 
Q 1375 441 1709 441 
Q 2250 441 2565 725 
Q 2881 1009 2881 1497 
Q 2881 1984 2565 2268 
Q 2250 2553 1709 2553 
Q 1456 2553 1204 2497 
Q 953 2441 691 2322 
L 691 4666 
z
" transform="scale(0.015625)"/>
     </defs>
     <use xlink:href="#DejaVuSans-47"/>
     <use xlink:href="#DejaVuSans-6c" x="77.490234"/>
     <use xlink:href="#DejaVuSans-6f" x="105.273438"/>
     <use xlink:href="#DejaVuSans-62" x="166.455078"/>
     <use xlink:href="#DejaVuSans-61" x="229.931641"/>
     <use xlink:href="#DejaVuSans-6c" x="291.210938"/>
     <use xlink:href="#DejaVuSans-20" x="318.994141"/>
     <use xlink:href="#DejaVuSans-50" x="350.78125"/>
     <use xlink:href="#DejaVuSans-68" x="411.083984"/>
     <use xlink:href="#DejaVuSans-61" x="474.462891"/>
     <use xlink:href="#DejaVuSans-73" x="535.742188"/>
     <use xlink:href="#DejaVuSans-65" x="587.841797"/>
     <use xlink:href="#DejaVuSans-3a" x="649.365234"/>
     <use xlink:href="#DejaVuSans-20" x="683.056641"/>
     <use xlink:href="#DejaVuSans-31" x="714.84375"/>
     <use xlink:href="#DejaVuSans-2e" x="778.466797"/>
     <use xlink:href="#DejaVuSans-30" x="810.253906"/>
     <use xlink:href="#DejaVuSans-32" x="873.876953"/>
     <use xlink:href="#DejaVuSans-39" x="937.5"/>
     <use xlink:href="#DejaVuSans-32" x="1001.123047"/>
     <use xlink:href="#DejaVuSans-32" x="1064.746094"/>
     <use xlink:href="#DejaVuSans-32" x="1128.369141"/>
     <use xlink:href="#DejaVuSans-34" x="1191.992188"/>
     <use xlink:href="#DejaVuSans-37" x="1255.615234"/>
     <use xlink:href="#DejaVuSans-38" x="1319.238281"/>
     <use xlink:href="#DejaVuSans-30" x="1382.861328"/>
     <use xlink:href="#DejaVuSans-30" x="1446.484375"/>
     <use xlink:href="#DejaVuSans-36" x="1510.107422"/>
     <use xlink:href="#DejaVuSans-31" x="1573.730469"/>
     <use xlink:href="#DejaVuSans-32" x="1637.353516"/>
     <use xlink:href="#DejaVuSans-32" x="1700.976562"/>
     <use xlink:href="#DejaVuSans-35" x="1764.599609"/>
    </g>
   </g>
   <g id="patch_2">
    <path d="M 59.973797 28.704637 
L -1098.876188 28.704637 
L -1098.876188 214.120635 
L 59.973797 214.120635 
z
" clip-path="url(#p7d6d5faeec)" style="fill: #ffffff; stroke: #ffffff; stroke-width: 1.5; stroke-linejoin: miter"/>
   </g>
   <g id="patch_3">
    <path d="M 59.973797 214.120635 
L -1098.876188 214.120635 
L -1098.876188 584.95263 
L 59.973797 584.95263 
z
" clip-path="url(#p7d6d5faeec)" style="fill: #ffffff; stroke: #ffffff; stroke-width: 1.5; stroke-linejoin: miter"/>
   </g>
   <g id="line2d_9">
    <path d="M 275.056354 144.589636 
L 275.056354 98.235636 
" clip-path="url(#p7d6d5faeec)" style="fill: none; stroke: #002d9c; stroke-width: 2; stroke-linecap: square"/>
   </g>
   <g id="line2d_10">
    <path d="M 460.472351 98.235636 
L 460.472351 51.881637 
" clip-path="url(#p7d6d5faeec)" style="fill: none; stroke: #002d9c; stroke-width: 2; stroke-linecap: square"/>
   </g>
   <g id="line2d_11">
    <path d="M 599.534349 144.589636 
L 599.534349 51.881637 
" clip-path="url(#p7d6d5faeec)" style="fill: none; stroke: #002d9c; stroke-width: 2; stroke-linecap: square"/>
   </g>
   <g id="line2d_12">
    <path d="M 738.596348 144.589636 
L 738.596348 98.235636 
" clip-path="url(#p7d6d5faeec)" style="fill: none; stroke: #002d9c; stroke-width: 2; stroke-linecap: square"/>
   </g>
   <g id="line2d_13">
    <path d="M 831.304346 144.589636 
L 831.304346 51.881637 
" clip-path="url(#p7d6d5faeec)" style="fill: none; stroke: #002d9c; stroke-width: 2; stroke-linecap: square"/>
   </g>
   <g id="line2d_14">
    <path d="M 970.366344 144.589636 
L 970.366344 98.235636 
" clip-path="url(#p7d6d5faeec)" style="fill: none; stroke: #002d9c; stroke-width: 2; stroke-linecap: square"/>
   </g>
   <g id="line2d_15">
    <path d="M 1109.428343 144.589636 
L 1109.428343 51.881637 
" clip-path="url(#p7d6d5faeec)" style="fill: none; stroke: #002d9c; stroke-width: 2; stroke-linecap: square"/>
   </g>
   <g id="line2d_16">
    <path d="M 89.640356 330.005633 
L 89.640356 283.651634 
" clip-path="url(#p7d6d5faeec)" style="fill: none; stroke: #002d9c; stroke-width: 2; stroke-linecap: square"/>
   </g>
   <g id="line2d_17">
    <path d="M 228.702354 330.005633 
L 228.702354 237.297635 
" clip-path="url(#p7d6d5faeec)" style="fill: none; stroke: #002d9c; stroke-width: 2; stroke-linecap: square"/>
   </g>
   <g id="line2d_18">
    <path d="M 367.764352 283.651634 
L 367.764352 237.297635 
" clip-path="url(#p7d6d5faeec)" style="fill: none; stroke: #002d9c; stroke-width: 2; stroke-linecap: square"/>
   </g>
   <g id="line2d_19">
    <path d="M 506.826351 330.005633 
L 506.826351 237.297635 
" clip-path="url(#p7d6d5faeec)" style="fill: none; stroke: #002d9c; stroke-width: 2; stroke-linecap: square"/>
   </g>
   <g id="line2d_20">
    <path d="M 645.888349 330.005633 
L 645.888349 283.651634 
" clip-path="url(#p7d6d5faeec)" style="fill: none; stroke: #002d9c; stroke-width: 2; stroke-linecap: square"/>
   </g>
   <g id="line2d_21">
    <path d="M 738.596348 330.005633 
L 738.596348 237.297635 
" clip-path="url(#p7d6d5faeec)" style="fill: none; stroke: #002d9c; stroke-width: 2; stroke-linecap: square"/>
   </g>
   <g id="line2d_22">
    <path d="M 831.304346 330.005633 
L 831.304346 283.651634 
" clip-path="url(#p7d6d5faeec)" style="fill: none; stroke: #002d9c; stroke-width: 2; stroke-linecap: square"/>
   </g>
   <g id="patch_4">
    <path d="M 88.625204 66.946687 
L 137.009508 66.946687 
L 137.009508 36.816587 
L 88.625204 36.816587 
z
" clip-path="url(#p7d6d5faeec)" style="fill: #9f1853; stroke: #9f1853; stroke-width: 1.5; stroke-linejoin: miter"/>
   </g>
   <g id="patch_5">
    <path d="M 97.752306 113.300686 
L 127.882406 113.300686 
L 127.882406 83.170587 
L 97.752306 83.170587 
z
" clip-path="url(#p7d6d5faeec)" style="fill: #a8a8a8; stroke: #a8a8a8; stroke-width: 1.5; stroke-linejoin: miter"/>
   </g>
   <g id="patch_6">
    <path d="M 97.752306 159.654686 
L 127.882406 159.654686 
L 127.882406 129.524586 
L 97.752306 129.524586 
z
" clip-path="url(#p7d6d5faeec)" style="fill: #a8a8a8; stroke: #a8a8a8; stroke-width: 1.5; stroke-linejoin: miter"/>
   </g>
   <g id="patch_7">
    <path d="M 168.875565 113.300686 
L 242.175144 113.300686 
L 242.175144 83.170587 
L 168.875565 83.170587 
z
" clip-path="url(#p7d6d5faeec)" style="fill: #9f1853; stroke: #9f1853; stroke-width: 1.5; stroke-linejoin: miter"/>
   </g>
   <g id="patch_8">
    <path d="M 185.148136 159.654686 
L 225.902573 159.654686 
L 225.902573 129.524586 
L 185.148136 129.524586 
z
" clip-path="url(#p7d6d5faeec)" style="fill: #9f1853; stroke: #9f1853; stroke-width: 1.5; stroke-linejoin: miter"/>
   </g>
   <g id="patch_9">
    <path d="M 275.056354 149.109151 
C 276.254943 149.109151 277.404603 148.632946 278.252133 147.785415 
C 279.099664 146.937885 279.575869 145.788225 279.575869 144.589636 
C 279.575869 143.391046 279.099664 142.241387 278.252133 141.393856 
C 277.404603 140.546325 276.254943 140.070121 275.056354 140.070121 
C 273.857764 140.070121 272.708105 140.546325 271.860574 141.393856 
C 271.013043 142.241387 270.536839 143.391046 270.536839 144.589636 
C 270.536839 145.788225 271.013043 146.937885 271.860574 147.785415 
C 272.708105 148.632946 273.857764 149.109151 275.056354 149.109151 
z
" clip-path="url(#p7d6d5faeec)" style="fill: #002d9c; stroke: #002d9c; stroke-width: 1.5; stroke-linejoin: miter"/>
   </g>
   <g id="patch_10">
    <path d="M 275.056354 108.781171 
C 277.853062 108.781171 280.535601 107.670027 282.513173 105.692456 
C 284.490744 103.714884 285.601889 101.032345 285.601889 98.235636 
C 285.601889 95.438928 284.490744 92.756389 282.513173 90.778817 
C 280.535601 88.801246 277.853062 87.690102 275.056354 87.690102 
C 272.259645 87.690102 269.577106 88.801246 267.599534 90.778817 
C 265.621963 92.756389 264.510819 95.438928 264.510819 98.235636 
C 264.510819 101.032345 265.621963 103.714884 267.599534 105.692456 
C 269.577106 107.670027 272.259645 108.781171 275.056354 108.781171 
z
" clip-path="url(#p7d6d5faeec)" style="fill: #002d9c; stroke: #002d9c; stroke-width: 2; stroke-linejoin: miter"/>
   </g>
   <g id="patch_11">
    <path d="M 343.766887 159.654686 
L 391.761818 159.654686 
L 391.761818 129.524586 
L 343.766887 129.524586 
z
" clip-path="url(#p7d6d5faeec)" style="fill: #9f1853; stroke: #9f1853; stroke-width: 1.5; stroke-linejoin: miter"/>
   </g>
   <g id="patch_12">
    <path d="M 320.923636 113.300686 
L 414.605069 113.300686 
L 414.605069 83.170587 
L 320.923636 83.170587 
z
" clip-path="url(#p7d6d5faeec)" style="fill: #9f1853; stroke: #9f1853; stroke-width: 1.5; stroke-linejoin: miter"/>
   </g>
   <g id="patch_13">
    <path d="M 460.472351 56.401152 
C 461.670941 56.401152 462.8206 55.924947 463.668131 55.077417 
C 464.515662 54.229886 464.991866 53.080226 464.991866 51.881637 
C 464.991866 50.683048 464.515662 49.533388 463.668131 48.685857 
C 462.8206 47.838327 461.670941 47.362122 460.472351 47.362122 
C 459.273762 47.362122 458.124102 47.838327 457.276572 48.685857 
C 456.429041 49.533388 455.952836 50.683048 455.952836 51.881637 
C 455.952836 53.080226 456.429041 54.229886 457.276572 55.077417 
C 458.124102 55.924947 459.273762 56.401152 460.472351 56.401152 
z
" clip-path="url(#p7d6d5faeec)" style="fill: #002d9c; stroke: #002d9c; stroke-width: 1.5; stroke-linejoin: miter"/>
   </g>
   <g id="patch_14">
    <path d="M 460.472351 108.781171 
C 463.26906 108.781171 465.951599 107.670027 467.92917 105.692456 
C 469.906742 103.714884 471.017886 101.032345 471.017886 98.235636 
C 471.017886 95.438928 469.906742 92.756389 467.92917 90.778817 
C 465.951599 88.801246 463.26906 87.690102 460.472351 87.690102 
C 457.675643 87.690102 454.993104 88.801246 453.015532 90.778817 
C 451.03796 92.756389 449.926816 95.438928 449.926816 98.235636 
C 449.926816 101.032345 451.03796 103.714884 453.015532 105.692456 
C 454.993104 107.670027 457.675643 108.781171 460.472351 108.781171 
z
" clip-path="url(#p7d6d5faeec)" style="fill: #002d9c; stroke: #002d9c; stroke-width: 2; stroke-linejoin: miter"/>
   </g>
   <g id="patch_15">
    <path d="M 498.278673 66.946687 
L 561.728027 66.946687 
L 561.728027 36.816587 
L 498.278673 36.816587 
z
" clip-path="url(#p7d6d5faeec)" style="fill: #9f1853; stroke: #9f1853; stroke-width: 1.5; stroke-linejoin: miter"/>
   </g>
   <g id="patch_16">
    <path d="M 502.431991 113.300686 
L 557.574709 113.300686 
L 557.574709 83.170587 
L 502.431991 83.170587 
z
" clip-path="url(#p7d6d5faeec)" style="fill: #9f1853; stroke: #9f1853; stroke-width: 1.5; stroke-linejoin: miter"/>
   </g>
   <g id="patch_17">
    <path d="M 599.534349 56.401152 
C 600.732939 56.401152 601.882598 55.924947 602.730129 55.077417 
C 603.57766 54.229886 604.053864 53.080226 604.053864 51.881637 
C 604.053864 50.683048 603.57766 49.533388 602.730129 48.685857 
C 601.882598 47.838327 600.732939 47.362122 599.534349 47.362122 
C 598.33576 47.362122 597.1861 47.838327 596.33857 48.685857 
C 595.491039 49.533388 595.014834 50.683048 595.014834 51.881637 
C 595.014834 53.080226 595.491039 54.229886 596.33857 55.077417 
C 597.1861 55.924947 598.33576 56.401152 599.534349 56.401152 
z
" clip-path="url(#p7d6d5faeec)" style="fill: #002d9c; stroke: #002d9c; stroke-width: 1.5; stroke-linejoin: miter"/>
   </g>
   <g id="patch_18">
    <path d="M 599.534349 155.135171 
C 602.331058 155.135171 605.013597 154.024027 606.991169 152.046455 
C 608.96874 150.068883 610.079884 147.386344 610.079884 144.589636 
C 610.079884 141.792927 608.96874 139.110388 606.991169 137.132817 
C 605.013597 135.155245 602.331058 134.044101 599.534349 134.044101 
C 596.737641 134.044101 594.055102 135.155245 592.07753 137.132817 
C 590.099959 139.110388 588.988814 141.792927 588.988814 144.589636 
C 588.988814 147.386344 590.099959 150.068883 592.07753 152.046455 
C 594.055102 154.024027 596.737641 155.135171 599.534349 155.135171 
z
" clip-path="url(#p7d6d5faeec)" style="fill: #002d9c; stroke: #002d9c; stroke-width: 2; stroke-linejoin: miter"/>
   </g>
   <g id="patch_19">
    <path d="M 645.067883 159.654686 
L 693.062814 159.654686 
L 693.062814 129.524586 
L 645.067883 129.524586 
z
" clip-path="url(#p7d6d5faeec)" style="fill: #9f1853; stroke: #9f1853; stroke-width: 1.5; stroke-linejoin: miter"/>
   </g>
   <g id="patch_20">
    <path d="M 738.596348 102.755151 
C 739.794937 102.755151 740.944596 102.278947 741.792127 101.431416 
C 742.639658 100.583885 743.115862 99.434226 743.115862 98.235636 
C 743.115862 97.037047 742.639658 95.887387 741.792127 95.039857 
C 740.944596 94.192326 739.794937 93.716121 738.596348 93.716121 
C 737.397758 93.716121 736.248099 94.192326 735.400568 95.039857 
C 734.553037 95.887387 734.076833 97.037047 734.076833 98.235636 
C 734.076833 99.434226 734.553037 100.583885 735.400568 101.431416 
C 736.248099 102.278947 737.397758 102.755151 738.596348 102.755151 
z
" clip-path="url(#p7d6d5faeec)" style="fill: #002d9c; stroke: #002d9c; stroke-width: 1.5; stroke-linejoin: miter"/>
   </g>
   <g id="patch_21">
    <path d="M 738.596348 155.135171 
C 741.393056 155.135171 744.075595 154.024027 746.053167 152.046455 
C 748.030738 150.068883 749.141882 147.386344 749.141882 144.589636 
C 749.141882 141.792927 748.030738 139.110388 746.053167 137.132817 
C 744.075595 135.155245 741.393056 134.044101 738.596348 134.044101 
C 735.799639 134.044101 733.1171 135.155245 731.139528 137.132817 
C 729.161957 139.110388 728.050813 141.792927 728.050813 144.589636 
C 728.050813 147.386344 729.161957 150.068883 731.139528 152.046455 
C 733.1171 154.024027 735.799639 155.135171 738.596348 155.135171 
z
" clip-path="url(#p7d6d5faeec)" style="fill: #002d9c; stroke: #002d9c; stroke-width: 2; stroke-linejoin: miter"/>
   </g>
   <g id="patch_22">
    <path d="M 764.524457 159.654686 
L 805.376237 159.654686 
L 805.376237 129.524586 
L 764.524457 129.524586 
z
" clip-path="url(#p7d6d5faeec)" style="fill: #9f1853; stroke: #9f1853; stroke-width: 1.5; stroke-linejoin: miter"/>
   </g>
   <g id="patch_23">
    <path d="M 831.304346 56.401152 
C 832.502936 56.401152 833.652595 55.924947 834.500126 55.077417 
C 835.347657 54.229886 835.823861 53.080226 835.823861 51.881637 
C 835.823861 50.683048 835.347657 49.533388 834.500126 48.685857 
C 833.652595 47.838327 832.502936 47.362122 831.304346 47.362122 
C 830.105757 47.362122 828.956097 47.838327 828.108567 48.685857 
C 827.261036 49.533388 826.784831 50.683048 826.784831 51.881637 
C 826.784831 53.080226 827.261036 54.229886 828.108567 55.077417 
C 828.956097 55.924947 830.105757 56.401152 831.304346 56.401152 
z
" clip-path="url(#p7d6d5faeec)" style="fill: #002d9c; stroke: #002d9c; stroke-width: 1.5; stroke-linejoin: miter"/>
   </g>
   <g id="patch_24">
    <path d="M 831.304346 155.135171 
C 834.101055 155.135171 836.783594 154.024027 838.761165 152.046455 
C 840.738737 150.068883 841.849881 147.386344 841.849881 144.589636 
C 841.849881 141.792927 840.738737 139.110388 838.761165 137.132817 
C 836.783594 135.155245 834.101055 134.044101 831.304346 134.044101 
C 828.507638 134.044101 825.825099 135.155245 823.847527 137.132817 
C 821.869955 139.110388 820.758811 141.792927 820.758811 144.589636 
C 820.758811 147.386344 821.869955 150.068883 823.847527 152.046455 
C 825.825099 154.024027 828.507638 155.135171 831.304346 155.135171 
z
" clip-path="url(#p7d6d5faeec)" style="fill: #002d9c; stroke: #002d9c; stroke-width: 2; stroke-linejoin: miter"/>
   </g>
   <g id="patch_25">
    <path d="M 876.83788 159.654686 
L 924.832811 159.654686 
L 924.832811 129.524586 
L 876.83788 129.524586 
z
" clip-path="url(#p7d6d5faeec)" style="fill: #9f1853; stroke: #9f1853; stroke-width: 1.5; stroke-linejoin: miter"/>
   </g>
   <g id="patch_26">
    <path d="M 970.366344 102.755151 
C 971.564934 102.755151 972.714593 102.278947 973.562124 101.431416 
C 974.409655 100.583885 974.885859 99.434226 974.885859 98.235636 
C 974.885859 97.037047 974.409655 95.887387 973.562124 95.039857 
C 972.714593 94.192326 971.564934 93.716121 970.366344 93.716121 
C 969.167755 93.716121 968.018095 94.192326 967.170565 95.039857 
C 966.323034 95.887387 965.846829 97.037047 965.846829 98.235636 
C 965.846829 99.434226 966.323034 100.583885 967.170565 101.431416 
C 968.018095 102.278947 969.167755 102.755151 970.366344 102.755151 
z
" clip-path="url(#p7d6d5faeec)" style="fill: #002d9c; stroke: #002d9c; stroke-width: 1.5; stroke-linejoin: miter"/>
   </g>
   <g id="patch_27">
    <path d="M 970.366344 155.135171 
C 973.163053 155.135171 975.845592 154.024027 977.823164 152.046455 
C 979.800735 150.068883 980.911879 147.386344 980.911879 144.589636 
C 980.911879 141.792927 979.800735 139.110388 977.823164 137.132817 
C 975.845592 135.155245 973.163053 134.044101 970.366344 134.044101 
C 967.569636 134.044101 964.887097 135.155245 962.909525 137.132817 
C 960.931954 139.110388 959.82081 141.792927 959.82081 144.589636 
C 959.82081 147.386344 960.931954 150.068883 962.909525 152.046455 
C 964.887097 154.024027 967.569636 155.135171 970.366344 155.135171 
z
" clip-path="url(#p7d6d5faeec)" style="fill: #002d9c; stroke: #002d9c; stroke-width: 2; stroke-linejoin: miter"/>
   </g>
   <g id="patch_28">
    <path d="M 1013.436163 159.654686 
L 1066.358524 159.654686 
L 1066.358524 129.524586 
L 1013.436163 129.524586 
z
" clip-path="url(#p7d6d5faeec)" style="fill: #9f1853; stroke: #9f1853; stroke-width: 1.5; stroke-linejoin: miter"/>
   </g>
   <g id="patch_29">
    <path d="M 1109.428343 56.401152 
C 1110.626932 56.401152 1111.776592 55.924947 1112.624122 55.077417 
C 1113.471653 54.229886 1113.947858 53.080226 1113.947858 51.881637 
C 1113.947858 50.683048 1113.471653 49.533388 1112.624122 48.685857 
C 1111.776592 47.838327 1110.626932 47.362122 1109.428343 47.362122 
C 1108.229753 47.362122 1107.080094 47.838327 1106.232563 48.685857 
C 1105.385032 49.533388 1104.908828 50.683048 1104.908828 51.881637 
C 1104.908828 53.080226 1105.385032 54.229886 1106.232563 55.077417 
C 1107.080094 55.924947 1108.229753 56.401152 1109.428343 56.401152 
z
" clip-path="url(#p7d6d5faeec)" style="fill: #002d9c; stroke: #002d9c; stroke-width: 1.5; stroke-linejoin: miter"/>
   </g>
   <g id="patch_30">
    <path d="M 1109.428343 155.135171 
C 1112.225051 155.135171 1114.90759 154.024027 1116.885162 152.046455 
C 1118.862733 150.068883 1119.973877 147.386344 1119.973877 144.589636 
C 1119.973877 141.792927 1118.862733 139.110388 1116.885162 137.132817 
C 1114.90759 135.155245 1112.225051 134.044101 1109.428343 134.044101 
C 1106.631634 134.044101 1103.949095 135.155245 1101.971523 137.132817 
C 1099.993952 139.110388 1098.882808 141.792927 1098.882808 144.589636 
C 1098.882808 147.386344 1099.993952 150.068883 1101.971523 152.046455 
C 1103.949095 154.024027 1106.631634 155.135171 1109.428343 155.135171 
z
" clip-path="url(#p7d6d5faeec)" style="fill: #002d9c; stroke: #002d9c; stroke-width: 2; stroke-linejoin: miter"/>
   </g>
   <g id="patch_31">
    <path d="M 1155.877368 159.654686 
L 1202.041316 159.654686 
L 1202.041316 129.524586 
L 1155.877368 129.524586 
z
" clip-path="url(#p7d6d5faeec)" style="fill: #9f1853; stroke: #9f1853; stroke-width: 1.5; stroke-linejoin: miter"/>
   </g>
   <g id="patch_32">
    <path d="M 89.640356 288.171149 
C 90.838946 288.171149 91.988605 287.694944 92.836136 286.847414 
C 93.683666 285.999883 94.159871 284.850223 94.159871 283.651634 
C 94.159871 282.453045 93.683666 281.303385 92.836136 280.455854 
C 91.988605 279.608324 90.838946 279.132119 89.640356 279.132119 
C 88.441767 279.132119 87.292107 279.608324 86.444576 280.455854 
C 85.597046 281.303385 85.120841 282.453045 85.120841 283.651634 
C 85.120841 284.850223 85.597046 285.999883 86.444576 286.847414 
C 87.292107 287.694944 88.441767 288.171149 89.640356 288.171149 
z
" clip-path="url(#p7d6d5faeec)" style="fill: #002d9c; stroke: #002d9c; stroke-width: 1.5; stroke-linejoin: miter"/>
   </g>
   <g id="patch_33">
    <path d="M 89.640356 340.551168 
C 92.437065 340.551168 95.119604 339.440024 97.097175 337.462453 
C 99.074747 335.484881 100.185891 332.802342 100.185891 330.005633 
C 100.185891 327.208925 99.074747 324.526386 97.097175 322.548814 
C 95.119604 320.571243 92.437065 319.460098 89.640356 319.460098 
C 86.843648 319.460098 84.161108 320.571243 82.183537 322.548814 
C 80.205965 324.526386 79.094821 327.208925 79.094821 330.005633 
C 79.094821 332.802342 80.205965 335.484881 82.183537 337.462453 
C 84.161108 339.440024 86.843648 340.551168 89.640356 340.551168 
z
" clip-path="url(#p7d6d5faeec)" style="fill: #002d9c; stroke: #002d9c; stroke-width: 2; stroke-linejoin: miter"/>
   </g>
   <g id="patch_34">
    <path d="M 128.556856 298.716684 
L 189.785854 298.716684 
L 189.785854 268.586584 
L 128.556856 268.586584 
z
" clip-path="url(#p7d6d5faeec)" style="fill: #9f1853; stroke: #9f1853; stroke-width: 1.5; stroke-linejoin: miter"/>
   </g>
   <g id="patch_35">
    <path d="M 136.089381 345.070683 
L 182.253329 345.070683 
L 182.253329 314.940584 
L 136.089381 314.940584 
z
" clip-path="url(#p7d6d5faeec)" style="fill: #9f1853; stroke: #9f1853; stroke-width: 1.5; stroke-linejoin: miter"/>
   </g>
   <g id="patch_36">
    <path d="M 228.702354 241.817149 
C 229.900944 241.817149 231.050603 241.340945 231.898134 240.493414 
C 232.745665 239.645884 233.221869 238.496224 233.221869 237.297635 
C 233.221869 236.099045 232.745665 234.949386 231.898134 234.101855 
C 231.050603 233.254324 229.900944 232.77812 228.702354 232.77812 
C 227.503765 232.77812 226.354105 233.254324 225.506575 234.101855 
C 224.659044 234.949386 224.182839 236.099045 224.182839 237.297635 
C 224.182839 238.496224 224.659044 239.645884 225.506575 240.493414 
C 226.354105 241.340945 227.503765 241.817149 228.702354 241.817149 
z
" clip-path="url(#p7d6d5faeec)" style="fill: #002d9c; stroke: #002d9c; stroke-width: 1.5; stroke-linejoin: miter"/>
   </g>
   <g id="patch_37">
    <path d="M 228.702354 340.551168 
C 231.499063 340.551168 234.181602 339.440024 236.159173 337.462453 
C 238.136745 335.484881 239.247889 332.802342 239.247889 330.005633 
C 239.247889 327.208925 238.136745 324.526386 236.159173 322.548814 
C 234.181602 320.571243 231.499063 319.460098 228.702354 319.460098 
C 225.905646 319.460098 223.223107 320.571243 221.245535 322.548814 
C 219.267964 324.526386 218.156819 327.208925 218.156819 330.005633 
C 218.156819 332.802342 219.267964 335.484881 221.245535 337.462453 
C 223.223107 339.440024 225.905646 340.551168 228.702354 340.551168 
z
" clip-path="url(#p7d6d5faeec)" style="fill: #002d9c; stroke: #002d9c; stroke-width: 2; stroke-linejoin: miter"/>
   </g>
   <g id="patch_38">
    <path d="M 266.460004 252.362684 
L 330.006702 252.362684 
L 330.006702 222.232585 
L 266.460004 222.232585 
z
" clip-path="url(#p7d6d5faeec)" style="fill: #9f1853; stroke: #9f1853; stroke-width: 1.5; stroke-linejoin: miter"/>
   </g>
   <g id="patch_39">
    <path d="M 262.209343 345.070683 
L 334.257364 345.070683 
L 334.257364 314.940584 
L 262.209343 314.940584 
z
" clip-path="url(#p7d6d5faeec)" style="fill: #9f1853; stroke: #9f1853; stroke-width: 1.5; stroke-linejoin: miter"/>
   </g>
   <g id="patch_40">
    <path d="M 367.764352 241.817149 
C 368.962942 241.817149 370.112601 241.340945 370.960132 240.493414 
C 371.807663 239.645884 372.283867 238.496224 372.283867 237.297635 
C 372.283867 236.099045 371.807663 234.949386 370.960132 234.101855 
C 370.112601 233.254324 368.962942 232.77812 367.764352 232.77812 
C 366.565763 232.77812 365.416103 233.254324 364.568573 234.101855 
C 363.721042 234.949386 363.244837 236.099045 363.244837 237.297635 
C 363.244837 238.496224 363.721042 239.645884 364.568573 240.493414 
C 365.416103 241.340945 366.565763 241.817149 367.764352 241.817149 
z
" clip-path="url(#p7d6d5faeec)" style="fill: #002d9c; stroke: #002d9c; stroke-width: 1.5; stroke-linejoin: miter"/>
   </g>
   <g id="patch_41">
    <path d="M 367.764352 294.197169 
C 370.561061 294.197169 373.2436 293.086025 375.221172 291.108453 
C 377.198743 289.130882 378.309887 286.448342 378.309887 283.651634 
C 378.309887 280.854925 377.198743 278.172386 375.221172 276.194815 
C 373.2436 274.217243 370.561061 273.106099 367.764352 273.106099 
C 364.967644 273.106099 362.285105 274.217243 360.307533 276.194815 
C 358.329962 278.172386 357.218818 280.854925 357.218818 283.651634 
C 357.218818 286.448342 358.329962 289.130882 360.307533 291.108453 
C 362.285105 293.086025 364.967644 294.197169 367.764352 294.197169 
z
" clip-path="url(#p7d6d5faeec)" style="fill: #002d9c; stroke: #002d9c; stroke-width: 2; stroke-linejoin: miter"/>
   </g>
   <g id="patch_42">
    <path d="M 400.112491 252.362684 
L 474.478212 252.362684 
L 474.478212 222.232585 
L 400.112491 222.232585 
z
" clip-path="url(#p7d6d5faeec)" style="fill: #9f1853; stroke: #9f1853; stroke-width: 1.5; stroke-linejoin: miter"/>
   </g>
   <g id="patch_43">
    <path d="M 409.723993 298.716684 
L 464.86671 298.716684 
L 464.86671 268.586584 
L 409.723993 268.586584 
z
" clip-path="url(#p7d6d5faeec)" style="fill: #9f1853; stroke: #9f1853; stroke-width: 1.5; stroke-linejoin: miter"/>
   </g>
   <g id="patch_44">
    <path d="M 506.826351 241.817149 
C 508.02494 241.817149 509.1746 241.340945 510.02213 240.493414 
C 510.869661 239.645884 511.345866 238.496224 511.345866 237.297635 
C 511.345866 236.099045 510.869661 234.949386 510.02213 234.101855 
C 509.1746 233.254324 508.02494 232.77812 506.826351 232.77812 
C 505.627761 232.77812 504.478102 233.254324 503.630571 234.101855 
C 502.78304 234.949386 502.306836 236.099045 502.306836 237.297635 
C 502.306836 238.496224 502.78304 239.645884 503.630571 240.493414 
C 504.478102 241.340945 505.627761 241.817149 506.826351 241.817149 
z
" clip-path="url(#p7d6d5faeec)" style="fill: #002d9c; stroke: #002d9c; stroke-width: 1.5; stroke-linejoin: miter"/>
   </g>
   <g id="patch_45">
    <path d="M 506.826351 340.551168 
C 509.623059 340.551168 512.305598 339.440024 514.28317 337.462453 
C 516.260741 335.484881 517.371885 332.802342 517.371885 330.005633 
C 517.371885 327.208925 516.260741 324.526386 514.28317 322.548814 
C 512.305598 320.571243 509.623059 319.460098 506.826351 319.460098 
C 504.029642 319.460098 501.347103 320.571243 499.369531 322.548814 
C 497.39196 324.526386 496.280816 327.208925 496.280816 330.005633 
C 496.280816 332.802342 497.39196 335.484881 499.369531 337.462453 
C 501.347103 339.440024 504.029642 340.551168 506.826351 340.551168 
z
" clip-path="url(#p7d6d5faeec)" style="fill: #002d9c; stroke: #002d9c; stroke-width: 2; stroke-linejoin: miter"/>
   </g>
   <g id="patch_46">
    <path d="M 546.901701 345.070683 
L 605.812999 345.070683 
L 605.812999 314.940584 
L 546.901701 314.940584 
z
" clip-path="url(#p7d6d5faeec)" style="fill: #9f1853; stroke: #9f1853; stroke-width: 1.5; stroke-linejoin: miter"/>
   </g>
   <g id="patch_47">
    <path d="M 645.888349 288.171149 
C 647.086938 288.171149 648.236598 287.694944 649.084128 286.847414 
C 649.931659 285.999883 650.407864 284.850223 650.407864 283.651634 
C 650.407864 282.453045 649.931659 281.303385 649.084128 280.455854 
C 648.236598 279.608324 647.086938 279.132119 645.888349 279.132119 
C 644.689759 279.132119 643.5401 279.608324 642.692569 280.455854 
C 641.845038 281.303385 641.368834 282.453045 641.368834 283.651634 
C 641.368834 284.850223 641.845038 285.999883 642.692569 286.847414 
C 643.5401 287.694944 644.689759 288.171149 645.888349 288.171149 
z
" clip-path="url(#p7d6d5faeec)" style="fill: #002d9c; stroke: #002d9c; stroke-width: 1.5; stroke-linejoin: miter"/>
   </g>
   <g id="patch_48">
    <path d="M 645.888349 340.551168 
C 648.685057 340.551168 651.367596 339.440024 653.345168 337.462453 
C 655.32274 335.484881 656.433884 332.802342 656.433884 330.005633 
C 656.433884 327.208925 655.32274 324.526386 653.345168 322.548814 
C 651.367596 320.571243 648.685057 319.460098 645.888349 319.460098 
C 643.09164 319.460098 640.409101 320.571243 638.43153 322.548814 
C 636.453958 324.526386 635.342814 327.208925 635.342814 330.005633 
C 635.342814 332.802342 636.453958 335.484881 638.43153 337.462453 
C 640.409101 339.440024 643.09164 340.551168 645.888349 340.551168 
z
" clip-path="url(#p7d6d5faeec)" style="fill: #002d9c; stroke: #002d9c; stroke-width: 2; stroke-linejoin: miter"/>
   </g>
   <g id="patch_49">
    <path d="M 671.86513 345.070683 
L 712.619566 345.070683 
L 712.619566 314.940584 
L 671.86513 314.940584 
z
" clip-path="url(#p7d6d5faeec)" style="fill: #9f1853; stroke: #9f1853; stroke-width: 1.5; stroke-linejoin: miter"/>
   </g>
   <g id="patch_50">
    <path d="M 738.596348 241.817149 
C 739.794937 241.817149 740.944596 241.340945 741.792127 240.493414 
C 742.639658 239.645884 743.115862 238.496224 743.115862 237.297635 
C 743.115862 236.099045 742.639658 234.949386 741.792127 234.101855 
C 740.944596 233.254324 739.794937 232.77812 738.596348 232.77812 
C 737.397758 232.77812 736.248099 233.254324 735.400568 234.101855 
C 734.553037 234.949386 734.076833 236.099045 734.076833 237.297635 
C 734.076833 238.496224 734.553037 239.645884 735.400568 240.493414 
C 736.248099 241.340945 737.397758 241.817149 738.596348 241.817149 
z
" clip-path="url(#p7d6d5faeec)" style="fill: #002d9c; stroke: #002d9c; stroke-width: 1.5; stroke-linejoin: miter"/>
   </g>
   <g id="patch_51">
    <path d="M 738.596348 340.551168 
C 741.393056 340.551168 744.075595 339.440024 746.053167 337.462453 
C 748.030738 335.484881 749.141882 332.802342 749.141882 330.005633 
C 749.141882 327.208925 748.030738 324.526386 746.053167 322.548814 
C 744.075595 320.571243 741.393056 319.460098 738.596348 319.460098 
C 735.799639 319.460098 733.1171 320.571243 731.139528 322.548814 
C 729.161957 324.526386 728.050813 327.208925 728.050813 330.005633 
C 728.050813 332.802342 729.161957 335.484881 731.139528 337.462453 
C 733.1171 339.440024 735.799639 340.551168 738.596348 340.551168 
z
" clip-path="url(#p7d6d5faeec)" style="fill: #002d9c; stroke: #002d9c; stroke-width: 2; stroke-linejoin: miter"/>
   </g>
   <g id="patch_52">
    <path d="M 764.573129 345.070683 
L 805.327565 345.070683 
L 805.327565 314.940584 
L 764.573129 314.940584 
z
" clip-path="url(#p7d6d5faeec)" style="fill: #9f1853; stroke: #9f1853; stroke-width: 1.5; stroke-linejoin: miter"/>
   </g>
   <g id="patch_53">
    <path d="M 831.304346 288.171149 
C 832.502936 288.171149 833.652595 287.694944 834.500126 286.847414 
C 835.347657 285.999883 835.823861 284.850223 835.823861 283.651634 
C 835.823861 282.453045 835.347657 281.303385 834.500126 280.455854 
C 833.652595 279.608324 832.502936 279.132119 831.304346 279.132119 
C 830.105757 279.132119 828.956097 279.608324 828.108567 280.455854 
C 827.261036 281.303385 826.784831 282.453045 826.784831 283.651634 
C 826.784831 284.850223 827.261036 285.999883 828.108567 286.847414 
C 828.956097 287.694944 830.105757 288.171149 831.304346 288.171149 
z
" clip-path="url(#p7d6d5faeec)" style="fill: #002d9c; stroke: #002d9c; stroke-width: 1.5; stroke-linejoin: miter"/>
   </g>
   <g id="patch_54">
    <path d="M 831.304346 340.551168 
C 834.101055 340.551168 836.783594 339.440024 838.761165 337.462453 
C 840.738737 335.484881 841.849881 332.802342 841.849881 330.005633 
C 841.849881 327.208925 840.738737 324.526386 838.761165 322.548814 
C 836.783594 320.571243 834.101055 319.460098 831.304346 319.460098 
C 828.507638 319.460098 825.825099 320.571243 823.847527 322.548814 
C 821.869955 324.526386 820.758811 327.208925 820.758811 330.005633 
C 820.758811 332.802342 821.869955 335.484881 823.847527 337.462453 
C 825.825099 339.440024 828.507638 340.551168 831.304346 340.551168 
z
" clip-path="url(#p7d6d5faeec)" style="fill: #002d9c; stroke: #002d9c; stroke-width: 2; stroke-linejoin: miter"/>
   </g>
   <g id="line2d_23">
    <path d="M 275.056354 104.261656 
L 275.056354 92.209616 
" clip-path="url(#p7d6d5faeec)" style="fill: none; stroke: #ffffff; stroke-width: 2; stroke-linecap: square"/>
   </g>
   <g id="line2d_24">
    <path d="M 269.030334 98.235636 
L 281.082374 98.235636 
" clip-path="url(#p7d6d5faeec)" style="fill: none; stroke: #ffffff; stroke-width: 2; stroke-linecap: square"/>
   </g>
   <g id="line2d_25">
    <path d="M 460.472351 104.261656 
L 460.472351 92.209616 
" clip-path="url(#p7d6d5faeec)" style="fill: none; stroke: #ffffff; stroke-width: 2; stroke-linecap: square"/>
   </g>
   <g id="line2d_26">
    <path d="M 454.446331 98.235636 
L 466.498371 98.235636 
" clip-path="url(#p7d6d5faeec)" style="fill: none; stroke: #ffffff; stroke-width: 2; stroke-linecap: square"/>
   </g>
   <g id="line2d_27">
    <path d="M 599.534349 150.615656 
L 599.534349 138.563616 
" clip-path="url(#p7d6d5faeec)" style="fill: none; stroke: #ffffff; stroke-width: 2; stroke-linecap: square"/>
   </g>
   <g id="line2d_28">
    <path d="M 593.508329 144.589636 
L 605.560369 144.589636 
" clip-path="url(#p7d6d5faeec)" style="fill: none; stroke: #ffffff; stroke-width: 2; stroke-linecap: square"/>
   </g>
   <g id="line2d_29">
    <path d="M 738.596348 150.615656 
L 738.596348 138.563616 
" clip-path="url(#p7d6d5faeec)" style="fill: none; stroke: #ffffff; stroke-width: 2; stroke-linecap: square"/>
   </g>
   <g id="line2d_30">
    <path d="M 732.570328 144.589636 
L 744.622367 144.589636 
" clip-path="url(#p7d6d5faeec)" style="fill: none; stroke: #ffffff; stroke-width: 2; stroke-linecap: square"/>
   </g>
   <g id="line2d_31">
    <path d="M 831.304346 150.615656 
L 831.304346 138.563616 
" clip-path="url(#p7d6d5faeec)" style="fill: none; stroke: #ffffff; stroke-width: 2; stroke-linecap: square"/>
   </g>
   <g id="line2d_32">
    <path d="M 825.278326 144.589636 
L 837.330366 144.589636 
" clip-path="url(#p7d6d5faeec)" style="fill: none; stroke: #ffffff; stroke-width: 2; stroke-linecap: square"/>
   </g>
   <g id="line2d_33">
    <path d="M 970.366344 150.615656 
L 970.366344 138.563616 
" clip-path="url(#p7d6d5faeec)" style="fill: none; stroke: #ffffff; stroke-width: 2; stroke-linecap: square"/>
   </g>
   <g id="line2d_34">
    <path d="M 964.340325 144.589636 
L 976.392364 144.589636 
" clip-path="url(#p7d6d5faeec)" style="fill: none; stroke: #ffffff; stroke-width: 2; stroke-linecap: square"/>
   </g>
   <g id="line2d_35">
    <path d="M 1109.428343 150.615656 
L 1109.428343 138.563616 
" clip-path="url(#p7d6d5faeec)" style="fill: none; stroke: #ffffff; stroke-width: 2; stroke-linecap: square"/>
   </g>
   <g id="line2d_36">
    <path d="M 1103.402323 144.589636 
L 1115.454363 144.589636 
" clip-path="url(#p7d6d5faeec)" style="fill: none; stroke: #ffffff; stroke-width: 2; stroke-linecap: square"/>
   </g>
   <g id="line2d_37">
    <path d="M 89.640356 336.031653 
L 89.640356 323.979613 
" clip-path="url(#p7d6d5faeec)" style="fill: none; stroke: #ffffff; stroke-width: 2; stroke-linecap: square"/>
   </g>
   <g id="line2d_38">
    <path d="M 83.614336 330.005633 
L 95.666376 330.005633 
" clip-path="url(#p7d6d5faeec)" style="fill: none; stroke: #ffffff; stroke-width: 2; stroke-linecap: square"/>
   </g>
   <g id="line2d_39">
    <path d="M 228.702354 336.031653 
L 228.702354 323.979613 
" clip-path="url(#p7d6d5faeec)" style="fill: none; stroke: #ffffff; stroke-width: 2; stroke-linecap: square"/>
   </g>
   <g id="line2d_40">
    <path d="M 222.676334 330.005633 
L 234.728374 330.005633 
" clip-path="url(#p7d6d5faeec)" style="fill: none; stroke: #ffffff; stroke-width: 2; stroke-linecap: square"/>
   </g>
   <g id="line2d_41">
    <path d="M 367.764352 289.677654 
L 367.764352 277.625614 
" clip-path="url(#p7d6d5faeec)" style="fill: none; stroke: #ffffff; stroke-width: 2; stroke-linecap: square"/>
   </g>
   <g id="line2d_42">
    <path d="M 361.738333 283.651634 
L 373.790372 283.651634 
" clip-path="url(#p7d6d5faeec)" style="fill: none; stroke: #ffffff; stroke-width: 2; stroke-linecap: square"/>
   </g>
   <g id="line2d_43">
    <path d="M 506.826351 336.031653 
L 506.826351 323.979613 
" clip-path="url(#p7d6d5faeec)" style="fill: none; stroke: #ffffff; stroke-width: 2; stroke-linecap: square"/>
   </g>
   <g id="line2d_44">
    <path d="M 500.800331 330.005633 
L 512.852371 330.005633 
" clip-path="url(#p7d6d5faeec)" style="fill: none; stroke: #ffffff; stroke-width: 2; stroke-linecap: square"/>
   </g>
   <g id="line2d_45">
    <path d="M 645.888349 336.031653 
L 645.888349 323.979613 
" clip-path="url(#p7d6d5faeec)" style="fill: none; stroke: #ffffff; stroke-width: 2; stroke-linecap: square"/>
   </g>
   <g id="line2d_46">
    <path d="M 639.862329 330.005633 
L 651.914369 330.005633 
" clip-path="url(#p7d6d5faeec)" style="fill: none; stroke: #ffffff; stroke-width: 2; stroke-linecap: square"/>
   </g>
   <g id="line2d_47">
    <path d="M 738.596348 336.031653 
L 738.596348 323.979613 
" clip-path="url(#p7d6d5faeec)" style="fill: none; stroke: #ffffff; stroke-width: 2; stroke-linecap: square"/>
   </g>
   <g id="line2d_48">
    <path d="M 732.570328 330.005633 
L 744.622367 330.005633 
" clip-path="url(#p7d6d5faeec)" style="fill: none; stroke: #ffffff; stroke-width: 2; stroke-linecap: square"/>
   </g>
   <g id="line2d_49">
    <path d="M 831.304346 336.031653 
L 831.304346 323.979613 
" clip-path="url(#p7d6d5faeec)" style="fill: none; stroke: #ffffff; stroke-width: 2; stroke-linecap: square"/>
   </g>
   <g id="line2d_50">
    <path d="M 825.278326 330.005633 
L 837.330366 330.005633 
" clip-path="url(#p7d6d5faeec)" style="fill: none; stroke: #ffffff; stroke-width: 2; stroke-linecap: square"/>
   </g>
   <g id="text_2">
    <g clip-path="url(#p7d6d5faeec)">
     <!-- ${q}_{0}$ -->
     <g transform="translate(37.300897 56.332614) scale(0.1625 -0.1625)">
      <defs>
       <path id="DejaVuSans-Oblique-71" d="M 2669 525 
Q 2438 222 2123 65 
Q 1809 -91 1428 -91 
Q 897 -91 595 267 
Q 294 625 294 1253 
Q 294 1759 480 2231 
Q 666 2703 1013 3078 
Q 1238 3322 1530 3453 
Q 1822 3584 2144 3584 
Q 2531 3584 2781 3431 
Q 3031 3278 3144 2969 
L 3244 3494 
L 3822 3494 
L 2888 -1319 
L 2309 -1319 
L 2669 525 
z
M 891 1338 
Q 891 875 1084 633 
Q 1278 391 1644 391 
Q 2188 391 2572 911 
Q 2956 1431 2956 2175 
Q 2956 2625 2757 2864 
Q 2559 3103 2188 3103 
Q 1916 3103 1684 2976 
Q 1453 2850 1281 2606 
Q 1100 2350 995 2006 
Q 891 1663 891 1338 
z
" transform="scale(0.015625)"/>
      </defs>
      <use xlink:href="#DejaVuSans-Oblique-71"/>
      <use xlink:href="#DejaVuSans-30" transform="translate(63.476562 -16.40625) scale(0.7)"/>
     </g>
    </g>
   </g>
   <g id="text_3">
    <g clip-path="url(#p7d6d5faeec)">
     <!-- ${q}_{1}$ -->
     <g transform="translate(37.300897 102.686613) scale(0.1625 -0.1625)">
      <use xlink:href="#DejaVuSans-Oblique-71"/>
      <use xlink:href="#DejaVuSans-31" transform="translate(63.476562 -16.40625) scale(0.7)"/>
     </g>
    </g>
   </g>
   <g id="text_4">
    <g clip-path="url(#p7d6d5faeec)">
     <!-- ${q}_{2}$ -->
     <g transform="translate(37.300897 149.040612) scale(0.1625 -0.1625)">
      <use xlink:href="#DejaVuSans-Oblique-71"/>
      <use xlink:href="#DejaVuSans-32" transform="translate(63.476562 -16.40625) scale(0.7)"/>
     </g>
    </g>
   </g>
   <g id="text_5">
    <g clip-path="url(#p7d6d5faeec)">
     <!-- ${q}_{0}$ -->
     <g transform="translate(37.300897 241.748611) scale(0.1625 -0.1625)">
      <use xlink:href="#DejaVuSans-Oblique-71"/>
      <use xlink:href="#DejaVuSans-30" transform="translate(63.476562 -16.40625) scale(0.7)"/>
     </g>
    </g>
   </g>
   <g id="text_6">
    <g clip-path="url(#p7d6d5faeec)">
     <!-- ${q}_{1}$ -->
     <g transform="translate(37.300897 288.10261) scale(0.1625 -0.1625)">
      <use xlink:href="#DejaVuSans-Oblique-71"/>
      <use xlink:href="#DejaVuSans-31" transform="translate(63.476562 -16.40625) scale(0.7)"/>
     </g>
    </g>
   </g>
   <g id="text_7">
    <g clip-path="url(#p7d6d5faeec)">
     <!-- ${q}_{2}$ -->
     <g transform="translate(37.300897 334.45661) scale(0.1625 -0.1625)">
      <use xlink:href="#DejaVuSans-Oblique-71"/>
      <use xlink:href="#DejaVuSans-32" transform="translate(63.476562 -16.40625) scale(0.7)"/>
     </g>
    </g>
   </g>
   <g id="text_8">
    <g clip-path="url(#p7d6d5faeec)">
     <!-- 1.66, 0, $\pi$/2 -->
     <g style="fill: #ffffff" transform="translate(90.097356 63.128167) scale(0.08 -0.08)">
      <defs>
       <path id="DejaVuSans-2c" d="M 750 794 
L 1409 794 
L 1409 256 
L 897 -744 
L 494 -744 
L 750 256 
L 750 794 
z
" transform="scale(0.015625)"/>
       <path id="DejaVuSans-Oblique-3c0" d="M 584 3500 
L 3938 3500 
L 3825 2925 
L 3384 2925 
L 2966 775 
Q 2922 550 2981 450 
Q 3038 353 3209 353 
Q 3256 353 3325 363 
Q 3397 369 3419 372 
L 3338 -44 
Q 3222 -84 3103 -103 
Q 2981 -122 2866 -122 
Q 2491 -122 2388 81 
Q 2284 288 2391 838 
L 2797 2925 
L 1506 2925 
L 938 0 
L 350 0 
L 919 2925 
L 472 2925 
L 584 3500 
z
" transform="scale(0.015625)"/>
       <path id="DejaVuSans-2f" d="M 1625 4666 
L 2156 4666 
L 531 -594 
L 0 -594 
L 1625 4666 
z
" transform="scale(0.015625)"/>
      </defs>
      <use xlink:href="#DejaVuSans-31" transform="translate(0 0.78125)"/>
      <use xlink:href="#DejaVuSans-2e" transform="translate(63.623047 0.78125)"/>
      <use xlink:href="#DejaVuSans-36" transform="translate(95.410156 0.78125)"/>
      <use xlink:href="#DejaVuSans-36" transform="translate(159.033203 0.78125)"/>
      <use xlink:href="#DejaVuSans-2c" transform="translate(222.65625 0.78125)"/>
      <use xlink:href="#DejaVuSans-20" transform="translate(254.443359 0.78125)"/>
      <use xlink:href="#DejaVuSans-30" transform="translate(286.230469 0.78125)"/>
      <use xlink:href="#DejaVuSans-2c" transform="translate(349.853516 0.78125)"/>
      <use xlink:href="#DejaVuSans-20" transform="translate(381.640625 0.78125)"/>
      <use xlink:href="#DejaVuSans-Oblique-3c0" transform="translate(413.427734 0.78125)"/>
      <use xlink:href="#DejaVuSans-2f" transform="translate(473.632812 0.78125)"/>
      <use xlink:href="#DejaVuSans-32" transform="translate(503.699219 0.78125)"/>
     </g>
    </g>
   </g>
   <g id="text_9">
    <g clip-path="url(#p7d6d5faeec)">
     <!-- $\mathrm{U_3}$ -->
     <g style="fill: #ffffff" transform="translate(104.887356 50.94931) scale(0.13 -0.13)">
      <defs>
       <path id="DejaVuSans-55" d="M 556 4666 
L 1191 4666 
L 1191 1831 
Q 1191 1081 1462 751 
Q 1734 422 2344 422 
Q 2950 422 3222 751 
Q 3494 1081 3494 1831 
L 3494 4666 
L 4128 4666 
L 4128 1753 
Q 4128 841 3676 375 
Q 3225 -91 2344 -91 
Q 1459 -91 1007 375 
Q 556 841 556 1753 
L 556 4666 
z
" transform="scale(0.015625)"/>
       <path id="DejaVuSans-33" d="M 2597 2516 
Q 3050 2419 3304 2112 
Q 3559 1806 3559 1356 
Q 3559 666 3084 287 
Q 2609 -91 1734 -91 
Q 1441 -91 1130 -33 
Q 819 25 488 141 
L 488 750 
Q 750 597 1062 519 
Q 1375 441 1716 441 
Q 2309 441 2620 675 
Q 2931 909 2931 1356 
Q 2931 1769 2642 2001 
Q 2353 2234 1838 2234 
L 1294 2234 
L 1294 2753 
L 1863 2753 
Q 2328 2753 2575 2939 
Q 2822 3125 2822 3475 
Q 2822 3834 2567 4026 
Q 2313 4219 1838 4219 
Q 1578 4219 1281 4162 
Q 984 4106 628 3988 
L 628 4550 
Q 988 4650 1302 4700 
Q 1616 4750 1894 4750 
Q 2613 4750 3031 4423 
Q 3450 4097 3450 3541 
Q 3450 3153 3228 2886 
Q 3006 2619 2597 2516 
z
" transform="scale(0.015625)"/>
      </defs>
      <use xlink:href="#DejaVuSans-55" transform="translate(0 0.09375)"/>
      <use xlink:href="#DejaVuSans-33" transform="translate(74.150391 -16.3125) scale(0.7)"/>
     </g>
    </g>
   </g>
   <g id="text_10">
    <g clip-path="url(#p7d6d5faeec)">
     <!-- $\mathrm{\left|0\right\rangle}$ -->
     <g transform="translate(104.432356 101.822824) scale(0.13 -0.13)">
      <defs>
       <path id="DejaVuSans-7c" d="M 1344 4891 
L 1344 -1509 
L 813 -1509 
L 813 4891 
L 1344 4891 
z
" transform="scale(0.015625)"/>
       <path id="DejaVuSans-27e9" d="M 1925 2006 
L 1044 -844 
L 513 -844 
L 1394 2006 
L 513 4856 
L 1044 4856 
L 1925 2006 
z
" transform="scale(0.015625)"/>
      </defs>
      <use xlink:href="#DejaVuSans-7c" transform="translate(0 16.625) scale(0.756406)"/>
      <use xlink:href="#DejaVuSans-30" transform="translate(25.479126 0.125)"/>
      <use xlink:href="#DejaVuSans-27e9" transform="translate(89.102173 0.125)"/>
     </g>
    </g>
   </g>
   <g id="text_11">
    <g clip-path="url(#p7d6d5faeec)">
     <!-- $\mathrm{\left|0\right\rangle}$ -->
     <g transform="translate(104.432356 148.176823) scale(0.13 -0.13)">
      <use xlink:href="#DejaVuSans-7c" transform="translate(0 16.625) scale(0.756406)"/>
      <use xlink:href="#DejaVuSans-30" transform="translate(25.479126 0.125)"/>
      <use xlink:href="#DejaVuSans-27e9" transform="translate(89.102173 0.125)"/>
     </g>
    </g>
   </g>
   <g id="text_12">
    <g clip-path="url(#p7d6d5faeec)">
     <!-- 0.754, $-$2$\pi$, $-$$\pi$/2 -->
     <g style="fill: #ffffff" transform="translate(171.485355 109.482166) scale(0.08 -0.08)">
      <defs>
       <path id="DejaVuSans-2212" d="M 678 2272 
L 4684 2272 
L 4684 1741 
L 678 1741 
L 678 2272 
z
" transform="scale(0.015625)"/>
      </defs>
      <use xlink:href="#DejaVuSans-30" transform="translate(0 0.78125)"/>
      <use xlink:href="#DejaVuSans-2e" transform="translate(63.623047 0.78125)"/>
      <use xlink:href="#DejaVuSans-37" transform="translate(87.660156 0.78125)"/>
      <use xlink:href="#DejaVuSans-35" transform="translate(151.283203 0.78125)"/>
      <use xlink:href="#DejaVuSans-34" transform="translate(214.90625 0.78125)"/>
      <use xlink:href="#DejaVuSans-2c" transform="translate(278.529297 0.78125)"/>
      <use xlink:href="#DejaVuSans-20" transform="translate(310.316406 0.78125)"/>
      <use xlink:href="#DejaVuSans-2212" transform="translate(342.103516 0.78125)"/>
      <use xlink:href="#DejaVuSans-32" transform="translate(425.892578 0.78125)"/>
      <use xlink:href="#DejaVuSans-Oblique-3c0" transform="translate(489.515625 0.78125)"/>
      <use xlink:href="#DejaVuSans-2c" transform="translate(549.720703 0.78125)"/>
      <use xlink:href="#DejaVuSans-20" transform="translate(581.507812 0.78125)"/>
      <use xlink:href="#DejaVuSans-2212" transform="translate(613.294922 0.78125)"/>
      <use xlink:href="#DejaVuSans-Oblique-3c0" transform="translate(697.083984 0.78125)"/>
      <use xlink:href="#DejaVuSans-2f" transform="translate(757.289062 0.78125)"/>
      <use xlink:href="#DejaVuSans-32" transform="translate(787.355469 0.78125)"/>
     </g>
    </g>
   </g>
   <g id="text_13">
    <g clip-path="url(#p7d6d5faeec)">
     <!-- $\mathrm{U_3}$ -->
     <g style="fill: #ffffff" transform="translate(197.595355 97.303309) scale(0.13 -0.13)">
      <use xlink:href="#DejaVuSans-55" transform="translate(0 0.09375)"/>
      <use xlink:href="#DejaVuSans-33" transform="translate(74.150391 -16.3125) scale(0.7)"/>
     </g>
    </g>
   </g>
   <g id="text_14">
    <g clip-path="url(#p7d6d5faeec)">
     <!-- 1.64, 0, 0 -->
     <g style="fill: #ffffff" transform="translate(186.444105 155.836166) scale(0.08 -0.08)">
      <use xlink:href="#DejaVuSans-31"/>
      <use xlink:href="#DejaVuSans-2e" x="63.623047"/>
      <use xlink:href="#DejaVuSans-36" x="95.410156"/>
      <use xlink:href="#DejaVuSans-34" x="159.033203"/>
      <use xlink:href="#DejaVuSans-2c" x="222.65625"/>
      <use xlink:href="#DejaVuSans-20" x="254.443359"/>
      <use xlink:href="#DejaVuSans-30" x="286.230469"/>
      <use xlink:href="#DejaVuSans-2c" x="349.853516"/>
      <use xlink:href="#DejaVuSans-20" x="381.640625"/>
      <use xlink:href="#DejaVuSans-30" x="413.427734"/>
     </g>
    </g>
   </g>
   <g id="text_15">
    <g clip-path="url(#p7d6d5faeec)">
     <!-- $\mathrm{U_3}$ -->
     <g style="fill: #ffffff" transform="translate(197.595355 143.657308) scale(0.13 -0.13)">
      <use xlink:href="#DejaVuSans-55" transform="translate(0 0.09375)"/>
      <use xlink:href="#DejaVuSans-33" transform="translate(74.150391 -16.3125) scale(0.7)"/>
     </g>
    </g>
   </g>
   <g id="text_16">
    <g clip-path="url(#p7d6d5faeec)">
     <!-- 0, 0, $-$1.39 -->
     <g style="fill: #ffffff" transform="translate(345.324352 155.836166) scale(0.08 -0.08)">
      <use xlink:href="#DejaVuSans-30" transform="translate(0 0.78125)"/>
      <use xlink:href="#DejaVuSans-2c" transform="translate(63.623047 0.78125)"/>
      <use xlink:href="#DejaVuSans-20" transform="translate(95.410156 0.78125)"/>
      <use xlink:href="#DejaVuSans-30" transform="translate(127.197266 0.78125)"/>
      <use xlink:href="#DejaVuSans-2c" transform="translate(190.820312 0.78125)"/>
      <use xlink:href="#DejaVuSans-20" transform="translate(222.607422 0.78125)"/>
      <use xlink:href="#DejaVuSans-2212" transform="translate(254.394531 0.78125)"/>
      <use xlink:href="#DejaVuSans-31" transform="translate(338.183594 0.78125)"/>
      <use xlink:href="#DejaVuSans-2e" transform="translate(401.806641 0.78125)"/>
      <use xlink:href="#DejaVuSans-33" transform="translate(433.59375 0.78125)"/>
      <use xlink:href="#DejaVuSans-39" transform="translate(497.216797 0.78125)"/>
     </g>
    </g>
   </g>
   <g id="text_17">
    <g clip-path="url(#p7d6d5faeec)">
     <!-- $\mathrm{U_3}$ -->
     <g style="fill: #ffffff" transform="translate(359.834352 143.657308) scale(0.13 -0.13)">
      <use xlink:href="#DejaVuSans-55" transform="translate(0 0.09375)"/>
      <use xlink:href="#DejaVuSans-33" transform="translate(74.150391 -16.3125) scale(0.7)"/>
     </g>
    </g>
   </g>
   <g id="text_18">
    <g clip-path="url(#p7d6d5faeec)">
     <!-- 1.73, $-$0.235, $-$0.974 -->
     <g style="fill: #ffffff" transform="translate(324.684352 109.482166) scale(0.08 -0.08)">
      <use xlink:href="#DejaVuSans-31" transform="translate(0 0.78125)"/>
      <use xlink:href="#DejaVuSans-2e" transform="translate(63.623047 0.78125)"/>
      <use xlink:href="#DejaVuSans-37" transform="translate(87.660156 0.78125)"/>
      <use xlink:href="#DejaVuSans-33" transform="translate(151.283203 0.78125)"/>
      <use xlink:href="#DejaVuSans-2c" transform="translate(214.90625 0.78125)"/>
      <use xlink:href="#DejaVuSans-20" transform="translate(246.693359 0.78125)"/>
      <use xlink:href="#DejaVuSans-2212" transform="translate(278.480469 0.78125)"/>
      <use xlink:href="#DejaVuSans-30" transform="translate(362.269531 0.78125)"/>
      <use xlink:href="#DejaVuSans-2e" transform="translate(425.892578 0.78125)"/>
      <use xlink:href="#DejaVuSans-32" transform="translate(452.179688 0.78125)"/>
      <use xlink:href="#DejaVuSans-33" transform="translate(515.802734 0.78125)"/>
      <use xlink:href="#DejaVuSans-35" transform="translate(579.425781 0.78125)"/>
      <use xlink:href="#DejaVuSans-2c" transform="translate(643.048828 0.78125)"/>
      <use xlink:href="#DejaVuSans-20" transform="translate(674.835938 0.78125)"/>
      <use xlink:href="#DejaVuSans-2212" transform="translate(706.623047 0.78125)"/>
      <use xlink:href="#DejaVuSans-30" transform="translate(790.412109 0.78125)"/>
      <use xlink:href="#DejaVuSans-2e" transform="translate(854.035156 0.78125)"/>
      <use xlink:href="#DejaVuSans-39" transform="translate(885.822266 0.78125)"/>
      <use xlink:href="#DejaVuSans-37" transform="translate(949.445312 0.78125)"/>
      <use xlink:href="#DejaVuSans-34" transform="translate(1013.068359 0.78125)"/>
     </g>
    </g>
   </g>
   <g id="text_19">
    <g clip-path="url(#p7d6d5faeec)">
     <!-- $\mathrm{U_3}$ -->
     <g style="fill: #ffffff" transform="translate(359.834352 97.303309) scale(0.13 -0.13)">
      <use xlink:href="#DejaVuSans-55" transform="translate(0 0.09375)"/>
      <use xlink:href="#DejaVuSans-33" transform="translate(74.150391 -16.3125) scale(0.7)"/>
     </g>
    </g>
   </g>
   <g id="text_20">
    <g clip-path="url(#p7d6d5faeec)">
     <!-- $\pi$/2, $-$1.76, $\pi$/2 -->
     <g style="fill: #ffffff" transform="translate(500.64335 63.128167) scale(0.08 -0.08)">
      <use xlink:href="#DejaVuSans-Oblique-3c0" transform="translate(0 0.78125)"/>
      <use xlink:href="#DejaVuSans-2f" transform="translate(60.205078 0.78125)"/>
      <use xlink:href="#DejaVuSans-32" transform="translate(90.271484 0.78125)"/>
      <use xlink:href="#DejaVuSans-2c" transform="translate(153.894531 0.78125)"/>
      <use xlink:href="#DejaVuSans-20" transform="translate(185.681641 0.78125)"/>
      <use xlink:href="#DejaVuSans-2212" transform="translate(217.46875 0.78125)"/>
      <use xlink:href="#DejaVuSans-31" transform="translate(301.257812 0.78125)"/>
      <use xlink:href="#DejaVuSans-2e" transform="translate(364.880859 0.78125)"/>
      <use xlink:href="#DejaVuSans-37" transform="translate(388.917969 0.78125)"/>
      <use xlink:href="#DejaVuSans-36" transform="translate(452.541016 0.78125)"/>
      <use xlink:href="#DejaVuSans-2c" transform="translate(516.164062 0.78125)"/>
      <use xlink:href="#DejaVuSans-20" transform="translate(547.951172 0.78125)"/>
      <use xlink:href="#DejaVuSans-Oblique-3c0" transform="translate(579.738281 0.78125)"/>
      <use xlink:href="#DejaVuSans-2f" transform="translate(639.943359 0.78125)"/>
      <use xlink:href="#DejaVuSans-32" transform="translate(670.009766 0.78125)"/>
     </g>
    </g>
   </g>
   <g id="text_21">
    <g clip-path="url(#p7d6d5faeec)">
     <!-- $\mathrm{U_3}$ -->
     <g style="fill: #ffffff" transform="translate(522.07335 50.94931) scale(0.13 -0.13)">
      <use xlink:href="#DejaVuSans-55" transform="translate(0 0.09375)"/>
      <use xlink:href="#DejaVuSans-33" transform="translate(74.150391 -16.3125) scale(0.7)"/>
     </g>
    </g>
   </g>
   <g id="text_22">
    <g clip-path="url(#p7d6d5faeec)">
     <!-- $\pi$/2, 2.09, $-$$\pi$ -->
     <g style="fill: #ffffff" transform="translate(504.08335 109.482166) scale(0.08 -0.08)">
      <use xlink:href="#DejaVuSans-Oblique-3c0" transform="translate(0 0.78125)"/>
      <use xlink:href="#DejaVuSans-2f" transform="translate(60.205078 0.78125)"/>
      <use xlink:href="#DejaVuSans-32" transform="translate(90.271484 0.78125)"/>
      <use xlink:href="#DejaVuSans-2c" transform="translate(153.894531 0.78125)"/>
      <use xlink:href="#DejaVuSans-20" transform="translate(185.681641 0.78125)"/>
      <use xlink:href="#DejaVuSans-32" transform="translate(217.46875 0.78125)"/>
      <use xlink:href="#DejaVuSans-2e" transform="translate(281.091797 0.78125)"/>
      <use xlink:href="#DejaVuSans-30" transform="translate(312.878906 0.78125)"/>
      <use xlink:href="#DejaVuSans-39" transform="translate(376.501953 0.78125)"/>
      <use xlink:href="#DejaVuSans-2c" transform="translate(440.125 0.78125)"/>
      <use xlink:href="#DejaVuSans-20" transform="translate(471.912109 0.78125)"/>
      <use xlink:href="#DejaVuSans-2212" transform="translate(503.699219 0.78125)"/>
      <use xlink:href="#DejaVuSans-Oblique-3c0" transform="translate(587.488281 0.78125)"/>
     </g>
    </g>
   </g>
   <g id="text_23">
    <g clip-path="url(#p7d6d5faeec)">
     <!-- $\mathrm{U_3}$ -->
     <g style="fill: #ffffff" transform="translate(522.07335 97.303309) scale(0.13 -0.13)">
      <use xlink:href="#DejaVuSans-55" transform="translate(0 0.09375)"/>
      <use xlink:href="#DejaVuSans-33" transform="translate(74.150391 -16.3125) scale(0.7)"/>
     </g>
    </g>
   </g>
   <g id="text_24">
    <g clip-path="url(#p7d6d5faeec)">
     <!-- 0, 0, $-$1.38 -->
     <g style="fill: #ffffff" transform="translate(646.625348 155.836166) scale(0.08 -0.08)">
      <use xlink:href="#DejaVuSans-30" transform="translate(0 0.78125)"/>
      <use xlink:href="#DejaVuSans-2c" transform="translate(63.623047 0.78125)"/>
      <use xlink:href="#DejaVuSans-20" transform="translate(95.410156 0.78125)"/>
      <use xlink:href="#DejaVuSans-30" transform="translate(127.197266 0.78125)"/>
      <use xlink:href="#DejaVuSans-2c" transform="translate(190.820312 0.78125)"/>
      <use xlink:href="#DejaVuSans-20" transform="translate(222.607422 0.78125)"/>
      <use xlink:href="#DejaVuSans-2212" transform="translate(254.394531 0.78125)"/>
      <use xlink:href="#DejaVuSans-31" transform="translate(338.183594 0.78125)"/>
      <use xlink:href="#DejaVuSans-2e" transform="translate(401.806641 0.78125)"/>
      <use xlink:href="#DejaVuSans-33" transform="translate(433.59375 0.78125)"/>
      <use xlink:href="#DejaVuSans-38" transform="translate(497.216797 0.78125)"/>
     </g>
    </g>
   </g>
   <g id="text_25">
    <g clip-path="url(#p7d6d5faeec)">
     <!-- $\mathrm{U_3}$ -->
     <g style="fill: #ffffff" transform="translate(661.135348 143.657308) scale(0.13 -0.13)">
      <use xlink:href="#DejaVuSans-55" transform="translate(0 0.09375)"/>
      <use xlink:href="#DejaVuSans-33" transform="translate(74.150391 -16.3125) scale(0.7)"/>
     </g>
    </g>
   </g>
   <g id="text_26">
    <g clip-path="url(#p7d6d5faeec)">
     <!-- 0, 0, 1.48 -->
     <g style="fill: #ffffff" transform="translate(765.869097 155.836166) scale(0.08 -0.08)">
      <use xlink:href="#DejaVuSans-30"/>
      <use xlink:href="#DejaVuSans-2c" x="63.623047"/>
      <use xlink:href="#DejaVuSans-20" x="95.410156"/>
      <use xlink:href="#DejaVuSans-30" x="127.197266"/>
      <use xlink:href="#DejaVuSans-2c" x="190.820312"/>
      <use xlink:href="#DejaVuSans-20" x="222.607422"/>
      <use xlink:href="#DejaVuSans-31" x="254.394531"/>
      <use xlink:href="#DejaVuSans-2e" x="318.017578"/>
      <use xlink:href="#DejaVuSans-34" x="349.804688"/>
      <use xlink:href="#DejaVuSans-38" x="413.427734"/>
     </g>
    </g>
   </g>
   <g id="text_27">
    <g clip-path="url(#p7d6d5faeec)">
     <!-- $\mathrm{U_3}$ -->
     <g style="fill: #ffffff" transform="translate(777.020347 143.657308) scale(0.13 -0.13)">
      <use xlink:href="#DejaVuSans-55" transform="translate(0 0.09375)"/>
      <use xlink:href="#DejaVuSans-33" transform="translate(74.150391 -16.3125) scale(0.7)"/>
     </g>
    </g>
   </g>
   <g id="text_28">
    <g clip-path="url(#p7d6d5faeec)">
     <!-- 0, 0, $-$1.14 -->
     <g style="fill: #ffffff" transform="translate(878.395345 155.836166) scale(0.08 -0.08)">
      <use xlink:href="#DejaVuSans-30" transform="translate(0 0.78125)"/>
      <use xlink:href="#DejaVuSans-2c" transform="translate(63.623047 0.78125)"/>
      <use xlink:href="#DejaVuSans-20" transform="translate(95.410156 0.78125)"/>
      <use xlink:href="#DejaVuSans-30" transform="translate(127.197266 0.78125)"/>
      <use xlink:href="#DejaVuSans-2c" transform="translate(190.820312 0.78125)"/>
      <use xlink:href="#DejaVuSans-20" transform="translate(222.607422 0.78125)"/>
      <use xlink:href="#DejaVuSans-2212" transform="translate(254.394531 0.78125)"/>
      <use xlink:href="#DejaVuSans-31" transform="translate(338.183594 0.78125)"/>
      <use xlink:href="#DejaVuSans-2e" transform="translate(401.806641 0.78125)"/>
      <use xlink:href="#DejaVuSans-31" transform="translate(433.59375 0.78125)"/>
      <use xlink:href="#DejaVuSans-34" transform="translate(497.216797 0.78125)"/>
     </g>
    </g>
   </g>
   <g id="text_29">
    <g clip-path="url(#p7d6d5faeec)">
     <!-- $\mathrm{U_3}$ -->
     <g style="fill: #ffffff" transform="translate(892.905345 143.657308) scale(0.13 -0.13)">
      <use xlink:href="#DejaVuSans-55" transform="translate(0 0.09375)"/>
      <use xlink:href="#DejaVuSans-33" transform="translate(74.150391 -16.3125) scale(0.7)"/>
     </g>
    </g>
   </g>
   <g id="text_30">
    <g clip-path="url(#p7d6d5faeec)">
     <!-- 0.492, 0, $-$$\pi$ -->
     <g style="fill: #ffffff" transform="translate(1015.097344 155.836166) scale(0.08 -0.08)">
      <use xlink:href="#DejaVuSans-30" transform="translate(0 0.78125)"/>
      <use xlink:href="#DejaVuSans-2e" transform="translate(63.623047 0.78125)"/>
      <use xlink:href="#DejaVuSans-34" transform="translate(95.410156 0.78125)"/>
      <use xlink:href="#DejaVuSans-39" transform="translate(159.033203 0.78125)"/>
      <use xlink:href="#DejaVuSans-32" transform="translate(220.90625 0.78125)"/>
      <use xlink:href="#DejaVuSans-2c" transform="translate(284.529297 0.78125)"/>
      <use xlink:href="#DejaVuSans-20" transform="translate(316.316406 0.78125)"/>
      <use xlink:href="#DejaVuSans-30" transform="translate(348.103516 0.78125)"/>
      <use xlink:href="#DejaVuSans-2c" transform="translate(411.726562 0.78125)"/>
      <use xlink:href="#DejaVuSans-20" transform="translate(443.513672 0.78125)"/>
      <use xlink:href="#DejaVuSans-2212" transform="translate(475.300781 0.78125)"/>
      <use xlink:href="#DejaVuSans-Oblique-3c0" transform="translate(559.089844 0.78125)"/>
     </g>
    </g>
   </g>
   <g id="text_31">
    <g clip-path="url(#p7d6d5faeec)">
     <!-- $\mathrm{U_3}$ -->
     <g style="fill: #ffffff" transform="translate(1031.967344 143.657308) scale(0.13 -0.13)">
      <use xlink:href="#DejaVuSans-55" transform="translate(0 0.09375)"/>
      <use xlink:href="#DejaVuSans-33" transform="translate(74.150391 -16.3125) scale(0.7)"/>
     </g>
    </g>
   </g>
   <g id="text_32">
    <g clip-path="url(#p7d6d5faeec)">
     <!-- 0.213, 0, 0 -->
     <g style="fill: #ffffff" transform="translate(1157.333092 155.836166) scale(0.08 -0.08)">
      <use xlink:href="#DejaVuSans-30"/>
      <use xlink:href="#DejaVuSans-2e" x="63.623047"/>
      <use xlink:href="#DejaVuSans-32" x="95.410156"/>
      <use xlink:href="#DejaVuSans-31" x="159.033203"/>
      <use xlink:href="#DejaVuSans-33" x="222.65625"/>
      <use xlink:href="#DejaVuSans-2c" x="286.279297"/>
      <use xlink:href="#DejaVuSans-20" x="318.066406"/>
      <use xlink:href="#DejaVuSans-30" x="349.853516"/>
      <use xlink:href="#DejaVuSans-2c" x="413.476562"/>
      <use xlink:href="#DejaVuSans-20" x="445.263672"/>
      <use xlink:href="#DejaVuSans-30" x="477.050781"/>
     </g>
    </g>
   </g>
   <g id="text_33">
    <g clip-path="url(#p7d6d5faeec)">
     <!-- $\mathrm{U_3}$ -->
     <g style="fill: #ffffff" transform="translate(1171.029342 143.657308) scale(0.13 -0.13)">
      <use xlink:href="#DejaVuSans-55" transform="translate(0 0.09375)"/>
      <use xlink:href="#DejaVuSans-33" transform="translate(74.150391 -16.3125) scale(0.7)"/>
     </g>
    </g>
   </g>
   <g id="text_34">
    <g clip-path="url(#p7d6d5faeec)">
     <!-- $\pi$/2, 0, $-$0.954 -->
     <g style="fill: #ffffff" transform="translate(130.571355 294.898164) scale(0.08 -0.08)">
      <use xlink:href="#DejaVuSans-Oblique-3c0" transform="translate(0 0.78125)"/>
      <use xlink:href="#DejaVuSans-2f" transform="translate(60.205078 0.78125)"/>
      <use xlink:href="#DejaVuSans-32" transform="translate(90.271484 0.78125)"/>
      <use xlink:href="#DejaVuSans-2c" transform="translate(153.894531 0.78125)"/>
      <use xlink:href="#DejaVuSans-20" transform="translate(185.681641 0.78125)"/>
      <use xlink:href="#DejaVuSans-30" transform="translate(217.46875 0.78125)"/>
      <use xlink:href="#DejaVuSans-2c" transform="translate(281.091797 0.78125)"/>
      <use xlink:href="#DejaVuSans-20" transform="translate(312.878906 0.78125)"/>
      <use xlink:href="#DejaVuSans-2212" transform="translate(344.666016 0.78125)"/>
      <use xlink:href="#DejaVuSans-30" transform="translate(428.455078 0.78125)"/>
      <use xlink:href="#DejaVuSans-2e" transform="translate(492.078125 0.78125)"/>
      <use xlink:href="#DejaVuSans-39" transform="translate(523.865234 0.78125)"/>
      <use xlink:href="#DejaVuSans-35" transform="translate(587.488281 0.78125)"/>
      <use xlink:href="#DejaVuSans-34" transform="translate(651.111328 0.78125)"/>
     </g>
    </g>
   </g>
   <g id="text_35">
    <g clip-path="url(#p7d6d5faeec)">
     <!-- $\mathrm{U_3}$ -->
     <g style="fill: #ffffff" transform="translate(151.241355 282.719306) scale(0.13 -0.13)">
      <use xlink:href="#DejaVuSans-55" transform="translate(0 0.09375)"/>
      <use xlink:href="#DejaVuSans-33" transform="translate(74.150391 -16.3125) scale(0.7)"/>
     </g>
    </g>
   </g>
   <g id="text_36">
    <g clip-path="url(#p7d6d5faeec)">
     <!-- 0.041, 0, 0 -->
     <g style="fill: #ffffff" transform="translate(137.545105 341.252163) scale(0.08 -0.08)">
      <use xlink:href="#DejaVuSans-30"/>
      <use xlink:href="#DejaVuSans-2e" x="63.623047"/>
      <use xlink:href="#DejaVuSans-30" x="95.410156"/>
      <use xlink:href="#DejaVuSans-34" x="159.033203"/>
      <use xlink:href="#DejaVuSans-31" x="222.65625"/>
      <use xlink:href="#DejaVuSans-2c" x="286.279297"/>
      <use xlink:href="#DejaVuSans-20" x="318.066406"/>
      <use xlink:href="#DejaVuSans-30" x="349.853516"/>
      <use xlink:href="#DejaVuSans-2c" x="413.476562"/>
      <use xlink:href="#DejaVuSans-20" x="445.263672"/>
      <use xlink:href="#DejaVuSans-30" x="477.050781"/>
     </g>
    </g>
   </g>
   <g id="text_37">
    <g clip-path="url(#p7d6d5faeec)">
     <!-- $\mathrm{U_3}$ -->
     <g style="fill: #ffffff" transform="translate(151.241355 329.073306) scale(0.13 -0.13)">
      <use xlink:href="#DejaVuSans-55" transform="translate(0 0.09375)"/>
      <use xlink:href="#DejaVuSans-33" transform="translate(74.150391 -16.3125) scale(0.7)"/>
     </g>
    </g>
   </g>
   <g id="text_38">
    <g clip-path="url(#p7d6d5faeec)">
     <!-- $\pi$/2, $\pi$/2, $-$2.95 -->
     <g style="fill: #ffffff" transform="translate(268.553353 248.544164) scale(0.08 -0.08)">
      <use xlink:href="#DejaVuSans-Oblique-3c0" transform="translate(0 0.78125)"/>
      <use xlink:href="#DejaVuSans-2f" transform="translate(60.205078 0.78125)"/>
      <use xlink:href="#DejaVuSans-32" transform="translate(90.271484 0.78125)"/>
      <use xlink:href="#DejaVuSans-2c" transform="translate(153.894531 0.78125)"/>
      <use xlink:href="#DejaVuSans-20" transform="translate(185.681641 0.78125)"/>
      <use xlink:href="#DejaVuSans-Oblique-3c0" transform="translate(217.46875 0.78125)"/>
      <use xlink:href="#DejaVuSans-2f" transform="translate(277.673828 0.78125)"/>
      <use xlink:href="#DejaVuSans-32" transform="translate(307.740234 0.78125)"/>
      <use xlink:href="#DejaVuSans-2c" transform="translate(371.363281 0.78125)"/>
      <use xlink:href="#DejaVuSans-20" transform="translate(403.150391 0.78125)"/>
      <use xlink:href="#DejaVuSans-2212" transform="translate(434.9375 0.78125)"/>
      <use xlink:href="#DejaVuSans-32" transform="translate(518.726562 0.78125)"/>
      <use xlink:href="#DejaVuSans-2e" transform="translate(582.349609 0.78125)"/>
      <use xlink:href="#DejaVuSans-39" transform="translate(614.136719 0.78125)"/>
      <use xlink:href="#DejaVuSans-35" transform="translate(677.759766 0.78125)"/>
     </g>
    </g>
   </g>
   <g id="text_39">
    <g clip-path="url(#p7d6d5faeec)">
     <!-- $\mathrm{U_3}$ -->
     <g style="fill: #ffffff" transform="translate(290.303353 236.365307) scale(0.13 -0.13)">
      <use xlink:href="#DejaVuSans-55" transform="translate(0 0.09375)"/>
      <use xlink:href="#DejaVuSans-33" transform="translate(74.150391 -16.3125) scale(0.7)"/>
     </g>
    </g>
   </g>
   <g id="text_40">
    <g clip-path="url(#p7d6d5faeec)">
     <!-- 0.941, 0.184, $-$$\pi$ -->
     <g style="fill: #ffffff" transform="translate(264.473353 341.252163) scale(0.08 -0.08)">
      <use xlink:href="#DejaVuSans-30" transform="translate(0 0.78125)"/>
      <use xlink:href="#DejaVuSans-2e" transform="translate(63.623047 0.78125)"/>
      <use xlink:href="#DejaVuSans-39" transform="translate(95.410156 0.78125)"/>
      <use xlink:href="#DejaVuSans-34" transform="translate(159.033203 0.78125)"/>
      <use xlink:href="#DejaVuSans-31" transform="translate(222.65625 0.78125)"/>
      <use xlink:href="#DejaVuSans-2c" transform="translate(286.279297 0.78125)"/>
      <use xlink:href="#DejaVuSans-20" transform="translate(318.066406 0.78125)"/>
      <use xlink:href="#DejaVuSans-30" transform="translate(349.853516 0.78125)"/>
      <use xlink:href="#DejaVuSans-2e" transform="translate(413.476562 0.78125)"/>
      <use xlink:href="#DejaVuSans-31" transform="translate(445.263672 0.78125)"/>
      <use xlink:href="#DejaVuSans-38" transform="translate(508.886719 0.78125)"/>
      <use xlink:href="#DejaVuSans-34" transform="translate(572.509766 0.78125)"/>
      <use xlink:href="#DejaVuSans-2c" transform="translate(636.132812 0.78125)"/>
      <use xlink:href="#DejaVuSans-20" transform="translate(667.919922 0.78125)"/>
      <use xlink:href="#DejaVuSans-2212" transform="translate(699.707031 0.78125)"/>
      <use xlink:href="#DejaVuSans-Oblique-3c0" transform="translate(783.496094 0.78125)"/>
     </g>
    </g>
   </g>
   <g id="text_41">
    <g clip-path="url(#p7d6d5faeec)">
     <!-- $\mathrm{U_3}$ -->
     <g style="fill: #ffffff" transform="translate(290.303353 329.073306) scale(0.13 -0.13)">
      <use xlink:href="#DejaVuSans-55" transform="translate(0 0.09375)"/>
      <use xlink:href="#DejaVuSans-33" transform="translate(74.150391 -16.3125) scale(0.7)"/>
     </g>
    </g>
   </g>
   <g id="text_42">
    <g clip-path="url(#p7d6d5faeec)">
     <!-- $\pi$/2, $-$0.0939, $\pi$/2 -->
     <g style="fill: #ffffff" transform="translate(402.535352 248.544164) scale(0.08 -0.08)">
      <use xlink:href="#DejaVuSans-Oblique-3c0" transform="translate(0 0.78125)"/>
      <use xlink:href="#DejaVuSans-2f" transform="translate(60.205078 0.78125)"/>
      <use xlink:href="#DejaVuSans-32" transform="translate(90.271484 0.78125)"/>
      <use xlink:href="#DejaVuSans-2c" transform="translate(153.894531 0.78125)"/>
      <use xlink:href="#DejaVuSans-20" transform="translate(185.681641 0.78125)"/>
      <use xlink:href="#DejaVuSans-2212" transform="translate(217.46875 0.78125)"/>
      <use xlink:href="#DejaVuSans-30" transform="translate(301.257812 0.78125)"/>
      <use xlink:href="#DejaVuSans-2e" transform="translate(364.880859 0.78125)"/>
      <use xlink:href="#DejaVuSans-30" transform="translate(396.667969 0.78125)"/>
      <use xlink:href="#DejaVuSans-39" transform="translate(460.291016 0.78125)"/>
      <use xlink:href="#DejaVuSans-33" transform="translate(523.914062 0.78125)"/>
      <use xlink:href="#DejaVuSans-39" transform="translate(587.537109 0.78125)"/>
      <use xlink:href="#DejaVuSans-2c" transform="translate(651.160156 0.78125)"/>
      <use xlink:href="#DejaVuSans-20" transform="translate(682.947266 0.78125)"/>
      <use xlink:href="#DejaVuSans-Oblique-3c0" transform="translate(714.734375 0.78125)"/>
      <use xlink:href="#DejaVuSans-2f" transform="translate(774.939453 0.78125)"/>
      <use xlink:href="#DejaVuSans-32" transform="translate(805.005859 0.78125)"/>
     </g>
    </g>
   </g>
   <g id="text_43">
    <g clip-path="url(#p7d6d5faeec)">
     <!-- $\mathrm{U_3}$ -->
     <g style="fill: #ffffff" transform="translate(429.365352 236.365307) scale(0.13 -0.13)">
      <use xlink:href="#DejaVuSans-55" transform="translate(0 0.09375)"/>
      <use xlink:href="#DejaVuSans-33" transform="translate(74.150391 -16.3125) scale(0.7)"/>
     </g>
    </g>
   </g>
   <g id="text_44">
    <g clip-path="url(#p7d6d5faeec)">
     <!-- $\pi$/2, 2.96, $-$$\pi$ -->
     <g style="fill: #ffffff" transform="translate(411.375352 294.898164) scale(0.08 -0.08)">
      <use xlink:href="#DejaVuSans-Oblique-3c0" transform="translate(0 0.78125)"/>
      <use xlink:href="#DejaVuSans-2f" transform="translate(60.205078 0.78125)"/>
      <use xlink:href="#DejaVuSans-32" transform="translate(90.271484 0.78125)"/>
      <use xlink:href="#DejaVuSans-2c" transform="translate(153.894531 0.78125)"/>
      <use xlink:href="#DejaVuSans-20" transform="translate(185.681641 0.78125)"/>
      <use xlink:href="#DejaVuSans-32" transform="translate(217.46875 0.78125)"/>
      <use xlink:href="#DejaVuSans-2e" transform="translate(281.091797 0.78125)"/>
      <use xlink:href="#DejaVuSans-39" transform="translate(312.878906 0.78125)"/>
      <use xlink:href="#DejaVuSans-36" transform="translate(376.501953 0.78125)"/>
      <use xlink:href="#DejaVuSans-2c" transform="translate(440.125 0.78125)"/>
      <use xlink:href="#DejaVuSans-20" transform="translate(471.912109 0.78125)"/>
      <use xlink:href="#DejaVuSans-2212" transform="translate(503.699219 0.78125)"/>
      <use xlink:href="#DejaVuSans-Oblique-3c0" transform="translate(587.488281 0.78125)"/>
     </g>
    </g>
   </g>
   <g id="text_45">
    <g clip-path="url(#p7d6d5faeec)">
     <!-- $\mathrm{U_3}$ -->
     <g style="fill: #ffffff" transform="translate(429.365352 282.719306) scale(0.13 -0.13)">
      <use xlink:href="#DejaVuSans-55" transform="translate(0 0.09375)"/>
      <use xlink:href="#DejaVuSans-33" transform="translate(74.150391 -16.3125) scale(0.7)"/>
     </g>
    </g>
   </g>
   <g id="text_46">
    <g clip-path="url(#p7d6d5faeec)">
     <!-- 0, 0, $-$0.0939 -->
     <g style="fill: #ffffff" transform="translate(548.79735 341.252163) scale(0.08 -0.08)">
      <use xlink:href="#DejaVuSans-30" transform="translate(0 0.78125)"/>
      <use xlink:href="#DejaVuSans-2c" transform="translate(63.623047 0.78125)"/>
      <use xlink:href="#DejaVuSans-20" transform="translate(95.410156 0.78125)"/>
      <use xlink:href="#DejaVuSans-30" transform="translate(127.197266 0.78125)"/>
      <use xlink:href="#DejaVuSans-2c" transform="translate(190.820312 0.78125)"/>
      <use xlink:href="#DejaVuSans-20" transform="translate(222.607422 0.78125)"/>
      <use xlink:href="#DejaVuSans-2212" transform="translate(254.394531 0.78125)"/>
      <use xlink:href="#DejaVuSans-30" transform="translate(338.183594 0.78125)"/>
      <use xlink:href="#DejaVuSans-2e" transform="translate(401.806641 0.78125)"/>
      <use xlink:href="#DejaVuSans-30" transform="translate(433.59375 0.78125)"/>
      <use xlink:href="#DejaVuSans-39" transform="translate(497.216797 0.78125)"/>
      <use xlink:href="#DejaVuSans-33" transform="translate(560.839844 0.78125)"/>
      <use xlink:href="#DejaVuSans-39" transform="translate(624.462891 0.78125)"/>
     </g>
    </g>
   </g>
   <g id="text_47">
    <g clip-path="url(#p7d6d5faeec)">
     <!-- $\mathrm{U_3}$ -->
     <g style="fill: #ffffff" transform="translate(568.42735 329.073306) scale(0.13 -0.13)">
      <use xlink:href="#DejaVuSans-55" transform="translate(0 0.09375)"/>
      <use xlink:href="#DejaVuSans-33" transform="translate(74.150391 -16.3125) scale(0.7)"/>
     </g>
    </g>
   </g>
   <g id="text_48">
    <g clip-path="url(#p7d6d5faeec)">
     <!-- 0, 0, 0.19 -->
     <g style="fill: #ffffff" transform="translate(673.161098 341.252163) scale(0.08 -0.08)">
      <use xlink:href="#DejaVuSans-30"/>
      <use xlink:href="#DejaVuSans-2c" x="63.623047"/>
      <use xlink:href="#DejaVuSans-20" x="95.410156"/>
      <use xlink:href="#DejaVuSans-30" x="127.197266"/>
      <use xlink:href="#DejaVuSans-2c" x="190.820312"/>
      <use xlink:href="#DejaVuSans-20" x="222.607422"/>
      <use xlink:href="#DejaVuSans-30" x="254.394531"/>
      <use xlink:href="#DejaVuSans-2e" x="318.017578"/>
      <use xlink:href="#DejaVuSans-31" x="349.804688"/>
      <use xlink:href="#DejaVuSans-39" x="413.427734"/>
     </g>
    </g>
   </g>
   <g id="text_49">
    <g clip-path="url(#p7d6d5faeec)">
     <!-- $\mathrm{U_3}$ -->
     <g style="fill: #ffffff" transform="translate(684.312348 329.073306) scale(0.13 -0.13)">
      <use xlink:href="#DejaVuSans-55" transform="translate(0 0.09375)"/>
      <use xlink:href="#DejaVuSans-33" transform="translate(74.150391 -16.3125) scale(0.7)"/>
     </g>
    </g>
   </g>
   <g id="text_50">
    <g clip-path="url(#p7d6d5faeec)">
     <!-- 0, 0, 2.01 -->
     <g style="fill: #ffffff" transform="translate(765.869097 341.252163) scale(0.08 -0.08)">
      <use xlink:href="#DejaVuSans-30"/>
      <use xlink:href="#DejaVuSans-2c" x="63.623047"/>
      <use xlink:href="#DejaVuSans-20" x="95.410156"/>
      <use xlink:href="#DejaVuSans-30" x="127.197266"/>
      <use xlink:href="#DejaVuSans-2c" x="190.820312"/>
      <use xlink:href="#DejaVuSans-20" x="222.607422"/>
      <use xlink:href="#DejaVuSans-32" x="254.394531"/>
      <use xlink:href="#DejaVuSans-2e" x="318.017578"/>
      <use xlink:href="#DejaVuSans-30" x="349.804688"/>
      <use xlink:href="#DejaVuSans-31" x="413.427734"/>
     </g>
    </g>
   </g>
   <g id="text_51">
    <g clip-path="url(#p7d6d5faeec)">
     <!-- $\mathrm{U_3}$ -->
     <g style="fill: #ffffff" transform="translate(777.020347 329.073306) scale(0.13 -0.13)">
      <use xlink:href="#DejaVuSans-55" transform="translate(0 0.09375)"/>
      <use xlink:href="#DejaVuSans-33" transform="translate(74.150391 -16.3125) scale(0.7)"/>
     </g>
    </g>
   </g>
  </g>
 </g>
 <defs>
  <clipPath id="p7d6d5faeec">
   <rect x="7.2" y="14.798437" width="1225.529981" height="343.019595"/>
  </clipPath>
 </defs>
</svg>
